G04 #@! TF.GenerationSoftware,KiCad,Pcbnew,5.0.1-33cea8e~68~ubuntu18.04.1*
G04 #@! TF.CreationDate,2018-11-28T03:54:02-05:00*
G04 #@! TF.ProjectId,psu,7073752E6B696361645F706362000000,rev?*
G04 #@! TF.SameCoordinates,Original*
G04 #@! TF.FileFunction,Copper,L1,Top,Signal*
G04 #@! TF.FilePolarity,Positive*
%FSLAX46Y46*%
G04 Gerber Fmt 4.6, Leading zero omitted, Abs format (unit mm)*
G04 Created by KiCad (PCBNEW 5.0.1-33cea8e~68~ubuntu18.04.1) date Wed Nov 28 03:54:02 2018*
%MOMM*%
%LPD*%
G01*
G04 APERTURE LIST*
G04 #@! TA.AperFunction,BGAPad,CuDef*
%ADD10C,1.270000*%
G04 #@! TD*
G04 #@! TA.AperFunction,ComponentPad*
%ADD11R,1.600000X1.600000*%
G04 #@! TD*
G04 #@! TA.AperFunction,SMDPad,CuDef*
%ADD12R,0.250000X1.300000*%
G04 #@! TD*
G04 #@! TA.AperFunction,SMDPad,CuDef*
%ADD13R,1.300000X0.250000*%
G04 #@! TD*
G04 #@! TA.AperFunction,SMDPad,CuDef*
%ADD14C,1.950000*%
G04 #@! TD*
G04 #@! TA.AperFunction,Conductor*
%ADD15C,0.350000*%
G04 #@! TD*
G04 #@! TA.AperFunction,SMDPad,CuDef*
%ADD16R,1.100000X0.200000*%
G04 #@! TD*
G04 #@! TA.AperFunction,ViaPad*
%ADD17C,0.600000*%
G04 #@! TD*
G04 #@! TA.AperFunction,ComponentPad*
%ADD18O,1.200000X1.700000*%
G04 #@! TD*
G04 #@! TA.AperFunction,ComponentPad*
%ADD19R,1.200000X1.700000*%
G04 #@! TD*
G04 #@! TA.AperFunction,Conductor*
%ADD20R,1.100000X0.425000*%
G04 #@! TD*
G04 #@! TA.AperFunction,SMDPad,CuDef*
%ADD21R,0.250000X1.000000*%
G04 #@! TD*
G04 #@! TA.AperFunction,SMDPad,CuDef*
%ADD22R,1.000000X0.250000*%
G04 #@! TD*
G04 #@! TA.AperFunction,Conductor*
%ADD23R,0.350000X2.000000*%
G04 #@! TD*
G04 #@! TA.AperFunction,Conductor*
%ADD24R,0.350000X2.300000*%
G04 #@! TD*
G04 #@! TA.AperFunction,SMDPad,CuDef*
%ADD25R,2.200000X2.200000*%
G04 #@! TD*
G04 #@! TA.AperFunction,SMDPad,CuDef*
%ADD26R,0.800000X0.900000*%
G04 #@! TD*
G04 #@! TA.AperFunction,ComponentPad*
%ADD27C,1.600000*%
G04 #@! TD*
G04 #@! TA.AperFunction,SMDPad,CuDef*
%ADD28R,1.300000X1.500000*%
G04 #@! TD*
G04 #@! TA.AperFunction,SMDPad,CuDef*
%ADD29R,1.100000X1.000000*%
G04 #@! TD*
G04 #@! TA.AperFunction,SMDPad,CuDef*
%ADD30R,1.600000X1.800000*%
G04 #@! TD*
G04 #@! TA.AperFunction,SMDPad,CuDef*
%ADD31R,1.000000X1.100000*%
G04 #@! TD*
G04 #@! TA.AperFunction,SMDPad,CuDef*
%ADD32R,1.500000X1.300000*%
G04 #@! TD*
G04 #@! TA.AperFunction,ViaPad*
%ADD33C,1.016000*%
G04 #@! TD*
G04 #@! TA.AperFunction,ComponentPad*
%ADD34C,6.350000*%
G04 #@! TD*
G04 #@! TA.AperFunction,ViaPad*
%ADD35C,0.711200*%
G04 #@! TD*
G04 #@! TA.AperFunction,Conductor*
%ADD36C,0.406400*%
G04 #@! TD*
G04 #@! TA.AperFunction,Conductor*
%ADD37C,0.203200*%
G04 #@! TD*
G04 #@! TA.AperFunction,Conductor*
%ADD38C,0.355600*%
G04 #@! TD*
G04 #@! TA.AperFunction,Conductor*
%ADD39C,0.254000*%
G04 #@! TD*
%ADD40C,0.350000*%
%ADD41C,0.300000*%
G04 APERTURE END LIST*
D10*
G04 #@! TO.P,TP2,1*
G04 #@! TO.N,+VIN*
X140970000Y-103187500D03*
G04 #@! TD*
G04 #@! TO.P,TP3,1*
G04 #@! TO.N,+SYS*
X164782500Y-97155000D03*
G04 #@! TD*
G04 #@! TO.P,TP4,1*
G04 #@! TO.N,GND*
X143510000Y-95885000D03*
G04 #@! TD*
G04 #@! TO.P,TP5,1*
G04 #@! TO.N,+5V*
X147320000Y-95885000D03*
G04 #@! TD*
G04 #@! TO.P,TP1,1*
G04 #@! TO.N,/BATT_IN*
X140970000Y-112712500D03*
G04 #@! TD*
D11*
G04 #@! TO.P,U2,EP*
G04 #@! TO.N,GND*
X153670000Y-109855000D03*
D12*
G04 #@! TO.P,U2,1*
G04 #@! TO.N,Net-(R11-Pad2)*
X152920000Y-111605000D03*
G04 #@! TO.P,U2,2*
G04 #@! TO.N,+BATT*
X153420000Y-111605000D03*
G04 #@! TO.P,U2,4*
G04 #@! TO.N,GND*
X154420000Y-111605000D03*
G04 #@! TO.P,U2,3*
G04 #@! TO.N,+BATT*
X153920000Y-111605000D03*
D13*
G04 #@! TO.P,U2,8*
G04 #@! TO.N,GND*
X155420000Y-109105000D03*
G04 #@! TO.P,U2,5*
G04 #@! TO.N,Net-(R13-Pad1)*
X155420000Y-110605000D03*
G04 #@! TO.P,U2,6*
G04 #@! TO.N,GND*
X155420000Y-110105000D03*
G04 #@! TO.P,U2,7*
G04 #@! TO.N,/ON_BATT*
X155420000Y-109605000D03*
D12*
G04 #@! TO.P,U2,9*
G04 #@! TO.N,/~CHG*
X154420000Y-108105000D03*
G04 #@! TO.P,U2,10*
G04 #@! TO.N,+SYS*
X153920000Y-108105000D03*
G04 #@! TO.P,U2,12*
G04 #@! TO.N,Net-(R9-Pad2)*
X152920000Y-108105000D03*
G04 #@! TO.P,U2,11*
G04 #@! TO.N,+SYS*
X153420000Y-108105000D03*
D13*
G04 #@! TO.P,U2,13*
G04 #@! TO.N,+VIN*
X151920000Y-109105000D03*
G04 #@! TO.P,U2,14*
G04 #@! TO.N,Net-(R10-Pad2)*
X151920000Y-109605000D03*
G04 #@! TO.P,U2,16*
G04 #@! TO.N,Net-(R8-Pad2)*
X151920000Y-110605000D03*
G04 #@! TO.P,U2,15*
G04 #@! TO.N,Net-(Q2-Pad3)*
X151920000Y-110105000D03*
G04 #@! TD*
D14*
G04 #@! TO.P,U1,EP*
G04 #@! TO.N,GND*
X155257500Y-117475000D03*
D15*
G04 #@! TD*
G04 #@! TO.N,GND*
G04 #@! TO.C,U1*
G36*
X156232500Y-118450000D02*
X154282500Y-118450000D01*
X154282500Y-119175000D01*
X154032500Y-119175000D01*
X154032500Y-115775000D01*
X154282500Y-115775000D01*
X154282500Y-116500000D01*
X156232500Y-116500000D01*
X156232500Y-115775000D01*
X156482500Y-115775000D01*
X156482500Y-119175000D01*
X156232500Y-119175000D01*
X156232500Y-118450000D01*
X156232500Y-118450000D01*
G37*
D16*
G04 #@! TO.P,U1,7*
G04 #@! TO.N,+BATT*
X153132500Y-116475000D03*
D17*
G04 #@! TD*
G04 #@! TO.N,GND*
G04 #@! TO.C,U1*
X155257500Y-116975000D03*
G04 #@! TO.N,GND*
G04 #@! TO.C,U1*
X155257500Y-117975000D03*
X156157500Y-117975000D03*
X154357500Y-117975000D03*
X154357500Y-116975000D03*
X156157500Y-116975000D03*
D16*
G04 #@! TD*
G04 #@! TO.P,U1,8*
G04 #@! TO.N,/BATT_IN*
X153132500Y-116875000D03*
G04 #@! TO.P,U1,9*
G04 #@! TO.N,N/C*
X153132500Y-117275000D03*
G04 #@! TO.P,U1,10*
G04 #@! TO.N,Net-(R1-Pad1)*
X153132500Y-117675000D03*
G04 #@! TO.P,U1,11*
G04 #@! TO.N,N/C*
X153132500Y-118075000D03*
G04 #@! TO.P,U1,12*
G04 #@! TO.N,Net-(R16-Pad1)*
X153132500Y-118475000D03*
G04 #@! TO.P,U1,6*
G04 #@! TO.N,/BATT_IN*
X157407500Y-116475000D03*
G04 #@! TO.P,U1,5*
G04 #@! TO.N,Net-(C9-Pad1)*
X157407500Y-116875000D03*
G04 #@! TO.P,U1,4*
G04 #@! TO.N,N/C*
X157407500Y-117275000D03*
G04 #@! TO.P,U1,1*
G04 #@! TO.N,/SDA*
X157407500Y-118475000D03*
G04 #@! TO.P,U1,2*
G04 #@! TO.N,/SCL*
X157407500Y-118075000D03*
G04 #@! TO.P,U1,3*
G04 #@! TO.N,GND*
X157407500Y-117675000D03*
G04 #@! TD*
D18*
G04 #@! TO.P,J3,2*
G04 #@! TO.N,GND*
X137525000Y-104140000D03*
D19*
G04 #@! TO.P,J3,1*
G04 #@! TO.N,/BATT_IN*
X135525000Y-104140000D03*
G04 #@! TD*
D20*
G04 #@! TO.N,+5V*
G04 #@! TO.C,U3*
X155412500Y-95670000D03*
G04 #@! TO.N,+SYS*
X158812500Y-95670000D03*
D21*
G04 #@! TD*
G04 #@! TO.P,U3,1*
G04 #@! TO.N,Net-(R14-Pad1)*
X157912500Y-93582500D03*
G04 #@! TO.P,U3,2*
G04 #@! TO.N,Net-(R15-Pad1)*
X157412500Y-93582500D03*
G04 #@! TO.P,U3,4*
G04 #@! TO.N,GND*
X156412500Y-93582500D03*
G04 #@! TO.P,U3,3*
G04 #@! TO.N,Net-(C4-Pad2)*
X156912500Y-93582500D03*
D22*
G04 #@! TO.P,U3,5*
G04 #@! TO.N,+5V*
X155412500Y-94207500D03*
G04 #@! TO.P,U3,6*
G04 #@! TO.N,Net-(U3-Pad6)*
X155412500Y-94707500D03*
D20*
G04 #@! TD*
G04 #@! TO.N,+5V*
G04 #@! TO.C,U3*
X155412500Y-95245000D03*
D23*
G04 #@! TO.N,/L2*
G04 #@! TO.C,U3*
X156662500Y-95982500D03*
D24*
G04 #@! TO.N,GND*
X157162500Y-95832500D03*
D23*
G04 #@! TO.N,/L1*
X157662500Y-95982500D03*
D20*
G04 #@! TO.N,+SYS*
X158812500Y-95245000D03*
D22*
G04 #@! TD*
G04 #@! TO.P,U3,15*
G04 #@! TO.N,GND*
X158812500Y-94207500D03*
G04 #@! TO.P,U3,14*
G04 #@! TO.N,Net-(R14-Pad1)*
X158812500Y-94707500D03*
G04 #@! TD*
D25*
G04 #@! TO.P,L1,2*
G04 #@! TO.N,/L2*
X154662500Y-101917500D03*
G04 #@! TO.P,L1,1*
G04 #@! TO.N,/L1*
X159662500Y-101917500D03*
G04 #@! TD*
D26*
G04 #@! TO.P,Q1,3*
G04 #@! TO.N,Net-(Q1-Pad3)*
X165735000Y-112982500D03*
G04 #@! TO.P,Q1,2*
G04 #@! TO.N,GND*
X166735000Y-114982500D03*
G04 #@! TO.P,Q1,1*
G04 #@! TO.N,Net-(Q1-Pad1)*
X164735000Y-114982500D03*
G04 #@! TD*
G04 #@! TO.P,Q2,3*
G04 #@! TO.N,Net-(Q2-Pad3)*
X165735000Y-110855000D03*
G04 #@! TO.P,Q2,2*
G04 #@! TO.N,GND*
X164735000Y-108855000D03*
G04 #@! TO.P,Q2,1*
G04 #@! TO.N,Net-(Q2-Pad1)*
X166735000Y-108855000D03*
G04 #@! TD*
D27*
G04 #@! TO.P,J1,6*
G04 #@! TO.N,GND*
X144145000Y-106680000D03*
G04 #@! TO.P,J1,5*
X146685000Y-106680000D03*
G04 #@! TO.P,J1,4*
G04 #@! TO.N,+VIN*
X144145000Y-104140000D03*
G04 #@! TO.P,J1,3*
G04 #@! TO.N,+5V*
X146685000Y-104140000D03*
G04 #@! TO.P,J1,2*
G04 #@! TO.N,+VIN*
X144145000Y-101600000D03*
D11*
G04 #@! TO.P,J1,1*
G04 #@! TO.N,+5V*
X146685000Y-101600000D03*
G04 #@! TD*
D27*
G04 #@! TO.P,J2,4*
G04 #@! TO.N,/SCL*
X171450000Y-111125000D03*
G04 #@! TO.P,J2,3*
G04 #@! TO.N,/SDA*
X171450000Y-113665000D03*
G04 #@! TO.P,J2,2*
G04 #@! TO.N,/ON_BATT*
X171450000Y-116205000D03*
D11*
G04 #@! TO.P,J2,1*
G04 #@! TO.N,/SYSOFF*
X171450000Y-118745000D03*
G04 #@! TD*
D28*
G04 #@! TO.P,C1,2*
G04 #@! TO.N,+SYS*
X165415000Y-99377500D03*
G04 #@! TO.P,C1,1*
G04 #@! TO.N,GND*
X163515000Y-99377500D03*
G04 #@! TD*
G04 #@! TO.P,C2,2*
G04 #@! TO.N,+SYS*
X165415000Y-101917500D03*
G04 #@! TO.P,C2,1*
G04 #@! TO.N,GND*
X163515000Y-101917500D03*
G04 #@! TD*
D29*
G04 #@! TO.P,C3,1*
G04 #@! TO.N,GND*
X159487500Y-97472500D03*
G04 #@! TO.P,C3,2*
G04 #@! TO.N,+SYS*
X161187500Y-97472500D03*
G04 #@! TD*
G04 #@! TO.P,C5,2*
G04 #@! TO.N,+5V*
X153137500Y-97472500D03*
G04 #@! TO.P,C5,1*
G04 #@! TO.N,GND*
X154837500Y-97472500D03*
G04 #@! TD*
D28*
G04 #@! TO.P,C6,2*
G04 #@! TO.N,+5V*
X148910000Y-98425000D03*
G04 #@! TO.P,C6,1*
G04 #@! TO.N,GND*
X150810000Y-98425000D03*
G04 #@! TD*
G04 #@! TO.P,C7,2*
G04 #@! TO.N,+5V*
X148910000Y-100965000D03*
G04 #@! TO.P,C7,1*
G04 #@! TO.N,GND*
X150810000Y-100965000D03*
G04 #@! TD*
G04 #@! TO.P,C8,2*
G04 #@! TO.N,+5V*
X148910000Y-103505000D03*
G04 #@! TO.P,C8,1*
G04 #@! TO.N,GND*
X150810000Y-103505000D03*
G04 #@! TD*
D30*
G04 #@! TO.P,R2,1*
G04 #@! TO.N,/BATT_IN*
X143062500Y-114300000D03*
G04 #@! TO.P,R2,2*
G04 #@! TO.N,+BATT*
X145862500Y-114300000D03*
G04 #@! TD*
D29*
G04 #@! TO.P,C4,1*
G04 #@! TO.N,GND*
X153137500Y-91440000D03*
G04 #@! TO.P,C4,2*
G04 #@! TO.N,Net-(C4-Pad2)*
X154837500Y-91440000D03*
G04 #@! TD*
D31*
G04 #@! TO.P,R1,1*
G04 #@! TO.N,Net-(R1-Pad1)*
X151130000Y-117895000D03*
G04 #@! TO.P,R1,2*
G04 #@! TO.N,GND*
X151130000Y-119595000D03*
G04 #@! TD*
G04 #@! TO.P,R3,2*
G04 #@! TO.N,/SYSOFF*
X168910000Y-114832500D03*
G04 #@! TO.P,R3,1*
G04 #@! TO.N,+5V*
X168910000Y-113132500D03*
G04 #@! TD*
D29*
G04 #@! TO.P,R4,1*
G04 #@! TO.N,/SYSOFF*
X166267500Y-117157500D03*
G04 #@! TO.P,R4,2*
G04 #@! TO.N,Net-(Q1-Pad1)*
X164567500Y-117157500D03*
G04 #@! TD*
D31*
G04 #@! TO.P,R5,2*
G04 #@! TO.N,Net-(Q1-Pad3)*
X168910000Y-109005000D03*
G04 #@! TO.P,R5,1*
G04 #@! TO.N,+5V*
X168910000Y-110705000D03*
G04 #@! TD*
D29*
G04 #@! TO.P,R6,1*
G04 #@! TO.N,Net-(Q1-Pad3)*
X168807500Y-106680000D03*
G04 #@! TO.P,R6,2*
G04 #@! TO.N,Net-(Q2-Pad1)*
X167107500Y-106680000D03*
G04 #@! TD*
D31*
G04 #@! TO.P,R7,2*
G04 #@! TO.N,Net-(Q2-Pad3)*
X162560000Y-111545000D03*
G04 #@! TO.P,R7,1*
G04 #@! TO.N,+BATT*
X162560000Y-113245000D03*
G04 #@! TD*
D29*
G04 #@! TO.P,R11,1*
G04 #@! TO.N,GND*
X157695000Y-113665000D03*
G04 #@! TO.P,R11,2*
G04 #@! TO.N,Net-(R11-Pad2)*
X155995000Y-113665000D03*
G04 #@! TD*
D31*
G04 #@! TO.P,R12,2*
G04 #@! TO.N,+5V*
X171450000Y-105830000D03*
G04 #@! TO.P,R12,1*
G04 #@! TO.N,/ON_BATT*
X171450000Y-107530000D03*
G04 #@! TD*
G04 #@! TO.P,R14,1*
G04 #@! TO.N,Net-(R14-Pad1)*
X162877500Y-93447500D03*
G04 #@! TO.P,R14,2*
G04 #@! TO.N,+SYS*
X162877500Y-95147500D03*
G04 #@! TD*
D29*
G04 #@! TO.P,R15,2*
G04 #@! TO.N,+5V*
X160870000Y-91440000D03*
G04 #@! TO.P,R15,1*
G04 #@! TO.N,Net-(R15-Pad1)*
X159170000Y-91440000D03*
G04 #@! TD*
G04 #@! TO.P,R8,1*
G04 #@! TO.N,GND*
X159917500Y-111442500D03*
G04 #@! TO.P,R8,2*
G04 #@! TO.N,Net-(R8-Pad2)*
X158217500Y-111442500D03*
G04 #@! TD*
G04 #@! TO.P,R9,2*
G04 #@! TO.N,Net-(R9-Pad2)*
X159487500Y-107632500D03*
G04 #@! TO.P,R9,1*
G04 #@! TO.N,GND*
X161187500Y-107632500D03*
G04 #@! TD*
G04 #@! TO.P,R10,2*
G04 #@! TO.N,Net-(R10-Pad2)*
X159487500Y-109537500D03*
G04 #@! TO.P,R10,1*
G04 #@! TO.N,GND*
X161187500Y-109537500D03*
G04 #@! TD*
G04 #@! TO.P,C9,1*
G04 #@! TO.N,Net-(C9-Pad1)*
X159805000Y-117157500D03*
G04 #@! TO.P,C9,2*
G04 #@! TO.N,GND*
X161505000Y-117157500D03*
G04 #@! TD*
G04 #@! TO.P,C10,1*
G04 #@! TO.N,GND*
X161505000Y-115252500D03*
G04 #@! TO.P,C10,2*
G04 #@! TO.N,/BATT_IN*
X159805000Y-115252500D03*
G04 #@! TD*
G04 #@! TO.P,R16,1*
G04 #@! TO.N,Net-(R16-Pad1)*
X159487500Y-119380000D03*
G04 #@! TO.P,R16,2*
G04 #@! TO.N,+5V*
X161187500Y-119380000D03*
G04 #@! TD*
D28*
G04 #@! TO.P,C11,1*
G04 #@! TO.N,GND*
X150815000Y-106172000D03*
G04 #@! TO.P,C11,2*
G04 #@! TO.N,+SYS*
X152715000Y-106172000D03*
G04 #@! TD*
D32*
G04 #@! TO.P,C12,1*
G04 #@! TO.N,GND*
X147955000Y-108270000D03*
G04 #@! TO.P,C12,2*
G04 #@! TO.N,+VIN*
X147955000Y-110170000D03*
G04 #@! TD*
G04 #@! TO.P,C13,2*
G04 #@! TO.N,+BATT*
X148272500Y-114297500D03*
G04 #@! TO.P,C13,1*
G04 #@! TO.N,GND*
X148272500Y-112397500D03*
G04 #@! TD*
D33*
G04 #@! TO.N,GND*
G04 #@! TO.C,H1*
X175334734Y-92837000D03*
X175334734Y-95123000D03*
X173355000Y-96266000D03*
X171375266Y-95123000D03*
X171375266Y-92837000D03*
X173355000Y-91694000D03*
D34*
G04 #@! TD*
G04 #@! TO.P,H1,P*
G04 #@! TO.N,GND*
X173355000Y-93980000D03*
D31*
G04 #@! TO.P,R13,1*
G04 #@! TO.N,Net-(R13-Pad1)*
X157162500Y-107847500D03*
G04 #@! TO.P,R13,2*
G04 #@! TO.N,+SYS*
X157162500Y-106147500D03*
G04 #@! TD*
D32*
G04 #@! TO.P,D1,K*
G04 #@! TO.N,Net-(D1-PadK)*
X169545000Y-100645000D03*
G04 #@! TO.P,D1,A*
G04 #@! TO.N,+SYS*
X169545000Y-98745000D03*
G04 #@! TD*
D31*
G04 #@! TO.P,R17,1*
G04 #@! TO.N,Net-(D1-PadK)*
X169545000Y-102972500D03*
G04 #@! TO.P,R17,2*
G04 #@! TO.N,/~CHG*
X169545000Y-104672500D03*
G04 #@! TD*
D35*
G04 #@! TO.N,+5V*
X168910000Y-112077500D03*
X163512500Y-119697500D03*
X153035000Y-94615000D03*
X162560000Y-91440000D03*
G04 #@! TO.N,GND*
X152400000Y-119380000D03*
X156210000Y-92392500D03*
X160337500Y-93662500D03*
X162877500Y-117157500D03*
X160972500Y-111442500D03*
X167322500Y-113665000D03*
X163830000Y-108855000D03*
X158750000Y-113665000D03*
X162877500Y-115252500D03*
X161925000Y-99060000D03*
X154940000Y-98742500D03*
X159385000Y-98742500D03*
X157162500Y-97790000D03*
X157162500Y-98742500D03*
X157162500Y-99695000D03*
X152400000Y-99060000D03*
X157162500Y-104140000D03*
X152400000Y-104140000D03*
X146685000Y-112395000D03*
X145732500Y-112395000D03*
X144780000Y-97155000D03*
X162242500Y-109537500D03*
X162242500Y-107632500D03*
X155892500Y-108267500D03*
G04 #@! TO.N,/ON_BATT*
X171450000Y-108902500D03*
X167322500Y-110172500D03*
G04 #@! TO.N,/SCL*
X169545000Y-116522500D03*
G04 #@! TO.N,/SYSOFF*
X168275000Y-116522500D03*
G04 #@! TO.N,Net-(R8-Pad2)*
X151447500Y-111442500D03*
X156210000Y-112077500D03*
G04 #@! TO.N,Net-(R10-Pad2)*
X158432500Y-109537500D03*
X149860000Y-111125000D03*
G04 #@! TO.N,Net-(R9-Pad2)*
X158432500Y-107632500D03*
X152082500Y-107632500D03*
G04 #@! TO.N,Net-(R11-Pad2)*
X154940000Y-113665000D03*
X151447500Y-112712500D03*
G04 #@! TO.N,/L1*
X160337500Y-100012500D03*
X159702500Y-100012500D03*
X159067500Y-100012500D03*
X158115000Y-98107500D03*
X158115000Y-97472500D03*
G04 #@! TO.N,/L2*
X156210000Y-98107500D03*
X153987500Y-100012500D03*
X154622500Y-100012500D03*
X155257500Y-100012500D03*
X156210000Y-97472500D03*
G04 #@! TO.N,/BATT_IN*
X153352500Y-115570000D03*
X151130000Y-116205000D03*
G04 #@! TO.N,Net-(Q2-Pad3)*
X159385000Y-112712500D03*
X150495000Y-112077500D03*
G04 #@! TO.N,Net-(R13-Pad1)*
X157162500Y-108902500D03*
X156845000Y-110807500D03*
G04 #@! TO.N,/~CHG*
X167640000Y-105410000D03*
X155575000Y-107315000D03*
G04 #@! TD*
D36*
G04 #@! TO.N,+5V*
X162877500Y-119697500D02*
X163512500Y-119697500D01*
X162560000Y-119380000D02*
X162877500Y-119697500D01*
X161187500Y-119380000D02*
X162560000Y-119380000D01*
D37*
X168910000Y-113132500D02*
X168910000Y-112077500D01*
D36*
X168910000Y-110705000D02*
X168910000Y-112077500D01*
X168910000Y-110705000D02*
X169647500Y-110705000D01*
X170180000Y-106362500D02*
X170712500Y-105830000D01*
X170712500Y-105830000D02*
X171450000Y-105830000D01*
X170180000Y-110172500D02*
X170180000Y-106362500D01*
X169647500Y-110705000D02*
X170180000Y-110172500D01*
X162560000Y-91440000D02*
X160870000Y-91440000D01*
D37*
X155412500Y-94207500D02*
X154178000Y-94207500D01*
D36*
X171450000Y-98107500D02*
X171450000Y-105830000D01*
X162560000Y-91440000D02*
X164782500Y-91440000D01*
X164782500Y-91440000D02*
X171450000Y-98107500D01*
D37*
G04 #@! TO.N,GND*
X156457500Y-117675000D02*
X156157500Y-117975000D01*
X157407500Y-117675000D02*
X156457500Y-117675000D01*
X152400000Y-119380000D02*
X151980000Y-119380000D01*
X151980000Y-119380000D02*
X151765000Y-119595000D01*
X151130000Y-119595000D02*
X151765000Y-119595000D01*
X156412500Y-93582500D02*
X156412500Y-92595000D01*
X156412500Y-92595000D02*
X156210000Y-92392500D01*
X158812500Y-94207500D02*
X159792500Y-94207500D01*
X159792500Y-94207500D02*
X160337500Y-93662500D01*
X153137500Y-91440000D02*
X153137500Y-92177500D01*
X153137500Y-92177500D02*
X153670000Y-92710000D01*
X153670000Y-92710000D02*
X155257500Y-92710000D01*
X155575000Y-92392500D02*
X156210000Y-92392500D01*
X155257500Y-92710000D02*
X155575000Y-92392500D01*
X161505000Y-117157500D02*
X162877500Y-117157500D01*
X159917500Y-111442500D02*
X160972500Y-111442500D01*
X166735000Y-114982500D02*
X166735000Y-114252500D01*
X166735000Y-114252500D02*
X167322500Y-113665000D01*
X163830000Y-108855000D02*
X164735000Y-108855000D01*
X158750000Y-113665000D02*
X157695000Y-113665000D01*
X161505000Y-115252500D02*
X162877500Y-115252500D01*
D38*
X157162500Y-98742500D02*
X157162500Y-98742500D01*
D39*
X157162500Y-95832500D02*
X157162500Y-97790000D01*
D36*
X144780000Y-97155000D02*
X143510000Y-95885000D01*
D37*
X161187500Y-109537500D02*
X162242500Y-109537500D01*
X161505000Y-107632500D02*
X162242500Y-107632500D01*
X153920000Y-110105000D02*
X153670000Y-109855000D01*
X154420000Y-111605000D02*
X154420000Y-110105000D01*
X155420000Y-110105000D02*
X154420000Y-110105000D01*
X154420000Y-110105000D02*
X153920000Y-110105000D01*
X155892500Y-108267500D02*
X155520000Y-108640000D01*
X155520000Y-108640000D02*
X155520000Y-109105000D01*
G04 #@! TO.N,+SYS*
X153920000Y-108105000D02*
X153920000Y-106997500D01*
X153420000Y-108105000D02*
X153420000Y-106997500D01*
X153420000Y-106997500D02*
X153920000Y-106997500D01*
X169545000Y-98745000D02*
X167007500Y-98745000D01*
G04 #@! TO.N,/ON_BATT*
X171450000Y-108902500D02*
X171450000Y-107530000D01*
X172720000Y-110172500D02*
X171450000Y-108902500D01*
X171450000Y-116205000D02*
X172720000Y-114935000D01*
X172720000Y-114935000D02*
X172720000Y-110172500D01*
X157230000Y-109605000D02*
X155520000Y-109605000D01*
X166687500Y-110172500D02*
X166370000Y-109855000D01*
X167322500Y-110172500D02*
X166687500Y-110172500D01*
X158115000Y-110490000D02*
X157230000Y-109605000D01*
X166370000Y-109855000D02*
X164147500Y-109855000D01*
X163512500Y-110490000D02*
X158115000Y-110490000D01*
X164147500Y-109855000D02*
X163512500Y-110490000D01*
G04 #@! TO.N,/SCL*
X163160000Y-118075000D02*
X157407500Y-118075000D01*
X163512500Y-118427500D02*
X163160000Y-118075000D01*
X169545000Y-116522500D02*
X167640000Y-118427500D01*
X167640000Y-118427500D02*
X163512500Y-118427500D01*
G04 #@! TO.N,/SDA*
X163195000Y-119062500D02*
X162607500Y-118475000D01*
X162607500Y-118475000D02*
X157407500Y-118475000D01*
X170180000Y-117157500D02*
X168275000Y-119062500D01*
X168275000Y-119062500D02*
X163195000Y-119062500D01*
X170180000Y-114935000D02*
X171450000Y-113665000D01*
X170180000Y-117157500D02*
X170180000Y-114935000D01*
G04 #@! TO.N,Net-(C9-Pad1)*
X158750000Y-117157500D02*
X159805000Y-117157500D01*
X157407500Y-116875000D02*
X158467500Y-116875000D01*
X158467500Y-116875000D02*
X158750000Y-117157500D01*
G04 #@! TO.N,Net-(R1-Pad1)*
X153132500Y-117675000D02*
X152200000Y-117675000D01*
X151980000Y-117895000D02*
X151130000Y-117895000D01*
X152200000Y-117675000D02*
X151980000Y-117895000D01*
G04 #@! TO.N,+BATT*
X161392500Y-113245000D02*
X160337500Y-114300000D01*
X162560000Y-113245000D02*
X161392500Y-113245000D01*
X158750000Y-114300000D02*
X158432500Y-114617500D01*
X158432500Y-114617500D02*
X154305000Y-114617500D01*
X160337500Y-114300000D02*
X158750000Y-114300000D01*
X153352500Y-113665000D02*
X154305000Y-114617500D01*
X153420000Y-111605000D02*
X153420000Y-112712500D01*
X153920000Y-111605000D02*
X153920000Y-112712500D01*
X153920000Y-112712500D02*
X153420000Y-112712500D01*
X145862500Y-115382500D02*
X145862500Y-114300000D01*
X146050000Y-115570000D02*
X145862500Y-115382500D01*
X151447500Y-115570000D02*
X146050000Y-115570000D01*
X153132500Y-116475000D02*
X152352500Y-116475000D01*
X152352500Y-116475000D02*
X151447500Y-115570000D01*
G04 #@! TO.N,/SYSOFF*
X168910000Y-115887500D02*
X168910000Y-114832500D01*
X166267500Y-117157500D02*
X167640000Y-117157500D01*
X167640000Y-117157500D02*
X168275000Y-116522500D01*
X168275000Y-116522500D02*
X168910000Y-115887500D01*
G04 #@! TO.N,Net-(R8-Pad2)*
X151447500Y-111442500D02*
X151820000Y-111070000D01*
X151820000Y-111070000D02*
X151820000Y-110605000D01*
X156845000Y-111442500D02*
X158217500Y-111442500D01*
X156210000Y-112077500D02*
X156845000Y-111442500D01*
G04 #@! TO.N,Net-(R10-Pad2)*
X158432500Y-109537500D02*
X159487500Y-109537500D01*
X149860000Y-111125000D02*
X149860000Y-110490000D01*
X149860000Y-110490000D02*
X150745000Y-109605000D01*
X150745000Y-109605000D02*
X151820000Y-109605000D01*
G04 #@! TO.N,Net-(R9-Pad2)*
X158432500Y-107632500D02*
X159487500Y-107632500D01*
X152455000Y-108005000D02*
X152920000Y-108005000D01*
X152082500Y-107632500D02*
X152455000Y-108005000D01*
G04 #@! TO.N,Net-(R11-Pad2)*
X155892500Y-113665000D02*
X156210000Y-113347500D01*
X154940000Y-113665000D02*
X155995000Y-113665000D01*
X152455000Y-111705000D02*
X152920000Y-111705000D01*
X151447500Y-112712500D02*
X152455000Y-111705000D01*
G04 #@! TO.N,Net-(R14-Pad1)*
X158812500Y-94707500D02*
X160245000Y-94707500D01*
X161505000Y-93447500D02*
X162877500Y-93447500D01*
X160245000Y-94707500D02*
X161505000Y-93447500D01*
X158812500Y-94707500D02*
X158207500Y-94707500D01*
X157912500Y-94412500D02*
X157912500Y-93582500D01*
X158207500Y-94707500D02*
X157912500Y-94412500D01*
G04 #@! TO.N,Net-(C4-Pad2)*
X154837500Y-91440000D02*
X156527500Y-91440000D01*
X156912500Y-91825000D02*
X156912500Y-93582500D01*
X156527500Y-91440000D02*
X156912500Y-91825000D01*
G04 #@! TO.N,Net-(R15-Pad1)*
X157797500Y-91440000D02*
X159170000Y-91440000D01*
X157412500Y-93582500D02*
X157412500Y-91825000D01*
X157412500Y-91825000D02*
X157797500Y-91440000D01*
D39*
G04 #@! TO.N,/L1*
X157662500Y-97020000D02*
X157662500Y-95982500D01*
X158115000Y-97472500D02*
X157662500Y-97020000D01*
G04 #@! TO.N,/L2*
X156210000Y-97472500D02*
X156662500Y-97020000D01*
X156662500Y-97020000D02*
X156662500Y-95982500D01*
D37*
G04 #@! TO.N,Net-(Q1-Pad3)*
X168807500Y-107530000D02*
X168807500Y-106680000D01*
X168910000Y-107632500D02*
X168807500Y-107530000D01*
X168910000Y-107632500D02*
X168910000Y-109005000D01*
X166735000Y-112982500D02*
X165735000Y-112982500D01*
X167957500Y-111760000D02*
X166735000Y-112982500D01*
X167957500Y-109220000D02*
X167957500Y-111760000D01*
X168910000Y-109005000D02*
X168172500Y-109005000D01*
X168172500Y-109005000D02*
X167957500Y-109220000D01*
G04 #@! TO.N,Net-(Q1-Pad1)*
X164567500Y-117157500D02*
X164567500Y-116420000D01*
X164735000Y-116252500D02*
X164735000Y-114982500D01*
X164567500Y-116420000D02*
X164735000Y-116252500D01*
G04 #@! TO.N,Net-(Q2-Pad1)*
X167107500Y-106680000D02*
X167107500Y-107530000D01*
X166735000Y-107902500D02*
X166735000Y-108855000D01*
X167107500Y-107530000D02*
X166735000Y-107902500D01*
G04 #@! TO.N,Net-(R16-Pad1)*
X159487500Y-119380000D02*
X158115000Y-119380000D01*
X158115000Y-119380000D02*
X157480000Y-120015000D01*
X157480000Y-120015000D02*
X153670000Y-120015000D01*
X153132500Y-119477500D02*
X153132500Y-118475000D01*
X153670000Y-120015000D02*
X153132500Y-119477500D01*
G04 #@! TO.N,/BATT_IN*
X157407500Y-115570000D02*
X157407500Y-115252500D01*
X157407500Y-115252500D02*
X157407500Y-116475000D01*
X159805000Y-115252500D02*
X159067500Y-115252500D01*
X159487500Y-115252500D02*
X159067500Y-115252500D01*
X159067500Y-115252500D02*
X157407500Y-115252500D01*
X153670000Y-115252500D02*
X157407500Y-115252500D01*
X153352500Y-115570000D02*
X153670000Y-115252500D01*
X151130000Y-116205000D02*
X151800000Y-116875000D01*
X151800000Y-116875000D02*
X153132500Y-116875000D01*
X151130000Y-116205000D02*
X143827500Y-116205000D01*
X143827500Y-116205000D02*
X143062500Y-115440000D01*
X143062500Y-115440000D02*
X143062500Y-114300000D01*
G04 #@! TO.N,Net-(Q2-Pad3)*
X159385000Y-112712500D02*
X160655000Y-112712500D01*
X160655000Y-112712500D02*
X161822500Y-111545000D01*
X161822500Y-111545000D02*
X162560000Y-111545000D01*
X150495000Y-112077500D02*
X150495000Y-110490000D01*
X150495000Y-110490000D02*
X150880000Y-110105000D01*
X150880000Y-110105000D02*
X151820000Y-110105000D01*
X163727500Y-111545000D02*
X164417500Y-110855000D01*
X162560000Y-111545000D02*
X163727500Y-111545000D01*
X164417500Y-110855000D02*
X165735000Y-110855000D01*
G04 #@! TO.N,Net-(R13-Pad1)*
X157162500Y-107847500D02*
X157162500Y-108902500D01*
X156845000Y-110807500D02*
X156527500Y-110807500D01*
X156325000Y-110605000D02*
X155420000Y-110605000D01*
X156527500Y-110807500D02*
X156325000Y-110605000D01*
G04 #@! TO.N,Net-(D1-PadK)*
X169545000Y-100645000D02*
X169545000Y-102972500D01*
G04 #@! TO.N,/~CHG*
X168377500Y-104672500D02*
X169545000Y-104672500D01*
X167640000Y-105410000D02*
X168377500Y-104672500D01*
X154785000Y-108105000D02*
X154420000Y-108105000D01*
X155575000Y-107315000D02*
X154785000Y-108105000D01*
G04 #@! TD*
D39*
G04 #@! TO.N,+5V*
G36*
X154432000Y-94996000D02*
X154441667Y-95044601D01*
X154469197Y-95085803D01*
X154510399Y-95113333D01*
X154559000Y-95123000D01*
X154810591Y-95123000D01*
X154912500Y-95143271D01*
X155829000Y-95143271D01*
X155829000Y-95758000D01*
X154305000Y-95758000D01*
X154256399Y-95767667D01*
X154215197Y-95795197D01*
X153580197Y-96430197D01*
X153552667Y-96471399D01*
X153543000Y-96520000D01*
X153543000Y-96591500D01*
X153308950Y-96591500D01*
X153213700Y-96686750D01*
X153213700Y-97396300D01*
X153233700Y-97396300D01*
X153233700Y-97548700D01*
X153213700Y-97548700D01*
X153213700Y-97568700D01*
X153061300Y-97568700D01*
X153061300Y-97548700D01*
X152301750Y-97548700D01*
X152206500Y-97643950D01*
X152206500Y-97734394D01*
X151537303Y-97065197D01*
X151496101Y-97037667D01*
X151447500Y-97028000D01*
X149860000Y-97028000D01*
X149811399Y-97037667D01*
X149770197Y-97065197D01*
X149541394Y-97294000D01*
X149081450Y-97294000D01*
X148986200Y-97389250D01*
X148986200Y-98348800D01*
X149006200Y-98348800D01*
X149006200Y-98501200D01*
X148986200Y-98501200D01*
X148986200Y-99460750D01*
X149081450Y-99556000D01*
X149415500Y-99556000D01*
X149415500Y-99834000D01*
X149081450Y-99834000D01*
X148986200Y-99929250D01*
X148986200Y-100888800D01*
X149006200Y-100888800D01*
X149006200Y-101041200D01*
X148986200Y-101041200D01*
X148986200Y-102000750D01*
X149081450Y-102096000D01*
X149415500Y-102096000D01*
X149415500Y-102374000D01*
X149081450Y-102374000D01*
X148986200Y-102469250D01*
X148986200Y-103428800D01*
X149006200Y-103428800D01*
X149006200Y-103581200D01*
X148986200Y-103581200D01*
X148986200Y-103601200D01*
X148833800Y-103601200D01*
X148833800Y-103581200D01*
X147974250Y-103581200D01*
X147879000Y-103676450D01*
X147879000Y-104330785D01*
X147937004Y-104470819D01*
X148044180Y-104577996D01*
X148184214Y-104636000D01*
X148738550Y-104636000D01*
X148833798Y-104540752D01*
X148833798Y-104636000D01*
X148866894Y-104636000D01*
X148854894Y-104648000D01*
X146177000Y-104648000D01*
X146177000Y-102781000D01*
X146208750Y-102781000D01*
X146304000Y-102685750D01*
X146304000Y-101981000D01*
X147066000Y-101981000D01*
X147066000Y-102685750D01*
X147161250Y-102781000D01*
X147560785Y-102781000D01*
X147700819Y-102722996D01*
X147744600Y-102679215D01*
X147879000Y-102679215D01*
X147879000Y-103333550D01*
X147974250Y-103428800D01*
X148833800Y-103428800D01*
X148833800Y-102469250D01*
X148738550Y-102374000D01*
X148184214Y-102374000D01*
X148044180Y-102432004D01*
X147937004Y-102539181D01*
X147879000Y-102679215D01*
X147744600Y-102679215D01*
X147807996Y-102615820D01*
X147866000Y-102475786D01*
X147866000Y-102076250D01*
X147770750Y-101981000D01*
X147066000Y-101981000D01*
X146304000Y-101981000D01*
X146284000Y-101981000D01*
X146284000Y-101219000D01*
X146304000Y-101219000D01*
X146304000Y-100514250D01*
X147066000Y-100514250D01*
X147066000Y-101219000D01*
X147770750Y-101219000D01*
X147853300Y-101136450D01*
X147879000Y-101136450D01*
X147879000Y-101790785D01*
X147937004Y-101930819D01*
X148044180Y-102037996D01*
X148184214Y-102096000D01*
X148738550Y-102096000D01*
X148833800Y-102000750D01*
X148833800Y-101041200D01*
X147974250Y-101041200D01*
X147879000Y-101136450D01*
X147853300Y-101136450D01*
X147866000Y-101123750D01*
X147866000Y-100724214D01*
X147807996Y-100584180D01*
X147700819Y-100477004D01*
X147560785Y-100419000D01*
X147161250Y-100419000D01*
X147066000Y-100514250D01*
X146304000Y-100514250D01*
X146208750Y-100419000D01*
X146177000Y-100419000D01*
X146177000Y-100139215D01*
X147879000Y-100139215D01*
X147879000Y-100793550D01*
X147974250Y-100888800D01*
X148833800Y-100888800D01*
X148833800Y-99929250D01*
X148738550Y-99834000D01*
X148184214Y-99834000D01*
X148044180Y-99892004D01*
X147937004Y-99999181D01*
X147879000Y-100139215D01*
X146177000Y-100139215D01*
X146177000Y-98596450D01*
X147879000Y-98596450D01*
X147879000Y-99250785D01*
X147937004Y-99390819D01*
X148044180Y-99497996D01*
X148184214Y-99556000D01*
X148738550Y-99556000D01*
X148833800Y-99460750D01*
X148833800Y-98501200D01*
X147974250Y-98501200D01*
X147879000Y-98596450D01*
X146177000Y-98596450D01*
X146177000Y-97599215D01*
X147879000Y-97599215D01*
X147879000Y-98253550D01*
X147974250Y-98348800D01*
X148833800Y-98348800D01*
X148833800Y-97389250D01*
X148738550Y-97294000D01*
X148184214Y-97294000D01*
X148044180Y-97352004D01*
X147937004Y-97459181D01*
X147879000Y-97599215D01*
X146177000Y-97599215D01*
X146177000Y-96896715D01*
X152206500Y-96896715D01*
X152206500Y-97301050D01*
X152301750Y-97396300D01*
X153061300Y-97396300D01*
X153061300Y-96686750D01*
X152966050Y-96591500D01*
X152511714Y-96591500D01*
X152371680Y-96649504D01*
X152264504Y-96756681D01*
X152206500Y-96896715D01*
X146177000Y-96896715D01*
X146177000Y-94107000D01*
X154432000Y-94107000D01*
X154432000Y-94996000D01*
X154432000Y-94996000D01*
G37*
X154432000Y-94996000D02*
X154441667Y-95044601D01*
X154469197Y-95085803D01*
X154510399Y-95113333D01*
X154559000Y-95123000D01*
X154810591Y-95123000D01*
X154912500Y-95143271D01*
X155829000Y-95143271D01*
X155829000Y-95758000D01*
X154305000Y-95758000D01*
X154256399Y-95767667D01*
X154215197Y-95795197D01*
X153580197Y-96430197D01*
X153552667Y-96471399D01*
X153543000Y-96520000D01*
X153543000Y-96591500D01*
X153308950Y-96591500D01*
X153213700Y-96686750D01*
X153213700Y-97396300D01*
X153233700Y-97396300D01*
X153233700Y-97548700D01*
X153213700Y-97548700D01*
X153213700Y-97568700D01*
X153061300Y-97568700D01*
X153061300Y-97548700D01*
X152301750Y-97548700D01*
X152206500Y-97643950D01*
X152206500Y-97734394D01*
X151537303Y-97065197D01*
X151496101Y-97037667D01*
X151447500Y-97028000D01*
X149860000Y-97028000D01*
X149811399Y-97037667D01*
X149770197Y-97065197D01*
X149541394Y-97294000D01*
X149081450Y-97294000D01*
X148986200Y-97389250D01*
X148986200Y-98348800D01*
X149006200Y-98348800D01*
X149006200Y-98501200D01*
X148986200Y-98501200D01*
X148986200Y-99460750D01*
X149081450Y-99556000D01*
X149415500Y-99556000D01*
X149415500Y-99834000D01*
X149081450Y-99834000D01*
X148986200Y-99929250D01*
X148986200Y-100888800D01*
X149006200Y-100888800D01*
X149006200Y-101041200D01*
X148986200Y-101041200D01*
X148986200Y-102000750D01*
X149081450Y-102096000D01*
X149415500Y-102096000D01*
X149415500Y-102374000D01*
X149081450Y-102374000D01*
X148986200Y-102469250D01*
X148986200Y-103428800D01*
X149006200Y-103428800D01*
X149006200Y-103581200D01*
X148986200Y-103581200D01*
X148986200Y-103601200D01*
X148833800Y-103601200D01*
X148833800Y-103581200D01*
X147974250Y-103581200D01*
X147879000Y-103676450D01*
X147879000Y-104330785D01*
X147937004Y-104470819D01*
X148044180Y-104577996D01*
X148184214Y-104636000D01*
X148738550Y-104636000D01*
X148833798Y-104540752D01*
X148833798Y-104636000D01*
X148866894Y-104636000D01*
X148854894Y-104648000D01*
X146177000Y-104648000D01*
X146177000Y-102781000D01*
X146208750Y-102781000D01*
X146304000Y-102685750D01*
X146304000Y-101981000D01*
X147066000Y-101981000D01*
X147066000Y-102685750D01*
X147161250Y-102781000D01*
X147560785Y-102781000D01*
X147700819Y-102722996D01*
X147744600Y-102679215D01*
X147879000Y-102679215D01*
X147879000Y-103333550D01*
X147974250Y-103428800D01*
X148833800Y-103428800D01*
X148833800Y-102469250D01*
X148738550Y-102374000D01*
X148184214Y-102374000D01*
X148044180Y-102432004D01*
X147937004Y-102539181D01*
X147879000Y-102679215D01*
X147744600Y-102679215D01*
X147807996Y-102615820D01*
X147866000Y-102475786D01*
X147866000Y-102076250D01*
X147770750Y-101981000D01*
X147066000Y-101981000D01*
X146304000Y-101981000D01*
X146284000Y-101981000D01*
X146284000Y-101219000D01*
X146304000Y-101219000D01*
X146304000Y-100514250D01*
X147066000Y-100514250D01*
X147066000Y-101219000D01*
X147770750Y-101219000D01*
X147853300Y-101136450D01*
X147879000Y-101136450D01*
X147879000Y-101790785D01*
X147937004Y-101930819D01*
X148044180Y-102037996D01*
X148184214Y-102096000D01*
X148738550Y-102096000D01*
X148833800Y-102000750D01*
X148833800Y-101041200D01*
X147974250Y-101041200D01*
X147879000Y-101136450D01*
X147853300Y-101136450D01*
X147866000Y-101123750D01*
X147866000Y-100724214D01*
X147807996Y-100584180D01*
X147700819Y-100477004D01*
X147560785Y-100419000D01*
X147161250Y-100419000D01*
X147066000Y-100514250D01*
X146304000Y-100514250D01*
X146208750Y-100419000D01*
X146177000Y-100419000D01*
X146177000Y-100139215D01*
X147879000Y-100139215D01*
X147879000Y-100793550D01*
X147974250Y-100888800D01*
X148833800Y-100888800D01*
X148833800Y-99929250D01*
X148738550Y-99834000D01*
X148184214Y-99834000D01*
X148044180Y-99892004D01*
X147937004Y-99999181D01*
X147879000Y-100139215D01*
X146177000Y-100139215D01*
X146177000Y-98596450D01*
X147879000Y-98596450D01*
X147879000Y-99250785D01*
X147937004Y-99390819D01*
X148044180Y-99497996D01*
X148184214Y-99556000D01*
X148738550Y-99556000D01*
X148833800Y-99460750D01*
X148833800Y-98501200D01*
X147974250Y-98501200D01*
X147879000Y-98596450D01*
X146177000Y-98596450D01*
X146177000Y-97599215D01*
X147879000Y-97599215D01*
X147879000Y-98253550D01*
X147974250Y-98348800D01*
X148833800Y-98348800D01*
X148833800Y-97389250D01*
X148738550Y-97294000D01*
X148184214Y-97294000D01*
X148044180Y-97352004D01*
X147937004Y-97459181D01*
X147879000Y-97599215D01*
X146177000Y-97599215D01*
X146177000Y-96896715D01*
X152206500Y-96896715D01*
X152206500Y-97301050D01*
X152301750Y-97396300D01*
X153061300Y-97396300D01*
X153061300Y-96686750D01*
X152966050Y-96591500D01*
X152511714Y-96591500D01*
X152371680Y-96649504D01*
X152264504Y-96756681D01*
X152206500Y-96896715D01*
X146177000Y-96896715D01*
X146177000Y-94107000D01*
X154432000Y-94107000D01*
X154432000Y-94996000D01*
G04 #@! TO.N,+VIN*
G36*
X144653000Y-100230811D02*
X144104300Y-100137453D01*
X143622909Y-100233208D01*
X143532308Y-100448492D01*
X144145000Y-101061185D01*
X144159142Y-101047042D01*
X144653000Y-101540900D01*
X144653000Y-101659100D01*
X144159142Y-102152958D01*
X144145000Y-102138815D01*
X143532308Y-102751508D01*
X143582175Y-102870000D01*
X143532308Y-102988492D01*
X144145000Y-103601185D01*
X144159142Y-103587042D01*
X144653000Y-104080900D01*
X144653000Y-104199100D01*
X144204100Y-104648000D01*
X144085900Y-104648000D01*
X143592042Y-104154142D01*
X143606185Y-104140000D01*
X142993492Y-103527308D01*
X142778208Y-103617909D01*
X142682453Y-104180700D01*
X142775405Y-104648000D01*
X141605000Y-104648000D01*
X141556399Y-104657667D01*
X141515197Y-104685197D01*
X141487667Y-104726399D01*
X141478000Y-104775000D01*
X141478000Y-108267500D01*
X141487667Y-108316101D01*
X141515197Y-108357303D01*
X142785197Y-109627303D01*
X142826399Y-109654833D01*
X142875000Y-109664500D01*
X148907500Y-109664500D01*
X148956101Y-109654833D01*
X148997303Y-109627303D01*
X149770916Y-108853690D01*
X150635000Y-108853690D01*
X150635000Y-108883750D01*
X150793750Y-109042500D01*
X151793000Y-109042500D01*
X151793000Y-108503750D01*
X151634250Y-108345000D01*
X151143691Y-108345000D01*
X150910302Y-108441673D01*
X150731673Y-108620301D01*
X150635000Y-108853690D01*
X149770916Y-108853690D01*
X150547606Y-108077000D01*
X151593053Y-108077000D01*
X151708413Y-108192360D01*
X151912141Y-108276747D01*
X151955500Y-108320106D01*
X151955500Y-109169229D01*
X151793000Y-109169229D01*
X151793000Y-109167500D01*
X150793750Y-109167500D01*
X150766361Y-109194889D01*
X150744999Y-109190640D01*
X150704981Y-109198600D01*
X150704977Y-109198600D01*
X150586431Y-109222180D01*
X150452003Y-109312003D01*
X150429332Y-109345932D01*
X150364764Y-109410500D01*
X150177500Y-109410500D01*
X150128899Y-109420167D01*
X150087697Y-109447697D01*
X148854894Y-110680500D01*
X141975106Y-110680500D01*
X140144500Y-108849894D01*
X140144500Y-101640700D01*
X142682453Y-101640700D01*
X142778208Y-102122091D01*
X142993492Y-102212692D01*
X143606185Y-101600000D01*
X142993492Y-100987308D01*
X142778208Y-101077909D01*
X142682453Y-101640700D01*
X140144500Y-101640700D01*
X140144500Y-101335106D01*
X142292606Y-99187000D01*
X144653000Y-99187000D01*
X144653000Y-100230811D01*
X144653000Y-100230811D01*
G37*
X144653000Y-100230811D02*
X144104300Y-100137453D01*
X143622909Y-100233208D01*
X143532308Y-100448492D01*
X144145000Y-101061185D01*
X144159142Y-101047042D01*
X144653000Y-101540900D01*
X144653000Y-101659100D01*
X144159142Y-102152958D01*
X144145000Y-102138815D01*
X143532308Y-102751508D01*
X143582175Y-102870000D01*
X143532308Y-102988492D01*
X144145000Y-103601185D01*
X144159142Y-103587042D01*
X144653000Y-104080900D01*
X144653000Y-104199100D01*
X144204100Y-104648000D01*
X144085900Y-104648000D01*
X143592042Y-104154142D01*
X143606185Y-104140000D01*
X142993492Y-103527308D01*
X142778208Y-103617909D01*
X142682453Y-104180700D01*
X142775405Y-104648000D01*
X141605000Y-104648000D01*
X141556399Y-104657667D01*
X141515197Y-104685197D01*
X141487667Y-104726399D01*
X141478000Y-104775000D01*
X141478000Y-108267500D01*
X141487667Y-108316101D01*
X141515197Y-108357303D01*
X142785197Y-109627303D01*
X142826399Y-109654833D01*
X142875000Y-109664500D01*
X148907500Y-109664500D01*
X148956101Y-109654833D01*
X148997303Y-109627303D01*
X149770916Y-108853690D01*
X150635000Y-108853690D01*
X150635000Y-108883750D01*
X150793750Y-109042500D01*
X151793000Y-109042500D01*
X151793000Y-108503750D01*
X151634250Y-108345000D01*
X151143691Y-108345000D01*
X150910302Y-108441673D01*
X150731673Y-108620301D01*
X150635000Y-108853690D01*
X149770916Y-108853690D01*
X150547606Y-108077000D01*
X151593053Y-108077000D01*
X151708413Y-108192360D01*
X151912141Y-108276747D01*
X151955500Y-108320106D01*
X151955500Y-109169229D01*
X151793000Y-109169229D01*
X151793000Y-109167500D01*
X150793750Y-109167500D01*
X150766361Y-109194889D01*
X150744999Y-109190640D01*
X150704981Y-109198600D01*
X150704977Y-109198600D01*
X150586431Y-109222180D01*
X150452003Y-109312003D01*
X150429332Y-109345932D01*
X150364764Y-109410500D01*
X150177500Y-109410500D01*
X150128899Y-109420167D01*
X150087697Y-109447697D01*
X148854894Y-110680500D01*
X141975106Y-110680500D01*
X140144500Y-108849894D01*
X140144500Y-101640700D01*
X142682453Y-101640700D01*
X142778208Y-102122091D01*
X142993492Y-102212692D01*
X143606185Y-101600000D01*
X142993492Y-100987308D01*
X142778208Y-101077909D01*
X142682453Y-101640700D01*
X140144500Y-101640700D01*
X140144500Y-101335106D01*
X142292606Y-99187000D01*
X144653000Y-99187000D01*
X144653000Y-100230811D01*
G04 #@! TO.N,/L2*
G36*
X156400500Y-103695500D02*
X153162000Y-103695500D01*
X153162000Y-102393750D01*
X153181500Y-102393750D01*
X153181500Y-103093285D01*
X153239504Y-103233319D01*
X153346680Y-103340496D01*
X153486714Y-103398500D01*
X154186250Y-103398500D01*
X154281500Y-103303250D01*
X154281500Y-102298500D01*
X155043500Y-102298500D01*
X155043500Y-103303250D01*
X155138750Y-103398500D01*
X155838286Y-103398500D01*
X155978320Y-103340496D01*
X156085496Y-103233319D01*
X156143500Y-103093285D01*
X156143500Y-102393750D01*
X156048250Y-102298500D01*
X155043500Y-102298500D01*
X154281500Y-102298500D01*
X153276750Y-102298500D01*
X153181500Y-102393750D01*
X153162000Y-102393750D01*
X153162000Y-100741715D01*
X153181500Y-100741715D01*
X153181500Y-101441250D01*
X153276750Y-101536500D01*
X154281500Y-101536500D01*
X154281500Y-100531750D01*
X155043500Y-100531750D01*
X155043500Y-101536500D01*
X156048250Y-101536500D01*
X156143500Y-101441250D01*
X156143500Y-100741715D01*
X156085496Y-100601681D01*
X155978320Y-100494504D01*
X155838286Y-100436500D01*
X155138750Y-100436500D01*
X155043500Y-100531750D01*
X154281500Y-100531750D01*
X154186250Y-100436500D01*
X153486714Y-100436500D01*
X153346680Y-100494504D01*
X153239504Y-100601681D01*
X153181500Y-100741715D01*
X153162000Y-100741715D01*
X153162000Y-99822000D01*
X156400500Y-99822000D01*
X156400500Y-103695500D01*
X156400500Y-103695500D01*
G37*
X156400500Y-103695500D02*
X153162000Y-103695500D01*
X153162000Y-102393750D01*
X153181500Y-102393750D01*
X153181500Y-103093285D01*
X153239504Y-103233319D01*
X153346680Y-103340496D01*
X153486714Y-103398500D01*
X154186250Y-103398500D01*
X154281500Y-103303250D01*
X154281500Y-102298500D01*
X155043500Y-102298500D01*
X155043500Y-103303250D01*
X155138750Y-103398500D01*
X155838286Y-103398500D01*
X155978320Y-103340496D01*
X156085496Y-103233319D01*
X156143500Y-103093285D01*
X156143500Y-102393750D01*
X156048250Y-102298500D01*
X155043500Y-102298500D01*
X154281500Y-102298500D01*
X153276750Y-102298500D01*
X153181500Y-102393750D01*
X153162000Y-102393750D01*
X153162000Y-100741715D01*
X153181500Y-100741715D01*
X153181500Y-101441250D01*
X153276750Y-101536500D01*
X154281500Y-101536500D01*
X154281500Y-100531750D01*
X155043500Y-100531750D01*
X155043500Y-101536500D01*
X156048250Y-101536500D01*
X156143500Y-101441250D01*
X156143500Y-100741715D01*
X156085496Y-100601681D01*
X155978320Y-100494504D01*
X155838286Y-100436500D01*
X155138750Y-100436500D01*
X155043500Y-100531750D01*
X154281500Y-100531750D01*
X154186250Y-100436500D01*
X153486714Y-100436500D01*
X153346680Y-100494504D01*
X153239504Y-100601681D01*
X153181500Y-100741715D01*
X153162000Y-100741715D01*
X153162000Y-99822000D01*
X156400500Y-99822000D01*
X156400500Y-103695500D01*
G04 #@! TO.N,/L1*
G36*
X161163000Y-103695500D02*
X157924500Y-103695500D01*
X157924500Y-102393750D01*
X158181500Y-102393750D01*
X158181500Y-103093285D01*
X158239504Y-103233319D01*
X158346680Y-103340496D01*
X158486714Y-103398500D01*
X159186250Y-103398500D01*
X159281500Y-103303250D01*
X159281500Y-102298500D01*
X160043500Y-102298500D01*
X160043500Y-103303250D01*
X160138750Y-103398500D01*
X160838286Y-103398500D01*
X160978320Y-103340496D01*
X161085496Y-103233319D01*
X161143500Y-103093285D01*
X161143500Y-102393750D01*
X161048250Y-102298500D01*
X160043500Y-102298500D01*
X159281500Y-102298500D01*
X158276750Y-102298500D01*
X158181500Y-102393750D01*
X157924500Y-102393750D01*
X157924500Y-100741715D01*
X158181500Y-100741715D01*
X158181500Y-101441250D01*
X158276750Y-101536500D01*
X159281500Y-101536500D01*
X159281500Y-100531750D01*
X160043500Y-100531750D01*
X160043500Y-101536500D01*
X161048250Y-101536500D01*
X161143500Y-101441250D01*
X161143500Y-100741715D01*
X161085496Y-100601681D01*
X160978320Y-100494504D01*
X160838286Y-100436500D01*
X160138750Y-100436500D01*
X160043500Y-100531750D01*
X159281500Y-100531750D01*
X159186250Y-100436500D01*
X158486714Y-100436500D01*
X158346680Y-100494504D01*
X158239504Y-100601681D01*
X158181500Y-100741715D01*
X157924500Y-100741715D01*
X157924500Y-99822000D01*
X161163000Y-99822000D01*
X161163000Y-103695500D01*
X161163000Y-103695500D01*
G37*
X161163000Y-103695500D02*
X157924500Y-103695500D01*
X157924500Y-102393750D01*
X158181500Y-102393750D01*
X158181500Y-103093285D01*
X158239504Y-103233319D01*
X158346680Y-103340496D01*
X158486714Y-103398500D01*
X159186250Y-103398500D01*
X159281500Y-103303250D01*
X159281500Y-102298500D01*
X160043500Y-102298500D01*
X160043500Y-103303250D01*
X160138750Y-103398500D01*
X160838286Y-103398500D01*
X160978320Y-103340496D01*
X161085496Y-103233319D01*
X161143500Y-103093285D01*
X161143500Y-102393750D01*
X161048250Y-102298500D01*
X160043500Y-102298500D01*
X159281500Y-102298500D01*
X158276750Y-102298500D01*
X158181500Y-102393750D01*
X157924500Y-102393750D01*
X157924500Y-100741715D01*
X158181500Y-100741715D01*
X158181500Y-101441250D01*
X158276750Y-101536500D01*
X159281500Y-101536500D01*
X159281500Y-100531750D01*
X160043500Y-100531750D01*
X160043500Y-101536500D01*
X161048250Y-101536500D01*
X161143500Y-101441250D01*
X161143500Y-100741715D01*
X161085496Y-100601681D01*
X160978320Y-100494504D01*
X160838286Y-100436500D01*
X160138750Y-100436500D01*
X160043500Y-100531750D01*
X159281500Y-100531750D01*
X159186250Y-100436500D01*
X158486714Y-100436500D01*
X158346680Y-100494504D01*
X158239504Y-100601681D01*
X158181500Y-100741715D01*
X157924500Y-100741715D01*
X157924500Y-99822000D01*
X161163000Y-99822000D01*
X161163000Y-103695500D01*
G04 #@! TO.N,GND*
G36*
X154964500Y-97345500D02*
X154984500Y-97345500D01*
X154984500Y-97599500D01*
X154964500Y-97599500D01*
X154964500Y-98258250D01*
X155059750Y-98353500D01*
X155270200Y-98353500D01*
X155270200Y-98552000D01*
X155303069Y-98717243D01*
X155321000Y-98744079D01*
X155321000Y-98806000D01*
X155330667Y-98854601D01*
X155358197Y-98895803D01*
X155399399Y-98923333D01*
X155448000Y-98933000D01*
X155509921Y-98933000D01*
X155536757Y-98950931D01*
X155702000Y-98983800D01*
X156591000Y-98983800D01*
X156756243Y-98950931D01*
X156896329Y-98857329D01*
X156989931Y-98717243D01*
X157022800Y-98552000D01*
X157022800Y-97536000D01*
X157302200Y-97536000D01*
X157302200Y-98552000D01*
X157333952Y-98714519D01*
X157426597Y-98855240D01*
X157566041Y-98949795D01*
X157731056Y-98983790D01*
X158620056Y-98989851D01*
X158788243Y-98956992D01*
X158824150Y-98933000D01*
X158877000Y-98933000D01*
X158925601Y-98923333D01*
X158966803Y-98895803D01*
X158994333Y-98854601D01*
X159004000Y-98806000D01*
X159004000Y-98750140D01*
X159021931Y-98723304D01*
X159054800Y-98558061D01*
X159054800Y-98353500D01*
X159265250Y-98353500D01*
X159360500Y-98258250D01*
X159360500Y-97599500D01*
X159340500Y-97599500D01*
X159340500Y-97345500D01*
X159360500Y-97345500D01*
X159360500Y-97325500D01*
X159614500Y-97325500D01*
X159614500Y-97345500D01*
X159634500Y-97345500D01*
X159634500Y-97599500D01*
X159614500Y-97599500D01*
X159614500Y-98258250D01*
X159709750Y-98353500D01*
X159893000Y-98353500D01*
X159893000Y-98425000D01*
X159902667Y-98473601D01*
X159930197Y-98514803D01*
X159971399Y-98542333D01*
X160020000Y-98552000D01*
X162484000Y-98552000D01*
X162484000Y-99155250D01*
X162579250Y-99250500D01*
X163388000Y-99250500D01*
X163388000Y-99230500D01*
X163642000Y-99230500D01*
X163642000Y-99250500D01*
X163662000Y-99250500D01*
X163662000Y-99504500D01*
X163642000Y-99504500D01*
X163642000Y-100413250D01*
X163737250Y-100508500D01*
X164020500Y-100508500D01*
X164020500Y-100786500D01*
X163737250Y-100786500D01*
X163642000Y-100881750D01*
X163642000Y-101790500D01*
X163662000Y-101790500D01*
X163662000Y-102044500D01*
X163642000Y-102044500D01*
X163642000Y-102953250D01*
X163737250Y-103048500D01*
X164020500Y-103048500D01*
X164020500Y-103769894D01*
X163142394Y-104648000D01*
X152146000Y-104648000D01*
X152097399Y-104657667D01*
X152056197Y-104685197D01*
X151421197Y-105320197D01*
X151393667Y-105361399D01*
X151384000Y-105410000D01*
X151384000Y-106553000D01*
X150495000Y-106553000D01*
X150446399Y-106562667D01*
X150405197Y-106590197D01*
X148537394Y-108458000D01*
X143245106Y-108458000D01*
X142684500Y-107897394D01*
X142684500Y-105854500D01*
X148907500Y-105854500D01*
X148956101Y-105844833D01*
X148997303Y-105817303D01*
X150178606Y-104636000D01*
X150389750Y-104636000D01*
X150485000Y-104540750D01*
X150485000Y-103880000D01*
X151135000Y-103880000D01*
X151135000Y-104540750D01*
X151230250Y-104636000D01*
X151535786Y-104636000D01*
X151675820Y-104577996D01*
X151782996Y-104470819D01*
X151841000Y-104330785D01*
X151841000Y-103975250D01*
X151745750Y-103880000D01*
X151135000Y-103880000D01*
X150485000Y-103880000D01*
X150409000Y-103880000D01*
X150409000Y-103130000D01*
X150485000Y-103130000D01*
X150485000Y-102469250D01*
X151135000Y-102469250D01*
X151135000Y-103130000D01*
X151745750Y-103130000D01*
X151841000Y-103034750D01*
X151841000Y-102679215D01*
X151782996Y-102539181D01*
X151675820Y-102432004D01*
X151535786Y-102374000D01*
X151230250Y-102374000D01*
X151135000Y-102469250D01*
X150485000Y-102469250D01*
X150389750Y-102374000D01*
X150304500Y-102374000D01*
X150304500Y-102096000D01*
X150587750Y-102096000D01*
X150683000Y-102000750D01*
X150683000Y-101092000D01*
X150937000Y-101092000D01*
X150937000Y-102000750D01*
X151032250Y-102096000D01*
X151535786Y-102096000D01*
X151675820Y-102037996D01*
X151782996Y-101930819D01*
X151841000Y-101790785D01*
X151841000Y-101187250D01*
X151745750Y-101092000D01*
X150937000Y-101092000D01*
X150683000Y-101092000D01*
X150663000Y-101092000D01*
X150663000Y-100838000D01*
X150683000Y-100838000D01*
X150683000Y-99929250D01*
X150937000Y-99929250D01*
X150937000Y-100838000D01*
X151745750Y-100838000D01*
X151841000Y-100742750D01*
X151841000Y-100139215D01*
X151782996Y-99999181D01*
X151675820Y-99892004D01*
X151535786Y-99834000D01*
X151032250Y-99834000D01*
X150937000Y-99929250D01*
X150683000Y-99929250D01*
X150587750Y-99834000D01*
X150304500Y-99834000D01*
X150304500Y-99695000D01*
X152603200Y-99695000D01*
X152603200Y-103822500D01*
X152636069Y-103987743D01*
X152729671Y-104127829D01*
X152869757Y-104221431D01*
X153035000Y-104254300D01*
X156527500Y-104254300D01*
X156692743Y-104221431D01*
X156832829Y-104127829D01*
X156926431Y-103987743D01*
X156959300Y-103822500D01*
X156959300Y-99695000D01*
X157365700Y-99695000D01*
X157365700Y-103822500D01*
X157398569Y-103987743D01*
X157492171Y-104127829D01*
X157632257Y-104221431D01*
X157797500Y-104254300D01*
X161290000Y-104254300D01*
X161455243Y-104221431D01*
X161595329Y-104127829D01*
X161688931Y-103987743D01*
X161721800Y-103822500D01*
X161721800Y-102139750D01*
X162484000Y-102139750D01*
X162484000Y-102743285D01*
X162542004Y-102883319D01*
X162649180Y-102990496D01*
X162789214Y-103048500D01*
X163292750Y-103048500D01*
X163388000Y-102953250D01*
X163388000Y-102044500D01*
X162579250Y-102044500D01*
X162484000Y-102139750D01*
X161721800Y-102139750D01*
X161721800Y-101091715D01*
X162484000Y-101091715D01*
X162484000Y-101695250D01*
X162579250Y-101790500D01*
X163388000Y-101790500D01*
X163388000Y-100881750D01*
X163292750Y-100786500D01*
X162789214Y-100786500D01*
X162649180Y-100844504D01*
X162542004Y-100951681D01*
X162484000Y-101091715D01*
X161721800Y-101091715D01*
X161721800Y-99695000D01*
X161702854Y-99599750D01*
X162484000Y-99599750D01*
X162484000Y-100203285D01*
X162542004Y-100343319D01*
X162649180Y-100450496D01*
X162789214Y-100508500D01*
X163292750Y-100508500D01*
X163388000Y-100413250D01*
X163388000Y-99504500D01*
X162579250Y-99504500D01*
X162484000Y-99599750D01*
X161702854Y-99599750D01*
X161688931Y-99529757D01*
X161595329Y-99389671D01*
X161455243Y-99296069D01*
X161290000Y-99263200D01*
X160586105Y-99263200D01*
X160494124Y-99225100D01*
X160180876Y-99225100D01*
X160088895Y-99263200D01*
X159951105Y-99263200D01*
X159859124Y-99225100D01*
X159545876Y-99225100D01*
X159453895Y-99263200D01*
X159316105Y-99263200D01*
X159224124Y-99225100D01*
X158910876Y-99225100D01*
X158818895Y-99263200D01*
X157797500Y-99263200D01*
X157632257Y-99296069D01*
X157492171Y-99389671D01*
X157398569Y-99529757D01*
X157365700Y-99695000D01*
X156959300Y-99695000D01*
X156926431Y-99529757D01*
X156832829Y-99389671D01*
X156692743Y-99296069D01*
X156527500Y-99263200D01*
X155506105Y-99263200D01*
X155414124Y-99225100D01*
X155100876Y-99225100D01*
X155008895Y-99263200D01*
X154871105Y-99263200D01*
X154779124Y-99225100D01*
X154465876Y-99225100D01*
X154373895Y-99263200D01*
X154236105Y-99263200D01*
X154144124Y-99225100D01*
X153830876Y-99225100D01*
X153738895Y-99263200D01*
X153035000Y-99263200D01*
X152869757Y-99296069D01*
X152729671Y-99389671D01*
X152636069Y-99529757D01*
X152603200Y-99695000D01*
X150304500Y-99695000D01*
X150304500Y-99556000D01*
X150587750Y-99556000D01*
X150683000Y-99460750D01*
X150683000Y-98552000D01*
X150937000Y-98552000D01*
X150937000Y-99460750D01*
X151032250Y-99556000D01*
X151535786Y-99556000D01*
X151675820Y-99497996D01*
X151782996Y-99390819D01*
X151841000Y-99250785D01*
X151841000Y-98647250D01*
X151745750Y-98552000D01*
X150937000Y-98552000D01*
X150683000Y-98552000D01*
X150663000Y-98552000D01*
X150663000Y-98298000D01*
X150683000Y-98298000D01*
X150683000Y-98278000D01*
X150937000Y-98278000D01*
X150937000Y-98298000D01*
X151745750Y-98298000D01*
X151760822Y-98282928D01*
X152310197Y-98832303D01*
X152351399Y-98859833D01*
X152400000Y-98869500D01*
X153670000Y-98869500D01*
X153718601Y-98859833D01*
X153759803Y-98832303D01*
X154238606Y-98353500D01*
X154615250Y-98353500D01*
X154710500Y-98258250D01*
X154710500Y-97599500D01*
X154690500Y-97599500D01*
X154690500Y-97345500D01*
X154710500Y-97345500D01*
X154710500Y-97325500D01*
X154964500Y-97325500D01*
X154964500Y-97345500D01*
X154964500Y-97345500D01*
G37*
X154964500Y-97345500D02*
X154984500Y-97345500D01*
X154984500Y-97599500D01*
X154964500Y-97599500D01*
X154964500Y-98258250D01*
X155059750Y-98353500D01*
X155270200Y-98353500D01*
X155270200Y-98552000D01*
X155303069Y-98717243D01*
X155321000Y-98744079D01*
X155321000Y-98806000D01*
X155330667Y-98854601D01*
X155358197Y-98895803D01*
X155399399Y-98923333D01*
X155448000Y-98933000D01*
X155509921Y-98933000D01*
X155536757Y-98950931D01*
X155702000Y-98983800D01*
X156591000Y-98983800D01*
X156756243Y-98950931D01*
X156896329Y-98857329D01*
X156989931Y-98717243D01*
X157022800Y-98552000D01*
X157022800Y-97536000D01*
X157302200Y-97536000D01*
X157302200Y-98552000D01*
X157333952Y-98714519D01*
X157426597Y-98855240D01*
X157566041Y-98949795D01*
X157731056Y-98983790D01*
X158620056Y-98989851D01*
X158788243Y-98956992D01*
X158824150Y-98933000D01*
X158877000Y-98933000D01*
X158925601Y-98923333D01*
X158966803Y-98895803D01*
X158994333Y-98854601D01*
X159004000Y-98806000D01*
X159004000Y-98750140D01*
X159021931Y-98723304D01*
X159054800Y-98558061D01*
X159054800Y-98353500D01*
X159265250Y-98353500D01*
X159360500Y-98258250D01*
X159360500Y-97599500D01*
X159340500Y-97599500D01*
X159340500Y-97345500D01*
X159360500Y-97345500D01*
X159360500Y-97325500D01*
X159614500Y-97325500D01*
X159614500Y-97345500D01*
X159634500Y-97345500D01*
X159634500Y-97599500D01*
X159614500Y-97599500D01*
X159614500Y-98258250D01*
X159709750Y-98353500D01*
X159893000Y-98353500D01*
X159893000Y-98425000D01*
X159902667Y-98473601D01*
X159930197Y-98514803D01*
X159971399Y-98542333D01*
X160020000Y-98552000D01*
X162484000Y-98552000D01*
X162484000Y-99155250D01*
X162579250Y-99250500D01*
X163388000Y-99250500D01*
X163388000Y-99230500D01*
X163642000Y-99230500D01*
X163642000Y-99250500D01*
X163662000Y-99250500D01*
X163662000Y-99504500D01*
X163642000Y-99504500D01*
X163642000Y-100413250D01*
X163737250Y-100508500D01*
X164020500Y-100508500D01*
X164020500Y-100786500D01*
X163737250Y-100786500D01*
X163642000Y-100881750D01*
X163642000Y-101790500D01*
X163662000Y-101790500D01*
X163662000Y-102044500D01*
X163642000Y-102044500D01*
X163642000Y-102953250D01*
X163737250Y-103048500D01*
X164020500Y-103048500D01*
X164020500Y-103769894D01*
X163142394Y-104648000D01*
X152146000Y-104648000D01*
X152097399Y-104657667D01*
X152056197Y-104685197D01*
X151421197Y-105320197D01*
X151393667Y-105361399D01*
X151384000Y-105410000D01*
X151384000Y-106553000D01*
X150495000Y-106553000D01*
X150446399Y-106562667D01*
X150405197Y-106590197D01*
X148537394Y-108458000D01*
X143245106Y-108458000D01*
X142684500Y-107897394D01*
X142684500Y-105854500D01*
X148907500Y-105854500D01*
X148956101Y-105844833D01*
X148997303Y-105817303D01*
X150178606Y-104636000D01*
X150389750Y-104636000D01*
X150485000Y-104540750D01*
X150485000Y-103880000D01*
X151135000Y-103880000D01*
X151135000Y-104540750D01*
X151230250Y-104636000D01*
X151535786Y-104636000D01*
X151675820Y-104577996D01*
X151782996Y-104470819D01*
X151841000Y-104330785D01*
X151841000Y-103975250D01*
X151745750Y-103880000D01*
X151135000Y-103880000D01*
X150485000Y-103880000D01*
X150409000Y-103880000D01*
X150409000Y-103130000D01*
X150485000Y-103130000D01*
X150485000Y-102469250D01*
X151135000Y-102469250D01*
X151135000Y-103130000D01*
X151745750Y-103130000D01*
X151841000Y-103034750D01*
X151841000Y-102679215D01*
X151782996Y-102539181D01*
X151675820Y-102432004D01*
X151535786Y-102374000D01*
X151230250Y-102374000D01*
X151135000Y-102469250D01*
X150485000Y-102469250D01*
X150389750Y-102374000D01*
X150304500Y-102374000D01*
X150304500Y-102096000D01*
X150587750Y-102096000D01*
X150683000Y-102000750D01*
X150683000Y-101092000D01*
X150937000Y-101092000D01*
X150937000Y-102000750D01*
X151032250Y-102096000D01*
X151535786Y-102096000D01*
X151675820Y-102037996D01*
X151782996Y-101930819D01*
X151841000Y-101790785D01*
X151841000Y-101187250D01*
X151745750Y-101092000D01*
X150937000Y-101092000D01*
X150683000Y-101092000D01*
X150663000Y-101092000D01*
X150663000Y-100838000D01*
X150683000Y-100838000D01*
X150683000Y-99929250D01*
X150937000Y-99929250D01*
X150937000Y-100838000D01*
X151745750Y-100838000D01*
X151841000Y-100742750D01*
X151841000Y-100139215D01*
X151782996Y-99999181D01*
X151675820Y-99892004D01*
X151535786Y-99834000D01*
X151032250Y-99834000D01*
X150937000Y-99929250D01*
X150683000Y-99929250D01*
X150587750Y-99834000D01*
X150304500Y-99834000D01*
X150304500Y-99695000D01*
X152603200Y-99695000D01*
X152603200Y-103822500D01*
X152636069Y-103987743D01*
X152729671Y-104127829D01*
X152869757Y-104221431D01*
X153035000Y-104254300D01*
X156527500Y-104254300D01*
X156692743Y-104221431D01*
X156832829Y-104127829D01*
X156926431Y-103987743D01*
X156959300Y-103822500D01*
X156959300Y-99695000D01*
X157365700Y-99695000D01*
X157365700Y-103822500D01*
X157398569Y-103987743D01*
X157492171Y-104127829D01*
X157632257Y-104221431D01*
X157797500Y-104254300D01*
X161290000Y-104254300D01*
X161455243Y-104221431D01*
X161595329Y-104127829D01*
X161688931Y-103987743D01*
X161721800Y-103822500D01*
X161721800Y-102139750D01*
X162484000Y-102139750D01*
X162484000Y-102743285D01*
X162542004Y-102883319D01*
X162649180Y-102990496D01*
X162789214Y-103048500D01*
X163292750Y-103048500D01*
X163388000Y-102953250D01*
X163388000Y-102044500D01*
X162579250Y-102044500D01*
X162484000Y-102139750D01*
X161721800Y-102139750D01*
X161721800Y-101091715D01*
X162484000Y-101091715D01*
X162484000Y-101695250D01*
X162579250Y-101790500D01*
X163388000Y-101790500D01*
X163388000Y-100881750D01*
X163292750Y-100786500D01*
X162789214Y-100786500D01*
X162649180Y-100844504D01*
X162542004Y-100951681D01*
X162484000Y-101091715D01*
X161721800Y-101091715D01*
X161721800Y-99695000D01*
X161702854Y-99599750D01*
X162484000Y-99599750D01*
X162484000Y-100203285D01*
X162542004Y-100343319D01*
X162649180Y-100450496D01*
X162789214Y-100508500D01*
X163292750Y-100508500D01*
X163388000Y-100413250D01*
X163388000Y-99504500D01*
X162579250Y-99504500D01*
X162484000Y-99599750D01*
X161702854Y-99599750D01*
X161688931Y-99529757D01*
X161595329Y-99389671D01*
X161455243Y-99296069D01*
X161290000Y-99263200D01*
X160586105Y-99263200D01*
X160494124Y-99225100D01*
X160180876Y-99225100D01*
X160088895Y-99263200D01*
X159951105Y-99263200D01*
X159859124Y-99225100D01*
X159545876Y-99225100D01*
X159453895Y-99263200D01*
X159316105Y-99263200D01*
X159224124Y-99225100D01*
X158910876Y-99225100D01*
X158818895Y-99263200D01*
X157797500Y-99263200D01*
X157632257Y-99296069D01*
X157492171Y-99389671D01*
X157398569Y-99529757D01*
X157365700Y-99695000D01*
X156959300Y-99695000D01*
X156926431Y-99529757D01*
X156832829Y-99389671D01*
X156692743Y-99296069D01*
X156527500Y-99263200D01*
X155506105Y-99263200D01*
X155414124Y-99225100D01*
X155100876Y-99225100D01*
X155008895Y-99263200D01*
X154871105Y-99263200D01*
X154779124Y-99225100D01*
X154465876Y-99225100D01*
X154373895Y-99263200D01*
X154236105Y-99263200D01*
X154144124Y-99225100D01*
X153830876Y-99225100D01*
X153738895Y-99263200D01*
X153035000Y-99263200D01*
X152869757Y-99296069D01*
X152729671Y-99389671D01*
X152636069Y-99529757D01*
X152603200Y-99695000D01*
X150304500Y-99695000D01*
X150304500Y-99556000D01*
X150587750Y-99556000D01*
X150683000Y-99460750D01*
X150683000Y-98552000D01*
X150937000Y-98552000D01*
X150937000Y-99460750D01*
X151032250Y-99556000D01*
X151535786Y-99556000D01*
X151675820Y-99497996D01*
X151782996Y-99390819D01*
X151841000Y-99250785D01*
X151841000Y-98647250D01*
X151745750Y-98552000D01*
X150937000Y-98552000D01*
X150683000Y-98552000D01*
X150663000Y-98552000D01*
X150663000Y-98298000D01*
X150683000Y-98298000D01*
X150683000Y-98278000D01*
X150937000Y-98278000D01*
X150937000Y-98298000D01*
X151745750Y-98298000D01*
X151760822Y-98282928D01*
X152310197Y-98832303D01*
X152351399Y-98859833D01*
X152400000Y-98869500D01*
X153670000Y-98869500D01*
X153718601Y-98859833D01*
X153759803Y-98832303D01*
X154238606Y-98353500D01*
X154615250Y-98353500D01*
X154710500Y-98258250D01*
X154710500Y-97599500D01*
X154690500Y-97599500D01*
X154690500Y-97345500D01*
X154710500Y-97345500D01*
X154710500Y-97325500D01*
X154964500Y-97325500D01*
X154964500Y-97345500D01*
G04 #@! TO.N,+SYS*
G36*
X167195500Y-98477606D02*
X167195500Y-104404894D01*
X165047394Y-106553000D01*
X154559000Y-106553000D01*
X154510399Y-106562667D01*
X154469197Y-106590197D01*
X153961197Y-107098197D01*
X153933667Y-107139399D01*
X153924000Y-107188000D01*
X153924000Y-108585000D01*
X153416000Y-108585000D01*
X153416000Y-106934000D01*
X153406333Y-106885399D01*
X153378803Y-106844197D01*
X153337601Y-106816667D01*
X153289000Y-106807000D01*
X152146000Y-106807000D01*
X152146000Y-105537000D01*
X163512500Y-105537000D01*
X163561101Y-105527333D01*
X163602303Y-105499803D01*
X164872303Y-104229803D01*
X164899833Y-104188601D01*
X164909500Y-104140000D01*
X164909500Y-103048500D01*
X165192750Y-103048500D01*
X165288000Y-102953250D01*
X165288000Y-102044500D01*
X165542000Y-102044500D01*
X165542000Y-102953250D01*
X165637250Y-103048500D01*
X166140786Y-103048500D01*
X166280820Y-102990496D01*
X166387996Y-102883319D01*
X166446000Y-102743285D01*
X166446000Y-102139750D01*
X166350750Y-102044500D01*
X165542000Y-102044500D01*
X165288000Y-102044500D01*
X165268000Y-102044500D01*
X165268000Y-101790500D01*
X165288000Y-101790500D01*
X165288000Y-100881750D01*
X165542000Y-100881750D01*
X165542000Y-101790500D01*
X166350750Y-101790500D01*
X166446000Y-101695250D01*
X166446000Y-101091715D01*
X166387996Y-100951681D01*
X166280820Y-100844504D01*
X166140786Y-100786500D01*
X165637250Y-100786500D01*
X165542000Y-100881750D01*
X165288000Y-100881750D01*
X165192750Y-100786500D01*
X164909500Y-100786500D01*
X164909500Y-100508500D01*
X165192750Y-100508500D01*
X165288000Y-100413250D01*
X165288000Y-99504500D01*
X165542000Y-99504500D01*
X165542000Y-100413250D01*
X165637250Y-100508500D01*
X166140786Y-100508500D01*
X166280820Y-100450496D01*
X166387996Y-100343319D01*
X166446000Y-100203285D01*
X166446000Y-99599750D01*
X166350750Y-99504500D01*
X165542000Y-99504500D01*
X165288000Y-99504500D01*
X165268000Y-99504500D01*
X165268000Y-99250500D01*
X165288000Y-99250500D01*
X165288000Y-98341750D01*
X165542000Y-98341750D01*
X165542000Y-99250500D01*
X166350750Y-99250500D01*
X166446000Y-99155250D01*
X166446000Y-98551715D01*
X166387996Y-98411681D01*
X166280820Y-98304504D01*
X166140786Y-98246500D01*
X165637250Y-98246500D01*
X165542000Y-98341750D01*
X165288000Y-98341750D01*
X165192750Y-98246500D01*
X164689214Y-98246500D01*
X164549180Y-98304504D01*
X164536645Y-98317039D01*
X163919803Y-97700197D01*
X163878601Y-97672667D01*
X163830000Y-97663000D01*
X162086750Y-97663000D01*
X162023250Y-97599500D01*
X161314500Y-97599500D01*
X161314500Y-97619500D01*
X161099500Y-97619500D01*
X161099500Y-96837500D01*
X161089833Y-96788899D01*
X161062303Y-96747697D01*
X161060500Y-96745894D01*
X161060500Y-96686750D01*
X161314500Y-96686750D01*
X161314500Y-97345500D01*
X162023250Y-97345500D01*
X162118500Y-97250250D01*
X162118500Y-96896715D01*
X162060496Y-96756681D01*
X161953320Y-96649504D01*
X161813286Y-96591500D01*
X161409750Y-96591500D01*
X161314500Y-96686750D01*
X161060500Y-96686750D01*
X160965250Y-96591500D01*
X160906106Y-96591500D01*
X160109803Y-95795197D01*
X160068601Y-95767667D01*
X160020000Y-95758000D01*
X158559500Y-95758000D01*
X158559500Y-95369750D01*
X161996500Y-95369750D01*
X161996500Y-95773286D01*
X162054504Y-95913320D01*
X162161681Y-96020496D01*
X162301715Y-96078500D01*
X162655250Y-96078500D01*
X162750500Y-95983250D01*
X162750500Y-95274500D01*
X163004500Y-95274500D01*
X163004500Y-95983250D01*
X163099750Y-96078500D01*
X163453285Y-96078500D01*
X163593319Y-96020496D01*
X163700496Y-95913320D01*
X163758500Y-95773286D01*
X163758500Y-95369750D01*
X163663250Y-95274500D01*
X163004500Y-95274500D01*
X162750500Y-95274500D01*
X162091750Y-95274500D01*
X161996500Y-95369750D01*
X158559500Y-95369750D01*
X158559500Y-95143271D01*
X159312500Y-95143271D01*
X159431427Y-95119615D01*
X159439980Y-95113900D01*
X160204982Y-95113900D01*
X160245000Y-95121860D01*
X160285018Y-95113900D01*
X160285023Y-95113900D01*
X160403569Y-95090320D01*
X160449694Y-95059500D01*
X163777394Y-95059500D01*
X167195500Y-98477606D01*
X167195500Y-98477606D01*
G37*
X167195500Y-98477606D02*
X167195500Y-104404894D01*
X165047394Y-106553000D01*
X154559000Y-106553000D01*
X154510399Y-106562667D01*
X154469197Y-106590197D01*
X153961197Y-107098197D01*
X153933667Y-107139399D01*
X153924000Y-107188000D01*
X153924000Y-108585000D01*
X153416000Y-108585000D01*
X153416000Y-106934000D01*
X153406333Y-106885399D01*
X153378803Y-106844197D01*
X153337601Y-106816667D01*
X153289000Y-106807000D01*
X152146000Y-106807000D01*
X152146000Y-105537000D01*
X163512500Y-105537000D01*
X163561101Y-105527333D01*
X163602303Y-105499803D01*
X164872303Y-104229803D01*
X164899833Y-104188601D01*
X164909500Y-104140000D01*
X164909500Y-103048500D01*
X165192750Y-103048500D01*
X165288000Y-102953250D01*
X165288000Y-102044500D01*
X165542000Y-102044500D01*
X165542000Y-102953250D01*
X165637250Y-103048500D01*
X166140786Y-103048500D01*
X166280820Y-102990496D01*
X166387996Y-102883319D01*
X166446000Y-102743285D01*
X166446000Y-102139750D01*
X166350750Y-102044500D01*
X165542000Y-102044500D01*
X165288000Y-102044500D01*
X165268000Y-102044500D01*
X165268000Y-101790500D01*
X165288000Y-101790500D01*
X165288000Y-100881750D01*
X165542000Y-100881750D01*
X165542000Y-101790500D01*
X166350750Y-101790500D01*
X166446000Y-101695250D01*
X166446000Y-101091715D01*
X166387996Y-100951681D01*
X166280820Y-100844504D01*
X166140786Y-100786500D01*
X165637250Y-100786500D01*
X165542000Y-100881750D01*
X165288000Y-100881750D01*
X165192750Y-100786500D01*
X164909500Y-100786500D01*
X164909500Y-100508500D01*
X165192750Y-100508500D01*
X165288000Y-100413250D01*
X165288000Y-99504500D01*
X165542000Y-99504500D01*
X165542000Y-100413250D01*
X165637250Y-100508500D01*
X166140786Y-100508500D01*
X166280820Y-100450496D01*
X166387996Y-100343319D01*
X166446000Y-100203285D01*
X166446000Y-99599750D01*
X166350750Y-99504500D01*
X165542000Y-99504500D01*
X165288000Y-99504500D01*
X165268000Y-99504500D01*
X165268000Y-99250500D01*
X165288000Y-99250500D01*
X165288000Y-98341750D01*
X165542000Y-98341750D01*
X165542000Y-99250500D01*
X166350750Y-99250500D01*
X166446000Y-99155250D01*
X166446000Y-98551715D01*
X166387996Y-98411681D01*
X166280820Y-98304504D01*
X166140786Y-98246500D01*
X165637250Y-98246500D01*
X165542000Y-98341750D01*
X165288000Y-98341750D01*
X165192750Y-98246500D01*
X164689214Y-98246500D01*
X164549180Y-98304504D01*
X164536645Y-98317039D01*
X163919803Y-97700197D01*
X163878601Y-97672667D01*
X163830000Y-97663000D01*
X162086750Y-97663000D01*
X162023250Y-97599500D01*
X161314500Y-97599500D01*
X161314500Y-97619500D01*
X161099500Y-97619500D01*
X161099500Y-96837500D01*
X161089833Y-96788899D01*
X161062303Y-96747697D01*
X161060500Y-96745894D01*
X161060500Y-96686750D01*
X161314500Y-96686750D01*
X161314500Y-97345500D01*
X162023250Y-97345500D01*
X162118500Y-97250250D01*
X162118500Y-96896715D01*
X162060496Y-96756681D01*
X161953320Y-96649504D01*
X161813286Y-96591500D01*
X161409750Y-96591500D01*
X161314500Y-96686750D01*
X161060500Y-96686750D01*
X160965250Y-96591500D01*
X160906106Y-96591500D01*
X160109803Y-95795197D01*
X160068601Y-95767667D01*
X160020000Y-95758000D01*
X158559500Y-95758000D01*
X158559500Y-95369750D01*
X161996500Y-95369750D01*
X161996500Y-95773286D01*
X162054504Y-95913320D01*
X162161681Y-96020496D01*
X162301715Y-96078500D01*
X162655250Y-96078500D01*
X162750500Y-95983250D01*
X162750500Y-95274500D01*
X163004500Y-95274500D01*
X163004500Y-95983250D01*
X163099750Y-96078500D01*
X163453285Y-96078500D01*
X163593319Y-96020496D01*
X163700496Y-95913320D01*
X163758500Y-95773286D01*
X163758500Y-95369750D01*
X163663250Y-95274500D01*
X163004500Y-95274500D01*
X162750500Y-95274500D01*
X162091750Y-95274500D01*
X161996500Y-95369750D01*
X158559500Y-95369750D01*
X158559500Y-95143271D01*
X159312500Y-95143271D01*
X159431427Y-95119615D01*
X159439980Y-95113900D01*
X160204982Y-95113900D01*
X160245000Y-95121860D01*
X160285018Y-95113900D01*
X160285023Y-95113900D01*
X160403569Y-95090320D01*
X160449694Y-95059500D01*
X163777394Y-95059500D01*
X167195500Y-98477606D01*
G04 #@! TO.N,+BATT*
G36*
X153924000Y-113929894D02*
X152728394Y-115125500D01*
X149361162Y-115125500D01*
X149403500Y-115023286D01*
X149403500Y-114717750D01*
X149308250Y-114622500D01*
X148647500Y-114622500D01*
X148647500Y-114698500D01*
X147897500Y-114698500D01*
X147897500Y-114622500D01*
X147236750Y-114622500D01*
X147141500Y-114717750D01*
X147141500Y-115023286D01*
X147183838Y-115125500D01*
X147043500Y-115125500D01*
X147043500Y-114776250D01*
X146948250Y-114681000D01*
X146243500Y-114681000D01*
X146243500Y-114701000D01*
X145859500Y-114701000D01*
X145859500Y-113899000D01*
X146243500Y-113899000D01*
X146243500Y-113919000D01*
X146948250Y-113919000D01*
X147043500Y-113823750D01*
X147043500Y-113563400D01*
X147144944Y-113563400D01*
X147141500Y-113571714D01*
X147141500Y-113877250D01*
X147236750Y-113972500D01*
X147897500Y-113972500D01*
X147897500Y-113896500D01*
X148647500Y-113896500D01*
X148647500Y-113972500D01*
X149308250Y-113972500D01*
X149403500Y-113877250D01*
X149403500Y-113571714D01*
X149366078Y-113481369D01*
X152450560Y-113487200D01*
X152499179Y-113477624D01*
X152540603Y-113450003D01*
X153378803Y-112611803D01*
X153406333Y-112570601D01*
X153416000Y-112522000D01*
X153416000Y-111125000D01*
X153924000Y-111125000D01*
X153924000Y-113929894D01*
X153924000Y-113929894D01*
G37*
X153924000Y-113929894D02*
X152728394Y-115125500D01*
X149361162Y-115125500D01*
X149403500Y-115023286D01*
X149403500Y-114717750D01*
X149308250Y-114622500D01*
X148647500Y-114622500D01*
X148647500Y-114698500D01*
X147897500Y-114698500D01*
X147897500Y-114622500D01*
X147236750Y-114622500D01*
X147141500Y-114717750D01*
X147141500Y-115023286D01*
X147183838Y-115125500D01*
X147043500Y-115125500D01*
X147043500Y-114776250D01*
X146948250Y-114681000D01*
X146243500Y-114681000D01*
X146243500Y-114701000D01*
X145859500Y-114701000D01*
X145859500Y-113899000D01*
X146243500Y-113899000D01*
X146243500Y-113919000D01*
X146948250Y-113919000D01*
X147043500Y-113823750D01*
X147043500Y-113563400D01*
X147144944Y-113563400D01*
X147141500Y-113571714D01*
X147141500Y-113877250D01*
X147236750Y-113972500D01*
X147897500Y-113972500D01*
X147897500Y-113896500D01*
X148647500Y-113896500D01*
X148647500Y-113972500D01*
X149308250Y-113972500D01*
X149403500Y-113877250D01*
X149403500Y-113571714D01*
X149366078Y-113481369D01*
X152450560Y-113487200D01*
X152499179Y-113477624D01*
X152540603Y-113450003D01*
X153378803Y-112611803D01*
X153406333Y-112570601D01*
X153416000Y-112522000D01*
X153416000Y-111125000D01*
X153924000Y-111125000D01*
X153924000Y-113929894D01*
G04 #@! TO.N,GND*
G36*
X147141500Y-111977250D02*
X147236750Y-112072500D01*
X147897500Y-112072500D01*
X147897500Y-111996500D01*
X148647500Y-111996500D01*
X148647500Y-112072500D01*
X148673500Y-112072500D01*
X148673500Y-112722500D01*
X148647500Y-112722500D01*
X148647500Y-112798500D01*
X147897500Y-112798500D01*
X147897500Y-112722500D01*
X147236750Y-112722500D01*
X147141500Y-112817750D01*
X147141500Y-112903000D01*
X146878780Y-112903000D01*
X146870622Y-112897549D01*
X146662500Y-112856151D01*
X145224500Y-112856151D01*
X145224500Y-111887000D01*
X147141500Y-111887000D01*
X147141500Y-111977250D01*
X147141500Y-111977250D01*
G37*
X147141500Y-111977250D02*
X147236750Y-112072500D01*
X147897500Y-112072500D01*
X147897500Y-111996500D01*
X148647500Y-111996500D01*
X148647500Y-112072500D01*
X148673500Y-112072500D01*
X148673500Y-112722500D01*
X148647500Y-112722500D01*
X148647500Y-112798500D01*
X147897500Y-112798500D01*
X147897500Y-112722500D01*
X147236750Y-112722500D01*
X147141500Y-112817750D01*
X147141500Y-112903000D01*
X146878780Y-112903000D01*
X146870622Y-112897549D01*
X146662500Y-112856151D01*
X145224500Y-112856151D01*
X145224500Y-111887000D01*
X147141500Y-111887000D01*
X147141500Y-111977250D01*
G04 #@! TO.N,/BATT_IN*
G36*
X135825000Y-103759000D02*
X135926000Y-103759000D01*
X135926000Y-104521000D01*
X135825000Y-104521000D01*
X135825000Y-105275750D01*
X135920250Y-105371000D01*
X136200786Y-105371000D01*
X136340820Y-105312996D01*
X136398000Y-105255815D01*
X136398000Y-106997500D01*
X136407667Y-107046101D01*
X136435197Y-107087303D01*
X141197697Y-111849803D01*
X141238899Y-111877333D01*
X141287500Y-111887000D01*
X142822394Y-111887000D01*
X143383000Y-112447606D01*
X143383000Y-114701000D01*
X142681500Y-114701000D01*
X142681500Y-114681000D01*
X141976750Y-114681000D01*
X141881500Y-114776250D01*
X141881500Y-115125500D01*
X141657606Y-115125500D01*
X139856321Y-113324215D01*
X141881500Y-113324215D01*
X141881500Y-113823750D01*
X141976750Y-113919000D01*
X142681500Y-113919000D01*
X142681500Y-113114250D01*
X142586250Y-113019000D01*
X142186714Y-113019000D01*
X142046680Y-113077004D01*
X141939504Y-113184181D01*
X141881500Y-113324215D01*
X139856321Y-113324215D01*
X134747000Y-108214894D01*
X134747000Y-105328662D01*
X134849214Y-105371000D01*
X135129750Y-105371000D01*
X135225000Y-105275750D01*
X135225000Y-104521000D01*
X135124000Y-104521000D01*
X135124000Y-103759000D01*
X135225000Y-103759000D01*
X135225000Y-103739000D01*
X135825000Y-103739000D01*
X135825000Y-103759000D01*
X135825000Y-103759000D01*
G37*
X135825000Y-103759000D02*
X135926000Y-103759000D01*
X135926000Y-104521000D01*
X135825000Y-104521000D01*
X135825000Y-105275750D01*
X135920250Y-105371000D01*
X136200786Y-105371000D01*
X136340820Y-105312996D01*
X136398000Y-105255815D01*
X136398000Y-106997500D01*
X136407667Y-107046101D01*
X136435197Y-107087303D01*
X141197697Y-111849803D01*
X141238899Y-111877333D01*
X141287500Y-111887000D01*
X142822394Y-111887000D01*
X143383000Y-112447606D01*
X143383000Y-114701000D01*
X142681500Y-114701000D01*
X142681500Y-114681000D01*
X141976750Y-114681000D01*
X141881500Y-114776250D01*
X141881500Y-115125500D01*
X141657606Y-115125500D01*
X139856321Y-113324215D01*
X141881500Y-113324215D01*
X141881500Y-113823750D01*
X141976750Y-113919000D01*
X142681500Y-113919000D01*
X142681500Y-113114250D01*
X142586250Y-113019000D01*
X142186714Y-113019000D01*
X142046680Y-113077004D01*
X141939504Y-113184181D01*
X141881500Y-113324215D01*
X139856321Y-113324215D01*
X134747000Y-108214894D01*
X134747000Y-105328662D01*
X134849214Y-105371000D01*
X135129750Y-105371000D01*
X135225000Y-105275750D01*
X135225000Y-104521000D01*
X135124000Y-104521000D01*
X135124000Y-103759000D01*
X135225000Y-103759000D01*
X135225000Y-103739000D01*
X135825000Y-103739000D01*
X135825000Y-103759000D01*
G04 #@! TO.N,/L2*
G36*
X156599036Y-96982500D02*
X156617594Y-97075800D01*
X156501197Y-97192197D01*
X156473667Y-97233399D01*
X156464000Y-97282000D01*
X156464000Y-97551500D01*
X156425900Y-97643481D01*
X156425900Y-97936519D01*
X156464000Y-98028500D01*
X156464000Y-98425000D01*
X155829000Y-98425000D01*
X155829000Y-97080606D01*
X156553803Y-96355803D01*
X156581333Y-96314601D01*
X156591000Y-96266000D01*
X156591000Y-95123000D01*
X156599036Y-95123000D01*
X156599036Y-96982500D01*
X156599036Y-96982500D01*
G37*
X156599036Y-96982500D02*
X156617594Y-97075800D01*
X156501197Y-97192197D01*
X156473667Y-97233399D01*
X156464000Y-97282000D01*
X156464000Y-97551500D01*
X156425900Y-97643481D01*
X156425900Y-97936519D01*
X156464000Y-98028500D01*
X156464000Y-98425000D01*
X155829000Y-98425000D01*
X155829000Y-97080606D01*
X156553803Y-96355803D01*
X156581333Y-96314601D01*
X156591000Y-96266000D01*
X156591000Y-95123000D01*
X156599036Y-95123000D01*
X156599036Y-96982500D01*
G04 #@! TO.N,/L1*
G36*
X157734000Y-96266000D02*
X157743667Y-96314601D01*
X157771197Y-96355803D01*
X158496000Y-97080606D01*
X158496000Y-98430192D01*
X157861000Y-98425863D01*
X157861000Y-98028500D01*
X157899100Y-97936519D01*
X157899100Y-97643481D01*
X157861000Y-97551500D01*
X157861000Y-97282000D01*
X157851333Y-97233399D01*
X157823803Y-97192197D01*
X157707406Y-97075800D01*
X157725964Y-96982500D01*
X157725964Y-95125164D01*
X157734000Y-95125036D01*
X157734000Y-96266000D01*
X157734000Y-96266000D01*
G37*
X157734000Y-96266000D02*
X157743667Y-96314601D01*
X157771197Y-96355803D01*
X158496000Y-97080606D01*
X158496000Y-98430192D01*
X157861000Y-98425863D01*
X157861000Y-98028500D01*
X157899100Y-97936519D01*
X157899100Y-97643481D01*
X157861000Y-97551500D01*
X157861000Y-97282000D01*
X157851333Y-97233399D01*
X157823803Y-97192197D01*
X157707406Y-97075800D01*
X157725964Y-96982500D01*
X157725964Y-95125164D01*
X157734000Y-95125036D01*
X157734000Y-96266000D01*
G04 #@! TD*
D40*
X168910000Y-112077500D03*
X163512500Y-119697500D03*
X153035000Y-94615000D03*
X162560000Y-91440000D03*
X152400000Y-119380000D03*
X156210000Y-92392500D03*
X160337500Y-93662500D03*
X162877500Y-117157500D03*
X160972500Y-111442500D03*
X167322500Y-113665000D03*
X163830000Y-108855000D03*
X158750000Y-113665000D03*
X162877500Y-115252500D03*
X161925000Y-99060000D03*
X154940000Y-98742500D03*
X159385000Y-98742500D03*
X157162500Y-97790000D03*
X157162500Y-98742500D03*
X157162500Y-99695000D03*
X152400000Y-99060000D03*
X157162500Y-104140000D03*
X152400000Y-104140000D03*
X146685000Y-112395000D03*
X145732500Y-112395000D03*
X144780000Y-97155000D03*
X162242500Y-109537500D03*
X162242500Y-107632500D03*
X155892500Y-108267500D03*
X171450000Y-108902500D03*
X167322500Y-110172500D03*
X169545000Y-116522500D03*
X168275000Y-116522500D03*
X151447500Y-111442500D03*
X156210000Y-112077500D03*
X158432500Y-109537500D03*
X149860000Y-111125000D03*
X158432500Y-107632500D03*
X152082500Y-107632500D03*
X154940000Y-113665000D03*
X151447500Y-112712500D03*
X160337500Y-100012500D03*
X159702500Y-100012500D03*
X159067500Y-100012500D03*
X158115000Y-98107500D03*
X158115000Y-97472500D03*
X156210000Y-98107500D03*
X153987500Y-100012500D03*
X154622500Y-100012500D03*
X155257500Y-100012500D03*
X156210000Y-97472500D03*
X153352500Y-115570000D03*
X151130000Y-116205000D03*
X159385000Y-112712500D03*
X150495000Y-112077500D03*
X157162500Y-108902500D03*
X156845000Y-110807500D03*
X167640000Y-105410000D03*
X155575000Y-107315000D03*
X153670000Y-109855000D03*
D41*
X155257500Y-116975000D03*
X155257500Y-117975000D03*
X156157500Y-117975000D03*
X154357500Y-117975000D03*
X154357500Y-116975000D03*
X156157500Y-116975000D03*
D40*
X137525000Y-104140000D03*
X135525000Y-104140000D03*
X144145000Y-106680000D03*
X146685000Y-106680000D03*
X144145000Y-104140000D03*
X146685000Y-104140000D03*
X144145000Y-101600000D03*
X146685000Y-101600000D03*
X171450000Y-111125000D03*
X171450000Y-113665000D03*
X171450000Y-116205000D03*
X171450000Y-118745000D03*
X175334734Y-92837000D03*
X175334734Y-95123000D03*
X173355000Y-96266000D03*
X171375266Y-95123000D03*
X171375266Y-92837000D03*
X173355000Y-91694000D03*
X173355000Y-93980000D03*
M02*
