M48
INCH,TZ
T1C0.0118
T2C0.0140
T3C0.0200
T4C0.0295
T5C0.0315
T6C0.0394
T7C0.1160
%
G90
G05
T1
X60771Y-46053
X60771Y-46447
X61125Y-46053
X61125Y-46447
X61479Y-46053
X61479Y-46447
T2
X57000Y-38250
X57375Y-44250
X57750Y-44250
X59000Y-43750
X59250Y-44125
X59500Y-45750
X59625Y-43875
X59625Y-44375
X59875Y-42375
X60000Y-39000
X60000Y-41000
X60000Y-47000
X60250Y-37250
X60375Y-45500
X60625Y-39375
X60875Y-39375
X61000Y-38875
X61000Y-44750
X61125Y-39375
X61250Y-42250
X61375Y-42625
X61500Y-36375
X61500Y-38375
X61500Y-38625
X61500Y-44125
X61750Y-43625
X61875Y-38500
X61875Y-38875
X61875Y-39250
X61875Y-41000
X61875Y-42875
X62250Y-38375
X62250Y-38625
X62375Y-42375
X62375Y-43125
X62500Y-44750
X62625Y-39375
X62750Y-38875
X62750Y-44375
X62875Y-39375
X63125Y-36875
X63125Y-39375
X63375Y-43875
X63750Y-39000
X63875Y-42375
X63875Y-43125
X64000Y-36000
X64125Y-45375
X64125Y-46125
X64375Y-47125
X64500Y-42856
X65875Y-43375
X65875Y-44750
X66000Y-41500
X66250Y-45875
X66500Y-44125
X66750Y-45875
X67500Y-42875
T3
X67471Y-36550
X67471Y-37450
X68250Y-36100
X68250Y-37900
X69029Y-36550
X69029Y-37450
T4
X53356Y-41000
X54144Y-41000
T5
X60500Y-43250
T6
X67500Y-43750
X67500Y-44750
X67500Y-45750
X67500Y-46750
X56750Y-40000
X56750Y-41000
X56750Y-42000
X57750Y-40000
X57750Y-41000
X57750Y-42000
T7
X68250Y-37000
T0
M30
