G04 #@! TF.GenerationSoftware,KiCad,Pcbnew,5.0.1-33cea8e~68~ubuntu18.04.1*
G04 #@! TF.CreationDate,2018-11-28T03:54:02-05:00*
G04 #@! TF.ProjectId,psu,7073752E6B696361645F706362000000,rev?*
G04 #@! TF.SameCoordinates,Original*
G04 #@! TF.FileFunction,Legend,Top*
G04 #@! TF.FilePolarity,Positive*
%FSLAX46Y46*%
G04 Gerber Fmt 4.6, Leading zero omitted, Abs format (unit mm)*
G04 Created by KiCad (PCBNEW 5.0.1-33cea8e~68~ubuntu18.04.1) date Wed Nov 28 03:54:02 2018*
%MOMM*%
%LPD*%
G01*
G04 APERTURE LIST*
%ADD10C,0.200000*%
%ADD11C,0.300000*%
%ADD12C,0.250000*%
%ADD13C,0.180000*%
%ADD14C,0.500000*%
%ADD15C,0.120000*%
G04 APERTURE END LIST*
D10*
X166878000Y-105791000D02*
X166878000Y-105156000D01*
X172466000Y-103632000D02*
X170561000Y-103632000D01*
X170561000Y-109728000D02*
X170815000Y-109728000D01*
X170561000Y-108458000D02*
X170561000Y-109728000D01*
D11*
X169656071Y-96424642D02*
X169713214Y-96481785D01*
X169770357Y-96653214D01*
X169770357Y-96767500D01*
X169713214Y-96938928D01*
X169598928Y-97053214D01*
X169484642Y-97110357D01*
X169256071Y-97167500D01*
X169084642Y-97167500D01*
X168856071Y-97110357D01*
X168741785Y-97053214D01*
X168627500Y-96938928D01*
X168570357Y-96767500D01*
X168570357Y-96653214D01*
X168627500Y-96481785D01*
X168684642Y-96424642D01*
X169770357Y-95910357D02*
X168570357Y-95910357D01*
X169141785Y-95910357D02*
X169141785Y-95224642D01*
X169770357Y-95224642D02*
X168570357Y-95224642D01*
X168627500Y-94024642D02*
X168570357Y-94138928D01*
X168570357Y-94310357D01*
X168627500Y-94481785D01*
X168741785Y-94596071D01*
X168856071Y-94653214D01*
X169084642Y-94710357D01*
X169256071Y-94710357D01*
X169484642Y-94653214D01*
X169598928Y-94596071D01*
X169713214Y-94481785D01*
X169770357Y-94310357D01*
X169770357Y-94196071D01*
X169713214Y-94024642D01*
X169656071Y-93967500D01*
X169256071Y-93967500D01*
X169256071Y-94196071D01*
D10*
X157861000Y-120142000D02*
X158496000Y-120142000D01*
X158496000Y-106299000D02*
X161290000Y-106299000D01*
X158496000Y-105791000D02*
X158496000Y-106299000D01*
X158115000Y-105791000D02*
X158496000Y-105791000D01*
X162814000Y-108585000D02*
X162052000Y-108585000D01*
X162814000Y-103759000D02*
X162814000Y-108585000D01*
D11*
X133921571Y-111613142D02*
X135064428Y-111613142D01*
X134493000Y-112184571D02*
X134493000Y-111041714D01*
D10*
X151892000Y-103505000D02*
X151892000Y-93345000D01*
X162941000Y-118999000D02*
X163322000Y-118999000D01*
X162941000Y-117729000D02*
X162941000Y-118999000D01*
X162433000Y-117729000D02*
X162941000Y-117729000D01*
X159131000Y-113157000D02*
X159131000Y-114300000D01*
X156337000Y-111506000D02*
X157226000Y-111506000D01*
X156337000Y-110490000D02*
X156337000Y-111506000D01*
X168148000Y-116840000D02*
X169672000Y-116840000D01*
X168910000Y-116840000D02*
X168910000Y-115824000D01*
X161798000Y-90805000D02*
X162941000Y-90805000D01*
D12*
G04 #@! TO.C,U2*
X152320000Y-111855000D02*
G75*
G03X152320000Y-111855000I-100000J0D01*
G01*
D13*
X152170000Y-111355000D02*
X152620000Y-111355000D01*
X152170000Y-111355000D02*
X152170000Y-110905000D01*
X152170000Y-108355000D02*
X152620000Y-108355000D01*
X155170000Y-108355000D02*
X154720000Y-108355000D01*
X155170000Y-108355000D02*
X155170000Y-108805000D01*
X155170000Y-111355000D02*
X155170000Y-110905000D01*
X155170000Y-111355000D02*
X154720000Y-111355000D01*
X152170000Y-108355000D02*
X152170000Y-108805000D01*
D12*
G04 #@! TO.C,U1*
X157732500Y-119125000D02*
G75*
G03X157732500Y-119125000I-125000J0D01*
G01*
D13*
X156757500Y-116225000D02*
X157257500Y-116225000D01*
X154557500Y-118725000D02*
X155957500Y-118725000D01*
X154557500Y-116225000D02*
X155957500Y-116225000D01*
X153757500Y-118725000D02*
X153257500Y-118725000D01*
X153257500Y-116225000D02*
X153757500Y-116225000D01*
X156707500Y-118725000D02*
X157257500Y-118725000D01*
D14*
G04 #@! TO.C,J3*
X134025000Y-102240000D02*
G75*
G03X134025000Y-102240000I-100000J0D01*
G01*
D15*
X137825000Y-106640000D02*
X138825000Y-106640000D01*
X137825000Y-108240000D02*
X137825000Y-106640000D01*
X138825000Y-108240000D02*
X137825000Y-108240000D01*
X138825000Y-106640000D02*
X138825000Y-108240000D01*
X135225000Y-106640000D02*
X134225000Y-106640000D01*
X135225000Y-108240000D02*
X135225000Y-106640000D01*
X134225000Y-108240000D02*
X135225000Y-108240000D01*
X134225000Y-106640000D02*
X134225000Y-108240000D01*
X139475000Y-104390000D02*
X138275000Y-104390000D01*
X138675000Y-102790000D02*
X138675000Y-104390000D01*
X139475000Y-102790000D02*
X138675000Y-102790000D01*
X139475000Y-110390000D02*
X139475000Y-102790000D01*
X133575000Y-110390000D02*
X139475000Y-110390000D01*
X133575000Y-102790000D02*
X133575000Y-110390000D01*
X134375000Y-102790000D02*
X133575000Y-102790000D01*
X134375000Y-104390000D02*
X134375000Y-102790000D01*
X134725000Y-104390000D02*
X133575000Y-104390000D01*
X137025000Y-106140000D02*
X137025000Y-110390000D01*
X136025000Y-106140000D02*
X137025000Y-106140000D01*
X136025000Y-110390000D02*
X136025000Y-106140000D01*
D12*
G04 #@! TO.C,U3*
X158712500Y-92932500D02*
G75*
G03X158712500Y-92932500I-100000J0D01*
G01*
D13*
X158662500Y-93682500D02*
X158212500Y-93682500D01*
X158662500Y-93682500D02*
X158662500Y-93882500D01*
X158662500Y-96182500D02*
X157962500Y-96182500D01*
X155662500Y-96182500D02*
X156362500Y-96182500D01*
X155662500Y-96182500D02*
X155662500Y-95982500D01*
X155662500Y-93682500D02*
X155662500Y-93882500D01*
X155662500Y-93682500D02*
X156112500Y-93682500D01*
X158662500Y-96182500D02*
X158662500Y-95982500D01*
G04 #@! TO.C,L1*
X159762500Y-99417500D02*
X159762500Y-100617500D01*
X154562500Y-99417500D02*
X154562500Y-100617500D01*
X154562500Y-104417500D02*
X154562500Y-103217500D01*
X159762500Y-104417500D02*
X159762500Y-103217500D01*
X154562500Y-99417500D02*
X159762500Y-99417500D01*
X159762500Y-104417500D02*
X154562500Y-104417500D01*
G04 #@! TO.C,Q1*
X165385000Y-114632500D02*
X166085000Y-114632500D01*
X167185000Y-113332500D02*
X167185000Y-114282500D01*
X164285000Y-113332500D02*
X164285000Y-114282500D01*
X167185000Y-113332500D02*
X166385000Y-113332500D01*
X164285000Y-113332500D02*
X165085000Y-113332500D01*
G04 #@! TO.C,Q2*
X166085000Y-109205000D02*
X165385000Y-109205000D01*
X164285000Y-110505000D02*
X164285000Y-109555000D01*
X167185000Y-110505000D02*
X167185000Y-109555000D01*
X164285000Y-110505000D02*
X165085000Y-110505000D01*
X167185000Y-110505000D02*
X166385000Y-110505000D01*
G04 #@! TO.C,C1*
X162433000Y-98234500D02*
X162433000Y-100520500D01*
X166497000Y-98234500D02*
X162433000Y-98234500D01*
X166497000Y-100520500D02*
X166497000Y-98234500D01*
X162433000Y-100520500D02*
X166497000Y-100520500D01*
G04 #@! TO.C,C2*
X162433000Y-100774500D02*
X162433000Y-103060500D01*
X166497000Y-100774500D02*
X162433000Y-100774500D01*
X166497000Y-103060500D02*
X166497000Y-100774500D01*
X162433000Y-103060500D02*
X166497000Y-103060500D01*
G04 #@! TO.C,C3*
X158559500Y-96583500D02*
X162115500Y-96583500D01*
X162115500Y-96583500D02*
X162115500Y-98361500D01*
X162115500Y-98361500D02*
X158559500Y-98361500D01*
X158559500Y-98361500D02*
X158559500Y-96583500D01*
G04 #@! TO.C,C5*
X155765500Y-96583500D02*
X155765500Y-98361500D01*
X152209500Y-96583500D02*
X155765500Y-96583500D01*
X152209500Y-98361500D02*
X152209500Y-96583500D01*
X155765500Y-98361500D02*
X152209500Y-98361500D01*
G04 #@! TO.C,C6*
X151892000Y-99568000D02*
X151892000Y-97282000D01*
X147828000Y-99568000D02*
X151892000Y-99568000D01*
X147828000Y-97282000D02*
X147828000Y-99568000D01*
X151892000Y-97282000D02*
X147828000Y-97282000D01*
G04 #@! TO.C,C7*
X151892000Y-102108000D02*
X151892000Y-99822000D01*
X147828000Y-102108000D02*
X151892000Y-102108000D01*
X147828000Y-99822000D02*
X147828000Y-102108000D01*
X151892000Y-99822000D02*
X147828000Y-99822000D01*
G04 #@! TO.C,C8*
X151892000Y-104648000D02*
X151892000Y-102362000D01*
X147828000Y-104648000D02*
X151892000Y-104648000D01*
X147828000Y-102362000D02*
X147828000Y-104648000D01*
X151892000Y-102362000D02*
X147828000Y-102362000D01*
G04 #@! TO.C,R2*
X141922500Y-115570000D02*
X147002500Y-115570000D01*
X147002500Y-115570000D02*
X147002500Y-113030000D01*
X147002500Y-113030000D02*
X141922500Y-113030000D01*
X141922500Y-113030000D02*
X141922500Y-115570000D01*
G04 #@! TO.C,C4*
X152209500Y-90551000D02*
X155765500Y-90551000D01*
X155765500Y-90551000D02*
X155765500Y-92329000D01*
X155765500Y-92329000D02*
X152209500Y-92329000D01*
X152209500Y-92329000D02*
X152209500Y-90551000D01*
G04 #@! TO.C,R1*
X152019000Y-116967000D02*
X152019000Y-120523000D01*
X152019000Y-120523000D02*
X150241000Y-120523000D01*
X150241000Y-120523000D02*
X150241000Y-116967000D01*
X150241000Y-116967000D02*
X152019000Y-116967000D01*
G04 #@! TO.C,R3*
X168021000Y-112204500D02*
X169799000Y-112204500D01*
X168021000Y-115760500D02*
X168021000Y-112204500D01*
X169799000Y-115760500D02*
X168021000Y-115760500D01*
X169799000Y-112204500D02*
X169799000Y-115760500D01*
G04 #@! TO.C,R4*
X167195500Y-118046500D02*
X163639500Y-118046500D01*
X163639500Y-118046500D02*
X163639500Y-116268500D01*
X163639500Y-116268500D02*
X167195500Y-116268500D01*
X167195500Y-116268500D02*
X167195500Y-118046500D01*
G04 #@! TO.C,R5*
X169799000Y-111633000D02*
X168021000Y-111633000D01*
X169799000Y-108077000D02*
X169799000Y-111633000D01*
X168021000Y-108077000D02*
X169799000Y-108077000D01*
X168021000Y-111633000D02*
X168021000Y-108077000D01*
G04 #@! TO.C,R6*
X169735500Y-107569000D02*
X166179500Y-107569000D01*
X166179500Y-107569000D02*
X166179500Y-105791000D01*
X166179500Y-105791000D02*
X169735500Y-105791000D01*
X169735500Y-105791000D02*
X169735500Y-107569000D01*
G04 #@! TO.C,R7*
X163449000Y-114173000D02*
X161671000Y-114173000D01*
X163449000Y-110617000D02*
X163449000Y-114173000D01*
X161671000Y-110617000D02*
X163449000Y-110617000D01*
X161671000Y-114173000D02*
X161671000Y-110617000D01*
G04 #@! TO.C,R11*
X158623000Y-114554000D02*
X155067000Y-114554000D01*
X155067000Y-114554000D02*
X155067000Y-112776000D01*
X155067000Y-112776000D02*
X158623000Y-112776000D01*
X158623000Y-112776000D02*
X158623000Y-114554000D01*
G04 #@! TO.C,R12*
X172339000Y-108458000D02*
X170561000Y-108458000D01*
X172339000Y-104902000D02*
X172339000Y-108458000D01*
X170561000Y-104902000D02*
X172339000Y-104902000D01*
X170561000Y-108458000D02*
X170561000Y-104902000D01*
G04 #@! TO.C,R14*
X163766500Y-92519500D02*
X163766500Y-96075500D01*
X163766500Y-96075500D02*
X161988500Y-96075500D01*
X161988500Y-96075500D02*
X161988500Y-92519500D01*
X161988500Y-92519500D02*
X163766500Y-92519500D01*
G04 #@! TO.C,R15*
X158242000Y-92329000D02*
X158242000Y-90551000D01*
X161798000Y-92329000D02*
X158242000Y-92329000D01*
X161798000Y-90551000D02*
X161798000Y-92329000D01*
X158242000Y-90551000D02*
X161798000Y-90551000D01*
G04 #@! TO.C,R8*
X160845500Y-112331500D02*
X157289500Y-112331500D01*
X157289500Y-112331500D02*
X157289500Y-110553500D01*
X157289500Y-110553500D02*
X160845500Y-110553500D01*
X160845500Y-110553500D02*
X160845500Y-112331500D01*
G04 #@! TO.C,R9*
X162115500Y-106743500D02*
X162115500Y-108521500D01*
X158559500Y-106743500D02*
X162115500Y-106743500D01*
X158559500Y-108521500D02*
X158559500Y-106743500D01*
X162115500Y-108521500D02*
X158559500Y-108521500D01*
G04 #@! TO.C,R10*
X162115500Y-108648500D02*
X162115500Y-110426500D01*
X158559500Y-108648500D02*
X162115500Y-108648500D01*
X158559500Y-110426500D02*
X158559500Y-108648500D01*
X162115500Y-110426500D02*
X158559500Y-110426500D01*
G04 #@! TO.C,C9*
X158877000Y-116268500D02*
X162433000Y-116268500D01*
X162433000Y-116268500D02*
X162433000Y-118046500D01*
X162433000Y-118046500D02*
X158877000Y-118046500D01*
X158877000Y-118046500D02*
X158877000Y-116268500D01*
G04 #@! TO.C,C10*
X162433000Y-116141500D02*
X158877000Y-116141500D01*
X158877000Y-116141500D02*
X158877000Y-114363500D01*
X158877000Y-114363500D02*
X162433000Y-114363500D01*
X162433000Y-114363500D02*
X162433000Y-116141500D01*
G04 #@! TO.C,R16*
X158559500Y-118491000D02*
X162115500Y-118491000D01*
X162115500Y-118491000D02*
X162115500Y-120269000D01*
X162115500Y-120269000D02*
X158559500Y-120269000D01*
X158559500Y-120269000D02*
X158559500Y-118491000D01*
G04 #@! TO.C,C11*
X149733000Y-107315000D02*
X153797000Y-107315000D01*
X153797000Y-107315000D02*
X153797000Y-105029000D01*
X153797000Y-105029000D02*
X149733000Y-105029000D01*
X149733000Y-105029000D02*
X149733000Y-107315000D01*
G04 #@! TO.C,C12*
X146812000Y-107188000D02*
X146812000Y-111252000D01*
X146812000Y-111252000D02*
X149098000Y-111252000D01*
X149098000Y-111252000D02*
X149098000Y-107188000D01*
X149098000Y-107188000D02*
X146812000Y-107188000D01*
G04 #@! TO.C,C13*
X149415500Y-111315500D02*
X147129500Y-111315500D01*
X149415500Y-115379500D02*
X149415500Y-111315500D01*
X147129500Y-115379500D02*
X149415500Y-115379500D01*
X147129500Y-111315500D02*
X147129500Y-115379500D01*
G04 #@! TO.C,R13*
X156273500Y-108775500D02*
X156273500Y-105219500D01*
X156273500Y-105219500D02*
X158051500Y-105219500D01*
X158051500Y-105219500D02*
X158051500Y-108775500D01*
X158051500Y-108775500D02*
X156273500Y-108775500D01*
G04 #@! TO.C,D1*
X170688000Y-101600000D02*
X168402000Y-101600000D01*
X170688000Y-101981000D02*
X170688000Y-97663000D01*
X170688000Y-97663000D02*
X168402000Y-97663000D01*
X168402000Y-97663000D02*
X168402000Y-101981000D01*
X168402000Y-101981000D02*
X170688000Y-101981000D01*
X170688000Y-101727000D02*
X168402000Y-101727000D01*
X170688000Y-101854000D02*
X168402000Y-101854000D01*
G04 #@! TO.C,R17*
X170434000Y-102044500D02*
X170434000Y-105600500D01*
X170434000Y-105600500D02*
X168656000Y-105600500D01*
X168656000Y-105600500D02*
X168656000Y-102044500D01*
X168656000Y-102044500D02*
X170434000Y-102044500D01*
G04 #@! TO.C,TP2*
X139874761Y-104227380D02*
X140208095Y-105227380D01*
X140541428Y-104227380D01*
X140874761Y-105227380D02*
X140874761Y-104227380D01*
X141350952Y-105227380D02*
X141350952Y-104227380D01*
X141922380Y-105227380D01*
X141922380Y-104227380D01*
G04 #@! TO.C,TP3*
D10*
X164065142Y-95392142D02*
X164365142Y-96292142D01*
X164665142Y-95392142D01*
X164922285Y-96249285D02*
X165050857Y-96292142D01*
X165265142Y-96292142D01*
X165350857Y-96249285D01*
X165393714Y-96206428D01*
X165436571Y-96120714D01*
X165436571Y-96035000D01*
X165393714Y-95949285D01*
X165350857Y-95906428D01*
X165265142Y-95863571D01*
X165093714Y-95820714D01*
X165008000Y-95777857D01*
X164965142Y-95735000D01*
X164922285Y-95649285D01*
X164922285Y-95563571D01*
X164965142Y-95477857D01*
X165008000Y-95435000D01*
X165093714Y-95392142D01*
X165308000Y-95392142D01*
X165436571Y-95435000D01*
X165993714Y-95863571D02*
X165993714Y-96292142D01*
X165693714Y-95392142D02*
X165993714Y-95863571D01*
X166293714Y-95392142D01*
X166550857Y-96249285D02*
X166679428Y-96292142D01*
X166893714Y-96292142D01*
X166979428Y-96249285D01*
X167022285Y-96206428D01*
X167065142Y-96120714D01*
X167065142Y-96035000D01*
X167022285Y-95949285D01*
X166979428Y-95906428D01*
X166893714Y-95863571D01*
X166722285Y-95820714D01*
X166636571Y-95777857D01*
X166593714Y-95735000D01*
X166550857Y-95649285D01*
X166550857Y-95563571D01*
X166593714Y-95477857D01*
X166636571Y-95435000D01*
X166722285Y-95392142D01*
X166936571Y-95392142D01*
X167065142Y-95435000D01*
G04 #@! TO.C,TP4*
D13*
X143010000Y-94233904D02*
X142962380Y-94329142D01*
X142962380Y-94472000D01*
X143010000Y-94614857D01*
X143105238Y-94710095D01*
X143200476Y-94757714D01*
X143390952Y-94805333D01*
X143533809Y-94805333D01*
X143724285Y-94757714D01*
X143819523Y-94710095D01*
X143914761Y-94614857D01*
X143962380Y-94472000D01*
X143962380Y-94376761D01*
X143914761Y-94233904D01*
X143867142Y-94186285D01*
X143533809Y-94186285D01*
X143533809Y-94376761D01*
X143962380Y-93757714D02*
X142962380Y-93757714D01*
X143962380Y-93186285D01*
X142962380Y-93186285D01*
X143962380Y-92710095D02*
X142962380Y-92710095D01*
X142962380Y-92472000D01*
X143010000Y-92329142D01*
X143105238Y-92233904D01*
X143200476Y-92186285D01*
X143390952Y-92138666D01*
X143533809Y-92138666D01*
X143724285Y-92186285D01*
X143819523Y-92233904D01*
X143914761Y-92329142D01*
X143962380Y-92472000D01*
X143962380Y-92710095D01*
G04 #@! TO.C,TP5*
X146899380Y-94979904D02*
X147899380Y-94646571D01*
X146899380Y-94313238D01*
X146899380Y-93789428D02*
X146899380Y-93598952D01*
X146947000Y-93503714D01*
X147042238Y-93408476D01*
X147232714Y-93360857D01*
X147566047Y-93360857D01*
X147756523Y-93408476D01*
X147851761Y-93503714D01*
X147899380Y-93598952D01*
X147899380Y-93789428D01*
X147851761Y-93884666D01*
X147756523Y-93979904D01*
X147566047Y-94027523D01*
X147232714Y-94027523D01*
X147042238Y-93979904D01*
X146947000Y-93884666D01*
X146899380Y-93789428D01*
X146899380Y-92932285D02*
X147708904Y-92932285D01*
X147804142Y-92884666D01*
X147851761Y-92837047D01*
X147899380Y-92741809D01*
X147899380Y-92551333D01*
X147851761Y-92456095D01*
X147804142Y-92408476D01*
X147708904Y-92360857D01*
X146899380Y-92360857D01*
X146899380Y-92027523D02*
X146899380Y-91456095D01*
X147899380Y-91741809D02*
X146899380Y-91741809D01*
G04 #@! TO.C,TP1*
X139327142Y-110704380D02*
X139660476Y-111704380D01*
X139993809Y-110704380D01*
X140660476Y-111180571D02*
X140803333Y-111228190D01*
X140850952Y-111275809D01*
X140898571Y-111371047D01*
X140898571Y-111513904D01*
X140850952Y-111609142D01*
X140803333Y-111656761D01*
X140708095Y-111704380D01*
X140327142Y-111704380D01*
X140327142Y-110704380D01*
X140660476Y-110704380D01*
X140755714Y-110752000D01*
X140803333Y-110799619D01*
X140850952Y-110894857D01*
X140850952Y-110990095D01*
X140803333Y-111085333D01*
X140755714Y-111132952D01*
X140660476Y-111180571D01*
X140327142Y-111180571D01*
X141279523Y-111418666D02*
X141755714Y-111418666D01*
X141184285Y-111704380D02*
X141517619Y-110704380D01*
X141850952Y-111704380D01*
X142041428Y-110704380D02*
X142612857Y-110704380D01*
X142327142Y-111704380D02*
X142327142Y-110704380D01*
G04 #@! TO.C,U2*
X150318285Y-107769142D02*
X150318285Y-108497714D01*
X150361142Y-108583428D01*
X150404000Y-108626285D01*
X150489714Y-108669142D01*
X150661142Y-108669142D01*
X150746857Y-108626285D01*
X150789714Y-108583428D01*
X150832571Y-108497714D01*
X150832571Y-107769142D01*
X151218285Y-107854857D02*
X151261142Y-107812000D01*
X151346857Y-107769142D01*
X151561142Y-107769142D01*
X151646857Y-107812000D01*
X151689714Y-107854857D01*
X151732571Y-107940571D01*
X151732571Y-108026285D01*
X151689714Y-108154857D01*
X151175428Y-108669142D01*
X151732571Y-108669142D01*
G04 #@! TO.C,U1*
X153111285Y-119395142D02*
X153111285Y-120123714D01*
X153154142Y-120209428D01*
X153197000Y-120252285D01*
X153282714Y-120295142D01*
X153454142Y-120295142D01*
X153539857Y-120252285D01*
X153582714Y-120209428D01*
X153625571Y-120123714D01*
X153625571Y-119395142D01*
X154525571Y-120295142D02*
X154011285Y-120295142D01*
X154268428Y-120295142D02*
X154268428Y-119395142D01*
X154182714Y-119523714D01*
X154097000Y-119609428D01*
X154011285Y-119652285D01*
G04 #@! TO.C,J3*
X139787380Y-108918333D02*
X140501666Y-108918333D01*
X140644523Y-108965952D01*
X140739761Y-109061190D01*
X140787380Y-109204047D01*
X140787380Y-109299285D01*
X139787380Y-108537380D02*
X139787380Y-107918333D01*
X140168333Y-108251666D01*
X140168333Y-108108809D01*
X140215952Y-108013571D01*
X140263571Y-107965952D01*
X140358809Y-107918333D01*
X140596904Y-107918333D01*
X140692142Y-107965952D01*
X140739761Y-108013571D01*
X140787380Y-108108809D01*
X140787380Y-108394523D01*
X140739761Y-108489761D01*
X140692142Y-108537380D01*
G04 #@! TO.C,U3*
X153638380Y-94513904D02*
X154447904Y-94513904D01*
X154543142Y-94466285D01*
X154590761Y-94418666D01*
X154638380Y-94323428D01*
X154638380Y-94132952D01*
X154590761Y-94037714D01*
X154543142Y-93990095D01*
X154447904Y-93942476D01*
X153638380Y-93942476D01*
X153638380Y-93561523D02*
X153638380Y-92942476D01*
X154019333Y-93275809D01*
X154019333Y-93132952D01*
X154066952Y-93037714D01*
X154114571Y-92990095D01*
X154209809Y-92942476D01*
X154447904Y-92942476D01*
X154543142Y-92990095D01*
X154590761Y-93037714D01*
X154638380Y-93132952D01*
X154638380Y-93418666D01*
X154590761Y-93513904D01*
X154543142Y-93561523D01*
G04 #@! TO.C,L1*
X160724285Y-104473380D02*
X160248095Y-104473380D01*
X160248095Y-103473380D01*
X161581428Y-104473380D02*
X161010000Y-104473380D01*
X161295714Y-104473380D02*
X161295714Y-103473380D01*
X161200476Y-103616238D01*
X161105238Y-103711476D01*
X161010000Y-103759095D01*
G04 #@! TO.C,Q1*
X167560619Y-112262238D02*
X167513000Y-112357476D01*
X167417761Y-112452714D01*
X167274904Y-112595571D01*
X167227285Y-112690809D01*
X167227285Y-112786047D01*
X167465380Y-112738428D02*
X167417761Y-112833666D01*
X167322523Y-112928904D01*
X167132047Y-112976523D01*
X166798714Y-112976523D01*
X166608238Y-112928904D01*
X166513000Y-112833666D01*
X166465380Y-112738428D01*
X166465380Y-112547952D01*
X166513000Y-112452714D01*
X166608238Y-112357476D01*
X166798714Y-112309857D01*
X167132047Y-112309857D01*
X167322523Y-112357476D01*
X167417761Y-112452714D01*
X167465380Y-112547952D01*
X167465380Y-112738428D01*
X167465380Y-111357476D02*
X167465380Y-111928904D01*
X167465380Y-111643190D02*
X166465380Y-111643190D01*
X166608238Y-111738428D01*
X166703476Y-111833666D01*
X166751095Y-111928904D01*
G04 #@! TO.C,Q2*
X164470761Y-108124619D02*
X164375523Y-108077000D01*
X164280285Y-107981761D01*
X164137428Y-107838904D01*
X164042190Y-107791285D01*
X163946952Y-107791285D01*
X163994571Y-108029380D02*
X163899333Y-107981761D01*
X163804095Y-107886523D01*
X163756476Y-107696047D01*
X163756476Y-107362714D01*
X163804095Y-107172238D01*
X163899333Y-107077000D01*
X163994571Y-107029380D01*
X164185047Y-107029380D01*
X164280285Y-107077000D01*
X164375523Y-107172238D01*
X164423142Y-107362714D01*
X164423142Y-107696047D01*
X164375523Y-107886523D01*
X164280285Y-107981761D01*
X164185047Y-108029380D01*
X163994571Y-108029380D01*
X164804095Y-107124619D02*
X164851714Y-107077000D01*
X164946952Y-107029380D01*
X165185047Y-107029380D01*
X165280285Y-107077000D01*
X165327904Y-107124619D01*
X165375523Y-107219857D01*
X165375523Y-107315095D01*
X165327904Y-107457952D01*
X164756476Y-108029380D01*
X165375523Y-108029380D01*
G04 #@! TO.C,C1*
X167751142Y-99276476D02*
X167798761Y-99324095D01*
X167846380Y-99466952D01*
X167846380Y-99562190D01*
X167798761Y-99705047D01*
X167703523Y-99800285D01*
X167608285Y-99847904D01*
X167417809Y-99895523D01*
X167274952Y-99895523D01*
X167084476Y-99847904D01*
X166989238Y-99800285D01*
X166894000Y-99705047D01*
X166846380Y-99562190D01*
X166846380Y-99466952D01*
X166894000Y-99324095D01*
X166941619Y-99276476D01*
X167846380Y-98324095D02*
X167846380Y-98895523D01*
X167846380Y-98609809D02*
X166846380Y-98609809D01*
X166989238Y-98705047D01*
X167084476Y-98800285D01*
X167132095Y-98895523D01*
G04 #@! TO.C,C2*
X167751142Y-102070476D02*
X167798761Y-102118095D01*
X167846380Y-102260952D01*
X167846380Y-102356190D01*
X167798761Y-102499047D01*
X167703523Y-102594285D01*
X167608285Y-102641904D01*
X167417809Y-102689523D01*
X167274952Y-102689523D01*
X167084476Y-102641904D01*
X166989238Y-102594285D01*
X166894000Y-102499047D01*
X166846380Y-102356190D01*
X166846380Y-102260952D01*
X166894000Y-102118095D01*
X166941619Y-102070476D01*
X166941619Y-101689523D02*
X166894000Y-101641904D01*
X166846380Y-101546666D01*
X166846380Y-101308571D01*
X166894000Y-101213333D01*
X166941619Y-101165714D01*
X167036857Y-101118095D01*
X167132095Y-101118095D01*
X167274952Y-101165714D01*
X167846380Y-101737142D01*
X167846380Y-101118095D01*
G04 #@! TO.C,C3*
X160692523Y-96123142D02*
X160644904Y-96170761D01*
X160502047Y-96218380D01*
X160406809Y-96218380D01*
X160263952Y-96170761D01*
X160168714Y-96075523D01*
X160121095Y-95980285D01*
X160073476Y-95789809D01*
X160073476Y-95646952D01*
X160121095Y-95456476D01*
X160168714Y-95361238D01*
X160263952Y-95266000D01*
X160406809Y-95218380D01*
X160502047Y-95218380D01*
X160644904Y-95266000D01*
X160692523Y-95313619D01*
X161025857Y-95218380D02*
X161644904Y-95218380D01*
X161311571Y-95599333D01*
X161454428Y-95599333D01*
X161549666Y-95646952D01*
X161597285Y-95694571D01*
X161644904Y-95789809D01*
X161644904Y-96027904D01*
X161597285Y-96123142D01*
X161549666Y-96170761D01*
X161454428Y-96218380D01*
X161168714Y-96218380D01*
X161073476Y-96170761D01*
X161025857Y-96123142D01*
G04 #@! TO.C,C5*
X153580523Y-96250142D02*
X153532904Y-96297761D01*
X153390047Y-96345380D01*
X153294809Y-96345380D01*
X153151952Y-96297761D01*
X153056714Y-96202523D01*
X153009095Y-96107285D01*
X152961476Y-95916809D01*
X152961476Y-95773952D01*
X153009095Y-95583476D01*
X153056714Y-95488238D01*
X153151952Y-95393000D01*
X153294809Y-95345380D01*
X153390047Y-95345380D01*
X153532904Y-95393000D01*
X153580523Y-95440619D01*
X154485285Y-95345380D02*
X154009095Y-95345380D01*
X153961476Y-95821571D01*
X154009095Y-95773952D01*
X154104333Y-95726333D01*
X154342428Y-95726333D01*
X154437666Y-95773952D01*
X154485285Y-95821571D01*
X154532904Y-95916809D01*
X154532904Y-96154904D01*
X154485285Y-96250142D01*
X154437666Y-96297761D01*
X154342428Y-96345380D01*
X154104333Y-96345380D01*
X154009095Y-96297761D01*
X153961476Y-96250142D01*
G04 #@! TO.C,C6*
X150659523Y-94345142D02*
X150611904Y-94392761D01*
X150469047Y-94440380D01*
X150373809Y-94440380D01*
X150230952Y-94392761D01*
X150135714Y-94297523D01*
X150088095Y-94202285D01*
X150040476Y-94011809D01*
X150040476Y-93868952D01*
X150088095Y-93678476D01*
X150135714Y-93583238D01*
X150230952Y-93488000D01*
X150373809Y-93440380D01*
X150469047Y-93440380D01*
X150611904Y-93488000D01*
X150659523Y-93535619D01*
X151516666Y-93440380D02*
X151326190Y-93440380D01*
X151230952Y-93488000D01*
X151183333Y-93535619D01*
X151088095Y-93678476D01*
X151040476Y-93868952D01*
X151040476Y-94249904D01*
X151088095Y-94345142D01*
X151135714Y-94392761D01*
X151230952Y-94440380D01*
X151421428Y-94440380D01*
X151516666Y-94392761D01*
X151564285Y-94345142D01*
X151611904Y-94249904D01*
X151611904Y-94011809D01*
X151564285Y-93916571D01*
X151516666Y-93868952D01*
X151421428Y-93821333D01*
X151230952Y-93821333D01*
X151135714Y-93868952D01*
X151088095Y-93916571D01*
X151040476Y-94011809D01*
G04 #@! TO.C,C7*
X150659523Y-95615142D02*
X150611904Y-95662761D01*
X150469047Y-95710380D01*
X150373809Y-95710380D01*
X150230952Y-95662761D01*
X150135714Y-95567523D01*
X150088095Y-95472285D01*
X150040476Y-95281809D01*
X150040476Y-95138952D01*
X150088095Y-94948476D01*
X150135714Y-94853238D01*
X150230952Y-94758000D01*
X150373809Y-94710380D01*
X150469047Y-94710380D01*
X150611904Y-94758000D01*
X150659523Y-94805619D01*
X150992857Y-94710380D02*
X151659523Y-94710380D01*
X151230952Y-95710380D01*
G04 #@! TO.C,C8*
X150659523Y-96885142D02*
X150611904Y-96932761D01*
X150469047Y-96980380D01*
X150373809Y-96980380D01*
X150230952Y-96932761D01*
X150135714Y-96837523D01*
X150088095Y-96742285D01*
X150040476Y-96551809D01*
X150040476Y-96408952D01*
X150088095Y-96218476D01*
X150135714Y-96123238D01*
X150230952Y-96028000D01*
X150373809Y-95980380D01*
X150469047Y-95980380D01*
X150611904Y-96028000D01*
X150659523Y-96075619D01*
X151230952Y-96408952D02*
X151135714Y-96361333D01*
X151088095Y-96313714D01*
X151040476Y-96218476D01*
X151040476Y-96170857D01*
X151088095Y-96075619D01*
X151135714Y-96028000D01*
X151230952Y-95980380D01*
X151421428Y-95980380D01*
X151516666Y-96028000D01*
X151564285Y-96075619D01*
X151611904Y-96170857D01*
X151611904Y-96218476D01*
X151564285Y-96313714D01*
X151516666Y-96361333D01*
X151421428Y-96408952D01*
X151230952Y-96408952D01*
X151135714Y-96456571D01*
X151088095Y-96504190D01*
X151040476Y-96599428D01*
X151040476Y-96789904D01*
X151088095Y-96885142D01*
X151135714Y-96932761D01*
X151230952Y-96980380D01*
X151421428Y-96980380D01*
X151516666Y-96932761D01*
X151564285Y-96885142D01*
X151611904Y-96789904D01*
X151611904Y-96599428D01*
X151564285Y-96504190D01*
X151516666Y-96456571D01*
X151421428Y-96408952D01*
G04 #@! TO.C,R2*
X142785523Y-116919380D02*
X142452190Y-116443190D01*
X142214095Y-116919380D02*
X142214095Y-115919380D01*
X142595047Y-115919380D01*
X142690285Y-115967000D01*
X142737904Y-116014619D01*
X142785523Y-116109857D01*
X142785523Y-116252714D01*
X142737904Y-116347952D01*
X142690285Y-116395571D01*
X142595047Y-116443190D01*
X142214095Y-116443190D01*
X143166476Y-116014619D02*
X143214095Y-115967000D01*
X143309333Y-115919380D01*
X143547428Y-115919380D01*
X143642666Y-115967000D01*
X143690285Y-116014619D01*
X143737904Y-116109857D01*
X143737904Y-116205095D01*
X143690285Y-116347952D01*
X143118857Y-116919380D01*
X143737904Y-116919380D01*
G04 #@! TO.C,C4*
X151812642Y-91529476D02*
X151860261Y-91577095D01*
X151907880Y-91719952D01*
X151907880Y-91815190D01*
X151860261Y-91958047D01*
X151765023Y-92053285D01*
X151669785Y-92100904D01*
X151479309Y-92148523D01*
X151336452Y-92148523D01*
X151145976Y-92100904D01*
X151050738Y-92053285D01*
X150955500Y-91958047D01*
X150907880Y-91815190D01*
X150907880Y-91719952D01*
X150955500Y-91577095D01*
X151003119Y-91529476D01*
X151241214Y-90672333D02*
X151907880Y-90672333D01*
X150860261Y-90910428D02*
X151574547Y-91148523D01*
X151574547Y-90529476D01*
G04 #@! TO.C,R1*
X149939380Y-119723476D02*
X149463190Y-120056809D01*
X149939380Y-120294904D02*
X148939380Y-120294904D01*
X148939380Y-119913952D01*
X148987000Y-119818714D01*
X149034619Y-119771095D01*
X149129857Y-119723476D01*
X149272714Y-119723476D01*
X149367952Y-119771095D01*
X149415571Y-119818714D01*
X149463190Y-119913952D01*
X149463190Y-120294904D01*
X149939380Y-118771095D02*
X149939380Y-119342523D01*
X149939380Y-119056809D02*
X148939380Y-119056809D01*
X149082238Y-119152047D01*
X149177476Y-119247285D01*
X149225095Y-119342523D01*
G04 #@! TO.C,R3*
X168820523Y-119586380D02*
X168487190Y-119110190D01*
X168249095Y-119586380D02*
X168249095Y-118586380D01*
X168630047Y-118586380D01*
X168725285Y-118634000D01*
X168772904Y-118681619D01*
X168820523Y-118776857D01*
X168820523Y-118919714D01*
X168772904Y-119014952D01*
X168725285Y-119062571D01*
X168630047Y-119110190D01*
X168249095Y-119110190D01*
X169153857Y-118586380D02*
X169772904Y-118586380D01*
X169439571Y-118967333D01*
X169582428Y-118967333D01*
X169677666Y-119014952D01*
X169725285Y-119062571D01*
X169772904Y-119157809D01*
X169772904Y-119395904D01*
X169725285Y-119491142D01*
X169677666Y-119538761D01*
X169582428Y-119586380D01*
X169296714Y-119586380D01*
X169201476Y-119538761D01*
X169153857Y-119491142D01*
G04 #@! TO.C,R4*
X166407523Y-119459380D02*
X166074190Y-118983190D01*
X165836095Y-119459380D02*
X165836095Y-118459380D01*
X166217047Y-118459380D01*
X166312285Y-118507000D01*
X166359904Y-118554619D01*
X166407523Y-118649857D01*
X166407523Y-118792714D01*
X166359904Y-118887952D01*
X166312285Y-118935571D01*
X166217047Y-118983190D01*
X165836095Y-118983190D01*
X167264666Y-118792714D02*
X167264666Y-119459380D01*
X167026571Y-118411761D02*
X166788476Y-119126047D01*
X167407523Y-119126047D01*
G04 #@! TO.C,R5*
X168820523Y-118189380D02*
X168487190Y-117713190D01*
X168249095Y-118189380D02*
X168249095Y-117189380D01*
X168630047Y-117189380D01*
X168725285Y-117237000D01*
X168772904Y-117284619D01*
X168820523Y-117379857D01*
X168820523Y-117522714D01*
X168772904Y-117617952D01*
X168725285Y-117665571D01*
X168630047Y-117713190D01*
X168249095Y-117713190D01*
X169725285Y-117189380D02*
X169249095Y-117189380D01*
X169201476Y-117665571D01*
X169249095Y-117617952D01*
X169344333Y-117570333D01*
X169582428Y-117570333D01*
X169677666Y-117617952D01*
X169725285Y-117665571D01*
X169772904Y-117760809D01*
X169772904Y-117998904D01*
X169725285Y-118094142D01*
X169677666Y-118141761D01*
X169582428Y-118189380D01*
X169344333Y-118189380D01*
X169249095Y-118141761D01*
X169201476Y-118094142D01*
G04 #@! TO.C,R6*
X166788523Y-104727380D02*
X166455190Y-104251190D01*
X166217095Y-104727380D02*
X166217095Y-103727380D01*
X166598047Y-103727380D01*
X166693285Y-103775000D01*
X166740904Y-103822619D01*
X166788523Y-103917857D01*
X166788523Y-104060714D01*
X166740904Y-104155952D01*
X166693285Y-104203571D01*
X166598047Y-104251190D01*
X166217095Y-104251190D01*
X167645666Y-103727380D02*
X167455190Y-103727380D01*
X167359952Y-103775000D01*
X167312333Y-103822619D01*
X167217095Y-103965476D01*
X167169476Y-104155952D01*
X167169476Y-104536904D01*
X167217095Y-104632142D01*
X167264714Y-104679761D01*
X167359952Y-104727380D01*
X167550428Y-104727380D01*
X167645666Y-104679761D01*
X167693285Y-104632142D01*
X167740904Y-104536904D01*
X167740904Y-104298809D01*
X167693285Y-104203571D01*
X167645666Y-104155952D01*
X167550428Y-104108333D01*
X167359952Y-104108333D01*
X167264714Y-104155952D01*
X167217095Y-104203571D01*
X167169476Y-104298809D01*
G04 #@! TO.C,R7*
X164803142Y-112184428D02*
X164374571Y-112484428D01*
X164803142Y-112698714D02*
X163903142Y-112698714D01*
X163903142Y-112355857D01*
X163946000Y-112270142D01*
X163988857Y-112227285D01*
X164074571Y-112184428D01*
X164203142Y-112184428D01*
X164288857Y-112227285D01*
X164331714Y-112270142D01*
X164374571Y-112355857D01*
X164374571Y-112698714D01*
X163903142Y-111884428D02*
X163903142Y-111284428D01*
X164803142Y-111670142D01*
G04 #@! TO.C,R11*
X155704619Y-115531904D02*
X155437952Y-115150952D01*
X155247476Y-115531904D02*
X155247476Y-114731904D01*
X155552238Y-114731904D01*
X155628428Y-114770000D01*
X155666523Y-114808095D01*
X155704619Y-114884285D01*
X155704619Y-114998571D01*
X155666523Y-115074761D01*
X155628428Y-115112857D01*
X155552238Y-115150952D01*
X155247476Y-115150952D01*
X156466523Y-115531904D02*
X156009380Y-115531904D01*
X156237952Y-115531904D02*
X156237952Y-114731904D01*
X156161761Y-114846190D01*
X156085571Y-114922380D01*
X156009380Y-114960476D01*
X157228428Y-115531904D02*
X156771285Y-115531904D01*
X156999857Y-115531904D02*
X156999857Y-114731904D01*
X156923666Y-114846190D01*
X156847476Y-114922380D01*
X156771285Y-114960476D01*
G04 #@! TO.C,R12*
X171579619Y-110134404D02*
X171312952Y-109753452D01*
X171122476Y-110134404D02*
X171122476Y-109334404D01*
X171427238Y-109334404D01*
X171503428Y-109372500D01*
X171541523Y-109410595D01*
X171579619Y-109486785D01*
X171579619Y-109601071D01*
X171541523Y-109677261D01*
X171503428Y-109715357D01*
X171427238Y-109753452D01*
X171122476Y-109753452D01*
X172341523Y-110134404D02*
X171884380Y-110134404D01*
X172112952Y-110134404D02*
X172112952Y-109334404D01*
X172036761Y-109448690D01*
X171960571Y-109524880D01*
X171884380Y-109562976D01*
X172646285Y-109410595D02*
X172684380Y-109372500D01*
X172760571Y-109334404D01*
X172951047Y-109334404D01*
X173027238Y-109372500D01*
X173065333Y-109410595D01*
X173103428Y-109486785D01*
X173103428Y-109562976D01*
X173065333Y-109677261D01*
X172608190Y-110134404D01*
X173103428Y-110134404D01*
G04 #@! TO.C,R14*
X165057142Y-94023428D02*
X164628571Y-94323428D01*
X165057142Y-94537714D02*
X164157142Y-94537714D01*
X164157142Y-94194857D01*
X164200000Y-94109142D01*
X164242857Y-94066285D01*
X164328571Y-94023428D01*
X164457142Y-94023428D01*
X164542857Y-94066285D01*
X164585714Y-94109142D01*
X164628571Y-94194857D01*
X164628571Y-94537714D01*
X165057142Y-93166285D02*
X165057142Y-93680571D01*
X165057142Y-93423428D02*
X164157142Y-93423428D01*
X164285714Y-93509142D01*
X164371428Y-93594857D01*
X164414285Y-93680571D01*
X164457142Y-92394857D02*
X165057142Y-92394857D01*
X164114285Y-92609142D02*
X164757142Y-92823428D01*
X164757142Y-92266285D01*
G04 #@! TO.C,R15*
X163867523Y-91519380D02*
X163534190Y-91043190D01*
X163296095Y-91519380D02*
X163296095Y-90519380D01*
X163677047Y-90519380D01*
X163772285Y-90567000D01*
X163819904Y-90614619D01*
X163867523Y-90709857D01*
X163867523Y-90852714D01*
X163819904Y-90947952D01*
X163772285Y-90995571D01*
X163677047Y-91043190D01*
X163296095Y-91043190D01*
X164819904Y-91519380D02*
X164248476Y-91519380D01*
X164534190Y-91519380D02*
X164534190Y-90519380D01*
X164438952Y-90662238D01*
X164343714Y-90757476D01*
X164248476Y-90805095D01*
X165724666Y-90519380D02*
X165248476Y-90519380D01*
X165200857Y-90995571D01*
X165248476Y-90947952D01*
X165343714Y-90900333D01*
X165581809Y-90900333D01*
X165677047Y-90947952D01*
X165724666Y-90995571D01*
X165772285Y-91090809D01*
X165772285Y-91328904D01*
X165724666Y-91424142D01*
X165677047Y-91471761D01*
X165581809Y-91519380D01*
X165343714Y-91519380D01*
X165248476Y-91471761D01*
X165200857Y-91424142D01*
G04 #@! TO.C,R8*
X156928571Y-110193142D02*
X156628571Y-109764571D01*
X156414285Y-110193142D02*
X156414285Y-109293142D01*
X156757142Y-109293142D01*
X156842857Y-109336000D01*
X156885714Y-109378857D01*
X156928571Y-109464571D01*
X156928571Y-109593142D01*
X156885714Y-109678857D01*
X156842857Y-109721714D01*
X156757142Y-109764571D01*
X156414285Y-109764571D01*
X157442857Y-109678857D02*
X157357142Y-109636000D01*
X157314285Y-109593142D01*
X157271428Y-109507428D01*
X157271428Y-109464571D01*
X157314285Y-109378857D01*
X157357142Y-109336000D01*
X157442857Y-109293142D01*
X157614285Y-109293142D01*
X157700000Y-109336000D01*
X157742857Y-109378857D01*
X157785714Y-109464571D01*
X157785714Y-109507428D01*
X157742857Y-109593142D01*
X157700000Y-109636000D01*
X157614285Y-109678857D01*
X157442857Y-109678857D01*
X157357142Y-109721714D01*
X157314285Y-109764571D01*
X157271428Y-109850285D01*
X157271428Y-110021714D01*
X157314285Y-110107428D01*
X157357142Y-110150285D01*
X157442857Y-110193142D01*
X157614285Y-110193142D01*
X157700000Y-110150285D01*
X157742857Y-110107428D01*
X157785714Y-110021714D01*
X157785714Y-109850285D01*
X157742857Y-109764571D01*
X157700000Y-109721714D01*
X157614285Y-109678857D01*
G04 #@! TO.C,R9*
X163740523Y-104854380D02*
X163407190Y-104378190D01*
X163169095Y-104854380D02*
X163169095Y-103854380D01*
X163550047Y-103854380D01*
X163645285Y-103902000D01*
X163692904Y-103949619D01*
X163740523Y-104044857D01*
X163740523Y-104187714D01*
X163692904Y-104282952D01*
X163645285Y-104330571D01*
X163550047Y-104378190D01*
X163169095Y-104378190D01*
X164216714Y-104854380D02*
X164407190Y-104854380D01*
X164502428Y-104806761D01*
X164550047Y-104759142D01*
X164645285Y-104616285D01*
X164692904Y-104425809D01*
X164692904Y-104044857D01*
X164645285Y-103949619D01*
X164597666Y-103902000D01*
X164502428Y-103854380D01*
X164311952Y-103854380D01*
X164216714Y-103902000D01*
X164169095Y-103949619D01*
X164121476Y-104044857D01*
X164121476Y-104282952D01*
X164169095Y-104378190D01*
X164216714Y-104425809D01*
X164311952Y-104473428D01*
X164502428Y-104473428D01*
X164597666Y-104425809D01*
X164645285Y-104378190D01*
X164692904Y-104282952D01*
G04 #@! TO.C,R10*
X163740523Y-106251380D02*
X163407190Y-105775190D01*
X163169095Y-106251380D02*
X163169095Y-105251380D01*
X163550047Y-105251380D01*
X163645285Y-105299000D01*
X163692904Y-105346619D01*
X163740523Y-105441857D01*
X163740523Y-105584714D01*
X163692904Y-105679952D01*
X163645285Y-105727571D01*
X163550047Y-105775190D01*
X163169095Y-105775190D01*
X164692904Y-106251380D02*
X164121476Y-106251380D01*
X164407190Y-106251380D02*
X164407190Y-105251380D01*
X164311952Y-105394238D01*
X164216714Y-105489476D01*
X164121476Y-105537095D01*
X165311952Y-105251380D02*
X165407190Y-105251380D01*
X165502428Y-105299000D01*
X165550047Y-105346619D01*
X165597666Y-105441857D01*
X165645285Y-105632333D01*
X165645285Y-105870428D01*
X165597666Y-106060904D01*
X165550047Y-106156142D01*
X165502428Y-106203761D01*
X165407190Y-106251380D01*
X165311952Y-106251380D01*
X165216714Y-106203761D01*
X165169095Y-106156142D01*
X165121476Y-106060904D01*
X165073857Y-105870428D01*
X165073857Y-105632333D01*
X165121476Y-105441857D01*
X165169095Y-105346619D01*
X165216714Y-105299000D01*
X165311952Y-105251380D01*
G04 #@! TO.C,C9*
X164248523Y-119364142D02*
X164200904Y-119411761D01*
X164058047Y-119459380D01*
X163962809Y-119459380D01*
X163819952Y-119411761D01*
X163724714Y-119316523D01*
X163677095Y-119221285D01*
X163629476Y-119030809D01*
X163629476Y-118887952D01*
X163677095Y-118697476D01*
X163724714Y-118602238D01*
X163819952Y-118507000D01*
X163962809Y-118459380D01*
X164058047Y-118459380D01*
X164200904Y-118507000D01*
X164248523Y-118554619D01*
X164724714Y-119459380D02*
X164915190Y-119459380D01*
X165010428Y-119411761D01*
X165058047Y-119364142D01*
X165153285Y-119221285D01*
X165200904Y-119030809D01*
X165200904Y-118649857D01*
X165153285Y-118554619D01*
X165105666Y-118507000D01*
X165010428Y-118459380D01*
X164819952Y-118459380D01*
X164724714Y-118507000D01*
X164677095Y-118554619D01*
X164629476Y-118649857D01*
X164629476Y-118887952D01*
X164677095Y-118983190D01*
X164724714Y-119030809D01*
X164819952Y-119078428D01*
X165010428Y-119078428D01*
X165105666Y-119030809D01*
X165153285Y-118983190D01*
X165200904Y-118887952D01*
G04 #@! TO.C,C10*
X159895619Y-113804714D02*
X159857523Y-113842809D01*
X159743238Y-113880904D01*
X159667047Y-113880904D01*
X159552761Y-113842809D01*
X159476571Y-113766619D01*
X159438476Y-113690428D01*
X159400380Y-113538047D01*
X159400380Y-113423761D01*
X159438476Y-113271380D01*
X159476571Y-113195190D01*
X159552761Y-113119000D01*
X159667047Y-113080904D01*
X159743238Y-113080904D01*
X159857523Y-113119000D01*
X159895619Y-113157095D01*
X160657523Y-113880904D02*
X160200380Y-113880904D01*
X160428952Y-113880904D02*
X160428952Y-113080904D01*
X160352761Y-113195190D01*
X160276571Y-113271380D01*
X160200380Y-113309476D01*
X161152761Y-113080904D02*
X161228952Y-113080904D01*
X161305142Y-113119000D01*
X161343238Y-113157095D01*
X161381333Y-113233285D01*
X161419428Y-113385666D01*
X161419428Y-113576142D01*
X161381333Y-113728523D01*
X161343238Y-113804714D01*
X161305142Y-113842809D01*
X161228952Y-113880904D01*
X161152761Y-113880904D01*
X161076571Y-113842809D01*
X161038476Y-113804714D01*
X161000380Y-113728523D01*
X160962285Y-113576142D01*
X160962285Y-113385666D01*
X161000380Y-113233285D01*
X161038476Y-113157095D01*
X161076571Y-113119000D01*
X161152761Y-113080904D01*
G04 #@! TO.C,R16*
X155912571Y-120480142D02*
X155612571Y-120051571D01*
X155398285Y-120480142D02*
X155398285Y-119580142D01*
X155741142Y-119580142D01*
X155826857Y-119623000D01*
X155869714Y-119665857D01*
X155912571Y-119751571D01*
X155912571Y-119880142D01*
X155869714Y-119965857D01*
X155826857Y-120008714D01*
X155741142Y-120051571D01*
X155398285Y-120051571D01*
X156769714Y-120480142D02*
X156255428Y-120480142D01*
X156512571Y-120480142D02*
X156512571Y-119580142D01*
X156426857Y-119708714D01*
X156341142Y-119794428D01*
X156255428Y-119837285D01*
X157541142Y-119580142D02*
X157369714Y-119580142D01*
X157284000Y-119623000D01*
X157241142Y-119665857D01*
X157155428Y-119794428D01*
X157112571Y-119965857D01*
X157112571Y-120308714D01*
X157155428Y-120394428D01*
X157198285Y-120437285D01*
X157284000Y-120480142D01*
X157455428Y-120480142D01*
X157541142Y-120437285D01*
X157584000Y-120394428D01*
X157626857Y-120308714D01*
X157626857Y-120094428D01*
X157584000Y-120008714D01*
X157541142Y-119965857D01*
X157455428Y-119923000D01*
X157284000Y-119923000D01*
X157198285Y-119965857D01*
X157155428Y-120008714D01*
X157112571Y-120094428D01*
G04 #@! TO.C,C11*
X155001928Y-106596428D02*
X155044785Y-106639285D01*
X155087642Y-106767857D01*
X155087642Y-106853571D01*
X155044785Y-106982142D01*
X154959071Y-107067857D01*
X154873357Y-107110714D01*
X154701928Y-107153571D01*
X154573357Y-107153571D01*
X154401928Y-107110714D01*
X154316214Y-107067857D01*
X154230500Y-106982142D01*
X154187642Y-106853571D01*
X154187642Y-106767857D01*
X154230500Y-106639285D01*
X154273357Y-106596428D01*
X155087642Y-105739285D02*
X155087642Y-106253571D01*
X155087642Y-105996428D02*
X154187642Y-105996428D01*
X154316214Y-106082142D01*
X154401928Y-106167857D01*
X154444785Y-106253571D01*
X155087642Y-104882142D02*
X155087642Y-105396428D01*
X155087642Y-105139285D02*
X154187642Y-105139285D01*
X154316214Y-105225000D01*
X154401928Y-105310714D01*
X154444785Y-105396428D01*
G04 #@! TO.C,C12*
X146415142Y-109817476D02*
X146462761Y-109865095D01*
X146510380Y-110007952D01*
X146510380Y-110103190D01*
X146462761Y-110246047D01*
X146367523Y-110341285D01*
X146272285Y-110388904D01*
X146081809Y-110436523D01*
X145938952Y-110436523D01*
X145748476Y-110388904D01*
X145653238Y-110341285D01*
X145558000Y-110246047D01*
X145510380Y-110103190D01*
X145510380Y-110007952D01*
X145558000Y-109865095D01*
X145605619Y-109817476D01*
X146510380Y-108865095D02*
X146510380Y-109436523D01*
X146510380Y-109150809D02*
X145510380Y-109150809D01*
X145653238Y-109246047D01*
X145748476Y-109341285D01*
X145796095Y-109436523D01*
X145605619Y-108484142D02*
X145558000Y-108436523D01*
X145510380Y-108341285D01*
X145510380Y-108103190D01*
X145558000Y-108007952D01*
X145605619Y-107960333D01*
X145700857Y-107912714D01*
X145796095Y-107912714D01*
X145938952Y-107960333D01*
X146510380Y-108531761D01*
X146510380Y-107912714D01*
G04 #@! TO.C,C13*
X150733142Y-114770476D02*
X150780761Y-114818095D01*
X150828380Y-114960952D01*
X150828380Y-115056190D01*
X150780761Y-115199047D01*
X150685523Y-115294285D01*
X150590285Y-115341904D01*
X150399809Y-115389523D01*
X150256952Y-115389523D01*
X150066476Y-115341904D01*
X149971238Y-115294285D01*
X149876000Y-115199047D01*
X149828380Y-115056190D01*
X149828380Y-114960952D01*
X149876000Y-114818095D01*
X149923619Y-114770476D01*
X150828380Y-113818095D02*
X150828380Y-114389523D01*
X150828380Y-114103809D02*
X149828380Y-114103809D01*
X149971238Y-114199047D01*
X150066476Y-114294285D01*
X150114095Y-114389523D01*
X149828380Y-113484761D02*
X149828380Y-112865714D01*
X150209333Y-113199047D01*
X150209333Y-113056190D01*
X150256952Y-112960952D01*
X150304571Y-112913333D01*
X150399809Y-112865714D01*
X150637904Y-112865714D01*
X150733142Y-112913333D01*
X150780761Y-112960952D01*
X150828380Y-113056190D01*
X150828380Y-113341904D01*
X150780761Y-113437142D01*
X150733142Y-113484761D01*
G04 #@! TO.C,R13*
X159422523Y-105997380D02*
X159089190Y-105521190D01*
X158851095Y-105997380D02*
X158851095Y-104997380D01*
X159232047Y-104997380D01*
X159327285Y-105045000D01*
X159374904Y-105092619D01*
X159422523Y-105187857D01*
X159422523Y-105330714D01*
X159374904Y-105425952D01*
X159327285Y-105473571D01*
X159232047Y-105521190D01*
X158851095Y-105521190D01*
X160374904Y-105997380D02*
X159803476Y-105997380D01*
X160089190Y-105997380D02*
X160089190Y-104997380D01*
X159993952Y-105140238D01*
X159898714Y-105235476D01*
X159803476Y-105283095D01*
X160708238Y-104997380D02*
X161327285Y-104997380D01*
X160993952Y-105378333D01*
X161136809Y-105378333D01*
X161232047Y-105425952D01*
X161279666Y-105473571D01*
X161327285Y-105568809D01*
X161327285Y-105806904D01*
X161279666Y-105902142D01*
X161232047Y-105949761D01*
X161136809Y-105997380D01*
X160851095Y-105997380D01*
X160755857Y-105949761D01*
X160708238Y-105902142D01*
G04 #@! TO.C,D1*
X172037380Y-99720904D02*
X171037380Y-99720904D01*
X171037380Y-99482809D01*
X171085000Y-99339952D01*
X171180238Y-99244714D01*
X171275476Y-99197095D01*
X171465952Y-99149476D01*
X171608809Y-99149476D01*
X171799285Y-99197095D01*
X171894523Y-99244714D01*
X171989761Y-99339952D01*
X172037380Y-99482809D01*
X172037380Y-99720904D01*
X172037380Y-98197095D02*
X172037380Y-98768523D01*
X172037380Y-98482809D02*
X171037380Y-98482809D01*
X171180238Y-98578047D01*
X171275476Y-98673285D01*
X171323095Y-98768523D01*
G04 #@! TO.C,R17*
X172423142Y-102786428D02*
X171994571Y-103086428D01*
X172423142Y-103300714D02*
X171523142Y-103300714D01*
X171523142Y-102957857D01*
X171566000Y-102872142D01*
X171608857Y-102829285D01*
X171694571Y-102786428D01*
X171823142Y-102786428D01*
X171908857Y-102829285D01*
X171951714Y-102872142D01*
X171994571Y-102957857D01*
X171994571Y-103300714D01*
X172423142Y-101929285D02*
X172423142Y-102443571D01*
X172423142Y-102186428D02*
X171523142Y-102186428D01*
X171651714Y-102272142D01*
X171737428Y-102357857D01*
X171780285Y-102443571D01*
X171523142Y-101629285D02*
X171523142Y-101029285D01*
X172423142Y-101415000D01*
G04 #@! TD*
M02*
