G04 #@! TF.GenerationSoftware,KiCad,Pcbnew,5.0.1-33cea8e~68~ubuntu18.04.1*
G04 #@! TF.CreationDate,2018-11-28T03:54:02-05:00*
G04 #@! TF.ProjectId,psu,7073752E6B696361645F706362000000,rev?*
G04 #@! TF.SameCoordinates,Original*
G04 #@! TF.FileFunction,Legend,Bot*
G04 #@! TF.FilePolarity,Positive*
%FSLAX46Y46*%
G04 Gerber Fmt 4.6, Leading zero omitted, Abs format (unit mm)*
G04 Created by KiCad (PCBNEW 5.0.1-33cea8e~68~ubuntu18.04.1) date Wed Nov 28 03:54:02 2018*
%MOMM*%
%LPD*%
G01*
G04 APERTURE LIST*
%ADD10C,0.300000*%
%ADD11C,0.180000*%
%ADD12C,0.002540*%
%ADD13C,0.050000*%
G04 APERTURE END LIST*
D10*
X146145000Y-111032857D02*
X146830714Y-111032857D01*
X146487857Y-111032857D02*
X146487857Y-109832857D01*
X146602142Y-110004285D01*
X146716428Y-110118571D01*
X146830714Y-110175714D01*
X145002142Y-111032857D02*
X145687857Y-111032857D01*
X145345000Y-111032857D02*
X145345000Y-109832857D01*
X145459285Y-110004285D01*
X145573571Y-110118571D01*
X145687857Y-110175714D01*
X143630714Y-109775714D02*
X144659285Y-111318571D01*
X142602142Y-111032857D02*
X143287857Y-111032857D01*
X142945000Y-111032857D02*
X142945000Y-109832857D01*
X143059285Y-110004285D01*
X143173571Y-110118571D01*
X143287857Y-110175714D01*
X141916428Y-110347142D02*
X142030714Y-110290000D01*
X142087857Y-110232857D01*
X142145000Y-110118571D01*
X142145000Y-110061428D01*
X142087857Y-109947142D01*
X142030714Y-109890000D01*
X141916428Y-109832857D01*
X141687857Y-109832857D01*
X141573571Y-109890000D01*
X141516428Y-109947142D01*
X141459285Y-110061428D01*
X141459285Y-110118571D01*
X141516428Y-110232857D01*
X141573571Y-110290000D01*
X141687857Y-110347142D01*
X141916428Y-110347142D01*
X142030714Y-110404285D01*
X142087857Y-110461428D01*
X142145000Y-110575714D01*
X142145000Y-110804285D01*
X142087857Y-110918571D01*
X142030714Y-110975714D01*
X141916428Y-111032857D01*
X141687857Y-111032857D01*
X141573571Y-110975714D01*
X141516428Y-110918571D01*
X141459285Y-110804285D01*
X141459285Y-110575714D01*
X141516428Y-110461428D01*
X141573571Y-110404285D01*
X141687857Y-110347142D01*
X149262857Y-95792857D02*
X149662857Y-95221428D01*
X149948571Y-95792857D02*
X149948571Y-94592857D01*
X149491428Y-94592857D01*
X149377142Y-94650000D01*
X149320000Y-94707142D01*
X149262857Y-94821428D01*
X149262857Y-94992857D01*
X149320000Y-95107142D01*
X149377142Y-95164285D01*
X149491428Y-95221428D01*
X149948571Y-95221428D01*
X148748571Y-95164285D02*
X148348571Y-95164285D01*
X148177142Y-95792857D02*
X148748571Y-95792857D01*
X148748571Y-94592857D01*
X148177142Y-94592857D01*
X147834285Y-94592857D02*
X147434285Y-95792857D01*
X147034285Y-94592857D01*
X146634285Y-95678571D02*
X146577142Y-95735714D01*
X146634285Y-95792857D01*
X146691428Y-95735714D01*
X146634285Y-95678571D01*
X146634285Y-95792857D01*
X145205714Y-95450000D02*
X144634285Y-95450000D01*
X145320000Y-95792857D02*
X144920000Y-94592857D01*
X144520000Y-95792857D01*
X155037666Y-92308333D02*
X154371000Y-92308333D01*
X155171000Y-92708333D02*
X154704333Y-91308333D01*
X154237666Y-92708333D01*
X153971000Y-91308333D02*
X153504333Y-92708333D01*
X153037666Y-91308333D01*
X152704333Y-91308333D02*
X151837666Y-91308333D01*
X152304333Y-91841666D01*
X152104333Y-91841666D01*
X151971000Y-91908333D01*
X151904333Y-91975000D01*
X151837666Y-92108333D01*
X151837666Y-92441666D01*
X151904333Y-92575000D01*
X151971000Y-92641666D01*
X152104333Y-92708333D01*
X152504333Y-92708333D01*
X152637666Y-92641666D01*
X152704333Y-92575000D01*
X151237666Y-92175000D02*
X150171000Y-92175000D01*
X149504333Y-92708333D02*
X149504333Y-91308333D01*
X148971000Y-91308333D01*
X148837666Y-91375000D01*
X148771000Y-91441666D01*
X148704333Y-91575000D01*
X148704333Y-91775000D01*
X148771000Y-91908333D01*
X148837666Y-91975000D01*
X148971000Y-92041666D01*
X149504333Y-92041666D01*
X147304333Y-92575000D02*
X147371000Y-92641666D01*
X147571000Y-92708333D01*
X147704333Y-92708333D01*
X147904333Y-92641666D01*
X148037666Y-92508333D01*
X148104333Y-92375000D01*
X148171000Y-92108333D01*
X148171000Y-91908333D01*
X148104333Y-91641666D01*
X148037666Y-91508333D01*
X147904333Y-91375000D01*
X147704333Y-91308333D01*
X147571000Y-91308333D01*
X147371000Y-91375000D01*
X147304333Y-91441666D01*
X146704333Y-92175000D02*
X145637666Y-92175000D01*
X144704333Y-91308333D02*
X144571000Y-91308333D01*
X144437666Y-91375000D01*
X144371000Y-91441666D01*
X144304333Y-91575000D01*
X144237666Y-91841666D01*
X144237666Y-92175000D01*
X144304333Y-92441666D01*
X144371000Y-92575000D01*
X144437666Y-92641666D01*
X144571000Y-92708333D01*
X144704333Y-92708333D01*
X144837666Y-92641666D01*
X144904333Y-92575000D01*
X144971000Y-92441666D01*
X145037666Y-92175000D01*
X145037666Y-91841666D01*
X144971000Y-91575000D01*
X144904333Y-91441666D01*
X144837666Y-91375000D01*
X144704333Y-91308333D01*
X143771000Y-91308333D02*
X142837666Y-91308333D01*
X143437666Y-92708333D01*
D11*
G04 #@! TO.C,J1*
X147955000Y-107950000D02*
X147955000Y-100330000D01*
X142875000Y-100330000D02*
X142875000Y-107950000D01*
X142875000Y-107950000D02*
X147955000Y-107950000D01*
X147955000Y-100330000D02*
X142875000Y-100330000D01*
G04 #@! TO.C,J2*
X170180000Y-120015000D02*
X172720000Y-120015000D01*
X170180000Y-109855000D02*
X170180000Y-120015000D01*
X172720000Y-109855000D02*
X170180000Y-109855000D01*
X172720000Y-120015000D02*
X172720000Y-109855000D01*
D12*
G04 #@! TO.C,REF\002A\002A*
G36*
X138948160Y-112008920D02*
X138927840Y-111998760D01*
X138884660Y-111970820D01*
X138821160Y-111927640D01*
X138744960Y-111879380D01*
X138671300Y-111826040D01*
X138607800Y-111785400D01*
X138564620Y-111757460D01*
X138546840Y-111747300D01*
X138536680Y-111752380D01*
X138501120Y-111767620D01*
X138447780Y-111795560D01*
X138419840Y-111810800D01*
X138371580Y-111831120D01*
X138346180Y-111836200D01*
X138343640Y-111828580D01*
X138325860Y-111793020D01*
X138297920Y-111729520D01*
X138262360Y-111648240D01*
X138221720Y-111551720D01*
X138176000Y-111447580D01*
X138132820Y-111340900D01*
X138089640Y-111239300D01*
X138054080Y-111147860D01*
X138023600Y-111074200D01*
X138003280Y-111023400D01*
X137995660Y-111000540D01*
X137998200Y-110995460D01*
X138023600Y-110972600D01*
X138064240Y-110942120D01*
X138153140Y-110868460D01*
X138244580Y-110756700D01*
X138297920Y-110629700D01*
X138315700Y-110490000D01*
X138300460Y-110363000D01*
X138249660Y-110236000D01*
X138163300Y-110124240D01*
X138056620Y-110040420D01*
X137932160Y-109989620D01*
X137795000Y-109971840D01*
X137662920Y-109987080D01*
X137535920Y-110037880D01*
X137424160Y-110121700D01*
X137375900Y-110177580D01*
X137309860Y-110291880D01*
X137274300Y-110413800D01*
X137269220Y-110444280D01*
X137274300Y-110576360D01*
X137314940Y-110703360D01*
X137386060Y-110817660D01*
X137482580Y-110911640D01*
X137495280Y-110921800D01*
X137541000Y-110954820D01*
X137571480Y-110980220D01*
X137594340Y-110998000D01*
X137424160Y-111409480D01*
X137396220Y-111472980D01*
X137350500Y-111584740D01*
X137309860Y-111681260D01*
X137276840Y-111760000D01*
X137253980Y-111810800D01*
X137243820Y-111831120D01*
X137243820Y-111833660D01*
X137228580Y-111836200D01*
X137195560Y-111823500D01*
X137139680Y-111795560D01*
X137101580Y-111777780D01*
X137058400Y-111754920D01*
X137038080Y-111747300D01*
X137022840Y-111757460D01*
X136979660Y-111782860D01*
X136918700Y-111823500D01*
X136845040Y-111874300D01*
X136776460Y-111922560D01*
X136710420Y-111965740D01*
X136664700Y-111993680D01*
X136641840Y-112006380D01*
X136639300Y-112006380D01*
X136618980Y-111996220D01*
X136580880Y-111965740D01*
X136525000Y-111912400D01*
X136446260Y-111833660D01*
X136433560Y-111820960D01*
X136370060Y-111754920D01*
X136316720Y-111699040D01*
X136281160Y-111660940D01*
X136268460Y-111643160D01*
X136281160Y-111620300D01*
X136309100Y-111574580D01*
X136352280Y-111508540D01*
X136403080Y-111432340D01*
X136540240Y-111234220D01*
X136466580Y-111048800D01*
X136443720Y-110992920D01*
X136413240Y-110921800D01*
X136392920Y-110873540D01*
X136380220Y-110850680D01*
X136359900Y-110845600D01*
X136309100Y-110832900D01*
X136235440Y-110817660D01*
X136146540Y-110799880D01*
X136062720Y-110784640D01*
X135986520Y-110771940D01*
X135933180Y-110759240D01*
X135907780Y-110754160D01*
X135902700Y-110751620D01*
X135897620Y-110738920D01*
X135895080Y-110713520D01*
X135892540Y-110667800D01*
X135892540Y-110596680D01*
X135892540Y-110490000D01*
X135892540Y-110482380D01*
X135892540Y-110380780D01*
X135895080Y-110302040D01*
X135897620Y-110248700D01*
X135900160Y-110228380D01*
X135923020Y-110220760D01*
X135978900Y-110210600D01*
X136052560Y-110195360D01*
X136144000Y-110177580D01*
X136149080Y-110177580D01*
X136240520Y-110159800D01*
X136314180Y-110144560D01*
X136367520Y-110131860D01*
X136390380Y-110124240D01*
X136395460Y-110119160D01*
X136413240Y-110083600D01*
X136438640Y-110027720D01*
X136469120Y-109959140D01*
X136497060Y-109888020D01*
X136525000Y-109824520D01*
X136540240Y-109778800D01*
X136545320Y-109755940D01*
X136532620Y-109733080D01*
X136502140Y-109687360D01*
X136456420Y-109621320D01*
X136405620Y-109545120D01*
X136400540Y-109540040D01*
X136349740Y-109463840D01*
X136306560Y-109400340D01*
X136278620Y-109354620D01*
X136268460Y-109331760D01*
X136286240Y-109308900D01*
X136324340Y-109265720D01*
X136380220Y-109207300D01*
X136446260Y-109141260D01*
X136469120Y-109118400D01*
X136542780Y-109047280D01*
X136593580Y-108999020D01*
X136626600Y-108973620D01*
X136641840Y-108968540D01*
X136664700Y-108983780D01*
X136712960Y-109014260D01*
X136779000Y-109059980D01*
X136855200Y-109110780D01*
X136860280Y-109115860D01*
X136936480Y-109166660D01*
X136999980Y-109209840D01*
X137045700Y-109240320D01*
X137066020Y-109250480D01*
X137068560Y-109250480D01*
X137099040Y-109242860D01*
X137152380Y-109222540D01*
X137220960Y-109197140D01*
X137289540Y-109169200D01*
X137355580Y-109141260D01*
X137403840Y-109120940D01*
X137424160Y-109108240D01*
X137426700Y-109105700D01*
X137434320Y-109077760D01*
X137447020Y-109021880D01*
X137462260Y-108943140D01*
X137480040Y-108849160D01*
X137482580Y-108836460D01*
X137500360Y-108745020D01*
X137515600Y-108668820D01*
X137525760Y-108618020D01*
X137530840Y-108597700D01*
X137543540Y-108592620D01*
X137589260Y-108590080D01*
X137655300Y-108587540D01*
X137739120Y-108587540D01*
X137822940Y-108587540D01*
X137906760Y-108590080D01*
X137977880Y-108592620D01*
X138031220Y-108595160D01*
X138051540Y-108600240D01*
X138061700Y-108630720D01*
X138071860Y-108686600D01*
X138089640Y-108765340D01*
X138107420Y-108859320D01*
X138109960Y-108874560D01*
X138127740Y-108966000D01*
X138142980Y-109039660D01*
X138153140Y-109090460D01*
X138158220Y-109110780D01*
X138168380Y-109115860D01*
X138203940Y-109131100D01*
X138264900Y-109156500D01*
X138341100Y-109186980D01*
X138516360Y-109258100D01*
X138729720Y-109110780D01*
X138747500Y-109098080D01*
X138826240Y-109047280D01*
X138889740Y-109004100D01*
X138932920Y-108976160D01*
X138950700Y-108966000D01*
X138953240Y-108966000D01*
X138973560Y-108983780D01*
X139016740Y-109024420D01*
X139072620Y-109080300D01*
X139141200Y-109148880D01*
X139192000Y-109197140D01*
X139250420Y-109258100D01*
X139285980Y-109298740D01*
X139306300Y-109324140D01*
X139313920Y-109339380D01*
X139313920Y-109349540D01*
X139298680Y-109372400D01*
X139268200Y-109418120D01*
X139222480Y-109484160D01*
X139171680Y-109560360D01*
X139128500Y-109621320D01*
X139082780Y-109694980D01*
X139052300Y-109745780D01*
X139042140Y-109771180D01*
X139044680Y-109781340D01*
X139059920Y-109821980D01*
X139085320Y-109885480D01*
X139115800Y-109961680D01*
X139192000Y-110131860D01*
X139301220Y-110152180D01*
X139369800Y-110164880D01*
X139463780Y-110182660D01*
X139552680Y-110200440D01*
X139694920Y-110228380D01*
X139700000Y-110741460D01*
X139677140Y-110751620D01*
X139656820Y-110756700D01*
X139603480Y-110769400D01*
X139529820Y-110784640D01*
X139443460Y-110799880D01*
X139367260Y-110815120D01*
X139293600Y-110827820D01*
X139237720Y-110837980D01*
X139214860Y-110843060D01*
X139207240Y-110850680D01*
X139189460Y-110888780D01*
X139164060Y-110947200D01*
X139133580Y-111015780D01*
X139103100Y-111089440D01*
X139075160Y-111155480D01*
X139057380Y-111206280D01*
X139049760Y-111231680D01*
X139062460Y-111252000D01*
X139090400Y-111295180D01*
X139131040Y-111358680D01*
X139181840Y-111434880D01*
X139232640Y-111508540D01*
X139275820Y-111572040D01*
X139306300Y-111617760D01*
X139319000Y-111640620D01*
X139313920Y-111653320D01*
X139283440Y-111688880D01*
X139227560Y-111749840D01*
X139143740Y-111831120D01*
X139128500Y-111843820D01*
X139062460Y-111909860D01*
X139006580Y-111960660D01*
X138965940Y-111996220D01*
X138948160Y-112008920D01*
X138948160Y-112008920D01*
G37*
X138948160Y-112008920D02*
X138927840Y-111998760D01*
X138884660Y-111970820D01*
X138821160Y-111927640D01*
X138744960Y-111879380D01*
X138671300Y-111826040D01*
X138607800Y-111785400D01*
X138564620Y-111757460D01*
X138546840Y-111747300D01*
X138536680Y-111752380D01*
X138501120Y-111767620D01*
X138447780Y-111795560D01*
X138419840Y-111810800D01*
X138371580Y-111831120D01*
X138346180Y-111836200D01*
X138343640Y-111828580D01*
X138325860Y-111793020D01*
X138297920Y-111729520D01*
X138262360Y-111648240D01*
X138221720Y-111551720D01*
X138176000Y-111447580D01*
X138132820Y-111340900D01*
X138089640Y-111239300D01*
X138054080Y-111147860D01*
X138023600Y-111074200D01*
X138003280Y-111023400D01*
X137995660Y-111000540D01*
X137998200Y-110995460D01*
X138023600Y-110972600D01*
X138064240Y-110942120D01*
X138153140Y-110868460D01*
X138244580Y-110756700D01*
X138297920Y-110629700D01*
X138315700Y-110490000D01*
X138300460Y-110363000D01*
X138249660Y-110236000D01*
X138163300Y-110124240D01*
X138056620Y-110040420D01*
X137932160Y-109989620D01*
X137795000Y-109971840D01*
X137662920Y-109987080D01*
X137535920Y-110037880D01*
X137424160Y-110121700D01*
X137375900Y-110177580D01*
X137309860Y-110291880D01*
X137274300Y-110413800D01*
X137269220Y-110444280D01*
X137274300Y-110576360D01*
X137314940Y-110703360D01*
X137386060Y-110817660D01*
X137482580Y-110911640D01*
X137495280Y-110921800D01*
X137541000Y-110954820D01*
X137571480Y-110980220D01*
X137594340Y-110998000D01*
X137424160Y-111409480D01*
X137396220Y-111472980D01*
X137350500Y-111584740D01*
X137309860Y-111681260D01*
X137276840Y-111760000D01*
X137253980Y-111810800D01*
X137243820Y-111831120D01*
X137243820Y-111833660D01*
X137228580Y-111836200D01*
X137195560Y-111823500D01*
X137139680Y-111795560D01*
X137101580Y-111777780D01*
X137058400Y-111754920D01*
X137038080Y-111747300D01*
X137022840Y-111757460D01*
X136979660Y-111782860D01*
X136918700Y-111823500D01*
X136845040Y-111874300D01*
X136776460Y-111922560D01*
X136710420Y-111965740D01*
X136664700Y-111993680D01*
X136641840Y-112006380D01*
X136639300Y-112006380D01*
X136618980Y-111996220D01*
X136580880Y-111965740D01*
X136525000Y-111912400D01*
X136446260Y-111833660D01*
X136433560Y-111820960D01*
X136370060Y-111754920D01*
X136316720Y-111699040D01*
X136281160Y-111660940D01*
X136268460Y-111643160D01*
X136281160Y-111620300D01*
X136309100Y-111574580D01*
X136352280Y-111508540D01*
X136403080Y-111432340D01*
X136540240Y-111234220D01*
X136466580Y-111048800D01*
X136443720Y-110992920D01*
X136413240Y-110921800D01*
X136392920Y-110873540D01*
X136380220Y-110850680D01*
X136359900Y-110845600D01*
X136309100Y-110832900D01*
X136235440Y-110817660D01*
X136146540Y-110799880D01*
X136062720Y-110784640D01*
X135986520Y-110771940D01*
X135933180Y-110759240D01*
X135907780Y-110754160D01*
X135902700Y-110751620D01*
X135897620Y-110738920D01*
X135895080Y-110713520D01*
X135892540Y-110667800D01*
X135892540Y-110596680D01*
X135892540Y-110490000D01*
X135892540Y-110482380D01*
X135892540Y-110380780D01*
X135895080Y-110302040D01*
X135897620Y-110248700D01*
X135900160Y-110228380D01*
X135923020Y-110220760D01*
X135978900Y-110210600D01*
X136052560Y-110195360D01*
X136144000Y-110177580D01*
X136149080Y-110177580D01*
X136240520Y-110159800D01*
X136314180Y-110144560D01*
X136367520Y-110131860D01*
X136390380Y-110124240D01*
X136395460Y-110119160D01*
X136413240Y-110083600D01*
X136438640Y-110027720D01*
X136469120Y-109959140D01*
X136497060Y-109888020D01*
X136525000Y-109824520D01*
X136540240Y-109778800D01*
X136545320Y-109755940D01*
X136532620Y-109733080D01*
X136502140Y-109687360D01*
X136456420Y-109621320D01*
X136405620Y-109545120D01*
X136400540Y-109540040D01*
X136349740Y-109463840D01*
X136306560Y-109400340D01*
X136278620Y-109354620D01*
X136268460Y-109331760D01*
X136286240Y-109308900D01*
X136324340Y-109265720D01*
X136380220Y-109207300D01*
X136446260Y-109141260D01*
X136469120Y-109118400D01*
X136542780Y-109047280D01*
X136593580Y-108999020D01*
X136626600Y-108973620D01*
X136641840Y-108968540D01*
X136664700Y-108983780D01*
X136712960Y-109014260D01*
X136779000Y-109059980D01*
X136855200Y-109110780D01*
X136860280Y-109115860D01*
X136936480Y-109166660D01*
X136999980Y-109209840D01*
X137045700Y-109240320D01*
X137066020Y-109250480D01*
X137068560Y-109250480D01*
X137099040Y-109242860D01*
X137152380Y-109222540D01*
X137220960Y-109197140D01*
X137289540Y-109169200D01*
X137355580Y-109141260D01*
X137403840Y-109120940D01*
X137424160Y-109108240D01*
X137426700Y-109105700D01*
X137434320Y-109077760D01*
X137447020Y-109021880D01*
X137462260Y-108943140D01*
X137480040Y-108849160D01*
X137482580Y-108836460D01*
X137500360Y-108745020D01*
X137515600Y-108668820D01*
X137525760Y-108618020D01*
X137530840Y-108597700D01*
X137543540Y-108592620D01*
X137589260Y-108590080D01*
X137655300Y-108587540D01*
X137739120Y-108587540D01*
X137822940Y-108587540D01*
X137906760Y-108590080D01*
X137977880Y-108592620D01*
X138031220Y-108595160D01*
X138051540Y-108600240D01*
X138061700Y-108630720D01*
X138071860Y-108686600D01*
X138089640Y-108765340D01*
X138107420Y-108859320D01*
X138109960Y-108874560D01*
X138127740Y-108966000D01*
X138142980Y-109039660D01*
X138153140Y-109090460D01*
X138158220Y-109110780D01*
X138168380Y-109115860D01*
X138203940Y-109131100D01*
X138264900Y-109156500D01*
X138341100Y-109186980D01*
X138516360Y-109258100D01*
X138729720Y-109110780D01*
X138747500Y-109098080D01*
X138826240Y-109047280D01*
X138889740Y-109004100D01*
X138932920Y-108976160D01*
X138950700Y-108966000D01*
X138953240Y-108966000D01*
X138973560Y-108983780D01*
X139016740Y-109024420D01*
X139072620Y-109080300D01*
X139141200Y-109148880D01*
X139192000Y-109197140D01*
X139250420Y-109258100D01*
X139285980Y-109298740D01*
X139306300Y-109324140D01*
X139313920Y-109339380D01*
X139313920Y-109349540D01*
X139298680Y-109372400D01*
X139268200Y-109418120D01*
X139222480Y-109484160D01*
X139171680Y-109560360D01*
X139128500Y-109621320D01*
X139082780Y-109694980D01*
X139052300Y-109745780D01*
X139042140Y-109771180D01*
X139044680Y-109781340D01*
X139059920Y-109821980D01*
X139085320Y-109885480D01*
X139115800Y-109961680D01*
X139192000Y-110131860D01*
X139301220Y-110152180D01*
X139369800Y-110164880D01*
X139463780Y-110182660D01*
X139552680Y-110200440D01*
X139694920Y-110228380D01*
X139700000Y-110741460D01*
X139677140Y-110751620D01*
X139656820Y-110756700D01*
X139603480Y-110769400D01*
X139529820Y-110784640D01*
X139443460Y-110799880D01*
X139367260Y-110815120D01*
X139293600Y-110827820D01*
X139237720Y-110837980D01*
X139214860Y-110843060D01*
X139207240Y-110850680D01*
X139189460Y-110888780D01*
X139164060Y-110947200D01*
X139133580Y-111015780D01*
X139103100Y-111089440D01*
X139075160Y-111155480D01*
X139057380Y-111206280D01*
X139049760Y-111231680D01*
X139062460Y-111252000D01*
X139090400Y-111295180D01*
X139131040Y-111358680D01*
X139181840Y-111434880D01*
X139232640Y-111508540D01*
X139275820Y-111572040D01*
X139306300Y-111617760D01*
X139319000Y-111640620D01*
X139313920Y-111653320D01*
X139283440Y-111688880D01*
X139227560Y-111749840D01*
X139143740Y-111831120D01*
X139128500Y-111843820D01*
X139062460Y-111909860D01*
X139006580Y-111960660D01*
X138965940Y-111996220D01*
X138948160Y-112008920D01*
D13*
G36*
X140885417Y-113736197D02*
X140891952Y-113783663D01*
X140909692Y-113830153D01*
X140937575Y-113870163D01*
X140953521Y-113884883D01*
X140965724Y-113892681D01*
X140981982Y-113898614D01*
X141005647Y-113903132D01*
X141040067Y-113906685D01*
X141088591Y-113909724D01*
X141154568Y-113912699D01*
X141162837Y-113913033D01*
X141228783Y-113915885D01*
X141309718Y-113919701D01*
X141399507Y-113924174D01*
X141492011Y-113928994D01*
X141581092Y-113933855D01*
X141610292Y-113935506D01*
X141683426Y-113939661D01*
X141749837Y-113943384D01*
X141806511Y-113946511D01*
X141850437Y-113948876D01*
X141878602Y-113950316D01*
X141887703Y-113950690D01*
X141900540Y-113957151D01*
X141925669Y-113974646D01*
X141959324Y-114000417D01*
X141993536Y-114028194D01*
X142024928Y-114054903D01*
X142065680Y-114090424D01*
X142113372Y-114132565D01*
X142165584Y-114179133D01*
X142219895Y-114227936D01*
X142273886Y-114276782D01*
X142325136Y-114323477D01*
X142371226Y-114365830D01*
X142409735Y-114401647D01*
X142438243Y-114428737D01*
X142454331Y-114444906D01*
X142456795Y-114447901D01*
X142449264Y-114451348D01*
X142423033Y-114453164D01*
X142380511Y-114453291D01*
X142324108Y-114451670D01*
X142316517Y-114451355D01*
X142243715Y-114449211D01*
X142187906Y-114450343D01*
X142145068Y-114455492D01*
X142111181Y-114465397D01*
X142082221Y-114480800D01*
X142058309Y-114498909D01*
X142024465Y-114536804D01*
X142000514Y-114582329D01*
X141988330Y-114629593D01*
X141989785Y-114672700D01*
X141996898Y-114692169D01*
X142004808Y-114704849D01*
X142015043Y-114715193D01*
X142029746Y-114723487D01*
X142051055Y-114730014D01*
X142081114Y-114735059D01*
X142122063Y-114738905D01*
X142176044Y-114741837D01*
X142245198Y-114744139D01*
X142331665Y-114746094D01*
X142414625Y-114747599D01*
X142499671Y-114749341D01*
X142578847Y-114751507D01*
X142649431Y-114753981D01*
X142708700Y-114756647D01*
X142753932Y-114759388D01*
X142782404Y-114762087D01*
X142790433Y-114763684D01*
X142807067Y-114774632D01*
X142836191Y-114798715D01*
X142875616Y-114833821D01*
X142923153Y-114877834D01*
X142976613Y-114928641D01*
X143033807Y-114984128D01*
X143092545Y-115042181D01*
X143150638Y-115100685D01*
X143205898Y-115157528D01*
X143256136Y-115210595D01*
X143279653Y-115236112D01*
X143364443Y-115331806D01*
X143434066Y-115416343D01*
X143490006Y-115491634D01*
X143533748Y-115559590D01*
X143541462Y-115572999D01*
X143575118Y-115622698D01*
X143609992Y-115652305D01*
X143648434Y-115662866D01*
X143692793Y-115655424D01*
X143711008Y-115648390D01*
X143764713Y-115615502D01*
X143805817Y-115567627D01*
X143819095Y-115544358D01*
X143832717Y-115505276D01*
X143834155Y-115462614D01*
X143822675Y-115414337D01*
X143797543Y-115358405D01*
X143758023Y-115292780D01*
X143703382Y-115215426D01*
X143697807Y-115207966D01*
X143667438Y-115167836D01*
X143640505Y-115133350D01*
X143613861Y-115100828D01*
X143584356Y-115066593D01*
X143548841Y-115026964D01*
X143504168Y-114978265D01*
X143465000Y-114935987D01*
X143392216Y-114857599D01*
X143430042Y-114844595D01*
X143468522Y-114828051D01*
X143492097Y-114807227D01*
X143506932Y-114775844D01*
X143510925Y-114762232D01*
X143517273Y-114713310D01*
X143512575Y-114662615D01*
X143498529Y-114615699D01*
X143476833Y-114578116D01*
X143449186Y-114555418D01*
X143447467Y-114554688D01*
X143428360Y-114549549D01*
X143392202Y-114542066D01*
X143342895Y-114532901D01*
X143284341Y-114522715D01*
X143220441Y-114512169D01*
X143155096Y-114501925D01*
X143092209Y-114492644D01*
X143038019Y-114485286D01*
X143021789Y-114482725D01*
X143006450Y-114478460D01*
X142989887Y-114470939D01*
X142969985Y-114458612D01*
X142944628Y-114439927D01*
X142911703Y-114413333D01*
X142869093Y-114377277D01*
X142814684Y-114330210D01*
X142751895Y-114275417D01*
X142690027Y-114221370D01*
X142631062Y-114169921D01*
X142577538Y-114123280D01*
X142531994Y-114083657D01*
X142496966Y-114053262D01*
X142474994Y-114034304D01*
X142473201Y-114032770D01*
X142450420Y-114011787D01*
X142438263Y-113997402D01*
X142438578Y-113993083D01*
X142452392Y-113994155D01*
X142483789Y-113997140D01*
X142529308Y-114001692D01*
X142585485Y-114007464D01*
X142648859Y-114014110D01*
X142653510Y-114014602D01*
X142735385Y-114024018D01*
X142800267Y-114033061D01*
X142846915Y-114041528D01*
X142874090Y-114049215D01*
X142878716Y-114051644D01*
X142902524Y-114060444D01*
X142938711Y-114065829D01*
X142978686Y-114067283D01*
X143013861Y-114064293D01*
X143027985Y-114060592D01*
X143050329Y-114041560D01*
X143066086Y-114007502D01*
X143074631Y-113963703D01*
X143075338Y-113915449D01*
X143067581Y-113868022D01*
X143054781Y-113834066D01*
X143035726Y-113803992D01*
X143014476Y-113780463D01*
X143008926Y-113776222D01*
X142986379Y-113767668D01*
X142944533Y-113758219D01*
X142885229Y-113748047D01*
X142810309Y-113737325D01*
X142721615Y-113726225D01*
X142620986Y-113714920D01*
X142510265Y-113703582D01*
X142391293Y-113692383D01*
X142265911Y-113681496D01*
X142135959Y-113671094D01*
X142003280Y-113661348D01*
X141869715Y-113652431D01*
X141737104Y-113644516D01*
X141607289Y-113637774D01*
X141482111Y-113632379D01*
X141466556Y-113631796D01*
X141340856Y-113627653D01*
X141234680Y-113625289D01*
X141146455Y-113624786D01*
X141074605Y-113626224D01*
X141017557Y-113629683D01*
X140973736Y-113635246D01*
X140941569Y-113642991D01*
X140919482Y-113653001D01*
X140910204Y-113660333D01*
X140891147Y-113693253D01*
X140885417Y-113736197D01*
X140885417Y-113736197D01*
G37*
X140885417Y-113736197D02*
X140891952Y-113783663D01*
X140909692Y-113830153D01*
X140937575Y-113870163D01*
X140953521Y-113884883D01*
X140965724Y-113892681D01*
X140981982Y-113898614D01*
X141005647Y-113903132D01*
X141040067Y-113906685D01*
X141088591Y-113909724D01*
X141154568Y-113912699D01*
X141162837Y-113913033D01*
X141228783Y-113915885D01*
X141309718Y-113919701D01*
X141399507Y-113924174D01*
X141492011Y-113928994D01*
X141581092Y-113933855D01*
X141610292Y-113935506D01*
X141683426Y-113939661D01*
X141749837Y-113943384D01*
X141806511Y-113946511D01*
X141850437Y-113948876D01*
X141878602Y-113950316D01*
X141887703Y-113950690D01*
X141900540Y-113957151D01*
X141925669Y-113974646D01*
X141959324Y-114000417D01*
X141993536Y-114028194D01*
X142024928Y-114054903D01*
X142065680Y-114090424D01*
X142113372Y-114132565D01*
X142165584Y-114179133D01*
X142219895Y-114227936D01*
X142273886Y-114276782D01*
X142325136Y-114323477D01*
X142371226Y-114365830D01*
X142409735Y-114401647D01*
X142438243Y-114428737D01*
X142454331Y-114444906D01*
X142456795Y-114447901D01*
X142449264Y-114451348D01*
X142423033Y-114453164D01*
X142380511Y-114453291D01*
X142324108Y-114451670D01*
X142316517Y-114451355D01*
X142243715Y-114449211D01*
X142187906Y-114450343D01*
X142145068Y-114455492D01*
X142111181Y-114465397D01*
X142082221Y-114480800D01*
X142058309Y-114498909D01*
X142024465Y-114536804D01*
X142000514Y-114582329D01*
X141988330Y-114629593D01*
X141989785Y-114672700D01*
X141996898Y-114692169D01*
X142004808Y-114704849D01*
X142015043Y-114715193D01*
X142029746Y-114723487D01*
X142051055Y-114730014D01*
X142081114Y-114735059D01*
X142122063Y-114738905D01*
X142176044Y-114741837D01*
X142245198Y-114744139D01*
X142331665Y-114746094D01*
X142414625Y-114747599D01*
X142499671Y-114749341D01*
X142578847Y-114751507D01*
X142649431Y-114753981D01*
X142708700Y-114756647D01*
X142753932Y-114759388D01*
X142782404Y-114762087D01*
X142790433Y-114763684D01*
X142807067Y-114774632D01*
X142836191Y-114798715D01*
X142875616Y-114833821D01*
X142923153Y-114877834D01*
X142976613Y-114928641D01*
X143033807Y-114984128D01*
X143092545Y-115042181D01*
X143150638Y-115100685D01*
X143205898Y-115157528D01*
X143256136Y-115210595D01*
X143279653Y-115236112D01*
X143364443Y-115331806D01*
X143434066Y-115416343D01*
X143490006Y-115491634D01*
X143533748Y-115559590D01*
X143541462Y-115572999D01*
X143575118Y-115622698D01*
X143609992Y-115652305D01*
X143648434Y-115662866D01*
X143692793Y-115655424D01*
X143711008Y-115648390D01*
X143764713Y-115615502D01*
X143805817Y-115567627D01*
X143819095Y-115544358D01*
X143832717Y-115505276D01*
X143834155Y-115462614D01*
X143822675Y-115414337D01*
X143797543Y-115358405D01*
X143758023Y-115292780D01*
X143703382Y-115215426D01*
X143697807Y-115207966D01*
X143667438Y-115167836D01*
X143640505Y-115133350D01*
X143613861Y-115100828D01*
X143584356Y-115066593D01*
X143548841Y-115026964D01*
X143504168Y-114978265D01*
X143465000Y-114935987D01*
X143392216Y-114857599D01*
X143430042Y-114844595D01*
X143468522Y-114828051D01*
X143492097Y-114807227D01*
X143506932Y-114775844D01*
X143510925Y-114762232D01*
X143517273Y-114713310D01*
X143512575Y-114662615D01*
X143498529Y-114615699D01*
X143476833Y-114578116D01*
X143449186Y-114555418D01*
X143447467Y-114554688D01*
X143428360Y-114549549D01*
X143392202Y-114542066D01*
X143342895Y-114532901D01*
X143284341Y-114522715D01*
X143220441Y-114512169D01*
X143155096Y-114501925D01*
X143092209Y-114492644D01*
X143038019Y-114485286D01*
X143021789Y-114482725D01*
X143006450Y-114478460D01*
X142989887Y-114470939D01*
X142969985Y-114458612D01*
X142944628Y-114439927D01*
X142911703Y-114413333D01*
X142869093Y-114377277D01*
X142814684Y-114330210D01*
X142751895Y-114275417D01*
X142690027Y-114221370D01*
X142631062Y-114169921D01*
X142577538Y-114123280D01*
X142531994Y-114083657D01*
X142496966Y-114053262D01*
X142474994Y-114034304D01*
X142473201Y-114032770D01*
X142450420Y-114011787D01*
X142438263Y-113997402D01*
X142438578Y-113993083D01*
X142452392Y-113994155D01*
X142483789Y-113997140D01*
X142529308Y-114001692D01*
X142585485Y-114007464D01*
X142648859Y-114014110D01*
X142653510Y-114014602D01*
X142735385Y-114024018D01*
X142800267Y-114033061D01*
X142846915Y-114041528D01*
X142874090Y-114049215D01*
X142878716Y-114051644D01*
X142902524Y-114060444D01*
X142938711Y-114065829D01*
X142978686Y-114067283D01*
X143013861Y-114064293D01*
X143027985Y-114060592D01*
X143050329Y-114041560D01*
X143066086Y-114007502D01*
X143074631Y-113963703D01*
X143075338Y-113915449D01*
X143067581Y-113868022D01*
X143054781Y-113834066D01*
X143035726Y-113803992D01*
X143014476Y-113780463D01*
X143008926Y-113776222D01*
X142986379Y-113767668D01*
X142944533Y-113758219D01*
X142885229Y-113748047D01*
X142810309Y-113737325D01*
X142721615Y-113726225D01*
X142620986Y-113714920D01*
X142510265Y-113703582D01*
X142391293Y-113692383D01*
X142265911Y-113681496D01*
X142135959Y-113671094D01*
X142003280Y-113661348D01*
X141869715Y-113652431D01*
X141737104Y-113644516D01*
X141607289Y-113637774D01*
X141482111Y-113632379D01*
X141466556Y-113631796D01*
X141340856Y-113627653D01*
X141234680Y-113625289D01*
X141146455Y-113624786D01*
X141074605Y-113626224D01*
X141017557Y-113629683D01*
X140973736Y-113635246D01*
X140941569Y-113642991D01*
X140919482Y-113653001D01*
X140910204Y-113660333D01*
X140891147Y-113693253D01*
X140885417Y-113736197D01*
G36*
X143308960Y-114092121D02*
X143312227Y-114155202D01*
X143324312Y-114209555D01*
X143329516Y-114222639D01*
X143367324Y-114282955D01*
X143425202Y-114342696D01*
X143502052Y-114401158D01*
X143590293Y-114453771D01*
X143590293Y-114070252D01*
X143616292Y-114055850D01*
X143650345Y-114044708D01*
X143702147Y-114038030D01*
X143768777Y-114035720D01*
X143847317Y-114037680D01*
X143934846Y-114043813D01*
X144028444Y-114054022D01*
X144125190Y-114068209D01*
X144158230Y-114073912D01*
X144202329Y-114082135D01*
X144229600Y-114088805D01*
X144244082Y-114095922D01*
X144249814Y-114105484D01*
X144250834Y-114119490D01*
X144250834Y-114119755D01*
X144252774Y-114137582D01*
X144259956Y-114155722D01*
X144274426Y-114176499D01*
X144298227Y-114202234D01*
X144333403Y-114235249D01*
X144381999Y-114277866D01*
X144414482Y-114305640D01*
X144456840Y-114341864D01*
X144492820Y-114373014D01*
X144519635Y-114396649D01*
X144534501Y-114410325D01*
X144536584Y-114412685D01*
X144530407Y-114413744D01*
X144510857Y-114410877D01*
X144476404Y-114403754D01*
X144425517Y-114392045D01*
X144356667Y-114375418D01*
X144303750Y-114362362D01*
X144176707Y-114328706D01*
X144056312Y-114292658D01*
X143944873Y-114255107D01*
X143844696Y-114216943D01*
X143758087Y-114179056D01*
X143687352Y-114142336D01*
X143634797Y-114107672D01*
X143626876Y-114101238D01*
X143590293Y-114070252D01*
X143590293Y-114453771D01*
X143596776Y-114457637D01*
X143708279Y-114511431D01*
X143835463Y-114561836D01*
X143885709Y-114579295D01*
X143925992Y-114592814D01*
X143959048Y-114603922D01*
X143979346Y-114610759D01*
X143982255Y-114611746D01*
X143984286Y-114622902D01*
X143975546Y-114649740D01*
X143958442Y-114686715D01*
X143938719Y-114729147D01*
X143927868Y-114763995D01*
X143923405Y-114801537D01*
X143922750Y-114834310D01*
X143928041Y-114897670D01*
X143945015Y-114957742D01*
X143975326Y-115017613D01*
X144020626Y-115080371D01*
X144082571Y-115149105D01*
X144101604Y-115168333D01*
X144211179Y-115265220D01*
X144229667Y-115278488D01*
X144229667Y-114815598D01*
X144239693Y-114797899D01*
X144267583Y-114781788D01*
X144310052Y-114767936D01*
X144363818Y-114757017D01*
X144425597Y-114749702D01*
X144492106Y-114746665D01*
X144557750Y-114748422D01*
X144712656Y-114765533D01*
X144870084Y-114796031D01*
X144897600Y-114802754D01*
X144931876Y-114812611D01*
X144959935Y-114824665D01*
X144987424Y-114842388D01*
X145019986Y-114869248D01*
X145049965Y-114896400D01*
X145132356Y-114972379D01*
X145114928Y-115006080D01*
X145100565Y-115050095D01*
X145098232Y-115097597D01*
X145107704Y-115140433D01*
X145119235Y-115160859D01*
X145144246Y-115181934D01*
X145178297Y-115198411D01*
X145185381Y-115200588D01*
X145247784Y-115218380D01*
X145294266Y-115233822D01*
X145329640Y-115248826D01*
X145358719Y-115265303D01*
X145372887Y-115275042D01*
X145396449Y-115294242D01*
X145409307Y-115309024D01*
X145409957Y-115314133D01*
X145392775Y-115323034D01*
X145361898Y-115332459D01*
X145324675Y-115340645D01*
X145288454Y-115345826D01*
X145274325Y-115346710D01*
X145243891Y-115345034D01*
X145201655Y-115339644D01*
X145156419Y-115331679D01*
X145153550Y-115331093D01*
X145052537Y-115304968D01*
X144940574Y-115266812D01*
X144822453Y-115218740D01*
X144702969Y-115162865D01*
X144586916Y-115101304D01*
X144479088Y-115036171D01*
X144466781Y-115028117D01*
X144413087Y-114990697D01*
X144361359Y-114951108D01*
X144314461Y-114911917D01*
X144275255Y-114875692D01*
X144246607Y-114844997D01*
X144231378Y-114822401D01*
X144229667Y-114815598D01*
X144229667Y-115278488D01*
X144337978Y-115356223D01*
X144478453Y-115439544D01*
X144629061Y-115513384D01*
X144786254Y-115575944D01*
X144946488Y-115625426D01*
X145050588Y-115649724D01*
X145131828Y-115663282D01*
X145214281Y-115671861D01*
X145293110Y-115675322D01*
X145363480Y-115673525D01*
X145420554Y-115666330D01*
X145441459Y-115661029D01*
X145499611Y-115638523D01*
X145554564Y-115607443D01*
X145597958Y-115576460D01*
X145646151Y-115539674D01*
X145686680Y-115560819D01*
X145738870Y-115577497D01*
X145790457Y-115575470D01*
X145837995Y-115557007D01*
X145878041Y-115524378D01*
X145907151Y-115479853D01*
X145921880Y-115425702D01*
X145923000Y-115405082D01*
X145920909Y-115366767D01*
X145915596Y-115332660D01*
X145912068Y-115320373D01*
X145897033Y-115293891D01*
X145867851Y-115254705D01*
X145826037Y-115204353D01*
X145773101Y-115144374D01*
X145710557Y-115076305D01*
X145639918Y-115001685D01*
X145562695Y-114922052D01*
X145480401Y-114838943D01*
X145394549Y-114753899D01*
X145306651Y-114668456D01*
X145218220Y-114584152D01*
X145130768Y-114502527D01*
X145045808Y-114425117D01*
X144964851Y-114353463D01*
X144941162Y-114332966D01*
X144906308Y-114302679D01*
X144878834Y-114278212D01*
X144861806Y-114262336D01*
X144857837Y-114257666D01*
X144868825Y-114260910D01*
X144896114Y-114269821D01*
X144935992Y-114283163D01*
X144984751Y-114299704D01*
X145003191Y-114306008D01*
X145115461Y-114346552D01*
X145206862Y-114384125D01*
X145277369Y-114418713D01*
X145326955Y-114450306D01*
X145336974Y-114458514D01*
X145380313Y-114484017D01*
X145427534Y-114491021D01*
X145474355Y-114480560D01*
X145516495Y-114453663D01*
X145549672Y-114411363D01*
X145552157Y-114406670D01*
X145570085Y-114349730D01*
X145568346Y-114291538D01*
X145547752Y-114236191D01*
X145509117Y-114187782D01*
X145508635Y-114187340D01*
X145478276Y-114165331D01*
X145430780Y-114138167D01*
X145369161Y-114107162D01*
X145296436Y-114073632D01*
X145215620Y-114038891D01*
X145129729Y-114004256D01*
X145041778Y-113971040D01*
X144954783Y-113940559D01*
X144907000Y-113924982D01*
X144785990Y-113888865D01*
X144658965Y-113854859D01*
X144528616Y-113823427D01*
X144397633Y-113795035D01*
X144268707Y-113770143D01*
X144144528Y-113749217D01*
X144027787Y-113732719D01*
X143921175Y-113721113D01*
X143827382Y-113714861D01*
X143749099Y-113714428D01*
X143704457Y-113717900D01*
X143604042Y-113738982D01*
X143515321Y-113774289D01*
X143440024Y-113822646D01*
X143379885Y-113882879D01*
X143336637Y-113953815D01*
X143328950Y-113972339D01*
X143314528Y-114028453D01*
X143308960Y-114092121D01*
X143308960Y-114092121D01*
G37*
X143308960Y-114092121D02*
X143312227Y-114155202D01*
X143324312Y-114209555D01*
X143329516Y-114222639D01*
X143367324Y-114282955D01*
X143425202Y-114342696D01*
X143502052Y-114401158D01*
X143590293Y-114453771D01*
X143590293Y-114070252D01*
X143616292Y-114055850D01*
X143650345Y-114044708D01*
X143702147Y-114038030D01*
X143768777Y-114035720D01*
X143847317Y-114037680D01*
X143934846Y-114043813D01*
X144028444Y-114054022D01*
X144125190Y-114068209D01*
X144158230Y-114073912D01*
X144202329Y-114082135D01*
X144229600Y-114088805D01*
X144244082Y-114095922D01*
X144249814Y-114105484D01*
X144250834Y-114119490D01*
X144250834Y-114119755D01*
X144252774Y-114137582D01*
X144259956Y-114155722D01*
X144274426Y-114176499D01*
X144298227Y-114202234D01*
X144333403Y-114235249D01*
X144381999Y-114277866D01*
X144414482Y-114305640D01*
X144456840Y-114341864D01*
X144492820Y-114373014D01*
X144519635Y-114396649D01*
X144534501Y-114410325D01*
X144536584Y-114412685D01*
X144530407Y-114413744D01*
X144510857Y-114410877D01*
X144476404Y-114403754D01*
X144425517Y-114392045D01*
X144356667Y-114375418D01*
X144303750Y-114362362D01*
X144176707Y-114328706D01*
X144056312Y-114292658D01*
X143944873Y-114255107D01*
X143844696Y-114216943D01*
X143758087Y-114179056D01*
X143687352Y-114142336D01*
X143634797Y-114107672D01*
X143626876Y-114101238D01*
X143590293Y-114070252D01*
X143590293Y-114453771D01*
X143596776Y-114457637D01*
X143708279Y-114511431D01*
X143835463Y-114561836D01*
X143885709Y-114579295D01*
X143925992Y-114592814D01*
X143959048Y-114603922D01*
X143979346Y-114610759D01*
X143982255Y-114611746D01*
X143984286Y-114622902D01*
X143975546Y-114649740D01*
X143958442Y-114686715D01*
X143938719Y-114729147D01*
X143927868Y-114763995D01*
X143923405Y-114801537D01*
X143922750Y-114834310D01*
X143928041Y-114897670D01*
X143945015Y-114957742D01*
X143975326Y-115017613D01*
X144020626Y-115080371D01*
X144082571Y-115149105D01*
X144101604Y-115168333D01*
X144211179Y-115265220D01*
X144229667Y-115278488D01*
X144229667Y-114815598D01*
X144239693Y-114797899D01*
X144267583Y-114781788D01*
X144310052Y-114767936D01*
X144363818Y-114757017D01*
X144425597Y-114749702D01*
X144492106Y-114746665D01*
X144557750Y-114748422D01*
X144712656Y-114765533D01*
X144870084Y-114796031D01*
X144897600Y-114802754D01*
X144931876Y-114812611D01*
X144959935Y-114824665D01*
X144987424Y-114842388D01*
X145019986Y-114869248D01*
X145049965Y-114896400D01*
X145132356Y-114972379D01*
X145114928Y-115006080D01*
X145100565Y-115050095D01*
X145098232Y-115097597D01*
X145107704Y-115140433D01*
X145119235Y-115160859D01*
X145144246Y-115181934D01*
X145178297Y-115198411D01*
X145185381Y-115200588D01*
X145247784Y-115218380D01*
X145294266Y-115233822D01*
X145329640Y-115248826D01*
X145358719Y-115265303D01*
X145372887Y-115275042D01*
X145396449Y-115294242D01*
X145409307Y-115309024D01*
X145409957Y-115314133D01*
X145392775Y-115323034D01*
X145361898Y-115332459D01*
X145324675Y-115340645D01*
X145288454Y-115345826D01*
X145274325Y-115346710D01*
X145243891Y-115345034D01*
X145201655Y-115339644D01*
X145156419Y-115331679D01*
X145153550Y-115331093D01*
X145052537Y-115304968D01*
X144940574Y-115266812D01*
X144822453Y-115218740D01*
X144702969Y-115162865D01*
X144586916Y-115101304D01*
X144479088Y-115036171D01*
X144466781Y-115028117D01*
X144413087Y-114990697D01*
X144361359Y-114951108D01*
X144314461Y-114911917D01*
X144275255Y-114875692D01*
X144246607Y-114844997D01*
X144231378Y-114822401D01*
X144229667Y-114815598D01*
X144229667Y-115278488D01*
X144337978Y-115356223D01*
X144478453Y-115439544D01*
X144629061Y-115513384D01*
X144786254Y-115575944D01*
X144946488Y-115625426D01*
X145050588Y-115649724D01*
X145131828Y-115663282D01*
X145214281Y-115671861D01*
X145293110Y-115675322D01*
X145363480Y-115673525D01*
X145420554Y-115666330D01*
X145441459Y-115661029D01*
X145499611Y-115638523D01*
X145554564Y-115607443D01*
X145597958Y-115576460D01*
X145646151Y-115539674D01*
X145686680Y-115560819D01*
X145738870Y-115577497D01*
X145790457Y-115575470D01*
X145837995Y-115557007D01*
X145878041Y-115524378D01*
X145907151Y-115479853D01*
X145921880Y-115425702D01*
X145923000Y-115405082D01*
X145920909Y-115366767D01*
X145915596Y-115332660D01*
X145912068Y-115320373D01*
X145897033Y-115293891D01*
X145867851Y-115254705D01*
X145826037Y-115204353D01*
X145773101Y-115144374D01*
X145710557Y-115076305D01*
X145639918Y-115001685D01*
X145562695Y-114922052D01*
X145480401Y-114838943D01*
X145394549Y-114753899D01*
X145306651Y-114668456D01*
X145218220Y-114584152D01*
X145130768Y-114502527D01*
X145045808Y-114425117D01*
X144964851Y-114353463D01*
X144941162Y-114332966D01*
X144906308Y-114302679D01*
X144878834Y-114278212D01*
X144861806Y-114262336D01*
X144857837Y-114257666D01*
X144868825Y-114260910D01*
X144896114Y-114269821D01*
X144935992Y-114283163D01*
X144984751Y-114299704D01*
X145003191Y-114306008D01*
X145115461Y-114346552D01*
X145206862Y-114384125D01*
X145277369Y-114418713D01*
X145326955Y-114450306D01*
X145336974Y-114458514D01*
X145380313Y-114484017D01*
X145427534Y-114491021D01*
X145474355Y-114480560D01*
X145516495Y-114453663D01*
X145549672Y-114411363D01*
X145552157Y-114406670D01*
X145570085Y-114349730D01*
X145568346Y-114291538D01*
X145547752Y-114236191D01*
X145509117Y-114187782D01*
X145508635Y-114187340D01*
X145478276Y-114165331D01*
X145430780Y-114138167D01*
X145369161Y-114107162D01*
X145296436Y-114073632D01*
X145215620Y-114038891D01*
X145129729Y-114004256D01*
X145041778Y-113971040D01*
X144954783Y-113940559D01*
X144907000Y-113924982D01*
X144785990Y-113888865D01*
X144658965Y-113854859D01*
X144528616Y-113823427D01*
X144397633Y-113795035D01*
X144268707Y-113770143D01*
X144144528Y-113749217D01*
X144027787Y-113732719D01*
X143921175Y-113721113D01*
X143827382Y-113714861D01*
X143749099Y-113714428D01*
X143704457Y-113717900D01*
X143604042Y-113738982D01*
X143515321Y-113774289D01*
X143440024Y-113822646D01*
X143379885Y-113882879D01*
X143336637Y-113953815D01*
X143328950Y-113972339D01*
X143314528Y-114028453D01*
X143308960Y-114092121D01*
G04 #@! TO.C,J1*
D11*
X143885190Y-99028380D02*
X143885190Y-99742666D01*
X143932809Y-99885523D01*
X144028047Y-99980761D01*
X144170904Y-100028380D01*
X144266142Y-100028380D01*
X142885190Y-100028380D02*
X143456619Y-100028380D01*
X143170904Y-100028380D02*
X143170904Y-99028380D01*
X143266142Y-99171238D01*
X143361380Y-99266476D01*
X143456619Y-99314095D01*
G04 #@! TO.C,J2*
X168751380Y-118877809D02*
X169465666Y-118877809D01*
X169608523Y-118830190D01*
X169703761Y-118734952D01*
X169751380Y-118592095D01*
X169751380Y-118496857D01*
X168846619Y-119306380D02*
X168799000Y-119354000D01*
X168751380Y-119449238D01*
X168751380Y-119687333D01*
X168799000Y-119782571D01*
X168846619Y-119830190D01*
X168941857Y-119877809D01*
X169037095Y-119877809D01*
X169179952Y-119830190D01*
X169751380Y-119258761D01*
X169751380Y-119877809D01*
G04 #@! TD*
M02*
