G04 #@! TF.GenerationSoftware,KiCad,Pcbnew,5.0.0-fee4fd1~65~ubuntu17.10.1*
G04 #@! TF.CreationDate,2018-08-22T05:19:58-04:00*
G04 #@! TF.ProjectId,rgb-digit,7267622D64696769742E6B696361645F,A*
G04 #@! TF.SameCoordinates,Original*
G04 #@! TF.FileFunction,Copper,L3,Inr,Signal*
G04 #@! TF.FilePolarity,Positive*
%FSLAX46Y46*%
G04 Gerber Fmt 4.6, Leading zero omitted, Abs format (unit mm)*
G04 Created by KiCad (PCBNEW 5.0.0-fee4fd1~65~ubuntu17.10.1) date Wed Aug 22 05:19:58 2018*
%MOMM*%
%LPD*%
G01*
G04 APERTURE LIST*
G04 #@! TA.AperFunction,ViaPad*
%ADD10C,5.080000*%
G04 #@! TD*
G04 #@! TA.AperFunction,ViaPad*
%ADD11C,1.016000*%
G04 #@! TD*
G04 #@! TA.AperFunction,ViaPad*
%ADD12C,1.270000*%
G04 #@! TD*
G04 #@! TA.AperFunction,ViaPad*
%ADD13C,0.965200*%
G04 #@! TD*
G04 #@! TA.AperFunction,Conductor*
%ADD14C,0.254000*%
G04 #@! TD*
%ADD15C,0.350000*%
G04 APERTURE END LIST*
D10*
G04 #@! TO.N,GND*
G04 #@! TO.C,H2*
X140970000Y-112395000D03*
D11*
X140970000Y-110490000D03*
X139320222Y-111442500D03*
X139320222Y-113347500D03*
X140970000Y-114300000D03*
X142619778Y-113347500D03*
X142619778Y-111442500D03*
G04 #@! TD*
D10*
G04 #@! TO.N,GND*
G04 #@! TO.C,H1*
X140970000Y-97155000D03*
D11*
X140970000Y-95250000D03*
X139320222Y-96202500D03*
X139320222Y-98107500D03*
X140970000Y-99060000D03*
X142619778Y-98107500D03*
X142619778Y-96202500D03*
G04 #@! TD*
D12*
G04 #@! TO.N,+5V*
X137795000Y-100965000D03*
X137795000Y-102235000D03*
X137795000Y-103505000D03*
X136525000Y-102235000D03*
X136525000Y-103505000D03*
X145415000Y-102235000D03*
X144145000Y-100965000D03*
X144145000Y-102235000D03*
X137160000Y-93345000D03*
X135890000Y-93345000D03*
X134620000Y-93345000D03*
X134620000Y-92075000D03*
X135890000Y-92075000D03*
X137160000Y-92075000D03*
X145415000Y-123190000D03*
X146685000Y-121920000D03*
X147955000Y-120650000D03*
X149225000Y-119380000D03*
X150495000Y-118110000D03*
X136525000Y-123190000D03*
X131445000Y-118110000D03*
X132715000Y-119380000D03*
X133985000Y-120650000D03*
X135255000Y-121920000D03*
G04 #@! TO.N,GND*
X136525000Y-107315000D03*
X136525000Y-106045000D03*
X137795000Y-106045000D03*
X137795000Y-107315000D03*
X137795000Y-108585000D03*
X144780000Y-116205000D03*
X146050000Y-116205000D03*
X146050000Y-117475000D03*
X144780000Y-117475000D03*
X135890000Y-117475000D03*
X135890000Y-116205000D03*
X137160000Y-116205000D03*
X137160000Y-117475000D03*
X144780000Y-87630000D03*
X146050000Y-87630000D03*
X146050000Y-86360000D03*
X144780000Y-86360000D03*
X132080000Y-90805000D03*
X130810000Y-90805000D03*
X130810000Y-92075000D03*
X130810000Y-93345000D03*
X149860000Y-90805000D03*
X151130000Y-90805000D03*
X151130000Y-92075000D03*
X151130000Y-93345000D03*
D13*
G04 #@! TO.N,Net-(U1-Pad2)*
X150495000Y-97155000D03*
X144145000Y-92710000D03*
G04 #@! TO.N,/DIN*
X137795000Y-86360000D03*
G04 #@! TO.N,Net-(U2-Pad2)*
X147955000Y-113665000D03*
X151130000Y-104775000D03*
G04 #@! TO.N,Net-(U3-Pad2)*
X151129978Y-106680000D03*
X139700000Y-119380000D03*
G04 #@! TO.N,Net-(U4-Pad2)*
X140970000Y-121920000D03*
X133985000Y-112395000D03*
G04 #@! TO.N,Net-(U5-Pad2)*
X130810000Y-116205000D03*
X130810000Y-106680000D03*
G04 #@! TO.N,Net-(U6-Pad2)*
X135255000Y-97155000D03*
X140970000Y-106045000D03*
G04 #@! TO.N,/DOUT*
X140970000Y-103505000D03*
G04 #@! TD*
D14*
G04 #@! TO.N,+5V*
G36*
X136677594Y-86136720D02*
X136677207Y-86581329D01*
X136846992Y-86992242D01*
X137161104Y-87306903D01*
X137571720Y-87477406D01*
X138016329Y-87477793D01*
X138427242Y-87308008D01*
X138741903Y-86993896D01*
X138912406Y-86583280D01*
X138912793Y-86138671D01*
X138772858Y-85800000D01*
X143637396Y-85800000D01*
X143510221Y-86106273D01*
X143509780Y-86611510D01*
X143668386Y-86995368D01*
X143510221Y-87376273D01*
X143509780Y-87881510D01*
X143702718Y-88348458D01*
X144059663Y-88706026D01*
X144526273Y-88899779D01*
X145031510Y-88900220D01*
X145415368Y-88741614D01*
X145796273Y-88899779D01*
X146301510Y-88900220D01*
X146768458Y-88707282D01*
X147126026Y-88350337D01*
X147319779Y-87883727D01*
X147320220Y-87378490D01*
X147161614Y-86994632D01*
X147319779Y-86613727D01*
X147320220Y-86108490D01*
X147192755Y-85800000D01*
X151690000Y-85800000D01*
X151690000Y-89662396D01*
X151383727Y-89535221D01*
X150878490Y-89534780D01*
X150494632Y-89693386D01*
X150113727Y-89535221D01*
X149608490Y-89534780D01*
X149141542Y-89727718D01*
X148783974Y-90084663D01*
X148590221Y-90551273D01*
X148589780Y-91056510D01*
X148782718Y-91523458D01*
X149139663Y-91881026D01*
X149606273Y-92074779D01*
X149860000Y-92075000D01*
X149859780Y-92326510D01*
X150018386Y-92710368D01*
X149860221Y-93091273D01*
X149859780Y-93596510D01*
X150052718Y-94063458D01*
X150409663Y-94421026D01*
X150876273Y-94614779D01*
X151381510Y-94615220D01*
X151690000Y-94487755D01*
X151690000Y-103797413D01*
X151353280Y-103657594D01*
X150908671Y-103657207D01*
X150497758Y-103826992D01*
X150183097Y-104141104D01*
X150012594Y-104551720D01*
X150012207Y-104996329D01*
X150181992Y-105407242D01*
X150496104Y-105721903D01*
X150509096Y-105727298D01*
X150497736Y-105731992D01*
X150183075Y-106046104D01*
X150012572Y-106456720D01*
X150012185Y-106901329D01*
X150181970Y-107312242D01*
X150496082Y-107626903D01*
X150906698Y-107797406D01*
X151351307Y-107797793D01*
X151690000Y-107657849D01*
X151690000Y-117815908D01*
X145755908Y-123750000D01*
X136184092Y-123750000D01*
X134575421Y-122141329D01*
X139852207Y-122141329D01*
X140021992Y-122552242D01*
X140336104Y-122866903D01*
X140746720Y-123037406D01*
X141191329Y-123037793D01*
X141602242Y-122868008D01*
X141916903Y-122553896D01*
X142087406Y-122143280D01*
X142087793Y-121698671D01*
X141918008Y-121287758D01*
X141603896Y-120973097D01*
X141193280Y-120802594D01*
X140748671Y-120802207D01*
X140337758Y-120971992D01*
X140023097Y-121286104D01*
X139852594Y-121696720D01*
X139852207Y-122141329D01*
X134575421Y-122141329D01*
X132035421Y-119601329D01*
X138582207Y-119601329D01*
X138751992Y-120012242D01*
X139066104Y-120326903D01*
X139476720Y-120497406D01*
X139921329Y-120497793D01*
X140332242Y-120328008D01*
X140646903Y-120013896D01*
X140817406Y-119603280D01*
X140817793Y-119158671D01*
X140648008Y-118747758D01*
X140333896Y-118433097D01*
X139923280Y-118262594D01*
X139478671Y-118262207D01*
X139067758Y-118431992D01*
X138753097Y-118746104D01*
X138582594Y-119156720D01*
X138582207Y-119601329D01*
X132035421Y-119601329D01*
X130250000Y-117815908D01*
X130250000Y-117182587D01*
X130586720Y-117322406D01*
X131031329Y-117322793D01*
X131442242Y-117153008D01*
X131756903Y-116838896D01*
X131915683Y-116456510D01*
X134619780Y-116456510D01*
X134778386Y-116840368D01*
X134620221Y-117221273D01*
X134619780Y-117726510D01*
X134812718Y-118193458D01*
X135169663Y-118551026D01*
X135636273Y-118744779D01*
X136141510Y-118745220D01*
X136525368Y-118586614D01*
X136906273Y-118744779D01*
X137411510Y-118745220D01*
X137878458Y-118552282D01*
X138236026Y-118195337D01*
X138429779Y-117728727D01*
X138430220Y-117223490D01*
X138271614Y-116839632D01*
X138429779Y-116458727D01*
X138429780Y-116456510D01*
X143509780Y-116456510D01*
X143668386Y-116840368D01*
X143510221Y-117221273D01*
X143509780Y-117726510D01*
X143702718Y-118193458D01*
X144059663Y-118551026D01*
X144526273Y-118744779D01*
X145031510Y-118745220D01*
X145415368Y-118586614D01*
X145796273Y-118744779D01*
X146301510Y-118745220D01*
X146768458Y-118552282D01*
X147126026Y-118195337D01*
X147319779Y-117728727D01*
X147320220Y-117223490D01*
X147161614Y-116839632D01*
X147319779Y-116458727D01*
X147320220Y-115953490D01*
X147127282Y-115486542D01*
X146770337Y-115128974D01*
X146303727Y-114935221D01*
X145798490Y-114934780D01*
X145414632Y-115093386D01*
X145033727Y-114935221D01*
X144528490Y-114934780D01*
X144061542Y-115127718D01*
X143703974Y-115484663D01*
X143510221Y-115951273D01*
X143509780Y-116456510D01*
X138429780Y-116456510D01*
X138430220Y-115953490D01*
X138237282Y-115486542D01*
X137880337Y-115128974D01*
X137413727Y-114935221D01*
X136908490Y-114934780D01*
X136524632Y-115093386D01*
X136143727Y-114935221D01*
X135638490Y-114934780D01*
X135171542Y-115127718D01*
X134813974Y-115484663D01*
X134620221Y-115951273D01*
X134619780Y-116456510D01*
X131915683Y-116456510D01*
X131927406Y-116428280D01*
X131927793Y-115983671D01*
X131758008Y-115572758D01*
X131443896Y-115258097D01*
X131033280Y-115087594D01*
X130588671Y-115087207D01*
X130250000Y-115227142D01*
X130250000Y-112616329D01*
X132867207Y-112616329D01*
X133036992Y-113027242D01*
X133351104Y-113341903D01*
X133761720Y-113512406D01*
X134206329Y-113512793D01*
X134617242Y-113343008D01*
X134931903Y-113028896D01*
X135102406Y-112618280D01*
X135102793Y-112173671D01*
X134933008Y-111762758D01*
X134618896Y-111448097D01*
X134208280Y-111277594D01*
X133763671Y-111277207D01*
X133352758Y-111446992D01*
X133038097Y-111761104D01*
X132867594Y-112171720D01*
X132867207Y-112616329D01*
X130250000Y-112616329D01*
X130250000Y-107657587D01*
X130586720Y-107797406D01*
X131031329Y-107797793D01*
X131442242Y-107628008D01*
X131756903Y-107313896D01*
X131927406Y-106903280D01*
X131927793Y-106458671D01*
X131860790Y-106296510D01*
X135254780Y-106296510D01*
X135413386Y-106680368D01*
X135255221Y-107061273D01*
X135254780Y-107566510D01*
X135447718Y-108033458D01*
X135804663Y-108391026D01*
X136271273Y-108584779D01*
X136525000Y-108585000D01*
X136524780Y-108836510D01*
X136717718Y-109303458D01*
X137074663Y-109661026D01*
X137541273Y-109854779D01*
X138046510Y-109855220D01*
X138480927Y-109675723D01*
X137849525Y-110306024D01*
X137287641Y-111659192D01*
X137286362Y-113124380D01*
X137845884Y-114478526D01*
X138881024Y-115515475D01*
X140234192Y-116077359D01*
X141699380Y-116078638D01*
X143053526Y-115519116D01*
X144090475Y-114483976D01*
X144338639Y-113886329D01*
X146837207Y-113886329D01*
X147006992Y-114297242D01*
X147321104Y-114611903D01*
X147731720Y-114782406D01*
X148176329Y-114782793D01*
X148587242Y-114613008D01*
X148901903Y-114298896D01*
X149072406Y-113888280D01*
X149072793Y-113443671D01*
X148903008Y-113032758D01*
X148588896Y-112718097D01*
X148178280Y-112547594D01*
X147733671Y-112547207D01*
X147322758Y-112716992D01*
X147008097Y-113031104D01*
X146837594Y-113441720D01*
X146837207Y-113886329D01*
X144338639Y-113886329D01*
X144652359Y-113130808D01*
X144653638Y-111665620D01*
X144094116Y-110311474D01*
X143058976Y-109274525D01*
X141705808Y-108712641D01*
X140240620Y-108711362D01*
X138886474Y-109270884D01*
X138884524Y-109272831D01*
X139064779Y-108838727D01*
X139065220Y-108333490D01*
X138906614Y-107949632D01*
X139064779Y-107568727D01*
X139065220Y-107063490D01*
X138906614Y-106679632D01*
X139064779Y-106298727D01*
X139064807Y-106266329D01*
X139852207Y-106266329D01*
X140021992Y-106677242D01*
X140336104Y-106991903D01*
X140746720Y-107162406D01*
X141191329Y-107162793D01*
X141602242Y-106993008D01*
X141916903Y-106678896D01*
X142087406Y-106268280D01*
X142087793Y-105823671D01*
X141918008Y-105412758D01*
X141603896Y-105098097D01*
X141193280Y-104927594D01*
X140748671Y-104927207D01*
X140337758Y-105096992D01*
X140023097Y-105411104D01*
X139852594Y-105821720D01*
X139852207Y-106266329D01*
X139064807Y-106266329D01*
X139065220Y-105793490D01*
X138872282Y-105326542D01*
X138515337Y-104968974D01*
X138048727Y-104775221D01*
X137543490Y-104774780D01*
X137159632Y-104933386D01*
X136778727Y-104775221D01*
X136273490Y-104774780D01*
X135806542Y-104967718D01*
X135448974Y-105324663D01*
X135255221Y-105791273D01*
X135254780Y-106296510D01*
X131860790Y-106296510D01*
X131758008Y-106047758D01*
X131443896Y-105733097D01*
X131033280Y-105562594D01*
X130588671Y-105562207D01*
X130250000Y-105702142D01*
X130250000Y-103726329D01*
X139852207Y-103726329D01*
X140021992Y-104137242D01*
X140336104Y-104451903D01*
X140746720Y-104622406D01*
X141191329Y-104622793D01*
X141602242Y-104453008D01*
X141916903Y-104138896D01*
X142087406Y-103728280D01*
X142087793Y-103283671D01*
X141918008Y-102872758D01*
X141603896Y-102558097D01*
X141193280Y-102387594D01*
X140748671Y-102387207D01*
X140337758Y-102556992D01*
X140023097Y-102871104D01*
X139852594Y-103281720D01*
X139852207Y-103726329D01*
X130250000Y-103726329D01*
X130250000Y-97376329D01*
X134137207Y-97376329D01*
X134306992Y-97787242D01*
X134621104Y-98101903D01*
X135031720Y-98272406D01*
X135476329Y-98272793D01*
X135887242Y-98103008D01*
X136106252Y-97884380D01*
X137286362Y-97884380D01*
X137845884Y-99238526D01*
X138881024Y-100275475D01*
X140234192Y-100837359D01*
X141699380Y-100838638D01*
X143053526Y-100279116D01*
X144090475Y-99243976D01*
X144652359Y-97890808D01*
X144652808Y-97376329D01*
X149377207Y-97376329D01*
X149546992Y-97787242D01*
X149861104Y-98101903D01*
X150271720Y-98272406D01*
X150716329Y-98272793D01*
X151127242Y-98103008D01*
X151441903Y-97788896D01*
X151612406Y-97378280D01*
X151612793Y-96933671D01*
X151443008Y-96522758D01*
X151128896Y-96208097D01*
X150718280Y-96037594D01*
X150273671Y-96037207D01*
X149862758Y-96206992D01*
X149548097Y-96521104D01*
X149377594Y-96931720D01*
X149377207Y-97376329D01*
X144652808Y-97376329D01*
X144653638Y-96425620D01*
X144094116Y-95071474D01*
X143058976Y-94034525D01*
X141705808Y-93472641D01*
X140240620Y-93471362D01*
X138886474Y-94030884D01*
X137849525Y-95066024D01*
X137287641Y-96419192D01*
X137286362Y-97884380D01*
X136106252Y-97884380D01*
X136201903Y-97788896D01*
X136372406Y-97378280D01*
X136372793Y-96933671D01*
X136203008Y-96522758D01*
X135888896Y-96208097D01*
X135478280Y-96037594D01*
X135033671Y-96037207D01*
X134622758Y-96206992D01*
X134308097Y-96521104D01*
X134137594Y-96931720D01*
X134137207Y-97376329D01*
X130250000Y-97376329D01*
X130250000Y-94487604D01*
X130556273Y-94614779D01*
X131061510Y-94615220D01*
X131528458Y-94422282D01*
X131886026Y-94065337D01*
X132079779Y-93598727D01*
X132080220Y-93093490D01*
X132013217Y-92931329D01*
X143027207Y-92931329D01*
X143196992Y-93342242D01*
X143511104Y-93656903D01*
X143921720Y-93827406D01*
X144366329Y-93827793D01*
X144777242Y-93658008D01*
X145091903Y-93343896D01*
X145262406Y-92933280D01*
X145262793Y-92488671D01*
X145093008Y-92077758D01*
X144778896Y-91763097D01*
X144368280Y-91592594D01*
X143923671Y-91592207D01*
X143512758Y-91761992D01*
X143198097Y-92076104D01*
X143027594Y-92486720D01*
X143027207Y-92931329D01*
X132013217Y-92931329D01*
X131921614Y-92709632D01*
X132079779Y-92328727D01*
X132080000Y-92075000D01*
X132331510Y-92075220D01*
X132798458Y-91882282D01*
X133156026Y-91525337D01*
X133349779Y-91058727D01*
X133350220Y-90553490D01*
X133157282Y-90086542D01*
X132800337Y-89728974D01*
X132333727Y-89535221D01*
X131828490Y-89534780D01*
X131444632Y-89693386D01*
X131063727Y-89535221D01*
X130558490Y-89534780D01*
X130250000Y-89662245D01*
X130250000Y-85800000D01*
X136817413Y-85800000D01*
X136677594Y-86136720D01*
X136677594Y-86136720D01*
G37*
X136677594Y-86136720D02*
X136677207Y-86581329D01*
X136846992Y-86992242D01*
X137161104Y-87306903D01*
X137571720Y-87477406D01*
X138016329Y-87477793D01*
X138427242Y-87308008D01*
X138741903Y-86993896D01*
X138912406Y-86583280D01*
X138912793Y-86138671D01*
X138772858Y-85800000D01*
X143637396Y-85800000D01*
X143510221Y-86106273D01*
X143509780Y-86611510D01*
X143668386Y-86995368D01*
X143510221Y-87376273D01*
X143509780Y-87881510D01*
X143702718Y-88348458D01*
X144059663Y-88706026D01*
X144526273Y-88899779D01*
X145031510Y-88900220D01*
X145415368Y-88741614D01*
X145796273Y-88899779D01*
X146301510Y-88900220D01*
X146768458Y-88707282D01*
X147126026Y-88350337D01*
X147319779Y-87883727D01*
X147320220Y-87378490D01*
X147161614Y-86994632D01*
X147319779Y-86613727D01*
X147320220Y-86108490D01*
X147192755Y-85800000D01*
X151690000Y-85800000D01*
X151690000Y-89662396D01*
X151383727Y-89535221D01*
X150878490Y-89534780D01*
X150494632Y-89693386D01*
X150113727Y-89535221D01*
X149608490Y-89534780D01*
X149141542Y-89727718D01*
X148783974Y-90084663D01*
X148590221Y-90551273D01*
X148589780Y-91056510D01*
X148782718Y-91523458D01*
X149139663Y-91881026D01*
X149606273Y-92074779D01*
X149860000Y-92075000D01*
X149859780Y-92326510D01*
X150018386Y-92710368D01*
X149860221Y-93091273D01*
X149859780Y-93596510D01*
X150052718Y-94063458D01*
X150409663Y-94421026D01*
X150876273Y-94614779D01*
X151381510Y-94615220D01*
X151690000Y-94487755D01*
X151690000Y-103797413D01*
X151353280Y-103657594D01*
X150908671Y-103657207D01*
X150497758Y-103826992D01*
X150183097Y-104141104D01*
X150012594Y-104551720D01*
X150012207Y-104996329D01*
X150181992Y-105407242D01*
X150496104Y-105721903D01*
X150509096Y-105727298D01*
X150497736Y-105731992D01*
X150183075Y-106046104D01*
X150012572Y-106456720D01*
X150012185Y-106901329D01*
X150181970Y-107312242D01*
X150496082Y-107626903D01*
X150906698Y-107797406D01*
X151351307Y-107797793D01*
X151690000Y-107657849D01*
X151690000Y-117815908D01*
X145755908Y-123750000D01*
X136184092Y-123750000D01*
X134575421Y-122141329D01*
X139852207Y-122141329D01*
X140021992Y-122552242D01*
X140336104Y-122866903D01*
X140746720Y-123037406D01*
X141191329Y-123037793D01*
X141602242Y-122868008D01*
X141916903Y-122553896D01*
X142087406Y-122143280D01*
X142087793Y-121698671D01*
X141918008Y-121287758D01*
X141603896Y-120973097D01*
X141193280Y-120802594D01*
X140748671Y-120802207D01*
X140337758Y-120971992D01*
X140023097Y-121286104D01*
X139852594Y-121696720D01*
X139852207Y-122141329D01*
X134575421Y-122141329D01*
X132035421Y-119601329D01*
X138582207Y-119601329D01*
X138751992Y-120012242D01*
X139066104Y-120326903D01*
X139476720Y-120497406D01*
X139921329Y-120497793D01*
X140332242Y-120328008D01*
X140646903Y-120013896D01*
X140817406Y-119603280D01*
X140817793Y-119158671D01*
X140648008Y-118747758D01*
X140333896Y-118433097D01*
X139923280Y-118262594D01*
X139478671Y-118262207D01*
X139067758Y-118431992D01*
X138753097Y-118746104D01*
X138582594Y-119156720D01*
X138582207Y-119601329D01*
X132035421Y-119601329D01*
X130250000Y-117815908D01*
X130250000Y-117182587D01*
X130586720Y-117322406D01*
X131031329Y-117322793D01*
X131442242Y-117153008D01*
X131756903Y-116838896D01*
X131915683Y-116456510D01*
X134619780Y-116456510D01*
X134778386Y-116840368D01*
X134620221Y-117221273D01*
X134619780Y-117726510D01*
X134812718Y-118193458D01*
X135169663Y-118551026D01*
X135636273Y-118744779D01*
X136141510Y-118745220D01*
X136525368Y-118586614D01*
X136906273Y-118744779D01*
X137411510Y-118745220D01*
X137878458Y-118552282D01*
X138236026Y-118195337D01*
X138429779Y-117728727D01*
X138430220Y-117223490D01*
X138271614Y-116839632D01*
X138429779Y-116458727D01*
X138429780Y-116456510D01*
X143509780Y-116456510D01*
X143668386Y-116840368D01*
X143510221Y-117221273D01*
X143509780Y-117726510D01*
X143702718Y-118193458D01*
X144059663Y-118551026D01*
X144526273Y-118744779D01*
X145031510Y-118745220D01*
X145415368Y-118586614D01*
X145796273Y-118744779D01*
X146301510Y-118745220D01*
X146768458Y-118552282D01*
X147126026Y-118195337D01*
X147319779Y-117728727D01*
X147320220Y-117223490D01*
X147161614Y-116839632D01*
X147319779Y-116458727D01*
X147320220Y-115953490D01*
X147127282Y-115486542D01*
X146770337Y-115128974D01*
X146303727Y-114935221D01*
X145798490Y-114934780D01*
X145414632Y-115093386D01*
X145033727Y-114935221D01*
X144528490Y-114934780D01*
X144061542Y-115127718D01*
X143703974Y-115484663D01*
X143510221Y-115951273D01*
X143509780Y-116456510D01*
X138429780Y-116456510D01*
X138430220Y-115953490D01*
X138237282Y-115486542D01*
X137880337Y-115128974D01*
X137413727Y-114935221D01*
X136908490Y-114934780D01*
X136524632Y-115093386D01*
X136143727Y-114935221D01*
X135638490Y-114934780D01*
X135171542Y-115127718D01*
X134813974Y-115484663D01*
X134620221Y-115951273D01*
X134619780Y-116456510D01*
X131915683Y-116456510D01*
X131927406Y-116428280D01*
X131927793Y-115983671D01*
X131758008Y-115572758D01*
X131443896Y-115258097D01*
X131033280Y-115087594D01*
X130588671Y-115087207D01*
X130250000Y-115227142D01*
X130250000Y-112616329D01*
X132867207Y-112616329D01*
X133036992Y-113027242D01*
X133351104Y-113341903D01*
X133761720Y-113512406D01*
X134206329Y-113512793D01*
X134617242Y-113343008D01*
X134931903Y-113028896D01*
X135102406Y-112618280D01*
X135102793Y-112173671D01*
X134933008Y-111762758D01*
X134618896Y-111448097D01*
X134208280Y-111277594D01*
X133763671Y-111277207D01*
X133352758Y-111446992D01*
X133038097Y-111761104D01*
X132867594Y-112171720D01*
X132867207Y-112616329D01*
X130250000Y-112616329D01*
X130250000Y-107657587D01*
X130586720Y-107797406D01*
X131031329Y-107797793D01*
X131442242Y-107628008D01*
X131756903Y-107313896D01*
X131927406Y-106903280D01*
X131927793Y-106458671D01*
X131860790Y-106296510D01*
X135254780Y-106296510D01*
X135413386Y-106680368D01*
X135255221Y-107061273D01*
X135254780Y-107566510D01*
X135447718Y-108033458D01*
X135804663Y-108391026D01*
X136271273Y-108584779D01*
X136525000Y-108585000D01*
X136524780Y-108836510D01*
X136717718Y-109303458D01*
X137074663Y-109661026D01*
X137541273Y-109854779D01*
X138046510Y-109855220D01*
X138480927Y-109675723D01*
X137849525Y-110306024D01*
X137287641Y-111659192D01*
X137286362Y-113124380D01*
X137845884Y-114478526D01*
X138881024Y-115515475D01*
X140234192Y-116077359D01*
X141699380Y-116078638D01*
X143053526Y-115519116D01*
X144090475Y-114483976D01*
X144338639Y-113886329D01*
X146837207Y-113886329D01*
X147006992Y-114297242D01*
X147321104Y-114611903D01*
X147731720Y-114782406D01*
X148176329Y-114782793D01*
X148587242Y-114613008D01*
X148901903Y-114298896D01*
X149072406Y-113888280D01*
X149072793Y-113443671D01*
X148903008Y-113032758D01*
X148588896Y-112718097D01*
X148178280Y-112547594D01*
X147733671Y-112547207D01*
X147322758Y-112716992D01*
X147008097Y-113031104D01*
X146837594Y-113441720D01*
X146837207Y-113886329D01*
X144338639Y-113886329D01*
X144652359Y-113130808D01*
X144653638Y-111665620D01*
X144094116Y-110311474D01*
X143058976Y-109274525D01*
X141705808Y-108712641D01*
X140240620Y-108711362D01*
X138886474Y-109270884D01*
X138884524Y-109272831D01*
X139064779Y-108838727D01*
X139065220Y-108333490D01*
X138906614Y-107949632D01*
X139064779Y-107568727D01*
X139065220Y-107063490D01*
X138906614Y-106679632D01*
X139064779Y-106298727D01*
X139064807Y-106266329D01*
X139852207Y-106266329D01*
X140021992Y-106677242D01*
X140336104Y-106991903D01*
X140746720Y-107162406D01*
X141191329Y-107162793D01*
X141602242Y-106993008D01*
X141916903Y-106678896D01*
X142087406Y-106268280D01*
X142087793Y-105823671D01*
X141918008Y-105412758D01*
X141603896Y-105098097D01*
X141193280Y-104927594D01*
X140748671Y-104927207D01*
X140337758Y-105096992D01*
X140023097Y-105411104D01*
X139852594Y-105821720D01*
X139852207Y-106266329D01*
X139064807Y-106266329D01*
X139065220Y-105793490D01*
X138872282Y-105326542D01*
X138515337Y-104968974D01*
X138048727Y-104775221D01*
X137543490Y-104774780D01*
X137159632Y-104933386D01*
X136778727Y-104775221D01*
X136273490Y-104774780D01*
X135806542Y-104967718D01*
X135448974Y-105324663D01*
X135255221Y-105791273D01*
X135254780Y-106296510D01*
X131860790Y-106296510D01*
X131758008Y-106047758D01*
X131443896Y-105733097D01*
X131033280Y-105562594D01*
X130588671Y-105562207D01*
X130250000Y-105702142D01*
X130250000Y-103726329D01*
X139852207Y-103726329D01*
X140021992Y-104137242D01*
X140336104Y-104451903D01*
X140746720Y-104622406D01*
X141191329Y-104622793D01*
X141602242Y-104453008D01*
X141916903Y-104138896D01*
X142087406Y-103728280D01*
X142087793Y-103283671D01*
X141918008Y-102872758D01*
X141603896Y-102558097D01*
X141193280Y-102387594D01*
X140748671Y-102387207D01*
X140337758Y-102556992D01*
X140023097Y-102871104D01*
X139852594Y-103281720D01*
X139852207Y-103726329D01*
X130250000Y-103726329D01*
X130250000Y-97376329D01*
X134137207Y-97376329D01*
X134306992Y-97787242D01*
X134621104Y-98101903D01*
X135031720Y-98272406D01*
X135476329Y-98272793D01*
X135887242Y-98103008D01*
X136106252Y-97884380D01*
X137286362Y-97884380D01*
X137845884Y-99238526D01*
X138881024Y-100275475D01*
X140234192Y-100837359D01*
X141699380Y-100838638D01*
X143053526Y-100279116D01*
X144090475Y-99243976D01*
X144652359Y-97890808D01*
X144652808Y-97376329D01*
X149377207Y-97376329D01*
X149546992Y-97787242D01*
X149861104Y-98101903D01*
X150271720Y-98272406D01*
X150716329Y-98272793D01*
X151127242Y-98103008D01*
X151441903Y-97788896D01*
X151612406Y-97378280D01*
X151612793Y-96933671D01*
X151443008Y-96522758D01*
X151128896Y-96208097D01*
X150718280Y-96037594D01*
X150273671Y-96037207D01*
X149862758Y-96206992D01*
X149548097Y-96521104D01*
X149377594Y-96931720D01*
X149377207Y-97376329D01*
X144652808Y-97376329D01*
X144653638Y-96425620D01*
X144094116Y-95071474D01*
X143058976Y-94034525D01*
X141705808Y-93472641D01*
X140240620Y-93471362D01*
X138886474Y-94030884D01*
X137849525Y-95066024D01*
X137287641Y-96419192D01*
X137286362Y-97884380D01*
X136106252Y-97884380D01*
X136201903Y-97788896D01*
X136372406Y-97378280D01*
X136372793Y-96933671D01*
X136203008Y-96522758D01*
X135888896Y-96208097D01*
X135478280Y-96037594D01*
X135033671Y-96037207D01*
X134622758Y-96206992D01*
X134308097Y-96521104D01*
X134137594Y-96931720D01*
X134137207Y-97376329D01*
X130250000Y-97376329D01*
X130250000Y-94487604D01*
X130556273Y-94614779D01*
X131061510Y-94615220D01*
X131528458Y-94422282D01*
X131886026Y-94065337D01*
X132079779Y-93598727D01*
X132080220Y-93093490D01*
X132013217Y-92931329D01*
X143027207Y-92931329D01*
X143196992Y-93342242D01*
X143511104Y-93656903D01*
X143921720Y-93827406D01*
X144366329Y-93827793D01*
X144777242Y-93658008D01*
X145091903Y-93343896D01*
X145262406Y-92933280D01*
X145262793Y-92488671D01*
X145093008Y-92077758D01*
X144778896Y-91763097D01*
X144368280Y-91592594D01*
X143923671Y-91592207D01*
X143512758Y-91761992D01*
X143198097Y-92076104D01*
X143027594Y-92486720D01*
X143027207Y-92931329D01*
X132013217Y-92931329D01*
X131921614Y-92709632D01*
X132079779Y-92328727D01*
X132080000Y-92075000D01*
X132331510Y-92075220D01*
X132798458Y-91882282D01*
X133156026Y-91525337D01*
X133349779Y-91058727D01*
X133350220Y-90553490D01*
X133157282Y-90086542D01*
X132800337Y-89728974D01*
X132333727Y-89535221D01*
X131828490Y-89534780D01*
X131444632Y-89693386D01*
X131063727Y-89535221D01*
X130558490Y-89534780D01*
X130250000Y-89662245D01*
X130250000Y-85800000D01*
X136817413Y-85800000D01*
X136677594Y-86136720D01*
G04 #@! TD*
D15*
X137795000Y-100965000D03*
X137795000Y-102235000D03*
X137795000Y-103505000D03*
X136525000Y-102235000D03*
X136525000Y-103505000D03*
X145415000Y-102235000D03*
X144145000Y-100965000D03*
X144145000Y-102235000D03*
X137160000Y-93345000D03*
X135890000Y-93345000D03*
X134620000Y-93345000D03*
X134620000Y-92075000D03*
X135890000Y-92075000D03*
X137160000Y-92075000D03*
X145415000Y-123190000D03*
X146685000Y-121920000D03*
X147955000Y-120650000D03*
X149225000Y-119380000D03*
X150495000Y-118110000D03*
X136525000Y-123190000D03*
X131445000Y-118110000D03*
X132715000Y-119380000D03*
X133985000Y-120650000D03*
X135255000Y-121920000D03*
X136525000Y-107315000D03*
X136525000Y-106045000D03*
X137795000Y-106045000D03*
X137795000Y-107315000D03*
X137795000Y-108585000D03*
X144780000Y-116205000D03*
X146050000Y-116205000D03*
X146050000Y-117475000D03*
X144780000Y-117475000D03*
X135890000Y-117475000D03*
X135890000Y-116205000D03*
X137160000Y-116205000D03*
X137160000Y-117475000D03*
X144780000Y-87630000D03*
X146050000Y-87630000D03*
X146050000Y-86360000D03*
X144780000Y-86360000D03*
X132080000Y-90805000D03*
X130810000Y-90805000D03*
X130810000Y-92075000D03*
X130810000Y-93345000D03*
X149860000Y-90805000D03*
X151130000Y-90805000D03*
X151130000Y-92075000D03*
X151130000Y-93345000D03*
X150495000Y-97155000D03*
X144145000Y-92710000D03*
X137795000Y-86360000D03*
X147955000Y-113665000D03*
X151130000Y-104775000D03*
X151129978Y-106680000D03*
X139700000Y-119380000D03*
X140970000Y-121920000D03*
X133985000Y-112395000D03*
X130810000Y-116205000D03*
X130810000Y-106680000D03*
X135255000Y-97155000D03*
X140970000Y-106045000D03*
X140970000Y-103505000D03*
X140970000Y-112395000D03*
X140970000Y-110490000D03*
X139320222Y-111442500D03*
X139320222Y-113347500D03*
X140970000Y-114300000D03*
X142619778Y-113347500D03*
X142619778Y-111442500D03*
X140970000Y-97155000D03*
X140970000Y-95250000D03*
X139320222Y-96202500D03*
X139320222Y-98107500D03*
X140970000Y-99060000D03*
X142619778Y-98107500D03*
X142619778Y-96202500D03*
M02*
