G04 #@! TF.FileFunction,Copper,L2,Bot,Signal*
%FSLAX46Y46*%
G04 Gerber Fmt 4.6, Leading zero omitted, Abs format (unit mm)*
G04 Created by KiCad (PCBNEW (2016-05-03 BZR 6266)-product) date Mon Jul 11 05:07:49 2016*
%MOMM*%
%LPD*%
G01*
G04 APERTURE LIST*
%ADD10C,0.350000*%
%ADD11C,0.150000*%
%ADD12C,5.080000*%
%ADD13C,1.016000*%
%ADD14R,3.810000X2.540000*%
%ADD15O,3.175000X1.270000*%
%ADD16R,1.800000X1.600000*%
%ADD17C,1.270000*%
%ADD18C,0.965200*%
%ADD19C,0.406400*%
%ADD20C,0.254000*%
%ADD21C,0.350000*%
G04 APERTURE END LIST*
D10*
D11*
X152400000Y-85090000D02*
X152400000Y-118110000D01*
X129540000Y-85090000D02*
X152400000Y-85090000D01*
X129540000Y-118110000D02*
X129540000Y-85090000D01*
X146050000Y-124460000D02*
X135890000Y-124460000D01*
X152400000Y-118110000D02*
X146050000Y-124460000D01*
X129540000Y-118110000D02*
X135890000Y-124460000D01*
D12*
X140970000Y-112395000D03*
D13*
X140970000Y-110490000D03*
X139320222Y-111442500D03*
X139320222Y-113347500D03*
X140970000Y-114300000D03*
X142619778Y-113347500D03*
X142619778Y-111442500D03*
D12*
X140970000Y-97155000D03*
D13*
X140970000Y-95250000D03*
X139320222Y-96202500D03*
X139320222Y-98107500D03*
X140970000Y-99060000D03*
X142619778Y-98107500D03*
X142619778Y-96202500D03*
D14*
X133985000Y-99695000D03*
X133985000Y-109855000D03*
X147955000Y-99695000D03*
X147955000Y-109855000D03*
D15*
X132715000Y-88265000D03*
X149225000Y-88265000D03*
D16*
X147955000Y-103375000D03*
X147955000Y-106175000D03*
X133985000Y-103375000D03*
X133985000Y-106175000D03*
D17*
X137795000Y-100965000D03*
X137795000Y-102235000D03*
X137795000Y-103505000D03*
X136525000Y-102235000D03*
X136525000Y-103505000D03*
X145415000Y-102235000D03*
X144145000Y-100965000D03*
X144145000Y-102235000D03*
X137160000Y-93345000D03*
X135890000Y-93345000D03*
X134620000Y-93345000D03*
X134620000Y-92075000D03*
X135890000Y-92075000D03*
X137160000Y-92075000D03*
X145415000Y-123190000D03*
X146685000Y-121920000D03*
X147955000Y-120650000D03*
X149225000Y-119380000D03*
X150495000Y-118110000D03*
X136525000Y-123190000D03*
X131445000Y-118110000D03*
X132715000Y-119380000D03*
X133985000Y-120650000D03*
X135255000Y-121920000D03*
X136525000Y-107315000D03*
X136525000Y-106045000D03*
X137795000Y-106045000D03*
X137795000Y-107315000D03*
X137795000Y-108585000D03*
X144780000Y-116205000D03*
X146050000Y-116205000D03*
X146050000Y-117475000D03*
X144780000Y-117475000D03*
X135890000Y-117475000D03*
X135890000Y-116205000D03*
X137160000Y-116205000D03*
X137160000Y-117475000D03*
X144780000Y-87630000D03*
X146050000Y-87630000D03*
X146050000Y-86360000D03*
X144780000Y-86360000D03*
X132080000Y-90805000D03*
X130810000Y-90805000D03*
X130810000Y-92075000D03*
X130810000Y-93345000D03*
X149860000Y-90805000D03*
X151130000Y-90805000D03*
X151130000Y-92075000D03*
X151130000Y-93345000D03*
D18*
X150495000Y-97155000D03*
X144145000Y-92710000D03*
X137795000Y-86360000D03*
X147955000Y-113665000D03*
X151130000Y-104775000D03*
X151129978Y-106680000D03*
X139700000Y-119380000D03*
X140970000Y-121920000D03*
X133985000Y-112395000D03*
X130810000Y-116205000D03*
X130810000Y-106680000D03*
X135255000Y-97155000D03*
X140970000Y-106045000D03*
X140970000Y-103505000D03*
D19*
X137795000Y-102235000D02*
X137795000Y-100965000D01*
X136525000Y-103505000D02*
X137795000Y-103505000D01*
X133985000Y-103375000D02*
X136395000Y-103375000D01*
X136395000Y-103375000D02*
X136525000Y-103505000D01*
X144145000Y-102235000D02*
X144145000Y-100965000D01*
X133985000Y-100965000D02*
X133985000Y-102870000D01*
X133985000Y-102870000D02*
X134620000Y-103505000D01*
X137795000Y-109855000D02*
X137795000Y-108585000D01*
X137795000Y-106045000D02*
X136525000Y-106045000D01*
X137795000Y-108585000D02*
X137795000Y-107315000D01*
X133985000Y-109855000D02*
X137795000Y-109855000D01*
X133985000Y-109855000D02*
X133985000Y-106175000D01*
X146050000Y-116205000D02*
X144780000Y-116205000D01*
X144780000Y-117475000D02*
X146050000Y-117475000D01*
X135890000Y-116205000D02*
X135890000Y-117475000D01*
X137160000Y-117475000D02*
X137160000Y-116205000D01*
D20*
X150495000Y-97155000D02*
X150495000Y-96520000D01*
X150495000Y-96520000D02*
X146685000Y-92710000D01*
X146685000Y-92710000D02*
X144145000Y-92710000D01*
X137795000Y-86360000D02*
X136525000Y-86360000D01*
X134620000Y-88265000D02*
X132715000Y-88265000D01*
X136525000Y-86360000D02*
X134620000Y-88265000D01*
X151130000Y-104775000D02*
X149860000Y-106045000D01*
X149860000Y-106045000D02*
X149860000Y-107125611D01*
X149860000Y-107125611D02*
X151130000Y-108395611D01*
X151130000Y-111125000D02*
X148590000Y-113665000D01*
X151130000Y-108395611D02*
X151130000Y-111125000D01*
X148590000Y-113665000D02*
X147955000Y-113665000D01*
X139700000Y-119380000D02*
X146050000Y-119380000D01*
X146050000Y-119380000D02*
X148590000Y-116840000D01*
X148590000Y-116840000D02*
X148590000Y-114935000D01*
X148590000Y-114935000D02*
X151663377Y-111861623D01*
X151663377Y-111861623D02*
X151663377Y-107213399D01*
X151663377Y-107213399D02*
X151129978Y-106680000D01*
X133985000Y-112395000D02*
X133985000Y-117475000D01*
X133985000Y-117475000D02*
X137160000Y-120650000D01*
X139700000Y-120650000D02*
X140970000Y-121920000D01*
X137160000Y-120650000D02*
X139700000Y-120650000D01*
X130810000Y-106680000D02*
X130175000Y-107315000D01*
X130175000Y-107315000D02*
X130175000Y-115570000D01*
X130175000Y-115570000D02*
X130810000Y-116205000D01*
X132080000Y-104775000D02*
X139700000Y-104775000D01*
X135255000Y-97155000D02*
X131445000Y-97155000D01*
X131445000Y-97155000D02*
X130175000Y-98425000D01*
X130175000Y-98425000D02*
X130175000Y-102870000D01*
X130175000Y-102870000D02*
X132080000Y-104775000D01*
X139700000Y-104775000D02*
X140970000Y-106045000D01*
X142240000Y-104775000D02*
X141427199Y-103962199D01*
X147066000Y-91821000D02*
X151765000Y-96520000D01*
X141427199Y-103962199D02*
X140970000Y-103505000D01*
X149225000Y-104775000D02*
X142240000Y-104775000D01*
X151765000Y-102235000D02*
X149225000Y-104775000D01*
X151765000Y-96520000D02*
X151765000Y-102235000D01*
X147066000Y-91313000D02*
X147066000Y-91821000D01*
X149225000Y-89154000D02*
X147066000Y-91313000D01*
X149225000Y-88265000D02*
X149225000Y-89154000D01*
G36*
X146659632Y-90641738D02*
X146527185Y-90774185D01*
X146362004Y-91021395D01*
X146304000Y-91313000D01*
X146304000Y-91821000D01*
X146329262Y-91948000D01*
X144963476Y-91948000D01*
X144778896Y-91763097D01*
X144368280Y-91592594D01*
X143923671Y-91592207D01*
X143512758Y-91761992D01*
X143198097Y-92076104D01*
X143027594Y-92486720D01*
X143027207Y-92931329D01*
X143196992Y-93342242D01*
X143511104Y-93656903D01*
X143921720Y-93827406D01*
X144366329Y-93827793D01*
X144777242Y-93658008D01*
X144963575Y-93472000D01*
X146369370Y-93472000D01*
X148145500Y-95248131D01*
X148145500Y-95250000D01*
X148155506Y-95299410D01*
X148182697Y-95339803D01*
X149494082Y-96651188D01*
X149377594Y-96931720D01*
X149377207Y-97376329D01*
X149546992Y-97787242D01*
X149549745Y-97790000D01*
X148494750Y-97790000D01*
X148336000Y-97948750D01*
X148336000Y-99314000D01*
X150336250Y-99314000D01*
X150495000Y-99155250D01*
X150495000Y-98298691D01*
X150484189Y-98272591D01*
X150716329Y-98272793D01*
X150998923Y-98156029D01*
X151003000Y-98160106D01*
X151003000Y-101919369D01*
X149166370Y-103756000D01*
X148336000Y-103756000D01*
X148336000Y-103776000D01*
X147574000Y-103776000D01*
X147574000Y-103756000D01*
X146578750Y-103756000D01*
X146420000Y-103914750D01*
X146420000Y-104013000D01*
X142555631Y-104013000D01*
X142087566Y-103544935D01*
X142087793Y-103283671D01*
X141918008Y-102872758D01*
X141603896Y-102558097D01*
X141340418Y-102448691D01*
X146420000Y-102448691D01*
X146420000Y-102835250D01*
X146578750Y-102994000D01*
X147574000Y-102994000D01*
X147574000Y-102098750D01*
X148336000Y-102098750D01*
X148336000Y-102994000D01*
X149331250Y-102994000D01*
X149490000Y-102835250D01*
X149490000Y-102448691D01*
X149393327Y-102215302D01*
X149214699Y-102036673D01*
X148981310Y-101940000D01*
X148494750Y-101940000D01*
X148336000Y-102098750D01*
X147574000Y-102098750D01*
X147415250Y-101940000D01*
X146928690Y-101940000D01*
X146695301Y-102036673D01*
X146516673Y-102215302D01*
X146420000Y-102448691D01*
X141340418Y-102448691D01*
X141193280Y-102387594D01*
X140748671Y-102387207D01*
X140337758Y-102556992D01*
X140023097Y-102871104D01*
X139852594Y-103281720D01*
X139852207Y-103726329D01*
X139970656Y-104013000D01*
X135520000Y-104013000D01*
X135520000Y-103914750D01*
X135361250Y-103756000D01*
X134366000Y-103756000D01*
X134366000Y-103776000D01*
X133604000Y-103776000D01*
X133604000Y-103756000D01*
X132608750Y-103756000D01*
X132450000Y-103914750D01*
X132450000Y-104013000D01*
X132395630Y-104013000D01*
X130937000Y-102554370D01*
X130937000Y-102448691D01*
X132450000Y-102448691D01*
X132450000Y-102835250D01*
X132608750Y-102994000D01*
X133604000Y-102994000D01*
X133604000Y-102098750D01*
X134366000Y-102098750D01*
X134366000Y-102994000D01*
X135361250Y-102994000D01*
X135520000Y-102835250D01*
X135520000Y-102448691D01*
X135423327Y-102215302D01*
X135244699Y-102036673D01*
X135011310Y-101940000D01*
X134524750Y-101940000D01*
X134366000Y-102098750D01*
X133604000Y-102098750D01*
X133445250Y-101940000D01*
X132958690Y-101940000D01*
X132725301Y-102036673D01*
X132546673Y-102215302D01*
X132450000Y-102448691D01*
X130937000Y-102448691D01*
X130937000Y-100234750D01*
X131445000Y-100234750D01*
X131445000Y-101091309D01*
X131541673Y-101324698D01*
X131720301Y-101503327D01*
X131953690Y-101600000D01*
X133445250Y-101600000D01*
X133604000Y-101441250D01*
X133604000Y-100076000D01*
X134366000Y-100076000D01*
X134366000Y-101441250D01*
X134524750Y-101600000D01*
X136016310Y-101600000D01*
X136249699Y-101503327D01*
X136428327Y-101324698D01*
X136525000Y-101091309D01*
X136525000Y-100234750D01*
X136366250Y-100076000D01*
X134366000Y-100076000D01*
X133604000Y-100076000D01*
X131603750Y-100076000D01*
X131445000Y-100234750D01*
X130937000Y-100234750D01*
X130937000Y-98740630D01*
X131491712Y-98185919D01*
X131445000Y-98298691D01*
X131445000Y-99155250D01*
X131603750Y-99314000D01*
X133604000Y-99314000D01*
X133604000Y-99294000D01*
X134366000Y-99294000D01*
X134366000Y-99314000D01*
X136366250Y-99314000D01*
X136525000Y-99155250D01*
X136525000Y-98298691D01*
X136428327Y-98065302D01*
X136249699Y-97886673D01*
X136244164Y-97884380D01*
X137286362Y-97884380D01*
X137845884Y-99238526D01*
X138881024Y-100275475D01*
X140234192Y-100837359D01*
X141699380Y-100838638D01*
X143053526Y-100279116D01*
X143097969Y-100234750D01*
X145415000Y-100234750D01*
X145415000Y-101091309D01*
X145511673Y-101324698D01*
X145690301Y-101503327D01*
X145923690Y-101600000D01*
X147415250Y-101600000D01*
X147574000Y-101441250D01*
X147574000Y-100076000D01*
X148336000Y-100076000D01*
X148336000Y-101441250D01*
X148494750Y-101600000D01*
X149986310Y-101600000D01*
X150219699Y-101503327D01*
X150398327Y-101324698D01*
X150495000Y-101091309D01*
X150495000Y-100234750D01*
X150336250Y-100076000D01*
X148336000Y-100076000D01*
X147574000Y-100076000D01*
X145573750Y-100076000D01*
X145415000Y-100234750D01*
X143097969Y-100234750D01*
X144090475Y-99243976D01*
X144482991Y-98298691D01*
X145415000Y-98298691D01*
X145415000Y-99155250D01*
X145573750Y-99314000D01*
X147574000Y-99314000D01*
X147574000Y-97948750D01*
X147415250Y-97790000D01*
X145923690Y-97790000D01*
X145690301Y-97886673D01*
X145511673Y-98065302D01*
X145415000Y-98298691D01*
X144482991Y-98298691D01*
X144652359Y-97890808D01*
X144653638Y-96425620D01*
X144094116Y-95071474D01*
X143058976Y-94034525D01*
X141705808Y-93472641D01*
X140240620Y-93471362D01*
X138886474Y-94030884D01*
X137849525Y-95066024D01*
X137287641Y-96419192D01*
X137286362Y-97884380D01*
X136244164Y-97884380D01*
X136146695Y-97844007D01*
X136201903Y-97788896D01*
X136372406Y-97378280D01*
X136372793Y-96933671D01*
X136203008Y-96522758D01*
X135888896Y-96208097D01*
X135478280Y-96037594D01*
X135033671Y-96037207D01*
X134622758Y-96206992D01*
X134436425Y-96393000D01*
X132386606Y-96393000D01*
X133757303Y-95022303D01*
X133785166Y-94980289D01*
X133794500Y-94932500D01*
X133794500Y-92127606D01*
X135942606Y-89979500D01*
X145997394Y-89979500D01*
X146659632Y-90641738D01*
X146659632Y-90641738D01*
G37*
X146659632Y-90641738D02*
X146527185Y-90774185D01*
X146362004Y-91021395D01*
X146304000Y-91313000D01*
X146304000Y-91821000D01*
X146329262Y-91948000D01*
X144963476Y-91948000D01*
X144778896Y-91763097D01*
X144368280Y-91592594D01*
X143923671Y-91592207D01*
X143512758Y-91761992D01*
X143198097Y-92076104D01*
X143027594Y-92486720D01*
X143027207Y-92931329D01*
X143196992Y-93342242D01*
X143511104Y-93656903D01*
X143921720Y-93827406D01*
X144366329Y-93827793D01*
X144777242Y-93658008D01*
X144963575Y-93472000D01*
X146369370Y-93472000D01*
X148145500Y-95248131D01*
X148145500Y-95250000D01*
X148155506Y-95299410D01*
X148182697Y-95339803D01*
X149494082Y-96651188D01*
X149377594Y-96931720D01*
X149377207Y-97376329D01*
X149546992Y-97787242D01*
X149549745Y-97790000D01*
X148494750Y-97790000D01*
X148336000Y-97948750D01*
X148336000Y-99314000D01*
X150336250Y-99314000D01*
X150495000Y-99155250D01*
X150495000Y-98298691D01*
X150484189Y-98272591D01*
X150716329Y-98272793D01*
X150998923Y-98156029D01*
X151003000Y-98160106D01*
X151003000Y-101919369D01*
X149166370Y-103756000D01*
X148336000Y-103756000D01*
X148336000Y-103776000D01*
X147574000Y-103776000D01*
X147574000Y-103756000D01*
X146578750Y-103756000D01*
X146420000Y-103914750D01*
X146420000Y-104013000D01*
X142555631Y-104013000D01*
X142087566Y-103544935D01*
X142087793Y-103283671D01*
X141918008Y-102872758D01*
X141603896Y-102558097D01*
X141340418Y-102448691D01*
X146420000Y-102448691D01*
X146420000Y-102835250D01*
X146578750Y-102994000D01*
X147574000Y-102994000D01*
X147574000Y-102098750D01*
X148336000Y-102098750D01*
X148336000Y-102994000D01*
X149331250Y-102994000D01*
X149490000Y-102835250D01*
X149490000Y-102448691D01*
X149393327Y-102215302D01*
X149214699Y-102036673D01*
X148981310Y-101940000D01*
X148494750Y-101940000D01*
X148336000Y-102098750D01*
X147574000Y-102098750D01*
X147415250Y-101940000D01*
X146928690Y-101940000D01*
X146695301Y-102036673D01*
X146516673Y-102215302D01*
X146420000Y-102448691D01*
X141340418Y-102448691D01*
X141193280Y-102387594D01*
X140748671Y-102387207D01*
X140337758Y-102556992D01*
X140023097Y-102871104D01*
X139852594Y-103281720D01*
X139852207Y-103726329D01*
X139970656Y-104013000D01*
X135520000Y-104013000D01*
X135520000Y-103914750D01*
X135361250Y-103756000D01*
X134366000Y-103756000D01*
X134366000Y-103776000D01*
X133604000Y-103776000D01*
X133604000Y-103756000D01*
X132608750Y-103756000D01*
X132450000Y-103914750D01*
X132450000Y-104013000D01*
X132395630Y-104013000D01*
X130937000Y-102554370D01*
X130937000Y-102448691D01*
X132450000Y-102448691D01*
X132450000Y-102835250D01*
X132608750Y-102994000D01*
X133604000Y-102994000D01*
X133604000Y-102098750D01*
X134366000Y-102098750D01*
X134366000Y-102994000D01*
X135361250Y-102994000D01*
X135520000Y-102835250D01*
X135520000Y-102448691D01*
X135423327Y-102215302D01*
X135244699Y-102036673D01*
X135011310Y-101940000D01*
X134524750Y-101940000D01*
X134366000Y-102098750D01*
X133604000Y-102098750D01*
X133445250Y-101940000D01*
X132958690Y-101940000D01*
X132725301Y-102036673D01*
X132546673Y-102215302D01*
X132450000Y-102448691D01*
X130937000Y-102448691D01*
X130937000Y-100234750D01*
X131445000Y-100234750D01*
X131445000Y-101091309D01*
X131541673Y-101324698D01*
X131720301Y-101503327D01*
X131953690Y-101600000D01*
X133445250Y-101600000D01*
X133604000Y-101441250D01*
X133604000Y-100076000D01*
X134366000Y-100076000D01*
X134366000Y-101441250D01*
X134524750Y-101600000D01*
X136016310Y-101600000D01*
X136249699Y-101503327D01*
X136428327Y-101324698D01*
X136525000Y-101091309D01*
X136525000Y-100234750D01*
X136366250Y-100076000D01*
X134366000Y-100076000D01*
X133604000Y-100076000D01*
X131603750Y-100076000D01*
X131445000Y-100234750D01*
X130937000Y-100234750D01*
X130937000Y-98740630D01*
X131491712Y-98185919D01*
X131445000Y-98298691D01*
X131445000Y-99155250D01*
X131603750Y-99314000D01*
X133604000Y-99314000D01*
X133604000Y-99294000D01*
X134366000Y-99294000D01*
X134366000Y-99314000D01*
X136366250Y-99314000D01*
X136525000Y-99155250D01*
X136525000Y-98298691D01*
X136428327Y-98065302D01*
X136249699Y-97886673D01*
X136244164Y-97884380D01*
X137286362Y-97884380D01*
X137845884Y-99238526D01*
X138881024Y-100275475D01*
X140234192Y-100837359D01*
X141699380Y-100838638D01*
X143053526Y-100279116D01*
X143097969Y-100234750D01*
X145415000Y-100234750D01*
X145415000Y-101091309D01*
X145511673Y-101324698D01*
X145690301Y-101503327D01*
X145923690Y-101600000D01*
X147415250Y-101600000D01*
X147574000Y-101441250D01*
X147574000Y-100076000D01*
X148336000Y-100076000D01*
X148336000Y-101441250D01*
X148494750Y-101600000D01*
X149986310Y-101600000D01*
X150219699Y-101503327D01*
X150398327Y-101324698D01*
X150495000Y-101091309D01*
X150495000Y-100234750D01*
X150336250Y-100076000D01*
X148336000Y-100076000D01*
X147574000Y-100076000D01*
X145573750Y-100076000D01*
X145415000Y-100234750D01*
X143097969Y-100234750D01*
X144090475Y-99243976D01*
X144482991Y-98298691D01*
X145415000Y-98298691D01*
X145415000Y-99155250D01*
X145573750Y-99314000D01*
X147574000Y-99314000D01*
X147574000Y-97948750D01*
X147415250Y-97790000D01*
X145923690Y-97790000D01*
X145690301Y-97886673D01*
X145511673Y-98065302D01*
X145415000Y-98298691D01*
X144482991Y-98298691D01*
X144652359Y-97890808D01*
X144653638Y-96425620D01*
X144094116Y-95071474D01*
X143058976Y-94034525D01*
X141705808Y-93472641D01*
X140240620Y-93471362D01*
X138886474Y-94030884D01*
X137849525Y-95066024D01*
X137287641Y-96419192D01*
X137286362Y-97884380D01*
X136244164Y-97884380D01*
X136146695Y-97844007D01*
X136201903Y-97788896D01*
X136372406Y-97378280D01*
X136372793Y-96933671D01*
X136203008Y-96522758D01*
X135888896Y-96208097D01*
X135478280Y-96037594D01*
X135033671Y-96037207D01*
X134622758Y-96206992D01*
X134436425Y-96393000D01*
X132386606Y-96393000D01*
X133757303Y-95022303D01*
X133785166Y-94980289D01*
X133794500Y-94932500D01*
X133794500Y-92127606D01*
X135942606Y-89979500D01*
X145997394Y-89979500D01*
X146659632Y-90641738D01*
G36*
X132450000Y-105635250D02*
X132608750Y-105794000D01*
X133604000Y-105794000D01*
X133604000Y-105774000D01*
X134366000Y-105774000D01*
X134366000Y-105794000D01*
X135361250Y-105794000D01*
X135520000Y-105635250D01*
X135520000Y-105537000D01*
X139384370Y-105537000D01*
X139852434Y-106005065D01*
X139852207Y-106266329D01*
X140021992Y-106677242D01*
X140336104Y-106991903D01*
X140746720Y-107162406D01*
X141191329Y-107162793D01*
X141602242Y-106993008D01*
X141880986Y-106714750D01*
X146420000Y-106714750D01*
X146420000Y-107101309D01*
X146516673Y-107334698D01*
X146695301Y-107513327D01*
X146928690Y-107610000D01*
X147415250Y-107610000D01*
X147574000Y-107451250D01*
X147574000Y-106556000D01*
X146578750Y-106556000D01*
X146420000Y-106714750D01*
X141880986Y-106714750D01*
X141916903Y-106678896D01*
X142087406Y-106268280D01*
X142087793Y-105823671D01*
X141969344Y-105537000D01*
X146420000Y-105537000D01*
X146420000Y-105635250D01*
X146578750Y-105794000D01*
X147574000Y-105794000D01*
X147574000Y-105774000D01*
X148336000Y-105774000D01*
X148336000Y-105794000D01*
X148356000Y-105794000D01*
X148356000Y-106556000D01*
X148336000Y-106556000D01*
X148336000Y-107451250D01*
X148494750Y-107610000D01*
X148981310Y-107610000D01*
X149214699Y-107513327D01*
X149218011Y-107510015D01*
X149284819Y-107610000D01*
X149321185Y-107664426D01*
X149606759Y-107950000D01*
X148494750Y-107950000D01*
X148336000Y-108108750D01*
X148336000Y-109474000D01*
X148356000Y-109474000D01*
X148356000Y-110236000D01*
X148336000Y-110236000D01*
X148336000Y-111601250D01*
X148494750Y-111760000D01*
X149417369Y-111760000D01*
X148497305Y-112680065D01*
X148178280Y-112547594D01*
X147733671Y-112547207D01*
X147322758Y-112716992D01*
X147008097Y-113031104D01*
X146837594Y-113441720D01*
X146837207Y-113886329D01*
X147006992Y-114297242D01*
X147321104Y-114611903D01*
X147731720Y-114782406D01*
X147858331Y-114782516D01*
X147828000Y-114935000D01*
X147828000Y-116524369D01*
X145734370Y-118618000D01*
X140518476Y-118618000D01*
X140333896Y-118433097D01*
X139923280Y-118262594D01*
X139478671Y-118262207D01*
X139067758Y-118431992D01*
X138753097Y-118746104D01*
X138582594Y-119156720D01*
X138582234Y-119570500D01*
X137158130Y-119570500D01*
X134747000Y-117159370D01*
X134747000Y-113213476D01*
X134931903Y-113028896D01*
X135102406Y-112618280D01*
X135102793Y-112173671D01*
X134933008Y-111762758D01*
X134930255Y-111760000D01*
X136016310Y-111760000D01*
X136249699Y-111663327D01*
X136428327Y-111484698D01*
X136525000Y-111251309D01*
X136525000Y-110394750D01*
X145415000Y-110394750D01*
X145415000Y-111251309D01*
X145511673Y-111484698D01*
X145690301Y-111663327D01*
X145923690Y-111760000D01*
X147415250Y-111760000D01*
X147574000Y-111601250D01*
X147574000Y-110236000D01*
X145573750Y-110236000D01*
X145415000Y-110394750D01*
X136525000Y-110394750D01*
X136366250Y-110236000D01*
X134366000Y-110236000D01*
X134366000Y-110256000D01*
X133604000Y-110256000D01*
X133604000Y-110236000D01*
X131603750Y-110236000D01*
X131445000Y-110394750D01*
X131445000Y-111251309D01*
X131541673Y-111484698D01*
X131720301Y-111663327D01*
X131953690Y-111760000D01*
X133039203Y-111760000D01*
X133038097Y-111761104D01*
X132867594Y-112171720D01*
X132867207Y-112616329D01*
X133036992Y-113027242D01*
X133223000Y-113213575D01*
X133223000Y-113993394D01*
X130937000Y-111707394D01*
X130937000Y-108458691D01*
X131445000Y-108458691D01*
X131445000Y-109315250D01*
X131603750Y-109474000D01*
X133604000Y-109474000D01*
X133604000Y-108108750D01*
X134366000Y-108108750D01*
X134366000Y-109474000D01*
X136366250Y-109474000D01*
X136525000Y-109315250D01*
X136525000Y-108458691D01*
X145415000Y-108458691D01*
X145415000Y-109315250D01*
X145573750Y-109474000D01*
X147574000Y-109474000D01*
X147574000Y-108108750D01*
X147415250Y-107950000D01*
X145923690Y-107950000D01*
X145690301Y-108046673D01*
X145511673Y-108225302D01*
X145415000Y-108458691D01*
X136525000Y-108458691D01*
X136428327Y-108225302D01*
X136249699Y-108046673D01*
X136016310Y-107950000D01*
X134524750Y-107950000D01*
X134366000Y-108108750D01*
X133604000Y-108108750D01*
X133445250Y-107950000D01*
X131953690Y-107950000D01*
X131720301Y-108046673D01*
X131541673Y-108225302D01*
X131445000Y-108458691D01*
X130937000Y-108458691D01*
X130937000Y-107797711D01*
X131031329Y-107797793D01*
X131442242Y-107628008D01*
X131756903Y-107313896D01*
X131927406Y-106903280D01*
X131927570Y-106714750D01*
X132450000Y-106714750D01*
X132450000Y-107101309D01*
X132546673Y-107334698D01*
X132725301Y-107513327D01*
X132958690Y-107610000D01*
X133445250Y-107610000D01*
X133604000Y-107451250D01*
X133604000Y-106556000D01*
X134366000Y-106556000D01*
X134366000Y-107451250D01*
X134524750Y-107610000D01*
X135011310Y-107610000D01*
X135244699Y-107513327D01*
X135423327Y-107334698D01*
X135520000Y-107101309D01*
X135520000Y-106714750D01*
X135361250Y-106556000D01*
X134366000Y-106556000D01*
X133604000Y-106556000D01*
X132608750Y-106556000D01*
X132450000Y-106714750D01*
X131927570Y-106714750D01*
X131927793Y-106458671D01*
X131758008Y-106047758D01*
X131443896Y-105733097D01*
X131033280Y-105562594D01*
X130588671Y-105562207D01*
X130302000Y-105680656D01*
X130302000Y-105537000D01*
X132450000Y-105537000D01*
X132450000Y-105635250D01*
X132450000Y-105635250D01*
G37*
X132450000Y-105635250D02*
X132608750Y-105794000D01*
X133604000Y-105794000D01*
X133604000Y-105774000D01*
X134366000Y-105774000D01*
X134366000Y-105794000D01*
X135361250Y-105794000D01*
X135520000Y-105635250D01*
X135520000Y-105537000D01*
X139384370Y-105537000D01*
X139852434Y-106005065D01*
X139852207Y-106266329D01*
X140021992Y-106677242D01*
X140336104Y-106991903D01*
X140746720Y-107162406D01*
X141191329Y-107162793D01*
X141602242Y-106993008D01*
X141880986Y-106714750D01*
X146420000Y-106714750D01*
X146420000Y-107101309D01*
X146516673Y-107334698D01*
X146695301Y-107513327D01*
X146928690Y-107610000D01*
X147415250Y-107610000D01*
X147574000Y-107451250D01*
X147574000Y-106556000D01*
X146578750Y-106556000D01*
X146420000Y-106714750D01*
X141880986Y-106714750D01*
X141916903Y-106678896D01*
X142087406Y-106268280D01*
X142087793Y-105823671D01*
X141969344Y-105537000D01*
X146420000Y-105537000D01*
X146420000Y-105635250D01*
X146578750Y-105794000D01*
X147574000Y-105794000D01*
X147574000Y-105774000D01*
X148336000Y-105774000D01*
X148336000Y-105794000D01*
X148356000Y-105794000D01*
X148356000Y-106556000D01*
X148336000Y-106556000D01*
X148336000Y-107451250D01*
X148494750Y-107610000D01*
X148981310Y-107610000D01*
X149214699Y-107513327D01*
X149218011Y-107510015D01*
X149284819Y-107610000D01*
X149321185Y-107664426D01*
X149606759Y-107950000D01*
X148494750Y-107950000D01*
X148336000Y-108108750D01*
X148336000Y-109474000D01*
X148356000Y-109474000D01*
X148356000Y-110236000D01*
X148336000Y-110236000D01*
X148336000Y-111601250D01*
X148494750Y-111760000D01*
X149417369Y-111760000D01*
X148497305Y-112680065D01*
X148178280Y-112547594D01*
X147733671Y-112547207D01*
X147322758Y-112716992D01*
X147008097Y-113031104D01*
X146837594Y-113441720D01*
X146837207Y-113886329D01*
X147006992Y-114297242D01*
X147321104Y-114611903D01*
X147731720Y-114782406D01*
X147858331Y-114782516D01*
X147828000Y-114935000D01*
X147828000Y-116524369D01*
X145734370Y-118618000D01*
X140518476Y-118618000D01*
X140333896Y-118433097D01*
X139923280Y-118262594D01*
X139478671Y-118262207D01*
X139067758Y-118431992D01*
X138753097Y-118746104D01*
X138582594Y-119156720D01*
X138582234Y-119570500D01*
X137158130Y-119570500D01*
X134747000Y-117159370D01*
X134747000Y-113213476D01*
X134931903Y-113028896D01*
X135102406Y-112618280D01*
X135102793Y-112173671D01*
X134933008Y-111762758D01*
X134930255Y-111760000D01*
X136016310Y-111760000D01*
X136249699Y-111663327D01*
X136428327Y-111484698D01*
X136525000Y-111251309D01*
X136525000Y-110394750D01*
X145415000Y-110394750D01*
X145415000Y-111251309D01*
X145511673Y-111484698D01*
X145690301Y-111663327D01*
X145923690Y-111760000D01*
X147415250Y-111760000D01*
X147574000Y-111601250D01*
X147574000Y-110236000D01*
X145573750Y-110236000D01*
X145415000Y-110394750D01*
X136525000Y-110394750D01*
X136366250Y-110236000D01*
X134366000Y-110236000D01*
X134366000Y-110256000D01*
X133604000Y-110256000D01*
X133604000Y-110236000D01*
X131603750Y-110236000D01*
X131445000Y-110394750D01*
X131445000Y-111251309D01*
X131541673Y-111484698D01*
X131720301Y-111663327D01*
X131953690Y-111760000D01*
X133039203Y-111760000D01*
X133038097Y-111761104D01*
X132867594Y-112171720D01*
X132867207Y-112616329D01*
X133036992Y-113027242D01*
X133223000Y-113213575D01*
X133223000Y-113993394D01*
X130937000Y-111707394D01*
X130937000Y-108458691D01*
X131445000Y-108458691D01*
X131445000Y-109315250D01*
X131603750Y-109474000D01*
X133604000Y-109474000D01*
X133604000Y-108108750D01*
X134366000Y-108108750D01*
X134366000Y-109474000D01*
X136366250Y-109474000D01*
X136525000Y-109315250D01*
X136525000Y-108458691D01*
X145415000Y-108458691D01*
X145415000Y-109315250D01*
X145573750Y-109474000D01*
X147574000Y-109474000D01*
X147574000Y-108108750D01*
X147415250Y-107950000D01*
X145923690Y-107950000D01*
X145690301Y-108046673D01*
X145511673Y-108225302D01*
X145415000Y-108458691D01*
X136525000Y-108458691D01*
X136428327Y-108225302D01*
X136249699Y-108046673D01*
X136016310Y-107950000D01*
X134524750Y-107950000D01*
X134366000Y-108108750D01*
X133604000Y-108108750D01*
X133445250Y-107950000D01*
X131953690Y-107950000D01*
X131720301Y-108046673D01*
X131541673Y-108225302D01*
X131445000Y-108458691D01*
X130937000Y-108458691D01*
X130937000Y-107797711D01*
X131031329Y-107797793D01*
X131442242Y-107628008D01*
X131756903Y-107313896D01*
X131927406Y-106903280D01*
X131927570Y-106714750D01*
X132450000Y-106714750D01*
X132450000Y-107101309D01*
X132546673Y-107334698D01*
X132725301Y-107513327D01*
X132958690Y-107610000D01*
X133445250Y-107610000D01*
X133604000Y-107451250D01*
X133604000Y-106556000D01*
X134366000Y-106556000D01*
X134366000Y-107451250D01*
X134524750Y-107610000D01*
X135011310Y-107610000D01*
X135244699Y-107513327D01*
X135423327Y-107334698D01*
X135520000Y-107101309D01*
X135520000Y-106714750D01*
X135361250Y-106556000D01*
X134366000Y-106556000D01*
X133604000Y-106556000D01*
X132608750Y-106556000D01*
X132450000Y-106714750D01*
X131927570Y-106714750D01*
X131927793Y-106458671D01*
X131758008Y-106047758D01*
X131443896Y-105733097D01*
X131033280Y-105562594D01*
X130588671Y-105562207D01*
X130302000Y-105680656D01*
X130302000Y-105537000D01*
X132450000Y-105537000D01*
X132450000Y-105635250D01*
G36*
X151638000Y-117739894D02*
X145679894Y-123698000D01*
X136260106Y-123698000D01*
X130302000Y-117739894D01*
X130302000Y-117204179D01*
X130586720Y-117322406D01*
X131031329Y-117322793D01*
X131442242Y-117153008D01*
X131756903Y-116838896D01*
X131927406Y-116428280D01*
X131927793Y-115983671D01*
X131758008Y-115572758D01*
X131443896Y-115258097D01*
X131033280Y-115087594D01*
X130937000Y-115087510D01*
X130937000Y-113019106D01*
X132905500Y-114987606D01*
X132905500Y-117475000D01*
X132915506Y-117524410D01*
X132942697Y-117564803D01*
X135800197Y-120422303D01*
X135842211Y-120450166D01*
X135890000Y-120459500D01*
X135891870Y-120459500D01*
X136621185Y-121188815D01*
X136868395Y-121353996D01*
X137160000Y-121412000D01*
X139384370Y-121412000D01*
X139852434Y-121880065D01*
X139852207Y-122141329D01*
X140021992Y-122552242D01*
X140336104Y-122866903D01*
X140746720Y-123037406D01*
X141191329Y-123037793D01*
X141602242Y-122868008D01*
X141916903Y-122553896D01*
X142087406Y-122143280D01*
X142087793Y-121698671D01*
X141918008Y-121287758D01*
X141603896Y-120973097D01*
X141193280Y-120802594D01*
X140929995Y-120802365D01*
X140587130Y-120459500D01*
X146050000Y-120459500D01*
X146099410Y-120449494D01*
X146139803Y-120422303D01*
X148997303Y-117564803D01*
X149025166Y-117522789D01*
X149034500Y-117475000D01*
X149034500Y-117473131D01*
X149128815Y-117378816D01*
X149293996Y-117131605D01*
X149324272Y-116979396D01*
X149352000Y-116840000D01*
X149352000Y-115250630D01*
X151638000Y-112964631D01*
X151638000Y-117739894D01*
X151638000Y-117739894D01*
G37*
X151638000Y-117739894D02*
X145679894Y-123698000D01*
X136260106Y-123698000D01*
X130302000Y-117739894D01*
X130302000Y-117204179D01*
X130586720Y-117322406D01*
X131031329Y-117322793D01*
X131442242Y-117153008D01*
X131756903Y-116838896D01*
X131927406Y-116428280D01*
X131927793Y-115983671D01*
X131758008Y-115572758D01*
X131443896Y-115258097D01*
X131033280Y-115087594D01*
X130937000Y-115087510D01*
X130937000Y-113019106D01*
X132905500Y-114987606D01*
X132905500Y-117475000D01*
X132915506Y-117524410D01*
X132942697Y-117564803D01*
X135800197Y-120422303D01*
X135842211Y-120450166D01*
X135890000Y-120459500D01*
X135891870Y-120459500D01*
X136621185Y-121188815D01*
X136868395Y-121353996D01*
X137160000Y-121412000D01*
X139384370Y-121412000D01*
X139852434Y-121880065D01*
X139852207Y-122141329D01*
X140021992Y-122552242D01*
X140336104Y-122866903D01*
X140746720Y-123037406D01*
X141191329Y-123037793D01*
X141602242Y-122868008D01*
X141916903Y-122553896D01*
X142087406Y-122143280D01*
X142087793Y-121698671D01*
X141918008Y-121287758D01*
X141603896Y-120973097D01*
X141193280Y-120802594D01*
X140929995Y-120802365D01*
X140587130Y-120459500D01*
X146050000Y-120459500D01*
X146099410Y-120449494D01*
X146139803Y-120422303D01*
X148997303Y-117564803D01*
X149025166Y-117522789D01*
X149034500Y-117475000D01*
X149034500Y-117473131D01*
X149128815Y-117378816D01*
X149293996Y-117131605D01*
X149324272Y-116979396D01*
X149352000Y-116840000D01*
X149352000Y-115250630D01*
X151638000Y-112964631D01*
X151638000Y-117739894D01*
G36*
X134507956Y-87299414D02*
X134197049Y-87091673D01*
X133711041Y-86995000D01*
X131718959Y-86995000D01*
X131232951Y-87091673D01*
X130820933Y-87366974D01*
X130545632Y-87778992D01*
X130448959Y-88265000D01*
X130545632Y-88751008D01*
X130820933Y-89163026D01*
X131232951Y-89438327D01*
X131718959Y-89535000D01*
X133711041Y-89535000D01*
X134197049Y-89438327D01*
X134609067Y-89163026D01*
X134712212Y-89008658D01*
X134911605Y-88968996D01*
X135158815Y-88803815D01*
X136840630Y-87122000D01*
X136976524Y-87122000D01*
X137161104Y-87306903D01*
X137571720Y-87477406D01*
X138016329Y-87477793D01*
X138427242Y-87308008D01*
X138741903Y-86993896D01*
X138912406Y-86583280D01*
X138912793Y-86138671D01*
X138794344Y-85852000D01*
X151638000Y-85852000D01*
X151638000Y-95315369D01*
X149034500Y-92711870D01*
X149034500Y-91757500D01*
X149024494Y-91708090D01*
X148997303Y-91667697D01*
X148393118Y-91063512D01*
X149763815Y-89692815D01*
X149869264Y-89535000D01*
X150221041Y-89535000D01*
X150707049Y-89438327D01*
X151119067Y-89163026D01*
X151394368Y-88751008D01*
X151491041Y-88265000D01*
X151394368Y-87778992D01*
X151119067Y-87366974D01*
X150707049Y-87091673D01*
X150221041Y-86995000D01*
X148228959Y-86995000D01*
X147742951Y-87091673D01*
X147330933Y-87366974D01*
X147055632Y-87778992D01*
X146958959Y-88265000D01*
X147055632Y-88751008D01*
X147330933Y-89163026D01*
X147742951Y-89438327D01*
X147843118Y-89458252D01*
X147315488Y-89985882D01*
X146457303Y-89127697D01*
X146415289Y-89099834D01*
X146367500Y-89090500D01*
X135572500Y-89090500D01*
X135523090Y-89100506D01*
X135482697Y-89127697D01*
X132942697Y-91667697D01*
X132914834Y-91709711D01*
X132905500Y-91757500D01*
X132905500Y-94562394D01*
X130302000Y-97165894D01*
X130302000Y-85852000D01*
X135955370Y-85852000D01*
X134507956Y-87299414D01*
X134507956Y-87299414D01*
G37*
X134507956Y-87299414D02*
X134197049Y-87091673D01*
X133711041Y-86995000D01*
X131718959Y-86995000D01*
X131232951Y-87091673D01*
X130820933Y-87366974D01*
X130545632Y-87778992D01*
X130448959Y-88265000D01*
X130545632Y-88751008D01*
X130820933Y-89163026D01*
X131232951Y-89438327D01*
X131718959Y-89535000D01*
X133711041Y-89535000D01*
X134197049Y-89438327D01*
X134609067Y-89163026D01*
X134712212Y-89008658D01*
X134911605Y-88968996D01*
X135158815Y-88803815D01*
X136840630Y-87122000D01*
X136976524Y-87122000D01*
X137161104Y-87306903D01*
X137571720Y-87477406D01*
X138016329Y-87477793D01*
X138427242Y-87308008D01*
X138741903Y-86993896D01*
X138912406Y-86583280D01*
X138912793Y-86138671D01*
X138794344Y-85852000D01*
X151638000Y-85852000D01*
X151638000Y-95315369D01*
X149034500Y-92711870D01*
X149034500Y-91757500D01*
X149024494Y-91708090D01*
X148997303Y-91667697D01*
X148393118Y-91063512D01*
X149763815Y-89692815D01*
X149869264Y-89535000D01*
X150221041Y-89535000D01*
X150707049Y-89438327D01*
X151119067Y-89163026D01*
X151394368Y-88751008D01*
X151491041Y-88265000D01*
X151394368Y-87778992D01*
X151119067Y-87366974D01*
X150707049Y-87091673D01*
X150221041Y-86995000D01*
X148228959Y-86995000D01*
X147742951Y-87091673D01*
X147330933Y-87366974D01*
X147055632Y-87778992D01*
X146958959Y-88265000D01*
X147055632Y-88751008D01*
X147330933Y-89163026D01*
X147742951Y-89438327D01*
X147843118Y-89458252D01*
X147315488Y-89985882D01*
X146457303Y-89127697D01*
X146415289Y-89099834D01*
X146367500Y-89090500D01*
X135572500Y-89090500D01*
X135523090Y-89100506D01*
X135482697Y-89127697D01*
X132942697Y-91667697D01*
X132914834Y-91709711D01*
X132905500Y-91757500D01*
X132905500Y-94562394D01*
X130302000Y-97165894D01*
X130302000Y-85852000D01*
X135955370Y-85852000D01*
X134507956Y-87299414D01*
D21*
X137795000Y-100965000D03*
X137795000Y-102235000D03*
X137795000Y-103505000D03*
X136525000Y-102235000D03*
X136525000Y-103505000D03*
X145415000Y-102235000D03*
X144145000Y-100965000D03*
X144145000Y-102235000D03*
X137160000Y-93345000D03*
X135890000Y-93345000D03*
X134620000Y-93345000D03*
X134620000Y-92075000D03*
X135890000Y-92075000D03*
X137160000Y-92075000D03*
X145415000Y-123190000D03*
X146685000Y-121920000D03*
X147955000Y-120650000D03*
X149225000Y-119380000D03*
X150495000Y-118110000D03*
X136525000Y-123190000D03*
X131445000Y-118110000D03*
X132715000Y-119380000D03*
X133985000Y-120650000D03*
X135255000Y-121920000D03*
X136525000Y-107315000D03*
X136525000Y-106045000D03*
X137795000Y-106045000D03*
X137795000Y-107315000D03*
X137795000Y-108585000D03*
X144780000Y-116205000D03*
X146050000Y-116205000D03*
X146050000Y-117475000D03*
X144780000Y-117475000D03*
X135890000Y-117475000D03*
X135890000Y-116205000D03*
X137160000Y-116205000D03*
X137160000Y-117475000D03*
X144780000Y-87630000D03*
X146050000Y-87630000D03*
X146050000Y-86360000D03*
X144780000Y-86360000D03*
X132080000Y-90805000D03*
X130810000Y-90805000D03*
X130810000Y-92075000D03*
X130810000Y-93345000D03*
X149860000Y-90805000D03*
X151130000Y-90805000D03*
X151130000Y-92075000D03*
X151130000Y-93345000D03*
X150495000Y-97155000D03*
X144145000Y-92710000D03*
X137795000Y-86360000D03*
X147955000Y-113665000D03*
X151130000Y-104775000D03*
X151129978Y-106680000D03*
X139700000Y-119380000D03*
X140970000Y-121920000D03*
X133985000Y-112395000D03*
X130810000Y-116205000D03*
X130810000Y-106680000D03*
X135255000Y-97155000D03*
X140970000Y-106045000D03*
X140970000Y-103505000D03*
X140970000Y-112395000D03*
X140970000Y-110490000D03*
X139320222Y-111442500D03*
X139320222Y-113347500D03*
X140970000Y-114300000D03*
X142619778Y-113347500D03*
X142619778Y-111442500D03*
X140970000Y-97155000D03*
X140970000Y-95250000D03*
X139320222Y-96202500D03*
X139320222Y-98107500D03*
X140970000Y-99060000D03*
X142619778Y-98107500D03*
X142619778Y-96202500D03*
M02*
