G04 #@! TF.GenerationSoftware,KiCad,Pcbnew,5.0.0-fee4fd1~65~ubuntu17.10.1*
G04 #@! TF.CreationDate,2018-08-22T05:19:58-04:00*
G04 #@! TF.ProjectId,rgb-digit,7267622D64696769742E6B696361645F,A*
G04 #@! TF.SameCoordinates,Original*
G04 #@! TF.FileFunction,Legend,Top*
G04 #@! TF.FilePolarity,Positive*
%FSLAX46Y46*%
G04 Gerber Fmt 4.6, Leading zero omitted, Abs format (unit mm)*
G04 Created by KiCad (PCBNEW 5.0.0-fee4fd1~65~ubuntu17.10.1) date Wed Aug 22 05:19:58 2018*
%MOMM*%
%LPD*%
G01*
G04 APERTURE LIST*
%ADD10C,0.180000*%
%ADD11C,0.300000*%
G04 APERTURE END LIST*
D10*
G04 #@! TO.C,U3*
X146090000Y-111795000D02*
X147290000Y-111795000D01*
X147290000Y-111795000D02*
X147290000Y-109895000D01*
D11*
X145490000Y-109595000D02*
G75*
G03X145490000Y-109595000I-100000J0D01*
G01*
D10*
X146090000Y-114695000D02*
X146090000Y-114895000D01*
X146090000Y-114895000D02*
X151090000Y-114895000D01*
X151090000Y-114895000D02*
X151090000Y-114695000D01*
X146090000Y-111495000D02*
X146090000Y-113295000D01*
X151090000Y-109895000D02*
X146090000Y-109895000D01*
X146090000Y-109895000D02*
X146090000Y-110095000D01*
X151090000Y-109895000D02*
X151090000Y-110095000D01*
X151090000Y-113395000D02*
X151090000Y-111495000D01*
G04 #@! TO.C,U4*
X141570000Y-117515000D02*
X141570000Y-118715000D01*
X141570000Y-118715000D02*
X143470000Y-118715000D01*
D11*
X143870000Y-116815000D02*
G75*
G03X143870000Y-116815000I-100000J0D01*
G01*
D10*
X138670000Y-117515000D02*
X138470000Y-117515000D01*
X138470000Y-117515000D02*
X138470000Y-122515000D01*
X138470000Y-122515000D02*
X138670000Y-122515000D01*
X141870000Y-117515000D02*
X140070000Y-117515000D01*
X143470000Y-122515000D02*
X143470000Y-117515000D01*
X143470000Y-117515000D02*
X143270000Y-117515000D01*
X143470000Y-122515000D02*
X143270000Y-122515000D01*
X139970000Y-122515000D02*
X141870000Y-122515000D01*
G04 #@! TO.C,U5*
X135850000Y-112995000D02*
X134650000Y-112995000D01*
X134650000Y-112995000D02*
X134650000Y-114895000D01*
D11*
X136650000Y-115195000D02*
G75*
G03X136650000Y-115195000I-100000J0D01*
G01*
D10*
X135850000Y-110095000D02*
X135850000Y-109895000D01*
X135850000Y-109895000D02*
X130850000Y-109895000D01*
X130850000Y-109895000D02*
X130850000Y-110095000D01*
X135850000Y-113295000D02*
X135850000Y-111495000D01*
X130850000Y-114895000D02*
X135850000Y-114895000D01*
X135850000Y-114895000D02*
X135850000Y-114695000D01*
X130850000Y-114895000D02*
X130850000Y-114695000D01*
X130850000Y-111395000D02*
X130850000Y-113295000D01*
G04 #@! TO.C,U7*
X140370000Y-107275000D02*
X140370000Y-106075000D01*
X140370000Y-106075000D02*
X138470000Y-106075000D01*
D11*
X138270000Y-107975000D02*
G75*
G03X138270000Y-107975000I-100000J0D01*
G01*
D10*
X143270000Y-107275000D02*
X143470000Y-107275000D01*
X143470000Y-107275000D02*
X143470000Y-102275000D01*
X143470000Y-102275000D02*
X143270000Y-102275000D01*
X140070000Y-107275000D02*
X141870000Y-107275000D01*
X138470000Y-102275000D02*
X138470000Y-107275000D01*
X138470000Y-107275000D02*
X138670000Y-107275000D01*
X138470000Y-102275000D02*
X138670000Y-102275000D01*
X141970000Y-102275000D02*
X140070000Y-102275000D01*
G04 #@! TO.C,U1*
X141570000Y-87035000D02*
X141570000Y-88235000D01*
X141570000Y-88235000D02*
X143470000Y-88235000D01*
D11*
X143870000Y-86335000D02*
G75*
G03X143870000Y-86335000I-100000J0D01*
G01*
D10*
X138670000Y-87035000D02*
X138470000Y-87035000D01*
X138470000Y-87035000D02*
X138470000Y-92035000D01*
X138470000Y-92035000D02*
X138670000Y-92035000D01*
X141870000Y-87035000D02*
X140070000Y-87035000D01*
X143470000Y-92035000D02*
X143470000Y-87035000D01*
X143470000Y-87035000D02*
X143270000Y-87035000D01*
X143470000Y-92035000D02*
X143270000Y-92035000D01*
X139970000Y-92035000D02*
X141870000Y-92035000D01*
G04 #@! TO.C,U2*
X151090000Y-97755000D02*
X149890000Y-97755000D01*
X149890000Y-97755000D02*
X149890000Y-99655000D01*
D11*
X151890000Y-99955000D02*
G75*
G03X151890000Y-99955000I-100000J0D01*
G01*
D10*
X151090000Y-94855000D02*
X151090000Y-94655000D01*
X151090000Y-94655000D02*
X146090000Y-94655000D01*
X146090000Y-94655000D02*
X146090000Y-94855000D01*
X151090000Y-98055000D02*
X151090000Y-96255000D01*
X146090000Y-99655000D02*
X151090000Y-99655000D01*
X151090000Y-99655000D02*
X151090000Y-99455000D01*
X146090000Y-99655000D02*
X146090000Y-99455000D01*
X146090000Y-96155000D02*
X146090000Y-98055000D01*
G04 #@! TO.C,U6*
X130850000Y-96555000D02*
X132050000Y-96555000D01*
X132050000Y-96555000D02*
X132050000Y-94655000D01*
D11*
X130250000Y-94355000D02*
G75*
G03X130250000Y-94355000I-100000J0D01*
G01*
D10*
X130850000Y-99455000D02*
X130850000Y-99655000D01*
X130850000Y-99655000D02*
X135850000Y-99655000D01*
X135850000Y-99655000D02*
X135850000Y-99455000D01*
X130850000Y-96255000D02*
X130850000Y-98055000D01*
X135850000Y-94655000D02*
X130850000Y-94655000D01*
X130850000Y-94655000D02*
X130850000Y-94855000D01*
X135850000Y-94655000D02*
X135850000Y-94855000D01*
X135850000Y-98155000D02*
X135850000Y-96255000D01*
G04 #@! TO.C,C1*
X136271000Y-91313000D02*
X136271000Y-87757000D01*
X136271000Y-87757000D02*
X138049000Y-87757000D01*
X138049000Y-87757000D02*
X138049000Y-91313000D01*
X138049000Y-91313000D02*
X136271000Y-91313000D01*
G04 #@! TO.C,C2*
X146812000Y-92456000D02*
X150368000Y-92456000D01*
X150368000Y-92456000D02*
X150368000Y-94234000D01*
X150368000Y-94234000D02*
X146812000Y-94234000D01*
X146812000Y-94234000D02*
X146812000Y-92456000D01*
G04 #@! TO.C,C3*
X150368000Y-117094000D02*
X146812000Y-117094000D01*
X146812000Y-117094000D02*
X146812000Y-115316000D01*
X146812000Y-115316000D02*
X150368000Y-115316000D01*
X150368000Y-115316000D02*
X150368000Y-117094000D01*
G04 #@! TO.C,C4*
X136271000Y-121793000D02*
X136271000Y-118237000D01*
X136271000Y-118237000D02*
X138049000Y-118237000D01*
X138049000Y-118237000D02*
X138049000Y-121793000D01*
X138049000Y-121793000D02*
X136271000Y-121793000D01*
G04 #@! TO.C,C5*
X131572000Y-107696000D02*
X135128000Y-107696000D01*
X135128000Y-107696000D02*
X135128000Y-109474000D01*
X135128000Y-109474000D02*
X131572000Y-109474000D01*
X131572000Y-109474000D02*
X131572000Y-107696000D01*
G04 #@! TO.C,C6*
X135128000Y-101854000D02*
X131572000Y-101854000D01*
X131572000Y-101854000D02*
X131572000Y-100076000D01*
X131572000Y-100076000D02*
X135128000Y-100076000D01*
X135128000Y-100076000D02*
X135128000Y-101854000D01*
G04 #@! TO.C,C7*
X145669000Y-102997000D02*
X145669000Y-106553000D01*
X145669000Y-106553000D02*
X143891000Y-106553000D01*
X143891000Y-106553000D02*
X143891000Y-102997000D01*
X143891000Y-102997000D02*
X145669000Y-102997000D01*
G04 #@! TO.C,U3*
X146177095Y-108545380D02*
X146177095Y-109354904D01*
X146224714Y-109450142D01*
X146272333Y-109497761D01*
X146367571Y-109545380D01*
X146558047Y-109545380D01*
X146653285Y-109497761D01*
X146700904Y-109450142D01*
X146748523Y-109354904D01*
X146748523Y-108545380D01*
X147129476Y-108545380D02*
X147748523Y-108545380D01*
X147415190Y-108926333D01*
X147558047Y-108926333D01*
X147653285Y-108973952D01*
X147700904Y-109021571D01*
X147748523Y-109116809D01*
X147748523Y-109354904D01*
X147700904Y-109450142D01*
X147653285Y-109497761D01*
X147558047Y-109545380D01*
X147272333Y-109545380D01*
X147177095Y-109497761D01*
X147129476Y-109450142D01*
G04 #@! TO.C,U4*
X143851380Y-121284904D02*
X144660904Y-121284904D01*
X144756142Y-121237285D01*
X144803761Y-121189666D01*
X144851380Y-121094428D01*
X144851380Y-120903952D01*
X144803761Y-120808714D01*
X144756142Y-120761095D01*
X144660904Y-120713476D01*
X143851380Y-120713476D01*
X144184714Y-119808714D02*
X144851380Y-119808714D01*
X143803761Y-120046809D02*
X144518047Y-120284904D01*
X144518047Y-119665857D01*
G04 #@! TO.C,U5*
X133096095Y-115276380D02*
X133096095Y-116085904D01*
X133143714Y-116181142D01*
X133191333Y-116228761D01*
X133286571Y-116276380D01*
X133477047Y-116276380D01*
X133572285Y-116228761D01*
X133619904Y-116181142D01*
X133667523Y-116085904D01*
X133667523Y-115276380D01*
X134619904Y-115276380D02*
X134143714Y-115276380D01*
X134096095Y-115752571D01*
X134143714Y-115704952D01*
X134238952Y-115657333D01*
X134477047Y-115657333D01*
X134572285Y-115704952D01*
X134619904Y-115752571D01*
X134667523Y-115847809D01*
X134667523Y-116085904D01*
X134619904Y-116181142D01*
X134572285Y-116228761D01*
X134477047Y-116276380D01*
X134238952Y-116276380D01*
X134143714Y-116228761D01*
X134096095Y-116181142D01*
G04 #@! TO.C,U7*
X140549380Y-109219904D02*
X141358904Y-109219904D01*
X141454142Y-109172285D01*
X141501761Y-109124666D01*
X141549380Y-109029428D01*
X141549380Y-108838952D01*
X141501761Y-108743714D01*
X141454142Y-108696095D01*
X141358904Y-108648476D01*
X140549380Y-108648476D01*
X140549380Y-108267523D02*
X140549380Y-107600857D01*
X141549380Y-108029428D01*
G04 #@! TO.C,U1*
X143851380Y-91693904D02*
X144660904Y-91693904D01*
X144756142Y-91646285D01*
X144803761Y-91598666D01*
X144851380Y-91503428D01*
X144851380Y-91312952D01*
X144803761Y-91217714D01*
X144756142Y-91170095D01*
X144660904Y-91122476D01*
X143851380Y-91122476D01*
X144851380Y-90122476D02*
X144851380Y-90693904D01*
X144851380Y-90408190D02*
X143851380Y-90408190D01*
X143994238Y-90503428D01*
X144089476Y-90598666D01*
X144137095Y-90693904D01*
G04 #@! TO.C,U2*
X147701095Y-100036380D02*
X147701095Y-100845904D01*
X147748714Y-100941142D01*
X147796333Y-100988761D01*
X147891571Y-101036380D01*
X148082047Y-101036380D01*
X148177285Y-100988761D01*
X148224904Y-100941142D01*
X148272523Y-100845904D01*
X148272523Y-100036380D01*
X148701095Y-100131619D02*
X148748714Y-100084000D01*
X148843952Y-100036380D01*
X149082047Y-100036380D01*
X149177285Y-100084000D01*
X149224904Y-100131619D01*
X149272523Y-100226857D01*
X149272523Y-100322095D01*
X149224904Y-100464952D01*
X148653476Y-101036380D01*
X149272523Y-101036380D01*
G04 #@! TO.C,U6*
X131826095Y-93305380D02*
X131826095Y-94114904D01*
X131873714Y-94210142D01*
X131921333Y-94257761D01*
X132016571Y-94305380D01*
X132207047Y-94305380D01*
X132302285Y-94257761D01*
X132349904Y-94210142D01*
X132397523Y-94114904D01*
X132397523Y-93305380D01*
X133302285Y-93305380D02*
X133111809Y-93305380D01*
X133016571Y-93353000D01*
X132968952Y-93400619D01*
X132873714Y-93543476D01*
X132826095Y-93733952D01*
X132826095Y-94114904D01*
X132873714Y-94210142D01*
X132921333Y-94257761D01*
X133016571Y-94305380D01*
X133207047Y-94305380D01*
X133302285Y-94257761D01*
X133349904Y-94210142D01*
X133397523Y-94114904D01*
X133397523Y-93876809D01*
X133349904Y-93781571D01*
X133302285Y-93733952D01*
X133207047Y-93686333D01*
X133016571Y-93686333D01*
X132921333Y-93733952D01*
X132873714Y-93781571D01*
X132826095Y-93876809D01*
G04 #@! TO.C,C1*
X135810642Y-88608476D02*
X135858261Y-88656095D01*
X135905880Y-88798952D01*
X135905880Y-88894190D01*
X135858261Y-89037047D01*
X135763023Y-89132285D01*
X135667785Y-89179904D01*
X135477309Y-89227523D01*
X135334452Y-89227523D01*
X135143976Y-89179904D01*
X135048738Y-89132285D01*
X134953500Y-89037047D01*
X134905880Y-88894190D01*
X134905880Y-88798952D01*
X134953500Y-88656095D01*
X135001119Y-88608476D01*
X135905880Y-87656095D02*
X135905880Y-88227523D01*
X135905880Y-87941809D02*
X134905880Y-87941809D01*
X135048738Y-88037047D01*
X135143976Y-88132285D01*
X135191595Y-88227523D01*
G04 #@! TO.C,C2*
X147484523Y-91932142D02*
X147436904Y-91979761D01*
X147294047Y-92027380D01*
X147198809Y-92027380D01*
X147055952Y-91979761D01*
X146960714Y-91884523D01*
X146913095Y-91789285D01*
X146865476Y-91598809D01*
X146865476Y-91455952D01*
X146913095Y-91265476D01*
X146960714Y-91170238D01*
X147055952Y-91075000D01*
X147198809Y-91027380D01*
X147294047Y-91027380D01*
X147436904Y-91075000D01*
X147484523Y-91122619D01*
X147865476Y-91122619D02*
X147913095Y-91075000D01*
X148008333Y-91027380D01*
X148246428Y-91027380D01*
X148341666Y-91075000D01*
X148389285Y-91122619D01*
X148436904Y-91217857D01*
X148436904Y-91313095D01*
X148389285Y-91455952D01*
X147817857Y-92027380D01*
X148436904Y-92027380D01*
G04 #@! TO.C,C3*
X147611523Y-118284642D02*
X147563904Y-118332261D01*
X147421047Y-118379880D01*
X147325809Y-118379880D01*
X147182952Y-118332261D01*
X147087714Y-118237023D01*
X147040095Y-118141785D01*
X146992476Y-117951309D01*
X146992476Y-117808452D01*
X147040095Y-117617976D01*
X147087714Y-117522738D01*
X147182952Y-117427500D01*
X147325809Y-117379880D01*
X147421047Y-117379880D01*
X147563904Y-117427500D01*
X147611523Y-117475119D01*
X147944857Y-117379880D02*
X148563904Y-117379880D01*
X148230571Y-117760833D01*
X148373428Y-117760833D01*
X148468666Y-117808452D01*
X148516285Y-117856071D01*
X148563904Y-117951309D01*
X148563904Y-118189404D01*
X148516285Y-118284642D01*
X148468666Y-118332261D01*
X148373428Y-118379880D01*
X148087714Y-118379880D01*
X147992476Y-118332261D01*
X147944857Y-118284642D01*
G04 #@! TO.C,C4*
X135810642Y-119342476D02*
X135858261Y-119390095D01*
X135905880Y-119532952D01*
X135905880Y-119628190D01*
X135858261Y-119771047D01*
X135763023Y-119866285D01*
X135667785Y-119913904D01*
X135477309Y-119961523D01*
X135334452Y-119961523D01*
X135143976Y-119913904D01*
X135048738Y-119866285D01*
X134953500Y-119771047D01*
X134905880Y-119628190D01*
X134905880Y-119532952D01*
X134953500Y-119390095D01*
X135001119Y-119342476D01*
X135239214Y-118485333D02*
X135905880Y-118485333D01*
X134858261Y-118723428D02*
X135572547Y-118961523D01*
X135572547Y-118342476D01*
G04 #@! TO.C,C5*
X132244523Y-107172142D02*
X132196904Y-107219761D01*
X132054047Y-107267380D01*
X131958809Y-107267380D01*
X131815952Y-107219761D01*
X131720714Y-107124523D01*
X131673095Y-107029285D01*
X131625476Y-106838809D01*
X131625476Y-106695952D01*
X131673095Y-106505476D01*
X131720714Y-106410238D01*
X131815952Y-106315000D01*
X131958809Y-106267380D01*
X132054047Y-106267380D01*
X132196904Y-106315000D01*
X132244523Y-106362619D01*
X133149285Y-106267380D02*
X132673095Y-106267380D01*
X132625476Y-106743571D01*
X132673095Y-106695952D01*
X132768333Y-106648333D01*
X133006428Y-106648333D01*
X133101666Y-106695952D01*
X133149285Y-106743571D01*
X133196904Y-106838809D01*
X133196904Y-107076904D01*
X133149285Y-107172142D01*
X133101666Y-107219761D01*
X133006428Y-107267380D01*
X132768333Y-107267380D01*
X132673095Y-107219761D01*
X132625476Y-107172142D01*
G04 #@! TO.C,C6*
X132117523Y-103171642D02*
X132069904Y-103219261D01*
X131927047Y-103266880D01*
X131831809Y-103266880D01*
X131688952Y-103219261D01*
X131593714Y-103124023D01*
X131546095Y-103028785D01*
X131498476Y-102838309D01*
X131498476Y-102695452D01*
X131546095Y-102504976D01*
X131593714Y-102409738D01*
X131688952Y-102314500D01*
X131831809Y-102266880D01*
X131927047Y-102266880D01*
X132069904Y-102314500D01*
X132117523Y-102362119D01*
X132974666Y-102266880D02*
X132784190Y-102266880D01*
X132688952Y-102314500D01*
X132641333Y-102362119D01*
X132546095Y-102504976D01*
X132498476Y-102695452D01*
X132498476Y-103076404D01*
X132546095Y-103171642D01*
X132593714Y-103219261D01*
X132688952Y-103266880D01*
X132879428Y-103266880D01*
X132974666Y-103219261D01*
X133022285Y-103171642D01*
X133069904Y-103076404D01*
X133069904Y-102838309D01*
X133022285Y-102743071D01*
X132974666Y-102695452D01*
X132879428Y-102647833D01*
X132688952Y-102647833D01*
X132593714Y-102695452D01*
X132546095Y-102743071D01*
X132498476Y-102838309D01*
G04 #@! TO.C,C7*
X146923142Y-105753476D02*
X146970761Y-105801095D01*
X147018380Y-105943952D01*
X147018380Y-106039190D01*
X146970761Y-106182047D01*
X146875523Y-106277285D01*
X146780285Y-106324904D01*
X146589809Y-106372523D01*
X146446952Y-106372523D01*
X146256476Y-106324904D01*
X146161238Y-106277285D01*
X146066000Y-106182047D01*
X146018380Y-106039190D01*
X146018380Y-105943952D01*
X146066000Y-105801095D01*
X146113619Y-105753476D01*
X146018380Y-105420142D02*
X146018380Y-104753476D01*
X147018380Y-105182047D01*
G04 #@! TD*
M02*
