G04 #@! TF.FileFunction,Copper,L1,Top,Signal*
%FSLAX46Y46*%
G04 Gerber Fmt 4.6, Leading zero omitted, Abs format (unit mm)*
G04 Created by KiCad (PCBNEW (2016-05-03 BZR 6266)-product) date Mon Jul 11 05:07:49 2016*
%MOMM*%
%LPD*%
G01*
G04 APERTURE LIST*
%ADD10C,0.350000*%
%ADD11C,0.150000*%
%ADD12R,1.500000X1.000000*%
%ADD13R,1.000000X1.500000*%
%ADD14C,5.080000*%
%ADD15C,1.016000*%
%ADD16R,1.000000X1.100000*%
%ADD17R,1.100000X1.000000*%
%ADD18C,1.270000*%
%ADD19C,0.965200*%
%ADD20C,0.406400*%
%ADD21C,0.254000*%
%ADD22C,0.350000*%
G04 APERTURE END LIST*
D10*
D11*
X152400000Y-85090000D02*
X152400000Y-118110000D01*
X129540000Y-85090000D02*
X152400000Y-85090000D01*
X129540000Y-118110000D02*
X129540000Y-85090000D01*
X146050000Y-124460000D02*
X135890000Y-124460000D01*
X152400000Y-118110000D02*
X146050000Y-124460000D01*
X129540000Y-118110000D02*
X135890000Y-124460000D01*
D12*
X151040000Y-110795000D03*
X146140000Y-110795000D03*
X146140000Y-113995000D03*
X151040000Y-113995000D03*
D13*
X142570000Y-122465000D03*
X142570000Y-117565000D03*
X139370000Y-117565000D03*
X139370000Y-122465000D03*
D12*
X130900000Y-113995000D03*
X135800000Y-113995000D03*
X135800000Y-110795000D03*
X130900000Y-110795000D03*
D14*
X140970000Y-112395000D03*
D15*
X140970000Y-110490000D03*
X139320222Y-111442500D03*
X139320222Y-113347500D03*
X140970000Y-114300000D03*
X142619778Y-113347500D03*
X142619778Y-111442500D03*
D13*
X139370000Y-102325000D03*
X139370000Y-107225000D03*
X142570000Y-107225000D03*
X142570000Y-102325000D03*
X142570000Y-91985000D03*
X142570000Y-87085000D03*
X139370000Y-87085000D03*
X139370000Y-91985000D03*
D14*
X140970000Y-97155000D03*
D15*
X140970000Y-95250000D03*
X139320222Y-96202500D03*
X139320222Y-98107500D03*
X140970000Y-99060000D03*
X142619778Y-98107500D03*
X142619778Y-96202500D03*
D12*
X146140000Y-98755000D03*
X151040000Y-98755000D03*
X151040000Y-95555000D03*
X146140000Y-95555000D03*
X135800000Y-95555000D03*
X130900000Y-95555000D03*
X130900000Y-98755000D03*
X135800000Y-98755000D03*
D16*
X137160000Y-90385000D03*
X137160000Y-88685000D03*
D17*
X147740000Y-93345000D03*
X149440000Y-93345000D03*
X149440000Y-116205000D03*
X147740000Y-116205000D03*
D16*
X137160000Y-120865000D03*
X137160000Y-119165000D03*
D17*
X132500000Y-108585000D03*
X134200000Y-108585000D03*
X134200000Y-100965000D03*
X132500000Y-100965000D03*
D16*
X144780000Y-103925000D03*
X144780000Y-105625000D03*
D18*
X137795000Y-100965000D03*
X137795000Y-102235000D03*
X137795000Y-103505000D03*
X136525000Y-102235000D03*
X136525000Y-103505000D03*
X145415000Y-102235000D03*
X144145000Y-100965000D03*
X144145000Y-102235000D03*
X137160000Y-93345000D03*
X135890000Y-93345000D03*
X134620000Y-93345000D03*
X134620000Y-92075000D03*
X135890000Y-92075000D03*
X137160000Y-92075000D03*
X145415000Y-123190000D03*
X146685000Y-121920000D03*
X147955000Y-120650000D03*
X149225000Y-119380000D03*
X150495000Y-118110000D03*
X136525000Y-123190000D03*
X131445000Y-118110000D03*
X132715000Y-119380000D03*
X133985000Y-120650000D03*
X135255000Y-121920000D03*
X136525000Y-107315000D03*
X136525000Y-106045000D03*
X137795000Y-106045000D03*
X137795000Y-107315000D03*
X137795000Y-108585000D03*
X144780000Y-116205000D03*
X146050000Y-116205000D03*
X146050000Y-117475000D03*
X144780000Y-117475000D03*
X135890000Y-117475000D03*
X135890000Y-116205000D03*
X137160000Y-116205000D03*
X137160000Y-117475000D03*
X144780000Y-87630000D03*
X146050000Y-87630000D03*
X146050000Y-86360000D03*
X144780000Y-86360000D03*
X132080000Y-90805000D03*
X130810000Y-90805000D03*
X130810000Y-92075000D03*
X130810000Y-93345000D03*
X149860000Y-90805000D03*
X151130000Y-90805000D03*
X151130000Y-92075000D03*
X151130000Y-93345000D03*
D19*
X150495000Y-97155000D03*
X144145000Y-92710000D03*
X137795000Y-86360000D03*
X147955000Y-113665000D03*
X151130000Y-104775000D03*
X151129978Y-106680000D03*
X139700000Y-119380000D03*
X140970000Y-121920000D03*
X133985000Y-112395000D03*
X130810000Y-116205000D03*
X130810000Y-106680000D03*
X135255000Y-97155000D03*
X140970000Y-106045000D03*
X140970000Y-103505000D03*
D20*
X137795000Y-103505000D02*
X137795000Y-102235000D01*
X136525000Y-103505000D02*
X136525000Y-102235000D01*
X144145000Y-102235000D02*
X145415000Y-102235000D01*
X142570000Y-102325000D02*
X144055000Y-102325000D01*
X144055000Y-102325000D02*
X144145000Y-102235000D01*
X135890000Y-93345000D02*
X137160000Y-93345000D01*
X134620000Y-93345000D02*
X135890000Y-93345000D01*
X134620000Y-92075000D02*
X134620000Y-93345000D01*
X135890000Y-92075000D02*
X134620000Y-92075000D01*
X137160000Y-92075000D02*
X135890000Y-92075000D01*
X139370000Y-91985000D02*
X137250000Y-91985000D01*
X137250000Y-91985000D02*
X137160000Y-92075000D01*
X149225000Y-119380000D02*
X150495000Y-118110000D01*
X146685000Y-121920000D02*
X147955000Y-120650000D01*
X135255000Y-121920000D02*
X136525000Y-123190000D01*
X133985000Y-120650000D02*
X135255000Y-121920000D01*
X131445000Y-118110000D02*
X132715000Y-119380000D01*
X146685000Y-121920000D02*
X145415000Y-123190000D01*
X149225000Y-119380000D02*
X147955000Y-120650000D01*
X149440000Y-116522500D02*
X149440000Y-117055000D01*
X149440000Y-117055000D02*
X150495000Y-118110000D01*
X133985000Y-120650000D02*
X132715000Y-119380000D01*
X136842500Y-120865000D02*
X136310000Y-120865000D01*
X136310000Y-120865000D02*
X135255000Y-121920000D01*
X134620000Y-106045000D02*
X136525000Y-106045000D01*
X136525000Y-106045000D02*
X136525000Y-107315000D01*
X137795000Y-107315000D02*
X137795000Y-106045000D01*
X146050000Y-117475000D02*
X146050000Y-116205000D01*
X142570000Y-117565000D02*
X144690000Y-117565000D01*
X144690000Y-117565000D02*
X144780000Y-117475000D01*
X137160000Y-116205000D02*
X135890000Y-116205000D01*
X136842500Y-119165000D02*
X136842500Y-117792500D01*
X136842500Y-117792500D02*
X137160000Y-117475000D01*
X146050000Y-87630000D02*
X144780000Y-87630000D01*
X146050000Y-86360000D02*
X146050000Y-87630000D01*
X144780000Y-86360000D02*
X146050000Y-86360000D01*
X142570000Y-87085000D02*
X144055000Y-87085000D01*
X144055000Y-87085000D02*
X144780000Y-86360000D01*
X130810000Y-90805000D02*
X132080000Y-90805000D01*
X130810000Y-92075000D02*
X130810000Y-90805000D01*
X130810000Y-93345000D02*
X130810000Y-92075000D01*
X130900000Y-95555000D02*
X130900000Y-93435000D01*
X130900000Y-93435000D02*
X130810000Y-93345000D01*
X151130000Y-90805000D02*
X149860000Y-90805000D01*
X151130000Y-92075000D02*
X151130000Y-90805000D01*
X151130000Y-93345000D02*
X151130000Y-92075000D01*
X149440000Y-93027500D02*
X150812500Y-93027500D01*
X150812500Y-93027500D02*
X151130000Y-93345000D01*
X134200000Y-108267500D02*
X134200000Y-106465000D01*
X134200000Y-106465000D02*
X134620000Y-106045000D01*
D21*
X151040000Y-95555000D02*
X151040000Y-96610000D01*
X151040000Y-96610000D02*
X150495000Y-97155000D01*
X142570000Y-91985000D02*
X143420000Y-91985000D01*
X143420000Y-91985000D02*
X144145000Y-92710000D01*
X139370000Y-87085000D02*
X138520000Y-87085000D01*
X138520000Y-87085000D02*
X137795000Y-86360000D01*
X146140000Y-113995000D02*
X147625000Y-113995000D01*
X147625000Y-113995000D02*
X147955000Y-113665000D01*
X146140000Y-98755000D02*
X146140000Y-99785000D01*
X146140000Y-99785000D02*
X150596601Y-104241601D01*
X150596601Y-104241601D02*
X151130000Y-104775000D01*
X151040000Y-106769978D02*
X151129978Y-106680000D01*
X151040000Y-110795000D02*
X151040000Y-106769978D01*
X139370000Y-117565000D02*
X139370000Y-119050000D01*
X139370000Y-119050000D02*
X139700000Y-119380000D01*
X142570000Y-122465000D02*
X141515000Y-122465000D01*
X141503399Y-122453399D02*
X140970000Y-121920000D01*
X141515000Y-122465000D02*
X141503399Y-122453399D01*
X133985000Y-111125000D02*
X134315000Y-110795000D01*
X134315000Y-110795000D02*
X135800000Y-110795000D01*
X133985000Y-112395000D02*
X133985000Y-111125000D01*
X130810000Y-106680000D02*
X130175000Y-106045000D01*
X130175000Y-106045000D02*
X130175000Y-100330000D01*
X130900000Y-99605000D02*
X130900000Y-98755000D01*
X130175000Y-100330000D02*
X130900000Y-99605000D01*
X130900000Y-113995000D02*
X130900000Y-116115000D01*
X130900000Y-116115000D02*
X130810000Y-116205000D01*
X135800000Y-95555000D02*
X135800000Y-96610000D01*
X135800000Y-96610000D02*
X135255000Y-97155000D01*
X142570000Y-107225000D02*
X142150000Y-107225000D01*
X142150000Y-107225000D02*
X140970000Y-106045000D01*
X140005000Y-102540000D02*
X140512801Y-103047801D01*
X140512801Y-103047801D02*
X140970000Y-103505000D01*
X139370000Y-102325000D02*
X139370000Y-102575000D01*
X139370000Y-102540000D02*
X140005000Y-102540000D01*
G36*
X136025000Y-90099250D02*
X136183750Y-90258000D01*
X137033000Y-90258000D01*
X137033000Y-90238000D01*
X137287000Y-90238000D01*
X137287000Y-90258000D01*
X138136250Y-90258000D01*
X138295000Y-90099250D01*
X138295000Y-89979500D01*
X145997394Y-89979500D01*
X148145500Y-92127606D01*
X148145500Y-92210000D01*
X148025750Y-92210000D01*
X147867000Y-92368750D01*
X147867000Y-93218000D01*
X147887000Y-93218000D01*
X147887000Y-93472000D01*
X147867000Y-93472000D01*
X147867000Y-94321250D01*
X148025750Y-94480000D01*
X148145500Y-94480000D01*
X148145500Y-100712870D01*
X147226003Y-99793373D01*
X147341441Y-99719090D01*
X147486431Y-99506890D01*
X147537440Y-99255000D01*
X147537440Y-98255000D01*
X147493162Y-98019683D01*
X147354090Y-97803559D01*
X147141890Y-97658569D01*
X146890000Y-97607560D01*
X145390000Y-97607560D01*
X145154683Y-97651838D01*
X144938559Y-97790910D01*
X144793569Y-98003110D01*
X144742560Y-98255000D01*
X144742560Y-99255000D01*
X144786838Y-99490317D01*
X144925910Y-99706441D01*
X145138110Y-99851431D01*
X145390000Y-99902440D01*
X145401360Y-99902440D01*
X145436004Y-100076605D01*
X145520326Y-100202801D01*
X145601185Y-100323815D01*
X150012434Y-104735065D01*
X150012207Y-104996329D01*
X150181992Y-105407242D01*
X150496104Y-105721903D01*
X150509096Y-105727298D01*
X150497736Y-105731992D01*
X150183075Y-106046104D01*
X150012572Y-106456720D01*
X150012185Y-106901329D01*
X150181970Y-107312242D01*
X150278000Y-107408440D01*
X150278000Y-109649818D01*
X150054683Y-109691838D01*
X149838559Y-109830910D01*
X149693569Y-110043110D01*
X149642560Y-110295000D01*
X149642560Y-111295000D01*
X149686838Y-111530317D01*
X149825910Y-111746441D01*
X150038110Y-111891431D01*
X150290000Y-111942440D01*
X151638000Y-111942440D01*
X151638000Y-112860000D01*
X151325750Y-112860000D01*
X151167000Y-113018750D01*
X151167000Y-113868000D01*
X151187000Y-113868000D01*
X151187000Y-114122000D01*
X151167000Y-114122000D01*
X151167000Y-114971250D01*
X151325750Y-115130000D01*
X151638000Y-115130000D01*
X151638000Y-117739894D01*
X145679894Y-123698000D01*
X143492054Y-123698000D01*
X143521441Y-123679090D01*
X143666431Y-123466890D01*
X143717440Y-123215000D01*
X143717440Y-121715000D01*
X143673162Y-121479683D01*
X143534090Y-121263559D01*
X143321890Y-121118569D01*
X143070000Y-121067560D01*
X142070000Y-121067560D01*
X141834683Y-121111838D01*
X141778491Y-121147997D01*
X141603896Y-120973097D01*
X141193280Y-120802594D01*
X140748671Y-120802207D01*
X140337758Y-120971992D01*
X140161159Y-121148283D01*
X139996310Y-121080000D01*
X139655750Y-121080000D01*
X139497000Y-121238750D01*
X139497000Y-122338000D01*
X139517000Y-122338000D01*
X139517000Y-122592000D01*
X139497000Y-122592000D01*
X139497000Y-122612000D01*
X139243000Y-122612000D01*
X139243000Y-122592000D01*
X138393750Y-122592000D01*
X138235000Y-122750750D01*
X138235000Y-123341309D01*
X138331673Y-123574698D01*
X138454974Y-123698000D01*
X136260106Y-123698000D01*
X133712856Y-121150750D01*
X136025000Y-121150750D01*
X136025000Y-121541309D01*
X136121673Y-121774698D01*
X136300301Y-121953327D01*
X136533690Y-122050000D01*
X136874250Y-122050000D01*
X137033000Y-121891250D01*
X137033000Y-120992000D01*
X137287000Y-120992000D01*
X137287000Y-121891250D01*
X137445750Y-122050000D01*
X137786310Y-122050000D01*
X138019699Y-121953327D01*
X138198327Y-121774698D01*
X138235000Y-121686162D01*
X138235000Y-122179250D01*
X138393750Y-122338000D01*
X139243000Y-122338000D01*
X139243000Y-121238750D01*
X139084250Y-121080000D01*
X138743690Y-121080000D01*
X138510301Y-121176673D01*
X138331673Y-121355302D01*
X138295000Y-121443838D01*
X138295000Y-121150750D01*
X138136250Y-120992000D01*
X137287000Y-120992000D01*
X137033000Y-120992000D01*
X136183750Y-120992000D01*
X136025000Y-121150750D01*
X133712856Y-121150750D01*
X130302000Y-117739894D01*
X130302000Y-117204179D01*
X130586720Y-117322406D01*
X131031329Y-117322793D01*
X131442242Y-117153008D01*
X131756903Y-116838896D01*
X131927406Y-116428280D01*
X131927793Y-115983671D01*
X131758008Y-115572758D01*
X131662000Y-115476582D01*
X131662000Y-115140182D01*
X131885317Y-115098162D01*
X132101441Y-114959090D01*
X132246431Y-114746890D01*
X132297440Y-114495000D01*
X132297440Y-113495000D01*
X132253162Y-113259683D01*
X132114090Y-113043559D01*
X131901890Y-112898569D01*
X131650000Y-112847560D01*
X130302000Y-112847560D01*
X130302000Y-111930000D01*
X130614250Y-111930000D01*
X130773000Y-111771250D01*
X130773000Y-110922000D01*
X131027000Y-110922000D01*
X131027000Y-111771250D01*
X131185750Y-111930000D01*
X131776309Y-111930000D01*
X132009698Y-111833327D01*
X132188327Y-111654699D01*
X132285000Y-111421310D01*
X132285000Y-111080750D01*
X132126250Y-110922000D01*
X131027000Y-110922000D01*
X130773000Y-110922000D01*
X130753000Y-110922000D01*
X130753000Y-110668000D01*
X130773000Y-110668000D01*
X130773000Y-109818750D01*
X131027000Y-109818750D01*
X131027000Y-110668000D01*
X132126250Y-110668000D01*
X132285000Y-110509250D01*
X132285000Y-110168690D01*
X132188327Y-109935301D01*
X132009698Y-109756673D01*
X131921162Y-109720000D01*
X132214250Y-109720000D01*
X132373000Y-109561250D01*
X132373000Y-108712000D01*
X131473750Y-108712000D01*
X131315000Y-108870750D01*
X131315000Y-109211310D01*
X131411673Y-109444699D01*
X131590302Y-109623327D01*
X131678838Y-109660000D01*
X131185750Y-109660000D01*
X131027000Y-109818750D01*
X130773000Y-109818750D01*
X130614250Y-109660000D01*
X130302000Y-109660000D01*
X130302000Y-107679179D01*
X130586720Y-107797406D01*
X131031329Y-107797793D01*
X131442242Y-107628008D01*
X131756903Y-107313896D01*
X131798680Y-107213286D01*
X132035394Y-107450000D01*
X131823691Y-107450000D01*
X131590302Y-107546673D01*
X131411673Y-107725301D01*
X131315000Y-107958690D01*
X131315000Y-108299250D01*
X131473750Y-108458000D01*
X132373000Y-108458000D01*
X132373000Y-108438000D01*
X132627000Y-108438000D01*
X132627000Y-108458000D01*
X132647000Y-108458000D01*
X132647000Y-108712000D01*
X132627000Y-108712000D01*
X132627000Y-109561250D01*
X132785750Y-109720000D01*
X132905500Y-109720000D01*
X132905500Y-112080432D01*
X132867594Y-112171720D01*
X132867207Y-112616329D01*
X132905500Y-112709006D01*
X132905500Y-117475000D01*
X132915506Y-117524410D01*
X132942697Y-117564803D01*
X135800197Y-120422303D01*
X135842211Y-120450166D01*
X135890000Y-120459500D01*
X136025000Y-120459500D01*
X136025000Y-120579250D01*
X136183750Y-120738000D01*
X137033000Y-120738000D01*
X137033000Y-120718000D01*
X137287000Y-120718000D01*
X137287000Y-120738000D01*
X138136250Y-120738000D01*
X138295000Y-120579250D01*
X138295000Y-120459500D01*
X139385432Y-120459500D01*
X139476720Y-120497406D01*
X139921329Y-120497793D01*
X140014006Y-120459500D01*
X146050000Y-120459500D01*
X146099410Y-120449494D01*
X146139803Y-120422303D01*
X148997303Y-117564803D01*
X149025166Y-117522789D01*
X149034500Y-117475000D01*
X149034500Y-117340000D01*
X149154250Y-117340000D01*
X149313000Y-117181250D01*
X149313000Y-116332000D01*
X149567000Y-116332000D01*
X149567000Y-117181250D01*
X149725750Y-117340000D01*
X150116309Y-117340000D01*
X150349698Y-117243327D01*
X150528327Y-117064699D01*
X150625000Y-116831310D01*
X150625000Y-116490750D01*
X150466250Y-116332000D01*
X149567000Y-116332000D01*
X149313000Y-116332000D01*
X149293000Y-116332000D01*
X149293000Y-116078000D01*
X149313000Y-116078000D01*
X149313000Y-115228750D01*
X149567000Y-115228750D01*
X149567000Y-116078000D01*
X150466250Y-116078000D01*
X150625000Y-115919250D01*
X150625000Y-115578690D01*
X150528327Y-115345301D01*
X150349698Y-115166673D01*
X150261162Y-115130000D01*
X150754250Y-115130000D01*
X150913000Y-114971250D01*
X150913000Y-114122000D01*
X149813750Y-114122000D01*
X149655000Y-114280750D01*
X149655000Y-114621310D01*
X149751673Y-114854699D01*
X149930302Y-115033327D01*
X150018838Y-115070000D01*
X149725750Y-115070000D01*
X149567000Y-115228750D01*
X149313000Y-115228750D01*
X149154250Y-115070000D01*
X149034500Y-115070000D01*
X149034500Y-113979568D01*
X149072406Y-113888280D01*
X149072793Y-113443671D01*
X149041812Y-113368690D01*
X149655000Y-113368690D01*
X149655000Y-113709250D01*
X149813750Y-113868000D01*
X150913000Y-113868000D01*
X150913000Y-113018750D01*
X150754250Y-112860000D01*
X150163691Y-112860000D01*
X149930302Y-112956673D01*
X149751673Y-113135301D01*
X149655000Y-113368690D01*
X149041812Y-113368690D01*
X149034500Y-113350994D01*
X149034500Y-106680000D01*
X149024494Y-106630590D01*
X148997303Y-106590197D01*
X146774803Y-104367697D01*
X146732789Y-104339834D01*
X146685000Y-104330500D01*
X145915000Y-104330500D01*
X145915000Y-104210750D01*
X145756250Y-104052000D01*
X144907000Y-104052000D01*
X144907000Y-104072000D01*
X144653000Y-104072000D01*
X144653000Y-104052000D01*
X143803750Y-104052000D01*
X143645000Y-104210750D01*
X143645000Y-104330500D01*
X141724964Y-104330500D01*
X141916903Y-104138896D01*
X142087406Y-103728280D01*
X142087422Y-103710000D01*
X142284250Y-103710000D01*
X142443000Y-103551250D01*
X142443000Y-102452000D01*
X142697000Y-102452000D01*
X142697000Y-103551250D01*
X142855750Y-103710000D01*
X143196310Y-103710000D01*
X143429699Y-103613327D01*
X143608327Y-103434698D01*
X143645000Y-103346162D01*
X143645000Y-103639250D01*
X143803750Y-103798000D01*
X144653000Y-103798000D01*
X144653000Y-102898750D01*
X144907000Y-102898750D01*
X144907000Y-103798000D01*
X145756250Y-103798000D01*
X145915000Y-103639250D01*
X145915000Y-103248691D01*
X145818327Y-103015302D01*
X145639699Y-102836673D01*
X145406310Y-102740000D01*
X145065750Y-102740000D01*
X144907000Y-102898750D01*
X144653000Y-102898750D01*
X144494250Y-102740000D01*
X144153690Y-102740000D01*
X143920301Y-102836673D01*
X143741673Y-103015302D01*
X143705000Y-103103838D01*
X143705000Y-102610750D01*
X143546250Y-102452000D01*
X142697000Y-102452000D01*
X142443000Y-102452000D01*
X141593750Y-102452000D01*
X141521759Y-102523991D01*
X141193280Y-102387594D01*
X140929995Y-102387365D01*
X140543815Y-102001185D01*
X140517440Y-101983562D01*
X140517440Y-101575000D01*
X140493674Y-101448691D01*
X141435000Y-101448691D01*
X141435000Y-102039250D01*
X141593750Y-102198000D01*
X142443000Y-102198000D01*
X142443000Y-101098750D01*
X142697000Y-101098750D01*
X142697000Y-102198000D01*
X143546250Y-102198000D01*
X143705000Y-102039250D01*
X143705000Y-101448691D01*
X143608327Y-101215302D01*
X143429699Y-101036673D01*
X143196310Y-100940000D01*
X142855750Y-100940000D01*
X142697000Y-101098750D01*
X142443000Y-101098750D01*
X142284250Y-100940000D01*
X141943690Y-100940000D01*
X141710301Y-101036673D01*
X141531673Y-101215302D01*
X141435000Y-101448691D01*
X140493674Y-101448691D01*
X140473162Y-101339683D01*
X140334090Y-101123559D01*
X140121890Y-100978569D01*
X139870000Y-100927560D01*
X138870000Y-100927560D01*
X138634683Y-100971838D01*
X138418559Y-101110910D01*
X138273569Y-101323110D01*
X138222560Y-101575000D01*
X138222560Y-103075000D01*
X138266838Y-103310317D01*
X138405910Y-103526441D01*
X138618110Y-103671431D01*
X138870000Y-103722440D01*
X139852210Y-103722440D01*
X139852207Y-103726329D01*
X140021992Y-104137242D01*
X140214913Y-104330500D01*
X134672606Y-104330500D01*
X133794500Y-103452394D01*
X133794500Y-102100000D01*
X133914250Y-102100000D01*
X134073000Y-101941250D01*
X134073000Y-101092000D01*
X134327000Y-101092000D01*
X134327000Y-101941250D01*
X134485750Y-102100000D01*
X134876309Y-102100000D01*
X135109698Y-102003327D01*
X135288327Y-101824699D01*
X135385000Y-101591310D01*
X135385000Y-101250750D01*
X135226250Y-101092000D01*
X134327000Y-101092000D01*
X134073000Y-101092000D01*
X134053000Y-101092000D01*
X134053000Y-100838000D01*
X134073000Y-100838000D01*
X134073000Y-99988750D01*
X134327000Y-99988750D01*
X134327000Y-100838000D01*
X135226250Y-100838000D01*
X135385000Y-100679250D01*
X135385000Y-100338690D01*
X135288327Y-100105301D01*
X135109698Y-99926673D01*
X135021162Y-99890000D01*
X135514250Y-99890000D01*
X135673000Y-99731250D01*
X135673000Y-98882000D01*
X135927000Y-98882000D01*
X135927000Y-99731250D01*
X136085750Y-99890000D01*
X136676309Y-99890000D01*
X136909698Y-99793327D01*
X137088327Y-99614699D01*
X137185000Y-99381310D01*
X137185000Y-99040750D01*
X137026250Y-98882000D01*
X135927000Y-98882000D01*
X135673000Y-98882000D01*
X134573750Y-98882000D01*
X134415000Y-99040750D01*
X134415000Y-99381310D01*
X134511673Y-99614699D01*
X134690302Y-99793327D01*
X134778838Y-99830000D01*
X134485750Y-99830000D01*
X134327000Y-99988750D01*
X134073000Y-99988750D01*
X133914250Y-99830000D01*
X133794500Y-99830000D01*
X133794500Y-97376329D01*
X134137207Y-97376329D01*
X134306992Y-97787242D01*
X134483283Y-97963841D01*
X134415000Y-98128690D01*
X134415000Y-98469250D01*
X134573750Y-98628000D01*
X135673000Y-98628000D01*
X135673000Y-98608000D01*
X135927000Y-98608000D01*
X135927000Y-98628000D01*
X137026250Y-98628000D01*
X137185000Y-98469250D01*
X137185000Y-98128690D01*
X137088327Y-97895301D01*
X137077406Y-97884380D01*
X137286362Y-97884380D01*
X137845884Y-99238526D01*
X138881024Y-100275475D01*
X140234192Y-100837359D01*
X141699380Y-100838638D01*
X143053526Y-100279116D01*
X144090475Y-99243976D01*
X144652359Y-97890808D01*
X144653638Y-96425620D01*
X144411975Y-95840750D01*
X144755000Y-95840750D01*
X144755000Y-96181310D01*
X144851673Y-96414699D01*
X145030302Y-96593327D01*
X145263691Y-96690000D01*
X145854250Y-96690000D01*
X146013000Y-96531250D01*
X146013000Y-95682000D01*
X146267000Y-95682000D01*
X146267000Y-96531250D01*
X146425750Y-96690000D01*
X147016309Y-96690000D01*
X147249698Y-96593327D01*
X147428327Y-96414699D01*
X147525000Y-96181310D01*
X147525000Y-95840750D01*
X147366250Y-95682000D01*
X146267000Y-95682000D01*
X146013000Y-95682000D01*
X144913750Y-95682000D01*
X144755000Y-95840750D01*
X144411975Y-95840750D01*
X144094116Y-95071474D01*
X143951582Y-94928690D01*
X144755000Y-94928690D01*
X144755000Y-95269250D01*
X144913750Y-95428000D01*
X146013000Y-95428000D01*
X146013000Y-94578750D01*
X146267000Y-94578750D01*
X146267000Y-95428000D01*
X147366250Y-95428000D01*
X147525000Y-95269250D01*
X147525000Y-94928690D01*
X147428327Y-94695301D01*
X147249698Y-94516673D01*
X147161162Y-94480000D01*
X147454250Y-94480000D01*
X147613000Y-94321250D01*
X147613000Y-93472000D01*
X146713750Y-93472000D01*
X146555000Y-93630750D01*
X146555000Y-93971310D01*
X146651673Y-94204699D01*
X146830302Y-94383327D01*
X146918838Y-94420000D01*
X146425750Y-94420000D01*
X146267000Y-94578750D01*
X146013000Y-94578750D01*
X145854250Y-94420000D01*
X145263691Y-94420000D01*
X145030302Y-94516673D01*
X144851673Y-94695301D01*
X144755000Y-94928690D01*
X143951582Y-94928690D01*
X143058976Y-94034525D01*
X141705808Y-93472641D01*
X140240620Y-93471362D01*
X138886474Y-94030884D01*
X137849525Y-95066024D01*
X137287641Y-96419192D01*
X137286362Y-97884380D01*
X137077406Y-97884380D01*
X136909698Y-97716673D01*
X136676309Y-97620000D01*
X136272035Y-97620000D01*
X136372406Y-97378280D01*
X136372650Y-97098179D01*
X136503996Y-96901605D01*
X136514101Y-96850803D01*
X136543612Y-96702440D01*
X136550000Y-96702440D01*
X136785317Y-96658162D01*
X137001441Y-96519090D01*
X137146431Y-96306890D01*
X137197440Y-96055000D01*
X137197440Y-95055000D01*
X137153162Y-94819683D01*
X137014090Y-94603559D01*
X136801890Y-94458569D01*
X136550000Y-94407560D01*
X135050000Y-94407560D01*
X134814683Y-94451838D01*
X134598559Y-94590910D01*
X134453569Y-94803110D01*
X134402560Y-95055000D01*
X134402560Y-96055000D01*
X134446838Y-96290317D01*
X134482997Y-96346509D01*
X134308097Y-96521104D01*
X134137594Y-96931720D01*
X134137207Y-97376329D01*
X133794500Y-97376329D01*
X133794500Y-92270750D01*
X138235000Y-92270750D01*
X138235000Y-92861309D01*
X138331673Y-93094698D01*
X138510301Y-93273327D01*
X138743690Y-93370000D01*
X139084250Y-93370000D01*
X139243000Y-93211250D01*
X139243000Y-92112000D01*
X139497000Y-92112000D01*
X139497000Y-93211250D01*
X139655750Y-93370000D01*
X139996310Y-93370000D01*
X140229699Y-93273327D01*
X140408327Y-93094698D01*
X140505000Y-92861309D01*
X140505000Y-92270750D01*
X140346250Y-92112000D01*
X139497000Y-92112000D01*
X139243000Y-92112000D01*
X138393750Y-92112000D01*
X138235000Y-92270750D01*
X133794500Y-92270750D01*
X133794500Y-92127606D01*
X135251356Y-90670750D01*
X136025000Y-90670750D01*
X136025000Y-91061309D01*
X136121673Y-91294698D01*
X136300301Y-91473327D01*
X136533690Y-91570000D01*
X136874250Y-91570000D01*
X137033000Y-91411250D01*
X137033000Y-90512000D01*
X137287000Y-90512000D01*
X137287000Y-91411250D01*
X137445750Y-91570000D01*
X137786310Y-91570000D01*
X138019699Y-91473327D01*
X138198327Y-91294698D01*
X138235000Y-91206162D01*
X138235000Y-91699250D01*
X138393750Y-91858000D01*
X139243000Y-91858000D01*
X139243000Y-90758750D01*
X139497000Y-90758750D01*
X139497000Y-91858000D01*
X140346250Y-91858000D01*
X140505000Y-91699250D01*
X140505000Y-91235000D01*
X141422560Y-91235000D01*
X141422560Y-92735000D01*
X141466838Y-92970317D01*
X141605910Y-93186441D01*
X141818110Y-93331431D01*
X142070000Y-93382440D01*
X143070000Y-93382440D01*
X143210693Y-93355967D01*
X143511104Y-93656903D01*
X143921720Y-93827406D01*
X144366329Y-93827793D01*
X144777242Y-93658008D01*
X145091903Y-93343896D01*
X145262406Y-92933280D01*
X145262592Y-92718690D01*
X146555000Y-92718690D01*
X146555000Y-93059250D01*
X146713750Y-93218000D01*
X147613000Y-93218000D01*
X147613000Y-92368750D01*
X147454250Y-92210000D01*
X147063691Y-92210000D01*
X146830302Y-92306673D01*
X146651673Y-92485301D01*
X146555000Y-92718690D01*
X145262592Y-92718690D01*
X145262793Y-92488671D01*
X145093008Y-92077758D01*
X144778896Y-91763097D01*
X144368280Y-91592594D01*
X144104995Y-91592365D01*
X143958815Y-91446185D01*
X143821843Y-91354663D01*
X143717440Y-91284903D01*
X143717440Y-91235000D01*
X143673162Y-90999683D01*
X143534090Y-90783559D01*
X143321890Y-90638569D01*
X143070000Y-90587560D01*
X142070000Y-90587560D01*
X141834683Y-90631838D01*
X141618559Y-90770910D01*
X141473569Y-90983110D01*
X141422560Y-91235000D01*
X140505000Y-91235000D01*
X140505000Y-91108691D01*
X140408327Y-90875302D01*
X140229699Y-90696673D01*
X139996310Y-90600000D01*
X139655750Y-90600000D01*
X139497000Y-90758750D01*
X139243000Y-90758750D01*
X139084250Y-90600000D01*
X138743690Y-90600000D01*
X138510301Y-90696673D01*
X138331673Y-90875302D01*
X138295000Y-90963838D01*
X138295000Y-90670750D01*
X138136250Y-90512000D01*
X137287000Y-90512000D01*
X137033000Y-90512000D01*
X136183750Y-90512000D01*
X136025000Y-90670750D01*
X135251356Y-90670750D01*
X135942606Y-89979500D01*
X136025000Y-89979500D01*
X136025000Y-90099250D01*
X136025000Y-90099250D01*
G37*
X136025000Y-90099250D02*
X136183750Y-90258000D01*
X137033000Y-90258000D01*
X137033000Y-90238000D01*
X137287000Y-90238000D01*
X137287000Y-90258000D01*
X138136250Y-90258000D01*
X138295000Y-90099250D01*
X138295000Y-89979500D01*
X145997394Y-89979500D01*
X148145500Y-92127606D01*
X148145500Y-92210000D01*
X148025750Y-92210000D01*
X147867000Y-92368750D01*
X147867000Y-93218000D01*
X147887000Y-93218000D01*
X147887000Y-93472000D01*
X147867000Y-93472000D01*
X147867000Y-94321250D01*
X148025750Y-94480000D01*
X148145500Y-94480000D01*
X148145500Y-100712870D01*
X147226003Y-99793373D01*
X147341441Y-99719090D01*
X147486431Y-99506890D01*
X147537440Y-99255000D01*
X147537440Y-98255000D01*
X147493162Y-98019683D01*
X147354090Y-97803559D01*
X147141890Y-97658569D01*
X146890000Y-97607560D01*
X145390000Y-97607560D01*
X145154683Y-97651838D01*
X144938559Y-97790910D01*
X144793569Y-98003110D01*
X144742560Y-98255000D01*
X144742560Y-99255000D01*
X144786838Y-99490317D01*
X144925910Y-99706441D01*
X145138110Y-99851431D01*
X145390000Y-99902440D01*
X145401360Y-99902440D01*
X145436004Y-100076605D01*
X145520326Y-100202801D01*
X145601185Y-100323815D01*
X150012434Y-104735065D01*
X150012207Y-104996329D01*
X150181992Y-105407242D01*
X150496104Y-105721903D01*
X150509096Y-105727298D01*
X150497736Y-105731992D01*
X150183075Y-106046104D01*
X150012572Y-106456720D01*
X150012185Y-106901329D01*
X150181970Y-107312242D01*
X150278000Y-107408440D01*
X150278000Y-109649818D01*
X150054683Y-109691838D01*
X149838559Y-109830910D01*
X149693569Y-110043110D01*
X149642560Y-110295000D01*
X149642560Y-111295000D01*
X149686838Y-111530317D01*
X149825910Y-111746441D01*
X150038110Y-111891431D01*
X150290000Y-111942440D01*
X151638000Y-111942440D01*
X151638000Y-112860000D01*
X151325750Y-112860000D01*
X151167000Y-113018750D01*
X151167000Y-113868000D01*
X151187000Y-113868000D01*
X151187000Y-114122000D01*
X151167000Y-114122000D01*
X151167000Y-114971250D01*
X151325750Y-115130000D01*
X151638000Y-115130000D01*
X151638000Y-117739894D01*
X145679894Y-123698000D01*
X143492054Y-123698000D01*
X143521441Y-123679090D01*
X143666431Y-123466890D01*
X143717440Y-123215000D01*
X143717440Y-121715000D01*
X143673162Y-121479683D01*
X143534090Y-121263559D01*
X143321890Y-121118569D01*
X143070000Y-121067560D01*
X142070000Y-121067560D01*
X141834683Y-121111838D01*
X141778491Y-121147997D01*
X141603896Y-120973097D01*
X141193280Y-120802594D01*
X140748671Y-120802207D01*
X140337758Y-120971992D01*
X140161159Y-121148283D01*
X139996310Y-121080000D01*
X139655750Y-121080000D01*
X139497000Y-121238750D01*
X139497000Y-122338000D01*
X139517000Y-122338000D01*
X139517000Y-122592000D01*
X139497000Y-122592000D01*
X139497000Y-122612000D01*
X139243000Y-122612000D01*
X139243000Y-122592000D01*
X138393750Y-122592000D01*
X138235000Y-122750750D01*
X138235000Y-123341309D01*
X138331673Y-123574698D01*
X138454974Y-123698000D01*
X136260106Y-123698000D01*
X133712856Y-121150750D01*
X136025000Y-121150750D01*
X136025000Y-121541309D01*
X136121673Y-121774698D01*
X136300301Y-121953327D01*
X136533690Y-122050000D01*
X136874250Y-122050000D01*
X137033000Y-121891250D01*
X137033000Y-120992000D01*
X137287000Y-120992000D01*
X137287000Y-121891250D01*
X137445750Y-122050000D01*
X137786310Y-122050000D01*
X138019699Y-121953327D01*
X138198327Y-121774698D01*
X138235000Y-121686162D01*
X138235000Y-122179250D01*
X138393750Y-122338000D01*
X139243000Y-122338000D01*
X139243000Y-121238750D01*
X139084250Y-121080000D01*
X138743690Y-121080000D01*
X138510301Y-121176673D01*
X138331673Y-121355302D01*
X138295000Y-121443838D01*
X138295000Y-121150750D01*
X138136250Y-120992000D01*
X137287000Y-120992000D01*
X137033000Y-120992000D01*
X136183750Y-120992000D01*
X136025000Y-121150750D01*
X133712856Y-121150750D01*
X130302000Y-117739894D01*
X130302000Y-117204179D01*
X130586720Y-117322406D01*
X131031329Y-117322793D01*
X131442242Y-117153008D01*
X131756903Y-116838896D01*
X131927406Y-116428280D01*
X131927793Y-115983671D01*
X131758008Y-115572758D01*
X131662000Y-115476582D01*
X131662000Y-115140182D01*
X131885317Y-115098162D01*
X132101441Y-114959090D01*
X132246431Y-114746890D01*
X132297440Y-114495000D01*
X132297440Y-113495000D01*
X132253162Y-113259683D01*
X132114090Y-113043559D01*
X131901890Y-112898569D01*
X131650000Y-112847560D01*
X130302000Y-112847560D01*
X130302000Y-111930000D01*
X130614250Y-111930000D01*
X130773000Y-111771250D01*
X130773000Y-110922000D01*
X131027000Y-110922000D01*
X131027000Y-111771250D01*
X131185750Y-111930000D01*
X131776309Y-111930000D01*
X132009698Y-111833327D01*
X132188327Y-111654699D01*
X132285000Y-111421310D01*
X132285000Y-111080750D01*
X132126250Y-110922000D01*
X131027000Y-110922000D01*
X130773000Y-110922000D01*
X130753000Y-110922000D01*
X130753000Y-110668000D01*
X130773000Y-110668000D01*
X130773000Y-109818750D01*
X131027000Y-109818750D01*
X131027000Y-110668000D01*
X132126250Y-110668000D01*
X132285000Y-110509250D01*
X132285000Y-110168690D01*
X132188327Y-109935301D01*
X132009698Y-109756673D01*
X131921162Y-109720000D01*
X132214250Y-109720000D01*
X132373000Y-109561250D01*
X132373000Y-108712000D01*
X131473750Y-108712000D01*
X131315000Y-108870750D01*
X131315000Y-109211310D01*
X131411673Y-109444699D01*
X131590302Y-109623327D01*
X131678838Y-109660000D01*
X131185750Y-109660000D01*
X131027000Y-109818750D01*
X130773000Y-109818750D01*
X130614250Y-109660000D01*
X130302000Y-109660000D01*
X130302000Y-107679179D01*
X130586720Y-107797406D01*
X131031329Y-107797793D01*
X131442242Y-107628008D01*
X131756903Y-107313896D01*
X131798680Y-107213286D01*
X132035394Y-107450000D01*
X131823691Y-107450000D01*
X131590302Y-107546673D01*
X131411673Y-107725301D01*
X131315000Y-107958690D01*
X131315000Y-108299250D01*
X131473750Y-108458000D01*
X132373000Y-108458000D01*
X132373000Y-108438000D01*
X132627000Y-108438000D01*
X132627000Y-108458000D01*
X132647000Y-108458000D01*
X132647000Y-108712000D01*
X132627000Y-108712000D01*
X132627000Y-109561250D01*
X132785750Y-109720000D01*
X132905500Y-109720000D01*
X132905500Y-112080432D01*
X132867594Y-112171720D01*
X132867207Y-112616329D01*
X132905500Y-112709006D01*
X132905500Y-117475000D01*
X132915506Y-117524410D01*
X132942697Y-117564803D01*
X135800197Y-120422303D01*
X135842211Y-120450166D01*
X135890000Y-120459500D01*
X136025000Y-120459500D01*
X136025000Y-120579250D01*
X136183750Y-120738000D01*
X137033000Y-120738000D01*
X137033000Y-120718000D01*
X137287000Y-120718000D01*
X137287000Y-120738000D01*
X138136250Y-120738000D01*
X138295000Y-120579250D01*
X138295000Y-120459500D01*
X139385432Y-120459500D01*
X139476720Y-120497406D01*
X139921329Y-120497793D01*
X140014006Y-120459500D01*
X146050000Y-120459500D01*
X146099410Y-120449494D01*
X146139803Y-120422303D01*
X148997303Y-117564803D01*
X149025166Y-117522789D01*
X149034500Y-117475000D01*
X149034500Y-117340000D01*
X149154250Y-117340000D01*
X149313000Y-117181250D01*
X149313000Y-116332000D01*
X149567000Y-116332000D01*
X149567000Y-117181250D01*
X149725750Y-117340000D01*
X150116309Y-117340000D01*
X150349698Y-117243327D01*
X150528327Y-117064699D01*
X150625000Y-116831310D01*
X150625000Y-116490750D01*
X150466250Y-116332000D01*
X149567000Y-116332000D01*
X149313000Y-116332000D01*
X149293000Y-116332000D01*
X149293000Y-116078000D01*
X149313000Y-116078000D01*
X149313000Y-115228750D01*
X149567000Y-115228750D01*
X149567000Y-116078000D01*
X150466250Y-116078000D01*
X150625000Y-115919250D01*
X150625000Y-115578690D01*
X150528327Y-115345301D01*
X150349698Y-115166673D01*
X150261162Y-115130000D01*
X150754250Y-115130000D01*
X150913000Y-114971250D01*
X150913000Y-114122000D01*
X149813750Y-114122000D01*
X149655000Y-114280750D01*
X149655000Y-114621310D01*
X149751673Y-114854699D01*
X149930302Y-115033327D01*
X150018838Y-115070000D01*
X149725750Y-115070000D01*
X149567000Y-115228750D01*
X149313000Y-115228750D01*
X149154250Y-115070000D01*
X149034500Y-115070000D01*
X149034500Y-113979568D01*
X149072406Y-113888280D01*
X149072793Y-113443671D01*
X149041812Y-113368690D01*
X149655000Y-113368690D01*
X149655000Y-113709250D01*
X149813750Y-113868000D01*
X150913000Y-113868000D01*
X150913000Y-113018750D01*
X150754250Y-112860000D01*
X150163691Y-112860000D01*
X149930302Y-112956673D01*
X149751673Y-113135301D01*
X149655000Y-113368690D01*
X149041812Y-113368690D01*
X149034500Y-113350994D01*
X149034500Y-106680000D01*
X149024494Y-106630590D01*
X148997303Y-106590197D01*
X146774803Y-104367697D01*
X146732789Y-104339834D01*
X146685000Y-104330500D01*
X145915000Y-104330500D01*
X145915000Y-104210750D01*
X145756250Y-104052000D01*
X144907000Y-104052000D01*
X144907000Y-104072000D01*
X144653000Y-104072000D01*
X144653000Y-104052000D01*
X143803750Y-104052000D01*
X143645000Y-104210750D01*
X143645000Y-104330500D01*
X141724964Y-104330500D01*
X141916903Y-104138896D01*
X142087406Y-103728280D01*
X142087422Y-103710000D01*
X142284250Y-103710000D01*
X142443000Y-103551250D01*
X142443000Y-102452000D01*
X142697000Y-102452000D01*
X142697000Y-103551250D01*
X142855750Y-103710000D01*
X143196310Y-103710000D01*
X143429699Y-103613327D01*
X143608327Y-103434698D01*
X143645000Y-103346162D01*
X143645000Y-103639250D01*
X143803750Y-103798000D01*
X144653000Y-103798000D01*
X144653000Y-102898750D01*
X144907000Y-102898750D01*
X144907000Y-103798000D01*
X145756250Y-103798000D01*
X145915000Y-103639250D01*
X145915000Y-103248691D01*
X145818327Y-103015302D01*
X145639699Y-102836673D01*
X145406310Y-102740000D01*
X145065750Y-102740000D01*
X144907000Y-102898750D01*
X144653000Y-102898750D01*
X144494250Y-102740000D01*
X144153690Y-102740000D01*
X143920301Y-102836673D01*
X143741673Y-103015302D01*
X143705000Y-103103838D01*
X143705000Y-102610750D01*
X143546250Y-102452000D01*
X142697000Y-102452000D01*
X142443000Y-102452000D01*
X141593750Y-102452000D01*
X141521759Y-102523991D01*
X141193280Y-102387594D01*
X140929995Y-102387365D01*
X140543815Y-102001185D01*
X140517440Y-101983562D01*
X140517440Y-101575000D01*
X140493674Y-101448691D01*
X141435000Y-101448691D01*
X141435000Y-102039250D01*
X141593750Y-102198000D01*
X142443000Y-102198000D01*
X142443000Y-101098750D01*
X142697000Y-101098750D01*
X142697000Y-102198000D01*
X143546250Y-102198000D01*
X143705000Y-102039250D01*
X143705000Y-101448691D01*
X143608327Y-101215302D01*
X143429699Y-101036673D01*
X143196310Y-100940000D01*
X142855750Y-100940000D01*
X142697000Y-101098750D01*
X142443000Y-101098750D01*
X142284250Y-100940000D01*
X141943690Y-100940000D01*
X141710301Y-101036673D01*
X141531673Y-101215302D01*
X141435000Y-101448691D01*
X140493674Y-101448691D01*
X140473162Y-101339683D01*
X140334090Y-101123559D01*
X140121890Y-100978569D01*
X139870000Y-100927560D01*
X138870000Y-100927560D01*
X138634683Y-100971838D01*
X138418559Y-101110910D01*
X138273569Y-101323110D01*
X138222560Y-101575000D01*
X138222560Y-103075000D01*
X138266838Y-103310317D01*
X138405910Y-103526441D01*
X138618110Y-103671431D01*
X138870000Y-103722440D01*
X139852210Y-103722440D01*
X139852207Y-103726329D01*
X140021992Y-104137242D01*
X140214913Y-104330500D01*
X134672606Y-104330500D01*
X133794500Y-103452394D01*
X133794500Y-102100000D01*
X133914250Y-102100000D01*
X134073000Y-101941250D01*
X134073000Y-101092000D01*
X134327000Y-101092000D01*
X134327000Y-101941250D01*
X134485750Y-102100000D01*
X134876309Y-102100000D01*
X135109698Y-102003327D01*
X135288327Y-101824699D01*
X135385000Y-101591310D01*
X135385000Y-101250750D01*
X135226250Y-101092000D01*
X134327000Y-101092000D01*
X134073000Y-101092000D01*
X134053000Y-101092000D01*
X134053000Y-100838000D01*
X134073000Y-100838000D01*
X134073000Y-99988750D01*
X134327000Y-99988750D01*
X134327000Y-100838000D01*
X135226250Y-100838000D01*
X135385000Y-100679250D01*
X135385000Y-100338690D01*
X135288327Y-100105301D01*
X135109698Y-99926673D01*
X135021162Y-99890000D01*
X135514250Y-99890000D01*
X135673000Y-99731250D01*
X135673000Y-98882000D01*
X135927000Y-98882000D01*
X135927000Y-99731250D01*
X136085750Y-99890000D01*
X136676309Y-99890000D01*
X136909698Y-99793327D01*
X137088327Y-99614699D01*
X137185000Y-99381310D01*
X137185000Y-99040750D01*
X137026250Y-98882000D01*
X135927000Y-98882000D01*
X135673000Y-98882000D01*
X134573750Y-98882000D01*
X134415000Y-99040750D01*
X134415000Y-99381310D01*
X134511673Y-99614699D01*
X134690302Y-99793327D01*
X134778838Y-99830000D01*
X134485750Y-99830000D01*
X134327000Y-99988750D01*
X134073000Y-99988750D01*
X133914250Y-99830000D01*
X133794500Y-99830000D01*
X133794500Y-97376329D01*
X134137207Y-97376329D01*
X134306992Y-97787242D01*
X134483283Y-97963841D01*
X134415000Y-98128690D01*
X134415000Y-98469250D01*
X134573750Y-98628000D01*
X135673000Y-98628000D01*
X135673000Y-98608000D01*
X135927000Y-98608000D01*
X135927000Y-98628000D01*
X137026250Y-98628000D01*
X137185000Y-98469250D01*
X137185000Y-98128690D01*
X137088327Y-97895301D01*
X137077406Y-97884380D01*
X137286362Y-97884380D01*
X137845884Y-99238526D01*
X138881024Y-100275475D01*
X140234192Y-100837359D01*
X141699380Y-100838638D01*
X143053526Y-100279116D01*
X144090475Y-99243976D01*
X144652359Y-97890808D01*
X144653638Y-96425620D01*
X144411975Y-95840750D01*
X144755000Y-95840750D01*
X144755000Y-96181310D01*
X144851673Y-96414699D01*
X145030302Y-96593327D01*
X145263691Y-96690000D01*
X145854250Y-96690000D01*
X146013000Y-96531250D01*
X146013000Y-95682000D01*
X146267000Y-95682000D01*
X146267000Y-96531250D01*
X146425750Y-96690000D01*
X147016309Y-96690000D01*
X147249698Y-96593327D01*
X147428327Y-96414699D01*
X147525000Y-96181310D01*
X147525000Y-95840750D01*
X147366250Y-95682000D01*
X146267000Y-95682000D01*
X146013000Y-95682000D01*
X144913750Y-95682000D01*
X144755000Y-95840750D01*
X144411975Y-95840750D01*
X144094116Y-95071474D01*
X143951582Y-94928690D01*
X144755000Y-94928690D01*
X144755000Y-95269250D01*
X144913750Y-95428000D01*
X146013000Y-95428000D01*
X146013000Y-94578750D01*
X146267000Y-94578750D01*
X146267000Y-95428000D01*
X147366250Y-95428000D01*
X147525000Y-95269250D01*
X147525000Y-94928690D01*
X147428327Y-94695301D01*
X147249698Y-94516673D01*
X147161162Y-94480000D01*
X147454250Y-94480000D01*
X147613000Y-94321250D01*
X147613000Y-93472000D01*
X146713750Y-93472000D01*
X146555000Y-93630750D01*
X146555000Y-93971310D01*
X146651673Y-94204699D01*
X146830302Y-94383327D01*
X146918838Y-94420000D01*
X146425750Y-94420000D01*
X146267000Y-94578750D01*
X146013000Y-94578750D01*
X145854250Y-94420000D01*
X145263691Y-94420000D01*
X145030302Y-94516673D01*
X144851673Y-94695301D01*
X144755000Y-94928690D01*
X143951582Y-94928690D01*
X143058976Y-94034525D01*
X141705808Y-93472641D01*
X140240620Y-93471362D01*
X138886474Y-94030884D01*
X137849525Y-95066024D01*
X137287641Y-96419192D01*
X137286362Y-97884380D01*
X137077406Y-97884380D01*
X136909698Y-97716673D01*
X136676309Y-97620000D01*
X136272035Y-97620000D01*
X136372406Y-97378280D01*
X136372650Y-97098179D01*
X136503996Y-96901605D01*
X136514101Y-96850803D01*
X136543612Y-96702440D01*
X136550000Y-96702440D01*
X136785317Y-96658162D01*
X137001441Y-96519090D01*
X137146431Y-96306890D01*
X137197440Y-96055000D01*
X137197440Y-95055000D01*
X137153162Y-94819683D01*
X137014090Y-94603559D01*
X136801890Y-94458569D01*
X136550000Y-94407560D01*
X135050000Y-94407560D01*
X134814683Y-94451838D01*
X134598559Y-94590910D01*
X134453569Y-94803110D01*
X134402560Y-95055000D01*
X134402560Y-96055000D01*
X134446838Y-96290317D01*
X134482997Y-96346509D01*
X134308097Y-96521104D01*
X134137594Y-96931720D01*
X134137207Y-97376329D01*
X133794500Y-97376329D01*
X133794500Y-92270750D01*
X138235000Y-92270750D01*
X138235000Y-92861309D01*
X138331673Y-93094698D01*
X138510301Y-93273327D01*
X138743690Y-93370000D01*
X139084250Y-93370000D01*
X139243000Y-93211250D01*
X139243000Y-92112000D01*
X139497000Y-92112000D01*
X139497000Y-93211250D01*
X139655750Y-93370000D01*
X139996310Y-93370000D01*
X140229699Y-93273327D01*
X140408327Y-93094698D01*
X140505000Y-92861309D01*
X140505000Y-92270750D01*
X140346250Y-92112000D01*
X139497000Y-92112000D01*
X139243000Y-92112000D01*
X138393750Y-92112000D01*
X138235000Y-92270750D01*
X133794500Y-92270750D01*
X133794500Y-92127606D01*
X135251356Y-90670750D01*
X136025000Y-90670750D01*
X136025000Y-91061309D01*
X136121673Y-91294698D01*
X136300301Y-91473327D01*
X136533690Y-91570000D01*
X136874250Y-91570000D01*
X137033000Y-91411250D01*
X137033000Y-90512000D01*
X137287000Y-90512000D01*
X137287000Y-91411250D01*
X137445750Y-91570000D01*
X137786310Y-91570000D01*
X138019699Y-91473327D01*
X138198327Y-91294698D01*
X138235000Y-91206162D01*
X138235000Y-91699250D01*
X138393750Y-91858000D01*
X139243000Y-91858000D01*
X139243000Y-90758750D01*
X139497000Y-90758750D01*
X139497000Y-91858000D01*
X140346250Y-91858000D01*
X140505000Y-91699250D01*
X140505000Y-91235000D01*
X141422560Y-91235000D01*
X141422560Y-92735000D01*
X141466838Y-92970317D01*
X141605910Y-93186441D01*
X141818110Y-93331431D01*
X142070000Y-93382440D01*
X143070000Y-93382440D01*
X143210693Y-93355967D01*
X143511104Y-93656903D01*
X143921720Y-93827406D01*
X144366329Y-93827793D01*
X144777242Y-93658008D01*
X145091903Y-93343896D01*
X145262406Y-92933280D01*
X145262592Y-92718690D01*
X146555000Y-92718690D01*
X146555000Y-93059250D01*
X146713750Y-93218000D01*
X147613000Y-93218000D01*
X147613000Y-92368750D01*
X147454250Y-92210000D01*
X147063691Y-92210000D01*
X146830302Y-92306673D01*
X146651673Y-92485301D01*
X146555000Y-92718690D01*
X145262592Y-92718690D01*
X145262793Y-92488671D01*
X145093008Y-92077758D01*
X144778896Y-91763097D01*
X144368280Y-91592594D01*
X144104995Y-91592365D01*
X143958815Y-91446185D01*
X143821843Y-91354663D01*
X143717440Y-91284903D01*
X143717440Y-91235000D01*
X143673162Y-90999683D01*
X143534090Y-90783559D01*
X143321890Y-90638569D01*
X143070000Y-90587560D01*
X142070000Y-90587560D01*
X141834683Y-90631838D01*
X141618559Y-90770910D01*
X141473569Y-90983110D01*
X141422560Y-91235000D01*
X140505000Y-91235000D01*
X140505000Y-91108691D01*
X140408327Y-90875302D01*
X140229699Y-90696673D01*
X139996310Y-90600000D01*
X139655750Y-90600000D01*
X139497000Y-90758750D01*
X139243000Y-90758750D01*
X139084250Y-90600000D01*
X138743690Y-90600000D01*
X138510301Y-90696673D01*
X138331673Y-90875302D01*
X138295000Y-90963838D01*
X138295000Y-90670750D01*
X138136250Y-90512000D01*
X137287000Y-90512000D01*
X137033000Y-90512000D01*
X136183750Y-90512000D01*
X136025000Y-90670750D01*
X135251356Y-90670750D01*
X135942606Y-89979500D01*
X136025000Y-89979500D01*
X136025000Y-90099250D01*
G36*
X136677594Y-86136720D02*
X136677207Y-86581329D01*
X136846992Y-86992242D01*
X137161104Y-87306903D01*
X137571720Y-87477406D01*
X137835005Y-87477635D01*
X137907617Y-87550247D01*
X137786310Y-87500000D01*
X137445750Y-87500000D01*
X137287000Y-87658750D01*
X137287000Y-88558000D01*
X138136250Y-88558000D01*
X138295000Y-88399250D01*
X138295000Y-88114082D01*
X138405910Y-88286441D01*
X138618110Y-88431431D01*
X138870000Y-88482440D01*
X139870000Y-88482440D01*
X140105317Y-88438162D01*
X140321441Y-88299090D01*
X140466431Y-88086890D01*
X140517440Y-87835000D01*
X140517440Y-87370750D01*
X141435000Y-87370750D01*
X141435000Y-87961309D01*
X141531673Y-88194698D01*
X141710301Y-88373327D01*
X141943690Y-88470000D01*
X142284250Y-88470000D01*
X142443000Y-88311250D01*
X142443000Y-87212000D01*
X142697000Y-87212000D01*
X142697000Y-88311250D01*
X142855750Y-88470000D01*
X143196310Y-88470000D01*
X143429699Y-88373327D01*
X143608327Y-88194698D01*
X143705000Y-87961309D01*
X143705000Y-87370750D01*
X143546250Y-87212000D01*
X142697000Y-87212000D01*
X142443000Y-87212000D01*
X141593750Y-87212000D01*
X141435000Y-87370750D01*
X140517440Y-87370750D01*
X140517440Y-86335000D01*
X140473162Y-86099683D01*
X140334090Y-85883559D01*
X140287902Y-85852000D01*
X141654974Y-85852000D01*
X141531673Y-85975302D01*
X141435000Y-86208691D01*
X141435000Y-86799250D01*
X141593750Y-86958000D01*
X142443000Y-86958000D01*
X142443000Y-86938000D01*
X142697000Y-86938000D01*
X142697000Y-86958000D01*
X143546250Y-86958000D01*
X143705000Y-86799250D01*
X143705000Y-86208691D01*
X143608327Y-85975302D01*
X143485026Y-85852000D01*
X151638000Y-85852000D01*
X151638000Y-94407560D01*
X150291194Y-94407560D01*
X150349698Y-94383327D01*
X150528327Y-94204699D01*
X150625000Y-93971310D01*
X150625000Y-93630750D01*
X150466250Y-93472000D01*
X149567000Y-93472000D01*
X149567000Y-94321250D01*
X149725750Y-94480000D01*
X150010918Y-94480000D01*
X149838559Y-94590910D01*
X149693569Y-94803110D01*
X149642560Y-95055000D01*
X149642560Y-96055000D01*
X149686838Y-96290317D01*
X149722997Y-96346509D01*
X149548097Y-96521104D01*
X149377594Y-96931720D01*
X149377207Y-97376329D01*
X149546992Y-97787242D01*
X149723283Y-97963841D01*
X149655000Y-98128690D01*
X149655000Y-98469250D01*
X149813750Y-98628000D01*
X150913000Y-98628000D01*
X150913000Y-98608000D01*
X151167000Y-98608000D01*
X151167000Y-98628000D01*
X151187000Y-98628000D01*
X151187000Y-98882000D01*
X151167000Y-98882000D01*
X151167000Y-99731250D01*
X151325750Y-99890000D01*
X151638000Y-99890000D01*
X151638000Y-103775821D01*
X151353280Y-103657594D01*
X151089996Y-103657365D01*
X149034500Y-101601870D01*
X149034500Y-99040750D01*
X149655000Y-99040750D01*
X149655000Y-99381310D01*
X149751673Y-99614699D01*
X149930302Y-99793327D01*
X150163691Y-99890000D01*
X150754250Y-99890000D01*
X150913000Y-99731250D01*
X150913000Y-98882000D01*
X149813750Y-98882000D01*
X149655000Y-99040750D01*
X149034500Y-99040750D01*
X149034500Y-94480000D01*
X149154250Y-94480000D01*
X149313000Y-94321250D01*
X149313000Y-93472000D01*
X149293000Y-93472000D01*
X149293000Y-93218000D01*
X149313000Y-93218000D01*
X149313000Y-92368750D01*
X149567000Y-92368750D01*
X149567000Y-93218000D01*
X150466250Y-93218000D01*
X150625000Y-93059250D01*
X150625000Y-92718690D01*
X150528327Y-92485301D01*
X150349698Y-92306673D01*
X150116309Y-92210000D01*
X149725750Y-92210000D01*
X149567000Y-92368750D01*
X149313000Y-92368750D01*
X149154250Y-92210000D01*
X149034500Y-92210000D01*
X149034500Y-91757500D01*
X149024494Y-91708090D01*
X148997303Y-91667697D01*
X146457303Y-89127697D01*
X146415289Y-89099834D01*
X146367500Y-89090500D01*
X138295000Y-89090500D01*
X138295000Y-88970750D01*
X138136250Y-88812000D01*
X137287000Y-88812000D01*
X137287000Y-88832000D01*
X137033000Y-88832000D01*
X137033000Y-88812000D01*
X136183750Y-88812000D01*
X136025000Y-88970750D01*
X136025000Y-89090500D01*
X135572500Y-89090500D01*
X135523090Y-89100506D01*
X135482697Y-89127697D01*
X132942697Y-91667697D01*
X132914834Y-91709711D01*
X132905500Y-91757500D01*
X132905500Y-99830000D01*
X132785750Y-99830000D01*
X132627000Y-99988750D01*
X132627000Y-100838000D01*
X132647000Y-100838000D01*
X132647000Y-101092000D01*
X132627000Y-101092000D01*
X132627000Y-101941250D01*
X132785750Y-102100000D01*
X132905500Y-102100000D01*
X132905500Y-103822500D01*
X132915506Y-103871910D01*
X132942697Y-103912303D01*
X134212697Y-105182303D01*
X134254711Y-105210166D01*
X134302500Y-105219500D01*
X140215036Y-105219500D01*
X140023097Y-105411104D01*
X139852594Y-105821720D01*
X139852578Y-105840000D01*
X139655750Y-105840000D01*
X139497000Y-105998750D01*
X139497000Y-107098000D01*
X140346250Y-107098000D01*
X140418241Y-107026009D01*
X140746720Y-107162406D01*
X141010005Y-107162635D01*
X141422560Y-107575190D01*
X141422560Y-107975000D01*
X141466838Y-108210317D01*
X141605910Y-108426441D01*
X141818110Y-108571431D01*
X142070000Y-108622440D01*
X143070000Y-108622440D01*
X143305317Y-108578162D01*
X143521441Y-108439090D01*
X143666431Y-108226890D01*
X143717440Y-107975000D01*
X143717440Y-106476194D01*
X143741673Y-106534698D01*
X143920301Y-106713327D01*
X144153690Y-106810000D01*
X144494250Y-106810000D01*
X144653000Y-106651250D01*
X144653000Y-105752000D01*
X144907000Y-105752000D01*
X144907000Y-106651250D01*
X145065750Y-106810000D01*
X145406310Y-106810000D01*
X145639699Y-106713327D01*
X145818327Y-106534698D01*
X145915000Y-106301309D01*
X145915000Y-105910750D01*
X145756250Y-105752000D01*
X144907000Y-105752000D01*
X144653000Y-105752000D01*
X143803750Y-105752000D01*
X143645000Y-105910750D01*
X143645000Y-106195918D01*
X143534090Y-106023559D01*
X143321890Y-105878569D01*
X143070000Y-105827560D01*
X142087790Y-105827560D01*
X142087793Y-105823671D01*
X141918008Y-105412758D01*
X141725087Y-105219500D01*
X143645000Y-105219500D01*
X143645000Y-105339250D01*
X143803750Y-105498000D01*
X144653000Y-105498000D01*
X144653000Y-105478000D01*
X144907000Y-105478000D01*
X144907000Y-105498000D01*
X145756250Y-105498000D01*
X145915000Y-105339250D01*
X145915000Y-105219500D01*
X146314894Y-105219500D01*
X148145500Y-107050106D01*
X148145500Y-112547565D01*
X147733671Y-112547207D01*
X147322758Y-112716992D01*
X147141037Y-112898396D01*
X146890000Y-112847560D01*
X145390000Y-112847560D01*
X145154683Y-112891838D01*
X144938559Y-113030910D01*
X144793569Y-113243110D01*
X144742560Y-113495000D01*
X144742560Y-114495000D01*
X144786838Y-114730317D01*
X144925910Y-114946441D01*
X145138110Y-115091431D01*
X145390000Y-115142440D01*
X146888806Y-115142440D01*
X146830302Y-115166673D01*
X146651673Y-115345301D01*
X146555000Y-115578690D01*
X146555000Y-115919250D01*
X146713750Y-116078000D01*
X147613000Y-116078000D01*
X147613000Y-115228750D01*
X147454250Y-115070000D01*
X147169082Y-115070000D01*
X147341441Y-114959090D01*
X147479523Y-114757000D01*
X147625000Y-114757000D01*
X147655787Y-114750876D01*
X147731720Y-114782406D01*
X148145500Y-114782766D01*
X148145500Y-115070000D01*
X148025750Y-115070000D01*
X147867000Y-115228750D01*
X147867000Y-116078000D01*
X147887000Y-116078000D01*
X147887000Y-116332000D01*
X147867000Y-116332000D01*
X147867000Y-117181250D01*
X147968072Y-117282322D01*
X145679894Y-119570500D01*
X140817435Y-119570500D01*
X140817793Y-119158671D01*
X140648008Y-118747758D01*
X140466604Y-118566037D01*
X140517440Y-118315000D01*
X140517440Y-117850750D01*
X141435000Y-117850750D01*
X141435000Y-118441309D01*
X141531673Y-118674698D01*
X141710301Y-118853327D01*
X141943690Y-118950000D01*
X142284250Y-118950000D01*
X142443000Y-118791250D01*
X142443000Y-117692000D01*
X142697000Y-117692000D01*
X142697000Y-118791250D01*
X142855750Y-118950000D01*
X143196310Y-118950000D01*
X143429699Y-118853327D01*
X143608327Y-118674698D01*
X143705000Y-118441309D01*
X143705000Y-117850750D01*
X143546250Y-117692000D01*
X142697000Y-117692000D01*
X142443000Y-117692000D01*
X141593750Y-117692000D01*
X141435000Y-117850750D01*
X140517440Y-117850750D01*
X140517440Y-116815000D01*
X140493674Y-116688691D01*
X141435000Y-116688691D01*
X141435000Y-117279250D01*
X141593750Y-117438000D01*
X142443000Y-117438000D01*
X142443000Y-116338750D01*
X142697000Y-116338750D01*
X142697000Y-117438000D01*
X143546250Y-117438000D01*
X143705000Y-117279250D01*
X143705000Y-116688691D01*
X143623011Y-116490750D01*
X146555000Y-116490750D01*
X146555000Y-116831310D01*
X146651673Y-117064699D01*
X146830302Y-117243327D01*
X147063691Y-117340000D01*
X147454250Y-117340000D01*
X147613000Y-117181250D01*
X147613000Y-116332000D01*
X146713750Y-116332000D01*
X146555000Y-116490750D01*
X143623011Y-116490750D01*
X143608327Y-116455302D01*
X143429699Y-116276673D01*
X143196310Y-116180000D01*
X142855750Y-116180000D01*
X142697000Y-116338750D01*
X142443000Y-116338750D01*
X142284250Y-116180000D01*
X141943690Y-116180000D01*
X141710301Y-116276673D01*
X141531673Y-116455302D01*
X141435000Y-116688691D01*
X140493674Y-116688691D01*
X140473162Y-116579683D01*
X140334090Y-116363559D01*
X140121890Y-116218569D01*
X139870000Y-116167560D01*
X138870000Y-116167560D01*
X138634683Y-116211838D01*
X138418559Y-116350910D01*
X138273569Y-116563110D01*
X138222560Y-116815000D01*
X138222560Y-118313806D01*
X138198327Y-118255302D01*
X138019699Y-118076673D01*
X137786310Y-117980000D01*
X137445750Y-117980000D01*
X137287000Y-118138750D01*
X137287000Y-119038000D01*
X138136250Y-119038000D01*
X138295000Y-118879250D01*
X138295000Y-118594082D01*
X138405910Y-118766441D01*
X138608000Y-118904523D01*
X138608000Y-119050000D01*
X138614124Y-119080787D01*
X138582594Y-119156720D01*
X138582234Y-119570500D01*
X138295000Y-119570500D01*
X138295000Y-119450750D01*
X138136250Y-119292000D01*
X137287000Y-119292000D01*
X137287000Y-119312000D01*
X137033000Y-119312000D01*
X137033000Y-119292000D01*
X136183750Y-119292000D01*
X136082678Y-119393072D01*
X135178297Y-118488691D01*
X136025000Y-118488691D01*
X136025000Y-118879250D01*
X136183750Y-119038000D01*
X137033000Y-119038000D01*
X137033000Y-118138750D01*
X136874250Y-117980000D01*
X136533690Y-117980000D01*
X136300301Y-118076673D01*
X136121673Y-118255302D01*
X136025000Y-118488691D01*
X135178297Y-118488691D01*
X133794500Y-117104894D01*
X133794500Y-114280750D01*
X134415000Y-114280750D01*
X134415000Y-114621310D01*
X134511673Y-114854699D01*
X134690302Y-115033327D01*
X134923691Y-115130000D01*
X135514250Y-115130000D01*
X135673000Y-114971250D01*
X135673000Y-114122000D01*
X135927000Y-114122000D01*
X135927000Y-114971250D01*
X136085750Y-115130000D01*
X136676309Y-115130000D01*
X136909698Y-115033327D01*
X137088327Y-114854699D01*
X137185000Y-114621310D01*
X137185000Y-114280750D01*
X137026250Y-114122000D01*
X135927000Y-114122000D01*
X135673000Y-114122000D01*
X134573750Y-114122000D01*
X134415000Y-114280750D01*
X133794500Y-114280750D01*
X133794500Y-113512435D01*
X134206329Y-113512793D01*
X134415000Y-113426572D01*
X134415000Y-113709250D01*
X134573750Y-113868000D01*
X135673000Y-113868000D01*
X135673000Y-113018750D01*
X135927000Y-113018750D01*
X135927000Y-113868000D01*
X137026250Y-113868000D01*
X137185000Y-113709250D01*
X137185000Y-113368690D01*
X137088327Y-113135301D01*
X136909698Y-112956673D01*
X136676309Y-112860000D01*
X136085750Y-112860000D01*
X135927000Y-113018750D01*
X135673000Y-113018750D01*
X135514250Y-112860000D01*
X135002035Y-112860000D01*
X135102406Y-112618280D01*
X135102793Y-112173671D01*
X135003347Y-111932993D01*
X135050000Y-111942440D01*
X136550000Y-111942440D01*
X136785317Y-111898162D01*
X137001441Y-111759090D01*
X137146431Y-111546890D01*
X137197440Y-111295000D01*
X137197440Y-111080750D01*
X144755000Y-111080750D01*
X144755000Y-111421310D01*
X144851673Y-111654699D01*
X145030302Y-111833327D01*
X145263691Y-111930000D01*
X145854250Y-111930000D01*
X146013000Y-111771250D01*
X146013000Y-110922000D01*
X146267000Y-110922000D01*
X146267000Y-111771250D01*
X146425750Y-111930000D01*
X147016309Y-111930000D01*
X147249698Y-111833327D01*
X147428327Y-111654699D01*
X147525000Y-111421310D01*
X147525000Y-111080750D01*
X147366250Y-110922000D01*
X146267000Y-110922000D01*
X146013000Y-110922000D01*
X144913750Y-110922000D01*
X144755000Y-111080750D01*
X137197440Y-111080750D01*
X137197440Y-110295000D01*
X137173674Y-110168690D01*
X144755000Y-110168690D01*
X144755000Y-110509250D01*
X144913750Y-110668000D01*
X146013000Y-110668000D01*
X146013000Y-109818750D01*
X146267000Y-109818750D01*
X146267000Y-110668000D01*
X147366250Y-110668000D01*
X147525000Y-110509250D01*
X147525000Y-110168690D01*
X147428327Y-109935301D01*
X147249698Y-109756673D01*
X147016309Y-109660000D01*
X146425750Y-109660000D01*
X146267000Y-109818750D01*
X146013000Y-109818750D01*
X145854250Y-109660000D01*
X145263691Y-109660000D01*
X145030302Y-109756673D01*
X144851673Y-109935301D01*
X144755000Y-110168690D01*
X137173674Y-110168690D01*
X137153162Y-110059683D01*
X137014090Y-109843559D01*
X136801890Y-109698569D01*
X136550000Y-109647560D01*
X135051194Y-109647560D01*
X135109698Y-109623327D01*
X135288327Y-109444699D01*
X135385000Y-109211310D01*
X135385000Y-108870750D01*
X135226250Y-108712000D01*
X134327000Y-108712000D01*
X134327000Y-109561250D01*
X134485750Y-109720000D01*
X134770918Y-109720000D01*
X134598559Y-109830910D01*
X134460477Y-110033000D01*
X134315000Y-110033000D01*
X134023395Y-110091004D01*
X133794500Y-110243947D01*
X133794500Y-109720000D01*
X133914250Y-109720000D01*
X134073000Y-109561250D01*
X134073000Y-108712000D01*
X134053000Y-108712000D01*
X134053000Y-108458000D01*
X134073000Y-108458000D01*
X134073000Y-107608750D01*
X134327000Y-107608750D01*
X134327000Y-108458000D01*
X135226250Y-108458000D01*
X135385000Y-108299250D01*
X135385000Y-107958690D01*
X135288327Y-107725301D01*
X135109698Y-107546673D01*
X135022973Y-107510750D01*
X138235000Y-107510750D01*
X138235000Y-108101309D01*
X138331673Y-108334698D01*
X138510301Y-108513327D01*
X138743690Y-108610000D01*
X139084250Y-108610000D01*
X139243000Y-108451250D01*
X139243000Y-107352000D01*
X139497000Y-107352000D01*
X139497000Y-108451250D01*
X139655750Y-108610000D01*
X139996310Y-108610000D01*
X140229699Y-108513327D01*
X140408327Y-108334698D01*
X140505000Y-108101309D01*
X140505000Y-107510750D01*
X140346250Y-107352000D01*
X139497000Y-107352000D01*
X139243000Y-107352000D01*
X138393750Y-107352000D01*
X138235000Y-107510750D01*
X135022973Y-107510750D01*
X134876309Y-107450000D01*
X134485750Y-107450000D01*
X134327000Y-107608750D01*
X134073000Y-107608750D01*
X133914250Y-107450000D01*
X133523691Y-107450000D01*
X133398827Y-107501721D01*
X132245797Y-106348691D01*
X138235000Y-106348691D01*
X138235000Y-106939250D01*
X138393750Y-107098000D01*
X139243000Y-107098000D01*
X139243000Y-105998750D01*
X139084250Y-105840000D01*
X138743690Y-105840000D01*
X138510301Y-105936673D01*
X138331673Y-106115302D01*
X138235000Y-106348691D01*
X132245797Y-106348691D01*
X130937000Y-105039894D01*
X130937000Y-101250750D01*
X131315000Y-101250750D01*
X131315000Y-101591310D01*
X131411673Y-101824699D01*
X131590302Y-102003327D01*
X131823691Y-102100000D01*
X132214250Y-102100000D01*
X132373000Y-101941250D01*
X132373000Y-101092000D01*
X131473750Y-101092000D01*
X131315000Y-101250750D01*
X130937000Y-101250750D01*
X130937000Y-100645630D01*
X131365247Y-100217383D01*
X131315000Y-100338690D01*
X131315000Y-100679250D01*
X131473750Y-100838000D01*
X132373000Y-100838000D01*
X132373000Y-99988750D01*
X132214250Y-99830000D01*
X131929082Y-99830000D01*
X132101441Y-99719090D01*
X132246431Y-99506890D01*
X132297440Y-99255000D01*
X132297440Y-98255000D01*
X132253162Y-98019683D01*
X132114090Y-97803559D01*
X131901890Y-97658569D01*
X131650000Y-97607560D01*
X130302000Y-97607560D01*
X130302000Y-96690000D01*
X130614250Y-96690000D01*
X130773000Y-96531250D01*
X130773000Y-95682000D01*
X131027000Y-95682000D01*
X131027000Y-96531250D01*
X131185750Y-96690000D01*
X131776309Y-96690000D01*
X132009698Y-96593327D01*
X132188327Y-96414699D01*
X132285000Y-96181310D01*
X132285000Y-95840750D01*
X132126250Y-95682000D01*
X131027000Y-95682000D01*
X130773000Y-95682000D01*
X130753000Y-95682000D01*
X130753000Y-95428000D01*
X130773000Y-95428000D01*
X130773000Y-94578750D01*
X131027000Y-94578750D01*
X131027000Y-95428000D01*
X132126250Y-95428000D01*
X132285000Y-95269250D01*
X132285000Y-94928690D01*
X132188327Y-94695301D01*
X132009698Y-94516673D01*
X131776309Y-94420000D01*
X131185750Y-94420000D01*
X131027000Y-94578750D01*
X130773000Y-94578750D01*
X130614250Y-94420000D01*
X130302000Y-94420000D01*
X130302000Y-88008691D01*
X136025000Y-88008691D01*
X136025000Y-88399250D01*
X136183750Y-88558000D01*
X137033000Y-88558000D01*
X137033000Y-87658750D01*
X136874250Y-87500000D01*
X136533690Y-87500000D01*
X136300301Y-87596673D01*
X136121673Y-87775302D01*
X136025000Y-88008691D01*
X130302000Y-88008691D01*
X130302000Y-85852000D01*
X136795821Y-85852000D01*
X136677594Y-86136720D01*
X136677594Y-86136720D01*
G37*
X136677594Y-86136720D02*
X136677207Y-86581329D01*
X136846992Y-86992242D01*
X137161104Y-87306903D01*
X137571720Y-87477406D01*
X137835005Y-87477635D01*
X137907617Y-87550247D01*
X137786310Y-87500000D01*
X137445750Y-87500000D01*
X137287000Y-87658750D01*
X137287000Y-88558000D01*
X138136250Y-88558000D01*
X138295000Y-88399250D01*
X138295000Y-88114082D01*
X138405910Y-88286441D01*
X138618110Y-88431431D01*
X138870000Y-88482440D01*
X139870000Y-88482440D01*
X140105317Y-88438162D01*
X140321441Y-88299090D01*
X140466431Y-88086890D01*
X140517440Y-87835000D01*
X140517440Y-87370750D01*
X141435000Y-87370750D01*
X141435000Y-87961309D01*
X141531673Y-88194698D01*
X141710301Y-88373327D01*
X141943690Y-88470000D01*
X142284250Y-88470000D01*
X142443000Y-88311250D01*
X142443000Y-87212000D01*
X142697000Y-87212000D01*
X142697000Y-88311250D01*
X142855750Y-88470000D01*
X143196310Y-88470000D01*
X143429699Y-88373327D01*
X143608327Y-88194698D01*
X143705000Y-87961309D01*
X143705000Y-87370750D01*
X143546250Y-87212000D01*
X142697000Y-87212000D01*
X142443000Y-87212000D01*
X141593750Y-87212000D01*
X141435000Y-87370750D01*
X140517440Y-87370750D01*
X140517440Y-86335000D01*
X140473162Y-86099683D01*
X140334090Y-85883559D01*
X140287902Y-85852000D01*
X141654974Y-85852000D01*
X141531673Y-85975302D01*
X141435000Y-86208691D01*
X141435000Y-86799250D01*
X141593750Y-86958000D01*
X142443000Y-86958000D01*
X142443000Y-86938000D01*
X142697000Y-86938000D01*
X142697000Y-86958000D01*
X143546250Y-86958000D01*
X143705000Y-86799250D01*
X143705000Y-86208691D01*
X143608327Y-85975302D01*
X143485026Y-85852000D01*
X151638000Y-85852000D01*
X151638000Y-94407560D01*
X150291194Y-94407560D01*
X150349698Y-94383327D01*
X150528327Y-94204699D01*
X150625000Y-93971310D01*
X150625000Y-93630750D01*
X150466250Y-93472000D01*
X149567000Y-93472000D01*
X149567000Y-94321250D01*
X149725750Y-94480000D01*
X150010918Y-94480000D01*
X149838559Y-94590910D01*
X149693569Y-94803110D01*
X149642560Y-95055000D01*
X149642560Y-96055000D01*
X149686838Y-96290317D01*
X149722997Y-96346509D01*
X149548097Y-96521104D01*
X149377594Y-96931720D01*
X149377207Y-97376329D01*
X149546992Y-97787242D01*
X149723283Y-97963841D01*
X149655000Y-98128690D01*
X149655000Y-98469250D01*
X149813750Y-98628000D01*
X150913000Y-98628000D01*
X150913000Y-98608000D01*
X151167000Y-98608000D01*
X151167000Y-98628000D01*
X151187000Y-98628000D01*
X151187000Y-98882000D01*
X151167000Y-98882000D01*
X151167000Y-99731250D01*
X151325750Y-99890000D01*
X151638000Y-99890000D01*
X151638000Y-103775821D01*
X151353280Y-103657594D01*
X151089996Y-103657365D01*
X149034500Y-101601870D01*
X149034500Y-99040750D01*
X149655000Y-99040750D01*
X149655000Y-99381310D01*
X149751673Y-99614699D01*
X149930302Y-99793327D01*
X150163691Y-99890000D01*
X150754250Y-99890000D01*
X150913000Y-99731250D01*
X150913000Y-98882000D01*
X149813750Y-98882000D01*
X149655000Y-99040750D01*
X149034500Y-99040750D01*
X149034500Y-94480000D01*
X149154250Y-94480000D01*
X149313000Y-94321250D01*
X149313000Y-93472000D01*
X149293000Y-93472000D01*
X149293000Y-93218000D01*
X149313000Y-93218000D01*
X149313000Y-92368750D01*
X149567000Y-92368750D01*
X149567000Y-93218000D01*
X150466250Y-93218000D01*
X150625000Y-93059250D01*
X150625000Y-92718690D01*
X150528327Y-92485301D01*
X150349698Y-92306673D01*
X150116309Y-92210000D01*
X149725750Y-92210000D01*
X149567000Y-92368750D01*
X149313000Y-92368750D01*
X149154250Y-92210000D01*
X149034500Y-92210000D01*
X149034500Y-91757500D01*
X149024494Y-91708090D01*
X148997303Y-91667697D01*
X146457303Y-89127697D01*
X146415289Y-89099834D01*
X146367500Y-89090500D01*
X138295000Y-89090500D01*
X138295000Y-88970750D01*
X138136250Y-88812000D01*
X137287000Y-88812000D01*
X137287000Y-88832000D01*
X137033000Y-88832000D01*
X137033000Y-88812000D01*
X136183750Y-88812000D01*
X136025000Y-88970750D01*
X136025000Y-89090500D01*
X135572500Y-89090500D01*
X135523090Y-89100506D01*
X135482697Y-89127697D01*
X132942697Y-91667697D01*
X132914834Y-91709711D01*
X132905500Y-91757500D01*
X132905500Y-99830000D01*
X132785750Y-99830000D01*
X132627000Y-99988750D01*
X132627000Y-100838000D01*
X132647000Y-100838000D01*
X132647000Y-101092000D01*
X132627000Y-101092000D01*
X132627000Y-101941250D01*
X132785750Y-102100000D01*
X132905500Y-102100000D01*
X132905500Y-103822500D01*
X132915506Y-103871910D01*
X132942697Y-103912303D01*
X134212697Y-105182303D01*
X134254711Y-105210166D01*
X134302500Y-105219500D01*
X140215036Y-105219500D01*
X140023097Y-105411104D01*
X139852594Y-105821720D01*
X139852578Y-105840000D01*
X139655750Y-105840000D01*
X139497000Y-105998750D01*
X139497000Y-107098000D01*
X140346250Y-107098000D01*
X140418241Y-107026009D01*
X140746720Y-107162406D01*
X141010005Y-107162635D01*
X141422560Y-107575190D01*
X141422560Y-107975000D01*
X141466838Y-108210317D01*
X141605910Y-108426441D01*
X141818110Y-108571431D01*
X142070000Y-108622440D01*
X143070000Y-108622440D01*
X143305317Y-108578162D01*
X143521441Y-108439090D01*
X143666431Y-108226890D01*
X143717440Y-107975000D01*
X143717440Y-106476194D01*
X143741673Y-106534698D01*
X143920301Y-106713327D01*
X144153690Y-106810000D01*
X144494250Y-106810000D01*
X144653000Y-106651250D01*
X144653000Y-105752000D01*
X144907000Y-105752000D01*
X144907000Y-106651250D01*
X145065750Y-106810000D01*
X145406310Y-106810000D01*
X145639699Y-106713327D01*
X145818327Y-106534698D01*
X145915000Y-106301309D01*
X145915000Y-105910750D01*
X145756250Y-105752000D01*
X144907000Y-105752000D01*
X144653000Y-105752000D01*
X143803750Y-105752000D01*
X143645000Y-105910750D01*
X143645000Y-106195918D01*
X143534090Y-106023559D01*
X143321890Y-105878569D01*
X143070000Y-105827560D01*
X142087790Y-105827560D01*
X142087793Y-105823671D01*
X141918008Y-105412758D01*
X141725087Y-105219500D01*
X143645000Y-105219500D01*
X143645000Y-105339250D01*
X143803750Y-105498000D01*
X144653000Y-105498000D01*
X144653000Y-105478000D01*
X144907000Y-105478000D01*
X144907000Y-105498000D01*
X145756250Y-105498000D01*
X145915000Y-105339250D01*
X145915000Y-105219500D01*
X146314894Y-105219500D01*
X148145500Y-107050106D01*
X148145500Y-112547565D01*
X147733671Y-112547207D01*
X147322758Y-112716992D01*
X147141037Y-112898396D01*
X146890000Y-112847560D01*
X145390000Y-112847560D01*
X145154683Y-112891838D01*
X144938559Y-113030910D01*
X144793569Y-113243110D01*
X144742560Y-113495000D01*
X144742560Y-114495000D01*
X144786838Y-114730317D01*
X144925910Y-114946441D01*
X145138110Y-115091431D01*
X145390000Y-115142440D01*
X146888806Y-115142440D01*
X146830302Y-115166673D01*
X146651673Y-115345301D01*
X146555000Y-115578690D01*
X146555000Y-115919250D01*
X146713750Y-116078000D01*
X147613000Y-116078000D01*
X147613000Y-115228750D01*
X147454250Y-115070000D01*
X147169082Y-115070000D01*
X147341441Y-114959090D01*
X147479523Y-114757000D01*
X147625000Y-114757000D01*
X147655787Y-114750876D01*
X147731720Y-114782406D01*
X148145500Y-114782766D01*
X148145500Y-115070000D01*
X148025750Y-115070000D01*
X147867000Y-115228750D01*
X147867000Y-116078000D01*
X147887000Y-116078000D01*
X147887000Y-116332000D01*
X147867000Y-116332000D01*
X147867000Y-117181250D01*
X147968072Y-117282322D01*
X145679894Y-119570500D01*
X140817435Y-119570500D01*
X140817793Y-119158671D01*
X140648008Y-118747758D01*
X140466604Y-118566037D01*
X140517440Y-118315000D01*
X140517440Y-117850750D01*
X141435000Y-117850750D01*
X141435000Y-118441309D01*
X141531673Y-118674698D01*
X141710301Y-118853327D01*
X141943690Y-118950000D01*
X142284250Y-118950000D01*
X142443000Y-118791250D01*
X142443000Y-117692000D01*
X142697000Y-117692000D01*
X142697000Y-118791250D01*
X142855750Y-118950000D01*
X143196310Y-118950000D01*
X143429699Y-118853327D01*
X143608327Y-118674698D01*
X143705000Y-118441309D01*
X143705000Y-117850750D01*
X143546250Y-117692000D01*
X142697000Y-117692000D01*
X142443000Y-117692000D01*
X141593750Y-117692000D01*
X141435000Y-117850750D01*
X140517440Y-117850750D01*
X140517440Y-116815000D01*
X140493674Y-116688691D01*
X141435000Y-116688691D01*
X141435000Y-117279250D01*
X141593750Y-117438000D01*
X142443000Y-117438000D01*
X142443000Y-116338750D01*
X142697000Y-116338750D01*
X142697000Y-117438000D01*
X143546250Y-117438000D01*
X143705000Y-117279250D01*
X143705000Y-116688691D01*
X143623011Y-116490750D01*
X146555000Y-116490750D01*
X146555000Y-116831310D01*
X146651673Y-117064699D01*
X146830302Y-117243327D01*
X147063691Y-117340000D01*
X147454250Y-117340000D01*
X147613000Y-117181250D01*
X147613000Y-116332000D01*
X146713750Y-116332000D01*
X146555000Y-116490750D01*
X143623011Y-116490750D01*
X143608327Y-116455302D01*
X143429699Y-116276673D01*
X143196310Y-116180000D01*
X142855750Y-116180000D01*
X142697000Y-116338750D01*
X142443000Y-116338750D01*
X142284250Y-116180000D01*
X141943690Y-116180000D01*
X141710301Y-116276673D01*
X141531673Y-116455302D01*
X141435000Y-116688691D01*
X140493674Y-116688691D01*
X140473162Y-116579683D01*
X140334090Y-116363559D01*
X140121890Y-116218569D01*
X139870000Y-116167560D01*
X138870000Y-116167560D01*
X138634683Y-116211838D01*
X138418559Y-116350910D01*
X138273569Y-116563110D01*
X138222560Y-116815000D01*
X138222560Y-118313806D01*
X138198327Y-118255302D01*
X138019699Y-118076673D01*
X137786310Y-117980000D01*
X137445750Y-117980000D01*
X137287000Y-118138750D01*
X137287000Y-119038000D01*
X138136250Y-119038000D01*
X138295000Y-118879250D01*
X138295000Y-118594082D01*
X138405910Y-118766441D01*
X138608000Y-118904523D01*
X138608000Y-119050000D01*
X138614124Y-119080787D01*
X138582594Y-119156720D01*
X138582234Y-119570500D01*
X138295000Y-119570500D01*
X138295000Y-119450750D01*
X138136250Y-119292000D01*
X137287000Y-119292000D01*
X137287000Y-119312000D01*
X137033000Y-119312000D01*
X137033000Y-119292000D01*
X136183750Y-119292000D01*
X136082678Y-119393072D01*
X135178297Y-118488691D01*
X136025000Y-118488691D01*
X136025000Y-118879250D01*
X136183750Y-119038000D01*
X137033000Y-119038000D01*
X137033000Y-118138750D01*
X136874250Y-117980000D01*
X136533690Y-117980000D01*
X136300301Y-118076673D01*
X136121673Y-118255302D01*
X136025000Y-118488691D01*
X135178297Y-118488691D01*
X133794500Y-117104894D01*
X133794500Y-114280750D01*
X134415000Y-114280750D01*
X134415000Y-114621310D01*
X134511673Y-114854699D01*
X134690302Y-115033327D01*
X134923691Y-115130000D01*
X135514250Y-115130000D01*
X135673000Y-114971250D01*
X135673000Y-114122000D01*
X135927000Y-114122000D01*
X135927000Y-114971250D01*
X136085750Y-115130000D01*
X136676309Y-115130000D01*
X136909698Y-115033327D01*
X137088327Y-114854699D01*
X137185000Y-114621310D01*
X137185000Y-114280750D01*
X137026250Y-114122000D01*
X135927000Y-114122000D01*
X135673000Y-114122000D01*
X134573750Y-114122000D01*
X134415000Y-114280750D01*
X133794500Y-114280750D01*
X133794500Y-113512435D01*
X134206329Y-113512793D01*
X134415000Y-113426572D01*
X134415000Y-113709250D01*
X134573750Y-113868000D01*
X135673000Y-113868000D01*
X135673000Y-113018750D01*
X135927000Y-113018750D01*
X135927000Y-113868000D01*
X137026250Y-113868000D01*
X137185000Y-113709250D01*
X137185000Y-113368690D01*
X137088327Y-113135301D01*
X136909698Y-112956673D01*
X136676309Y-112860000D01*
X136085750Y-112860000D01*
X135927000Y-113018750D01*
X135673000Y-113018750D01*
X135514250Y-112860000D01*
X135002035Y-112860000D01*
X135102406Y-112618280D01*
X135102793Y-112173671D01*
X135003347Y-111932993D01*
X135050000Y-111942440D01*
X136550000Y-111942440D01*
X136785317Y-111898162D01*
X137001441Y-111759090D01*
X137146431Y-111546890D01*
X137197440Y-111295000D01*
X137197440Y-111080750D01*
X144755000Y-111080750D01*
X144755000Y-111421310D01*
X144851673Y-111654699D01*
X145030302Y-111833327D01*
X145263691Y-111930000D01*
X145854250Y-111930000D01*
X146013000Y-111771250D01*
X146013000Y-110922000D01*
X146267000Y-110922000D01*
X146267000Y-111771250D01*
X146425750Y-111930000D01*
X147016309Y-111930000D01*
X147249698Y-111833327D01*
X147428327Y-111654699D01*
X147525000Y-111421310D01*
X147525000Y-111080750D01*
X147366250Y-110922000D01*
X146267000Y-110922000D01*
X146013000Y-110922000D01*
X144913750Y-110922000D01*
X144755000Y-111080750D01*
X137197440Y-111080750D01*
X137197440Y-110295000D01*
X137173674Y-110168690D01*
X144755000Y-110168690D01*
X144755000Y-110509250D01*
X144913750Y-110668000D01*
X146013000Y-110668000D01*
X146013000Y-109818750D01*
X146267000Y-109818750D01*
X146267000Y-110668000D01*
X147366250Y-110668000D01*
X147525000Y-110509250D01*
X147525000Y-110168690D01*
X147428327Y-109935301D01*
X147249698Y-109756673D01*
X147016309Y-109660000D01*
X146425750Y-109660000D01*
X146267000Y-109818750D01*
X146013000Y-109818750D01*
X145854250Y-109660000D01*
X145263691Y-109660000D01*
X145030302Y-109756673D01*
X144851673Y-109935301D01*
X144755000Y-110168690D01*
X137173674Y-110168690D01*
X137153162Y-110059683D01*
X137014090Y-109843559D01*
X136801890Y-109698569D01*
X136550000Y-109647560D01*
X135051194Y-109647560D01*
X135109698Y-109623327D01*
X135288327Y-109444699D01*
X135385000Y-109211310D01*
X135385000Y-108870750D01*
X135226250Y-108712000D01*
X134327000Y-108712000D01*
X134327000Y-109561250D01*
X134485750Y-109720000D01*
X134770918Y-109720000D01*
X134598559Y-109830910D01*
X134460477Y-110033000D01*
X134315000Y-110033000D01*
X134023395Y-110091004D01*
X133794500Y-110243947D01*
X133794500Y-109720000D01*
X133914250Y-109720000D01*
X134073000Y-109561250D01*
X134073000Y-108712000D01*
X134053000Y-108712000D01*
X134053000Y-108458000D01*
X134073000Y-108458000D01*
X134073000Y-107608750D01*
X134327000Y-107608750D01*
X134327000Y-108458000D01*
X135226250Y-108458000D01*
X135385000Y-108299250D01*
X135385000Y-107958690D01*
X135288327Y-107725301D01*
X135109698Y-107546673D01*
X135022973Y-107510750D01*
X138235000Y-107510750D01*
X138235000Y-108101309D01*
X138331673Y-108334698D01*
X138510301Y-108513327D01*
X138743690Y-108610000D01*
X139084250Y-108610000D01*
X139243000Y-108451250D01*
X139243000Y-107352000D01*
X139497000Y-107352000D01*
X139497000Y-108451250D01*
X139655750Y-108610000D01*
X139996310Y-108610000D01*
X140229699Y-108513327D01*
X140408327Y-108334698D01*
X140505000Y-108101309D01*
X140505000Y-107510750D01*
X140346250Y-107352000D01*
X139497000Y-107352000D01*
X139243000Y-107352000D01*
X138393750Y-107352000D01*
X138235000Y-107510750D01*
X135022973Y-107510750D01*
X134876309Y-107450000D01*
X134485750Y-107450000D01*
X134327000Y-107608750D01*
X134073000Y-107608750D01*
X133914250Y-107450000D01*
X133523691Y-107450000D01*
X133398827Y-107501721D01*
X132245797Y-106348691D01*
X138235000Y-106348691D01*
X138235000Y-106939250D01*
X138393750Y-107098000D01*
X139243000Y-107098000D01*
X139243000Y-105998750D01*
X139084250Y-105840000D01*
X138743690Y-105840000D01*
X138510301Y-105936673D01*
X138331673Y-106115302D01*
X138235000Y-106348691D01*
X132245797Y-106348691D01*
X130937000Y-105039894D01*
X130937000Y-101250750D01*
X131315000Y-101250750D01*
X131315000Y-101591310D01*
X131411673Y-101824699D01*
X131590302Y-102003327D01*
X131823691Y-102100000D01*
X132214250Y-102100000D01*
X132373000Y-101941250D01*
X132373000Y-101092000D01*
X131473750Y-101092000D01*
X131315000Y-101250750D01*
X130937000Y-101250750D01*
X130937000Y-100645630D01*
X131365247Y-100217383D01*
X131315000Y-100338690D01*
X131315000Y-100679250D01*
X131473750Y-100838000D01*
X132373000Y-100838000D01*
X132373000Y-99988750D01*
X132214250Y-99830000D01*
X131929082Y-99830000D01*
X132101441Y-99719090D01*
X132246431Y-99506890D01*
X132297440Y-99255000D01*
X132297440Y-98255000D01*
X132253162Y-98019683D01*
X132114090Y-97803559D01*
X131901890Y-97658569D01*
X131650000Y-97607560D01*
X130302000Y-97607560D01*
X130302000Y-96690000D01*
X130614250Y-96690000D01*
X130773000Y-96531250D01*
X130773000Y-95682000D01*
X131027000Y-95682000D01*
X131027000Y-96531250D01*
X131185750Y-96690000D01*
X131776309Y-96690000D01*
X132009698Y-96593327D01*
X132188327Y-96414699D01*
X132285000Y-96181310D01*
X132285000Y-95840750D01*
X132126250Y-95682000D01*
X131027000Y-95682000D01*
X130773000Y-95682000D01*
X130753000Y-95682000D01*
X130753000Y-95428000D01*
X130773000Y-95428000D01*
X130773000Y-94578750D01*
X131027000Y-94578750D01*
X131027000Y-95428000D01*
X132126250Y-95428000D01*
X132285000Y-95269250D01*
X132285000Y-94928690D01*
X132188327Y-94695301D01*
X132009698Y-94516673D01*
X131776309Y-94420000D01*
X131185750Y-94420000D01*
X131027000Y-94578750D01*
X130773000Y-94578750D01*
X130614250Y-94420000D01*
X130302000Y-94420000D01*
X130302000Y-88008691D01*
X136025000Y-88008691D01*
X136025000Y-88399250D01*
X136183750Y-88558000D01*
X137033000Y-88558000D01*
X137033000Y-87658750D01*
X136874250Y-87500000D01*
X136533690Y-87500000D01*
X136300301Y-87596673D01*
X136121673Y-87775302D01*
X136025000Y-88008691D01*
X130302000Y-88008691D01*
X130302000Y-85852000D01*
X136795821Y-85852000D01*
X136677594Y-86136720D01*
D22*
X137795000Y-100965000D03*
X137795000Y-102235000D03*
X137795000Y-103505000D03*
X136525000Y-102235000D03*
X136525000Y-103505000D03*
X145415000Y-102235000D03*
X144145000Y-100965000D03*
X144145000Y-102235000D03*
X137160000Y-93345000D03*
X135890000Y-93345000D03*
X134620000Y-93345000D03*
X134620000Y-92075000D03*
X135890000Y-92075000D03*
X137160000Y-92075000D03*
X145415000Y-123190000D03*
X146685000Y-121920000D03*
X147955000Y-120650000D03*
X149225000Y-119380000D03*
X150495000Y-118110000D03*
X136525000Y-123190000D03*
X131445000Y-118110000D03*
X132715000Y-119380000D03*
X133985000Y-120650000D03*
X135255000Y-121920000D03*
X136525000Y-107315000D03*
X136525000Y-106045000D03*
X137795000Y-106045000D03*
X137795000Y-107315000D03*
X137795000Y-108585000D03*
X144780000Y-116205000D03*
X146050000Y-116205000D03*
X146050000Y-117475000D03*
X144780000Y-117475000D03*
X135890000Y-117475000D03*
X135890000Y-116205000D03*
X137160000Y-116205000D03*
X137160000Y-117475000D03*
X144780000Y-87630000D03*
X146050000Y-87630000D03*
X146050000Y-86360000D03*
X144780000Y-86360000D03*
X132080000Y-90805000D03*
X130810000Y-90805000D03*
X130810000Y-92075000D03*
X130810000Y-93345000D03*
X149860000Y-90805000D03*
X151130000Y-90805000D03*
X151130000Y-92075000D03*
X151130000Y-93345000D03*
X150495000Y-97155000D03*
X144145000Y-92710000D03*
X137795000Y-86360000D03*
X147955000Y-113665000D03*
X151130000Y-104775000D03*
X151129978Y-106680000D03*
X139700000Y-119380000D03*
X140970000Y-121920000D03*
X133985000Y-112395000D03*
X130810000Y-116205000D03*
X130810000Y-106680000D03*
X135255000Y-97155000D03*
X140970000Y-106045000D03*
X140970000Y-103505000D03*
X140970000Y-112395000D03*
X140970000Y-110490000D03*
X139320222Y-111442500D03*
X139320222Y-113347500D03*
X140970000Y-114300000D03*
X142619778Y-113347500D03*
X142619778Y-111442500D03*
X140970000Y-97155000D03*
X140970000Y-95250000D03*
X139320222Y-96202500D03*
X139320222Y-98107500D03*
X140970000Y-99060000D03*
X142619778Y-98107500D03*
X142619778Y-96202500D03*
M02*
