M48
INCH,TZ
T1C0.0160
T2C0.0200
T3C0.0315
T4C0.0394
T5C0.0591
T6C0.1160
T7C0.0300
T8C0.0394
T9C0.0512
%
G90
G05
T1
X33500Y-26000
X35000Y-25500
X35647Y-20495
X35647Y-20995
X35750Y-26250
X35750Y-26750
X36250Y-25750
X36250Y-26250
X37230Y-25235
X37230Y-25635
X37750Y-30500
X38000Y-19750
X38125Y-21625
X38625Y-21625
X38750Y-19750
X39750Y-27250
X40500Y-27500
X42250Y-22000
X44000Y-19500
X44500Y-29750
X44750Y-22750
X44750Y-46500
X45000Y-29750
X45250Y-47500
X45500Y-23000
X45500Y-24000
X45500Y-27750
X45600Y-46650
X45750Y-25500
X46000Y-21500
X46250Y-23000
X46750Y-23000
X46750Y-24000
X46750Y-27250
X47250Y-21250
X47250Y-26750
X47250Y-29750
X48250Y-21250
X48500Y-47000
X49000Y-21250
X49000Y-28250
X49250Y-22750
X49250Y-25000
X49500Y-26500
X49500Y-29500
X49500Y-42500
X49750Y-21500
X49750Y-23000
X49750Y-23500
X50000Y-27750
X50000Y-30500
X50250Y-21500
X50500Y-24000
X50500Y-24500
X50500Y-25000
X50500Y-30000
X50750Y-22750
X50750Y-27000
X50750Y-43000
X50750Y-44500
X50750Y-49000
X51000Y-19750
X51000Y-20500
X51000Y-24000
X51000Y-45000
X51250Y-27250
X51250Y-44000
X51250Y-44500
X51500Y-30750
X51500Y-31250
X51500Y-46500
X51500Y-50000
X51750Y-19750
X52000Y-24750
X52000Y-25500
X52250Y-27750
X52500Y-17750
X52500Y-23000
X52500Y-25250
X52500Y-29250
X52500Y-43500
X52750Y-18250
X52750Y-49000
X52750Y-50250
X53000Y-20000
X53000Y-21000
X53000Y-24750
X53000Y-41500
X53500Y-50500
X53750Y-27000
X53750Y-42000
X54000Y-25250
X54112Y-27612
X54250Y-21250
X54250Y-24750
X54250Y-25750
X55250Y-40750
X55500Y-23750
X55750Y-24750
X55750Y-25250
X55750Y-29000
X56250Y-50000
X56500Y-31250
X57750Y-30750
X58500Y-18750
X58750Y-40250
X58750Y-45000
X59750Y-31250
X59750Y-43750
X60250Y-31250
X60250Y-45000
X60250Y-45500
X60750Y-27250
X60750Y-27750
X61000Y-45250
X61250Y-28250
X61500Y-29250
X61750Y-30000
X62000Y-22000
X62250Y-29750
X62500Y-21500
X62750Y-24500
X62750Y-30750
X62750Y-31250
X63000Y-28750
X63250Y-25000
X63750Y-29000
X64250Y-30000
X64250Y-30750
X65250Y-24500
X65250Y-25000
X65750Y-25000
X67500Y-26750
X67750Y-24750
T2
X30250Y-19500
X30250Y-20250
X31250Y-19500
X31250Y-20250
X32250Y-22750
X32250Y-23250
X32250Y-23750
X32750Y-19500
X32750Y-20250
X32750Y-21000
X33000Y-26250
X33000Y-27250
X33250Y-29500
X34750Y-19500
X34750Y-20250
X34750Y-21000
X35250Y-23250
X36000Y-32250
X36250Y-25250
X36750Y-22250
X36750Y-29500
X37250Y-22750
X37500Y-31250
X37500Y-31750
X38500Y-23000
X38500Y-24500
X38500Y-25750
X38750Y-27500
X40500Y-21000
X40500Y-26500
X40500Y-28250
X40500Y-29000
X41500Y-31500
X42500Y-51500
X43000Y-51500
X43750Y-20000
X43750Y-32250
X44250Y-32250
X44500Y-26250
X44500Y-50250
X44750Y-21750
X45000Y-21000
X45000Y-28750
X45000Y-48000
X45000Y-49750
X45500Y-29750
X45500Y-31000
X45500Y-31750
X45750Y-51750
X46000Y-28750
X46000Y-48250
X46000Y-49750
X46500Y-47000
X46500Y-48000
X46750Y-21250
X47000Y-48250
X47000Y-49750
X47250Y-51750
X47500Y-38250
X47500Y-39000
X47750Y-21250
X47750Y-23250
X47750Y-24750
X47750Y-26750
X47750Y-28500
X47750Y-41250
X47750Y-42500
X47750Y-48000
X48000Y-46000
X48250Y-51250
X48500Y-50750
X48750Y-51250
X49000Y-42500
X49000Y-44500
X49250Y-45000
X49250Y-47750
X49250Y-51250
X49500Y-45750
X50000Y-21000
X50250Y-48000
X50500Y-19250
X51250Y-21000
X51250Y-27750
X51250Y-38250
X51250Y-40500
X51250Y-43500
X51500Y-30250
X52000Y-46500
X52000Y-48500
X52250Y-40750
X52500Y-41250
X52900Y-44400
X53250Y-20500
X53250Y-46250
X54000Y-26250
X54000Y-38250
X54000Y-39000
X54000Y-40000
X54000Y-40750
X54250Y-42500
X54250Y-45250
X54250Y-45750
X54500Y-19250
X54500Y-43250
X54750Y-40000
X55000Y-44000
X55000Y-47750
X55000Y-48250
X55000Y-48750
X55500Y-20250
X55500Y-20750
X55500Y-21250
X55750Y-22000
X55750Y-22500
X55750Y-28000
X55750Y-30250
X56000Y-41250
X56000Y-42000
X56250Y-46000
X56250Y-46500
X56750Y-43250
X57250Y-19500
X57250Y-20000
X57250Y-20500
X57500Y-24000
X57500Y-28000
X57500Y-40000
X57500Y-47750
X57500Y-48250
X57500Y-48750
X58000Y-29000
X58000Y-30250
X58250Y-48250
X58250Y-48750
X58250Y-49250
X58500Y-22000
X58500Y-22500
X58500Y-43500
X58750Y-20250
X58750Y-20750
X58750Y-21250
X58750Y-39500
X58750Y-41750
X58750Y-42500
X58750Y-44500
X58750Y-46250
X58750Y-47250
X59750Y-21750
X59750Y-42500
X59750Y-44250
X59750Y-44750
X59750Y-46250
X59750Y-47250
X60750Y-48250
X60750Y-48750
X60750Y-49250
X61500Y-42500
X61500Y-47250
X61750Y-25000
X62250Y-50000
X62500Y-27750
X62500Y-32250
X62500Y-42500
X62500Y-43250
X62500Y-47250
X63500Y-20750
X63500Y-43250
X63500Y-47250
X64000Y-25000
X64000Y-44000
X64000Y-46500
X64250Y-28500
X64500Y-31250
X64750Y-29500
X65000Y-28500
X65500Y-43250
X65500Y-47250
X66250Y-26500
X68000Y-20750
X30721Y-29550
X30721Y-30450
X31500Y-29100
X31500Y-30900
X32279Y-29550
X32279Y-30450
X41221Y-19300
X41221Y-20200
X42000Y-18850
X42000Y-20650
X42779Y-19300
X42779Y-20200
X65721Y-29550
X65721Y-30450
X66500Y-29100
X66500Y-30900
X67279Y-29550
X67279Y-30450
T3
X60963Y-51250
X61750Y-51250
X62537Y-51250
X67000Y-44069
X67000Y-44856
X67000Y-45644
X67000Y-46431
X52744Y-51250
X53531Y-51250
X54319Y-51250
X55106Y-51250
X55894Y-51250
X56681Y-51250
X57469Y-51250
X58256Y-51250
X64250Y-48606
X64250Y-49394
T4
X42750Y-22750
X42750Y-23750
X42750Y-24750
X42750Y-25750
X42750Y-26750
X42750Y-27750
X42750Y-28750
X42750Y-29750
X43750Y-22750
X43750Y-23750
X43750Y-24750
X43750Y-25750
X43750Y-26750
X43750Y-27750
X43750Y-28750
X43750Y-29750
X63000Y-45250
X55000Y-38750
X56000Y-38750
X57000Y-38750
X58000Y-38750
X42750Y-43250
X42750Y-44250
X42750Y-45250
X42750Y-46250
X42750Y-47250
X42750Y-48250
X42750Y-49250
X42750Y-50250
X43750Y-43250
X43750Y-44250
X43750Y-45250
X43750Y-46250
X43750Y-47250
X43750Y-48250
X43750Y-49250
X43750Y-50250
X66750Y-27750
X67750Y-27750
X30250Y-26250
X30250Y-27250
X31250Y-26250
X31250Y-27250
X32250Y-26250
X32250Y-27250
X66750Y-48250
X67750Y-48250
X41250Y-26500
X41250Y-27500
X41250Y-28500
X41250Y-29500
X55000Y-18250
X56000Y-18250
X57000Y-18250
X58000Y-18250
X30500Y-22750
X30500Y-23750
X30500Y-24750
X31500Y-22750
X31500Y-23750
X31500Y-24750
X52500Y-30000
X52500Y-31000
X53500Y-30000
X53500Y-31000
X54500Y-30000
X54500Y-31000
X33970Y-28614
X33970Y-30386
X36530Y-28614
X36530Y-30386
T5
X63810Y-23330
T6
X42000Y-19750
X66500Y-30000
X31500Y-30000
T7
X45000Y-36900
X45000Y-37600
X45500Y-36900
X45500Y-37600
X46000Y-36900
X46000Y-37600
X35750Y-32900
X35750Y-33600
X36250Y-32900
X36250Y-33600
X36750Y-32900
X36750Y-33600
X64250Y-36900
X64750Y-36900
X65250Y-36900
X56500Y-36900
X56500Y-37600
X57000Y-36900
X57000Y-37600
X57500Y-36900
X57500Y-37600
X62750Y-32900
X62750Y-33600
X63250Y-32900
X63250Y-33600
X63750Y-32900
X63750Y-33600
X64250Y-40100
X64750Y-40100
X65250Y-40100
X44250Y-32900
X44250Y-33600
X44750Y-32900
X44750Y-33600
X45250Y-32900
X45250Y-33600
T8
X56148Y-23000
T9
X31159Y-18075
X32734Y-18075
X59081Y-23000
T0
M30
