G04 #@! TF.FileFunction,Copper,L2,Bot,Signal*
%FSLAX46Y46*%
G04 Gerber Fmt 4.6, Leading zero omitted, Abs format (unit mm)*
G04 Created by KiCad (PCBNEW (2016-05-03 BZR 6266)-product) date Thu Jul 21 03:13:36 2016*
%MOMM*%
%LPD*%
G01*
G04 APERTURE LIST*
%ADD10C,0.350000*%
%ADD11C,0.150000*%
%ADD12R,15.240000X12.700000*%
%ADD13R,20.320000X12.700000*%
%ADD14C,1.270000*%
%ADD15C,0.965200*%
%ADD16C,0.406400*%
%ADD17C,0.254000*%
%ADD18C,0.350000*%
G04 APERTURE END LIST*
D10*
D11*
X99060000Y-95758000D02*
X99060000Y-113538000D01*
X198120000Y-95758000D02*
X99060000Y-95758000D01*
X198120000Y-113538000D02*
X198120000Y-95758000D01*
X99060000Y-113538000D02*
X198120000Y-113538000D01*
D12*
X167640000Y-104648000D03*
X129540000Y-104648000D03*
D13*
X148590000Y-104648000D03*
D14*
X116840000Y-104013000D03*
X102235000Y-97663000D03*
X103505000Y-97663000D03*
X100330000Y-101473000D03*
X100330000Y-102743000D03*
X118110000Y-105283000D03*
X108585000Y-98933000D03*
X108584980Y-107823000D03*
D15*
X129540000Y-104648000D03*
X148590000Y-104648000D03*
X167640000Y-104648000D03*
X109855000Y-104013000D03*
X113030000Y-104013000D03*
D14*
X107315000Y-102743000D03*
X108585000Y-110998000D03*
D15*
X113665000Y-112268000D03*
X106045000Y-107188000D03*
D16*
X103505000Y-97663000D02*
X102235000Y-97663000D01*
X108585000Y-98933000D02*
X108585000Y-107822980D01*
X108585000Y-107822980D02*
X108584980Y-107823000D01*
D17*
X113030000Y-104013000D02*
X109855000Y-104013000D01*
D16*
X107315000Y-102743000D02*
X107315000Y-109728000D01*
X107315000Y-109728000D02*
X108585000Y-110998000D01*
D17*
X106045000Y-110363000D02*
X107950000Y-112268000D01*
X107950000Y-112268000D02*
X113665000Y-112268000D01*
X106045000Y-107188000D02*
X106045000Y-110363000D01*
G36*
X118618000Y-105791000D02*
X109321600Y-105791000D01*
X109321600Y-104891622D01*
X109652018Y-105028824D01*
X110056208Y-105029176D01*
X110429766Y-104874825D01*
X110631543Y-104673400D01*
X112253660Y-104673400D01*
X112453731Y-104873821D01*
X112827018Y-105028824D01*
X113231208Y-105029176D01*
X113604766Y-104874825D01*
X113890821Y-104589269D01*
X114045824Y-104215982D01*
X114046176Y-103811792D01*
X113891825Y-103438234D01*
X113606269Y-103152179D01*
X113232982Y-102997176D01*
X112828792Y-102996824D01*
X112455234Y-103151175D01*
X112253457Y-103352600D01*
X110631340Y-103352600D01*
X110431269Y-103152179D01*
X110057982Y-102997176D01*
X109653792Y-102996824D01*
X109321600Y-103134083D01*
X109321600Y-99848611D01*
X109574943Y-99595709D01*
X109753196Y-99166429D01*
X109753602Y-98701611D01*
X109576099Y-98272019D01*
X109247709Y-97943057D01*
X108818429Y-97764804D01*
X108353611Y-97764398D01*
X107924019Y-97941901D01*
X107595057Y-98270291D01*
X107416804Y-98699571D01*
X107416398Y-99164389D01*
X107593901Y-99593981D01*
X107848400Y-99848923D01*
X107848400Y-101699363D01*
X107548429Y-101574804D01*
X107083611Y-101574398D01*
X106654019Y-101751901D01*
X106325057Y-102080291D01*
X106146804Y-102509571D01*
X106146398Y-102974389D01*
X106323901Y-103403981D01*
X106578400Y-103658923D01*
X106578400Y-105791000D01*
X106045000Y-105791000D01*
X105995590Y-105801006D01*
X105953965Y-105829447D01*
X105926685Y-105871841D01*
X105918000Y-105918000D01*
X105918000Y-106171889D01*
X105843792Y-106171824D01*
X105470234Y-106326175D01*
X105184179Y-106611731D01*
X105029176Y-106985018D01*
X105028824Y-107389208D01*
X105183175Y-107762766D01*
X105384600Y-107964543D01*
X105384600Y-110363000D01*
X105434870Y-110615724D01*
X105578027Y-110829973D01*
X105918000Y-111169946D01*
X105918000Y-112776000D01*
X99822000Y-112776000D01*
X99822000Y-96520000D01*
X118618000Y-96520000D01*
X118618000Y-105791000D01*
X118618000Y-105791000D01*
G37*
X118618000Y-105791000D02*
X109321600Y-105791000D01*
X109321600Y-104891622D01*
X109652018Y-105028824D01*
X110056208Y-105029176D01*
X110429766Y-104874825D01*
X110631543Y-104673400D01*
X112253660Y-104673400D01*
X112453731Y-104873821D01*
X112827018Y-105028824D01*
X113231208Y-105029176D01*
X113604766Y-104874825D01*
X113890821Y-104589269D01*
X114045824Y-104215982D01*
X114046176Y-103811792D01*
X113891825Y-103438234D01*
X113606269Y-103152179D01*
X113232982Y-102997176D01*
X112828792Y-102996824D01*
X112455234Y-103151175D01*
X112253457Y-103352600D01*
X110631340Y-103352600D01*
X110431269Y-103152179D01*
X110057982Y-102997176D01*
X109653792Y-102996824D01*
X109321600Y-103134083D01*
X109321600Y-99848611D01*
X109574943Y-99595709D01*
X109753196Y-99166429D01*
X109753602Y-98701611D01*
X109576099Y-98272019D01*
X109247709Y-97943057D01*
X108818429Y-97764804D01*
X108353611Y-97764398D01*
X107924019Y-97941901D01*
X107595057Y-98270291D01*
X107416804Y-98699571D01*
X107416398Y-99164389D01*
X107593901Y-99593981D01*
X107848400Y-99848923D01*
X107848400Y-101699363D01*
X107548429Y-101574804D01*
X107083611Y-101574398D01*
X106654019Y-101751901D01*
X106325057Y-102080291D01*
X106146804Y-102509571D01*
X106146398Y-102974389D01*
X106323901Y-103403981D01*
X106578400Y-103658923D01*
X106578400Y-105791000D01*
X106045000Y-105791000D01*
X105995590Y-105801006D01*
X105953965Y-105829447D01*
X105926685Y-105871841D01*
X105918000Y-105918000D01*
X105918000Y-106171889D01*
X105843792Y-106171824D01*
X105470234Y-106326175D01*
X105184179Y-106611731D01*
X105029176Y-106985018D01*
X105028824Y-107389208D01*
X105183175Y-107762766D01*
X105384600Y-107964543D01*
X105384600Y-110363000D01*
X105434870Y-110615724D01*
X105578027Y-110829973D01*
X105918000Y-111169946D01*
X105918000Y-112776000D01*
X99822000Y-112776000D01*
X99822000Y-96520000D01*
X118618000Y-96520000D01*
X118618000Y-105791000D01*
D18*
X116840000Y-104013000D03*
X102235000Y-97663000D03*
X103505000Y-97663000D03*
X100330000Y-101473000D03*
X100330000Y-102743000D03*
X118110000Y-105283000D03*
X108585000Y-98933000D03*
X108584980Y-107823000D03*
X129540000Y-104648000D03*
X148590000Y-104648000D03*
X167640000Y-104648000D03*
X109855000Y-104013000D03*
X113030000Y-104013000D03*
X107315000Y-102743000D03*
X108585000Y-110998000D03*
X113665000Y-112268000D03*
X106045000Y-107188000D03*
M02*
