G04 #@! TF.GenerationSoftware,KiCad,Pcbnew,5.0.0-fee4fd1~65~ubuntu17.10.1*
G04 #@! TF.CreationDate,2018-09-18T05:44:28-04:00*
G04 #@! TF.ProjectId,touch,746F7563682E6B696361645F70636200,B*
G04 #@! TF.SameCoordinates,Original*
G04 #@! TF.FileFunction,Copper,L2,Bot,Signal*
G04 #@! TF.FilePolarity,Positive*
%FSLAX46Y46*%
G04 Gerber Fmt 4.6, Leading zero omitted, Abs format (unit mm)*
G04 Created by KiCad (PCBNEW 5.0.0-fee4fd1~65~ubuntu17.10.1) date Tue Sep 18 05:44:28 2018*
%MOMM*%
%LPD*%
G01*
G04 APERTURE LIST*
G04 #@! TA.AperFunction,Conductor*
%ADD10R,17.780000X15.240000*%
G04 #@! TD*
G04 #@! TA.AperFunction,Conductor*
%ADD11R,20.320000X15.240000*%
G04 #@! TD*
G04 #@! TA.AperFunction,ViaPad*
%ADD12C,1.270000*%
G04 #@! TD*
G04 #@! TA.AperFunction,ViaPad*
%ADD13C,0.965200*%
G04 #@! TD*
G04 #@! TA.AperFunction,Conductor*
%ADD14C,0.406400*%
G04 #@! TD*
G04 #@! TA.AperFunction,Conductor*
%ADD15C,0.254000*%
G04 #@! TD*
%ADD16C,0.350000*%
G04 APERTURE END LIST*
D10*
G04 #@! TO.N,/E_LEFT*
G04 #@! TO.C,SW1*
X168910000Y-100838000D03*
G04 #@! TD*
G04 #@! TO.N,/E_RIGHT*
G04 #@! TO.C,SW2*
X128270000Y-100838000D03*
G04 #@! TD*
D11*
G04 #@! TO.N,/E_SET*
G04 #@! TO.C,SW3*
X148590000Y-100838000D03*
G04 #@! TD*
D12*
G04 #@! TO.N,GND*
X114300000Y-93218000D03*
X103411883Y-93171442D03*
X111125000Y-108458006D03*
X107950000Y-90678000D03*
G04 #@! TO.N,+3V3*
X107950000Y-106553000D03*
X107315000Y-97028000D03*
X107315000Y-101473000D03*
D13*
G04 #@! TO.N,/E_LEFT*
X119379988Y-90043000D03*
G04 #@! TO.N,/E_SET*
X121920000Y-111633000D03*
G04 #@! TO.N,/E_RIGHT*
X128269984Y-100838000D03*
D12*
G04 #@! TO.N,+5V*
X107315000Y-108458000D03*
X113665000Y-108458000D03*
X105410000Y-93217976D03*
D13*
G04 #@! TO.N,/SDA_5V*
X102870000Y-96393000D03*
X102870000Y-108458000D03*
G04 #@! TD*
D14*
G04 #@! TO.N,+3V3*
X107315000Y-101473000D02*
X107315000Y-104648000D01*
X107315000Y-104648000D02*
X107950000Y-105283000D01*
X107950000Y-105283000D02*
X107950000Y-106553000D01*
X107315000Y-97028000D02*
X107315000Y-101473000D01*
D15*
G04 #@! TO.N,/E_LEFT*
X168910000Y-100838000D02*
X168910000Y-91313000D01*
X168910000Y-91313000D02*
X167640000Y-90043000D01*
X167640000Y-90043000D02*
X120062487Y-90043000D01*
X120062487Y-90043000D02*
X119379988Y-90043000D01*
G04 #@! TO.N,/E_SET*
X148590000Y-100838000D02*
X148590000Y-110363000D01*
X147320000Y-111633000D02*
X121920000Y-111633000D01*
X148590000Y-110363000D02*
X147320000Y-111633000D01*
D14*
G04 #@! TO.N,+5V*
X107315000Y-109728000D02*
X107315000Y-108458000D01*
X108585000Y-110998000D02*
X107315000Y-109728000D01*
X113030000Y-110998000D02*
X113665000Y-110363000D01*
X113665000Y-110363000D02*
X113665000Y-108458000D01*
X108585000Y-110998000D02*
X113030000Y-110998000D01*
X113665000Y-108458000D02*
X112395000Y-107188000D01*
X112395000Y-107188000D02*
X112395000Y-95123000D01*
X112395000Y-95123000D02*
X110489976Y-93217976D01*
X110489976Y-93217976D02*
X105410000Y-93217976D01*
D15*
G04 #@! TO.N,/SDA_5V*
X102870000Y-108458000D02*
X102870000Y-96393000D01*
G04 #@! TD*
G04 #@! TO.N,GND*
G36*
X114808000Y-94996000D02*
X113120768Y-94996000D01*
X113088861Y-94835593D01*
X112967151Y-94653441D01*
X112967149Y-94653439D01*
X112926058Y-94591942D01*
X112864560Y-94550850D01*
X111062127Y-92748418D01*
X111021034Y-92686918D01*
X110777383Y-92524115D01*
X110562520Y-92481376D01*
X110562516Y-92481376D01*
X110489976Y-92466947D01*
X110417436Y-92481376D01*
X106325766Y-92481376D01*
X106071845Y-92227455D01*
X105642409Y-92049576D01*
X105177591Y-92049576D01*
X104748155Y-92227455D01*
X104419479Y-92556131D01*
X104241600Y-92985567D01*
X104241600Y-93450385D01*
X104419479Y-93879821D01*
X104748155Y-94208497D01*
X105177591Y-94386376D01*
X105642409Y-94386376D01*
X106071845Y-94208497D01*
X106325766Y-93954576D01*
X110184867Y-93954576D01*
X111658401Y-95428111D01*
X111658400Y-107115460D01*
X111643971Y-107188000D01*
X111658400Y-107260540D01*
X111658400Y-107260543D01*
X111701139Y-107475406D01*
X111863942Y-107719058D01*
X111925442Y-107760151D01*
X112496600Y-108331309D01*
X112496600Y-108690409D01*
X112674479Y-109119845D01*
X112928401Y-109373767D01*
X112928400Y-110057890D01*
X112724891Y-110261400D01*
X108890110Y-110261400D01*
X108051600Y-109422891D01*
X108051600Y-109373766D01*
X108305521Y-109119845D01*
X108483400Y-108690409D01*
X108483400Y-108225591D01*
X108305521Y-107796155D01*
X108216603Y-107707237D01*
X108611845Y-107543521D01*
X108940521Y-107214845D01*
X109118400Y-106785409D01*
X109118400Y-106320591D01*
X108940521Y-105891155D01*
X108686600Y-105637234D01*
X108686600Y-105355540D01*
X108701029Y-105283000D01*
X108686600Y-105210457D01*
X108686600Y-105210456D01*
X108643861Y-104995593D01*
X108603645Y-104935406D01*
X108522151Y-104813441D01*
X108522149Y-104813439D01*
X108481058Y-104751942D01*
X108419561Y-104710851D01*
X108051600Y-104342891D01*
X108051600Y-102388766D01*
X108305521Y-102134845D01*
X108483400Y-101705409D01*
X108483400Y-101240591D01*
X108305521Y-100811155D01*
X108051600Y-100557234D01*
X108051600Y-97943766D01*
X108305521Y-97689845D01*
X108483400Y-97260409D01*
X108483400Y-96795591D01*
X108305521Y-96366155D01*
X107976845Y-96037479D01*
X107547409Y-95859600D01*
X107082591Y-95859600D01*
X106653155Y-96037479D01*
X106324479Y-96366155D01*
X106146600Y-96795591D01*
X106146600Y-97260409D01*
X106324479Y-97689845D01*
X106578400Y-97943766D01*
X106578401Y-100557233D01*
X106324479Y-100811155D01*
X106146600Y-101240591D01*
X106146600Y-101705409D01*
X106324479Y-102134845D01*
X106578400Y-102388766D01*
X106578401Y-104575455D01*
X106563971Y-104648000D01*
X106621139Y-104935406D01*
X106742849Y-105117558D01*
X106742852Y-105117561D01*
X106783943Y-105179058D01*
X106845440Y-105220149D01*
X107213400Y-105588110D01*
X107213400Y-105637234D01*
X106959479Y-105891155D01*
X106781600Y-106320591D01*
X106781600Y-106785409D01*
X106959479Y-107214845D01*
X107048397Y-107303763D01*
X106653155Y-107467479D01*
X106324479Y-107796155D01*
X106146600Y-108225591D01*
X106146600Y-108690409D01*
X106324479Y-109119845D01*
X106578400Y-109373766D01*
X106578400Y-109655459D01*
X106563971Y-109728000D01*
X106578400Y-109800540D01*
X106578400Y-109800543D01*
X106621139Y-110015406D01*
X106783942Y-110259058D01*
X106845442Y-110300151D01*
X108012850Y-111467560D01*
X108053942Y-111529058D01*
X108115439Y-111570149D01*
X108115441Y-111570151D01*
X108297593Y-111691861D01*
X108512456Y-111734600D01*
X108512459Y-111734600D01*
X108584999Y-111749029D01*
X108657540Y-111734600D01*
X112957460Y-111734600D01*
X113030000Y-111749029D01*
X113102540Y-111734600D01*
X113102544Y-111734600D01*
X113317407Y-111691861D01*
X113561058Y-111529058D01*
X113602151Y-111467558D01*
X114134561Y-110935149D01*
X114196058Y-110894058D01*
X114237149Y-110832561D01*
X114237151Y-110832559D01*
X114358861Y-110650407D01*
X114383121Y-110528442D01*
X114401600Y-110435544D01*
X114401600Y-110435541D01*
X114416029Y-110363000D01*
X114401600Y-110290460D01*
X114401600Y-109373766D01*
X114655521Y-109119845D01*
X114808000Y-108751730D01*
X114808000Y-112929600D01*
X99668400Y-112929600D01*
X99668400Y-96190905D01*
X101854000Y-96190905D01*
X101854000Y-96595095D01*
X102008676Y-96968518D01*
X102209601Y-97169443D01*
X102209600Y-107681558D01*
X102008676Y-107882482D01*
X101854000Y-108255905D01*
X101854000Y-108660095D01*
X102008676Y-109033518D01*
X102294482Y-109319324D01*
X102667905Y-109474000D01*
X103072095Y-109474000D01*
X103445518Y-109319324D01*
X103731324Y-109033518D01*
X103886000Y-108660095D01*
X103886000Y-108255905D01*
X103731324Y-107882482D01*
X103530400Y-107681558D01*
X103530400Y-97169442D01*
X103731324Y-96968518D01*
X103886000Y-96595095D01*
X103886000Y-96190905D01*
X103731324Y-95817482D01*
X103445518Y-95531676D01*
X103072095Y-95377000D01*
X102667905Y-95377000D01*
X102294482Y-95531676D01*
X102008676Y-95817482D01*
X101854000Y-96190905D01*
X99668400Y-96190905D01*
X99668400Y-88746400D01*
X114808000Y-88746400D01*
X114808000Y-94996000D01*
X114808000Y-94996000D01*
G37*
X114808000Y-94996000D02*
X113120768Y-94996000D01*
X113088861Y-94835593D01*
X112967151Y-94653441D01*
X112967149Y-94653439D01*
X112926058Y-94591942D01*
X112864560Y-94550850D01*
X111062127Y-92748418D01*
X111021034Y-92686918D01*
X110777383Y-92524115D01*
X110562520Y-92481376D01*
X110562516Y-92481376D01*
X110489976Y-92466947D01*
X110417436Y-92481376D01*
X106325766Y-92481376D01*
X106071845Y-92227455D01*
X105642409Y-92049576D01*
X105177591Y-92049576D01*
X104748155Y-92227455D01*
X104419479Y-92556131D01*
X104241600Y-92985567D01*
X104241600Y-93450385D01*
X104419479Y-93879821D01*
X104748155Y-94208497D01*
X105177591Y-94386376D01*
X105642409Y-94386376D01*
X106071845Y-94208497D01*
X106325766Y-93954576D01*
X110184867Y-93954576D01*
X111658401Y-95428111D01*
X111658400Y-107115460D01*
X111643971Y-107188000D01*
X111658400Y-107260540D01*
X111658400Y-107260543D01*
X111701139Y-107475406D01*
X111863942Y-107719058D01*
X111925442Y-107760151D01*
X112496600Y-108331309D01*
X112496600Y-108690409D01*
X112674479Y-109119845D01*
X112928401Y-109373767D01*
X112928400Y-110057890D01*
X112724891Y-110261400D01*
X108890110Y-110261400D01*
X108051600Y-109422891D01*
X108051600Y-109373766D01*
X108305521Y-109119845D01*
X108483400Y-108690409D01*
X108483400Y-108225591D01*
X108305521Y-107796155D01*
X108216603Y-107707237D01*
X108611845Y-107543521D01*
X108940521Y-107214845D01*
X109118400Y-106785409D01*
X109118400Y-106320591D01*
X108940521Y-105891155D01*
X108686600Y-105637234D01*
X108686600Y-105355540D01*
X108701029Y-105283000D01*
X108686600Y-105210457D01*
X108686600Y-105210456D01*
X108643861Y-104995593D01*
X108603645Y-104935406D01*
X108522151Y-104813441D01*
X108522149Y-104813439D01*
X108481058Y-104751942D01*
X108419561Y-104710851D01*
X108051600Y-104342891D01*
X108051600Y-102388766D01*
X108305521Y-102134845D01*
X108483400Y-101705409D01*
X108483400Y-101240591D01*
X108305521Y-100811155D01*
X108051600Y-100557234D01*
X108051600Y-97943766D01*
X108305521Y-97689845D01*
X108483400Y-97260409D01*
X108483400Y-96795591D01*
X108305521Y-96366155D01*
X107976845Y-96037479D01*
X107547409Y-95859600D01*
X107082591Y-95859600D01*
X106653155Y-96037479D01*
X106324479Y-96366155D01*
X106146600Y-96795591D01*
X106146600Y-97260409D01*
X106324479Y-97689845D01*
X106578400Y-97943766D01*
X106578401Y-100557233D01*
X106324479Y-100811155D01*
X106146600Y-101240591D01*
X106146600Y-101705409D01*
X106324479Y-102134845D01*
X106578400Y-102388766D01*
X106578401Y-104575455D01*
X106563971Y-104648000D01*
X106621139Y-104935406D01*
X106742849Y-105117558D01*
X106742852Y-105117561D01*
X106783943Y-105179058D01*
X106845440Y-105220149D01*
X107213400Y-105588110D01*
X107213400Y-105637234D01*
X106959479Y-105891155D01*
X106781600Y-106320591D01*
X106781600Y-106785409D01*
X106959479Y-107214845D01*
X107048397Y-107303763D01*
X106653155Y-107467479D01*
X106324479Y-107796155D01*
X106146600Y-108225591D01*
X106146600Y-108690409D01*
X106324479Y-109119845D01*
X106578400Y-109373766D01*
X106578400Y-109655459D01*
X106563971Y-109728000D01*
X106578400Y-109800540D01*
X106578400Y-109800543D01*
X106621139Y-110015406D01*
X106783942Y-110259058D01*
X106845442Y-110300151D01*
X108012850Y-111467560D01*
X108053942Y-111529058D01*
X108115439Y-111570149D01*
X108115441Y-111570151D01*
X108297593Y-111691861D01*
X108512456Y-111734600D01*
X108512459Y-111734600D01*
X108584999Y-111749029D01*
X108657540Y-111734600D01*
X112957460Y-111734600D01*
X113030000Y-111749029D01*
X113102540Y-111734600D01*
X113102544Y-111734600D01*
X113317407Y-111691861D01*
X113561058Y-111529058D01*
X113602151Y-111467558D01*
X114134561Y-110935149D01*
X114196058Y-110894058D01*
X114237149Y-110832561D01*
X114237151Y-110832559D01*
X114358861Y-110650407D01*
X114383121Y-110528442D01*
X114401600Y-110435544D01*
X114401600Y-110435541D01*
X114416029Y-110363000D01*
X114401600Y-110290460D01*
X114401600Y-109373766D01*
X114655521Y-109119845D01*
X114808000Y-108751730D01*
X114808000Y-112929600D01*
X99668400Y-112929600D01*
X99668400Y-96190905D01*
X101854000Y-96190905D01*
X101854000Y-96595095D01*
X102008676Y-96968518D01*
X102209601Y-97169443D01*
X102209600Y-107681558D01*
X102008676Y-107882482D01*
X101854000Y-108255905D01*
X101854000Y-108660095D01*
X102008676Y-109033518D01*
X102294482Y-109319324D01*
X102667905Y-109474000D01*
X103072095Y-109474000D01*
X103445518Y-109319324D01*
X103731324Y-109033518D01*
X103886000Y-108660095D01*
X103886000Y-108255905D01*
X103731324Y-107882482D01*
X103530400Y-107681558D01*
X103530400Y-97169442D01*
X103731324Y-96968518D01*
X103886000Y-96595095D01*
X103886000Y-96190905D01*
X103731324Y-95817482D01*
X103445518Y-95531676D01*
X103072095Y-95377000D01*
X102667905Y-95377000D01*
X102294482Y-95531676D01*
X102008676Y-95817482D01*
X101854000Y-96190905D01*
X99668400Y-96190905D01*
X99668400Y-88746400D01*
X114808000Y-88746400D01*
X114808000Y-94996000D01*
G04 #@! TD*
D16*
X114300000Y-93218000D03*
X103411883Y-93171442D03*
X111125000Y-108458006D03*
X107950000Y-90678000D03*
X107950000Y-106553000D03*
X107315000Y-97028000D03*
X107315000Y-101473000D03*
X119379988Y-90043000D03*
X121920000Y-111633000D03*
X128269984Y-100838000D03*
X107315000Y-108458000D03*
X113665000Y-108458000D03*
X105410000Y-93217976D03*
X102870000Y-96393000D03*
X102870000Y-108458000D03*
M02*
