G04 #@! TF.GenerationSoftware,KiCad,Pcbnew,5.0.0-fee4fd1~65~ubuntu17.10.1*
G04 #@! TF.CreationDate,2018-09-18T05:44:28-04:00*
G04 #@! TF.ProjectId,touch,746F7563682E6B696361645F70636200,B*
G04 #@! TF.SameCoordinates,Original*
G04 #@! TF.FileFunction,Legend,Top*
G04 #@! TF.FilePolarity,Positive*
%FSLAX46Y46*%
G04 Gerber Fmt 4.6, Leading zero omitted, Abs format (unit mm)*
G04 Created by KiCad (PCBNEW 5.0.0-fee4fd1~65~ubuntu17.10.1) date Tue Sep 18 05:44:28 2018*
%MOMM*%
%LPD*%
G01*
G04 APERTURE LIST*
%ADD10C,0.200000*%
%ADD11C,0.254000*%
%ADD12C,0.304800*%
%ADD13C,0.300000*%
%ADD14C,0.180000*%
%ADD15C,0.002540*%
G04 APERTURE END LIST*
D10*
X195580000Y-113538000D02*
X195580000Y-88138000D01*
X101600000Y-113538000D02*
X101600000Y-88138000D01*
X173990000Y-113538000D02*
X173990000Y-88138000D01*
X123190000Y-113538000D02*
X123190000Y-88138000D01*
D11*
X186448095Y-98237523D02*
X186024761Y-97632761D01*
X185722380Y-98237523D02*
X185722380Y-96967523D01*
X186206190Y-96967523D01*
X186327142Y-97028000D01*
X186387619Y-97088476D01*
X186448095Y-97209428D01*
X186448095Y-97390857D01*
X186387619Y-97511809D01*
X186327142Y-97572285D01*
X186206190Y-97632761D01*
X185722380Y-97632761D01*
X186992380Y-97572285D02*
X187415714Y-97572285D01*
X187597142Y-98237523D02*
X186992380Y-98237523D01*
X186992380Y-96967523D01*
X187597142Y-96967523D01*
X187960000Y-96967523D02*
X188383333Y-98237523D01*
X188806666Y-96967523D01*
X189230000Y-98116571D02*
X189290476Y-98177047D01*
X189230000Y-98237523D01*
X189169523Y-98177047D01*
X189230000Y-98116571D01*
X189230000Y-98237523D01*
X191225714Y-97572285D02*
X191407142Y-97632761D01*
X191467619Y-97693238D01*
X191528095Y-97814190D01*
X191528095Y-97995619D01*
X191467619Y-98116571D01*
X191407142Y-98177047D01*
X191286190Y-98237523D01*
X190802380Y-98237523D01*
X190802380Y-96967523D01*
X191225714Y-96967523D01*
X191346666Y-97028000D01*
X191407142Y-97088476D01*
X191467619Y-97209428D01*
X191467619Y-97330380D01*
X191407142Y-97451333D01*
X191346666Y-97511809D01*
X191225714Y-97572285D01*
X190802380Y-97572285D01*
D12*
X185335333Y-95754976D02*
X185335333Y-94357976D01*
X185867523Y-94357976D01*
X186000571Y-94424500D01*
X186067095Y-94491023D01*
X186133619Y-94624071D01*
X186133619Y-94823642D01*
X186067095Y-94956690D01*
X186000571Y-95023214D01*
X185867523Y-95089738D01*
X185335333Y-95089738D01*
X187530619Y-95621928D02*
X187464095Y-95688452D01*
X187264523Y-95754976D01*
X187131476Y-95754976D01*
X186931904Y-95688452D01*
X186798857Y-95555404D01*
X186732333Y-95422357D01*
X186665809Y-95156261D01*
X186665809Y-94956690D01*
X186732333Y-94690595D01*
X186798857Y-94557547D01*
X186931904Y-94424500D01*
X187131476Y-94357976D01*
X187264523Y-94357976D01*
X187464095Y-94424500D01*
X187530619Y-94491023D01*
X188129333Y-95222785D02*
X189193714Y-95222785D01*
X190125047Y-94357976D02*
X190258095Y-94357976D01*
X190391142Y-94424500D01*
X190457666Y-94491023D01*
X190524190Y-94624071D01*
X190590714Y-94890166D01*
X190590714Y-95222785D01*
X190524190Y-95488880D01*
X190457666Y-95621928D01*
X190391142Y-95688452D01*
X190258095Y-95754976D01*
X190125047Y-95754976D01*
X189992000Y-95688452D01*
X189925476Y-95621928D01*
X189858952Y-95488880D01*
X189792428Y-95222785D01*
X189792428Y-94890166D01*
X189858952Y-94624071D01*
X189925476Y-94491023D01*
X189992000Y-94424500D01*
X190125047Y-94357976D01*
X191056380Y-94357976D02*
X191921190Y-94357976D01*
X191455523Y-94890166D01*
X191655095Y-94890166D01*
X191788142Y-94956690D01*
X191854666Y-95023214D01*
X191921190Y-95156261D01*
X191921190Y-95488880D01*
X191854666Y-95621928D01*
X191788142Y-95688452D01*
X191655095Y-95754976D01*
X191255952Y-95754976D01*
X191122904Y-95688452D01*
X191056380Y-95621928D01*
D13*
X181540452Y-112567357D02*
X181606976Y-112367785D01*
X181606976Y-112035166D01*
X181540452Y-111902119D01*
X181473928Y-111835595D01*
X181340880Y-111769071D01*
X181207833Y-111769071D01*
X181074785Y-111835595D01*
X181008261Y-111902119D01*
X180941738Y-112035166D01*
X180875214Y-112301261D01*
X180808690Y-112434309D01*
X180742166Y-112500833D01*
X180609119Y-112567357D01*
X180476071Y-112567357D01*
X180343023Y-112500833D01*
X180276500Y-112434309D01*
X180209976Y-112301261D01*
X180209976Y-111968642D01*
X180276500Y-111769071D01*
X181606976Y-111170357D02*
X180209976Y-111170357D01*
X180209976Y-110837738D01*
X180276500Y-110638166D01*
X180409547Y-110505119D01*
X180542595Y-110438595D01*
X180808690Y-110372071D01*
X181008261Y-110372071D01*
X181274357Y-110438595D01*
X181407404Y-110505119D01*
X181540452Y-110638166D01*
X181606976Y-110837738D01*
X181606976Y-111170357D01*
X181207833Y-109839880D02*
X181207833Y-109174642D01*
X181606976Y-109972928D02*
X180209976Y-109507261D01*
X181606976Y-109041595D01*
X183953452Y-112661095D02*
X184019976Y-112461523D01*
X184019976Y-112128904D01*
X183953452Y-111995857D01*
X183886928Y-111929333D01*
X183753880Y-111862809D01*
X183620833Y-111862809D01*
X183487785Y-111929333D01*
X183421261Y-111995857D01*
X183354738Y-112128904D01*
X183288214Y-112395000D01*
X183221690Y-112528047D01*
X183155166Y-112594571D01*
X183022119Y-112661095D01*
X182889071Y-112661095D01*
X182756023Y-112594571D01*
X182689500Y-112528047D01*
X182622976Y-112395000D01*
X182622976Y-112062380D01*
X182689500Y-111862809D01*
X183886928Y-110465809D02*
X183953452Y-110532333D01*
X184019976Y-110731904D01*
X184019976Y-110864952D01*
X183953452Y-111064523D01*
X183820404Y-111197571D01*
X183687357Y-111264095D01*
X183421261Y-111330619D01*
X183221690Y-111330619D01*
X182955595Y-111264095D01*
X182822547Y-111197571D01*
X182689500Y-111064523D01*
X182622976Y-110864952D01*
X182622976Y-110731904D01*
X182689500Y-110532333D01*
X182756023Y-110465809D01*
X184019976Y-109201857D02*
X184019976Y-109867095D01*
X182622976Y-109867095D01*
X186045928Y-111995857D02*
X186112452Y-112062380D01*
X186178976Y-112261952D01*
X186178976Y-112395000D01*
X186112452Y-112594571D01*
X185979404Y-112727619D01*
X185846357Y-112794142D01*
X185580261Y-112860666D01*
X185380690Y-112860666D01*
X185114595Y-112794142D01*
X184981547Y-112727619D01*
X184848500Y-112594571D01*
X184781976Y-112395000D01*
X184781976Y-112261952D01*
X184848500Y-112062380D01*
X184915023Y-111995857D01*
X186178976Y-111397142D02*
X184781976Y-111397142D01*
X185447214Y-111397142D02*
X185447214Y-110598857D01*
X186178976Y-110598857D02*
X184781976Y-110598857D01*
X184848500Y-109201857D02*
X184781976Y-109334904D01*
X184781976Y-109534476D01*
X184848500Y-109734047D01*
X184981547Y-109867095D01*
X185114595Y-109933619D01*
X185380690Y-110000142D01*
X185580261Y-110000142D01*
X185846357Y-109933619D01*
X185979404Y-109867095D01*
X186112452Y-109734047D01*
X186178976Y-109534476D01*
X186178976Y-109401428D01*
X186112452Y-109201857D01*
X186045928Y-109135333D01*
X185580261Y-109135333D01*
X185580261Y-109401428D01*
X187261500Y-111935380D02*
X187194976Y-112068428D01*
X187194976Y-112268000D01*
X187261500Y-112467571D01*
X187394547Y-112600619D01*
X187527595Y-112667142D01*
X187793690Y-112733666D01*
X187993261Y-112733666D01*
X188259357Y-112667142D01*
X188392404Y-112600619D01*
X188525452Y-112467571D01*
X188591976Y-112268000D01*
X188591976Y-112134952D01*
X188525452Y-111935380D01*
X188458928Y-111868857D01*
X187993261Y-111868857D01*
X187993261Y-112134952D01*
X188591976Y-111270142D02*
X187194976Y-111270142D01*
X188591976Y-110471857D01*
X187194976Y-110471857D01*
X188591976Y-109806619D02*
X187194976Y-109806619D01*
X187194976Y-109474000D01*
X187261500Y-109274428D01*
X187394547Y-109141380D01*
X187527595Y-109074857D01*
X187793690Y-109008333D01*
X187993261Y-109008333D01*
X188259357Y-109074857D01*
X188392404Y-109141380D01*
X188525452Y-109274428D01*
X188591976Y-109474000D01*
X188591976Y-109806619D01*
X190599785Y-112794142D02*
X190599785Y-111729761D01*
X191131976Y-112261952D02*
X190067595Y-112261952D01*
X189734976Y-110399285D02*
X189734976Y-111064523D01*
X190400214Y-111131047D01*
X190333690Y-111064523D01*
X190267166Y-110931476D01*
X190267166Y-110598857D01*
X190333690Y-110465809D01*
X190400214Y-110399285D01*
X190533261Y-110332761D01*
X190865880Y-110332761D01*
X190998928Y-110399285D01*
X191065452Y-110465809D01*
X191131976Y-110598857D01*
X191131976Y-110931476D01*
X191065452Y-111064523D01*
X190998928Y-111131047D01*
X189734976Y-109933619D02*
X191131976Y-109467952D01*
X189734976Y-109002285D01*
D14*
G04 #@! TO.C,U1*
X110445000Y-103886000D02*
X110445000Y-104140000D01*
X110445000Y-102616000D02*
X110445000Y-102870000D01*
X110445000Y-101346000D02*
X110445000Y-101600000D01*
X114345000Y-103886000D02*
X114345000Y-104140000D01*
X114345000Y-102616000D02*
X114345000Y-102870000D01*
X114345000Y-101346000D02*
X114345000Y-101600000D01*
X114345000Y-100076000D02*
X114345000Y-100330000D01*
X111760000Y-96438000D02*
G75*
G03X113030000Y-96438000I635000J0D01*
G01*
X110445000Y-100076000D02*
X110445000Y-100330000D01*
X110445000Y-98806000D02*
X110445000Y-99060000D01*
X110445000Y-97536000D02*
X110445000Y-97790000D01*
X114345000Y-100076000D02*
X114345000Y-100330000D01*
X114345000Y-98806000D02*
X114345000Y-99060000D01*
X114345000Y-97536000D02*
X114345000Y-97790000D01*
X111195000Y-105238000D02*
X111195000Y-96438000D01*
X113030000Y-96438000D02*
X114345000Y-96438000D01*
X110445000Y-96438000D02*
X111760000Y-96438000D01*
X114345000Y-105238000D02*
X110445000Y-105238000D01*
D13*
G04 #@! TO.C,U2*
X106700000Y-88928000D02*
G75*
G03X106700000Y-88928000I-150000J0D01*
G01*
D14*
X108750000Y-90228000D02*
X108750000Y-91128000D01*
X108750000Y-92128000D02*
X107150000Y-92128000D01*
X108750000Y-89228000D02*
X107150000Y-89228000D01*
G04 #@! TO.C,R7*
X106426000Y-100711000D02*
X106426000Y-97155000D01*
X106426000Y-97155000D02*
X108204000Y-97155000D01*
X108204000Y-97155000D02*
X108204000Y-100711000D01*
X108204000Y-100711000D02*
X106426000Y-100711000D01*
G04 #@! TO.C,C1*
X110617000Y-93345000D02*
X106553000Y-93345000D01*
X106553000Y-93345000D02*
X106553000Y-95631000D01*
X106553000Y-95631000D02*
X110617000Y-95631000D01*
X110617000Y-95631000D02*
X110617000Y-93345000D01*
G04 #@! TO.C,C2*
X111037000Y-93599000D02*
X114593000Y-93599000D01*
X114593000Y-93599000D02*
X114593000Y-95377000D01*
X114593000Y-95377000D02*
X111037000Y-95377000D01*
X111037000Y-95377000D02*
X111037000Y-93599000D01*
G04 #@! TO.C,C3*
X104648000Y-92710000D02*
X104648000Y-88646000D01*
X104648000Y-88646000D02*
X102362000Y-88646000D01*
X102362000Y-88646000D02*
X102362000Y-92710000D01*
X102362000Y-92710000D02*
X104648000Y-92710000D01*
G04 #@! TO.C,C4*
X114173000Y-92710000D02*
X114173000Y-88646000D01*
X114173000Y-88646000D02*
X111887000Y-88646000D01*
X111887000Y-88646000D02*
X111887000Y-92710000D01*
X111887000Y-92710000D02*
X114173000Y-92710000D01*
G04 #@! TO.C,J1*
X114935000Y-112903000D02*
X102235000Y-112903000D01*
X102235000Y-109093000D02*
X114935000Y-109093000D01*
X114935000Y-109093000D02*
X114935000Y-112903000D01*
X102235000Y-112903000D02*
X102235000Y-109093000D01*
G04 #@! TO.C,R1*
X102362000Y-94234000D02*
X105918000Y-94234000D01*
X105918000Y-94234000D02*
X105918000Y-96012000D01*
X105918000Y-96012000D02*
X102362000Y-96012000D01*
X102362000Y-96012000D02*
X102362000Y-94234000D01*
G04 #@! TO.C,R2*
X108077000Y-105664000D02*
X111633000Y-105664000D01*
X111633000Y-105664000D02*
X111633000Y-107442000D01*
X111633000Y-107442000D02*
X108077000Y-107442000D01*
X108077000Y-107442000D02*
X108077000Y-105664000D01*
G04 #@! TO.C,R3*
X102997000Y-105664000D02*
X106553000Y-105664000D01*
X106553000Y-105664000D02*
X106553000Y-107442000D01*
X106553000Y-107442000D02*
X102997000Y-107442000D01*
X102997000Y-107442000D02*
X102997000Y-105664000D01*
G04 #@! TO.C,R4*
X116967000Y-99949000D02*
X120523000Y-99949000D01*
X120523000Y-99949000D02*
X120523000Y-101727000D01*
X120523000Y-101727000D02*
X116967000Y-101727000D01*
X116967000Y-101727000D02*
X116967000Y-99949000D01*
G04 #@! TO.C,R5*
X117729000Y-106680000D02*
X117729000Y-110236000D01*
X117729000Y-110236000D02*
X115951000Y-110236000D01*
X115951000Y-110236000D02*
X115951000Y-106680000D01*
X115951000Y-106680000D02*
X117729000Y-106680000D01*
G04 #@! TO.C,R6*
X115951000Y-94996000D02*
X115951000Y-91440000D01*
X115951000Y-91440000D02*
X117729000Y-91440000D01*
X117729000Y-91440000D02*
X117729000Y-94996000D01*
X117729000Y-94996000D02*
X115951000Y-94996000D01*
G04 #@! TO.C,R8*
X106426000Y-105156000D02*
X106426000Y-101600000D01*
X106426000Y-101600000D02*
X108204000Y-101600000D01*
X108204000Y-101600000D02*
X108204000Y-105156000D01*
X108204000Y-105156000D02*
X106426000Y-105156000D01*
G04 #@! TO.C,Q1*
X104790000Y-97483000D02*
X104790000Y-98283000D01*
X104790000Y-100383000D02*
X104790000Y-99583000D01*
X104790000Y-97483000D02*
X103840000Y-97483000D01*
X104790000Y-100383000D02*
X103840000Y-100383000D01*
X103490000Y-98583000D02*
X103490000Y-99283000D01*
G04 #@! TO.C,Q2*
X104790000Y-101928000D02*
X104790000Y-102728000D01*
X104790000Y-104828000D02*
X104790000Y-104028000D01*
X104790000Y-101928000D02*
X103840000Y-101928000D01*
X104790000Y-104828000D02*
X103840000Y-104828000D01*
X103490000Y-103028000D02*
X103490000Y-103728000D01*
D15*
G04 #@! TO.C,REF\002A\002A*
G36*
X179186840Y-97911920D02*
X179207160Y-97901760D01*
X179250340Y-97873820D01*
X179313840Y-97830640D01*
X179390040Y-97782380D01*
X179463700Y-97729040D01*
X179527200Y-97688400D01*
X179570380Y-97660460D01*
X179588160Y-97650300D01*
X179598320Y-97655380D01*
X179633880Y-97670620D01*
X179687220Y-97698560D01*
X179715160Y-97713800D01*
X179763420Y-97734120D01*
X179788820Y-97739200D01*
X179791360Y-97731580D01*
X179809140Y-97696020D01*
X179837080Y-97632520D01*
X179872640Y-97551240D01*
X179913280Y-97454720D01*
X179959000Y-97350580D01*
X180002180Y-97243900D01*
X180045360Y-97142300D01*
X180080920Y-97050860D01*
X180111400Y-96977200D01*
X180131720Y-96926400D01*
X180139340Y-96903540D01*
X180136800Y-96898460D01*
X180111400Y-96875600D01*
X180070760Y-96845120D01*
X179981860Y-96771460D01*
X179890420Y-96659700D01*
X179837080Y-96532700D01*
X179819300Y-96393000D01*
X179834540Y-96266000D01*
X179885340Y-96139000D01*
X179971700Y-96027240D01*
X180078380Y-95943420D01*
X180202840Y-95892620D01*
X180340000Y-95874840D01*
X180472080Y-95890080D01*
X180599080Y-95940880D01*
X180710840Y-96024700D01*
X180759100Y-96080580D01*
X180825140Y-96194880D01*
X180860700Y-96316800D01*
X180865780Y-96347280D01*
X180860700Y-96479360D01*
X180820060Y-96606360D01*
X180748940Y-96720660D01*
X180652420Y-96814640D01*
X180639720Y-96824800D01*
X180594000Y-96857820D01*
X180563520Y-96883220D01*
X180540660Y-96901000D01*
X180710840Y-97312480D01*
X180738780Y-97375980D01*
X180784500Y-97487740D01*
X180825140Y-97584260D01*
X180858160Y-97663000D01*
X180881020Y-97713800D01*
X180891180Y-97734120D01*
X180891180Y-97736660D01*
X180906420Y-97739200D01*
X180939440Y-97726500D01*
X180995320Y-97698560D01*
X181033420Y-97680780D01*
X181076600Y-97657920D01*
X181096920Y-97650300D01*
X181112160Y-97660460D01*
X181155340Y-97685860D01*
X181216300Y-97726500D01*
X181289960Y-97777300D01*
X181358540Y-97825560D01*
X181424580Y-97868740D01*
X181470300Y-97896680D01*
X181493160Y-97909380D01*
X181495700Y-97909380D01*
X181516020Y-97899220D01*
X181554120Y-97868740D01*
X181610000Y-97815400D01*
X181688740Y-97736660D01*
X181701440Y-97723960D01*
X181764940Y-97657920D01*
X181818280Y-97602040D01*
X181853840Y-97563940D01*
X181866540Y-97546160D01*
X181853840Y-97523300D01*
X181825900Y-97477580D01*
X181782720Y-97411540D01*
X181731920Y-97335340D01*
X181594760Y-97137220D01*
X181668420Y-96951800D01*
X181691280Y-96895920D01*
X181721760Y-96824800D01*
X181742080Y-96776540D01*
X181754780Y-96753680D01*
X181775100Y-96748600D01*
X181825900Y-96735900D01*
X181899560Y-96720660D01*
X181988460Y-96702880D01*
X182072280Y-96687640D01*
X182148480Y-96674940D01*
X182201820Y-96662240D01*
X182227220Y-96657160D01*
X182232300Y-96654620D01*
X182237380Y-96641920D01*
X182239920Y-96616520D01*
X182242460Y-96570800D01*
X182242460Y-96499680D01*
X182242460Y-96393000D01*
X182242460Y-96385380D01*
X182242460Y-96283780D01*
X182239920Y-96205040D01*
X182237380Y-96151700D01*
X182234840Y-96131380D01*
X182211980Y-96123760D01*
X182156100Y-96113600D01*
X182082440Y-96098360D01*
X181991000Y-96080580D01*
X181985920Y-96080580D01*
X181894480Y-96062800D01*
X181820820Y-96047560D01*
X181767480Y-96034860D01*
X181744620Y-96027240D01*
X181739540Y-96022160D01*
X181721760Y-95986600D01*
X181696360Y-95930720D01*
X181665880Y-95862140D01*
X181637940Y-95791020D01*
X181610000Y-95727520D01*
X181594760Y-95681800D01*
X181589680Y-95658940D01*
X181602380Y-95636080D01*
X181632860Y-95590360D01*
X181678580Y-95524320D01*
X181729380Y-95448120D01*
X181734460Y-95443040D01*
X181785260Y-95366840D01*
X181828440Y-95303340D01*
X181856380Y-95257620D01*
X181866540Y-95234760D01*
X181848760Y-95211900D01*
X181810660Y-95168720D01*
X181754780Y-95110300D01*
X181688740Y-95044260D01*
X181665880Y-95021400D01*
X181592220Y-94950280D01*
X181541420Y-94902020D01*
X181508400Y-94876620D01*
X181493160Y-94871540D01*
X181470300Y-94886780D01*
X181422040Y-94917260D01*
X181356000Y-94962980D01*
X181279800Y-95013780D01*
X181274720Y-95018860D01*
X181198520Y-95069660D01*
X181135020Y-95112840D01*
X181089300Y-95143320D01*
X181068980Y-95153480D01*
X181066440Y-95153480D01*
X181035960Y-95145860D01*
X180982620Y-95125540D01*
X180914040Y-95100140D01*
X180845460Y-95072200D01*
X180779420Y-95044260D01*
X180731160Y-95023940D01*
X180710840Y-95011240D01*
X180708300Y-95008700D01*
X180700680Y-94980760D01*
X180687980Y-94924880D01*
X180672740Y-94846140D01*
X180654960Y-94752160D01*
X180652420Y-94739460D01*
X180634640Y-94648020D01*
X180619400Y-94571820D01*
X180609240Y-94521020D01*
X180604160Y-94500700D01*
X180591460Y-94495620D01*
X180545740Y-94493080D01*
X180479700Y-94490540D01*
X180395880Y-94490540D01*
X180312060Y-94490540D01*
X180228240Y-94493080D01*
X180157120Y-94495620D01*
X180103780Y-94498160D01*
X180083460Y-94503240D01*
X180073300Y-94533720D01*
X180063140Y-94589600D01*
X180045360Y-94668340D01*
X180027580Y-94762320D01*
X180025040Y-94777560D01*
X180007260Y-94869000D01*
X179992020Y-94942660D01*
X179981860Y-94993460D01*
X179976780Y-95013780D01*
X179966620Y-95018860D01*
X179931060Y-95034100D01*
X179870100Y-95059500D01*
X179793900Y-95089980D01*
X179618640Y-95161100D01*
X179405280Y-95013780D01*
X179387500Y-95001080D01*
X179308760Y-94950280D01*
X179245260Y-94907100D01*
X179202080Y-94879160D01*
X179184300Y-94869000D01*
X179181760Y-94869000D01*
X179161440Y-94886780D01*
X179118260Y-94927420D01*
X179062380Y-94983300D01*
X178993800Y-95051880D01*
X178943000Y-95100140D01*
X178884580Y-95161100D01*
X178849020Y-95201740D01*
X178828700Y-95227140D01*
X178821080Y-95242380D01*
X178821080Y-95252540D01*
X178836320Y-95275400D01*
X178866800Y-95321120D01*
X178912520Y-95387160D01*
X178963320Y-95463360D01*
X179006500Y-95524320D01*
X179052220Y-95597980D01*
X179082700Y-95648780D01*
X179092860Y-95674180D01*
X179090320Y-95684340D01*
X179075080Y-95724980D01*
X179049680Y-95788480D01*
X179019200Y-95864680D01*
X178943000Y-96034860D01*
X178833780Y-96055180D01*
X178765200Y-96067880D01*
X178671220Y-96085660D01*
X178582320Y-96103440D01*
X178440080Y-96131380D01*
X178435000Y-96644460D01*
X178457860Y-96654620D01*
X178478180Y-96659700D01*
X178531520Y-96672400D01*
X178605180Y-96687640D01*
X178691540Y-96702880D01*
X178767740Y-96718120D01*
X178841400Y-96730820D01*
X178897280Y-96740980D01*
X178920140Y-96746060D01*
X178927760Y-96753680D01*
X178945540Y-96791780D01*
X178970940Y-96850200D01*
X179001420Y-96918780D01*
X179031900Y-96992440D01*
X179059840Y-97058480D01*
X179077620Y-97109280D01*
X179085240Y-97134680D01*
X179072540Y-97155000D01*
X179044600Y-97198180D01*
X179003960Y-97261680D01*
X178953160Y-97337880D01*
X178902360Y-97411540D01*
X178859180Y-97475040D01*
X178828700Y-97520760D01*
X178816000Y-97543620D01*
X178821080Y-97556320D01*
X178851560Y-97591880D01*
X178907440Y-97652840D01*
X178991260Y-97734120D01*
X179006500Y-97746820D01*
X179072540Y-97812860D01*
X179128420Y-97863660D01*
X179169060Y-97899220D01*
X179186840Y-97911920D01*
X179186840Y-97911920D01*
G37*
X179186840Y-97911920D02*
X179207160Y-97901760D01*
X179250340Y-97873820D01*
X179313840Y-97830640D01*
X179390040Y-97782380D01*
X179463700Y-97729040D01*
X179527200Y-97688400D01*
X179570380Y-97660460D01*
X179588160Y-97650300D01*
X179598320Y-97655380D01*
X179633880Y-97670620D01*
X179687220Y-97698560D01*
X179715160Y-97713800D01*
X179763420Y-97734120D01*
X179788820Y-97739200D01*
X179791360Y-97731580D01*
X179809140Y-97696020D01*
X179837080Y-97632520D01*
X179872640Y-97551240D01*
X179913280Y-97454720D01*
X179959000Y-97350580D01*
X180002180Y-97243900D01*
X180045360Y-97142300D01*
X180080920Y-97050860D01*
X180111400Y-96977200D01*
X180131720Y-96926400D01*
X180139340Y-96903540D01*
X180136800Y-96898460D01*
X180111400Y-96875600D01*
X180070760Y-96845120D01*
X179981860Y-96771460D01*
X179890420Y-96659700D01*
X179837080Y-96532700D01*
X179819300Y-96393000D01*
X179834540Y-96266000D01*
X179885340Y-96139000D01*
X179971700Y-96027240D01*
X180078380Y-95943420D01*
X180202840Y-95892620D01*
X180340000Y-95874840D01*
X180472080Y-95890080D01*
X180599080Y-95940880D01*
X180710840Y-96024700D01*
X180759100Y-96080580D01*
X180825140Y-96194880D01*
X180860700Y-96316800D01*
X180865780Y-96347280D01*
X180860700Y-96479360D01*
X180820060Y-96606360D01*
X180748940Y-96720660D01*
X180652420Y-96814640D01*
X180639720Y-96824800D01*
X180594000Y-96857820D01*
X180563520Y-96883220D01*
X180540660Y-96901000D01*
X180710840Y-97312480D01*
X180738780Y-97375980D01*
X180784500Y-97487740D01*
X180825140Y-97584260D01*
X180858160Y-97663000D01*
X180881020Y-97713800D01*
X180891180Y-97734120D01*
X180891180Y-97736660D01*
X180906420Y-97739200D01*
X180939440Y-97726500D01*
X180995320Y-97698560D01*
X181033420Y-97680780D01*
X181076600Y-97657920D01*
X181096920Y-97650300D01*
X181112160Y-97660460D01*
X181155340Y-97685860D01*
X181216300Y-97726500D01*
X181289960Y-97777300D01*
X181358540Y-97825560D01*
X181424580Y-97868740D01*
X181470300Y-97896680D01*
X181493160Y-97909380D01*
X181495700Y-97909380D01*
X181516020Y-97899220D01*
X181554120Y-97868740D01*
X181610000Y-97815400D01*
X181688740Y-97736660D01*
X181701440Y-97723960D01*
X181764940Y-97657920D01*
X181818280Y-97602040D01*
X181853840Y-97563940D01*
X181866540Y-97546160D01*
X181853840Y-97523300D01*
X181825900Y-97477580D01*
X181782720Y-97411540D01*
X181731920Y-97335340D01*
X181594760Y-97137220D01*
X181668420Y-96951800D01*
X181691280Y-96895920D01*
X181721760Y-96824800D01*
X181742080Y-96776540D01*
X181754780Y-96753680D01*
X181775100Y-96748600D01*
X181825900Y-96735900D01*
X181899560Y-96720660D01*
X181988460Y-96702880D01*
X182072280Y-96687640D01*
X182148480Y-96674940D01*
X182201820Y-96662240D01*
X182227220Y-96657160D01*
X182232300Y-96654620D01*
X182237380Y-96641920D01*
X182239920Y-96616520D01*
X182242460Y-96570800D01*
X182242460Y-96499680D01*
X182242460Y-96393000D01*
X182242460Y-96385380D01*
X182242460Y-96283780D01*
X182239920Y-96205040D01*
X182237380Y-96151700D01*
X182234840Y-96131380D01*
X182211980Y-96123760D01*
X182156100Y-96113600D01*
X182082440Y-96098360D01*
X181991000Y-96080580D01*
X181985920Y-96080580D01*
X181894480Y-96062800D01*
X181820820Y-96047560D01*
X181767480Y-96034860D01*
X181744620Y-96027240D01*
X181739540Y-96022160D01*
X181721760Y-95986600D01*
X181696360Y-95930720D01*
X181665880Y-95862140D01*
X181637940Y-95791020D01*
X181610000Y-95727520D01*
X181594760Y-95681800D01*
X181589680Y-95658940D01*
X181602380Y-95636080D01*
X181632860Y-95590360D01*
X181678580Y-95524320D01*
X181729380Y-95448120D01*
X181734460Y-95443040D01*
X181785260Y-95366840D01*
X181828440Y-95303340D01*
X181856380Y-95257620D01*
X181866540Y-95234760D01*
X181848760Y-95211900D01*
X181810660Y-95168720D01*
X181754780Y-95110300D01*
X181688740Y-95044260D01*
X181665880Y-95021400D01*
X181592220Y-94950280D01*
X181541420Y-94902020D01*
X181508400Y-94876620D01*
X181493160Y-94871540D01*
X181470300Y-94886780D01*
X181422040Y-94917260D01*
X181356000Y-94962980D01*
X181279800Y-95013780D01*
X181274720Y-95018860D01*
X181198520Y-95069660D01*
X181135020Y-95112840D01*
X181089300Y-95143320D01*
X181068980Y-95153480D01*
X181066440Y-95153480D01*
X181035960Y-95145860D01*
X180982620Y-95125540D01*
X180914040Y-95100140D01*
X180845460Y-95072200D01*
X180779420Y-95044260D01*
X180731160Y-95023940D01*
X180710840Y-95011240D01*
X180708300Y-95008700D01*
X180700680Y-94980760D01*
X180687980Y-94924880D01*
X180672740Y-94846140D01*
X180654960Y-94752160D01*
X180652420Y-94739460D01*
X180634640Y-94648020D01*
X180619400Y-94571820D01*
X180609240Y-94521020D01*
X180604160Y-94500700D01*
X180591460Y-94495620D01*
X180545740Y-94493080D01*
X180479700Y-94490540D01*
X180395880Y-94490540D01*
X180312060Y-94490540D01*
X180228240Y-94493080D01*
X180157120Y-94495620D01*
X180103780Y-94498160D01*
X180083460Y-94503240D01*
X180073300Y-94533720D01*
X180063140Y-94589600D01*
X180045360Y-94668340D01*
X180027580Y-94762320D01*
X180025040Y-94777560D01*
X180007260Y-94869000D01*
X179992020Y-94942660D01*
X179981860Y-94993460D01*
X179976780Y-95013780D01*
X179966620Y-95018860D01*
X179931060Y-95034100D01*
X179870100Y-95059500D01*
X179793900Y-95089980D01*
X179618640Y-95161100D01*
X179405280Y-95013780D01*
X179387500Y-95001080D01*
X179308760Y-94950280D01*
X179245260Y-94907100D01*
X179202080Y-94879160D01*
X179184300Y-94869000D01*
X179181760Y-94869000D01*
X179161440Y-94886780D01*
X179118260Y-94927420D01*
X179062380Y-94983300D01*
X178993800Y-95051880D01*
X178943000Y-95100140D01*
X178884580Y-95161100D01*
X178849020Y-95201740D01*
X178828700Y-95227140D01*
X178821080Y-95242380D01*
X178821080Y-95252540D01*
X178836320Y-95275400D01*
X178866800Y-95321120D01*
X178912520Y-95387160D01*
X178963320Y-95463360D01*
X179006500Y-95524320D01*
X179052220Y-95597980D01*
X179082700Y-95648780D01*
X179092860Y-95674180D01*
X179090320Y-95684340D01*
X179075080Y-95724980D01*
X179049680Y-95788480D01*
X179019200Y-95864680D01*
X178943000Y-96034860D01*
X178833780Y-96055180D01*
X178765200Y-96067880D01*
X178671220Y-96085660D01*
X178582320Y-96103440D01*
X178440080Y-96131380D01*
X178435000Y-96644460D01*
X178457860Y-96654620D01*
X178478180Y-96659700D01*
X178531520Y-96672400D01*
X178605180Y-96687640D01*
X178691540Y-96702880D01*
X178767740Y-96718120D01*
X178841400Y-96730820D01*
X178897280Y-96740980D01*
X178920140Y-96746060D01*
X178927760Y-96753680D01*
X178945540Y-96791780D01*
X178970940Y-96850200D01*
X179001420Y-96918780D01*
X179031900Y-96992440D01*
X179059840Y-97058480D01*
X179077620Y-97109280D01*
X179085240Y-97134680D01*
X179072540Y-97155000D01*
X179044600Y-97198180D01*
X179003960Y-97261680D01*
X178953160Y-97337880D01*
X178902360Y-97411540D01*
X178859180Y-97475040D01*
X178828700Y-97520760D01*
X178816000Y-97543620D01*
X178821080Y-97556320D01*
X178851560Y-97591880D01*
X178907440Y-97652840D01*
X178991260Y-97734120D01*
X179006500Y-97746820D01*
X179072540Y-97812860D01*
X179128420Y-97863660D01*
X179169060Y-97899220D01*
X179186840Y-97911920D01*
G04 #@! TO.C,U1*
D14*
X113512095Y-105505380D02*
X113512095Y-106314904D01*
X113559714Y-106410142D01*
X113607333Y-106457761D01*
X113702571Y-106505380D01*
X113893047Y-106505380D01*
X113988285Y-106457761D01*
X114035904Y-106410142D01*
X114083523Y-106314904D01*
X114083523Y-105505380D01*
X115083523Y-106505380D02*
X114512095Y-106505380D01*
X114797809Y-106505380D02*
X114797809Y-105505380D01*
X114702571Y-105648238D01*
X114607333Y-105743476D01*
X114512095Y-105791095D01*
G04 #@! TO.C,U2*
X110204380Y-90449904D02*
X111013904Y-90449904D01*
X111109142Y-90402285D01*
X111156761Y-90354666D01*
X111204380Y-90259428D01*
X111204380Y-90068952D01*
X111156761Y-89973714D01*
X111109142Y-89926095D01*
X111013904Y-89878476D01*
X110204380Y-89878476D01*
X110299619Y-89449904D02*
X110252000Y-89402285D01*
X110204380Y-89307047D01*
X110204380Y-89068952D01*
X110252000Y-88973714D01*
X110299619Y-88926095D01*
X110394857Y-88878476D01*
X110490095Y-88878476D01*
X110632952Y-88926095D01*
X111204380Y-89497523D01*
X111204380Y-88878476D01*
G04 #@! TO.C,R7*
X106124380Y-97117476D02*
X105648190Y-97450809D01*
X106124380Y-97688904D02*
X105124380Y-97688904D01*
X105124380Y-97307952D01*
X105172000Y-97212714D01*
X105219619Y-97165095D01*
X105314857Y-97117476D01*
X105457714Y-97117476D01*
X105552952Y-97165095D01*
X105600571Y-97212714D01*
X105648190Y-97307952D01*
X105648190Y-97688904D01*
X105124380Y-96784142D02*
X105124380Y-96117476D01*
X106124380Y-96546047D01*
G04 #@! TO.C,C1*
X110065571Y-93089428D02*
X110022714Y-93132285D01*
X109894142Y-93175142D01*
X109808428Y-93175142D01*
X109679857Y-93132285D01*
X109594142Y-93046571D01*
X109551285Y-92960857D01*
X109508428Y-92789428D01*
X109508428Y-92660857D01*
X109551285Y-92489428D01*
X109594142Y-92403714D01*
X109679857Y-92318000D01*
X109808428Y-92275142D01*
X109894142Y-92275142D01*
X110022714Y-92318000D01*
X110065571Y-92360857D01*
X110922714Y-93175142D02*
X110408428Y-93175142D01*
X110665571Y-93175142D02*
X110665571Y-92275142D01*
X110579857Y-92403714D01*
X110494142Y-92489428D01*
X110408428Y-92532285D01*
G04 #@! TO.C,C2*
X115568428Y-95674428D02*
X115611285Y-95717285D01*
X115654142Y-95845857D01*
X115654142Y-95931571D01*
X115611285Y-96060142D01*
X115525571Y-96145857D01*
X115439857Y-96188714D01*
X115268428Y-96231571D01*
X115139857Y-96231571D01*
X114968428Y-96188714D01*
X114882714Y-96145857D01*
X114797000Y-96060142D01*
X114754142Y-95931571D01*
X114754142Y-95845857D01*
X114797000Y-95717285D01*
X114839857Y-95674428D01*
X114839857Y-95331571D02*
X114797000Y-95288714D01*
X114754142Y-95203000D01*
X114754142Y-94988714D01*
X114797000Y-94903000D01*
X114839857Y-94860142D01*
X114925571Y-94817285D01*
X115011285Y-94817285D01*
X115139857Y-94860142D01*
X115654142Y-95374428D01*
X115654142Y-94817285D01*
G04 #@! TO.C,C3*
X100949142Y-90259476D02*
X100996761Y-90307095D01*
X101044380Y-90449952D01*
X101044380Y-90545190D01*
X100996761Y-90688047D01*
X100901523Y-90783285D01*
X100806285Y-90830904D01*
X100615809Y-90878523D01*
X100472952Y-90878523D01*
X100282476Y-90830904D01*
X100187238Y-90783285D01*
X100092000Y-90688047D01*
X100044380Y-90545190D01*
X100044380Y-90449952D01*
X100092000Y-90307095D01*
X100139619Y-90259476D01*
X100044380Y-89926142D02*
X100044380Y-89307095D01*
X100425333Y-89640428D01*
X100425333Y-89497571D01*
X100472952Y-89402333D01*
X100520571Y-89354714D01*
X100615809Y-89307095D01*
X100853904Y-89307095D01*
X100949142Y-89354714D01*
X100996761Y-89402333D01*
X101044380Y-89497571D01*
X101044380Y-89783285D01*
X100996761Y-89878523D01*
X100949142Y-89926142D01*
G04 #@! TO.C,C4*
X115427142Y-89751476D02*
X115474761Y-89799095D01*
X115522380Y-89941952D01*
X115522380Y-90037190D01*
X115474761Y-90180047D01*
X115379523Y-90275285D01*
X115284285Y-90322904D01*
X115093809Y-90370523D01*
X114950952Y-90370523D01*
X114760476Y-90322904D01*
X114665238Y-90275285D01*
X114570000Y-90180047D01*
X114522380Y-90037190D01*
X114522380Y-89941952D01*
X114570000Y-89799095D01*
X114617619Y-89751476D01*
X114855714Y-88894333D02*
X115522380Y-88894333D01*
X114474761Y-89132428D02*
X115189047Y-89370523D01*
X115189047Y-88751476D01*
G04 #@! TO.C,J1*
X115284380Y-112262190D02*
X115998666Y-112262190D01*
X116141523Y-112309809D01*
X116236761Y-112405047D01*
X116284380Y-112547904D01*
X116284380Y-112643142D01*
X116284380Y-111262190D02*
X116284380Y-111833619D01*
X116284380Y-111547904D02*
X115284380Y-111547904D01*
X115427238Y-111643142D01*
X115522476Y-111738380D01*
X115570095Y-111833619D01*
G04 #@! TO.C,R1*
X100494523Y-95456380D02*
X100161190Y-94980190D01*
X99923095Y-95456380D02*
X99923095Y-94456380D01*
X100304047Y-94456380D01*
X100399285Y-94504000D01*
X100446904Y-94551619D01*
X100494523Y-94646857D01*
X100494523Y-94789714D01*
X100446904Y-94884952D01*
X100399285Y-94932571D01*
X100304047Y-94980190D01*
X99923095Y-94980190D01*
X101446904Y-95456380D02*
X100875476Y-95456380D01*
X101161190Y-95456380D02*
X101161190Y-94456380D01*
X101065952Y-94599238D01*
X100970714Y-94694476D01*
X100875476Y-94742095D01*
G04 #@! TO.C,R2*
X109384523Y-108664380D02*
X109051190Y-108188190D01*
X108813095Y-108664380D02*
X108813095Y-107664380D01*
X109194047Y-107664380D01*
X109289285Y-107712000D01*
X109336904Y-107759619D01*
X109384523Y-107854857D01*
X109384523Y-107997714D01*
X109336904Y-108092952D01*
X109289285Y-108140571D01*
X109194047Y-108188190D01*
X108813095Y-108188190D01*
X109765476Y-107759619D02*
X109813095Y-107712000D01*
X109908333Y-107664380D01*
X110146428Y-107664380D01*
X110241666Y-107712000D01*
X110289285Y-107759619D01*
X110336904Y-107854857D01*
X110336904Y-107950095D01*
X110289285Y-108092952D01*
X109717857Y-108664380D01*
X110336904Y-108664380D01*
G04 #@! TO.C,R3*
X103669523Y-108664380D02*
X103336190Y-108188190D01*
X103098095Y-108664380D02*
X103098095Y-107664380D01*
X103479047Y-107664380D01*
X103574285Y-107712000D01*
X103621904Y-107759619D01*
X103669523Y-107854857D01*
X103669523Y-107997714D01*
X103621904Y-108092952D01*
X103574285Y-108140571D01*
X103479047Y-108188190D01*
X103098095Y-108188190D01*
X104002857Y-107664380D02*
X104621904Y-107664380D01*
X104288571Y-108045333D01*
X104431428Y-108045333D01*
X104526666Y-108092952D01*
X104574285Y-108140571D01*
X104621904Y-108235809D01*
X104621904Y-108473904D01*
X104574285Y-108569142D01*
X104526666Y-108616761D01*
X104431428Y-108664380D01*
X104145714Y-108664380D01*
X104050476Y-108616761D01*
X104002857Y-108569142D01*
G04 #@! TO.C,R4*
X119671523Y-99647380D02*
X119338190Y-99171190D01*
X119100095Y-99647380D02*
X119100095Y-98647380D01*
X119481047Y-98647380D01*
X119576285Y-98695000D01*
X119623904Y-98742619D01*
X119671523Y-98837857D01*
X119671523Y-98980714D01*
X119623904Y-99075952D01*
X119576285Y-99123571D01*
X119481047Y-99171190D01*
X119100095Y-99171190D01*
X120528666Y-98980714D02*
X120528666Y-99647380D01*
X120290571Y-98599761D02*
X120052476Y-99314047D01*
X120671523Y-99314047D01*
G04 #@! TO.C,R5*
X119078380Y-109563476D02*
X118602190Y-109896809D01*
X119078380Y-110134904D02*
X118078380Y-110134904D01*
X118078380Y-109753952D01*
X118126000Y-109658714D01*
X118173619Y-109611095D01*
X118268857Y-109563476D01*
X118411714Y-109563476D01*
X118506952Y-109611095D01*
X118554571Y-109658714D01*
X118602190Y-109753952D01*
X118602190Y-110134904D01*
X118078380Y-108658714D02*
X118078380Y-109134904D01*
X118554571Y-109182523D01*
X118506952Y-109134904D01*
X118459333Y-109039666D01*
X118459333Y-108801571D01*
X118506952Y-108706333D01*
X118554571Y-108658714D01*
X118649809Y-108611095D01*
X118887904Y-108611095D01*
X118983142Y-108658714D01*
X119030761Y-108706333D01*
X119078380Y-108801571D01*
X119078380Y-109039666D01*
X119030761Y-109134904D01*
X118983142Y-109182523D01*
G04 #@! TO.C,R6*
X119078380Y-92672476D02*
X118602190Y-93005809D01*
X119078380Y-93243904D02*
X118078380Y-93243904D01*
X118078380Y-92862952D01*
X118126000Y-92767714D01*
X118173619Y-92720095D01*
X118268857Y-92672476D01*
X118411714Y-92672476D01*
X118506952Y-92720095D01*
X118554571Y-92767714D01*
X118602190Y-92862952D01*
X118602190Y-93243904D01*
X118078380Y-91815333D02*
X118078380Y-92005809D01*
X118126000Y-92101047D01*
X118173619Y-92148666D01*
X118316476Y-92243904D01*
X118506952Y-92291523D01*
X118887904Y-92291523D01*
X118983142Y-92243904D01*
X119030761Y-92196285D01*
X119078380Y-92101047D01*
X119078380Y-91910571D01*
X119030761Y-91815333D01*
X118983142Y-91767714D01*
X118887904Y-91720095D01*
X118649809Y-91720095D01*
X118554571Y-91767714D01*
X118506952Y-91815333D01*
X118459333Y-91910571D01*
X118459333Y-92101047D01*
X118506952Y-92196285D01*
X118554571Y-92243904D01*
X118649809Y-92291523D01*
G04 #@! TO.C,R8*
X106124380Y-101689476D02*
X105648190Y-102022809D01*
X106124380Y-102260904D02*
X105124380Y-102260904D01*
X105124380Y-101879952D01*
X105172000Y-101784714D01*
X105219619Y-101737095D01*
X105314857Y-101689476D01*
X105457714Y-101689476D01*
X105552952Y-101737095D01*
X105600571Y-101784714D01*
X105648190Y-101879952D01*
X105648190Y-102260904D01*
X105552952Y-101118047D02*
X105505333Y-101213285D01*
X105457714Y-101260904D01*
X105362476Y-101308523D01*
X105314857Y-101308523D01*
X105219619Y-101260904D01*
X105172000Y-101213285D01*
X105124380Y-101118047D01*
X105124380Y-100927571D01*
X105172000Y-100832333D01*
X105219619Y-100784714D01*
X105314857Y-100737095D01*
X105362476Y-100737095D01*
X105457714Y-100784714D01*
X105505333Y-100832333D01*
X105552952Y-100927571D01*
X105552952Y-101118047D01*
X105600571Y-101213285D01*
X105648190Y-101260904D01*
X105743428Y-101308523D01*
X105933904Y-101308523D01*
X106029142Y-101260904D01*
X106076761Y-101213285D01*
X106124380Y-101118047D01*
X106124380Y-100927571D01*
X106076761Y-100832333D01*
X106029142Y-100784714D01*
X105933904Y-100737095D01*
X105743428Y-100737095D01*
X105648190Y-100784714D01*
X105600571Y-100832333D01*
X105552952Y-100927571D01*
G04 #@! TO.C,Q1*
X101266619Y-97911238D02*
X101219000Y-98006476D01*
X101123761Y-98101714D01*
X100980904Y-98244571D01*
X100933285Y-98339809D01*
X100933285Y-98435047D01*
X101171380Y-98387428D02*
X101123761Y-98482666D01*
X101028523Y-98577904D01*
X100838047Y-98625523D01*
X100504714Y-98625523D01*
X100314238Y-98577904D01*
X100219000Y-98482666D01*
X100171380Y-98387428D01*
X100171380Y-98196952D01*
X100219000Y-98101714D01*
X100314238Y-98006476D01*
X100504714Y-97958857D01*
X100838047Y-97958857D01*
X101028523Y-98006476D01*
X101123761Y-98101714D01*
X101171380Y-98196952D01*
X101171380Y-98387428D01*
X101171380Y-97006476D02*
X101171380Y-97577904D01*
X101171380Y-97292190D02*
X100171380Y-97292190D01*
X100314238Y-97387428D01*
X100409476Y-97482666D01*
X100457095Y-97577904D01*
G04 #@! TO.C,Q2*
X101266619Y-102229238D02*
X101219000Y-102324476D01*
X101123761Y-102419714D01*
X100980904Y-102562571D01*
X100933285Y-102657809D01*
X100933285Y-102753047D01*
X101171380Y-102705428D02*
X101123761Y-102800666D01*
X101028523Y-102895904D01*
X100838047Y-102943523D01*
X100504714Y-102943523D01*
X100314238Y-102895904D01*
X100219000Y-102800666D01*
X100171380Y-102705428D01*
X100171380Y-102514952D01*
X100219000Y-102419714D01*
X100314238Y-102324476D01*
X100504714Y-102276857D01*
X100838047Y-102276857D01*
X101028523Y-102324476D01*
X101123761Y-102419714D01*
X101171380Y-102514952D01*
X101171380Y-102705428D01*
X100266619Y-101895904D02*
X100219000Y-101848285D01*
X100171380Y-101753047D01*
X100171380Y-101514952D01*
X100219000Y-101419714D01*
X100266619Y-101372095D01*
X100361857Y-101324476D01*
X100457095Y-101324476D01*
X100599952Y-101372095D01*
X101171380Y-101943523D01*
X101171380Y-101324476D01*
G04 #@! TD*
D11*
G36*
X173863000Y-93091000D02*
X123317000Y-93091000D01*
X123317000Y-88265000D01*
X173863000Y-88265000D01*
X173863000Y-93091000D01*
X173863000Y-93091000D01*
G37*
X173863000Y-93091000D02*
X123317000Y-93091000D01*
X123317000Y-88265000D01*
X173863000Y-88265000D01*
X173863000Y-93091000D01*
M02*
