G04 #@! TF.FileFunction,Legend,Bot*
%FSLAX46Y46*%
G04 Gerber Fmt 4.6, Leading zero omitted, Abs format (unit mm)*
G04 Created by KiCad (PCBNEW (2016-05-03 BZR 6266)-product) date Mon Jul 11 04:33:51 2016*
%MOMM*%
%LPD*%
G01*
G04 APERTURE LIST*
%ADD10C,0.350000*%
%ADD11C,0.150000*%
%ADD12C,0.180000*%
G04 APERTURE END LIST*
D10*
D11*
X99060000Y-95758000D02*
X99060000Y-113538000D01*
X198120000Y-95758000D02*
X99060000Y-95758000D01*
X198120000Y-113538000D02*
X198120000Y-95758000D01*
X99060000Y-113538000D02*
X198120000Y-113538000D01*
X139700000Y-99568000D02*
X139700000Y-109728000D01*
X157480000Y-99568000D02*
X139700000Y-99568000D01*
X157480000Y-109728000D02*
X157480000Y-99568000D01*
X139700000Y-109728000D02*
X157480000Y-109728000D01*
X173990000Y-109728000D02*
X173990000Y-99568000D01*
X161290000Y-109728000D02*
X173990000Y-109728000D01*
X161290000Y-99568000D02*
X161290000Y-109728000D01*
X173990000Y-99568000D02*
X161290000Y-99568000D01*
X135890000Y-109728000D02*
X135890000Y-99568000D01*
X123190000Y-109728000D02*
X135890000Y-109728000D01*
X123190000Y-99568000D02*
X123190000Y-109728000D01*
X135890000Y-99568000D02*
X123190000Y-99568000D01*
D12*
X158686333Y-97813762D02*
X158543476Y-97861381D01*
X158305380Y-97861381D01*
X158210142Y-97813762D01*
X158162523Y-97766143D01*
X158114904Y-97670905D01*
X158114904Y-97575667D01*
X158162523Y-97480429D01*
X158210142Y-97432810D01*
X158305380Y-97385190D01*
X158495857Y-97337571D01*
X158591095Y-97289952D01*
X158638714Y-97242333D01*
X158686333Y-97147095D01*
X158686333Y-97051857D01*
X158638714Y-96956619D01*
X158591095Y-96909000D01*
X158495857Y-96861381D01*
X158257761Y-96861381D01*
X158114904Y-96909000D01*
X157781571Y-96861381D02*
X157543476Y-97861381D01*
X157352999Y-97147095D01*
X157162523Y-97861381D01*
X156924428Y-96861381D01*
X156638714Y-96861381D02*
X156019666Y-96861381D01*
X156353000Y-97242333D01*
X156210142Y-97242333D01*
X156114904Y-97289952D01*
X156067285Y-97337571D01*
X156019666Y-97432810D01*
X156019666Y-97670905D01*
X156067285Y-97766143D01*
X156114904Y-97813762D01*
X156210142Y-97861381D01*
X156495857Y-97861381D01*
X156591095Y-97813762D01*
X156638714Y-97766143D01*
X149709048Y-105052762D02*
X149566191Y-105100381D01*
X149328095Y-105100381D01*
X149232857Y-105052762D01*
X149185238Y-105005143D01*
X149137619Y-104909905D01*
X149137619Y-104814667D01*
X149185238Y-104719429D01*
X149232857Y-104671810D01*
X149328095Y-104624190D01*
X149518572Y-104576571D01*
X149613810Y-104528952D01*
X149661429Y-104481333D01*
X149709048Y-104386095D01*
X149709048Y-104290857D01*
X149661429Y-104195619D01*
X149613810Y-104148000D01*
X149518572Y-104100381D01*
X149280476Y-104100381D01*
X149137619Y-104148000D01*
X148709048Y-104576571D02*
X148375714Y-104576571D01*
X148232857Y-105100381D02*
X148709048Y-105100381D01*
X148709048Y-104100381D01*
X148232857Y-104100381D01*
X147947143Y-104100381D02*
X147375714Y-104100381D01*
X147661429Y-105100381D02*
X147661429Y-104100381D01*
X173418333Y-98067762D02*
X173275476Y-98115381D01*
X173037380Y-98115381D01*
X172942142Y-98067762D01*
X172894523Y-98020143D01*
X172846904Y-97924905D01*
X172846904Y-97829667D01*
X172894523Y-97734429D01*
X172942142Y-97686810D01*
X173037380Y-97639190D01*
X173227857Y-97591571D01*
X173323095Y-97543952D01*
X173370714Y-97496333D01*
X173418333Y-97401095D01*
X173418333Y-97305857D01*
X173370714Y-97210619D01*
X173323095Y-97163000D01*
X173227857Y-97115381D01*
X172989761Y-97115381D01*
X172846904Y-97163000D01*
X172513571Y-97115381D02*
X172275476Y-98115381D01*
X172084999Y-97401095D01*
X171894523Y-98115381D01*
X171656428Y-97115381D01*
X170751666Y-98115381D02*
X171323095Y-98115381D01*
X171037381Y-98115381D02*
X171037381Y-97115381D01*
X171132619Y-97258238D01*
X171227857Y-97353476D01*
X171323095Y-97401095D01*
X169782857Y-104814667D02*
X169306666Y-104814667D01*
X169878095Y-105100381D02*
X169544762Y-104100381D01*
X169211428Y-105100381D01*
X168401904Y-105100381D02*
X168878095Y-105100381D01*
X168878095Y-104100381D01*
X168116190Y-104814667D02*
X167639999Y-104814667D01*
X168211428Y-105100381D02*
X167878095Y-104100381D01*
X167544761Y-105100381D01*
X166639999Y-105100381D02*
X166973333Y-104624190D01*
X167211428Y-105100381D02*
X167211428Y-104100381D01*
X166830475Y-104100381D01*
X166735237Y-104148000D01*
X166687618Y-104195619D01*
X166639999Y-104290857D01*
X166639999Y-104433714D01*
X166687618Y-104528952D01*
X166735237Y-104576571D01*
X166830475Y-104624190D01*
X167211428Y-104624190D01*
X166211428Y-105100381D02*
X166211428Y-104100381D01*
X165878094Y-104814667D01*
X165544761Y-104100381D01*
X165544761Y-105100381D01*
X135318333Y-98067762D02*
X135175476Y-98115381D01*
X134937380Y-98115381D01*
X134842142Y-98067762D01*
X134794523Y-98020143D01*
X134746904Y-97924905D01*
X134746904Y-97829667D01*
X134794523Y-97734429D01*
X134842142Y-97686810D01*
X134937380Y-97639190D01*
X135127857Y-97591571D01*
X135223095Y-97543952D01*
X135270714Y-97496333D01*
X135318333Y-97401095D01*
X135318333Y-97305857D01*
X135270714Y-97210619D01*
X135223095Y-97163000D01*
X135127857Y-97115381D01*
X134889761Y-97115381D01*
X134746904Y-97163000D01*
X134413571Y-97115381D02*
X134175476Y-98115381D01*
X133984999Y-97401095D01*
X133794523Y-98115381D01*
X133556428Y-97115381D01*
X133223095Y-97210619D02*
X133175476Y-97163000D01*
X133080238Y-97115381D01*
X132842142Y-97115381D01*
X132746904Y-97163000D01*
X132699285Y-97210619D01*
X132651666Y-97305857D01*
X132651666Y-97401095D01*
X132699285Y-97543952D01*
X133270714Y-98115381D01*
X132651666Y-98115381D01*
X131373333Y-105100381D02*
X131373333Y-104100381D01*
X131039999Y-104814667D01*
X130706666Y-104100381D01*
X130706666Y-105100381D01*
X130230476Y-104576571D02*
X129897142Y-104576571D01*
X129754285Y-105100381D02*
X130230476Y-105100381D01*
X130230476Y-104100381D01*
X129754285Y-104100381D01*
X129325714Y-105100381D02*
X129325714Y-104100381D01*
X128754285Y-105100381D01*
X128754285Y-104100381D01*
X128278095Y-104100381D02*
X128278095Y-104909905D01*
X128230476Y-105005143D01*
X128182857Y-105052762D01*
X128087619Y-105100381D01*
X127897142Y-105100381D01*
X127801904Y-105052762D01*
X127754285Y-105005143D01*
X127706666Y-104909905D01*
X127706666Y-104100381D01*
M02*
