G04 #@! TF.FileFunction,Copper,L3,Inr,Plane*
%FSLAX46Y46*%
G04 Gerber Fmt 4.6, Leading zero omitted, Abs format (unit mm)*
G04 Created by KiCad (PCBNEW (2016-05-03 BZR 6266)-product) date Mon Jul 11 04:33:51 2016*
%MOMM*%
%LPD*%
G01*
G04 APERTURE LIST*
%ADD10C,0.350000*%
%ADD11C,0.150000*%
%ADD12C,1.270000*%
%ADD13C,0.965200*%
%ADD14C,0.254000*%
%ADD15C,0.350000*%
G04 APERTURE END LIST*
D10*
D11*
X99060000Y-95758000D02*
X99060000Y-113538000D01*
X198120000Y-95758000D02*
X99060000Y-95758000D01*
X198120000Y-113538000D02*
X198120000Y-95758000D01*
X99060000Y-113538000D02*
X198120000Y-113538000D01*
D12*
X116840000Y-104013000D03*
X102235000Y-97663000D03*
X103505000Y-97663000D03*
X100330000Y-101473000D03*
X100330000Y-102743000D03*
X118110000Y-105283000D03*
X108584980Y-107823000D03*
X117475000Y-97448000D03*
X109220000Y-97663000D03*
D13*
X129540000Y-104648000D03*
X148590000Y-104648000D03*
X167640000Y-104648000D03*
X109220000Y-104013000D03*
X113030000Y-104013000D03*
D12*
X100330000Y-99568000D03*
X108585000Y-110998000D03*
D13*
X113665000Y-112268000D03*
X106045000Y-107188000D03*
D14*
G36*
X119253000Y-104989649D02*
X119101099Y-104622019D01*
X118772709Y-104293057D01*
X118343429Y-104114804D01*
X118008311Y-104114511D01*
X118008602Y-103781611D01*
X117831099Y-103352019D01*
X117502709Y-103023057D01*
X117073429Y-102844804D01*
X116608611Y-102844398D01*
X116179019Y-103021901D01*
X115850057Y-103350291D01*
X115671804Y-103779571D01*
X115671398Y-104244389D01*
X115848901Y-104673981D01*
X116177291Y-105002943D01*
X116606571Y-105181196D01*
X116941689Y-105181489D01*
X116941398Y-105514389D01*
X117118901Y-105943981D01*
X117447291Y-106272943D01*
X117815892Y-106426000D01*
X109220000Y-106426000D01*
X109170590Y-106436006D01*
X109128965Y-106464447D01*
X109101685Y-106506841D01*
X109093000Y-106553000D01*
X109093000Y-108966000D01*
X106172000Y-108966000D01*
X106172000Y-108204111D01*
X106246208Y-108204176D01*
X106619766Y-108049825D01*
X106905821Y-107764269D01*
X107060824Y-107390982D01*
X107061176Y-106986792D01*
X106906825Y-106613234D01*
X106621269Y-106327179D01*
X106247982Y-106172176D01*
X106172000Y-106172110D01*
X106172000Y-104214208D01*
X108203824Y-104214208D01*
X108358175Y-104587766D01*
X108643731Y-104873821D01*
X109017018Y-105028824D01*
X109421208Y-105029176D01*
X109794766Y-104874825D01*
X110080821Y-104589269D01*
X110235824Y-104215982D01*
X110235825Y-104214208D01*
X112013824Y-104214208D01*
X112168175Y-104587766D01*
X112453731Y-104873821D01*
X112827018Y-105028824D01*
X113231208Y-105029176D01*
X113604766Y-104874825D01*
X113890821Y-104589269D01*
X114045824Y-104215982D01*
X114046176Y-103811792D01*
X113891825Y-103438234D01*
X113606269Y-103152179D01*
X113232982Y-102997176D01*
X112828792Y-102996824D01*
X112455234Y-103151175D01*
X112169179Y-103436731D01*
X112014176Y-103810018D01*
X112013824Y-104214208D01*
X110235825Y-104214208D01*
X110236176Y-103811792D01*
X110081825Y-103438234D01*
X109796269Y-103152179D01*
X109422982Y-102997176D01*
X109018792Y-102996824D01*
X108645234Y-103151175D01*
X108359179Y-103436731D01*
X108204176Y-103810018D01*
X108203824Y-104214208D01*
X106172000Y-104214208D01*
X106172000Y-96520000D01*
X119253000Y-96520000D01*
X119253000Y-104989649D01*
X119253000Y-104989649D01*
G37*
X119253000Y-104989649D02*
X119101099Y-104622019D01*
X118772709Y-104293057D01*
X118343429Y-104114804D01*
X118008311Y-104114511D01*
X118008602Y-103781611D01*
X117831099Y-103352019D01*
X117502709Y-103023057D01*
X117073429Y-102844804D01*
X116608611Y-102844398D01*
X116179019Y-103021901D01*
X115850057Y-103350291D01*
X115671804Y-103779571D01*
X115671398Y-104244389D01*
X115848901Y-104673981D01*
X116177291Y-105002943D01*
X116606571Y-105181196D01*
X116941689Y-105181489D01*
X116941398Y-105514389D01*
X117118901Y-105943981D01*
X117447291Y-106272943D01*
X117815892Y-106426000D01*
X109220000Y-106426000D01*
X109170590Y-106436006D01*
X109128965Y-106464447D01*
X109101685Y-106506841D01*
X109093000Y-106553000D01*
X109093000Y-108966000D01*
X106172000Y-108966000D01*
X106172000Y-108204111D01*
X106246208Y-108204176D01*
X106619766Y-108049825D01*
X106905821Y-107764269D01*
X107060824Y-107390982D01*
X107061176Y-106986792D01*
X106906825Y-106613234D01*
X106621269Y-106327179D01*
X106247982Y-106172176D01*
X106172000Y-106172110D01*
X106172000Y-104214208D01*
X108203824Y-104214208D01*
X108358175Y-104587766D01*
X108643731Y-104873821D01*
X109017018Y-105028824D01*
X109421208Y-105029176D01*
X109794766Y-104874825D01*
X110080821Y-104589269D01*
X110235824Y-104215982D01*
X110235825Y-104214208D01*
X112013824Y-104214208D01*
X112168175Y-104587766D01*
X112453731Y-104873821D01*
X112827018Y-105028824D01*
X113231208Y-105029176D01*
X113604766Y-104874825D01*
X113890821Y-104589269D01*
X114045824Y-104215982D01*
X114046176Y-103811792D01*
X113891825Y-103438234D01*
X113606269Y-103152179D01*
X113232982Y-102997176D01*
X112828792Y-102996824D01*
X112455234Y-103151175D01*
X112169179Y-103436731D01*
X112014176Y-103810018D01*
X112013824Y-104214208D01*
X110235825Y-104214208D01*
X110236176Y-103811792D01*
X110081825Y-103438234D01*
X109796269Y-103152179D01*
X109422982Y-102997176D01*
X109018792Y-102996824D01*
X108645234Y-103151175D01*
X108359179Y-103436731D01*
X108204176Y-103810018D01*
X108203824Y-104214208D01*
X106172000Y-104214208D01*
X106172000Y-96520000D01*
X119253000Y-96520000D01*
X119253000Y-104989649D01*
G36*
X101574019Y-96671901D02*
X101245057Y-97000291D01*
X101066804Y-97429571D01*
X101066398Y-97894389D01*
X101243901Y-98323981D01*
X101572291Y-98652943D01*
X102001571Y-98831196D01*
X102466389Y-98831602D01*
X102870465Y-98664642D01*
X103271571Y-98831196D01*
X103736389Y-98831602D01*
X104165981Y-98654099D01*
X104494943Y-98325709D01*
X104673196Y-97896429D01*
X104673602Y-97431611D01*
X104496099Y-97002019D01*
X104167709Y-96673057D01*
X103799108Y-96520000D01*
X105283000Y-96520000D01*
X105283000Y-106513082D01*
X105184179Y-106611731D01*
X105029176Y-106985018D01*
X105028824Y-107389208D01*
X105183175Y-107762766D01*
X105283000Y-107862765D01*
X105283000Y-109728000D01*
X105293006Y-109777410D01*
X105321447Y-109819035D01*
X105363841Y-109846315D01*
X105410000Y-109855000D01*
X109093000Y-109855000D01*
X109093000Y-112776000D01*
X99822000Y-112776000D01*
X99822000Y-103797184D01*
X100096571Y-103911196D01*
X100561389Y-103911602D01*
X100990981Y-103734099D01*
X101319943Y-103405709D01*
X101498196Y-102976429D01*
X101498602Y-102511611D01*
X101331642Y-102107535D01*
X101498196Y-101706429D01*
X101498602Y-101241611D01*
X101321099Y-100812019D01*
X100992709Y-100483057D01*
X100563429Y-100304804D01*
X100098611Y-100304398D01*
X99822000Y-100418691D01*
X99822000Y-96520000D01*
X101941649Y-96520000D01*
X101574019Y-96671901D01*
X101574019Y-96671901D01*
G37*
X101574019Y-96671901D02*
X101245057Y-97000291D01*
X101066804Y-97429571D01*
X101066398Y-97894389D01*
X101243901Y-98323981D01*
X101572291Y-98652943D01*
X102001571Y-98831196D01*
X102466389Y-98831602D01*
X102870465Y-98664642D01*
X103271571Y-98831196D01*
X103736389Y-98831602D01*
X104165981Y-98654099D01*
X104494943Y-98325709D01*
X104673196Y-97896429D01*
X104673602Y-97431611D01*
X104496099Y-97002019D01*
X104167709Y-96673057D01*
X103799108Y-96520000D01*
X105283000Y-96520000D01*
X105283000Y-106513082D01*
X105184179Y-106611731D01*
X105029176Y-106985018D01*
X105028824Y-107389208D01*
X105183175Y-107762766D01*
X105283000Y-107862765D01*
X105283000Y-109728000D01*
X105293006Y-109777410D01*
X105321447Y-109819035D01*
X105363841Y-109846315D01*
X105410000Y-109855000D01*
X109093000Y-109855000D01*
X109093000Y-112776000D01*
X99822000Y-112776000D01*
X99822000Y-103797184D01*
X100096571Y-103911196D01*
X100561389Y-103911602D01*
X100990981Y-103734099D01*
X101319943Y-103405709D01*
X101498196Y-102976429D01*
X101498602Y-102511611D01*
X101331642Y-102107535D01*
X101498196Y-101706429D01*
X101498602Y-101241611D01*
X101321099Y-100812019D01*
X100992709Y-100483057D01*
X100563429Y-100304804D01*
X100098611Y-100304398D01*
X99822000Y-100418691D01*
X99822000Y-96520000D01*
X101941649Y-96520000D01*
X101574019Y-96671901D01*
D15*
X116840000Y-104013000D03*
X102235000Y-97663000D03*
X103505000Y-97663000D03*
X100330000Y-101473000D03*
X100330000Y-102743000D03*
X118110000Y-105283000D03*
X108584980Y-107823000D03*
X117475000Y-97448000D03*
X109220000Y-97663000D03*
X129540000Y-104648000D03*
X148590000Y-104648000D03*
X167640000Y-104648000D03*
X109220000Y-104013000D03*
X113030000Y-104013000D03*
X100330000Y-99568000D03*
X108585000Y-110998000D03*
X113665000Y-112268000D03*
X106045000Y-107188000D03*
M02*
