G04 #@! TF.GenerationSoftware,KiCad,Pcbnew,5.0.0-fee4fd1~65~ubuntu17.10.1*
G04 #@! TF.CreationDate,2018-09-18T05:44:28-04:00*
G04 #@! TF.ProjectId,touch,746F7563682E6B696361645F70636200,B*
G04 #@! TF.SameCoordinates,Original*
G04 #@! TF.FileFunction,Legend,Bot*
G04 #@! TF.FilePolarity,Positive*
%FSLAX46Y46*%
G04 Gerber Fmt 4.6, Leading zero omitted, Abs format (unit mm)*
G04 Created by KiCad (PCBNEW 5.0.0-fee4fd1~65~ubuntu17.10.1) date Tue Sep 18 05:44:28 2018*
%MOMM*%
%LPD*%
G01*
G04 APERTURE LIST*
%ADD10C,0.300000*%
%ADD11C,0.150000*%
%ADD12C,0.180000*%
G04 APERTURE END LIST*
D10*
X176052857Y-109771571D02*
X176052857Y-108271571D01*
X175552857Y-109343000D01*
X175052857Y-108271571D01*
X175052857Y-109771571D01*
X174338571Y-108985857D02*
X173838571Y-108985857D01*
X173624285Y-109771571D02*
X174338571Y-109771571D01*
X174338571Y-108271571D01*
X173624285Y-108271571D01*
X172981428Y-109771571D02*
X172981428Y-108271571D01*
X172124285Y-109771571D01*
X172124285Y-108271571D01*
X171410000Y-108271571D02*
X171410000Y-109485857D01*
X171338571Y-109628714D01*
X171267142Y-109700142D01*
X171124285Y-109771571D01*
X170838571Y-109771571D01*
X170695714Y-109700142D01*
X170624285Y-109628714D01*
X170552857Y-109485857D01*
X170552857Y-108271571D01*
X168695714Y-109200142D02*
X167552857Y-109200142D01*
X165695714Y-108985857D02*
X165195714Y-108985857D01*
X164981428Y-109771571D02*
X165695714Y-109771571D01*
X165695714Y-108271571D01*
X164981428Y-108271571D01*
X164481428Y-108271571D02*
X163481428Y-109771571D01*
X163481428Y-108271571D02*
X164481428Y-109771571D01*
X162910000Y-109771571D02*
X162910000Y-108271571D01*
X162410000Y-108271571D02*
X161552857Y-108271571D01*
X161981428Y-109771571D02*
X161981428Y-108271571D01*
X150268571Y-109700142D02*
X150054285Y-109771571D01*
X149697142Y-109771571D01*
X149554285Y-109700142D01*
X149482857Y-109628714D01*
X149411428Y-109485857D01*
X149411428Y-109343000D01*
X149482857Y-109200142D01*
X149554285Y-109128714D01*
X149697142Y-109057285D01*
X149982857Y-108985857D01*
X150125714Y-108914428D01*
X150197142Y-108843000D01*
X150268571Y-108700142D01*
X150268571Y-108557285D01*
X150197142Y-108414428D01*
X150125714Y-108343000D01*
X149982857Y-108271571D01*
X149625714Y-108271571D01*
X149411428Y-108343000D01*
X148768571Y-108985857D02*
X148268571Y-108985857D01*
X148054285Y-109771571D02*
X148768571Y-109771571D01*
X148768571Y-108271571D01*
X148054285Y-108271571D01*
X147625714Y-108271571D02*
X146768571Y-108271571D01*
X147197142Y-109771571D02*
X147197142Y-108271571D01*
X136305714Y-109343000D02*
X135591428Y-109343000D01*
X136448571Y-109771571D02*
X135948571Y-108271571D01*
X135448571Y-109771571D01*
X134234285Y-109771571D02*
X134948571Y-109771571D01*
X134948571Y-108271571D01*
X133805714Y-109343000D02*
X133091428Y-109343000D01*
X133948571Y-109771571D02*
X133448571Y-108271571D01*
X132948571Y-109771571D01*
X131591428Y-109771571D02*
X132091428Y-109057285D01*
X132448571Y-109771571D02*
X132448571Y-108271571D01*
X131877142Y-108271571D01*
X131734285Y-108343000D01*
X131662857Y-108414428D01*
X131591428Y-108557285D01*
X131591428Y-108771571D01*
X131662857Y-108914428D01*
X131734285Y-108985857D01*
X131877142Y-109057285D01*
X132448571Y-109057285D01*
X130948571Y-109771571D02*
X130948571Y-108271571D01*
X130448571Y-109343000D01*
X129948571Y-108271571D01*
X129948571Y-109771571D01*
X128091428Y-109200142D02*
X126948571Y-109200142D01*
X125091428Y-109771571D02*
X125091428Y-108271571D01*
X124234285Y-109771571D01*
X124234285Y-108271571D01*
X123520000Y-108985857D02*
X123020000Y-108985857D01*
X122805714Y-109771571D02*
X123520000Y-109771571D01*
X123520000Y-108271571D01*
X122805714Y-108271571D01*
X122305714Y-108271571D02*
X121305714Y-109771571D01*
X121305714Y-108271571D02*
X122305714Y-109771571D01*
X120948571Y-108271571D02*
X120091428Y-108271571D01*
X120520000Y-109771571D02*
X120520000Y-108271571D01*
D11*
G04 #@! TO.C,SW1*
X176530000Y-107188000D02*
X176530000Y-94488000D01*
X161290000Y-107188000D02*
X176530000Y-107188000D01*
X161290000Y-94488000D02*
X161290000Y-107188000D01*
X176530000Y-94488000D02*
X161290000Y-94488000D01*
G04 #@! TO.C,SW2*
X135890000Y-107188000D02*
X135890000Y-94488000D01*
X120650000Y-107188000D02*
X135890000Y-107188000D01*
X120650000Y-94488000D02*
X120650000Y-107188000D01*
X135890000Y-94488000D02*
X120650000Y-94488000D01*
G04 #@! TO.C,SW3*
X139700000Y-94488000D02*
X139700000Y-107188000D01*
X157480000Y-94488000D02*
X139700000Y-94488000D01*
X157480000Y-107188000D02*
X157480000Y-94488000D01*
X139700000Y-107188000D02*
X157480000Y-107188000D01*
G04 #@! TO.C,SW1*
D12*
X176222523Y-94011761D02*
X176079666Y-94059380D01*
X175841571Y-94059380D01*
X175746333Y-94011761D01*
X175698714Y-93964142D01*
X175651095Y-93868904D01*
X175651095Y-93773666D01*
X175698714Y-93678428D01*
X175746333Y-93630809D01*
X175841571Y-93583190D01*
X176032047Y-93535571D01*
X176127285Y-93487952D01*
X176174904Y-93440333D01*
X176222523Y-93345095D01*
X176222523Y-93249857D01*
X176174904Y-93154619D01*
X176127285Y-93107000D01*
X176032047Y-93059380D01*
X175793952Y-93059380D01*
X175651095Y-93107000D01*
X175317761Y-93059380D02*
X175079666Y-94059380D01*
X174889190Y-93345095D01*
X174698714Y-94059380D01*
X174460619Y-93059380D01*
X173555857Y-94059380D02*
X174127285Y-94059380D01*
X173841571Y-94059380D02*
X173841571Y-93059380D01*
X173936809Y-93202238D01*
X174032047Y-93297476D01*
X174127285Y-93345095D01*
G04 #@! TO.C,SW2*
X135582523Y-93757761D02*
X135439666Y-93805380D01*
X135201571Y-93805380D01*
X135106333Y-93757761D01*
X135058714Y-93710142D01*
X135011095Y-93614904D01*
X135011095Y-93519666D01*
X135058714Y-93424428D01*
X135106333Y-93376809D01*
X135201571Y-93329190D01*
X135392047Y-93281571D01*
X135487285Y-93233952D01*
X135534904Y-93186333D01*
X135582523Y-93091095D01*
X135582523Y-92995857D01*
X135534904Y-92900619D01*
X135487285Y-92853000D01*
X135392047Y-92805380D01*
X135153952Y-92805380D01*
X135011095Y-92853000D01*
X134677761Y-92805380D02*
X134439666Y-93805380D01*
X134249190Y-93091095D01*
X134058714Y-93805380D01*
X133820619Y-92805380D01*
X133487285Y-92900619D02*
X133439666Y-92853000D01*
X133344428Y-92805380D01*
X133106333Y-92805380D01*
X133011095Y-92853000D01*
X132963476Y-92900619D01*
X132915857Y-92995857D01*
X132915857Y-93091095D01*
X132963476Y-93233952D01*
X133534904Y-93805380D01*
X132915857Y-93805380D01*
G04 #@! TO.C,SW3*
X157172523Y-93884761D02*
X157029666Y-93932380D01*
X156791571Y-93932380D01*
X156696333Y-93884761D01*
X156648714Y-93837142D01*
X156601095Y-93741904D01*
X156601095Y-93646666D01*
X156648714Y-93551428D01*
X156696333Y-93503809D01*
X156791571Y-93456190D01*
X156982047Y-93408571D01*
X157077285Y-93360952D01*
X157124904Y-93313333D01*
X157172523Y-93218095D01*
X157172523Y-93122857D01*
X157124904Y-93027619D01*
X157077285Y-92980000D01*
X156982047Y-92932380D01*
X156743952Y-92932380D01*
X156601095Y-92980000D01*
X156267761Y-92932380D02*
X156029666Y-93932380D01*
X155839190Y-93218095D01*
X155648714Y-93932380D01*
X155410619Y-92932380D01*
X155124904Y-92932380D02*
X154505857Y-92932380D01*
X154839190Y-93313333D01*
X154696333Y-93313333D01*
X154601095Y-93360952D01*
X154553476Y-93408571D01*
X154505857Y-93503809D01*
X154505857Y-93741904D01*
X154553476Y-93837142D01*
X154601095Y-93884761D01*
X154696333Y-93932380D01*
X154982047Y-93932380D01*
X155077285Y-93884761D01*
X155124904Y-93837142D01*
G04 #@! TD*
M02*
