G04 #@! TF.FileFunction,Copper,L1,Top,Signal*
%FSLAX46Y46*%
G04 Gerber Fmt 4.6, Leading zero omitted, Abs format (unit mm)*
G04 Created by KiCad (PCBNEW (2016-05-03 BZR 6266)-product) date Thu Jul 21 03:13:36 2016*
%MOMM*%
%LPD*%
G01*
G04 APERTURE LIST*
%ADD10C,0.350000*%
%ADD11C,0.150000*%
%ADD12C,0.050000*%
%ADD13O,3.175000X1.270000*%
%ADD14R,1.500000X1.300000*%
%ADD15R,1.000000X1.100000*%
%ADD16R,1.200000X0.650000*%
%ADD17R,1.300000X1.500000*%
%ADD18R,0.900000X0.800000*%
%ADD19R,1.100000X1.000000*%
%ADD20R,0.600000X2.200000*%
%ADD21C,1.270000*%
%ADD22C,0.965200*%
%ADD23C,0.406400*%
%ADD24C,0.254000*%
%ADD25C,0.350000*%
G04 APERTURE END LIST*
D10*
D11*
X99060000Y-95758000D02*
X99060000Y-113538000D01*
X198120000Y-95758000D02*
X99060000Y-95758000D01*
X198120000Y-113538000D02*
X198120000Y-95758000D01*
X99060000Y-113538000D02*
X198120000Y-113538000D01*
D12*
G36*
X193241040Y-104122621D02*
X193237773Y-104185702D01*
X193225688Y-104240055D01*
X193220484Y-104253139D01*
X193182676Y-104313455D01*
X193124798Y-104373196D01*
X193047948Y-104431658D01*
X192959707Y-104484271D01*
X192959707Y-104100752D01*
X192933708Y-104086350D01*
X192899655Y-104075208D01*
X192847853Y-104068530D01*
X192781223Y-104066220D01*
X192702683Y-104068180D01*
X192615154Y-104074313D01*
X192521556Y-104084522D01*
X192424810Y-104098709D01*
X192391770Y-104104412D01*
X192347671Y-104112635D01*
X192320400Y-104119305D01*
X192305918Y-104126422D01*
X192300186Y-104135984D01*
X192299166Y-104149990D01*
X192299166Y-104150255D01*
X192297226Y-104168082D01*
X192290044Y-104186222D01*
X192275574Y-104206999D01*
X192251773Y-104232734D01*
X192216597Y-104265749D01*
X192168001Y-104308366D01*
X192135518Y-104336140D01*
X192093160Y-104372364D01*
X192057180Y-104403514D01*
X192030365Y-104427149D01*
X192015499Y-104440825D01*
X192013416Y-104443185D01*
X192019593Y-104444244D01*
X192039143Y-104441377D01*
X192073596Y-104434254D01*
X192124483Y-104422545D01*
X192193333Y-104405918D01*
X192246250Y-104392862D01*
X192373293Y-104359206D01*
X192493688Y-104323158D01*
X192605127Y-104285607D01*
X192705304Y-104247443D01*
X192791913Y-104209556D01*
X192862648Y-104172836D01*
X192915203Y-104138172D01*
X192923124Y-104131738D01*
X192959707Y-104100752D01*
X192959707Y-104484271D01*
X192953224Y-104488137D01*
X192841721Y-104541931D01*
X192714537Y-104592336D01*
X192664291Y-104609795D01*
X192624008Y-104623314D01*
X192590952Y-104634422D01*
X192570654Y-104641259D01*
X192567745Y-104642246D01*
X192565714Y-104653402D01*
X192574454Y-104680240D01*
X192591558Y-104717215D01*
X192611281Y-104759647D01*
X192622132Y-104794495D01*
X192626595Y-104832037D01*
X192627250Y-104864810D01*
X192621959Y-104928170D01*
X192604985Y-104988242D01*
X192574674Y-105048113D01*
X192529374Y-105110871D01*
X192467429Y-105179605D01*
X192448396Y-105198833D01*
X192338821Y-105295720D01*
X192320333Y-105308988D01*
X192320333Y-104846098D01*
X192310307Y-104828399D01*
X192282417Y-104812288D01*
X192239948Y-104798436D01*
X192186182Y-104787517D01*
X192124403Y-104780202D01*
X192057894Y-104777165D01*
X191992250Y-104778922D01*
X191837344Y-104796033D01*
X191679916Y-104826531D01*
X191652400Y-104833254D01*
X191618124Y-104843111D01*
X191590065Y-104855165D01*
X191562576Y-104872888D01*
X191530014Y-104899748D01*
X191500035Y-104926900D01*
X191417644Y-105002879D01*
X191435072Y-105036580D01*
X191449435Y-105080595D01*
X191451768Y-105128097D01*
X191442296Y-105170933D01*
X191430765Y-105191359D01*
X191405754Y-105212434D01*
X191371703Y-105228911D01*
X191364619Y-105231088D01*
X191302216Y-105248880D01*
X191255734Y-105264322D01*
X191220360Y-105279326D01*
X191191281Y-105295803D01*
X191177113Y-105305542D01*
X191153551Y-105324742D01*
X191140693Y-105339524D01*
X191140043Y-105344633D01*
X191157225Y-105353534D01*
X191188102Y-105362959D01*
X191225325Y-105371145D01*
X191261546Y-105376326D01*
X191275675Y-105377210D01*
X191306109Y-105375534D01*
X191348345Y-105370144D01*
X191393581Y-105362179D01*
X191396450Y-105361593D01*
X191497463Y-105335468D01*
X191609426Y-105297312D01*
X191727547Y-105249240D01*
X191847031Y-105193365D01*
X191963084Y-105131804D01*
X192070912Y-105066671D01*
X192083219Y-105058617D01*
X192136913Y-105021197D01*
X192188641Y-104981608D01*
X192235539Y-104942417D01*
X192274745Y-104906192D01*
X192303393Y-104875497D01*
X192318622Y-104852901D01*
X192320333Y-104846098D01*
X192320333Y-105308988D01*
X192212022Y-105386723D01*
X192071547Y-105470044D01*
X191920939Y-105543884D01*
X191763746Y-105606444D01*
X191603512Y-105655926D01*
X191499412Y-105680224D01*
X191418172Y-105693782D01*
X191335719Y-105702361D01*
X191256890Y-105705822D01*
X191186520Y-105704025D01*
X191129446Y-105696830D01*
X191108541Y-105691529D01*
X191050389Y-105669023D01*
X190995436Y-105637943D01*
X190952042Y-105606960D01*
X190903849Y-105570174D01*
X190863320Y-105591319D01*
X190811130Y-105607997D01*
X190759543Y-105605970D01*
X190712005Y-105587507D01*
X190671959Y-105554878D01*
X190642849Y-105510353D01*
X190628120Y-105456202D01*
X190627000Y-105435582D01*
X190629091Y-105397267D01*
X190634404Y-105363160D01*
X190637932Y-105350873D01*
X190652967Y-105324391D01*
X190682149Y-105285205D01*
X190723963Y-105234853D01*
X190776899Y-105174874D01*
X190839443Y-105106805D01*
X190910082Y-105032185D01*
X190987305Y-104952552D01*
X191069599Y-104869443D01*
X191155451Y-104784399D01*
X191243349Y-104698956D01*
X191331780Y-104614652D01*
X191419232Y-104533027D01*
X191504192Y-104455617D01*
X191585149Y-104383963D01*
X191608838Y-104363466D01*
X191643692Y-104333179D01*
X191671166Y-104308712D01*
X191688194Y-104292836D01*
X191692163Y-104288166D01*
X191681175Y-104291410D01*
X191653886Y-104300321D01*
X191614008Y-104313663D01*
X191565249Y-104330204D01*
X191546809Y-104336508D01*
X191434539Y-104377052D01*
X191343138Y-104414625D01*
X191272631Y-104449213D01*
X191223045Y-104480806D01*
X191213026Y-104489014D01*
X191169687Y-104514517D01*
X191122466Y-104521521D01*
X191075645Y-104511060D01*
X191033505Y-104484163D01*
X191000328Y-104441863D01*
X190997843Y-104437170D01*
X190979915Y-104380230D01*
X190981654Y-104322038D01*
X191002248Y-104266691D01*
X191040883Y-104218282D01*
X191041365Y-104217840D01*
X191071724Y-104195831D01*
X191119220Y-104168667D01*
X191180839Y-104137662D01*
X191253564Y-104104132D01*
X191334380Y-104069391D01*
X191420271Y-104034756D01*
X191508222Y-104001540D01*
X191595217Y-103971059D01*
X191643000Y-103955482D01*
X191764010Y-103919365D01*
X191891035Y-103885359D01*
X192021384Y-103853927D01*
X192152367Y-103825535D01*
X192281293Y-103800643D01*
X192405472Y-103779717D01*
X192522213Y-103763219D01*
X192628825Y-103751613D01*
X192722618Y-103745361D01*
X192800901Y-103744928D01*
X192845543Y-103748400D01*
X192945958Y-103769482D01*
X193034679Y-103804789D01*
X193109976Y-103853146D01*
X193170115Y-103913379D01*
X193213363Y-103984315D01*
X193221050Y-104002839D01*
X193235472Y-104058953D01*
X193241040Y-104122621D01*
X193241040Y-104122621D01*
X193241040Y-104122621D01*
G37*
X193241040Y-104122621D02*
X193237773Y-104185702D01*
X193225688Y-104240055D01*
X193220484Y-104253139D01*
X193182676Y-104313455D01*
X193124798Y-104373196D01*
X193047948Y-104431658D01*
X192959707Y-104484271D01*
X192959707Y-104100752D01*
X192933708Y-104086350D01*
X192899655Y-104075208D01*
X192847853Y-104068530D01*
X192781223Y-104066220D01*
X192702683Y-104068180D01*
X192615154Y-104074313D01*
X192521556Y-104084522D01*
X192424810Y-104098709D01*
X192391770Y-104104412D01*
X192347671Y-104112635D01*
X192320400Y-104119305D01*
X192305918Y-104126422D01*
X192300186Y-104135984D01*
X192299166Y-104149990D01*
X192299166Y-104150255D01*
X192297226Y-104168082D01*
X192290044Y-104186222D01*
X192275574Y-104206999D01*
X192251773Y-104232734D01*
X192216597Y-104265749D01*
X192168001Y-104308366D01*
X192135518Y-104336140D01*
X192093160Y-104372364D01*
X192057180Y-104403514D01*
X192030365Y-104427149D01*
X192015499Y-104440825D01*
X192013416Y-104443185D01*
X192019593Y-104444244D01*
X192039143Y-104441377D01*
X192073596Y-104434254D01*
X192124483Y-104422545D01*
X192193333Y-104405918D01*
X192246250Y-104392862D01*
X192373293Y-104359206D01*
X192493688Y-104323158D01*
X192605127Y-104285607D01*
X192705304Y-104247443D01*
X192791913Y-104209556D01*
X192862648Y-104172836D01*
X192915203Y-104138172D01*
X192923124Y-104131738D01*
X192959707Y-104100752D01*
X192959707Y-104484271D01*
X192953224Y-104488137D01*
X192841721Y-104541931D01*
X192714537Y-104592336D01*
X192664291Y-104609795D01*
X192624008Y-104623314D01*
X192590952Y-104634422D01*
X192570654Y-104641259D01*
X192567745Y-104642246D01*
X192565714Y-104653402D01*
X192574454Y-104680240D01*
X192591558Y-104717215D01*
X192611281Y-104759647D01*
X192622132Y-104794495D01*
X192626595Y-104832037D01*
X192627250Y-104864810D01*
X192621959Y-104928170D01*
X192604985Y-104988242D01*
X192574674Y-105048113D01*
X192529374Y-105110871D01*
X192467429Y-105179605D01*
X192448396Y-105198833D01*
X192338821Y-105295720D01*
X192320333Y-105308988D01*
X192320333Y-104846098D01*
X192310307Y-104828399D01*
X192282417Y-104812288D01*
X192239948Y-104798436D01*
X192186182Y-104787517D01*
X192124403Y-104780202D01*
X192057894Y-104777165D01*
X191992250Y-104778922D01*
X191837344Y-104796033D01*
X191679916Y-104826531D01*
X191652400Y-104833254D01*
X191618124Y-104843111D01*
X191590065Y-104855165D01*
X191562576Y-104872888D01*
X191530014Y-104899748D01*
X191500035Y-104926900D01*
X191417644Y-105002879D01*
X191435072Y-105036580D01*
X191449435Y-105080595D01*
X191451768Y-105128097D01*
X191442296Y-105170933D01*
X191430765Y-105191359D01*
X191405754Y-105212434D01*
X191371703Y-105228911D01*
X191364619Y-105231088D01*
X191302216Y-105248880D01*
X191255734Y-105264322D01*
X191220360Y-105279326D01*
X191191281Y-105295803D01*
X191177113Y-105305542D01*
X191153551Y-105324742D01*
X191140693Y-105339524D01*
X191140043Y-105344633D01*
X191157225Y-105353534D01*
X191188102Y-105362959D01*
X191225325Y-105371145D01*
X191261546Y-105376326D01*
X191275675Y-105377210D01*
X191306109Y-105375534D01*
X191348345Y-105370144D01*
X191393581Y-105362179D01*
X191396450Y-105361593D01*
X191497463Y-105335468D01*
X191609426Y-105297312D01*
X191727547Y-105249240D01*
X191847031Y-105193365D01*
X191963084Y-105131804D01*
X192070912Y-105066671D01*
X192083219Y-105058617D01*
X192136913Y-105021197D01*
X192188641Y-104981608D01*
X192235539Y-104942417D01*
X192274745Y-104906192D01*
X192303393Y-104875497D01*
X192318622Y-104852901D01*
X192320333Y-104846098D01*
X192320333Y-105308988D01*
X192212022Y-105386723D01*
X192071547Y-105470044D01*
X191920939Y-105543884D01*
X191763746Y-105606444D01*
X191603512Y-105655926D01*
X191499412Y-105680224D01*
X191418172Y-105693782D01*
X191335719Y-105702361D01*
X191256890Y-105705822D01*
X191186520Y-105704025D01*
X191129446Y-105696830D01*
X191108541Y-105691529D01*
X191050389Y-105669023D01*
X190995436Y-105637943D01*
X190952042Y-105606960D01*
X190903849Y-105570174D01*
X190863320Y-105591319D01*
X190811130Y-105607997D01*
X190759543Y-105605970D01*
X190712005Y-105587507D01*
X190671959Y-105554878D01*
X190642849Y-105510353D01*
X190628120Y-105456202D01*
X190627000Y-105435582D01*
X190629091Y-105397267D01*
X190634404Y-105363160D01*
X190637932Y-105350873D01*
X190652967Y-105324391D01*
X190682149Y-105285205D01*
X190723963Y-105234853D01*
X190776899Y-105174874D01*
X190839443Y-105106805D01*
X190910082Y-105032185D01*
X190987305Y-104952552D01*
X191069599Y-104869443D01*
X191155451Y-104784399D01*
X191243349Y-104698956D01*
X191331780Y-104614652D01*
X191419232Y-104533027D01*
X191504192Y-104455617D01*
X191585149Y-104383963D01*
X191608838Y-104363466D01*
X191643692Y-104333179D01*
X191671166Y-104308712D01*
X191688194Y-104292836D01*
X191692163Y-104288166D01*
X191681175Y-104291410D01*
X191653886Y-104300321D01*
X191614008Y-104313663D01*
X191565249Y-104330204D01*
X191546809Y-104336508D01*
X191434539Y-104377052D01*
X191343138Y-104414625D01*
X191272631Y-104449213D01*
X191223045Y-104480806D01*
X191213026Y-104489014D01*
X191169687Y-104514517D01*
X191122466Y-104521521D01*
X191075645Y-104511060D01*
X191033505Y-104484163D01*
X191000328Y-104441863D01*
X190997843Y-104437170D01*
X190979915Y-104380230D01*
X190981654Y-104322038D01*
X191002248Y-104266691D01*
X191040883Y-104218282D01*
X191041365Y-104217840D01*
X191071724Y-104195831D01*
X191119220Y-104168667D01*
X191180839Y-104137662D01*
X191253564Y-104104132D01*
X191334380Y-104069391D01*
X191420271Y-104034756D01*
X191508222Y-104001540D01*
X191595217Y-103971059D01*
X191643000Y-103955482D01*
X191764010Y-103919365D01*
X191891035Y-103885359D01*
X192021384Y-103853927D01*
X192152367Y-103825535D01*
X192281293Y-103800643D01*
X192405472Y-103779717D01*
X192522213Y-103763219D01*
X192628825Y-103751613D01*
X192722618Y-103745361D01*
X192800901Y-103744928D01*
X192845543Y-103748400D01*
X192945958Y-103769482D01*
X193034679Y-103804789D01*
X193109976Y-103853146D01*
X193170115Y-103913379D01*
X193213363Y-103984315D01*
X193221050Y-104002839D01*
X193235472Y-104058953D01*
X193241040Y-104122621D01*
X193241040Y-104122621D01*
G36*
X195664583Y-103766697D02*
X195658048Y-103814163D01*
X195640308Y-103860653D01*
X195612425Y-103900663D01*
X195596479Y-103915383D01*
X195584276Y-103923181D01*
X195568018Y-103929114D01*
X195544353Y-103933632D01*
X195509933Y-103937185D01*
X195461409Y-103940224D01*
X195395432Y-103943199D01*
X195387163Y-103943533D01*
X195321217Y-103946385D01*
X195240282Y-103950201D01*
X195150493Y-103954674D01*
X195057989Y-103959494D01*
X194968908Y-103964355D01*
X194939708Y-103966006D01*
X194866574Y-103970161D01*
X194800163Y-103973884D01*
X194743489Y-103977011D01*
X194699563Y-103979376D01*
X194671398Y-103980816D01*
X194662297Y-103981190D01*
X194649460Y-103987651D01*
X194624331Y-104005146D01*
X194590676Y-104030917D01*
X194556464Y-104058694D01*
X194525072Y-104085403D01*
X194484320Y-104120924D01*
X194436628Y-104163065D01*
X194384416Y-104209633D01*
X194330105Y-104258436D01*
X194276114Y-104307282D01*
X194224864Y-104353977D01*
X194178774Y-104396330D01*
X194140265Y-104432147D01*
X194111757Y-104459237D01*
X194095669Y-104475406D01*
X194093205Y-104478401D01*
X194100736Y-104481848D01*
X194126967Y-104483664D01*
X194169489Y-104483791D01*
X194225892Y-104482170D01*
X194233483Y-104481855D01*
X194306285Y-104479711D01*
X194362094Y-104480843D01*
X194404932Y-104485992D01*
X194438819Y-104495897D01*
X194467779Y-104511300D01*
X194491691Y-104529409D01*
X194525535Y-104567304D01*
X194549486Y-104612829D01*
X194561670Y-104660093D01*
X194560215Y-104703200D01*
X194553102Y-104722669D01*
X194545192Y-104735349D01*
X194534957Y-104745693D01*
X194520254Y-104753987D01*
X194498945Y-104760514D01*
X194468886Y-104765559D01*
X194427937Y-104769405D01*
X194373956Y-104772337D01*
X194304802Y-104774639D01*
X194218335Y-104776594D01*
X194135375Y-104778099D01*
X194050329Y-104779841D01*
X193971153Y-104782007D01*
X193900569Y-104784481D01*
X193841300Y-104787147D01*
X193796068Y-104789888D01*
X193767596Y-104792587D01*
X193759567Y-104794184D01*
X193742933Y-104805132D01*
X193713809Y-104829215D01*
X193674384Y-104864321D01*
X193626847Y-104908334D01*
X193573387Y-104959141D01*
X193516193Y-105014628D01*
X193457455Y-105072681D01*
X193399362Y-105131185D01*
X193344102Y-105188028D01*
X193293864Y-105241095D01*
X193270347Y-105266612D01*
X193185557Y-105362306D01*
X193115934Y-105446843D01*
X193059994Y-105522134D01*
X193016252Y-105590090D01*
X193008538Y-105603499D01*
X192974882Y-105653198D01*
X192940008Y-105682805D01*
X192901566Y-105693366D01*
X192857207Y-105685924D01*
X192838992Y-105678890D01*
X192785287Y-105646002D01*
X192744183Y-105598127D01*
X192730905Y-105574858D01*
X192717283Y-105535776D01*
X192715845Y-105493114D01*
X192727325Y-105444837D01*
X192752457Y-105388905D01*
X192791977Y-105323280D01*
X192846618Y-105245926D01*
X192852193Y-105238466D01*
X192882562Y-105198336D01*
X192909495Y-105163850D01*
X192936139Y-105131328D01*
X192965644Y-105097093D01*
X193001159Y-105057464D01*
X193045832Y-105008765D01*
X193085000Y-104966487D01*
X193157784Y-104888099D01*
X193119958Y-104875095D01*
X193081478Y-104858551D01*
X193057903Y-104837727D01*
X193043068Y-104806344D01*
X193039075Y-104792732D01*
X193032727Y-104743810D01*
X193037425Y-104693115D01*
X193051471Y-104646199D01*
X193073167Y-104608616D01*
X193100814Y-104585918D01*
X193102533Y-104585188D01*
X193121640Y-104580049D01*
X193157798Y-104572566D01*
X193207105Y-104563401D01*
X193265659Y-104553215D01*
X193329559Y-104542669D01*
X193394904Y-104532425D01*
X193457791Y-104523144D01*
X193511981Y-104515786D01*
X193528211Y-104513225D01*
X193543550Y-104508960D01*
X193560113Y-104501439D01*
X193580015Y-104489112D01*
X193605372Y-104470427D01*
X193638297Y-104443833D01*
X193680907Y-104407777D01*
X193735316Y-104360710D01*
X193798105Y-104305917D01*
X193859973Y-104251870D01*
X193918938Y-104200421D01*
X193972462Y-104153780D01*
X194018006Y-104114157D01*
X194053034Y-104083762D01*
X194075006Y-104064804D01*
X194076799Y-104063270D01*
X194099580Y-104042287D01*
X194111737Y-104027902D01*
X194111422Y-104023583D01*
X194097608Y-104024655D01*
X194066211Y-104027640D01*
X194020692Y-104032192D01*
X193964515Y-104037964D01*
X193901141Y-104044610D01*
X193896490Y-104045102D01*
X193814615Y-104054518D01*
X193749733Y-104063561D01*
X193703085Y-104072028D01*
X193675910Y-104079715D01*
X193671284Y-104082144D01*
X193647476Y-104090944D01*
X193611289Y-104096329D01*
X193571314Y-104097783D01*
X193536139Y-104094793D01*
X193522015Y-104091092D01*
X193499671Y-104072060D01*
X193483914Y-104038002D01*
X193475369Y-103994203D01*
X193474662Y-103945949D01*
X193482419Y-103898522D01*
X193495219Y-103864566D01*
X193514274Y-103834492D01*
X193535524Y-103810963D01*
X193541074Y-103806722D01*
X193563621Y-103798168D01*
X193605467Y-103788719D01*
X193664771Y-103778547D01*
X193739691Y-103767825D01*
X193828385Y-103756725D01*
X193929014Y-103745420D01*
X194039735Y-103734082D01*
X194158707Y-103722883D01*
X194284089Y-103711996D01*
X194414041Y-103701594D01*
X194546720Y-103691848D01*
X194680285Y-103682931D01*
X194812896Y-103675016D01*
X194942711Y-103668274D01*
X195067889Y-103662879D01*
X195083444Y-103662296D01*
X195209144Y-103658153D01*
X195315320Y-103655789D01*
X195403545Y-103655286D01*
X195475395Y-103656724D01*
X195532443Y-103660183D01*
X195576264Y-103665746D01*
X195608431Y-103673491D01*
X195630518Y-103683501D01*
X195639796Y-103690833D01*
X195658853Y-103723753D01*
X195664583Y-103766697D01*
X195664583Y-103766697D01*
X195664583Y-103766697D01*
G37*
X195664583Y-103766697D02*
X195658048Y-103814163D01*
X195640308Y-103860653D01*
X195612425Y-103900663D01*
X195596479Y-103915383D01*
X195584276Y-103923181D01*
X195568018Y-103929114D01*
X195544353Y-103933632D01*
X195509933Y-103937185D01*
X195461409Y-103940224D01*
X195395432Y-103943199D01*
X195387163Y-103943533D01*
X195321217Y-103946385D01*
X195240282Y-103950201D01*
X195150493Y-103954674D01*
X195057989Y-103959494D01*
X194968908Y-103964355D01*
X194939708Y-103966006D01*
X194866574Y-103970161D01*
X194800163Y-103973884D01*
X194743489Y-103977011D01*
X194699563Y-103979376D01*
X194671398Y-103980816D01*
X194662297Y-103981190D01*
X194649460Y-103987651D01*
X194624331Y-104005146D01*
X194590676Y-104030917D01*
X194556464Y-104058694D01*
X194525072Y-104085403D01*
X194484320Y-104120924D01*
X194436628Y-104163065D01*
X194384416Y-104209633D01*
X194330105Y-104258436D01*
X194276114Y-104307282D01*
X194224864Y-104353977D01*
X194178774Y-104396330D01*
X194140265Y-104432147D01*
X194111757Y-104459237D01*
X194095669Y-104475406D01*
X194093205Y-104478401D01*
X194100736Y-104481848D01*
X194126967Y-104483664D01*
X194169489Y-104483791D01*
X194225892Y-104482170D01*
X194233483Y-104481855D01*
X194306285Y-104479711D01*
X194362094Y-104480843D01*
X194404932Y-104485992D01*
X194438819Y-104495897D01*
X194467779Y-104511300D01*
X194491691Y-104529409D01*
X194525535Y-104567304D01*
X194549486Y-104612829D01*
X194561670Y-104660093D01*
X194560215Y-104703200D01*
X194553102Y-104722669D01*
X194545192Y-104735349D01*
X194534957Y-104745693D01*
X194520254Y-104753987D01*
X194498945Y-104760514D01*
X194468886Y-104765559D01*
X194427937Y-104769405D01*
X194373956Y-104772337D01*
X194304802Y-104774639D01*
X194218335Y-104776594D01*
X194135375Y-104778099D01*
X194050329Y-104779841D01*
X193971153Y-104782007D01*
X193900569Y-104784481D01*
X193841300Y-104787147D01*
X193796068Y-104789888D01*
X193767596Y-104792587D01*
X193759567Y-104794184D01*
X193742933Y-104805132D01*
X193713809Y-104829215D01*
X193674384Y-104864321D01*
X193626847Y-104908334D01*
X193573387Y-104959141D01*
X193516193Y-105014628D01*
X193457455Y-105072681D01*
X193399362Y-105131185D01*
X193344102Y-105188028D01*
X193293864Y-105241095D01*
X193270347Y-105266612D01*
X193185557Y-105362306D01*
X193115934Y-105446843D01*
X193059994Y-105522134D01*
X193016252Y-105590090D01*
X193008538Y-105603499D01*
X192974882Y-105653198D01*
X192940008Y-105682805D01*
X192901566Y-105693366D01*
X192857207Y-105685924D01*
X192838992Y-105678890D01*
X192785287Y-105646002D01*
X192744183Y-105598127D01*
X192730905Y-105574858D01*
X192717283Y-105535776D01*
X192715845Y-105493114D01*
X192727325Y-105444837D01*
X192752457Y-105388905D01*
X192791977Y-105323280D01*
X192846618Y-105245926D01*
X192852193Y-105238466D01*
X192882562Y-105198336D01*
X192909495Y-105163850D01*
X192936139Y-105131328D01*
X192965644Y-105097093D01*
X193001159Y-105057464D01*
X193045832Y-105008765D01*
X193085000Y-104966487D01*
X193157784Y-104888099D01*
X193119958Y-104875095D01*
X193081478Y-104858551D01*
X193057903Y-104837727D01*
X193043068Y-104806344D01*
X193039075Y-104792732D01*
X193032727Y-104743810D01*
X193037425Y-104693115D01*
X193051471Y-104646199D01*
X193073167Y-104608616D01*
X193100814Y-104585918D01*
X193102533Y-104585188D01*
X193121640Y-104580049D01*
X193157798Y-104572566D01*
X193207105Y-104563401D01*
X193265659Y-104553215D01*
X193329559Y-104542669D01*
X193394904Y-104532425D01*
X193457791Y-104523144D01*
X193511981Y-104515786D01*
X193528211Y-104513225D01*
X193543550Y-104508960D01*
X193560113Y-104501439D01*
X193580015Y-104489112D01*
X193605372Y-104470427D01*
X193638297Y-104443833D01*
X193680907Y-104407777D01*
X193735316Y-104360710D01*
X193798105Y-104305917D01*
X193859973Y-104251870D01*
X193918938Y-104200421D01*
X193972462Y-104153780D01*
X194018006Y-104114157D01*
X194053034Y-104083762D01*
X194075006Y-104064804D01*
X194076799Y-104063270D01*
X194099580Y-104042287D01*
X194111737Y-104027902D01*
X194111422Y-104023583D01*
X194097608Y-104024655D01*
X194066211Y-104027640D01*
X194020692Y-104032192D01*
X193964515Y-104037964D01*
X193901141Y-104044610D01*
X193896490Y-104045102D01*
X193814615Y-104054518D01*
X193749733Y-104063561D01*
X193703085Y-104072028D01*
X193675910Y-104079715D01*
X193671284Y-104082144D01*
X193647476Y-104090944D01*
X193611289Y-104096329D01*
X193571314Y-104097783D01*
X193536139Y-104094793D01*
X193522015Y-104091092D01*
X193499671Y-104072060D01*
X193483914Y-104038002D01*
X193475369Y-103994203D01*
X193474662Y-103945949D01*
X193482419Y-103898522D01*
X193495219Y-103864566D01*
X193514274Y-103834492D01*
X193535524Y-103810963D01*
X193541074Y-103806722D01*
X193563621Y-103798168D01*
X193605467Y-103788719D01*
X193664771Y-103778547D01*
X193739691Y-103767825D01*
X193828385Y-103756725D01*
X193929014Y-103745420D01*
X194039735Y-103734082D01*
X194158707Y-103722883D01*
X194284089Y-103711996D01*
X194414041Y-103701594D01*
X194546720Y-103691848D01*
X194680285Y-103682931D01*
X194812896Y-103675016D01*
X194942711Y-103668274D01*
X195067889Y-103662879D01*
X195083444Y-103662296D01*
X195209144Y-103658153D01*
X195315320Y-103655789D01*
X195403545Y-103655286D01*
X195475395Y-103656724D01*
X195532443Y-103660183D01*
X195576264Y-103665746D01*
X195608431Y-103673491D01*
X195630518Y-103683501D01*
X195639796Y-103690833D01*
X195658853Y-103723753D01*
X195664583Y-103766697D01*
X195664583Y-103766697D01*
D13*
X102870000Y-109728000D03*
X102870000Y-107188000D03*
X102870000Y-104648000D03*
X102870000Y-99568000D03*
X102870000Y-102108000D03*
D14*
X118745000Y-97348000D03*
X118745000Y-99248000D03*
D15*
X116205000Y-97448000D03*
X116205000Y-99148000D03*
D16*
X105915000Y-99888000D03*
X105915000Y-100838000D03*
X105915000Y-101788000D03*
X108715000Y-101788000D03*
X108715000Y-99888000D03*
D17*
X105730000Y-104013000D03*
X107630000Y-104013000D03*
X105730000Y-97663000D03*
X107630000Y-97663000D03*
D18*
X107045000Y-111998000D03*
X107045000Y-109998000D03*
X105045000Y-110998000D03*
X107045000Y-108188000D03*
X107045000Y-106188000D03*
X105045000Y-107188000D03*
D15*
X110490000Y-111848000D03*
X110490000Y-110148000D03*
X112395000Y-97448000D03*
X112395000Y-99148000D03*
X112395000Y-111848000D03*
X112395000Y-110148000D03*
D19*
X118530000Y-110363000D03*
X120230000Y-110363000D03*
D10*
G36*
X114226497Y-110361604D02*
X114933604Y-109654497D01*
X115711421Y-110432314D01*
X115004314Y-111139421D01*
X114226497Y-110361604D01*
X114226497Y-110361604D01*
G37*
G36*
X115428579Y-111563686D02*
X116135686Y-110856579D01*
X116913503Y-111634396D01*
X116206396Y-112341503D01*
X115428579Y-111563686D01*
X115428579Y-111563686D01*
G37*
D15*
X120650000Y-106768000D03*
X120650000Y-105068000D03*
X114300000Y-99148000D03*
X114300000Y-97448000D03*
X110490000Y-99148000D03*
X110490000Y-97448000D03*
D20*
X116840000Y-101948000D03*
X116840000Y-107348000D03*
X118110000Y-101948000D03*
X115570000Y-101948000D03*
X114300000Y-101948000D03*
X118110000Y-107348000D03*
X115570000Y-107348000D03*
X114300000Y-107348000D03*
X113030000Y-101948000D03*
X111760000Y-101948000D03*
X110490000Y-101948000D03*
X113030000Y-107348000D03*
X111760000Y-107348000D03*
X110490000Y-107348000D03*
D21*
X116840000Y-104013000D03*
X102235000Y-97663000D03*
X103505000Y-97663000D03*
X100330000Y-101473000D03*
X100330000Y-102743000D03*
X118110000Y-105283000D03*
X108585000Y-98933000D03*
X108584980Y-107823000D03*
D22*
X129540000Y-104648000D03*
X148590000Y-104648000D03*
X167640000Y-104648000D03*
X109855000Y-104013000D03*
X113030000Y-104013000D03*
D21*
X107315000Y-102743000D03*
X108585000Y-110998000D03*
D22*
X113665000Y-112268000D03*
X106045000Y-107188000D03*
D23*
X100330000Y-102743000D02*
X100965000Y-102108000D01*
X102870000Y-102108000D02*
X100965000Y-102108000D01*
X100965000Y-102108000D02*
X100330000Y-101473000D01*
X105095000Y-97663000D02*
X103505000Y-97663000D01*
X102870000Y-102108000D02*
X103505000Y-102108000D01*
X117475000Y-104648000D02*
X118110000Y-105283000D01*
X118110000Y-105283000D02*
X118110000Y-107348000D01*
X116840000Y-103454400D02*
X116840000Y-104013000D01*
X116840000Y-104013000D02*
X117475000Y-104648000D01*
X116840000Y-101948000D02*
X116840000Y-103454400D01*
X116840000Y-101948000D02*
X116840000Y-100838000D01*
X116840000Y-100838000D02*
X116205000Y-100203000D01*
X116205000Y-100203000D02*
X116205000Y-99148000D01*
X110490000Y-97448000D02*
X108800000Y-97448000D01*
X108800000Y-97448000D02*
X108585000Y-97663000D01*
X108585000Y-97663000D02*
X108585000Y-98933000D01*
X107630000Y-97663000D02*
X108585000Y-97663000D01*
X108715000Y-99888000D02*
X108715000Y-99063000D01*
X108715000Y-99063000D02*
X108585000Y-98933000D01*
X107045000Y-108188000D02*
X108219980Y-108188000D01*
X108219980Y-108188000D02*
X108584980Y-107823000D01*
X107045000Y-111998000D02*
X106410000Y-111998000D01*
X106410000Y-111998000D02*
X106045000Y-111633000D01*
X106045000Y-111633000D02*
X106045000Y-108458000D01*
X106045000Y-108458000D02*
X106315000Y-108188000D01*
X106315000Y-108188000D02*
X107045000Y-108188000D01*
X108080000Y-97663000D02*
X107630000Y-97663000D01*
X118110000Y-101948000D02*
X118110000Y-100838000D01*
X118110000Y-100838000D02*
X117475000Y-100203000D01*
X117475000Y-100203000D02*
X117475000Y-97448000D01*
X116205000Y-97448000D02*
X117475000Y-97448000D01*
X117475000Y-97448000D02*
X118645000Y-97448000D01*
X118645000Y-97448000D02*
X118745000Y-97348000D01*
X112395000Y-97448000D02*
X114300000Y-97448000D01*
X114300000Y-97448000D02*
X116205000Y-97448000D01*
X110490000Y-97448000D02*
X112395000Y-97448000D01*
D24*
X115570000Y-107983000D02*
X115570000Y-109093000D01*
X115570000Y-109093000D02*
X116840000Y-110363000D01*
X116840000Y-110363000D02*
X118530000Y-110363000D01*
X120230000Y-110363000D02*
X128270000Y-110363000D01*
X128270000Y-110363000D02*
X129540000Y-109093000D01*
X129540000Y-109093000D02*
X129540000Y-104648000D01*
X114300000Y-107348000D02*
X114300000Y-109728000D01*
X114300000Y-109728000D02*
X114968959Y-110396959D01*
X116840000Y-112268000D02*
X147320000Y-112268000D01*
X116171041Y-111599041D02*
X116840000Y-112268000D01*
X148590000Y-110998000D02*
X148590000Y-104648000D01*
X147320000Y-112268000D02*
X148590000Y-110998000D01*
X116840000Y-107983000D02*
X116840000Y-108844200D01*
X116840000Y-108844200D02*
X117088800Y-109093000D01*
X120015000Y-109093000D02*
X120650000Y-108458000D01*
X117088800Y-109093000D02*
X120015000Y-109093000D01*
X120650000Y-108458000D02*
X120650000Y-106768000D01*
X120650000Y-105068000D02*
X120650000Y-98298000D01*
X120650000Y-98298000D02*
X121920000Y-97028000D01*
X121920000Y-97028000D02*
X166370000Y-97028000D01*
X166370000Y-97028000D02*
X167640000Y-98298000D01*
X167640000Y-98298000D02*
X167640000Y-104648000D01*
X109372401Y-104495599D02*
X109855000Y-104013000D01*
X103505000Y-105283000D02*
X108585000Y-105283000D01*
X108585000Y-105283000D02*
X109372401Y-104495599D01*
X102870000Y-104648000D02*
X103505000Y-105283000D01*
X113030000Y-101948000D02*
X113030000Y-104013000D01*
X113030000Y-101948000D02*
X113030000Y-100203000D01*
X113030000Y-100203000D02*
X112395000Y-99568000D01*
X112395000Y-99568000D02*
X112395000Y-99148000D01*
D23*
X107315000Y-102743000D02*
X107315000Y-103698000D01*
X107315000Y-103698000D02*
X107630000Y-104013000D01*
X107315000Y-101788000D02*
X107315000Y-102743000D01*
X107315000Y-100490038D02*
X107315000Y-101788000D01*
X105915000Y-101788000D02*
X107315000Y-101788000D01*
X105915000Y-99888000D02*
X106712962Y-99888000D01*
X106712962Y-99888000D02*
X107315000Y-100490038D01*
X104588600Y-99568000D02*
X102870000Y-99568000D01*
X105915000Y-99888000D02*
X104908600Y-99888000D01*
X104908600Y-99888000D02*
X104588600Y-99568000D01*
X105915000Y-99888000D02*
X105730000Y-99888000D01*
X112395000Y-110148000D02*
X110490000Y-110148000D01*
X107630000Y-103693000D02*
X107630000Y-104013000D01*
X110490000Y-110148000D02*
X109435000Y-110148000D01*
X109435000Y-110148000D02*
X108585000Y-110998000D01*
D24*
X105045000Y-107188000D02*
X106045000Y-107188000D01*
X112395000Y-111848000D02*
X113245000Y-111848000D01*
X113245000Y-111848000D02*
X113665000Y-112268000D01*
X103505000Y-107188000D02*
X101600000Y-107188000D01*
X105045000Y-107188000D02*
X104140000Y-107188000D01*
X102235000Y-107188000D02*
X102870000Y-107188000D01*
X107045000Y-109998000D02*
X108315000Y-109998000D01*
X108315000Y-109998000D02*
X109808999Y-108504001D01*
X109808999Y-108504001D02*
X109808999Y-106047437D01*
X109808999Y-106047437D02*
X110573436Y-105283000D01*
X110573436Y-105283000D02*
X114300000Y-105283000D01*
X114300000Y-105283000D02*
X115570000Y-104013000D01*
X115570000Y-104013000D02*
X115570000Y-101948000D01*
X114300000Y-99148000D02*
X114300000Y-99198000D01*
X114300000Y-99198000D02*
X115570000Y-100468000D01*
X115570000Y-100468000D02*
X115570000Y-100594000D01*
X115570000Y-100594000D02*
X115570000Y-101948000D01*
X104775000Y-109728000D02*
X102870000Y-109728000D01*
X106045000Y-112903000D02*
X108585000Y-112903000D01*
X110490000Y-111848000D02*
X109640000Y-111848000D01*
X109640000Y-111848000D02*
X108585000Y-112903000D01*
X106045000Y-112903000D02*
X105045000Y-111903000D01*
X105045000Y-111903000D02*
X105045000Y-110998000D01*
X101600000Y-109728000D02*
X104140000Y-109728000D01*
X104775000Y-109728000D02*
X105045000Y-109998000D01*
X105045000Y-109998000D02*
X105045000Y-110998000D01*
X107966022Y-106171978D02*
X108966022Y-106171978D01*
X107950000Y-106188000D02*
X107966022Y-106171978D01*
X108966022Y-106171978D02*
X111760000Y-103378000D01*
X111760000Y-103378000D02*
X111760000Y-103302000D01*
X111760000Y-103302000D02*
X111760000Y-101948000D01*
X107045000Y-106188000D02*
X107680000Y-106188000D01*
X107680000Y-106188000D02*
X107950000Y-106188000D01*
X107950000Y-106188000D02*
X107045000Y-106188000D01*
X110490000Y-99148000D02*
X110490000Y-99198000D01*
X110490000Y-99198000D02*
X111760000Y-100468000D01*
X111760000Y-100468000D02*
X111760000Y-100594000D01*
X111760000Y-100594000D02*
X111760000Y-101948000D01*
G36*
X106600790Y-96523165D02*
X106564099Y-96576865D01*
X106455786Y-96532000D01*
X105952250Y-96532000D01*
X105857000Y-96627250D01*
X105857000Y-97536000D01*
X105877000Y-97536000D01*
X105877000Y-97790000D01*
X105857000Y-97790000D01*
X105857000Y-98698750D01*
X105952250Y-98794000D01*
X106455786Y-98794000D01*
X106562795Y-98749676D01*
X106590165Y-98792210D01*
X106768412Y-98914001D01*
X106980000Y-98956849D01*
X107416579Y-98956849D01*
X107416398Y-99164389D01*
X107574423Y-99546841D01*
X107571151Y-99563000D01*
X107571151Y-99704479D01*
X107233817Y-99367145D01*
X106994847Y-99207470D01*
X106909097Y-99190413D01*
X106904835Y-99183790D01*
X106726588Y-99061999D01*
X106515000Y-99019151D01*
X105315000Y-99019151D01*
X105118445Y-99056135D01*
X105109455Y-99047145D01*
X104870485Y-98887470D01*
X104774847Y-98868446D01*
X104690235Y-98741816D01*
X104311178Y-98488539D01*
X103864051Y-98399600D01*
X101875949Y-98399600D01*
X101428822Y-98488539D01*
X101049765Y-98741816D01*
X100796488Y-99120873D01*
X100707549Y-99568000D01*
X100796488Y-100015127D01*
X101049765Y-100394184D01*
X101428822Y-100647461D01*
X101875949Y-100736400D01*
X103864051Y-100736400D01*
X104311178Y-100647461D01*
X104528011Y-100502578D01*
X104626715Y-100568530D01*
X104908600Y-100624600D01*
X104942850Y-100624600D01*
X105029250Y-100711000D01*
X105099020Y-100711000D01*
X105103412Y-100714001D01*
X105315000Y-100756849D01*
X106062000Y-100756849D01*
X106062000Y-100919151D01*
X105315000Y-100919151D01*
X105117334Y-100956344D01*
X105103882Y-100965000D01*
X105029250Y-100965000D01*
X104934000Y-101060250D01*
X104934000Y-101075785D01*
X104813999Y-101251412D01*
X104771151Y-101463000D01*
X104771151Y-101768982D01*
X104630723Y-101479382D01*
X104328639Y-101217939D01*
X103949500Y-101092000D01*
X102997000Y-101092000D01*
X102997000Y-101981000D01*
X103017000Y-101981000D01*
X103017000Y-102235000D01*
X102997000Y-102235000D01*
X102997000Y-103124000D01*
X103949500Y-103124000D01*
X104328639Y-102998061D01*
X104630723Y-102736618D01*
X104798253Y-102391127D01*
X104734450Y-102235002D01*
X104794107Y-102235002D01*
X104808344Y-102310666D01*
X104925165Y-102492210D01*
X105103412Y-102614001D01*
X105315000Y-102656849D01*
X106146675Y-102656849D01*
X106146479Y-102882000D01*
X105952250Y-102882000D01*
X105857000Y-102977250D01*
X105857000Y-103886000D01*
X105877000Y-103886000D01*
X105877000Y-104140000D01*
X105857000Y-104140000D01*
X105857000Y-104160000D01*
X105603000Y-104160000D01*
X105603000Y-104140000D01*
X105583000Y-104140000D01*
X105583000Y-103886000D01*
X105603000Y-103886000D01*
X105603000Y-102977250D01*
X105507750Y-102882000D01*
X105004214Y-102882000D01*
X104864180Y-102940004D01*
X104757004Y-103047181D01*
X104699000Y-103187215D01*
X104699000Y-103790750D01*
X104794248Y-103885998D01*
X104733120Y-103885998D01*
X104690235Y-103821816D01*
X104311178Y-103568539D01*
X103864051Y-103479600D01*
X101875949Y-103479600D01*
X101428822Y-103568539D01*
X101049765Y-103821816D01*
X100796488Y-104200873D01*
X100707549Y-104648000D01*
X100796488Y-105095127D01*
X101049765Y-105474184D01*
X101428822Y-105727461D01*
X101875949Y-105816400D01*
X103137441Y-105816400D01*
X103252276Y-105893130D01*
X103505000Y-105943400D01*
X106051151Y-105943400D01*
X106051151Y-106172005D01*
X105843792Y-106171824D01*
X105611601Y-106267763D01*
X105495000Y-106244151D01*
X104595000Y-106244151D01*
X104531904Y-106256023D01*
X104311178Y-106108539D01*
X103864051Y-106019600D01*
X101875949Y-106019600D01*
X101428822Y-106108539D01*
X101049765Y-106361816D01*
X100796488Y-106740873D01*
X100707549Y-107188000D01*
X100796488Y-107635127D01*
X101049765Y-108014184D01*
X101428822Y-108267461D01*
X101875949Y-108356400D01*
X103864051Y-108356400D01*
X104311178Y-108267461D01*
X104532944Y-108119282D01*
X104595000Y-108131849D01*
X105394048Y-108131849D01*
X105364470Y-108176115D01*
X105308400Y-108458000D01*
X105308400Y-109327454D01*
X105241973Y-109261027D01*
X105027724Y-109117870D01*
X104804995Y-109073566D01*
X104690235Y-108901816D01*
X104311178Y-108648539D01*
X103864051Y-108559600D01*
X101875949Y-108559600D01*
X101428822Y-108648539D01*
X101049765Y-108901816D01*
X100796488Y-109280873D01*
X100707549Y-109728000D01*
X100796488Y-110175127D01*
X101049765Y-110554184D01*
X101428822Y-110807461D01*
X101875949Y-110896400D01*
X103864051Y-110896400D01*
X104051151Y-110859184D01*
X104051151Y-111398000D01*
X104088344Y-111595666D01*
X104205165Y-111777210D01*
X104383412Y-111899001D01*
X104384600Y-111899242D01*
X104384600Y-111903000D01*
X104434870Y-112155724D01*
X104578027Y-112369973D01*
X104984053Y-112776000D01*
X99822000Y-112776000D01*
X99822000Y-102391127D01*
X100941747Y-102391127D01*
X101109277Y-102736618D01*
X101411361Y-102998061D01*
X101790500Y-103124000D01*
X102743000Y-103124000D01*
X102743000Y-102235000D01*
X101005551Y-102235000D01*
X100941747Y-102391127D01*
X99822000Y-102391127D01*
X99822000Y-101824873D01*
X100941747Y-101824873D01*
X101005551Y-101981000D01*
X102743000Y-101981000D01*
X102743000Y-101092000D01*
X101790500Y-101092000D01*
X101411361Y-101217939D01*
X101109277Y-101479382D01*
X100941747Y-101824873D01*
X99822000Y-101824873D01*
X99822000Y-97885250D01*
X104699000Y-97885250D01*
X104699000Y-98488785D01*
X104757004Y-98628819D01*
X104864180Y-98735996D01*
X105004214Y-98794000D01*
X105507750Y-98794000D01*
X105603000Y-98698750D01*
X105603000Y-97790000D01*
X104794250Y-97790000D01*
X104699000Y-97885250D01*
X99822000Y-97885250D01*
X99822000Y-96837215D01*
X104699000Y-96837215D01*
X104699000Y-97440750D01*
X104794250Y-97536000D01*
X105603000Y-97536000D01*
X105603000Y-96627250D01*
X105507750Y-96532000D01*
X105004214Y-96532000D01*
X104864180Y-96590004D01*
X104757004Y-96697181D01*
X104699000Y-96837215D01*
X99822000Y-96837215D01*
X99822000Y-96520000D01*
X106605709Y-96520000D01*
X106600790Y-96523165D01*
X106600790Y-96523165D01*
G37*
X106600790Y-96523165D02*
X106564099Y-96576865D01*
X106455786Y-96532000D01*
X105952250Y-96532000D01*
X105857000Y-96627250D01*
X105857000Y-97536000D01*
X105877000Y-97536000D01*
X105877000Y-97790000D01*
X105857000Y-97790000D01*
X105857000Y-98698750D01*
X105952250Y-98794000D01*
X106455786Y-98794000D01*
X106562795Y-98749676D01*
X106590165Y-98792210D01*
X106768412Y-98914001D01*
X106980000Y-98956849D01*
X107416579Y-98956849D01*
X107416398Y-99164389D01*
X107574423Y-99546841D01*
X107571151Y-99563000D01*
X107571151Y-99704479D01*
X107233817Y-99367145D01*
X106994847Y-99207470D01*
X106909097Y-99190413D01*
X106904835Y-99183790D01*
X106726588Y-99061999D01*
X106515000Y-99019151D01*
X105315000Y-99019151D01*
X105118445Y-99056135D01*
X105109455Y-99047145D01*
X104870485Y-98887470D01*
X104774847Y-98868446D01*
X104690235Y-98741816D01*
X104311178Y-98488539D01*
X103864051Y-98399600D01*
X101875949Y-98399600D01*
X101428822Y-98488539D01*
X101049765Y-98741816D01*
X100796488Y-99120873D01*
X100707549Y-99568000D01*
X100796488Y-100015127D01*
X101049765Y-100394184D01*
X101428822Y-100647461D01*
X101875949Y-100736400D01*
X103864051Y-100736400D01*
X104311178Y-100647461D01*
X104528011Y-100502578D01*
X104626715Y-100568530D01*
X104908600Y-100624600D01*
X104942850Y-100624600D01*
X105029250Y-100711000D01*
X105099020Y-100711000D01*
X105103412Y-100714001D01*
X105315000Y-100756849D01*
X106062000Y-100756849D01*
X106062000Y-100919151D01*
X105315000Y-100919151D01*
X105117334Y-100956344D01*
X105103882Y-100965000D01*
X105029250Y-100965000D01*
X104934000Y-101060250D01*
X104934000Y-101075785D01*
X104813999Y-101251412D01*
X104771151Y-101463000D01*
X104771151Y-101768982D01*
X104630723Y-101479382D01*
X104328639Y-101217939D01*
X103949500Y-101092000D01*
X102997000Y-101092000D01*
X102997000Y-101981000D01*
X103017000Y-101981000D01*
X103017000Y-102235000D01*
X102997000Y-102235000D01*
X102997000Y-103124000D01*
X103949500Y-103124000D01*
X104328639Y-102998061D01*
X104630723Y-102736618D01*
X104798253Y-102391127D01*
X104734450Y-102235002D01*
X104794107Y-102235002D01*
X104808344Y-102310666D01*
X104925165Y-102492210D01*
X105103412Y-102614001D01*
X105315000Y-102656849D01*
X106146675Y-102656849D01*
X106146479Y-102882000D01*
X105952250Y-102882000D01*
X105857000Y-102977250D01*
X105857000Y-103886000D01*
X105877000Y-103886000D01*
X105877000Y-104140000D01*
X105857000Y-104140000D01*
X105857000Y-104160000D01*
X105603000Y-104160000D01*
X105603000Y-104140000D01*
X105583000Y-104140000D01*
X105583000Y-103886000D01*
X105603000Y-103886000D01*
X105603000Y-102977250D01*
X105507750Y-102882000D01*
X105004214Y-102882000D01*
X104864180Y-102940004D01*
X104757004Y-103047181D01*
X104699000Y-103187215D01*
X104699000Y-103790750D01*
X104794248Y-103885998D01*
X104733120Y-103885998D01*
X104690235Y-103821816D01*
X104311178Y-103568539D01*
X103864051Y-103479600D01*
X101875949Y-103479600D01*
X101428822Y-103568539D01*
X101049765Y-103821816D01*
X100796488Y-104200873D01*
X100707549Y-104648000D01*
X100796488Y-105095127D01*
X101049765Y-105474184D01*
X101428822Y-105727461D01*
X101875949Y-105816400D01*
X103137441Y-105816400D01*
X103252276Y-105893130D01*
X103505000Y-105943400D01*
X106051151Y-105943400D01*
X106051151Y-106172005D01*
X105843792Y-106171824D01*
X105611601Y-106267763D01*
X105495000Y-106244151D01*
X104595000Y-106244151D01*
X104531904Y-106256023D01*
X104311178Y-106108539D01*
X103864051Y-106019600D01*
X101875949Y-106019600D01*
X101428822Y-106108539D01*
X101049765Y-106361816D01*
X100796488Y-106740873D01*
X100707549Y-107188000D01*
X100796488Y-107635127D01*
X101049765Y-108014184D01*
X101428822Y-108267461D01*
X101875949Y-108356400D01*
X103864051Y-108356400D01*
X104311178Y-108267461D01*
X104532944Y-108119282D01*
X104595000Y-108131849D01*
X105394048Y-108131849D01*
X105364470Y-108176115D01*
X105308400Y-108458000D01*
X105308400Y-109327454D01*
X105241973Y-109261027D01*
X105027724Y-109117870D01*
X104804995Y-109073566D01*
X104690235Y-108901816D01*
X104311178Y-108648539D01*
X103864051Y-108559600D01*
X101875949Y-108559600D01*
X101428822Y-108648539D01*
X101049765Y-108901816D01*
X100796488Y-109280873D01*
X100707549Y-109728000D01*
X100796488Y-110175127D01*
X101049765Y-110554184D01*
X101428822Y-110807461D01*
X101875949Y-110896400D01*
X103864051Y-110896400D01*
X104051151Y-110859184D01*
X104051151Y-111398000D01*
X104088344Y-111595666D01*
X104205165Y-111777210D01*
X104383412Y-111899001D01*
X104384600Y-111899242D01*
X104384600Y-111903000D01*
X104434870Y-112155724D01*
X104578027Y-112369973D01*
X104984053Y-112776000D01*
X99822000Y-112776000D01*
X99822000Y-102391127D01*
X100941747Y-102391127D01*
X101109277Y-102736618D01*
X101411361Y-102998061D01*
X101790500Y-103124000D01*
X102743000Y-103124000D01*
X102743000Y-102235000D01*
X101005551Y-102235000D01*
X100941747Y-102391127D01*
X99822000Y-102391127D01*
X99822000Y-101824873D01*
X100941747Y-101824873D01*
X101005551Y-101981000D01*
X102743000Y-101981000D01*
X102743000Y-101092000D01*
X101790500Y-101092000D01*
X101411361Y-101217939D01*
X101109277Y-101479382D01*
X100941747Y-101824873D01*
X99822000Y-101824873D01*
X99822000Y-97885250D01*
X104699000Y-97885250D01*
X104699000Y-98488785D01*
X104757004Y-98628819D01*
X104864180Y-98735996D01*
X105004214Y-98794000D01*
X105507750Y-98794000D01*
X105603000Y-98698750D01*
X105603000Y-97790000D01*
X104794250Y-97790000D01*
X104699000Y-97885250D01*
X99822000Y-97885250D01*
X99822000Y-96837215D01*
X104699000Y-96837215D01*
X104699000Y-97440750D01*
X104794250Y-97536000D01*
X105603000Y-97536000D01*
X105603000Y-96627250D01*
X105507750Y-96532000D01*
X105004214Y-96532000D01*
X104864180Y-96590004D01*
X104757004Y-96697181D01*
X104699000Y-96837215D01*
X99822000Y-96837215D01*
X99822000Y-96520000D01*
X106605709Y-96520000D01*
X106600790Y-96523165D01*
G36*
X118872000Y-99121000D02*
X118892000Y-99121000D01*
X118892000Y-99375000D01*
X118872000Y-99375000D01*
X118872000Y-100183750D01*
X118967250Y-100279000D01*
X119253000Y-100279000D01*
X119253000Y-106426000D01*
X118791000Y-106426000D01*
X118791000Y-106172215D01*
X118732996Y-106032181D01*
X118625820Y-105925004D01*
X118485786Y-105867000D01*
X118332250Y-105867000D01*
X118237000Y-105962250D01*
X118237000Y-106426000D01*
X117983000Y-106426000D01*
X117983000Y-105962250D01*
X117887750Y-105867000D01*
X117734214Y-105867000D01*
X117594180Y-105925004D01*
X117577038Y-105942146D01*
X117529835Y-105868790D01*
X117351588Y-105746999D01*
X117140000Y-105704151D01*
X116540000Y-105704151D01*
X116342334Y-105741344D01*
X116203789Y-105830496D01*
X116081588Y-105746999D01*
X115870000Y-105704151D01*
X115270000Y-105704151D01*
X115072334Y-105741344D01*
X114933789Y-105830496D01*
X114811588Y-105746999D01*
X114776960Y-105739986D01*
X116036973Y-104479973D01*
X116180130Y-104265724D01*
X116190377Y-104214208D01*
X116230400Y-104013000D01*
X116230400Y-103449939D01*
X116249210Y-103437835D01*
X116306773Y-103353589D01*
X116324180Y-103370996D01*
X116464214Y-103429000D01*
X116617750Y-103429000D01*
X116713000Y-103333750D01*
X116713000Y-102075000D01*
X116693000Y-102075000D01*
X116693000Y-101821000D01*
X116713000Y-101821000D01*
X116713000Y-101801000D01*
X116967000Y-101801000D01*
X116967000Y-101821000D01*
X116987000Y-101821000D01*
X116987000Y-102075000D01*
X116967000Y-102075000D01*
X116967000Y-103333750D01*
X117062250Y-103429000D01*
X117215786Y-103429000D01*
X117355820Y-103370996D01*
X117372962Y-103353854D01*
X117420165Y-103427210D01*
X117598412Y-103549001D01*
X117810000Y-103591849D01*
X118410000Y-103591849D01*
X118607666Y-103554656D01*
X118789210Y-103437835D01*
X118911001Y-103259588D01*
X118953849Y-103048000D01*
X118953849Y-100848000D01*
X118916656Y-100650334D01*
X118799835Y-100468790D01*
X118675346Y-100383730D01*
X118630855Y-100317145D01*
X118557730Y-100244020D01*
X118618000Y-100183750D01*
X118618000Y-99375000D01*
X118598000Y-99375000D01*
X118598000Y-99121000D01*
X118618000Y-99121000D01*
X118618000Y-99101000D01*
X118872000Y-99101000D01*
X118872000Y-99121000D01*
X118872000Y-99121000D01*
G37*
X118872000Y-99121000D02*
X118892000Y-99121000D01*
X118892000Y-99375000D01*
X118872000Y-99375000D01*
X118872000Y-100183750D01*
X118967250Y-100279000D01*
X119253000Y-100279000D01*
X119253000Y-106426000D01*
X118791000Y-106426000D01*
X118791000Y-106172215D01*
X118732996Y-106032181D01*
X118625820Y-105925004D01*
X118485786Y-105867000D01*
X118332250Y-105867000D01*
X118237000Y-105962250D01*
X118237000Y-106426000D01*
X117983000Y-106426000D01*
X117983000Y-105962250D01*
X117887750Y-105867000D01*
X117734214Y-105867000D01*
X117594180Y-105925004D01*
X117577038Y-105942146D01*
X117529835Y-105868790D01*
X117351588Y-105746999D01*
X117140000Y-105704151D01*
X116540000Y-105704151D01*
X116342334Y-105741344D01*
X116203789Y-105830496D01*
X116081588Y-105746999D01*
X115870000Y-105704151D01*
X115270000Y-105704151D01*
X115072334Y-105741344D01*
X114933789Y-105830496D01*
X114811588Y-105746999D01*
X114776960Y-105739986D01*
X116036973Y-104479973D01*
X116180130Y-104265724D01*
X116190377Y-104214208D01*
X116230400Y-104013000D01*
X116230400Y-103449939D01*
X116249210Y-103437835D01*
X116306773Y-103353589D01*
X116324180Y-103370996D01*
X116464214Y-103429000D01*
X116617750Y-103429000D01*
X116713000Y-103333750D01*
X116713000Y-102075000D01*
X116693000Y-102075000D01*
X116693000Y-101821000D01*
X116713000Y-101821000D01*
X116713000Y-101801000D01*
X116967000Y-101801000D01*
X116967000Y-101821000D01*
X116987000Y-101821000D01*
X116987000Y-102075000D01*
X116967000Y-102075000D01*
X116967000Y-103333750D01*
X117062250Y-103429000D01*
X117215786Y-103429000D01*
X117355820Y-103370996D01*
X117372962Y-103353854D01*
X117420165Y-103427210D01*
X117598412Y-103549001D01*
X117810000Y-103591849D01*
X118410000Y-103591849D01*
X118607666Y-103554656D01*
X118789210Y-103437835D01*
X118911001Y-103259588D01*
X118953849Y-103048000D01*
X118953849Y-100848000D01*
X118916656Y-100650334D01*
X118799835Y-100468790D01*
X118675346Y-100383730D01*
X118630855Y-100317145D01*
X118557730Y-100244020D01*
X118618000Y-100183750D01*
X118618000Y-99375000D01*
X118598000Y-99375000D01*
X118598000Y-99121000D01*
X118618000Y-99121000D01*
X118618000Y-99101000D01*
X118872000Y-99101000D01*
X118872000Y-99121000D01*
G36*
X116332000Y-99021000D02*
X116352000Y-99021000D01*
X116352000Y-99275000D01*
X116332000Y-99275000D01*
X116332000Y-99983750D01*
X116427250Y-100079000D01*
X116738400Y-100079000D01*
X116738400Y-100203000D01*
X116790912Y-100467000D01*
X116712998Y-100467000D01*
X116712998Y-100562248D01*
X116617750Y-100467000D01*
X116464214Y-100467000D01*
X116324180Y-100525004D01*
X116307038Y-100542146D01*
X116259835Y-100468790D01*
X116225952Y-100445639D01*
X116180130Y-100215276D01*
X116046486Y-100015264D01*
X116078000Y-99983750D01*
X116078000Y-99275000D01*
X116058000Y-99275000D01*
X116058000Y-99021000D01*
X116078000Y-99021000D01*
X116078000Y-99001000D01*
X116332000Y-99001000D01*
X116332000Y-99021000D01*
X116332000Y-99021000D01*
G37*
X116332000Y-99021000D02*
X116352000Y-99021000D01*
X116352000Y-99275000D01*
X116332000Y-99275000D01*
X116332000Y-99983750D01*
X116427250Y-100079000D01*
X116738400Y-100079000D01*
X116738400Y-100203000D01*
X116790912Y-100467000D01*
X116712998Y-100467000D01*
X116712998Y-100562248D01*
X116617750Y-100467000D01*
X116464214Y-100467000D01*
X116324180Y-100525004D01*
X116307038Y-100542146D01*
X116259835Y-100468790D01*
X116225952Y-100445639D01*
X116180130Y-100215276D01*
X116046486Y-100015264D01*
X116078000Y-99983750D01*
X116078000Y-99275000D01*
X116058000Y-99275000D01*
X116058000Y-99021000D01*
X116078000Y-99021000D01*
X116078000Y-99001000D01*
X116332000Y-99001000D01*
X116332000Y-99021000D01*
D25*
X116840000Y-104013000D03*
X102235000Y-97663000D03*
X103505000Y-97663000D03*
X100330000Y-101473000D03*
X100330000Y-102743000D03*
X118110000Y-105283000D03*
X108585000Y-98933000D03*
X108584980Y-107823000D03*
X129540000Y-104648000D03*
X148590000Y-104648000D03*
X167640000Y-104648000D03*
X109855000Y-104013000D03*
X113030000Y-104013000D03*
X107315000Y-102743000D03*
X108585000Y-110998000D03*
X113665000Y-112268000D03*
X106045000Y-107188000D03*
M02*
