G04 #@! TF.GenerationSoftware,KiCad,Pcbnew,5.0.0-fee4fd1~65~ubuntu17.10.1*
G04 #@! TF.CreationDate,2018-09-18T05:44:28-04:00*
G04 #@! TF.ProjectId,touch,746F7563682E6B696361645F70636200,B*
G04 #@! TF.SameCoordinates,Original*
G04 #@! TF.FileFunction,Soldermask,Top*
G04 #@! TF.FilePolarity,Negative*
%FSLAX46Y46*%
G04 Gerber Fmt 4.6, Leading zero omitted, Abs format (unit mm)*
G04 Created by KiCad (PCBNEW 5.0.0-fee4fd1~65~ubuntu17.10.1) date Tue Sep 18 05:44:28 2018*
%MOMM*%
%LPD*%
G01*
G04 APERTURE LIST*
%ADD10R,2.504800X0.904800*%
%ADD11R,1.403200X0.853200*%
%ADD12R,1.304800X1.404800*%
%ADD13R,1.604800X1.804800*%
%ADD14R,1.404800X1.304800*%
%ADD15R,1.804800X1.604800*%
%ADD16O,1.574800X3.479800*%
%ADD17R,1.204800X1.104800*%
G04 APERTURE END LIST*
D10*
G04 #@! TO.C,U1*
X115095000Y-104648000D03*
X115095000Y-103378000D03*
X115095000Y-102108000D03*
X109695000Y-104648000D03*
X109695000Y-103378000D03*
X109695000Y-102108000D03*
X115095000Y-100838000D03*
X115095000Y-99568000D03*
X115095000Y-97028000D03*
X109695000Y-100838000D03*
X109695000Y-99568000D03*
X109695000Y-97028000D03*
X115095000Y-98298000D03*
X109695000Y-98298000D03*
G04 #@! TD*
D11*
G04 #@! TO.C,U2*
X106550000Y-89728000D03*
X106550000Y-90678000D03*
X106550000Y-91628000D03*
X109350000Y-91628000D03*
X109350000Y-89728000D03*
G04 #@! TD*
D12*
G04 #@! TO.C,R7*
X107315000Y-99783000D03*
X107315000Y-98083000D03*
G04 #@! TD*
D13*
G04 #@! TO.C,C1*
X109535000Y-94488000D03*
X107635000Y-94488000D03*
G04 #@! TD*
D14*
G04 #@! TO.C,C2*
X111965000Y-94488000D03*
X113665000Y-94488000D03*
G04 #@! TD*
D15*
G04 #@! TO.C,C3*
X103505000Y-91628000D03*
X103505000Y-89728000D03*
G04 #@! TD*
G04 #@! TO.C,C4*
X113030000Y-91628000D03*
X113030000Y-89728000D03*
G04 #@! TD*
D16*
G04 #@! TO.C,J1*
X103505000Y-110998000D03*
X106045000Y-110998000D03*
X108585000Y-110998000D03*
X113665000Y-110998000D03*
X111125000Y-110998000D03*
G04 #@! TD*
D14*
G04 #@! TO.C,R1*
X103290000Y-95123000D03*
X104990000Y-95123000D03*
G04 #@! TD*
G04 #@! TO.C,R2*
X109005000Y-106553000D03*
X110705000Y-106553000D03*
G04 #@! TD*
G04 #@! TO.C,R3*
X103925000Y-106553000D03*
X105625000Y-106553000D03*
G04 #@! TD*
G04 #@! TO.C,R4*
X117895000Y-100838000D03*
X119595000Y-100838000D03*
G04 #@! TD*
D12*
G04 #@! TO.C,R5*
X116840000Y-107608000D03*
X116840000Y-109308000D03*
G04 #@! TD*
G04 #@! TO.C,R6*
X116840000Y-94068000D03*
X116840000Y-92368000D03*
G04 #@! TD*
G04 #@! TO.C,R8*
X107315000Y-104228000D03*
X107315000Y-102528000D03*
G04 #@! TD*
D17*
G04 #@! TO.C,Q1*
X103140000Y-97933000D03*
X103140000Y-99933000D03*
X105140000Y-98933000D03*
G04 #@! TD*
G04 #@! TO.C,Q2*
X103140000Y-102378000D03*
X103140000Y-104378000D03*
X105140000Y-103378000D03*
G04 #@! TD*
M02*
