G04 #@! TF.FileFunction,Copper,L4,Bot,Signal*
%FSLAX46Y46*%
G04 Gerber Fmt 4.6, Leading zero omitted, Abs format (unit mm)*
G04 Created by KiCad (PCBNEW (2016-05-03 BZR 6266)-product) date Mon Jul 11 04:33:51 2016*
%MOMM*%
%LPD*%
G01*
G04 APERTURE LIST*
%ADD10C,0.350000*%
%ADD11C,0.150000*%
%ADD12R,20.320000X12.700000*%
%ADD13R,15.240000X12.700000*%
%ADD14C,1.270000*%
%ADD15C,0.965200*%
%ADD16C,0.406400*%
%ADD17C,0.254000*%
%ADD18C,0.350000*%
G04 APERTURE END LIST*
D10*
D11*
X99060000Y-95758000D02*
X99060000Y-113538000D01*
X198120000Y-95758000D02*
X99060000Y-95758000D01*
X198120000Y-113538000D02*
X198120000Y-95758000D01*
X99060000Y-113538000D02*
X198120000Y-113538000D01*
D12*
X148590000Y-104648000D03*
D13*
X167640000Y-104648000D03*
X129540000Y-104648000D03*
D14*
X116840000Y-104013000D03*
X102235000Y-97663000D03*
X103505000Y-97663000D03*
X100330000Y-101473000D03*
X100330000Y-102743000D03*
X118110000Y-105283000D03*
X108584980Y-107823000D03*
X117475000Y-97448000D03*
X109220000Y-97663000D03*
D15*
X129540000Y-104648000D03*
X148590000Y-104648000D03*
X167640000Y-104648000D03*
X109220000Y-104013000D03*
X113030000Y-104013000D03*
D14*
X100330000Y-99568000D03*
X108585000Y-110998000D03*
D15*
X113665000Y-112268000D03*
X106045000Y-107188000D03*
D16*
X103505000Y-97663000D02*
X102235000Y-97663000D01*
D17*
X113030000Y-104013000D02*
X109220000Y-104013000D01*
X106045000Y-110363000D02*
X107950000Y-112268000D01*
X107950000Y-112268000D02*
X113665000Y-112268000D01*
X106045000Y-107188000D02*
X106045000Y-110363000D01*
D18*
X116840000Y-104013000D03*
X102235000Y-97663000D03*
X103505000Y-97663000D03*
X100330000Y-101473000D03*
X100330000Y-102743000D03*
X118110000Y-105283000D03*
X108584980Y-107823000D03*
X117475000Y-97448000D03*
X109220000Y-97663000D03*
X129540000Y-104648000D03*
X148590000Y-104648000D03*
X167640000Y-104648000D03*
X109220000Y-104013000D03*
X113030000Y-104013000D03*
X100330000Y-99568000D03*
X108585000Y-110998000D03*
X113665000Y-112268000D03*
X106045000Y-107188000D03*
M02*
