G04 #@! TF.GenerationSoftware,KiCad,Pcbnew,5.0.0-fee4fd1~65~ubuntu17.10.1*
G04 #@! TF.CreationDate,2018-08-22T05:19:15-04:00*
G04 #@! TF.ProjectId,touch,746F7563682E6B696361645F70636200,B*
G04 #@! TF.SameCoordinates,Original*
G04 #@! TF.FileFunction,Copper,L1,Top,Signal*
G04 #@! TF.FilePolarity,Positive*
%FSLAX46Y46*%
G04 Gerber Fmt 4.6, Leading zero omitted, Abs format (unit mm)*
G04 Created by KiCad (PCBNEW 5.0.0-fee4fd1~65~ubuntu17.10.1) date Wed Aug 22 05:19:15 2018*
%MOMM*%
%LPD*%
G01*
G04 APERTURE LIST*
G04 #@! TA.AperFunction,SMDPad,CuDef*
%ADD10R,1.200000X0.650000*%
G04 #@! TD*
G04 #@! TA.AperFunction,SMDPad,CuDef*
%ADD11R,1.000000X1.100000*%
G04 #@! TD*
G04 #@! TA.AperFunction,SMDPad,CuDef*
%ADD12R,1.300000X1.500000*%
G04 #@! TD*
G04 #@! TA.AperFunction,SMDPad,CuDef*
%ADD13R,1.100000X1.000000*%
G04 #@! TD*
G04 #@! TA.AperFunction,SMDPad,CuDef*
%ADD14R,1.500000X1.300000*%
G04 #@! TD*
G04 #@! TA.AperFunction,SMDPad,CuDef*
%ADD15O,1.270000X3.175000*%
G04 #@! TD*
G04 #@! TA.AperFunction,SMDPad,CuDef*
%ADD16R,2.200000X0.600000*%
G04 #@! TD*
G04 #@! TA.AperFunction,SMDPad,CuDef*
%ADD17R,0.900000X0.800000*%
G04 #@! TD*
G04 #@! TA.AperFunction,ViaPad*
%ADD18C,1.270000*%
G04 #@! TD*
G04 #@! TA.AperFunction,ViaPad*
%ADD19C,0.965200*%
G04 #@! TD*
G04 #@! TA.AperFunction,Conductor*
%ADD20C,0.406400*%
G04 #@! TD*
G04 #@! TA.AperFunction,Conductor*
%ADD21C,0.254000*%
G04 #@! TD*
%ADD22C,0.350000*%
G04 APERTURE END LIST*
D10*
G04 #@! TO.P,U2,1*
G04 #@! TO.N,+5V*
X106550000Y-89728000D03*
G04 #@! TO.P,U2,2*
G04 #@! TO.N,GND*
X106550000Y-90678000D03*
G04 #@! TO.P,U2,3*
G04 #@! TO.N,+5V*
X106550000Y-91628000D03*
G04 #@! TO.P,U2,4*
G04 #@! TO.N,Net-(U2-Pad4)*
X109350000Y-91628000D03*
G04 #@! TO.P,U2,5*
G04 #@! TO.N,+3V3*
X109350000Y-89728000D03*
G04 #@! TD*
D11*
G04 #@! TO.P,R7,1*
G04 #@! TO.N,/SDA_3V3*
X107315000Y-99783000D03*
G04 #@! TO.P,R7,2*
G04 #@! TO.N,+3V3*
X107315000Y-98083000D03*
G04 #@! TD*
D12*
G04 #@! TO.P,C1,1*
G04 #@! TO.N,+3V3*
X109535000Y-94488000D03*
G04 #@! TO.P,C1,2*
G04 #@! TO.N,GND*
X107635000Y-94488000D03*
G04 #@! TD*
D13*
G04 #@! TO.P,C2,1*
G04 #@! TO.N,+3V3*
X111965000Y-94488000D03*
G04 #@! TO.P,C2,2*
G04 #@! TO.N,GND*
X113665000Y-94488000D03*
G04 #@! TD*
D14*
G04 #@! TO.P,C3,1*
G04 #@! TO.N,GND*
X103505000Y-91628000D03*
G04 #@! TO.P,C3,2*
G04 #@! TO.N,+5V*
X103505000Y-89728000D03*
G04 #@! TD*
G04 #@! TO.P,C4,1*
G04 #@! TO.N,GND*
X113030000Y-91628000D03*
G04 #@! TO.P,C4,2*
G04 #@! TO.N,+3V3*
X113030000Y-89728000D03*
G04 #@! TD*
D15*
G04 #@! TO.P,J1,1*
G04 #@! TO.N,/SDA_5V*
X103505000Y-110998000D03*
G04 #@! TO.P,J1,2*
G04 #@! TO.N,/SCL_5V*
X106045000Y-110998000D03*
G04 #@! TO.P,J1,3*
G04 #@! TO.N,/~CHANGE*
X108585000Y-110998000D03*
G04 #@! TO.P,J1,5*
G04 #@! TO.N,+5V*
X113665000Y-110998000D03*
G04 #@! TO.P,J1,4*
G04 #@! TO.N,GND*
X111125000Y-110998000D03*
G04 #@! TD*
D13*
G04 #@! TO.P,R1,1*
G04 #@! TO.N,/SDA_5V*
X103290000Y-95123000D03*
G04 #@! TO.P,R1,2*
G04 #@! TO.N,+5V*
X104990000Y-95123000D03*
G04 #@! TD*
G04 #@! TO.P,R2,1*
G04 #@! TO.N,+3V3*
X109005000Y-106553000D03*
G04 #@! TO.P,R2,2*
G04 #@! TO.N,/~CHANGE*
X110705000Y-106553000D03*
G04 #@! TD*
G04 #@! TO.P,R3,1*
G04 #@! TO.N,/SCL_5V*
X103925000Y-106553000D03*
G04 #@! TO.P,R3,2*
G04 #@! TO.N,+5V*
X105625000Y-106553000D03*
G04 #@! TD*
G04 #@! TO.P,R4,1*
G04 #@! TO.N,Net-(R4-Pad1)*
X117895000Y-100838000D03*
G04 #@! TO.P,R4,2*
G04 #@! TO.N,/E_RIGHT*
X119595000Y-100838000D03*
G04 #@! TD*
D11*
G04 #@! TO.P,R5,1*
G04 #@! TO.N,Net-(R5-Pad1)*
X116840000Y-107608000D03*
G04 #@! TO.P,R5,2*
G04 #@! TO.N,/E_SET*
X116840000Y-109308000D03*
G04 #@! TD*
G04 #@! TO.P,R6,1*
G04 #@! TO.N,Net-(R6-Pad1)*
X116840000Y-94068000D03*
G04 #@! TO.P,R6,2*
G04 #@! TO.N,/E_LEFT*
X116840000Y-92368000D03*
G04 #@! TD*
G04 #@! TO.P,R8,1*
G04 #@! TO.N,/SCL_3V3*
X107315000Y-104228000D03*
G04 #@! TO.P,R8,2*
G04 #@! TO.N,+3V3*
X107315000Y-102528000D03*
G04 #@! TD*
D16*
G04 #@! TO.P,U1,2*
G04 #@! TO.N,GND*
X109695000Y-98298000D03*
G04 #@! TO.P,U1,13*
G04 #@! TO.N,Net-(U1-Pad13)*
X115095000Y-98298000D03*
G04 #@! TO.P,U1,1*
G04 #@! TO.N,+3V3*
X109695000Y-97028000D03*
G04 #@! TO.P,U1,3*
G04 #@! TO.N,/SDA_3V3*
X109695000Y-99568000D03*
G04 #@! TO.P,U1,4*
G04 #@! TO.N,Net-(U1-Pad4)*
X109695000Y-100838000D03*
G04 #@! TO.P,U1,14*
G04 #@! TO.N,GND*
X115095000Y-97028000D03*
G04 #@! TO.P,U1,12*
G04 #@! TO.N,Net-(R6-Pad1)*
X115095000Y-99568000D03*
G04 #@! TO.P,U1,11*
G04 #@! TO.N,Net-(R4-Pad1)*
X115095000Y-100838000D03*
G04 #@! TO.P,U1,5*
G04 #@! TO.N,/~CHANGE*
X109695000Y-102108000D03*
G04 #@! TO.P,U1,6*
G04 #@! TO.N,/SCL_3V3*
X109695000Y-103378000D03*
G04 #@! TO.P,U1,7*
G04 #@! TO.N,Net-(U1-Pad7)*
X109695000Y-104648000D03*
G04 #@! TO.P,U1,10*
G04 #@! TO.N,Net-(R5-Pad1)*
X115095000Y-102108000D03*
G04 #@! TO.P,U1,9*
G04 #@! TO.N,Net-(U1-Pad9)*
X115095000Y-103378000D03*
G04 #@! TO.P,U1,8*
G04 #@! TO.N,Net-(U1-Pad8)*
X115095000Y-104648000D03*
G04 #@! TD*
D17*
G04 #@! TO.P,Q1,1*
G04 #@! TO.N,+3V3*
X103140000Y-97933000D03*
G04 #@! TO.P,Q1,2*
G04 #@! TO.N,/SDA_3V3*
X103140000Y-99933000D03*
G04 #@! TO.P,Q1,3*
G04 #@! TO.N,/SDA_5V*
X105140000Y-98933000D03*
G04 #@! TD*
G04 #@! TO.P,Q2,1*
G04 #@! TO.N,+3V3*
X103140000Y-102378000D03*
G04 #@! TO.P,Q2,2*
G04 #@! TO.N,/SCL_3V3*
X103140000Y-104378000D03*
G04 #@! TO.P,Q2,3*
G04 #@! TO.N,/SCL_5V*
X105140000Y-103378000D03*
G04 #@! TD*
D18*
G04 #@! TO.N,GND*
X114300000Y-93218000D03*
X103411883Y-93171442D03*
X111125000Y-108458006D03*
X107950000Y-90678000D03*
G04 #@! TO.N,+3V3*
X107950000Y-106553000D03*
X107315000Y-97028000D03*
X107315000Y-101473000D03*
D19*
G04 #@! TO.N,/E_LEFT*
X119379988Y-90043000D03*
G04 #@! TO.N,/E_SET*
X121920000Y-111633000D03*
G04 #@! TO.N,/E_RIGHT*
X128269984Y-100838000D03*
D18*
G04 #@! TO.N,+5V*
X107315000Y-108458000D03*
X113665000Y-108458000D03*
X105410000Y-93217976D03*
D19*
G04 #@! TO.N,/SDA_5V*
X102870000Y-96393000D03*
X102870000Y-108458000D03*
G04 #@! TD*
D20*
G04 #@! TO.N,GND*
X113665000Y-93218000D02*
X114300000Y-93218000D01*
X109695000Y-98298000D02*
X112395000Y-98298000D01*
X112395000Y-98298000D02*
X113030000Y-97663000D01*
X113030000Y-97663000D02*
X113030000Y-97028000D01*
X103505000Y-91628000D02*
X103505000Y-93078325D01*
X103505000Y-93078325D02*
X103411883Y-93171442D01*
X107950000Y-93016600D02*
X107950000Y-90678000D01*
X107635000Y-94488000D02*
X107635000Y-93331600D01*
X107635000Y-93331600D02*
X107950000Y-93016600D01*
X113665000Y-94488000D02*
X113665000Y-95758000D01*
X113665000Y-95758000D02*
X113030000Y-96393000D01*
X113030000Y-96393000D02*
X113030000Y-97028000D01*
X113030000Y-97028000D02*
X115095000Y-97028000D01*
X113030000Y-91628000D02*
X113030000Y-92583000D01*
X113030000Y-92583000D02*
X113665000Y-93218000D01*
X113665000Y-94488000D02*
X113665000Y-93218000D01*
X111125000Y-110363000D02*
X111125000Y-108458006D01*
X106550000Y-90678000D02*
X107950000Y-90678000D01*
G04 #@! TO.N,+3V3*
X109005000Y-106553000D02*
X107950000Y-106553000D01*
X111125000Y-92583000D02*
X111965000Y-93423000D01*
X111965000Y-93423000D02*
X111965000Y-94488000D01*
X111125000Y-89728000D02*
X113030000Y-89728000D01*
X109350000Y-89728000D02*
X111125000Y-89728000D01*
X111125000Y-89728000D02*
X111125000Y-92583000D01*
X107315000Y-101473000D02*
X104775000Y-101473000D01*
X103870000Y-102378000D02*
X103140000Y-102378000D01*
X104775000Y-101473000D02*
X103870000Y-102378000D01*
X107315000Y-102528000D02*
X107315000Y-101473000D01*
X109695000Y-97028000D02*
X107315000Y-97028000D01*
X107315000Y-97028000D02*
X104775000Y-97028000D01*
X107315000Y-98083000D02*
X107315000Y-97028000D01*
X104775000Y-97028000D02*
X103870000Y-97933000D01*
X103870000Y-97933000D02*
X103140000Y-97933000D01*
X109535000Y-94488000D02*
X110490000Y-94488000D01*
X109695000Y-97028000D02*
X111201400Y-97028000D01*
X111201400Y-97028000D02*
X111965000Y-96264400D01*
X111965000Y-96264400D02*
X111965000Y-95394400D01*
X111965000Y-95394400D02*
X111965000Y-94488000D01*
X110490000Y-97028000D02*
X109695000Y-97028000D01*
X110490000Y-94488000D02*
X111965000Y-94488000D01*
D21*
G04 #@! TO.N,Net-(R4-Pad1)*
X115095000Y-100838000D02*
X117895000Y-100838000D01*
G04 #@! TO.N,/E_LEFT*
X116840000Y-92368000D02*
X116840000Y-91313000D01*
X116840000Y-91313000D02*
X118110000Y-90043000D01*
X118110000Y-90043000D02*
X119379988Y-90043000D01*
X119380000Y-90043000D02*
X119379988Y-90043000D01*
G04 #@! TO.N,Net-(R5-Pad1)*
X115095000Y-102108000D02*
X116205000Y-102108000D01*
X116205000Y-102108000D02*
X116840000Y-102743000D01*
X116840000Y-102743000D02*
X116840000Y-106804000D01*
X116840000Y-106804000D02*
X116840000Y-107608000D01*
G04 #@! TO.N,/E_SET*
X116840000Y-109308000D02*
X116840000Y-110363000D01*
X118110000Y-111633000D02*
X119380000Y-111633000D01*
X116840000Y-110363000D02*
X118110000Y-111633000D01*
X119380000Y-111633000D02*
X121920000Y-111633000D01*
G04 #@! TO.N,Net-(R6-Pad1)*
X115095000Y-99568000D02*
X116205000Y-99568000D01*
X116205000Y-99568000D02*
X116840000Y-98933000D01*
X116840000Y-98933000D02*
X116840000Y-94872000D01*
X116840000Y-94872000D02*
X116840000Y-94068000D01*
G04 #@! TO.N,/E_RIGHT*
X121920000Y-100838000D02*
X128269984Y-100838000D01*
X119595000Y-100838000D02*
X121920000Y-100838000D01*
G04 #@! TO.N,/~CHANGE*
X112395000Y-102743000D02*
X111760000Y-102108000D01*
X111760000Y-102108000D02*
X109695000Y-102108000D01*
X112395000Y-105667000D02*
X112395000Y-102743000D01*
X110705000Y-106553000D02*
X111509000Y-106553000D01*
X111509000Y-106553000D02*
X112395000Y-105667000D01*
X108585000Y-110998000D02*
X108585000Y-108458000D01*
X109139999Y-107903001D02*
X110108999Y-107903001D01*
X108585000Y-108458000D02*
X109139999Y-107903001D01*
X110108999Y-107903001D02*
X110705000Y-107307000D01*
X110705000Y-107307000D02*
X110705000Y-106553000D01*
D20*
G04 #@! TO.N,+5V*
X105625000Y-106553000D02*
X105625000Y-108038000D01*
X105625000Y-108038000D02*
X106045000Y-108458000D01*
X106045000Y-108458000D02*
X107315000Y-108458000D01*
X113665000Y-110998000D02*
X113665000Y-108458000D01*
X105410000Y-93217976D02*
X105410000Y-93796600D01*
X105410000Y-93796600D02*
X104990000Y-94216600D01*
X104990000Y-94216600D02*
X104990000Y-95123000D01*
X105410000Y-91285962D02*
X105410000Y-93217976D01*
X106550000Y-91628000D02*
X105471000Y-91628000D01*
X105471000Y-91628000D02*
X105410000Y-91567000D01*
X105410000Y-91567000D02*
X105410000Y-91285962D01*
X106550000Y-89728000D02*
X105410000Y-89728000D01*
X105410000Y-89728000D02*
X103505000Y-89728000D01*
X105410000Y-91285962D02*
X105410000Y-89728000D01*
D21*
G04 #@! TO.N,/SCL_5V*
X103925000Y-106553000D02*
X103925000Y-107925500D01*
X106045000Y-110045500D02*
X106045000Y-110998000D01*
X103925000Y-107925500D02*
X106045000Y-110045500D01*
X102870000Y-106553000D02*
X103925000Y-106553000D01*
X105140000Y-103378000D02*
X102604198Y-103378000D01*
X102235000Y-105918000D02*
X102870000Y-106553000D01*
X102235000Y-103747198D02*
X102235000Y-105918000D01*
X102604198Y-103378000D02*
X102235000Y-103747198D01*
G04 #@! TO.N,/SDA_3V3*
X103140000Y-99933000D02*
X107165000Y-99933000D01*
X107165000Y-99933000D02*
X107315000Y-99783000D01*
X109695000Y-99568000D02*
X107530000Y-99568000D01*
X107530000Y-99568000D02*
X107315000Y-99783000D01*
G04 #@! TO.N,/SDA_5V*
X103290000Y-95123000D02*
X103290000Y-95973000D01*
X103290000Y-95973000D02*
X102870000Y-96393000D01*
X102604198Y-98933000D02*
X105140000Y-98933000D01*
X102235000Y-97028000D02*
X102235000Y-98563802D01*
X102235000Y-98563802D02*
X102604198Y-98933000D01*
X102870000Y-96393000D02*
X102235000Y-97028000D01*
X103505000Y-110998000D02*
X103505000Y-109093000D01*
X103505000Y-109093000D02*
X102870000Y-108458000D01*
G04 #@! TO.N,/SCL_3V3*
X103140000Y-104378000D02*
X107165000Y-104378000D01*
X107165000Y-104378000D02*
X107315000Y-104228000D01*
X107315000Y-104228000D02*
X107735000Y-104228000D01*
X108585000Y-103378000D02*
X109695000Y-103378000D01*
X107735000Y-104228000D02*
X108585000Y-103378000D01*
G04 #@! TD*
D22*
X114300000Y-93218000D03*
X103411883Y-93171442D03*
X111125000Y-108458006D03*
X107950000Y-90678000D03*
X107950000Y-106553000D03*
X107315000Y-97028000D03*
X107315000Y-101473000D03*
X119379988Y-90043000D03*
X121920000Y-111633000D03*
X128269984Y-100838000D03*
X107315000Y-108458000D03*
X113665000Y-108458000D03*
X105410000Y-93217976D03*
X102870000Y-96393000D03*
X102870000Y-108458000D03*
M02*
