<?xml version="1.0" encoding="UTF-8" standalone="no"?>
<!-- Created with Inkscape (http://www.inkscape.org/) -->

<svg
   xmlns:ooo="http://xml.openoffice.org/svg/export"
   xmlns:dc="http://purl.org/dc/elements/1.1/"
   xmlns:cc="http://creativecommons.org/ns#"
   xmlns:rdf="http://www.w3.org/1999/02/22-rdf-syntax-ns#"
   xmlns:svg="http://www.w3.org/2000/svg"
   xmlns="http://www.w3.org/2000/svg"
   xmlns:sodipodi="http://sodipodi.sourceforge.net/DTD/sodipodi-0.dtd"
   xmlns:inkscape="http://www.inkscape.org/namespaces/inkscape"
   version="1.1"
   id="svg843"
   xml:space="preserve"
   width="55.567005"
   height="27.599548"
   viewBox="0 0 55.567005 27.599548"
   sodipodi:docname="dc-polarity.svg"
   inkscape:version="0.92.2 (5c3e80d, 2017-08-06)"
   inkscape:export-filename="/home/ben/Projects/alarm-clock-v3/fab-files/Decals/dc-polarity.png"
   inkscape:export-xdpi="600"
   inkscape:export-ydpi="600"><metadata
     id="metadata849"><rdf:RDF><cc:Work
         rdf:about=""><dc:format>image/svg+xml</dc:format><dc:type
           rdf:resource="http://purl.org/dc/dcmitype/StillImage" /><dc:title></dc:title></cc:Work></rdf:RDF></metadata><defs
     id="defs847"><clipPath
       clipPathUnits="userSpaceOnUse"
       id="presentation_clip_path"><rect
         id="rect7"
         height="27940"
         width="21590"
         y="0"
         x="0" /></clipPath><clipPath
       clipPathUnits="userSpaceOnUse"
       id="presentation_clip_path_shrink"><rect
         id="rect10"
         height="27885"
         width="21547"
         y="27"
         x="21" /></clipPath><g
       id="g14"
       ooo:id-list="id3 id4 id5 id6 id7 id8 id9 id10 id11 id12"
       ooo:slide="id1" /><g
       transform="matrix(4.8828125e-4,0,0,-4.8828125e-4,0,0)"
       id="bullet-char-template(57356)"><path
         inkscape:connector-curvature="0"
         id="path19"
         d="M 580,1141 1163,571 580,0 -4,571 Z" /></g><g
       transform="matrix(4.8828125e-4,0,0,-4.8828125e-4,0,0)"
       id="bullet-char-template(57354)"><path
         inkscape:connector-curvature="0"
         id="path22"
         d="M 8,1128 H 1137 V 0 H 8 Z" /></g><g
       transform="matrix(4.8828125e-4,0,0,-4.8828125e-4,0,0)"
       id="bullet-char-template(10146)"><path
         inkscape:connector-curvature="0"
         id="path25"
         d="M 174,0 602,739 174,1481 1456,739 Z M 1358,739 309,1346 659,739 Z" /></g><g
       transform="matrix(4.8828125e-4,0,0,-4.8828125e-4,0,0)"
       id="bullet-char-template(10132)"><path
         inkscape:connector-curvature="0"
         id="path28"
         d="M 2015,739 1276,0 H 717 l 543,543 H 174 v 393 h 1086 l -543,545 h 557 z" /></g><g
       transform="matrix(4.8828125e-4,0,0,-4.8828125e-4,0,0)"
       id="bullet-char-template(10007)"><path
         inkscape:connector-curvature="0"
         id="path31"
         d="m 0,-2 c -7,16 -16,29 -25,39 l 381,530 c -94,256 -141,385 -141,387 0,25 13,38 40,38 9,0 21,-2 34,-5 21,4 42,12 65,25 l 27,-13 111,-251 280,301 64,-25 24,25 c 21,-10 41,-24 62,-43 C 886,937 835,863 770,784 769,783 710,716 594,584 L 774,223 c 0,-27 -21,-55 -63,-84 l 16,-20 C 717,90 699,76 672,76 641,76 570,178 457,381 L 164,-76 c -22,-34 -53,-51 -92,-51 -42,0 -63,17 -64,51 -7,9 -10,24 -10,44 0,9 1,19 2,30 z" /></g><g
       transform="matrix(4.8828125e-4,0,0,-4.8828125e-4,0,0)"
       id="bullet-char-template(10004)"><path
         inkscape:connector-curvature="0"
         id="path34"
         d="M 285,-33 C 182,-33 111,30 74,156 52,228 41,333 41,471 c 0,78 14,145 41,201 34,71 87,106 158,106 53,0 88,-31 106,-94 l 23,-176 c 8,-64 28,-97 59,-98 l 735,706 c 11,11 33,17 66,17 42,0 63,-15 63,-46 V 965 c 0,-36 -10,-64 -30,-84 L 442,47 C 390,-6 338,-33 285,-33 Z" /></g><g
       transform="matrix(4.8828125e-4,0,0,-4.8828125e-4,0,0)"
       id="bullet-char-template(9679)"><path
         inkscape:connector-curvature="0"
         id="path37"
         d="M 813,0 C 632,0 489,54 383,161 276,268 223,411 223,592 c 0,181 53,324 160,431 106,107 249,161 430,161 179,0 323,-54 432,-161 108,-107 162,-251 162,-431 0,-180 -54,-324 -162,-431 C 1136,54 992,0 813,0 Z" /></g><g
       transform="matrix(4.8828125e-4,0,0,-4.8828125e-4,0,0)"
       id="bullet-char-template(8226)"><path
         inkscape:connector-curvature="0"
         id="path40"
         d="m 346,457 c -73,0 -137,26 -191,78 -54,51 -81,114 -81,188 0,73 27,136 81,188 54,52 118,78 191,78 73,0 134,-26 185,-79 51,-51 77,-114 77,-187 0,-75 -25,-137 -76,-188 -50,-52 -112,-78 -186,-78 z" /></g><g
       transform="matrix(4.8828125e-4,0,0,-4.8828125e-4,0,0)"
       id="bullet-char-template(8211)"><path
         inkscape:connector-curvature="0"
         id="path43"
         d="M -4,459 H 1135 V 606 H -4 Z" /></g><g
       transform="matrix(4.8828125e-4,0,0,-4.8828125e-4,0,0)"
       id="bullet-char-template(61548)"><path
         inkscape:connector-curvature="0"
         id="path46"
         d="m 173,740 c 0,163 58,303 173,419 116,115 255,173 419,173 163,0 302,-58 418,-173 116,-116 174,-256 174,-419 0,-163 -58,-303 -174,-418 C 1067,206 928,148 765,148 601,148 462,206 346,322 231,437 173,577 173,740 Z" /></g></defs><sodipodi:namedview
     pagecolor="#ffffff"
     bordercolor="#666666"
     borderopacity="1"
     objecttolerance="10"
     gridtolerance="10"
     guidetolerance="10"
     inkscape:pageopacity="0"
     inkscape:pageshadow="2"
     inkscape:window-width="1920"
     inkscape:window-height="1027"
     id="namedview845"
     showgrid="false"
     inkscape:zoom="8.335289"
     inkscape:cx="29.706639"
     inkscape:cy="17.195101"
     inkscape:window-x="0"
     inkscape:window-y="1080"
     inkscape:window-maximized="1"
     inkscape:current-layer="g851"
     fit-margin-top="0"
     fit-margin-left="0"
     fit-margin-right="0"
     fit-margin-bottom="0" /><g
     id="g851"
     inkscape:groupmode="layer"
     inkscape:label="Decals - Back panel"
     transform="matrix(1.3333333,0,0,-1.3333333,-246.17518,949.84845)"><text
       transform="scale(0.9694734,-1.0314878)"
       id="text1322"
       y="-683.61597"
       x="197.70995"
       style="font-style:normal;font-weight:normal;font-size:20.3113575px;line-height:1.25;font-family:sans-serif;letter-spacing:0px;word-spacing:0px;fill:#000000;fill-opacity:1;stroke:none;stroke-width:0.50778407;"
       xml:space="preserve"
       inkscape:export-xdpi="1200"
       inkscape:export-ydpi="1200"
       inkscape:export-filename="/home/ben/Documents/CAD/Alarm Clock V3/render scene/decals/dc-polarity.png"><tspan
         style="font-style:normal;font-variant:normal;font-weight:bold;font-stretch:normal;font-size:9.47863483px;font-family:FreeSans;-inkscape-font-specification:'FreeSans Bold';fill:#000000;stroke-width:0.50778407;stroke:none;"
         y="-683.61597"
         x="197.70995"
         id="tspan1320"
         sodipodi:role="line">DC 5V</tspan></text>
<g
       style="fill:none;fill-rule:evenodd;stroke:#000000;stroke-width:28.22200012;stroke-linejoin:round"
       id="g50"
       transform="matrix(0.00347207,0,0,-0.00347207,170.74311,717.73417)"><g
         style="fill:none;stroke:#000000"
         id="id2"
         class="Master_Slide"><g
           style="fill:none;stroke:#000000"
           id="bg-id2"
           class="Background" /><g
           style="fill:none;stroke:#000000"
           id="bo-id2"
           class="BackgroundObjects" /></g></g><path
       style="fill:#000000;fill-rule:evenodd;stroke:none;stroke-width:0.13065168;stroke-linejoin:round"
       d="M 48.609375 13.701172 C 44.909727 13.701172 42.028683 16.362649 41.697266 19.951172 L 30.941406 19.951172 C 30.637152 18.46841 29.36608 17.40625 27.771484 17.40625 C 25.938231 17.40625 24.535156 18.807372 24.535156 20.640625 C 24.535156 22.473878 25.938231 23.882812 27.771484 23.882812 C 29.361031 23.882812 30.628109 22.822034 30.9375 21.345703 L 41.697266 21.345703 C 42.030382 24.932285 44.911047 27.589844 48.609375 27.589844 C 52.544388 27.589844 55.552734 24.581498 55.552734 20.646484 C 55.552734 16.711471 52.544388 13.701172 48.609375 13.701172 z M 48.605469 15.224609 C 51.674789 15.224609 54.021484 17.571318 54.021484 20.640625 C 54.021484 23.709932 51.674789 26.058594 48.605469 26.058594 C 45.536162 26.058594 43.189453 23.709932 43.189453 20.640625 C 43.189453 17.571318 45.536162 15.224609 48.605469 15.224609 z "
       transform="matrix(0.75000002,0,0,-0.75000002,184.63139,712.38636)"
       id="path68"
       inkscape:export-xdpi="1200"
       inkscape:export-ydpi="1200"
       inkscape:export-filename="/home/ben/Documents/CAD/Alarm Clock V3/render scene/decals/dc-polarity.png" /><path
       style="fill:#000000;fill-rule:evenodd;stroke:none;stroke-width:0.13065168;stroke-linejoin:round"
       d="M 6.9433594 13.701172 C 3.0083595 13.701172 0 16.711471 0 20.646484 C 0 24.581498 3.0083595 27.589844 6.9433594 27.589844 C 10.6417 27.589844 13.522352 24.932285 13.855469 21.345703 L 20.888672 21.345703 C 20.987079 22.332577 21.279532 23.299369 21.789062 24.154297 C 23.051412 26.37003 25.620623 27.744778 28.164062 27.578125 C 30.232639 27.472792 32.219409 26.384966 33.414062 24.691406 C 33.437265 24.51346 33.047823 24.403473 32.90625 24.251953 C 32.681023 24.094713 32.455695 23.936524 32.230469 23.779297 C 31.172202 25.29183 29.318256 26.203371 27.472656 26.083984 C 25.353323 25.998251 23.382149 24.532256 22.669922 22.537109 C 21.931349 20.603376 22.433816 18.273186 23.912109 16.822266 C 25.404096 15.278546 27.848625 14.787931 29.826172 15.617188 C 30.782665 16.017947 31.638983 16.680682 32.224609 17.541016 C 32.638183 17.252176 33.053224 16.962668 33.466797 16.673828 C 32.267779 14.940803 30.241681 13.831036 28.144531 13.71875 C 27.844938 13.702709 27.542486 13.706614 27.242188 13.732422 C 24.996931 13.890889 22.879131 15.220231 21.769531 17.179688 C 21.267259 18.024686 20.979916 18.978025 20.884766 19.951172 L 13.855469 19.951172 C 13.524052 16.362649 10.643019 13.701172 6.9433594 13.701172 z M 6.9394531 15.224609 C 10.008773 15.224609 12.357422 17.571318 12.357422 20.640625 C 12.357422 23.709932 10.008773 26.058594 6.9394531 26.058594 C 3.8701465 26.058594 1.5234375 23.709932 1.5234375 20.640625 C 1.5234375 17.571318 3.8701465 15.224609 6.9394531 15.224609 z "
       transform="matrix(0.75000002,0,0,-0.75000002,184.63139,712.38636)"
       id="path75"
       inkscape:export-xdpi="1200"
       inkscape:export-ydpi="1200"
       inkscape:export-filename="/home/ben/Documents/CAD/Alarm Clock V3/render scene/decals/dc-polarity.png" /><g
       style="fill:#000000;fill-rule:evenodd;stroke:none;stroke-width:28.22200012;stroke-linejoin:round"
       id="g91"
       class="com.sun.star.drawing.CustomShape"
       transform="matrix(0.00347207,0,0,-0.00347207,170.74311,717.73417)"><g
         style="fill:#000000;stroke:none"
         id="id7" /></g><g
       style="fill:#000000;fill-rule:evenodd;stroke:none;stroke-width:28.22200012;stroke-linejoin:round"
       id="g98"
       class="com.sun.star.drawing.CustomShape"
       transform="matrix(0.00347207,0,0,-0.00347207,170.74311,717.73417)"><g
         style="fill:#000000;stroke:none"
         id="id8" /></g><g
       style="fill:#000000;fill-rule:evenodd;stroke:none;stroke-width:28.22200012;stroke-linejoin:round"
       id="g105"
       class="com.sun.star.drawing.CustomShape"
       transform="matrix(0.00347207,0,0,-0.00347207,170.74311,717.73417)"
       inkscape:export-xdpi="1200"
       inkscape:export-ydpi="1200"
       inkscape:export-filename="/home/ben/Documents/CAD/Alarm Clock V3/render scene/decals/dc-polarity.png"><g
         style="fill:#000000;stroke:none"
         id="id9"><rect
           style="fill:#000000;stroke:none"
           id="rect108"
           height="301"
           width="1501"
           y="5850"
           x="4750"
           class="BoundingBox" /><path
           style="fill:#000000;stroke:none"
           inkscape:connector-curvature="0"
           id="path110"
           d="m 5500,6150 h -750 v -300 h 1500 v 300 z" /></g></g><g
       style="fill:#000000;fill-rule:evenodd;stroke:none;stroke-width:28.22200012;stroke-linejoin:round"
       id="g112"
       class="com.sun.star.drawing.CustomShape"
       transform="matrix(0.00347207,0,0,-0.00347207,170.74311,717.73417)"
       inkscape:export-xdpi="1200"
       inkscape:export-ydpi="1200"
       inkscape:export-filename="/home/ben/Documents/CAD/Alarm Clock V3/render scene/decals/dc-polarity.png"><g
         style="fill:#000000;stroke:none"
         id="id10"><path
           style="fill:#000000;stroke:none;stroke-width:0.13065168"
           d="M 47.914062 17.173828 L 47.914062 19.951172 L 45.136719 19.951172 L 45.136719 21.339844 L 45.136719 21.345703 L 47.914062 21.345703 L 47.914062 24.119141 L 47.914062 24.123047 L 49.308594 24.123047 L 49.308594 21.345703 L 52.085938 21.345703 L 52.085938 19.951172 L 52.080078 19.951172 L 49.308594 19.951172 L 49.308594 17.173828 L 49.302734 17.173828 L 47.914062 17.173828 z "
           transform="matrix(216.00948,0,0,216.00948,3999.9999,1540.2382)"
           id="rect115" /></g></g><g
       style="fill:#000000;fill-rule:evenodd;stroke:none;stroke-width:28.22200012;stroke-linejoin:round"
       id="g126"
       class="com.sun.star.drawing.CustomShape"
       transform="matrix(0.00347207,0,0,-0.00347207,170.74311,717.73417)"><g
         style="fill:#000000;stroke:none"
         id="id12" /></g></g></svg>