<?xml version="1.0" encoding="UTF-8" standalone="no"?>
<!-- Created with Inkscape (http://www.inkscape.org/) -->

<svg
   xmlns:dc="http://purl.org/dc/elements/1.1/"
   xmlns:cc="http://creativecommons.org/ns#"
   xmlns:rdf="http://www.w3.org/1999/02/22-rdf-syntax-ns#"
   xmlns:svg="http://www.w3.org/2000/svg"
   xmlns="http://www.w3.org/2000/svg"
   xmlns:sodipodi="http://sodipodi.sourceforge.net/DTD/sodipodi-0.dtd"
   xmlns:inkscape="http://www.inkscape.org/namespaces/inkscape"
   width="9.4540596mm"
   height="4.4572501mm"
   viewBox="0 0 9.4540596 4.4572501"
   version="1.1"
   id="svg2281"
   inkscape:version="0.92.2 (5c3e80d, 2017-08-06)"
   sodipodi:docname="logo-usb.svg"
   inkscape:export-filename="/home/ben/Documents/CAD/Alarm Clock V3/render scene/decals/logo-usb.png"
   inkscape:export-xdpi="600"
   inkscape:export-ydpi="600">
  <defs
     id="defs2275" />
  <sodipodi:namedview
     id="base"
     pagecolor="#ffffff"
     bordercolor="#666666"
     borderopacity="1.0"
     inkscape:pageopacity="0.0"
     inkscape:pageshadow="2"
     inkscape:zoom="15.839192"
     inkscape:cx="8.1621197"
     inkscape:cy="9.9534907"
     inkscape:document-units="mm"
     inkscape:current-layer="layer1"
     showgrid="false"
     fit-margin-top="0"
     fit-margin-left="0"
     fit-margin-right="0"
     fit-margin-bottom="0"
     inkscape:window-width="1920"
     inkscape:window-height="1027"
     inkscape:window-x="0"
     inkscape:window-y="1080"
     inkscape:window-maximized="1" />
  <metadata
     id="metadata2278">
    <rdf:RDF>
      <cc:Work
         rdf:about="">
        <dc:format>image/svg+xml</dc:format>
        <dc:type
           rdf:resource="http://purl.org/dc/dcmitype/StillImage" />
        <dc:title />
      </cc:Work>
    </rdf:RDF>
  </metadata>
  <g
     inkscape:label="Layer 1"
     inkscape:groupmode="layer"
     id="layer1"
     transform="translate(-21.825797,-107.24794)">
    <path
       id="path1334"
       d="m 31.279857,109.47676 -1.05023,-0.64338 v 0.45896 h -5.368011 l 1.045214,-1.17143 c 0.08895,-0.0756 0.205334,-0.12869 0.325056,-0.13163 0.484322,0 0.771934,-1.5e-4 0.877799,-3.5e-4 0.07177,0.21689 0.264527,0.37344 0.493688,0.37344 0.289902,0 0.52517,-0.24955 0.52517,-0.55719 0,-0.30778 -0.235254,-0.55724 -0.52517,-0.55724 -0.229161,0 -0.421922,0.15646 -0.493688,0.37317 l -0.867515,-1.5e-4 c -0.235123,0 -0.481489,0.13684 -0.638302,0.29726 0.0043,-0.005 0.0088,-0.01 -2.51e-4,9e-5 -0.0032,0.004 -1.108932,1.24272 -1.108932,1.24272 -0.08876,0.0755 -0.205088,0.12825 -0.324725,0.13128 h -0.607251 c -0.0805,-0.42556 -0.434749,-0.74618 -0.859691,-0.74618 -0.484491,0 -0.877221,0.41661 -0.877221,0.9304 0,0.51395 0.39273,0.93058 0.877221,0.93058 0.425023,0 0.779276,-0.32089 0.859769,-0.7468 h 0.596618 c 0.0018,0 0.0028,9e-5 0.0046,0 h 1.3196 c 0.119401,0.003 0.235585,0.056 0.324259,0.13163 0,0 1.105373,1.23867 1.108792,1.24268 0.0088,0.01 0.0044,0.005 8.1e-5,8e-5 0.156809,0.1604 0.403288,0.29715 0.63845,0.29715 l 0.836032,-2e-4 v 0.37354 h 1.050505 v -1.11427 h -1.050505 v 0.37306 c 0,0 -0.220194,-3.4e-4 -0.846275,-3.4e-4 -0.119744,-0.003 -0.236252,-0.0559 -0.325163,-0.13155 l -1.045446,-1.17165 h 4.055276 v 0.45969 z"
       inkscape:connector-curvature="0"
       style="fill:#000000;stroke-width:0.02161778" />
  </g>
</svg>
