G04 #@! TF.FileFunction,Copper,L1,Top,Signal*
%FSLAX46Y46*%
G04 Gerber Fmt 4.6, Leading zero omitted, Abs format (unit mm)*
G04 Created by KiCad (PCBNEW (2016-05-03 BZR 6266)-product) date Wed May 25 03:17:44 2016*
%MOMM*%
%LPD*%
G01*
G04 APERTURE LIST*
%ADD10C,0.350000*%
%ADD11C,0.150000*%
%ADD12R,1.500000X1.000000*%
%ADD13R,1.000000X1.500000*%
%ADD14C,5.080000*%
%ADD15C,1.016000*%
%ADD16R,1.000000X1.100000*%
%ADD17R,1.100000X1.000000*%
%ADD18C,1.270000*%
%ADD19C,0.965200*%
%ADD20C,0.406400*%
%ADD21C,0.254000*%
%ADD22C,0.350000*%
G04 APERTURE END LIST*
D10*
D11*
X140970000Y-83820000D02*
X140970000Y-81915000D01*
X140970000Y-100965000D02*
X140970000Y-90170000D01*
X140970000Y-107315000D02*
X140970000Y-111125000D01*
X133985000Y-109220000D02*
X138430000Y-109220000D01*
X133985000Y-81915000D02*
X138430000Y-81915000D01*
X140970000Y-90170000D02*
G75*
G03X138430000Y-90170000I-1270000J0D01*
G01*
X133985000Y-90170000D02*
G75*
G03X131445000Y-90170000I-1270000J0D01*
G01*
X140970000Y-107315000D02*
G75*
G03X138430000Y-107315000I-1270000J0D01*
G01*
X133985000Y-107315000D02*
G75*
G03X131445000Y-107315000I-1270000J0D01*
G01*
X131445000Y-100965000D02*
G75*
G03X133985000Y-100965000I1270000J0D01*
G01*
X138430000Y-100965000D02*
G75*
G03X140970000Y-100965000I1270000J0D01*
G01*
X138430000Y-83820000D02*
G75*
G03X140970000Y-83820000I1270000J0D01*
G01*
X131445000Y-83820000D02*
G75*
G03X133985000Y-83820000I1270000J0D01*
G01*
X138430000Y-109220000D02*
X138430000Y-107315000D01*
X133985000Y-107315000D02*
X133985000Y-109220000D01*
X131445000Y-107315000D02*
X131445000Y-114935000D01*
X138430000Y-90170000D02*
X138430000Y-100965000D01*
X133985000Y-100965000D02*
X133985000Y-90170000D01*
X131445000Y-90170000D02*
X131445000Y-100965000D01*
X133985000Y-81915000D02*
X133985000Y-83820000D01*
X138430000Y-83820000D02*
X138430000Y-81915000D01*
X131445000Y-81915000D02*
X131445000Y-83820000D01*
X108585000Y-81915000D02*
X131445000Y-81915000D01*
X108585000Y-114935000D02*
X108585000Y-81915000D01*
X125095000Y-121285000D02*
X114935000Y-121285000D01*
X131445000Y-114935000D02*
X125095000Y-121285000D01*
X108585000Y-114935000D02*
X114935000Y-121285000D01*
X152400000Y-81915000D02*
X140970000Y-81915000D01*
X152400000Y-111125000D02*
X152400000Y-81915000D01*
X140970000Y-111125000D02*
X152400000Y-111125000D01*
D12*
X130085000Y-107620000D03*
X125185000Y-107620000D03*
X125185000Y-110820000D03*
X130085000Y-110820000D03*
D13*
X121615000Y-119290000D03*
X121615000Y-114390000D03*
X118415000Y-114390000D03*
X118415000Y-119290000D03*
D12*
X109945000Y-110820000D03*
X114845000Y-110820000D03*
X114845000Y-107620000D03*
X109945000Y-107620000D03*
D14*
X120015000Y-109220000D03*
D15*
X120015000Y-107315000D03*
X118365222Y-108267500D03*
X118365222Y-110172500D03*
X120015000Y-111125000D03*
X121664778Y-110172500D03*
X121664778Y-108267500D03*
D13*
X118415000Y-99150000D03*
X118415000Y-104050000D03*
X121615000Y-104050000D03*
X121615000Y-99150000D03*
X121615000Y-88810000D03*
X121615000Y-83910000D03*
X118415000Y-83910000D03*
X118415000Y-88810000D03*
D14*
X120015000Y-93980000D03*
D15*
X120015000Y-92075000D03*
X118365222Y-93027500D03*
X118365222Y-94932500D03*
X120015000Y-95885000D03*
X121664778Y-94932500D03*
X121664778Y-93027500D03*
D12*
X125185000Y-95580000D03*
X130085000Y-95580000D03*
X130085000Y-92380000D03*
X125185000Y-92380000D03*
X114845000Y-92380000D03*
X109945000Y-92380000D03*
X109945000Y-95580000D03*
X114845000Y-95580000D03*
D16*
X116205000Y-87210000D03*
X116205000Y-85510000D03*
D17*
X126785000Y-90170000D03*
X128485000Y-90170000D03*
X128485000Y-113030000D03*
X126785000Y-113030000D03*
D16*
X116205000Y-117690000D03*
X116205000Y-115990000D03*
D17*
X111545000Y-105410000D03*
X113245000Y-105410000D03*
X113245000Y-97790000D03*
X111545000Y-97790000D03*
D16*
X123825000Y-100750000D03*
X123825000Y-102450000D03*
D12*
X149135000Y-86030000D03*
X144235000Y-86030000D03*
X144235000Y-89230000D03*
X149135000Y-89230000D03*
D17*
X147535000Y-83820000D03*
X145835000Y-83820000D03*
X147535000Y-109220000D03*
X145835000Y-109220000D03*
D14*
X146685000Y-96520000D03*
D15*
X146685000Y-94615000D03*
X145035222Y-95567500D03*
X145035222Y-97472500D03*
X146685000Y-98425000D03*
X148334778Y-97472500D03*
X148334778Y-95567500D03*
D12*
X149135000Y-103810000D03*
X144235000Y-103810000D03*
X144235000Y-107010000D03*
X149135000Y-107010000D03*
D18*
X116840000Y-97790000D03*
X116840000Y-99060000D03*
X116840000Y-100330000D03*
X115570000Y-99060000D03*
X115570000Y-100330000D03*
X124460000Y-99060000D03*
X123190000Y-97790000D03*
X123190000Y-99060000D03*
X116205000Y-90170000D03*
X114935000Y-90170000D03*
X113665000Y-90170000D03*
X113665000Y-88900000D03*
X114935000Y-88900000D03*
X116205000Y-88900000D03*
X124460000Y-120015000D03*
X125730000Y-118745000D03*
X127000000Y-117475000D03*
X128270000Y-116205000D03*
X129540000Y-114935000D03*
X115570000Y-120015000D03*
X110490000Y-114935000D03*
X111760000Y-116205000D03*
X113030000Y-117475000D03*
X114300000Y-118745000D03*
X115570000Y-104140000D03*
X115570000Y-102870000D03*
X116840000Y-102870000D03*
X116840000Y-104140000D03*
X116840000Y-105410000D03*
X123825000Y-113030000D03*
X125095000Y-113030000D03*
X125095000Y-114300000D03*
X123825000Y-114300000D03*
X114935000Y-114300000D03*
X114935000Y-113030000D03*
X116205000Y-113030000D03*
X116205000Y-114300000D03*
X123825000Y-84455000D03*
X125095000Y-84455000D03*
X125095000Y-83185000D03*
X123825000Y-83185000D03*
X111125000Y-87630000D03*
X109855000Y-87630000D03*
X109855000Y-88900000D03*
X109855000Y-90170000D03*
X128905000Y-87630000D03*
X130175000Y-87630000D03*
X130175000Y-88900000D03*
X130175000Y-90170000D03*
D19*
X129540000Y-93980000D03*
X123190000Y-89535000D03*
X116840000Y-83185000D03*
X127000000Y-110490000D03*
X130175000Y-101600000D03*
X130175000Y-103505000D03*
X118745000Y-116205000D03*
X120015000Y-118745000D03*
X113030000Y-109220000D03*
X109855000Y-113030000D03*
X109855000Y-103505000D03*
X114300000Y-93980000D03*
X120015000Y-102870000D03*
X120015000Y-100330000D03*
D18*
X150495000Y-95250000D03*
X150495000Y-93980000D03*
X149253354Y-93951646D03*
X146685000Y-92710000D03*
X146685000Y-90805000D03*
X142875000Y-97790000D03*
X142875000Y-99060000D03*
X144145000Y-99060000D03*
X146685000Y-100330000D03*
X146685000Y-102235000D03*
D19*
X146696607Y-87641565D03*
X146685000Y-106045000D03*
X144144992Y-87630000D03*
X146685000Y-107315000D03*
D20*
X116840000Y-100330000D02*
X116840000Y-99060000D01*
X115570000Y-100330000D02*
X115570000Y-99060000D01*
X123190000Y-99060000D02*
X124460000Y-99060000D01*
X121615000Y-99150000D02*
X123100000Y-99150000D01*
X123100000Y-99150000D02*
X123190000Y-99060000D01*
X114935000Y-90170000D02*
X116205000Y-90170000D01*
X113665000Y-90170000D02*
X114935000Y-90170000D01*
X113665000Y-88900000D02*
X113665000Y-90170000D01*
X114935000Y-88900000D02*
X113665000Y-88900000D01*
X116205000Y-88900000D02*
X114935000Y-88900000D01*
X118415000Y-88810000D02*
X116295000Y-88810000D01*
X116295000Y-88810000D02*
X116205000Y-88900000D01*
X128270000Y-116205000D02*
X129540000Y-114935000D01*
X125730000Y-118745000D02*
X127000000Y-117475000D01*
X114300000Y-118745000D02*
X115570000Y-120015000D01*
X113030000Y-117475000D02*
X114300000Y-118745000D01*
X110490000Y-114935000D02*
X111760000Y-116205000D01*
X125730000Y-118745000D02*
X124460000Y-120015000D01*
X128270000Y-116205000D02*
X127000000Y-117475000D01*
X128485000Y-113347500D02*
X128485000Y-113880000D01*
X128485000Y-113880000D02*
X129540000Y-114935000D01*
X113030000Y-117475000D02*
X111760000Y-116205000D01*
X115887500Y-117690000D02*
X115355000Y-117690000D01*
X115355000Y-117690000D02*
X114300000Y-118745000D01*
X113665000Y-102870000D02*
X115570000Y-102870000D01*
X115570000Y-102870000D02*
X115570000Y-104140000D01*
X116840000Y-104140000D02*
X116840000Y-102870000D01*
X125095000Y-114300000D02*
X125095000Y-113030000D01*
X121615000Y-114390000D02*
X123735000Y-114390000D01*
X123735000Y-114390000D02*
X123825000Y-114300000D01*
X116205000Y-113030000D02*
X114935000Y-113030000D01*
X115887500Y-115990000D02*
X115887500Y-114617500D01*
X115887500Y-114617500D02*
X116205000Y-114300000D01*
X125095000Y-84455000D02*
X123825000Y-84455000D01*
X125095000Y-83185000D02*
X125095000Y-84455000D01*
X123825000Y-83185000D02*
X125095000Y-83185000D01*
X121615000Y-83910000D02*
X123100000Y-83910000D01*
X123100000Y-83910000D02*
X123825000Y-83185000D01*
X109855000Y-87630000D02*
X111125000Y-87630000D01*
X109855000Y-88900000D02*
X109855000Y-87630000D01*
X109855000Y-90170000D02*
X109855000Y-88900000D01*
X109945000Y-92380000D02*
X109945000Y-90260000D01*
X109945000Y-90260000D02*
X109855000Y-90170000D01*
X130175000Y-87630000D02*
X128905000Y-87630000D01*
X130175000Y-88900000D02*
X130175000Y-87630000D01*
X130175000Y-90170000D02*
X130175000Y-88900000D01*
X128485000Y-89852500D02*
X129857500Y-89852500D01*
X129857500Y-89852500D02*
X130175000Y-90170000D01*
X113245000Y-105092500D02*
X113245000Y-103290000D01*
X113245000Y-103290000D02*
X113665000Y-102870000D01*
D21*
X130085000Y-92380000D02*
X130085000Y-93435000D01*
X130085000Y-93435000D02*
X129540000Y-93980000D01*
X121615000Y-88810000D02*
X122465000Y-88810000D01*
X122465000Y-88810000D02*
X123190000Y-89535000D01*
X118415000Y-83910000D02*
X117565000Y-83910000D01*
X117565000Y-83910000D02*
X116840000Y-83185000D01*
X125185000Y-110820000D02*
X126670000Y-110820000D01*
X126670000Y-110820000D02*
X127000000Y-110490000D01*
X125185000Y-95580000D02*
X125185000Y-96610000D01*
X125185000Y-96610000D02*
X129641601Y-101066601D01*
X129641601Y-101066601D02*
X130175000Y-101600000D01*
X130085000Y-107620000D02*
X130085000Y-103595000D01*
X130085000Y-103595000D02*
X130175000Y-103505000D01*
X118415000Y-114390000D02*
X118415000Y-115875000D01*
X118415000Y-115875000D02*
X118745000Y-116205000D01*
X121615000Y-119290000D02*
X120560000Y-119290000D01*
X120548399Y-119278399D02*
X120015000Y-118745000D01*
X120560000Y-119290000D02*
X120548399Y-119278399D01*
X113030000Y-107950000D02*
X113360000Y-107620000D01*
X113360000Y-107620000D02*
X114845000Y-107620000D01*
X113030000Y-109220000D02*
X113030000Y-107950000D01*
X109855000Y-103505000D02*
X109220000Y-102870000D01*
X109220000Y-102870000D02*
X109220000Y-97155000D01*
X109945000Y-96430000D02*
X109945000Y-95580000D01*
X109220000Y-97155000D02*
X109945000Y-96430000D01*
X109945000Y-110820000D02*
X109945000Y-112940000D01*
X109945000Y-112940000D02*
X109855000Y-113030000D01*
X114845000Y-92380000D02*
X114845000Y-93435000D01*
X114845000Y-93435000D02*
X114300000Y-93980000D01*
X121615000Y-104050000D02*
X121195000Y-104050000D01*
X121195000Y-104050000D02*
X120015000Y-102870000D01*
X119050000Y-99365000D02*
X119557801Y-99872801D01*
X119557801Y-99872801D02*
X120015000Y-100330000D01*
X118415000Y-99150000D02*
X118415000Y-99400000D01*
X118415000Y-99365000D02*
X119050000Y-99365000D01*
D20*
X149253354Y-93951646D02*
X150466646Y-93951646D01*
X150466646Y-93951646D02*
X150495000Y-93980000D01*
X146685000Y-90805000D02*
X146685000Y-92710000D01*
X144145000Y-99060000D02*
X142875000Y-99060000D01*
X146685000Y-102235000D02*
X146685000Y-100330000D01*
D21*
X144235000Y-89230000D02*
X145720000Y-89230000D01*
X145720000Y-89230000D02*
X146696607Y-88253393D01*
X146696607Y-88253393D02*
X146696607Y-87641565D01*
X149135000Y-103810000D02*
X147650000Y-103810000D01*
X147650000Y-103810000D02*
X146685000Y-104775000D01*
X146685000Y-104775000D02*
X146685000Y-106045000D01*
X149135000Y-86030000D02*
X147015000Y-86030000D01*
X145415000Y-87630000D02*
X144144992Y-87630000D01*
X147015000Y-86030000D02*
X145415000Y-87630000D01*
X144235000Y-107010000D02*
X144540000Y-107315000D01*
X144540000Y-107315000D02*
X146685000Y-107315000D01*
X149135000Y-86030000D02*
X149530000Y-86030000D01*
G36*
X115070000Y-86924250D02*
X115228750Y-87083000D01*
X116078000Y-87083000D01*
X116078000Y-87063000D01*
X116332000Y-87063000D01*
X116332000Y-87083000D01*
X117181250Y-87083000D01*
X117340000Y-86924250D01*
X117340000Y-86804500D01*
X125042394Y-86804500D01*
X127190500Y-88952606D01*
X127190500Y-89035000D01*
X127070750Y-89035000D01*
X126912000Y-89193750D01*
X126912000Y-90043000D01*
X126932000Y-90043000D01*
X126932000Y-90297000D01*
X126912000Y-90297000D01*
X126912000Y-91146250D01*
X127070750Y-91305000D01*
X127190500Y-91305000D01*
X127190500Y-97537870D01*
X126271003Y-96618373D01*
X126386441Y-96544090D01*
X126531431Y-96331890D01*
X126582440Y-96080000D01*
X126582440Y-95080000D01*
X126538162Y-94844683D01*
X126399090Y-94628559D01*
X126186890Y-94483569D01*
X125935000Y-94432560D01*
X124435000Y-94432560D01*
X124199683Y-94476838D01*
X123983559Y-94615910D01*
X123838569Y-94828110D01*
X123787560Y-95080000D01*
X123787560Y-96080000D01*
X123831838Y-96315317D01*
X123970910Y-96531441D01*
X124183110Y-96676431D01*
X124435000Y-96727440D01*
X124446360Y-96727440D01*
X124481004Y-96901605D01*
X124565326Y-97027801D01*
X124646185Y-97148815D01*
X129057434Y-101560065D01*
X129057207Y-101821329D01*
X129226992Y-102232242D01*
X129541104Y-102546903D01*
X129554107Y-102552303D01*
X129542758Y-102556992D01*
X129228097Y-102871104D01*
X129057594Y-103281720D01*
X129057207Y-103726329D01*
X129226992Y-104137242D01*
X129323000Y-104233418D01*
X129323000Y-106474818D01*
X129099683Y-106516838D01*
X128883559Y-106655910D01*
X128738569Y-106868110D01*
X128687560Y-107120000D01*
X128687560Y-108120000D01*
X128731838Y-108355317D01*
X128870910Y-108571441D01*
X129083110Y-108716431D01*
X129335000Y-108767440D01*
X130683000Y-108767440D01*
X130683000Y-109685000D01*
X130370750Y-109685000D01*
X130212000Y-109843750D01*
X130212000Y-110693000D01*
X130232000Y-110693000D01*
X130232000Y-110947000D01*
X130212000Y-110947000D01*
X130212000Y-111796250D01*
X130370750Y-111955000D01*
X130683000Y-111955000D01*
X130683000Y-114564894D01*
X124724894Y-120523000D01*
X122537054Y-120523000D01*
X122566441Y-120504090D01*
X122711431Y-120291890D01*
X122762440Y-120040000D01*
X122762440Y-118540000D01*
X122718162Y-118304683D01*
X122579090Y-118088559D01*
X122366890Y-117943569D01*
X122115000Y-117892560D01*
X121115000Y-117892560D01*
X120879683Y-117936838D01*
X120823491Y-117972997D01*
X120648896Y-117798097D01*
X120238280Y-117627594D01*
X119793671Y-117627207D01*
X119382758Y-117796992D01*
X119206159Y-117973283D01*
X119041310Y-117905000D01*
X118700750Y-117905000D01*
X118542000Y-118063750D01*
X118542000Y-119163000D01*
X118562000Y-119163000D01*
X118562000Y-119417000D01*
X118542000Y-119417000D01*
X118542000Y-119437000D01*
X118288000Y-119437000D01*
X118288000Y-119417000D01*
X117438750Y-119417000D01*
X117280000Y-119575750D01*
X117280000Y-120166309D01*
X117376673Y-120399698D01*
X117499974Y-120523000D01*
X115305106Y-120523000D01*
X112757856Y-117975750D01*
X115070000Y-117975750D01*
X115070000Y-118366309D01*
X115166673Y-118599698D01*
X115345301Y-118778327D01*
X115578690Y-118875000D01*
X115919250Y-118875000D01*
X116078000Y-118716250D01*
X116078000Y-117817000D01*
X116332000Y-117817000D01*
X116332000Y-118716250D01*
X116490750Y-118875000D01*
X116831310Y-118875000D01*
X117064699Y-118778327D01*
X117243327Y-118599698D01*
X117280000Y-118511162D01*
X117280000Y-119004250D01*
X117438750Y-119163000D01*
X118288000Y-119163000D01*
X118288000Y-118063750D01*
X118129250Y-117905000D01*
X117788690Y-117905000D01*
X117555301Y-118001673D01*
X117376673Y-118180302D01*
X117340000Y-118268838D01*
X117340000Y-117975750D01*
X117181250Y-117817000D01*
X116332000Y-117817000D01*
X116078000Y-117817000D01*
X115228750Y-117817000D01*
X115070000Y-117975750D01*
X112757856Y-117975750D01*
X109347000Y-114564894D01*
X109347000Y-114029179D01*
X109631720Y-114147406D01*
X110076329Y-114147793D01*
X110487242Y-113978008D01*
X110801903Y-113663896D01*
X110972406Y-113253280D01*
X110972793Y-112808671D01*
X110803008Y-112397758D01*
X110707000Y-112301582D01*
X110707000Y-111965182D01*
X110930317Y-111923162D01*
X111146441Y-111784090D01*
X111291431Y-111571890D01*
X111342440Y-111320000D01*
X111342440Y-110320000D01*
X111298162Y-110084683D01*
X111159090Y-109868559D01*
X110946890Y-109723569D01*
X110695000Y-109672560D01*
X109347000Y-109672560D01*
X109347000Y-108755000D01*
X109659250Y-108755000D01*
X109818000Y-108596250D01*
X109818000Y-107747000D01*
X110072000Y-107747000D01*
X110072000Y-108596250D01*
X110230750Y-108755000D01*
X110821309Y-108755000D01*
X111054698Y-108658327D01*
X111233327Y-108479699D01*
X111330000Y-108246310D01*
X111330000Y-107905750D01*
X111171250Y-107747000D01*
X110072000Y-107747000D01*
X109818000Y-107747000D01*
X109798000Y-107747000D01*
X109798000Y-107493000D01*
X109818000Y-107493000D01*
X109818000Y-106643750D01*
X110072000Y-106643750D01*
X110072000Y-107493000D01*
X111171250Y-107493000D01*
X111330000Y-107334250D01*
X111330000Y-106993690D01*
X111233327Y-106760301D01*
X111054698Y-106581673D01*
X110966162Y-106545000D01*
X111259250Y-106545000D01*
X111418000Y-106386250D01*
X111418000Y-105537000D01*
X110518750Y-105537000D01*
X110360000Y-105695750D01*
X110360000Y-106036310D01*
X110456673Y-106269699D01*
X110635302Y-106448327D01*
X110723838Y-106485000D01*
X110230750Y-106485000D01*
X110072000Y-106643750D01*
X109818000Y-106643750D01*
X109659250Y-106485000D01*
X109347000Y-106485000D01*
X109347000Y-104504179D01*
X109631720Y-104622406D01*
X110076329Y-104622793D01*
X110487242Y-104453008D01*
X110801903Y-104138896D01*
X110843680Y-104038286D01*
X111080394Y-104275000D01*
X110868691Y-104275000D01*
X110635302Y-104371673D01*
X110456673Y-104550301D01*
X110360000Y-104783690D01*
X110360000Y-105124250D01*
X110518750Y-105283000D01*
X111418000Y-105283000D01*
X111418000Y-105263000D01*
X111672000Y-105263000D01*
X111672000Y-105283000D01*
X111692000Y-105283000D01*
X111692000Y-105537000D01*
X111672000Y-105537000D01*
X111672000Y-106386250D01*
X111830750Y-106545000D01*
X111950500Y-106545000D01*
X111950500Y-108905432D01*
X111912594Y-108996720D01*
X111912207Y-109441329D01*
X111950500Y-109534006D01*
X111950500Y-114300000D01*
X111960506Y-114349410D01*
X111987697Y-114389803D01*
X114845197Y-117247303D01*
X114887211Y-117275166D01*
X114935000Y-117284500D01*
X115070000Y-117284500D01*
X115070000Y-117404250D01*
X115228750Y-117563000D01*
X116078000Y-117563000D01*
X116078000Y-117543000D01*
X116332000Y-117543000D01*
X116332000Y-117563000D01*
X117181250Y-117563000D01*
X117340000Y-117404250D01*
X117340000Y-117284500D01*
X118430432Y-117284500D01*
X118521720Y-117322406D01*
X118966329Y-117322793D01*
X119059006Y-117284500D01*
X125095000Y-117284500D01*
X125144410Y-117274494D01*
X125184803Y-117247303D01*
X128042303Y-114389803D01*
X128070166Y-114347789D01*
X128079500Y-114300000D01*
X128079500Y-114165000D01*
X128199250Y-114165000D01*
X128358000Y-114006250D01*
X128358000Y-113157000D01*
X128612000Y-113157000D01*
X128612000Y-114006250D01*
X128770750Y-114165000D01*
X129161309Y-114165000D01*
X129394698Y-114068327D01*
X129573327Y-113889699D01*
X129670000Y-113656310D01*
X129670000Y-113315750D01*
X129511250Y-113157000D01*
X128612000Y-113157000D01*
X128358000Y-113157000D01*
X128338000Y-113157000D01*
X128338000Y-112903000D01*
X128358000Y-112903000D01*
X128358000Y-112053750D01*
X128612000Y-112053750D01*
X128612000Y-112903000D01*
X129511250Y-112903000D01*
X129670000Y-112744250D01*
X129670000Y-112403690D01*
X129573327Y-112170301D01*
X129394698Y-111991673D01*
X129306162Y-111955000D01*
X129799250Y-111955000D01*
X129958000Y-111796250D01*
X129958000Y-110947000D01*
X128858750Y-110947000D01*
X128700000Y-111105750D01*
X128700000Y-111446310D01*
X128796673Y-111679699D01*
X128975302Y-111858327D01*
X129063838Y-111895000D01*
X128770750Y-111895000D01*
X128612000Y-112053750D01*
X128358000Y-112053750D01*
X128199250Y-111895000D01*
X128079500Y-111895000D01*
X128079500Y-110804568D01*
X128117406Y-110713280D01*
X128117793Y-110268671D01*
X128086812Y-110193690D01*
X128700000Y-110193690D01*
X128700000Y-110534250D01*
X128858750Y-110693000D01*
X129958000Y-110693000D01*
X129958000Y-109843750D01*
X129799250Y-109685000D01*
X129208691Y-109685000D01*
X128975302Y-109781673D01*
X128796673Y-109960301D01*
X128700000Y-110193690D01*
X128086812Y-110193690D01*
X128079500Y-110175994D01*
X128079500Y-103505000D01*
X128069494Y-103455590D01*
X128042303Y-103415197D01*
X125819803Y-101192697D01*
X125777789Y-101164834D01*
X125730000Y-101155500D01*
X124960000Y-101155500D01*
X124960000Y-101035750D01*
X124801250Y-100877000D01*
X123952000Y-100877000D01*
X123952000Y-100897000D01*
X123698000Y-100897000D01*
X123698000Y-100877000D01*
X122848750Y-100877000D01*
X122690000Y-101035750D01*
X122690000Y-101155500D01*
X120769964Y-101155500D01*
X120961903Y-100963896D01*
X121132406Y-100553280D01*
X121132422Y-100535000D01*
X121329250Y-100535000D01*
X121488000Y-100376250D01*
X121488000Y-99277000D01*
X121742000Y-99277000D01*
X121742000Y-100376250D01*
X121900750Y-100535000D01*
X122241310Y-100535000D01*
X122474699Y-100438327D01*
X122653327Y-100259698D01*
X122690000Y-100171162D01*
X122690000Y-100464250D01*
X122848750Y-100623000D01*
X123698000Y-100623000D01*
X123698000Y-99723750D01*
X123952000Y-99723750D01*
X123952000Y-100623000D01*
X124801250Y-100623000D01*
X124960000Y-100464250D01*
X124960000Y-100073691D01*
X124863327Y-99840302D01*
X124684699Y-99661673D01*
X124451310Y-99565000D01*
X124110750Y-99565000D01*
X123952000Y-99723750D01*
X123698000Y-99723750D01*
X123539250Y-99565000D01*
X123198690Y-99565000D01*
X122965301Y-99661673D01*
X122786673Y-99840302D01*
X122750000Y-99928838D01*
X122750000Y-99435750D01*
X122591250Y-99277000D01*
X121742000Y-99277000D01*
X121488000Y-99277000D01*
X120638750Y-99277000D01*
X120566759Y-99348991D01*
X120238280Y-99212594D01*
X119974995Y-99212365D01*
X119588815Y-98826185D01*
X119562440Y-98808562D01*
X119562440Y-98400000D01*
X119538674Y-98273691D01*
X120480000Y-98273691D01*
X120480000Y-98864250D01*
X120638750Y-99023000D01*
X121488000Y-99023000D01*
X121488000Y-97923750D01*
X121742000Y-97923750D01*
X121742000Y-99023000D01*
X122591250Y-99023000D01*
X122750000Y-98864250D01*
X122750000Y-98273691D01*
X122653327Y-98040302D01*
X122474699Y-97861673D01*
X122241310Y-97765000D01*
X121900750Y-97765000D01*
X121742000Y-97923750D01*
X121488000Y-97923750D01*
X121329250Y-97765000D01*
X120988690Y-97765000D01*
X120755301Y-97861673D01*
X120576673Y-98040302D01*
X120480000Y-98273691D01*
X119538674Y-98273691D01*
X119518162Y-98164683D01*
X119379090Y-97948559D01*
X119166890Y-97803569D01*
X118915000Y-97752560D01*
X117915000Y-97752560D01*
X117679683Y-97796838D01*
X117463559Y-97935910D01*
X117318569Y-98148110D01*
X117267560Y-98400000D01*
X117267560Y-99900000D01*
X117311838Y-100135317D01*
X117450910Y-100351441D01*
X117663110Y-100496431D01*
X117915000Y-100547440D01*
X118897210Y-100547440D01*
X118897207Y-100551329D01*
X119066992Y-100962242D01*
X119259913Y-101155500D01*
X113717606Y-101155500D01*
X112839500Y-100277394D01*
X112839500Y-98925000D01*
X112959250Y-98925000D01*
X113118000Y-98766250D01*
X113118000Y-97917000D01*
X113372000Y-97917000D01*
X113372000Y-98766250D01*
X113530750Y-98925000D01*
X113921309Y-98925000D01*
X114154698Y-98828327D01*
X114333327Y-98649699D01*
X114430000Y-98416310D01*
X114430000Y-98075750D01*
X114271250Y-97917000D01*
X113372000Y-97917000D01*
X113118000Y-97917000D01*
X113098000Y-97917000D01*
X113098000Y-97663000D01*
X113118000Y-97663000D01*
X113118000Y-96813750D01*
X113372000Y-96813750D01*
X113372000Y-97663000D01*
X114271250Y-97663000D01*
X114430000Y-97504250D01*
X114430000Y-97163690D01*
X114333327Y-96930301D01*
X114154698Y-96751673D01*
X114066162Y-96715000D01*
X114559250Y-96715000D01*
X114718000Y-96556250D01*
X114718000Y-95707000D01*
X114972000Y-95707000D01*
X114972000Y-96556250D01*
X115130750Y-96715000D01*
X115721309Y-96715000D01*
X115954698Y-96618327D01*
X116133327Y-96439699D01*
X116230000Y-96206310D01*
X116230000Y-95865750D01*
X116071250Y-95707000D01*
X114972000Y-95707000D01*
X114718000Y-95707000D01*
X113618750Y-95707000D01*
X113460000Y-95865750D01*
X113460000Y-96206310D01*
X113556673Y-96439699D01*
X113735302Y-96618327D01*
X113823838Y-96655000D01*
X113530750Y-96655000D01*
X113372000Y-96813750D01*
X113118000Y-96813750D01*
X112959250Y-96655000D01*
X112839500Y-96655000D01*
X112839500Y-94201329D01*
X113182207Y-94201329D01*
X113351992Y-94612242D01*
X113528283Y-94788841D01*
X113460000Y-94953690D01*
X113460000Y-95294250D01*
X113618750Y-95453000D01*
X114718000Y-95453000D01*
X114718000Y-95433000D01*
X114972000Y-95433000D01*
X114972000Y-95453000D01*
X116071250Y-95453000D01*
X116230000Y-95294250D01*
X116230000Y-94953690D01*
X116133327Y-94720301D01*
X116122406Y-94709380D01*
X116331362Y-94709380D01*
X116890884Y-96063526D01*
X117926024Y-97100475D01*
X119279192Y-97662359D01*
X120744380Y-97663638D01*
X122098526Y-97104116D01*
X123135475Y-96068976D01*
X123697359Y-94715808D01*
X123698638Y-93250620D01*
X123456975Y-92665750D01*
X123800000Y-92665750D01*
X123800000Y-93006310D01*
X123896673Y-93239699D01*
X124075302Y-93418327D01*
X124308691Y-93515000D01*
X124899250Y-93515000D01*
X125058000Y-93356250D01*
X125058000Y-92507000D01*
X125312000Y-92507000D01*
X125312000Y-93356250D01*
X125470750Y-93515000D01*
X126061309Y-93515000D01*
X126294698Y-93418327D01*
X126473327Y-93239699D01*
X126570000Y-93006310D01*
X126570000Y-92665750D01*
X126411250Y-92507000D01*
X125312000Y-92507000D01*
X125058000Y-92507000D01*
X123958750Y-92507000D01*
X123800000Y-92665750D01*
X123456975Y-92665750D01*
X123139116Y-91896474D01*
X122996582Y-91753690D01*
X123800000Y-91753690D01*
X123800000Y-92094250D01*
X123958750Y-92253000D01*
X125058000Y-92253000D01*
X125058000Y-91403750D01*
X125312000Y-91403750D01*
X125312000Y-92253000D01*
X126411250Y-92253000D01*
X126570000Y-92094250D01*
X126570000Y-91753690D01*
X126473327Y-91520301D01*
X126294698Y-91341673D01*
X126206162Y-91305000D01*
X126499250Y-91305000D01*
X126658000Y-91146250D01*
X126658000Y-90297000D01*
X125758750Y-90297000D01*
X125600000Y-90455750D01*
X125600000Y-90796310D01*
X125696673Y-91029699D01*
X125875302Y-91208327D01*
X125963838Y-91245000D01*
X125470750Y-91245000D01*
X125312000Y-91403750D01*
X125058000Y-91403750D01*
X124899250Y-91245000D01*
X124308691Y-91245000D01*
X124075302Y-91341673D01*
X123896673Y-91520301D01*
X123800000Y-91753690D01*
X122996582Y-91753690D01*
X122103976Y-90859525D01*
X120750808Y-90297641D01*
X119285620Y-90296362D01*
X117931474Y-90855884D01*
X116894525Y-91891024D01*
X116332641Y-93244192D01*
X116331362Y-94709380D01*
X116122406Y-94709380D01*
X115954698Y-94541673D01*
X115721309Y-94445000D01*
X115317035Y-94445000D01*
X115417406Y-94203280D01*
X115417650Y-93923179D01*
X115548996Y-93726605D01*
X115559101Y-93675803D01*
X115588612Y-93527440D01*
X115595000Y-93527440D01*
X115830317Y-93483162D01*
X116046441Y-93344090D01*
X116191431Y-93131890D01*
X116242440Y-92880000D01*
X116242440Y-91880000D01*
X116198162Y-91644683D01*
X116059090Y-91428559D01*
X115846890Y-91283569D01*
X115595000Y-91232560D01*
X114095000Y-91232560D01*
X113859683Y-91276838D01*
X113643559Y-91415910D01*
X113498569Y-91628110D01*
X113447560Y-91880000D01*
X113447560Y-92880000D01*
X113491838Y-93115317D01*
X113527997Y-93171509D01*
X113353097Y-93346104D01*
X113182594Y-93756720D01*
X113182207Y-94201329D01*
X112839500Y-94201329D01*
X112839500Y-89095750D01*
X117280000Y-89095750D01*
X117280000Y-89686309D01*
X117376673Y-89919698D01*
X117555301Y-90098327D01*
X117788690Y-90195000D01*
X118129250Y-90195000D01*
X118288000Y-90036250D01*
X118288000Y-88937000D01*
X118542000Y-88937000D01*
X118542000Y-90036250D01*
X118700750Y-90195000D01*
X119041310Y-90195000D01*
X119274699Y-90098327D01*
X119453327Y-89919698D01*
X119550000Y-89686309D01*
X119550000Y-89095750D01*
X119391250Y-88937000D01*
X118542000Y-88937000D01*
X118288000Y-88937000D01*
X117438750Y-88937000D01*
X117280000Y-89095750D01*
X112839500Y-89095750D01*
X112839500Y-88952606D01*
X114296356Y-87495750D01*
X115070000Y-87495750D01*
X115070000Y-87886309D01*
X115166673Y-88119698D01*
X115345301Y-88298327D01*
X115578690Y-88395000D01*
X115919250Y-88395000D01*
X116078000Y-88236250D01*
X116078000Y-87337000D01*
X116332000Y-87337000D01*
X116332000Y-88236250D01*
X116490750Y-88395000D01*
X116831310Y-88395000D01*
X117064699Y-88298327D01*
X117243327Y-88119698D01*
X117280000Y-88031162D01*
X117280000Y-88524250D01*
X117438750Y-88683000D01*
X118288000Y-88683000D01*
X118288000Y-87583750D01*
X118542000Y-87583750D01*
X118542000Y-88683000D01*
X119391250Y-88683000D01*
X119550000Y-88524250D01*
X119550000Y-88060000D01*
X120467560Y-88060000D01*
X120467560Y-89560000D01*
X120511838Y-89795317D01*
X120650910Y-90011441D01*
X120863110Y-90156431D01*
X121115000Y-90207440D01*
X122115000Y-90207440D01*
X122255693Y-90180967D01*
X122556104Y-90481903D01*
X122966720Y-90652406D01*
X123411329Y-90652793D01*
X123822242Y-90483008D01*
X124136903Y-90168896D01*
X124307406Y-89758280D01*
X124307592Y-89543690D01*
X125600000Y-89543690D01*
X125600000Y-89884250D01*
X125758750Y-90043000D01*
X126658000Y-90043000D01*
X126658000Y-89193750D01*
X126499250Y-89035000D01*
X126108691Y-89035000D01*
X125875302Y-89131673D01*
X125696673Y-89310301D01*
X125600000Y-89543690D01*
X124307592Y-89543690D01*
X124307793Y-89313671D01*
X124138008Y-88902758D01*
X123823896Y-88588097D01*
X123413280Y-88417594D01*
X123149995Y-88417365D01*
X123003815Y-88271185D01*
X122931248Y-88222697D01*
X122762440Y-88109903D01*
X122762440Y-88060000D01*
X122718162Y-87824683D01*
X122579090Y-87608559D01*
X122366890Y-87463569D01*
X122115000Y-87412560D01*
X121115000Y-87412560D01*
X120879683Y-87456838D01*
X120663559Y-87595910D01*
X120518569Y-87808110D01*
X120467560Y-88060000D01*
X119550000Y-88060000D01*
X119550000Y-87933691D01*
X119453327Y-87700302D01*
X119274699Y-87521673D01*
X119041310Y-87425000D01*
X118700750Y-87425000D01*
X118542000Y-87583750D01*
X118288000Y-87583750D01*
X118129250Y-87425000D01*
X117788690Y-87425000D01*
X117555301Y-87521673D01*
X117376673Y-87700302D01*
X117340000Y-87788838D01*
X117340000Y-87495750D01*
X117181250Y-87337000D01*
X116332000Y-87337000D01*
X116078000Y-87337000D01*
X115228750Y-87337000D01*
X115070000Y-87495750D01*
X114296356Y-87495750D01*
X114987606Y-86804500D01*
X115070000Y-86804500D01*
X115070000Y-86924250D01*
X115070000Y-86924250D01*
G37*
X115070000Y-86924250D02*
X115228750Y-87083000D01*
X116078000Y-87083000D01*
X116078000Y-87063000D01*
X116332000Y-87063000D01*
X116332000Y-87083000D01*
X117181250Y-87083000D01*
X117340000Y-86924250D01*
X117340000Y-86804500D01*
X125042394Y-86804500D01*
X127190500Y-88952606D01*
X127190500Y-89035000D01*
X127070750Y-89035000D01*
X126912000Y-89193750D01*
X126912000Y-90043000D01*
X126932000Y-90043000D01*
X126932000Y-90297000D01*
X126912000Y-90297000D01*
X126912000Y-91146250D01*
X127070750Y-91305000D01*
X127190500Y-91305000D01*
X127190500Y-97537870D01*
X126271003Y-96618373D01*
X126386441Y-96544090D01*
X126531431Y-96331890D01*
X126582440Y-96080000D01*
X126582440Y-95080000D01*
X126538162Y-94844683D01*
X126399090Y-94628559D01*
X126186890Y-94483569D01*
X125935000Y-94432560D01*
X124435000Y-94432560D01*
X124199683Y-94476838D01*
X123983559Y-94615910D01*
X123838569Y-94828110D01*
X123787560Y-95080000D01*
X123787560Y-96080000D01*
X123831838Y-96315317D01*
X123970910Y-96531441D01*
X124183110Y-96676431D01*
X124435000Y-96727440D01*
X124446360Y-96727440D01*
X124481004Y-96901605D01*
X124565326Y-97027801D01*
X124646185Y-97148815D01*
X129057434Y-101560065D01*
X129057207Y-101821329D01*
X129226992Y-102232242D01*
X129541104Y-102546903D01*
X129554107Y-102552303D01*
X129542758Y-102556992D01*
X129228097Y-102871104D01*
X129057594Y-103281720D01*
X129057207Y-103726329D01*
X129226992Y-104137242D01*
X129323000Y-104233418D01*
X129323000Y-106474818D01*
X129099683Y-106516838D01*
X128883559Y-106655910D01*
X128738569Y-106868110D01*
X128687560Y-107120000D01*
X128687560Y-108120000D01*
X128731838Y-108355317D01*
X128870910Y-108571441D01*
X129083110Y-108716431D01*
X129335000Y-108767440D01*
X130683000Y-108767440D01*
X130683000Y-109685000D01*
X130370750Y-109685000D01*
X130212000Y-109843750D01*
X130212000Y-110693000D01*
X130232000Y-110693000D01*
X130232000Y-110947000D01*
X130212000Y-110947000D01*
X130212000Y-111796250D01*
X130370750Y-111955000D01*
X130683000Y-111955000D01*
X130683000Y-114564894D01*
X124724894Y-120523000D01*
X122537054Y-120523000D01*
X122566441Y-120504090D01*
X122711431Y-120291890D01*
X122762440Y-120040000D01*
X122762440Y-118540000D01*
X122718162Y-118304683D01*
X122579090Y-118088559D01*
X122366890Y-117943569D01*
X122115000Y-117892560D01*
X121115000Y-117892560D01*
X120879683Y-117936838D01*
X120823491Y-117972997D01*
X120648896Y-117798097D01*
X120238280Y-117627594D01*
X119793671Y-117627207D01*
X119382758Y-117796992D01*
X119206159Y-117973283D01*
X119041310Y-117905000D01*
X118700750Y-117905000D01*
X118542000Y-118063750D01*
X118542000Y-119163000D01*
X118562000Y-119163000D01*
X118562000Y-119417000D01*
X118542000Y-119417000D01*
X118542000Y-119437000D01*
X118288000Y-119437000D01*
X118288000Y-119417000D01*
X117438750Y-119417000D01*
X117280000Y-119575750D01*
X117280000Y-120166309D01*
X117376673Y-120399698D01*
X117499974Y-120523000D01*
X115305106Y-120523000D01*
X112757856Y-117975750D01*
X115070000Y-117975750D01*
X115070000Y-118366309D01*
X115166673Y-118599698D01*
X115345301Y-118778327D01*
X115578690Y-118875000D01*
X115919250Y-118875000D01*
X116078000Y-118716250D01*
X116078000Y-117817000D01*
X116332000Y-117817000D01*
X116332000Y-118716250D01*
X116490750Y-118875000D01*
X116831310Y-118875000D01*
X117064699Y-118778327D01*
X117243327Y-118599698D01*
X117280000Y-118511162D01*
X117280000Y-119004250D01*
X117438750Y-119163000D01*
X118288000Y-119163000D01*
X118288000Y-118063750D01*
X118129250Y-117905000D01*
X117788690Y-117905000D01*
X117555301Y-118001673D01*
X117376673Y-118180302D01*
X117340000Y-118268838D01*
X117340000Y-117975750D01*
X117181250Y-117817000D01*
X116332000Y-117817000D01*
X116078000Y-117817000D01*
X115228750Y-117817000D01*
X115070000Y-117975750D01*
X112757856Y-117975750D01*
X109347000Y-114564894D01*
X109347000Y-114029179D01*
X109631720Y-114147406D01*
X110076329Y-114147793D01*
X110487242Y-113978008D01*
X110801903Y-113663896D01*
X110972406Y-113253280D01*
X110972793Y-112808671D01*
X110803008Y-112397758D01*
X110707000Y-112301582D01*
X110707000Y-111965182D01*
X110930317Y-111923162D01*
X111146441Y-111784090D01*
X111291431Y-111571890D01*
X111342440Y-111320000D01*
X111342440Y-110320000D01*
X111298162Y-110084683D01*
X111159090Y-109868559D01*
X110946890Y-109723569D01*
X110695000Y-109672560D01*
X109347000Y-109672560D01*
X109347000Y-108755000D01*
X109659250Y-108755000D01*
X109818000Y-108596250D01*
X109818000Y-107747000D01*
X110072000Y-107747000D01*
X110072000Y-108596250D01*
X110230750Y-108755000D01*
X110821309Y-108755000D01*
X111054698Y-108658327D01*
X111233327Y-108479699D01*
X111330000Y-108246310D01*
X111330000Y-107905750D01*
X111171250Y-107747000D01*
X110072000Y-107747000D01*
X109818000Y-107747000D01*
X109798000Y-107747000D01*
X109798000Y-107493000D01*
X109818000Y-107493000D01*
X109818000Y-106643750D01*
X110072000Y-106643750D01*
X110072000Y-107493000D01*
X111171250Y-107493000D01*
X111330000Y-107334250D01*
X111330000Y-106993690D01*
X111233327Y-106760301D01*
X111054698Y-106581673D01*
X110966162Y-106545000D01*
X111259250Y-106545000D01*
X111418000Y-106386250D01*
X111418000Y-105537000D01*
X110518750Y-105537000D01*
X110360000Y-105695750D01*
X110360000Y-106036310D01*
X110456673Y-106269699D01*
X110635302Y-106448327D01*
X110723838Y-106485000D01*
X110230750Y-106485000D01*
X110072000Y-106643750D01*
X109818000Y-106643750D01*
X109659250Y-106485000D01*
X109347000Y-106485000D01*
X109347000Y-104504179D01*
X109631720Y-104622406D01*
X110076329Y-104622793D01*
X110487242Y-104453008D01*
X110801903Y-104138896D01*
X110843680Y-104038286D01*
X111080394Y-104275000D01*
X110868691Y-104275000D01*
X110635302Y-104371673D01*
X110456673Y-104550301D01*
X110360000Y-104783690D01*
X110360000Y-105124250D01*
X110518750Y-105283000D01*
X111418000Y-105283000D01*
X111418000Y-105263000D01*
X111672000Y-105263000D01*
X111672000Y-105283000D01*
X111692000Y-105283000D01*
X111692000Y-105537000D01*
X111672000Y-105537000D01*
X111672000Y-106386250D01*
X111830750Y-106545000D01*
X111950500Y-106545000D01*
X111950500Y-108905432D01*
X111912594Y-108996720D01*
X111912207Y-109441329D01*
X111950500Y-109534006D01*
X111950500Y-114300000D01*
X111960506Y-114349410D01*
X111987697Y-114389803D01*
X114845197Y-117247303D01*
X114887211Y-117275166D01*
X114935000Y-117284500D01*
X115070000Y-117284500D01*
X115070000Y-117404250D01*
X115228750Y-117563000D01*
X116078000Y-117563000D01*
X116078000Y-117543000D01*
X116332000Y-117543000D01*
X116332000Y-117563000D01*
X117181250Y-117563000D01*
X117340000Y-117404250D01*
X117340000Y-117284500D01*
X118430432Y-117284500D01*
X118521720Y-117322406D01*
X118966329Y-117322793D01*
X119059006Y-117284500D01*
X125095000Y-117284500D01*
X125144410Y-117274494D01*
X125184803Y-117247303D01*
X128042303Y-114389803D01*
X128070166Y-114347789D01*
X128079500Y-114300000D01*
X128079500Y-114165000D01*
X128199250Y-114165000D01*
X128358000Y-114006250D01*
X128358000Y-113157000D01*
X128612000Y-113157000D01*
X128612000Y-114006250D01*
X128770750Y-114165000D01*
X129161309Y-114165000D01*
X129394698Y-114068327D01*
X129573327Y-113889699D01*
X129670000Y-113656310D01*
X129670000Y-113315750D01*
X129511250Y-113157000D01*
X128612000Y-113157000D01*
X128358000Y-113157000D01*
X128338000Y-113157000D01*
X128338000Y-112903000D01*
X128358000Y-112903000D01*
X128358000Y-112053750D01*
X128612000Y-112053750D01*
X128612000Y-112903000D01*
X129511250Y-112903000D01*
X129670000Y-112744250D01*
X129670000Y-112403690D01*
X129573327Y-112170301D01*
X129394698Y-111991673D01*
X129306162Y-111955000D01*
X129799250Y-111955000D01*
X129958000Y-111796250D01*
X129958000Y-110947000D01*
X128858750Y-110947000D01*
X128700000Y-111105750D01*
X128700000Y-111446310D01*
X128796673Y-111679699D01*
X128975302Y-111858327D01*
X129063838Y-111895000D01*
X128770750Y-111895000D01*
X128612000Y-112053750D01*
X128358000Y-112053750D01*
X128199250Y-111895000D01*
X128079500Y-111895000D01*
X128079500Y-110804568D01*
X128117406Y-110713280D01*
X128117793Y-110268671D01*
X128086812Y-110193690D01*
X128700000Y-110193690D01*
X128700000Y-110534250D01*
X128858750Y-110693000D01*
X129958000Y-110693000D01*
X129958000Y-109843750D01*
X129799250Y-109685000D01*
X129208691Y-109685000D01*
X128975302Y-109781673D01*
X128796673Y-109960301D01*
X128700000Y-110193690D01*
X128086812Y-110193690D01*
X128079500Y-110175994D01*
X128079500Y-103505000D01*
X128069494Y-103455590D01*
X128042303Y-103415197D01*
X125819803Y-101192697D01*
X125777789Y-101164834D01*
X125730000Y-101155500D01*
X124960000Y-101155500D01*
X124960000Y-101035750D01*
X124801250Y-100877000D01*
X123952000Y-100877000D01*
X123952000Y-100897000D01*
X123698000Y-100897000D01*
X123698000Y-100877000D01*
X122848750Y-100877000D01*
X122690000Y-101035750D01*
X122690000Y-101155500D01*
X120769964Y-101155500D01*
X120961903Y-100963896D01*
X121132406Y-100553280D01*
X121132422Y-100535000D01*
X121329250Y-100535000D01*
X121488000Y-100376250D01*
X121488000Y-99277000D01*
X121742000Y-99277000D01*
X121742000Y-100376250D01*
X121900750Y-100535000D01*
X122241310Y-100535000D01*
X122474699Y-100438327D01*
X122653327Y-100259698D01*
X122690000Y-100171162D01*
X122690000Y-100464250D01*
X122848750Y-100623000D01*
X123698000Y-100623000D01*
X123698000Y-99723750D01*
X123952000Y-99723750D01*
X123952000Y-100623000D01*
X124801250Y-100623000D01*
X124960000Y-100464250D01*
X124960000Y-100073691D01*
X124863327Y-99840302D01*
X124684699Y-99661673D01*
X124451310Y-99565000D01*
X124110750Y-99565000D01*
X123952000Y-99723750D01*
X123698000Y-99723750D01*
X123539250Y-99565000D01*
X123198690Y-99565000D01*
X122965301Y-99661673D01*
X122786673Y-99840302D01*
X122750000Y-99928838D01*
X122750000Y-99435750D01*
X122591250Y-99277000D01*
X121742000Y-99277000D01*
X121488000Y-99277000D01*
X120638750Y-99277000D01*
X120566759Y-99348991D01*
X120238280Y-99212594D01*
X119974995Y-99212365D01*
X119588815Y-98826185D01*
X119562440Y-98808562D01*
X119562440Y-98400000D01*
X119538674Y-98273691D01*
X120480000Y-98273691D01*
X120480000Y-98864250D01*
X120638750Y-99023000D01*
X121488000Y-99023000D01*
X121488000Y-97923750D01*
X121742000Y-97923750D01*
X121742000Y-99023000D01*
X122591250Y-99023000D01*
X122750000Y-98864250D01*
X122750000Y-98273691D01*
X122653327Y-98040302D01*
X122474699Y-97861673D01*
X122241310Y-97765000D01*
X121900750Y-97765000D01*
X121742000Y-97923750D01*
X121488000Y-97923750D01*
X121329250Y-97765000D01*
X120988690Y-97765000D01*
X120755301Y-97861673D01*
X120576673Y-98040302D01*
X120480000Y-98273691D01*
X119538674Y-98273691D01*
X119518162Y-98164683D01*
X119379090Y-97948559D01*
X119166890Y-97803569D01*
X118915000Y-97752560D01*
X117915000Y-97752560D01*
X117679683Y-97796838D01*
X117463559Y-97935910D01*
X117318569Y-98148110D01*
X117267560Y-98400000D01*
X117267560Y-99900000D01*
X117311838Y-100135317D01*
X117450910Y-100351441D01*
X117663110Y-100496431D01*
X117915000Y-100547440D01*
X118897210Y-100547440D01*
X118897207Y-100551329D01*
X119066992Y-100962242D01*
X119259913Y-101155500D01*
X113717606Y-101155500D01*
X112839500Y-100277394D01*
X112839500Y-98925000D01*
X112959250Y-98925000D01*
X113118000Y-98766250D01*
X113118000Y-97917000D01*
X113372000Y-97917000D01*
X113372000Y-98766250D01*
X113530750Y-98925000D01*
X113921309Y-98925000D01*
X114154698Y-98828327D01*
X114333327Y-98649699D01*
X114430000Y-98416310D01*
X114430000Y-98075750D01*
X114271250Y-97917000D01*
X113372000Y-97917000D01*
X113118000Y-97917000D01*
X113098000Y-97917000D01*
X113098000Y-97663000D01*
X113118000Y-97663000D01*
X113118000Y-96813750D01*
X113372000Y-96813750D01*
X113372000Y-97663000D01*
X114271250Y-97663000D01*
X114430000Y-97504250D01*
X114430000Y-97163690D01*
X114333327Y-96930301D01*
X114154698Y-96751673D01*
X114066162Y-96715000D01*
X114559250Y-96715000D01*
X114718000Y-96556250D01*
X114718000Y-95707000D01*
X114972000Y-95707000D01*
X114972000Y-96556250D01*
X115130750Y-96715000D01*
X115721309Y-96715000D01*
X115954698Y-96618327D01*
X116133327Y-96439699D01*
X116230000Y-96206310D01*
X116230000Y-95865750D01*
X116071250Y-95707000D01*
X114972000Y-95707000D01*
X114718000Y-95707000D01*
X113618750Y-95707000D01*
X113460000Y-95865750D01*
X113460000Y-96206310D01*
X113556673Y-96439699D01*
X113735302Y-96618327D01*
X113823838Y-96655000D01*
X113530750Y-96655000D01*
X113372000Y-96813750D01*
X113118000Y-96813750D01*
X112959250Y-96655000D01*
X112839500Y-96655000D01*
X112839500Y-94201329D01*
X113182207Y-94201329D01*
X113351992Y-94612242D01*
X113528283Y-94788841D01*
X113460000Y-94953690D01*
X113460000Y-95294250D01*
X113618750Y-95453000D01*
X114718000Y-95453000D01*
X114718000Y-95433000D01*
X114972000Y-95433000D01*
X114972000Y-95453000D01*
X116071250Y-95453000D01*
X116230000Y-95294250D01*
X116230000Y-94953690D01*
X116133327Y-94720301D01*
X116122406Y-94709380D01*
X116331362Y-94709380D01*
X116890884Y-96063526D01*
X117926024Y-97100475D01*
X119279192Y-97662359D01*
X120744380Y-97663638D01*
X122098526Y-97104116D01*
X123135475Y-96068976D01*
X123697359Y-94715808D01*
X123698638Y-93250620D01*
X123456975Y-92665750D01*
X123800000Y-92665750D01*
X123800000Y-93006310D01*
X123896673Y-93239699D01*
X124075302Y-93418327D01*
X124308691Y-93515000D01*
X124899250Y-93515000D01*
X125058000Y-93356250D01*
X125058000Y-92507000D01*
X125312000Y-92507000D01*
X125312000Y-93356250D01*
X125470750Y-93515000D01*
X126061309Y-93515000D01*
X126294698Y-93418327D01*
X126473327Y-93239699D01*
X126570000Y-93006310D01*
X126570000Y-92665750D01*
X126411250Y-92507000D01*
X125312000Y-92507000D01*
X125058000Y-92507000D01*
X123958750Y-92507000D01*
X123800000Y-92665750D01*
X123456975Y-92665750D01*
X123139116Y-91896474D01*
X122996582Y-91753690D01*
X123800000Y-91753690D01*
X123800000Y-92094250D01*
X123958750Y-92253000D01*
X125058000Y-92253000D01*
X125058000Y-91403750D01*
X125312000Y-91403750D01*
X125312000Y-92253000D01*
X126411250Y-92253000D01*
X126570000Y-92094250D01*
X126570000Y-91753690D01*
X126473327Y-91520301D01*
X126294698Y-91341673D01*
X126206162Y-91305000D01*
X126499250Y-91305000D01*
X126658000Y-91146250D01*
X126658000Y-90297000D01*
X125758750Y-90297000D01*
X125600000Y-90455750D01*
X125600000Y-90796310D01*
X125696673Y-91029699D01*
X125875302Y-91208327D01*
X125963838Y-91245000D01*
X125470750Y-91245000D01*
X125312000Y-91403750D01*
X125058000Y-91403750D01*
X124899250Y-91245000D01*
X124308691Y-91245000D01*
X124075302Y-91341673D01*
X123896673Y-91520301D01*
X123800000Y-91753690D01*
X122996582Y-91753690D01*
X122103976Y-90859525D01*
X120750808Y-90297641D01*
X119285620Y-90296362D01*
X117931474Y-90855884D01*
X116894525Y-91891024D01*
X116332641Y-93244192D01*
X116331362Y-94709380D01*
X116122406Y-94709380D01*
X115954698Y-94541673D01*
X115721309Y-94445000D01*
X115317035Y-94445000D01*
X115417406Y-94203280D01*
X115417650Y-93923179D01*
X115548996Y-93726605D01*
X115559101Y-93675803D01*
X115588612Y-93527440D01*
X115595000Y-93527440D01*
X115830317Y-93483162D01*
X116046441Y-93344090D01*
X116191431Y-93131890D01*
X116242440Y-92880000D01*
X116242440Y-91880000D01*
X116198162Y-91644683D01*
X116059090Y-91428559D01*
X115846890Y-91283569D01*
X115595000Y-91232560D01*
X114095000Y-91232560D01*
X113859683Y-91276838D01*
X113643559Y-91415910D01*
X113498569Y-91628110D01*
X113447560Y-91880000D01*
X113447560Y-92880000D01*
X113491838Y-93115317D01*
X113527997Y-93171509D01*
X113353097Y-93346104D01*
X113182594Y-93756720D01*
X113182207Y-94201329D01*
X112839500Y-94201329D01*
X112839500Y-89095750D01*
X117280000Y-89095750D01*
X117280000Y-89686309D01*
X117376673Y-89919698D01*
X117555301Y-90098327D01*
X117788690Y-90195000D01*
X118129250Y-90195000D01*
X118288000Y-90036250D01*
X118288000Y-88937000D01*
X118542000Y-88937000D01*
X118542000Y-90036250D01*
X118700750Y-90195000D01*
X119041310Y-90195000D01*
X119274699Y-90098327D01*
X119453327Y-89919698D01*
X119550000Y-89686309D01*
X119550000Y-89095750D01*
X119391250Y-88937000D01*
X118542000Y-88937000D01*
X118288000Y-88937000D01*
X117438750Y-88937000D01*
X117280000Y-89095750D01*
X112839500Y-89095750D01*
X112839500Y-88952606D01*
X114296356Y-87495750D01*
X115070000Y-87495750D01*
X115070000Y-87886309D01*
X115166673Y-88119698D01*
X115345301Y-88298327D01*
X115578690Y-88395000D01*
X115919250Y-88395000D01*
X116078000Y-88236250D01*
X116078000Y-87337000D01*
X116332000Y-87337000D01*
X116332000Y-88236250D01*
X116490750Y-88395000D01*
X116831310Y-88395000D01*
X117064699Y-88298327D01*
X117243327Y-88119698D01*
X117280000Y-88031162D01*
X117280000Y-88524250D01*
X117438750Y-88683000D01*
X118288000Y-88683000D01*
X118288000Y-87583750D01*
X118542000Y-87583750D01*
X118542000Y-88683000D01*
X119391250Y-88683000D01*
X119550000Y-88524250D01*
X119550000Y-88060000D01*
X120467560Y-88060000D01*
X120467560Y-89560000D01*
X120511838Y-89795317D01*
X120650910Y-90011441D01*
X120863110Y-90156431D01*
X121115000Y-90207440D01*
X122115000Y-90207440D01*
X122255693Y-90180967D01*
X122556104Y-90481903D01*
X122966720Y-90652406D01*
X123411329Y-90652793D01*
X123822242Y-90483008D01*
X124136903Y-90168896D01*
X124307406Y-89758280D01*
X124307592Y-89543690D01*
X125600000Y-89543690D01*
X125600000Y-89884250D01*
X125758750Y-90043000D01*
X126658000Y-90043000D01*
X126658000Y-89193750D01*
X126499250Y-89035000D01*
X126108691Y-89035000D01*
X125875302Y-89131673D01*
X125696673Y-89310301D01*
X125600000Y-89543690D01*
X124307592Y-89543690D01*
X124307793Y-89313671D01*
X124138008Y-88902758D01*
X123823896Y-88588097D01*
X123413280Y-88417594D01*
X123149995Y-88417365D01*
X123003815Y-88271185D01*
X122931248Y-88222697D01*
X122762440Y-88109903D01*
X122762440Y-88060000D01*
X122718162Y-87824683D01*
X122579090Y-87608559D01*
X122366890Y-87463569D01*
X122115000Y-87412560D01*
X121115000Y-87412560D01*
X120879683Y-87456838D01*
X120663559Y-87595910D01*
X120518569Y-87808110D01*
X120467560Y-88060000D01*
X119550000Y-88060000D01*
X119550000Y-87933691D01*
X119453327Y-87700302D01*
X119274699Y-87521673D01*
X119041310Y-87425000D01*
X118700750Y-87425000D01*
X118542000Y-87583750D01*
X118288000Y-87583750D01*
X118129250Y-87425000D01*
X117788690Y-87425000D01*
X117555301Y-87521673D01*
X117376673Y-87700302D01*
X117340000Y-87788838D01*
X117340000Y-87495750D01*
X117181250Y-87337000D01*
X116332000Y-87337000D01*
X116078000Y-87337000D01*
X115228750Y-87337000D01*
X115070000Y-87495750D01*
X114296356Y-87495750D01*
X114987606Y-86804500D01*
X115070000Y-86804500D01*
X115070000Y-86924250D01*
G36*
X115722594Y-82961720D02*
X115722207Y-83406329D01*
X115891992Y-83817242D01*
X116206104Y-84131903D01*
X116616720Y-84302406D01*
X116880005Y-84302635D01*
X116952617Y-84375247D01*
X116831310Y-84325000D01*
X116490750Y-84325000D01*
X116332000Y-84483750D01*
X116332000Y-85383000D01*
X117181250Y-85383000D01*
X117340000Y-85224250D01*
X117340000Y-84939082D01*
X117450910Y-85111441D01*
X117663110Y-85256431D01*
X117915000Y-85307440D01*
X118915000Y-85307440D01*
X119150317Y-85263162D01*
X119366441Y-85124090D01*
X119511431Y-84911890D01*
X119562440Y-84660000D01*
X119562440Y-84195750D01*
X120480000Y-84195750D01*
X120480000Y-84786309D01*
X120576673Y-85019698D01*
X120755301Y-85198327D01*
X120988690Y-85295000D01*
X121329250Y-85295000D01*
X121488000Y-85136250D01*
X121488000Y-84037000D01*
X121742000Y-84037000D01*
X121742000Y-85136250D01*
X121900750Y-85295000D01*
X122241310Y-85295000D01*
X122474699Y-85198327D01*
X122653327Y-85019698D01*
X122750000Y-84786309D01*
X122750000Y-84195750D01*
X122591250Y-84037000D01*
X121742000Y-84037000D01*
X121488000Y-84037000D01*
X120638750Y-84037000D01*
X120480000Y-84195750D01*
X119562440Y-84195750D01*
X119562440Y-83160000D01*
X119518162Y-82924683D01*
X119379090Y-82708559D01*
X119332902Y-82677000D01*
X120699974Y-82677000D01*
X120576673Y-82800302D01*
X120480000Y-83033691D01*
X120480000Y-83624250D01*
X120638750Y-83783000D01*
X121488000Y-83783000D01*
X121488000Y-83763000D01*
X121742000Y-83763000D01*
X121742000Y-83783000D01*
X122591250Y-83783000D01*
X122750000Y-83624250D01*
X122750000Y-83033691D01*
X122653327Y-82800302D01*
X122530026Y-82677000D01*
X130683000Y-82677000D01*
X130683000Y-91232560D01*
X129336194Y-91232560D01*
X129394698Y-91208327D01*
X129573327Y-91029699D01*
X129670000Y-90796310D01*
X129670000Y-90455750D01*
X129511250Y-90297000D01*
X128612000Y-90297000D01*
X128612000Y-91146250D01*
X128770750Y-91305000D01*
X129055918Y-91305000D01*
X128883559Y-91415910D01*
X128738569Y-91628110D01*
X128687560Y-91880000D01*
X128687560Y-92880000D01*
X128731838Y-93115317D01*
X128767997Y-93171509D01*
X128593097Y-93346104D01*
X128422594Y-93756720D01*
X128422207Y-94201329D01*
X128591992Y-94612242D01*
X128768283Y-94788841D01*
X128700000Y-94953690D01*
X128700000Y-95294250D01*
X128858750Y-95453000D01*
X129958000Y-95453000D01*
X129958000Y-95433000D01*
X130212000Y-95433000D01*
X130212000Y-95453000D01*
X130232000Y-95453000D01*
X130232000Y-95707000D01*
X130212000Y-95707000D01*
X130212000Y-96556250D01*
X130370750Y-96715000D01*
X130683000Y-96715000D01*
X130683000Y-100600821D01*
X130398280Y-100482594D01*
X130134996Y-100482365D01*
X128079500Y-98426870D01*
X128079500Y-95865750D01*
X128700000Y-95865750D01*
X128700000Y-96206310D01*
X128796673Y-96439699D01*
X128975302Y-96618327D01*
X129208691Y-96715000D01*
X129799250Y-96715000D01*
X129958000Y-96556250D01*
X129958000Y-95707000D01*
X128858750Y-95707000D01*
X128700000Y-95865750D01*
X128079500Y-95865750D01*
X128079500Y-91305000D01*
X128199250Y-91305000D01*
X128358000Y-91146250D01*
X128358000Y-90297000D01*
X128338000Y-90297000D01*
X128338000Y-90043000D01*
X128358000Y-90043000D01*
X128358000Y-89193750D01*
X128612000Y-89193750D01*
X128612000Y-90043000D01*
X129511250Y-90043000D01*
X129670000Y-89884250D01*
X129670000Y-89543690D01*
X129573327Y-89310301D01*
X129394698Y-89131673D01*
X129161309Y-89035000D01*
X128770750Y-89035000D01*
X128612000Y-89193750D01*
X128358000Y-89193750D01*
X128199250Y-89035000D01*
X128079500Y-89035000D01*
X128079500Y-88582500D01*
X128069494Y-88533090D01*
X128042303Y-88492697D01*
X125502303Y-85952697D01*
X125460289Y-85924834D01*
X125412500Y-85915500D01*
X117340000Y-85915500D01*
X117340000Y-85795750D01*
X117181250Y-85637000D01*
X116332000Y-85637000D01*
X116332000Y-85657000D01*
X116078000Y-85657000D01*
X116078000Y-85637000D01*
X115228750Y-85637000D01*
X115070000Y-85795750D01*
X115070000Y-85915500D01*
X114617500Y-85915500D01*
X114568090Y-85925506D01*
X114527697Y-85952697D01*
X111987697Y-88492697D01*
X111959834Y-88534711D01*
X111950500Y-88582500D01*
X111950500Y-96655000D01*
X111830750Y-96655000D01*
X111672000Y-96813750D01*
X111672000Y-97663000D01*
X111692000Y-97663000D01*
X111692000Y-97917000D01*
X111672000Y-97917000D01*
X111672000Y-98766250D01*
X111830750Y-98925000D01*
X111950500Y-98925000D01*
X111950500Y-100647500D01*
X111960506Y-100696910D01*
X111987697Y-100737303D01*
X113257697Y-102007303D01*
X113299711Y-102035166D01*
X113347500Y-102044500D01*
X119260036Y-102044500D01*
X119068097Y-102236104D01*
X118897594Y-102646720D01*
X118897578Y-102665000D01*
X118700750Y-102665000D01*
X118542000Y-102823750D01*
X118542000Y-103923000D01*
X119391250Y-103923000D01*
X119463241Y-103851009D01*
X119791720Y-103987406D01*
X120055005Y-103987635D01*
X120467560Y-104400190D01*
X120467560Y-104800000D01*
X120511838Y-105035317D01*
X120650910Y-105251441D01*
X120863110Y-105396431D01*
X121115000Y-105447440D01*
X122115000Y-105447440D01*
X122350317Y-105403162D01*
X122566441Y-105264090D01*
X122711431Y-105051890D01*
X122762440Y-104800000D01*
X122762440Y-103301194D01*
X122786673Y-103359698D01*
X122965301Y-103538327D01*
X123198690Y-103635000D01*
X123539250Y-103635000D01*
X123698000Y-103476250D01*
X123698000Y-102577000D01*
X123952000Y-102577000D01*
X123952000Y-103476250D01*
X124110750Y-103635000D01*
X124451310Y-103635000D01*
X124684699Y-103538327D01*
X124863327Y-103359698D01*
X124960000Y-103126309D01*
X124960000Y-102735750D01*
X124801250Y-102577000D01*
X123952000Y-102577000D01*
X123698000Y-102577000D01*
X122848750Y-102577000D01*
X122690000Y-102735750D01*
X122690000Y-103020918D01*
X122579090Y-102848559D01*
X122366890Y-102703569D01*
X122115000Y-102652560D01*
X121132790Y-102652560D01*
X121132793Y-102648671D01*
X120963008Y-102237758D01*
X120770087Y-102044500D01*
X122690000Y-102044500D01*
X122690000Y-102164250D01*
X122848750Y-102323000D01*
X123698000Y-102323000D01*
X123698000Y-102303000D01*
X123952000Y-102303000D01*
X123952000Y-102323000D01*
X124801250Y-102323000D01*
X124960000Y-102164250D01*
X124960000Y-102044500D01*
X125359894Y-102044500D01*
X127190500Y-103875106D01*
X127190500Y-109372565D01*
X126778671Y-109372207D01*
X126367758Y-109541992D01*
X126186037Y-109723396D01*
X125935000Y-109672560D01*
X124435000Y-109672560D01*
X124199683Y-109716838D01*
X123983559Y-109855910D01*
X123838569Y-110068110D01*
X123787560Y-110320000D01*
X123787560Y-111320000D01*
X123831838Y-111555317D01*
X123970910Y-111771441D01*
X124183110Y-111916431D01*
X124435000Y-111967440D01*
X125933806Y-111967440D01*
X125875302Y-111991673D01*
X125696673Y-112170301D01*
X125600000Y-112403690D01*
X125600000Y-112744250D01*
X125758750Y-112903000D01*
X126658000Y-112903000D01*
X126658000Y-112053750D01*
X126499250Y-111895000D01*
X126214082Y-111895000D01*
X126386441Y-111784090D01*
X126524523Y-111582000D01*
X126670000Y-111582000D01*
X126700787Y-111575876D01*
X126776720Y-111607406D01*
X127190500Y-111607766D01*
X127190500Y-111895000D01*
X127070750Y-111895000D01*
X126912000Y-112053750D01*
X126912000Y-112903000D01*
X126932000Y-112903000D01*
X126932000Y-113157000D01*
X126912000Y-113157000D01*
X126912000Y-114006250D01*
X127013072Y-114107322D01*
X124724894Y-116395500D01*
X119862435Y-116395500D01*
X119862793Y-115983671D01*
X119693008Y-115572758D01*
X119511604Y-115391037D01*
X119562440Y-115140000D01*
X119562440Y-114675750D01*
X120480000Y-114675750D01*
X120480000Y-115266309D01*
X120576673Y-115499698D01*
X120755301Y-115678327D01*
X120988690Y-115775000D01*
X121329250Y-115775000D01*
X121488000Y-115616250D01*
X121488000Y-114517000D01*
X121742000Y-114517000D01*
X121742000Y-115616250D01*
X121900750Y-115775000D01*
X122241310Y-115775000D01*
X122474699Y-115678327D01*
X122653327Y-115499698D01*
X122750000Y-115266309D01*
X122750000Y-114675750D01*
X122591250Y-114517000D01*
X121742000Y-114517000D01*
X121488000Y-114517000D01*
X120638750Y-114517000D01*
X120480000Y-114675750D01*
X119562440Y-114675750D01*
X119562440Y-113640000D01*
X119538674Y-113513691D01*
X120480000Y-113513691D01*
X120480000Y-114104250D01*
X120638750Y-114263000D01*
X121488000Y-114263000D01*
X121488000Y-113163750D01*
X121742000Y-113163750D01*
X121742000Y-114263000D01*
X122591250Y-114263000D01*
X122750000Y-114104250D01*
X122750000Y-113513691D01*
X122668011Y-113315750D01*
X125600000Y-113315750D01*
X125600000Y-113656310D01*
X125696673Y-113889699D01*
X125875302Y-114068327D01*
X126108691Y-114165000D01*
X126499250Y-114165000D01*
X126658000Y-114006250D01*
X126658000Y-113157000D01*
X125758750Y-113157000D01*
X125600000Y-113315750D01*
X122668011Y-113315750D01*
X122653327Y-113280302D01*
X122474699Y-113101673D01*
X122241310Y-113005000D01*
X121900750Y-113005000D01*
X121742000Y-113163750D01*
X121488000Y-113163750D01*
X121329250Y-113005000D01*
X120988690Y-113005000D01*
X120755301Y-113101673D01*
X120576673Y-113280302D01*
X120480000Y-113513691D01*
X119538674Y-113513691D01*
X119518162Y-113404683D01*
X119379090Y-113188559D01*
X119166890Y-113043569D01*
X118915000Y-112992560D01*
X117915000Y-112992560D01*
X117679683Y-113036838D01*
X117463559Y-113175910D01*
X117318569Y-113388110D01*
X117267560Y-113640000D01*
X117267560Y-115138806D01*
X117243327Y-115080302D01*
X117064699Y-114901673D01*
X116831310Y-114805000D01*
X116490750Y-114805000D01*
X116332000Y-114963750D01*
X116332000Y-115863000D01*
X117181250Y-115863000D01*
X117340000Y-115704250D01*
X117340000Y-115419082D01*
X117450910Y-115591441D01*
X117653000Y-115729523D01*
X117653000Y-115875000D01*
X117659124Y-115905787D01*
X117627594Y-115981720D01*
X117627234Y-116395500D01*
X117340000Y-116395500D01*
X117340000Y-116275750D01*
X117181250Y-116117000D01*
X116332000Y-116117000D01*
X116332000Y-116137000D01*
X116078000Y-116137000D01*
X116078000Y-116117000D01*
X115228750Y-116117000D01*
X115127678Y-116218072D01*
X114223297Y-115313691D01*
X115070000Y-115313691D01*
X115070000Y-115704250D01*
X115228750Y-115863000D01*
X116078000Y-115863000D01*
X116078000Y-114963750D01*
X115919250Y-114805000D01*
X115578690Y-114805000D01*
X115345301Y-114901673D01*
X115166673Y-115080302D01*
X115070000Y-115313691D01*
X114223297Y-115313691D01*
X112839500Y-113929894D01*
X112839500Y-111105750D01*
X113460000Y-111105750D01*
X113460000Y-111446310D01*
X113556673Y-111679699D01*
X113735302Y-111858327D01*
X113968691Y-111955000D01*
X114559250Y-111955000D01*
X114718000Y-111796250D01*
X114718000Y-110947000D01*
X114972000Y-110947000D01*
X114972000Y-111796250D01*
X115130750Y-111955000D01*
X115721309Y-111955000D01*
X115954698Y-111858327D01*
X116133327Y-111679699D01*
X116230000Y-111446310D01*
X116230000Y-111105750D01*
X116071250Y-110947000D01*
X114972000Y-110947000D01*
X114718000Y-110947000D01*
X113618750Y-110947000D01*
X113460000Y-111105750D01*
X112839500Y-111105750D01*
X112839500Y-110337435D01*
X113251329Y-110337793D01*
X113460000Y-110251572D01*
X113460000Y-110534250D01*
X113618750Y-110693000D01*
X114718000Y-110693000D01*
X114718000Y-109843750D01*
X114972000Y-109843750D01*
X114972000Y-110693000D01*
X116071250Y-110693000D01*
X116230000Y-110534250D01*
X116230000Y-110193690D01*
X116133327Y-109960301D01*
X115954698Y-109781673D01*
X115721309Y-109685000D01*
X115130750Y-109685000D01*
X114972000Y-109843750D01*
X114718000Y-109843750D01*
X114559250Y-109685000D01*
X114047035Y-109685000D01*
X114147406Y-109443280D01*
X114147793Y-108998671D01*
X114048347Y-108757993D01*
X114095000Y-108767440D01*
X115595000Y-108767440D01*
X115830317Y-108723162D01*
X116046441Y-108584090D01*
X116191431Y-108371890D01*
X116242440Y-108120000D01*
X116242440Y-107905750D01*
X123800000Y-107905750D01*
X123800000Y-108246310D01*
X123896673Y-108479699D01*
X124075302Y-108658327D01*
X124308691Y-108755000D01*
X124899250Y-108755000D01*
X125058000Y-108596250D01*
X125058000Y-107747000D01*
X125312000Y-107747000D01*
X125312000Y-108596250D01*
X125470750Y-108755000D01*
X126061309Y-108755000D01*
X126294698Y-108658327D01*
X126473327Y-108479699D01*
X126570000Y-108246310D01*
X126570000Y-107905750D01*
X126411250Y-107747000D01*
X125312000Y-107747000D01*
X125058000Y-107747000D01*
X123958750Y-107747000D01*
X123800000Y-107905750D01*
X116242440Y-107905750D01*
X116242440Y-107120000D01*
X116218674Y-106993690D01*
X123800000Y-106993690D01*
X123800000Y-107334250D01*
X123958750Y-107493000D01*
X125058000Y-107493000D01*
X125058000Y-106643750D01*
X125312000Y-106643750D01*
X125312000Y-107493000D01*
X126411250Y-107493000D01*
X126570000Y-107334250D01*
X126570000Y-106993690D01*
X126473327Y-106760301D01*
X126294698Y-106581673D01*
X126061309Y-106485000D01*
X125470750Y-106485000D01*
X125312000Y-106643750D01*
X125058000Y-106643750D01*
X124899250Y-106485000D01*
X124308691Y-106485000D01*
X124075302Y-106581673D01*
X123896673Y-106760301D01*
X123800000Y-106993690D01*
X116218674Y-106993690D01*
X116198162Y-106884683D01*
X116059090Y-106668559D01*
X115846890Y-106523569D01*
X115595000Y-106472560D01*
X114096194Y-106472560D01*
X114154698Y-106448327D01*
X114333327Y-106269699D01*
X114430000Y-106036310D01*
X114430000Y-105695750D01*
X114271250Y-105537000D01*
X113372000Y-105537000D01*
X113372000Y-106386250D01*
X113530750Y-106545000D01*
X113815918Y-106545000D01*
X113643559Y-106655910D01*
X113505477Y-106858000D01*
X113360000Y-106858000D01*
X113068395Y-106916004D01*
X112839500Y-107068947D01*
X112839500Y-106545000D01*
X112959250Y-106545000D01*
X113118000Y-106386250D01*
X113118000Y-105537000D01*
X113098000Y-105537000D01*
X113098000Y-105283000D01*
X113118000Y-105283000D01*
X113118000Y-104433750D01*
X113372000Y-104433750D01*
X113372000Y-105283000D01*
X114271250Y-105283000D01*
X114430000Y-105124250D01*
X114430000Y-104783690D01*
X114333327Y-104550301D01*
X114154698Y-104371673D01*
X114067973Y-104335750D01*
X117280000Y-104335750D01*
X117280000Y-104926309D01*
X117376673Y-105159698D01*
X117555301Y-105338327D01*
X117788690Y-105435000D01*
X118129250Y-105435000D01*
X118288000Y-105276250D01*
X118288000Y-104177000D01*
X118542000Y-104177000D01*
X118542000Y-105276250D01*
X118700750Y-105435000D01*
X119041310Y-105435000D01*
X119274699Y-105338327D01*
X119453327Y-105159698D01*
X119550000Y-104926309D01*
X119550000Y-104335750D01*
X119391250Y-104177000D01*
X118542000Y-104177000D01*
X118288000Y-104177000D01*
X117438750Y-104177000D01*
X117280000Y-104335750D01*
X114067973Y-104335750D01*
X113921309Y-104275000D01*
X113530750Y-104275000D01*
X113372000Y-104433750D01*
X113118000Y-104433750D01*
X112959250Y-104275000D01*
X112568691Y-104275000D01*
X112443827Y-104326721D01*
X111290797Y-103173691D01*
X117280000Y-103173691D01*
X117280000Y-103764250D01*
X117438750Y-103923000D01*
X118288000Y-103923000D01*
X118288000Y-102823750D01*
X118129250Y-102665000D01*
X117788690Y-102665000D01*
X117555301Y-102761673D01*
X117376673Y-102940302D01*
X117280000Y-103173691D01*
X111290797Y-103173691D01*
X109982000Y-101864894D01*
X109982000Y-98075750D01*
X110360000Y-98075750D01*
X110360000Y-98416310D01*
X110456673Y-98649699D01*
X110635302Y-98828327D01*
X110868691Y-98925000D01*
X111259250Y-98925000D01*
X111418000Y-98766250D01*
X111418000Y-97917000D01*
X110518750Y-97917000D01*
X110360000Y-98075750D01*
X109982000Y-98075750D01*
X109982000Y-97470630D01*
X110410247Y-97042383D01*
X110360000Y-97163690D01*
X110360000Y-97504250D01*
X110518750Y-97663000D01*
X111418000Y-97663000D01*
X111418000Y-96813750D01*
X111259250Y-96655000D01*
X110974082Y-96655000D01*
X111146441Y-96544090D01*
X111291431Y-96331890D01*
X111342440Y-96080000D01*
X111342440Y-95080000D01*
X111298162Y-94844683D01*
X111159090Y-94628559D01*
X110946890Y-94483569D01*
X110695000Y-94432560D01*
X109347000Y-94432560D01*
X109347000Y-93515000D01*
X109659250Y-93515000D01*
X109818000Y-93356250D01*
X109818000Y-92507000D01*
X110072000Y-92507000D01*
X110072000Y-93356250D01*
X110230750Y-93515000D01*
X110821309Y-93515000D01*
X111054698Y-93418327D01*
X111233327Y-93239699D01*
X111330000Y-93006310D01*
X111330000Y-92665750D01*
X111171250Y-92507000D01*
X110072000Y-92507000D01*
X109818000Y-92507000D01*
X109798000Y-92507000D01*
X109798000Y-92253000D01*
X109818000Y-92253000D01*
X109818000Y-91403750D01*
X110072000Y-91403750D01*
X110072000Y-92253000D01*
X111171250Y-92253000D01*
X111330000Y-92094250D01*
X111330000Y-91753690D01*
X111233327Y-91520301D01*
X111054698Y-91341673D01*
X110821309Y-91245000D01*
X110230750Y-91245000D01*
X110072000Y-91403750D01*
X109818000Y-91403750D01*
X109659250Y-91245000D01*
X109347000Y-91245000D01*
X109347000Y-84833691D01*
X115070000Y-84833691D01*
X115070000Y-85224250D01*
X115228750Y-85383000D01*
X116078000Y-85383000D01*
X116078000Y-84483750D01*
X115919250Y-84325000D01*
X115578690Y-84325000D01*
X115345301Y-84421673D01*
X115166673Y-84600302D01*
X115070000Y-84833691D01*
X109347000Y-84833691D01*
X109347000Y-82677000D01*
X115840821Y-82677000D01*
X115722594Y-82961720D01*
X115722594Y-82961720D01*
G37*
X115722594Y-82961720D02*
X115722207Y-83406329D01*
X115891992Y-83817242D01*
X116206104Y-84131903D01*
X116616720Y-84302406D01*
X116880005Y-84302635D01*
X116952617Y-84375247D01*
X116831310Y-84325000D01*
X116490750Y-84325000D01*
X116332000Y-84483750D01*
X116332000Y-85383000D01*
X117181250Y-85383000D01*
X117340000Y-85224250D01*
X117340000Y-84939082D01*
X117450910Y-85111441D01*
X117663110Y-85256431D01*
X117915000Y-85307440D01*
X118915000Y-85307440D01*
X119150317Y-85263162D01*
X119366441Y-85124090D01*
X119511431Y-84911890D01*
X119562440Y-84660000D01*
X119562440Y-84195750D01*
X120480000Y-84195750D01*
X120480000Y-84786309D01*
X120576673Y-85019698D01*
X120755301Y-85198327D01*
X120988690Y-85295000D01*
X121329250Y-85295000D01*
X121488000Y-85136250D01*
X121488000Y-84037000D01*
X121742000Y-84037000D01*
X121742000Y-85136250D01*
X121900750Y-85295000D01*
X122241310Y-85295000D01*
X122474699Y-85198327D01*
X122653327Y-85019698D01*
X122750000Y-84786309D01*
X122750000Y-84195750D01*
X122591250Y-84037000D01*
X121742000Y-84037000D01*
X121488000Y-84037000D01*
X120638750Y-84037000D01*
X120480000Y-84195750D01*
X119562440Y-84195750D01*
X119562440Y-83160000D01*
X119518162Y-82924683D01*
X119379090Y-82708559D01*
X119332902Y-82677000D01*
X120699974Y-82677000D01*
X120576673Y-82800302D01*
X120480000Y-83033691D01*
X120480000Y-83624250D01*
X120638750Y-83783000D01*
X121488000Y-83783000D01*
X121488000Y-83763000D01*
X121742000Y-83763000D01*
X121742000Y-83783000D01*
X122591250Y-83783000D01*
X122750000Y-83624250D01*
X122750000Y-83033691D01*
X122653327Y-82800302D01*
X122530026Y-82677000D01*
X130683000Y-82677000D01*
X130683000Y-91232560D01*
X129336194Y-91232560D01*
X129394698Y-91208327D01*
X129573327Y-91029699D01*
X129670000Y-90796310D01*
X129670000Y-90455750D01*
X129511250Y-90297000D01*
X128612000Y-90297000D01*
X128612000Y-91146250D01*
X128770750Y-91305000D01*
X129055918Y-91305000D01*
X128883559Y-91415910D01*
X128738569Y-91628110D01*
X128687560Y-91880000D01*
X128687560Y-92880000D01*
X128731838Y-93115317D01*
X128767997Y-93171509D01*
X128593097Y-93346104D01*
X128422594Y-93756720D01*
X128422207Y-94201329D01*
X128591992Y-94612242D01*
X128768283Y-94788841D01*
X128700000Y-94953690D01*
X128700000Y-95294250D01*
X128858750Y-95453000D01*
X129958000Y-95453000D01*
X129958000Y-95433000D01*
X130212000Y-95433000D01*
X130212000Y-95453000D01*
X130232000Y-95453000D01*
X130232000Y-95707000D01*
X130212000Y-95707000D01*
X130212000Y-96556250D01*
X130370750Y-96715000D01*
X130683000Y-96715000D01*
X130683000Y-100600821D01*
X130398280Y-100482594D01*
X130134996Y-100482365D01*
X128079500Y-98426870D01*
X128079500Y-95865750D01*
X128700000Y-95865750D01*
X128700000Y-96206310D01*
X128796673Y-96439699D01*
X128975302Y-96618327D01*
X129208691Y-96715000D01*
X129799250Y-96715000D01*
X129958000Y-96556250D01*
X129958000Y-95707000D01*
X128858750Y-95707000D01*
X128700000Y-95865750D01*
X128079500Y-95865750D01*
X128079500Y-91305000D01*
X128199250Y-91305000D01*
X128358000Y-91146250D01*
X128358000Y-90297000D01*
X128338000Y-90297000D01*
X128338000Y-90043000D01*
X128358000Y-90043000D01*
X128358000Y-89193750D01*
X128612000Y-89193750D01*
X128612000Y-90043000D01*
X129511250Y-90043000D01*
X129670000Y-89884250D01*
X129670000Y-89543690D01*
X129573327Y-89310301D01*
X129394698Y-89131673D01*
X129161309Y-89035000D01*
X128770750Y-89035000D01*
X128612000Y-89193750D01*
X128358000Y-89193750D01*
X128199250Y-89035000D01*
X128079500Y-89035000D01*
X128079500Y-88582500D01*
X128069494Y-88533090D01*
X128042303Y-88492697D01*
X125502303Y-85952697D01*
X125460289Y-85924834D01*
X125412500Y-85915500D01*
X117340000Y-85915500D01*
X117340000Y-85795750D01*
X117181250Y-85637000D01*
X116332000Y-85637000D01*
X116332000Y-85657000D01*
X116078000Y-85657000D01*
X116078000Y-85637000D01*
X115228750Y-85637000D01*
X115070000Y-85795750D01*
X115070000Y-85915500D01*
X114617500Y-85915500D01*
X114568090Y-85925506D01*
X114527697Y-85952697D01*
X111987697Y-88492697D01*
X111959834Y-88534711D01*
X111950500Y-88582500D01*
X111950500Y-96655000D01*
X111830750Y-96655000D01*
X111672000Y-96813750D01*
X111672000Y-97663000D01*
X111692000Y-97663000D01*
X111692000Y-97917000D01*
X111672000Y-97917000D01*
X111672000Y-98766250D01*
X111830750Y-98925000D01*
X111950500Y-98925000D01*
X111950500Y-100647500D01*
X111960506Y-100696910D01*
X111987697Y-100737303D01*
X113257697Y-102007303D01*
X113299711Y-102035166D01*
X113347500Y-102044500D01*
X119260036Y-102044500D01*
X119068097Y-102236104D01*
X118897594Y-102646720D01*
X118897578Y-102665000D01*
X118700750Y-102665000D01*
X118542000Y-102823750D01*
X118542000Y-103923000D01*
X119391250Y-103923000D01*
X119463241Y-103851009D01*
X119791720Y-103987406D01*
X120055005Y-103987635D01*
X120467560Y-104400190D01*
X120467560Y-104800000D01*
X120511838Y-105035317D01*
X120650910Y-105251441D01*
X120863110Y-105396431D01*
X121115000Y-105447440D01*
X122115000Y-105447440D01*
X122350317Y-105403162D01*
X122566441Y-105264090D01*
X122711431Y-105051890D01*
X122762440Y-104800000D01*
X122762440Y-103301194D01*
X122786673Y-103359698D01*
X122965301Y-103538327D01*
X123198690Y-103635000D01*
X123539250Y-103635000D01*
X123698000Y-103476250D01*
X123698000Y-102577000D01*
X123952000Y-102577000D01*
X123952000Y-103476250D01*
X124110750Y-103635000D01*
X124451310Y-103635000D01*
X124684699Y-103538327D01*
X124863327Y-103359698D01*
X124960000Y-103126309D01*
X124960000Y-102735750D01*
X124801250Y-102577000D01*
X123952000Y-102577000D01*
X123698000Y-102577000D01*
X122848750Y-102577000D01*
X122690000Y-102735750D01*
X122690000Y-103020918D01*
X122579090Y-102848559D01*
X122366890Y-102703569D01*
X122115000Y-102652560D01*
X121132790Y-102652560D01*
X121132793Y-102648671D01*
X120963008Y-102237758D01*
X120770087Y-102044500D01*
X122690000Y-102044500D01*
X122690000Y-102164250D01*
X122848750Y-102323000D01*
X123698000Y-102323000D01*
X123698000Y-102303000D01*
X123952000Y-102303000D01*
X123952000Y-102323000D01*
X124801250Y-102323000D01*
X124960000Y-102164250D01*
X124960000Y-102044500D01*
X125359894Y-102044500D01*
X127190500Y-103875106D01*
X127190500Y-109372565D01*
X126778671Y-109372207D01*
X126367758Y-109541992D01*
X126186037Y-109723396D01*
X125935000Y-109672560D01*
X124435000Y-109672560D01*
X124199683Y-109716838D01*
X123983559Y-109855910D01*
X123838569Y-110068110D01*
X123787560Y-110320000D01*
X123787560Y-111320000D01*
X123831838Y-111555317D01*
X123970910Y-111771441D01*
X124183110Y-111916431D01*
X124435000Y-111967440D01*
X125933806Y-111967440D01*
X125875302Y-111991673D01*
X125696673Y-112170301D01*
X125600000Y-112403690D01*
X125600000Y-112744250D01*
X125758750Y-112903000D01*
X126658000Y-112903000D01*
X126658000Y-112053750D01*
X126499250Y-111895000D01*
X126214082Y-111895000D01*
X126386441Y-111784090D01*
X126524523Y-111582000D01*
X126670000Y-111582000D01*
X126700787Y-111575876D01*
X126776720Y-111607406D01*
X127190500Y-111607766D01*
X127190500Y-111895000D01*
X127070750Y-111895000D01*
X126912000Y-112053750D01*
X126912000Y-112903000D01*
X126932000Y-112903000D01*
X126932000Y-113157000D01*
X126912000Y-113157000D01*
X126912000Y-114006250D01*
X127013072Y-114107322D01*
X124724894Y-116395500D01*
X119862435Y-116395500D01*
X119862793Y-115983671D01*
X119693008Y-115572758D01*
X119511604Y-115391037D01*
X119562440Y-115140000D01*
X119562440Y-114675750D01*
X120480000Y-114675750D01*
X120480000Y-115266309D01*
X120576673Y-115499698D01*
X120755301Y-115678327D01*
X120988690Y-115775000D01*
X121329250Y-115775000D01*
X121488000Y-115616250D01*
X121488000Y-114517000D01*
X121742000Y-114517000D01*
X121742000Y-115616250D01*
X121900750Y-115775000D01*
X122241310Y-115775000D01*
X122474699Y-115678327D01*
X122653327Y-115499698D01*
X122750000Y-115266309D01*
X122750000Y-114675750D01*
X122591250Y-114517000D01*
X121742000Y-114517000D01*
X121488000Y-114517000D01*
X120638750Y-114517000D01*
X120480000Y-114675750D01*
X119562440Y-114675750D01*
X119562440Y-113640000D01*
X119538674Y-113513691D01*
X120480000Y-113513691D01*
X120480000Y-114104250D01*
X120638750Y-114263000D01*
X121488000Y-114263000D01*
X121488000Y-113163750D01*
X121742000Y-113163750D01*
X121742000Y-114263000D01*
X122591250Y-114263000D01*
X122750000Y-114104250D01*
X122750000Y-113513691D01*
X122668011Y-113315750D01*
X125600000Y-113315750D01*
X125600000Y-113656310D01*
X125696673Y-113889699D01*
X125875302Y-114068327D01*
X126108691Y-114165000D01*
X126499250Y-114165000D01*
X126658000Y-114006250D01*
X126658000Y-113157000D01*
X125758750Y-113157000D01*
X125600000Y-113315750D01*
X122668011Y-113315750D01*
X122653327Y-113280302D01*
X122474699Y-113101673D01*
X122241310Y-113005000D01*
X121900750Y-113005000D01*
X121742000Y-113163750D01*
X121488000Y-113163750D01*
X121329250Y-113005000D01*
X120988690Y-113005000D01*
X120755301Y-113101673D01*
X120576673Y-113280302D01*
X120480000Y-113513691D01*
X119538674Y-113513691D01*
X119518162Y-113404683D01*
X119379090Y-113188559D01*
X119166890Y-113043569D01*
X118915000Y-112992560D01*
X117915000Y-112992560D01*
X117679683Y-113036838D01*
X117463559Y-113175910D01*
X117318569Y-113388110D01*
X117267560Y-113640000D01*
X117267560Y-115138806D01*
X117243327Y-115080302D01*
X117064699Y-114901673D01*
X116831310Y-114805000D01*
X116490750Y-114805000D01*
X116332000Y-114963750D01*
X116332000Y-115863000D01*
X117181250Y-115863000D01*
X117340000Y-115704250D01*
X117340000Y-115419082D01*
X117450910Y-115591441D01*
X117653000Y-115729523D01*
X117653000Y-115875000D01*
X117659124Y-115905787D01*
X117627594Y-115981720D01*
X117627234Y-116395500D01*
X117340000Y-116395500D01*
X117340000Y-116275750D01*
X117181250Y-116117000D01*
X116332000Y-116117000D01*
X116332000Y-116137000D01*
X116078000Y-116137000D01*
X116078000Y-116117000D01*
X115228750Y-116117000D01*
X115127678Y-116218072D01*
X114223297Y-115313691D01*
X115070000Y-115313691D01*
X115070000Y-115704250D01*
X115228750Y-115863000D01*
X116078000Y-115863000D01*
X116078000Y-114963750D01*
X115919250Y-114805000D01*
X115578690Y-114805000D01*
X115345301Y-114901673D01*
X115166673Y-115080302D01*
X115070000Y-115313691D01*
X114223297Y-115313691D01*
X112839500Y-113929894D01*
X112839500Y-111105750D01*
X113460000Y-111105750D01*
X113460000Y-111446310D01*
X113556673Y-111679699D01*
X113735302Y-111858327D01*
X113968691Y-111955000D01*
X114559250Y-111955000D01*
X114718000Y-111796250D01*
X114718000Y-110947000D01*
X114972000Y-110947000D01*
X114972000Y-111796250D01*
X115130750Y-111955000D01*
X115721309Y-111955000D01*
X115954698Y-111858327D01*
X116133327Y-111679699D01*
X116230000Y-111446310D01*
X116230000Y-111105750D01*
X116071250Y-110947000D01*
X114972000Y-110947000D01*
X114718000Y-110947000D01*
X113618750Y-110947000D01*
X113460000Y-111105750D01*
X112839500Y-111105750D01*
X112839500Y-110337435D01*
X113251329Y-110337793D01*
X113460000Y-110251572D01*
X113460000Y-110534250D01*
X113618750Y-110693000D01*
X114718000Y-110693000D01*
X114718000Y-109843750D01*
X114972000Y-109843750D01*
X114972000Y-110693000D01*
X116071250Y-110693000D01*
X116230000Y-110534250D01*
X116230000Y-110193690D01*
X116133327Y-109960301D01*
X115954698Y-109781673D01*
X115721309Y-109685000D01*
X115130750Y-109685000D01*
X114972000Y-109843750D01*
X114718000Y-109843750D01*
X114559250Y-109685000D01*
X114047035Y-109685000D01*
X114147406Y-109443280D01*
X114147793Y-108998671D01*
X114048347Y-108757993D01*
X114095000Y-108767440D01*
X115595000Y-108767440D01*
X115830317Y-108723162D01*
X116046441Y-108584090D01*
X116191431Y-108371890D01*
X116242440Y-108120000D01*
X116242440Y-107905750D01*
X123800000Y-107905750D01*
X123800000Y-108246310D01*
X123896673Y-108479699D01*
X124075302Y-108658327D01*
X124308691Y-108755000D01*
X124899250Y-108755000D01*
X125058000Y-108596250D01*
X125058000Y-107747000D01*
X125312000Y-107747000D01*
X125312000Y-108596250D01*
X125470750Y-108755000D01*
X126061309Y-108755000D01*
X126294698Y-108658327D01*
X126473327Y-108479699D01*
X126570000Y-108246310D01*
X126570000Y-107905750D01*
X126411250Y-107747000D01*
X125312000Y-107747000D01*
X125058000Y-107747000D01*
X123958750Y-107747000D01*
X123800000Y-107905750D01*
X116242440Y-107905750D01*
X116242440Y-107120000D01*
X116218674Y-106993690D01*
X123800000Y-106993690D01*
X123800000Y-107334250D01*
X123958750Y-107493000D01*
X125058000Y-107493000D01*
X125058000Y-106643750D01*
X125312000Y-106643750D01*
X125312000Y-107493000D01*
X126411250Y-107493000D01*
X126570000Y-107334250D01*
X126570000Y-106993690D01*
X126473327Y-106760301D01*
X126294698Y-106581673D01*
X126061309Y-106485000D01*
X125470750Y-106485000D01*
X125312000Y-106643750D01*
X125058000Y-106643750D01*
X124899250Y-106485000D01*
X124308691Y-106485000D01*
X124075302Y-106581673D01*
X123896673Y-106760301D01*
X123800000Y-106993690D01*
X116218674Y-106993690D01*
X116198162Y-106884683D01*
X116059090Y-106668559D01*
X115846890Y-106523569D01*
X115595000Y-106472560D01*
X114096194Y-106472560D01*
X114154698Y-106448327D01*
X114333327Y-106269699D01*
X114430000Y-106036310D01*
X114430000Y-105695750D01*
X114271250Y-105537000D01*
X113372000Y-105537000D01*
X113372000Y-106386250D01*
X113530750Y-106545000D01*
X113815918Y-106545000D01*
X113643559Y-106655910D01*
X113505477Y-106858000D01*
X113360000Y-106858000D01*
X113068395Y-106916004D01*
X112839500Y-107068947D01*
X112839500Y-106545000D01*
X112959250Y-106545000D01*
X113118000Y-106386250D01*
X113118000Y-105537000D01*
X113098000Y-105537000D01*
X113098000Y-105283000D01*
X113118000Y-105283000D01*
X113118000Y-104433750D01*
X113372000Y-104433750D01*
X113372000Y-105283000D01*
X114271250Y-105283000D01*
X114430000Y-105124250D01*
X114430000Y-104783690D01*
X114333327Y-104550301D01*
X114154698Y-104371673D01*
X114067973Y-104335750D01*
X117280000Y-104335750D01*
X117280000Y-104926309D01*
X117376673Y-105159698D01*
X117555301Y-105338327D01*
X117788690Y-105435000D01*
X118129250Y-105435000D01*
X118288000Y-105276250D01*
X118288000Y-104177000D01*
X118542000Y-104177000D01*
X118542000Y-105276250D01*
X118700750Y-105435000D01*
X119041310Y-105435000D01*
X119274699Y-105338327D01*
X119453327Y-105159698D01*
X119550000Y-104926309D01*
X119550000Y-104335750D01*
X119391250Y-104177000D01*
X118542000Y-104177000D01*
X118288000Y-104177000D01*
X117438750Y-104177000D01*
X117280000Y-104335750D01*
X114067973Y-104335750D01*
X113921309Y-104275000D01*
X113530750Y-104275000D01*
X113372000Y-104433750D01*
X113118000Y-104433750D01*
X112959250Y-104275000D01*
X112568691Y-104275000D01*
X112443827Y-104326721D01*
X111290797Y-103173691D01*
X117280000Y-103173691D01*
X117280000Y-103764250D01*
X117438750Y-103923000D01*
X118288000Y-103923000D01*
X118288000Y-102823750D01*
X118129250Y-102665000D01*
X117788690Y-102665000D01*
X117555301Y-102761673D01*
X117376673Y-102940302D01*
X117280000Y-103173691D01*
X111290797Y-103173691D01*
X109982000Y-101864894D01*
X109982000Y-98075750D01*
X110360000Y-98075750D01*
X110360000Y-98416310D01*
X110456673Y-98649699D01*
X110635302Y-98828327D01*
X110868691Y-98925000D01*
X111259250Y-98925000D01*
X111418000Y-98766250D01*
X111418000Y-97917000D01*
X110518750Y-97917000D01*
X110360000Y-98075750D01*
X109982000Y-98075750D01*
X109982000Y-97470630D01*
X110410247Y-97042383D01*
X110360000Y-97163690D01*
X110360000Y-97504250D01*
X110518750Y-97663000D01*
X111418000Y-97663000D01*
X111418000Y-96813750D01*
X111259250Y-96655000D01*
X110974082Y-96655000D01*
X111146441Y-96544090D01*
X111291431Y-96331890D01*
X111342440Y-96080000D01*
X111342440Y-95080000D01*
X111298162Y-94844683D01*
X111159090Y-94628559D01*
X110946890Y-94483569D01*
X110695000Y-94432560D01*
X109347000Y-94432560D01*
X109347000Y-93515000D01*
X109659250Y-93515000D01*
X109818000Y-93356250D01*
X109818000Y-92507000D01*
X110072000Y-92507000D01*
X110072000Y-93356250D01*
X110230750Y-93515000D01*
X110821309Y-93515000D01*
X111054698Y-93418327D01*
X111233327Y-93239699D01*
X111330000Y-93006310D01*
X111330000Y-92665750D01*
X111171250Y-92507000D01*
X110072000Y-92507000D01*
X109818000Y-92507000D01*
X109798000Y-92507000D01*
X109798000Y-92253000D01*
X109818000Y-92253000D01*
X109818000Y-91403750D01*
X110072000Y-91403750D01*
X110072000Y-92253000D01*
X111171250Y-92253000D01*
X111330000Y-92094250D01*
X111330000Y-91753690D01*
X111233327Y-91520301D01*
X111054698Y-91341673D01*
X110821309Y-91245000D01*
X110230750Y-91245000D01*
X110072000Y-91403750D01*
X109818000Y-91403750D01*
X109659250Y-91245000D01*
X109347000Y-91245000D01*
X109347000Y-84833691D01*
X115070000Y-84833691D01*
X115070000Y-85224250D01*
X115228750Y-85383000D01*
X116078000Y-85383000D01*
X116078000Y-84483750D01*
X115919250Y-84325000D01*
X115578690Y-84325000D01*
X115345301Y-84421673D01*
X115166673Y-84600302D01*
X115070000Y-84833691D01*
X109347000Y-84833691D01*
X109347000Y-82677000D01*
X115840821Y-82677000D01*
X115722594Y-82961720D01*
G36*
X151638000Y-110363000D02*
X147447000Y-110363000D01*
X147447000Y-109470000D01*
X147810000Y-109470000D01*
X147810000Y-110196250D01*
X147968750Y-110355000D01*
X148211309Y-110355000D01*
X148444698Y-110258327D01*
X148623327Y-110079699D01*
X148720000Y-109846310D01*
X148720000Y-109628750D01*
X148561250Y-109470000D01*
X147810000Y-109470000D01*
X147447000Y-109470000D01*
X147447000Y-107989918D01*
X147545821Y-107891269D01*
X147700824Y-107517982D01*
X147700910Y-107418750D01*
X147750000Y-107418750D01*
X147750000Y-107636310D01*
X147846673Y-107869699D01*
X148025302Y-108048327D01*
X148113838Y-108085000D01*
X147968750Y-108085000D01*
X147810000Y-108243750D01*
X147810000Y-108970000D01*
X148561250Y-108970000D01*
X148720000Y-108811250D01*
X148720000Y-108593690D01*
X148623327Y-108360301D01*
X148444698Y-108181673D01*
X148356162Y-108145000D01*
X148601250Y-108145000D01*
X148760000Y-107986250D01*
X148760000Y-107260000D01*
X149510000Y-107260000D01*
X149510000Y-107986250D01*
X149668750Y-108145000D01*
X150011309Y-108145000D01*
X150244698Y-108048327D01*
X150423327Y-107869699D01*
X150520000Y-107636310D01*
X150520000Y-107418750D01*
X150361250Y-107260000D01*
X149510000Y-107260000D01*
X148760000Y-107260000D01*
X147908750Y-107260000D01*
X147750000Y-107418750D01*
X147700910Y-107418750D01*
X147701176Y-107113792D01*
X147546825Y-106740234D01*
X147486841Y-106680146D01*
X147545821Y-106621269D01*
X147644472Y-106383690D01*
X147750000Y-106383690D01*
X147750000Y-106601250D01*
X147908750Y-106760000D01*
X148760000Y-106760000D01*
X148760000Y-106033750D01*
X149510000Y-106033750D01*
X149510000Y-106760000D01*
X150361250Y-106760000D01*
X150520000Y-106601250D01*
X150520000Y-106383690D01*
X150423327Y-106150301D01*
X150244698Y-105971673D01*
X150011309Y-105875000D01*
X149668750Y-105875000D01*
X149510000Y-106033750D01*
X148760000Y-106033750D01*
X148601250Y-105875000D01*
X148258691Y-105875000D01*
X148025302Y-105971673D01*
X147846673Y-106150301D01*
X147750000Y-106383690D01*
X147644472Y-106383690D01*
X147700824Y-106247982D01*
X147701176Y-105843792D01*
X147546825Y-105470234D01*
X147447000Y-105370235D01*
X147447000Y-104946946D01*
X147881451Y-104512495D01*
X147995165Y-104689210D01*
X148173412Y-104811001D01*
X148385000Y-104853849D01*
X149885000Y-104853849D01*
X150082666Y-104816656D01*
X150264210Y-104699835D01*
X150386001Y-104521588D01*
X150428849Y-104310000D01*
X150428849Y-103310000D01*
X150391656Y-103112334D01*
X150274835Y-102930790D01*
X150096588Y-102808999D01*
X149885000Y-102766151D01*
X148385000Y-102766151D01*
X148187334Y-102803344D01*
X148082000Y-102871125D01*
X148082000Y-99268195D01*
X148423667Y-99127021D01*
X149288982Y-98263214D01*
X149757865Y-97134019D01*
X149758932Y-95911345D01*
X149292021Y-94781333D01*
X148428214Y-93916018D01*
X147447000Y-93508582D01*
X147447000Y-93427065D01*
X147436994Y-93377655D01*
X147408553Y-93336030D01*
X147366159Y-93308750D01*
X147320000Y-93300065D01*
X146177000Y-93300065D01*
X146177000Y-90379065D01*
X147320000Y-90379065D01*
X147369410Y-90369059D01*
X147411035Y-90340618D01*
X147438315Y-90298224D01*
X147447000Y-90252065D01*
X147447000Y-89638750D01*
X147750000Y-89638750D01*
X147750000Y-89856310D01*
X147846673Y-90089699D01*
X148025302Y-90268327D01*
X148258691Y-90365000D01*
X148601250Y-90365000D01*
X148760000Y-90206250D01*
X148760000Y-89480000D01*
X149510000Y-89480000D01*
X149510000Y-90206250D01*
X149668750Y-90365000D01*
X150011309Y-90365000D01*
X150244698Y-90268327D01*
X150423327Y-90089699D01*
X150520000Y-89856310D01*
X150520000Y-89638750D01*
X150361250Y-89480000D01*
X149510000Y-89480000D01*
X148760000Y-89480000D01*
X147908750Y-89480000D01*
X147750000Y-89638750D01*
X147447000Y-89638750D01*
X147447000Y-88603690D01*
X147750000Y-88603690D01*
X147750000Y-88821250D01*
X147908750Y-88980000D01*
X148760000Y-88980000D01*
X148760000Y-88253750D01*
X149510000Y-88253750D01*
X149510000Y-88980000D01*
X150361250Y-88980000D01*
X150520000Y-88821250D01*
X150520000Y-88603690D01*
X150423327Y-88370301D01*
X150244698Y-88191673D01*
X150011309Y-88095000D01*
X149668750Y-88095000D01*
X149510000Y-88253750D01*
X148760000Y-88253750D01*
X148601250Y-88095000D01*
X148258691Y-88095000D01*
X148025302Y-88191673D01*
X147846673Y-88370301D01*
X147750000Y-88603690D01*
X147447000Y-88603690D01*
X147447000Y-88328069D01*
X147557428Y-88217834D01*
X147712431Y-87844547D01*
X147712783Y-87440357D01*
X147558432Y-87066799D01*
X147447000Y-86955172D01*
X147447000Y-86690400D01*
X147871332Y-86690400D01*
X147878344Y-86727666D01*
X147995165Y-86909210D01*
X148173412Y-87031001D01*
X148385000Y-87073849D01*
X149885000Y-87073849D01*
X150082666Y-87036656D01*
X150264210Y-86919835D01*
X150386001Y-86741588D01*
X150428849Y-86530000D01*
X150428849Y-85530000D01*
X150391656Y-85332334D01*
X150274835Y-85150790D01*
X150096588Y-85028999D01*
X149885000Y-84986151D01*
X148385000Y-84986151D01*
X148187334Y-85023344D01*
X148005790Y-85140165D01*
X147883999Y-85318412D01*
X147873633Y-85369600D01*
X147447000Y-85369600D01*
X147447000Y-84070000D01*
X147810000Y-84070000D01*
X147810000Y-84796250D01*
X147968750Y-84955000D01*
X148211309Y-84955000D01*
X148444698Y-84858327D01*
X148623327Y-84679699D01*
X148720000Y-84446310D01*
X148720000Y-84228750D01*
X148561250Y-84070000D01*
X147810000Y-84070000D01*
X147447000Y-84070000D01*
X147447000Y-82843750D01*
X147810000Y-82843750D01*
X147810000Y-83570000D01*
X148561250Y-83570000D01*
X148720000Y-83411250D01*
X148720000Y-83193690D01*
X148623327Y-82960301D01*
X148444698Y-82781673D01*
X148211309Y-82685000D01*
X147968750Y-82685000D01*
X147810000Y-82843750D01*
X147447000Y-82843750D01*
X147447000Y-82677000D01*
X151638000Y-82677000D01*
X151638000Y-110363000D01*
X151638000Y-110363000D01*
G37*
X151638000Y-110363000D02*
X147447000Y-110363000D01*
X147447000Y-109470000D01*
X147810000Y-109470000D01*
X147810000Y-110196250D01*
X147968750Y-110355000D01*
X148211309Y-110355000D01*
X148444698Y-110258327D01*
X148623327Y-110079699D01*
X148720000Y-109846310D01*
X148720000Y-109628750D01*
X148561250Y-109470000D01*
X147810000Y-109470000D01*
X147447000Y-109470000D01*
X147447000Y-107989918D01*
X147545821Y-107891269D01*
X147700824Y-107517982D01*
X147700910Y-107418750D01*
X147750000Y-107418750D01*
X147750000Y-107636310D01*
X147846673Y-107869699D01*
X148025302Y-108048327D01*
X148113838Y-108085000D01*
X147968750Y-108085000D01*
X147810000Y-108243750D01*
X147810000Y-108970000D01*
X148561250Y-108970000D01*
X148720000Y-108811250D01*
X148720000Y-108593690D01*
X148623327Y-108360301D01*
X148444698Y-108181673D01*
X148356162Y-108145000D01*
X148601250Y-108145000D01*
X148760000Y-107986250D01*
X148760000Y-107260000D01*
X149510000Y-107260000D01*
X149510000Y-107986250D01*
X149668750Y-108145000D01*
X150011309Y-108145000D01*
X150244698Y-108048327D01*
X150423327Y-107869699D01*
X150520000Y-107636310D01*
X150520000Y-107418750D01*
X150361250Y-107260000D01*
X149510000Y-107260000D01*
X148760000Y-107260000D01*
X147908750Y-107260000D01*
X147750000Y-107418750D01*
X147700910Y-107418750D01*
X147701176Y-107113792D01*
X147546825Y-106740234D01*
X147486841Y-106680146D01*
X147545821Y-106621269D01*
X147644472Y-106383690D01*
X147750000Y-106383690D01*
X147750000Y-106601250D01*
X147908750Y-106760000D01*
X148760000Y-106760000D01*
X148760000Y-106033750D01*
X149510000Y-106033750D01*
X149510000Y-106760000D01*
X150361250Y-106760000D01*
X150520000Y-106601250D01*
X150520000Y-106383690D01*
X150423327Y-106150301D01*
X150244698Y-105971673D01*
X150011309Y-105875000D01*
X149668750Y-105875000D01*
X149510000Y-106033750D01*
X148760000Y-106033750D01*
X148601250Y-105875000D01*
X148258691Y-105875000D01*
X148025302Y-105971673D01*
X147846673Y-106150301D01*
X147750000Y-106383690D01*
X147644472Y-106383690D01*
X147700824Y-106247982D01*
X147701176Y-105843792D01*
X147546825Y-105470234D01*
X147447000Y-105370235D01*
X147447000Y-104946946D01*
X147881451Y-104512495D01*
X147995165Y-104689210D01*
X148173412Y-104811001D01*
X148385000Y-104853849D01*
X149885000Y-104853849D01*
X150082666Y-104816656D01*
X150264210Y-104699835D01*
X150386001Y-104521588D01*
X150428849Y-104310000D01*
X150428849Y-103310000D01*
X150391656Y-103112334D01*
X150274835Y-102930790D01*
X150096588Y-102808999D01*
X149885000Y-102766151D01*
X148385000Y-102766151D01*
X148187334Y-102803344D01*
X148082000Y-102871125D01*
X148082000Y-99268195D01*
X148423667Y-99127021D01*
X149288982Y-98263214D01*
X149757865Y-97134019D01*
X149758932Y-95911345D01*
X149292021Y-94781333D01*
X148428214Y-93916018D01*
X147447000Y-93508582D01*
X147447000Y-93427065D01*
X147436994Y-93377655D01*
X147408553Y-93336030D01*
X147366159Y-93308750D01*
X147320000Y-93300065D01*
X146177000Y-93300065D01*
X146177000Y-90379065D01*
X147320000Y-90379065D01*
X147369410Y-90369059D01*
X147411035Y-90340618D01*
X147438315Y-90298224D01*
X147447000Y-90252065D01*
X147447000Y-89638750D01*
X147750000Y-89638750D01*
X147750000Y-89856310D01*
X147846673Y-90089699D01*
X148025302Y-90268327D01*
X148258691Y-90365000D01*
X148601250Y-90365000D01*
X148760000Y-90206250D01*
X148760000Y-89480000D01*
X149510000Y-89480000D01*
X149510000Y-90206250D01*
X149668750Y-90365000D01*
X150011309Y-90365000D01*
X150244698Y-90268327D01*
X150423327Y-90089699D01*
X150520000Y-89856310D01*
X150520000Y-89638750D01*
X150361250Y-89480000D01*
X149510000Y-89480000D01*
X148760000Y-89480000D01*
X147908750Y-89480000D01*
X147750000Y-89638750D01*
X147447000Y-89638750D01*
X147447000Y-88603690D01*
X147750000Y-88603690D01*
X147750000Y-88821250D01*
X147908750Y-88980000D01*
X148760000Y-88980000D01*
X148760000Y-88253750D01*
X149510000Y-88253750D01*
X149510000Y-88980000D01*
X150361250Y-88980000D01*
X150520000Y-88821250D01*
X150520000Y-88603690D01*
X150423327Y-88370301D01*
X150244698Y-88191673D01*
X150011309Y-88095000D01*
X149668750Y-88095000D01*
X149510000Y-88253750D01*
X148760000Y-88253750D01*
X148601250Y-88095000D01*
X148258691Y-88095000D01*
X148025302Y-88191673D01*
X147846673Y-88370301D01*
X147750000Y-88603690D01*
X147447000Y-88603690D01*
X147447000Y-88328069D01*
X147557428Y-88217834D01*
X147712431Y-87844547D01*
X147712783Y-87440357D01*
X147558432Y-87066799D01*
X147447000Y-86955172D01*
X147447000Y-86690400D01*
X147871332Y-86690400D01*
X147878344Y-86727666D01*
X147995165Y-86909210D01*
X148173412Y-87031001D01*
X148385000Y-87073849D01*
X149885000Y-87073849D01*
X150082666Y-87036656D01*
X150264210Y-86919835D01*
X150386001Y-86741588D01*
X150428849Y-86530000D01*
X150428849Y-85530000D01*
X150391656Y-85332334D01*
X150274835Y-85150790D01*
X150096588Y-85028999D01*
X149885000Y-84986151D01*
X148385000Y-84986151D01*
X148187334Y-85023344D01*
X148005790Y-85140165D01*
X147883999Y-85318412D01*
X147873633Y-85369600D01*
X147447000Y-85369600D01*
X147447000Y-84070000D01*
X147810000Y-84070000D01*
X147810000Y-84796250D01*
X147968750Y-84955000D01*
X148211309Y-84955000D01*
X148444698Y-84858327D01*
X148623327Y-84679699D01*
X148720000Y-84446310D01*
X148720000Y-84228750D01*
X148561250Y-84070000D01*
X147810000Y-84070000D01*
X147447000Y-84070000D01*
X147447000Y-82843750D01*
X147810000Y-82843750D01*
X147810000Y-83570000D01*
X148561250Y-83570000D01*
X148720000Y-83411250D01*
X148720000Y-83193690D01*
X148623327Y-82960301D01*
X148444698Y-82781673D01*
X148211309Y-82685000D01*
X147968750Y-82685000D01*
X147810000Y-82843750D01*
X147447000Y-82843750D01*
X147447000Y-82677000D01*
X151638000Y-82677000D01*
X151638000Y-110363000D01*
G36*
X145923000Y-86188054D02*
X145620000Y-86491054D01*
X145620000Y-86438750D01*
X145461250Y-86280000D01*
X144610000Y-86280000D01*
X144610000Y-86431000D01*
X143860000Y-86431000D01*
X143860000Y-86280000D01*
X143008750Y-86280000D01*
X142850000Y-86438750D01*
X142850000Y-86656310D01*
X142946673Y-86889699D01*
X143125302Y-87068327D01*
X143255685Y-87122333D01*
X143129168Y-87427018D01*
X143128816Y-87831208D01*
X143283167Y-88204766D01*
X143299439Y-88221066D01*
X143287334Y-88223344D01*
X143105790Y-88340165D01*
X142983999Y-88518412D01*
X142941151Y-88730000D01*
X142941151Y-89730000D01*
X142978344Y-89927666D01*
X143095165Y-90109210D01*
X143273412Y-90231001D01*
X143485000Y-90273849D01*
X144985000Y-90273849D01*
X145182666Y-90236656D01*
X145288000Y-90168875D01*
X145288000Y-93980000D01*
X145298006Y-94029410D01*
X145326447Y-94071035D01*
X145368841Y-94098315D01*
X145415000Y-94107000D01*
X145923000Y-94107000D01*
X145923000Y-99695000D01*
X145933006Y-99744410D01*
X145961447Y-99786035D01*
X146003841Y-99813315D01*
X146050000Y-99822000D01*
X147193000Y-99822000D01*
X147193000Y-102743000D01*
X146050000Y-102743000D01*
X146000590Y-102753006D01*
X145958965Y-102781447D01*
X145931685Y-102823841D01*
X145923000Y-102870000D01*
X145923000Y-105370083D01*
X145824179Y-105468731D01*
X145669176Y-105842018D01*
X145668824Y-106246208D01*
X145823175Y-106619766D01*
X145857948Y-106654600D01*
X145528849Y-106654600D01*
X145528849Y-106510000D01*
X145491656Y-106312334D01*
X145374835Y-106130790D01*
X145196588Y-106008999D01*
X144985000Y-105966151D01*
X143485000Y-105966151D01*
X143287334Y-106003344D01*
X143105790Y-106120165D01*
X142983999Y-106298412D01*
X142941151Y-106510000D01*
X142941151Y-107510000D01*
X142978344Y-107707666D01*
X143095165Y-107889210D01*
X143273412Y-108011001D01*
X143485000Y-108053849D01*
X144985000Y-108053849D01*
X145182666Y-108016656D01*
X145246779Y-107975400D01*
X145908660Y-107975400D01*
X145923000Y-107989765D01*
X145923000Y-110363000D01*
X141732000Y-110363000D01*
X141732000Y-109628750D01*
X144650000Y-109628750D01*
X144650000Y-109846310D01*
X144746673Y-110079699D01*
X144925302Y-110258327D01*
X145158691Y-110355000D01*
X145401250Y-110355000D01*
X145560000Y-110196250D01*
X145560000Y-109470000D01*
X144808750Y-109470000D01*
X144650000Y-109628750D01*
X141732000Y-109628750D01*
X141732000Y-108593690D01*
X144650000Y-108593690D01*
X144650000Y-108811250D01*
X144808750Y-108970000D01*
X145560000Y-108970000D01*
X145560000Y-108243750D01*
X145401250Y-108085000D01*
X145158691Y-108085000D01*
X144925302Y-108181673D01*
X144746673Y-108360301D01*
X144650000Y-108593690D01*
X141732000Y-108593690D01*
X141732000Y-104218750D01*
X142850000Y-104218750D01*
X142850000Y-104436310D01*
X142946673Y-104669699D01*
X143125302Y-104848327D01*
X143358691Y-104945000D01*
X143701250Y-104945000D01*
X143860000Y-104786250D01*
X143860000Y-104060000D01*
X144610000Y-104060000D01*
X144610000Y-104786250D01*
X144768750Y-104945000D01*
X145111309Y-104945000D01*
X145344698Y-104848327D01*
X145523327Y-104669699D01*
X145620000Y-104436310D01*
X145620000Y-104218750D01*
X145461250Y-104060000D01*
X144610000Y-104060000D01*
X143860000Y-104060000D01*
X143008750Y-104060000D01*
X142850000Y-104218750D01*
X141732000Y-104218750D01*
X141732000Y-103183690D01*
X142850000Y-103183690D01*
X142850000Y-103401250D01*
X143008750Y-103560000D01*
X143860000Y-103560000D01*
X143860000Y-102833750D01*
X144610000Y-102833750D01*
X144610000Y-103560000D01*
X145461250Y-103560000D01*
X145620000Y-103401250D01*
X145620000Y-103183690D01*
X145523327Y-102950301D01*
X145344698Y-102771673D01*
X145111309Y-102675000D01*
X144768750Y-102675000D01*
X144610000Y-102833750D01*
X143860000Y-102833750D01*
X143701250Y-102675000D01*
X143358691Y-102675000D01*
X143125302Y-102771673D01*
X142946673Y-102950301D01*
X142850000Y-103183690D01*
X141732000Y-103183690D01*
X141732000Y-85403690D01*
X142850000Y-85403690D01*
X142850000Y-85621250D01*
X143008750Y-85780000D01*
X143860000Y-85780000D01*
X143860000Y-85053750D01*
X144610000Y-85053750D01*
X144610000Y-85780000D01*
X145461250Y-85780000D01*
X145620000Y-85621250D01*
X145620000Y-85403690D01*
X145523327Y-85170301D01*
X145344698Y-84991673D01*
X145256162Y-84955000D01*
X145401250Y-84955000D01*
X145560000Y-84796250D01*
X145560000Y-84070000D01*
X144808750Y-84070000D01*
X144650000Y-84228750D01*
X144650000Y-84446310D01*
X144746673Y-84679699D01*
X144925302Y-84858327D01*
X145013838Y-84895000D01*
X144768750Y-84895000D01*
X144610000Y-85053750D01*
X143860000Y-85053750D01*
X143701250Y-84895000D01*
X143358691Y-84895000D01*
X143125302Y-84991673D01*
X142946673Y-85170301D01*
X142850000Y-85403690D01*
X141732000Y-85403690D01*
X141732000Y-83193690D01*
X144650000Y-83193690D01*
X144650000Y-83411250D01*
X144808750Y-83570000D01*
X145560000Y-83570000D01*
X145560000Y-82843750D01*
X145401250Y-82685000D01*
X145158691Y-82685000D01*
X144925302Y-82781673D01*
X144746673Y-82960301D01*
X144650000Y-83193690D01*
X141732000Y-83193690D01*
X141732000Y-82677000D01*
X145923000Y-82677000D01*
X145923000Y-86188054D01*
X145923000Y-86188054D01*
G37*
X145923000Y-86188054D02*
X145620000Y-86491054D01*
X145620000Y-86438750D01*
X145461250Y-86280000D01*
X144610000Y-86280000D01*
X144610000Y-86431000D01*
X143860000Y-86431000D01*
X143860000Y-86280000D01*
X143008750Y-86280000D01*
X142850000Y-86438750D01*
X142850000Y-86656310D01*
X142946673Y-86889699D01*
X143125302Y-87068327D01*
X143255685Y-87122333D01*
X143129168Y-87427018D01*
X143128816Y-87831208D01*
X143283167Y-88204766D01*
X143299439Y-88221066D01*
X143287334Y-88223344D01*
X143105790Y-88340165D01*
X142983999Y-88518412D01*
X142941151Y-88730000D01*
X142941151Y-89730000D01*
X142978344Y-89927666D01*
X143095165Y-90109210D01*
X143273412Y-90231001D01*
X143485000Y-90273849D01*
X144985000Y-90273849D01*
X145182666Y-90236656D01*
X145288000Y-90168875D01*
X145288000Y-93980000D01*
X145298006Y-94029410D01*
X145326447Y-94071035D01*
X145368841Y-94098315D01*
X145415000Y-94107000D01*
X145923000Y-94107000D01*
X145923000Y-99695000D01*
X145933006Y-99744410D01*
X145961447Y-99786035D01*
X146003841Y-99813315D01*
X146050000Y-99822000D01*
X147193000Y-99822000D01*
X147193000Y-102743000D01*
X146050000Y-102743000D01*
X146000590Y-102753006D01*
X145958965Y-102781447D01*
X145931685Y-102823841D01*
X145923000Y-102870000D01*
X145923000Y-105370083D01*
X145824179Y-105468731D01*
X145669176Y-105842018D01*
X145668824Y-106246208D01*
X145823175Y-106619766D01*
X145857948Y-106654600D01*
X145528849Y-106654600D01*
X145528849Y-106510000D01*
X145491656Y-106312334D01*
X145374835Y-106130790D01*
X145196588Y-106008999D01*
X144985000Y-105966151D01*
X143485000Y-105966151D01*
X143287334Y-106003344D01*
X143105790Y-106120165D01*
X142983999Y-106298412D01*
X142941151Y-106510000D01*
X142941151Y-107510000D01*
X142978344Y-107707666D01*
X143095165Y-107889210D01*
X143273412Y-108011001D01*
X143485000Y-108053849D01*
X144985000Y-108053849D01*
X145182666Y-108016656D01*
X145246779Y-107975400D01*
X145908660Y-107975400D01*
X145923000Y-107989765D01*
X145923000Y-110363000D01*
X141732000Y-110363000D01*
X141732000Y-109628750D01*
X144650000Y-109628750D01*
X144650000Y-109846310D01*
X144746673Y-110079699D01*
X144925302Y-110258327D01*
X145158691Y-110355000D01*
X145401250Y-110355000D01*
X145560000Y-110196250D01*
X145560000Y-109470000D01*
X144808750Y-109470000D01*
X144650000Y-109628750D01*
X141732000Y-109628750D01*
X141732000Y-108593690D01*
X144650000Y-108593690D01*
X144650000Y-108811250D01*
X144808750Y-108970000D01*
X145560000Y-108970000D01*
X145560000Y-108243750D01*
X145401250Y-108085000D01*
X145158691Y-108085000D01*
X144925302Y-108181673D01*
X144746673Y-108360301D01*
X144650000Y-108593690D01*
X141732000Y-108593690D01*
X141732000Y-104218750D01*
X142850000Y-104218750D01*
X142850000Y-104436310D01*
X142946673Y-104669699D01*
X143125302Y-104848327D01*
X143358691Y-104945000D01*
X143701250Y-104945000D01*
X143860000Y-104786250D01*
X143860000Y-104060000D01*
X144610000Y-104060000D01*
X144610000Y-104786250D01*
X144768750Y-104945000D01*
X145111309Y-104945000D01*
X145344698Y-104848327D01*
X145523327Y-104669699D01*
X145620000Y-104436310D01*
X145620000Y-104218750D01*
X145461250Y-104060000D01*
X144610000Y-104060000D01*
X143860000Y-104060000D01*
X143008750Y-104060000D01*
X142850000Y-104218750D01*
X141732000Y-104218750D01*
X141732000Y-103183690D01*
X142850000Y-103183690D01*
X142850000Y-103401250D01*
X143008750Y-103560000D01*
X143860000Y-103560000D01*
X143860000Y-102833750D01*
X144610000Y-102833750D01*
X144610000Y-103560000D01*
X145461250Y-103560000D01*
X145620000Y-103401250D01*
X145620000Y-103183690D01*
X145523327Y-102950301D01*
X145344698Y-102771673D01*
X145111309Y-102675000D01*
X144768750Y-102675000D01*
X144610000Y-102833750D01*
X143860000Y-102833750D01*
X143701250Y-102675000D01*
X143358691Y-102675000D01*
X143125302Y-102771673D01*
X142946673Y-102950301D01*
X142850000Y-103183690D01*
X141732000Y-103183690D01*
X141732000Y-85403690D01*
X142850000Y-85403690D01*
X142850000Y-85621250D01*
X143008750Y-85780000D01*
X143860000Y-85780000D01*
X143860000Y-85053750D01*
X144610000Y-85053750D01*
X144610000Y-85780000D01*
X145461250Y-85780000D01*
X145620000Y-85621250D01*
X145620000Y-85403690D01*
X145523327Y-85170301D01*
X145344698Y-84991673D01*
X145256162Y-84955000D01*
X145401250Y-84955000D01*
X145560000Y-84796250D01*
X145560000Y-84070000D01*
X144808750Y-84070000D01*
X144650000Y-84228750D01*
X144650000Y-84446310D01*
X144746673Y-84679699D01*
X144925302Y-84858327D01*
X145013838Y-84895000D01*
X144768750Y-84895000D01*
X144610000Y-85053750D01*
X143860000Y-85053750D01*
X143701250Y-84895000D01*
X143358691Y-84895000D01*
X143125302Y-84991673D01*
X142946673Y-85170301D01*
X142850000Y-85403690D01*
X141732000Y-85403690D01*
X141732000Y-83193690D01*
X144650000Y-83193690D01*
X144650000Y-83411250D01*
X144808750Y-83570000D01*
X145560000Y-83570000D01*
X145560000Y-82843750D01*
X145401250Y-82685000D01*
X145158691Y-82685000D01*
X144925302Y-82781673D01*
X144746673Y-82960301D01*
X144650000Y-83193690D01*
X141732000Y-83193690D01*
X141732000Y-82677000D01*
X145923000Y-82677000D01*
X145923000Y-86188054D01*
D22*
X116840000Y-97790000D03*
X116840000Y-99060000D03*
X116840000Y-100330000D03*
X115570000Y-99060000D03*
X115570000Y-100330000D03*
X124460000Y-99060000D03*
X123190000Y-97790000D03*
X123190000Y-99060000D03*
X116205000Y-90170000D03*
X114935000Y-90170000D03*
X113665000Y-90170000D03*
X113665000Y-88900000D03*
X114935000Y-88900000D03*
X116205000Y-88900000D03*
X124460000Y-120015000D03*
X125730000Y-118745000D03*
X127000000Y-117475000D03*
X128270000Y-116205000D03*
X129540000Y-114935000D03*
X115570000Y-120015000D03*
X110490000Y-114935000D03*
X111760000Y-116205000D03*
X113030000Y-117475000D03*
X114300000Y-118745000D03*
X115570000Y-104140000D03*
X115570000Y-102870000D03*
X116840000Y-102870000D03*
X116840000Y-104140000D03*
X116840000Y-105410000D03*
X123825000Y-113030000D03*
X125095000Y-113030000D03*
X125095000Y-114300000D03*
X123825000Y-114300000D03*
X114935000Y-114300000D03*
X114935000Y-113030000D03*
X116205000Y-113030000D03*
X116205000Y-114300000D03*
X123825000Y-84455000D03*
X125095000Y-84455000D03*
X125095000Y-83185000D03*
X123825000Y-83185000D03*
X111125000Y-87630000D03*
X109855000Y-87630000D03*
X109855000Y-88900000D03*
X109855000Y-90170000D03*
X128905000Y-87630000D03*
X130175000Y-87630000D03*
X130175000Y-88900000D03*
X130175000Y-90170000D03*
X129540000Y-93980000D03*
X123190000Y-89535000D03*
X116840000Y-83185000D03*
X127000000Y-110490000D03*
X130175000Y-101600000D03*
X130175000Y-103505000D03*
X118745000Y-116205000D03*
X120015000Y-118745000D03*
X113030000Y-109220000D03*
X109855000Y-113030000D03*
X109855000Y-103505000D03*
X114300000Y-93980000D03*
X120015000Y-102870000D03*
X120015000Y-100330000D03*
X150495000Y-95250000D03*
X150495000Y-93980000D03*
X149253354Y-93951646D03*
X146685000Y-92710000D03*
X146685000Y-90805000D03*
X142875000Y-97790000D03*
X142875000Y-99060000D03*
X144145000Y-99060000D03*
X146685000Y-100330000D03*
X146685000Y-102235000D03*
X146696607Y-87641565D03*
X146685000Y-106045000D03*
X144144992Y-87630000D03*
X146685000Y-107315000D03*
X140589000Y-104140000D03*
X140589000Y-105410000D03*
X140589000Y-102870000D03*
X140589000Y-86995000D03*
X140589000Y-88265000D03*
X140589000Y-85725000D03*
X131826000Y-86995000D03*
X131826000Y-85725000D03*
X131826000Y-88265000D03*
X120015000Y-109220000D03*
X120015000Y-107315000D03*
X118365222Y-108267500D03*
X118365222Y-110172500D03*
X120015000Y-111125000D03*
X121664778Y-110172500D03*
X121664778Y-108267500D03*
X120015000Y-93980000D03*
X120015000Y-92075000D03*
X118365222Y-93027500D03*
X118365222Y-94932500D03*
X120015000Y-95885000D03*
X121664778Y-94932500D03*
X121664778Y-93027500D03*
X131826000Y-104140000D03*
X131826000Y-102870000D03*
X131826000Y-105410000D03*
X146685000Y-96520000D03*
X146685000Y-94615000D03*
X145035222Y-95567500D03*
X145035222Y-97472500D03*
X146685000Y-98425000D03*
X148334778Y-97472500D03*
X148334778Y-95567500D03*
M02*
