G04 #@! TF.FileFunction,Profile,NP*
%FSLAX46Y46*%
G04 Gerber Fmt 4.6, Leading zero omitted, Abs format (unit mm)*
G04 Created by KiCad (PCBNEW (2016-05-03 BZR 6266)-product) date Wed May 25 03:17:44 2016*
%MOMM*%
%LPD*%
G01*
G04 APERTURE LIST*
%ADD10C,0.350000*%
%ADD11C,0.150000*%
G04 APERTURE END LIST*
D10*
D11*
X140970000Y-83820000D02*
X140970000Y-81915000D01*
X140970000Y-100965000D02*
X140970000Y-90170000D01*
X140970000Y-107315000D02*
X140970000Y-111125000D01*
X133985000Y-109220000D02*
X138430000Y-109220000D01*
X133985000Y-81915000D02*
X138430000Y-81915000D01*
X140970000Y-90170000D02*
G75*
G03X138430000Y-90170000I-1270000J0D01*
G01*
X133985000Y-90170000D02*
G75*
G03X131445000Y-90170000I-1270000J0D01*
G01*
X140970000Y-107315000D02*
G75*
G03X138430000Y-107315000I-1270000J0D01*
G01*
X133985000Y-107315000D02*
G75*
G03X131445000Y-107315000I-1270000J0D01*
G01*
X131445000Y-100965000D02*
G75*
G03X133985000Y-100965000I1270000J0D01*
G01*
X138430000Y-100965000D02*
G75*
G03X140970000Y-100965000I1270000J0D01*
G01*
X138430000Y-83820000D02*
G75*
G03X140970000Y-83820000I1270000J0D01*
G01*
X131445000Y-83820000D02*
G75*
G03X133985000Y-83820000I1270000J0D01*
G01*
X138430000Y-109220000D02*
X138430000Y-107315000D01*
X133985000Y-107315000D02*
X133985000Y-109220000D01*
X131445000Y-107315000D02*
X131445000Y-114935000D01*
X138430000Y-90170000D02*
X138430000Y-100965000D01*
X133985000Y-100965000D02*
X133985000Y-90170000D01*
X131445000Y-90170000D02*
X131445000Y-100965000D01*
X133985000Y-81915000D02*
X133985000Y-83820000D01*
X138430000Y-83820000D02*
X138430000Y-81915000D01*
X131445000Y-81915000D02*
X131445000Y-83820000D01*
X108585000Y-81915000D02*
X131445000Y-81915000D01*
X108585000Y-114935000D02*
X108585000Y-81915000D01*
X125095000Y-121285000D02*
X114935000Y-121285000D01*
X131445000Y-114935000D02*
X125095000Y-121285000D01*
X108585000Y-114935000D02*
X114935000Y-121285000D01*
X152400000Y-81915000D02*
X140970000Y-81915000D01*
X152400000Y-111125000D02*
X152400000Y-81915000D01*
X140970000Y-111125000D02*
X152400000Y-111125000D01*
M02*
