G04 #@! TF.FileFunction,Soldermask,Top*
%FSLAX46Y46*%
G04 Gerber Fmt 4.6, Leading zero omitted, Abs format (unit mm)*
G04 Created by KiCad (PCBNEW (2016-05-03 BZR 6266)-product) date Wed May 25 03:17:44 2016*
%MOMM*%
%LPD*%
G01*
G04 APERTURE LIST*
%ADD10C,0.350000*%
%ADD11C,0.150000*%
%ADD12R,1.900000X1.400000*%
%ADD13R,1.400000X1.900000*%
%ADD14C,5.480000*%
%ADD15R,1.400000X1.500000*%
%ADD16R,1.500000X1.400000*%
G04 APERTURE END LIST*
D10*
D11*
X140970000Y-83820000D02*
X140970000Y-81915000D01*
X140970000Y-100965000D02*
X140970000Y-90170000D01*
X140970000Y-107315000D02*
X140970000Y-111125000D01*
X133985000Y-109220000D02*
X138430000Y-109220000D01*
X133985000Y-81915000D02*
X138430000Y-81915000D01*
X140970000Y-90170000D02*
G75*
G03X138430000Y-90170000I-1270000J0D01*
G01*
X133985000Y-90170000D02*
G75*
G03X131445000Y-90170000I-1270000J0D01*
G01*
X140970000Y-107315000D02*
G75*
G03X138430000Y-107315000I-1270000J0D01*
G01*
X133985000Y-107315000D02*
G75*
G03X131445000Y-107315000I-1270000J0D01*
G01*
X131445000Y-100965000D02*
G75*
G03X133985000Y-100965000I1270000J0D01*
G01*
X138430000Y-100965000D02*
G75*
G03X140970000Y-100965000I1270000J0D01*
G01*
X138430000Y-83820000D02*
G75*
G03X140970000Y-83820000I1270000J0D01*
G01*
X131445000Y-83820000D02*
G75*
G03X133985000Y-83820000I1270000J0D01*
G01*
X138430000Y-109220000D02*
X138430000Y-107315000D01*
X133985000Y-107315000D02*
X133985000Y-109220000D01*
X131445000Y-107315000D02*
X131445000Y-114935000D01*
X138430000Y-90170000D02*
X138430000Y-100965000D01*
X133985000Y-100965000D02*
X133985000Y-90170000D01*
X131445000Y-90170000D02*
X131445000Y-100965000D01*
X133985000Y-81915000D02*
X133985000Y-83820000D01*
X138430000Y-83820000D02*
X138430000Y-81915000D01*
X131445000Y-81915000D02*
X131445000Y-83820000D01*
X108585000Y-81915000D02*
X131445000Y-81915000D01*
X108585000Y-114935000D02*
X108585000Y-81915000D01*
X125095000Y-121285000D02*
X114935000Y-121285000D01*
X131445000Y-114935000D02*
X125095000Y-121285000D01*
X108585000Y-114935000D02*
X114935000Y-121285000D01*
X152400000Y-81915000D02*
X140970000Y-81915000D01*
X152400000Y-111125000D02*
X152400000Y-81915000D01*
X140970000Y-111125000D02*
X152400000Y-111125000D01*
D12*
X130085000Y-107620000D03*
X125185000Y-107620000D03*
X125185000Y-110820000D03*
X130085000Y-110820000D03*
D13*
X121615000Y-119290000D03*
X121615000Y-114390000D03*
X118415000Y-114390000D03*
X118415000Y-119290000D03*
D12*
X109945000Y-110820000D03*
X114845000Y-110820000D03*
X114845000Y-107620000D03*
X109945000Y-107620000D03*
D14*
X120015000Y-109220000D03*
D13*
X118415000Y-99150000D03*
X118415000Y-104050000D03*
X121615000Y-104050000D03*
X121615000Y-99150000D03*
X121615000Y-88810000D03*
X121615000Y-83910000D03*
X118415000Y-83910000D03*
X118415000Y-88810000D03*
D14*
X120015000Y-93980000D03*
D12*
X125185000Y-95580000D03*
X130085000Y-95580000D03*
X130085000Y-92380000D03*
X125185000Y-92380000D03*
X114845000Y-92380000D03*
X109945000Y-92380000D03*
X109945000Y-95580000D03*
X114845000Y-95580000D03*
D15*
X116205000Y-87210000D03*
X116205000Y-85510000D03*
D16*
X126785000Y-90170000D03*
X128485000Y-90170000D03*
X128485000Y-113030000D03*
X126785000Y-113030000D03*
D15*
X116205000Y-117690000D03*
X116205000Y-115990000D03*
D16*
X111545000Y-105410000D03*
X113245000Y-105410000D03*
X113245000Y-97790000D03*
X111545000Y-97790000D03*
D15*
X123825000Y-100750000D03*
X123825000Y-102450000D03*
D12*
X149135000Y-86030000D03*
X144235000Y-86030000D03*
X144235000Y-89230000D03*
X149135000Y-89230000D03*
D16*
X147535000Y-83820000D03*
X145835000Y-83820000D03*
X147535000Y-109220000D03*
X145835000Y-109220000D03*
D14*
X146685000Y-96520000D03*
D12*
X149135000Y-103810000D03*
X144235000Y-103810000D03*
X144235000Y-107010000D03*
X149135000Y-107010000D03*
M02*
