G04 #@! TF.FileFunction,Legend,Bot*
%FSLAX46Y46*%
G04 Gerber Fmt 4.6, Leading zero omitted, Abs format (unit mm)*
G04 Created by KiCad (PCBNEW (2016-05-03 BZR 6266)-product) date Wed May 25 03:17:44 2016*
%MOMM*%
%LPD*%
G01*
G04 APERTURE LIST*
%ADD10C,0.350000*%
%ADD11C,0.150000*%
%ADD12C,0.285750*%
%ADD13C,0.254000*%
%ADD14C,0.002540*%
%ADD15C,0.050000*%
%ADD16C,0.180000*%
G04 APERTURE END LIST*
D10*
D11*
X140970000Y-83820000D02*
X140970000Y-81915000D01*
X140970000Y-100965000D02*
X140970000Y-90170000D01*
X140970000Y-107315000D02*
X140970000Y-111125000D01*
X133985000Y-109220000D02*
X138430000Y-109220000D01*
X133985000Y-81915000D02*
X138430000Y-81915000D01*
X140970000Y-90170000D02*
G75*
G03X138430000Y-90170000I-1270000J0D01*
G01*
X133985000Y-90170000D02*
G75*
G03X131445000Y-90170000I-1270000J0D01*
G01*
X140970000Y-107315000D02*
G75*
G03X138430000Y-107315000I-1270000J0D01*
G01*
X133985000Y-107315000D02*
G75*
G03X131445000Y-107315000I-1270000J0D01*
G01*
X131445000Y-100965000D02*
G75*
G03X133985000Y-100965000I1270000J0D01*
G01*
X138430000Y-100965000D02*
G75*
G03X140970000Y-100965000I1270000J0D01*
G01*
X138430000Y-83820000D02*
G75*
G03X140970000Y-83820000I1270000J0D01*
G01*
X131445000Y-83820000D02*
G75*
G03X133985000Y-83820000I1270000J0D01*
G01*
X138430000Y-109220000D02*
X138430000Y-107315000D01*
X133985000Y-107315000D02*
X133985000Y-109220000D01*
X131445000Y-107315000D02*
X131445000Y-114935000D01*
X138430000Y-90170000D02*
X138430000Y-100965000D01*
X133985000Y-100965000D02*
X133985000Y-90170000D01*
X131445000Y-90170000D02*
X131445000Y-100965000D01*
X133985000Y-81915000D02*
X133985000Y-83820000D01*
X138430000Y-83820000D02*
X138430000Y-81915000D01*
X131445000Y-81915000D02*
X131445000Y-83820000D01*
D12*
X121139857Y-104838500D02*
X121248714Y-104784071D01*
X121412000Y-104784071D01*
X121575285Y-104838500D01*
X121684143Y-104947357D01*
X121738571Y-105056214D01*
X121793000Y-105273929D01*
X121793000Y-105437214D01*
X121738571Y-105654929D01*
X121684143Y-105763786D01*
X121575285Y-105872643D01*
X121412000Y-105927071D01*
X121303143Y-105927071D01*
X121139857Y-105872643D01*
X121085428Y-105818214D01*
X121085428Y-105437214D01*
X121303143Y-105437214D01*
X120595571Y-105927071D02*
X120595571Y-104784071D01*
X119942428Y-105927071D01*
X119942428Y-104784071D01*
X119398142Y-105927071D02*
X119398142Y-104784071D01*
X119125999Y-104784071D01*
X118962714Y-104838500D01*
X118853856Y-104947357D01*
X118799428Y-105056214D01*
X118744999Y-105273929D01*
X118744999Y-105437214D01*
X118799428Y-105654929D01*
X118853856Y-105763786D01*
X118962714Y-105872643D01*
X119125999Y-105927071D01*
X119398142Y-105927071D01*
X121484571Y-98887643D02*
X120613714Y-98887643D01*
X121049143Y-99323071D02*
X121049143Y-98452214D01*
X119525142Y-98180071D02*
X120069428Y-98180071D01*
X120123857Y-98724357D01*
X120069428Y-98669929D01*
X119960571Y-98615500D01*
X119688428Y-98615500D01*
X119579571Y-98669929D01*
X119525142Y-98724357D01*
X119470714Y-98833214D01*
X119470714Y-99105357D01*
X119525142Y-99214214D01*
X119579571Y-99268643D01*
X119688428Y-99323071D01*
X119960571Y-99323071D01*
X120069428Y-99268643D01*
X120123857Y-99214214D01*
X119144143Y-98180071D02*
X118763143Y-99323071D01*
X118382143Y-98180071D01*
X129295071Y-83829071D02*
X129295071Y-82686071D01*
X129022928Y-82686071D01*
X128859643Y-82740500D01*
X128750785Y-82849357D01*
X128696357Y-82958214D01*
X128641928Y-83175929D01*
X128641928Y-83339214D01*
X128696357Y-83556929D01*
X128750785Y-83665786D01*
X128859643Y-83774643D01*
X129022928Y-83829071D01*
X129295071Y-83829071D01*
X127934357Y-82686071D02*
X127716643Y-82686071D01*
X127607785Y-82740500D01*
X127498928Y-82849357D01*
X127444500Y-83067071D01*
X127444500Y-83448071D01*
X127498928Y-83665786D01*
X127607785Y-83774643D01*
X127716643Y-83829071D01*
X127934357Y-83829071D01*
X128043214Y-83774643D01*
X128152071Y-83665786D01*
X128206500Y-83448071D01*
X128206500Y-83067071D01*
X128152071Y-82849357D01*
X128043214Y-82740500D01*
X127934357Y-82686071D01*
X112458500Y-83829071D02*
X112458500Y-82686071D01*
X112186357Y-82686071D01*
X112023072Y-82740500D01*
X111914214Y-82849357D01*
X111859786Y-82958214D01*
X111805357Y-83175929D01*
X111805357Y-83339214D01*
X111859786Y-83556929D01*
X111914214Y-83665786D01*
X112023072Y-83774643D01*
X112186357Y-83829071D01*
X112458500Y-83829071D01*
X111315500Y-83829071D02*
X111315500Y-82686071D01*
D11*
X108585000Y-81915000D02*
X131445000Y-81915000D01*
X108585000Y-114935000D02*
X108585000Y-81915000D01*
X125095000Y-121285000D02*
X114935000Y-121285000D01*
X131445000Y-114935000D02*
X125095000Y-121285000D01*
X108585000Y-114935000D02*
X114935000Y-121285000D01*
D13*
X142699619Y-84007476D02*
X142215810Y-83668810D01*
X142699619Y-83426905D02*
X141683619Y-83426905D01*
X141683619Y-83813952D01*
X141732000Y-83910714D01*
X141780381Y-83959095D01*
X141877143Y-84007476D01*
X142022286Y-84007476D01*
X142119048Y-83959095D01*
X142167429Y-83910714D01*
X142215810Y-83813952D01*
X142215810Y-83426905D01*
X142167429Y-84442905D02*
X142167429Y-84781571D01*
X142699619Y-84926714D02*
X142699619Y-84442905D01*
X141683619Y-84442905D01*
X141683619Y-84926714D01*
X141683619Y-85217000D02*
X142699619Y-85555667D01*
X141683619Y-85894333D01*
X142602857Y-86233000D02*
X142651238Y-86281381D01*
X142699619Y-86233000D01*
X142651238Y-86184619D01*
X142602857Y-86233000D01*
X142699619Y-86233000D01*
X142167429Y-87829571D02*
X142215810Y-87974714D01*
X142264190Y-88023095D01*
X142360952Y-88071476D01*
X142506095Y-88071476D01*
X142602857Y-88023095D01*
X142651238Y-87974714D01*
X142699619Y-87877952D01*
X142699619Y-87490905D01*
X141683619Y-87490905D01*
X141683619Y-87829571D01*
X141732000Y-87926333D01*
X141780381Y-87974714D01*
X141877143Y-88023095D01*
X141973905Y-88023095D01*
X142070667Y-87974714D01*
X142119048Y-87926333D01*
X142167429Y-87829571D01*
X142167429Y-87490905D01*
X150404285Y-84279619D02*
X150404285Y-83263619D01*
X150162380Y-83263619D01*
X150017238Y-83312000D01*
X149920476Y-83408762D01*
X149872095Y-83505524D01*
X149823714Y-83699048D01*
X149823714Y-83844190D01*
X149872095Y-84037714D01*
X149920476Y-84134476D01*
X150017238Y-84231238D01*
X150162380Y-84279619D01*
X150404285Y-84279619D01*
X149194761Y-83263619D02*
X149001238Y-83263619D01*
X148904476Y-83312000D01*
X148807714Y-83408762D01*
X148759333Y-83602286D01*
X148759333Y-83940952D01*
X148807714Y-84134476D01*
X148904476Y-84231238D01*
X149001238Y-84279619D01*
X149194761Y-84279619D01*
X149291523Y-84231238D01*
X149388285Y-84134476D01*
X149436666Y-83940952D01*
X149436666Y-83602286D01*
X149388285Y-83408762D01*
X149291523Y-83312000D01*
X149194761Y-83263619D01*
X150114000Y-86946619D02*
X150114000Y-85930619D01*
X149872095Y-85930619D01*
X149726953Y-85979000D01*
X149630191Y-86075762D01*
X149581810Y-86172524D01*
X149533429Y-86366048D01*
X149533429Y-86511190D01*
X149581810Y-86704714D01*
X149630191Y-86801476D01*
X149726953Y-86898238D01*
X149872095Y-86946619D01*
X150114000Y-86946619D01*
X149098000Y-86946619D02*
X149098000Y-85930619D01*
X147459095Y-103632000D02*
X147555857Y-103583619D01*
X147701000Y-103583619D01*
X147846142Y-103632000D01*
X147942904Y-103728762D01*
X147991285Y-103825524D01*
X148039666Y-104019048D01*
X148039666Y-104164190D01*
X147991285Y-104357714D01*
X147942904Y-104454476D01*
X147846142Y-104551238D01*
X147701000Y-104599619D01*
X147604238Y-104599619D01*
X147459095Y-104551238D01*
X147410714Y-104502857D01*
X147410714Y-104164190D01*
X147604238Y-104164190D01*
X146975285Y-104599619D02*
X146975285Y-103583619D01*
X146394714Y-104599619D01*
X146394714Y-103583619D01*
X145910904Y-104599619D02*
X145910904Y-103583619D01*
X145668999Y-103583619D01*
X145523857Y-103632000D01*
X145427095Y-103728762D01*
X145378714Y-103825524D01*
X145330333Y-104019048D01*
X145330333Y-104164190D01*
X145378714Y-104357714D01*
X145427095Y-104454476D01*
X145523857Y-104551238D01*
X145668999Y-104599619D01*
X145910904Y-104599619D01*
X147991285Y-89226571D02*
X147217190Y-89226571D01*
X147604238Y-89613619D02*
X147604238Y-88839524D01*
X146249571Y-88597619D02*
X146733380Y-88597619D01*
X146781761Y-89081429D01*
X146733380Y-89033048D01*
X146636618Y-88984667D01*
X146394714Y-88984667D01*
X146297952Y-89033048D01*
X146249571Y-89081429D01*
X146201190Y-89178190D01*
X146201190Y-89420095D01*
X146249571Y-89516857D01*
X146297952Y-89565238D01*
X146394714Y-89613619D01*
X146636618Y-89613619D01*
X146733380Y-89565238D01*
X146781761Y-89516857D01*
X145910904Y-88597619D02*
X145572237Y-89613619D01*
X145233571Y-88597619D01*
D11*
X152400000Y-81915000D02*
X140970000Y-81915000D01*
X152400000Y-111125000D02*
X152400000Y-81915000D01*
X140970000Y-111125000D02*
X152400000Y-111125000D01*
D14*
G36*
X115704620Y-111500920D02*
X115689380Y-111495840D01*
X115661440Y-111475520D01*
X115618260Y-111447580D01*
X115567460Y-111414560D01*
X115519200Y-111381540D01*
X115476020Y-111353600D01*
X115448080Y-111335820D01*
X115435380Y-111328200D01*
X115430300Y-111330740D01*
X115404900Y-111340900D01*
X115369340Y-111361220D01*
X115351560Y-111371380D01*
X115318540Y-111384080D01*
X115303300Y-111386620D01*
X115300760Y-111381540D01*
X115288060Y-111358680D01*
X115270280Y-111315500D01*
X115244880Y-111262160D01*
X115219480Y-111196120D01*
X115189000Y-111127540D01*
X115158520Y-111056420D01*
X115130580Y-110987840D01*
X115107720Y-110929420D01*
X115087400Y-110878620D01*
X115074700Y-110845600D01*
X115069620Y-110830360D01*
X115069620Y-110827820D01*
X115087400Y-110810040D01*
X115115340Y-110789720D01*
X115173760Y-110741460D01*
X115234720Y-110667800D01*
X115270280Y-110583980D01*
X115280440Y-110490000D01*
X115270280Y-110406180D01*
X115237260Y-110322360D01*
X115178840Y-110246160D01*
X115107720Y-110190280D01*
X115026440Y-110157260D01*
X114935000Y-110144560D01*
X114848640Y-110154720D01*
X114762280Y-110187740D01*
X114688620Y-110246160D01*
X114655600Y-110281720D01*
X114612420Y-110357920D01*
X114587020Y-110439200D01*
X114584480Y-110459520D01*
X114589560Y-110545880D01*
X114614960Y-110632240D01*
X114663220Y-110708440D01*
X114726720Y-110771940D01*
X114734340Y-110777020D01*
X114764820Y-110799880D01*
X114785140Y-110815120D01*
X114802920Y-110827820D01*
X114688620Y-111102140D01*
X114670840Y-111145320D01*
X114640360Y-111218980D01*
X114612420Y-111285020D01*
X114589560Y-111335820D01*
X114574320Y-111368840D01*
X114569240Y-111384080D01*
X114566700Y-111384080D01*
X114556540Y-111386620D01*
X114536220Y-111379000D01*
X114498120Y-111361220D01*
X114472720Y-111348520D01*
X114444780Y-111333280D01*
X114432080Y-111328200D01*
X114419380Y-111333280D01*
X114391440Y-111351060D01*
X114350800Y-111379000D01*
X114302540Y-111412020D01*
X114256820Y-111445040D01*
X114213640Y-111472980D01*
X114180620Y-111493300D01*
X114167920Y-111500920D01*
X114165380Y-111500920D01*
X114150140Y-111493300D01*
X114127280Y-111472980D01*
X114089180Y-111437420D01*
X114035840Y-111386620D01*
X114028220Y-111376460D01*
X113985040Y-111333280D01*
X113949480Y-111295180D01*
X113926620Y-111269780D01*
X113919000Y-111257080D01*
X113919000Y-111257080D01*
X113926620Y-111244380D01*
X113944400Y-111211360D01*
X113974880Y-111168180D01*
X114007900Y-111117380D01*
X114099340Y-110985300D01*
X114048540Y-110863380D01*
X114033300Y-110825280D01*
X114015520Y-110777020D01*
X114000280Y-110744000D01*
X113992660Y-110731300D01*
X113979960Y-110726220D01*
X113944400Y-110718600D01*
X113896140Y-110708440D01*
X113837720Y-110695740D01*
X113781840Y-110685580D01*
X113731040Y-110677960D01*
X113692940Y-110670340D01*
X113677700Y-110665260D01*
X113672620Y-110665260D01*
X113670080Y-110655100D01*
X113667540Y-110639860D01*
X113667540Y-110609380D01*
X113667540Y-110561120D01*
X113667540Y-110490000D01*
X113667540Y-110484920D01*
X113667540Y-110418880D01*
X113667540Y-110365540D01*
X113670080Y-110329980D01*
X113672620Y-110314740D01*
X113672620Y-110314740D01*
X113687860Y-110312200D01*
X113723420Y-110304580D01*
X113774220Y-110294420D01*
X113835180Y-110281720D01*
X113837720Y-110281720D01*
X113898680Y-110271560D01*
X113949480Y-110258860D01*
X113985040Y-110251240D01*
X114000280Y-110246160D01*
X114002820Y-110243620D01*
X114015520Y-110220760D01*
X114030760Y-110182660D01*
X114051080Y-110136940D01*
X114071400Y-110088680D01*
X114089180Y-110048040D01*
X114099340Y-110015020D01*
X114101880Y-110002320D01*
X114101880Y-109999780D01*
X114094260Y-109987080D01*
X114073940Y-109956600D01*
X114043460Y-109910880D01*
X114007900Y-109860080D01*
X114005360Y-109857540D01*
X113972340Y-109806740D01*
X113944400Y-109763560D01*
X113924080Y-109733080D01*
X113919000Y-109717840D01*
X113919000Y-109717840D01*
X113929160Y-109702600D01*
X113954560Y-109674660D01*
X113992660Y-109636560D01*
X114035840Y-109590840D01*
X114051080Y-109575600D01*
X114099340Y-109527340D01*
X114134900Y-109496860D01*
X114155220Y-109479080D01*
X114165380Y-109476540D01*
X114165380Y-109476540D01*
X114180620Y-109486700D01*
X114213640Y-109507020D01*
X114256820Y-109537500D01*
X114307620Y-109570520D01*
X114312700Y-109573060D01*
X114363500Y-109608620D01*
X114406680Y-109636560D01*
X114434620Y-109656880D01*
X114449860Y-109664500D01*
X114449860Y-109664500D01*
X114472720Y-109659420D01*
X114508280Y-109646720D01*
X114551460Y-109628940D01*
X114599720Y-109611160D01*
X114642900Y-109590840D01*
X114673380Y-109578140D01*
X114688620Y-109567980D01*
X114688620Y-109567980D01*
X114693700Y-109550200D01*
X114703860Y-109512100D01*
X114714020Y-109458760D01*
X114726720Y-109397800D01*
X114726720Y-109387640D01*
X114739420Y-109326680D01*
X114749580Y-109275880D01*
X114757200Y-109242860D01*
X114759740Y-109227620D01*
X114767360Y-109225080D01*
X114797840Y-109225080D01*
X114843560Y-109222540D01*
X114896900Y-109222540D01*
X114952780Y-109222540D01*
X115008660Y-109222540D01*
X115056920Y-109225080D01*
X115092480Y-109227620D01*
X115105180Y-109230160D01*
X115105180Y-109230160D01*
X115112800Y-109250480D01*
X115120420Y-109288580D01*
X115130580Y-109341920D01*
X115143280Y-109402880D01*
X115145820Y-109413040D01*
X115155980Y-109474000D01*
X115166140Y-109524800D01*
X115173760Y-109557820D01*
X115176300Y-109570520D01*
X115183920Y-109575600D01*
X115206780Y-109585760D01*
X115247420Y-109601000D01*
X115298220Y-109621320D01*
X115415060Y-109669580D01*
X115557300Y-109570520D01*
X115570000Y-109562900D01*
X115620800Y-109527340D01*
X115663980Y-109499400D01*
X115691920Y-109481620D01*
X115704620Y-109474000D01*
X115707160Y-109474000D01*
X115719860Y-109486700D01*
X115747800Y-109514640D01*
X115785900Y-109550200D01*
X115831620Y-109595920D01*
X115864640Y-109628940D01*
X115905280Y-109669580D01*
X115928140Y-109694980D01*
X115943380Y-109712760D01*
X115948460Y-109722920D01*
X115945920Y-109730540D01*
X115938300Y-109745780D01*
X115915440Y-109776260D01*
X115887500Y-109819440D01*
X115851940Y-109870240D01*
X115824000Y-109910880D01*
X115793520Y-109959140D01*
X115773200Y-109994700D01*
X115765580Y-110009940D01*
X115768120Y-110017560D01*
X115778280Y-110045500D01*
X115793520Y-110088680D01*
X115816380Y-110136940D01*
X115864640Y-110251240D01*
X115938300Y-110263940D01*
X115984020Y-110274100D01*
X116047520Y-110286800D01*
X116105940Y-110296960D01*
X116199920Y-110314740D01*
X116205000Y-110657640D01*
X116189760Y-110662720D01*
X116174520Y-110667800D01*
X116141500Y-110675420D01*
X116090700Y-110685580D01*
X116032280Y-110695740D01*
X115984020Y-110705900D01*
X115933220Y-110716060D01*
X115897660Y-110721140D01*
X115879880Y-110726220D01*
X115877340Y-110731300D01*
X115864640Y-110754160D01*
X115846860Y-110794800D01*
X115826540Y-110840520D01*
X115806220Y-110888780D01*
X115788440Y-110931960D01*
X115775740Y-110967520D01*
X115770660Y-110985300D01*
X115778280Y-110998000D01*
X115798600Y-111025940D01*
X115826540Y-111069120D01*
X115859560Y-111119920D01*
X115892580Y-111168180D01*
X115923060Y-111211360D01*
X115943380Y-111241840D01*
X115951000Y-111257080D01*
X115945920Y-111264700D01*
X115925600Y-111290100D01*
X115890040Y-111328200D01*
X115834160Y-111384080D01*
X115824000Y-111391700D01*
X115778280Y-111434880D01*
X115742720Y-111470440D01*
X115714780Y-111493300D01*
X115704620Y-111500920D01*
X115704620Y-111500920D01*
G37*
X115704620Y-111500920D02*
X115689380Y-111495840D01*
X115661440Y-111475520D01*
X115618260Y-111447580D01*
X115567460Y-111414560D01*
X115519200Y-111381540D01*
X115476020Y-111353600D01*
X115448080Y-111335820D01*
X115435380Y-111328200D01*
X115430300Y-111330740D01*
X115404900Y-111340900D01*
X115369340Y-111361220D01*
X115351560Y-111371380D01*
X115318540Y-111384080D01*
X115303300Y-111386620D01*
X115300760Y-111381540D01*
X115288060Y-111358680D01*
X115270280Y-111315500D01*
X115244880Y-111262160D01*
X115219480Y-111196120D01*
X115189000Y-111127540D01*
X115158520Y-111056420D01*
X115130580Y-110987840D01*
X115107720Y-110929420D01*
X115087400Y-110878620D01*
X115074700Y-110845600D01*
X115069620Y-110830360D01*
X115069620Y-110827820D01*
X115087400Y-110810040D01*
X115115340Y-110789720D01*
X115173760Y-110741460D01*
X115234720Y-110667800D01*
X115270280Y-110583980D01*
X115280440Y-110490000D01*
X115270280Y-110406180D01*
X115237260Y-110322360D01*
X115178840Y-110246160D01*
X115107720Y-110190280D01*
X115026440Y-110157260D01*
X114935000Y-110144560D01*
X114848640Y-110154720D01*
X114762280Y-110187740D01*
X114688620Y-110246160D01*
X114655600Y-110281720D01*
X114612420Y-110357920D01*
X114587020Y-110439200D01*
X114584480Y-110459520D01*
X114589560Y-110545880D01*
X114614960Y-110632240D01*
X114663220Y-110708440D01*
X114726720Y-110771940D01*
X114734340Y-110777020D01*
X114764820Y-110799880D01*
X114785140Y-110815120D01*
X114802920Y-110827820D01*
X114688620Y-111102140D01*
X114670840Y-111145320D01*
X114640360Y-111218980D01*
X114612420Y-111285020D01*
X114589560Y-111335820D01*
X114574320Y-111368840D01*
X114569240Y-111384080D01*
X114566700Y-111384080D01*
X114556540Y-111386620D01*
X114536220Y-111379000D01*
X114498120Y-111361220D01*
X114472720Y-111348520D01*
X114444780Y-111333280D01*
X114432080Y-111328200D01*
X114419380Y-111333280D01*
X114391440Y-111351060D01*
X114350800Y-111379000D01*
X114302540Y-111412020D01*
X114256820Y-111445040D01*
X114213640Y-111472980D01*
X114180620Y-111493300D01*
X114167920Y-111500920D01*
X114165380Y-111500920D01*
X114150140Y-111493300D01*
X114127280Y-111472980D01*
X114089180Y-111437420D01*
X114035840Y-111386620D01*
X114028220Y-111376460D01*
X113985040Y-111333280D01*
X113949480Y-111295180D01*
X113926620Y-111269780D01*
X113919000Y-111257080D01*
X113919000Y-111257080D01*
X113926620Y-111244380D01*
X113944400Y-111211360D01*
X113974880Y-111168180D01*
X114007900Y-111117380D01*
X114099340Y-110985300D01*
X114048540Y-110863380D01*
X114033300Y-110825280D01*
X114015520Y-110777020D01*
X114000280Y-110744000D01*
X113992660Y-110731300D01*
X113979960Y-110726220D01*
X113944400Y-110718600D01*
X113896140Y-110708440D01*
X113837720Y-110695740D01*
X113781840Y-110685580D01*
X113731040Y-110677960D01*
X113692940Y-110670340D01*
X113677700Y-110665260D01*
X113672620Y-110665260D01*
X113670080Y-110655100D01*
X113667540Y-110639860D01*
X113667540Y-110609380D01*
X113667540Y-110561120D01*
X113667540Y-110490000D01*
X113667540Y-110484920D01*
X113667540Y-110418880D01*
X113667540Y-110365540D01*
X113670080Y-110329980D01*
X113672620Y-110314740D01*
X113672620Y-110314740D01*
X113687860Y-110312200D01*
X113723420Y-110304580D01*
X113774220Y-110294420D01*
X113835180Y-110281720D01*
X113837720Y-110281720D01*
X113898680Y-110271560D01*
X113949480Y-110258860D01*
X113985040Y-110251240D01*
X114000280Y-110246160D01*
X114002820Y-110243620D01*
X114015520Y-110220760D01*
X114030760Y-110182660D01*
X114051080Y-110136940D01*
X114071400Y-110088680D01*
X114089180Y-110048040D01*
X114099340Y-110015020D01*
X114101880Y-110002320D01*
X114101880Y-109999780D01*
X114094260Y-109987080D01*
X114073940Y-109956600D01*
X114043460Y-109910880D01*
X114007900Y-109860080D01*
X114005360Y-109857540D01*
X113972340Y-109806740D01*
X113944400Y-109763560D01*
X113924080Y-109733080D01*
X113919000Y-109717840D01*
X113919000Y-109717840D01*
X113929160Y-109702600D01*
X113954560Y-109674660D01*
X113992660Y-109636560D01*
X114035840Y-109590840D01*
X114051080Y-109575600D01*
X114099340Y-109527340D01*
X114134900Y-109496860D01*
X114155220Y-109479080D01*
X114165380Y-109476540D01*
X114165380Y-109476540D01*
X114180620Y-109486700D01*
X114213640Y-109507020D01*
X114256820Y-109537500D01*
X114307620Y-109570520D01*
X114312700Y-109573060D01*
X114363500Y-109608620D01*
X114406680Y-109636560D01*
X114434620Y-109656880D01*
X114449860Y-109664500D01*
X114449860Y-109664500D01*
X114472720Y-109659420D01*
X114508280Y-109646720D01*
X114551460Y-109628940D01*
X114599720Y-109611160D01*
X114642900Y-109590840D01*
X114673380Y-109578140D01*
X114688620Y-109567980D01*
X114688620Y-109567980D01*
X114693700Y-109550200D01*
X114703860Y-109512100D01*
X114714020Y-109458760D01*
X114726720Y-109397800D01*
X114726720Y-109387640D01*
X114739420Y-109326680D01*
X114749580Y-109275880D01*
X114757200Y-109242860D01*
X114759740Y-109227620D01*
X114767360Y-109225080D01*
X114797840Y-109225080D01*
X114843560Y-109222540D01*
X114896900Y-109222540D01*
X114952780Y-109222540D01*
X115008660Y-109222540D01*
X115056920Y-109225080D01*
X115092480Y-109227620D01*
X115105180Y-109230160D01*
X115105180Y-109230160D01*
X115112800Y-109250480D01*
X115120420Y-109288580D01*
X115130580Y-109341920D01*
X115143280Y-109402880D01*
X115145820Y-109413040D01*
X115155980Y-109474000D01*
X115166140Y-109524800D01*
X115173760Y-109557820D01*
X115176300Y-109570520D01*
X115183920Y-109575600D01*
X115206780Y-109585760D01*
X115247420Y-109601000D01*
X115298220Y-109621320D01*
X115415060Y-109669580D01*
X115557300Y-109570520D01*
X115570000Y-109562900D01*
X115620800Y-109527340D01*
X115663980Y-109499400D01*
X115691920Y-109481620D01*
X115704620Y-109474000D01*
X115707160Y-109474000D01*
X115719860Y-109486700D01*
X115747800Y-109514640D01*
X115785900Y-109550200D01*
X115831620Y-109595920D01*
X115864640Y-109628940D01*
X115905280Y-109669580D01*
X115928140Y-109694980D01*
X115943380Y-109712760D01*
X115948460Y-109722920D01*
X115945920Y-109730540D01*
X115938300Y-109745780D01*
X115915440Y-109776260D01*
X115887500Y-109819440D01*
X115851940Y-109870240D01*
X115824000Y-109910880D01*
X115793520Y-109959140D01*
X115773200Y-109994700D01*
X115765580Y-110009940D01*
X115768120Y-110017560D01*
X115778280Y-110045500D01*
X115793520Y-110088680D01*
X115816380Y-110136940D01*
X115864640Y-110251240D01*
X115938300Y-110263940D01*
X115984020Y-110274100D01*
X116047520Y-110286800D01*
X116105940Y-110296960D01*
X116199920Y-110314740D01*
X116205000Y-110657640D01*
X116189760Y-110662720D01*
X116174520Y-110667800D01*
X116141500Y-110675420D01*
X116090700Y-110685580D01*
X116032280Y-110695740D01*
X115984020Y-110705900D01*
X115933220Y-110716060D01*
X115897660Y-110721140D01*
X115879880Y-110726220D01*
X115877340Y-110731300D01*
X115864640Y-110754160D01*
X115846860Y-110794800D01*
X115826540Y-110840520D01*
X115806220Y-110888780D01*
X115788440Y-110931960D01*
X115775740Y-110967520D01*
X115770660Y-110985300D01*
X115778280Y-110998000D01*
X115798600Y-111025940D01*
X115826540Y-111069120D01*
X115859560Y-111119920D01*
X115892580Y-111168180D01*
X115923060Y-111211360D01*
X115943380Y-111241840D01*
X115951000Y-111257080D01*
X115945920Y-111264700D01*
X115925600Y-111290100D01*
X115890040Y-111328200D01*
X115834160Y-111384080D01*
X115824000Y-111391700D01*
X115778280Y-111434880D01*
X115742720Y-111470440D01*
X115714780Y-111493300D01*
X115704620Y-111500920D01*
D15*
G36*
X119813960Y-113139621D02*
X119817227Y-113202702D01*
X119829312Y-113257055D01*
X119834516Y-113270139D01*
X119872324Y-113330455D01*
X119930202Y-113390196D01*
X120007052Y-113448658D01*
X120095293Y-113501271D01*
X120095293Y-113117752D01*
X120121292Y-113103350D01*
X120155345Y-113092208D01*
X120207147Y-113085530D01*
X120273777Y-113083220D01*
X120352317Y-113085180D01*
X120439846Y-113091313D01*
X120533444Y-113101522D01*
X120630190Y-113115709D01*
X120663230Y-113121412D01*
X120707329Y-113129635D01*
X120734600Y-113136305D01*
X120749082Y-113143422D01*
X120754814Y-113152984D01*
X120755834Y-113166990D01*
X120755834Y-113167255D01*
X120757774Y-113185082D01*
X120764956Y-113203222D01*
X120779426Y-113223999D01*
X120803227Y-113249734D01*
X120838403Y-113282749D01*
X120886999Y-113325366D01*
X120919482Y-113353140D01*
X120961840Y-113389364D01*
X120997820Y-113420514D01*
X121024635Y-113444149D01*
X121039501Y-113457825D01*
X121041584Y-113460185D01*
X121035407Y-113461244D01*
X121015857Y-113458377D01*
X120981404Y-113451254D01*
X120930517Y-113439545D01*
X120861667Y-113422918D01*
X120808750Y-113409862D01*
X120681707Y-113376206D01*
X120561312Y-113340158D01*
X120449873Y-113302607D01*
X120349696Y-113264443D01*
X120263087Y-113226556D01*
X120192352Y-113189836D01*
X120139797Y-113155172D01*
X120131876Y-113148738D01*
X120095293Y-113117752D01*
X120095293Y-113501271D01*
X120101776Y-113505137D01*
X120213279Y-113558931D01*
X120340463Y-113609336D01*
X120390709Y-113626795D01*
X120430992Y-113640314D01*
X120464048Y-113651422D01*
X120484346Y-113658259D01*
X120487255Y-113659246D01*
X120489286Y-113670402D01*
X120480546Y-113697240D01*
X120463442Y-113734215D01*
X120443719Y-113776647D01*
X120432868Y-113811495D01*
X120428405Y-113849037D01*
X120427750Y-113881810D01*
X120433041Y-113945170D01*
X120450015Y-114005242D01*
X120480326Y-114065113D01*
X120525626Y-114127871D01*
X120587571Y-114196605D01*
X120606604Y-114215833D01*
X120716179Y-114312720D01*
X120734667Y-114325988D01*
X120734667Y-113863098D01*
X120744693Y-113845399D01*
X120772583Y-113829288D01*
X120815052Y-113815436D01*
X120868818Y-113804517D01*
X120930597Y-113797202D01*
X120997106Y-113794165D01*
X121062750Y-113795922D01*
X121217656Y-113813033D01*
X121375084Y-113843531D01*
X121402600Y-113850254D01*
X121436876Y-113860111D01*
X121464935Y-113872165D01*
X121492424Y-113889888D01*
X121524986Y-113916748D01*
X121554965Y-113943900D01*
X121637356Y-114019879D01*
X121619928Y-114053580D01*
X121605565Y-114097595D01*
X121603232Y-114145097D01*
X121612704Y-114187933D01*
X121624235Y-114208359D01*
X121649246Y-114229434D01*
X121683297Y-114245911D01*
X121690381Y-114248088D01*
X121752784Y-114265880D01*
X121799266Y-114281322D01*
X121834640Y-114296326D01*
X121863719Y-114312803D01*
X121877887Y-114322542D01*
X121901449Y-114341742D01*
X121914307Y-114356524D01*
X121914957Y-114361633D01*
X121897775Y-114370534D01*
X121866898Y-114379959D01*
X121829675Y-114388145D01*
X121793454Y-114393326D01*
X121779325Y-114394210D01*
X121748891Y-114392534D01*
X121706655Y-114387144D01*
X121661419Y-114379179D01*
X121658550Y-114378593D01*
X121557537Y-114352468D01*
X121445574Y-114314312D01*
X121327453Y-114266240D01*
X121207969Y-114210365D01*
X121091916Y-114148804D01*
X120984088Y-114083671D01*
X120971781Y-114075617D01*
X120918087Y-114038197D01*
X120866359Y-113998608D01*
X120819461Y-113959417D01*
X120780255Y-113923192D01*
X120751607Y-113892497D01*
X120736378Y-113869901D01*
X120734667Y-113863098D01*
X120734667Y-114325988D01*
X120842978Y-114403723D01*
X120983453Y-114487044D01*
X121134061Y-114560884D01*
X121291254Y-114623444D01*
X121451488Y-114672926D01*
X121555588Y-114697224D01*
X121636828Y-114710782D01*
X121719281Y-114719361D01*
X121798110Y-114722822D01*
X121868480Y-114721025D01*
X121925554Y-114713830D01*
X121946459Y-114708529D01*
X122004611Y-114686023D01*
X122059564Y-114654943D01*
X122102958Y-114623960D01*
X122151151Y-114587174D01*
X122191680Y-114608319D01*
X122243870Y-114624997D01*
X122295457Y-114622970D01*
X122342995Y-114604507D01*
X122383041Y-114571878D01*
X122412151Y-114527353D01*
X122426880Y-114473202D01*
X122428000Y-114452582D01*
X122425909Y-114414267D01*
X122420596Y-114380160D01*
X122417068Y-114367873D01*
X122402033Y-114341391D01*
X122372851Y-114302205D01*
X122331037Y-114251853D01*
X122278101Y-114191874D01*
X122215557Y-114123805D01*
X122144918Y-114049185D01*
X122067695Y-113969552D01*
X121985401Y-113886443D01*
X121899549Y-113801399D01*
X121811651Y-113715956D01*
X121723220Y-113631652D01*
X121635768Y-113550027D01*
X121550808Y-113472617D01*
X121469851Y-113400963D01*
X121446162Y-113380466D01*
X121411308Y-113350179D01*
X121383834Y-113325712D01*
X121366806Y-113309836D01*
X121362837Y-113305166D01*
X121373825Y-113308410D01*
X121401114Y-113317321D01*
X121440992Y-113330663D01*
X121489751Y-113347204D01*
X121508191Y-113353508D01*
X121620461Y-113394052D01*
X121711862Y-113431625D01*
X121782369Y-113466213D01*
X121831955Y-113497806D01*
X121841974Y-113506014D01*
X121885313Y-113531517D01*
X121932534Y-113538521D01*
X121979355Y-113528060D01*
X122021495Y-113501163D01*
X122054672Y-113458863D01*
X122057157Y-113454170D01*
X122075085Y-113397230D01*
X122073346Y-113339038D01*
X122052752Y-113283691D01*
X122014117Y-113235282D01*
X122013635Y-113234840D01*
X121983276Y-113212831D01*
X121935780Y-113185667D01*
X121874161Y-113154662D01*
X121801436Y-113121132D01*
X121720620Y-113086391D01*
X121634729Y-113051756D01*
X121546778Y-113018540D01*
X121459783Y-112988059D01*
X121412000Y-112972482D01*
X121290990Y-112936365D01*
X121163965Y-112902359D01*
X121033616Y-112870927D01*
X120902633Y-112842535D01*
X120773707Y-112817643D01*
X120649528Y-112796717D01*
X120532787Y-112780219D01*
X120426175Y-112768613D01*
X120332382Y-112762361D01*
X120254099Y-112761928D01*
X120209457Y-112765400D01*
X120109042Y-112786482D01*
X120020321Y-112821789D01*
X119945024Y-112870146D01*
X119884885Y-112930379D01*
X119841637Y-113001315D01*
X119833950Y-113019839D01*
X119819528Y-113075953D01*
X119813960Y-113139621D01*
X119813960Y-113139621D01*
X119813960Y-113139621D01*
G37*
X119813960Y-113139621D02*
X119817227Y-113202702D01*
X119829312Y-113257055D01*
X119834516Y-113270139D01*
X119872324Y-113330455D01*
X119930202Y-113390196D01*
X120007052Y-113448658D01*
X120095293Y-113501271D01*
X120095293Y-113117752D01*
X120121292Y-113103350D01*
X120155345Y-113092208D01*
X120207147Y-113085530D01*
X120273777Y-113083220D01*
X120352317Y-113085180D01*
X120439846Y-113091313D01*
X120533444Y-113101522D01*
X120630190Y-113115709D01*
X120663230Y-113121412D01*
X120707329Y-113129635D01*
X120734600Y-113136305D01*
X120749082Y-113143422D01*
X120754814Y-113152984D01*
X120755834Y-113166990D01*
X120755834Y-113167255D01*
X120757774Y-113185082D01*
X120764956Y-113203222D01*
X120779426Y-113223999D01*
X120803227Y-113249734D01*
X120838403Y-113282749D01*
X120886999Y-113325366D01*
X120919482Y-113353140D01*
X120961840Y-113389364D01*
X120997820Y-113420514D01*
X121024635Y-113444149D01*
X121039501Y-113457825D01*
X121041584Y-113460185D01*
X121035407Y-113461244D01*
X121015857Y-113458377D01*
X120981404Y-113451254D01*
X120930517Y-113439545D01*
X120861667Y-113422918D01*
X120808750Y-113409862D01*
X120681707Y-113376206D01*
X120561312Y-113340158D01*
X120449873Y-113302607D01*
X120349696Y-113264443D01*
X120263087Y-113226556D01*
X120192352Y-113189836D01*
X120139797Y-113155172D01*
X120131876Y-113148738D01*
X120095293Y-113117752D01*
X120095293Y-113501271D01*
X120101776Y-113505137D01*
X120213279Y-113558931D01*
X120340463Y-113609336D01*
X120390709Y-113626795D01*
X120430992Y-113640314D01*
X120464048Y-113651422D01*
X120484346Y-113658259D01*
X120487255Y-113659246D01*
X120489286Y-113670402D01*
X120480546Y-113697240D01*
X120463442Y-113734215D01*
X120443719Y-113776647D01*
X120432868Y-113811495D01*
X120428405Y-113849037D01*
X120427750Y-113881810D01*
X120433041Y-113945170D01*
X120450015Y-114005242D01*
X120480326Y-114065113D01*
X120525626Y-114127871D01*
X120587571Y-114196605D01*
X120606604Y-114215833D01*
X120716179Y-114312720D01*
X120734667Y-114325988D01*
X120734667Y-113863098D01*
X120744693Y-113845399D01*
X120772583Y-113829288D01*
X120815052Y-113815436D01*
X120868818Y-113804517D01*
X120930597Y-113797202D01*
X120997106Y-113794165D01*
X121062750Y-113795922D01*
X121217656Y-113813033D01*
X121375084Y-113843531D01*
X121402600Y-113850254D01*
X121436876Y-113860111D01*
X121464935Y-113872165D01*
X121492424Y-113889888D01*
X121524986Y-113916748D01*
X121554965Y-113943900D01*
X121637356Y-114019879D01*
X121619928Y-114053580D01*
X121605565Y-114097595D01*
X121603232Y-114145097D01*
X121612704Y-114187933D01*
X121624235Y-114208359D01*
X121649246Y-114229434D01*
X121683297Y-114245911D01*
X121690381Y-114248088D01*
X121752784Y-114265880D01*
X121799266Y-114281322D01*
X121834640Y-114296326D01*
X121863719Y-114312803D01*
X121877887Y-114322542D01*
X121901449Y-114341742D01*
X121914307Y-114356524D01*
X121914957Y-114361633D01*
X121897775Y-114370534D01*
X121866898Y-114379959D01*
X121829675Y-114388145D01*
X121793454Y-114393326D01*
X121779325Y-114394210D01*
X121748891Y-114392534D01*
X121706655Y-114387144D01*
X121661419Y-114379179D01*
X121658550Y-114378593D01*
X121557537Y-114352468D01*
X121445574Y-114314312D01*
X121327453Y-114266240D01*
X121207969Y-114210365D01*
X121091916Y-114148804D01*
X120984088Y-114083671D01*
X120971781Y-114075617D01*
X120918087Y-114038197D01*
X120866359Y-113998608D01*
X120819461Y-113959417D01*
X120780255Y-113923192D01*
X120751607Y-113892497D01*
X120736378Y-113869901D01*
X120734667Y-113863098D01*
X120734667Y-114325988D01*
X120842978Y-114403723D01*
X120983453Y-114487044D01*
X121134061Y-114560884D01*
X121291254Y-114623444D01*
X121451488Y-114672926D01*
X121555588Y-114697224D01*
X121636828Y-114710782D01*
X121719281Y-114719361D01*
X121798110Y-114722822D01*
X121868480Y-114721025D01*
X121925554Y-114713830D01*
X121946459Y-114708529D01*
X122004611Y-114686023D01*
X122059564Y-114654943D01*
X122102958Y-114623960D01*
X122151151Y-114587174D01*
X122191680Y-114608319D01*
X122243870Y-114624997D01*
X122295457Y-114622970D01*
X122342995Y-114604507D01*
X122383041Y-114571878D01*
X122412151Y-114527353D01*
X122426880Y-114473202D01*
X122428000Y-114452582D01*
X122425909Y-114414267D01*
X122420596Y-114380160D01*
X122417068Y-114367873D01*
X122402033Y-114341391D01*
X122372851Y-114302205D01*
X122331037Y-114251853D01*
X122278101Y-114191874D01*
X122215557Y-114123805D01*
X122144918Y-114049185D01*
X122067695Y-113969552D01*
X121985401Y-113886443D01*
X121899549Y-113801399D01*
X121811651Y-113715956D01*
X121723220Y-113631652D01*
X121635768Y-113550027D01*
X121550808Y-113472617D01*
X121469851Y-113400963D01*
X121446162Y-113380466D01*
X121411308Y-113350179D01*
X121383834Y-113325712D01*
X121366806Y-113309836D01*
X121362837Y-113305166D01*
X121373825Y-113308410D01*
X121401114Y-113317321D01*
X121440992Y-113330663D01*
X121489751Y-113347204D01*
X121508191Y-113353508D01*
X121620461Y-113394052D01*
X121711862Y-113431625D01*
X121782369Y-113466213D01*
X121831955Y-113497806D01*
X121841974Y-113506014D01*
X121885313Y-113531517D01*
X121932534Y-113538521D01*
X121979355Y-113528060D01*
X122021495Y-113501163D01*
X122054672Y-113458863D01*
X122057157Y-113454170D01*
X122075085Y-113397230D01*
X122073346Y-113339038D01*
X122052752Y-113283691D01*
X122014117Y-113235282D01*
X122013635Y-113234840D01*
X121983276Y-113212831D01*
X121935780Y-113185667D01*
X121874161Y-113154662D01*
X121801436Y-113121132D01*
X121720620Y-113086391D01*
X121634729Y-113051756D01*
X121546778Y-113018540D01*
X121459783Y-112988059D01*
X121412000Y-112972482D01*
X121290990Y-112936365D01*
X121163965Y-112902359D01*
X121033616Y-112870927D01*
X120902633Y-112842535D01*
X120773707Y-112817643D01*
X120649528Y-112796717D01*
X120532787Y-112780219D01*
X120426175Y-112768613D01*
X120332382Y-112762361D01*
X120254099Y-112761928D01*
X120209457Y-112765400D01*
X120109042Y-112786482D01*
X120020321Y-112821789D01*
X119945024Y-112870146D01*
X119884885Y-112930379D01*
X119841637Y-113001315D01*
X119833950Y-113019839D01*
X119819528Y-113075953D01*
X119813960Y-113139621D01*
X119813960Y-113139621D01*
G36*
X117390417Y-112783697D02*
X117396952Y-112831163D01*
X117414692Y-112877653D01*
X117442575Y-112917663D01*
X117458521Y-112932383D01*
X117470724Y-112940181D01*
X117486982Y-112946114D01*
X117510647Y-112950632D01*
X117545067Y-112954185D01*
X117593591Y-112957224D01*
X117659568Y-112960199D01*
X117667837Y-112960533D01*
X117733783Y-112963385D01*
X117814718Y-112967201D01*
X117904507Y-112971674D01*
X117997011Y-112976494D01*
X118086092Y-112981355D01*
X118115292Y-112983006D01*
X118188426Y-112987161D01*
X118254837Y-112990884D01*
X118311511Y-112994011D01*
X118355437Y-112996376D01*
X118383602Y-112997816D01*
X118392703Y-112998190D01*
X118405540Y-113004651D01*
X118430669Y-113022146D01*
X118464324Y-113047917D01*
X118498536Y-113075694D01*
X118529928Y-113102403D01*
X118570680Y-113137924D01*
X118618372Y-113180065D01*
X118670584Y-113226633D01*
X118724895Y-113275436D01*
X118778886Y-113324282D01*
X118830136Y-113370977D01*
X118876226Y-113413330D01*
X118914735Y-113449147D01*
X118943243Y-113476237D01*
X118959331Y-113492406D01*
X118961795Y-113495401D01*
X118954264Y-113498848D01*
X118928033Y-113500664D01*
X118885511Y-113500791D01*
X118829108Y-113499170D01*
X118821517Y-113498855D01*
X118748715Y-113496711D01*
X118692906Y-113497843D01*
X118650068Y-113502992D01*
X118616181Y-113512897D01*
X118587221Y-113528300D01*
X118563309Y-113546409D01*
X118529465Y-113584304D01*
X118505514Y-113629829D01*
X118493330Y-113677093D01*
X118494785Y-113720200D01*
X118501898Y-113739669D01*
X118509808Y-113752349D01*
X118520043Y-113762693D01*
X118534746Y-113770987D01*
X118556055Y-113777514D01*
X118586114Y-113782559D01*
X118627063Y-113786405D01*
X118681044Y-113789337D01*
X118750198Y-113791639D01*
X118836665Y-113793594D01*
X118919625Y-113795099D01*
X119004671Y-113796841D01*
X119083847Y-113799007D01*
X119154431Y-113801481D01*
X119213700Y-113804147D01*
X119258932Y-113806888D01*
X119287404Y-113809587D01*
X119295433Y-113811184D01*
X119312067Y-113822132D01*
X119341191Y-113846215D01*
X119380616Y-113881321D01*
X119428153Y-113925334D01*
X119481613Y-113976141D01*
X119538807Y-114031628D01*
X119597545Y-114089681D01*
X119655638Y-114148185D01*
X119710898Y-114205028D01*
X119761136Y-114258095D01*
X119784653Y-114283612D01*
X119869443Y-114379306D01*
X119939066Y-114463843D01*
X119995006Y-114539134D01*
X120038748Y-114607090D01*
X120046462Y-114620499D01*
X120080118Y-114670198D01*
X120114992Y-114699805D01*
X120153434Y-114710366D01*
X120197793Y-114702924D01*
X120216008Y-114695890D01*
X120269713Y-114663002D01*
X120310817Y-114615127D01*
X120324095Y-114591858D01*
X120337717Y-114552776D01*
X120339155Y-114510114D01*
X120327675Y-114461837D01*
X120302543Y-114405905D01*
X120263023Y-114340280D01*
X120208382Y-114262926D01*
X120202807Y-114255466D01*
X120172438Y-114215336D01*
X120145505Y-114180850D01*
X120118861Y-114148328D01*
X120089356Y-114114093D01*
X120053841Y-114074464D01*
X120009168Y-114025765D01*
X119970000Y-113983487D01*
X119897216Y-113905099D01*
X119935042Y-113892095D01*
X119973522Y-113875551D01*
X119997097Y-113854727D01*
X120011932Y-113823344D01*
X120015925Y-113809732D01*
X120022273Y-113760810D01*
X120017575Y-113710115D01*
X120003529Y-113663199D01*
X119981833Y-113625616D01*
X119954186Y-113602918D01*
X119952467Y-113602188D01*
X119933360Y-113597049D01*
X119897202Y-113589566D01*
X119847895Y-113580401D01*
X119789341Y-113570215D01*
X119725441Y-113559669D01*
X119660096Y-113549425D01*
X119597209Y-113540144D01*
X119543019Y-113532786D01*
X119526789Y-113530225D01*
X119511450Y-113525960D01*
X119494887Y-113518439D01*
X119474985Y-113506112D01*
X119449628Y-113487427D01*
X119416703Y-113460833D01*
X119374093Y-113424777D01*
X119319684Y-113377710D01*
X119256895Y-113322917D01*
X119195027Y-113268870D01*
X119136062Y-113217421D01*
X119082538Y-113170780D01*
X119036994Y-113131157D01*
X119001966Y-113100762D01*
X118979994Y-113081804D01*
X118978201Y-113080270D01*
X118955420Y-113059287D01*
X118943263Y-113044902D01*
X118943578Y-113040583D01*
X118957392Y-113041655D01*
X118988789Y-113044640D01*
X119034308Y-113049192D01*
X119090485Y-113054964D01*
X119153859Y-113061610D01*
X119158510Y-113062102D01*
X119240385Y-113071518D01*
X119305267Y-113080561D01*
X119351915Y-113089028D01*
X119379090Y-113096715D01*
X119383716Y-113099144D01*
X119407524Y-113107944D01*
X119443711Y-113113329D01*
X119483686Y-113114783D01*
X119518861Y-113111793D01*
X119532985Y-113108092D01*
X119555329Y-113089060D01*
X119571086Y-113055002D01*
X119579631Y-113011203D01*
X119580338Y-112962949D01*
X119572581Y-112915522D01*
X119559781Y-112881566D01*
X119540726Y-112851492D01*
X119519476Y-112827963D01*
X119513926Y-112823722D01*
X119491379Y-112815168D01*
X119449533Y-112805719D01*
X119390229Y-112795547D01*
X119315309Y-112784825D01*
X119226615Y-112773725D01*
X119125986Y-112762420D01*
X119015265Y-112751082D01*
X118896293Y-112739883D01*
X118770911Y-112728996D01*
X118640959Y-112718594D01*
X118508280Y-112708848D01*
X118374715Y-112699931D01*
X118242104Y-112692016D01*
X118112289Y-112685274D01*
X117987111Y-112679879D01*
X117971556Y-112679296D01*
X117845856Y-112675153D01*
X117739680Y-112672789D01*
X117651455Y-112672286D01*
X117579605Y-112673724D01*
X117522557Y-112677183D01*
X117478736Y-112682746D01*
X117446569Y-112690491D01*
X117424482Y-112700501D01*
X117415204Y-112707833D01*
X117396147Y-112740753D01*
X117390417Y-112783697D01*
X117390417Y-112783697D01*
X117390417Y-112783697D01*
G37*
X117390417Y-112783697D02*
X117396952Y-112831163D01*
X117414692Y-112877653D01*
X117442575Y-112917663D01*
X117458521Y-112932383D01*
X117470724Y-112940181D01*
X117486982Y-112946114D01*
X117510647Y-112950632D01*
X117545067Y-112954185D01*
X117593591Y-112957224D01*
X117659568Y-112960199D01*
X117667837Y-112960533D01*
X117733783Y-112963385D01*
X117814718Y-112967201D01*
X117904507Y-112971674D01*
X117997011Y-112976494D01*
X118086092Y-112981355D01*
X118115292Y-112983006D01*
X118188426Y-112987161D01*
X118254837Y-112990884D01*
X118311511Y-112994011D01*
X118355437Y-112996376D01*
X118383602Y-112997816D01*
X118392703Y-112998190D01*
X118405540Y-113004651D01*
X118430669Y-113022146D01*
X118464324Y-113047917D01*
X118498536Y-113075694D01*
X118529928Y-113102403D01*
X118570680Y-113137924D01*
X118618372Y-113180065D01*
X118670584Y-113226633D01*
X118724895Y-113275436D01*
X118778886Y-113324282D01*
X118830136Y-113370977D01*
X118876226Y-113413330D01*
X118914735Y-113449147D01*
X118943243Y-113476237D01*
X118959331Y-113492406D01*
X118961795Y-113495401D01*
X118954264Y-113498848D01*
X118928033Y-113500664D01*
X118885511Y-113500791D01*
X118829108Y-113499170D01*
X118821517Y-113498855D01*
X118748715Y-113496711D01*
X118692906Y-113497843D01*
X118650068Y-113502992D01*
X118616181Y-113512897D01*
X118587221Y-113528300D01*
X118563309Y-113546409D01*
X118529465Y-113584304D01*
X118505514Y-113629829D01*
X118493330Y-113677093D01*
X118494785Y-113720200D01*
X118501898Y-113739669D01*
X118509808Y-113752349D01*
X118520043Y-113762693D01*
X118534746Y-113770987D01*
X118556055Y-113777514D01*
X118586114Y-113782559D01*
X118627063Y-113786405D01*
X118681044Y-113789337D01*
X118750198Y-113791639D01*
X118836665Y-113793594D01*
X118919625Y-113795099D01*
X119004671Y-113796841D01*
X119083847Y-113799007D01*
X119154431Y-113801481D01*
X119213700Y-113804147D01*
X119258932Y-113806888D01*
X119287404Y-113809587D01*
X119295433Y-113811184D01*
X119312067Y-113822132D01*
X119341191Y-113846215D01*
X119380616Y-113881321D01*
X119428153Y-113925334D01*
X119481613Y-113976141D01*
X119538807Y-114031628D01*
X119597545Y-114089681D01*
X119655638Y-114148185D01*
X119710898Y-114205028D01*
X119761136Y-114258095D01*
X119784653Y-114283612D01*
X119869443Y-114379306D01*
X119939066Y-114463843D01*
X119995006Y-114539134D01*
X120038748Y-114607090D01*
X120046462Y-114620499D01*
X120080118Y-114670198D01*
X120114992Y-114699805D01*
X120153434Y-114710366D01*
X120197793Y-114702924D01*
X120216008Y-114695890D01*
X120269713Y-114663002D01*
X120310817Y-114615127D01*
X120324095Y-114591858D01*
X120337717Y-114552776D01*
X120339155Y-114510114D01*
X120327675Y-114461837D01*
X120302543Y-114405905D01*
X120263023Y-114340280D01*
X120208382Y-114262926D01*
X120202807Y-114255466D01*
X120172438Y-114215336D01*
X120145505Y-114180850D01*
X120118861Y-114148328D01*
X120089356Y-114114093D01*
X120053841Y-114074464D01*
X120009168Y-114025765D01*
X119970000Y-113983487D01*
X119897216Y-113905099D01*
X119935042Y-113892095D01*
X119973522Y-113875551D01*
X119997097Y-113854727D01*
X120011932Y-113823344D01*
X120015925Y-113809732D01*
X120022273Y-113760810D01*
X120017575Y-113710115D01*
X120003529Y-113663199D01*
X119981833Y-113625616D01*
X119954186Y-113602918D01*
X119952467Y-113602188D01*
X119933360Y-113597049D01*
X119897202Y-113589566D01*
X119847895Y-113580401D01*
X119789341Y-113570215D01*
X119725441Y-113559669D01*
X119660096Y-113549425D01*
X119597209Y-113540144D01*
X119543019Y-113532786D01*
X119526789Y-113530225D01*
X119511450Y-113525960D01*
X119494887Y-113518439D01*
X119474985Y-113506112D01*
X119449628Y-113487427D01*
X119416703Y-113460833D01*
X119374093Y-113424777D01*
X119319684Y-113377710D01*
X119256895Y-113322917D01*
X119195027Y-113268870D01*
X119136062Y-113217421D01*
X119082538Y-113170780D01*
X119036994Y-113131157D01*
X119001966Y-113100762D01*
X118979994Y-113081804D01*
X118978201Y-113080270D01*
X118955420Y-113059287D01*
X118943263Y-113044902D01*
X118943578Y-113040583D01*
X118957392Y-113041655D01*
X118988789Y-113044640D01*
X119034308Y-113049192D01*
X119090485Y-113054964D01*
X119153859Y-113061610D01*
X119158510Y-113062102D01*
X119240385Y-113071518D01*
X119305267Y-113080561D01*
X119351915Y-113089028D01*
X119379090Y-113096715D01*
X119383716Y-113099144D01*
X119407524Y-113107944D01*
X119443711Y-113113329D01*
X119483686Y-113114783D01*
X119518861Y-113111793D01*
X119532985Y-113108092D01*
X119555329Y-113089060D01*
X119571086Y-113055002D01*
X119579631Y-113011203D01*
X119580338Y-112962949D01*
X119572581Y-112915522D01*
X119559781Y-112881566D01*
X119540726Y-112851492D01*
X119519476Y-112827963D01*
X119513926Y-112823722D01*
X119491379Y-112815168D01*
X119449533Y-112805719D01*
X119390229Y-112795547D01*
X119315309Y-112784825D01*
X119226615Y-112773725D01*
X119125986Y-112762420D01*
X119015265Y-112751082D01*
X118896293Y-112739883D01*
X118770911Y-112728996D01*
X118640959Y-112718594D01*
X118508280Y-112708848D01*
X118374715Y-112699931D01*
X118242104Y-112692016D01*
X118112289Y-112685274D01*
X117987111Y-112679879D01*
X117971556Y-112679296D01*
X117845856Y-112675153D01*
X117739680Y-112672789D01*
X117651455Y-112672286D01*
X117579605Y-112673724D01*
X117522557Y-112677183D01*
X117478736Y-112682746D01*
X117446569Y-112690491D01*
X117424482Y-112700501D01*
X117415204Y-112707833D01*
X117396147Y-112740753D01*
X117390417Y-112783697D01*
X117390417Y-112783697D01*
D16*
X128270000Y-98679000D02*
X128270000Y-104140000D01*
X128270000Y-104140000D02*
X125730000Y-104140000D01*
X125730000Y-104140000D02*
X125730000Y-98679000D01*
X125730000Y-99060000D02*
X128270000Y-99060000D01*
X125730000Y-98933000D02*
X128270000Y-98933000D01*
X125730000Y-98806000D02*
X128270000Y-98806000D01*
X125730000Y-98679000D02*
X128270000Y-98679000D01*
X114300000Y-98679000D02*
X114300000Y-104140000D01*
X114300000Y-104140000D02*
X111760000Y-104140000D01*
X111760000Y-104140000D02*
X111760000Y-98679000D01*
X111760000Y-99060000D02*
X114300000Y-99060000D01*
X111760000Y-98933000D02*
X114300000Y-98933000D01*
X111760000Y-98806000D02*
X114300000Y-98806000D01*
X111760000Y-98679000D02*
X114300000Y-98679000D01*
D15*
G36*
X143527379Y-107875960D02*
X143464298Y-107879227D01*
X143409945Y-107891312D01*
X143396861Y-107896516D01*
X143336545Y-107934324D01*
X143276804Y-107992202D01*
X143218342Y-108069052D01*
X143165729Y-108157293D01*
X143549248Y-108157293D01*
X143563650Y-108183292D01*
X143574792Y-108217345D01*
X143581470Y-108269147D01*
X143583780Y-108335777D01*
X143581820Y-108414317D01*
X143575687Y-108501846D01*
X143565478Y-108595444D01*
X143551291Y-108692190D01*
X143545588Y-108725230D01*
X143537365Y-108769329D01*
X143530695Y-108796600D01*
X143523578Y-108811082D01*
X143514016Y-108816814D01*
X143500010Y-108817834D01*
X143499745Y-108817834D01*
X143481918Y-108819774D01*
X143463778Y-108826956D01*
X143443001Y-108841426D01*
X143417266Y-108865227D01*
X143384251Y-108900403D01*
X143341634Y-108948999D01*
X143313860Y-108981482D01*
X143277636Y-109023840D01*
X143246486Y-109059820D01*
X143222851Y-109086635D01*
X143209175Y-109101501D01*
X143206815Y-109103584D01*
X143205756Y-109097407D01*
X143208623Y-109077857D01*
X143215746Y-109043404D01*
X143227455Y-108992517D01*
X143244082Y-108923667D01*
X143257138Y-108870750D01*
X143290794Y-108743707D01*
X143326842Y-108623312D01*
X143364393Y-108511873D01*
X143402557Y-108411696D01*
X143440444Y-108325087D01*
X143477164Y-108254352D01*
X143511828Y-108201797D01*
X143518262Y-108193876D01*
X143549248Y-108157293D01*
X143165729Y-108157293D01*
X143161863Y-108163776D01*
X143108069Y-108275279D01*
X143057664Y-108402463D01*
X143040205Y-108452709D01*
X143026686Y-108492992D01*
X143015578Y-108526048D01*
X143008741Y-108546346D01*
X143007754Y-108549255D01*
X142996598Y-108551286D01*
X142969760Y-108542546D01*
X142932785Y-108525442D01*
X142890353Y-108505719D01*
X142855505Y-108494868D01*
X142817963Y-108490405D01*
X142785190Y-108489750D01*
X142721830Y-108495041D01*
X142661758Y-108512015D01*
X142601887Y-108542326D01*
X142539129Y-108587626D01*
X142470395Y-108649571D01*
X142451167Y-108668604D01*
X142354280Y-108778179D01*
X142341012Y-108796667D01*
X142803902Y-108796667D01*
X142821601Y-108806693D01*
X142837712Y-108834583D01*
X142851564Y-108877052D01*
X142862483Y-108930818D01*
X142869798Y-108992597D01*
X142872835Y-109059106D01*
X142871078Y-109124750D01*
X142853967Y-109279656D01*
X142823469Y-109437084D01*
X142816746Y-109464600D01*
X142806889Y-109498876D01*
X142794835Y-109526935D01*
X142777112Y-109554424D01*
X142750252Y-109586986D01*
X142723100Y-109616965D01*
X142647121Y-109699356D01*
X142613420Y-109681928D01*
X142569405Y-109667565D01*
X142521903Y-109665232D01*
X142479067Y-109674704D01*
X142458641Y-109686235D01*
X142437566Y-109711246D01*
X142421089Y-109745297D01*
X142418912Y-109752381D01*
X142401120Y-109814784D01*
X142385678Y-109861266D01*
X142370674Y-109896640D01*
X142354197Y-109925719D01*
X142344458Y-109939887D01*
X142325258Y-109963449D01*
X142310476Y-109976307D01*
X142305367Y-109976957D01*
X142296466Y-109959775D01*
X142287041Y-109928898D01*
X142278855Y-109891675D01*
X142273674Y-109855454D01*
X142272790Y-109841325D01*
X142274466Y-109810891D01*
X142279856Y-109768655D01*
X142287821Y-109723419D01*
X142288407Y-109720550D01*
X142314532Y-109619537D01*
X142352688Y-109507574D01*
X142400760Y-109389453D01*
X142456635Y-109269969D01*
X142518196Y-109153916D01*
X142583329Y-109046088D01*
X142591383Y-109033781D01*
X142628803Y-108980087D01*
X142668392Y-108928359D01*
X142707583Y-108881461D01*
X142743808Y-108842255D01*
X142774503Y-108813607D01*
X142797099Y-108798378D01*
X142803902Y-108796667D01*
X142341012Y-108796667D01*
X142263277Y-108904978D01*
X142179956Y-109045453D01*
X142106116Y-109196061D01*
X142043556Y-109353254D01*
X141994074Y-109513488D01*
X141969776Y-109617588D01*
X141956218Y-109698828D01*
X141947639Y-109781281D01*
X141944178Y-109860110D01*
X141945975Y-109930480D01*
X141953170Y-109987554D01*
X141958471Y-110008459D01*
X141980977Y-110066611D01*
X142012057Y-110121564D01*
X142043040Y-110164958D01*
X142079826Y-110213151D01*
X142058681Y-110253680D01*
X142042003Y-110305870D01*
X142044030Y-110357457D01*
X142062493Y-110404995D01*
X142095122Y-110445041D01*
X142139647Y-110474151D01*
X142193798Y-110488880D01*
X142214418Y-110490000D01*
X142252733Y-110487909D01*
X142286840Y-110482596D01*
X142299127Y-110479068D01*
X142325609Y-110464033D01*
X142364795Y-110434851D01*
X142415147Y-110393037D01*
X142475126Y-110340101D01*
X142543195Y-110277557D01*
X142617815Y-110206918D01*
X142697448Y-110129695D01*
X142780557Y-110047401D01*
X142865601Y-109961549D01*
X142951044Y-109873651D01*
X143035348Y-109785220D01*
X143116973Y-109697768D01*
X143194383Y-109612808D01*
X143266037Y-109531851D01*
X143286534Y-109508162D01*
X143316821Y-109473308D01*
X143341288Y-109445834D01*
X143357164Y-109428806D01*
X143361834Y-109424837D01*
X143358590Y-109435825D01*
X143349679Y-109463114D01*
X143336337Y-109502992D01*
X143319796Y-109551751D01*
X143313492Y-109570191D01*
X143272948Y-109682461D01*
X143235375Y-109773862D01*
X143200787Y-109844369D01*
X143169194Y-109893955D01*
X143160986Y-109903974D01*
X143135483Y-109947313D01*
X143128479Y-109994534D01*
X143138940Y-110041355D01*
X143165837Y-110083495D01*
X143208137Y-110116672D01*
X143212830Y-110119157D01*
X143269770Y-110137085D01*
X143327962Y-110135346D01*
X143383309Y-110114752D01*
X143431718Y-110076117D01*
X143432160Y-110075635D01*
X143454169Y-110045276D01*
X143481333Y-109997780D01*
X143512338Y-109936161D01*
X143545868Y-109863436D01*
X143580609Y-109782620D01*
X143615244Y-109696729D01*
X143648460Y-109608778D01*
X143678941Y-109521783D01*
X143694518Y-109474000D01*
X143730635Y-109352990D01*
X143764641Y-109225965D01*
X143796073Y-109095616D01*
X143824465Y-108964633D01*
X143849357Y-108835707D01*
X143870283Y-108711528D01*
X143886781Y-108594787D01*
X143898387Y-108488175D01*
X143904639Y-108394382D01*
X143905072Y-108316099D01*
X143901600Y-108271457D01*
X143880518Y-108171042D01*
X143845211Y-108082321D01*
X143796854Y-108007024D01*
X143736621Y-107946885D01*
X143665685Y-107903637D01*
X143647161Y-107895950D01*
X143591047Y-107881528D01*
X143527379Y-107875960D01*
X143527379Y-107875960D01*
X143527379Y-107875960D01*
G37*
X143527379Y-107875960D02*
X143464298Y-107879227D01*
X143409945Y-107891312D01*
X143396861Y-107896516D01*
X143336545Y-107934324D01*
X143276804Y-107992202D01*
X143218342Y-108069052D01*
X143165729Y-108157293D01*
X143549248Y-108157293D01*
X143563650Y-108183292D01*
X143574792Y-108217345D01*
X143581470Y-108269147D01*
X143583780Y-108335777D01*
X143581820Y-108414317D01*
X143575687Y-108501846D01*
X143565478Y-108595444D01*
X143551291Y-108692190D01*
X143545588Y-108725230D01*
X143537365Y-108769329D01*
X143530695Y-108796600D01*
X143523578Y-108811082D01*
X143514016Y-108816814D01*
X143500010Y-108817834D01*
X143499745Y-108817834D01*
X143481918Y-108819774D01*
X143463778Y-108826956D01*
X143443001Y-108841426D01*
X143417266Y-108865227D01*
X143384251Y-108900403D01*
X143341634Y-108948999D01*
X143313860Y-108981482D01*
X143277636Y-109023840D01*
X143246486Y-109059820D01*
X143222851Y-109086635D01*
X143209175Y-109101501D01*
X143206815Y-109103584D01*
X143205756Y-109097407D01*
X143208623Y-109077857D01*
X143215746Y-109043404D01*
X143227455Y-108992517D01*
X143244082Y-108923667D01*
X143257138Y-108870750D01*
X143290794Y-108743707D01*
X143326842Y-108623312D01*
X143364393Y-108511873D01*
X143402557Y-108411696D01*
X143440444Y-108325087D01*
X143477164Y-108254352D01*
X143511828Y-108201797D01*
X143518262Y-108193876D01*
X143549248Y-108157293D01*
X143165729Y-108157293D01*
X143161863Y-108163776D01*
X143108069Y-108275279D01*
X143057664Y-108402463D01*
X143040205Y-108452709D01*
X143026686Y-108492992D01*
X143015578Y-108526048D01*
X143008741Y-108546346D01*
X143007754Y-108549255D01*
X142996598Y-108551286D01*
X142969760Y-108542546D01*
X142932785Y-108525442D01*
X142890353Y-108505719D01*
X142855505Y-108494868D01*
X142817963Y-108490405D01*
X142785190Y-108489750D01*
X142721830Y-108495041D01*
X142661758Y-108512015D01*
X142601887Y-108542326D01*
X142539129Y-108587626D01*
X142470395Y-108649571D01*
X142451167Y-108668604D01*
X142354280Y-108778179D01*
X142341012Y-108796667D01*
X142803902Y-108796667D01*
X142821601Y-108806693D01*
X142837712Y-108834583D01*
X142851564Y-108877052D01*
X142862483Y-108930818D01*
X142869798Y-108992597D01*
X142872835Y-109059106D01*
X142871078Y-109124750D01*
X142853967Y-109279656D01*
X142823469Y-109437084D01*
X142816746Y-109464600D01*
X142806889Y-109498876D01*
X142794835Y-109526935D01*
X142777112Y-109554424D01*
X142750252Y-109586986D01*
X142723100Y-109616965D01*
X142647121Y-109699356D01*
X142613420Y-109681928D01*
X142569405Y-109667565D01*
X142521903Y-109665232D01*
X142479067Y-109674704D01*
X142458641Y-109686235D01*
X142437566Y-109711246D01*
X142421089Y-109745297D01*
X142418912Y-109752381D01*
X142401120Y-109814784D01*
X142385678Y-109861266D01*
X142370674Y-109896640D01*
X142354197Y-109925719D01*
X142344458Y-109939887D01*
X142325258Y-109963449D01*
X142310476Y-109976307D01*
X142305367Y-109976957D01*
X142296466Y-109959775D01*
X142287041Y-109928898D01*
X142278855Y-109891675D01*
X142273674Y-109855454D01*
X142272790Y-109841325D01*
X142274466Y-109810891D01*
X142279856Y-109768655D01*
X142287821Y-109723419D01*
X142288407Y-109720550D01*
X142314532Y-109619537D01*
X142352688Y-109507574D01*
X142400760Y-109389453D01*
X142456635Y-109269969D01*
X142518196Y-109153916D01*
X142583329Y-109046088D01*
X142591383Y-109033781D01*
X142628803Y-108980087D01*
X142668392Y-108928359D01*
X142707583Y-108881461D01*
X142743808Y-108842255D01*
X142774503Y-108813607D01*
X142797099Y-108798378D01*
X142803902Y-108796667D01*
X142341012Y-108796667D01*
X142263277Y-108904978D01*
X142179956Y-109045453D01*
X142106116Y-109196061D01*
X142043556Y-109353254D01*
X141994074Y-109513488D01*
X141969776Y-109617588D01*
X141956218Y-109698828D01*
X141947639Y-109781281D01*
X141944178Y-109860110D01*
X141945975Y-109930480D01*
X141953170Y-109987554D01*
X141958471Y-110008459D01*
X141980977Y-110066611D01*
X142012057Y-110121564D01*
X142043040Y-110164958D01*
X142079826Y-110213151D01*
X142058681Y-110253680D01*
X142042003Y-110305870D01*
X142044030Y-110357457D01*
X142062493Y-110404995D01*
X142095122Y-110445041D01*
X142139647Y-110474151D01*
X142193798Y-110488880D01*
X142214418Y-110490000D01*
X142252733Y-110487909D01*
X142286840Y-110482596D01*
X142299127Y-110479068D01*
X142325609Y-110464033D01*
X142364795Y-110434851D01*
X142415147Y-110393037D01*
X142475126Y-110340101D01*
X142543195Y-110277557D01*
X142617815Y-110206918D01*
X142697448Y-110129695D01*
X142780557Y-110047401D01*
X142865601Y-109961549D01*
X142951044Y-109873651D01*
X143035348Y-109785220D01*
X143116973Y-109697768D01*
X143194383Y-109612808D01*
X143266037Y-109531851D01*
X143286534Y-109508162D01*
X143316821Y-109473308D01*
X143341288Y-109445834D01*
X143357164Y-109428806D01*
X143361834Y-109424837D01*
X143358590Y-109435825D01*
X143349679Y-109463114D01*
X143336337Y-109502992D01*
X143319796Y-109551751D01*
X143313492Y-109570191D01*
X143272948Y-109682461D01*
X143235375Y-109773862D01*
X143200787Y-109844369D01*
X143169194Y-109893955D01*
X143160986Y-109903974D01*
X143135483Y-109947313D01*
X143128479Y-109994534D01*
X143138940Y-110041355D01*
X143165837Y-110083495D01*
X143208137Y-110116672D01*
X143212830Y-110119157D01*
X143269770Y-110137085D01*
X143327962Y-110135346D01*
X143383309Y-110114752D01*
X143431718Y-110076117D01*
X143432160Y-110075635D01*
X143454169Y-110045276D01*
X143481333Y-109997780D01*
X143512338Y-109936161D01*
X143545868Y-109863436D01*
X143580609Y-109782620D01*
X143615244Y-109696729D01*
X143648460Y-109608778D01*
X143678941Y-109521783D01*
X143694518Y-109474000D01*
X143730635Y-109352990D01*
X143764641Y-109225965D01*
X143796073Y-109095616D01*
X143824465Y-108964633D01*
X143849357Y-108835707D01*
X143870283Y-108711528D01*
X143886781Y-108594787D01*
X143898387Y-108488175D01*
X143904639Y-108394382D01*
X143905072Y-108316099D01*
X143901600Y-108271457D01*
X143880518Y-108171042D01*
X143845211Y-108082321D01*
X143796854Y-108007024D01*
X143736621Y-107946885D01*
X143665685Y-107903637D01*
X143647161Y-107895950D01*
X143591047Y-107881528D01*
X143527379Y-107875960D01*
X143527379Y-107875960D01*
G36*
X143883303Y-105452417D02*
X143835837Y-105458952D01*
X143789347Y-105476692D01*
X143749337Y-105504575D01*
X143734617Y-105520521D01*
X143726819Y-105532724D01*
X143720886Y-105548982D01*
X143716368Y-105572647D01*
X143712815Y-105607067D01*
X143709776Y-105655591D01*
X143706801Y-105721568D01*
X143706467Y-105729837D01*
X143703615Y-105795783D01*
X143699799Y-105876718D01*
X143695326Y-105966507D01*
X143690506Y-106059011D01*
X143685645Y-106148092D01*
X143683994Y-106177292D01*
X143679839Y-106250426D01*
X143676116Y-106316837D01*
X143672989Y-106373511D01*
X143670624Y-106417437D01*
X143669184Y-106445602D01*
X143668810Y-106454703D01*
X143662349Y-106467540D01*
X143644854Y-106492669D01*
X143619083Y-106526324D01*
X143591306Y-106560536D01*
X143564597Y-106591928D01*
X143529076Y-106632680D01*
X143486935Y-106680372D01*
X143440367Y-106732584D01*
X143391564Y-106786895D01*
X143342718Y-106840886D01*
X143296023Y-106892136D01*
X143253670Y-106938226D01*
X143217853Y-106976735D01*
X143190763Y-107005243D01*
X143174594Y-107021331D01*
X143171599Y-107023795D01*
X143168152Y-107016264D01*
X143166336Y-106990033D01*
X143166209Y-106947511D01*
X143167830Y-106891108D01*
X143168145Y-106883517D01*
X143170289Y-106810715D01*
X143169157Y-106754906D01*
X143164008Y-106712068D01*
X143154103Y-106678181D01*
X143138700Y-106649221D01*
X143120591Y-106625309D01*
X143082696Y-106591465D01*
X143037171Y-106567514D01*
X142989907Y-106555330D01*
X142946800Y-106556785D01*
X142927331Y-106563898D01*
X142914651Y-106571808D01*
X142904307Y-106582043D01*
X142896013Y-106596746D01*
X142889486Y-106618055D01*
X142884441Y-106648114D01*
X142880595Y-106689063D01*
X142877663Y-106743044D01*
X142875361Y-106812198D01*
X142873406Y-106898665D01*
X142871901Y-106981625D01*
X142870159Y-107066671D01*
X142867993Y-107145847D01*
X142865519Y-107216431D01*
X142862853Y-107275700D01*
X142860112Y-107320932D01*
X142857413Y-107349404D01*
X142855816Y-107357433D01*
X142844868Y-107374067D01*
X142820785Y-107403191D01*
X142785679Y-107442616D01*
X142741666Y-107490153D01*
X142690859Y-107543613D01*
X142635372Y-107600807D01*
X142577319Y-107659545D01*
X142518815Y-107717638D01*
X142461972Y-107772898D01*
X142408905Y-107823136D01*
X142383388Y-107846653D01*
X142287694Y-107931443D01*
X142203157Y-108001066D01*
X142127866Y-108057006D01*
X142059910Y-108100748D01*
X142046501Y-108108462D01*
X141996802Y-108142118D01*
X141967195Y-108176992D01*
X141956634Y-108215434D01*
X141964076Y-108259793D01*
X141971110Y-108278008D01*
X142003998Y-108331713D01*
X142051873Y-108372817D01*
X142075142Y-108386095D01*
X142114224Y-108399717D01*
X142156886Y-108401155D01*
X142205163Y-108389675D01*
X142261095Y-108364543D01*
X142326720Y-108325023D01*
X142404074Y-108270382D01*
X142411534Y-108264807D01*
X142451664Y-108234438D01*
X142486150Y-108207505D01*
X142518672Y-108180861D01*
X142552907Y-108151356D01*
X142592536Y-108115841D01*
X142641235Y-108071168D01*
X142683513Y-108032000D01*
X142761901Y-107959216D01*
X142774905Y-107997042D01*
X142791449Y-108035522D01*
X142812273Y-108059097D01*
X142843656Y-108073932D01*
X142857268Y-108077925D01*
X142906190Y-108084273D01*
X142956885Y-108079575D01*
X143003801Y-108065529D01*
X143041384Y-108043833D01*
X143064082Y-108016186D01*
X143064812Y-108014467D01*
X143069951Y-107995360D01*
X143077434Y-107959202D01*
X143086599Y-107909895D01*
X143096785Y-107851341D01*
X143107331Y-107787441D01*
X143117575Y-107722096D01*
X143126856Y-107659209D01*
X143134214Y-107605019D01*
X143136775Y-107588789D01*
X143141040Y-107573450D01*
X143148561Y-107556887D01*
X143160888Y-107536985D01*
X143179573Y-107511628D01*
X143206167Y-107478703D01*
X143242223Y-107436093D01*
X143289290Y-107381684D01*
X143344083Y-107318895D01*
X143398130Y-107257027D01*
X143449579Y-107198062D01*
X143496220Y-107144538D01*
X143535843Y-107098994D01*
X143566238Y-107063966D01*
X143585196Y-107041994D01*
X143586730Y-107040201D01*
X143607713Y-107017420D01*
X143622098Y-107005263D01*
X143626417Y-107005578D01*
X143625345Y-107019392D01*
X143622360Y-107050789D01*
X143617808Y-107096308D01*
X143612036Y-107152485D01*
X143605390Y-107215859D01*
X143604898Y-107220510D01*
X143595482Y-107302385D01*
X143586439Y-107367267D01*
X143577972Y-107413915D01*
X143570285Y-107441090D01*
X143567856Y-107445716D01*
X143559056Y-107469524D01*
X143553671Y-107505711D01*
X143552217Y-107545686D01*
X143555207Y-107580861D01*
X143558908Y-107594985D01*
X143577940Y-107617329D01*
X143611998Y-107633086D01*
X143655797Y-107641631D01*
X143704051Y-107642338D01*
X143751478Y-107634581D01*
X143785434Y-107621781D01*
X143815508Y-107602726D01*
X143839037Y-107581476D01*
X143843278Y-107575926D01*
X143851832Y-107553379D01*
X143861281Y-107511533D01*
X143871453Y-107452229D01*
X143882175Y-107377309D01*
X143893275Y-107288615D01*
X143904580Y-107187986D01*
X143915918Y-107077265D01*
X143927117Y-106958293D01*
X143938004Y-106832911D01*
X143948406Y-106702959D01*
X143958152Y-106570280D01*
X143967069Y-106436715D01*
X143974984Y-106304104D01*
X143981726Y-106174289D01*
X143987121Y-106049111D01*
X143987704Y-106033556D01*
X143991847Y-105907856D01*
X143994211Y-105801680D01*
X143994714Y-105713455D01*
X143993276Y-105641605D01*
X143989817Y-105584557D01*
X143984254Y-105540736D01*
X143976509Y-105508569D01*
X143966499Y-105486482D01*
X143959167Y-105477204D01*
X143926247Y-105458147D01*
X143883303Y-105452417D01*
X143883303Y-105452417D01*
X143883303Y-105452417D01*
G37*
X143883303Y-105452417D02*
X143835837Y-105458952D01*
X143789347Y-105476692D01*
X143749337Y-105504575D01*
X143734617Y-105520521D01*
X143726819Y-105532724D01*
X143720886Y-105548982D01*
X143716368Y-105572647D01*
X143712815Y-105607067D01*
X143709776Y-105655591D01*
X143706801Y-105721568D01*
X143706467Y-105729837D01*
X143703615Y-105795783D01*
X143699799Y-105876718D01*
X143695326Y-105966507D01*
X143690506Y-106059011D01*
X143685645Y-106148092D01*
X143683994Y-106177292D01*
X143679839Y-106250426D01*
X143676116Y-106316837D01*
X143672989Y-106373511D01*
X143670624Y-106417437D01*
X143669184Y-106445602D01*
X143668810Y-106454703D01*
X143662349Y-106467540D01*
X143644854Y-106492669D01*
X143619083Y-106526324D01*
X143591306Y-106560536D01*
X143564597Y-106591928D01*
X143529076Y-106632680D01*
X143486935Y-106680372D01*
X143440367Y-106732584D01*
X143391564Y-106786895D01*
X143342718Y-106840886D01*
X143296023Y-106892136D01*
X143253670Y-106938226D01*
X143217853Y-106976735D01*
X143190763Y-107005243D01*
X143174594Y-107021331D01*
X143171599Y-107023795D01*
X143168152Y-107016264D01*
X143166336Y-106990033D01*
X143166209Y-106947511D01*
X143167830Y-106891108D01*
X143168145Y-106883517D01*
X143170289Y-106810715D01*
X143169157Y-106754906D01*
X143164008Y-106712068D01*
X143154103Y-106678181D01*
X143138700Y-106649221D01*
X143120591Y-106625309D01*
X143082696Y-106591465D01*
X143037171Y-106567514D01*
X142989907Y-106555330D01*
X142946800Y-106556785D01*
X142927331Y-106563898D01*
X142914651Y-106571808D01*
X142904307Y-106582043D01*
X142896013Y-106596746D01*
X142889486Y-106618055D01*
X142884441Y-106648114D01*
X142880595Y-106689063D01*
X142877663Y-106743044D01*
X142875361Y-106812198D01*
X142873406Y-106898665D01*
X142871901Y-106981625D01*
X142870159Y-107066671D01*
X142867993Y-107145847D01*
X142865519Y-107216431D01*
X142862853Y-107275700D01*
X142860112Y-107320932D01*
X142857413Y-107349404D01*
X142855816Y-107357433D01*
X142844868Y-107374067D01*
X142820785Y-107403191D01*
X142785679Y-107442616D01*
X142741666Y-107490153D01*
X142690859Y-107543613D01*
X142635372Y-107600807D01*
X142577319Y-107659545D01*
X142518815Y-107717638D01*
X142461972Y-107772898D01*
X142408905Y-107823136D01*
X142383388Y-107846653D01*
X142287694Y-107931443D01*
X142203157Y-108001066D01*
X142127866Y-108057006D01*
X142059910Y-108100748D01*
X142046501Y-108108462D01*
X141996802Y-108142118D01*
X141967195Y-108176992D01*
X141956634Y-108215434D01*
X141964076Y-108259793D01*
X141971110Y-108278008D01*
X142003998Y-108331713D01*
X142051873Y-108372817D01*
X142075142Y-108386095D01*
X142114224Y-108399717D01*
X142156886Y-108401155D01*
X142205163Y-108389675D01*
X142261095Y-108364543D01*
X142326720Y-108325023D01*
X142404074Y-108270382D01*
X142411534Y-108264807D01*
X142451664Y-108234438D01*
X142486150Y-108207505D01*
X142518672Y-108180861D01*
X142552907Y-108151356D01*
X142592536Y-108115841D01*
X142641235Y-108071168D01*
X142683513Y-108032000D01*
X142761901Y-107959216D01*
X142774905Y-107997042D01*
X142791449Y-108035522D01*
X142812273Y-108059097D01*
X142843656Y-108073932D01*
X142857268Y-108077925D01*
X142906190Y-108084273D01*
X142956885Y-108079575D01*
X143003801Y-108065529D01*
X143041384Y-108043833D01*
X143064082Y-108016186D01*
X143064812Y-108014467D01*
X143069951Y-107995360D01*
X143077434Y-107959202D01*
X143086599Y-107909895D01*
X143096785Y-107851341D01*
X143107331Y-107787441D01*
X143117575Y-107722096D01*
X143126856Y-107659209D01*
X143134214Y-107605019D01*
X143136775Y-107588789D01*
X143141040Y-107573450D01*
X143148561Y-107556887D01*
X143160888Y-107536985D01*
X143179573Y-107511628D01*
X143206167Y-107478703D01*
X143242223Y-107436093D01*
X143289290Y-107381684D01*
X143344083Y-107318895D01*
X143398130Y-107257027D01*
X143449579Y-107198062D01*
X143496220Y-107144538D01*
X143535843Y-107098994D01*
X143566238Y-107063966D01*
X143585196Y-107041994D01*
X143586730Y-107040201D01*
X143607713Y-107017420D01*
X143622098Y-107005263D01*
X143626417Y-107005578D01*
X143625345Y-107019392D01*
X143622360Y-107050789D01*
X143617808Y-107096308D01*
X143612036Y-107152485D01*
X143605390Y-107215859D01*
X143604898Y-107220510D01*
X143595482Y-107302385D01*
X143586439Y-107367267D01*
X143577972Y-107413915D01*
X143570285Y-107441090D01*
X143567856Y-107445716D01*
X143559056Y-107469524D01*
X143553671Y-107505711D01*
X143552217Y-107545686D01*
X143555207Y-107580861D01*
X143558908Y-107594985D01*
X143577940Y-107617329D01*
X143611998Y-107633086D01*
X143655797Y-107641631D01*
X143704051Y-107642338D01*
X143751478Y-107634581D01*
X143785434Y-107621781D01*
X143815508Y-107602726D01*
X143839037Y-107581476D01*
X143843278Y-107575926D01*
X143851832Y-107553379D01*
X143861281Y-107511533D01*
X143871453Y-107452229D01*
X143882175Y-107377309D01*
X143893275Y-107288615D01*
X143904580Y-107187986D01*
X143915918Y-107077265D01*
X143927117Y-106958293D01*
X143938004Y-106832911D01*
X143948406Y-106702959D01*
X143958152Y-106570280D01*
X143967069Y-106436715D01*
X143974984Y-106304104D01*
X143981726Y-106174289D01*
X143987121Y-106049111D01*
X143987704Y-106033556D01*
X143991847Y-105907856D01*
X143994211Y-105801680D01*
X143994714Y-105713455D01*
X143993276Y-105641605D01*
X143989817Y-105584557D01*
X143984254Y-105540736D01*
X143976509Y-105508569D01*
X143966499Y-105486482D01*
X143959167Y-105477204D01*
X143926247Y-105458147D01*
X143883303Y-105452417D01*
X143883303Y-105452417D01*
D14*
G36*
X150759160Y-109722920D02*
X150738840Y-109712760D01*
X150695660Y-109684820D01*
X150632160Y-109641640D01*
X150555960Y-109593380D01*
X150482300Y-109540040D01*
X150418800Y-109499400D01*
X150375620Y-109471460D01*
X150357840Y-109461300D01*
X150347680Y-109466380D01*
X150312120Y-109481620D01*
X150258780Y-109509560D01*
X150230840Y-109524800D01*
X150182580Y-109545120D01*
X150157180Y-109550200D01*
X150154640Y-109542580D01*
X150136860Y-109507020D01*
X150108920Y-109443520D01*
X150073360Y-109362240D01*
X150032720Y-109265720D01*
X149987000Y-109161580D01*
X149943820Y-109054900D01*
X149900640Y-108953300D01*
X149865080Y-108861860D01*
X149834600Y-108788200D01*
X149814280Y-108737400D01*
X149806660Y-108714540D01*
X149809200Y-108709460D01*
X149834600Y-108686600D01*
X149875240Y-108656120D01*
X149964140Y-108582460D01*
X150055580Y-108470700D01*
X150108920Y-108343700D01*
X150126700Y-108204000D01*
X150111460Y-108077000D01*
X150060660Y-107950000D01*
X149974300Y-107838240D01*
X149867620Y-107754420D01*
X149743160Y-107703620D01*
X149606000Y-107685840D01*
X149473920Y-107701080D01*
X149346920Y-107751880D01*
X149235160Y-107835700D01*
X149186900Y-107891580D01*
X149120860Y-108005880D01*
X149085300Y-108127800D01*
X149080220Y-108158280D01*
X149085300Y-108290360D01*
X149125940Y-108417360D01*
X149197060Y-108531660D01*
X149293580Y-108625640D01*
X149306280Y-108635800D01*
X149352000Y-108668820D01*
X149382480Y-108694220D01*
X149405340Y-108712000D01*
X149235160Y-109123480D01*
X149207220Y-109186980D01*
X149161500Y-109298740D01*
X149120860Y-109395260D01*
X149087840Y-109474000D01*
X149064980Y-109524800D01*
X149054820Y-109545120D01*
X149054820Y-109547660D01*
X149039580Y-109550200D01*
X149006560Y-109537500D01*
X148950680Y-109509560D01*
X148912580Y-109491780D01*
X148869400Y-109468920D01*
X148849080Y-109461300D01*
X148833840Y-109471460D01*
X148790660Y-109496860D01*
X148729700Y-109537500D01*
X148656040Y-109588300D01*
X148587460Y-109636560D01*
X148521420Y-109679740D01*
X148475700Y-109707680D01*
X148452840Y-109720380D01*
X148450300Y-109720380D01*
X148429980Y-109710220D01*
X148391880Y-109679740D01*
X148336000Y-109626400D01*
X148257260Y-109547660D01*
X148244560Y-109534960D01*
X148181060Y-109468920D01*
X148127720Y-109413040D01*
X148092160Y-109374940D01*
X148079460Y-109357160D01*
X148079460Y-109357160D01*
X148092160Y-109334300D01*
X148120100Y-109288580D01*
X148163280Y-109222540D01*
X148214080Y-109146340D01*
X148351240Y-108948220D01*
X148277580Y-108762800D01*
X148254720Y-108706920D01*
X148224240Y-108635800D01*
X148203920Y-108587540D01*
X148191220Y-108564680D01*
X148170900Y-108559600D01*
X148120100Y-108546900D01*
X148046440Y-108531660D01*
X147957540Y-108513880D01*
X147873720Y-108498640D01*
X147797520Y-108485940D01*
X147744180Y-108473240D01*
X147718780Y-108468160D01*
X147713700Y-108465620D01*
X147708620Y-108452920D01*
X147706080Y-108427520D01*
X147703540Y-108381800D01*
X147703540Y-108310680D01*
X147703540Y-108204000D01*
X147703540Y-108196380D01*
X147703540Y-108094780D01*
X147706080Y-108016040D01*
X147708620Y-107962700D01*
X147711160Y-107942380D01*
X147711160Y-107942380D01*
X147734020Y-107934760D01*
X147789900Y-107924600D01*
X147863560Y-107909360D01*
X147955000Y-107891580D01*
X147960080Y-107891580D01*
X148051520Y-107873800D01*
X148125180Y-107858560D01*
X148178520Y-107845860D01*
X148201380Y-107838240D01*
X148206460Y-107833160D01*
X148224240Y-107797600D01*
X148249640Y-107741720D01*
X148280120Y-107673140D01*
X148308060Y-107602020D01*
X148336000Y-107538520D01*
X148351240Y-107492800D01*
X148356320Y-107469940D01*
X148356320Y-107469940D01*
X148343620Y-107447080D01*
X148313140Y-107401360D01*
X148267420Y-107335320D01*
X148216620Y-107259120D01*
X148211540Y-107254040D01*
X148160740Y-107177840D01*
X148117560Y-107114340D01*
X148089620Y-107068620D01*
X148079460Y-107045760D01*
X148079460Y-107045760D01*
X148097240Y-107022900D01*
X148135340Y-106979720D01*
X148191220Y-106921300D01*
X148257260Y-106855260D01*
X148280120Y-106832400D01*
X148353780Y-106761280D01*
X148404580Y-106713020D01*
X148437600Y-106687620D01*
X148452840Y-106682540D01*
X148452840Y-106682540D01*
X148475700Y-106697780D01*
X148523960Y-106728260D01*
X148590000Y-106773980D01*
X148666200Y-106824780D01*
X148671280Y-106829860D01*
X148747480Y-106880660D01*
X148810980Y-106923840D01*
X148856700Y-106954320D01*
X148877020Y-106964480D01*
X148879560Y-106964480D01*
X148910040Y-106956860D01*
X148963380Y-106936540D01*
X149031960Y-106911140D01*
X149100540Y-106883200D01*
X149166580Y-106855260D01*
X149214840Y-106834940D01*
X149235160Y-106822240D01*
X149237700Y-106819700D01*
X149245320Y-106791760D01*
X149258020Y-106735880D01*
X149273260Y-106657140D01*
X149291040Y-106563160D01*
X149293580Y-106550460D01*
X149311360Y-106459020D01*
X149326600Y-106382820D01*
X149336760Y-106332020D01*
X149341840Y-106311700D01*
X149354540Y-106306620D01*
X149400260Y-106304080D01*
X149466300Y-106301540D01*
X149550120Y-106301540D01*
X149633940Y-106301540D01*
X149717760Y-106304080D01*
X149788880Y-106306620D01*
X149842220Y-106309160D01*
X149862540Y-106314240D01*
X149862540Y-106314240D01*
X149872700Y-106344720D01*
X149882860Y-106400600D01*
X149900640Y-106479340D01*
X149918420Y-106573320D01*
X149920960Y-106588560D01*
X149938740Y-106680000D01*
X149953980Y-106753660D01*
X149964140Y-106804460D01*
X149969220Y-106824780D01*
X149979380Y-106829860D01*
X150014940Y-106845100D01*
X150075900Y-106870500D01*
X150152100Y-106900980D01*
X150327360Y-106972100D01*
X150540720Y-106824780D01*
X150558500Y-106812080D01*
X150637240Y-106761280D01*
X150700740Y-106718100D01*
X150743920Y-106690160D01*
X150761700Y-106680000D01*
X150764240Y-106680000D01*
X150784560Y-106697780D01*
X150827740Y-106738420D01*
X150883620Y-106794300D01*
X150952200Y-106862880D01*
X151003000Y-106911140D01*
X151061420Y-106972100D01*
X151096980Y-107012740D01*
X151117300Y-107038140D01*
X151124920Y-107053380D01*
X151124920Y-107063540D01*
X151109680Y-107086400D01*
X151079200Y-107132120D01*
X151033480Y-107198160D01*
X150982680Y-107274360D01*
X150939500Y-107335320D01*
X150893780Y-107408980D01*
X150863300Y-107459780D01*
X150853140Y-107485180D01*
X150855680Y-107495340D01*
X150870920Y-107535980D01*
X150896320Y-107599480D01*
X150926800Y-107675680D01*
X151003000Y-107845860D01*
X151112220Y-107866180D01*
X151180800Y-107878880D01*
X151274780Y-107896660D01*
X151363680Y-107914440D01*
X151505920Y-107942380D01*
X151511000Y-108455460D01*
X151488140Y-108465620D01*
X151467820Y-108470700D01*
X151414480Y-108483400D01*
X151340820Y-108498640D01*
X151254460Y-108513880D01*
X151178260Y-108529120D01*
X151104600Y-108541820D01*
X151048720Y-108551980D01*
X151025860Y-108557060D01*
X151018240Y-108564680D01*
X151000460Y-108602780D01*
X150975060Y-108661200D01*
X150944580Y-108729780D01*
X150914100Y-108803440D01*
X150886160Y-108869480D01*
X150868380Y-108920280D01*
X150860760Y-108945680D01*
X150873460Y-108966000D01*
X150901400Y-109009180D01*
X150942040Y-109072680D01*
X150992840Y-109148880D01*
X151043640Y-109222540D01*
X151086820Y-109286040D01*
X151117300Y-109331760D01*
X151130000Y-109354620D01*
X151124920Y-109367320D01*
X151094440Y-109402880D01*
X151038560Y-109463840D01*
X150954740Y-109545120D01*
X150939500Y-109557820D01*
X150873460Y-109623860D01*
X150817580Y-109674660D01*
X150776940Y-109710220D01*
X150759160Y-109722920D01*
X150759160Y-109722920D01*
G37*
X150759160Y-109722920D02*
X150738840Y-109712760D01*
X150695660Y-109684820D01*
X150632160Y-109641640D01*
X150555960Y-109593380D01*
X150482300Y-109540040D01*
X150418800Y-109499400D01*
X150375620Y-109471460D01*
X150357840Y-109461300D01*
X150347680Y-109466380D01*
X150312120Y-109481620D01*
X150258780Y-109509560D01*
X150230840Y-109524800D01*
X150182580Y-109545120D01*
X150157180Y-109550200D01*
X150154640Y-109542580D01*
X150136860Y-109507020D01*
X150108920Y-109443520D01*
X150073360Y-109362240D01*
X150032720Y-109265720D01*
X149987000Y-109161580D01*
X149943820Y-109054900D01*
X149900640Y-108953300D01*
X149865080Y-108861860D01*
X149834600Y-108788200D01*
X149814280Y-108737400D01*
X149806660Y-108714540D01*
X149809200Y-108709460D01*
X149834600Y-108686600D01*
X149875240Y-108656120D01*
X149964140Y-108582460D01*
X150055580Y-108470700D01*
X150108920Y-108343700D01*
X150126700Y-108204000D01*
X150111460Y-108077000D01*
X150060660Y-107950000D01*
X149974300Y-107838240D01*
X149867620Y-107754420D01*
X149743160Y-107703620D01*
X149606000Y-107685840D01*
X149473920Y-107701080D01*
X149346920Y-107751880D01*
X149235160Y-107835700D01*
X149186900Y-107891580D01*
X149120860Y-108005880D01*
X149085300Y-108127800D01*
X149080220Y-108158280D01*
X149085300Y-108290360D01*
X149125940Y-108417360D01*
X149197060Y-108531660D01*
X149293580Y-108625640D01*
X149306280Y-108635800D01*
X149352000Y-108668820D01*
X149382480Y-108694220D01*
X149405340Y-108712000D01*
X149235160Y-109123480D01*
X149207220Y-109186980D01*
X149161500Y-109298740D01*
X149120860Y-109395260D01*
X149087840Y-109474000D01*
X149064980Y-109524800D01*
X149054820Y-109545120D01*
X149054820Y-109547660D01*
X149039580Y-109550200D01*
X149006560Y-109537500D01*
X148950680Y-109509560D01*
X148912580Y-109491780D01*
X148869400Y-109468920D01*
X148849080Y-109461300D01*
X148833840Y-109471460D01*
X148790660Y-109496860D01*
X148729700Y-109537500D01*
X148656040Y-109588300D01*
X148587460Y-109636560D01*
X148521420Y-109679740D01*
X148475700Y-109707680D01*
X148452840Y-109720380D01*
X148450300Y-109720380D01*
X148429980Y-109710220D01*
X148391880Y-109679740D01*
X148336000Y-109626400D01*
X148257260Y-109547660D01*
X148244560Y-109534960D01*
X148181060Y-109468920D01*
X148127720Y-109413040D01*
X148092160Y-109374940D01*
X148079460Y-109357160D01*
X148079460Y-109357160D01*
X148092160Y-109334300D01*
X148120100Y-109288580D01*
X148163280Y-109222540D01*
X148214080Y-109146340D01*
X148351240Y-108948220D01*
X148277580Y-108762800D01*
X148254720Y-108706920D01*
X148224240Y-108635800D01*
X148203920Y-108587540D01*
X148191220Y-108564680D01*
X148170900Y-108559600D01*
X148120100Y-108546900D01*
X148046440Y-108531660D01*
X147957540Y-108513880D01*
X147873720Y-108498640D01*
X147797520Y-108485940D01*
X147744180Y-108473240D01*
X147718780Y-108468160D01*
X147713700Y-108465620D01*
X147708620Y-108452920D01*
X147706080Y-108427520D01*
X147703540Y-108381800D01*
X147703540Y-108310680D01*
X147703540Y-108204000D01*
X147703540Y-108196380D01*
X147703540Y-108094780D01*
X147706080Y-108016040D01*
X147708620Y-107962700D01*
X147711160Y-107942380D01*
X147711160Y-107942380D01*
X147734020Y-107934760D01*
X147789900Y-107924600D01*
X147863560Y-107909360D01*
X147955000Y-107891580D01*
X147960080Y-107891580D01*
X148051520Y-107873800D01*
X148125180Y-107858560D01*
X148178520Y-107845860D01*
X148201380Y-107838240D01*
X148206460Y-107833160D01*
X148224240Y-107797600D01*
X148249640Y-107741720D01*
X148280120Y-107673140D01*
X148308060Y-107602020D01*
X148336000Y-107538520D01*
X148351240Y-107492800D01*
X148356320Y-107469940D01*
X148356320Y-107469940D01*
X148343620Y-107447080D01*
X148313140Y-107401360D01*
X148267420Y-107335320D01*
X148216620Y-107259120D01*
X148211540Y-107254040D01*
X148160740Y-107177840D01*
X148117560Y-107114340D01*
X148089620Y-107068620D01*
X148079460Y-107045760D01*
X148079460Y-107045760D01*
X148097240Y-107022900D01*
X148135340Y-106979720D01*
X148191220Y-106921300D01*
X148257260Y-106855260D01*
X148280120Y-106832400D01*
X148353780Y-106761280D01*
X148404580Y-106713020D01*
X148437600Y-106687620D01*
X148452840Y-106682540D01*
X148452840Y-106682540D01*
X148475700Y-106697780D01*
X148523960Y-106728260D01*
X148590000Y-106773980D01*
X148666200Y-106824780D01*
X148671280Y-106829860D01*
X148747480Y-106880660D01*
X148810980Y-106923840D01*
X148856700Y-106954320D01*
X148877020Y-106964480D01*
X148879560Y-106964480D01*
X148910040Y-106956860D01*
X148963380Y-106936540D01*
X149031960Y-106911140D01*
X149100540Y-106883200D01*
X149166580Y-106855260D01*
X149214840Y-106834940D01*
X149235160Y-106822240D01*
X149237700Y-106819700D01*
X149245320Y-106791760D01*
X149258020Y-106735880D01*
X149273260Y-106657140D01*
X149291040Y-106563160D01*
X149293580Y-106550460D01*
X149311360Y-106459020D01*
X149326600Y-106382820D01*
X149336760Y-106332020D01*
X149341840Y-106311700D01*
X149354540Y-106306620D01*
X149400260Y-106304080D01*
X149466300Y-106301540D01*
X149550120Y-106301540D01*
X149633940Y-106301540D01*
X149717760Y-106304080D01*
X149788880Y-106306620D01*
X149842220Y-106309160D01*
X149862540Y-106314240D01*
X149862540Y-106314240D01*
X149872700Y-106344720D01*
X149882860Y-106400600D01*
X149900640Y-106479340D01*
X149918420Y-106573320D01*
X149920960Y-106588560D01*
X149938740Y-106680000D01*
X149953980Y-106753660D01*
X149964140Y-106804460D01*
X149969220Y-106824780D01*
X149979380Y-106829860D01*
X150014940Y-106845100D01*
X150075900Y-106870500D01*
X150152100Y-106900980D01*
X150327360Y-106972100D01*
X150540720Y-106824780D01*
X150558500Y-106812080D01*
X150637240Y-106761280D01*
X150700740Y-106718100D01*
X150743920Y-106690160D01*
X150761700Y-106680000D01*
X150764240Y-106680000D01*
X150784560Y-106697780D01*
X150827740Y-106738420D01*
X150883620Y-106794300D01*
X150952200Y-106862880D01*
X151003000Y-106911140D01*
X151061420Y-106972100D01*
X151096980Y-107012740D01*
X151117300Y-107038140D01*
X151124920Y-107053380D01*
X151124920Y-107063540D01*
X151109680Y-107086400D01*
X151079200Y-107132120D01*
X151033480Y-107198160D01*
X150982680Y-107274360D01*
X150939500Y-107335320D01*
X150893780Y-107408980D01*
X150863300Y-107459780D01*
X150853140Y-107485180D01*
X150855680Y-107495340D01*
X150870920Y-107535980D01*
X150896320Y-107599480D01*
X150926800Y-107675680D01*
X151003000Y-107845860D01*
X151112220Y-107866180D01*
X151180800Y-107878880D01*
X151274780Y-107896660D01*
X151363680Y-107914440D01*
X151505920Y-107942380D01*
X151511000Y-108455460D01*
X151488140Y-108465620D01*
X151467820Y-108470700D01*
X151414480Y-108483400D01*
X151340820Y-108498640D01*
X151254460Y-108513880D01*
X151178260Y-108529120D01*
X151104600Y-108541820D01*
X151048720Y-108551980D01*
X151025860Y-108557060D01*
X151018240Y-108564680D01*
X151000460Y-108602780D01*
X150975060Y-108661200D01*
X150944580Y-108729780D01*
X150914100Y-108803440D01*
X150886160Y-108869480D01*
X150868380Y-108920280D01*
X150860760Y-108945680D01*
X150873460Y-108966000D01*
X150901400Y-109009180D01*
X150942040Y-109072680D01*
X150992840Y-109148880D01*
X151043640Y-109222540D01*
X151086820Y-109286040D01*
X151117300Y-109331760D01*
X151130000Y-109354620D01*
X151124920Y-109367320D01*
X151094440Y-109402880D01*
X151038560Y-109463840D01*
X150954740Y-109545120D01*
X150939500Y-109557820D01*
X150873460Y-109623860D01*
X150817580Y-109674660D01*
X150776940Y-109710220D01*
X150759160Y-109722920D01*
D16*
X129524143Y-99361524D02*
X129571762Y-99313905D01*
X129619381Y-99171048D01*
X129619381Y-99075810D01*
X129571762Y-98932952D01*
X129476524Y-98837714D01*
X129381286Y-98790095D01*
X129190810Y-98742476D01*
X129047952Y-98742476D01*
X128857476Y-98790095D01*
X128762238Y-98837714D01*
X128667000Y-98932952D01*
X128619381Y-99075810D01*
X128619381Y-99171048D01*
X128667000Y-99313905D01*
X128714619Y-99361524D01*
X129047952Y-99932952D02*
X129000333Y-99837714D01*
X128952714Y-99790095D01*
X128857476Y-99742476D01*
X128809857Y-99742476D01*
X128714619Y-99790095D01*
X128667000Y-99837714D01*
X128619381Y-99932952D01*
X128619381Y-100123429D01*
X128667000Y-100218667D01*
X128714619Y-100266286D01*
X128809857Y-100313905D01*
X128857476Y-100313905D01*
X128952714Y-100266286D01*
X129000333Y-100218667D01*
X129047952Y-100123429D01*
X129047952Y-99932952D01*
X129095571Y-99837714D01*
X129143190Y-99790095D01*
X129238429Y-99742476D01*
X129428905Y-99742476D01*
X129524143Y-99790095D01*
X129571762Y-99837714D01*
X129619381Y-99932952D01*
X129619381Y-100123429D01*
X129571762Y-100218667D01*
X129524143Y-100266286D01*
X129428905Y-100313905D01*
X129238429Y-100313905D01*
X129143190Y-100266286D01*
X129095571Y-100218667D01*
X129047952Y-100123429D01*
X111236143Y-99234524D02*
X111283762Y-99186905D01*
X111331381Y-99044048D01*
X111331381Y-98948810D01*
X111283762Y-98805952D01*
X111188524Y-98710714D01*
X111093286Y-98663095D01*
X110902810Y-98615476D01*
X110759952Y-98615476D01*
X110569476Y-98663095D01*
X110474238Y-98710714D01*
X110379000Y-98805952D01*
X110331381Y-98948810D01*
X110331381Y-99044048D01*
X110379000Y-99186905D01*
X110426619Y-99234524D01*
X111331381Y-99710714D02*
X111331381Y-99901190D01*
X111283762Y-99996429D01*
X111236143Y-100044048D01*
X111093286Y-100139286D01*
X110902810Y-100186905D01*
X110521857Y-100186905D01*
X110426619Y-100139286D01*
X110379000Y-100091667D01*
X110331381Y-99996429D01*
X110331381Y-99805952D01*
X110379000Y-99710714D01*
X110426619Y-99663095D01*
X110521857Y-99615476D01*
X110759952Y-99615476D01*
X110855190Y-99663095D01*
X110902810Y-99710714D01*
X110950429Y-99805952D01*
X110950429Y-99996429D01*
X110902810Y-100091667D01*
X110855190Y-100139286D01*
X110759952Y-100186905D01*
M02*
