M48
INCH,TZ
T1C0.018
T2C0.020
T3C0.024
T4C0.089
T5C0.030
%
G90
G05
T1
X43250Y-40750
X43250Y-44500
X44500Y-43000
X45000Y-37000
X46000Y-32750
X46750Y-45750
X47250Y-39500
X47250Y-40500
X47250Y-46750
X48500Y-35250
X50000Y-43500
X51000Y-37000
X51250Y-40000
X51250Y-40750
X56750Y-34500
X57750Y-41750
X57750Y-42250
X57755Y-34505
T2
X46600Y-36625
X46600Y-37375
X46600Y-42625
X46600Y-43375
X47250Y-36250
X47250Y-37750
X47250Y-42250
X47250Y-43750
X47900Y-36625
X47900Y-37375
X47900Y-42625
X47900Y-43375
X57100Y-37625
X57100Y-38375
X57750Y-37250
X57750Y-38750
X58400Y-37625
X58400Y-38375
T3
X43250Y-34500
X43250Y-35000
X43250Y-35500
X43500Y-45250
X43750Y-34500
X44000Y-45750
X44500Y-46250
X44750Y-35000
X44750Y-35500
X45000Y-46750
X45250Y-35000
X45250Y-35500
X45250Y-44500
X45250Y-45000
X45500Y-39000
X45500Y-39500
X45500Y-40500
X45500Y-41000
X45500Y-47250
X45750Y-35000
X45750Y-35500
X45750Y-44500
X45750Y-45000
X46000Y-38500
X46000Y-39000
X46000Y-39500
X46000Y-40500
X46000Y-41000
X46000Y-41500
X48500Y-38500
X48500Y-39000
X48750Y-32750
X48750Y-33250
X48750Y-44500
X48750Y-45000
X49000Y-39000
X49000Y-47250
X49250Y-32750
X49250Y-33250
X49250Y-44500
X49250Y-45000
X49500Y-46750
X50000Y-46250
X50500Y-45750
X50750Y-34500
X51000Y-45250
X51250Y-34500
X51250Y-35000
X51250Y-35500
X56250Y-38500
X56250Y-39000
X56750Y-39000
X57750Y-35750
X57750Y-36500
X57750Y-39500
X57750Y-40250
X58761Y-36989
X59250Y-37000
X59250Y-37500
T4
X47250Y-37000
X47250Y-43000
X57750Y-38000
T5
X51900Y-33750
X51900Y-34250
X51900Y-34750
X51900Y-40500
X51900Y-41000
X51900Y-41500
X55350Y-33750
X55350Y-34250
X55350Y-34750
X55350Y-40500
X55350Y-41000
X55350Y-41500
T0
M30
