G04 #@! TF.GenerationSoftware,KiCad,Pcbnew,5.0.0-fee4fd1~65~ubuntu17.10.1*
G04 #@! TF.CreationDate,2018-08-24T06:20:42-04:00*
G04 #@! TF.ProjectId,motherboard,6D6F74686572626F6172642E6B696361,rev?*
G04 #@! TF.SameCoordinates,Original*
G04 #@! TF.FileFunction,Copper,L3,Inr,Plane*
G04 #@! TF.FilePolarity,Positive*
%FSLAX46Y46*%
G04 Gerber Fmt 4.6, Leading zero omitted, Abs format (unit mm)*
G04 Created by KiCad (PCBNEW 5.0.0-fee4fd1~65~ubuntu17.10.1) date Fri Aug 24 06:20:42 2018*
%MOMM*%
%LPD*%
G01*
G04 APERTURE LIST*
G04 #@! TA.AperFunction,ViaPad*
%ADD10R,1.508000X1.508000*%
G04 #@! TD*
G04 #@! TA.AperFunction,ViaPad*
%ADD11R,1.600000X1.600000*%
G04 #@! TD*
G04 #@! TA.AperFunction,ViaPad*
%ADD12C,1.600000*%
G04 #@! TD*
G04 #@! TA.AperFunction,ViaPad*
%ADD13R,3.700000X3.700000*%
G04 #@! TD*
G04 #@! TA.AperFunction,ViaPad*
%ADD14C,1.016000*%
G04 #@! TD*
G04 #@! TA.AperFunction,ViaPad*
%ADD15C,6.350000*%
G04 #@! TD*
G04 #@! TA.AperFunction,ViaPad*
%ADD16C,0.812800*%
G04 #@! TD*
G04 #@! TA.AperFunction,ViaPad*
%ADD17C,1.117600*%
G04 #@! TD*
G04 #@! TA.AperFunction,Conductor*
%ADD18C,0.203200*%
G04 #@! TD*
G04 #@! TA.AperFunction,Conductor*
%ADD19C,0.304800*%
G04 #@! TD*
G04 #@! TA.AperFunction,Conductor*
%ADD20C,0.254000*%
G04 #@! TD*
%ADD21C,0.350000*%
G04 APERTURE END LIST*
D10*
G04 #@! TO.N,GND*
G04 #@! TO.C,J12*
X120650000Y-86360000D03*
G04 #@! TD*
D11*
G04 #@! TO.N,/LOW_BATT*
G04 #@! TO.C,J6*
X137795000Y-97155000D03*
D12*
G04 #@! TO.N,/ON_BATT*
X137795000Y-99695000D03*
G04 #@! TD*
D11*
G04 #@! TO.N,/VIN*
G04 #@! TO.C,J10*
X109855000Y-98425000D03*
D12*
X112395000Y-98425000D03*
G04 #@! TO.N,+5V*
X109855000Y-100965000D03*
X112395000Y-100965000D03*
G04 #@! TO.N,GND*
X109855000Y-103505000D03*
X112395000Y-103505000D03*
G04 #@! TD*
G04 #@! TO.N,GND*
G04 #@! TO.C,J7*
X166370000Y-116840000D03*
G04 #@! TO.N,/RESET*
X166370000Y-119380000D03*
G04 #@! TO.N,/MOSI*
X168910000Y-116840000D03*
G04 #@! TO.N,/SCK*
X168910000Y-119380000D03*
G04 #@! TO.N,+5V*
X171450000Y-116840000D03*
D11*
G04 #@! TO.N,/MISO*
X171450000Y-119380000D03*
G04 #@! TD*
D12*
G04 #@! TO.N,GND*
G04 #@! TO.C,SW1*
X125805000Y-113320000D03*
X119305000Y-113320000D03*
G04 #@! TO.N,Net-(C13-Pad1)*
X119305000Y-117820000D03*
X125805000Y-117820000D03*
G04 #@! TD*
D13*
G04 #@! TO.N,GND*
G04 #@! TO.C,U4*
X195097400Y-99898200D03*
G04 #@! TD*
D12*
G04 #@! TO.N,GND*
G04 #@! TO.C,J3*
X180340000Y-86995000D03*
X177800000Y-86995000D03*
G04 #@! TO.N,+5V*
X175260000Y-86995000D03*
D11*
X172720000Y-86995000D03*
G04 #@! TD*
D14*
G04 #@! TO.N,GND*
G04 #@! TO.C,H1*
X115009734Y-115697000D03*
X115009734Y-117983000D03*
X113030000Y-119126000D03*
X111050266Y-117983000D03*
X111050266Y-115697000D03*
X113030000Y-114554000D03*
D15*
X113030000Y-116840000D03*
G04 #@! TD*
D14*
G04 #@! TO.N,GND*
G04 #@! TO.C,H2*
X203909734Y-115697000D03*
X203909734Y-117983000D03*
X201930000Y-119126000D03*
X199950266Y-117983000D03*
X199950266Y-115697000D03*
X201930000Y-114554000D03*
D15*
X201930000Y-116840000D03*
G04 #@! TD*
D14*
G04 #@! TO.N,GND*
G04 #@! TO.C,H3*
X141679734Y-89662000D03*
X141679734Y-91948000D03*
X139700000Y-93091000D03*
X137720266Y-91948000D03*
X137720266Y-89662000D03*
X139700000Y-88519000D03*
D15*
X139700000Y-90805000D03*
G04 #@! TD*
D12*
G04 #@! TO.N,GND*
G04 #@! TO.C,J4*
X114935000Y-109855000D03*
G04 #@! TO.N,/USB Serial/RESET-USB*
X114935000Y-107315000D03*
G04 #@! TO.N,/USB Serial/MOSI-USB*
X112395000Y-109855000D03*
G04 #@! TO.N,/USB Serial/SCK-USB*
X112395000Y-107315000D03*
G04 #@! TO.N,+5V*
X109855000Y-109855000D03*
D11*
G04 #@! TO.N,/USB Serial/MISO-USB*
X109855000Y-107315000D03*
G04 #@! TD*
D12*
G04 #@! TO.N,/ALRM_SW*
G04 #@! TO.C,J9*
X141605000Y-98425000D03*
G04 #@! TO.N,DVDD*
X144145000Y-98425000D03*
G04 #@! TO.N,/PIX_SHDN*
X141605000Y-100965000D03*
G04 #@! TO.N,/A_SHDN*
X144145000Y-100965000D03*
G04 #@! TO.N,/Peripherals/CRST_3V3*
X141605000Y-103505000D03*
G04 #@! TO.N,/PIX_LAMP*
X144145000Y-103505000D03*
G04 #@! TO.N,/PIX_CLK*
X141605000Y-106045000D03*
G04 #@! TO.N,/KCHG*
X144145000Y-106045000D03*
G04 #@! TO.N,/SCL*
X141605000Y-108585000D03*
G04 #@! TO.N,/SDA*
X144145000Y-108585000D03*
G04 #@! TO.N,/Peripherals/CCS_3V3*
X141605000Y-111125000D03*
G04 #@! TO.N,/DREQ*
X144145000Y-111125000D03*
G04 #@! TO.N,/Peripherals/XDCS_3V3*
X141605000Y-113665000D03*
G04 #@! TO.N,/Peripherals/CSCK_3V3*
X144145000Y-113665000D03*
G04 #@! TO.N,/Peripherals/CMOSI_3V3*
X141605000Y-116205000D03*
D11*
G04 #@! TO.N,/MISO*
X144145000Y-116205000D03*
G04 #@! TD*
D10*
G04 #@! TO.N,GND*
G04 #@! TO.C,J11*
X137795000Y-115570000D03*
G04 #@! TD*
D14*
G04 #@! TO.N,GND*
X123825000Y-114300000D03*
X123825000Y-113030000D03*
X127635000Y-114300000D03*
X127635000Y-113030000D03*
X134620000Y-103505000D03*
X171450000Y-89535000D03*
X201295000Y-108585000D03*
X195580000Y-113030000D03*
X205105000Y-92075028D03*
X180340000Y-114300000D03*
X173990000Y-96520000D03*
X182245000Y-96520000D03*
X181610000Y-97790000D03*
X174625000Y-97790000D03*
X144780000Y-122555000D03*
X144780000Y-121285000D03*
X175260000Y-111760000D03*
X163195000Y-116840000D03*
X162560000Y-93980000D03*
X144780000Y-90170000D03*
X159004000Y-88265000D03*
X180340000Y-117475000D03*
X184785000Y-95885000D03*
X179705000Y-111760000D03*
X179705000Y-106680000D03*
X179705000Y-101600000D03*
X133985000Y-108585000D03*
X129540000Y-108585000D03*
X154305000Y-103505000D03*
X146685000Y-94615000D03*
X160655000Y-93980000D03*
X154940000Y-93980000D03*
X197485000Y-114935000D03*
X198120000Y-113030000D03*
X191770000Y-111125000D03*
X191770000Y-122555000D03*
X115570000Y-90170000D03*
X115570000Y-92075000D03*
X115570000Y-93980000D03*
X115570000Y-95885000D03*
D16*
G04 #@! TO.N,/MISO*
X150495000Y-116205000D03*
X187325000Y-109855000D03*
X152400000Y-109220000D03*
X156210000Y-95250000D03*
D14*
G04 #@! TO.N,+5V*
X131445000Y-101600000D03*
X117475000Y-99695000D03*
X132715000Y-118110000D03*
X160655000Y-88265000D03*
X173990000Y-93345000D03*
X173990000Y-94615000D03*
X173990000Y-92075000D03*
X174625000Y-117475000D03*
X127635000Y-122555000D03*
X127635000Y-121285000D03*
X170815000Y-107950000D03*
X163195000Y-111125000D03*
X154305000Y-112395000D03*
X154305000Y-98425000D03*
X147320000Y-113665000D03*
X149860000Y-113665000D03*
X168275000Y-93345000D03*
D16*
G04 #@! TO.N,/SCK*
X150495000Y-98425000D03*
X160655000Y-102235000D03*
G04 #@! TO.N,/MOSI*
X149860000Y-93980000D03*
X161925000Y-100965000D03*
X184150000Y-120015000D03*
X196850000Y-118745000D03*
X173355000Y-118745000D03*
G04 #@! TO.N,/RESET*
X160655000Y-118745000D03*
X169545000Y-109220000D03*
G04 #@! TO.N,Net-(R1-Pad1)*
X132080000Y-97790000D03*
X152400000Y-114935000D03*
D14*
G04 #@! TO.N,/VIN*
X112395000Y-90170000D03*
X112395000Y-92075000D03*
X109855000Y-90170000D03*
X109855000Y-92075000D03*
D16*
G04 #@! TO.N,/USB Serial/MISO-USB*
X118110000Y-98425000D03*
G04 #@! TO.N,/USB Serial/SCK-USB*
X122555000Y-99060000D03*
G04 #@! TO.N,/USB Serial/MOSI-USB*
X121920000Y-100330000D03*
D17*
G04 #@! TO.N,/USB Serial/UVCC*
X131445000Y-99060000D03*
X126530000Y-101600000D03*
G04 #@! TO.N,/USB Serial/UGND*
X124460000Y-99695000D03*
X128905000Y-87630000D03*
D16*
G04 #@! TO.N,/USB Serial/D-*
X126724210Y-100054210D03*
X131000500Y-95567500D03*
G04 #@! TO.N,/USB Serial/D+*
X126005790Y-99335790D03*
X129984500Y-95567500D03*
G04 #@! TO.N,Net-(C6-Pad2)*
X123190000Y-102870000D03*
X119379972Y-106045000D03*
D17*
G04 #@! TO.N,/USB Serial/USHLD*
X133667500Y-94615000D03*
X127317500Y-94615000D03*
X128905000Y-85725000D03*
X131445000Y-85725000D03*
X125730000Y-93345000D03*
D16*
G04 #@! TO.N,/DREQ*
X159385000Y-117475000D03*
G04 #@! TO.N,/A_SHDN*
X160655000Y-100965000D03*
D17*
G04 #@! TO.N,+3V3*
X195580000Y-104140000D03*
X190500000Y-104140000D03*
X182245000Y-94615000D03*
X182245000Y-92075000D03*
X182245000Y-93345000D03*
D14*
X197485000Y-120015000D03*
D16*
G04 #@! TO.N,Net-(B1-PadP)*
X172720000Y-89535000D03*
G04 #@! TO.N,/RTC_INT*
X167640000Y-92075000D03*
X168910000Y-100965000D03*
G04 #@! TO.N,/Peripherals/WRST_3V3*
X201929974Y-111125000D03*
X189865000Y-116840000D03*
G04 #@! TO.N,/Peripherals/WEN_3V3*
X193675000Y-104140000D03*
X189230000Y-114935000D03*
G04 #@! TO.N,/Peripherals/WWAKE_3V3*
X183515000Y-97155000D03*
X196850000Y-116840000D03*
X188595000Y-112395000D03*
X194945000Y-114300000D03*
G04 #@! TO.N,/Peripherals/WMOSI_3V3*
X191135000Y-116205000D03*
X193040000Y-120015000D03*
G04 #@! TO.N,/Peripherals/WCS_3V3*
X189230000Y-118745000D03*
X187325000Y-111125000D03*
G04 #@! TO.N,/Peripherals/WSCK_3V3*
X193040000Y-118745000D03*
X193040000Y-113665000D03*
G04 #@! TO.N,/WCS*
X170465000Y-110775000D03*
X179070000Y-117475000D03*
G04 #@! TO.N,/WWAKE*
X175260000Y-116205000D03*
X177800000Y-120015000D03*
G04 #@! TO.N,/WIRQ*
X172085000Y-113030000D03*
X161290000Y-111125000D03*
G04 #@! TO.N,/Peripherals/CMOSI_3V3*
X149225000Y-98425000D03*
G04 #@! TO.N,/Peripherals/CSCK_3V3*
X151765000Y-99060000D03*
G04 #@! TO.N,/SDCS*
X147320000Y-97790000D03*
X158115000Y-99695000D03*
G04 #@! TO.N,/Peripherals/XDCS_3V3*
X145415000Y-99695000D03*
D14*
G04 #@! TO.N,DVDD*
X151765000Y-93345000D03*
X146685000Y-92710000D03*
X153035000Y-94615000D03*
D16*
G04 #@! TO.N,/PIX_SHDN*
X165100000Y-98425000D03*
G04 #@! TO.N,/PIX_LAMP*
X164465000Y-99695000D03*
G04 #@! TO.N,/PIX_CLK*
X172085000Y-97790000D03*
X164465000Y-105410000D03*
X169545000Y-106045000D03*
G04 #@! TO.N,/KCHG*
X165735000Y-100965000D03*
G04 #@! TO.N,/SCL*
X166370000Y-85725000D03*
X149225000Y-117475000D03*
X167640000Y-103505000D03*
X151130000Y-109855000D03*
G04 #@! TO.N,/SDA*
X167005000Y-86995000D03*
X168910000Y-102235000D03*
X147955000Y-116840000D03*
X164465000Y-90805000D03*
X148590000Y-111125000D03*
G04 #@! TO.N,/CCS*
X151765000Y-101600000D03*
X159385000Y-104775000D03*
G04 #@! TO.N,/XDCS*
X163195000Y-99695000D03*
X148590000Y-101600000D03*
G04 #@! TO.N,/CRST*
X147320000Y-101600000D03*
X160020000Y-103505000D03*
G04 #@! TO.N,/ALS_INT*
X161290000Y-116840000D03*
X165735000Y-111125000D03*
X153035000Y-118110000D03*
G04 #@! TO.N,/OLRST*
X151130000Y-118110000D03*
G04 #@! TO.N,/ALRM_SW*
X157480000Y-95250000D03*
G04 #@! TO.N,Net-(C24-Pad1)*
X158115000Y-110490000D03*
X146685000Y-122555000D03*
G04 #@! TO.N,/LOW_BATT*
X158750000Y-93980000D03*
G04 #@! TO.N,/ON_BATT*
X157480000Y-93980000D03*
G04 #@! TO.N,/SD_DET*
X161925000Y-90805000D03*
X144780000Y-88900000D03*
X168275000Y-94615000D03*
G04 #@! TO.N,/P42*
X170815000Y-103505000D03*
G04 #@! TO.N,/P43*
X174625000Y-102870000D03*
G04 #@! TO.N,/P44*
X174625000Y-104140000D03*
G04 #@! TO.N,/P46*
X170815000Y-104775000D03*
G04 #@! TO.N,/P45*
X174625000Y-105410000D03*
G04 #@! TO.N,/Peripherals/LED_NET*
X200025000Y-104140000D03*
G04 #@! TO.N,/Peripherals/GPIO_1*
X192405000Y-103505000D03*
G04 #@! TO.N,/Peripherals/GPIO_3*
X198755000Y-102870000D03*
G04 #@! TO.N,/Peripherals/LED_WIFI*
X198755000Y-104140000D03*
G04 #@! TO.N,/Peripherals/LED_ERR*
X205105000Y-103505000D03*
G04 #@! TO.N,/USB Serial/LED_TX*
X121285000Y-93345000D03*
G04 #@! TO.N,/USB Serial/LED_RX*
X125774495Y-95205505D03*
G04 #@! TD*
D18*
G04 #@! TO.N,/MISO*
X152400000Y-109220000D02*
X152400000Y-102870000D01*
X152400000Y-102870000D02*
X153035000Y-102235000D01*
X153035000Y-102235000D02*
X153035000Y-97155000D01*
X153035000Y-97155000D02*
X154940000Y-95250000D01*
X156210000Y-95250000D02*
X154940000Y-95250000D01*
G04 #@! TO.N,/RESET*
X167640000Y-111125000D02*
X167640000Y-118110000D01*
X169545000Y-109220000D02*
X167640000Y-111125000D01*
X167640000Y-118110000D02*
X166370000Y-119380000D01*
G04 #@! TO.N,/Peripherals/CMOSI_3V3*
X142875000Y-114935000D02*
X141605000Y-116205000D01*
X142875000Y-102870000D02*
X142875000Y-114935000D01*
X143510000Y-102235000D02*
X142875000Y-102870000D01*
X148590000Y-98425000D02*
X144780000Y-102235000D01*
X149225000Y-98425000D02*
X148590000Y-98425000D01*
X144780000Y-102235000D02*
X143510000Y-102235000D01*
D19*
G04 #@! TO.N,DVDD*
X151765000Y-94615000D02*
X151765000Y-93345000D01*
X151130000Y-94615000D02*
X151765000Y-94615000D01*
X144145000Y-97155000D02*
X145415000Y-95885000D01*
X144145000Y-98425000D02*
X144145000Y-97155000D01*
X145415000Y-95885000D02*
X149860000Y-95885000D01*
X149860000Y-95885000D02*
X151130000Y-94615000D01*
X151130000Y-93345000D02*
X151765000Y-93345000D01*
X146685000Y-92710000D02*
X150495000Y-92710000D01*
X150495000Y-92710000D02*
X151130000Y-93345000D01*
X153035000Y-94615000D02*
X151765000Y-94615000D01*
D18*
G04 #@! TO.N,/PIX_SHDN*
X156845000Y-92075000D02*
X163195000Y-92075000D01*
X154940000Y-90170000D02*
X156845000Y-92075000D01*
X147320000Y-90170000D02*
X154940000Y-90170000D01*
X142875000Y-94615000D02*
X147320000Y-90170000D01*
X141605000Y-100965000D02*
X142875000Y-99695000D01*
X142875000Y-99695000D02*
X142875000Y-94615000D01*
X163195000Y-92075000D02*
X165100000Y-93980000D01*
X165100000Y-93980000D02*
X165100000Y-98425000D01*
G04 #@! TO.N,Net-(C24-Pad1)*
X156210000Y-112395000D02*
X158115000Y-110490000D01*
X156210000Y-119380000D02*
X156210000Y-112395000D01*
X152400000Y-123190000D02*
X156210000Y-119380000D01*
X147320000Y-123190000D02*
X152400000Y-123190000D01*
X146685000Y-122555000D02*
X147320000Y-123190000D01*
G04 #@! TO.N,/SD_DET*
X161925000Y-90805000D02*
X163195000Y-90805000D01*
X167005000Y-94615000D02*
X168275000Y-94615000D01*
X163195000Y-90805000D02*
X167005000Y-94615000D01*
G04 #@! TD*
D20*
G04 #@! TO.N,+5V*
G36*
X165328600Y-85517853D02*
X165328600Y-85932147D01*
X165487144Y-86314906D01*
X165780094Y-86607856D01*
X166000365Y-86699095D01*
X165963600Y-86787853D01*
X165963600Y-87202147D01*
X166122144Y-87584906D01*
X166415094Y-87877856D01*
X166797853Y-88036400D01*
X167212147Y-88036400D01*
X167594906Y-87877856D01*
X167887856Y-87584906D01*
X167982278Y-87356950D01*
X171488200Y-87356950D01*
X171488200Y-87880891D01*
X171553938Y-88039595D01*
X171675405Y-88161063D01*
X171834110Y-88226800D01*
X172358050Y-88226800D01*
X172466000Y-88118850D01*
X172466000Y-87249000D01*
X172974000Y-87249000D01*
X172974000Y-88118850D01*
X173081950Y-88226800D01*
X173605890Y-88226800D01*
X173764595Y-88161063D01*
X173886062Y-88039595D01*
X173916450Y-87966232D01*
X174647978Y-87966232D01*
X174742527Y-88139372D01*
X175219849Y-88250290D01*
X175703285Y-88170102D01*
X175777473Y-88139372D01*
X175872022Y-87966232D01*
X175260000Y-87354210D01*
X174647978Y-87966232D01*
X173916450Y-87966232D01*
X173951800Y-87880891D01*
X173951800Y-87356950D01*
X173843850Y-87249000D01*
X172974000Y-87249000D01*
X172466000Y-87249000D01*
X171596150Y-87249000D01*
X171488200Y-87356950D01*
X167982278Y-87356950D01*
X168046400Y-87202147D01*
X168046400Y-86954849D01*
X174004710Y-86954849D01*
X174084898Y-87438285D01*
X174115628Y-87512473D01*
X174288768Y-87607022D01*
X174900790Y-86995000D01*
X174288768Y-86382978D01*
X174115628Y-86477527D01*
X174004710Y-86954849D01*
X168046400Y-86954849D01*
X168046400Y-86787853D01*
X167887856Y-86405094D01*
X167594906Y-86112144D01*
X167587579Y-86109109D01*
X171488200Y-86109109D01*
X171488200Y-86633050D01*
X171596150Y-86741000D01*
X172466000Y-86741000D01*
X172466000Y-85871150D01*
X172974000Y-85871150D01*
X172974000Y-86741000D01*
X173843850Y-86741000D01*
X173951800Y-86633050D01*
X173951800Y-86109109D01*
X173916451Y-86023768D01*
X174647978Y-86023768D01*
X175260000Y-86635790D01*
X175872022Y-86023768D01*
X175777473Y-85850628D01*
X175300151Y-85739710D01*
X174816715Y-85819898D01*
X174742527Y-85850628D01*
X174647978Y-86023768D01*
X173916451Y-86023768D01*
X173886062Y-85950405D01*
X173764595Y-85828937D01*
X173605890Y-85763200D01*
X173081950Y-85763200D01*
X172974000Y-85871150D01*
X172466000Y-85871150D01*
X172358050Y-85763200D01*
X171834110Y-85763200D01*
X171675405Y-85828937D01*
X171553938Y-85950405D01*
X171488200Y-86109109D01*
X167587579Y-86109109D01*
X167374635Y-86020905D01*
X167411400Y-85932147D01*
X167411400Y-85517853D01*
X167286782Y-85217000D01*
X181483000Y-85217000D01*
X181483000Y-86108604D01*
X181152862Y-85778466D01*
X180625439Y-85560000D01*
X180054561Y-85560000D01*
X179527138Y-85778466D01*
X179123466Y-86182138D01*
X179070000Y-86311216D01*
X179016534Y-86182138D01*
X178612862Y-85778466D01*
X178085439Y-85560000D01*
X177514561Y-85560000D01*
X176987138Y-85778466D01*
X176583466Y-86182138D01*
X176432742Y-86546018D01*
X176404372Y-86477527D01*
X176231232Y-86382978D01*
X175619210Y-86995000D01*
X176231232Y-87607022D01*
X176404372Y-87512473D01*
X176424763Y-87424721D01*
X176583466Y-87807862D01*
X176987138Y-88211534D01*
X177514561Y-88430000D01*
X178085439Y-88430000D01*
X178612862Y-88211534D01*
X179016534Y-87807862D01*
X179070000Y-87678784D01*
X179123466Y-87807862D01*
X179527138Y-88211534D01*
X180054561Y-88430000D01*
X180625439Y-88430000D01*
X181152862Y-88211534D01*
X181483000Y-87881396D01*
X181483000Y-90043000D01*
X177800000Y-90043000D01*
X177751399Y-90052667D01*
X177710197Y-90080197D01*
X177682667Y-90121399D01*
X177673000Y-90170000D01*
X177673000Y-118973600D01*
X177592853Y-118973600D01*
X177210094Y-119132144D01*
X176917144Y-119425094D01*
X176758600Y-119807853D01*
X176758600Y-120222147D01*
X176917144Y-120604906D01*
X177210094Y-120897856D01*
X177592853Y-121056400D01*
X177673000Y-121056400D01*
X177673000Y-121793000D01*
X163830000Y-121793000D01*
X163781399Y-121802667D01*
X163740197Y-121830197D01*
X163712667Y-121871399D01*
X163703000Y-121920000D01*
X163703000Y-123063000D01*
X153568709Y-123063000D01*
X156679561Y-119952149D01*
X156741058Y-119911058D01*
X156782149Y-119849561D01*
X156782151Y-119849559D01*
X156903861Y-119667407D01*
X156911728Y-119627856D01*
X156946600Y-119452544D01*
X156946600Y-119452541D01*
X156961029Y-119380000D01*
X156946600Y-119307460D01*
X156946600Y-117267853D01*
X158343600Y-117267853D01*
X158343600Y-117682147D01*
X158502144Y-118064906D01*
X158795094Y-118357856D01*
X159177853Y-118516400D01*
X159592147Y-118516400D01*
X159628770Y-118501230D01*
X159613600Y-118537853D01*
X159613600Y-118952147D01*
X159772144Y-119334906D01*
X160065094Y-119627856D01*
X160447853Y-119786400D01*
X160862147Y-119786400D01*
X161244906Y-119627856D01*
X161537856Y-119334906D01*
X161696400Y-118952147D01*
X161696400Y-118537853D01*
X161537856Y-118155094D01*
X161264162Y-117881400D01*
X161497147Y-117881400D01*
X161879906Y-117722856D01*
X162172856Y-117429906D01*
X162187514Y-117394518D01*
X162226011Y-117487458D01*
X162547542Y-117808989D01*
X162967643Y-117983000D01*
X163422357Y-117983000D01*
X163842458Y-117808989D01*
X164163989Y-117487458D01*
X164338000Y-117067357D01*
X164338000Y-116612643D01*
X164313942Y-116554561D01*
X164935000Y-116554561D01*
X164935000Y-117125439D01*
X165153466Y-117652862D01*
X165557138Y-118056534D01*
X165686216Y-118110000D01*
X165557138Y-118163466D01*
X165153466Y-118567138D01*
X164935000Y-119094561D01*
X164935000Y-119665439D01*
X165153466Y-120192862D01*
X165557138Y-120596534D01*
X166084561Y-120815000D01*
X166655439Y-120815000D01*
X167182862Y-120596534D01*
X167586534Y-120192862D01*
X167640000Y-120063784D01*
X167693466Y-120192862D01*
X168097138Y-120596534D01*
X168624561Y-120815000D01*
X169195439Y-120815000D01*
X169722862Y-120596534D01*
X170025262Y-120294134D01*
X170051843Y-120427765D01*
X170192191Y-120637809D01*
X170402235Y-120778157D01*
X170650000Y-120827440D01*
X172250000Y-120827440D01*
X172497765Y-120778157D01*
X172707809Y-120637809D01*
X172848157Y-120427765D01*
X172897440Y-120180000D01*
X172897440Y-119682676D01*
X173147853Y-119786400D01*
X173562147Y-119786400D01*
X173944906Y-119627856D01*
X174237856Y-119334906D01*
X174396400Y-118952147D01*
X174396400Y-118537853D01*
X174237856Y-118155094D01*
X173944906Y-117862144D01*
X173562147Y-117703600D01*
X173147853Y-117703600D01*
X172765094Y-117862144D01*
X172586262Y-118040976D01*
X172497765Y-117981843D01*
X172250000Y-117932560D01*
X171995767Y-117932560D01*
X172062022Y-117811232D01*
X171450000Y-117199210D01*
X170837978Y-117811232D01*
X170904233Y-117932560D01*
X170650000Y-117932560D01*
X170402235Y-117981843D01*
X170192191Y-118122191D01*
X170051843Y-118332235D01*
X170025262Y-118465866D01*
X169722862Y-118163466D01*
X169593784Y-118110000D01*
X169722862Y-118056534D01*
X170126534Y-117652862D01*
X170277258Y-117288982D01*
X170305628Y-117357473D01*
X170478768Y-117452022D01*
X171090790Y-116840000D01*
X171809210Y-116840000D01*
X172421232Y-117452022D01*
X172594372Y-117357473D01*
X172705290Y-116880151D01*
X172625102Y-116396715D01*
X172594372Y-116322527D01*
X172421232Y-116227978D01*
X171809210Y-116840000D01*
X171090790Y-116840000D01*
X170478768Y-116227978D01*
X170305628Y-116322527D01*
X170285237Y-116410279D01*
X170126534Y-116027138D01*
X169968164Y-115868768D01*
X170837978Y-115868768D01*
X171450000Y-116480790D01*
X171932937Y-115997853D01*
X174218600Y-115997853D01*
X174218600Y-116412147D01*
X174377144Y-116794906D01*
X174670094Y-117087856D01*
X175052853Y-117246400D01*
X175467147Y-117246400D01*
X175849906Y-117087856D01*
X176142856Y-116794906D01*
X176301400Y-116412147D01*
X176301400Y-115997853D01*
X176142856Y-115615094D01*
X175849906Y-115322144D01*
X175467147Y-115163600D01*
X175052853Y-115163600D01*
X174670094Y-115322144D01*
X174377144Y-115615094D01*
X174218600Y-115997853D01*
X171932937Y-115997853D01*
X172062022Y-115868768D01*
X171967473Y-115695628D01*
X171490151Y-115584710D01*
X171006715Y-115664898D01*
X170932527Y-115695628D01*
X170837978Y-115868768D01*
X169968164Y-115868768D01*
X169722862Y-115623466D01*
X169195439Y-115405000D01*
X168624561Y-115405000D01*
X168376600Y-115507709D01*
X168376600Y-112822853D01*
X171043600Y-112822853D01*
X171043600Y-113237147D01*
X171202144Y-113619906D01*
X171495094Y-113912856D01*
X171877853Y-114071400D01*
X172292147Y-114071400D01*
X172674906Y-113912856D01*
X172967856Y-113619906D01*
X173126400Y-113237147D01*
X173126400Y-112822853D01*
X172967856Y-112440094D01*
X172674906Y-112147144D01*
X172292147Y-111988600D01*
X171877853Y-111988600D01*
X171495094Y-112147144D01*
X171202144Y-112440094D01*
X171043600Y-112822853D01*
X168376600Y-112822853D01*
X168376600Y-111430109D01*
X169545310Y-110261400D01*
X169550537Y-110261400D01*
X169423600Y-110567853D01*
X169423600Y-110982147D01*
X169582144Y-111364906D01*
X169875094Y-111657856D01*
X170257853Y-111816400D01*
X170672147Y-111816400D01*
X171054906Y-111657856D01*
X171180119Y-111532643D01*
X174117000Y-111532643D01*
X174117000Y-111987357D01*
X174291011Y-112407458D01*
X174612542Y-112728989D01*
X175032643Y-112903000D01*
X175487357Y-112903000D01*
X175907458Y-112728989D01*
X176228989Y-112407458D01*
X176403000Y-111987357D01*
X176403000Y-111532643D01*
X176228989Y-111112542D01*
X175907458Y-110791011D01*
X175487357Y-110617000D01*
X175032643Y-110617000D01*
X174612542Y-110791011D01*
X174291011Y-111112542D01*
X174117000Y-111532643D01*
X171180119Y-111532643D01*
X171347856Y-111364906D01*
X171506400Y-110982147D01*
X171506400Y-110567853D01*
X171347856Y-110185094D01*
X171054906Y-109892144D01*
X170672147Y-109733600D01*
X170459463Y-109733600D01*
X170586400Y-109427147D01*
X170586400Y-109012853D01*
X170427856Y-108630094D01*
X170134906Y-108337144D01*
X169752147Y-108178600D01*
X169337853Y-108178600D01*
X168955094Y-108337144D01*
X168662144Y-108630094D01*
X168503600Y-109012853D01*
X168503600Y-109219690D01*
X167170442Y-110552849D01*
X167108942Y-110593942D01*
X166946139Y-110837594D01*
X166903400Y-111052457D01*
X166903400Y-111052460D01*
X166888971Y-111125000D01*
X166903400Y-111197540D01*
X166903401Y-115507709D01*
X166655439Y-115405000D01*
X166084561Y-115405000D01*
X165557138Y-115623466D01*
X165153466Y-116027138D01*
X164935000Y-116554561D01*
X164313942Y-116554561D01*
X164163989Y-116192542D01*
X163842458Y-115871011D01*
X163422357Y-115697000D01*
X162967643Y-115697000D01*
X162547542Y-115871011D01*
X162226011Y-116192542D01*
X162187514Y-116285482D01*
X162172856Y-116250094D01*
X161879906Y-115957144D01*
X161497147Y-115798600D01*
X161082853Y-115798600D01*
X160700094Y-115957144D01*
X160407144Y-116250094D01*
X160248600Y-116632853D01*
X160248600Y-116865838D01*
X159974906Y-116592144D01*
X159592147Y-116433600D01*
X159177853Y-116433600D01*
X158795094Y-116592144D01*
X158502144Y-116885094D01*
X158343600Y-117267853D01*
X156946600Y-117267853D01*
X156946600Y-112700109D01*
X158115310Y-111531400D01*
X158322147Y-111531400D01*
X158704906Y-111372856D01*
X158997856Y-111079906D01*
X159064980Y-110917853D01*
X160248600Y-110917853D01*
X160248600Y-111332147D01*
X160407144Y-111714906D01*
X160700094Y-112007856D01*
X161082853Y-112166400D01*
X161497147Y-112166400D01*
X161879906Y-112007856D01*
X162172856Y-111714906D01*
X162331400Y-111332147D01*
X162331400Y-110917853D01*
X164693600Y-110917853D01*
X164693600Y-111332147D01*
X164852144Y-111714906D01*
X165145094Y-112007856D01*
X165527853Y-112166400D01*
X165942147Y-112166400D01*
X166324906Y-112007856D01*
X166617856Y-111714906D01*
X166776400Y-111332147D01*
X166776400Y-110917853D01*
X166617856Y-110535094D01*
X166324906Y-110242144D01*
X165942147Y-110083600D01*
X165527853Y-110083600D01*
X165145094Y-110242144D01*
X164852144Y-110535094D01*
X164693600Y-110917853D01*
X162331400Y-110917853D01*
X162172856Y-110535094D01*
X161879906Y-110242144D01*
X161497147Y-110083600D01*
X161082853Y-110083600D01*
X160700094Y-110242144D01*
X160407144Y-110535094D01*
X160248600Y-110917853D01*
X159064980Y-110917853D01*
X159156400Y-110697147D01*
X159156400Y-110282853D01*
X158997856Y-109900094D01*
X158704906Y-109607144D01*
X158322147Y-109448600D01*
X157907853Y-109448600D01*
X157525094Y-109607144D01*
X157232144Y-109900094D01*
X157073600Y-110282853D01*
X157073600Y-110489690D01*
X155740440Y-111822851D01*
X155678943Y-111863942D01*
X155637852Y-111925439D01*
X155637849Y-111925442D01*
X155516139Y-112107594D01*
X155458971Y-112395000D01*
X155473401Y-112467545D01*
X155473400Y-119074890D01*
X152094891Y-122453400D01*
X147726400Y-122453400D01*
X147726400Y-122347853D01*
X147567856Y-121965094D01*
X147274906Y-121672144D01*
X146892147Y-121513600D01*
X146477853Y-121513600D01*
X146095094Y-121672144D01*
X145802144Y-121965094D01*
X145787486Y-122000482D01*
X145754149Y-121920000D01*
X145923000Y-121512357D01*
X145923000Y-121057643D01*
X145748989Y-120637542D01*
X145427458Y-120316011D01*
X145007357Y-120142000D01*
X144552643Y-120142000D01*
X144132542Y-120316011D01*
X143811011Y-120637542D01*
X143637000Y-121057643D01*
X143637000Y-121512357D01*
X143805851Y-121920000D01*
X143637000Y-122327643D01*
X143637000Y-122782357D01*
X143753246Y-123063000D01*
X108712000Y-123063000D01*
X108712000Y-117698904D01*
X109369376Y-119285951D01*
X110584049Y-120500624D01*
X112171096Y-121158000D01*
X113888904Y-121158000D01*
X115475951Y-120500624D01*
X116690624Y-119285951D01*
X117348000Y-117698904D01*
X117348000Y-117534561D01*
X117870000Y-117534561D01*
X117870000Y-118105439D01*
X118088466Y-118632862D01*
X118492138Y-119036534D01*
X119019561Y-119255000D01*
X119590439Y-119255000D01*
X120117862Y-119036534D01*
X120521534Y-118632862D01*
X120740000Y-118105439D01*
X120740000Y-117534561D01*
X124370000Y-117534561D01*
X124370000Y-118105439D01*
X124588466Y-118632862D01*
X124992138Y-119036534D01*
X125519561Y-119255000D01*
X126090439Y-119255000D01*
X126617862Y-119036534D01*
X127021534Y-118632862D01*
X127240000Y-118105439D01*
X127240000Y-117534561D01*
X127021534Y-117007138D01*
X126617862Y-116603466D01*
X126090439Y-116385000D01*
X125519561Y-116385000D01*
X124992138Y-116603466D01*
X124588466Y-117007138D01*
X124370000Y-117534561D01*
X120740000Y-117534561D01*
X120521534Y-117007138D01*
X120117862Y-116603466D01*
X119590439Y-116385000D01*
X119019561Y-116385000D01*
X118492138Y-116603466D01*
X118088466Y-117007138D01*
X117870000Y-117534561D01*
X117348000Y-117534561D01*
X117348000Y-115981096D01*
X116690624Y-114394049D01*
X115475951Y-113179376D01*
X115126337Y-113034561D01*
X117870000Y-113034561D01*
X117870000Y-113605439D01*
X118088466Y-114132862D01*
X118492138Y-114536534D01*
X119019561Y-114755000D01*
X119590439Y-114755000D01*
X120117862Y-114536534D01*
X120521534Y-114132862D01*
X120740000Y-113605439D01*
X120740000Y-113034561D01*
X120643937Y-112802643D01*
X122682000Y-112802643D01*
X122682000Y-113257357D01*
X122850851Y-113665000D01*
X122682000Y-114072643D01*
X122682000Y-114527357D01*
X122856011Y-114947458D01*
X123177542Y-115268989D01*
X123597643Y-115443000D01*
X124052357Y-115443000D01*
X124472458Y-115268989D01*
X124793989Y-114947458D01*
X124968000Y-114527357D01*
X124968000Y-114512396D01*
X124992138Y-114536534D01*
X125519561Y-114755000D01*
X126090439Y-114755000D01*
X126513677Y-114579689D01*
X126666011Y-114947458D01*
X126987542Y-115268989D01*
X127407643Y-115443000D01*
X127862357Y-115443000D01*
X128282458Y-115268989D01*
X128603989Y-114947458D01*
X128658440Y-114816000D01*
X136393560Y-114816000D01*
X136393560Y-116324000D01*
X136442843Y-116571765D01*
X136583191Y-116781809D01*
X136793235Y-116922157D01*
X137041000Y-116971440D01*
X138549000Y-116971440D01*
X138796765Y-116922157D01*
X139006809Y-116781809D01*
X139147157Y-116571765D01*
X139196440Y-116324000D01*
X139196440Y-114816000D01*
X139147157Y-114568235D01*
X139006809Y-114358191D01*
X138796765Y-114217843D01*
X138549000Y-114168560D01*
X137041000Y-114168560D01*
X136793235Y-114217843D01*
X136583191Y-114358191D01*
X136442843Y-114568235D01*
X136393560Y-114816000D01*
X128658440Y-114816000D01*
X128778000Y-114527357D01*
X128778000Y-114072643D01*
X128609149Y-113665000D01*
X128778000Y-113257357D01*
X128778000Y-112802643D01*
X128603989Y-112382542D01*
X128282458Y-112061011D01*
X127862357Y-111887000D01*
X127407643Y-111887000D01*
X126987542Y-112061011D01*
X126781475Y-112267079D01*
X126617862Y-112103466D01*
X126090439Y-111885000D01*
X125519561Y-111885000D01*
X124992138Y-112103466D01*
X124753526Y-112342079D01*
X124472458Y-112061011D01*
X124052357Y-111887000D01*
X123597643Y-111887000D01*
X123177542Y-112061011D01*
X122856011Y-112382542D01*
X122682000Y-112802643D01*
X120643937Y-112802643D01*
X120521534Y-112507138D01*
X120117862Y-112103466D01*
X119590439Y-111885000D01*
X119019561Y-111885000D01*
X118492138Y-112103466D01*
X118088466Y-112507138D01*
X117870000Y-113034561D01*
X115126337Y-113034561D01*
X113888904Y-112522000D01*
X112171096Y-112522000D01*
X110584049Y-113179376D01*
X109369376Y-114394049D01*
X108712000Y-115981096D01*
X108712000Y-110826232D01*
X109242978Y-110826232D01*
X109337527Y-110999372D01*
X109814849Y-111110290D01*
X110298285Y-111030102D01*
X110372473Y-110999372D01*
X110467022Y-110826232D01*
X109855000Y-110214210D01*
X109242978Y-110826232D01*
X108712000Y-110826232D01*
X108712000Y-110373222D01*
X108883768Y-110467022D01*
X109495790Y-109855000D01*
X108883768Y-109242978D01*
X108712000Y-109336778D01*
X108712000Y-108649523D01*
X108807235Y-108713157D01*
X109055000Y-108762440D01*
X109309233Y-108762440D01*
X109242978Y-108883768D01*
X109855000Y-109495790D01*
X110467022Y-108883768D01*
X110400767Y-108762440D01*
X110655000Y-108762440D01*
X110902765Y-108713157D01*
X111112809Y-108572809D01*
X111253157Y-108362765D01*
X111279738Y-108229134D01*
X111582138Y-108531534D01*
X111711216Y-108585000D01*
X111582138Y-108638466D01*
X111178466Y-109042138D01*
X111027742Y-109406018D01*
X110999372Y-109337527D01*
X110826232Y-109242978D01*
X110214210Y-109855000D01*
X110826232Y-110467022D01*
X110999372Y-110372473D01*
X111019763Y-110284721D01*
X111178466Y-110667862D01*
X111582138Y-111071534D01*
X112109561Y-111290000D01*
X112680439Y-111290000D01*
X113207862Y-111071534D01*
X113611534Y-110667862D01*
X113665000Y-110538784D01*
X113718466Y-110667862D01*
X114122138Y-111071534D01*
X114649561Y-111290000D01*
X115220439Y-111290000D01*
X115747862Y-111071534D01*
X116151534Y-110667862D01*
X116370000Y-110140439D01*
X116370000Y-109569561D01*
X116151534Y-109042138D01*
X115747862Y-108638466D01*
X115618784Y-108585000D01*
X115747862Y-108531534D01*
X115921753Y-108357643D01*
X128397000Y-108357643D01*
X128397000Y-108812357D01*
X128571011Y-109232458D01*
X128892542Y-109553989D01*
X129312643Y-109728000D01*
X129767357Y-109728000D01*
X130187458Y-109553989D01*
X130508989Y-109232458D01*
X130683000Y-108812357D01*
X130683000Y-108357643D01*
X132842000Y-108357643D01*
X132842000Y-108812357D01*
X133016011Y-109232458D01*
X133337542Y-109553989D01*
X133757643Y-109728000D01*
X134212357Y-109728000D01*
X134632458Y-109553989D01*
X134953989Y-109232458D01*
X135128000Y-108812357D01*
X135128000Y-108357643D01*
X134953989Y-107937542D01*
X134632458Y-107616011D01*
X134212357Y-107442000D01*
X133757643Y-107442000D01*
X133337542Y-107616011D01*
X133016011Y-107937542D01*
X132842000Y-108357643D01*
X130683000Y-108357643D01*
X130508989Y-107937542D01*
X130187458Y-107616011D01*
X129767357Y-107442000D01*
X129312643Y-107442000D01*
X128892542Y-107616011D01*
X128571011Y-107937542D01*
X128397000Y-108357643D01*
X115921753Y-108357643D01*
X116151534Y-108127862D01*
X116370000Y-107600439D01*
X116370000Y-107029561D01*
X116151534Y-106502138D01*
X115747862Y-106098466D01*
X115220439Y-105880000D01*
X114649561Y-105880000D01*
X114122138Y-106098466D01*
X113718466Y-106502138D01*
X113665000Y-106631216D01*
X113611534Y-106502138D01*
X113207862Y-106098466D01*
X112680439Y-105880000D01*
X112109561Y-105880000D01*
X111582138Y-106098466D01*
X111279738Y-106400866D01*
X111253157Y-106267235D01*
X111112809Y-106057191D01*
X110902765Y-105916843D01*
X110655000Y-105867560D01*
X109055000Y-105867560D01*
X108807235Y-105916843D01*
X108712000Y-105980477D01*
X108712000Y-105837853D01*
X118338572Y-105837853D01*
X118338572Y-106252147D01*
X118497116Y-106634906D01*
X118790066Y-106927856D01*
X119172825Y-107086400D01*
X119587119Y-107086400D01*
X119969878Y-106927856D01*
X120262828Y-106634906D01*
X120421372Y-106252147D01*
X120421372Y-105837853D01*
X120262828Y-105455094D01*
X119969878Y-105162144D01*
X119587119Y-105003600D01*
X119172825Y-105003600D01*
X118790066Y-105162144D01*
X118497116Y-105455094D01*
X118338572Y-105837853D01*
X108712000Y-105837853D01*
X108712000Y-104391396D01*
X109042138Y-104721534D01*
X109569561Y-104940000D01*
X110140439Y-104940000D01*
X110667862Y-104721534D01*
X111071534Y-104317862D01*
X111125000Y-104188784D01*
X111178466Y-104317862D01*
X111582138Y-104721534D01*
X112109561Y-104940000D01*
X112680439Y-104940000D01*
X113207862Y-104721534D01*
X113611534Y-104317862D01*
X113830000Y-103790439D01*
X113830000Y-103219561D01*
X113611534Y-102692138D01*
X113582249Y-102662853D01*
X122148600Y-102662853D01*
X122148600Y-103077147D01*
X122307144Y-103459906D01*
X122600094Y-103752856D01*
X122982853Y-103911400D01*
X123397147Y-103911400D01*
X123779906Y-103752856D01*
X124072856Y-103459906D01*
X124148351Y-103277643D01*
X133477000Y-103277643D01*
X133477000Y-103732357D01*
X133651011Y-104152458D01*
X133972542Y-104473989D01*
X134392643Y-104648000D01*
X134847357Y-104648000D01*
X135267458Y-104473989D01*
X135588989Y-104152458D01*
X135763000Y-103732357D01*
X135763000Y-103277643D01*
X135588989Y-102857542D01*
X135267458Y-102536011D01*
X134847357Y-102362000D01*
X134392643Y-102362000D01*
X133972542Y-102536011D01*
X133651011Y-102857542D01*
X133477000Y-103277643D01*
X124148351Y-103277643D01*
X124231400Y-103077147D01*
X124231400Y-102662853D01*
X124072856Y-102280094D01*
X123779906Y-101987144D01*
X123397147Y-101828600D01*
X122982853Y-101828600D01*
X122600094Y-101987144D01*
X122307144Y-102280094D01*
X122148600Y-102662853D01*
X113582249Y-102662853D01*
X113207862Y-102288466D01*
X112843982Y-102137742D01*
X112912473Y-102109372D01*
X113007022Y-101936232D01*
X112395000Y-101324210D01*
X111782978Y-101936232D01*
X111877527Y-102109372D01*
X111965279Y-102129763D01*
X111582138Y-102288466D01*
X111178466Y-102692138D01*
X111125000Y-102821216D01*
X111071534Y-102692138D01*
X110667862Y-102288466D01*
X110303982Y-102137742D01*
X110372473Y-102109372D01*
X110467022Y-101936232D01*
X109855000Y-101324210D01*
X109242978Y-101936232D01*
X109337527Y-102109372D01*
X109425279Y-102129763D01*
X109042138Y-102288466D01*
X108712000Y-102618604D01*
X108712000Y-101483222D01*
X108883768Y-101577022D01*
X109495790Y-100965000D01*
X110214210Y-100965000D01*
X110826232Y-101577022D01*
X110999372Y-101482473D01*
X111110290Y-101005151D01*
X111096971Y-100924849D01*
X111139710Y-100924849D01*
X111219898Y-101408285D01*
X111250628Y-101482473D01*
X111423768Y-101577022D01*
X112035790Y-100965000D01*
X112754210Y-100965000D01*
X113366232Y-101577022D01*
X113539372Y-101482473D01*
X113650290Y-101005151D01*
X113570102Y-100521715D01*
X113539372Y-100447527D01*
X113366232Y-100352978D01*
X112754210Y-100965000D01*
X112035790Y-100965000D01*
X111423768Y-100352978D01*
X111250628Y-100447527D01*
X111139710Y-100924849D01*
X111096971Y-100924849D01*
X111030102Y-100521715D01*
X110999372Y-100447527D01*
X110826232Y-100352978D01*
X110214210Y-100965000D01*
X109495790Y-100965000D01*
X108883768Y-100352978D01*
X108712000Y-100446778D01*
X108712000Y-99822000D01*
X108805503Y-99822000D01*
X108807235Y-99823157D01*
X109055000Y-99872440D01*
X109309233Y-99872440D01*
X109242978Y-99993768D01*
X109855000Y-100605790D01*
X110467022Y-99993768D01*
X110400767Y-99872440D01*
X110655000Y-99872440D01*
X110902765Y-99823157D01*
X110904497Y-99822000D01*
X111876778Y-99822000D01*
X111782978Y-99993768D01*
X112395000Y-100605790D01*
X112877937Y-100122853D01*
X120878600Y-100122853D01*
X120878600Y-100537147D01*
X121037144Y-100919906D01*
X121330094Y-101212856D01*
X121712853Y-101371400D01*
X122127147Y-101371400D01*
X122509906Y-101212856D01*
X122802856Y-100919906D01*
X122961400Y-100537147D01*
X122961400Y-100122853D01*
X122924635Y-100034095D01*
X123144906Y-99942856D01*
X123266200Y-99821562D01*
X123266200Y-99932462D01*
X123447945Y-100371233D01*
X123783767Y-100707055D01*
X124222538Y-100888800D01*
X124697462Y-100888800D01*
X125136233Y-100707055D01*
X125472055Y-100371233D01*
X125517777Y-100260851D01*
X125716737Y-100343263D01*
X125828538Y-100613174D01*
X125517945Y-100923767D01*
X125336200Y-101362538D01*
X125336200Y-101837462D01*
X125517945Y-102276233D01*
X125853767Y-102612055D01*
X126292538Y-102793800D01*
X126767462Y-102793800D01*
X127206233Y-102612055D01*
X127542055Y-102276233D01*
X127723800Y-101837462D01*
X127723800Y-101362538D01*
X127542055Y-100923767D01*
X127434735Y-100816447D01*
X127607066Y-100644116D01*
X127765610Y-100261357D01*
X127765610Y-99847063D01*
X127607066Y-99464304D01*
X127314116Y-99171354D01*
X127013263Y-99046737D01*
X126920398Y-98822538D01*
X130251200Y-98822538D01*
X130251200Y-99297462D01*
X130432945Y-99736233D01*
X130768767Y-100072055D01*
X131207538Y-100253800D01*
X131682462Y-100253800D01*
X132121233Y-100072055D01*
X132457055Y-99736233D01*
X132638800Y-99297462D01*
X132638800Y-98822538D01*
X132590435Y-98705774D01*
X132669906Y-98672856D01*
X132962856Y-98379906D01*
X133121400Y-97997147D01*
X133121400Y-97582853D01*
X132962856Y-97200094D01*
X132669906Y-96907144D01*
X132287147Y-96748600D01*
X131872853Y-96748600D01*
X131490094Y-96907144D01*
X131197144Y-97200094D01*
X131038600Y-97582853D01*
X131038600Y-97936176D01*
X130768767Y-98047945D01*
X130432945Y-98383767D01*
X130251200Y-98822538D01*
X126920398Y-98822538D01*
X126888646Y-98745884D01*
X126595696Y-98452934D01*
X126212937Y-98294390D01*
X125798643Y-98294390D01*
X125415884Y-98452934D01*
X125161053Y-98707765D01*
X125136233Y-98682945D01*
X124697462Y-98501200D01*
X124222538Y-98501200D01*
X123783767Y-98682945D01*
X123596400Y-98870312D01*
X123596400Y-98852853D01*
X123437856Y-98470094D01*
X123144906Y-98177144D01*
X122762147Y-98018600D01*
X122347853Y-98018600D01*
X121965094Y-98177144D01*
X121672144Y-98470094D01*
X121513600Y-98852853D01*
X121513600Y-99267147D01*
X121550365Y-99355905D01*
X121330094Y-99447144D01*
X121037144Y-99740094D01*
X120878600Y-100122853D01*
X112877937Y-100122853D01*
X113007022Y-99993768D01*
X112913222Y-99822000D01*
X114935000Y-99822000D01*
X114983601Y-99812333D01*
X115024803Y-99784803D01*
X115052333Y-99743601D01*
X115062000Y-99695000D01*
X115062000Y-98217853D01*
X117068600Y-98217853D01*
X117068600Y-98632147D01*
X117227144Y-99014906D01*
X117520094Y-99307856D01*
X117902853Y-99466400D01*
X118317147Y-99466400D01*
X118699906Y-99307856D01*
X118992856Y-99014906D01*
X119151400Y-98632147D01*
X119151400Y-98217853D01*
X118992856Y-97835094D01*
X118699906Y-97542144D01*
X118317147Y-97383600D01*
X117902853Y-97383600D01*
X117520094Y-97542144D01*
X117227144Y-97835094D01*
X117068600Y-98217853D01*
X115062000Y-98217853D01*
X115062000Y-96911754D01*
X115342643Y-97028000D01*
X115797357Y-97028000D01*
X116217458Y-96853989D01*
X116538989Y-96532458D01*
X116713000Y-96112357D01*
X116713000Y-96012000D01*
X125108228Y-96012000D01*
X125184589Y-96088361D01*
X125567348Y-96246905D01*
X125981642Y-96246905D01*
X126364401Y-96088361D01*
X126440762Y-96012000D01*
X129041415Y-96012000D01*
X129101644Y-96157406D01*
X129394594Y-96450356D01*
X129777353Y-96608900D01*
X130191647Y-96608900D01*
X130492500Y-96484283D01*
X130793353Y-96608900D01*
X131207647Y-96608900D01*
X131590406Y-96450356D01*
X131883356Y-96157406D01*
X131943585Y-96012000D01*
X136460477Y-96012000D01*
X136396843Y-96107235D01*
X136347560Y-96355000D01*
X136347560Y-97955000D01*
X136396843Y-98202765D01*
X136537191Y-98412809D01*
X136747235Y-98553157D01*
X136880866Y-98579738D01*
X136578466Y-98882138D01*
X136360000Y-99409561D01*
X136360000Y-99980439D01*
X136578466Y-100507862D01*
X136982138Y-100911534D01*
X137509561Y-101130000D01*
X138080439Y-101130000D01*
X138607862Y-100911534D01*
X139011534Y-100507862D01*
X139230000Y-99980439D01*
X139230000Y-99409561D01*
X139011534Y-98882138D01*
X138709134Y-98579738D01*
X138842765Y-98553157D01*
X139052809Y-98412809D01*
X139193157Y-98202765D01*
X139242440Y-97955000D01*
X139242440Y-96355000D01*
X139193157Y-96107235D01*
X139129523Y-96012000D01*
X142138401Y-96012000D01*
X142138401Y-97092709D01*
X141890439Y-96990000D01*
X141319561Y-96990000D01*
X140792138Y-97208466D01*
X140388466Y-97612138D01*
X140170000Y-98139561D01*
X140170000Y-98710439D01*
X140388466Y-99237862D01*
X140792138Y-99641534D01*
X140921216Y-99695000D01*
X140792138Y-99748466D01*
X140388466Y-100152138D01*
X140170000Y-100679561D01*
X140170000Y-101250439D01*
X140388466Y-101777862D01*
X140792138Y-102181534D01*
X140921216Y-102235000D01*
X140792138Y-102288466D01*
X140388466Y-102692138D01*
X140170000Y-103219561D01*
X140170000Y-103790439D01*
X140388466Y-104317862D01*
X140792138Y-104721534D01*
X140921216Y-104775000D01*
X140792138Y-104828466D01*
X140388466Y-105232138D01*
X140170000Y-105759561D01*
X140170000Y-106330439D01*
X140388466Y-106857862D01*
X140792138Y-107261534D01*
X140921216Y-107315000D01*
X140792138Y-107368466D01*
X140388466Y-107772138D01*
X140170000Y-108299561D01*
X140170000Y-108870439D01*
X140388466Y-109397862D01*
X140792138Y-109801534D01*
X140921216Y-109855000D01*
X140792138Y-109908466D01*
X140388466Y-110312138D01*
X140170000Y-110839561D01*
X140170000Y-111410439D01*
X140388466Y-111937862D01*
X140792138Y-112341534D01*
X140921216Y-112395000D01*
X140792138Y-112448466D01*
X140388466Y-112852138D01*
X140170000Y-113379561D01*
X140170000Y-113950439D01*
X140388466Y-114477862D01*
X140792138Y-114881534D01*
X140921216Y-114935000D01*
X140792138Y-114988466D01*
X140388466Y-115392138D01*
X140170000Y-115919561D01*
X140170000Y-116490439D01*
X140388466Y-117017862D01*
X140792138Y-117421534D01*
X141319561Y-117640000D01*
X141890439Y-117640000D01*
X142417862Y-117421534D01*
X142720262Y-117119134D01*
X142746843Y-117252765D01*
X142887191Y-117462809D01*
X143097235Y-117603157D01*
X143345000Y-117652440D01*
X144945000Y-117652440D01*
X145192765Y-117603157D01*
X145402809Y-117462809D01*
X145543157Y-117252765D01*
X145592440Y-117005000D01*
X145592440Y-116632853D01*
X146913600Y-116632853D01*
X146913600Y-117047147D01*
X147072144Y-117429906D01*
X147365094Y-117722856D01*
X147747853Y-117881400D01*
X148162147Y-117881400D01*
X148250905Y-117844635D01*
X148342144Y-118064906D01*
X148635094Y-118357856D01*
X149017853Y-118516400D01*
X149432147Y-118516400D01*
X149814906Y-118357856D01*
X150088600Y-118084162D01*
X150088600Y-118317147D01*
X150247144Y-118699906D01*
X150540094Y-118992856D01*
X150922853Y-119151400D01*
X151337147Y-119151400D01*
X151719906Y-118992856D01*
X152012856Y-118699906D01*
X152082500Y-118531771D01*
X152152144Y-118699906D01*
X152445094Y-118992856D01*
X152827853Y-119151400D01*
X153242147Y-119151400D01*
X153624906Y-118992856D01*
X153917856Y-118699906D01*
X154076400Y-118317147D01*
X154076400Y-117902853D01*
X153917856Y-117520094D01*
X153624906Y-117227144D01*
X153242147Y-117068600D01*
X152827853Y-117068600D01*
X152445094Y-117227144D01*
X152152144Y-117520094D01*
X152082500Y-117688229D01*
X152012856Y-117520094D01*
X151719906Y-117227144D01*
X151337147Y-117068600D01*
X151104162Y-117068600D01*
X151377856Y-116794906D01*
X151536400Y-116412147D01*
X151536400Y-115997853D01*
X151377856Y-115615094D01*
X151084906Y-115322144D01*
X150702147Y-115163600D01*
X150287853Y-115163600D01*
X149905094Y-115322144D01*
X149612144Y-115615094D01*
X149453600Y-115997853D01*
X149453600Y-116412147D01*
X149468770Y-116448770D01*
X149432147Y-116433600D01*
X149017853Y-116433600D01*
X148929095Y-116470365D01*
X148837856Y-116250094D01*
X148544906Y-115957144D01*
X148162147Y-115798600D01*
X147747853Y-115798600D01*
X147365094Y-115957144D01*
X147072144Y-116250094D01*
X146913600Y-116632853D01*
X145592440Y-116632853D01*
X145592440Y-115405000D01*
X145543157Y-115157235D01*
X145402809Y-114947191D01*
X145192765Y-114806843D01*
X145059134Y-114780262D01*
X145111543Y-114727853D01*
X151358600Y-114727853D01*
X151358600Y-115142147D01*
X151517144Y-115524906D01*
X151810094Y-115817856D01*
X152192853Y-115976400D01*
X152607147Y-115976400D01*
X152989906Y-115817856D01*
X153282856Y-115524906D01*
X153441400Y-115142147D01*
X153441400Y-114727853D01*
X153282856Y-114345094D01*
X152989906Y-114052144D01*
X152607147Y-113893600D01*
X152192853Y-113893600D01*
X151810094Y-114052144D01*
X151517144Y-114345094D01*
X151358600Y-114727853D01*
X145111543Y-114727853D01*
X145361534Y-114477862D01*
X145580000Y-113950439D01*
X145580000Y-113379561D01*
X145361534Y-112852138D01*
X144957862Y-112448466D01*
X144828784Y-112395000D01*
X144957862Y-112341534D01*
X145361534Y-111937862D01*
X145580000Y-111410439D01*
X145580000Y-110917853D01*
X147548600Y-110917853D01*
X147548600Y-111332147D01*
X147707144Y-111714906D01*
X148000094Y-112007856D01*
X148382853Y-112166400D01*
X148797147Y-112166400D01*
X149179906Y-112007856D01*
X149472856Y-111714906D01*
X149631400Y-111332147D01*
X149631400Y-110917853D01*
X149472856Y-110535094D01*
X149179906Y-110242144D01*
X148797147Y-110083600D01*
X148382853Y-110083600D01*
X148000094Y-110242144D01*
X147707144Y-110535094D01*
X147548600Y-110917853D01*
X145580000Y-110917853D01*
X145580000Y-110839561D01*
X145361534Y-110312138D01*
X144957862Y-109908466D01*
X144828784Y-109855000D01*
X144957862Y-109801534D01*
X145361534Y-109397862D01*
X145580000Y-108870439D01*
X145580000Y-108299561D01*
X145361534Y-107772138D01*
X144957862Y-107368466D01*
X144828784Y-107315000D01*
X144957862Y-107261534D01*
X145361534Y-106857862D01*
X145580000Y-106330439D01*
X145580000Y-105759561D01*
X145361534Y-105232138D01*
X144957862Y-104828466D01*
X144828784Y-104775000D01*
X144957862Y-104721534D01*
X145361534Y-104317862D01*
X145580000Y-103790439D01*
X145580000Y-103219561D01*
X145362424Y-102694286D01*
X146278600Y-101778109D01*
X146278600Y-101807147D01*
X146437144Y-102189906D01*
X146730094Y-102482856D01*
X147112853Y-102641400D01*
X147527147Y-102641400D01*
X147909906Y-102482856D01*
X147955000Y-102437762D01*
X148000094Y-102482856D01*
X148382853Y-102641400D01*
X148797147Y-102641400D01*
X149179906Y-102482856D01*
X149472856Y-102189906D01*
X149631400Y-101807147D01*
X149631400Y-101392853D01*
X149472856Y-101010094D01*
X149179906Y-100717144D01*
X148797147Y-100558600D01*
X148382853Y-100558600D01*
X148000094Y-100717144D01*
X147955000Y-100762238D01*
X147909906Y-100717144D01*
X147527147Y-100558600D01*
X147498110Y-100558600D01*
X148715534Y-99341176D01*
X149017853Y-99466400D01*
X149432147Y-99466400D01*
X149814906Y-99307856D01*
X149860000Y-99262762D01*
X149905094Y-99307856D01*
X150287853Y-99466400D01*
X150702147Y-99466400D01*
X150790905Y-99429635D01*
X150882144Y-99649906D01*
X151175094Y-99942856D01*
X151557853Y-100101400D01*
X151972147Y-100101400D01*
X152298400Y-99966261D01*
X152298400Y-100693739D01*
X151972147Y-100558600D01*
X151557853Y-100558600D01*
X151175094Y-100717144D01*
X150882144Y-101010094D01*
X150723600Y-101392853D01*
X150723600Y-101807147D01*
X150882144Y-102189906D01*
X151175094Y-102482856D01*
X151557853Y-102641400D01*
X151694442Y-102641400D01*
X151648971Y-102870000D01*
X151663401Y-102942545D01*
X151663400Y-108483838D01*
X151517144Y-108630094D01*
X151425905Y-108850365D01*
X151337147Y-108813600D01*
X150922853Y-108813600D01*
X150540094Y-108972144D01*
X150247144Y-109265094D01*
X150088600Y-109647853D01*
X150088600Y-110062147D01*
X150247144Y-110444906D01*
X150540094Y-110737856D01*
X150922853Y-110896400D01*
X151337147Y-110896400D01*
X151719906Y-110737856D01*
X152012856Y-110444906D01*
X152104095Y-110224635D01*
X152192853Y-110261400D01*
X152607147Y-110261400D01*
X152989906Y-110102856D01*
X153282856Y-109809906D01*
X153441400Y-109427147D01*
X153441400Y-109012853D01*
X153282856Y-108630094D01*
X153136600Y-108483838D01*
X153136600Y-103175109D01*
X153252462Y-103059247D01*
X153162000Y-103277643D01*
X153162000Y-103732357D01*
X153336011Y-104152458D01*
X153657542Y-104473989D01*
X154077643Y-104648000D01*
X154532357Y-104648000D01*
X154952458Y-104473989D01*
X155273989Y-104152458D01*
X155448000Y-103732357D01*
X155448000Y-103277643D01*
X155273989Y-102857542D01*
X154952458Y-102536011D01*
X154532357Y-102362000D01*
X154077643Y-102362000D01*
X153732316Y-102505039D01*
X153740558Y-102463600D01*
X153771600Y-102307544D01*
X153771600Y-102307541D01*
X153786029Y-102235000D01*
X153771600Y-102162460D01*
X153771600Y-99487853D01*
X157073600Y-99487853D01*
X157073600Y-99902147D01*
X157232144Y-100284906D01*
X157525094Y-100577856D01*
X157907853Y-100736400D01*
X158322147Y-100736400D01*
X158704906Y-100577856D01*
X158997856Y-100284906D01*
X159156400Y-99902147D01*
X159156400Y-99487853D01*
X158997856Y-99105094D01*
X158704906Y-98812144D01*
X158322147Y-98653600D01*
X157907853Y-98653600D01*
X157525094Y-98812144D01*
X157232144Y-99105094D01*
X157073600Y-99487853D01*
X153771600Y-99487853D01*
X153771600Y-97460109D01*
X155219710Y-96012000D01*
X155499238Y-96012000D01*
X155620094Y-96132856D01*
X156002853Y-96291400D01*
X156417147Y-96291400D01*
X156799906Y-96132856D01*
X156845000Y-96087762D01*
X156890094Y-96132856D01*
X157272853Y-96291400D01*
X157687147Y-96291400D01*
X158069906Y-96132856D01*
X158362856Y-95839906D01*
X158521400Y-95457147D01*
X158521400Y-95042853D01*
X158506230Y-95006230D01*
X158542853Y-95021400D01*
X158957147Y-95021400D01*
X159339906Y-94862856D01*
X159632856Y-94569906D01*
X159647514Y-94534518D01*
X159686011Y-94627458D01*
X160007542Y-94948989D01*
X160427643Y-95123000D01*
X160882357Y-95123000D01*
X161302458Y-94948989D01*
X161607500Y-94643947D01*
X161912542Y-94948989D01*
X162332643Y-95123000D01*
X162787357Y-95123000D01*
X163207458Y-94948989D01*
X163528989Y-94627458D01*
X163703000Y-94207357D01*
X163703000Y-93752643D01*
X163612538Y-93534247D01*
X164363400Y-94285110D01*
X164363401Y-97688837D01*
X164217144Y-97835094D01*
X164058600Y-98217853D01*
X164058600Y-98632147D01*
X164095365Y-98720905D01*
X163875094Y-98812144D01*
X163830000Y-98857238D01*
X163784906Y-98812144D01*
X163402147Y-98653600D01*
X162987853Y-98653600D01*
X162605094Y-98812144D01*
X162312144Y-99105094D01*
X162153600Y-99487853D01*
X162153600Y-99902147D01*
X162168770Y-99938770D01*
X162132147Y-99923600D01*
X161717853Y-99923600D01*
X161335094Y-100082144D01*
X161290000Y-100127238D01*
X161244906Y-100082144D01*
X160862147Y-99923600D01*
X160447853Y-99923600D01*
X160065094Y-100082144D01*
X159772144Y-100375094D01*
X159613600Y-100757853D01*
X159613600Y-101172147D01*
X159772144Y-101554906D01*
X159817238Y-101600000D01*
X159772144Y-101645094D01*
X159613600Y-102027853D01*
X159613600Y-102442147D01*
X159650365Y-102530905D01*
X159430094Y-102622144D01*
X159137144Y-102915094D01*
X158978600Y-103297853D01*
X158978600Y-103712147D01*
X159015365Y-103800905D01*
X158795094Y-103892144D01*
X158502144Y-104185094D01*
X158343600Y-104567853D01*
X158343600Y-104982147D01*
X158502144Y-105364906D01*
X158795094Y-105657856D01*
X159177853Y-105816400D01*
X159592147Y-105816400D01*
X159974906Y-105657856D01*
X160267856Y-105364906D01*
X160334980Y-105202853D01*
X163423600Y-105202853D01*
X163423600Y-105617147D01*
X163582144Y-105999906D01*
X163875094Y-106292856D01*
X164257853Y-106451400D01*
X164672147Y-106451400D01*
X165054906Y-106292856D01*
X165347856Y-105999906D01*
X165414980Y-105837853D01*
X168503600Y-105837853D01*
X168503600Y-106252147D01*
X168662144Y-106634906D01*
X168955094Y-106927856D01*
X169337853Y-107086400D01*
X169752147Y-107086400D01*
X170134906Y-106927856D01*
X170427856Y-106634906D01*
X170586400Y-106252147D01*
X170586400Y-105837853D01*
X170571230Y-105801230D01*
X170607853Y-105816400D01*
X171022147Y-105816400D01*
X171404906Y-105657856D01*
X171697856Y-105364906D01*
X171856400Y-104982147D01*
X171856400Y-104567853D01*
X171697856Y-104185094D01*
X171652762Y-104140000D01*
X171697856Y-104094906D01*
X171856400Y-103712147D01*
X171856400Y-103297853D01*
X171697856Y-102915094D01*
X171445615Y-102662853D01*
X173583600Y-102662853D01*
X173583600Y-103077147D01*
X173742144Y-103459906D01*
X173787238Y-103505000D01*
X173742144Y-103550094D01*
X173583600Y-103932853D01*
X173583600Y-104347147D01*
X173742144Y-104729906D01*
X173787238Y-104775000D01*
X173742144Y-104820094D01*
X173583600Y-105202853D01*
X173583600Y-105617147D01*
X173742144Y-105999906D01*
X174035094Y-106292856D01*
X174417853Y-106451400D01*
X174832147Y-106451400D01*
X175214906Y-106292856D01*
X175507856Y-105999906D01*
X175666400Y-105617147D01*
X175666400Y-105202853D01*
X175507856Y-104820094D01*
X175462762Y-104775000D01*
X175507856Y-104729906D01*
X175666400Y-104347147D01*
X175666400Y-103932853D01*
X175507856Y-103550094D01*
X175462762Y-103505000D01*
X175507856Y-103459906D01*
X175666400Y-103077147D01*
X175666400Y-102662853D01*
X175507856Y-102280094D01*
X175214906Y-101987144D01*
X174832147Y-101828600D01*
X174417853Y-101828600D01*
X174035094Y-101987144D01*
X173742144Y-102280094D01*
X173583600Y-102662853D01*
X171445615Y-102662853D01*
X171404906Y-102622144D01*
X171022147Y-102463600D01*
X170607853Y-102463600D01*
X170225094Y-102622144D01*
X169932144Y-102915094D01*
X169773600Y-103297853D01*
X169773600Y-103712147D01*
X169932144Y-104094906D01*
X169977238Y-104140000D01*
X169932144Y-104185094D01*
X169773600Y-104567853D01*
X169773600Y-104982147D01*
X169788770Y-105018770D01*
X169752147Y-105003600D01*
X169337853Y-105003600D01*
X168955094Y-105162144D01*
X168662144Y-105455094D01*
X168503600Y-105837853D01*
X165414980Y-105837853D01*
X165506400Y-105617147D01*
X165506400Y-105202853D01*
X165347856Y-104820094D01*
X165054906Y-104527144D01*
X164672147Y-104368600D01*
X164257853Y-104368600D01*
X163875094Y-104527144D01*
X163582144Y-104820094D01*
X163423600Y-105202853D01*
X160334980Y-105202853D01*
X160426400Y-104982147D01*
X160426400Y-104567853D01*
X160389635Y-104479095D01*
X160609906Y-104387856D01*
X160902856Y-104094906D01*
X161061400Y-103712147D01*
X161061400Y-103297853D01*
X166598600Y-103297853D01*
X166598600Y-103712147D01*
X166757144Y-104094906D01*
X167050094Y-104387856D01*
X167432853Y-104546400D01*
X167847147Y-104546400D01*
X168229906Y-104387856D01*
X168522856Y-104094906D01*
X168681400Y-103712147D01*
X168681400Y-103297853D01*
X168666230Y-103261230D01*
X168702853Y-103276400D01*
X169117147Y-103276400D01*
X169499906Y-103117856D01*
X169792856Y-102824906D01*
X169951400Y-102442147D01*
X169951400Y-102027853D01*
X169792856Y-101645094D01*
X169747762Y-101600000D01*
X169792856Y-101554906D01*
X169951400Y-101172147D01*
X169951400Y-100757853D01*
X169792856Y-100375094D01*
X169499906Y-100082144D01*
X169117147Y-99923600D01*
X168702853Y-99923600D01*
X168320094Y-100082144D01*
X168027144Y-100375094D01*
X167868600Y-100757853D01*
X167868600Y-101172147D01*
X168027144Y-101554906D01*
X168072238Y-101600000D01*
X168027144Y-101645094D01*
X167868600Y-102027853D01*
X167868600Y-102442147D01*
X167883770Y-102478770D01*
X167847147Y-102463600D01*
X167432853Y-102463600D01*
X167050094Y-102622144D01*
X166757144Y-102915094D01*
X166598600Y-103297853D01*
X161061400Y-103297853D01*
X161024635Y-103209095D01*
X161244906Y-103117856D01*
X161537856Y-102824906D01*
X161696400Y-102442147D01*
X161696400Y-102027853D01*
X161681230Y-101991230D01*
X161717853Y-102006400D01*
X162132147Y-102006400D01*
X162514906Y-101847856D01*
X162807856Y-101554906D01*
X162966400Y-101172147D01*
X162966400Y-100757853D01*
X162951230Y-100721230D01*
X162987853Y-100736400D01*
X163402147Y-100736400D01*
X163784906Y-100577856D01*
X163830000Y-100532762D01*
X163875094Y-100577856D01*
X164257853Y-100736400D01*
X164672147Y-100736400D01*
X164708770Y-100721230D01*
X164693600Y-100757853D01*
X164693600Y-101172147D01*
X164852144Y-101554906D01*
X165145094Y-101847856D01*
X165527853Y-102006400D01*
X165942147Y-102006400D01*
X166324906Y-101847856D01*
X166617856Y-101554906D01*
X166776400Y-101172147D01*
X166776400Y-100757853D01*
X166617856Y-100375094D01*
X166324906Y-100082144D01*
X165942147Y-99923600D01*
X165527853Y-99923600D01*
X165491230Y-99938770D01*
X165506400Y-99902147D01*
X165506400Y-99487853D01*
X165469635Y-99399095D01*
X165689906Y-99307856D01*
X165982856Y-99014906D01*
X166141400Y-98632147D01*
X166141400Y-98217853D01*
X165982856Y-97835094D01*
X165836600Y-97688838D01*
X165836600Y-97582853D01*
X171043600Y-97582853D01*
X171043600Y-97997147D01*
X171202144Y-98379906D01*
X171495094Y-98672856D01*
X171877853Y-98831400D01*
X172292147Y-98831400D01*
X172674906Y-98672856D01*
X172967856Y-98379906D01*
X173126400Y-97997147D01*
X173126400Y-97582853D01*
X172967856Y-97200094D01*
X172674906Y-96907144D01*
X172292147Y-96748600D01*
X171877853Y-96748600D01*
X171495094Y-96907144D01*
X171202144Y-97200094D01*
X171043600Y-97582853D01*
X165836600Y-97582853D01*
X165836600Y-96292643D01*
X172847000Y-96292643D01*
X172847000Y-96747357D01*
X173021011Y-97167458D01*
X173342542Y-97488989D01*
X173487618Y-97549081D01*
X173482000Y-97562643D01*
X173482000Y-98017357D01*
X173656011Y-98437458D01*
X173977542Y-98758989D01*
X174397643Y-98933000D01*
X174852357Y-98933000D01*
X175272458Y-98758989D01*
X175593989Y-98437458D01*
X175768000Y-98017357D01*
X175768000Y-97562643D01*
X175593989Y-97142542D01*
X175272458Y-96821011D01*
X175127382Y-96760919D01*
X175133000Y-96747357D01*
X175133000Y-96292643D01*
X174958989Y-95872542D01*
X174637458Y-95551011D01*
X174217357Y-95377000D01*
X173762643Y-95377000D01*
X173342542Y-95551011D01*
X173021011Y-95872542D01*
X172847000Y-96292643D01*
X165836600Y-96292643D01*
X165836600Y-94488310D01*
X166432851Y-95084561D01*
X166473942Y-95146058D01*
X166535439Y-95187149D01*
X166535441Y-95187151D01*
X166691211Y-95291233D01*
X166717593Y-95308861D01*
X166932456Y-95351600D01*
X166932459Y-95351600D01*
X167005000Y-95366029D01*
X167077540Y-95351600D01*
X167538838Y-95351600D01*
X167685094Y-95497856D01*
X168067853Y-95656400D01*
X168482147Y-95656400D01*
X168864906Y-95497856D01*
X169157856Y-95204906D01*
X169316400Y-94822147D01*
X169316400Y-94407853D01*
X169157856Y-94025094D01*
X168864906Y-93732144D01*
X168482147Y-93573600D01*
X168067853Y-93573600D01*
X167685094Y-93732144D01*
X167538838Y-93878400D01*
X167310110Y-93878400D01*
X165299563Y-91867853D01*
X166598600Y-91867853D01*
X166598600Y-92282147D01*
X166757144Y-92664906D01*
X167050094Y-92957856D01*
X167432853Y-93116400D01*
X167847147Y-93116400D01*
X168229906Y-92957856D01*
X168522856Y-92664906D01*
X168681400Y-92282147D01*
X168681400Y-91867853D01*
X168522856Y-91485094D01*
X168229906Y-91192144D01*
X167847147Y-91033600D01*
X167432853Y-91033600D01*
X167050094Y-91192144D01*
X166757144Y-91485094D01*
X166598600Y-91867853D01*
X165299563Y-91867853D01*
X165087236Y-91655526D01*
X165347856Y-91394906D01*
X165506400Y-91012147D01*
X165506400Y-90597853D01*
X165347856Y-90215094D01*
X165054906Y-89922144D01*
X164672147Y-89763600D01*
X164257853Y-89763600D01*
X163875094Y-89922144D01*
X163604511Y-90192727D01*
X163482407Y-90111139D01*
X163267544Y-90068400D01*
X163267540Y-90068400D01*
X163195000Y-90053971D01*
X163122460Y-90068400D01*
X162661162Y-90068400D01*
X162514906Y-89922144D01*
X162132147Y-89763600D01*
X161717853Y-89763600D01*
X161335094Y-89922144D01*
X161042144Y-90215094D01*
X160883600Y-90597853D01*
X160883600Y-91012147D01*
X161018738Y-91338400D01*
X158242000Y-91338400D01*
X158242000Y-89119447D01*
X158356542Y-89233989D01*
X158776643Y-89408000D01*
X159231357Y-89408000D01*
X159473640Y-89307643D01*
X170307000Y-89307643D01*
X170307000Y-89762357D01*
X170481011Y-90182458D01*
X170802542Y-90503989D01*
X171222643Y-90678000D01*
X171677357Y-90678000D01*
X172097458Y-90503989D01*
X172167922Y-90433525D01*
X172512853Y-90576400D01*
X172927147Y-90576400D01*
X173309906Y-90417856D01*
X173602856Y-90124906D01*
X173761400Y-89742147D01*
X173761400Y-89327853D01*
X173602856Y-88945094D01*
X173309906Y-88652144D01*
X172927147Y-88493600D01*
X172512853Y-88493600D01*
X172167922Y-88636475D01*
X172097458Y-88566011D01*
X171677357Y-88392000D01*
X171222643Y-88392000D01*
X170802542Y-88566011D01*
X170481011Y-88887542D01*
X170307000Y-89307643D01*
X159473640Y-89307643D01*
X159651458Y-89233989D01*
X159972989Y-88912458D01*
X160147000Y-88492357D01*
X160147000Y-88037643D01*
X160030754Y-87757000D01*
X161290000Y-87757000D01*
X161338601Y-87747333D01*
X161379803Y-87719803D01*
X161407333Y-87678601D01*
X161417000Y-87630000D01*
X161417000Y-85217000D01*
X165453218Y-85217000D01*
X165328600Y-85517853D01*
X165328600Y-85517853D01*
G37*
X165328600Y-85517853D02*
X165328600Y-85932147D01*
X165487144Y-86314906D01*
X165780094Y-86607856D01*
X166000365Y-86699095D01*
X165963600Y-86787853D01*
X165963600Y-87202147D01*
X166122144Y-87584906D01*
X166415094Y-87877856D01*
X166797853Y-88036400D01*
X167212147Y-88036400D01*
X167594906Y-87877856D01*
X167887856Y-87584906D01*
X167982278Y-87356950D01*
X171488200Y-87356950D01*
X171488200Y-87880891D01*
X171553938Y-88039595D01*
X171675405Y-88161063D01*
X171834110Y-88226800D01*
X172358050Y-88226800D01*
X172466000Y-88118850D01*
X172466000Y-87249000D01*
X172974000Y-87249000D01*
X172974000Y-88118850D01*
X173081950Y-88226800D01*
X173605890Y-88226800D01*
X173764595Y-88161063D01*
X173886062Y-88039595D01*
X173916450Y-87966232D01*
X174647978Y-87966232D01*
X174742527Y-88139372D01*
X175219849Y-88250290D01*
X175703285Y-88170102D01*
X175777473Y-88139372D01*
X175872022Y-87966232D01*
X175260000Y-87354210D01*
X174647978Y-87966232D01*
X173916450Y-87966232D01*
X173951800Y-87880891D01*
X173951800Y-87356950D01*
X173843850Y-87249000D01*
X172974000Y-87249000D01*
X172466000Y-87249000D01*
X171596150Y-87249000D01*
X171488200Y-87356950D01*
X167982278Y-87356950D01*
X168046400Y-87202147D01*
X168046400Y-86954849D01*
X174004710Y-86954849D01*
X174084898Y-87438285D01*
X174115628Y-87512473D01*
X174288768Y-87607022D01*
X174900790Y-86995000D01*
X174288768Y-86382978D01*
X174115628Y-86477527D01*
X174004710Y-86954849D01*
X168046400Y-86954849D01*
X168046400Y-86787853D01*
X167887856Y-86405094D01*
X167594906Y-86112144D01*
X167587579Y-86109109D01*
X171488200Y-86109109D01*
X171488200Y-86633050D01*
X171596150Y-86741000D01*
X172466000Y-86741000D01*
X172466000Y-85871150D01*
X172974000Y-85871150D01*
X172974000Y-86741000D01*
X173843850Y-86741000D01*
X173951800Y-86633050D01*
X173951800Y-86109109D01*
X173916451Y-86023768D01*
X174647978Y-86023768D01*
X175260000Y-86635790D01*
X175872022Y-86023768D01*
X175777473Y-85850628D01*
X175300151Y-85739710D01*
X174816715Y-85819898D01*
X174742527Y-85850628D01*
X174647978Y-86023768D01*
X173916451Y-86023768D01*
X173886062Y-85950405D01*
X173764595Y-85828937D01*
X173605890Y-85763200D01*
X173081950Y-85763200D01*
X172974000Y-85871150D01*
X172466000Y-85871150D01*
X172358050Y-85763200D01*
X171834110Y-85763200D01*
X171675405Y-85828937D01*
X171553938Y-85950405D01*
X171488200Y-86109109D01*
X167587579Y-86109109D01*
X167374635Y-86020905D01*
X167411400Y-85932147D01*
X167411400Y-85517853D01*
X167286782Y-85217000D01*
X181483000Y-85217000D01*
X181483000Y-86108604D01*
X181152862Y-85778466D01*
X180625439Y-85560000D01*
X180054561Y-85560000D01*
X179527138Y-85778466D01*
X179123466Y-86182138D01*
X179070000Y-86311216D01*
X179016534Y-86182138D01*
X178612862Y-85778466D01*
X178085439Y-85560000D01*
X177514561Y-85560000D01*
X176987138Y-85778466D01*
X176583466Y-86182138D01*
X176432742Y-86546018D01*
X176404372Y-86477527D01*
X176231232Y-86382978D01*
X175619210Y-86995000D01*
X176231232Y-87607022D01*
X176404372Y-87512473D01*
X176424763Y-87424721D01*
X176583466Y-87807862D01*
X176987138Y-88211534D01*
X177514561Y-88430000D01*
X178085439Y-88430000D01*
X178612862Y-88211534D01*
X179016534Y-87807862D01*
X179070000Y-87678784D01*
X179123466Y-87807862D01*
X179527138Y-88211534D01*
X180054561Y-88430000D01*
X180625439Y-88430000D01*
X181152862Y-88211534D01*
X181483000Y-87881396D01*
X181483000Y-90043000D01*
X177800000Y-90043000D01*
X177751399Y-90052667D01*
X177710197Y-90080197D01*
X177682667Y-90121399D01*
X177673000Y-90170000D01*
X177673000Y-118973600D01*
X177592853Y-118973600D01*
X177210094Y-119132144D01*
X176917144Y-119425094D01*
X176758600Y-119807853D01*
X176758600Y-120222147D01*
X176917144Y-120604906D01*
X177210094Y-120897856D01*
X177592853Y-121056400D01*
X177673000Y-121056400D01*
X177673000Y-121793000D01*
X163830000Y-121793000D01*
X163781399Y-121802667D01*
X163740197Y-121830197D01*
X163712667Y-121871399D01*
X163703000Y-121920000D01*
X163703000Y-123063000D01*
X153568709Y-123063000D01*
X156679561Y-119952149D01*
X156741058Y-119911058D01*
X156782149Y-119849561D01*
X156782151Y-119849559D01*
X156903861Y-119667407D01*
X156911728Y-119627856D01*
X156946600Y-119452544D01*
X156946600Y-119452541D01*
X156961029Y-119380000D01*
X156946600Y-119307460D01*
X156946600Y-117267853D01*
X158343600Y-117267853D01*
X158343600Y-117682147D01*
X158502144Y-118064906D01*
X158795094Y-118357856D01*
X159177853Y-118516400D01*
X159592147Y-118516400D01*
X159628770Y-118501230D01*
X159613600Y-118537853D01*
X159613600Y-118952147D01*
X159772144Y-119334906D01*
X160065094Y-119627856D01*
X160447853Y-119786400D01*
X160862147Y-119786400D01*
X161244906Y-119627856D01*
X161537856Y-119334906D01*
X161696400Y-118952147D01*
X161696400Y-118537853D01*
X161537856Y-118155094D01*
X161264162Y-117881400D01*
X161497147Y-117881400D01*
X161879906Y-117722856D01*
X162172856Y-117429906D01*
X162187514Y-117394518D01*
X162226011Y-117487458D01*
X162547542Y-117808989D01*
X162967643Y-117983000D01*
X163422357Y-117983000D01*
X163842458Y-117808989D01*
X164163989Y-117487458D01*
X164338000Y-117067357D01*
X164338000Y-116612643D01*
X164313942Y-116554561D01*
X164935000Y-116554561D01*
X164935000Y-117125439D01*
X165153466Y-117652862D01*
X165557138Y-118056534D01*
X165686216Y-118110000D01*
X165557138Y-118163466D01*
X165153466Y-118567138D01*
X164935000Y-119094561D01*
X164935000Y-119665439D01*
X165153466Y-120192862D01*
X165557138Y-120596534D01*
X166084561Y-120815000D01*
X166655439Y-120815000D01*
X167182862Y-120596534D01*
X167586534Y-120192862D01*
X167640000Y-120063784D01*
X167693466Y-120192862D01*
X168097138Y-120596534D01*
X168624561Y-120815000D01*
X169195439Y-120815000D01*
X169722862Y-120596534D01*
X170025262Y-120294134D01*
X170051843Y-120427765D01*
X170192191Y-120637809D01*
X170402235Y-120778157D01*
X170650000Y-120827440D01*
X172250000Y-120827440D01*
X172497765Y-120778157D01*
X172707809Y-120637809D01*
X172848157Y-120427765D01*
X172897440Y-120180000D01*
X172897440Y-119682676D01*
X173147853Y-119786400D01*
X173562147Y-119786400D01*
X173944906Y-119627856D01*
X174237856Y-119334906D01*
X174396400Y-118952147D01*
X174396400Y-118537853D01*
X174237856Y-118155094D01*
X173944906Y-117862144D01*
X173562147Y-117703600D01*
X173147853Y-117703600D01*
X172765094Y-117862144D01*
X172586262Y-118040976D01*
X172497765Y-117981843D01*
X172250000Y-117932560D01*
X171995767Y-117932560D01*
X172062022Y-117811232D01*
X171450000Y-117199210D01*
X170837978Y-117811232D01*
X170904233Y-117932560D01*
X170650000Y-117932560D01*
X170402235Y-117981843D01*
X170192191Y-118122191D01*
X170051843Y-118332235D01*
X170025262Y-118465866D01*
X169722862Y-118163466D01*
X169593784Y-118110000D01*
X169722862Y-118056534D01*
X170126534Y-117652862D01*
X170277258Y-117288982D01*
X170305628Y-117357473D01*
X170478768Y-117452022D01*
X171090790Y-116840000D01*
X171809210Y-116840000D01*
X172421232Y-117452022D01*
X172594372Y-117357473D01*
X172705290Y-116880151D01*
X172625102Y-116396715D01*
X172594372Y-116322527D01*
X172421232Y-116227978D01*
X171809210Y-116840000D01*
X171090790Y-116840000D01*
X170478768Y-116227978D01*
X170305628Y-116322527D01*
X170285237Y-116410279D01*
X170126534Y-116027138D01*
X169968164Y-115868768D01*
X170837978Y-115868768D01*
X171450000Y-116480790D01*
X171932937Y-115997853D01*
X174218600Y-115997853D01*
X174218600Y-116412147D01*
X174377144Y-116794906D01*
X174670094Y-117087856D01*
X175052853Y-117246400D01*
X175467147Y-117246400D01*
X175849906Y-117087856D01*
X176142856Y-116794906D01*
X176301400Y-116412147D01*
X176301400Y-115997853D01*
X176142856Y-115615094D01*
X175849906Y-115322144D01*
X175467147Y-115163600D01*
X175052853Y-115163600D01*
X174670094Y-115322144D01*
X174377144Y-115615094D01*
X174218600Y-115997853D01*
X171932937Y-115997853D01*
X172062022Y-115868768D01*
X171967473Y-115695628D01*
X171490151Y-115584710D01*
X171006715Y-115664898D01*
X170932527Y-115695628D01*
X170837978Y-115868768D01*
X169968164Y-115868768D01*
X169722862Y-115623466D01*
X169195439Y-115405000D01*
X168624561Y-115405000D01*
X168376600Y-115507709D01*
X168376600Y-112822853D01*
X171043600Y-112822853D01*
X171043600Y-113237147D01*
X171202144Y-113619906D01*
X171495094Y-113912856D01*
X171877853Y-114071400D01*
X172292147Y-114071400D01*
X172674906Y-113912856D01*
X172967856Y-113619906D01*
X173126400Y-113237147D01*
X173126400Y-112822853D01*
X172967856Y-112440094D01*
X172674906Y-112147144D01*
X172292147Y-111988600D01*
X171877853Y-111988600D01*
X171495094Y-112147144D01*
X171202144Y-112440094D01*
X171043600Y-112822853D01*
X168376600Y-112822853D01*
X168376600Y-111430109D01*
X169545310Y-110261400D01*
X169550537Y-110261400D01*
X169423600Y-110567853D01*
X169423600Y-110982147D01*
X169582144Y-111364906D01*
X169875094Y-111657856D01*
X170257853Y-111816400D01*
X170672147Y-111816400D01*
X171054906Y-111657856D01*
X171180119Y-111532643D01*
X174117000Y-111532643D01*
X174117000Y-111987357D01*
X174291011Y-112407458D01*
X174612542Y-112728989D01*
X175032643Y-112903000D01*
X175487357Y-112903000D01*
X175907458Y-112728989D01*
X176228989Y-112407458D01*
X176403000Y-111987357D01*
X176403000Y-111532643D01*
X176228989Y-111112542D01*
X175907458Y-110791011D01*
X175487357Y-110617000D01*
X175032643Y-110617000D01*
X174612542Y-110791011D01*
X174291011Y-111112542D01*
X174117000Y-111532643D01*
X171180119Y-111532643D01*
X171347856Y-111364906D01*
X171506400Y-110982147D01*
X171506400Y-110567853D01*
X171347856Y-110185094D01*
X171054906Y-109892144D01*
X170672147Y-109733600D01*
X170459463Y-109733600D01*
X170586400Y-109427147D01*
X170586400Y-109012853D01*
X170427856Y-108630094D01*
X170134906Y-108337144D01*
X169752147Y-108178600D01*
X169337853Y-108178600D01*
X168955094Y-108337144D01*
X168662144Y-108630094D01*
X168503600Y-109012853D01*
X168503600Y-109219690D01*
X167170442Y-110552849D01*
X167108942Y-110593942D01*
X166946139Y-110837594D01*
X166903400Y-111052457D01*
X166903400Y-111052460D01*
X166888971Y-111125000D01*
X166903400Y-111197540D01*
X166903401Y-115507709D01*
X166655439Y-115405000D01*
X166084561Y-115405000D01*
X165557138Y-115623466D01*
X165153466Y-116027138D01*
X164935000Y-116554561D01*
X164313942Y-116554561D01*
X164163989Y-116192542D01*
X163842458Y-115871011D01*
X163422357Y-115697000D01*
X162967643Y-115697000D01*
X162547542Y-115871011D01*
X162226011Y-116192542D01*
X162187514Y-116285482D01*
X162172856Y-116250094D01*
X161879906Y-115957144D01*
X161497147Y-115798600D01*
X161082853Y-115798600D01*
X160700094Y-115957144D01*
X160407144Y-116250094D01*
X160248600Y-116632853D01*
X160248600Y-116865838D01*
X159974906Y-116592144D01*
X159592147Y-116433600D01*
X159177853Y-116433600D01*
X158795094Y-116592144D01*
X158502144Y-116885094D01*
X158343600Y-117267853D01*
X156946600Y-117267853D01*
X156946600Y-112700109D01*
X158115310Y-111531400D01*
X158322147Y-111531400D01*
X158704906Y-111372856D01*
X158997856Y-111079906D01*
X159064980Y-110917853D01*
X160248600Y-110917853D01*
X160248600Y-111332147D01*
X160407144Y-111714906D01*
X160700094Y-112007856D01*
X161082853Y-112166400D01*
X161497147Y-112166400D01*
X161879906Y-112007856D01*
X162172856Y-111714906D01*
X162331400Y-111332147D01*
X162331400Y-110917853D01*
X164693600Y-110917853D01*
X164693600Y-111332147D01*
X164852144Y-111714906D01*
X165145094Y-112007856D01*
X165527853Y-112166400D01*
X165942147Y-112166400D01*
X166324906Y-112007856D01*
X166617856Y-111714906D01*
X166776400Y-111332147D01*
X166776400Y-110917853D01*
X166617856Y-110535094D01*
X166324906Y-110242144D01*
X165942147Y-110083600D01*
X165527853Y-110083600D01*
X165145094Y-110242144D01*
X164852144Y-110535094D01*
X164693600Y-110917853D01*
X162331400Y-110917853D01*
X162172856Y-110535094D01*
X161879906Y-110242144D01*
X161497147Y-110083600D01*
X161082853Y-110083600D01*
X160700094Y-110242144D01*
X160407144Y-110535094D01*
X160248600Y-110917853D01*
X159064980Y-110917853D01*
X159156400Y-110697147D01*
X159156400Y-110282853D01*
X158997856Y-109900094D01*
X158704906Y-109607144D01*
X158322147Y-109448600D01*
X157907853Y-109448600D01*
X157525094Y-109607144D01*
X157232144Y-109900094D01*
X157073600Y-110282853D01*
X157073600Y-110489690D01*
X155740440Y-111822851D01*
X155678943Y-111863942D01*
X155637852Y-111925439D01*
X155637849Y-111925442D01*
X155516139Y-112107594D01*
X155458971Y-112395000D01*
X155473401Y-112467545D01*
X155473400Y-119074890D01*
X152094891Y-122453400D01*
X147726400Y-122453400D01*
X147726400Y-122347853D01*
X147567856Y-121965094D01*
X147274906Y-121672144D01*
X146892147Y-121513600D01*
X146477853Y-121513600D01*
X146095094Y-121672144D01*
X145802144Y-121965094D01*
X145787486Y-122000482D01*
X145754149Y-121920000D01*
X145923000Y-121512357D01*
X145923000Y-121057643D01*
X145748989Y-120637542D01*
X145427458Y-120316011D01*
X145007357Y-120142000D01*
X144552643Y-120142000D01*
X144132542Y-120316011D01*
X143811011Y-120637542D01*
X143637000Y-121057643D01*
X143637000Y-121512357D01*
X143805851Y-121920000D01*
X143637000Y-122327643D01*
X143637000Y-122782357D01*
X143753246Y-123063000D01*
X108712000Y-123063000D01*
X108712000Y-117698904D01*
X109369376Y-119285951D01*
X110584049Y-120500624D01*
X112171096Y-121158000D01*
X113888904Y-121158000D01*
X115475951Y-120500624D01*
X116690624Y-119285951D01*
X117348000Y-117698904D01*
X117348000Y-117534561D01*
X117870000Y-117534561D01*
X117870000Y-118105439D01*
X118088466Y-118632862D01*
X118492138Y-119036534D01*
X119019561Y-119255000D01*
X119590439Y-119255000D01*
X120117862Y-119036534D01*
X120521534Y-118632862D01*
X120740000Y-118105439D01*
X120740000Y-117534561D01*
X124370000Y-117534561D01*
X124370000Y-118105439D01*
X124588466Y-118632862D01*
X124992138Y-119036534D01*
X125519561Y-119255000D01*
X126090439Y-119255000D01*
X126617862Y-119036534D01*
X127021534Y-118632862D01*
X127240000Y-118105439D01*
X127240000Y-117534561D01*
X127021534Y-117007138D01*
X126617862Y-116603466D01*
X126090439Y-116385000D01*
X125519561Y-116385000D01*
X124992138Y-116603466D01*
X124588466Y-117007138D01*
X124370000Y-117534561D01*
X120740000Y-117534561D01*
X120521534Y-117007138D01*
X120117862Y-116603466D01*
X119590439Y-116385000D01*
X119019561Y-116385000D01*
X118492138Y-116603466D01*
X118088466Y-117007138D01*
X117870000Y-117534561D01*
X117348000Y-117534561D01*
X117348000Y-115981096D01*
X116690624Y-114394049D01*
X115475951Y-113179376D01*
X115126337Y-113034561D01*
X117870000Y-113034561D01*
X117870000Y-113605439D01*
X118088466Y-114132862D01*
X118492138Y-114536534D01*
X119019561Y-114755000D01*
X119590439Y-114755000D01*
X120117862Y-114536534D01*
X120521534Y-114132862D01*
X120740000Y-113605439D01*
X120740000Y-113034561D01*
X120643937Y-112802643D01*
X122682000Y-112802643D01*
X122682000Y-113257357D01*
X122850851Y-113665000D01*
X122682000Y-114072643D01*
X122682000Y-114527357D01*
X122856011Y-114947458D01*
X123177542Y-115268989D01*
X123597643Y-115443000D01*
X124052357Y-115443000D01*
X124472458Y-115268989D01*
X124793989Y-114947458D01*
X124968000Y-114527357D01*
X124968000Y-114512396D01*
X124992138Y-114536534D01*
X125519561Y-114755000D01*
X126090439Y-114755000D01*
X126513677Y-114579689D01*
X126666011Y-114947458D01*
X126987542Y-115268989D01*
X127407643Y-115443000D01*
X127862357Y-115443000D01*
X128282458Y-115268989D01*
X128603989Y-114947458D01*
X128658440Y-114816000D01*
X136393560Y-114816000D01*
X136393560Y-116324000D01*
X136442843Y-116571765D01*
X136583191Y-116781809D01*
X136793235Y-116922157D01*
X137041000Y-116971440D01*
X138549000Y-116971440D01*
X138796765Y-116922157D01*
X139006809Y-116781809D01*
X139147157Y-116571765D01*
X139196440Y-116324000D01*
X139196440Y-114816000D01*
X139147157Y-114568235D01*
X139006809Y-114358191D01*
X138796765Y-114217843D01*
X138549000Y-114168560D01*
X137041000Y-114168560D01*
X136793235Y-114217843D01*
X136583191Y-114358191D01*
X136442843Y-114568235D01*
X136393560Y-114816000D01*
X128658440Y-114816000D01*
X128778000Y-114527357D01*
X128778000Y-114072643D01*
X128609149Y-113665000D01*
X128778000Y-113257357D01*
X128778000Y-112802643D01*
X128603989Y-112382542D01*
X128282458Y-112061011D01*
X127862357Y-111887000D01*
X127407643Y-111887000D01*
X126987542Y-112061011D01*
X126781475Y-112267079D01*
X126617862Y-112103466D01*
X126090439Y-111885000D01*
X125519561Y-111885000D01*
X124992138Y-112103466D01*
X124753526Y-112342079D01*
X124472458Y-112061011D01*
X124052357Y-111887000D01*
X123597643Y-111887000D01*
X123177542Y-112061011D01*
X122856011Y-112382542D01*
X122682000Y-112802643D01*
X120643937Y-112802643D01*
X120521534Y-112507138D01*
X120117862Y-112103466D01*
X119590439Y-111885000D01*
X119019561Y-111885000D01*
X118492138Y-112103466D01*
X118088466Y-112507138D01*
X117870000Y-113034561D01*
X115126337Y-113034561D01*
X113888904Y-112522000D01*
X112171096Y-112522000D01*
X110584049Y-113179376D01*
X109369376Y-114394049D01*
X108712000Y-115981096D01*
X108712000Y-110826232D01*
X109242978Y-110826232D01*
X109337527Y-110999372D01*
X109814849Y-111110290D01*
X110298285Y-111030102D01*
X110372473Y-110999372D01*
X110467022Y-110826232D01*
X109855000Y-110214210D01*
X109242978Y-110826232D01*
X108712000Y-110826232D01*
X108712000Y-110373222D01*
X108883768Y-110467022D01*
X109495790Y-109855000D01*
X108883768Y-109242978D01*
X108712000Y-109336778D01*
X108712000Y-108649523D01*
X108807235Y-108713157D01*
X109055000Y-108762440D01*
X109309233Y-108762440D01*
X109242978Y-108883768D01*
X109855000Y-109495790D01*
X110467022Y-108883768D01*
X110400767Y-108762440D01*
X110655000Y-108762440D01*
X110902765Y-108713157D01*
X111112809Y-108572809D01*
X111253157Y-108362765D01*
X111279738Y-108229134D01*
X111582138Y-108531534D01*
X111711216Y-108585000D01*
X111582138Y-108638466D01*
X111178466Y-109042138D01*
X111027742Y-109406018D01*
X110999372Y-109337527D01*
X110826232Y-109242978D01*
X110214210Y-109855000D01*
X110826232Y-110467022D01*
X110999372Y-110372473D01*
X111019763Y-110284721D01*
X111178466Y-110667862D01*
X111582138Y-111071534D01*
X112109561Y-111290000D01*
X112680439Y-111290000D01*
X113207862Y-111071534D01*
X113611534Y-110667862D01*
X113665000Y-110538784D01*
X113718466Y-110667862D01*
X114122138Y-111071534D01*
X114649561Y-111290000D01*
X115220439Y-111290000D01*
X115747862Y-111071534D01*
X116151534Y-110667862D01*
X116370000Y-110140439D01*
X116370000Y-109569561D01*
X116151534Y-109042138D01*
X115747862Y-108638466D01*
X115618784Y-108585000D01*
X115747862Y-108531534D01*
X115921753Y-108357643D01*
X128397000Y-108357643D01*
X128397000Y-108812357D01*
X128571011Y-109232458D01*
X128892542Y-109553989D01*
X129312643Y-109728000D01*
X129767357Y-109728000D01*
X130187458Y-109553989D01*
X130508989Y-109232458D01*
X130683000Y-108812357D01*
X130683000Y-108357643D01*
X132842000Y-108357643D01*
X132842000Y-108812357D01*
X133016011Y-109232458D01*
X133337542Y-109553989D01*
X133757643Y-109728000D01*
X134212357Y-109728000D01*
X134632458Y-109553989D01*
X134953989Y-109232458D01*
X135128000Y-108812357D01*
X135128000Y-108357643D01*
X134953989Y-107937542D01*
X134632458Y-107616011D01*
X134212357Y-107442000D01*
X133757643Y-107442000D01*
X133337542Y-107616011D01*
X133016011Y-107937542D01*
X132842000Y-108357643D01*
X130683000Y-108357643D01*
X130508989Y-107937542D01*
X130187458Y-107616011D01*
X129767357Y-107442000D01*
X129312643Y-107442000D01*
X128892542Y-107616011D01*
X128571011Y-107937542D01*
X128397000Y-108357643D01*
X115921753Y-108357643D01*
X116151534Y-108127862D01*
X116370000Y-107600439D01*
X116370000Y-107029561D01*
X116151534Y-106502138D01*
X115747862Y-106098466D01*
X115220439Y-105880000D01*
X114649561Y-105880000D01*
X114122138Y-106098466D01*
X113718466Y-106502138D01*
X113665000Y-106631216D01*
X113611534Y-106502138D01*
X113207862Y-106098466D01*
X112680439Y-105880000D01*
X112109561Y-105880000D01*
X111582138Y-106098466D01*
X111279738Y-106400866D01*
X111253157Y-106267235D01*
X111112809Y-106057191D01*
X110902765Y-105916843D01*
X110655000Y-105867560D01*
X109055000Y-105867560D01*
X108807235Y-105916843D01*
X108712000Y-105980477D01*
X108712000Y-105837853D01*
X118338572Y-105837853D01*
X118338572Y-106252147D01*
X118497116Y-106634906D01*
X118790066Y-106927856D01*
X119172825Y-107086400D01*
X119587119Y-107086400D01*
X119969878Y-106927856D01*
X120262828Y-106634906D01*
X120421372Y-106252147D01*
X120421372Y-105837853D01*
X120262828Y-105455094D01*
X119969878Y-105162144D01*
X119587119Y-105003600D01*
X119172825Y-105003600D01*
X118790066Y-105162144D01*
X118497116Y-105455094D01*
X118338572Y-105837853D01*
X108712000Y-105837853D01*
X108712000Y-104391396D01*
X109042138Y-104721534D01*
X109569561Y-104940000D01*
X110140439Y-104940000D01*
X110667862Y-104721534D01*
X111071534Y-104317862D01*
X111125000Y-104188784D01*
X111178466Y-104317862D01*
X111582138Y-104721534D01*
X112109561Y-104940000D01*
X112680439Y-104940000D01*
X113207862Y-104721534D01*
X113611534Y-104317862D01*
X113830000Y-103790439D01*
X113830000Y-103219561D01*
X113611534Y-102692138D01*
X113582249Y-102662853D01*
X122148600Y-102662853D01*
X122148600Y-103077147D01*
X122307144Y-103459906D01*
X122600094Y-103752856D01*
X122982853Y-103911400D01*
X123397147Y-103911400D01*
X123779906Y-103752856D01*
X124072856Y-103459906D01*
X124148351Y-103277643D01*
X133477000Y-103277643D01*
X133477000Y-103732357D01*
X133651011Y-104152458D01*
X133972542Y-104473989D01*
X134392643Y-104648000D01*
X134847357Y-104648000D01*
X135267458Y-104473989D01*
X135588989Y-104152458D01*
X135763000Y-103732357D01*
X135763000Y-103277643D01*
X135588989Y-102857542D01*
X135267458Y-102536011D01*
X134847357Y-102362000D01*
X134392643Y-102362000D01*
X133972542Y-102536011D01*
X133651011Y-102857542D01*
X133477000Y-103277643D01*
X124148351Y-103277643D01*
X124231400Y-103077147D01*
X124231400Y-102662853D01*
X124072856Y-102280094D01*
X123779906Y-101987144D01*
X123397147Y-101828600D01*
X122982853Y-101828600D01*
X122600094Y-101987144D01*
X122307144Y-102280094D01*
X122148600Y-102662853D01*
X113582249Y-102662853D01*
X113207862Y-102288466D01*
X112843982Y-102137742D01*
X112912473Y-102109372D01*
X113007022Y-101936232D01*
X112395000Y-101324210D01*
X111782978Y-101936232D01*
X111877527Y-102109372D01*
X111965279Y-102129763D01*
X111582138Y-102288466D01*
X111178466Y-102692138D01*
X111125000Y-102821216D01*
X111071534Y-102692138D01*
X110667862Y-102288466D01*
X110303982Y-102137742D01*
X110372473Y-102109372D01*
X110467022Y-101936232D01*
X109855000Y-101324210D01*
X109242978Y-101936232D01*
X109337527Y-102109372D01*
X109425279Y-102129763D01*
X109042138Y-102288466D01*
X108712000Y-102618604D01*
X108712000Y-101483222D01*
X108883768Y-101577022D01*
X109495790Y-100965000D01*
X110214210Y-100965000D01*
X110826232Y-101577022D01*
X110999372Y-101482473D01*
X111110290Y-101005151D01*
X111096971Y-100924849D01*
X111139710Y-100924849D01*
X111219898Y-101408285D01*
X111250628Y-101482473D01*
X111423768Y-101577022D01*
X112035790Y-100965000D01*
X112754210Y-100965000D01*
X113366232Y-101577022D01*
X113539372Y-101482473D01*
X113650290Y-101005151D01*
X113570102Y-100521715D01*
X113539372Y-100447527D01*
X113366232Y-100352978D01*
X112754210Y-100965000D01*
X112035790Y-100965000D01*
X111423768Y-100352978D01*
X111250628Y-100447527D01*
X111139710Y-100924849D01*
X111096971Y-100924849D01*
X111030102Y-100521715D01*
X110999372Y-100447527D01*
X110826232Y-100352978D01*
X110214210Y-100965000D01*
X109495790Y-100965000D01*
X108883768Y-100352978D01*
X108712000Y-100446778D01*
X108712000Y-99822000D01*
X108805503Y-99822000D01*
X108807235Y-99823157D01*
X109055000Y-99872440D01*
X109309233Y-99872440D01*
X109242978Y-99993768D01*
X109855000Y-100605790D01*
X110467022Y-99993768D01*
X110400767Y-99872440D01*
X110655000Y-99872440D01*
X110902765Y-99823157D01*
X110904497Y-99822000D01*
X111876778Y-99822000D01*
X111782978Y-99993768D01*
X112395000Y-100605790D01*
X112877937Y-100122853D01*
X120878600Y-100122853D01*
X120878600Y-100537147D01*
X121037144Y-100919906D01*
X121330094Y-101212856D01*
X121712853Y-101371400D01*
X122127147Y-101371400D01*
X122509906Y-101212856D01*
X122802856Y-100919906D01*
X122961400Y-100537147D01*
X122961400Y-100122853D01*
X122924635Y-100034095D01*
X123144906Y-99942856D01*
X123266200Y-99821562D01*
X123266200Y-99932462D01*
X123447945Y-100371233D01*
X123783767Y-100707055D01*
X124222538Y-100888800D01*
X124697462Y-100888800D01*
X125136233Y-100707055D01*
X125472055Y-100371233D01*
X125517777Y-100260851D01*
X125716737Y-100343263D01*
X125828538Y-100613174D01*
X125517945Y-100923767D01*
X125336200Y-101362538D01*
X125336200Y-101837462D01*
X125517945Y-102276233D01*
X125853767Y-102612055D01*
X126292538Y-102793800D01*
X126767462Y-102793800D01*
X127206233Y-102612055D01*
X127542055Y-102276233D01*
X127723800Y-101837462D01*
X127723800Y-101362538D01*
X127542055Y-100923767D01*
X127434735Y-100816447D01*
X127607066Y-100644116D01*
X127765610Y-100261357D01*
X127765610Y-99847063D01*
X127607066Y-99464304D01*
X127314116Y-99171354D01*
X127013263Y-99046737D01*
X126920398Y-98822538D01*
X130251200Y-98822538D01*
X130251200Y-99297462D01*
X130432945Y-99736233D01*
X130768767Y-100072055D01*
X131207538Y-100253800D01*
X131682462Y-100253800D01*
X132121233Y-100072055D01*
X132457055Y-99736233D01*
X132638800Y-99297462D01*
X132638800Y-98822538D01*
X132590435Y-98705774D01*
X132669906Y-98672856D01*
X132962856Y-98379906D01*
X133121400Y-97997147D01*
X133121400Y-97582853D01*
X132962856Y-97200094D01*
X132669906Y-96907144D01*
X132287147Y-96748600D01*
X131872853Y-96748600D01*
X131490094Y-96907144D01*
X131197144Y-97200094D01*
X131038600Y-97582853D01*
X131038600Y-97936176D01*
X130768767Y-98047945D01*
X130432945Y-98383767D01*
X130251200Y-98822538D01*
X126920398Y-98822538D01*
X126888646Y-98745884D01*
X126595696Y-98452934D01*
X126212937Y-98294390D01*
X125798643Y-98294390D01*
X125415884Y-98452934D01*
X125161053Y-98707765D01*
X125136233Y-98682945D01*
X124697462Y-98501200D01*
X124222538Y-98501200D01*
X123783767Y-98682945D01*
X123596400Y-98870312D01*
X123596400Y-98852853D01*
X123437856Y-98470094D01*
X123144906Y-98177144D01*
X122762147Y-98018600D01*
X122347853Y-98018600D01*
X121965094Y-98177144D01*
X121672144Y-98470094D01*
X121513600Y-98852853D01*
X121513600Y-99267147D01*
X121550365Y-99355905D01*
X121330094Y-99447144D01*
X121037144Y-99740094D01*
X120878600Y-100122853D01*
X112877937Y-100122853D01*
X113007022Y-99993768D01*
X112913222Y-99822000D01*
X114935000Y-99822000D01*
X114983601Y-99812333D01*
X115024803Y-99784803D01*
X115052333Y-99743601D01*
X115062000Y-99695000D01*
X115062000Y-98217853D01*
X117068600Y-98217853D01*
X117068600Y-98632147D01*
X117227144Y-99014906D01*
X117520094Y-99307856D01*
X117902853Y-99466400D01*
X118317147Y-99466400D01*
X118699906Y-99307856D01*
X118992856Y-99014906D01*
X119151400Y-98632147D01*
X119151400Y-98217853D01*
X118992856Y-97835094D01*
X118699906Y-97542144D01*
X118317147Y-97383600D01*
X117902853Y-97383600D01*
X117520094Y-97542144D01*
X117227144Y-97835094D01*
X117068600Y-98217853D01*
X115062000Y-98217853D01*
X115062000Y-96911754D01*
X115342643Y-97028000D01*
X115797357Y-97028000D01*
X116217458Y-96853989D01*
X116538989Y-96532458D01*
X116713000Y-96112357D01*
X116713000Y-96012000D01*
X125108228Y-96012000D01*
X125184589Y-96088361D01*
X125567348Y-96246905D01*
X125981642Y-96246905D01*
X126364401Y-96088361D01*
X126440762Y-96012000D01*
X129041415Y-96012000D01*
X129101644Y-96157406D01*
X129394594Y-96450356D01*
X129777353Y-96608900D01*
X130191647Y-96608900D01*
X130492500Y-96484283D01*
X130793353Y-96608900D01*
X131207647Y-96608900D01*
X131590406Y-96450356D01*
X131883356Y-96157406D01*
X131943585Y-96012000D01*
X136460477Y-96012000D01*
X136396843Y-96107235D01*
X136347560Y-96355000D01*
X136347560Y-97955000D01*
X136396843Y-98202765D01*
X136537191Y-98412809D01*
X136747235Y-98553157D01*
X136880866Y-98579738D01*
X136578466Y-98882138D01*
X136360000Y-99409561D01*
X136360000Y-99980439D01*
X136578466Y-100507862D01*
X136982138Y-100911534D01*
X137509561Y-101130000D01*
X138080439Y-101130000D01*
X138607862Y-100911534D01*
X139011534Y-100507862D01*
X139230000Y-99980439D01*
X139230000Y-99409561D01*
X139011534Y-98882138D01*
X138709134Y-98579738D01*
X138842765Y-98553157D01*
X139052809Y-98412809D01*
X139193157Y-98202765D01*
X139242440Y-97955000D01*
X139242440Y-96355000D01*
X139193157Y-96107235D01*
X139129523Y-96012000D01*
X142138401Y-96012000D01*
X142138401Y-97092709D01*
X141890439Y-96990000D01*
X141319561Y-96990000D01*
X140792138Y-97208466D01*
X140388466Y-97612138D01*
X140170000Y-98139561D01*
X140170000Y-98710439D01*
X140388466Y-99237862D01*
X140792138Y-99641534D01*
X140921216Y-99695000D01*
X140792138Y-99748466D01*
X140388466Y-100152138D01*
X140170000Y-100679561D01*
X140170000Y-101250439D01*
X140388466Y-101777862D01*
X140792138Y-102181534D01*
X140921216Y-102235000D01*
X140792138Y-102288466D01*
X140388466Y-102692138D01*
X140170000Y-103219561D01*
X140170000Y-103790439D01*
X140388466Y-104317862D01*
X140792138Y-104721534D01*
X140921216Y-104775000D01*
X140792138Y-104828466D01*
X140388466Y-105232138D01*
X140170000Y-105759561D01*
X140170000Y-106330439D01*
X140388466Y-106857862D01*
X140792138Y-107261534D01*
X140921216Y-107315000D01*
X140792138Y-107368466D01*
X140388466Y-107772138D01*
X140170000Y-108299561D01*
X140170000Y-108870439D01*
X140388466Y-109397862D01*
X140792138Y-109801534D01*
X140921216Y-109855000D01*
X140792138Y-109908466D01*
X140388466Y-110312138D01*
X140170000Y-110839561D01*
X140170000Y-111410439D01*
X140388466Y-111937862D01*
X140792138Y-112341534D01*
X140921216Y-112395000D01*
X140792138Y-112448466D01*
X140388466Y-112852138D01*
X140170000Y-113379561D01*
X140170000Y-113950439D01*
X140388466Y-114477862D01*
X140792138Y-114881534D01*
X140921216Y-114935000D01*
X140792138Y-114988466D01*
X140388466Y-115392138D01*
X140170000Y-115919561D01*
X140170000Y-116490439D01*
X140388466Y-117017862D01*
X140792138Y-117421534D01*
X141319561Y-117640000D01*
X141890439Y-117640000D01*
X142417862Y-117421534D01*
X142720262Y-117119134D01*
X142746843Y-117252765D01*
X142887191Y-117462809D01*
X143097235Y-117603157D01*
X143345000Y-117652440D01*
X144945000Y-117652440D01*
X145192765Y-117603157D01*
X145402809Y-117462809D01*
X145543157Y-117252765D01*
X145592440Y-117005000D01*
X145592440Y-116632853D01*
X146913600Y-116632853D01*
X146913600Y-117047147D01*
X147072144Y-117429906D01*
X147365094Y-117722856D01*
X147747853Y-117881400D01*
X148162147Y-117881400D01*
X148250905Y-117844635D01*
X148342144Y-118064906D01*
X148635094Y-118357856D01*
X149017853Y-118516400D01*
X149432147Y-118516400D01*
X149814906Y-118357856D01*
X150088600Y-118084162D01*
X150088600Y-118317147D01*
X150247144Y-118699906D01*
X150540094Y-118992856D01*
X150922853Y-119151400D01*
X151337147Y-119151400D01*
X151719906Y-118992856D01*
X152012856Y-118699906D01*
X152082500Y-118531771D01*
X152152144Y-118699906D01*
X152445094Y-118992856D01*
X152827853Y-119151400D01*
X153242147Y-119151400D01*
X153624906Y-118992856D01*
X153917856Y-118699906D01*
X154076400Y-118317147D01*
X154076400Y-117902853D01*
X153917856Y-117520094D01*
X153624906Y-117227144D01*
X153242147Y-117068600D01*
X152827853Y-117068600D01*
X152445094Y-117227144D01*
X152152144Y-117520094D01*
X152082500Y-117688229D01*
X152012856Y-117520094D01*
X151719906Y-117227144D01*
X151337147Y-117068600D01*
X151104162Y-117068600D01*
X151377856Y-116794906D01*
X151536400Y-116412147D01*
X151536400Y-115997853D01*
X151377856Y-115615094D01*
X151084906Y-115322144D01*
X150702147Y-115163600D01*
X150287853Y-115163600D01*
X149905094Y-115322144D01*
X149612144Y-115615094D01*
X149453600Y-115997853D01*
X149453600Y-116412147D01*
X149468770Y-116448770D01*
X149432147Y-116433600D01*
X149017853Y-116433600D01*
X148929095Y-116470365D01*
X148837856Y-116250094D01*
X148544906Y-115957144D01*
X148162147Y-115798600D01*
X147747853Y-115798600D01*
X147365094Y-115957144D01*
X147072144Y-116250094D01*
X146913600Y-116632853D01*
X145592440Y-116632853D01*
X145592440Y-115405000D01*
X145543157Y-115157235D01*
X145402809Y-114947191D01*
X145192765Y-114806843D01*
X145059134Y-114780262D01*
X145111543Y-114727853D01*
X151358600Y-114727853D01*
X151358600Y-115142147D01*
X151517144Y-115524906D01*
X151810094Y-115817856D01*
X152192853Y-115976400D01*
X152607147Y-115976400D01*
X152989906Y-115817856D01*
X153282856Y-115524906D01*
X153441400Y-115142147D01*
X153441400Y-114727853D01*
X153282856Y-114345094D01*
X152989906Y-114052144D01*
X152607147Y-113893600D01*
X152192853Y-113893600D01*
X151810094Y-114052144D01*
X151517144Y-114345094D01*
X151358600Y-114727853D01*
X145111543Y-114727853D01*
X145361534Y-114477862D01*
X145580000Y-113950439D01*
X145580000Y-113379561D01*
X145361534Y-112852138D01*
X144957862Y-112448466D01*
X144828784Y-112395000D01*
X144957862Y-112341534D01*
X145361534Y-111937862D01*
X145580000Y-111410439D01*
X145580000Y-110917853D01*
X147548600Y-110917853D01*
X147548600Y-111332147D01*
X147707144Y-111714906D01*
X148000094Y-112007856D01*
X148382853Y-112166400D01*
X148797147Y-112166400D01*
X149179906Y-112007856D01*
X149472856Y-111714906D01*
X149631400Y-111332147D01*
X149631400Y-110917853D01*
X149472856Y-110535094D01*
X149179906Y-110242144D01*
X148797147Y-110083600D01*
X148382853Y-110083600D01*
X148000094Y-110242144D01*
X147707144Y-110535094D01*
X147548600Y-110917853D01*
X145580000Y-110917853D01*
X145580000Y-110839561D01*
X145361534Y-110312138D01*
X144957862Y-109908466D01*
X144828784Y-109855000D01*
X144957862Y-109801534D01*
X145361534Y-109397862D01*
X145580000Y-108870439D01*
X145580000Y-108299561D01*
X145361534Y-107772138D01*
X144957862Y-107368466D01*
X144828784Y-107315000D01*
X144957862Y-107261534D01*
X145361534Y-106857862D01*
X145580000Y-106330439D01*
X145580000Y-105759561D01*
X145361534Y-105232138D01*
X144957862Y-104828466D01*
X144828784Y-104775000D01*
X144957862Y-104721534D01*
X145361534Y-104317862D01*
X145580000Y-103790439D01*
X145580000Y-103219561D01*
X145362424Y-102694286D01*
X146278600Y-101778109D01*
X146278600Y-101807147D01*
X146437144Y-102189906D01*
X146730094Y-102482856D01*
X147112853Y-102641400D01*
X147527147Y-102641400D01*
X147909906Y-102482856D01*
X147955000Y-102437762D01*
X148000094Y-102482856D01*
X148382853Y-102641400D01*
X148797147Y-102641400D01*
X149179906Y-102482856D01*
X149472856Y-102189906D01*
X149631400Y-101807147D01*
X149631400Y-101392853D01*
X149472856Y-101010094D01*
X149179906Y-100717144D01*
X148797147Y-100558600D01*
X148382853Y-100558600D01*
X148000094Y-100717144D01*
X147955000Y-100762238D01*
X147909906Y-100717144D01*
X147527147Y-100558600D01*
X147498110Y-100558600D01*
X148715534Y-99341176D01*
X149017853Y-99466400D01*
X149432147Y-99466400D01*
X149814906Y-99307856D01*
X149860000Y-99262762D01*
X149905094Y-99307856D01*
X150287853Y-99466400D01*
X150702147Y-99466400D01*
X150790905Y-99429635D01*
X150882144Y-99649906D01*
X151175094Y-99942856D01*
X151557853Y-100101400D01*
X151972147Y-100101400D01*
X152298400Y-99966261D01*
X152298400Y-100693739D01*
X151972147Y-100558600D01*
X151557853Y-100558600D01*
X151175094Y-100717144D01*
X150882144Y-101010094D01*
X150723600Y-101392853D01*
X150723600Y-101807147D01*
X150882144Y-102189906D01*
X151175094Y-102482856D01*
X151557853Y-102641400D01*
X151694442Y-102641400D01*
X151648971Y-102870000D01*
X151663401Y-102942545D01*
X151663400Y-108483838D01*
X151517144Y-108630094D01*
X151425905Y-108850365D01*
X151337147Y-108813600D01*
X150922853Y-108813600D01*
X150540094Y-108972144D01*
X150247144Y-109265094D01*
X150088600Y-109647853D01*
X150088600Y-110062147D01*
X150247144Y-110444906D01*
X150540094Y-110737856D01*
X150922853Y-110896400D01*
X151337147Y-110896400D01*
X151719906Y-110737856D01*
X152012856Y-110444906D01*
X152104095Y-110224635D01*
X152192853Y-110261400D01*
X152607147Y-110261400D01*
X152989906Y-110102856D01*
X153282856Y-109809906D01*
X153441400Y-109427147D01*
X153441400Y-109012853D01*
X153282856Y-108630094D01*
X153136600Y-108483838D01*
X153136600Y-103175109D01*
X153252462Y-103059247D01*
X153162000Y-103277643D01*
X153162000Y-103732357D01*
X153336011Y-104152458D01*
X153657542Y-104473989D01*
X154077643Y-104648000D01*
X154532357Y-104648000D01*
X154952458Y-104473989D01*
X155273989Y-104152458D01*
X155448000Y-103732357D01*
X155448000Y-103277643D01*
X155273989Y-102857542D01*
X154952458Y-102536011D01*
X154532357Y-102362000D01*
X154077643Y-102362000D01*
X153732316Y-102505039D01*
X153740558Y-102463600D01*
X153771600Y-102307544D01*
X153771600Y-102307541D01*
X153786029Y-102235000D01*
X153771600Y-102162460D01*
X153771600Y-99487853D01*
X157073600Y-99487853D01*
X157073600Y-99902147D01*
X157232144Y-100284906D01*
X157525094Y-100577856D01*
X157907853Y-100736400D01*
X158322147Y-100736400D01*
X158704906Y-100577856D01*
X158997856Y-100284906D01*
X159156400Y-99902147D01*
X159156400Y-99487853D01*
X158997856Y-99105094D01*
X158704906Y-98812144D01*
X158322147Y-98653600D01*
X157907853Y-98653600D01*
X157525094Y-98812144D01*
X157232144Y-99105094D01*
X157073600Y-99487853D01*
X153771600Y-99487853D01*
X153771600Y-97460109D01*
X155219710Y-96012000D01*
X155499238Y-96012000D01*
X155620094Y-96132856D01*
X156002853Y-96291400D01*
X156417147Y-96291400D01*
X156799906Y-96132856D01*
X156845000Y-96087762D01*
X156890094Y-96132856D01*
X157272853Y-96291400D01*
X157687147Y-96291400D01*
X158069906Y-96132856D01*
X158362856Y-95839906D01*
X158521400Y-95457147D01*
X158521400Y-95042853D01*
X158506230Y-95006230D01*
X158542853Y-95021400D01*
X158957147Y-95021400D01*
X159339906Y-94862856D01*
X159632856Y-94569906D01*
X159647514Y-94534518D01*
X159686011Y-94627458D01*
X160007542Y-94948989D01*
X160427643Y-95123000D01*
X160882357Y-95123000D01*
X161302458Y-94948989D01*
X161607500Y-94643947D01*
X161912542Y-94948989D01*
X162332643Y-95123000D01*
X162787357Y-95123000D01*
X163207458Y-94948989D01*
X163528989Y-94627458D01*
X163703000Y-94207357D01*
X163703000Y-93752643D01*
X163612538Y-93534247D01*
X164363400Y-94285110D01*
X164363401Y-97688837D01*
X164217144Y-97835094D01*
X164058600Y-98217853D01*
X164058600Y-98632147D01*
X164095365Y-98720905D01*
X163875094Y-98812144D01*
X163830000Y-98857238D01*
X163784906Y-98812144D01*
X163402147Y-98653600D01*
X162987853Y-98653600D01*
X162605094Y-98812144D01*
X162312144Y-99105094D01*
X162153600Y-99487853D01*
X162153600Y-99902147D01*
X162168770Y-99938770D01*
X162132147Y-99923600D01*
X161717853Y-99923600D01*
X161335094Y-100082144D01*
X161290000Y-100127238D01*
X161244906Y-100082144D01*
X160862147Y-99923600D01*
X160447853Y-99923600D01*
X160065094Y-100082144D01*
X159772144Y-100375094D01*
X159613600Y-100757853D01*
X159613600Y-101172147D01*
X159772144Y-101554906D01*
X159817238Y-101600000D01*
X159772144Y-101645094D01*
X159613600Y-102027853D01*
X159613600Y-102442147D01*
X159650365Y-102530905D01*
X159430094Y-102622144D01*
X159137144Y-102915094D01*
X158978600Y-103297853D01*
X158978600Y-103712147D01*
X159015365Y-103800905D01*
X158795094Y-103892144D01*
X158502144Y-104185094D01*
X158343600Y-104567853D01*
X158343600Y-104982147D01*
X158502144Y-105364906D01*
X158795094Y-105657856D01*
X159177853Y-105816400D01*
X159592147Y-105816400D01*
X159974906Y-105657856D01*
X160267856Y-105364906D01*
X160334980Y-105202853D01*
X163423600Y-105202853D01*
X163423600Y-105617147D01*
X163582144Y-105999906D01*
X163875094Y-106292856D01*
X164257853Y-106451400D01*
X164672147Y-106451400D01*
X165054906Y-106292856D01*
X165347856Y-105999906D01*
X165414980Y-105837853D01*
X168503600Y-105837853D01*
X168503600Y-106252147D01*
X168662144Y-106634906D01*
X168955094Y-106927856D01*
X169337853Y-107086400D01*
X169752147Y-107086400D01*
X170134906Y-106927856D01*
X170427856Y-106634906D01*
X170586400Y-106252147D01*
X170586400Y-105837853D01*
X170571230Y-105801230D01*
X170607853Y-105816400D01*
X171022147Y-105816400D01*
X171404906Y-105657856D01*
X171697856Y-105364906D01*
X171856400Y-104982147D01*
X171856400Y-104567853D01*
X171697856Y-104185094D01*
X171652762Y-104140000D01*
X171697856Y-104094906D01*
X171856400Y-103712147D01*
X171856400Y-103297853D01*
X171697856Y-102915094D01*
X171445615Y-102662853D01*
X173583600Y-102662853D01*
X173583600Y-103077147D01*
X173742144Y-103459906D01*
X173787238Y-103505000D01*
X173742144Y-103550094D01*
X173583600Y-103932853D01*
X173583600Y-104347147D01*
X173742144Y-104729906D01*
X173787238Y-104775000D01*
X173742144Y-104820094D01*
X173583600Y-105202853D01*
X173583600Y-105617147D01*
X173742144Y-105999906D01*
X174035094Y-106292856D01*
X174417853Y-106451400D01*
X174832147Y-106451400D01*
X175214906Y-106292856D01*
X175507856Y-105999906D01*
X175666400Y-105617147D01*
X175666400Y-105202853D01*
X175507856Y-104820094D01*
X175462762Y-104775000D01*
X175507856Y-104729906D01*
X175666400Y-104347147D01*
X175666400Y-103932853D01*
X175507856Y-103550094D01*
X175462762Y-103505000D01*
X175507856Y-103459906D01*
X175666400Y-103077147D01*
X175666400Y-102662853D01*
X175507856Y-102280094D01*
X175214906Y-101987144D01*
X174832147Y-101828600D01*
X174417853Y-101828600D01*
X174035094Y-101987144D01*
X173742144Y-102280094D01*
X173583600Y-102662853D01*
X171445615Y-102662853D01*
X171404906Y-102622144D01*
X171022147Y-102463600D01*
X170607853Y-102463600D01*
X170225094Y-102622144D01*
X169932144Y-102915094D01*
X169773600Y-103297853D01*
X169773600Y-103712147D01*
X169932144Y-104094906D01*
X169977238Y-104140000D01*
X169932144Y-104185094D01*
X169773600Y-104567853D01*
X169773600Y-104982147D01*
X169788770Y-105018770D01*
X169752147Y-105003600D01*
X169337853Y-105003600D01*
X168955094Y-105162144D01*
X168662144Y-105455094D01*
X168503600Y-105837853D01*
X165414980Y-105837853D01*
X165506400Y-105617147D01*
X165506400Y-105202853D01*
X165347856Y-104820094D01*
X165054906Y-104527144D01*
X164672147Y-104368600D01*
X164257853Y-104368600D01*
X163875094Y-104527144D01*
X163582144Y-104820094D01*
X163423600Y-105202853D01*
X160334980Y-105202853D01*
X160426400Y-104982147D01*
X160426400Y-104567853D01*
X160389635Y-104479095D01*
X160609906Y-104387856D01*
X160902856Y-104094906D01*
X161061400Y-103712147D01*
X161061400Y-103297853D01*
X166598600Y-103297853D01*
X166598600Y-103712147D01*
X166757144Y-104094906D01*
X167050094Y-104387856D01*
X167432853Y-104546400D01*
X167847147Y-104546400D01*
X168229906Y-104387856D01*
X168522856Y-104094906D01*
X168681400Y-103712147D01*
X168681400Y-103297853D01*
X168666230Y-103261230D01*
X168702853Y-103276400D01*
X169117147Y-103276400D01*
X169499906Y-103117856D01*
X169792856Y-102824906D01*
X169951400Y-102442147D01*
X169951400Y-102027853D01*
X169792856Y-101645094D01*
X169747762Y-101600000D01*
X169792856Y-101554906D01*
X169951400Y-101172147D01*
X169951400Y-100757853D01*
X169792856Y-100375094D01*
X169499906Y-100082144D01*
X169117147Y-99923600D01*
X168702853Y-99923600D01*
X168320094Y-100082144D01*
X168027144Y-100375094D01*
X167868600Y-100757853D01*
X167868600Y-101172147D01*
X168027144Y-101554906D01*
X168072238Y-101600000D01*
X168027144Y-101645094D01*
X167868600Y-102027853D01*
X167868600Y-102442147D01*
X167883770Y-102478770D01*
X167847147Y-102463600D01*
X167432853Y-102463600D01*
X167050094Y-102622144D01*
X166757144Y-102915094D01*
X166598600Y-103297853D01*
X161061400Y-103297853D01*
X161024635Y-103209095D01*
X161244906Y-103117856D01*
X161537856Y-102824906D01*
X161696400Y-102442147D01*
X161696400Y-102027853D01*
X161681230Y-101991230D01*
X161717853Y-102006400D01*
X162132147Y-102006400D01*
X162514906Y-101847856D01*
X162807856Y-101554906D01*
X162966400Y-101172147D01*
X162966400Y-100757853D01*
X162951230Y-100721230D01*
X162987853Y-100736400D01*
X163402147Y-100736400D01*
X163784906Y-100577856D01*
X163830000Y-100532762D01*
X163875094Y-100577856D01*
X164257853Y-100736400D01*
X164672147Y-100736400D01*
X164708770Y-100721230D01*
X164693600Y-100757853D01*
X164693600Y-101172147D01*
X164852144Y-101554906D01*
X165145094Y-101847856D01*
X165527853Y-102006400D01*
X165942147Y-102006400D01*
X166324906Y-101847856D01*
X166617856Y-101554906D01*
X166776400Y-101172147D01*
X166776400Y-100757853D01*
X166617856Y-100375094D01*
X166324906Y-100082144D01*
X165942147Y-99923600D01*
X165527853Y-99923600D01*
X165491230Y-99938770D01*
X165506400Y-99902147D01*
X165506400Y-99487853D01*
X165469635Y-99399095D01*
X165689906Y-99307856D01*
X165982856Y-99014906D01*
X166141400Y-98632147D01*
X166141400Y-98217853D01*
X165982856Y-97835094D01*
X165836600Y-97688838D01*
X165836600Y-97582853D01*
X171043600Y-97582853D01*
X171043600Y-97997147D01*
X171202144Y-98379906D01*
X171495094Y-98672856D01*
X171877853Y-98831400D01*
X172292147Y-98831400D01*
X172674906Y-98672856D01*
X172967856Y-98379906D01*
X173126400Y-97997147D01*
X173126400Y-97582853D01*
X172967856Y-97200094D01*
X172674906Y-96907144D01*
X172292147Y-96748600D01*
X171877853Y-96748600D01*
X171495094Y-96907144D01*
X171202144Y-97200094D01*
X171043600Y-97582853D01*
X165836600Y-97582853D01*
X165836600Y-96292643D01*
X172847000Y-96292643D01*
X172847000Y-96747357D01*
X173021011Y-97167458D01*
X173342542Y-97488989D01*
X173487618Y-97549081D01*
X173482000Y-97562643D01*
X173482000Y-98017357D01*
X173656011Y-98437458D01*
X173977542Y-98758989D01*
X174397643Y-98933000D01*
X174852357Y-98933000D01*
X175272458Y-98758989D01*
X175593989Y-98437458D01*
X175768000Y-98017357D01*
X175768000Y-97562643D01*
X175593989Y-97142542D01*
X175272458Y-96821011D01*
X175127382Y-96760919D01*
X175133000Y-96747357D01*
X175133000Y-96292643D01*
X174958989Y-95872542D01*
X174637458Y-95551011D01*
X174217357Y-95377000D01*
X173762643Y-95377000D01*
X173342542Y-95551011D01*
X173021011Y-95872542D01*
X172847000Y-96292643D01*
X165836600Y-96292643D01*
X165836600Y-94488310D01*
X166432851Y-95084561D01*
X166473942Y-95146058D01*
X166535439Y-95187149D01*
X166535441Y-95187151D01*
X166691211Y-95291233D01*
X166717593Y-95308861D01*
X166932456Y-95351600D01*
X166932459Y-95351600D01*
X167005000Y-95366029D01*
X167077540Y-95351600D01*
X167538838Y-95351600D01*
X167685094Y-95497856D01*
X168067853Y-95656400D01*
X168482147Y-95656400D01*
X168864906Y-95497856D01*
X169157856Y-95204906D01*
X169316400Y-94822147D01*
X169316400Y-94407853D01*
X169157856Y-94025094D01*
X168864906Y-93732144D01*
X168482147Y-93573600D01*
X168067853Y-93573600D01*
X167685094Y-93732144D01*
X167538838Y-93878400D01*
X167310110Y-93878400D01*
X165299563Y-91867853D01*
X166598600Y-91867853D01*
X166598600Y-92282147D01*
X166757144Y-92664906D01*
X167050094Y-92957856D01*
X167432853Y-93116400D01*
X167847147Y-93116400D01*
X168229906Y-92957856D01*
X168522856Y-92664906D01*
X168681400Y-92282147D01*
X168681400Y-91867853D01*
X168522856Y-91485094D01*
X168229906Y-91192144D01*
X167847147Y-91033600D01*
X167432853Y-91033600D01*
X167050094Y-91192144D01*
X166757144Y-91485094D01*
X166598600Y-91867853D01*
X165299563Y-91867853D01*
X165087236Y-91655526D01*
X165347856Y-91394906D01*
X165506400Y-91012147D01*
X165506400Y-90597853D01*
X165347856Y-90215094D01*
X165054906Y-89922144D01*
X164672147Y-89763600D01*
X164257853Y-89763600D01*
X163875094Y-89922144D01*
X163604511Y-90192727D01*
X163482407Y-90111139D01*
X163267544Y-90068400D01*
X163267540Y-90068400D01*
X163195000Y-90053971D01*
X163122460Y-90068400D01*
X162661162Y-90068400D01*
X162514906Y-89922144D01*
X162132147Y-89763600D01*
X161717853Y-89763600D01*
X161335094Y-89922144D01*
X161042144Y-90215094D01*
X160883600Y-90597853D01*
X160883600Y-91012147D01*
X161018738Y-91338400D01*
X158242000Y-91338400D01*
X158242000Y-89119447D01*
X158356542Y-89233989D01*
X158776643Y-89408000D01*
X159231357Y-89408000D01*
X159473640Y-89307643D01*
X170307000Y-89307643D01*
X170307000Y-89762357D01*
X170481011Y-90182458D01*
X170802542Y-90503989D01*
X171222643Y-90678000D01*
X171677357Y-90678000D01*
X172097458Y-90503989D01*
X172167922Y-90433525D01*
X172512853Y-90576400D01*
X172927147Y-90576400D01*
X173309906Y-90417856D01*
X173602856Y-90124906D01*
X173761400Y-89742147D01*
X173761400Y-89327853D01*
X173602856Y-88945094D01*
X173309906Y-88652144D01*
X172927147Y-88493600D01*
X172512853Y-88493600D01*
X172167922Y-88636475D01*
X172097458Y-88566011D01*
X171677357Y-88392000D01*
X171222643Y-88392000D01*
X170802542Y-88566011D01*
X170481011Y-88887542D01*
X170307000Y-89307643D01*
X159473640Y-89307643D01*
X159651458Y-89233989D01*
X159972989Y-88912458D01*
X160147000Y-88492357D01*
X160147000Y-88037643D01*
X160030754Y-87757000D01*
X161290000Y-87757000D01*
X161338601Y-87747333D01*
X161379803Y-87719803D01*
X161407333Y-87678601D01*
X161417000Y-87630000D01*
X161417000Y-85217000D01*
X165453218Y-85217000D01*
X165328600Y-85517853D01*
G04 #@! TO.N,+3V3*
G36*
X204063600Y-91867881D02*
X204063600Y-92282175D01*
X204222144Y-92664934D01*
X204515094Y-92957884D01*
X204897853Y-93116428D01*
X205312147Y-93116428D01*
X205694906Y-92957884D01*
X205987856Y-92664934D01*
X206146400Y-92282175D01*
X206146400Y-91867881D01*
X206021771Y-91567000D01*
X206401601Y-91567000D01*
X206401600Y-123063000D01*
X192686783Y-123063000D01*
X192811400Y-122762147D01*
X192811400Y-122347853D01*
X192652856Y-121965094D01*
X192359906Y-121672144D01*
X191977147Y-121513600D01*
X191562853Y-121513600D01*
X191180094Y-121672144D01*
X191059238Y-121793000D01*
X179197000Y-121793000D01*
X179197000Y-119828062D01*
X183210200Y-119828062D01*
X183210200Y-120201938D01*
X183353276Y-120547354D01*
X183617646Y-120811724D01*
X183963062Y-120954800D01*
X184336938Y-120954800D01*
X184682354Y-120811724D01*
X184946724Y-120547354D01*
X185089800Y-120201938D01*
X185089800Y-119828062D01*
X184946724Y-119482646D01*
X184682354Y-119218276D01*
X184336938Y-119075200D01*
X183963062Y-119075200D01*
X183617646Y-119218276D01*
X183353276Y-119482646D01*
X183210200Y-119828062D01*
X179197000Y-119828062D01*
X179197000Y-118558062D01*
X188290200Y-118558062D01*
X188290200Y-118931938D01*
X188433276Y-119277354D01*
X188697646Y-119541724D01*
X189043062Y-119684800D01*
X189416938Y-119684800D01*
X189762354Y-119541724D01*
X190026724Y-119277354D01*
X190169800Y-118931938D01*
X190169800Y-118558062D01*
X192100200Y-118558062D01*
X192100200Y-118931938D01*
X192243276Y-119277354D01*
X192345922Y-119380000D01*
X192243276Y-119482646D01*
X192100200Y-119828062D01*
X192100200Y-120201938D01*
X192243276Y-120547354D01*
X192507646Y-120811724D01*
X192853062Y-120954800D01*
X193226938Y-120954800D01*
X193572354Y-120811724D01*
X193836724Y-120547354D01*
X193979800Y-120201938D01*
X193979800Y-119828062D01*
X193836724Y-119482646D01*
X193734078Y-119380000D01*
X193836724Y-119277354D01*
X193979800Y-118931938D01*
X193979800Y-118558062D01*
X195910200Y-118558062D01*
X195910200Y-118931938D01*
X196053276Y-119277354D01*
X196317646Y-119541724D01*
X196663062Y-119684800D01*
X197036938Y-119684800D01*
X197382354Y-119541724D01*
X197646724Y-119277354D01*
X197789800Y-118931938D01*
X197789800Y-118558062D01*
X197646724Y-118212646D01*
X197382354Y-117948276D01*
X197036938Y-117805200D01*
X196663062Y-117805200D01*
X196317646Y-117948276D01*
X196053276Y-118212646D01*
X195910200Y-118558062D01*
X193979800Y-118558062D01*
X193836724Y-118212646D01*
X193572354Y-117948276D01*
X193226938Y-117805200D01*
X192853062Y-117805200D01*
X192507646Y-117948276D01*
X192243276Y-118212646D01*
X192100200Y-118558062D01*
X190169800Y-118558062D01*
X190026724Y-118212646D01*
X189762354Y-117948276D01*
X189416938Y-117805200D01*
X189043062Y-117805200D01*
X188697646Y-117948276D01*
X188433276Y-118212646D01*
X188290200Y-118558062D01*
X179197000Y-118558062D01*
X179197000Y-118414800D01*
X179256938Y-118414800D01*
X179602354Y-118271724D01*
X179633158Y-118240920D01*
X179750094Y-118357856D01*
X180132853Y-118516400D01*
X180547147Y-118516400D01*
X180929906Y-118357856D01*
X181222856Y-118064906D01*
X181381400Y-117682147D01*
X181381400Y-117267853D01*
X181222856Y-116885094D01*
X180990824Y-116653062D01*
X188925200Y-116653062D01*
X188925200Y-117026938D01*
X189068276Y-117372354D01*
X189332646Y-117636724D01*
X189678062Y-117779800D01*
X190051938Y-117779800D01*
X190397354Y-117636724D01*
X190661724Y-117372354D01*
X190784110Y-117076889D01*
X190948062Y-117144800D01*
X191321938Y-117144800D01*
X191667354Y-117001724D01*
X191931724Y-116737354D01*
X191966638Y-116653062D01*
X195910200Y-116653062D01*
X195910200Y-117026938D01*
X196053276Y-117372354D01*
X196317646Y-117636724D01*
X196663062Y-117779800D01*
X197036938Y-117779800D01*
X197382354Y-117636724D01*
X197612000Y-117407078D01*
X197612000Y-117698904D01*
X198269376Y-119285951D01*
X199484049Y-120500624D01*
X201071096Y-121158000D01*
X202788904Y-121158000D01*
X204375951Y-120500624D01*
X205590624Y-119285951D01*
X206248000Y-117698904D01*
X206248000Y-115981096D01*
X205590624Y-114394049D01*
X204375951Y-113179376D01*
X202788904Y-112522000D01*
X201071096Y-112522000D01*
X199484049Y-113179376D01*
X198343094Y-114320332D01*
X198094162Y-114071400D01*
X198327147Y-114071400D01*
X198709906Y-113912856D01*
X199002856Y-113619906D01*
X199161400Y-113237147D01*
X199161400Y-112822853D01*
X199002856Y-112440094D01*
X198709906Y-112147144D01*
X198327147Y-111988600D01*
X197912853Y-111988600D01*
X197530094Y-112147144D01*
X197237144Y-112440094D01*
X197078600Y-112822853D01*
X197078600Y-113237147D01*
X197237144Y-113619906D01*
X197510838Y-113893600D01*
X197277853Y-113893600D01*
X196895094Y-114052144D01*
X196602144Y-114345094D01*
X196443600Y-114727853D01*
X196443600Y-115142147D01*
X196602144Y-115524906D01*
X196895094Y-115817856D01*
X197277853Y-115976400D01*
X197613945Y-115976400D01*
X197612000Y-115981096D01*
X197612000Y-116272922D01*
X197382354Y-116043276D01*
X197036938Y-115900200D01*
X196663062Y-115900200D01*
X196317646Y-116043276D01*
X196053276Y-116307646D01*
X195910200Y-116653062D01*
X191966638Y-116653062D01*
X192074800Y-116391938D01*
X192074800Y-116018062D01*
X191931724Y-115672646D01*
X191667354Y-115408276D01*
X191321938Y-115265200D01*
X190948062Y-115265200D01*
X190602646Y-115408276D01*
X190338276Y-115672646D01*
X190215890Y-115968111D01*
X190051938Y-115900200D01*
X189678062Y-115900200D01*
X189332646Y-116043276D01*
X189068276Y-116307646D01*
X188925200Y-116653062D01*
X180990824Y-116653062D01*
X180929906Y-116592144D01*
X180547147Y-116433600D01*
X180132853Y-116433600D01*
X179750094Y-116592144D01*
X179633158Y-116709080D01*
X179602354Y-116678276D01*
X179256938Y-116535200D01*
X179197000Y-116535200D01*
X179197000Y-114092853D01*
X179298600Y-114092853D01*
X179298600Y-114507147D01*
X179457144Y-114889906D01*
X179750094Y-115182856D01*
X180132853Y-115341400D01*
X180547147Y-115341400D01*
X180929906Y-115182856D01*
X181222856Y-114889906D01*
X181281609Y-114748062D01*
X188290200Y-114748062D01*
X188290200Y-115121938D01*
X188433276Y-115467354D01*
X188697646Y-115731724D01*
X189043062Y-115874800D01*
X189416938Y-115874800D01*
X189762354Y-115731724D01*
X190026724Y-115467354D01*
X190169800Y-115121938D01*
X190169800Y-114748062D01*
X190026724Y-114402646D01*
X189762354Y-114138276D01*
X189416938Y-113995200D01*
X189043062Y-113995200D01*
X188697646Y-114138276D01*
X188433276Y-114402646D01*
X188290200Y-114748062D01*
X181281609Y-114748062D01*
X181381400Y-114507147D01*
X181381400Y-114092853D01*
X181222856Y-113710094D01*
X180990824Y-113478062D01*
X192100200Y-113478062D01*
X192100200Y-113851938D01*
X192243276Y-114197354D01*
X192507646Y-114461724D01*
X192853062Y-114604800D01*
X193226938Y-114604800D01*
X193572354Y-114461724D01*
X193836724Y-114197354D01*
X193871638Y-114113062D01*
X194005200Y-114113062D01*
X194005200Y-114486938D01*
X194148276Y-114832354D01*
X194412646Y-115096724D01*
X194758062Y-115239800D01*
X195131938Y-115239800D01*
X195477354Y-115096724D01*
X195741724Y-114832354D01*
X195884800Y-114486938D01*
X195884800Y-114113062D01*
X195855769Y-114042976D01*
X196169906Y-113912856D01*
X196462856Y-113619906D01*
X196621400Y-113237147D01*
X196621400Y-112822853D01*
X196462856Y-112440094D01*
X196169906Y-112147144D01*
X195787147Y-111988600D01*
X195372853Y-111988600D01*
X194990094Y-112147144D01*
X194697144Y-112440094D01*
X194538600Y-112822853D01*
X194538600Y-113237147D01*
X194614245Y-113419771D01*
X194412646Y-113503276D01*
X194148276Y-113767646D01*
X194005200Y-114113062D01*
X193871638Y-114113062D01*
X193979800Y-113851938D01*
X193979800Y-113478062D01*
X193836724Y-113132646D01*
X193572354Y-112868276D01*
X193226938Y-112725200D01*
X192853062Y-112725200D01*
X192507646Y-112868276D01*
X192243276Y-113132646D01*
X192100200Y-113478062D01*
X180990824Y-113478062D01*
X180929906Y-113417144D01*
X180547147Y-113258600D01*
X180132853Y-113258600D01*
X179750094Y-113417144D01*
X179457144Y-113710094D01*
X179298600Y-114092853D01*
X179197000Y-114092853D01*
X179197000Y-112676783D01*
X179497853Y-112801400D01*
X179912147Y-112801400D01*
X180294906Y-112642856D01*
X180587856Y-112349906D01*
X180746400Y-111967147D01*
X180746400Y-111552853D01*
X180587856Y-111170094D01*
X180294906Y-110877144D01*
X179912147Y-110718600D01*
X179497853Y-110718600D01*
X179197000Y-110843217D01*
X179197000Y-109668062D01*
X186385200Y-109668062D01*
X186385200Y-110041938D01*
X186528276Y-110387354D01*
X186630922Y-110490000D01*
X186528276Y-110592646D01*
X186385200Y-110938062D01*
X186385200Y-111311938D01*
X186528276Y-111657354D01*
X186792646Y-111921724D01*
X187138062Y-112064800D01*
X187511938Y-112064800D01*
X187756502Y-111963498D01*
X187655200Y-112208062D01*
X187655200Y-112581938D01*
X187798276Y-112927354D01*
X188062646Y-113191724D01*
X188408062Y-113334800D01*
X188781938Y-113334800D01*
X189127354Y-113191724D01*
X189391724Y-112927354D01*
X189534800Y-112581938D01*
X189534800Y-112208062D01*
X189391724Y-111862646D01*
X189127354Y-111598276D01*
X188781938Y-111455200D01*
X188408062Y-111455200D01*
X188163498Y-111556502D01*
X188264800Y-111311938D01*
X188264800Y-110938062D01*
X188256430Y-110917853D01*
X190728600Y-110917853D01*
X190728600Y-111332147D01*
X190887144Y-111714906D01*
X191180094Y-112007856D01*
X191562853Y-112166400D01*
X191977147Y-112166400D01*
X192359906Y-112007856D01*
X192652856Y-111714906D01*
X192811400Y-111332147D01*
X192811400Y-110938062D01*
X200990174Y-110938062D01*
X200990174Y-111311938D01*
X201133250Y-111657354D01*
X201397620Y-111921724D01*
X201743036Y-112064800D01*
X202116912Y-112064800D01*
X202462328Y-111921724D01*
X202726698Y-111657354D01*
X202869774Y-111311938D01*
X202869774Y-110938062D01*
X202726698Y-110592646D01*
X202462328Y-110328276D01*
X202116912Y-110185200D01*
X201743036Y-110185200D01*
X201397620Y-110328276D01*
X201133250Y-110592646D01*
X200990174Y-110938062D01*
X192811400Y-110938062D01*
X192811400Y-110917853D01*
X192652856Y-110535094D01*
X192359906Y-110242144D01*
X191977147Y-110083600D01*
X191562853Y-110083600D01*
X191180094Y-110242144D01*
X190887144Y-110535094D01*
X190728600Y-110917853D01*
X188256430Y-110917853D01*
X188121724Y-110592646D01*
X188019078Y-110490000D01*
X188121724Y-110387354D01*
X188264800Y-110041938D01*
X188264800Y-109668062D01*
X188121724Y-109322646D01*
X187857354Y-109058276D01*
X187511938Y-108915200D01*
X187138062Y-108915200D01*
X186792646Y-109058276D01*
X186528276Y-109322646D01*
X186385200Y-109668062D01*
X179197000Y-109668062D01*
X179197000Y-108377853D01*
X200253600Y-108377853D01*
X200253600Y-108792147D01*
X200412144Y-109174906D01*
X200705094Y-109467856D01*
X201087853Y-109626400D01*
X201502147Y-109626400D01*
X201884906Y-109467856D01*
X202177856Y-109174906D01*
X202336400Y-108792147D01*
X202336400Y-108377853D01*
X202177856Y-107995094D01*
X201884906Y-107702144D01*
X201502147Y-107543600D01*
X201087853Y-107543600D01*
X200705094Y-107702144D01*
X200412144Y-107995094D01*
X200253600Y-108377853D01*
X179197000Y-108377853D01*
X179197000Y-107596783D01*
X179497853Y-107721400D01*
X179912147Y-107721400D01*
X180294906Y-107562856D01*
X180587856Y-107269906D01*
X180746400Y-106887147D01*
X180746400Y-106472853D01*
X180587856Y-106090094D01*
X180294906Y-105797144D01*
X179912147Y-105638600D01*
X179497853Y-105638600D01*
X179197000Y-105763217D01*
X179197000Y-103318062D01*
X191465200Y-103318062D01*
X191465200Y-103691938D01*
X191608276Y-104037354D01*
X191872646Y-104301724D01*
X192218062Y-104444800D01*
X192591938Y-104444800D01*
X192755890Y-104376889D01*
X192878276Y-104672354D01*
X193142646Y-104936724D01*
X193488062Y-105079800D01*
X193861938Y-105079800D01*
X194207354Y-104936724D01*
X194471724Y-104672354D01*
X194614800Y-104326938D01*
X194614800Y-103953062D01*
X194471724Y-103607646D01*
X194207354Y-103343276D01*
X193861938Y-103200200D01*
X193488062Y-103200200D01*
X193324110Y-103268111D01*
X193201724Y-102972646D01*
X192937354Y-102708276D01*
X192876483Y-102683062D01*
X197815200Y-102683062D01*
X197815200Y-103056938D01*
X197958276Y-103402354D01*
X198060922Y-103505000D01*
X197958276Y-103607646D01*
X197815200Y-103953062D01*
X197815200Y-104326938D01*
X197958276Y-104672354D01*
X198222646Y-104936724D01*
X198568062Y-105079800D01*
X198941938Y-105079800D01*
X199287354Y-104936724D01*
X199390000Y-104834078D01*
X199492646Y-104936724D01*
X199838062Y-105079800D01*
X200211938Y-105079800D01*
X200557354Y-104936724D01*
X200821724Y-104672354D01*
X200964800Y-104326938D01*
X200964800Y-103953062D01*
X200821724Y-103607646D01*
X200557354Y-103343276D01*
X200496483Y-103318062D01*
X204165200Y-103318062D01*
X204165200Y-103691938D01*
X204308276Y-104037354D01*
X204572646Y-104301724D01*
X204918062Y-104444800D01*
X205291938Y-104444800D01*
X205637354Y-104301724D01*
X205901724Y-104037354D01*
X206044800Y-103691938D01*
X206044800Y-103318062D01*
X205901724Y-102972646D01*
X205637354Y-102708276D01*
X205291938Y-102565200D01*
X204918062Y-102565200D01*
X204572646Y-102708276D01*
X204308276Y-102972646D01*
X204165200Y-103318062D01*
X200496483Y-103318062D01*
X200211938Y-103200200D01*
X199838062Y-103200200D01*
X199593498Y-103301502D01*
X199694800Y-103056938D01*
X199694800Y-102683062D01*
X199551724Y-102337646D01*
X199287354Y-102073276D01*
X198941938Y-101930200D01*
X198568062Y-101930200D01*
X198222646Y-102073276D01*
X197958276Y-102337646D01*
X197815200Y-102683062D01*
X192876483Y-102683062D01*
X192591938Y-102565200D01*
X192218062Y-102565200D01*
X191872646Y-102708276D01*
X191608276Y-102972646D01*
X191465200Y-103318062D01*
X179197000Y-103318062D01*
X179197000Y-102516783D01*
X179497853Y-102641400D01*
X179912147Y-102641400D01*
X180294906Y-102482856D01*
X180587856Y-102189906D01*
X180746400Y-101807147D01*
X180746400Y-101392853D01*
X180587856Y-101010094D01*
X180294906Y-100717144D01*
X179912147Y-100558600D01*
X179497853Y-100558600D01*
X179197000Y-100683217D01*
X179197000Y-97582853D01*
X180568600Y-97582853D01*
X180568600Y-97997147D01*
X180727144Y-98379906D01*
X181020094Y-98672856D01*
X181402853Y-98831400D01*
X181817147Y-98831400D01*
X182199906Y-98672856D01*
X182492856Y-98379906D01*
X182651400Y-97997147D01*
X182651400Y-97582853D01*
X182614635Y-97494095D01*
X182634771Y-97485755D01*
X182718276Y-97687354D01*
X182982646Y-97951724D01*
X183328062Y-98094800D01*
X183701938Y-98094800D01*
X183814440Y-98048200D01*
X192703551Y-98048200D01*
X192703551Y-101748200D01*
X192744949Y-101956322D01*
X192862841Y-102132759D01*
X193039278Y-102250651D01*
X193247400Y-102292049D01*
X196947400Y-102292049D01*
X197155522Y-102250651D01*
X197331959Y-102132759D01*
X197449851Y-101956322D01*
X197491249Y-101748200D01*
X197491249Y-98048200D01*
X197449851Y-97840078D01*
X197331959Y-97663641D01*
X197155522Y-97545749D01*
X196947400Y-97504351D01*
X193247400Y-97504351D01*
X193039278Y-97545749D01*
X192862841Y-97663641D01*
X192744949Y-97840078D01*
X192703551Y-98048200D01*
X183814440Y-98048200D01*
X184047354Y-97951724D01*
X184311724Y-97687354D01*
X184454800Y-97341938D01*
X184454800Y-96968062D01*
X184408484Y-96856245D01*
X184577853Y-96926400D01*
X184992147Y-96926400D01*
X185374906Y-96767856D01*
X185667856Y-96474906D01*
X185826400Y-96092147D01*
X185826400Y-95677853D01*
X185667856Y-95295094D01*
X185374906Y-95002144D01*
X184992147Y-94843600D01*
X184577853Y-94843600D01*
X184195094Y-95002144D01*
X183902144Y-95295094D01*
X183743600Y-95677853D01*
X183743600Y-96092147D01*
X183813755Y-96261516D01*
X183701938Y-96215200D01*
X183328062Y-96215200D01*
X183257976Y-96244231D01*
X183127856Y-95930094D01*
X182834906Y-95637144D01*
X182452147Y-95478600D01*
X182037853Y-95478600D01*
X181655094Y-95637144D01*
X181362144Y-95930094D01*
X181203600Y-96312853D01*
X181203600Y-96727147D01*
X181240365Y-96815905D01*
X181020094Y-96907144D01*
X180727144Y-97200094D01*
X180568600Y-97582853D01*
X179197000Y-97582853D01*
X179197000Y-91567000D01*
X204188229Y-91567000D01*
X204063600Y-91867881D01*
X204063600Y-91867881D01*
G37*
X204063600Y-91867881D02*
X204063600Y-92282175D01*
X204222144Y-92664934D01*
X204515094Y-92957884D01*
X204897853Y-93116428D01*
X205312147Y-93116428D01*
X205694906Y-92957884D01*
X205987856Y-92664934D01*
X206146400Y-92282175D01*
X206146400Y-91867881D01*
X206021771Y-91567000D01*
X206401601Y-91567000D01*
X206401600Y-123063000D01*
X192686783Y-123063000D01*
X192811400Y-122762147D01*
X192811400Y-122347853D01*
X192652856Y-121965094D01*
X192359906Y-121672144D01*
X191977147Y-121513600D01*
X191562853Y-121513600D01*
X191180094Y-121672144D01*
X191059238Y-121793000D01*
X179197000Y-121793000D01*
X179197000Y-119828062D01*
X183210200Y-119828062D01*
X183210200Y-120201938D01*
X183353276Y-120547354D01*
X183617646Y-120811724D01*
X183963062Y-120954800D01*
X184336938Y-120954800D01*
X184682354Y-120811724D01*
X184946724Y-120547354D01*
X185089800Y-120201938D01*
X185089800Y-119828062D01*
X184946724Y-119482646D01*
X184682354Y-119218276D01*
X184336938Y-119075200D01*
X183963062Y-119075200D01*
X183617646Y-119218276D01*
X183353276Y-119482646D01*
X183210200Y-119828062D01*
X179197000Y-119828062D01*
X179197000Y-118558062D01*
X188290200Y-118558062D01*
X188290200Y-118931938D01*
X188433276Y-119277354D01*
X188697646Y-119541724D01*
X189043062Y-119684800D01*
X189416938Y-119684800D01*
X189762354Y-119541724D01*
X190026724Y-119277354D01*
X190169800Y-118931938D01*
X190169800Y-118558062D01*
X192100200Y-118558062D01*
X192100200Y-118931938D01*
X192243276Y-119277354D01*
X192345922Y-119380000D01*
X192243276Y-119482646D01*
X192100200Y-119828062D01*
X192100200Y-120201938D01*
X192243276Y-120547354D01*
X192507646Y-120811724D01*
X192853062Y-120954800D01*
X193226938Y-120954800D01*
X193572354Y-120811724D01*
X193836724Y-120547354D01*
X193979800Y-120201938D01*
X193979800Y-119828062D01*
X193836724Y-119482646D01*
X193734078Y-119380000D01*
X193836724Y-119277354D01*
X193979800Y-118931938D01*
X193979800Y-118558062D01*
X195910200Y-118558062D01*
X195910200Y-118931938D01*
X196053276Y-119277354D01*
X196317646Y-119541724D01*
X196663062Y-119684800D01*
X197036938Y-119684800D01*
X197382354Y-119541724D01*
X197646724Y-119277354D01*
X197789800Y-118931938D01*
X197789800Y-118558062D01*
X197646724Y-118212646D01*
X197382354Y-117948276D01*
X197036938Y-117805200D01*
X196663062Y-117805200D01*
X196317646Y-117948276D01*
X196053276Y-118212646D01*
X195910200Y-118558062D01*
X193979800Y-118558062D01*
X193836724Y-118212646D01*
X193572354Y-117948276D01*
X193226938Y-117805200D01*
X192853062Y-117805200D01*
X192507646Y-117948276D01*
X192243276Y-118212646D01*
X192100200Y-118558062D01*
X190169800Y-118558062D01*
X190026724Y-118212646D01*
X189762354Y-117948276D01*
X189416938Y-117805200D01*
X189043062Y-117805200D01*
X188697646Y-117948276D01*
X188433276Y-118212646D01*
X188290200Y-118558062D01*
X179197000Y-118558062D01*
X179197000Y-118414800D01*
X179256938Y-118414800D01*
X179602354Y-118271724D01*
X179633158Y-118240920D01*
X179750094Y-118357856D01*
X180132853Y-118516400D01*
X180547147Y-118516400D01*
X180929906Y-118357856D01*
X181222856Y-118064906D01*
X181381400Y-117682147D01*
X181381400Y-117267853D01*
X181222856Y-116885094D01*
X180990824Y-116653062D01*
X188925200Y-116653062D01*
X188925200Y-117026938D01*
X189068276Y-117372354D01*
X189332646Y-117636724D01*
X189678062Y-117779800D01*
X190051938Y-117779800D01*
X190397354Y-117636724D01*
X190661724Y-117372354D01*
X190784110Y-117076889D01*
X190948062Y-117144800D01*
X191321938Y-117144800D01*
X191667354Y-117001724D01*
X191931724Y-116737354D01*
X191966638Y-116653062D01*
X195910200Y-116653062D01*
X195910200Y-117026938D01*
X196053276Y-117372354D01*
X196317646Y-117636724D01*
X196663062Y-117779800D01*
X197036938Y-117779800D01*
X197382354Y-117636724D01*
X197612000Y-117407078D01*
X197612000Y-117698904D01*
X198269376Y-119285951D01*
X199484049Y-120500624D01*
X201071096Y-121158000D01*
X202788904Y-121158000D01*
X204375951Y-120500624D01*
X205590624Y-119285951D01*
X206248000Y-117698904D01*
X206248000Y-115981096D01*
X205590624Y-114394049D01*
X204375951Y-113179376D01*
X202788904Y-112522000D01*
X201071096Y-112522000D01*
X199484049Y-113179376D01*
X198343094Y-114320332D01*
X198094162Y-114071400D01*
X198327147Y-114071400D01*
X198709906Y-113912856D01*
X199002856Y-113619906D01*
X199161400Y-113237147D01*
X199161400Y-112822853D01*
X199002856Y-112440094D01*
X198709906Y-112147144D01*
X198327147Y-111988600D01*
X197912853Y-111988600D01*
X197530094Y-112147144D01*
X197237144Y-112440094D01*
X197078600Y-112822853D01*
X197078600Y-113237147D01*
X197237144Y-113619906D01*
X197510838Y-113893600D01*
X197277853Y-113893600D01*
X196895094Y-114052144D01*
X196602144Y-114345094D01*
X196443600Y-114727853D01*
X196443600Y-115142147D01*
X196602144Y-115524906D01*
X196895094Y-115817856D01*
X197277853Y-115976400D01*
X197613945Y-115976400D01*
X197612000Y-115981096D01*
X197612000Y-116272922D01*
X197382354Y-116043276D01*
X197036938Y-115900200D01*
X196663062Y-115900200D01*
X196317646Y-116043276D01*
X196053276Y-116307646D01*
X195910200Y-116653062D01*
X191966638Y-116653062D01*
X192074800Y-116391938D01*
X192074800Y-116018062D01*
X191931724Y-115672646D01*
X191667354Y-115408276D01*
X191321938Y-115265200D01*
X190948062Y-115265200D01*
X190602646Y-115408276D01*
X190338276Y-115672646D01*
X190215890Y-115968111D01*
X190051938Y-115900200D01*
X189678062Y-115900200D01*
X189332646Y-116043276D01*
X189068276Y-116307646D01*
X188925200Y-116653062D01*
X180990824Y-116653062D01*
X180929906Y-116592144D01*
X180547147Y-116433600D01*
X180132853Y-116433600D01*
X179750094Y-116592144D01*
X179633158Y-116709080D01*
X179602354Y-116678276D01*
X179256938Y-116535200D01*
X179197000Y-116535200D01*
X179197000Y-114092853D01*
X179298600Y-114092853D01*
X179298600Y-114507147D01*
X179457144Y-114889906D01*
X179750094Y-115182856D01*
X180132853Y-115341400D01*
X180547147Y-115341400D01*
X180929906Y-115182856D01*
X181222856Y-114889906D01*
X181281609Y-114748062D01*
X188290200Y-114748062D01*
X188290200Y-115121938D01*
X188433276Y-115467354D01*
X188697646Y-115731724D01*
X189043062Y-115874800D01*
X189416938Y-115874800D01*
X189762354Y-115731724D01*
X190026724Y-115467354D01*
X190169800Y-115121938D01*
X190169800Y-114748062D01*
X190026724Y-114402646D01*
X189762354Y-114138276D01*
X189416938Y-113995200D01*
X189043062Y-113995200D01*
X188697646Y-114138276D01*
X188433276Y-114402646D01*
X188290200Y-114748062D01*
X181281609Y-114748062D01*
X181381400Y-114507147D01*
X181381400Y-114092853D01*
X181222856Y-113710094D01*
X180990824Y-113478062D01*
X192100200Y-113478062D01*
X192100200Y-113851938D01*
X192243276Y-114197354D01*
X192507646Y-114461724D01*
X192853062Y-114604800D01*
X193226938Y-114604800D01*
X193572354Y-114461724D01*
X193836724Y-114197354D01*
X193871638Y-114113062D01*
X194005200Y-114113062D01*
X194005200Y-114486938D01*
X194148276Y-114832354D01*
X194412646Y-115096724D01*
X194758062Y-115239800D01*
X195131938Y-115239800D01*
X195477354Y-115096724D01*
X195741724Y-114832354D01*
X195884800Y-114486938D01*
X195884800Y-114113062D01*
X195855769Y-114042976D01*
X196169906Y-113912856D01*
X196462856Y-113619906D01*
X196621400Y-113237147D01*
X196621400Y-112822853D01*
X196462856Y-112440094D01*
X196169906Y-112147144D01*
X195787147Y-111988600D01*
X195372853Y-111988600D01*
X194990094Y-112147144D01*
X194697144Y-112440094D01*
X194538600Y-112822853D01*
X194538600Y-113237147D01*
X194614245Y-113419771D01*
X194412646Y-113503276D01*
X194148276Y-113767646D01*
X194005200Y-114113062D01*
X193871638Y-114113062D01*
X193979800Y-113851938D01*
X193979800Y-113478062D01*
X193836724Y-113132646D01*
X193572354Y-112868276D01*
X193226938Y-112725200D01*
X192853062Y-112725200D01*
X192507646Y-112868276D01*
X192243276Y-113132646D01*
X192100200Y-113478062D01*
X180990824Y-113478062D01*
X180929906Y-113417144D01*
X180547147Y-113258600D01*
X180132853Y-113258600D01*
X179750094Y-113417144D01*
X179457144Y-113710094D01*
X179298600Y-114092853D01*
X179197000Y-114092853D01*
X179197000Y-112676783D01*
X179497853Y-112801400D01*
X179912147Y-112801400D01*
X180294906Y-112642856D01*
X180587856Y-112349906D01*
X180746400Y-111967147D01*
X180746400Y-111552853D01*
X180587856Y-111170094D01*
X180294906Y-110877144D01*
X179912147Y-110718600D01*
X179497853Y-110718600D01*
X179197000Y-110843217D01*
X179197000Y-109668062D01*
X186385200Y-109668062D01*
X186385200Y-110041938D01*
X186528276Y-110387354D01*
X186630922Y-110490000D01*
X186528276Y-110592646D01*
X186385200Y-110938062D01*
X186385200Y-111311938D01*
X186528276Y-111657354D01*
X186792646Y-111921724D01*
X187138062Y-112064800D01*
X187511938Y-112064800D01*
X187756502Y-111963498D01*
X187655200Y-112208062D01*
X187655200Y-112581938D01*
X187798276Y-112927354D01*
X188062646Y-113191724D01*
X188408062Y-113334800D01*
X188781938Y-113334800D01*
X189127354Y-113191724D01*
X189391724Y-112927354D01*
X189534800Y-112581938D01*
X189534800Y-112208062D01*
X189391724Y-111862646D01*
X189127354Y-111598276D01*
X188781938Y-111455200D01*
X188408062Y-111455200D01*
X188163498Y-111556502D01*
X188264800Y-111311938D01*
X188264800Y-110938062D01*
X188256430Y-110917853D01*
X190728600Y-110917853D01*
X190728600Y-111332147D01*
X190887144Y-111714906D01*
X191180094Y-112007856D01*
X191562853Y-112166400D01*
X191977147Y-112166400D01*
X192359906Y-112007856D01*
X192652856Y-111714906D01*
X192811400Y-111332147D01*
X192811400Y-110938062D01*
X200990174Y-110938062D01*
X200990174Y-111311938D01*
X201133250Y-111657354D01*
X201397620Y-111921724D01*
X201743036Y-112064800D01*
X202116912Y-112064800D01*
X202462328Y-111921724D01*
X202726698Y-111657354D01*
X202869774Y-111311938D01*
X202869774Y-110938062D01*
X202726698Y-110592646D01*
X202462328Y-110328276D01*
X202116912Y-110185200D01*
X201743036Y-110185200D01*
X201397620Y-110328276D01*
X201133250Y-110592646D01*
X200990174Y-110938062D01*
X192811400Y-110938062D01*
X192811400Y-110917853D01*
X192652856Y-110535094D01*
X192359906Y-110242144D01*
X191977147Y-110083600D01*
X191562853Y-110083600D01*
X191180094Y-110242144D01*
X190887144Y-110535094D01*
X190728600Y-110917853D01*
X188256430Y-110917853D01*
X188121724Y-110592646D01*
X188019078Y-110490000D01*
X188121724Y-110387354D01*
X188264800Y-110041938D01*
X188264800Y-109668062D01*
X188121724Y-109322646D01*
X187857354Y-109058276D01*
X187511938Y-108915200D01*
X187138062Y-108915200D01*
X186792646Y-109058276D01*
X186528276Y-109322646D01*
X186385200Y-109668062D01*
X179197000Y-109668062D01*
X179197000Y-108377853D01*
X200253600Y-108377853D01*
X200253600Y-108792147D01*
X200412144Y-109174906D01*
X200705094Y-109467856D01*
X201087853Y-109626400D01*
X201502147Y-109626400D01*
X201884906Y-109467856D01*
X202177856Y-109174906D01*
X202336400Y-108792147D01*
X202336400Y-108377853D01*
X202177856Y-107995094D01*
X201884906Y-107702144D01*
X201502147Y-107543600D01*
X201087853Y-107543600D01*
X200705094Y-107702144D01*
X200412144Y-107995094D01*
X200253600Y-108377853D01*
X179197000Y-108377853D01*
X179197000Y-107596783D01*
X179497853Y-107721400D01*
X179912147Y-107721400D01*
X180294906Y-107562856D01*
X180587856Y-107269906D01*
X180746400Y-106887147D01*
X180746400Y-106472853D01*
X180587856Y-106090094D01*
X180294906Y-105797144D01*
X179912147Y-105638600D01*
X179497853Y-105638600D01*
X179197000Y-105763217D01*
X179197000Y-103318062D01*
X191465200Y-103318062D01*
X191465200Y-103691938D01*
X191608276Y-104037354D01*
X191872646Y-104301724D01*
X192218062Y-104444800D01*
X192591938Y-104444800D01*
X192755890Y-104376889D01*
X192878276Y-104672354D01*
X193142646Y-104936724D01*
X193488062Y-105079800D01*
X193861938Y-105079800D01*
X194207354Y-104936724D01*
X194471724Y-104672354D01*
X194614800Y-104326938D01*
X194614800Y-103953062D01*
X194471724Y-103607646D01*
X194207354Y-103343276D01*
X193861938Y-103200200D01*
X193488062Y-103200200D01*
X193324110Y-103268111D01*
X193201724Y-102972646D01*
X192937354Y-102708276D01*
X192876483Y-102683062D01*
X197815200Y-102683062D01*
X197815200Y-103056938D01*
X197958276Y-103402354D01*
X198060922Y-103505000D01*
X197958276Y-103607646D01*
X197815200Y-103953062D01*
X197815200Y-104326938D01*
X197958276Y-104672354D01*
X198222646Y-104936724D01*
X198568062Y-105079800D01*
X198941938Y-105079800D01*
X199287354Y-104936724D01*
X199390000Y-104834078D01*
X199492646Y-104936724D01*
X199838062Y-105079800D01*
X200211938Y-105079800D01*
X200557354Y-104936724D01*
X200821724Y-104672354D01*
X200964800Y-104326938D01*
X200964800Y-103953062D01*
X200821724Y-103607646D01*
X200557354Y-103343276D01*
X200496483Y-103318062D01*
X204165200Y-103318062D01*
X204165200Y-103691938D01*
X204308276Y-104037354D01*
X204572646Y-104301724D01*
X204918062Y-104444800D01*
X205291938Y-104444800D01*
X205637354Y-104301724D01*
X205901724Y-104037354D01*
X206044800Y-103691938D01*
X206044800Y-103318062D01*
X205901724Y-102972646D01*
X205637354Y-102708276D01*
X205291938Y-102565200D01*
X204918062Y-102565200D01*
X204572646Y-102708276D01*
X204308276Y-102972646D01*
X204165200Y-103318062D01*
X200496483Y-103318062D01*
X200211938Y-103200200D01*
X199838062Y-103200200D01*
X199593498Y-103301502D01*
X199694800Y-103056938D01*
X199694800Y-102683062D01*
X199551724Y-102337646D01*
X199287354Y-102073276D01*
X198941938Y-101930200D01*
X198568062Y-101930200D01*
X198222646Y-102073276D01*
X197958276Y-102337646D01*
X197815200Y-102683062D01*
X192876483Y-102683062D01*
X192591938Y-102565200D01*
X192218062Y-102565200D01*
X191872646Y-102708276D01*
X191608276Y-102972646D01*
X191465200Y-103318062D01*
X179197000Y-103318062D01*
X179197000Y-102516783D01*
X179497853Y-102641400D01*
X179912147Y-102641400D01*
X180294906Y-102482856D01*
X180587856Y-102189906D01*
X180746400Y-101807147D01*
X180746400Y-101392853D01*
X180587856Y-101010094D01*
X180294906Y-100717144D01*
X179912147Y-100558600D01*
X179497853Y-100558600D01*
X179197000Y-100683217D01*
X179197000Y-97582853D01*
X180568600Y-97582853D01*
X180568600Y-97997147D01*
X180727144Y-98379906D01*
X181020094Y-98672856D01*
X181402853Y-98831400D01*
X181817147Y-98831400D01*
X182199906Y-98672856D01*
X182492856Y-98379906D01*
X182651400Y-97997147D01*
X182651400Y-97582853D01*
X182614635Y-97494095D01*
X182634771Y-97485755D01*
X182718276Y-97687354D01*
X182982646Y-97951724D01*
X183328062Y-98094800D01*
X183701938Y-98094800D01*
X183814440Y-98048200D01*
X192703551Y-98048200D01*
X192703551Y-101748200D01*
X192744949Y-101956322D01*
X192862841Y-102132759D01*
X193039278Y-102250651D01*
X193247400Y-102292049D01*
X196947400Y-102292049D01*
X197155522Y-102250651D01*
X197331959Y-102132759D01*
X197449851Y-101956322D01*
X197491249Y-101748200D01*
X197491249Y-98048200D01*
X197449851Y-97840078D01*
X197331959Y-97663641D01*
X197155522Y-97545749D01*
X196947400Y-97504351D01*
X193247400Y-97504351D01*
X193039278Y-97545749D01*
X192862841Y-97663641D01*
X192744949Y-97840078D01*
X192703551Y-98048200D01*
X183814440Y-98048200D01*
X184047354Y-97951724D01*
X184311724Y-97687354D01*
X184454800Y-97341938D01*
X184454800Y-96968062D01*
X184408484Y-96856245D01*
X184577853Y-96926400D01*
X184992147Y-96926400D01*
X185374906Y-96767856D01*
X185667856Y-96474906D01*
X185826400Y-96092147D01*
X185826400Y-95677853D01*
X185667856Y-95295094D01*
X185374906Y-95002144D01*
X184992147Y-94843600D01*
X184577853Y-94843600D01*
X184195094Y-95002144D01*
X183902144Y-95295094D01*
X183743600Y-95677853D01*
X183743600Y-96092147D01*
X183813755Y-96261516D01*
X183701938Y-96215200D01*
X183328062Y-96215200D01*
X183257976Y-96244231D01*
X183127856Y-95930094D01*
X182834906Y-95637144D01*
X182452147Y-95478600D01*
X182037853Y-95478600D01*
X181655094Y-95637144D01*
X181362144Y-95930094D01*
X181203600Y-96312853D01*
X181203600Y-96727147D01*
X181240365Y-96815905D01*
X181020094Y-96907144D01*
X180727144Y-97200094D01*
X180568600Y-97582853D01*
X179197000Y-97582853D01*
X179197000Y-91567000D01*
X204188229Y-91567000D01*
X204063600Y-91867881D01*
G04 #@! TO.N,/VIN*
G36*
X112903000Y-95250000D02*
X112912667Y-95298601D01*
X112940197Y-95339803D01*
X114173000Y-96572606D01*
X114173000Y-98933000D01*
X113541573Y-98933000D01*
X113650290Y-98465151D01*
X113570102Y-97981715D01*
X113539372Y-97907527D01*
X113366232Y-97812978D01*
X112754210Y-98425000D01*
X112768353Y-98439143D01*
X112409143Y-98798353D01*
X112395000Y-98784210D01*
X112380858Y-98798353D01*
X112021648Y-98439143D01*
X112035790Y-98425000D01*
X111423768Y-97812978D01*
X111250628Y-97907527D01*
X111139710Y-98384849D01*
X111219898Y-98868285D01*
X111246704Y-98933000D01*
X111086800Y-98933000D01*
X111086800Y-98786950D01*
X110978850Y-98679000D01*
X110109000Y-98679000D01*
X110109000Y-98699000D01*
X109601000Y-98699000D01*
X109601000Y-98679000D01*
X109581000Y-98679000D01*
X109581000Y-98171000D01*
X109601000Y-98171000D01*
X109601000Y-97301150D01*
X110109000Y-97301150D01*
X110109000Y-98171000D01*
X110978850Y-98171000D01*
X111086800Y-98063050D01*
X111086800Y-97539110D01*
X111051451Y-97453768D01*
X111782978Y-97453768D01*
X112395000Y-98065790D01*
X113007022Y-97453768D01*
X112912473Y-97280628D01*
X112435151Y-97169710D01*
X111951715Y-97249898D01*
X111877527Y-97280628D01*
X111782978Y-97453768D01*
X111051451Y-97453768D01*
X111021063Y-97380405D01*
X110899595Y-97258938D01*
X110740891Y-97193200D01*
X110216950Y-97193200D01*
X110109000Y-97301150D01*
X109601000Y-97301150D01*
X109493050Y-97193200D01*
X108969109Y-97193200D01*
X108810405Y-97258938D01*
X108712000Y-97357342D01*
X108712000Y-89662000D01*
X112903000Y-89662000D01*
X112903000Y-95250000D01*
X112903000Y-95250000D01*
G37*
X112903000Y-95250000D02*
X112912667Y-95298601D01*
X112940197Y-95339803D01*
X114173000Y-96572606D01*
X114173000Y-98933000D01*
X113541573Y-98933000D01*
X113650290Y-98465151D01*
X113570102Y-97981715D01*
X113539372Y-97907527D01*
X113366232Y-97812978D01*
X112754210Y-98425000D01*
X112768353Y-98439143D01*
X112409143Y-98798353D01*
X112395000Y-98784210D01*
X112380858Y-98798353D01*
X112021648Y-98439143D01*
X112035790Y-98425000D01*
X111423768Y-97812978D01*
X111250628Y-97907527D01*
X111139710Y-98384849D01*
X111219898Y-98868285D01*
X111246704Y-98933000D01*
X111086800Y-98933000D01*
X111086800Y-98786950D01*
X110978850Y-98679000D01*
X110109000Y-98679000D01*
X110109000Y-98699000D01*
X109601000Y-98699000D01*
X109601000Y-98679000D01*
X109581000Y-98679000D01*
X109581000Y-98171000D01*
X109601000Y-98171000D01*
X109601000Y-97301150D01*
X110109000Y-97301150D01*
X110109000Y-98171000D01*
X110978850Y-98171000D01*
X111086800Y-98063050D01*
X111086800Y-97539110D01*
X111051451Y-97453768D01*
X111782978Y-97453768D01*
X112395000Y-98065790D01*
X113007022Y-97453768D01*
X112912473Y-97280628D01*
X112435151Y-97169710D01*
X111951715Y-97249898D01*
X111877527Y-97280628D01*
X111782978Y-97453768D01*
X111051451Y-97453768D01*
X111021063Y-97380405D01*
X110899595Y-97258938D01*
X110740891Y-97193200D01*
X110216950Y-97193200D01*
X110109000Y-97301150D01*
X109601000Y-97301150D01*
X109493050Y-97193200D01*
X108969109Y-97193200D01*
X108810405Y-97258938D01*
X108712000Y-97357342D01*
X108712000Y-89662000D01*
X112903000Y-89662000D01*
X112903000Y-95250000D01*
G04 #@! TD*
D21*
X123825000Y-114300000D03*
X123825000Y-113030000D03*
X127635000Y-114300000D03*
X127635000Y-113030000D03*
X134620000Y-103505000D03*
X171450000Y-89535000D03*
X201295000Y-108585000D03*
X195580000Y-113030000D03*
X205105000Y-92075028D03*
X180340000Y-114300000D03*
X173990000Y-96520000D03*
X182245000Y-96520000D03*
X181610000Y-97790000D03*
X174625000Y-97790000D03*
X144780000Y-122555000D03*
X144780000Y-121285000D03*
X175260000Y-111760000D03*
X163195000Y-116840000D03*
X162560000Y-93980000D03*
X144780000Y-90170000D03*
X159004000Y-88265000D03*
X180340000Y-117475000D03*
X184785000Y-95885000D03*
X179705000Y-111760000D03*
X179705000Y-106680000D03*
X179705000Y-101600000D03*
X133985000Y-108585000D03*
X129540000Y-108585000D03*
X154305000Y-103505000D03*
X146685000Y-94615000D03*
X160655000Y-93980000D03*
X154940000Y-93980000D03*
X197485000Y-114935000D03*
X198120000Y-113030000D03*
X191770000Y-111125000D03*
X191770000Y-122555000D03*
X115570000Y-90170000D03*
X115570000Y-92075000D03*
X115570000Y-93980000D03*
X115570000Y-95885000D03*
X150495000Y-116205000D03*
X187325000Y-109855000D03*
X152400000Y-109220000D03*
X156210000Y-95250000D03*
X131445000Y-101600000D03*
X117475000Y-99695000D03*
X132715000Y-118110000D03*
X160655000Y-88265000D03*
X173990000Y-93345000D03*
X173990000Y-94615000D03*
X173990000Y-92075000D03*
X174625000Y-117475000D03*
X127635000Y-122555000D03*
X127635000Y-121285000D03*
X170815000Y-107950000D03*
X163195000Y-111125000D03*
X154305000Y-112395000D03*
X154305000Y-98425000D03*
X147320000Y-113665000D03*
X149860000Y-113665000D03*
X168275000Y-93345000D03*
X150495000Y-98425000D03*
X160655000Y-102235000D03*
X149860000Y-93980000D03*
X161925000Y-100965000D03*
X184150000Y-120015000D03*
X196850000Y-118745000D03*
X173355000Y-118745000D03*
X160655000Y-118745000D03*
X169545000Y-109220000D03*
X132080000Y-97790000D03*
X152400000Y-114935000D03*
X112395000Y-90170000D03*
X112395000Y-92075000D03*
X109855000Y-90170000D03*
X109855000Y-92075000D03*
X118110000Y-98425000D03*
X122555000Y-99060000D03*
X121920000Y-100330000D03*
X131445000Y-99060000D03*
X126530000Y-101600000D03*
X124460000Y-99695000D03*
X128905000Y-87630000D03*
X126724210Y-100054210D03*
X131000500Y-95567500D03*
X126005790Y-99335790D03*
X129984500Y-95567500D03*
X123190000Y-102870000D03*
X119379972Y-106045000D03*
X133667500Y-94615000D03*
X127317500Y-94615000D03*
X128905000Y-85725000D03*
X131445000Y-85725000D03*
X125730000Y-93345000D03*
X159385000Y-117475000D03*
X160655000Y-100965000D03*
X195580000Y-104140000D03*
X190500000Y-104140000D03*
X182245000Y-94615000D03*
X182245000Y-92075000D03*
X182245000Y-93345000D03*
X197485000Y-120015000D03*
X172720000Y-89535000D03*
X167640000Y-92075000D03*
X168910000Y-100965000D03*
X201929974Y-111125000D03*
X189865000Y-116840000D03*
X193675000Y-104140000D03*
X189230000Y-114935000D03*
X183515000Y-97155000D03*
X196850000Y-116840000D03*
X188595000Y-112395000D03*
X194945000Y-114300000D03*
X191135000Y-116205000D03*
X193040000Y-120015000D03*
X189230000Y-118745000D03*
X187325000Y-111125000D03*
X193040000Y-118745000D03*
X193040000Y-113665000D03*
X170465000Y-110775000D03*
X179070000Y-117475000D03*
X175260000Y-116205000D03*
X177800000Y-120015000D03*
X172085000Y-113030000D03*
X161290000Y-111125000D03*
X149225000Y-98425000D03*
X151765000Y-99060000D03*
X147320000Y-97790000D03*
X158115000Y-99695000D03*
X145415000Y-99695000D03*
X151765000Y-93345000D03*
X146685000Y-92710000D03*
X153035000Y-94615000D03*
X165100000Y-98425000D03*
X164465000Y-99695000D03*
X172085000Y-97790000D03*
X164465000Y-105410000D03*
X169545000Y-106045000D03*
X165735000Y-100965000D03*
X166370000Y-85725000D03*
X149225000Y-117475000D03*
X167640000Y-103505000D03*
X151130000Y-109855000D03*
X167005000Y-86995000D03*
X168910000Y-102235000D03*
X147955000Y-116840000D03*
X164465000Y-90805000D03*
X148590000Y-111125000D03*
X151765000Y-101600000D03*
X159385000Y-104775000D03*
X163195000Y-99695000D03*
X148590000Y-101600000D03*
X147320000Y-101600000D03*
X160020000Y-103505000D03*
X161290000Y-116840000D03*
X165735000Y-111125000D03*
X153035000Y-118110000D03*
X151130000Y-118110000D03*
X157480000Y-95250000D03*
X158115000Y-110490000D03*
X146685000Y-122555000D03*
X158750000Y-93980000D03*
X157480000Y-93980000D03*
X161925000Y-90805000D03*
X144780000Y-88900000D03*
X168275000Y-94615000D03*
X170815000Y-103505000D03*
X174625000Y-102870000D03*
X174625000Y-104140000D03*
X170815000Y-104775000D03*
X174625000Y-105410000D03*
X200025000Y-104140000D03*
X192405000Y-103505000D03*
X198755000Y-102870000D03*
X198755000Y-104140000D03*
X205105000Y-103505000D03*
X121285000Y-93345000D03*
X125774495Y-95205505D03*
X116165000Y-86550000D03*
X112165000Y-86550000D03*
X120650000Y-86360000D03*
X137795000Y-97155000D03*
X137795000Y-99695000D03*
X109855000Y-98425000D03*
X112395000Y-98425000D03*
X109855000Y-100965000D03*
X112395000Y-100965000D03*
X109855000Y-103505000D03*
X112395000Y-103505000D03*
X166370000Y-116840000D03*
X166370000Y-119380000D03*
X168910000Y-116840000D03*
X168910000Y-119380000D03*
X171450000Y-116840000D03*
X171450000Y-119380000D03*
X125805000Y-113320000D03*
X119305000Y-113320000D03*
X119305000Y-117820000D03*
X125805000Y-117820000D03*
X195097400Y-99898200D03*
X180340000Y-86995000D03*
X177800000Y-86995000D03*
X175260000Y-86995000D03*
X172720000Y-86995000D03*
X115009734Y-115697000D03*
X115009734Y-117983000D03*
X113030000Y-119126000D03*
X111050266Y-117983000D03*
X111050266Y-115697000D03*
X113030000Y-114554000D03*
X113030000Y-116840000D03*
X203909734Y-115697000D03*
X203909734Y-117983000D03*
X201930000Y-119126000D03*
X199950266Y-117983000D03*
X199950266Y-115697000D03*
X201930000Y-114554000D03*
X201930000Y-116840000D03*
X141679734Y-89662000D03*
X141679734Y-91948000D03*
X139700000Y-93091000D03*
X137720266Y-91948000D03*
X137720266Y-89662000D03*
X139700000Y-88519000D03*
X139700000Y-90805000D03*
X114935000Y-109855000D03*
X114935000Y-107315000D03*
X112395000Y-109855000D03*
X112395000Y-107315000D03*
X109855000Y-109855000D03*
X109855000Y-107315000D03*
X141605000Y-98425000D03*
X144145000Y-98425000D03*
X141605000Y-100965000D03*
X144145000Y-100965000D03*
X141605000Y-103505000D03*
X144145000Y-103505000D03*
X141605000Y-106045000D03*
X144145000Y-106045000D03*
X141605000Y-108585000D03*
X144145000Y-108585000D03*
X141605000Y-111125000D03*
X144145000Y-111125000D03*
X141605000Y-113665000D03*
X144145000Y-113665000D03*
X141605000Y-116205000D03*
X144145000Y-116205000D03*
X137795000Y-115570000D03*
M02*
