G04 #@! TF.GenerationSoftware,KiCad,Pcbnew,5.0.0-fee4fd1~65~ubuntu17.10.1*
G04 #@! TF.CreationDate,2018-09-18T22:06:37-04:00*
G04 #@! TF.ProjectId,motherboard,6D6F74686572626F6172642E6B696361,rev?*
G04 #@! TF.SameCoordinates,Original*
G04 #@! TF.FileFunction,Legend,Top*
G04 #@! TF.FilePolarity,Positive*
%FSLAX46Y46*%
G04 Gerber Fmt 4.6, Leading zero omitted, Abs format (unit mm)*
G04 Created by KiCad (PCBNEW 5.0.0-fee4fd1~65~ubuntu17.10.1) date Tue Sep 18 22:06:37 2018*
%MOMM*%
%LPD*%
G01*
G04 APERTURE LIST*
%ADD10C,0.180000*%
%ADD11C,0.250000*%
%ADD12C,0.150000*%
%ADD13C,0.400000*%
%ADD14C,0.300000*%
G04 APERTURE END LIST*
D10*
G04 #@! TO.C,U8*
X122420000Y-116570000D02*
X122970000Y-116570000D01*
X121420000Y-116570000D02*
X120870000Y-116570000D01*
X122420000Y-116570000D02*
G75*
G03X121920000Y-116070000I-500000J0D01*
G01*
X121920000Y-116070000D02*
G75*
G03X121420000Y-116570000I0J-500000D01*
G01*
X120870000Y-114570000D02*
X122970000Y-114570000D01*
G04 #@! TO.C,C13*
X135001000Y-121793000D02*
X135001000Y-118237000D01*
X135001000Y-118237000D02*
X136779000Y-118237000D01*
X136779000Y-118237000D02*
X136779000Y-121793000D01*
X136779000Y-121793000D02*
X135001000Y-121793000D01*
D11*
G04 #@! TO.C,U9*
X156090000Y-120045000D02*
G75*
G03X156090000Y-120045000I-100000J0D01*
G01*
D10*
X154310000Y-119745000D02*
X154310000Y-117745000D01*
X154310000Y-117745000D02*
X155570000Y-117745000D01*
X154310000Y-119745000D02*
X155570000Y-119745000D01*
X155570000Y-119745000D02*
X155570000Y-117745000D01*
G04 #@! TO.C,F1*
X137160000Y-94615000D02*
X134620000Y-94615000D01*
X137160000Y-99695000D02*
X137160000Y-94615000D01*
X134620000Y-99695000D02*
X137160000Y-99695000D01*
X134620000Y-94615000D02*
X134620000Y-99695000D01*
G04 #@! TO.C,J18*
X206375000Y-109855000D02*
X206375000Y-112395000D01*
X201295000Y-109855000D02*
X206375000Y-109855000D01*
X201295000Y-112395000D02*
X201295000Y-109855000D01*
X206375000Y-112395000D02*
X201295000Y-112395000D01*
G04 #@! TO.C,U7*
X147360000Y-98130000D02*
X152360000Y-98130000D01*
X147360000Y-102530000D02*
X147360000Y-98130000D01*
X152360000Y-102530000D02*
X147360000Y-102530000D01*
X151860000Y-100330000D02*
G75*
G03X152360000Y-100830000I500000J0D01*
G01*
X152360000Y-99830000D02*
G75*
G03X151860000Y-100330000I0J-500000D01*
G01*
X152360000Y-100830000D02*
X152360000Y-102530000D01*
X152360000Y-99830000D02*
X152360000Y-98130000D01*
G04 #@! TO.C,U5*
X193335000Y-115610000D02*
X193335000Y-120610000D01*
X188935000Y-115610000D02*
X193335000Y-115610000D01*
X188935000Y-120610000D02*
X188935000Y-115610000D01*
X191135000Y-120110000D02*
G75*
G03X190635000Y-120610000I0J-500000D01*
G01*
X191635000Y-120610000D02*
G75*
G03X191135000Y-120110000I-500000J0D01*
G01*
X190635000Y-120610000D02*
X188935000Y-120610000D01*
X191635000Y-120610000D02*
X193335000Y-120610000D01*
G04 #@! TO.C,U4*
X188214000Y-89535000D02*
X202946000Y-84455000D01*
X202946000Y-89535000D02*
X188214000Y-84455000D01*
X188214000Y-89535000D02*
X202946000Y-89535000D01*
X202946000Y-84455000D02*
X202946000Y-90678000D01*
X202946000Y-95758000D02*
X202946000Y-94996000D01*
X202946000Y-99822000D02*
X202946000Y-97028000D01*
X202946000Y-106172000D02*
X202946000Y-104140000D01*
X202946000Y-106172000D02*
X200914000Y-106172000D01*
X190754000Y-106172000D02*
X192532000Y-106172000D01*
X188214000Y-106172000D02*
X189484000Y-106172000D01*
X188214000Y-84455000D02*
X188214000Y-92710000D01*
X188214000Y-106172000D02*
X188214000Y-103124000D01*
X188214000Y-84455000D02*
X202946000Y-84455000D01*
G04 #@! TO.C,Y2*
X182975000Y-103180000D02*
X182975000Y-110180000D01*
X182975000Y-110180000D02*
X181975000Y-110180000D01*
X179975000Y-110180000D02*
X178975000Y-110180000D01*
X178975000Y-110180000D02*
X178975000Y-103180000D01*
X178975000Y-103180000D02*
X179975000Y-103180000D01*
X182975000Y-103180000D02*
X181975000Y-103180000D01*
G04 #@! TO.C,Y1*
X131350000Y-115260000D02*
X131350000Y-108260000D01*
X131350000Y-108260000D02*
X132350000Y-108260000D01*
X134350000Y-108260000D02*
X135350000Y-108260000D01*
X135350000Y-108260000D02*
X135350000Y-115260000D01*
X135350000Y-115260000D02*
X134350000Y-115260000D01*
X131350000Y-115260000D02*
X132350000Y-115260000D01*
G04 #@! TO.C,J5*
X156550000Y-88900000D02*
X147800000Y-88900000D01*
X157800000Y-94350000D02*
X146400000Y-94350000D01*
X146400000Y-94350000D02*
X146400000Y-92350000D01*
X157800000Y-90200000D02*
X157800000Y-91200000D01*
X157800000Y-94350000D02*
X157800000Y-92800000D01*
G04 #@! TO.C,J2*
X127175000Y-84550000D02*
X127175000Y-83050000D01*
X128675000Y-85150000D02*
X127475000Y-85150000D01*
X128675000Y-86650000D02*
X128675000Y-85150000D01*
X131675000Y-86650000D02*
X128675000Y-86650000D01*
X131675000Y-85150000D02*
X131675000Y-86650000D01*
X132875000Y-85150000D02*
X131675000Y-85150000D01*
X133175000Y-83050000D02*
X133175000Y-84550000D01*
X133175000Y-83050000D02*
X127175000Y-83050000D01*
X134025000Y-82550000D02*
X126325000Y-82550000D01*
X126325000Y-82550000D02*
X126325000Y-84550000D01*
X134025000Y-82550000D02*
X134025000Y-84550000D01*
X134025000Y-88950000D02*
X134025000Y-89550000D01*
X134025000Y-89550000D02*
X132325000Y-89550000D01*
X128025000Y-89550000D02*
X126325000Y-89550000D01*
X126325000Y-89550000D02*
X126325000Y-88950000D01*
D12*
G04 #@! TO.C,J1*
X112265000Y-95050000D02*
X117465000Y-95050000D01*
X109665000Y-85250000D02*
X109665000Y-86450000D01*
X110465000Y-85250000D02*
X109665000Y-85250000D01*
X110465000Y-83750000D02*
X110465000Y-85250000D01*
X109665000Y-83750000D02*
X110465000Y-83750000D01*
X109665000Y-82550000D02*
X109665000Y-83750000D01*
X118665000Y-85250000D02*
X118665000Y-86450000D01*
X118665000Y-82550000D02*
X118665000Y-83750000D01*
X117865000Y-85250000D02*
X118665000Y-85250000D01*
X117865000Y-83750000D02*
X117865000Y-85250000D01*
X118665000Y-83750000D02*
X117865000Y-83750000D01*
X110465000Y-86450000D02*
X110465000Y-93050000D01*
X109665000Y-86450000D02*
X110465000Y-86450000D01*
X117865000Y-86450000D02*
X117865000Y-90150000D01*
X118665000Y-86450000D02*
X117865000Y-86450000D01*
X109665000Y-82550000D02*
X118665000Y-82550000D01*
D10*
G04 #@! TO.C,U2*
X165735000Y-85130000D02*
G75*
G03X167005000Y-85130000I635000J0D01*
G01*
X164420000Y-88773000D02*
X164420000Y-89027000D01*
X164420000Y-87503000D02*
X164420000Y-87757000D01*
X164420000Y-86233000D02*
X164420000Y-86487000D01*
X168320000Y-88773000D02*
X168320000Y-89027000D01*
X168320000Y-87503000D02*
X168320000Y-87757000D01*
X168320000Y-86233000D02*
X168320000Y-86487000D01*
X165170000Y-90130000D02*
X165170000Y-85130000D01*
X167005000Y-85130000D02*
X168320000Y-85130000D01*
X164420000Y-85130000D02*
X165735000Y-85130000D01*
X168320000Y-90130000D02*
X164420000Y-90130000D01*
G04 #@! TO.C,U3*
X125405000Y-103865000D02*
X125405000Y-97465000D01*
X125405000Y-97465000D02*
X132405000Y-97465000D01*
X132405000Y-97465000D02*
X132405000Y-104465000D01*
X132405000Y-104465000D02*
X126005000Y-104465000D01*
X125405000Y-103865000D02*
X126005000Y-104465000D01*
D13*
X126605000Y-103465000D02*
G75*
G03X126605000Y-103465000I-200000J0D01*
G01*
D10*
G04 #@! TO.C,U1*
X157465000Y-110775000D02*
X157465000Y-97775000D01*
X157465000Y-97775000D02*
X171465000Y-97775000D01*
X171465000Y-97775000D02*
X171465000Y-111775000D01*
X171465000Y-111775000D02*
X158465000Y-111775000D01*
X157465000Y-110775000D02*
X158465000Y-111775000D01*
D13*
X159165000Y-110275000D02*
G75*
G03X159165000Y-110275000I-200000J0D01*
G01*
D10*
G04 #@! TO.C,C26*
X153416000Y-103378000D02*
X153416000Y-99822000D01*
X153416000Y-99822000D02*
X155194000Y-99822000D01*
X155194000Y-99822000D02*
X155194000Y-103378000D01*
X155194000Y-103378000D02*
X153416000Y-103378000D01*
G04 #@! TO.C,R22*
X163322000Y-91186000D02*
X166878000Y-91186000D01*
X166878000Y-91186000D02*
X166878000Y-92964000D01*
X166878000Y-92964000D02*
X163322000Y-92964000D01*
X163322000Y-92964000D02*
X163322000Y-91186000D01*
G04 #@! TO.C,C25*
X163322000Y-93091000D02*
X166878000Y-93091000D01*
X166878000Y-93091000D02*
X166878000Y-94869000D01*
X166878000Y-94869000D02*
X163322000Y-94869000D01*
X163322000Y-94869000D02*
X163322000Y-93091000D01*
G04 #@! TO.C,L1*
X125222000Y-91567000D02*
X121158000Y-91567000D01*
X121158000Y-91567000D02*
X121158000Y-93853000D01*
X121158000Y-93853000D02*
X125222000Y-93853000D01*
X125222000Y-93853000D02*
X125222000Y-91567000D01*
G04 #@! TO.C,R8*
X176276000Y-108458000D02*
X176276000Y-104902000D01*
X176276000Y-104902000D02*
X178054000Y-104902000D01*
X178054000Y-104902000D02*
X178054000Y-108458000D01*
X178054000Y-108458000D02*
X176276000Y-108458000D01*
G04 #@! TO.C,R7*
X128651000Y-109982000D02*
X130429000Y-109982000D01*
X128651000Y-113538000D02*
X128651000Y-109982000D01*
X130429000Y-113538000D02*
X128651000Y-113538000D01*
X130429000Y-109982000D02*
X130429000Y-113538000D01*
G04 #@! TO.C,R5*
X117602000Y-105156000D02*
X121158000Y-105156000D01*
X121158000Y-105156000D02*
X121158000Y-106934000D01*
X121158000Y-106934000D02*
X117602000Y-106934000D01*
X117602000Y-106934000D02*
X117602000Y-105156000D01*
G04 #@! TO.C,R4*
X128651000Y-90614500D02*
X130429000Y-90614500D01*
X128651000Y-94170500D02*
X128651000Y-90614500D01*
X130429000Y-94170500D02*
X128651000Y-94170500D01*
X130429000Y-90614500D02*
X130429000Y-94170500D01*
G04 #@! TO.C,R3*
X132334000Y-90614500D02*
X132334000Y-94170500D01*
X132334000Y-94170500D02*
X130556000Y-94170500D01*
X130556000Y-94170500D02*
X130556000Y-90614500D01*
X130556000Y-90614500D02*
X132334000Y-90614500D01*
G04 #@! TO.C,J10*
X108585000Y-97155000D02*
X113665000Y-97155000D01*
X113665000Y-104775000D02*
X108585000Y-104775000D01*
X113665000Y-97155000D02*
X113665000Y-104775000D01*
X108585000Y-104775000D02*
X108585000Y-97155000D01*
G04 #@! TO.C,C20*
X181483000Y-89408000D02*
X179197000Y-89408000D01*
X181483000Y-93472000D02*
X181483000Y-89408000D01*
X179197000Y-93472000D02*
X181483000Y-93472000D01*
X179197000Y-89408000D02*
X179197000Y-93472000D01*
G04 #@! TO.C,C19*
X175387000Y-89408000D02*
X175387000Y-93472000D01*
X175387000Y-93472000D02*
X177673000Y-93472000D01*
X177673000Y-93472000D02*
X177673000Y-89408000D01*
X177673000Y-89408000D02*
X175387000Y-89408000D01*
D14*
G04 #@! TO.C,U6*
X177185000Y-94135000D02*
G75*
G03X177185000Y-94135000I-150000J0D01*
G01*
D10*
X179235000Y-95435000D02*
X179235000Y-96335000D01*
X179235000Y-97335000D02*
X177635000Y-97335000D01*
X179235000Y-94435000D02*
X177635000Y-94435000D01*
G04 #@! TO.C,C12*
X154432000Y-122174000D02*
X154432000Y-120396000D01*
X157988000Y-122174000D02*
X154432000Y-122174000D01*
X157988000Y-120396000D02*
X157988000Y-122174000D01*
X154432000Y-120396000D02*
X157988000Y-120396000D01*
G04 #@! TO.C,J3*
X171450000Y-88265000D02*
X171450000Y-85725000D01*
X181610000Y-88265000D02*
X171450000Y-88265000D01*
X181610000Y-85725000D02*
X181610000Y-88265000D01*
X171450000Y-85725000D02*
X181610000Y-85725000D01*
G04 #@! TO.C,C1*
X130683000Y-107696000D02*
X130683000Y-109474000D01*
X127127000Y-107696000D02*
X130683000Y-107696000D01*
X127127000Y-109474000D02*
X127127000Y-107696000D01*
X130683000Y-109474000D02*
X127127000Y-109474000D01*
G04 #@! TO.C,C2*
X130683000Y-114046000D02*
X130683000Y-115824000D01*
X127127000Y-114046000D02*
X130683000Y-114046000D01*
X127127000Y-115824000D02*
X127127000Y-114046000D01*
X130683000Y-115824000D02*
X127127000Y-115824000D01*
G04 #@! TO.C,C4*
X123063000Y-96393000D02*
X120777000Y-96393000D01*
X123063000Y-100457000D02*
X123063000Y-96393000D01*
X120777000Y-100457000D02*
X123063000Y-100457000D01*
X120777000Y-96393000D02*
X120777000Y-100457000D01*
G04 #@! TO.C,C5*
X118237000Y-103124000D02*
X118237000Y-101346000D01*
X121793000Y-103124000D02*
X118237000Y-103124000D01*
X121793000Y-101346000D02*
X121793000Y-103124000D01*
X118237000Y-101346000D02*
X121793000Y-101346000D01*
G04 #@! TO.C,C6*
X134493000Y-117856000D02*
X134493000Y-119634000D01*
X130937000Y-117856000D02*
X134493000Y-117856000D01*
X130937000Y-119634000D02*
X130937000Y-117856000D01*
X134493000Y-119634000D02*
X130937000Y-119634000D01*
G04 #@! TO.C,C7*
X176276000Y-108712000D02*
X178054000Y-108712000D01*
X176276000Y-112268000D02*
X176276000Y-108712000D01*
X178054000Y-112268000D02*
X176276000Y-112268000D01*
X178054000Y-108712000D02*
X178054000Y-112268000D01*
G04 #@! TO.C,C8*
X178054000Y-104648000D02*
X176276000Y-104648000D01*
X178054000Y-101092000D02*
X178054000Y-104648000D01*
X176276000Y-101092000D02*
X178054000Y-101092000D01*
X176276000Y-104648000D02*
X176276000Y-101092000D01*
G04 #@! TO.C,C9*
X192532000Y-121031000D02*
X196088000Y-121031000D01*
X196088000Y-121031000D02*
X196088000Y-122809000D01*
X196088000Y-122809000D02*
X192532000Y-122809000D01*
X192532000Y-122809000D02*
X192532000Y-121031000D01*
G04 #@! TO.C,C10*
X173736000Y-107442000D02*
X175514000Y-107442000D01*
X173736000Y-110998000D02*
X173736000Y-107442000D01*
X175514000Y-110998000D02*
X173736000Y-110998000D01*
X175514000Y-107442000D02*
X175514000Y-110998000D01*
G04 #@! TO.C,J9*
X145415000Y-97155000D02*
X145415000Y-117475000D01*
X140335000Y-117475000D02*
X140335000Y-97155000D01*
X140335000Y-97155000D02*
X145415000Y-97155000D01*
X145415000Y-117475000D02*
X140335000Y-117475000D01*
G04 #@! TO.C,Z1*
X134556500Y-94170500D02*
X132778500Y-94170500D01*
X134556500Y-90614500D02*
X134556500Y-94170500D01*
X132778500Y-90614500D02*
X134556500Y-90614500D01*
X132778500Y-94170500D02*
X132778500Y-90614500D01*
G04 #@! TO.C,Z2*
X128206500Y-94170500D02*
X126428500Y-94170500D01*
X128206500Y-90614500D02*
X128206500Y-94170500D01*
X126428500Y-90614500D02*
X128206500Y-90614500D01*
X126428500Y-94170500D02*
X126428500Y-90614500D01*
G04 #@! TO.C,R10*
X186563000Y-92456000D02*
X186563000Y-94234000D01*
X183007000Y-92456000D02*
X186563000Y-92456000D01*
X183007000Y-94234000D02*
X183007000Y-92456000D01*
X186563000Y-94234000D02*
X183007000Y-94234000D01*
G04 #@! TO.C,C11*
X122428000Y-103251000D02*
X122428000Y-105029000D01*
X118872000Y-103251000D02*
X122428000Y-103251000D01*
X118872000Y-105029000D02*
X118872000Y-103251000D01*
X122428000Y-105029000D02*
X118872000Y-105029000D01*
G04 #@! TO.C,R6*
X143383000Y-119761000D02*
X143383000Y-121539000D01*
X139827000Y-119761000D02*
X143383000Y-119761000D01*
X139827000Y-121539000D02*
X139827000Y-119761000D01*
X143383000Y-121539000D02*
X139827000Y-121539000D01*
G04 #@! TO.C,R9*
X145542000Y-121539000D02*
X145542000Y-119761000D01*
X149098000Y-121539000D02*
X145542000Y-121539000D01*
X149098000Y-119761000D02*
X149098000Y-121539000D01*
X145542000Y-119761000D02*
X149098000Y-119761000D01*
G04 #@! TO.C,C14*
X160909000Y-93218000D02*
X159131000Y-93218000D01*
X160909000Y-89662000D02*
X160909000Y-93218000D01*
X159131000Y-89662000D02*
X160909000Y-89662000D01*
X159131000Y-93218000D02*
X159131000Y-89662000D01*
G04 #@! TO.C,R11*
X172593000Y-93599000D02*
X169037000Y-93599000D01*
X169037000Y-93599000D02*
X169037000Y-91821000D01*
X169037000Y-91821000D02*
X172593000Y-91821000D01*
X172593000Y-91821000D02*
X172593000Y-93599000D01*
G04 #@! TO.C,C15*
X200279000Y-111633000D02*
X198501000Y-111633000D01*
X200279000Y-108077000D02*
X200279000Y-111633000D01*
X198501000Y-108077000D02*
X200279000Y-108077000D01*
X198501000Y-111633000D02*
X198501000Y-108077000D01*
G04 #@! TO.C,C16*
X195453000Y-112522000D02*
X195453000Y-108458000D01*
X195453000Y-108458000D02*
X193167000Y-108458000D01*
X193167000Y-108458000D02*
X193167000Y-112522000D01*
X193167000Y-112522000D02*
X195453000Y-112522000D01*
G04 #@! TO.C,C18*
X195707000Y-111887000D02*
X197993000Y-111887000D01*
X195707000Y-107823000D02*
X195707000Y-111887000D01*
X197993000Y-107823000D02*
X195707000Y-107823000D01*
X197993000Y-111887000D02*
X197993000Y-107823000D01*
G04 #@! TO.C,R12*
X175387000Y-116586000D02*
X178943000Y-116586000D01*
X178943000Y-116586000D02*
X178943000Y-118364000D01*
X178943000Y-118364000D02*
X175387000Y-118364000D01*
X175387000Y-118364000D02*
X175387000Y-116586000D01*
G04 #@! TO.C,R13*
X181102000Y-113411000D02*
X184658000Y-113411000D01*
X184658000Y-113411000D02*
X184658000Y-115189000D01*
X184658000Y-115189000D02*
X181102000Y-115189000D01*
X181102000Y-115189000D02*
X181102000Y-113411000D01*
G04 #@! TO.C,R14*
X181102000Y-118364000D02*
X181102000Y-116586000D01*
X184658000Y-118364000D02*
X181102000Y-118364000D01*
X184658000Y-116586000D02*
X184658000Y-118364000D01*
X181102000Y-116586000D02*
X184658000Y-116586000D01*
G04 #@! TO.C,C17*
X193167000Y-108077000D02*
X189103000Y-108077000D01*
X189103000Y-108077000D02*
X189103000Y-110363000D01*
X189103000Y-110363000D02*
X193167000Y-110363000D01*
X193167000Y-110363000D02*
X193167000Y-108077000D01*
G04 #@! TO.C,C21*
X145796000Y-96647000D02*
X145796000Y-92583000D01*
X145796000Y-92583000D02*
X143510000Y-92583000D01*
X143510000Y-92583000D02*
X143510000Y-96647000D01*
X143510000Y-96647000D02*
X145796000Y-96647000D01*
G04 #@! TO.C,R15*
X146812000Y-107696000D02*
X150368000Y-107696000D01*
X150368000Y-107696000D02*
X150368000Y-109474000D01*
X150368000Y-109474000D02*
X146812000Y-109474000D01*
X146812000Y-109474000D02*
X146812000Y-107696000D01*
G04 #@! TO.C,R16*
X152146000Y-104902000D02*
X153924000Y-104902000D01*
X152146000Y-108458000D02*
X152146000Y-104902000D01*
X153924000Y-108458000D02*
X152146000Y-108458000D01*
X153924000Y-104902000D02*
X153924000Y-108458000D01*
G04 #@! TO.C,R17*
X146812000Y-105791000D02*
X150368000Y-105791000D01*
X150368000Y-105791000D02*
X150368000Y-107569000D01*
X150368000Y-107569000D02*
X146812000Y-107569000D01*
X146812000Y-107569000D02*
X146812000Y-105791000D01*
G04 #@! TO.C,R18*
X179578000Y-113411000D02*
X179578000Y-115189000D01*
X176022000Y-113411000D02*
X179578000Y-113411000D01*
X176022000Y-115189000D02*
X176022000Y-113411000D01*
X179578000Y-115189000D02*
X176022000Y-115189000D01*
G04 #@! TO.C,R20*
X148209000Y-109982000D02*
X148209000Y-113538000D01*
X148209000Y-113538000D02*
X146431000Y-113538000D01*
X146431000Y-113538000D02*
X146431000Y-109982000D01*
X146431000Y-109982000D02*
X148209000Y-109982000D01*
G04 #@! TO.C,R21*
X148971000Y-109982000D02*
X150749000Y-109982000D01*
X148971000Y-113538000D02*
X148971000Y-109982000D01*
X150749000Y-113538000D02*
X148971000Y-113538000D01*
X150749000Y-109982000D02*
X150749000Y-113538000D01*
G04 #@! TO.C,C22*
X164973000Y-116459000D02*
X161417000Y-116459000D01*
X161417000Y-116459000D02*
X161417000Y-114681000D01*
X161417000Y-114681000D02*
X164973000Y-114681000D01*
X164973000Y-114681000D02*
X164973000Y-116459000D01*
G04 #@! TO.C,C23*
X155194000Y-108712000D02*
X155194000Y-112268000D01*
X155194000Y-112268000D02*
X153416000Y-112268000D01*
X153416000Y-112268000D02*
X153416000Y-108712000D01*
X153416000Y-108712000D02*
X155194000Y-108712000D01*
G04 #@! TO.C,C24*
X152908000Y-115316000D02*
X152908000Y-117094000D01*
X149352000Y-115316000D02*
X152908000Y-115316000D01*
X149352000Y-117094000D02*
X149352000Y-115316000D01*
X152908000Y-117094000D02*
X149352000Y-117094000D01*
G04 #@! TO.C,C27*
X155194000Y-95377000D02*
X155194000Y-98933000D01*
X155194000Y-98933000D02*
X153416000Y-98933000D01*
X153416000Y-98933000D02*
X153416000Y-95377000D01*
X153416000Y-95377000D02*
X155194000Y-95377000D01*
G04 #@! TO.C,R23*
X143383000Y-123444000D02*
X139827000Y-123444000D01*
X139827000Y-123444000D02*
X139827000Y-121666000D01*
X139827000Y-121666000D02*
X143383000Y-121666000D01*
X143383000Y-121666000D02*
X143383000Y-123444000D01*
G04 #@! TO.C,D1*
X129159000Y-120015000D02*
X129159000Y-122555000D01*
X129286000Y-120015000D02*
X129286000Y-122555000D01*
X129413000Y-120015000D02*
X129413000Y-122555000D01*
X129540000Y-120015000D02*
X129540000Y-122555000D01*
X134620000Y-120015000D02*
X129159000Y-120015000D01*
X134620000Y-122555000D02*
X134620000Y-120015000D01*
X129159000Y-122555000D02*
X134620000Y-122555000D01*
G04 #@! TO.C,D2*
X122301000Y-107315000D02*
X116840000Y-107315000D01*
X116840000Y-107315000D02*
X116840000Y-109855000D01*
X116840000Y-109855000D02*
X122301000Y-109855000D01*
X121920000Y-109855000D02*
X121920000Y-107315000D01*
X122047000Y-109855000D02*
X122047000Y-107315000D01*
X122174000Y-109855000D02*
X122174000Y-107315000D01*
X122301000Y-109855000D02*
X122301000Y-107315000D01*
G04 #@! TO.C,R24*
X119253000Y-89408000D02*
X123317000Y-89408000D01*
X123317000Y-89408000D02*
X123317000Y-87122000D01*
X123317000Y-87122000D02*
X119253000Y-87122000D01*
X119253000Y-87122000D02*
X119253000Y-89408000D01*
G04 #@! TO.C,C28*
X123444000Y-117602000D02*
X123444000Y-121158000D01*
X123444000Y-121158000D02*
X121666000Y-121158000D01*
X121666000Y-121158000D02*
X121666000Y-117602000D01*
X121666000Y-117602000D02*
X123444000Y-117602000D01*
G04 #@! TO.C,C29*
X150622000Y-122174000D02*
X150622000Y-120396000D01*
X154178000Y-122174000D02*
X150622000Y-122174000D01*
X154178000Y-120396000D02*
X154178000Y-122174000D01*
X150622000Y-120396000D02*
X154178000Y-120396000D01*
G04 #@! TO.C,R25*
X139573000Y-106172000D02*
X139573000Y-102108000D01*
X139573000Y-102108000D02*
X137287000Y-102108000D01*
X137287000Y-102108000D02*
X137287000Y-106172000D01*
X137287000Y-106172000D02*
X139573000Y-106172000D01*
G04 #@! TO.C,R26*
X139573000Y-97663000D02*
X137287000Y-97663000D01*
X139573000Y-101727000D02*
X139573000Y-97663000D01*
X137287000Y-101727000D02*
X139573000Y-101727000D01*
X137287000Y-97663000D02*
X137287000Y-101727000D01*
G04 #@! TO.C,R27*
X151511000Y-114173000D02*
X151511000Y-110617000D01*
X151511000Y-110617000D02*
X153289000Y-110617000D01*
X153289000Y-110617000D02*
X153289000Y-114173000D01*
X153289000Y-114173000D02*
X151511000Y-114173000D01*
G04 #@! TO.C,R28*
X116967000Y-119761000D02*
X120523000Y-119761000D01*
X120523000Y-119761000D02*
X120523000Y-121539000D01*
X120523000Y-121539000D02*
X116967000Y-121539000D01*
X116967000Y-121539000D02*
X116967000Y-119761000D01*
G04 #@! TO.C,R29*
X127127000Y-119634000D02*
X127127000Y-117856000D01*
X130683000Y-119634000D02*
X127127000Y-119634000D01*
X130683000Y-117856000D02*
X130683000Y-119634000D01*
X127127000Y-117856000D02*
X130683000Y-117856000D01*
G04 #@! TO.C,R30*
X153797000Y-117094000D02*
X153797000Y-115316000D01*
X157353000Y-117094000D02*
X153797000Y-117094000D01*
X157353000Y-115316000D02*
X157353000Y-117094000D01*
X153797000Y-115316000D02*
X157353000Y-115316000D01*
G04 #@! TO.C,R31*
X161798000Y-118491000D02*
X161798000Y-120269000D01*
X158242000Y-118491000D02*
X161798000Y-118491000D01*
X158242000Y-120269000D02*
X158242000Y-118491000D01*
X161798000Y-120269000D02*
X158242000Y-120269000D01*
G04 #@! TO.C,R33*
X122174000Y-114173000D02*
X120396000Y-114173000D01*
X122174000Y-110617000D02*
X122174000Y-114173000D01*
X120396000Y-110617000D02*
X122174000Y-110617000D01*
X120396000Y-114173000D02*
X120396000Y-110617000D01*
G04 #@! TO.C,R19*
X158242000Y-120396000D02*
X161798000Y-120396000D01*
X161798000Y-120396000D02*
X161798000Y-122174000D01*
X161798000Y-122174000D02*
X158242000Y-122174000D01*
X158242000Y-122174000D02*
X158242000Y-120396000D01*
G04 #@! TO.C,J6*
X136525000Y-116840000D02*
X136525000Y-106680000D01*
X136525000Y-106680000D02*
X139065000Y-106680000D01*
X139065000Y-106680000D02*
X139065000Y-116840000D01*
X139065000Y-116840000D02*
X136525000Y-116840000D01*
G04 #@! TO.C,R1*
X125349000Y-118872000D02*
X125349000Y-122428000D01*
X125349000Y-122428000D02*
X123571000Y-122428000D01*
X123571000Y-122428000D02*
X123571000Y-118872000D01*
X123571000Y-118872000D02*
X125349000Y-118872000D01*
G04 #@! TO.C,R2*
X124079000Y-110617000D02*
X124079000Y-114173000D01*
X124079000Y-114173000D02*
X122301000Y-114173000D01*
X122301000Y-114173000D02*
X122301000Y-110617000D01*
X122301000Y-110617000D02*
X124079000Y-110617000D01*
G04 #@! TO.C,R32*
X151638000Y-119634000D02*
X148082000Y-119634000D01*
X148082000Y-119634000D02*
X148082000Y-117856000D01*
X148082000Y-117856000D02*
X151638000Y-117856000D01*
X151638000Y-117856000D02*
X151638000Y-119634000D01*
G04 #@! TO.C,U8*
X118437142Y-115619714D02*
X119165714Y-115619714D01*
X119251428Y-115576857D01*
X119294285Y-115534000D01*
X119337142Y-115448285D01*
X119337142Y-115276857D01*
X119294285Y-115191142D01*
X119251428Y-115148285D01*
X119165714Y-115105428D01*
X118437142Y-115105428D01*
X118822857Y-114548285D02*
X118780000Y-114634000D01*
X118737142Y-114676857D01*
X118651428Y-114719714D01*
X118608571Y-114719714D01*
X118522857Y-114676857D01*
X118480000Y-114634000D01*
X118437142Y-114548285D01*
X118437142Y-114376857D01*
X118480000Y-114291142D01*
X118522857Y-114248285D01*
X118608571Y-114205428D01*
X118651428Y-114205428D01*
X118737142Y-114248285D01*
X118780000Y-114291142D01*
X118822857Y-114376857D01*
X118822857Y-114548285D01*
X118865714Y-114634000D01*
X118908571Y-114676857D01*
X118994285Y-114719714D01*
X119165714Y-114719714D01*
X119251428Y-114676857D01*
X119294285Y-114634000D01*
X119337142Y-114548285D01*
X119337142Y-114376857D01*
X119294285Y-114291142D01*
X119251428Y-114248285D01*
X119165714Y-114205428D01*
X118994285Y-114205428D01*
X118908571Y-114248285D01*
X118865714Y-114291142D01*
X118822857Y-114376857D01*
G04 #@! TO.C,C13*
X137920428Y-119677428D02*
X137963285Y-119720285D01*
X138006142Y-119848857D01*
X138006142Y-119934571D01*
X137963285Y-120063142D01*
X137877571Y-120148857D01*
X137791857Y-120191714D01*
X137620428Y-120234571D01*
X137491857Y-120234571D01*
X137320428Y-120191714D01*
X137234714Y-120148857D01*
X137149000Y-120063142D01*
X137106142Y-119934571D01*
X137106142Y-119848857D01*
X137149000Y-119720285D01*
X137191857Y-119677428D01*
X138006142Y-118820285D02*
X138006142Y-119334571D01*
X138006142Y-119077428D02*
X137106142Y-119077428D01*
X137234714Y-119163142D01*
X137320428Y-119248857D01*
X137363285Y-119334571D01*
X137106142Y-118520285D02*
X137106142Y-117963142D01*
X137449000Y-118263142D01*
X137449000Y-118134571D01*
X137491857Y-118048857D01*
X137534714Y-118006000D01*
X137620428Y-117963142D01*
X137834714Y-117963142D01*
X137920428Y-118006000D01*
X137963285Y-118048857D01*
X138006142Y-118134571D01*
X138006142Y-118391714D01*
X137963285Y-118477428D01*
X137920428Y-118520285D01*
G04 #@! TO.C,U9*
X152092142Y-119810714D02*
X152820714Y-119810714D01*
X152906428Y-119767857D01*
X152949285Y-119725000D01*
X152992142Y-119639285D01*
X152992142Y-119467857D01*
X152949285Y-119382142D01*
X152906428Y-119339285D01*
X152820714Y-119296428D01*
X152092142Y-119296428D01*
X152992142Y-118825000D02*
X152992142Y-118653571D01*
X152949285Y-118567857D01*
X152906428Y-118525000D01*
X152777857Y-118439285D01*
X152606428Y-118396428D01*
X152263571Y-118396428D01*
X152177857Y-118439285D01*
X152135000Y-118482142D01*
X152092142Y-118567857D01*
X152092142Y-118739285D01*
X152135000Y-118825000D01*
X152177857Y-118867857D01*
X152263571Y-118910714D01*
X152477857Y-118910714D01*
X152563571Y-118867857D01*
X152606428Y-118825000D01*
X152649285Y-118739285D01*
X152649285Y-118567857D01*
X152606428Y-118482142D01*
X152563571Y-118439285D01*
X152477857Y-118396428D01*
G04 #@! TO.C,F1*
X136197428Y-93789571D02*
X135864095Y-93789571D01*
X135864095Y-94313380D02*
X135864095Y-93313380D01*
X136340285Y-93313380D01*
X137245047Y-94313380D02*
X136673619Y-94313380D01*
X136959333Y-94313380D02*
X136959333Y-93313380D01*
X136864095Y-93456238D01*
X136768857Y-93551476D01*
X136673619Y-93599095D01*
G04 #@! TO.C,J18*
X201935809Y-108553380D02*
X201935809Y-109267666D01*
X201888190Y-109410523D01*
X201792952Y-109505761D01*
X201650095Y-109553380D01*
X201554857Y-109553380D01*
X202935809Y-109553380D02*
X202364380Y-109553380D01*
X202650095Y-109553380D02*
X202650095Y-108553380D01*
X202554857Y-108696238D01*
X202459619Y-108791476D01*
X202364380Y-108839095D01*
X203507238Y-108981952D02*
X203412000Y-108934333D01*
X203364380Y-108886714D01*
X203316761Y-108791476D01*
X203316761Y-108743857D01*
X203364380Y-108648619D01*
X203412000Y-108601000D01*
X203507238Y-108553380D01*
X203697714Y-108553380D01*
X203792952Y-108601000D01*
X203840571Y-108648619D01*
X203888190Y-108743857D01*
X203888190Y-108791476D01*
X203840571Y-108886714D01*
X203792952Y-108934333D01*
X203697714Y-108981952D01*
X203507238Y-108981952D01*
X203412000Y-109029571D01*
X203364380Y-109077190D01*
X203316761Y-109172428D01*
X203316761Y-109362904D01*
X203364380Y-109458142D01*
X203412000Y-109505761D01*
X203507238Y-109553380D01*
X203697714Y-109553380D01*
X203792952Y-109505761D01*
X203840571Y-109458142D01*
X203888190Y-109362904D01*
X203888190Y-109172428D01*
X203840571Y-109077190D01*
X203792952Y-109029571D01*
X203697714Y-108981952D01*
G04 #@! TO.C,U7*
X146018380Y-102260904D02*
X146827904Y-102260904D01*
X146923142Y-102213285D01*
X146970761Y-102165666D01*
X147018380Y-102070428D01*
X147018380Y-101879952D01*
X146970761Y-101784714D01*
X146923142Y-101737095D01*
X146827904Y-101689476D01*
X146018380Y-101689476D01*
X146018380Y-101308523D02*
X146018380Y-100641857D01*
X147018380Y-101070428D01*
G04 #@! TO.C,U5*
X190474095Y-114268380D02*
X190474095Y-115077904D01*
X190521714Y-115173142D01*
X190569333Y-115220761D01*
X190664571Y-115268380D01*
X190855047Y-115268380D01*
X190950285Y-115220761D01*
X190997904Y-115173142D01*
X191045523Y-115077904D01*
X191045523Y-114268380D01*
X191997904Y-114268380D02*
X191521714Y-114268380D01*
X191474095Y-114744571D01*
X191521714Y-114696952D01*
X191616952Y-114649333D01*
X191855047Y-114649333D01*
X191950285Y-114696952D01*
X191997904Y-114744571D01*
X192045523Y-114839809D01*
X192045523Y-115077904D01*
X191997904Y-115173142D01*
X191950285Y-115220761D01*
X191855047Y-115268380D01*
X191616952Y-115268380D01*
X191521714Y-115220761D01*
X191474095Y-115173142D01*
G04 #@! TO.C,U4*
D12*
X186777380Y-87375904D02*
X187586904Y-87375904D01*
X187682142Y-87328285D01*
X187729761Y-87280666D01*
X187777380Y-87185428D01*
X187777380Y-86994952D01*
X187729761Y-86899714D01*
X187682142Y-86852095D01*
X187586904Y-86804476D01*
X186777380Y-86804476D01*
X187110714Y-85899714D02*
X187777380Y-85899714D01*
X186729761Y-86137809D02*
X187444047Y-86375904D01*
X187444047Y-85756857D01*
G04 #@! TO.C,Y2*
D10*
X183872190Y-109569190D02*
X184348380Y-109569190D01*
X183348380Y-109902523D02*
X183872190Y-109569190D01*
X183348380Y-109235857D01*
X183443619Y-108950142D02*
X183396000Y-108902523D01*
X183348380Y-108807285D01*
X183348380Y-108569190D01*
X183396000Y-108473952D01*
X183443619Y-108426333D01*
X183538857Y-108378714D01*
X183634095Y-108378714D01*
X183776952Y-108426333D01*
X184348380Y-108997761D01*
X184348380Y-108378714D01*
G04 #@! TO.C,Y1*
X131802190Y-107791190D02*
X132278380Y-107791190D01*
X131278380Y-108124523D02*
X131802190Y-107791190D01*
X131278380Y-107457857D01*
X132278380Y-106600714D02*
X132278380Y-107172142D01*
X132278380Y-106886428D02*
X131278380Y-106886428D01*
X131421238Y-106981666D01*
X131516476Y-107076904D01*
X131564095Y-107172142D01*
G04 #@! TO.C,J5*
D12*
X144700666Y-88606380D02*
X144700666Y-89320666D01*
X144653047Y-89463523D01*
X144557809Y-89558761D01*
X144414952Y-89606380D01*
X144319714Y-89606380D01*
X145653047Y-88606380D02*
X145176857Y-88606380D01*
X145129238Y-89082571D01*
X145176857Y-89034952D01*
X145272095Y-88987333D01*
X145510190Y-88987333D01*
X145605428Y-89034952D01*
X145653047Y-89082571D01*
X145700666Y-89177809D01*
X145700666Y-89415904D01*
X145653047Y-89511142D01*
X145605428Y-89558761D01*
X145510190Y-89606380D01*
X145272095Y-89606380D01*
X145176857Y-89558761D01*
X145129238Y-89511142D01*
G04 #@! TO.C,J2*
D10*
X136112380Y-86862190D02*
X136826666Y-86862190D01*
X136969523Y-86909809D01*
X137064761Y-87005047D01*
X137112380Y-87147904D01*
X137112380Y-87243142D01*
X136207619Y-86433619D02*
X136160000Y-86386000D01*
X136112380Y-86290761D01*
X136112380Y-86052666D01*
X136160000Y-85957428D01*
X136207619Y-85909809D01*
X136302857Y-85862190D01*
X136398095Y-85862190D01*
X136540952Y-85909809D01*
X137112380Y-86481238D01*
X137112380Y-85862190D01*
G04 #@! TO.C,J1*
X109045380Y-88048476D02*
X109759666Y-88048476D01*
X109902523Y-88096095D01*
X109997761Y-88191333D01*
X110045380Y-88334190D01*
X110045380Y-88429428D01*
X110045380Y-87048476D02*
X110045380Y-87619904D01*
X110045380Y-87334190D02*
X109045380Y-87334190D01*
X109188238Y-87429428D01*
X109283476Y-87524666D01*
X109331095Y-87619904D01*
G04 #@! TO.C,U2*
X161131380Y-86766904D02*
X161940904Y-86766904D01*
X162036142Y-86719285D01*
X162083761Y-86671666D01*
X162131380Y-86576428D01*
X162131380Y-86385952D01*
X162083761Y-86290714D01*
X162036142Y-86243095D01*
X161940904Y-86195476D01*
X161131380Y-86195476D01*
X161226619Y-85766904D02*
X161179000Y-85719285D01*
X161131380Y-85624047D01*
X161131380Y-85385952D01*
X161179000Y-85290714D01*
X161226619Y-85243095D01*
X161321857Y-85195476D01*
X161417095Y-85195476D01*
X161559952Y-85243095D01*
X162131380Y-85814523D01*
X162131380Y-85195476D01*
G04 #@! TO.C,U3*
X132984142Y-97586714D02*
X133712714Y-97586714D01*
X133798428Y-97543857D01*
X133841285Y-97501000D01*
X133884142Y-97415285D01*
X133884142Y-97243857D01*
X133841285Y-97158142D01*
X133798428Y-97115285D01*
X133712714Y-97072428D01*
X132984142Y-97072428D01*
X132984142Y-96729571D02*
X132984142Y-96172428D01*
X133327000Y-96472428D01*
X133327000Y-96343857D01*
X133369857Y-96258142D01*
X133412714Y-96215285D01*
X133498428Y-96172428D01*
X133712714Y-96172428D01*
X133798428Y-96215285D01*
X133841285Y-96258142D01*
X133884142Y-96343857D01*
X133884142Y-96601000D01*
X133841285Y-96686714D01*
X133798428Y-96729571D01*
G04 #@! TO.C,U1*
X156083095Y-112101380D02*
X156083095Y-112910904D01*
X156130714Y-113006142D01*
X156178333Y-113053761D01*
X156273571Y-113101380D01*
X156464047Y-113101380D01*
X156559285Y-113053761D01*
X156606904Y-113006142D01*
X156654523Y-112910904D01*
X156654523Y-112101380D01*
X157654523Y-113101380D02*
X157083095Y-113101380D01*
X157368809Y-113101380D02*
X157368809Y-112101380D01*
X157273571Y-112244238D01*
X157178333Y-112339476D01*
X157083095Y-112387095D01*
G04 #@! TO.C,C26*
X153372571Y-104519428D02*
X153329714Y-104562285D01*
X153201142Y-104605142D01*
X153115428Y-104605142D01*
X152986857Y-104562285D01*
X152901142Y-104476571D01*
X152858285Y-104390857D01*
X152815428Y-104219428D01*
X152815428Y-104090857D01*
X152858285Y-103919428D01*
X152901142Y-103833714D01*
X152986857Y-103748000D01*
X153115428Y-103705142D01*
X153201142Y-103705142D01*
X153329714Y-103748000D01*
X153372571Y-103790857D01*
X153715428Y-103790857D02*
X153758285Y-103748000D01*
X153844000Y-103705142D01*
X154058285Y-103705142D01*
X154144000Y-103748000D01*
X154186857Y-103790857D01*
X154229714Y-103876571D01*
X154229714Y-103962285D01*
X154186857Y-104090857D01*
X153672571Y-104605142D01*
X154229714Y-104605142D01*
X155001142Y-103705142D02*
X154829714Y-103705142D01*
X154744000Y-103748000D01*
X154701142Y-103790857D01*
X154615428Y-103919428D01*
X154572571Y-104090857D01*
X154572571Y-104433714D01*
X154615428Y-104519428D01*
X154658285Y-104562285D01*
X154744000Y-104605142D01*
X154915428Y-104605142D01*
X155001142Y-104562285D01*
X155044000Y-104519428D01*
X155086857Y-104433714D01*
X155086857Y-104219428D01*
X155044000Y-104133714D01*
X155001142Y-104090857D01*
X154915428Y-104048000D01*
X154744000Y-104048000D01*
X154658285Y-104090857D01*
X154615428Y-104133714D01*
X154572571Y-104219428D01*
G04 #@! TO.C,R22*
X162639380Y-92164476D02*
X162163190Y-92497809D01*
X162639380Y-92735904D02*
X161639380Y-92735904D01*
X161639380Y-92354952D01*
X161687000Y-92259714D01*
X161734619Y-92212095D01*
X161829857Y-92164476D01*
X161972714Y-92164476D01*
X162067952Y-92212095D01*
X162115571Y-92259714D01*
X162163190Y-92354952D01*
X162163190Y-92735904D01*
X161734619Y-91783523D02*
X161687000Y-91735904D01*
X161639380Y-91640666D01*
X161639380Y-91402571D01*
X161687000Y-91307333D01*
X161734619Y-91259714D01*
X161829857Y-91212095D01*
X161925095Y-91212095D01*
X162067952Y-91259714D01*
X162639380Y-91831142D01*
X162639380Y-91212095D01*
X161734619Y-90831142D02*
X161687000Y-90783523D01*
X161639380Y-90688285D01*
X161639380Y-90450190D01*
X161687000Y-90354952D01*
X161734619Y-90307333D01*
X161829857Y-90259714D01*
X161925095Y-90259714D01*
X162067952Y-90307333D01*
X162639380Y-90878761D01*
X162639380Y-90259714D01*
G04 #@! TO.C,C25*
X161200523Y-95488142D02*
X161152904Y-95535761D01*
X161010047Y-95583380D01*
X160914809Y-95583380D01*
X160771952Y-95535761D01*
X160676714Y-95440523D01*
X160629095Y-95345285D01*
X160581476Y-95154809D01*
X160581476Y-95011952D01*
X160629095Y-94821476D01*
X160676714Y-94726238D01*
X160771952Y-94631000D01*
X160914809Y-94583380D01*
X161010047Y-94583380D01*
X161152904Y-94631000D01*
X161200523Y-94678619D01*
X161581476Y-94678619D02*
X161629095Y-94631000D01*
X161724333Y-94583380D01*
X161962428Y-94583380D01*
X162057666Y-94631000D01*
X162105285Y-94678619D01*
X162152904Y-94773857D01*
X162152904Y-94869095D01*
X162105285Y-95011952D01*
X161533857Y-95583380D01*
X162152904Y-95583380D01*
X163057666Y-94583380D02*
X162581476Y-94583380D01*
X162533857Y-95059571D01*
X162581476Y-95011952D01*
X162676714Y-94964333D01*
X162914809Y-94964333D01*
X163010047Y-95011952D01*
X163057666Y-95059571D01*
X163105285Y-95154809D01*
X163105285Y-95392904D01*
X163057666Y-95488142D01*
X163010047Y-95535761D01*
X162914809Y-95583380D01*
X162676714Y-95583380D01*
X162581476Y-95535761D01*
X162533857Y-95488142D01*
G04 #@! TO.C,L1*
X124402285Y-91265380D02*
X123926095Y-91265380D01*
X123926095Y-90265380D01*
X125259428Y-91265380D02*
X124688000Y-91265380D01*
X124973714Y-91265380D02*
X124973714Y-90265380D01*
X124878476Y-90408238D01*
X124783238Y-90503476D01*
X124688000Y-90551095D01*
G04 #@! TO.C,R8*
X175847380Y-106388476D02*
X175371190Y-106721809D01*
X175847380Y-106959904D02*
X174847380Y-106959904D01*
X174847380Y-106578952D01*
X174895000Y-106483714D01*
X174942619Y-106436095D01*
X175037857Y-106388476D01*
X175180714Y-106388476D01*
X175275952Y-106436095D01*
X175323571Y-106483714D01*
X175371190Y-106578952D01*
X175371190Y-106959904D01*
X175275952Y-105817047D02*
X175228333Y-105912285D01*
X175180714Y-105959904D01*
X175085476Y-106007523D01*
X175037857Y-106007523D01*
X174942619Y-105959904D01*
X174895000Y-105912285D01*
X174847380Y-105817047D01*
X174847380Y-105626571D01*
X174895000Y-105531333D01*
X174942619Y-105483714D01*
X175037857Y-105436095D01*
X175085476Y-105436095D01*
X175180714Y-105483714D01*
X175228333Y-105531333D01*
X175275952Y-105626571D01*
X175275952Y-105817047D01*
X175323571Y-105912285D01*
X175371190Y-105959904D01*
X175466428Y-106007523D01*
X175656904Y-106007523D01*
X175752142Y-105959904D01*
X175799761Y-105912285D01*
X175847380Y-105817047D01*
X175847380Y-105626571D01*
X175799761Y-105531333D01*
X175752142Y-105483714D01*
X175656904Y-105436095D01*
X175466428Y-105436095D01*
X175371190Y-105483714D01*
X175323571Y-105531333D01*
X175275952Y-105626571D01*
G04 #@! TO.C,R7*
X128222380Y-111722476D02*
X127746190Y-112055809D01*
X128222380Y-112293904D02*
X127222380Y-112293904D01*
X127222380Y-111912952D01*
X127270000Y-111817714D01*
X127317619Y-111770095D01*
X127412857Y-111722476D01*
X127555714Y-111722476D01*
X127650952Y-111770095D01*
X127698571Y-111817714D01*
X127746190Y-111912952D01*
X127746190Y-112293904D01*
X127222380Y-111389142D02*
X127222380Y-110722476D01*
X128222380Y-111151047D01*
G04 #@! TO.C,R5*
X117300380Y-106134476D02*
X116824190Y-106467809D01*
X117300380Y-106705904D02*
X116300380Y-106705904D01*
X116300380Y-106324952D01*
X116348000Y-106229714D01*
X116395619Y-106182095D01*
X116490857Y-106134476D01*
X116633714Y-106134476D01*
X116728952Y-106182095D01*
X116776571Y-106229714D01*
X116824190Y-106324952D01*
X116824190Y-106705904D01*
X116300380Y-105229714D02*
X116300380Y-105705904D01*
X116776571Y-105753523D01*
X116728952Y-105705904D01*
X116681333Y-105610666D01*
X116681333Y-105372571D01*
X116728952Y-105277333D01*
X116776571Y-105229714D01*
X116871809Y-105182095D01*
X117109904Y-105182095D01*
X117205142Y-105229714D01*
X117252761Y-105277333D01*
X117300380Y-105372571D01*
X117300380Y-105610666D01*
X117252761Y-105705904D01*
X117205142Y-105753523D01*
G04 #@! TO.C,R4*
X128861571Y-95334142D02*
X128561571Y-94905571D01*
X128347285Y-95334142D02*
X128347285Y-94434142D01*
X128690142Y-94434142D01*
X128775857Y-94477000D01*
X128818714Y-94519857D01*
X128861571Y-94605571D01*
X128861571Y-94734142D01*
X128818714Y-94819857D01*
X128775857Y-94862714D01*
X128690142Y-94905571D01*
X128347285Y-94905571D01*
X129633000Y-94734142D02*
X129633000Y-95334142D01*
X129418714Y-94391285D02*
X129204428Y-95034142D01*
X129761571Y-95034142D01*
G04 #@! TO.C,R3*
X132036571Y-95334142D02*
X131736571Y-94905571D01*
X131522285Y-95334142D02*
X131522285Y-94434142D01*
X131865142Y-94434142D01*
X131950857Y-94477000D01*
X131993714Y-94519857D01*
X132036571Y-94605571D01*
X132036571Y-94734142D01*
X131993714Y-94819857D01*
X131950857Y-94862714D01*
X131865142Y-94905571D01*
X131522285Y-94905571D01*
X132336571Y-94434142D02*
X132893714Y-94434142D01*
X132593714Y-94777000D01*
X132722285Y-94777000D01*
X132808000Y-94819857D01*
X132850857Y-94862714D01*
X132893714Y-94948428D01*
X132893714Y-95162714D01*
X132850857Y-95248428D01*
X132808000Y-95291285D01*
X132722285Y-95334142D01*
X132465142Y-95334142D01*
X132379428Y-95291285D01*
X132336571Y-95248428D01*
G04 #@! TO.C,J10*
X114141380Y-104388190D02*
X114855666Y-104388190D01*
X114998523Y-104435809D01*
X115093761Y-104531047D01*
X115141380Y-104673904D01*
X115141380Y-104769142D01*
X115141380Y-103388190D02*
X115141380Y-103959619D01*
X115141380Y-103673904D02*
X114141380Y-103673904D01*
X114284238Y-103769142D01*
X114379476Y-103864380D01*
X114427095Y-103959619D01*
X114141380Y-102769142D02*
X114141380Y-102673904D01*
X114189000Y-102578666D01*
X114236619Y-102531047D01*
X114331857Y-102483428D01*
X114522333Y-102435809D01*
X114760428Y-102435809D01*
X114950904Y-102483428D01*
X115046142Y-102531047D01*
X115093761Y-102578666D01*
X115141380Y-102673904D01*
X115141380Y-102769142D01*
X115093761Y-102864380D01*
X115046142Y-102912000D01*
X114950904Y-102959619D01*
X114760428Y-103007238D01*
X114522333Y-103007238D01*
X114331857Y-102959619D01*
X114236619Y-102912000D01*
X114189000Y-102864380D01*
X114141380Y-102769142D01*
G04 #@! TO.C,C20*
X182737142Y-90894476D02*
X182784761Y-90942095D01*
X182832380Y-91084952D01*
X182832380Y-91180190D01*
X182784761Y-91323047D01*
X182689523Y-91418285D01*
X182594285Y-91465904D01*
X182403809Y-91513523D01*
X182260952Y-91513523D01*
X182070476Y-91465904D01*
X181975238Y-91418285D01*
X181880000Y-91323047D01*
X181832380Y-91180190D01*
X181832380Y-91084952D01*
X181880000Y-90942095D01*
X181927619Y-90894476D01*
X181927619Y-90513523D02*
X181880000Y-90465904D01*
X181832380Y-90370666D01*
X181832380Y-90132571D01*
X181880000Y-90037333D01*
X181927619Y-89989714D01*
X182022857Y-89942095D01*
X182118095Y-89942095D01*
X182260952Y-89989714D01*
X182832380Y-90561142D01*
X182832380Y-89942095D01*
X181832380Y-89323047D02*
X181832380Y-89227809D01*
X181880000Y-89132571D01*
X181927619Y-89084952D01*
X182022857Y-89037333D01*
X182213333Y-88989714D01*
X182451428Y-88989714D01*
X182641904Y-89037333D01*
X182737142Y-89084952D01*
X182784761Y-89132571D01*
X182832380Y-89227809D01*
X182832380Y-89323047D01*
X182784761Y-89418285D01*
X182737142Y-89465904D01*
X182641904Y-89513523D01*
X182451428Y-89561142D01*
X182213333Y-89561142D01*
X182022857Y-89513523D01*
X181927619Y-89465904D01*
X181880000Y-89418285D01*
X181832380Y-89323047D01*
G04 #@! TO.C,C19*
X174863142Y-90513476D02*
X174910761Y-90561095D01*
X174958380Y-90703952D01*
X174958380Y-90799190D01*
X174910761Y-90942047D01*
X174815523Y-91037285D01*
X174720285Y-91084904D01*
X174529809Y-91132523D01*
X174386952Y-91132523D01*
X174196476Y-91084904D01*
X174101238Y-91037285D01*
X174006000Y-90942047D01*
X173958380Y-90799190D01*
X173958380Y-90703952D01*
X174006000Y-90561095D01*
X174053619Y-90513476D01*
X174958380Y-89561095D02*
X174958380Y-90132523D01*
X174958380Y-89846809D02*
X173958380Y-89846809D01*
X174101238Y-89942047D01*
X174196476Y-90037285D01*
X174244095Y-90132523D01*
X174958380Y-89084904D02*
X174958380Y-88894428D01*
X174910761Y-88799190D01*
X174863142Y-88751571D01*
X174720285Y-88656333D01*
X174529809Y-88608714D01*
X174148857Y-88608714D01*
X174053619Y-88656333D01*
X174006000Y-88703952D01*
X173958380Y-88799190D01*
X173958380Y-88989666D01*
X174006000Y-89084904D01*
X174053619Y-89132523D01*
X174148857Y-89180142D01*
X174386952Y-89180142D01*
X174482190Y-89132523D01*
X174529809Y-89084904D01*
X174577428Y-88989666D01*
X174577428Y-88799190D01*
X174529809Y-88703952D01*
X174482190Y-88656333D01*
X174386952Y-88608714D01*
G04 #@! TO.C,U6*
X177901095Y-97758380D02*
X177901095Y-98567904D01*
X177948714Y-98663142D01*
X177996333Y-98710761D01*
X178091571Y-98758380D01*
X178282047Y-98758380D01*
X178377285Y-98710761D01*
X178424904Y-98663142D01*
X178472523Y-98567904D01*
X178472523Y-97758380D01*
X179377285Y-97758380D02*
X179186809Y-97758380D01*
X179091571Y-97806000D01*
X179043952Y-97853619D01*
X178948714Y-97996476D01*
X178901095Y-98186952D01*
X178901095Y-98567904D01*
X178948714Y-98663142D01*
X178996333Y-98710761D01*
X179091571Y-98758380D01*
X179282047Y-98758380D01*
X179377285Y-98710761D01*
X179424904Y-98663142D01*
X179472523Y-98567904D01*
X179472523Y-98329809D01*
X179424904Y-98234571D01*
X179377285Y-98186952D01*
X179282047Y-98139333D01*
X179091571Y-98139333D01*
X178996333Y-98186952D01*
X178948714Y-98234571D01*
X178901095Y-98329809D01*
G04 #@! TO.C,C12*
X155612523Y-123428142D02*
X155564904Y-123475761D01*
X155422047Y-123523380D01*
X155326809Y-123523380D01*
X155183952Y-123475761D01*
X155088714Y-123380523D01*
X155041095Y-123285285D01*
X154993476Y-123094809D01*
X154993476Y-122951952D01*
X155041095Y-122761476D01*
X155088714Y-122666238D01*
X155183952Y-122571000D01*
X155326809Y-122523380D01*
X155422047Y-122523380D01*
X155564904Y-122571000D01*
X155612523Y-122618619D01*
X156564904Y-123523380D02*
X155993476Y-123523380D01*
X156279190Y-123523380D02*
X156279190Y-122523380D01*
X156183952Y-122666238D01*
X156088714Y-122761476D01*
X155993476Y-122809095D01*
X156945857Y-122618619D02*
X156993476Y-122571000D01*
X157088714Y-122523380D01*
X157326809Y-122523380D01*
X157422047Y-122571000D01*
X157469666Y-122618619D01*
X157517285Y-122713857D01*
X157517285Y-122809095D01*
X157469666Y-122951952D01*
X156898238Y-123523380D01*
X157517285Y-123523380D01*
G04 #@! TO.C,J3*
X182086380Y-87497190D02*
X182800666Y-87497190D01*
X182943523Y-87544809D01*
X183038761Y-87640047D01*
X183086380Y-87782904D01*
X183086380Y-87878142D01*
X182086380Y-87116238D02*
X182086380Y-86497190D01*
X182467333Y-86830523D01*
X182467333Y-86687666D01*
X182514952Y-86592428D01*
X182562571Y-86544809D01*
X182657809Y-86497190D01*
X182895904Y-86497190D01*
X182991142Y-86544809D01*
X183038761Y-86592428D01*
X183086380Y-86687666D01*
X183086380Y-86973380D01*
X183038761Y-87068619D01*
X182991142Y-87116238D01*
G04 #@! TO.C,C1*
X126603142Y-108674476D02*
X126650761Y-108722095D01*
X126698380Y-108864952D01*
X126698380Y-108960190D01*
X126650761Y-109103047D01*
X126555523Y-109198285D01*
X126460285Y-109245904D01*
X126269809Y-109293523D01*
X126126952Y-109293523D01*
X125936476Y-109245904D01*
X125841238Y-109198285D01*
X125746000Y-109103047D01*
X125698380Y-108960190D01*
X125698380Y-108864952D01*
X125746000Y-108722095D01*
X125793619Y-108674476D01*
X126698380Y-107722095D02*
X126698380Y-108293523D01*
X126698380Y-108007809D02*
X125698380Y-108007809D01*
X125841238Y-108103047D01*
X125936476Y-108198285D01*
X125984095Y-108293523D01*
G04 #@! TO.C,C2*
X126603142Y-115151476D02*
X126650761Y-115199095D01*
X126698380Y-115341952D01*
X126698380Y-115437190D01*
X126650761Y-115580047D01*
X126555523Y-115675285D01*
X126460285Y-115722904D01*
X126269809Y-115770523D01*
X126126952Y-115770523D01*
X125936476Y-115722904D01*
X125841238Y-115675285D01*
X125746000Y-115580047D01*
X125698380Y-115437190D01*
X125698380Y-115341952D01*
X125746000Y-115199095D01*
X125793619Y-115151476D01*
X125793619Y-114770523D02*
X125746000Y-114722904D01*
X125698380Y-114627666D01*
X125698380Y-114389571D01*
X125746000Y-114294333D01*
X125793619Y-114246714D01*
X125888857Y-114199095D01*
X125984095Y-114199095D01*
X126126952Y-114246714D01*
X126698380Y-114818142D01*
X126698380Y-114199095D01*
G04 #@! TO.C,C4*
X120253142Y-97498476D02*
X120300761Y-97546095D01*
X120348380Y-97688952D01*
X120348380Y-97784190D01*
X120300761Y-97927047D01*
X120205523Y-98022285D01*
X120110285Y-98069904D01*
X119919809Y-98117523D01*
X119776952Y-98117523D01*
X119586476Y-98069904D01*
X119491238Y-98022285D01*
X119396000Y-97927047D01*
X119348380Y-97784190D01*
X119348380Y-97688952D01*
X119396000Y-97546095D01*
X119443619Y-97498476D01*
X119681714Y-96641333D02*
X120348380Y-96641333D01*
X119300761Y-96879428D02*
X120015047Y-97117523D01*
X120015047Y-96498476D01*
G04 #@! TO.C,C5*
X116877523Y-102473142D02*
X116829904Y-102520761D01*
X116687047Y-102568380D01*
X116591809Y-102568380D01*
X116448952Y-102520761D01*
X116353714Y-102425523D01*
X116306095Y-102330285D01*
X116258476Y-102139809D01*
X116258476Y-101996952D01*
X116306095Y-101806476D01*
X116353714Y-101711238D01*
X116448952Y-101616000D01*
X116591809Y-101568380D01*
X116687047Y-101568380D01*
X116829904Y-101616000D01*
X116877523Y-101663619D01*
X117782285Y-101568380D02*
X117306095Y-101568380D01*
X117258476Y-102044571D01*
X117306095Y-101996952D01*
X117401333Y-101949333D01*
X117639428Y-101949333D01*
X117734666Y-101996952D01*
X117782285Y-102044571D01*
X117829904Y-102139809D01*
X117829904Y-102377904D01*
X117782285Y-102473142D01*
X117734666Y-102520761D01*
X117639428Y-102568380D01*
X117401333Y-102568380D01*
X117306095Y-102520761D01*
X117258476Y-102473142D01*
G04 #@! TO.C,C6*
X133006523Y-117459142D02*
X132958904Y-117506761D01*
X132816047Y-117554380D01*
X132720809Y-117554380D01*
X132577952Y-117506761D01*
X132482714Y-117411523D01*
X132435095Y-117316285D01*
X132387476Y-117125809D01*
X132387476Y-116982952D01*
X132435095Y-116792476D01*
X132482714Y-116697238D01*
X132577952Y-116602000D01*
X132720809Y-116554380D01*
X132816047Y-116554380D01*
X132958904Y-116602000D01*
X133006523Y-116649619D01*
X133863666Y-116554380D02*
X133673190Y-116554380D01*
X133577952Y-116602000D01*
X133530333Y-116649619D01*
X133435095Y-116792476D01*
X133387476Y-116982952D01*
X133387476Y-117363904D01*
X133435095Y-117459142D01*
X133482714Y-117506761D01*
X133577952Y-117554380D01*
X133768428Y-117554380D01*
X133863666Y-117506761D01*
X133911285Y-117459142D01*
X133958904Y-117363904D01*
X133958904Y-117125809D01*
X133911285Y-117030571D01*
X133863666Y-116982952D01*
X133768428Y-116935333D01*
X133577952Y-116935333D01*
X133482714Y-116982952D01*
X133435095Y-117030571D01*
X133387476Y-117125809D01*
G04 #@! TO.C,C7*
X179435142Y-111722476D02*
X179482761Y-111770095D01*
X179530380Y-111912952D01*
X179530380Y-112008190D01*
X179482761Y-112151047D01*
X179387523Y-112246285D01*
X179292285Y-112293904D01*
X179101809Y-112341523D01*
X178958952Y-112341523D01*
X178768476Y-112293904D01*
X178673238Y-112246285D01*
X178578000Y-112151047D01*
X178530380Y-112008190D01*
X178530380Y-111912952D01*
X178578000Y-111770095D01*
X178625619Y-111722476D01*
X178530380Y-111389142D02*
X178530380Y-110722476D01*
X179530380Y-111151047D01*
G04 #@! TO.C,C8*
X177075523Y-100695142D02*
X177027904Y-100742761D01*
X176885047Y-100790380D01*
X176789809Y-100790380D01*
X176646952Y-100742761D01*
X176551714Y-100647523D01*
X176504095Y-100552285D01*
X176456476Y-100361809D01*
X176456476Y-100218952D01*
X176504095Y-100028476D01*
X176551714Y-99933238D01*
X176646952Y-99838000D01*
X176789809Y-99790380D01*
X176885047Y-99790380D01*
X177027904Y-99838000D01*
X177075523Y-99885619D01*
X177646952Y-100218952D02*
X177551714Y-100171333D01*
X177504095Y-100123714D01*
X177456476Y-100028476D01*
X177456476Y-99980857D01*
X177504095Y-99885619D01*
X177551714Y-99838000D01*
X177646952Y-99790380D01*
X177837428Y-99790380D01*
X177932666Y-99838000D01*
X177980285Y-99885619D01*
X178027904Y-99980857D01*
X178027904Y-100028476D01*
X177980285Y-100123714D01*
X177932666Y-100171333D01*
X177837428Y-100218952D01*
X177646952Y-100218952D01*
X177551714Y-100266571D01*
X177504095Y-100314190D01*
X177456476Y-100409428D01*
X177456476Y-100599904D01*
X177504095Y-100695142D01*
X177551714Y-100742761D01*
X177646952Y-100790380D01*
X177837428Y-100790380D01*
X177932666Y-100742761D01*
X177980285Y-100695142D01*
X178027904Y-100599904D01*
X178027904Y-100409428D01*
X177980285Y-100314190D01*
X177932666Y-100266571D01*
X177837428Y-100218952D01*
G04 #@! TO.C,C9*
X197141523Y-122285142D02*
X197093904Y-122332761D01*
X196951047Y-122380380D01*
X196855809Y-122380380D01*
X196712952Y-122332761D01*
X196617714Y-122237523D01*
X196570095Y-122142285D01*
X196522476Y-121951809D01*
X196522476Y-121808952D01*
X196570095Y-121618476D01*
X196617714Y-121523238D01*
X196712952Y-121428000D01*
X196855809Y-121380380D01*
X196951047Y-121380380D01*
X197093904Y-121428000D01*
X197141523Y-121475619D01*
X197617714Y-122380380D02*
X197808190Y-122380380D01*
X197903428Y-122332761D01*
X197951047Y-122285142D01*
X198046285Y-122142285D01*
X198093904Y-121951809D01*
X198093904Y-121570857D01*
X198046285Y-121475619D01*
X197998666Y-121428000D01*
X197903428Y-121380380D01*
X197712952Y-121380380D01*
X197617714Y-121428000D01*
X197570095Y-121475619D01*
X197522476Y-121570857D01*
X197522476Y-121808952D01*
X197570095Y-121904190D01*
X197617714Y-121951809D01*
X197712952Y-121999428D01*
X197903428Y-121999428D01*
X197998666Y-121951809D01*
X198046285Y-121904190D01*
X198093904Y-121808952D01*
G04 #@! TO.C,C10*
X172884523Y-112252142D02*
X172836904Y-112299761D01*
X172694047Y-112347380D01*
X172598809Y-112347380D01*
X172455952Y-112299761D01*
X172360714Y-112204523D01*
X172313095Y-112109285D01*
X172265476Y-111918809D01*
X172265476Y-111775952D01*
X172313095Y-111585476D01*
X172360714Y-111490238D01*
X172455952Y-111395000D01*
X172598809Y-111347380D01*
X172694047Y-111347380D01*
X172836904Y-111395000D01*
X172884523Y-111442619D01*
X173836904Y-112347380D02*
X173265476Y-112347380D01*
X173551190Y-112347380D02*
X173551190Y-111347380D01*
X173455952Y-111490238D01*
X173360714Y-111585476D01*
X173265476Y-111633095D01*
X174455952Y-111347380D02*
X174551190Y-111347380D01*
X174646428Y-111395000D01*
X174694047Y-111442619D01*
X174741666Y-111537857D01*
X174789285Y-111728333D01*
X174789285Y-111966428D01*
X174741666Y-112156904D01*
X174694047Y-112252142D01*
X174646428Y-112299761D01*
X174551190Y-112347380D01*
X174455952Y-112347380D01*
X174360714Y-112299761D01*
X174313095Y-112252142D01*
X174265476Y-112156904D01*
X174217857Y-111966428D01*
X174217857Y-111728333D01*
X174265476Y-111537857D01*
X174313095Y-111442619D01*
X174360714Y-111395000D01*
X174455952Y-111347380D01*
G04 #@! TO.C,J9*
X141483809Y-95726380D02*
X141483809Y-96440666D01*
X141436190Y-96583523D01*
X141340952Y-96678761D01*
X141198095Y-96726380D01*
X141102857Y-96726380D01*
X142007619Y-96726380D02*
X142198095Y-96726380D01*
X142293333Y-96678761D01*
X142340952Y-96631142D01*
X142436190Y-96488285D01*
X142483809Y-96297809D01*
X142483809Y-95916857D01*
X142436190Y-95821619D01*
X142388571Y-95774000D01*
X142293333Y-95726380D01*
X142102857Y-95726380D01*
X142007619Y-95774000D01*
X141960000Y-95821619D01*
X141912380Y-95916857D01*
X141912380Y-96154952D01*
X141960000Y-96250190D01*
X142007619Y-96297809D01*
X142102857Y-96345428D01*
X142293333Y-96345428D01*
X142388571Y-96297809D01*
X142436190Y-96250190D01*
X142483809Y-96154952D01*
G04 #@! TO.C,Z1*
X134969380Y-92069142D02*
X134969380Y-91402476D01*
X135969380Y-92069142D01*
X135969380Y-91402476D01*
X135969380Y-90497714D02*
X135969380Y-91069142D01*
X135969380Y-90783428D02*
X134969380Y-90783428D01*
X135112238Y-90878666D01*
X135207476Y-90973904D01*
X135255095Y-91069142D01*
G04 #@! TO.C,Z2*
X125721571Y-94434142D02*
X126321571Y-94434142D01*
X125721571Y-95334142D01*
X126321571Y-95334142D01*
X126621571Y-94519857D02*
X126664428Y-94477000D01*
X126750142Y-94434142D01*
X126964428Y-94434142D01*
X127050142Y-94477000D01*
X127093000Y-94519857D01*
X127135857Y-94605571D01*
X127135857Y-94691285D01*
X127093000Y-94819857D01*
X126578714Y-95334142D01*
X127135857Y-95334142D01*
G04 #@! TO.C,R10*
X184441523Y-92154380D02*
X184108190Y-91678190D01*
X183870095Y-92154380D02*
X183870095Y-91154380D01*
X184251047Y-91154380D01*
X184346285Y-91202000D01*
X184393904Y-91249619D01*
X184441523Y-91344857D01*
X184441523Y-91487714D01*
X184393904Y-91582952D01*
X184346285Y-91630571D01*
X184251047Y-91678190D01*
X183870095Y-91678190D01*
X185393904Y-92154380D02*
X184822476Y-92154380D01*
X185108190Y-92154380D02*
X185108190Y-91154380D01*
X185012952Y-91297238D01*
X184917714Y-91392476D01*
X184822476Y-91440095D01*
X186012952Y-91154380D02*
X186108190Y-91154380D01*
X186203428Y-91202000D01*
X186251047Y-91249619D01*
X186298666Y-91344857D01*
X186346285Y-91535333D01*
X186346285Y-91773428D01*
X186298666Y-91963904D01*
X186251047Y-92059142D01*
X186203428Y-92106761D01*
X186108190Y-92154380D01*
X186012952Y-92154380D01*
X185917714Y-92106761D01*
X185870095Y-92059142D01*
X185822476Y-91963904D01*
X185774857Y-91773428D01*
X185774857Y-91535333D01*
X185822476Y-91344857D01*
X185870095Y-91249619D01*
X185917714Y-91202000D01*
X186012952Y-91154380D01*
G04 #@! TO.C,C11*
X116669571Y-104392428D02*
X116626714Y-104435285D01*
X116498142Y-104478142D01*
X116412428Y-104478142D01*
X116283857Y-104435285D01*
X116198142Y-104349571D01*
X116155285Y-104263857D01*
X116112428Y-104092428D01*
X116112428Y-103963857D01*
X116155285Y-103792428D01*
X116198142Y-103706714D01*
X116283857Y-103621000D01*
X116412428Y-103578142D01*
X116498142Y-103578142D01*
X116626714Y-103621000D01*
X116669571Y-103663857D01*
X117526714Y-104478142D02*
X117012428Y-104478142D01*
X117269571Y-104478142D02*
X117269571Y-103578142D01*
X117183857Y-103706714D01*
X117098142Y-103792428D01*
X117012428Y-103835285D01*
X118383857Y-104478142D02*
X117869571Y-104478142D01*
X118126714Y-104478142D02*
X118126714Y-103578142D01*
X118041000Y-103706714D01*
X117955285Y-103792428D01*
X117869571Y-103835285D01*
G04 #@! TO.C,R6*
X142658523Y-119459380D02*
X142325190Y-118983190D01*
X142087095Y-119459380D02*
X142087095Y-118459380D01*
X142468047Y-118459380D01*
X142563285Y-118507000D01*
X142610904Y-118554619D01*
X142658523Y-118649857D01*
X142658523Y-118792714D01*
X142610904Y-118887952D01*
X142563285Y-118935571D01*
X142468047Y-118983190D01*
X142087095Y-118983190D01*
X143515666Y-118459380D02*
X143325190Y-118459380D01*
X143229952Y-118507000D01*
X143182333Y-118554619D01*
X143087095Y-118697476D01*
X143039476Y-118887952D01*
X143039476Y-119268904D01*
X143087095Y-119364142D01*
X143134714Y-119411761D01*
X143229952Y-119459380D01*
X143420428Y-119459380D01*
X143515666Y-119411761D01*
X143563285Y-119364142D01*
X143610904Y-119268904D01*
X143610904Y-119030809D01*
X143563285Y-118935571D01*
X143515666Y-118887952D01*
X143420428Y-118840333D01*
X143229952Y-118840333D01*
X143134714Y-118887952D01*
X143087095Y-118935571D01*
X143039476Y-119030809D01*
G04 #@! TO.C,R9*
X148292571Y-122893142D02*
X147992571Y-122464571D01*
X147778285Y-122893142D02*
X147778285Y-121993142D01*
X148121142Y-121993142D01*
X148206857Y-122036000D01*
X148249714Y-122078857D01*
X148292571Y-122164571D01*
X148292571Y-122293142D01*
X148249714Y-122378857D01*
X148206857Y-122421714D01*
X148121142Y-122464571D01*
X147778285Y-122464571D01*
X148721142Y-122893142D02*
X148892571Y-122893142D01*
X148978285Y-122850285D01*
X149021142Y-122807428D01*
X149106857Y-122678857D01*
X149149714Y-122507428D01*
X149149714Y-122164571D01*
X149106857Y-122078857D01*
X149064000Y-122036000D01*
X148978285Y-121993142D01*
X148806857Y-121993142D01*
X148721142Y-122036000D01*
X148678285Y-122078857D01*
X148635428Y-122164571D01*
X148635428Y-122378857D01*
X148678285Y-122464571D01*
X148721142Y-122507428D01*
X148806857Y-122550285D01*
X148978285Y-122550285D01*
X149064000Y-122507428D01*
X149106857Y-122464571D01*
X149149714Y-122378857D01*
G04 #@! TO.C,C14*
X158787523Y-94345142D02*
X158739904Y-94392761D01*
X158597047Y-94440380D01*
X158501809Y-94440380D01*
X158358952Y-94392761D01*
X158263714Y-94297523D01*
X158216095Y-94202285D01*
X158168476Y-94011809D01*
X158168476Y-93868952D01*
X158216095Y-93678476D01*
X158263714Y-93583238D01*
X158358952Y-93488000D01*
X158501809Y-93440380D01*
X158597047Y-93440380D01*
X158739904Y-93488000D01*
X158787523Y-93535619D01*
X159739904Y-94440380D02*
X159168476Y-94440380D01*
X159454190Y-94440380D02*
X159454190Y-93440380D01*
X159358952Y-93583238D01*
X159263714Y-93678476D01*
X159168476Y-93726095D01*
X160597047Y-93773714D02*
X160597047Y-94440380D01*
X160358952Y-93392761D02*
X160120857Y-94107047D01*
X160739904Y-94107047D01*
G04 #@! TO.C,R11*
X170725523Y-91519380D02*
X170392190Y-91043190D01*
X170154095Y-91519380D02*
X170154095Y-90519380D01*
X170535047Y-90519380D01*
X170630285Y-90567000D01*
X170677904Y-90614619D01*
X170725523Y-90709857D01*
X170725523Y-90852714D01*
X170677904Y-90947952D01*
X170630285Y-90995571D01*
X170535047Y-91043190D01*
X170154095Y-91043190D01*
X171677904Y-91519380D02*
X171106476Y-91519380D01*
X171392190Y-91519380D02*
X171392190Y-90519380D01*
X171296952Y-90662238D01*
X171201714Y-90757476D01*
X171106476Y-90805095D01*
X172630285Y-91519380D02*
X172058857Y-91519380D01*
X172344571Y-91519380D02*
X172344571Y-90519380D01*
X172249333Y-90662238D01*
X172154095Y-90757476D01*
X172058857Y-90805095D01*
G04 #@! TO.C,C15*
X199173523Y-112887142D02*
X199125904Y-112934761D01*
X198983047Y-112982380D01*
X198887809Y-112982380D01*
X198744952Y-112934761D01*
X198649714Y-112839523D01*
X198602095Y-112744285D01*
X198554476Y-112553809D01*
X198554476Y-112410952D01*
X198602095Y-112220476D01*
X198649714Y-112125238D01*
X198744952Y-112030000D01*
X198887809Y-111982380D01*
X198983047Y-111982380D01*
X199125904Y-112030000D01*
X199173523Y-112077619D01*
X200125904Y-112982380D02*
X199554476Y-112982380D01*
X199840190Y-112982380D02*
X199840190Y-111982380D01*
X199744952Y-112125238D01*
X199649714Y-112220476D01*
X199554476Y-112268095D01*
X201030666Y-111982380D02*
X200554476Y-111982380D01*
X200506857Y-112458571D01*
X200554476Y-112410952D01*
X200649714Y-112363333D01*
X200887809Y-112363333D01*
X200983047Y-112410952D01*
X201030666Y-112458571D01*
X201078285Y-112553809D01*
X201078285Y-112791904D01*
X201030666Y-112887142D01*
X200983047Y-112934761D01*
X200887809Y-112982380D01*
X200649714Y-112982380D01*
X200554476Y-112934761D01*
X200506857Y-112887142D01*
G04 #@! TO.C,C16*
X193204523Y-114030142D02*
X193156904Y-114077761D01*
X193014047Y-114125380D01*
X192918809Y-114125380D01*
X192775952Y-114077761D01*
X192680714Y-113982523D01*
X192633095Y-113887285D01*
X192585476Y-113696809D01*
X192585476Y-113553952D01*
X192633095Y-113363476D01*
X192680714Y-113268238D01*
X192775952Y-113173000D01*
X192918809Y-113125380D01*
X193014047Y-113125380D01*
X193156904Y-113173000D01*
X193204523Y-113220619D01*
X194156904Y-114125380D02*
X193585476Y-114125380D01*
X193871190Y-114125380D02*
X193871190Y-113125380D01*
X193775952Y-113268238D01*
X193680714Y-113363476D01*
X193585476Y-113411095D01*
X195014047Y-113125380D02*
X194823571Y-113125380D01*
X194728333Y-113173000D01*
X194680714Y-113220619D01*
X194585476Y-113363476D01*
X194537857Y-113553952D01*
X194537857Y-113934904D01*
X194585476Y-114030142D01*
X194633095Y-114077761D01*
X194728333Y-114125380D01*
X194918809Y-114125380D01*
X195014047Y-114077761D01*
X195061666Y-114030142D01*
X195109285Y-113934904D01*
X195109285Y-113696809D01*
X195061666Y-113601571D01*
X195014047Y-113553952D01*
X194918809Y-113506333D01*
X194728333Y-113506333D01*
X194633095Y-113553952D01*
X194585476Y-113601571D01*
X194537857Y-113696809D01*
G04 #@! TO.C,C18*
X196961142Y-114008476D02*
X197008761Y-114056095D01*
X197056380Y-114198952D01*
X197056380Y-114294190D01*
X197008761Y-114437047D01*
X196913523Y-114532285D01*
X196818285Y-114579904D01*
X196627809Y-114627523D01*
X196484952Y-114627523D01*
X196294476Y-114579904D01*
X196199238Y-114532285D01*
X196104000Y-114437047D01*
X196056380Y-114294190D01*
X196056380Y-114198952D01*
X196104000Y-114056095D01*
X196151619Y-114008476D01*
X197056380Y-113056095D02*
X197056380Y-113627523D01*
X197056380Y-113341809D02*
X196056380Y-113341809D01*
X196199238Y-113437047D01*
X196294476Y-113532285D01*
X196342095Y-113627523D01*
X196484952Y-112484666D02*
X196437333Y-112579904D01*
X196389714Y-112627523D01*
X196294476Y-112675142D01*
X196246857Y-112675142D01*
X196151619Y-112627523D01*
X196104000Y-112579904D01*
X196056380Y-112484666D01*
X196056380Y-112294190D01*
X196104000Y-112198952D01*
X196151619Y-112151333D01*
X196246857Y-112103714D01*
X196294476Y-112103714D01*
X196389714Y-112151333D01*
X196437333Y-112198952D01*
X196484952Y-112294190D01*
X196484952Y-112484666D01*
X196532571Y-112579904D01*
X196580190Y-112627523D01*
X196675428Y-112675142D01*
X196865904Y-112675142D01*
X196961142Y-112627523D01*
X197008761Y-112579904D01*
X197056380Y-112484666D01*
X197056380Y-112294190D01*
X197008761Y-112198952D01*
X196961142Y-112151333D01*
X196865904Y-112103714D01*
X196675428Y-112103714D01*
X196580190Y-112151333D01*
X196532571Y-112198952D01*
X196484952Y-112294190D01*
G04 #@! TO.C,R12*
X173900523Y-119713380D02*
X173567190Y-119237190D01*
X173329095Y-119713380D02*
X173329095Y-118713380D01*
X173710047Y-118713380D01*
X173805285Y-118761000D01*
X173852904Y-118808619D01*
X173900523Y-118903857D01*
X173900523Y-119046714D01*
X173852904Y-119141952D01*
X173805285Y-119189571D01*
X173710047Y-119237190D01*
X173329095Y-119237190D01*
X174852904Y-119713380D02*
X174281476Y-119713380D01*
X174567190Y-119713380D02*
X174567190Y-118713380D01*
X174471952Y-118856238D01*
X174376714Y-118951476D01*
X174281476Y-118999095D01*
X175233857Y-118808619D02*
X175281476Y-118761000D01*
X175376714Y-118713380D01*
X175614809Y-118713380D01*
X175710047Y-118761000D01*
X175757666Y-118808619D01*
X175805285Y-118903857D01*
X175805285Y-118999095D01*
X175757666Y-119141952D01*
X175186238Y-119713380D01*
X175805285Y-119713380D01*
G04 #@! TO.C,R13*
X182028523Y-113109380D02*
X181695190Y-112633190D01*
X181457095Y-113109380D02*
X181457095Y-112109380D01*
X181838047Y-112109380D01*
X181933285Y-112157000D01*
X181980904Y-112204619D01*
X182028523Y-112299857D01*
X182028523Y-112442714D01*
X181980904Y-112537952D01*
X181933285Y-112585571D01*
X181838047Y-112633190D01*
X181457095Y-112633190D01*
X182980904Y-113109380D02*
X182409476Y-113109380D01*
X182695190Y-113109380D02*
X182695190Y-112109380D01*
X182599952Y-112252238D01*
X182504714Y-112347476D01*
X182409476Y-112395095D01*
X183314238Y-112109380D02*
X183933285Y-112109380D01*
X183599952Y-112490333D01*
X183742809Y-112490333D01*
X183838047Y-112537952D01*
X183885666Y-112585571D01*
X183933285Y-112680809D01*
X183933285Y-112918904D01*
X183885666Y-113014142D01*
X183838047Y-113061761D01*
X183742809Y-113109380D01*
X183457095Y-113109380D01*
X183361857Y-113061761D01*
X183314238Y-113014142D01*
G04 #@! TO.C,R14*
X182663523Y-119713380D02*
X182330190Y-119237190D01*
X182092095Y-119713380D02*
X182092095Y-118713380D01*
X182473047Y-118713380D01*
X182568285Y-118761000D01*
X182615904Y-118808619D01*
X182663523Y-118903857D01*
X182663523Y-119046714D01*
X182615904Y-119141952D01*
X182568285Y-119189571D01*
X182473047Y-119237190D01*
X182092095Y-119237190D01*
X183615904Y-119713380D02*
X183044476Y-119713380D01*
X183330190Y-119713380D02*
X183330190Y-118713380D01*
X183234952Y-118856238D01*
X183139714Y-118951476D01*
X183044476Y-118999095D01*
X184473047Y-119046714D02*
X184473047Y-119713380D01*
X184234952Y-118665761D02*
X183996857Y-119380047D01*
X184615904Y-119380047D01*
G04 #@! TO.C,C17*
X188579142Y-109817476D02*
X188626761Y-109865095D01*
X188674380Y-110007952D01*
X188674380Y-110103190D01*
X188626761Y-110246047D01*
X188531523Y-110341285D01*
X188436285Y-110388904D01*
X188245809Y-110436523D01*
X188102952Y-110436523D01*
X187912476Y-110388904D01*
X187817238Y-110341285D01*
X187722000Y-110246047D01*
X187674380Y-110103190D01*
X187674380Y-110007952D01*
X187722000Y-109865095D01*
X187769619Y-109817476D01*
X188674380Y-108865095D02*
X188674380Y-109436523D01*
X188674380Y-109150809D02*
X187674380Y-109150809D01*
X187817238Y-109246047D01*
X187912476Y-109341285D01*
X187960095Y-109436523D01*
X187674380Y-108531761D02*
X187674380Y-107865095D01*
X188674380Y-108293666D01*
G04 #@! TO.C,C21*
X143928523Y-92186142D02*
X143880904Y-92233761D01*
X143738047Y-92281380D01*
X143642809Y-92281380D01*
X143499952Y-92233761D01*
X143404714Y-92138523D01*
X143357095Y-92043285D01*
X143309476Y-91852809D01*
X143309476Y-91709952D01*
X143357095Y-91519476D01*
X143404714Y-91424238D01*
X143499952Y-91329000D01*
X143642809Y-91281380D01*
X143738047Y-91281380D01*
X143880904Y-91329000D01*
X143928523Y-91376619D01*
X144309476Y-91376619D02*
X144357095Y-91329000D01*
X144452333Y-91281380D01*
X144690428Y-91281380D01*
X144785666Y-91329000D01*
X144833285Y-91376619D01*
X144880904Y-91471857D01*
X144880904Y-91567095D01*
X144833285Y-91709952D01*
X144261857Y-92281380D01*
X144880904Y-92281380D01*
X145833285Y-92281380D02*
X145261857Y-92281380D01*
X145547571Y-92281380D02*
X145547571Y-91281380D01*
X145452333Y-91424238D01*
X145357095Y-91519476D01*
X145261857Y-91567095D01*
G04 #@! TO.C,R15*
X146515142Y-109390428D02*
X146086571Y-109690428D01*
X146515142Y-109904714D02*
X145615142Y-109904714D01*
X145615142Y-109561857D01*
X145658000Y-109476142D01*
X145700857Y-109433285D01*
X145786571Y-109390428D01*
X145915142Y-109390428D01*
X146000857Y-109433285D01*
X146043714Y-109476142D01*
X146086571Y-109561857D01*
X146086571Y-109904714D01*
X146515142Y-108533285D02*
X146515142Y-109047571D01*
X146515142Y-108790428D02*
X145615142Y-108790428D01*
X145743714Y-108876142D01*
X145829428Y-108961857D01*
X145872285Y-109047571D01*
X145615142Y-107719000D02*
X145615142Y-108147571D01*
X146043714Y-108190428D01*
X146000857Y-108147571D01*
X145958000Y-108061857D01*
X145958000Y-107847571D01*
X146000857Y-107761857D01*
X146043714Y-107719000D01*
X146129428Y-107676142D01*
X146343714Y-107676142D01*
X146429428Y-107719000D01*
X146472285Y-107761857D01*
X146515142Y-107847571D01*
X146515142Y-108061857D01*
X146472285Y-108147571D01*
X146429428Y-108190428D01*
G04 #@! TO.C,R16*
X151849142Y-106723428D02*
X151420571Y-107023428D01*
X151849142Y-107237714D02*
X150949142Y-107237714D01*
X150949142Y-106894857D01*
X150992000Y-106809142D01*
X151034857Y-106766285D01*
X151120571Y-106723428D01*
X151249142Y-106723428D01*
X151334857Y-106766285D01*
X151377714Y-106809142D01*
X151420571Y-106894857D01*
X151420571Y-107237714D01*
X151849142Y-105866285D02*
X151849142Y-106380571D01*
X151849142Y-106123428D02*
X150949142Y-106123428D01*
X151077714Y-106209142D01*
X151163428Y-106294857D01*
X151206285Y-106380571D01*
X150949142Y-105094857D02*
X150949142Y-105266285D01*
X150992000Y-105352000D01*
X151034857Y-105394857D01*
X151163428Y-105480571D01*
X151334857Y-105523428D01*
X151677714Y-105523428D01*
X151763428Y-105480571D01*
X151806285Y-105437714D01*
X151849142Y-105352000D01*
X151849142Y-105180571D01*
X151806285Y-105094857D01*
X151763428Y-105052000D01*
X151677714Y-105009142D01*
X151463428Y-105009142D01*
X151377714Y-105052000D01*
X151334857Y-105094857D01*
X151292000Y-105180571D01*
X151292000Y-105352000D01*
X151334857Y-105437714D01*
X151377714Y-105480571D01*
X151463428Y-105523428D01*
G04 #@! TO.C,R17*
X146641571Y-105494142D02*
X146341571Y-105065571D01*
X146127285Y-105494142D02*
X146127285Y-104594142D01*
X146470142Y-104594142D01*
X146555857Y-104637000D01*
X146598714Y-104679857D01*
X146641571Y-104765571D01*
X146641571Y-104894142D01*
X146598714Y-104979857D01*
X146555857Y-105022714D01*
X146470142Y-105065571D01*
X146127285Y-105065571D01*
X147498714Y-105494142D02*
X146984428Y-105494142D01*
X147241571Y-105494142D02*
X147241571Y-104594142D01*
X147155857Y-104722714D01*
X147070142Y-104808428D01*
X146984428Y-104851285D01*
X147798714Y-104594142D02*
X148398714Y-104594142D01*
X148013000Y-105494142D01*
G04 #@! TO.C,R18*
X173646523Y-115649380D02*
X173313190Y-115173190D01*
X173075095Y-115649380D02*
X173075095Y-114649380D01*
X173456047Y-114649380D01*
X173551285Y-114697000D01*
X173598904Y-114744619D01*
X173646523Y-114839857D01*
X173646523Y-114982714D01*
X173598904Y-115077952D01*
X173551285Y-115125571D01*
X173456047Y-115173190D01*
X173075095Y-115173190D01*
X174598904Y-115649380D02*
X174027476Y-115649380D01*
X174313190Y-115649380D02*
X174313190Y-114649380D01*
X174217952Y-114792238D01*
X174122714Y-114887476D01*
X174027476Y-114935095D01*
X175170333Y-115077952D02*
X175075095Y-115030333D01*
X175027476Y-114982714D01*
X174979857Y-114887476D01*
X174979857Y-114839857D01*
X175027476Y-114744619D01*
X175075095Y-114697000D01*
X175170333Y-114649380D01*
X175360809Y-114649380D01*
X175456047Y-114697000D01*
X175503666Y-114744619D01*
X175551285Y-114839857D01*
X175551285Y-114887476D01*
X175503666Y-114982714D01*
X175456047Y-115030333D01*
X175360809Y-115077952D01*
X175170333Y-115077952D01*
X175075095Y-115125571D01*
X175027476Y-115173190D01*
X174979857Y-115268428D01*
X174979857Y-115458904D01*
X175027476Y-115554142D01*
X175075095Y-115601761D01*
X175170333Y-115649380D01*
X175360809Y-115649380D01*
X175456047Y-115601761D01*
X175503666Y-115554142D01*
X175551285Y-115458904D01*
X175551285Y-115268428D01*
X175503666Y-115173190D01*
X175456047Y-115125571D01*
X175360809Y-115077952D01*
G04 #@! TO.C,R20*
X146641571Y-114892142D02*
X146341571Y-114463571D01*
X146127285Y-114892142D02*
X146127285Y-113992142D01*
X146470142Y-113992142D01*
X146555857Y-114035000D01*
X146598714Y-114077857D01*
X146641571Y-114163571D01*
X146641571Y-114292142D01*
X146598714Y-114377857D01*
X146555857Y-114420714D01*
X146470142Y-114463571D01*
X146127285Y-114463571D01*
X146984428Y-114077857D02*
X147027285Y-114035000D01*
X147113000Y-113992142D01*
X147327285Y-113992142D01*
X147413000Y-114035000D01*
X147455857Y-114077857D01*
X147498714Y-114163571D01*
X147498714Y-114249285D01*
X147455857Y-114377857D01*
X146941571Y-114892142D01*
X147498714Y-114892142D01*
X148055857Y-113992142D02*
X148141571Y-113992142D01*
X148227285Y-114035000D01*
X148270142Y-114077857D01*
X148313000Y-114163571D01*
X148355857Y-114335000D01*
X148355857Y-114549285D01*
X148313000Y-114720714D01*
X148270142Y-114806428D01*
X148227285Y-114849285D01*
X148141571Y-114892142D01*
X148055857Y-114892142D01*
X147970142Y-114849285D01*
X147927285Y-114806428D01*
X147884428Y-114720714D01*
X147841571Y-114549285D01*
X147841571Y-114335000D01*
X147884428Y-114163571D01*
X147927285Y-114077857D01*
X147970142Y-114035000D01*
X148055857Y-113992142D01*
G04 #@! TO.C,R21*
X149435571Y-114769904D02*
X149135571Y-114388952D01*
X148921285Y-114769904D02*
X148921285Y-113969904D01*
X149264142Y-113969904D01*
X149349857Y-114008000D01*
X149392714Y-114046095D01*
X149435571Y-114122285D01*
X149435571Y-114236571D01*
X149392714Y-114312761D01*
X149349857Y-114350857D01*
X149264142Y-114388952D01*
X148921285Y-114388952D01*
X149778428Y-114046095D02*
X149821285Y-114008000D01*
X149907000Y-113969904D01*
X150121285Y-113969904D01*
X150207000Y-114008000D01*
X150249857Y-114046095D01*
X150292714Y-114122285D01*
X150292714Y-114198476D01*
X150249857Y-114312761D01*
X149735571Y-114769904D01*
X150292714Y-114769904D01*
X151149857Y-114769904D02*
X150635571Y-114769904D01*
X150892714Y-114769904D02*
X150892714Y-113969904D01*
X150807000Y-114084190D01*
X150721285Y-114160380D01*
X150635571Y-114198476D01*
G04 #@! TO.C,C22*
X159341571Y-115949428D02*
X159298714Y-115992285D01*
X159170142Y-116035142D01*
X159084428Y-116035142D01*
X158955857Y-115992285D01*
X158870142Y-115906571D01*
X158827285Y-115820857D01*
X158784428Y-115649428D01*
X158784428Y-115520857D01*
X158827285Y-115349428D01*
X158870142Y-115263714D01*
X158955857Y-115178000D01*
X159084428Y-115135142D01*
X159170142Y-115135142D01*
X159298714Y-115178000D01*
X159341571Y-115220857D01*
X159684428Y-115220857D02*
X159727285Y-115178000D01*
X159813000Y-115135142D01*
X160027285Y-115135142D01*
X160113000Y-115178000D01*
X160155857Y-115220857D01*
X160198714Y-115306571D01*
X160198714Y-115392285D01*
X160155857Y-115520857D01*
X159641571Y-116035142D01*
X160198714Y-116035142D01*
X160541571Y-115220857D02*
X160584428Y-115178000D01*
X160670142Y-115135142D01*
X160884428Y-115135142D01*
X160970142Y-115178000D01*
X161013000Y-115220857D01*
X161055857Y-115306571D01*
X161055857Y-115392285D01*
X161013000Y-115520857D01*
X160498714Y-116035142D01*
X161055857Y-116035142D01*
G04 #@! TO.C,C23*
X155319428Y-107866428D02*
X155362285Y-107909285D01*
X155405142Y-108037857D01*
X155405142Y-108123571D01*
X155362285Y-108252142D01*
X155276571Y-108337857D01*
X155190857Y-108380714D01*
X155019428Y-108423571D01*
X154890857Y-108423571D01*
X154719428Y-108380714D01*
X154633714Y-108337857D01*
X154548000Y-108252142D01*
X154505142Y-108123571D01*
X154505142Y-108037857D01*
X154548000Y-107909285D01*
X154590857Y-107866428D01*
X154590857Y-107523571D02*
X154548000Y-107480714D01*
X154505142Y-107395000D01*
X154505142Y-107180714D01*
X154548000Y-107095000D01*
X154590857Y-107052142D01*
X154676571Y-107009285D01*
X154762285Y-107009285D01*
X154890857Y-107052142D01*
X155405142Y-107566428D01*
X155405142Y-107009285D01*
X154505142Y-106709285D02*
X154505142Y-106152142D01*
X154848000Y-106452142D01*
X154848000Y-106323571D01*
X154890857Y-106237857D01*
X154933714Y-106195000D01*
X155019428Y-106152142D01*
X155233714Y-106152142D01*
X155319428Y-106195000D01*
X155362285Y-106237857D01*
X155405142Y-106323571D01*
X155405142Y-106580714D01*
X155362285Y-106666428D01*
X155319428Y-106709285D01*
G04 #@! TO.C,C24*
X148729714Y-116710380D02*
X148767809Y-116748476D01*
X148805904Y-116862761D01*
X148805904Y-116938952D01*
X148767809Y-117053238D01*
X148691619Y-117129428D01*
X148615428Y-117167523D01*
X148463047Y-117205619D01*
X148348761Y-117205619D01*
X148196380Y-117167523D01*
X148120190Y-117129428D01*
X148044000Y-117053238D01*
X148005904Y-116938952D01*
X148005904Y-116862761D01*
X148044000Y-116748476D01*
X148082095Y-116710380D01*
X148082095Y-116405619D02*
X148044000Y-116367523D01*
X148005904Y-116291333D01*
X148005904Y-116100857D01*
X148044000Y-116024666D01*
X148082095Y-115986571D01*
X148158285Y-115948476D01*
X148234476Y-115948476D01*
X148348761Y-115986571D01*
X148805904Y-116443714D01*
X148805904Y-115948476D01*
X148272571Y-115262761D02*
X148805904Y-115262761D01*
X147967809Y-115453238D02*
X148539238Y-115643714D01*
X148539238Y-115148476D01*
G04 #@! TO.C,C27*
X156474885Y-96888019D02*
X156513590Y-96926723D01*
X156552295Y-97042838D01*
X156552295Y-97120247D01*
X156513590Y-97236361D01*
X156436180Y-97313771D01*
X156358771Y-97352476D01*
X156203952Y-97391180D01*
X156087838Y-97391180D01*
X155933019Y-97352476D01*
X155855609Y-97313771D01*
X155778200Y-97236361D01*
X155739495Y-97120247D01*
X155739495Y-97042838D01*
X155778200Y-96926723D01*
X155816904Y-96888019D01*
X155816904Y-96578380D02*
X155778200Y-96539676D01*
X155739495Y-96462266D01*
X155739495Y-96268742D01*
X155778200Y-96191333D01*
X155816904Y-96152628D01*
X155894314Y-96113923D01*
X155971723Y-96113923D01*
X156087838Y-96152628D01*
X156552295Y-96617085D01*
X156552295Y-96113923D01*
X155739495Y-95842990D02*
X155739495Y-95301123D01*
X156552295Y-95649466D01*
G04 #@! TO.C,R23*
X137751571Y-123528142D02*
X137451571Y-123099571D01*
X137237285Y-123528142D02*
X137237285Y-122628142D01*
X137580142Y-122628142D01*
X137665857Y-122671000D01*
X137708714Y-122713857D01*
X137751571Y-122799571D01*
X137751571Y-122928142D01*
X137708714Y-123013857D01*
X137665857Y-123056714D01*
X137580142Y-123099571D01*
X137237285Y-123099571D01*
X138094428Y-122713857D02*
X138137285Y-122671000D01*
X138223000Y-122628142D01*
X138437285Y-122628142D01*
X138523000Y-122671000D01*
X138565857Y-122713857D01*
X138608714Y-122799571D01*
X138608714Y-122885285D01*
X138565857Y-123013857D01*
X138051571Y-123528142D01*
X138608714Y-123528142D01*
X138908714Y-122628142D02*
X139465857Y-122628142D01*
X139165857Y-122971000D01*
X139294428Y-122971000D01*
X139380142Y-123013857D01*
X139423000Y-123056714D01*
X139465857Y-123142428D01*
X139465857Y-123356714D01*
X139423000Y-123442428D01*
X139380142Y-123485285D01*
X139294428Y-123528142D01*
X139037285Y-123528142D01*
X138951571Y-123485285D01*
X138908714Y-123442428D01*
G04 #@! TO.C,D1*
X127482095Y-123269380D02*
X127482095Y-122269380D01*
X127720190Y-122269380D01*
X127863047Y-122317000D01*
X127958285Y-122412238D01*
X128005904Y-122507476D01*
X128053523Y-122697952D01*
X128053523Y-122840809D01*
X128005904Y-123031285D01*
X127958285Y-123126523D01*
X127863047Y-123221761D01*
X127720190Y-123269380D01*
X127482095Y-123269380D01*
X129005904Y-123269380D02*
X128434476Y-123269380D01*
X128720190Y-123269380D02*
X128720190Y-122269380D01*
X128624952Y-122412238D01*
X128529714Y-122507476D01*
X128434476Y-122555095D01*
G04 #@! TO.C,D2*
X123528142Y-108634714D02*
X122628142Y-108634714D01*
X122628142Y-108420428D01*
X122671000Y-108291857D01*
X122756714Y-108206142D01*
X122842428Y-108163285D01*
X123013857Y-108120428D01*
X123142428Y-108120428D01*
X123313857Y-108163285D01*
X123399571Y-108206142D01*
X123485285Y-108291857D01*
X123528142Y-108420428D01*
X123528142Y-108634714D01*
X122713857Y-107777571D02*
X122671000Y-107734714D01*
X122628142Y-107649000D01*
X122628142Y-107434714D01*
X122671000Y-107349000D01*
X122713857Y-107306142D01*
X122799571Y-107263285D01*
X122885285Y-107263285D01*
X123013857Y-107306142D01*
X123528142Y-107820428D01*
X123528142Y-107263285D01*
G04 #@! TO.C,R24*
X120814523Y-86693380D02*
X120481190Y-86217190D01*
X120243095Y-86693380D02*
X120243095Y-85693380D01*
X120624047Y-85693380D01*
X120719285Y-85741000D01*
X120766904Y-85788619D01*
X120814523Y-85883857D01*
X120814523Y-86026714D01*
X120766904Y-86121952D01*
X120719285Y-86169571D01*
X120624047Y-86217190D01*
X120243095Y-86217190D01*
X121195476Y-85788619D02*
X121243095Y-85741000D01*
X121338333Y-85693380D01*
X121576428Y-85693380D01*
X121671666Y-85741000D01*
X121719285Y-85788619D01*
X121766904Y-85883857D01*
X121766904Y-85979095D01*
X121719285Y-86121952D01*
X121147857Y-86693380D01*
X121766904Y-86693380D01*
X122624047Y-86026714D02*
X122624047Y-86693380D01*
X122385952Y-85645761D02*
X122147857Y-86360047D01*
X122766904Y-86360047D01*
G04 #@! TO.C,C28*
X121495571Y-122680428D02*
X121452714Y-122723285D01*
X121324142Y-122766142D01*
X121238428Y-122766142D01*
X121109857Y-122723285D01*
X121024142Y-122637571D01*
X120981285Y-122551857D01*
X120938428Y-122380428D01*
X120938428Y-122251857D01*
X120981285Y-122080428D01*
X121024142Y-121994714D01*
X121109857Y-121909000D01*
X121238428Y-121866142D01*
X121324142Y-121866142D01*
X121452714Y-121909000D01*
X121495571Y-121951857D01*
X121838428Y-121951857D02*
X121881285Y-121909000D01*
X121967000Y-121866142D01*
X122181285Y-121866142D01*
X122267000Y-121909000D01*
X122309857Y-121951857D01*
X122352714Y-122037571D01*
X122352714Y-122123285D01*
X122309857Y-122251857D01*
X121795571Y-122766142D01*
X122352714Y-122766142D01*
X122867000Y-122251857D02*
X122781285Y-122209000D01*
X122738428Y-122166142D01*
X122695571Y-122080428D01*
X122695571Y-122037571D01*
X122738428Y-121951857D01*
X122781285Y-121909000D01*
X122867000Y-121866142D01*
X123038428Y-121866142D01*
X123124142Y-121909000D01*
X123167000Y-121951857D01*
X123209857Y-122037571D01*
X123209857Y-122080428D01*
X123167000Y-122166142D01*
X123124142Y-122209000D01*
X123038428Y-122251857D01*
X122867000Y-122251857D01*
X122781285Y-122294714D01*
X122738428Y-122337571D01*
X122695571Y-122423285D01*
X122695571Y-122594714D01*
X122738428Y-122680428D01*
X122781285Y-122723285D01*
X122867000Y-122766142D01*
X123038428Y-122766142D01*
X123124142Y-122723285D01*
X123167000Y-122680428D01*
X123209857Y-122594714D01*
X123209857Y-122423285D01*
X123167000Y-122337571D01*
X123124142Y-122294714D01*
X123038428Y-122251857D01*
G04 #@! TO.C,C29*
X151802523Y-123428142D02*
X151754904Y-123475761D01*
X151612047Y-123523380D01*
X151516809Y-123523380D01*
X151373952Y-123475761D01*
X151278714Y-123380523D01*
X151231095Y-123285285D01*
X151183476Y-123094809D01*
X151183476Y-122951952D01*
X151231095Y-122761476D01*
X151278714Y-122666238D01*
X151373952Y-122571000D01*
X151516809Y-122523380D01*
X151612047Y-122523380D01*
X151754904Y-122571000D01*
X151802523Y-122618619D01*
X152183476Y-122618619D02*
X152231095Y-122571000D01*
X152326333Y-122523380D01*
X152564428Y-122523380D01*
X152659666Y-122571000D01*
X152707285Y-122618619D01*
X152754904Y-122713857D01*
X152754904Y-122809095D01*
X152707285Y-122951952D01*
X152135857Y-123523380D01*
X152754904Y-123523380D01*
X153231095Y-123523380D02*
X153421571Y-123523380D01*
X153516809Y-123475761D01*
X153564428Y-123428142D01*
X153659666Y-123285285D01*
X153707285Y-123094809D01*
X153707285Y-122713857D01*
X153659666Y-122618619D01*
X153612047Y-122571000D01*
X153516809Y-122523380D01*
X153326333Y-122523380D01*
X153231095Y-122571000D01*
X153183476Y-122618619D01*
X153135857Y-122713857D01*
X153135857Y-122951952D01*
X153183476Y-123047190D01*
X153231095Y-123094809D01*
X153326333Y-123142428D01*
X153516809Y-123142428D01*
X153612047Y-123094809D01*
X153659666Y-123047190D01*
X153707285Y-122951952D01*
G04 #@! TO.C,R25*
X136990142Y-104010380D02*
X136561571Y-104277047D01*
X136990142Y-104467523D02*
X136090142Y-104467523D01*
X136090142Y-104162761D01*
X136133000Y-104086571D01*
X136175857Y-104048476D01*
X136261571Y-104010380D01*
X136390142Y-104010380D01*
X136475857Y-104048476D01*
X136518714Y-104086571D01*
X136561571Y-104162761D01*
X136561571Y-104467523D01*
X136175857Y-103705619D02*
X136133000Y-103667523D01*
X136090142Y-103591333D01*
X136090142Y-103400857D01*
X136133000Y-103324666D01*
X136175857Y-103286571D01*
X136261571Y-103248476D01*
X136347285Y-103248476D01*
X136475857Y-103286571D01*
X136990142Y-103743714D01*
X136990142Y-103248476D01*
X136090142Y-102524666D02*
X136090142Y-102905619D01*
X136518714Y-102943714D01*
X136475857Y-102905619D01*
X136433000Y-102829428D01*
X136433000Y-102638952D01*
X136475857Y-102562761D01*
X136518714Y-102524666D01*
X136604428Y-102486571D01*
X136818714Y-102486571D01*
X136904428Y-102524666D01*
X136947285Y-102562761D01*
X136990142Y-102638952D01*
X136990142Y-102829428D01*
X136947285Y-102905619D01*
X136904428Y-102943714D01*
G04 #@! TO.C,R26*
X138213523Y-97361380D02*
X137880190Y-96885190D01*
X137642095Y-97361380D02*
X137642095Y-96361380D01*
X138023047Y-96361380D01*
X138118285Y-96409000D01*
X138165904Y-96456619D01*
X138213523Y-96551857D01*
X138213523Y-96694714D01*
X138165904Y-96789952D01*
X138118285Y-96837571D01*
X138023047Y-96885190D01*
X137642095Y-96885190D01*
X138594476Y-96456619D02*
X138642095Y-96409000D01*
X138737333Y-96361380D01*
X138975428Y-96361380D01*
X139070666Y-96409000D01*
X139118285Y-96456619D01*
X139165904Y-96551857D01*
X139165904Y-96647095D01*
X139118285Y-96789952D01*
X138546857Y-97361380D01*
X139165904Y-97361380D01*
X140023047Y-96361380D02*
X139832571Y-96361380D01*
X139737333Y-96409000D01*
X139689714Y-96456619D01*
X139594476Y-96599476D01*
X139546857Y-96789952D01*
X139546857Y-97170904D01*
X139594476Y-97266142D01*
X139642095Y-97313761D01*
X139737333Y-97361380D01*
X139927809Y-97361380D01*
X140023047Y-97313761D01*
X140070666Y-97266142D01*
X140118285Y-97170904D01*
X140118285Y-96932809D01*
X140070666Y-96837571D01*
X140023047Y-96789952D01*
X139927809Y-96742333D01*
X139737333Y-96742333D01*
X139642095Y-96789952D01*
X139594476Y-96837571D01*
X139546857Y-96932809D01*
G04 #@! TO.C,R27*
X151767619Y-110193142D02*
X151500952Y-109764571D01*
X151310476Y-110193142D02*
X151310476Y-109293142D01*
X151615238Y-109293142D01*
X151691428Y-109336000D01*
X151729523Y-109378857D01*
X151767619Y-109464571D01*
X151767619Y-109593142D01*
X151729523Y-109678857D01*
X151691428Y-109721714D01*
X151615238Y-109764571D01*
X151310476Y-109764571D01*
X152072380Y-109378857D02*
X152110476Y-109336000D01*
X152186666Y-109293142D01*
X152377142Y-109293142D01*
X152453333Y-109336000D01*
X152491428Y-109378857D01*
X152529523Y-109464571D01*
X152529523Y-109550285D01*
X152491428Y-109678857D01*
X152034285Y-110193142D01*
X152529523Y-110193142D01*
X152796190Y-109293142D02*
X153329523Y-109293142D01*
X152986666Y-110193142D01*
G04 #@! TO.C,R28*
X117558571Y-122766142D02*
X117258571Y-122337571D01*
X117044285Y-122766142D02*
X117044285Y-121866142D01*
X117387142Y-121866142D01*
X117472857Y-121909000D01*
X117515714Y-121951857D01*
X117558571Y-122037571D01*
X117558571Y-122166142D01*
X117515714Y-122251857D01*
X117472857Y-122294714D01*
X117387142Y-122337571D01*
X117044285Y-122337571D01*
X117901428Y-121951857D02*
X117944285Y-121909000D01*
X118030000Y-121866142D01*
X118244285Y-121866142D01*
X118330000Y-121909000D01*
X118372857Y-121951857D01*
X118415714Y-122037571D01*
X118415714Y-122123285D01*
X118372857Y-122251857D01*
X117858571Y-122766142D01*
X118415714Y-122766142D01*
X118930000Y-122251857D02*
X118844285Y-122209000D01*
X118801428Y-122166142D01*
X118758571Y-122080428D01*
X118758571Y-122037571D01*
X118801428Y-121951857D01*
X118844285Y-121909000D01*
X118930000Y-121866142D01*
X119101428Y-121866142D01*
X119187142Y-121909000D01*
X119230000Y-121951857D01*
X119272857Y-122037571D01*
X119272857Y-122080428D01*
X119230000Y-122166142D01*
X119187142Y-122209000D01*
X119101428Y-122251857D01*
X118930000Y-122251857D01*
X118844285Y-122294714D01*
X118801428Y-122337571D01*
X118758571Y-122423285D01*
X118758571Y-122594714D01*
X118801428Y-122680428D01*
X118844285Y-122723285D01*
X118930000Y-122766142D01*
X119101428Y-122766142D01*
X119187142Y-122723285D01*
X119230000Y-122680428D01*
X119272857Y-122594714D01*
X119272857Y-122423285D01*
X119230000Y-122337571D01*
X119187142Y-122294714D01*
X119101428Y-122251857D01*
G04 #@! TO.C,R29*
X126830142Y-120439428D02*
X126401571Y-120739428D01*
X126830142Y-120953714D02*
X125930142Y-120953714D01*
X125930142Y-120610857D01*
X125973000Y-120525142D01*
X126015857Y-120482285D01*
X126101571Y-120439428D01*
X126230142Y-120439428D01*
X126315857Y-120482285D01*
X126358714Y-120525142D01*
X126401571Y-120610857D01*
X126401571Y-120953714D01*
X126015857Y-120096571D02*
X125973000Y-120053714D01*
X125930142Y-119968000D01*
X125930142Y-119753714D01*
X125973000Y-119668000D01*
X126015857Y-119625142D01*
X126101571Y-119582285D01*
X126187285Y-119582285D01*
X126315857Y-119625142D01*
X126830142Y-120139428D01*
X126830142Y-119582285D01*
X126830142Y-119153714D02*
X126830142Y-118982285D01*
X126787285Y-118896571D01*
X126744428Y-118853714D01*
X126615857Y-118768000D01*
X126444428Y-118725142D01*
X126101571Y-118725142D01*
X126015857Y-118768000D01*
X125973000Y-118810857D01*
X125930142Y-118896571D01*
X125930142Y-119068000D01*
X125973000Y-119153714D01*
X126015857Y-119196571D01*
X126101571Y-119239428D01*
X126315857Y-119239428D01*
X126401571Y-119196571D01*
X126444428Y-119153714D01*
X126487285Y-119068000D01*
X126487285Y-118896571D01*
X126444428Y-118810857D01*
X126401571Y-118768000D01*
X126315857Y-118725142D01*
G04 #@! TO.C,R30*
X154942619Y-115023904D02*
X154675952Y-114642952D01*
X154485476Y-115023904D02*
X154485476Y-114223904D01*
X154790238Y-114223904D01*
X154866428Y-114262000D01*
X154904523Y-114300095D01*
X154942619Y-114376285D01*
X154942619Y-114490571D01*
X154904523Y-114566761D01*
X154866428Y-114604857D01*
X154790238Y-114642952D01*
X154485476Y-114642952D01*
X155209285Y-114223904D02*
X155704523Y-114223904D01*
X155437857Y-114528666D01*
X155552142Y-114528666D01*
X155628333Y-114566761D01*
X155666428Y-114604857D01*
X155704523Y-114681047D01*
X155704523Y-114871523D01*
X155666428Y-114947714D01*
X155628333Y-114985809D01*
X155552142Y-115023904D01*
X155323571Y-115023904D01*
X155247380Y-114985809D01*
X155209285Y-114947714D01*
X156199761Y-114223904D02*
X156275952Y-114223904D01*
X156352142Y-114262000D01*
X156390238Y-114300095D01*
X156428333Y-114376285D01*
X156466428Y-114528666D01*
X156466428Y-114719142D01*
X156428333Y-114871523D01*
X156390238Y-114947714D01*
X156352142Y-114985809D01*
X156275952Y-115023904D01*
X156199761Y-115023904D01*
X156123571Y-114985809D01*
X156085476Y-114947714D01*
X156047380Y-114871523D01*
X156009285Y-114719142D01*
X156009285Y-114528666D01*
X156047380Y-114376285D01*
X156085476Y-114300095D01*
X156123571Y-114262000D01*
X156199761Y-114223904D01*
G04 #@! TO.C,R31*
X157945142Y-119296428D02*
X157516571Y-119596428D01*
X157945142Y-119810714D02*
X157045142Y-119810714D01*
X157045142Y-119467857D01*
X157088000Y-119382142D01*
X157130857Y-119339285D01*
X157216571Y-119296428D01*
X157345142Y-119296428D01*
X157430857Y-119339285D01*
X157473714Y-119382142D01*
X157516571Y-119467857D01*
X157516571Y-119810714D01*
X157045142Y-118996428D02*
X157045142Y-118439285D01*
X157388000Y-118739285D01*
X157388000Y-118610714D01*
X157430857Y-118525000D01*
X157473714Y-118482142D01*
X157559428Y-118439285D01*
X157773714Y-118439285D01*
X157859428Y-118482142D01*
X157902285Y-118525000D01*
X157945142Y-118610714D01*
X157945142Y-118867857D01*
X157902285Y-118953571D01*
X157859428Y-118996428D01*
X157945142Y-117582142D02*
X157945142Y-118096428D01*
X157945142Y-117839285D02*
X157045142Y-117839285D01*
X157173714Y-117925000D01*
X157259428Y-118010714D01*
X157302285Y-118096428D01*
G04 #@! TO.C,R33*
X119972142Y-111930428D02*
X119543571Y-112230428D01*
X119972142Y-112444714D02*
X119072142Y-112444714D01*
X119072142Y-112101857D01*
X119115000Y-112016142D01*
X119157857Y-111973285D01*
X119243571Y-111930428D01*
X119372142Y-111930428D01*
X119457857Y-111973285D01*
X119500714Y-112016142D01*
X119543571Y-112101857D01*
X119543571Y-112444714D01*
X119072142Y-111630428D02*
X119072142Y-111073285D01*
X119415000Y-111373285D01*
X119415000Y-111244714D01*
X119457857Y-111159000D01*
X119500714Y-111116142D01*
X119586428Y-111073285D01*
X119800714Y-111073285D01*
X119886428Y-111116142D01*
X119929285Y-111159000D01*
X119972142Y-111244714D01*
X119972142Y-111501857D01*
X119929285Y-111587571D01*
X119886428Y-111630428D01*
X119072142Y-110773285D02*
X119072142Y-110216142D01*
X119415000Y-110516142D01*
X119415000Y-110387571D01*
X119457857Y-110301857D01*
X119500714Y-110259000D01*
X119586428Y-110216142D01*
X119800714Y-110216142D01*
X119886428Y-110259000D01*
X119929285Y-110301857D01*
X119972142Y-110387571D01*
X119972142Y-110644714D01*
X119929285Y-110730428D01*
X119886428Y-110773285D01*
G04 #@! TO.C,R19*
X159422523Y-123523380D02*
X159089190Y-123047190D01*
X158851095Y-123523380D02*
X158851095Y-122523380D01*
X159232047Y-122523380D01*
X159327285Y-122571000D01*
X159374904Y-122618619D01*
X159422523Y-122713857D01*
X159422523Y-122856714D01*
X159374904Y-122951952D01*
X159327285Y-122999571D01*
X159232047Y-123047190D01*
X158851095Y-123047190D01*
X160374904Y-123523380D02*
X159803476Y-123523380D01*
X160089190Y-123523380D02*
X160089190Y-122523380D01*
X159993952Y-122666238D01*
X159898714Y-122761476D01*
X159803476Y-122809095D01*
X160851095Y-123523380D02*
X161041571Y-123523380D01*
X161136809Y-123475761D01*
X161184428Y-123428142D01*
X161279666Y-123285285D01*
X161327285Y-123094809D01*
X161327285Y-122713857D01*
X161279666Y-122618619D01*
X161232047Y-122571000D01*
X161136809Y-122523380D01*
X160946333Y-122523380D01*
X160851095Y-122571000D01*
X160803476Y-122618619D01*
X160755857Y-122713857D01*
X160755857Y-122951952D01*
X160803476Y-123047190D01*
X160851095Y-123094809D01*
X160946333Y-123142428D01*
X161136809Y-123142428D01*
X161232047Y-123094809D01*
X161279666Y-123047190D01*
X161327285Y-122951952D01*
G04 #@! TO.C,J6*
X135223380Y-116453190D02*
X135937666Y-116453190D01*
X136080523Y-116500809D01*
X136175761Y-116596047D01*
X136223380Y-116738904D01*
X136223380Y-116834142D01*
X135223380Y-115548428D02*
X135223380Y-115738904D01*
X135271000Y-115834142D01*
X135318619Y-115881761D01*
X135461476Y-115977000D01*
X135651952Y-116024619D01*
X136032904Y-116024619D01*
X136128142Y-115977000D01*
X136175761Y-115929380D01*
X136223380Y-115834142D01*
X136223380Y-115643666D01*
X136175761Y-115548428D01*
X136128142Y-115500809D01*
X136032904Y-115453190D01*
X135794809Y-115453190D01*
X135699571Y-115500809D01*
X135651952Y-115548428D01*
X135604333Y-115643666D01*
X135604333Y-115834142D01*
X135651952Y-115929380D01*
X135699571Y-115977000D01*
X135794809Y-116024619D01*
G04 #@! TO.C,R1*
X124925142Y-117899428D02*
X124496571Y-118199428D01*
X124925142Y-118413714D02*
X124025142Y-118413714D01*
X124025142Y-118070857D01*
X124068000Y-117985142D01*
X124110857Y-117942285D01*
X124196571Y-117899428D01*
X124325142Y-117899428D01*
X124410857Y-117942285D01*
X124453714Y-117985142D01*
X124496571Y-118070857D01*
X124496571Y-118413714D01*
X124925142Y-117042285D02*
X124925142Y-117556571D01*
X124925142Y-117299428D02*
X124025142Y-117299428D01*
X124153714Y-117385142D01*
X124239428Y-117470857D01*
X124282285Y-117556571D01*
G04 #@! TO.C,R2*
X123527571Y-110320142D02*
X123227571Y-109891571D01*
X123013285Y-110320142D02*
X123013285Y-109420142D01*
X123356142Y-109420142D01*
X123441857Y-109463000D01*
X123484714Y-109505857D01*
X123527571Y-109591571D01*
X123527571Y-109720142D01*
X123484714Y-109805857D01*
X123441857Y-109848714D01*
X123356142Y-109891571D01*
X123013285Y-109891571D01*
X123870428Y-109505857D02*
X123913285Y-109463000D01*
X123999000Y-109420142D01*
X124213285Y-109420142D01*
X124299000Y-109463000D01*
X124341857Y-109505857D01*
X124384714Y-109591571D01*
X124384714Y-109677285D01*
X124341857Y-109805857D01*
X123827571Y-110320142D01*
X124384714Y-110320142D01*
G04 #@! TO.C,R32*
X147658142Y-118788428D02*
X147229571Y-119088428D01*
X147658142Y-119302714D02*
X146758142Y-119302714D01*
X146758142Y-118959857D01*
X146801000Y-118874142D01*
X146843857Y-118831285D01*
X146929571Y-118788428D01*
X147058142Y-118788428D01*
X147143857Y-118831285D01*
X147186714Y-118874142D01*
X147229571Y-118959857D01*
X147229571Y-119302714D01*
X146758142Y-118488428D02*
X146758142Y-117931285D01*
X147101000Y-118231285D01*
X147101000Y-118102714D01*
X147143857Y-118017000D01*
X147186714Y-117974142D01*
X147272428Y-117931285D01*
X147486714Y-117931285D01*
X147572428Y-117974142D01*
X147615285Y-118017000D01*
X147658142Y-118102714D01*
X147658142Y-118359857D01*
X147615285Y-118445571D01*
X147572428Y-118488428D01*
X146843857Y-117588428D02*
X146801000Y-117545571D01*
X146758142Y-117459857D01*
X146758142Y-117245571D01*
X146801000Y-117159857D01*
X146843857Y-117117000D01*
X146929571Y-117074142D01*
X147015285Y-117074142D01*
X147143857Y-117117000D01*
X147658142Y-117631285D01*
X147658142Y-117074142D01*
G04 #@! TD*
M02*
