G04 #@! TF.GenerationSoftware,KiCad,Pcbnew,5.0.0-fee4fd1~65~ubuntu17.10.1*
G04 #@! TF.CreationDate,2018-08-22T05:15:13-04:00*
G04 #@! TF.ProjectId,motherboard,6D6F74686572626F6172642E6B696361,rev?*
G04 #@! TF.SameCoordinates,Original*
G04 #@! TF.FileFunction,Copper,L2,Inr,Plane*
G04 #@! TF.FilePolarity,Positive*
%FSLAX46Y46*%
G04 Gerber Fmt 4.6, Leading zero omitted, Abs format (unit mm)*
G04 Created by KiCad (PCBNEW 5.0.0-fee4fd1~65~ubuntu17.10.1) date Wed Aug 22 05:15:13 2018*
%MOMM*%
%LPD*%
G01*
G04 APERTURE LIST*
G04 #@! TA.AperFunction,ViaPad*
%ADD10R,1.508000X1.508000*%
G04 #@! TD*
G04 #@! TA.AperFunction,ViaPad*
%ADD11R,1.600000X1.600000*%
G04 #@! TD*
G04 #@! TA.AperFunction,ViaPad*
%ADD12C,1.600000*%
G04 #@! TD*
G04 #@! TA.AperFunction,ViaPad*
%ADD13R,3.700000X3.700000*%
G04 #@! TD*
G04 #@! TA.AperFunction,ViaPad*
%ADD14C,1.016000*%
G04 #@! TD*
G04 #@! TA.AperFunction,ViaPad*
%ADD15C,6.350000*%
G04 #@! TD*
G04 #@! TA.AperFunction,ViaPad*
%ADD16C,0.812800*%
G04 #@! TD*
G04 #@! TA.AperFunction,ViaPad*
%ADD17C,1.117600*%
G04 #@! TD*
G04 #@! TA.AperFunction,Conductor*
%ADD18C,0.203200*%
G04 #@! TD*
G04 #@! TA.AperFunction,Conductor*
%ADD19C,0.254000*%
G04 #@! TD*
%ADD20C,0.350000*%
G04 APERTURE END LIST*
D10*
G04 #@! TO.N,GND*
G04 #@! TO.C,J12*
X120650000Y-86360000D03*
G04 #@! TD*
D11*
G04 #@! TO.N,/LOW_BATT*
G04 #@! TO.C,J6*
X137795000Y-97155000D03*
D12*
G04 #@! TO.N,/ON_BATT*
X137795000Y-99695000D03*
G04 #@! TD*
D11*
G04 #@! TO.N,/VIN*
G04 #@! TO.C,J10*
X109855000Y-98425000D03*
D12*
X112395000Y-98425000D03*
G04 #@! TO.N,+5V*
X109855000Y-100965000D03*
X112395000Y-100965000D03*
G04 #@! TO.N,GND*
X109855000Y-103505000D03*
X112395000Y-103505000D03*
G04 #@! TD*
G04 #@! TO.N,GND*
G04 #@! TO.C,J7*
X166370000Y-116840000D03*
G04 #@! TO.N,/RESET*
X166370000Y-119380000D03*
G04 #@! TO.N,/MOSI*
X168910000Y-116840000D03*
G04 #@! TO.N,/SCK*
X168910000Y-119380000D03*
G04 #@! TO.N,+5V*
X171450000Y-116840000D03*
D11*
G04 #@! TO.N,/MISO*
X171450000Y-119380000D03*
G04 #@! TD*
D12*
G04 #@! TO.N,GND*
G04 #@! TO.C,SW1*
X125805000Y-113320000D03*
X119305000Y-113320000D03*
G04 #@! TO.N,Net-(C13-Pad1)*
X119305000Y-117820000D03*
X125805000Y-117820000D03*
G04 #@! TD*
D13*
G04 #@! TO.N,GND*
G04 #@! TO.C,U4*
X195097400Y-99898200D03*
G04 #@! TD*
D12*
G04 #@! TO.N,GND*
G04 #@! TO.C,J3*
X180340000Y-86995000D03*
X177800000Y-86995000D03*
G04 #@! TO.N,+5V*
X175260000Y-86995000D03*
D11*
X172720000Y-86995000D03*
G04 #@! TD*
D14*
G04 #@! TO.N,GND*
G04 #@! TO.C,H1*
X115009734Y-115697000D03*
X115009734Y-117983000D03*
X113030000Y-119126000D03*
X111050266Y-117983000D03*
X111050266Y-115697000D03*
X113030000Y-114554000D03*
D15*
X113030000Y-116840000D03*
G04 #@! TD*
D14*
G04 #@! TO.N,GND*
G04 #@! TO.C,H2*
X203909734Y-115697000D03*
X203909734Y-117983000D03*
X201930000Y-119126000D03*
X199950266Y-117983000D03*
X199950266Y-115697000D03*
X201930000Y-114554000D03*
D15*
X201930000Y-116840000D03*
G04 #@! TD*
D14*
G04 #@! TO.N,GND*
G04 #@! TO.C,H3*
X141679734Y-89662000D03*
X141679734Y-91948000D03*
X139700000Y-93091000D03*
X137720266Y-91948000D03*
X137720266Y-89662000D03*
X139700000Y-88519000D03*
D15*
X139700000Y-90805000D03*
G04 #@! TD*
D12*
G04 #@! TO.N,GND*
G04 #@! TO.C,J4*
X114935000Y-109855000D03*
G04 #@! TO.N,/USB Serial/RESET-USB*
X114935000Y-107315000D03*
G04 #@! TO.N,/USB Serial/MOSI-USB*
X112395000Y-109855000D03*
G04 #@! TO.N,/USB Serial/SCK-USB*
X112395000Y-107315000D03*
G04 #@! TO.N,+5V*
X109855000Y-109855000D03*
D11*
G04 #@! TO.N,/USB Serial/MISO-USB*
X109855000Y-107315000D03*
G04 #@! TD*
D12*
G04 #@! TO.N,/ALRM_SW*
G04 #@! TO.C,J9*
X141605000Y-98425000D03*
G04 #@! TO.N,DVDD*
X144145000Y-98425000D03*
G04 #@! TO.N,/PIX_SHDN*
X141605000Y-100965000D03*
G04 #@! TO.N,/A_SHDN*
X144145000Y-100965000D03*
G04 #@! TO.N,/Peripherals/CRST_3V3*
X141605000Y-103505000D03*
G04 #@! TO.N,/PIX_LAMP*
X144145000Y-103505000D03*
G04 #@! TO.N,/PIX_CLK*
X141605000Y-106045000D03*
G04 #@! TO.N,/KCHG*
X144145000Y-106045000D03*
G04 #@! TO.N,/SCL*
X141605000Y-108585000D03*
G04 #@! TO.N,/SDA*
X144145000Y-108585000D03*
G04 #@! TO.N,/Peripherals/CCS_3V3*
X141605000Y-111125000D03*
G04 #@! TO.N,/DREQ*
X144145000Y-111125000D03*
G04 #@! TO.N,/Peripherals/XDCS_3V3*
X141605000Y-113665000D03*
G04 #@! TO.N,/Peripherals/CSCK_3V3*
X144145000Y-113665000D03*
G04 #@! TO.N,/Peripherals/CMOSI_3V3*
X141605000Y-116205000D03*
D11*
G04 #@! TO.N,/MISO*
X144145000Y-116205000D03*
G04 #@! TD*
D10*
G04 #@! TO.N,GND*
G04 #@! TO.C,J11*
X137795000Y-115570000D03*
G04 #@! TD*
D14*
G04 #@! TO.N,GND*
X123825000Y-114300000D03*
X123825000Y-113030000D03*
X127635000Y-114300000D03*
X127635000Y-113030000D03*
X134620000Y-103505000D03*
X171450000Y-89535000D03*
X201295000Y-108585000D03*
X195580000Y-113030000D03*
X205105000Y-92075028D03*
X180340000Y-114300000D03*
X173990000Y-96520000D03*
X182245000Y-96520000D03*
X181610000Y-97790000D03*
X174625000Y-97790000D03*
X144780000Y-122555000D03*
X144780000Y-121285000D03*
X175260000Y-111760000D03*
X163195000Y-116840000D03*
X162560000Y-93980000D03*
X144780000Y-90170000D03*
X159004000Y-88265000D03*
X180340000Y-117475000D03*
X184785000Y-95885000D03*
X179705000Y-111760000D03*
X179705000Y-106680000D03*
X179705000Y-101600000D03*
X133985000Y-108585000D03*
X129540000Y-108585000D03*
X154305000Y-103505000D03*
X146685000Y-94615000D03*
X160655000Y-93980000D03*
X154940000Y-93980000D03*
X197485000Y-114935000D03*
X198120000Y-113030000D03*
X191770000Y-111125000D03*
X191770000Y-122555000D03*
D16*
G04 #@! TO.N,/MISO*
X150495000Y-116205000D03*
X187325000Y-109855000D03*
X152400000Y-109220000D03*
X156210000Y-95250000D03*
D14*
G04 #@! TO.N,+5V*
X131445000Y-101600000D03*
X117475000Y-99695000D03*
X132715000Y-118110000D03*
X160655000Y-88265000D03*
X173990000Y-93345000D03*
X173990000Y-94615000D03*
X173990000Y-92075000D03*
X174625000Y-117475000D03*
X127635000Y-122555000D03*
X127635000Y-121285000D03*
X170815000Y-107950000D03*
X163195000Y-111125000D03*
X154305000Y-112395000D03*
X154305000Y-98425000D03*
X147320000Y-113665000D03*
X149860000Y-113665000D03*
X168275000Y-93345000D03*
D16*
G04 #@! TO.N,/SCK*
X150495000Y-98425000D03*
X160655000Y-102235000D03*
G04 #@! TO.N,/MOSI*
X149860000Y-93980000D03*
X161925000Y-100965000D03*
X184150000Y-120015000D03*
X196850000Y-118745000D03*
X173355000Y-118745000D03*
G04 #@! TO.N,/RESET*
X160655000Y-118745000D03*
X169545000Y-109220000D03*
G04 #@! TO.N,Net-(R1-Pad1)*
X132080000Y-97790000D03*
X152400000Y-114935000D03*
G04 #@! TO.N,/USB Serial/MISO-USB*
X118110000Y-98425000D03*
G04 #@! TO.N,/USB Serial/SCK-USB*
X122555000Y-99060000D03*
G04 #@! TO.N,/USB Serial/MOSI-USB*
X121920000Y-100330000D03*
D17*
G04 #@! TO.N,/USB Serial/UVCC*
X131445000Y-99060000D03*
X126530000Y-101600000D03*
G04 #@! TO.N,/USB Serial/UGND*
X124460000Y-99695000D03*
X128905000Y-87630000D03*
D16*
G04 #@! TO.N,/USB Serial/D-*
X126724210Y-100054210D03*
X131000500Y-95567500D03*
G04 #@! TO.N,/USB Serial/D+*
X126005790Y-99335790D03*
X129984500Y-95567500D03*
G04 #@! TO.N,Net-(C6-Pad2)*
X123190000Y-102870000D03*
X119379972Y-106045000D03*
D17*
G04 #@! TO.N,/USB Serial/USHLD*
X133667500Y-94615000D03*
X127317500Y-94615000D03*
X128905000Y-85725000D03*
X131445000Y-85725000D03*
X125730000Y-93345000D03*
D16*
G04 #@! TO.N,/DREQ*
X159385000Y-117475000D03*
G04 #@! TO.N,/A_SHDN*
X160655000Y-100965000D03*
D17*
G04 #@! TO.N,+3V3*
X195580000Y-104140000D03*
X190500000Y-104140000D03*
X182245000Y-94615000D03*
X182245000Y-92075000D03*
X182245000Y-93345000D03*
D14*
X197485000Y-120015000D03*
D16*
G04 #@! TO.N,Net-(B1-PadP)*
X172720000Y-89535000D03*
G04 #@! TO.N,/RTC_INT*
X167640000Y-92075000D03*
X168910000Y-100965000D03*
G04 #@! TO.N,/Peripherals/WRST_3V3*
X201929974Y-111125000D03*
X189865000Y-116840000D03*
G04 #@! TO.N,/Peripherals/WEN_3V3*
X193675000Y-104140000D03*
X189230000Y-114935000D03*
G04 #@! TO.N,/Peripherals/WWAKE_3V3*
X183515000Y-97155000D03*
X196850000Y-116840000D03*
X188595000Y-112395000D03*
X194945000Y-114300000D03*
G04 #@! TO.N,/Peripherals/WMOSI_3V3*
X191135000Y-116205000D03*
X193040000Y-120015000D03*
G04 #@! TO.N,/Peripherals/WCS_3V3*
X189230000Y-118745000D03*
X187325000Y-111125000D03*
G04 #@! TO.N,/Peripherals/WSCK_3V3*
X193040000Y-118745000D03*
X193040000Y-113665000D03*
G04 #@! TO.N,/WCS*
X170465000Y-110775000D03*
X179070000Y-117475000D03*
G04 #@! TO.N,/WWAKE*
X175260000Y-116205000D03*
X177800000Y-120015000D03*
G04 #@! TO.N,/WIRQ*
X172085000Y-113030000D03*
X161290000Y-111125000D03*
G04 #@! TO.N,/Peripherals/CMOSI_3V3*
X149225000Y-98425000D03*
G04 #@! TO.N,/Peripherals/CSCK_3V3*
X151765000Y-99060000D03*
G04 #@! TO.N,/SDCS*
X147320000Y-97790000D03*
X158115000Y-99695000D03*
G04 #@! TO.N,/Peripherals/XDCS_3V3*
X145415000Y-99695000D03*
D14*
G04 #@! TO.N,DVDD*
X151765000Y-93345000D03*
X146685000Y-92710000D03*
X153035000Y-94615000D03*
D16*
G04 #@! TO.N,/PIX_SHDN*
X165100000Y-98425000D03*
G04 #@! TO.N,/PIX_LAMP*
X164465000Y-99695000D03*
G04 #@! TO.N,/PIX_CLK*
X172085000Y-97790000D03*
X164465000Y-105410000D03*
X169545000Y-106045000D03*
G04 #@! TO.N,/KCHG*
X165735000Y-100965000D03*
G04 #@! TO.N,/SCL*
X166370000Y-85725000D03*
X149225000Y-117475000D03*
X167640000Y-103505000D03*
X151130000Y-109855000D03*
G04 #@! TO.N,/SDA*
X167005000Y-86995000D03*
X168910000Y-102235000D03*
X147955000Y-116840000D03*
X164465000Y-90805000D03*
X148590000Y-111125000D03*
G04 #@! TO.N,/CCS*
X151765000Y-101600000D03*
X159385000Y-104775000D03*
G04 #@! TO.N,/XDCS*
X163195000Y-99695000D03*
X148590000Y-101600000D03*
G04 #@! TO.N,/CRST*
X147320000Y-101600000D03*
X160020000Y-103505000D03*
G04 #@! TO.N,/ALS_INT*
X161290000Y-116840000D03*
X165735000Y-111125000D03*
X153035000Y-118110000D03*
G04 #@! TO.N,/OLRST*
X151130000Y-118110000D03*
G04 #@! TO.N,/ALRM_SW*
X157480000Y-95250000D03*
G04 #@! TO.N,Net-(C24-Pad1)*
X158115000Y-110490000D03*
X146685000Y-122555000D03*
G04 #@! TO.N,/LOW_BATT*
X158750000Y-93980000D03*
G04 #@! TO.N,/ON_BATT*
X157480000Y-93980000D03*
G04 #@! TO.N,/SD_DET*
X161925000Y-90805000D03*
X144780000Y-88900000D03*
X168275000Y-94615000D03*
G04 #@! TO.N,/P42*
X170815000Y-103505000D03*
G04 #@! TO.N,/P43*
X174625000Y-102870000D03*
G04 #@! TO.N,/P44*
X174625000Y-104140000D03*
G04 #@! TO.N,/P46*
X170815000Y-104775000D03*
G04 #@! TO.N,/P45*
X174625000Y-105410000D03*
G04 #@! TO.N,/Peripherals/LED_NET*
X200025000Y-104140000D03*
G04 #@! TO.N,/Peripherals/GPIO_1*
X192405000Y-103505000D03*
G04 #@! TO.N,/Peripherals/GPIO_3*
X198755000Y-102870000D03*
G04 #@! TO.N,/Peripherals/LED_WIFI*
X198755000Y-104140000D03*
G04 #@! TO.N,/Peripherals/LED_ERR*
X205105000Y-103505000D03*
G04 #@! TO.N,/USB Serial/LED_TX*
X120650000Y-93345000D03*
G04 #@! TO.N,/USB Serial/LED_RX*
X125774495Y-95205505D03*
G04 #@! TD*
D18*
G04 #@! TO.N,/SDA*
X167005000Y-88265000D02*
X167005000Y-86995000D01*
X164465000Y-90805000D02*
X167005000Y-88265000D01*
G04 #@! TD*
D19*
G04 #@! TO.N,GND*
G36*
X119651405Y-85239938D02*
X119529937Y-85361405D01*
X119464200Y-85520110D01*
X119464200Y-86125050D01*
X119572150Y-86233000D01*
X120523000Y-86233000D01*
X120523000Y-86213000D01*
X120777000Y-86213000D01*
X120777000Y-86233000D01*
X120797000Y-86233000D01*
X120797000Y-86487000D01*
X120777000Y-86487000D01*
X120777000Y-87437850D01*
X120884950Y-87545800D01*
X121489891Y-87545800D01*
X121648595Y-87480062D01*
X121770063Y-87358595D01*
X121793000Y-87303220D01*
X121793000Y-95885000D01*
X121802667Y-95933601D01*
X121830197Y-95974803D01*
X121871399Y-96002333D01*
X121920000Y-96012000D01*
X125108228Y-96012000D01*
X125184589Y-96088361D01*
X125567348Y-96246905D01*
X125981642Y-96246905D01*
X126364401Y-96088361D01*
X126440762Y-96012000D01*
X129041415Y-96012000D01*
X129101644Y-96157406D01*
X129394594Y-96450356D01*
X129777353Y-96608900D01*
X130191647Y-96608900D01*
X130492500Y-96484283D01*
X130793353Y-96608900D01*
X131207647Y-96608900D01*
X131590406Y-96450356D01*
X131883356Y-96157406D01*
X131943585Y-96012000D01*
X136460477Y-96012000D01*
X136396843Y-96107235D01*
X136347560Y-96355000D01*
X136347560Y-97955000D01*
X136396843Y-98202765D01*
X136537191Y-98412809D01*
X136747235Y-98553157D01*
X136880866Y-98579738D01*
X136578466Y-98882138D01*
X136360000Y-99409561D01*
X136360000Y-99980439D01*
X136578466Y-100507862D01*
X136982138Y-100911534D01*
X137509561Y-101130000D01*
X138080439Y-101130000D01*
X138607862Y-100911534D01*
X139011534Y-100507862D01*
X139230000Y-99980439D01*
X139230000Y-99409561D01*
X139011534Y-98882138D01*
X138709134Y-98579738D01*
X138842765Y-98553157D01*
X139052809Y-98412809D01*
X139193157Y-98202765D01*
X139205728Y-98139561D01*
X140170000Y-98139561D01*
X140170000Y-98710439D01*
X140388466Y-99237862D01*
X140792138Y-99641534D01*
X140921216Y-99695000D01*
X140792138Y-99748466D01*
X140388466Y-100152138D01*
X140170000Y-100679561D01*
X140170000Y-101250439D01*
X140388466Y-101777862D01*
X140792138Y-102181534D01*
X140921216Y-102235000D01*
X140792138Y-102288466D01*
X140388466Y-102692138D01*
X140170000Y-103219561D01*
X140170000Y-103790439D01*
X140388466Y-104317862D01*
X140792138Y-104721534D01*
X140921216Y-104775000D01*
X140792138Y-104828466D01*
X140388466Y-105232138D01*
X140170000Y-105759561D01*
X140170000Y-106330439D01*
X140388466Y-106857862D01*
X140792138Y-107261534D01*
X140921216Y-107315000D01*
X140792138Y-107368466D01*
X140388466Y-107772138D01*
X140170000Y-108299561D01*
X140170000Y-108870439D01*
X140388466Y-109397862D01*
X140792138Y-109801534D01*
X140921216Y-109855000D01*
X140792138Y-109908466D01*
X140388466Y-110312138D01*
X140170000Y-110839561D01*
X140170000Y-111410439D01*
X140388466Y-111937862D01*
X140792138Y-112341534D01*
X140921216Y-112395000D01*
X140792138Y-112448466D01*
X140388466Y-112852138D01*
X140170000Y-113379561D01*
X140170000Y-113950439D01*
X140388466Y-114477862D01*
X140792138Y-114881534D01*
X140921216Y-114935000D01*
X140792138Y-114988466D01*
X140388466Y-115392138D01*
X140170000Y-115919561D01*
X140170000Y-116490439D01*
X140388466Y-117017862D01*
X140792138Y-117421534D01*
X141319561Y-117640000D01*
X141890439Y-117640000D01*
X142417862Y-117421534D01*
X142720262Y-117119134D01*
X142746843Y-117252765D01*
X142887191Y-117462809D01*
X143097235Y-117603157D01*
X143345000Y-117652440D01*
X144945000Y-117652440D01*
X145192765Y-117603157D01*
X145402809Y-117462809D01*
X145543157Y-117252765D01*
X145592440Y-117005000D01*
X145592440Y-116632853D01*
X146913600Y-116632853D01*
X146913600Y-117047147D01*
X147072144Y-117429906D01*
X147365094Y-117722856D01*
X147747853Y-117881400D01*
X148162147Y-117881400D01*
X148250905Y-117844635D01*
X148342144Y-118064906D01*
X148635094Y-118357856D01*
X149017853Y-118516400D01*
X149432147Y-118516400D01*
X149814906Y-118357856D01*
X150088600Y-118084162D01*
X150088600Y-118317147D01*
X150247144Y-118699906D01*
X150540094Y-118992856D01*
X150922853Y-119151400D01*
X151337147Y-119151400D01*
X151719906Y-118992856D01*
X152012856Y-118699906D01*
X152082500Y-118531771D01*
X152152144Y-118699906D01*
X152445094Y-118992856D01*
X152827853Y-119151400D01*
X153242147Y-119151400D01*
X153624906Y-118992856D01*
X153917856Y-118699906D01*
X154076400Y-118317147D01*
X154076400Y-117902853D01*
X153917856Y-117520094D01*
X153665615Y-117267853D01*
X158343600Y-117267853D01*
X158343600Y-117682147D01*
X158502144Y-118064906D01*
X158795094Y-118357856D01*
X159177853Y-118516400D01*
X159592147Y-118516400D01*
X159628770Y-118501230D01*
X159613600Y-118537853D01*
X159613600Y-118952147D01*
X159772144Y-119334906D01*
X160065094Y-119627856D01*
X160447853Y-119786400D01*
X160862147Y-119786400D01*
X161244906Y-119627856D01*
X161537856Y-119334906D01*
X161637410Y-119094561D01*
X164935000Y-119094561D01*
X164935000Y-119665439D01*
X165153466Y-120192862D01*
X165557138Y-120596534D01*
X166084561Y-120815000D01*
X166655439Y-120815000D01*
X167182862Y-120596534D01*
X167586534Y-120192862D01*
X167640000Y-120063784D01*
X167693466Y-120192862D01*
X168097138Y-120596534D01*
X168624561Y-120815000D01*
X169195439Y-120815000D01*
X169722862Y-120596534D01*
X170025262Y-120294134D01*
X170051843Y-120427765D01*
X170192191Y-120637809D01*
X170402235Y-120778157D01*
X170650000Y-120827440D01*
X172250000Y-120827440D01*
X172497765Y-120778157D01*
X172707809Y-120637809D01*
X172848157Y-120427765D01*
X172897440Y-120180000D01*
X172897440Y-119807853D01*
X176758600Y-119807853D01*
X176758600Y-120222147D01*
X176917144Y-120604906D01*
X177210094Y-120897856D01*
X177592853Y-121056400D01*
X178007147Y-121056400D01*
X178389906Y-120897856D01*
X178682856Y-120604906D01*
X178841400Y-120222147D01*
X178841400Y-119807853D01*
X183108600Y-119807853D01*
X183108600Y-120222147D01*
X183267144Y-120604906D01*
X183560094Y-120897856D01*
X183942853Y-121056400D01*
X184357147Y-121056400D01*
X184739906Y-120897856D01*
X185032856Y-120604906D01*
X185191400Y-120222147D01*
X185191400Y-119807853D01*
X185032856Y-119425094D01*
X184739906Y-119132144D01*
X184357147Y-118973600D01*
X183942853Y-118973600D01*
X183560094Y-119132144D01*
X183267144Y-119425094D01*
X183108600Y-119807853D01*
X178841400Y-119807853D01*
X178682856Y-119425094D01*
X178389906Y-119132144D01*
X178007147Y-118973600D01*
X177592853Y-118973600D01*
X177210094Y-119132144D01*
X176917144Y-119425094D01*
X176758600Y-119807853D01*
X172897440Y-119807853D01*
X172897440Y-119682676D01*
X173147853Y-119786400D01*
X173562147Y-119786400D01*
X173944906Y-119627856D01*
X174237856Y-119334906D01*
X174396400Y-118952147D01*
X174396400Y-118617485D01*
X174397643Y-118618000D01*
X174852357Y-118618000D01*
X175272458Y-118443989D01*
X175593989Y-118122458D01*
X175768000Y-117702357D01*
X175768000Y-117267853D01*
X178028600Y-117267853D01*
X178028600Y-117682147D01*
X178187144Y-118064906D01*
X178480094Y-118357856D01*
X178862853Y-118516400D01*
X179277147Y-118516400D01*
X179659906Y-118357856D01*
X179952856Y-118064906D01*
X180111400Y-117682147D01*
X180111400Y-117267853D01*
X179952856Y-116885094D01*
X179659906Y-116592144D01*
X179277147Y-116433600D01*
X178862853Y-116433600D01*
X178480094Y-116592144D01*
X178187144Y-116885094D01*
X178028600Y-117267853D01*
X175768000Y-117267853D01*
X175768000Y-117247643D01*
X175723502Y-117140214D01*
X175849906Y-117087856D01*
X176142856Y-116794906D01*
X176301400Y-116412147D01*
X176301400Y-115997853D01*
X176142856Y-115615094D01*
X175849906Y-115322144D01*
X175467147Y-115163600D01*
X175052853Y-115163600D01*
X174670094Y-115322144D01*
X174377144Y-115615094D01*
X174218600Y-115997853D01*
X174218600Y-116406162D01*
X173977542Y-116506011D01*
X173656011Y-116827542D01*
X173482000Y-117247643D01*
X173482000Y-117702357D01*
X173482515Y-117703600D01*
X173147853Y-117703600D01*
X172765094Y-117862144D01*
X172586262Y-118040976D01*
X172497765Y-117981843D01*
X172364134Y-117955262D01*
X172666534Y-117652862D01*
X172885000Y-117125439D01*
X172885000Y-116554561D01*
X172666534Y-116027138D01*
X172262862Y-115623466D01*
X171735439Y-115405000D01*
X171164561Y-115405000D01*
X170637138Y-115623466D01*
X170233466Y-116027138D01*
X170180000Y-116156216D01*
X170126534Y-116027138D01*
X169722862Y-115623466D01*
X169195439Y-115405000D01*
X168624561Y-115405000D01*
X168097138Y-115623466D01*
X167693466Y-116027138D01*
X167536966Y-116404963D01*
X167455510Y-116208311D01*
X167266565Y-116123040D01*
X166549605Y-116840000D01*
X167266565Y-117556960D01*
X167455510Y-117471689D01*
X167529338Y-117256623D01*
X167693466Y-117652862D01*
X168097138Y-118056534D01*
X168226216Y-118110000D01*
X168097138Y-118163466D01*
X167693466Y-118567138D01*
X167640000Y-118696216D01*
X167586534Y-118567138D01*
X167182862Y-118163466D01*
X166805037Y-118006966D01*
X167001689Y-117925510D01*
X167086960Y-117736565D01*
X166370000Y-117019605D01*
X165653040Y-117736565D01*
X165738311Y-117925510D01*
X165953377Y-117999338D01*
X165557138Y-118163466D01*
X165153466Y-118567138D01*
X164935000Y-119094561D01*
X161637410Y-119094561D01*
X161696400Y-118952147D01*
X161696400Y-118537853D01*
X161537856Y-118155094D01*
X161264162Y-117881400D01*
X161497147Y-117881400D01*
X161879906Y-117722856D01*
X162172856Y-117429906D01*
X162331400Y-117047147D01*
X162331400Y-116671803D01*
X165125382Y-116671803D01*
X165155757Y-117160900D01*
X165284490Y-117471689D01*
X165473435Y-117556960D01*
X166190395Y-116840000D01*
X165473435Y-116123040D01*
X165284490Y-116208311D01*
X165125382Y-116671803D01*
X162331400Y-116671803D01*
X162331400Y-116632853D01*
X162172856Y-116250094D01*
X161879906Y-115957144D01*
X161846810Y-115943435D01*
X165653040Y-115943435D01*
X166370000Y-116660395D01*
X167086960Y-115943435D01*
X167001689Y-115754490D01*
X166538197Y-115595382D01*
X166049100Y-115625757D01*
X165738311Y-115754490D01*
X165653040Y-115943435D01*
X161846810Y-115943435D01*
X161497147Y-115798600D01*
X161082853Y-115798600D01*
X160700094Y-115957144D01*
X160407144Y-116250094D01*
X160248600Y-116632853D01*
X160248600Y-116865838D01*
X159974906Y-116592144D01*
X159592147Y-116433600D01*
X159177853Y-116433600D01*
X158795094Y-116592144D01*
X158502144Y-116885094D01*
X158343600Y-117267853D01*
X153665615Y-117267853D01*
X153624906Y-117227144D01*
X153242147Y-117068600D01*
X152827853Y-117068600D01*
X152445094Y-117227144D01*
X152152144Y-117520094D01*
X152082500Y-117688229D01*
X152012856Y-117520094D01*
X151719906Y-117227144D01*
X151337147Y-117068600D01*
X151104162Y-117068600D01*
X151377856Y-116794906D01*
X151536400Y-116412147D01*
X151536400Y-115997853D01*
X151377856Y-115615094D01*
X151084906Y-115322144D01*
X150702147Y-115163600D01*
X150287853Y-115163600D01*
X149905094Y-115322144D01*
X149612144Y-115615094D01*
X149453600Y-115997853D01*
X149453600Y-116412147D01*
X149468770Y-116448770D01*
X149432147Y-116433600D01*
X149017853Y-116433600D01*
X148929095Y-116470365D01*
X148837856Y-116250094D01*
X148544906Y-115957144D01*
X148162147Y-115798600D01*
X147747853Y-115798600D01*
X147365094Y-115957144D01*
X147072144Y-116250094D01*
X146913600Y-116632853D01*
X145592440Y-116632853D01*
X145592440Y-115405000D01*
X145543157Y-115157235D01*
X145402809Y-114947191D01*
X145192765Y-114806843D01*
X145059134Y-114780262D01*
X145361534Y-114477862D01*
X145580000Y-113950439D01*
X145580000Y-113437643D01*
X146177000Y-113437643D01*
X146177000Y-113892357D01*
X146351011Y-114312458D01*
X146672542Y-114633989D01*
X147092643Y-114808000D01*
X147547357Y-114808000D01*
X147967458Y-114633989D01*
X148288989Y-114312458D01*
X148463000Y-113892357D01*
X148463000Y-113437643D01*
X148717000Y-113437643D01*
X148717000Y-113892357D01*
X148891011Y-114312458D01*
X149212542Y-114633989D01*
X149632643Y-114808000D01*
X150087357Y-114808000D01*
X150280849Y-114727853D01*
X151358600Y-114727853D01*
X151358600Y-115142147D01*
X151517144Y-115524906D01*
X151810094Y-115817856D01*
X152192853Y-115976400D01*
X152607147Y-115976400D01*
X152989906Y-115817856D01*
X153282856Y-115524906D01*
X153441400Y-115142147D01*
X153441400Y-114727853D01*
X188188600Y-114727853D01*
X188188600Y-115142147D01*
X188347144Y-115524906D01*
X188640094Y-115817856D01*
X189022853Y-115976400D01*
X189255838Y-115976400D01*
X188982144Y-116250094D01*
X188823600Y-116632853D01*
X188823600Y-117047147D01*
X188982144Y-117429906D01*
X189255838Y-117703600D01*
X189022853Y-117703600D01*
X188640094Y-117862144D01*
X188347144Y-118155094D01*
X188188600Y-118537853D01*
X188188600Y-118952147D01*
X188347144Y-119334906D01*
X188640094Y-119627856D01*
X189022853Y-119786400D01*
X189437147Y-119786400D01*
X189819906Y-119627856D01*
X190112856Y-119334906D01*
X190271400Y-118952147D01*
X190271400Y-118537853D01*
X191998600Y-118537853D01*
X191998600Y-118952147D01*
X192157144Y-119334906D01*
X192202238Y-119380000D01*
X192157144Y-119425094D01*
X191998600Y-119807853D01*
X191998600Y-120222147D01*
X192157144Y-120604906D01*
X192450094Y-120897856D01*
X192832853Y-121056400D01*
X193247147Y-121056400D01*
X193629906Y-120897856D01*
X193922856Y-120604906D01*
X194081400Y-120222147D01*
X194081400Y-119807853D01*
X193922856Y-119425094D01*
X193877762Y-119380000D01*
X193922856Y-119334906D01*
X194081400Y-118952147D01*
X194081400Y-118537853D01*
X193922856Y-118155094D01*
X193629906Y-117862144D01*
X193247147Y-117703600D01*
X192832853Y-117703600D01*
X192450094Y-117862144D01*
X192157144Y-118155094D01*
X191998600Y-118537853D01*
X190271400Y-118537853D01*
X190112856Y-118155094D01*
X189839162Y-117881400D01*
X190072147Y-117881400D01*
X190454906Y-117722856D01*
X190747856Y-117429906D01*
X190839095Y-117209635D01*
X190927853Y-117246400D01*
X191342147Y-117246400D01*
X191724906Y-117087856D01*
X192017856Y-116794906D01*
X192084980Y-116632853D01*
X195808600Y-116632853D01*
X195808600Y-117047147D01*
X195967144Y-117429906D01*
X196260094Y-117722856D01*
X196428229Y-117792500D01*
X196260094Y-117862144D01*
X195967144Y-118155094D01*
X195808600Y-118537853D01*
X195808600Y-118952147D01*
X195967144Y-119334906D01*
X196260094Y-119627856D01*
X196386498Y-119680214D01*
X196342000Y-119787643D01*
X196342000Y-120242357D01*
X196516011Y-120662458D01*
X196837542Y-120983989D01*
X197257643Y-121158000D01*
X197712357Y-121158000D01*
X198132458Y-120983989D01*
X198453989Y-120662458D01*
X198628000Y-120242357D01*
X198628000Y-119787643D01*
X198453989Y-119367542D01*
X198132458Y-119046011D01*
X197891400Y-118946162D01*
X197891400Y-118537853D01*
X197732856Y-118155094D01*
X197439906Y-117862144D01*
X197271771Y-117792500D01*
X197439906Y-117722856D01*
X197732856Y-117429906D01*
X197891400Y-117047147D01*
X197891400Y-116632853D01*
X197732856Y-116250094D01*
X197439906Y-115957144D01*
X197057147Y-115798600D01*
X196642853Y-115798600D01*
X196260094Y-115957144D01*
X195967144Y-116250094D01*
X195808600Y-116632853D01*
X192084980Y-116632853D01*
X192176400Y-116412147D01*
X192176400Y-115997853D01*
X192017856Y-115615094D01*
X191724906Y-115322144D01*
X191342147Y-115163600D01*
X190927853Y-115163600D01*
X190545094Y-115322144D01*
X190252144Y-115615094D01*
X190160905Y-115835365D01*
X190072147Y-115798600D01*
X189839162Y-115798600D01*
X190112856Y-115524906D01*
X190271400Y-115142147D01*
X190271400Y-114727853D01*
X190112856Y-114345094D01*
X189819906Y-114052144D01*
X189437147Y-113893600D01*
X189022853Y-113893600D01*
X188640094Y-114052144D01*
X188347144Y-114345094D01*
X188188600Y-114727853D01*
X153441400Y-114727853D01*
X153282856Y-114345094D01*
X152989906Y-114052144D01*
X152607147Y-113893600D01*
X152192853Y-113893600D01*
X151810094Y-114052144D01*
X151517144Y-114345094D01*
X151358600Y-114727853D01*
X150280849Y-114727853D01*
X150507458Y-114633989D01*
X150828989Y-114312458D01*
X151003000Y-113892357D01*
X151003000Y-113437643D01*
X150828989Y-113017542D01*
X150507458Y-112696011D01*
X150087357Y-112522000D01*
X149632643Y-112522000D01*
X149212542Y-112696011D01*
X148891011Y-113017542D01*
X148717000Y-113437643D01*
X148463000Y-113437643D01*
X148288989Y-113017542D01*
X147967458Y-112696011D01*
X147547357Y-112522000D01*
X147092643Y-112522000D01*
X146672542Y-112696011D01*
X146351011Y-113017542D01*
X146177000Y-113437643D01*
X145580000Y-113437643D01*
X145580000Y-113379561D01*
X145361534Y-112852138D01*
X144957862Y-112448466D01*
X144828784Y-112395000D01*
X144957862Y-112341534D01*
X145131753Y-112167643D01*
X153162000Y-112167643D01*
X153162000Y-112622357D01*
X153336011Y-113042458D01*
X153657542Y-113363989D01*
X154077643Y-113538000D01*
X154532357Y-113538000D01*
X154952458Y-113363989D01*
X155273989Y-113042458D01*
X155364952Y-112822853D01*
X171043600Y-112822853D01*
X171043600Y-113237147D01*
X171202144Y-113619906D01*
X171495094Y-113912856D01*
X171877853Y-114071400D01*
X172292147Y-114071400D01*
X172674906Y-113912856D01*
X172967856Y-113619906D01*
X173034980Y-113457853D01*
X191998600Y-113457853D01*
X191998600Y-113872147D01*
X192157144Y-114254906D01*
X192450094Y-114547856D01*
X192832853Y-114706400D01*
X193247147Y-114706400D01*
X193629906Y-114547856D01*
X193903600Y-114274162D01*
X193903600Y-114507147D01*
X194062144Y-114889906D01*
X194355094Y-115182856D01*
X194737853Y-115341400D01*
X195152147Y-115341400D01*
X195534906Y-115182856D01*
X195827856Y-114889906D01*
X195986400Y-114507147D01*
X195986400Y-114092853D01*
X195827856Y-113710094D01*
X195534906Y-113417144D01*
X195152147Y-113258600D01*
X194737853Y-113258600D01*
X194355094Y-113417144D01*
X194081400Y-113690838D01*
X194081400Y-113457853D01*
X193922856Y-113075094D01*
X193629906Y-112782144D01*
X193247147Y-112623600D01*
X192832853Y-112623600D01*
X192450094Y-112782144D01*
X192157144Y-113075094D01*
X191998600Y-113457853D01*
X173034980Y-113457853D01*
X173126400Y-113237147D01*
X173126400Y-112822853D01*
X172967856Y-112440094D01*
X172674906Y-112147144D01*
X172292147Y-111988600D01*
X171877853Y-111988600D01*
X171495094Y-112147144D01*
X171202144Y-112440094D01*
X171043600Y-112822853D01*
X155364952Y-112822853D01*
X155448000Y-112622357D01*
X155448000Y-112167643D01*
X155273989Y-111747542D01*
X154952458Y-111426011D01*
X154532357Y-111252000D01*
X154077643Y-111252000D01*
X153657542Y-111426011D01*
X153336011Y-111747542D01*
X153162000Y-112167643D01*
X145131753Y-112167643D01*
X145361534Y-111937862D01*
X145580000Y-111410439D01*
X145580000Y-110917853D01*
X147548600Y-110917853D01*
X147548600Y-111332147D01*
X147707144Y-111714906D01*
X148000094Y-112007856D01*
X148382853Y-112166400D01*
X148797147Y-112166400D01*
X149179906Y-112007856D01*
X149472856Y-111714906D01*
X149631400Y-111332147D01*
X149631400Y-110917853D01*
X149472856Y-110535094D01*
X149179906Y-110242144D01*
X148797147Y-110083600D01*
X148382853Y-110083600D01*
X148000094Y-110242144D01*
X147707144Y-110535094D01*
X147548600Y-110917853D01*
X145580000Y-110917853D01*
X145580000Y-110839561D01*
X145361534Y-110312138D01*
X144957862Y-109908466D01*
X144828784Y-109855000D01*
X144957862Y-109801534D01*
X145111543Y-109647853D01*
X150088600Y-109647853D01*
X150088600Y-110062147D01*
X150247144Y-110444906D01*
X150540094Y-110737856D01*
X150922853Y-110896400D01*
X151337147Y-110896400D01*
X151719906Y-110737856D01*
X152012856Y-110444906D01*
X152079980Y-110282853D01*
X157073600Y-110282853D01*
X157073600Y-110697147D01*
X157232144Y-111079906D01*
X157525094Y-111372856D01*
X157907853Y-111531400D01*
X158322147Y-111531400D01*
X158704906Y-111372856D01*
X158997856Y-111079906D01*
X159064980Y-110917853D01*
X160248600Y-110917853D01*
X160248600Y-111332147D01*
X160407144Y-111714906D01*
X160700094Y-112007856D01*
X161082853Y-112166400D01*
X161497147Y-112166400D01*
X161879906Y-112007856D01*
X162172856Y-111714906D01*
X162187514Y-111679518D01*
X162226011Y-111772458D01*
X162547542Y-112093989D01*
X162967643Y-112268000D01*
X163422357Y-112268000D01*
X163842458Y-112093989D01*
X164163989Y-111772458D01*
X164338000Y-111352357D01*
X164338000Y-110917853D01*
X164693600Y-110917853D01*
X164693600Y-111332147D01*
X164852144Y-111714906D01*
X165145094Y-112007856D01*
X165527853Y-112166400D01*
X165942147Y-112166400D01*
X166324906Y-112007856D01*
X166617856Y-111714906D01*
X166776400Y-111332147D01*
X166776400Y-110917853D01*
X166617856Y-110535094D01*
X166324906Y-110242144D01*
X165942147Y-110083600D01*
X165527853Y-110083600D01*
X165145094Y-110242144D01*
X164852144Y-110535094D01*
X164693600Y-110917853D01*
X164338000Y-110917853D01*
X164338000Y-110897643D01*
X164163989Y-110477542D01*
X163842458Y-110156011D01*
X163422357Y-109982000D01*
X162967643Y-109982000D01*
X162547542Y-110156011D01*
X162226011Y-110477542D01*
X162187514Y-110570482D01*
X162172856Y-110535094D01*
X161879906Y-110242144D01*
X161497147Y-110083600D01*
X161082853Y-110083600D01*
X160700094Y-110242144D01*
X160407144Y-110535094D01*
X160248600Y-110917853D01*
X159064980Y-110917853D01*
X159156400Y-110697147D01*
X159156400Y-110282853D01*
X158997856Y-109900094D01*
X158704906Y-109607144D01*
X158322147Y-109448600D01*
X157907853Y-109448600D01*
X157525094Y-109607144D01*
X157232144Y-109900094D01*
X157073600Y-110282853D01*
X152079980Y-110282853D01*
X152104095Y-110224635D01*
X152192853Y-110261400D01*
X152607147Y-110261400D01*
X152989906Y-110102856D01*
X153282856Y-109809906D01*
X153441400Y-109427147D01*
X153441400Y-109012853D01*
X168503600Y-109012853D01*
X168503600Y-109427147D01*
X168662144Y-109809906D01*
X168955094Y-110102856D01*
X169337853Y-110261400D01*
X169550537Y-110261400D01*
X169423600Y-110567853D01*
X169423600Y-110982147D01*
X169582144Y-111364906D01*
X169875094Y-111657856D01*
X170257853Y-111816400D01*
X170672147Y-111816400D01*
X171054906Y-111657856D01*
X171347856Y-111364906D01*
X171506400Y-110982147D01*
X171506400Y-110567853D01*
X171347856Y-110185094D01*
X171054906Y-109892144D01*
X170672147Y-109733600D01*
X170459463Y-109733600D01*
X170494980Y-109647853D01*
X186283600Y-109647853D01*
X186283600Y-110062147D01*
X186442144Y-110444906D01*
X186487238Y-110490000D01*
X186442144Y-110535094D01*
X186283600Y-110917853D01*
X186283600Y-111332147D01*
X186442144Y-111714906D01*
X186735094Y-112007856D01*
X187117853Y-112166400D01*
X187532147Y-112166400D01*
X187568770Y-112151230D01*
X187553600Y-112187853D01*
X187553600Y-112602147D01*
X187712144Y-112984906D01*
X188005094Y-113277856D01*
X188387853Y-113436400D01*
X188802147Y-113436400D01*
X189184906Y-113277856D01*
X189477856Y-112984906D01*
X189636400Y-112602147D01*
X189636400Y-112187853D01*
X189477856Y-111805094D01*
X189184906Y-111512144D01*
X188802147Y-111353600D01*
X188387853Y-111353600D01*
X188351230Y-111368770D01*
X188366400Y-111332147D01*
X188366400Y-110917853D01*
X200888574Y-110917853D01*
X200888574Y-111332147D01*
X201047118Y-111714906D01*
X201340068Y-112007856D01*
X201722827Y-112166400D01*
X202137121Y-112166400D01*
X202519880Y-112007856D01*
X202812830Y-111714906D01*
X202971374Y-111332147D01*
X202971374Y-110917853D01*
X202812830Y-110535094D01*
X202519880Y-110242144D01*
X202137121Y-110083600D01*
X201722827Y-110083600D01*
X201340068Y-110242144D01*
X201047118Y-110535094D01*
X200888574Y-110917853D01*
X188366400Y-110917853D01*
X188207856Y-110535094D01*
X188162762Y-110490000D01*
X188207856Y-110444906D01*
X188366400Y-110062147D01*
X188366400Y-109647853D01*
X188207856Y-109265094D01*
X187914906Y-108972144D01*
X187532147Y-108813600D01*
X187117853Y-108813600D01*
X186735094Y-108972144D01*
X186442144Y-109265094D01*
X186283600Y-109647853D01*
X170494980Y-109647853D01*
X170586400Y-109427147D01*
X170586400Y-109092485D01*
X170587643Y-109093000D01*
X171042357Y-109093000D01*
X171462458Y-108918989D01*
X171783989Y-108597458D01*
X171958000Y-108177357D01*
X171958000Y-107722643D01*
X171783989Y-107302542D01*
X171462458Y-106981011D01*
X171042357Y-106807000D01*
X170587643Y-106807000D01*
X170167542Y-106981011D01*
X169846011Y-107302542D01*
X169672000Y-107722643D01*
X169672000Y-108177357D01*
X169672515Y-108178600D01*
X169337853Y-108178600D01*
X168955094Y-108337144D01*
X168662144Y-108630094D01*
X168503600Y-109012853D01*
X153441400Y-109012853D01*
X153282856Y-108630094D01*
X152989906Y-108337144D01*
X152607147Y-108178600D01*
X152192853Y-108178600D01*
X151810094Y-108337144D01*
X151517144Y-108630094D01*
X151425905Y-108850365D01*
X151337147Y-108813600D01*
X150922853Y-108813600D01*
X150540094Y-108972144D01*
X150247144Y-109265094D01*
X150088600Y-109647853D01*
X145111543Y-109647853D01*
X145361534Y-109397862D01*
X145580000Y-108870439D01*
X145580000Y-108299561D01*
X145361534Y-107772138D01*
X144957862Y-107368466D01*
X144828784Y-107315000D01*
X144957862Y-107261534D01*
X145361534Y-106857862D01*
X145580000Y-106330439D01*
X145580000Y-105759561D01*
X145361534Y-105232138D01*
X144957862Y-104828466D01*
X144828784Y-104775000D01*
X144957862Y-104721534D01*
X145111543Y-104567853D01*
X158343600Y-104567853D01*
X158343600Y-104982147D01*
X158502144Y-105364906D01*
X158795094Y-105657856D01*
X159177853Y-105816400D01*
X159592147Y-105816400D01*
X159974906Y-105657856D01*
X160267856Y-105364906D01*
X160334980Y-105202853D01*
X163423600Y-105202853D01*
X163423600Y-105617147D01*
X163582144Y-105999906D01*
X163875094Y-106292856D01*
X164257853Y-106451400D01*
X164672147Y-106451400D01*
X165054906Y-106292856D01*
X165347856Y-105999906D01*
X165414980Y-105837853D01*
X168503600Y-105837853D01*
X168503600Y-106252147D01*
X168662144Y-106634906D01*
X168955094Y-106927856D01*
X169337853Y-107086400D01*
X169752147Y-107086400D01*
X170134906Y-106927856D01*
X170427856Y-106634906D01*
X170586400Y-106252147D01*
X170586400Y-105837853D01*
X170571230Y-105801230D01*
X170607853Y-105816400D01*
X171022147Y-105816400D01*
X171404906Y-105657856D01*
X171697856Y-105364906D01*
X171856400Y-104982147D01*
X171856400Y-104567853D01*
X171697856Y-104185094D01*
X171652762Y-104140000D01*
X171697856Y-104094906D01*
X171856400Y-103712147D01*
X171856400Y-103297853D01*
X171697856Y-102915094D01*
X171445615Y-102662853D01*
X173583600Y-102662853D01*
X173583600Y-103077147D01*
X173742144Y-103459906D01*
X173787238Y-103505000D01*
X173742144Y-103550094D01*
X173583600Y-103932853D01*
X173583600Y-104347147D01*
X173742144Y-104729906D01*
X173787238Y-104775000D01*
X173742144Y-104820094D01*
X173583600Y-105202853D01*
X173583600Y-105617147D01*
X173742144Y-105999906D01*
X174035094Y-106292856D01*
X174417853Y-106451400D01*
X174832147Y-106451400D01*
X175214906Y-106292856D01*
X175507856Y-105999906D01*
X175666400Y-105617147D01*
X175666400Y-105202853D01*
X175507856Y-104820094D01*
X175462762Y-104775000D01*
X175507856Y-104729906D01*
X175666400Y-104347147D01*
X175666400Y-103932853D01*
X175653844Y-103902538D01*
X189306200Y-103902538D01*
X189306200Y-104377462D01*
X189487945Y-104816233D01*
X189823767Y-105152055D01*
X190262538Y-105333800D01*
X190737462Y-105333800D01*
X191176233Y-105152055D01*
X191512055Y-104816233D01*
X191693800Y-104377462D01*
X191693800Y-104266562D01*
X191815094Y-104387856D01*
X192197853Y-104546400D01*
X192612147Y-104546400D01*
X192700905Y-104509635D01*
X192792144Y-104729906D01*
X193085094Y-105022856D01*
X193467853Y-105181400D01*
X193882147Y-105181400D01*
X194264906Y-105022856D01*
X194539705Y-104748057D01*
X194567945Y-104816233D01*
X194903767Y-105152055D01*
X195342538Y-105333800D01*
X195817462Y-105333800D01*
X196256233Y-105152055D01*
X196592055Y-104816233D01*
X196773800Y-104377462D01*
X196773800Y-103902538D01*
X196592055Y-103463767D01*
X196256233Y-103127945D01*
X195817462Y-102946200D01*
X195342538Y-102946200D01*
X194903767Y-103127945D01*
X194567945Y-103463767D01*
X194539705Y-103531943D01*
X194264906Y-103257144D01*
X193882147Y-103098600D01*
X193467853Y-103098600D01*
X193379095Y-103135365D01*
X193287856Y-102915094D01*
X193035615Y-102662853D01*
X197713600Y-102662853D01*
X197713600Y-103077147D01*
X197872144Y-103459906D01*
X197917238Y-103505000D01*
X197872144Y-103550094D01*
X197713600Y-103932853D01*
X197713600Y-104347147D01*
X197872144Y-104729906D01*
X198165094Y-105022856D01*
X198547853Y-105181400D01*
X198962147Y-105181400D01*
X199344906Y-105022856D01*
X199390000Y-104977762D01*
X199435094Y-105022856D01*
X199817853Y-105181400D01*
X200232147Y-105181400D01*
X200614906Y-105022856D01*
X200907856Y-104729906D01*
X201066400Y-104347147D01*
X201066400Y-103932853D01*
X200907856Y-103550094D01*
X200655615Y-103297853D01*
X204063600Y-103297853D01*
X204063600Y-103712147D01*
X204222144Y-104094906D01*
X204515094Y-104387856D01*
X204897853Y-104546400D01*
X205312147Y-104546400D01*
X205694906Y-104387856D01*
X205987856Y-104094906D01*
X206146400Y-103712147D01*
X206146400Y-103297853D01*
X205987856Y-102915094D01*
X205694906Y-102622144D01*
X205312147Y-102463600D01*
X204897853Y-102463600D01*
X204515094Y-102622144D01*
X204222144Y-102915094D01*
X204063600Y-103297853D01*
X200655615Y-103297853D01*
X200614906Y-103257144D01*
X200232147Y-103098600D01*
X199817853Y-103098600D01*
X199781230Y-103113770D01*
X199796400Y-103077147D01*
X199796400Y-102662853D01*
X199637856Y-102280094D01*
X199344906Y-101987144D01*
X198962147Y-101828600D01*
X198547853Y-101828600D01*
X198165094Y-101987144D01*
X197872144Y-102280094D01*
X197713600Y-102662853D01*
X193035615Y-102662853D01*
X192994906Y-102622144D01*
X192612147Y-102463600D01*
X192197853Y-102463600D01*
X191815094Y-102622144D01*
X191522144Y-102915094D01*
X191363600Y-103297853D01*
X191363600Y-103315312D01*
X191176233Y-103127945D01*
X190737462Y-102946200D01*
X190262538Y-102946200D01*
X189823767Y-103127945D01*
X189487945Y-103463767D01*
X189306200Y-103902538D01*
X175653844Y-103902538D01*
X175507856Y-103550094D01*
X175462762Y-103505000D01*
X175507856Y-103459906D01*
X175666400Y-103077147D01*
X175666400Y-102662853D01*
X175507856Y-102280094D01*
X175214906Y-101987144D01*
X174832147Y-101828600D01*
X174417853Y-101828600D01*
X174035094Y-101987144D01*
X173742144Y-102280094D01*
X173583600Y-102662853D01*
X171445615Y-102662853D01*
X171404906Y-102622144D01*
X171022147Y-102463600D01*
X170607853Y-102463600D01*
X170225094Y-102622144D01*
X169932144Y-102915094D01*
X169773600Y-103297853D01*
X169773600Y-103712147D01*
X169932144Y-104094906D01*
X169977238Y-104140000D01*
X169932144Y-104185094D01*
X169773600Y-104567853D01*
X169773600Y-104982147D01*
X169788770Y-105018770D01*
X169752147Y-105003600D01*
X169337853Y-105003600D01*
X168955094Y-105162144D01*
X168662144Y-105455094D01*
X168503600Y-105837853D01*
X165414980Y-105837853D01*
X165506400Y-105617147D01*
X165506400Y-105202853D01*
X165347856Y-104820094D01*
X165054906Y-104527144D01*
X164672147Y-104368600D01*
X164257853Y-104368600D01*
X163875094Y-104527144D01*
X163582144Y-104820094D01*
X163423600Y-105202853D01*
X160334980Y-105202853D01*
X160426400Y-104982147D01*
X160426400Y-104567853D01*
X160389635Y-104479095D01*
X160609906Y-104387856D01*
X160902856Y-104094906D01*
X161061400Y-103712147D01*
X161061400Y-103297853D01*
X166598600Y-103297853D01*
X166598600Y-103712147D01*
X166757144Y-104094906D01*
X167050094Y-104387856D01*
X167432853Y-104546400D01*
X167847147Y-104546400D01*
X168229906Y-104387856D01*
X168522856Y-104094906D01*
X168681400Y-103712147D01*
X168681400Y-103297853D01*
X168666230Y-103261230D01*
X168702853Y-103276400D01*
X169117147Y-103276400D01*
X169499906Y-103117856D01*
X169792856Y-102824906D01*
X169951400Y-102442147D01*
X169951400Y-102027853D01*
X169792856Y-101645094D01*
X169747762Y-101600000D01*
X169792856Y-101554906D01*
X169951400Y-101172147D01*
X169951400Y-100757853D01*
X169792856Y-100375094D01*
X169550912Y-100133150D01*
X192815600Y-100133150D01*
X192815600Y-101834090D01*
X192881337Y-101992795D01*
X193002805Y-102114262D01*
X193161509Y-102180000D01*
X194862450Y-102180000D01*
X194970400Y-102072050D01*
X194970400Y-100025200D01*
X195224400Y-100025200D01*
X195224400Y-102072050D01*
X195332350Y-102180000D01*
X197033291Y-102180000D01*
X197191995Y-102114262D01*
X197313463Y-101992795D01*
X197379200Y-101834090D01*
X197379200Y-100133150D01*
X197271250Y-100025200D01*
X195224400Y-100025200D01*
X194970400Y-100025200D01*
X192923550Y-100025200D01*
X192815600Y-100133150D01*
X169550912Y-100133150D01*
X169499906Y-100082144D01*
X169117147Y-99923600D01*
X168702853Y-99923600D01*
X168320094Y-100082144D01*
X168027144Y-100375094D01*
X167868600Y-100757853D01*
X167868600Y-101172147D01*
X168027144Y-101554906D01*
X168072238Y-101600000D01*
X168027144Y-101645094D01*
X167868600Y-102027853D01*
X167868600Y-102442147D01*
X167883770Y-102478770D01*
X167847147Y-102463600D01*
X167432853Y-102463600D01*
X167050094Y-102622144D01*
X166757144Y-102915094D01*
X166598600Y-103297853D01*
X161061400Y-103297853D01*
X161024635Y-103209095D01*
X161244906Y-103117856D01*
X161537856Y-102824906D01*
X161696400Y-102442147D01*
X161696400Y-102027853D01*
X161681230Y-101991230D01*
X161717853Y-102006400D01*
X162132147Y-102006400D01*
X162514906Y-101847856D01*
X162807856Y-101554906D01*
X162966400Y-101172147D01*
X162966400Y-100757853D01*
X162951230Y-100721230D01*
X162987853Y-100736400D01*
X163402147Y-100736400D01*
X163784906Y-100577856D01*
X163830000Y-100532762D01*
X163875094Y-100577856D01*
X164257853Y-100736400D01*
X164672147Y-100736400D01*
X164708770Y-100721230D01*
X164693600Y-100757853D01*
X164693600Y-101172147D01*
X164852144Y-101554906D01*
X165145094Y-101847856D01*
X165527853Y-102006400D01*
X165942147Y-102006400D01*
X166324906Y-101847856D01*
X166617856Y-101554906D01*
X166776400Y-101172147D01*
X166776400Y-100757853D01*
X166617856Y-100375094D01*
X166324906Y-100082144D01*
X165942147Y-99923600D01*
X165527853Y-99923600D01*
X165491230Y-99938770D01*
X165506400Y-99902147D01*
X165506400Y-99487853D01*
X165469635Y-99399095D01*
X165689906Y-99307856D01*
X165982856Y-99014906D01*
X166141400Y-98632147D01*
X166141400Y-98217853D01*
X165982856Y-97835094D01*
X165730615Y-97582853D01*
X171043600Y-97582853D01*
X171043600Y-97997147D01*
X171202144Y-98379906D01*
X171495094Y-98672856D01*
X171877853Y-98831400D01*
X172292147Y-98831400D01*
X172674906Y-98672856D01*
X172967856Y-98379906D01*
X173126400Y-97997147D01*
X173126400Y-97582853D01*
X172967856Y-97200094D01*
X172715615Y-96947853D01*
X182473600Y-96947853D01*
X182473600Y-97362147D01*
X182632144Y-97744906D01*
X182925094Y-98037856D01*
X183307853Y-98196400D01*
X183722147Y-98196400D01*
X184104906Y-98037856D01*
X184180452Y-97962310D01*
X192815600Y-97962310D01*
X192815600Y-99663250D01*
X192923550Y-99771200D01*
X194970400Y-99771200D01*
X194970400Y-97724350D01*
X195224400Y-97724350D01*
X195224400Y-99771200D01*
X197271250Y-99771200D01*
X197379200Y-99663250D01*
X197379200Y-97962310D01*
X197313463Y-97803605D01*
X197191995Y-97682138D01*
X197033291Y-97616400D01*
X195332350Y-97616400D01*
X195224400Y-97724350D01*
X194970400Y-97724350D01*
X194862450Y-97616400D01*
X193161509Y-97616400D01*
X193002805Y-97682138D01*
X192881337Y-97803605D01*
X192815600Y-97962310D01*
X184180452Y-97962310D01*
X184397856Y-97744906D01*
X184556400Y-97362147D01*
X184556400Y-96947853D01*
X184397856Y-96565094D01*
X184104906Y-96272144D01*
X183722147Y-96113600D01*
X183307853Y-96113600D01*
X182925094Y-96272144D01*
X182632144Y-96565094D01*
X182473600Y-96947853D01*
X172715615Y-96947853D01*
X172674906Y-96907144D01*
X172292147Y-96748600D01*
X171877853Y-96748600D01*
X171495094Y-96907144D01*
X171202144Y-97200094D01*
X171043600Y-97582853D01*
X165730615Y-97582853D01*
X165689906Y-97542144D01*
X165307147Y-97383600D01*
X164892853Y-97383600D01*
X164510094Y-97542144D01*
X164217144Y-97835094D01*
X164058600Y-98217853D01*
X164058600Y-98632147D01*
X164095365Y-98720905D01*
X163875094Y-98812144D01*
X163830000Y-98857238D01*
X163784906Y-98812144D01*
X163402147Y-98653600D01*
X162987853Y-98653600D01*
X162605094Y-98812144D01*
X162312144Y-99105094D01*
X162153600Y-99487853D01*
X162153600Y-99902147D01*
X162168770Y-99938770D01*
X162132147Y-99923600D01*
X161717853Y-99923600D01*
X161335094Y-100082144D01*
X161290000Y-100127238D01*
X161244906Y-100082144D01*
X160862147Y-99923600D01*
X160447853Y-99923600D01*
X160065094Y-100082144D01*
X159772144Y-100375094D01*
X159613600Y-100757853D01*
X159613600Y-101172147D01*
X159772144Y-101554906D01*
X159817238Y-101600000D01*
X159772144Y-101645094D01*
X159613600Y-102027853D01*
X159613600Y-102442147D01*
X159650365Y-102530905D01*
X159430094Y-102622144D01*
X159137144Y-102915094D01*
X158978600Y-103297853D01*
X158978600Y-103712147D01*
X159015365Y-103800905D01*
X158795094Y-103892144D01*
X158502144Y-104185094D01*
X158343600Y-104567853D01*
X145111543Y-104567853D01*
X145361534Y-104317862D01*
X145580000Y-103790439D01*
X145580000Y-103219561D01*
X145361534Y-102692138D01*
X144957862Y-102288466D01*
X144828784Y-102235000D01*
X144957862Y-102181534D01*
X145361534Y-101777862D01*
X145521010Y-101392853D01*
X146278600Y-101392853D01*
X146278600Y-101807147D01*
X146437144Y-102189906D01*
X146730094Y-102482856D01*
X147112853Y-102641400D01*
X147527147Y-102641400D01*
X147909906Y-102482856D01*
X147955000Y-102437762D01*
X148000094Y-102482856D01*
X148382853Y-102641400D01*
X148797147Y-102641400D01*
X149179906Y-102482856D01*
X149472856Y-102189906D01*
X149631400Y-101807147D01*
X149631400Y-101392853D01*
X150723600Y-101392853D01*
X150723600Y-101807147D01*
X150882144Y-102189906D01*
X151175094Y-102482856D01*
X151557853Y-102641400D01*
X151972147Y-102641400D01*
X152354906Y-102482856D01*
X152647856Y-102189906D01*
X152806400Y-101807147D01*
X152806400Y-101392853D01*
X152647856Y-101010094D01*
X152354906Y-100717144D01*
X151972147Y-100558600D01*
X151557853Y-100558600D01*
X151175094Y-100717144D01*
X150882144Y-101010094D01*
X150723600Y-101392853D01*
X149631400Y-101392853D01*
X149472856Y-101010094D01*
X149179906Y-100717144D01*
X148797147Y-100558600D01*
X148382853Y-100558600D01*
X148000094Y-100717144D01*
X147955000Y-100762238D01*
X147909906Y-100717144D01*
X147527147Y-100558600D01*
X147112853Y-100558600D01*
X146730094Y-100717144D01*
X146437144Y-101010094D01*
X146278600Y-101392853D01*
X145521010Y-101392853D01*
X145580000Y-101250439D01*
X145580000Y-100736400D01*
X145622147Y-100736400D01*
X146004906Y-100577856D01*
X146297856Y-100284906D01*
X146456400Y-99902147D01*
X146456400Y-99487853D01*
X146297856Y-99105094D01*
X146004906Y-98812144D01*
X145622147Y-98653600D01*
X145580000Y-98653600D01*
X145580000Y-98139561D01*
X145361534Y-97612138D01*
X145332249Y-97582853D01*
X146278600Y-97582853D01*
X146278600Y-97997147D01*
X146437144Y-98379906D01*
X146730094Y-98672856D01*
X147112853Y-98831400D01*
X147527147Y-98831400D01*
X147909906Y-98672856D01*
X148183600Y-98399162D01*
X148183600Y-98632147D01*
X148342144Y-99014906D01*
X148635094Y-99307856D01*
X149017853Y-99466400D01*
X149432147Y-99466400D01*
X149814906Y-99307856D01*
X149860000Y-99262762D01*
X149905094Y-99307856D01*
X150287853Y-99466400D01*
X150702147Y-99466400D01*
X150790905Y-99429635D01*
X150882144Y-99649906D01*
X151175094Y-99942856D01*
X151557853Y-100101400D01*
X151972147Y-100101400D01*
X152354906Y-99942856D01*
X152647856Y-99649906D01*
X152806400Y-99267147D01*
X152806400Y-98852853D01*
X152647856Y-98470094D01*
X152375405Y-98197643D01*
X153162000Y-98197643D01*
X153162000Y-98652357D01*
X153336011Y-99072458D01*
X153657542Y-99393989D01*
X154077643Y-99568000D01*
X154532357Y-99568000D01*
X154725849Y-99487853D01*
X157073600Y-99487853D01*
X157073600Y-99902147D01*
X157232144Y-100284906D01*
X157525094Y-100577856D01*
X157907853Y-100736400D01*
X158322147Y-100736400D01*
X158704906Y-100577856D01*
X158997856Y-100284906D01*
X159156400Y-99902147D01*
X159156400Y-99487853D01*
X158997856Y-99105094D01*
X158704906Y-98812144D01*
X158322147Y-98653600D01*
X157907853Y-98653600D01*
X157525094Y-98812144D01*
X157232144Y-99105094D01*
X157073600Y-99487853D01*
X154725849Y-99487853D01*
X154952458Y-99393989D01*
X155273989Y-99072458D01*
X155448000Y-98652357D01*
X155448000Y-98197643D01*
X155273989Y-97777542D01*
X154952458Y-97456011D01*
X154532357Y-97282000D01*
X154077643Y-97282000D01*
X153657542Y-97456011D01*
X153336011Y-97777542D01*
X153162000Y-98197643D01*
X152375405Y-98197643D01*
X152354906Y-98177144D01*
X151972147Y-98018600D01*
X151557853Y-98018600D01*
X151469095Y-98055365D01*
X151377856Y-97835094D01*
X151084906Y-97542144D01*
X150702147Y-97383600D01*
X150287853Y-97383600D01*
X149905094Y-97542144D01*
X149860000Y-97587238D01*
X149814906Y-97542144D01*
X149432147Y-97383600D01*
X149017853Y-97383600D01*
X148635094Y-97542144D01*
X148361400Y-97815838D01*
X148361400Y-97582853D01*
X148202856Y-97200094D01*
X147909906Y-96907144D01*
X147527147Y-96748600D01*
X147112853Y-96748600D01*
X146730094Y-96907144D01*
X146437144Y-97200094D01*
X146278600Y-97582853D01*
X145332249Y-97582853D01*
X144957862Y-97208466D01*
X144430439Y-96990000D01*
X143859561Y-96990000D01*
X143332138Y-97208466D01*
X142928466Y-97612138D01*
X142875000Y-97741216D01*
X142821534Y-97612138D01*
X142417862Y-97208466D01*
X141890439Y-96990000D01*
X141319561Y-96990000D01*
X140792138Y-97208466D01*
X140388466Y-97612138D01*
X140170000Y-98139561D01*
X139205728Y-98139561D01*
X139242440Y-97955000D01*
X139242440Y-96355000D01*
X139193157Y-96107235D01*
X139052809Y-95897191D01*
X138842765Y-95756843D01*
X138595000Y-95707560D01*
X136995000Y-95707560D01*
X136747235Y-95756843D01*
X136652000Y-95820477D01*
X136652000Y-92482643D01*
X145542000Y-92482643D01*
X145542000Y-92937357D01*
X145716011Y-93357458D01*
X146037542Y-93678989D01*
X146457643Y-93853000D01*
X146912357Y-93853000D01*
X147105849Y-93772853D01*
X148818600Y-93772853D01*
X148818600Y-94187147D01*
X148977144Y-94569906D01*
X149270094Y-94862856D01*
X149652853Y-95021400D01*
X150067147Y-95021400D01*
X150449906Y-94862856D01*
X150742856Y-94569906D01*
X150901400Y-94187147D01*
X150901400Y-94097847D01*
X151117542Y-94313989D01*
X151537643Y-94488000D01*
X151892000Y-94488000D01*
X151892000Y-94842357D01*
X152066011Y-95262458D01*
X152387542Y-95583989D01*
X152807643Y-95758000D01*
X153262357Y-95758000D01*
X153682458Y-95583989D01*
X154003989Y-95262458D01*
X154094952Y-95042853D01*
X155168600Y-95042853D01*
X155168600Y-95457147D01*
X155327144Y-95839906D01*
X155620094Y-96132856D01*
X156002853Y-96291400D01*
X156417147Y-96291400D01*
X156799906Y-96132856D01*
X156845000Y-96087762D01*
X156890094Y-96132856D01*
X157272853Y-96291400D01*
X157687147Y-96291400D01*
X158069906Y-96132856D01*
X158362856Y-95839906D01*
X158521400Y-95457147D01*
X158521400Y-95042853D01*
X158506230Y-95006230D01*
X158542853Y-95021400D01*
X158957147Y-95021400D01*
X159339906Y-94862856D01*
X159632856Y-94569906D01*
X159791400Y-94187147D01*
X159791400Y-93772853D01*
X159632856Y-93390094D01*
X159339906Y-93097144D01*
X158957147Y-92938600D01*
X158542853Y-92938600D01*
X158160094Y-93097144D01*
X158115000Y-93142238D01*
X158069906Y-93097144D01*
X157687147Y-92938600D01*
X157272853Y-92938600D01*
X156890094Y-93097144D01*
X156597144Y-93390094D01*
X156438600Y-93772853D01*
X156438600Y-94187147D01*
X156453770Y-94223770D01*
X156417147Y-94208600D01*
X156002853Y-94208600D01*
X155620094Y-94367144D01*
X155327144Y-94660094D01*
X155168600Y-95042853D01*
X154094952Y-95042853D01*
X154178000Y-94842357D01*
X154178000Y-94387643D01*
X154003989Y-93967542D01*
X153682458Y-93646011D01*
X153262357Y-93472000D01*
X152908000Y-93472000D01*
X152908000Y-93117643D01*
X152733989Y-92697542D01*
X152412458Y-92376011D01*
X151992357Y-92202000D01*
X151537643Y-92202000D01*
X151117542Y-92376011D01*
X150796011Y-92697542D01*
X150622000Y-93117643D01*
X150622000Y-93269238D01*
X150449906Y-93097144D01*
X150067147Y-92938600D01*
X149652853Y-92938600D01*
X149270094Y-93097144D01*
X148977144Y-93390094D01*
X148818600Y-93772853D01*
X147105849Y-93772853D01*
X147332458Y-93678989D01*
X147653989Y-93357458D01*
X147828000Y-92937357D01*
X147828000Y-92482643D01*
X147653989Y-92062542D01*
X147459300Y-91867853D01*
X166598600Y-91867853D01*
X166598600Y-92282147D01*
X166757144Y-92664906D01*
X167050094Y-92957856D01*
X167176498Y-93010214D01*
X167132000Y-93117643D01*
X167132000Y-93572357D01*
X167306011Y-93992458D01*
X167376475Y-94062922D01*
X167233600Y-94407853D01*
X167233600Y-94822147D01*
X167392144Y-95204906D01*
X167685094Y-95497856D01*
X168067853Y-95656400D01*
X168482147Y-95656400D01*
X168864906Y-95497856D01*
X169157856Y-95204906D01*
X169316400Y-94822147D01*
X169316400Y-94407853D01*
X169173525Y-94062922D01*
X169243989Y-93992458D01*
X169418000Y-93572357D01*
X169418000Y-93117643D01*
X169243989Y-92697542D01*
X168922458Y-92376011D01*
X168681400Y-92276162D01*
X168681400Y-91867853D01*
X168673029Y-91847643D01*
X172847000Y-91847643D01*
X172847000Y-92302357D01*
X173015851Y-92710000D01*
X172847000Y-93117643D01*
X172847000Y-93572357D01*
X173015851Y-93980000D01*
X172847000Y-94387643D01*
X172847000Y-94842357D01*
X173021011Y-95262458D01*
X173342542Y-95583989D01*
X173762643Y-95758000D01*
X174217357Y-95758000D01*
X174637458Y-95583989D01*
X174958989Y-95262458D01*
X175133000Y-94842357D01*
X175133000Y-94387643D01*
X174964149Y-93980000D01*
X175133000Y-93572357D01*
X175133000Y-93117643D01*
X174964149Y-92710000D01*
X175133000Y-92302357D01*
X175133000Y-91847643D01*
X174958989Y-91427542D01*
X174637458Y-91106011D01*
X174217357Y-90932000D01*
X173762643Y-90932000D01*
X173342542Y-91106011D01*
X173021011Y-91427542D01*
X172847000Y-91847643D01*
X168673029Y-91847643D01*
X168522856Y-91485094D01*
X168229906Y-91192144D01*
X167847147Y-91033600D01*
X167432853Y-91033600D01*
X167050094Y-91192144D01*
X166757144Y-91485094D01*
X166598600Y-91867853D01*
X147459300Y-91867853D01*
X147332458Y-91741011D01*
X146912357Y-91567000D01*
X146457643Y-91567000D01*
X146037542Y-91741011D01*
X145716011Y-92062542D01*
X145542000Y-92482643D01*
X136652000Y-92482643D01*
X136652000Y-90597853D01*
X160883600Y-90597853D01*
X160883600Y-91012147D01*
X161042144Y-91394906D01*
X161335094Y-91687856D01*
X161717853Y-91846400D01*
X162132147Y-91846400D01*
X162514906Y-91687856D01*
X162807856Y-91394906D01*
X162966400Y-91012147D01*
X162966400Y-90597853D01*
X162807856Y-90215094D01*
X162514906Y-89922144D01*
X162132147Y-89763600D01*
X161717853Y-89763600D01*
X161335094Y-89922144D01*
X161042144Y-90215094D01*
X160883600Y-90597853D01*
X136652000Y-90597853D01*
X136652000Y-88692853D01*
X143738600Y-88692853D01*
X143738600Y-89107147D01*
X143897144Y-89489906D01*
X144190094Y-89782856D01*
X144572853Y-89941400D01*
X144987147Y-89941400D01*
X145369906Y-89782856D01*
X145662856Y-89489906D01*
X145821400Y-89107147D01*
X145821400Y-88692853D01*
X145662856Y-88310094D01*
X145369906Y-88017144D01*
X144987147Y-87858600D01*
X144572853Y-87858600D01*
X144190094Y-88017144D01*
X143897144Y-88310094D01*
X143738600Y-88692853D01*
X136652000Y-88692853D01*
X136652000Y-85217000D01*
X143383000Y-85217000D01*
X143383000Y-87630000D01*
X143392667Y-87678601D01*
X143420197Y-87719803D01*
X143461399Y-87747333D01*
X143510000Y-87757000D01*
X159628246Y-87757000D01*
X159512000Y-88037643D01*
X159512000Y-88492357D01*
X159686011Y-88912458D01*
X160007542Y-89233989D01*
X160427643Y-89408000D01*
X160882357Y-89408000D01*
X161302458Y-89233989D01*
X161623989Y-88912458D01*
X161798000Y-88492357D01*
X161798000Y-88037643D01*
X161623989Y-87617542D01*
X161417000Y-87410553D01*
X161417000Y-85217000D01*
X165453218Y-85217000D01*
X165328600Y-85517853D01*
X165328600Y-85932147D01*
X165487144Y-86314906D01*
X165780094Y-86607856D01*
X166000365Y-86699095D01*
X165963600Y-86787853D01*
X165963600Y-87202147D01*
X166122144Y-87584906D01*
X166268400Y-87731162D01*
X166268400Y-87959891D01*
X164464691Y-89763600D01*
X164257853Y-89763600D01*
X163875094Y-89922144D01*
X163582144Y-90215094D01*
X163423600Y-90597853D01*
X163423600Y-91012147D01*
X163582144Y-91394906D01*
X163875094Y-91687856D01*
X164257853Y-91846400D01*
X164672147Y-91846400D01*
X165054906Y-91687856D01*
X165347856Y-91394906D01*
X165506400Y-91012147D01*
X165506400Y-90805309D01*
X166983856Y-89327853D01*
X171678600Y-89327853D01*
X171678600Y-89742147D01*
X171837144Y-90124906D01*
X172130094Y-90417856D01*
X172512853Y-90576400D01*
X172927147Y-90576400D01*
X173309906Y-90417856D01*
X173602856Y-90124906D01*
X173761400Y-89742147D01*
X173761400Y-89327853D01*
X173602856Y-88945094D01*
X173309906Y-88652144D01*
X172927147Y-88493600D01*
X172512853Y-88493600D01*
X172130094Y-88652144D01*
X171837144Y-88945094D01*
X171678600Y-89327853D01*
X166983856Y-89327853D01*
X167474558Y-88837151D01*
X167536058Y-88796058D01*
X167698861Y-88552407D01*
X167741600Y-88337544D01*
X167741600Y-88337540D01*
X167756029Y-88265001D01*
X167741600Y-88192462D01*
X167741600Y-87731162D01*
X167887856Y-87584906D01*
X168046400Y-87202147D01*
X168046400Y-86787853D01*
X167887856Y-86405094D01*
X167677762Y-86195000D01*
X171272560Y-86195000D01*
X171272560Y-87795000D01*
X171321843Y-88042765D01*
X171462191Y-88252809D01*
X171672235Y-88393157D01*
X171920000Y-88442440D01*
X173520000Y-88442440D01*
X173767765Y-88393157D01*
X173977809Y-88252809D01*
X174118157Y-88042765D01*
X174144738Y-87909134D01*
X174447138Y-88211534D01*
X174974561Y-88430000D01*
X175545439Y-88430000D01*
X176072862Y-88211534D01*
X176392831Y-87891565D01*
X177083040Y-87891565D01*
X177168311Y-88080510D01*
X177631803Y-88239618D01*
X178120900Y-88209243D01*
X178431689Y-88080510D01*
X178516960Y-87891565D01*
X179623040Y-87891565D01*
X179708311Y-88080510D01*
X180171803Y-88239618D01*
X180660900Y-88209243D01*
X180971689Y-88080510D01*
X181056960Y-87891565D01*
X180340000Y-87174605D01*
X179623040Y-87891565D01*
X178516960Y-87891565D01*
X177800000Y-87174605D01*
X177083040Y-87891565D01*
X176392831Y-87891565D01*
X176476534Y-87807862D01*
X176633034Y-87430037D01*
X176714490Y-87626689D01*
X176903435Y-87711960D01*
X177620395Y-86995000D01*
X177979605Y-86995000D01*
X178696565Y-87711960D01*
X178885510Y-87626689D01*
X179044618Y-87163197D01*
X179023727Y-86826803D01*
X179095382Y-86826803D01*
X179125757Y-87315900D01*
X179254490Y-87626689D01*
X179443435Y-87711960D01*
X180160395Y-86995000D01*
X179443435Y-86278040D01*
X179254490Y-86363311D01*
X179095382Y-86826803D01*
X179023727Y-86826803D01*
X179014243Y-86674100D01*
X178885510Y-86363311D01*
X178696565Y-86278040D01*
X177979605Y-86995000D01*
X177620395Y-86995000D01*
X176903435Y-86278040D01*
X176714490Y-86363311D01*
X176640662Y-86578377D01*
X176476534Y-86182138D01*
X176392831Y-86098435D01*
X177083040Y-86098435D01*
X177800000Y-86815395D01*
X178516960Y-86098435D01*
X179623040Y-86098435D01*
X180340000Y-86815395D01*
X181056960Y-86098435D01*
X180971689Y-85909490D01*
X180508197Y-85750382D01*
X180019100Y-85780757D01*
X179708311Y-85909490D01*
X179623040Y-86098435D01*
X178516960Y-86098435D01*
X178431689Y-85909490D01*
X177968197Y-85750382D01*
X177479100Y-85780757D01*
X177168311Y-85909490D01*
X177083040Y-86098435D01*
X176392831Y-86098435D01*
X176072862Y-85778466D01*
X175545439Y-85560000D01*
X174974561Y-85560000D01*
X174447138Y-85778466D01*
X174144738Y-86080866D01*
X174118157Y-85947235D01*
X173977809Y-85737191D01*
X173767765Y-85596843D01*
X173520000Y-85547560D01*
X171920000Y-85547560D01*
X171672235Y-85596843D01*
X171462191Y-85737191D01*
X171321843Y-85947235D01*
X171272560Y-86195000D01*
X167677762Y-86195000D01*
X167594906Y-86112144D01*
X167374635Y-86020905D01*
X167411400Y-85932147D01*
X167411400Y-85517853D01*
X167286782Y-85217000D01*
X181483000Y-85217000D01*
X181483000Y-86502104D01*
X181425510Y-86363311D01*
X181236565Y-86278040D01*
X180519605Y-86995000D01*
X181236565Y-87711960D01*
X181425510Y-87626689D01*
X181483000Y-87459217D01*
X181483000Y-91148712D01*
X181232945Y-91398767D01*
X181051200Y-91837538D01*
X181051200Y-92312462D01*
X181215866Y-92710000D01*
X181051200Y-93107538D01*
X181051200Y-93582462D01*
X181215866Y-93980000D01*
X181051200Y-94377538D01*
X181051200Y-94852462D01*
X181232945Y-95291233D01*
X181568767Y-95627055D01*
X182007538Y-95808800D01*
X182482462Y-95808800D01*
X182921233Y-95627055D01*
X183257055Y-95291233D01*
X183438800Y-94852462D01*
X183438800Y-94377538D01*
X183274134Y-93980000D01*
X183438800Y-93582462D01*
X183438800Y-93107538D01*
X183274134Y-92710000D01*
X183438800Y-92312462D01*
X183438800Y-91837538D01*
X183326739Y-91567000D01*
X206248000Y-91567000D01*
X206248000Y-123063000D01*
X190627000Y-123063000D01*
X190627000Y-121920000D01*
X190617333Y-121871399D01*
X190589803Y-121830197D01*
X190548601Y-121802667D01*
X190500000Y-121793000D01*
X163830000Y-121793000D01*
X163781399Y-121802667D01*
X163740197Y-121830197D01*
X163712667Y-121871399D01*
X163703000Y-121920000D01*
X163703000Y-123063000D01*
X147601782Y-123063000D01*
X147726400Y-122762147D01*
X147726400Y-122347853D01*
X147567856Y-121965094D01*
X147274906Y-121672144D01*
X146892147Y-121513600D01*
X146477853Y-121513600D01*
X146095094Y-121672144D01*
X145802144Y-121965094D01*
X145643600Y-122347853D01*
X145643600Y-122762147D01*
X145768218Y-123063000D01*
X128661754Y-123063000D01*
X128778000Y-122782357D01*
X128778000Y-122327643D01*
X128609149Y-121920000D01*
X128778000Y-121512357D01*
X128778000Y-121057643D01*
X128603989Y-120637542D01*
X128282458Y-120316011D01*
X127862357Y-120142000D01*
X127407643Y-120142000D01*
X126987542Y-120316011D01*
X126666011Y-120637542D01*
X126492000Y-121057643D01*
X126492000Y-121512357D01*
X126660851Y-121920000D01*
X126492000Y-122327643D01*
X126492000Y-122782357D01*
X126608246Y-123063000D01*
X108712000Y-123063000D01*
X108712000Y-117534561D01*
X117870000Y-117534561D01*
X117870000Y-118105439D01*
X118088466Y-118632862D01*
X118492138Y-119036534D01*
X119019561Y-119255000D01*
X119590439Y-119255000D01*
X120117862Y-119036534D01*
X120521534Y-118632862D01*
X120740000Y-118105439D01*
X120740000Y-117534561D01*
X124370000Y-117534561D01*
X124370000Y-118105439D01*
X124588466Y-118632862D01*
X124992138Y-119036534D01*
X125519561Y-119255000D01*
X126090439Y-119255000D01*
X126617862Y-119036534D01*
X127021534Y-118632862D01*
X127240000Y-118105439D01*
X127240000Y-117882643D01*
X131572000Y-117882643D01*
X131572000Y-118337357D01*
X131746011Y-118757458D01*
X132067542Y-119078989D01*
X132487643Y-119253000D01*
X132942357Y-119253000D01*
X133362458Y-119078989D01*
X133683989Y-118757458D01*
X133858000Y-118337357D01*
X133858000Y-117882643D01*
X133683989Y-117462542D01*
X133362458Y-117141011D01*
X132942357Y-116967000D01*
X132487643Y-116967000D01*
X132067542Y-117141011D01*
X131746011Y-117462542D01*
X131572000Y-117882643D01*
X127240000Y-117882643D01*
X127240000Y-117534561D01*
X127021534Y-117007138D01*
X126617862Y-116603466D01*
X126090439Y-116385000D01*
X125519561Y-116385000D01*
X124992138Y-116603466D01*
X124588466Y-117007138D01*
X124370000Y-117534561D01*
X120740000Y-117534561D01*
X120521534Y-117007138D01*
X120117862Y-116603466D01*
X119590439Y-116385000D01*
X119019561Y-116385000D01*
X118492138Y-116603466D01*
X118088466Y-117007138D01*
X117870000Y-117534561D01*
X108712000Y-117534561D01*
X108712000Y-115804950D01*
X136609200Y-115804950D01*
X136609200Y-116409891D01*
X136674938Y-116568595D01*
X136796405Y-116690063D01*
X136955110Y-116755800D01*
X137560050Y-116755800D01*
X137668000Y-116647850D01*
X137668000Y-115697000D01*
X137922000Y-115697000D01*
X137922000Y-116647850D01*
X138029950Y-116755800D01*
X138634890Y-116755800D01*
X138793595Y-116690063D01*
X138915062Y-116568595D01*
X138980800Y-116409891D01*
X138980800Y-115804950D01*
X138872850Y-115697000D01*
X137922000Y-115697000D01*
X137668000Y-115697000D01*
X136717150Y-115697000D01*
X136609200Y-115804950D01*
X108712000Y-115804950D01*
X108712000Y-114730109D01*
X136609200Y-114730109D01*
X136609200Y-115335050D01*
X136717150Y-115443000D01*
X137668000Y-115443000D01*
X137668000Y-114492150D01*
X137922000Y-114492150D01*
X137922000Y-115443000D01*
X138872850Y-115443000D01*
X138980800Y-115335050D01*
X138980800Y-114730109D01*
X138915062Y-114571405D01*
X138793595Y-114449937D01*
X138634890Y-114384200D01*
X138029950Y-114384200D01*
X137922000Y-114492150D01*
X137668000Y-114492150D01*
X137560050Y-114384200D01*
X136955110Y-114384200D01*
X136796405Y-114449937D01*
X136674938Y-114571405D01*
X136609200Y-114730109D01*
X108712000Y-114730109D01*
X108712000Y-114216565D01*
X118588040Y-114216565D01*
X118673311Y-114405510D01*
X119136803Y-114564618D01*
X119625900Y-114534243D01*
X119936689Y-114405510D01*
X120021960Y-114216565D01*
X125088040Y-114216565D01*
X125173311Y-114405510D01*
X125636803Y-114564618D01*
X126125900Y-114534243D01*
X126436689Y-114405510D01*
X126521960Y-114216565D01*
X125805000Y-113499605D01*
X125088040Y-114216565D01*
X120021960Y-114216565D01*
X119305000Y-113499605D01*
X118588040Y-114216565D01*
X108712000Y-114216565D01*
X108712000Y-113151803D01*
X118060382Y-113151803D01*
X118090757Y-113640900D01*
X118219490Y-113951689D01*
X118408435Y-114036960D01*
X119125395Y-113320000D01*
X119484605Y-113320000D01*
X120201565Y-114036960D01*
X120390510Y-113951689D01*
X120549618Y-113488197D01*
X120528727Y-113151803D01*
X124560382Y-113151803D01*
X124590757Y-113640900D01*
X124719490Y-113951689D01*
X124908435Y-114036960D01*
X125625395Y-113320000D01*
X125984605Y-113320000D01*
X126701565Y-114036960D01*
X126890510Y-113951689D01*
X127049618Y-113488197D01*
X127019243Y-112999100D01*
X126890510Y-112688311D01*
X126701565Y-112603040D01*
X125984605Y-113320000D01*
X125625395Y-113320000D01*
X124908435Y-112603040D01*
X124719490Y-112688311D01*
X124560382Y-113151803D01*
X120528727Y-113151803D01*
X120519243Y-112999100D01*
X120390510Y-112688311D01*
X120201565Y-112603040D01*
X119484605Y-113320000D01*
X119125395Y-113320000D01*
X118408435Y-112603040D01*
X118219490Y-112688311D01*
X118060382Y-113151803D01*
X108712000Y-113151803D01*
X108712000Y-112423435D01*
X118588040Y-112423435D01*
X119305000Y-113140395D01*
X120021960Y-112423435D01*
X125088040Y-112423435D01*
X125805000Y-113140395D01*
X126521960Y-112423435D01*
X126436689Y-112234490D01*
X125973197Y-112075382D01*
X125484100Y-112105757D01*
X125173311Y-112234490D01*
X125088040Y-112423435D01*
X120021960Y-112423435D01*
X119936689Y-112234490D01*
X119473197Y-112075382D01*
X118984100Y-112105757D01*
X118673311Y-112234490D01*
X118588040Y-112423435D01*
X108712000Y-112423435D01*
X108712000Y-110741396D01*
X109042138Y-111071534D01*
X109569561Y-111290000D01*
X110140439Y-111290000D01*
X110667862Y-111071534D01*
X111071534Y-110667862D01*
X111125000Y-110538784D01*
X111178466Y-110667862D01*
X111582138Y-111071534D01*
X112109561Y-111290000D01*
X112680439Y-111290000D01*
X113207862Y-111071534D01*
X113527831Y-110751565D01*
X114218040Y-110751565D01*
X114303311Y-110940510D01*
X114766803Y-111099618D01*
X115255900Y-111069243D01*
X115566689Y-110940510D01*
X115651960Y-110751565D01*
X114935000Y-110034605D01*
X114218040Y-110751565D01*
X113527831Y-110751565D01*
X113611534Y-110667862D01*
X113768034Y-110290037D01*
X113849490Y-110486689D01*
X114038435Y-110571960D01*
X114755395Y-109855000D01*
X115114605Y-109855000D01*
X115831565Y-110571960D01*
X116020510Y-110486689D01*
X116179618Y-110023197D01*
X116149243Y-109534100D01*
X116020510Y-109223311D01*
X115831565Y-109138040D01*
X115114605Y-109855000D01*
X114755395Y-109855000D01*
X114038435Y-109138040D01*
X113849490Y-109223311D01*
X113775662Y-109438377D01*
X113611534Y-109042138D01*
X113207862Y-108638466D01*
X113078784Y-108585000D01*
X113207862Y-108531534D01*
X113611534Y-108127862D01*
X113665000Y-107998784D01*
X113718466Y-108127862D01*
X114122138Y-108531534D01*
X114499963Y-108688034D01*
X114303311Y-108769490D01*
X114218040Y-108958435D01*
X114935000Y-109675395D01*
X115651960Y-108958435D01*
X115566689Y-108769490D01*
X115351623Y-108695662D01*
X115747862Y-108531534D01*
X116151534Y-108127862D01*
X116370000Y-107600439D01*
X116370000Y-107029561D01*
X116151534Y-106502138D01*
X115747862Y-106098466D01*
X115220439Y-105880000D01*
X114649561Y-105880000D01*
X114122138Y-106098466D01*
X113718466Y-106502138D01*
X113665000Y-106631216D01*
X113611534Y-106502138D01*
X113207862Y-106098466D01*
X112680439Y-105880000D01*
X112109561Y-105880000D01*
X111582138Y-106098466D01*
X111279738Y-106400866D01*
X111253157Y-106267235D01*
X111112809Y-106057191D01*
X110902765Y-105916843D01*
X110655000Y-105867560D01*
X109055000Y-105867560D01*
X108807235Y-105916843D01*
X108712000Y-105980477D01*
X108712000Y-105837853D01*
X118338572Y-105837853D01*
X118338572Y-106252147D01*
X118497116Y-106634906D01*
X118790066Y-106927856D01*
X119172825Y-107086400D01*
X119587119Y-107086400D01*
X119969878Y-106927856D01*
X120262828Y-106634906D01*
X120421372Y-106252147D01*
X120421372Y-105837853D01*
X120262828Y-105455094D01*
X119969878Y-105162144D01*
X119587119Y-105003600D01*
X119172825Y-105003600D01*
X118790066Y-105162144D01*
X118497116Y-105455094D01*
X118338572Y-105837853D01*
X108712000Y-105837853D01*
X108712000Y-104401565D01*
X109138040Y-104401565D01*
X109223311Y-104590510D01*
X109686803Y-104749618D01*
X110175900Y-104719243D01*
X110486689Y-104590510D01*
X110571960Y-104401565D01*
X111678040Y-104401565D01*
X111763311Y-104590510D01*
X112226803Y-104749618D01*
X112715900Y-104719243D01*
X113026689Y-104590510D01*
X113111960Y-104401565D01*
X112395000Y-103684605D01*
X111678040Y-104401565D01*
X110571960Y-104401565D01*
X109855000Y-103684605D01*
X109138040Y-104401565D01*
X108712000Y-104401565D01*
X108712000Y-103997896D01*
X108769490Y-104136689D01*
X108958435Y-104221960D01*
X109675395Y-103505000D01*
X110034605Y-103505000D01*
X110751565Y-104221960D01*
X110940510Y-104136689D01*
X111099618Y-103673197D01*
X111078727Y-103336803D01*
X111150382Y-103336803D01*
X111180757Y-103825900D01*
X111309490Y-104136689D01*
X111498435Y-104221960D01*
X112215395Y-103505000D01*
X112574605Y-103505000D01*
X113291565Y-104221960D01*
X113480510Y-104136689D01*
X113639618Y-103673197D01*
X113609243Y-103184100D01*
X113480510Y-102873311D01*
X113291565Y-102788040D01*
X112574605Y-103505000D01*
X112215395Y-103505000D01*
X111498435Y-102788040D01*
X111309490Y-102873311D01*
X111150382Y-103336803D01*
X111078727Y-103336803D01*
X111069243Y-103184100D01*
X110940510Y-102873311D01*
X110751565Y-102788040D01*
X110034605Y-103505000D01*
X109675395Y-103505000D01*
X108958435Y-102788040D01*
X108769490Y-102873311D01*
X108712000Y-103040783D01*
X108712000Y-101851396D01*
X109042138Y-102181534D01*
X109419963Y-102338034D01*
X109223311Y-102419490D01*
X109138040Y-102608435D01*
X109855000Y-103325395D01*
X110571960Y-102608435D01*
X110486689Y-102419490D01*
X110271623Y-102345662D01*
X110667862Y-102181534D01*
X111071534Y-101777862D01*
X111125000Y-101648784D01*
X111178466Y-101777862D01*
X111582138Y-102181534D01*
X111959963Y-102338034D01*
X111763311Y-102419490D01*
X111678040Y-102608435D01*
X112395000Y-103325395D01*
X113057542Y-102662853D01*
X122148600Y-102662853D01*
X122148600Y-103077147D01*
X122307144Y-103459906D01*
X122600094Y-103752856D01*
X122982853Y-103911400D01*
X123397147Y-103911400D01*
X123779906Y-103752856D01*
X124072856Y-103459906D01*
X124231400Y-103077147D01*
X124231400Y-102662853D01*
X124072856Y-102280094D01*
X123779906Y-101987144D01*
X123397147Y-101828600D01*
X122982853Y-101828600D01*
X122600094Y-101987144D01*
X122307144Y-102280094D01*
X122148600Y-102662853D01*
X113057542Y-102662853D01*
X113111960Y-102608435D01*
X113026689Y-102419490D01*
X112811623Y-102345662D01*
X113207862Y-102181534D01*
X113611534Y-101777862D01*
X113830000Y-101250439D01*
X113830000Y-100679561D01*
X113611534Y-100152138D01*
X113207862Y-99748466D01*
X113078784Y-99695000D01*
X113207862Y-99641534D01*
X113381753Y-99467643D01*
X116332000Y-99467643D01*
X116332000Y-99922357D01*
X116506011Y-100342458D01*
X116827542Y-100663989D01*
X117247643Y-100838000D01*
X117702357Y-100838000D01*
X118122458Y-100663989D01*
X118443989Y-100342458D01*
X118534952Y-100122853D01*
X120878600Y-100122853D01*
X120878600Y-100537147D01*
X121037144Y-100919906D01*
X121330094Y-101212856D01*
X121712853Y-101371400D01*
X122127147Y-101371400D01*
X122509906Y-101212856D01*
X122802856Y-100919906D01*
X122961400Y-100537147D01*
X122961400Y-100122853D01*
X122924635Y-100034095D01*
X123144906Y-99942856D01*
X123266200Y-99821562D01*
X123266200Y-99932462D01*
X123447945Y-100371233D01*
X123783767Y-100707055D01*
X124222538Y-100888800D01*
X124697462Y-100888800D01*
X125136233Y-100707055D01*
X125472055Y-100371233D01*
X125517777Y-100260851D01*
X125716737Y-100343263D01*
X125828538Y-100613174D01*
X125517945Y-100923767D01*
X125336200Y-101362538D01*
X125336200Y-101837462D01*
X125517945Y-102276233D01*
X125853767Y-102612055D01*
X126292538Y-102793800D01*
X126767462Y-102793800D01*
X127206233Y-102612055D01*
X127542055Y-102276233D01*
X127723800Y-101837462D01*
X127723800Y-101372643D01*
X130302000Y-101372643D01*
X130302000Y-101827357D01*
X130476011Y-102247458D01*
X130797542Y-102568989D01*
X131217643Y-102743000D01*
X131672357Y-102743000D01*
X132092458Y-102568989D01*
X132413989Y-102247458D01*
X132588000Y-101827357D01*
X132588000Y-101372643D01*
X132413989Y-100952542D01*
X132092458Y-100631011D01*
X131672357Y-100457000D01*
X131217643Y-100457000D01*
X130797542Y-100631011D01*
X130476011Y-100952542D01*
X130302000Y-101372643D01*
X127723800Y-101372643D01*
X127723800Y-101362538D01*
X127542055Y-100923767D01*
X127434735Y-100816447D01*
X127607066Y-100644116D01*
X127765610Y-100261357D01*
X127765610Y-99847063D01*
X127607066Y-99464304D01*
X127314116Y-99171354D01*
X127013263Y-99046737D01*
X126920398Y-98822538D01*
X130251200Y-98822538D01*
X130251200Y-99297462D01*
X130432945Y-99736233D01*
X130768767Y-100072055D01*
X131207538Y-100253800D01*
X131682462Y-100253800D01*
X132121233Y-100072055D01*
X132457055Y-99736233D01*
X132638800Y-99297462D01*
X132638800Y-98822538D01*
X132590435Y-98705774D01*
X132669906Y-98672856D01*
X132962856Y-98379906D01*
X133121400Y-97997147D01*
X133121400Y-97582853D01*
X132962856Y-97200094D01*
X132669906Y-96907144D01*
X132287147Y-96748600D01*
X131872853Y-96748600D01*
X131490094Y-96907144D01*
X131197144Y-97200094D01*
X131038600Y-97582853D01*
X131038600Y-97936176D01*
X130768767Y-98047945D01*
X130432945Y-98383767D01*
X130251200Y-98822538D01*
X126920398Y-98822538D01*
X126888646Y-98745884D01*
X126595696Y-98452934D01*
X126212937Y-98294390D01*
X125798643Y-98294390D01*
X125415884Y-98452934D01*
X125161053Y-98707765D01*
X125136233Y-98682945D01*
X124697462Y-98501200D01*
X124222538Y-98501200D01*
X123783767Y-98682945D01*
X123596400Y-98870312D01*
X123596400Y-98852853D01*
X123437856Y-98470094D01*
X123144906Y-98177144D01*
X122762147Y-98018600D01*
X122347853Y-98018600D01*
X121965094Y-98177144D01*
X121672144Y-98470094D01*
X121513600Y-98852853D01*
X121513600Y-99267147D01*
X121550365Y-99355905D01*
X121330094Y-99447144D01*
X121037144Y-99740094D01*
X120878600Y-100122853D01*
X118534952Y-100122853D01*
X118618000Y-99922357D01*
X118618000Y-99467643D01*
X118573502Y-99360214D01*
X118699906Y-99307856D01*
X118992856Y-99014906D01*
X119151400Y-98632147D01*
X119151400Y-98217853D01*
X118992856Y-97835094D01*
X118699906Y-97542144D01*
X118317147Y-97383600D01*
X117902853Y-97383600D01*
X117520094Y-97542144D01*
X117227144Y-97835094D01*
X117068600Y-98217853D01*
X117068600Y-98626162D01*
X116827542Y-98726011D01*
X116506011Y-99047542D01*
X116332000Y-99467643D01*
X113381753Y-99467643D01*
X113611534Y-99237862D01*
X113830000Y-98710439D01*
X113830000Y-98139561D01*
X113611534Y-97612138D01*
X113207862Y-97208466D01*
X112680439Y-96990000D01*
X112109561Y-96990000D01*
X111582138Y-97208466D01*
X111279738Y-97510866D01*
X111253157Y-97377235D01*
X111112809Y-97167191D01*
X110902765Y-97026843D01*
X110655000Y-96977560D01*
X109055000Y-96977560D01*
X108807235Y-97026843D01*
X108712000Y-97090477D01*
X108712000Y-93137853D01*
X119608600Y-93137853D01*
X119608600Y-93552147D01*
X119767144Y-93934906D01*
X120060094Y-94227856D01*
X120442853Y-94386400D01*
X120857147Y-94386400D01*
X121239906Y-94227856D01*
X121532856Y-93934906D01*
X121691400Y-93552147D01*
X121691400Y-93137853D01*
X121532856Y-92755094D01*
X121239906Y-92462144D01*
X120857147Y-92303600D01*
X120442853Y-92303600D01*
X120060094Y-92462144D01*
X119767144Y-92755094D01*
X119608600Y-93137853D01*
X108712000Y-93137853D01*
X108712000Y-86294398D01*
X110245000Y-86294398D01*
X110245000Y-86805602D01*
X110440629Y-87277894D01*
X110802106Y-87639371D01*
X111274398Y-87835000D01*
X111785602Y-87835000D01*
X112257894Y-87639371D01*
X112619371Y-87277894D01*
X112815000Y-86805602D01*
X112815000Y-86294398D01*
X114245000Y-86294398D01*
X114245000Y-86805602D01*
X114440629Y-87277894D01*
X114802106Y-87639371D01*
X115274398Y-87835000D01*
X115785602Y-87835000D01*
X116257894Y-87639371D01*
X116619371Y-87277894D01*
X116815000Y-86805602D01*
X116815000Y-86594950D01*
X119464200Y-86594950D01*
X119464200Y-87199890D01*
X119529937Y-87358595D01*
X119651405Y-87480062D01*
X119810109Y-87545800D01*
X120415050Y-87545800D01*
X120523000Y-87437850D01*
X120523000Y-86487000D01*
X119572150Y-86487000D01*
X119464200Y-86594950D01*
X116815000Y-86594950D01*
X116815000Y-86294398D01*
X116619371Y-85822106D01*
X116257894Y-85460629D01*
X115785602Y-85265000D01*
X115274398Y-85265000D01*
X114802106Y-85460629D01*
X114440629Y-85822106D01*
X114245000Y-86294398D01*
X112815000Y-86294398D01*
X112619371Y-85822106D01*
X112257894Y-85460629D01*
X111785602Y-85265000D01*
X111274398Y-85265000D01*
X110802106Y-85460629D01*
X110440629Y-85822106D01*
X110245000Y-86294398D01*
X108712000Y-86294398D01*
X108712000Y-85217000D01*
X119706782Y-85217000D01*
X119651405Y-85239938D01*
X119651405Y-85239938D01*
G37*
X119651405Y-85239938D02*
X119529937Y-85361405D01*
X119464200Y-85520110D01*
X119464200Y-86125050D01*
X119572150Y-86233000D01*
X120523000Y-86233000D01*
X120523000Y-86213000D01*
X120777000Y-86213000D01*
X120777000Y-86233000D01*
X120797000Y-86233000D01*
X120797000Y-86487000D01*
X120777000Y-86487000D01*
X120777000Y-87437850D01*
X120884950Y-87545800D01*
X121489891Y-87545800D01*
X121648595Y-87480062D01*
X121770063Y-87358595D01*
X121793000Y-87303220D01*
X121793000Y-95885000D01*
X121802667Y-95933601D01*
X121830197Y-95974803D01*
X121871399Y-96002333D01*
X121920000Y-96012000D01*
X125108228Y-96012000D01*
X125184589Y-96088361D01*
X125567348Y-96246905D01*
X125981642Y-96246905D01*
X126364401Y-96088361D01*
X126440762Y-96012000D01*
X129041415Y-96012000D01*
X129101644Y-96157406D01*
X129394594Y-96450356D01*
X129777353Y-96608900D01*
X130191647Y-96608900D01*
X130492500Y-96484283D01*
X130793353Y-96608900D01*
X131207647Y-96608900D01*
X131590406Y-96450356D01*
X131883356Y-96157406D01*
X131943585Y-96012000D01*
X136460477Y-96012000D01*
X136396843Y-96107235D01*
X136347560Y-96355000D01*
X136347560Y-97955000D01*
X136396843Y-98202765D01*
X136537191Y-98412809D01*
X136747235Y-98553157D01*
X136880866Y-98579738D01*
X136578466Y-98882138D01*
X136360000Y-99409561D01*
X136360000Y-99980439D01*
X136578466Y-100507862D01*
X136982138Y-100911534D01*
X137509561Y-101130000D01*
X138080439Y-101130000D01*
X138607862Y-100911534D01*
X139011534Y-100507862D01*
X139230000Y-99980439D01*
X139230000Y-99409561D01*
X139011534Y-98882138D01*
X138709134Y-98579738D01*
X138842765Y-98553157D01*
X139052809Y-98412809D01*
X139193157Y-98202765D01*
X139205728Y-98139561D01*
X140170000Y-98139561D01*
X140170000Y-98710439D01*
X140388466Y-99237862D01*
X140792138Y-99641534D01*
X140921216Y-99695000D01*
X140792138Y-99748466D01*
X140388466Y-100152138D01*
X140170000Y-100679561D01*
X140170000Y-101250439D01*
X140388466Y-101777862D01*
X140792138Y-102181534D01*
X140921216Y-102235000D01*
X140792138Y-102288466D01*
X140388466Y-102692138D01*
X140170000Y-103219561D01*
X140170000Y-103790439D01*
X140388466Y-104317862D01*
X140792138Y-104721534D01*
X140921216Y-104775000D01*
X140792138Y-104828466D01*
X140388466Y-105232138D01*
X140170000Y-105759561D01*
X140170000Y-106330439D01*
X140388466Y-106857862D01*
X140792138Y-107261534D01*
X140921216Y-107315000D01*
X140792138Y-107368466D01*
X140388466Y-107772138D01*
X140170000Y-108299561D01*
X140170000Y-108870439D01*
X140388466Y-109397862D01*
X140792138Y-109801534D01*
X140921216Y-109855000D01*
X140792138Y-109908466D01*
X140388466Y-110312138D01*
X140170000Y-110839561D01*
X140170000Y-111410439D01*
X140388466Y-111937862D01*
X140792138Y-112341534D01*
X140921216Y-112395000D01*
X140792138Y-112448466D01*
X140388466Y-112852138D01*
X140170000Y-113379561D01*
X140170000Y-113950439D01*
X140388466Y-114477862D01*
X140792138Y-114881534D01*
X140921216Y-114935000D01*
X140792138Y-114988466D01*
X140388466Y-115392138D01*
X140170000Y-115919561D01*
X140170000Y-116490439D01*
X140388466Y-117017862D01*
X140792138Y-117421534D01*
X141319561Y-117640000D01*
X141890439Y-117640000D01*
X142417862Y-117421534D01*
X142720262Y-117119134D01*
X142746843Y-117252765D01*
X142887191Y-117462809D01*
X143097235Y-117603157D01*
X143345000Y-117652440D01*
X144945000Y-117652440D01*
X145192765Y-117603157D01*
X145402809Y-117462809D01*
X145543157Y-117252765D01*
X145592440Y-117005000D01*
X145592440Y-116632853D01*
X146913600Y-116632853D01*
X146913600Y-117047147D01*
X147072144Y-117429906D01*
X147365094Y-117722856D01*
X147747853Y-117881400D01*
X148162147Y-117881400D01*
X148250905Y-117844635D01*
X148342144Y-118064906D01*
X148635094Y-118357856D01*
X149017853Y-118516400D01*
X149432147Y-118516400D01*
X149814906Y-118357856D01*
X150088600Y-118084162D01*
X150088600Y-118317147D01*
X150247144Y-118699906D01*
X150540094Y-118992856D01*
X150922853Y-119151400D01*
X151337147Y-119151400D01*
X151719906Y-118992856D01*
X152012856Y-118699906D01*
X152082500Y-118531771D01*
X152152144Y-118699906D01*
X152445094Y-118992856D01*
X152827853Y-119151400D01*
X153242147Y-119151400D01*
X153624906Y-118992856D01*
X153917856Y-118699906D01*
X154076400Y-118317147D01*
X154076400Y-117902853D01*
X153917856Y-117520094D01*
X153665615Y-117267853D01*
X158343600Y-117267853D01*
X158343600Y-117682147D01*
X158502144Y-118064906D01*
X158795094Y-118357856D01*
X159177853Y-118516400D01*
X159592147Y-118516400D01*
X159628770Y-118501230D01*
X159613600Y-118537853D01*
X159613600Y-118952147D01*
X159772144Y-119334906D01*
X160065094Y-119627856D01*
X160447853Y-119786400D01*
X160862147Y-119786400D01*
X161244906Y-119627856D01*
X161537856Y-119334906D01*
X161637410Y-119094561D01*
X164935000Y-119094561D01*
X164935000Y-119665439D01*
X165153466Y-120192862D01*
X165557138Y-120596534D01*
X166084561Y-120815000D01*
X166655439Y-120815000D01*
X167182862Y-120596534D01*
X167586534Y-120192862D01*
X167640000Y-120063784D01*
X167693466Y-120192862D01*
X168097138Y-120596534D01*
X168624561Y-120815000D01*
X169195439Y-120815000D01*
X169722862Y-120596534D01*
X170025262Y-120294134D01*
X170051843Y-120427765D01*
X170192191Y-120637809D01*
X170402235Y-120778157D01*
X170650000Y-120827440D01*
X172250000Y-120827440D01*
X172497765Y-120778157D01*
X172707809Y-120637809D01*
X172848157Y-120427765D01*
X172897440Y-120180000D01*
X172897440Y-119807853D01*
X176758600Y-119807853D01*
X176758600Y-120222147D01*
X176917144Y-120604906D01*
X177210094Y-120897856D01*
X177592853Y-121056400D01*
X178007147Y-121056400D01*
X178389906Y-120897856D01*
X178682856Y-120604906D01*
X178841400Y-120222147D01*
X178841400Y-119807853D01*
X183108600Y-119807853D01*
X183108600Y-120222147D01*
X183267144Y-120604906D01*
X183560094Y-120897856D01*
X183942853Y-121056400D01*
X184357147Y-121056400D01*
X184739906Y-120897856D01*
X185032856Y-120604906D01*
X185191400Y-120222147D01*
X185191400Y-119807853D01*
X185032856Y-119425094D01*
X184739906Y-119132144D01*
X184357147Y-118973600D01*
X183942853Y-118973600D01*
X183560094Y-119132144D01*
X183267144Y-119425094D01*
X183108600Y-119807853D01*
X178841400Y-119807853D01*
X178682856Y-119425094D01*
X178389906Y-119132144D01*
X178007147Y-118973600D01*
X177592853Y-118973600D01*
X177210094Y-119132144D01*
X176917144Y-119425094D01*
X176758600Y-119807853D01*
X172897440Y-119807853D01*
X172897440Y-119682676D01*
X173147853Y-119786400D01*
X173562147Y-119786400D01*
X173944906Y-119627856D01*
X174237856Y-119334906D01*
X174396400Y-118952147D01*
X174396400Y-118617485D01*
X174397643Y-118618000D01*
X174852357Y-118618000D01*
X175272458Y-118443989D01*
X175593989Y-118122458D01*
X175768000Y-117702357D01*
X175768000Y-117267853D01*
X178028600Y-117267853D01*
X178028600Y-117682147D01*
X178187144Y-118064906D01*
X178480094Y-118357856D01*
X178862853Y-118516400D01*
X179277147Y-118516400D01*
X179659906Y-118357856D01*
X179952856Y-118064906D01*
X180111400Y-117682147D01*
X180111400Y-117267853D01*
X179952856Y-116885094D01*
X179659906Y-116592144D01*
X179277147Y-116433600D01*
X178862853Y-116433600D01*
X178480094Y-116592144D01*
X178187144Y-116885094D01*
X178028600Y-117267853D01*
X175768000Y-117267853D01*
X175768000Y-117247643D01*
X175723502Y-117140214D01*
X175849906Y-117087856D01*
X176142856Y-116794906D01*
X176301400Y-116412147D01*
X176301400Y-115997853D01*
X176142856Y-115615094D01*
X175849906Y-115322144D01*
X175467147Y-115163600D01*
X175052853Y-115163600D01*
X174670094Y-115322144D01*
X174377144Y-115615094D01*
X174218600Y-115997853D01*
X174218600Y-116406162D01*
X173977542Y-116506011D01*
X173656011Y-116827542D01*
X173482000Y-117247643D01*
X173482000Y-117702357D01*
X173482515Y-117703600D01*
X173147853Y-117703600D01*
X172765094Y-117862144D01*
X172586262Y-118040976D01*
X172497765Y-117981843D01*
X172364134Y-117955262D01*
X172666534Y-117652862D01*
X172885000Y-117125439D01*
X172885000Y-116554561D01*
X172666534Y-116027138D01*
X172262862Y-115623466D01*
X171735439Y-115405000D01*
X171164561Y-115405000D01*
X170637138Y-115623466D01*
X170233466Y-116027138D01*
X170180000Y-116156216D01*
X170126534Y-116027138D01*
X169722862Y-115623466D01*
X169195439Y-115405000D01*
X168624561Y-115405000D01*
X168097138Y-115623466D01*
X167693466Y-116027138D01*
X167536966Y-116404963D01*
X167455510Y-116208311D01*
X167266565Y-116123040D01*
X166549605Y-116840000D01*
X167266565Y-117556960D01*
X167455510Y-117471689D01*
X167529338Y-117256623D01*
X167693466Y-117652862D01*
X168097138Y-118056534D01*
X168226216Y-118110000D01*
X168097138Y-118163466D01*
X167693466Y-118567138D01*
X167640000Y-118696216D01*
X167586534Y-118567138D01*
X167182862Y-118163466D01*
X166805037Y-118006966D01*
X167001689Y-117925510D01*
X167086960Y-117736565D01*
X166370000Y-117019605D01*
X165653040Y-117736565D01*
X165738311Y-117925510D01*
X165953377Y-117999338D01*
X165557138Y-118163466D01*
X165153466Y-118567138D01*
X164935000Y-119094561D01*
X161637410Y-119094561D01*
X161696400Y-118952147D01*
X161696400Y-118537853D01*
X161537856Y-118155094D01*
X161264162Y-117881400D01*
X161497147Y-117881400D01*
X161879906Y-117722856D01*
X162172856Y-117429906D01*
X162331400Y-117047147D01*
X162331400Y-116671803D01*
X165125382Y-116671803D01*
X165155757Y-117160900D01*
X165284490Y-117471689D01*
X165473435Y-117556960D01*
X166190395Y-116840000D01*
X165473435Y-116123040D01*
X165284490Y-116208311D01*
X165125382Y-116671803D01*
X162331400Y-116671803D01*
X162331400Y-116632853D01*
X162172856Y-116250094D01*
X161879906Y-115957144D01*
X161846810Y-115943435D01*
X165653040Y-115943435D01*
X166370000Y-116660395D01*
X167086960Y-115943435D01*
X167001689Y-115754490D01*
X166538197Y-115595382D01*
X166049100Y-115625757D01*
X165738311Y-115754490D01*
X165653040Y-115943435D01*
X161846810Y-115943435D01*
X161497147Y-115798600D01*
X161082853Y-115798600D01*
X160700094Y-115957144D01*
X160407144Y-116250094D01*
X160248600Y-116632853D01*
X160248600Y-116865838D01*
X159974906Y-116592144D01*
X159592147Y-116433600D01*
X159177853Y-116433600D01*
X158795094Y-116592144D01*
X158502144Y-116885094D01*
X158343600Y-117267853D01*
X153665615Y-117267853D01*
X153624906Y-117227144D01*
X153242147Y-117068600D01*
X152827853Y-117068600D01*
X152445094Y-117227144D01*
X152152144Y-117520094D01*
X152082500Y-117688229D01*
X152012856Y-117520094D01*
X151719906Y-117227144D01*
X151337147Y-117068600D01*
X151104162Y-117068600D01*
X151377856Y-116794906D01*
X151536400Y-116412147D01*
X151536400Y-115997853D01*
X151377856Y-115615094D01*
X151084906Y-115322144D01*
X150702147Y-115163600D01*
X150287853Y-115163600D01*
X149905094Y-115322144D01*
X149612144Y-115615094D01*
X149453600Y-115997853D01*
X149453600Y-116412147D01*
X149468770Y-116448770D01*
X149432147Y-116433600D01*
X149017853Y-116433600D01*
X148929095Y-116470365D01*
X148837856Y-116250094D01*
X148544906Y-115957144D01*
X148162147Y-115798600D01*
X147747853Y-115798600D01*
X147365094Y-115957144D01*
X147072144Y-116250094D01*
X146913600Y-116632853D01*
X145592440Y-116632853D01*
X145592440Y-115405000D01*
X145543157Y-115157235D01*
X145402809Y-114947191D01*
X145192765Y-114806843D01*
X145059134Y-114780262D01*
X145361534Y-114477862D01*
X145580000Y-113950439D01*
X145580000Y-113437643D01*
X146177000Y-113437643D01*
X146177000Y-113892357D01*
X146351011Y-114312458D01*
X146672542Y-114633989D01*
X147092643Y-114808000D01*
X147547357Y-114808000D01*
X147967458Y-114633989D01*
X148288989Y-114312458D01*
X148463000Y-113892357D01*
X148463000Y-113437643D01*
X148717000Y-113437643D01*
X148717000Y-113892357D01*
X148891011Y-114312458D01*
X149212542Y-114633989D01*
X149632643Y-114808000D01*
X150087357Y-114808000D01*
X150280849Y-114727853D01*
X151358600Y-114727853D01*
X151358600Y-115142147D01*
X151517144Y-115524906D01*
X151810094Y-115817856D01*
X152192853Y-115976400D01*
X152607147Y-115976400D01*
X152989906Y-115817856D01*
X153282856Y-115524906D01*
X153441400Y-115142147D01*
X153441400Y-114727853D01*
X188188600Y-114727853D01*
X188188600Y-115142147D01*
X188347144Y-115524906D01*
X188640094Y-115817856D01*
X189022853Y-115976400D01*
X189255838Y-115976400D01*
X188982144Y-116250094D01*
X188823600Y-116632853D01*
X188823600Y-117047147D01*
X188982144Y-117429906D01*
X189255838Y-117703600D01*
X189022853Y-117703600D01*
X188640094Y-117862144D01*
X188347144Y-118155094D01*
X188188600Y-118537853D01*
X188188600Y-118952147D01*
X188347144Y-119334906D01*
X188640094Y-119627856D01*
X189022853Y-119786400D01*
X189437147Y-119786400D01*
X189819906Y-119627856D01*
X190112856Y-119334906D01*
X190271400Y-118952147D01*
X190271400Y-118537853D01*
X191998600Y-118537853D01*
X191998600Y-118952147D01*
X192157144Y-119334906D01*
X192202238Y-119380000D01*
X192157144Y-119425094D01*
X191998600Y-119807853D01*
X191998600Y-120222147D01*
X192157144Y-120604906D01*
X192450094Y-120897856D01*
X192832853Y-121056400D01*
X193247147Y-121056400D01*
X193629906Y-120897856D01*
X193922856Y-120604906D01*
X194081400Y-120222147D01*
X194081400Y-119807853D01*
X193922856Y-119425094D01*
X193877762Y-119380000D01*
X193922856Y-119334906D01*
X194081400Y-118952147D01*
X194081400Y-118537853D01*
X193922856Y-118155094D01*
X193629906Y-117862144D01*
X193247147Y-117703600D01*
X192832853Y-117703600D01*
X192450094Y-117862144D01*
X192157144Y-118155094D01*
X191998600Y-118537853D01*
X190271400Y-118537853D01*
X190112856Y-118155094D01*
X189839162Y-117881400D01*
X190072147Y-117881400D01*
X190454906Y-117722856D01*
X190747856Y-117429906D01*
X190839095Y-117209635D01*
X190927853Y-117246400D01*
X191342147Y-117246400D01*
X191724906Y-117087856D01*
X192017856Y-116794906D01*
X192084980Y-116632853D01*
X195808600Y-116632853D01*
X195808600Y-117047147D01*
X195967144Y-117429906D01*
X196260094Y-117722856D01*
X196428229Y-117792500D01*
X196260094Y-117862144D01*
X195967144Y-118155094D01*
X195808600Y-118537853D01*
X195808600Y-118952147D01*
X195967144Y-119334906D01*
X196260094Y-119627856D01*
X196386498Y-119680214D01*
X196342000Y-119787643D01*
X196342000Y-120242357D01*
X196516011Y-120662458D01*
X196837542Y-120983989D01*
X197257643Y-121158000D01*
X197712357Y-121158000D01*
X198132458Y-120983989D01*
X198453989Y-120662458D01*
X198628000Y-120242357D01*
X198628000Y-119787643D01*
X198453989Y-119367542D01*
X198132458Y-119046011D01*
X197891400Y-118946162D01*
X197891400Y-118537853D01*
X197732856Y-118155094D01*
X197439906Y-117862144D01*
X197271771Y-117792500D01*
X197439906Y-117722856D01*
X197732856Y-117429906D01*
X197891400Y-117047147D01*
X197891400Y-116632853D01*
X197732856Y-116250094D01*
X197439906Y-115957144D01*
X197057147Y-115798600D01*
X196642853Y-115798600D01*
X196260094Y-115957144D01*
X195967144Y-116250094D01*
X195808600Y-116632853D01*
X192084980Y-116632853D01*
X192176400Y-116412147D01*
X192176400Y-115997853D01*
X192017856Y-115615094D01*
X191724906Y-115322144D01*
X191342147Y-115163600D01*
X190927853Y-115163600D01*
X190545094Y-115322144D01*
X190252144Y-115615094D01*
X190160905Y-115835365D01*
X190072147Y-115798600D01*
X189839162Y-115798600D01*
X190112856Y-115524906D01*
X190271400Y-115142147D01*
X190271400Y-114727853D01*
X190112856Y-114345094D01*
X189819906Y-114052144D01*
X189437147Y-113893600D01*
X189022853Y-113893600D01*
X188640094Y-114052144D01*
X188347144Y-114345094D01*
X188188600Y-114727853D01*
X153441400Y-114727853D01*
X153282856Y-114345094D01*
X152989906Y-114052144D01*
X152607147Y-113893600D01*
X152192853Y-113893600D01*
X151810094Y-114052144D01*
X151517144Y-114345094D01*
X151358600Y-114727853D01*
X150280849Y-114727853D01*
X150507458Y-114633989D01*
X150828989Y-114312458D01*
X151003000Y-113892357D01*
X151003000Y-113437643D01*
X150828989Y-113017542D01*
X150507458Y-112696011D01*
X150087357Y-112522000D01*
X149632643Y-112522000D01*
X149212542Y-112696011D01*
X148891011Y-113017542D01*
X148717000Y-113437643D01*
X148463000Y-113437643D01*
X148288989Y-113017542D01*
X147967458Y-112696011D01*
X147547357Y-112522000D01*
X147092643Y-112522000D01*
X146672542Y-112696011D01*
X146351011Y-113017542D01*
X146177000Y-113437643D01*
X145580000Y-113437643D01*
X145580000Y-113379561D01*
X145361534Y-112852138D01*
X144957862Y-112448466D01*
X144828784Y-112395000D01*
X144957862Y-112341534D01*
X145131753Y-112167643D01*
X153162000Y-112167643D01*
X153162000Y-112622357D01*
X153336011Y-113042458D01*
X153657542Y-113363989D01*
X154077643Y-113538000D01*
X154532357Y-113538000D01*
X154952458Y-113363989D01*
X155273989Y-113042458D01*
X155364952Y-112822853D01*
X171043600Y-112822853D01*
X171043600Y-113237147D01*
X171202144Y-113619906D01*
X171495094Y-113912856D01*
X171877853Y-114071400D01*
X172292147Y-114071400D01*
X172674906Y-113912856D01*
X172967856Y-113619906D01*
X173034980Y-113457853D01*
X191998600Y-113457853D01*
X191998600Y-113872147D01*
X192157144Y-114254906D01*
X192450094Y-114547856D01*
X192832853Y-114706400D01*
X193247147Y-114706400D01*
X193629906Y-114547856D01*
X193903600Y-114274162D01*
X193903600Y-114507147D01*
X194062144Y-114889906D01*
X194355094Y-115182856D01*
X194737853Y-115341400D01*
X195152147Y-115341400D01*
X195534906Y-115182856D01*
X195827856Y-114889906D01*
X195986400Y-114507147D01*
X195986400Y-114092853D01*
X195827856Y-113710094D01*
X195534906Y-113417144D01*
X195152147Y-113258600D01*
X194737853Y-113258600D01*
X194355094Y-113417144D01*
X194081400Y-113690838D01*
X194081400Y-113457853D01*
X193922856Y-113075094D01*
X193629906Y-112782144D01*
X193247147Y-112623600D01*
X192832853Y-112623600D01*
X192450094Y-112782144D01*
X192157144Y-113075094D01*
X191998600Y-113457853D01*
X173034980Y-113457853D01*
X173126400Y-113237147D01*
X173126400Y-112822853D01*
X172967856Y-112440094D01*
X172674906Y-112147144D01*
X172292147Y-111988600D01*
X171877853Y-111988600D01*
X171495094Y-112147144D01*
X171202144Y-112440094D01*
X171043600Y-112822853D01*
X155364952Y-112822853D01*
X155448000Y-112622357D01*
X155448000Y-112167643D01*
X155273989Y-111747542D01*
X154952458Y-111426011D01*
X154532357Y-111252000D01*
X154077643Y-111252000D01*
X153657542Y-111426011D01*
X153336011Y-111747542D01*
X153162000Y-112167643D01*
X145131753Y-112167643D01*
X145361534Y-111937862D01*
X145580000Y-111410439D01*
X145580000Y-110917853D01*
X147548600Y-110917853D01*
X147548600Y-111332147D01*
X147707144Y-111714906D01*
X148000094Y-112007856D01*
X148382853Y-112166400D01*
X148797147Y-112166400D01*
X149179906Y-112007856D01*
X149472856Y-111714906D01*
X149631400Y-111332147D01*
X149631400Y-110917853D01*
X149472856Y-110535094D01*
X149179906Y-110242144D01*
X148797147Y-110083600D01*
X148382853Y-110083600D01*
X148000094Y-110242144D01*
X147707144Y-110535094D01*
X147548600Y-110917853D01*
X145580000Y-110917853D01*
X145580000Y-110839561D01*
X145361534Y-110312138D01*
X144957862Y-109908466D01*
X144828784Y-109855000D01*
X144957862Y-109801534D01*
X145111543Y-109647853D01*
X150088600Y-109647853D01*
X150088600Y-110062147D01*
X150247144Y-110444906D01*
X150540094Y-110737856D01*
X150922853Y-110896400D01*
X151337147Y-110896400D01*
X151719906Y-110737856D01*
X152012856Y-110444906D01*
X152079980Y-110282853D01*
X157073600Y-110282853D01*
X157073600Y-110697147D01*
X157232144Y-111079906D01*
X157525094Y-111372856D01*
X157907853Y-111531400D01*
X158322147Y-111531400D01*
X158704906Y-111372856D01*
X158997856Y-111079906D01*
X159064980Y-110917853D01*
X160248600Y-110917853D01*
X160248600Y-111332147D01*
X160407144Y-111714906D01*
X160700094Y-112007856D01*
X161082853Y-112166400D01*
X161497147Y-112166400D01*
X161879906Y-112007856D01*
X162172856Y-111714906D01*
X162187514Y-111679518D01*
X162226011Y-111772458D01*
X162547542Y-112093989D01*
X162967643Y-112268000D01*
X163422357Y-112268000D01*
X163842458Y-112093989D01*
X164163989Y-111772458D01*
X164338000Y-111352357D01*
X164338000Y-110917853D01*
X164693600Y-110917853D01*
X164693600Y-111332147D01*
X164852144Y-111714906D01*
X165145094Y-112007856D01*
X165527853Y-112166400D01*
X165942147Y-112166400D01*
X166324906Y-112007856D01*
X166617856Y-111714906D01*
X166776400Y-111332147D01*
X166776400Y-110917853D01*
X166617856Y-110535094D01*
X166324906Y-110242144D01*
X165942147Y-110083600D01*
X165527853Y-110083600D01*
X165145094Y-110242144D01*
X164852144Y-110535094D01*
X164693600Y-110917853D01*
X164338000Y-110917853D01*
X164338000Y-110897643D01*
X164163989Y-110477542D01*
X163842458Y-110156011D01*
X163422357Y-109982000D01*
X162967643Y-109982000D01*
X162547542Y-110156011D01*
X162226011Y-110477542D01*
X162187514Y-110570482D01*
X162172856Y-110535094D01*
X161879906Y-110242144D01*
X161497147Y-110083600D01*
X161082853Y-110083600D01*
X160700094Y-110242144D01*
X160407144Y-110535094D01*
X160248600Y-110917853D01*
X159064980Y-110917853D01*
X159156400Y-110697147D01*
X159156400Y-110282853D01*
X158997856Y-109900094D01*
X158704906Y-109607144D01*
X158322147Y-109448600D01*
X157907853Y-109448600D01*
X157525094Y-109607144D01*
X157232144Y-109900094D01*
X157073600Y-110282853D01*
X152079980Y-110282853D01*
X152104095Y-110224635D01*
X152192853Y-110261400D01*
X152607147Y-110261400D01*
X152989906Y-110102856D01*
X153282856Y-109809906D01*
X153441400Y-109427147D01*
X153441400Y-109012853D01*
X168503600Y-109012853D01*
X168503600Y-109427147D01*
X168662144Y-109809906D01*
X168955094Y-110102856D01*
X169337853Y-110261400D01*
X169550537Y-110261400D01*
X169423600Y-110567853D01*
X169423600Y-110982147D01*
X169582144Y-111364906D01*
X169875094Y-111657856D01*
X170257853Y-111816400D01*
X170672147Y-111816400D01*
X171054906Y-111657856D01*
X171347856Y-111364906D01*
X171506400Y-110982147D01*
X171506400Y-110567853D01*
X171347856Y-110185094D01*
X171054906Y-109892144D01*
X170672147Y-109733600D01*
X170459463Y-109733600D01*
X170494980Y-109647853D01*
X186283600Y-109647853D01*
X186283600Y-110062147D01*
X186442144Y-110444906D01*
X186487238Y-110490000D01*
X186442144Y-110535094D01*
X186283600Y-110917853D01*
X186283600Y-111332147D01*
X186442144Y-111714906D01*
X186735094Y-112007856D01*
X187117853Y-112166400D01*
X187532147Y-112166400D01*
X187568770Y-112151230D01*
X187553600Y-112187853D01*
X187553600Y-112602147D01*
X187712144Y-112984906D01*
X188005094Y-113277856D01*
X188387853Y-113436400D01*
X188802147Y-113436400D01*
X189184906Y-113277856D01*
X189477856Y-112984906D01*
X189636400Y-112602147D01*
X189636400Y-112187853D01*
X189477856Y-111805094D01*
X189184906Y-111512144D01*
X188802147Y-111353600D01*
X188387853Y-111353600D01*
X188351230Y-111368770D01*
X188366400Y-111332147D01*
X188366400Y-110917853D01*
X200888574Y-110917853D01*
X200888574Y-111332147D01*
X201047118Y-111714906D01*
X201340068Y-112007856D01*
X201722827Y-112166400D01*
X202137121Y-112166400D01*
X202519880Y-112007856D01*
X202812830Y-111714906D01*
X202971374Y-111332147D01*
X202971374Y-110917853D01*
X202812830Y-110535094D01*
X202519880Y-110242144D01*
X202137121Y-110083600D01*
X201722827Y-110083600D01*
X201340068Y-110242144D01*
X201047118Y-110535094D01*
X200888574Y-110917853D01*
X188366400Y-110917853D01*
X188207856Y-110535094D01*
X188162762Y-110490000D01*
X188207856Y-110444906D01*
X188366400Y-110062147D01*
X188366400Y-109647853D01*
X188207856Y-109265094D01*
X187914906Y-108972144D01*
X187532147Y-108813600D01*
X187117853Y-108813600D01*
X186735094Y-108972144D01*
X186442144Y-109265094D01*
X186283600Y-109647853D01*
X170494980Y-109647853D01*
X170586400Y-109427147D01*
X170586400Y-109092485D01*
X170587643Y-109093000D01*
X171042357Y-109093000D01*
X171462458Y-108918989D01*
X171783989Y-108597458D01*
X171958000Y-108177357D01*
X171958000Y-107722643D01*
X171783989Y-107302542D01*
X171462458Y-106981011D01*
X171042357Y-106807000D01*
X170587643Y-106807000D01*
X170167542Y-106981011D01*
X169846011Y-107302542D01*
X169672000Y-107722643D01*
X169672000Y-108177357D01*
X169672515Y-108178600D01*
X169337853Y-108178600D01*
X168955094Y-108337144D01*
X168662144Y-108630094D01*
X168503600Y-109012853D01*
X153441400Y-109012853D01*
X153282856Y-108630094D01*
X152989906Y-108337144D01*
X152607147Y-108178600D01*
X152192853Y-108178600D01*
X151810094Y-108337144D01*
X151517144Y-108630094D01*
X151425905Y-108850365D01*
X151337147Y-108813600D01*
X150922853Y-108813600D01*
X150540094Y-108972144D01*
X150247144Y-109265094D01*
X150088600Y-109647853D01*
X145111543Y-109647853D01*
X145361534Y-109397862D01*
X145580000Y-108870439D01*
X145580000Y-108299561D01*
X145361534Y-107772138D01*
X144957862Y-107368466D01*
X144828784Y-107315000D01*
X144957862Y-107261534D01*
X145361534Y-106857862D01*
X145580000Y-106330439D01*
X145580000Y-105759561D01*
X145361534Y-105232138D01*
X144957862Y-104828466D01*
X144828784Y-104775000D01*
X144957862Y-104721534D01*
X145111543Y-104567853D01*
X158343600Y-104567853D01*
X158343600Y-104982147D01*
X158502144Y-105364906D01*
X158795094Y-105657856D01*
X159177853Y-105816400D01*
X159592147Y-105816400D01*
X159974906Y-105657856D01*
X160267856Y-105364906D01*
X160334980Y-105202853D01*
X163423600Y-105202853D01*
X163423600Y-105617147D01*
X163582144Y-105999906D01*
X163875094Y-106292856D01*
X164257853Y-106451400D01*
X164672147Y-106451400D01*
X165054906Y-106292856D01*
X165347856Y-105999906D01*
X165414980Y-105837853D01*
X168503600Y-105837853D01*
X168503600Y-106252147D01*
X168662144Y-106634906D01*
X168955094Y-106927856D01*
X169337853Y-107086400D01*
X169752147Y-107086400D01*
X170134906Y-106927856D01*
X170427856Y-106634906D01*
X170586400Y-106252147D01*
X170586400Y-105837853D01*
X170571230Y-105801230D01*
X170607853Y-105816400D01*
X171022147Y-105816400D01*
X171404906Y-105657856D01*
X171697856Y-105364906D01*
X171856400Y-104982147D01*
X171856400Y-104567853D01*
X171697856Y-104185094D01*
X171652762Y-104140000D01*
X171697856Y-104094906D01*
X171856400Y-103712147D01*
X171856400Y-103297853D01*
X171697856Y-102915094D01*
X171445615Y-102662853D01*
X173583600Y-102662853D01*
X173583600Y-103077147D01*
X173742144Y-103459906D01*
X173787238Y-103505000D01*
X173742144Y-103550094D01*
X173583600Y-103932853D01*
X173583600Y-104347147D01*
X173742144Y-104729906D01*
X173787238Y-104775000D01*
X173742144Y-104820094D01*
X173583600Y-105202853D01*
X173583600Y-105617147D01*
X173742144Y-105999906D01*
X174035094Y-106292856D01*
X174417853Y-106451400D01*
X174832147Y-106451400D01*
X175214906Y-106292856D01*
X175507856Y-105999906D01*
X175666400Y-105617147D01*
X175666400Y-105202853D01*
X175507856Y-104820094D01*
X175462762Y-104775000D01*
X175507856Y-104729906D01*
X175666400Y-104347147D01*
X175666400Y-103932853D01*
X175653844Y-103902538D01*
X189306200Y-103902538D01*
X189306200Y-104377462D01*
X189487945Y-104816233D01*
X189823767Y-105152055D01*
X190262538Y-105333800D01*
X190737462Y-105333800D01*
X191176233Y-105152055D01*
X191512055Y-104816233D01*
X191693800Y-104377462D01*
X191693800Y-104266562D01*
X191815094Y-104387856D01*
X192197853Y-104546400D01*
X192612147Y-104546400D01*
X192700905Y-104509635D01*
X192792144Y-104729906D01*
X193085094Y-105022856D01*
X193467853Y-105181400D01*
X193882147Y-105181400D01*
X194264906Y-105022856D01*
X194539705Y-104748057D01*
X194567945Y-104816233D01*
X194903767Y-105152055D01*
X195342538Y-105333800D01*
X195817462Y-105333800D01*
X196256233Y-105152055D01*
X196592055Y-104816233D01*
X196773800Y-104377462D01*
X196773800Y-103902538D01*
X196592055Y-103463767D01*
X196256233Y-103127945D01*
X195817462Y-102946200D01*
X195342538Y-102946200D01*
X194903767Y-103127945D01*
X194567945Y-103463767D01*
X194539705Y-103531943D01*
X194264906Y-103257144D01*
X193882147Y-103098600D01*
X193467853Y-103098600D01*
X193379095Y-103135365D01*
X193287856Y-102915094D01*
X193035615Y-102662853D01*
X197713600Y-102662853D01*
X197713600Y-103077147D01*
X197872144Y-103459906D01*
X197917238Y-103505000D01*
X197872144Y-103550094D01*
X197713600Y-103932853D01*
X197713600Y-104347147D01*
X197872144Y-104729906D01*
X198165094Y-105022856D01*
X198547853Y-105181400D01*
X198962147Y-105181400D01*
X199344906Y-105022856D01*
X199390000Y-104977762D01*
X199435094Y-105022856D01*
X199817853Y-105181400D01*
X200232147Y-105181400D01*
X200614906Y-105022856D01*
X200907856Y-104729906D01*
X201066400Y-104347147D01*
X201066400Y-103932853D01*
X200907856Y-103550094D01*
X200655615Y-103297853D01*
X204063600Y-103297853D01*
X204063600Y-103712147D01*
X204222144Y-104094906D01*
X204515094Y-104387856D01*
X204897853Y-104546400D01*
X205312147Y-104546400D01*
X205694906Y-104387856D01*
X205987856Y-104094906D01*
X206146400Y-103712147D01*
X206146400Y-103297853D01*
X205987856Y-102915094D01*
X205694906Y-102622144D01*
X205312147Y-102463600D01*
X204897853Y-102463600D01*
X204515094Y-102622144D01*
X204222144Y-102915094D01*
X204063600Y-103297853D01*
X200655615Y-103297853D01*
X200614906Y-103257144D01*
X200232147Y-103098600D01*
X199817853Y-103098600D01*
X199781230Y-103113770D01*
X199796400Y-103077147D01*
X199796400Y-102662853D01*
X199637856Y-102280094D01*
X199344906Y-101987144D01*
X198962147Y-101828600D01*
X198547853Y-101828600D01*
X198165094Y-101987144D01*
X197872144Y-102280094D01*
X197713600Y-102662853D01*
X193035615Y-102662853D01*
X192994906Y-102622144D01*
X192612147Y-102463600D01*
X192197853Y-102463600D01*
X191815094Y-102622144D01*
X191522144Y-102915094D01*
X191363600Y-103297853D01*
X191363600Y-103315312D01*
X191176233Y-103127945D01*
X190737462Y-102946200D01*
X190262538Y-102946200D01*
X189823767Y-103127945D01*
X189487945Y-103463767D01*
X189306200Y-103902538D01*
X175653844Y-103902538D01*
X175507856Y-103550094D01*
X175462762Y-103505000D01*
X175507856Y-103459906D01*
X175666400Y-103077147D01*
X175666400Y-102662853D01*
X175507856Y-102280094D01*
X175214906Y-101987144D01*
X174832147Y-101828600D01*
X174417853Y-101828600D01*
X174035094Y-101987144D01*
X173742144Y-102280094D01*
X173583600Y-102662853D01*
X171445615Y-102662853D01*
X171404906Y-102622144D01*
X171022147Y-102463600D01*
X170607853Y-102463600D01*
X170225094Y-102622144D01*
X169932144Y-102915094D01*
X169773600Y-103297853D01*
X169773600Y-103712147D01*
X169932144Y-104094906D01*
X169977238Y-104140000D01*
X169932144Y-104185094D01*
X169773600Y-104567853D01*
X169773600Y-104982147D01*
X169788770Y-105018770D01*
X169752147Y-105003600D01*
X169337853Y-105003600D01*
X168955094Y-105162144D01*
X168662144Y-105455094D01*
X168503600Y-105837853D01*
X165414980Y-105837853D01*
X165506400Y-105617147D01*
X165506400Y-105202853D01*
X165347856Y-104820094D01*
X165054906Y-104527144D01*
X164672147Y-104368600D01*
X164257853Y-104368600D01*
X163875094Y-104527144D01*
X163582144Y-104820094D01*
X163423600Y-105202853D01*
X160334980Y-105202853D01*
X160426400Y-104982147D01*
X160426400Y-104567853D01*
X160389635Y-104479095D01*
X160609906Y-104387856D01*
X160902856Y-104094906D01*
X161061400Y-103712147D01*
X161061400Y-103297853D01*
X166598600Y-103297853D01*
X166598600Y-103712147D01*
X166757144Y-104094906D01*
X167050094Y-104387856D01*
X167432853Y-104546400D01*
X167847147Y-104546400D01*
X168229906Y-104387856D01*
X168522856Y-104094906D01*
X168681400Y-103712147D01*
X168681400Y-103297853D01*
X168666230Y-103261230D01*
X168702853Y-103276400D01*
X169117147Y-103276400D01*
X169499906Y-103117856D01*
X169792856Y-102824906D01*
X169951400Y-102442147D01*
X169951400Y-102027853D01*
X169792856Y-101645094D01*
X169747762Y-101600000D01*
X169792856Y-101554906D01*
X169951400Y-101172147D01*
X169951400Y-100757853D01*
X169792856Y-100375094D01*
X169550912Y-100133150D01*
X192815600Y-100133150D01*
X192815600Y-101834090D01*
X192881337Y-101992795D01*
X193002805Y-102114262D01*
X193161509Y-102180000D01*
X194862450Y-102180000D01*
X194970400Y-102072050D01*
X194970400Y-100025200D01*
X195224400Y-100025200D01*
X195224400Y-102072050D01*
X195332350Y-102180000D01*
X197033291Y-102180000D01*
X197191995Y-102114262D01*
X197313463Y-101992795D01*
X197379200Y-101834090D01*
X197379200Y-100133150D01*
X197271250Y-100025200D01*
X195224400Y-100025200D01*
X194970400Y-100025200D01*
X192923550Y-100025200D01*
X192815600Y-100133150D01*
X169550912Y-100133150D01*
X169499906Y-100082144D01*
X169117147Y-99923600D01*
X168702853Y-99923600D01*
X168320094Y-100082144D01*
X168027144Y-100375094D01*
X167868600Y-100757853D01*
X167868600Y-101172147D01*
X168027144Y-101554906D01*
X168072238Y-101600000D01*
X168027144Y-101645094D01*
X167868600Y-102027853D01*
X167868600Y-102442147D01*
X167883770Y-102478770D01*
X167847147Y-102463600D01*
X167432853Y-102463600D01*
X167050094Y-102622144D01*
X166757144Y-102915094D01*
X166598600Y-103297853D01*
X161061400Y-103297853D01*
X161024635Y-103209095D01*
X161244906Y-103117856D01*
X161537856Y-102824906D01*
X161696400Y-102442147D01*
X161696400Y-102027853D01*
X161681230Y-101991230D01*
X161717853Y-102006400D01*
X162132147Y-102006400D01*
X162514906Y-101847856D01*
X162807856Y-101554906D01*
X162966400Y-101172147D01*
X162966400Y-100757853D01*
X162951230Y-100721230D01*
X162987853Y-100736400D01*
X163402147Y-100736400D01*
X163784906Y-100577856D01*
X163830000Y-100532762D01*
X163875094Y-100577856D01*
X164257853Y-100736400D01*
X164672147Y-100736400D01*
X164708770Y-100721230D01*
X164693600Y-100757853D01*
X164693600Y-101172147D01*
X164852144Y-101554906D01*
X165145094Y-101847856D01*
X165527853Y-102006400D01*
X165942147Y-102006400D01*
X166324906Y-101847856D01*
X166617856Y-101554906D01*
X166776400Y-101172147D01*
X166776400Y-100757853D01*
X166617856Y-100375094D01*
X166324906Y-100082144D01*
X165942147Y-99923600D01*
X165527853Y-99923600D01*
X165491230Y-99938770D01*
X165506400Y-99902147D01*
X165506400Y-99487853D01*
X165469635Y-99399095D01*
X165689906Y-99307856D01*
X165982856Y-99014906D01*
X166141400Y-98632147D01*
X166141400Y-98217853D01*
X165982856Y-97835094D01*
X165730615Y-97582853D01*
X171043600Y-97582853D01*
X171043600Y-97997147D01*
X171202144Y-98379906D01*
X171495094Y-98672856D01*
X171877853Y-98831400D01*
X172292147Y-98831400D01*
X172674906Y-98672856D01*
X172967856Y-98379906D01*
X173126400Y-97997147D01*
X173126400Y-97582853D01*
X172967856Y-97200094D01*
X172715615Y-96947853D01*
X182473600Y-96947853D01*
X182473600Y-97362147D01*
X182632144Y-97744906D01*
X182925094Y-98037856D01*
X183307853Y-98196400D01*
X183722147Y-98196400D01*
X184104906Y-98037856D01*
X184180452Y-97962310D01*
X192815600Y-97962310D01*
X192815600Y-99663250D01*
X192923550Y-99771200D01*
X194970400Y-99771200D01*
X194970400Y-97724350D01*
X195224400Y-97724350D01*
X195224400Y-99771200D01*
X197271250Y-99771200D01*
X197379200Y-99663250D01*
X197379200Y-97962310D01*
X197313463Y-97803605D01*
X197191995Y-97682138D01*
X197033291Y-97616400D01*
X195332350Y-97616400D01*
X195224400Y-97724350D01*
X194970400Y-97724350D01*
X194862450Y-97616400D01*
X193161509Y-97616400D01*
X193002805Y-97682138D01*
X192881337Y-97803605D01*
X192815600Y-97962310D01*
X184180452Y-97962310D01*
X184397856Y-97744906D01*
X184556400Y-97362147D01*
X184556400Y-96947853D01*
X184397856Y-96565094D01*
X184104906Y-96272144D01*
X183722147Y-96113600D01*
X183307853Y-96113600D01*
X182925094Y-96272144D01*
X182632144Y-96565094D01*
X182473600Y-96947853D01*
X172715615Y-96947853D01*
X172674906Y-96907144D01*
X172292147Y-96748600D01*
X171877853Y-96748600D01*
X171495094Y-96907144D01*
X171202144Y-97200094D01*
X171043600Y-97582853D01*
X165730615Y-97582853D01*
X165689906Y-97542144D01*
X165307147Y-97383600D01*
X164892853Y-97383600D01*
X164510094Y-97542144D01*
X164217144Y-97835094D01*
X164058600Y-98217853D01*
X164058600Y-98632147D01*
X164095365Y-98720905D01*
X163875094Y-98812144D01*
X163830000Y-98857238D01*
X163784906Y-98812144D01*
X163402147Y-98653600D01*
X162987853Y-98653600D01*
X162605094Y-98812144D01*
X162312144Y-99105094D01*
X162153600Y-99487853D01*
X162153600Y-99902147D01*
X162168770Y-99938770D01*
X162132147Y-99923600D01*
X161717853Y-99923600D01*
X161335094Y-100082144D01*
X161290000Y-100127238D01*
X161244906Y-100082144D01*
X160862147Y-99923600D01*
X160447853Y-99923600D01*
X160065094Y-100082144D01*
X159772144Y-100375094D01*
X159613600Y-100757853D01*
X159613600Y-101172147D01*
X159772144Y-101554906D01*
X159817238Y-101600000D01*
X159772144Y-101645094D01*
X159613600Y-102027853D01*
X159613600Y-102442147D01*
X159650365Y-102530905D01*
X159430094Y-102622144D01*
X159137144Y-102915094D01*
X158978600Y-103297853D01*
X158978600Y-103712147D01*
X159015365Y-103800905D01*
X158795094Y-103892144D01*
X158502144Y-104185094D01*
X158343600Y-104567853D01*
X145111543Y-104567853D01*
X145361534Y-104317862D01*
X145580000Y-103790439D01*
X145580000Y-103219561D01*
X145361534Y-102692138D01*
X144957862Y-102288466D01*
X144828784Y-102235000D01*
X144957862Y-102181534D01*
X145361534Y-101777862D01*
X145521010Y-101392853D01*
X146278600Y-101392853D01*
X146278600Y-101807147D01*
X146437144Y-102189906D01*
X146730094Y-102482856D01*
X147112853Y-102641400D01*
X147527147Y-102641400D01*
X147909906Y-102482856D01*
X147955000Y-102437762D01*
X148000094Y-102482856D01*
X148382853Y-102641400D01*
X148797147Y-102641400D01*
X149179906Y-102482856D01*
X149472856Y-102189906D01*
X149631400Y-101807147D01*
X149631400Y-101392853D01*
X150723600Y-101392853D01*
X150723600Y-101807147D01*
X150882144Y-102189906D01*
X151175094Y-102482856D01*
X151557853Y-102641400D01*
X151972147Y-102641400D01*
X152354906Y-102482856D01*
X152647856Y-102189906D01*
X152806400Y-101807147D01*
X152806400Y-101392853D01*
X152647856Y-101010094D01*
X152354906Y-100717144D01*
X151972147Y-100558600D01*
X151557853Y-100558600D01*
X151175094Y-100717144D01*
X150882144Y-101010094D01*
X150723600Y-101392853D01*
X149631400Y-101392853D01*
X149472856Y-101010094D01*
X149179906Y-100717144D01*
X148797147Y-100558600D01*
X148382853Y-100558600D01*
X148000094Y-100717144D01*
X147955000Y-100762238D01*
X147909906Y-100717144D01*
X147527147Y-100558600D01*
X147112853Y-100558600D01*
X146730094Y-100717144D01*
X146437144Y-101010094D01*
X146278600Y-101392853D01*
X145521010Y-101392853D01*
X145580000Y-101250439D01*
X145580000Y-100736400D01*
X145622147Y-100736400D01*
X146004906Y-100577856D01*
X146297856Y-100284906D01*
X146456400Y-99902147D01*
X146456400Y-99487853D01*
X146297856Y-99105094D01*
X146004906Y-98812144D01*
X145622147Y-98653600D01*
X145580000Y-98653600D01*
X145580000Y-98139561D01*
X145361534Y-97612138D01*
X145332249Y-97582853D01*
X146278600Y-97582853D01*
X146278600Y-97997147D01*
X146437144Y-98379906D01*
X146730094Y-98672856D01*
X147112853Y-98831400D01*
X147527147Y-98831400D01*
X147909906Y-98672856D01*
X148183600Y-98399162D01*
X148183600Y-98632147D01*
X148342144Y-99014906D01*
X148635094Y-99307856D01*
X149017853Y-99466400D01*
X149432147Y-99466400D01*
X149814906Y-99307856D01*
X149860000Y-99262762D01*
X149905094Y-99307856D01*
X150287853Y-99466400D01*
X150702147Y-99466400D01*
X150790905Y-99429635D01*
X150882144Y-99649906D01*
X151175094Y-99942856D01*
X151557853Y-100101400D01*
X151972147Y-100101400D01*
X152354906Y-99942856D01*
X152647856Y-99649906D01*
X152806400Y-99267147D01*
X152806400Y-98852853D01*
X152647856Y-98470094D01*
X152375405Y-98197643D01*
X153162000Y-98197643D01*
X153162000Y-98652357D01*
X153336011Y-99072458D01*
X153657542Y-99393989D01*
X154077643Y-99568000D01*
X154532357Y-99568000D01*
X154725849Y-99487853D01*
X157073600Y-99487853D01*
X157073600Y-99902147D01*
X157232144Y-100284906D01*
X157525094Y-100577856D01*
X157907853Y-100736400D01*
X158322147Y-100736400D01*
X158704906Y-100577856D01*
X158997856Y-100284906D01*
X159156400Y-99902147D01*
X159156400Y-99487853D01*
X158997856Y-99105094D01*
X158704906Y-98812144D01*
X158322147Y-98653600D01*
X157907853Y-98653600D01*
X157525094Y-98812144D01*
X157232144Y-99105094D01*
X157073600Y-99487853D01*
X154725849Y-99487853D01*
X154952458Y-99393989D01*
X155273989Y-99072458D01*
X155448000Y-98652357D01*
X155448000Y-98197643D01*
X155273989Y-97777542D01*
X154952458Y-97456011D01*
X154532357Y-97282000D01*
X154077643Y-97282000D01*
X153657542Y-97456011D01*
X153336011Y-97777542D01*
X153162000Y-98197643D01*
X152375405Y-98197643D01*
X152354906Y-98177144D01*
X151972147Y-98018600D01*
X151557853Y-98018600D01*
X151469095Y-98055365D01*
X151377856Y-97835094D01*
X151084906Y-97542144D01*
X150702147Y-97383600D01*
X150287853Y-97383600D01*
X149905094Y-97542144D01*
X149860000Y-97587238D01*
X149814906Y-97542144D01*
X149432147Y-97383600D01*
X149017853Y-97383600D01*
X148635094Y-97542144D01*
X148361400Y-97815838D01*
X148361400Y-97582853D01*
X148202856Y-97200094D01*
X147909906Y-96907144D01*
X147527147Y-96748600D01*
X147112853Y-96748600D01*
X146730094Y-96907144D01*
X146437144Y-97200094D01*
X146278600Y-97582853D01*
X145332249Y-97582853D01*
X144957862Y-97208466D01*
X144430439Y-96990000D01*
X143859561Y-96990000D01*
X143332138Y-97208466D01*
X142928466Y-97612138D01*
X142875000Y-97741216D01*
X142821534Y-97612138D01*
X142417862Y-97208466D01*
X141890439Y-96990000D01*
X141319561Y-96990000D01*
X140792138Y-97208466D01*
X140388466Y-97612138D01*
X140170000Y-98139561D01*
X139205728Y-98139561D01*
X139242440Y-97955000D01*
X139242440Y-96355000D01*
X139193157Y-96107235D01*
X139052809Y-95897191D01*
X138842765Y-95756843D01*
X138595000Y-95707560D01*
X136995000Y-95707560D01*
X136747235Y-95756843D01*
X136652000Y-95820477D01*
X136652000Y-92482643D01*
X145542000Y-92482643D01*
X145542000Y-92937357D01*
X145716011Y-93357458D01*
X146037542Y-93678989D01*
X146457643Y-93853000D01*
X146912357Y-93853000D01*
X147105849Y-93772853D01*
X148818600Y-93772853D01*
X148818600Y-94187147D01*
X148977144Y-94569906D01*
X149270094Y-94862856D01*
X149652853Y-95021400D01*
X150067147Y-95021400D01*
X150449906Y-94862856D01*
X150742856Y-94569906D01*
X150901400Y-94187147D01*
X150901400Y-94097847D01*
X151117542Y-94313989D01*
X151537643Y-94488000D01*
X151892000Y-94488000D01*
X151892000Y-94842357D01*
X152066011Y-95262458D01*
X152387542Y-95583989D01*
X152807643Y-95758000D01*
X153262357Y-95758000D01*
X153682458Y-95583989D01*
X154003989Y-95262458D01*
X154094952Y-95042853D01*
X155168600Y-95042853D01*
X155168600Y-95457147D01*
X155327144Y-95839906D01*
X155620094Y-96132856D01*
X156002853Y-96291400D01*
X156417147Y-96291400D01*
X156799906Y-96132856D01*
X156845000Y-96087762D01*
X156890094Y-96132856D01*
X157272853Y-96291400D01*
X157687147Y-96291400D01*
X158069906Y-96132856D01*
X158362856Y-95839906D01*
X158521400Y-95457147D01*
X158521400Y-95042853D01*
X158506230Y-95006230D01*
X158542853Y-95021400D01*
X158957147Y-95021400D01*
X159339906Y-94862856D01*
X159632856Y-94569906D01*
X159791400Y-94187147D01*
X159791400Y-93772853D01*
X159632856Y-93390094D01*
X159339906Y-93097144D01*
X158957147Y-92938600D01*
X158542853Y-92938600D01*
X158160094Y-93097144D01*
X158115000Y-93142238D01*
X158069906Y-93097144D01*
X157687147Y-92938600D01*
X157272853Y-92938600D01*
X156890094Y-93097144D01*
X156597144Y-93390094D01*
X156438600Y-93772853D01*
X156438600Y-94187147D01*
X156453770Y-94223770D01*
X156417147Y-94208600D01*
X156002853Y-94208600D01*
X155620094Y-94367144D01*
X155327144Y-94660094D01*
X155168600Y-95042853D01*
X154094952Y-95042853D01*
X154178000Y-94842357D01*
X154178000Y-94387643D01*
X154003989Y-93967542D01*
X153682458Y-93646011D01*
X153262357Y-93472000D01*
X152908000Y-93472000D01*
X152908000Y-93117643D01*
X152733989Y-92697542D01*
X152412458Y-92376011D01*
X151992357Y-92202000D01*
X151537643Y-92202000D01*
X151117542Y-92376011D01*
X150796011Y-92697542D01*
X150622000Y-93117643D01*
X150622000Y-93269238D01*
X150449906Y-93097144D01*
X150067147Y-92938600D01*
X149652853Y-92938600D01*
X149270094Y-93097144D01*
X148977144Y-93390094D01*
X148818600Y-93772853D01*
X147105849Y-93772853D01*
X147332458Y-93678989D01*
X147653989Y-93357458D01*
X147828000Y-92937357D01*
X147828000Y-92482643D01*
X147653989Y-92062542D01*
X147459300Y-91867853D01*
X166598600Y-91867853D01*
X166598600Y-92282147D01*
X166757144Y-92664906D01*
X167050094Y-92957856D01*
X167176498Y-93010214D01*
X167132000Y-93117643D01*
X167132000Y-93572357D01*
X167306011Y-93992458D01*
X167376475Y-94062922D01*
X167233600Y-94407853D01*
X167233600Y-94822147D01*
X167392144Y-95204906D01*
X167685094Y-95497856D01*
X168067853Y-95656400D01*
X168482147Y-95656400D01*
X168864906Y-95497856D01*
X169157856Y-95204906D01*
X169316400Y-94822147D01*
X169316400Y-94407853D01*
X169173525Y-94062922D01*
X169243989Y-93992458D01*
X169418000Y-93572357D01*
X169418000Y-93117643D01*
X169243989Y-92697542D01*
X168922458Y-92376011D01*
X168681400Y-92276162D01*
X168681400Y-91867853D01*
X168673029Y-91847643D01*
X172847000Y-91847643D01*
X172847000Y-92302357D01*
X173015851Y-92710000D01*
X172847000Y-93117643D01*
X172847000Y-93572357D01*
X173015851Y-93980000D01*
X172847000Y-94387643D01*
X172847000Y-94842357D01*
X173021011Y-95262458D01*
X173342542Y-95583989D01*
X173762643Y-95758000D01*
X174217357Y-95758000D01*
X174637458Y-95583989D01*
X174958989Y-95262458D01*
X175133000Y-94842357D01*
X175133000Y-94387643D01*
X174964149Y-93980000D01*
X175133000Y-93572357D01*
X175133000Y-93117643D01*
X174964149Y-92710000D01*
X175133000Y-92302357D01*
X175133000Y-91847643D01*
X174958989Y-91427542D01*
X174637458Y-91106011D01*
X174217357Y-90932000D01*
X173762643Y-90932000D01*
X173342542Y-91106011D01*
X173021011Y-91427542D01*
X172847000Y-91847643D01*
X168673029Y-91847643D01*
X168522856Y-91485094D01*
X168229906Y-91192144D01*
X167847147Y-91033600D01*
X167432853Y-91033600D01*
X167050094Y-91192144D01*
X166757144Y-91485094D01*
X166598600Y-91867853D01*
X147459300Y-91867853D01*
X147332458Y-91741011D01*
X146912357Y-91567000D01*
X146457643Y-91567000D01*
X146037542Y-91741011D01*
X145716011Y-92062542D01*
X145542000Y-92482643D01*
X136652000Y-92482643D01*
X136652000Y-90597853D01*
X160883600Y-90597853D01*
X160883600Y-91012147D01*
X161042144Y-91394906D01*
X161335094Y-91687856D01*
X161717853Y-91846400D01*
X162132147Y-91846400D01*
X162514906Y-91687856D01*
X162807856Y-91394906D01*
X162966400Y-91012147D01*
X162966400Y-90597853D01*
X162807856Y-90215094D01*
X162514906Y-89922144D01*
X162132147Y-89763600D01*
X161717853Y-89763600D01*
X161335094Y-89922144D01*
X161042144Y-90215094D01*
X160883600Y-90597853D01*
X136652000Y-90597853D01*
X136652000Y-88692853D01*
X143738600Y-88692853D01*
X143738600Y-89107147D01*
X143897144Y-89489906D01*
X144190094Y-89782856D01*
X144572853Y-89941400D01*
X144987147Y-89941400D01*
X145369906Y-89782856D01*
X145662856Y-89489906D01*
X145821400Y-89107147D01*
X145821400Y-88692853D01*
X145662856Y-88310094D01*
X145369906Y-88017144D01*
X144987147Y-87858600D01*
X144572853Y-87858600D01*
X144190094Y-88017144D01*
X143897144Y-88310094D01*
X143738600Y-88692853D01*
X136652000Y-88692853D01*
X136652000Y-85217000D01*
X143383000Y-85217000D01*
X143383000Y-87630000D01*
X143392667Y-87678601D01*
X143420197Y-87719803D01*
X143461399Y-87747333D01*
X143510000Y-87757000D01*
X159628246Y-87757000D01*
X159512000Y-88037643D01*
X159512000Y-88492357D01*
X159686011Y-88912458D01*
X160007542Y-89233989D01*
X160427643Y-89408000D01*
X160882357Y-89408000D01*
X161302458Y-89233989D01*
X161623989Y-88912458D01*
X161798000Y-88492357D01*
X161798000Y-88037643D01*
X161623989Y-87617542D01*
X161417000Y-87410553D01*
X161417000Y-85217000D01*
X165453218Y-85217000D01*
X165328600Y-85517853D01*
X165328600Y-85932147D01*
X165487144Y-86314906D01*
X165780094Y-86607856D01*
X166000365Y-86699095D01*
X165963600Y-86787853D01*
X165963600Y-87202147D01*
X166122144Y-87584906D01*
X166268400Y-87731162D01*
X166268400Y-87959891D01*
X164464691Y-89763600D01*
X164257853Y-89763600D01*
X163875094Y-89922144D01*
X163582144Y-90215094D01*
X163423600Y-90597853D01*
X163423600Y-91012147D01*
X163582144Y-91394906D01*
X163875094Y-91687856D01*
X164257853Y-91846400D01*
X164672147Y-91846400D01*
X165054906Y-91687856D01*
X165347856Y-91394906D01*
X165506400Y-91012147D01*
X165506400Y-90805309D01*
X166983856Y-89327853D01*
X171678600Y-89327853D01*
X171678600Y-89742147D01*
X171837144Y-90124906D01*
X172130094Y-90417856D01*
X172512853Y-90576400D01*
X172927147Y-90576400D01*
X173309906Y-90417856D01*
X173602856Y-90124906D01*
X173761400Y-89742147D01*
X173761400Y-89327853D01*
X173602856Y-88945094D01*
X173309906Y-88652144D01*
X172927147Y-88493600D01*
X172512853Y-88493600D01*
X172130094Y-88652144D01*
X171837144Y-88945094D01*
X171678600Y-89327853D01*
X166983856Y-89327853D01*
X167474558Y-88837151D01*
X167536058Y-88796058D01*
X167698861Y-88552407D01*
X167741600Y-88337544D01*
X167741600Y-88337540D01*
X167756029Y-88265001D01*
X167741600Y-88192462D01*
X167741600Y-87731162D01*
X167887856Y-87584906D01*
X168046400Y-87202147D01*
X168046400Y-86787853D01*
X167887856Y-86405094D01*
X167677762Y-86195000D01*
X171272560Y-86195000D01*
X171272560Y-87795000D01*
X171321843Y-88042765D01*
X171462191Y-88252809D01*
X171672235Y-88393157D01*
X171920000Y-88442440D01*
X173520000Y-88442440D01*
X173767765Y-88393157D01*
X173977809Y-88252809D01*
X174118157Y-88042765D01*
X174144738Y-87909134D01*
X174447138Y-88211534D01*
X174974561Y-88430000D01*
X175545439Y-88430000D01*
X176072862Y-88211534D01*
X176392831Y-87891565D01*
X177083040Y-87891565D01*
X177168311Y-88080510D01*
X177631803Y-88239618D01*
X178120900Y-88209243D01*
X178431689Y-88080510D01*
X178516960Y-87891565D01*
X179623040Y-87891565D01*
X179708311Y-88080510D01*
X180171803Y-88239618D01*
X180660900Y-88209243D01*
X180971689Y-88080510D01*
X181056960Y-87891565D01*
X180340000Y-87174605D01*
X179623040Y-87891565D01*
X178516960Y-87891565D01*
X177800000Y-87174605D01*
X177083040Y-87891565D01*
X176392831Y-87891565D01*
X176476534Y-87807862D01*
X176633034Y-87430037D01*
X176714490Y-87626689D01*
X176903435Y-87711960D01*
X177620395Y-86995000D01*
X177979605Y-86995000D01*
X178696565Y-87711960D01*
X178885510Y-87626689D01*
X179044618Y-87163197D01*
X179023727Y-86826803D01*
X179095382Y-86826803D01*
X179125757Y-87315900D01*
X179254490Y-87626689D01*
X179443435Y-87711960D01*
X180160395Y-86995000D01*
X179443435Y-86278040D01*
X179254490Y-86363311D01*
X179095382Y-86826803D01*
X179023727Y-86826803D01*
X179014243Y-86674100D01*
X178885510Y-86363311D01*
X178696565Y-86278040D01*
X177979605Y-86995000D01*
X177620395Y-86995000D01*
X176903435Y-86278040D01*
X176714490Y-86363311D01*
X176640662Y-86578377D01*
X176476534Y-86182138D01*
X176392831Y-86098435D01*
X177083040Y-86098435D01*
X177800000Y-86815395D01*
X178516960Y-86098435D01*
X179623040Y-86098435D01*
X180340000Y-86815395D01*
X181056960Y-86098435D01*
X180971689Y-85909490D01*
X180508197Y-85750382D01*
X180019100Y-85780757D01*
X179708311Y-85909490D01*
X179623040Y-86098435D01*
X178516960Y-86098435D01*
X178431689Y-85909490D01*
X177968197Y-85750382D01*
X177479100Y-85780757D01*
X177168311Y-85909490D01*
X177083040Y-86098435D01*
X176392831Y-86098435D01*
X176072862Y-85778466D01*
X175545439Y-85560000D01*
X174974561Y-85560000D01*
X174447138Y-85778466D01*
X174144738Y-86080866D01*
X174118157Y-85947235D01*
X173977809Y-85737191D01*
X173767765Y-85596843D01*
X173520000Y-85547560D01*
X171920000Y-85547560D01*
X171672235Y-85596843D01*
X171462191Y-85737191D01*
X171321843Y-85947235D01*
X171272560Y-86195000D01*
X167677762Y-86195000D01*
X167594906Y-86112144D01*
X167374635Y-86020905D01*
X167411400Y-85932147D01*
X167411400Y-85517853D01*
X167286782Y-85217000D01*
X181483000Y-85217000D01*
X181483000Y-86502104D01*
X181425510Y-86363311D01*
X181236565Y-86278040D01*
X180519605Y-86995000D01*
X181236565Y-87711960D01*
X181425510Y-87626689D01*
X181483000Y-87459217D01*
X181483000Y-91148712D01*
X181232945Y-91398767D01*
X181051200Y-91837538D01*
X181051200Y-92312462D01*
X181215866Y-92710000D01*
X181051200Y-93107538D01*
X181051200Y-93582462D01*
X181215866Y-93980000D01*
X181051200Y-94377538D01*
X181051200Y-94852462D01*
X181232945Y-95291233D01*
X181568767Y-95627055D01*
X182007538Y-95808800D01*
X182482462Y-95808800D01*
X182921233Y-95627055D01*
X183257055Y-95291233D01*
X183438800Y-94852462D01*
X183438800Y-94377538D01*
X183274134Y-93980000D01*
X183438800Y-93582462D01*
X183438800Y-93107538D01*
X183274134Y-92710000D01*
X183438800Y-92312462D01*
X183438800Y-91837538D01*
X183326739Y-91567000D01*
X206248000Y-91567000D01*
X206248000Y-123063000D01*
X190627000Y-123063000D01*
X190627000Y-121920000D01*
X190617333Y-121871399D01*
X190589803Y-121830197D01*
X190548601Y-121802667D01*
X190500000Y-121793000D01*
X163830000Y-121793000D01*
X163781399Y-121802667D01*
X163740197Y-121830197D01*
X163712667Y-121871399D01*
X163703000Y-121920000D01*
X163703000Y-123063000D01*
X147601782Y-123063000D01*
X147726400Y-122762147D01*
X147726400Y-122347853D01*
X147567856Y-121965094D01*
X147274906Y-121672144D01*
X146892147Y-121513600D01*
X146477853Y-121513600D01*
X146095094Y-121672144D01*
X145802144Y-121965094D01*
X145643600Y-122347853D01*
X145643600Y-122762147D01*
X145768218Y-123063000D01*
X128661754Y-123063000D01*
X128778000Y-122782357D01*
X128778000Y-122327643D01*
X128609149Y-121920000D01*
X128778000Y-121512357D01*
X128778000Y-121057643D01*
X128603989Y-120637542D01*
X128282458Y-120316011D01*
X127862357Y-120142000D01*
X127407643Y-120142000D01*
X126987542Y-120316011D01*
X126666011Y-120637542D01*
X126492000Y-121057643D01*
X126492000Y-121512357D01*
X126660851Y-121920000D01*
X126492000Y-122327643D01*
X126492000Y-122782357D01*
X126608246Y-123063000D01*
X108712000Y-123063000D01*
X108712000Y-117534561D01*
X117870000Y-117534561D01*
X117870000Y-118105439D01*
X118088466Y-118632862D01*
X118492138Y-119036534D01*
X119019561Y-119255000D01*
X119590439Y-119255000D01*
X120117862Y-119036534D01*
X120521534Y-118632862D01*
X120740000Y-118105439D01*
X120740000Y-117534561D01*
X124370000Y-117534561D01*
X124370000Y-118105439D01*
X124588466Y-118632862D01*
X124992138Y-119036534D01*
X125519561Y-119255000D01*
X126090439Y-119255000D01*
X126617862Y-119036534D01*
X127021534Y-118632862D01*
X127240000Y-118105439D01*
X127240000Y-117882643D01*
X131572000Y-117882643D01*
X131572000Y-118337357D01*
X131746011Y-118757458D01*
X132067542Y-119078989D01*
X132487643Y-119253000D01*
X132942357Y-119253000D01*
X133362458Y-119078989D01*
X133683989Y-118757458D01*
X133858000Y-118337357D01*
X133858000Y-117882643D01*
X133683989Y-117462542D01*
X133362458Y-117141011D01*
X132942357Y-116967000D01*
X132487643Y-116967000D01*
X132067542Y-117141011D01*
X131746011Y-117462542D01*
X131572000Y-117882643D01*
X127240000Y-117882643D01*
X127240000Y-117534561D01*
X127021534Y-117007138D01*
X126617862Y-116603466D01*
X126090439Y-116385000D01*
X125519561Y-116385000D01*
X124992138Y-116603466D01*
X124588466Y-117007138D01*
X124370000Y-117534561D01*
X120740000Y-117534561D01*
X120521534Y-117007138D01*
X120117862Y-116603466D01*
X119590439Y-116385000D01*
X119019561Y-116385000D01*
X118492138Y-116603466D01*
X118088466Y-117007138D01*
X117870000Y-117534561D01*
X108712000Y-117534561D01*
X108712000Y-115804950D01*
X136609200Y-115804950D01*
X136609200Y-116409891D01*
X136674938Y-116568595D01*
X136796405Y-116690063D01*
X136955110Y-116755800D01*
X137560050Y-116755800D01*
X137668000Y-116647850D01*
X137668000Y-115697000D01*
X137922000Y-115697000D01*
X137922000Y-116647850D01*
X138029950Y-116755800D01*
X138634890Y-116755800D01*
X138793595Y-116690063D01*
X138915062Y-116568595D01*
X138980800Y-116409891D01*
X138980800Y-115804950D01*
X138872850Y-115697000D01*
X137922000Y-115697000D01*
X137668000Y-115697000D01*
X136717150Y-115697000D01*
X136609200Y-115804950D01*
X108712000Y-115804950D01*
X108712000Y-114730109D01*
X136609200Y-114730109D01*
X136609200Y-115335050D01*
X136717150Y-115443000D01*
X137668000Y-115443000D01*
X137668000Y-114492150D01*
X137922000Y-114492150D01*
X137922000Y-115443000D01*
X138872850Y-115443000D01*
X138980800Y-115335050D01*
X138980800Y-114730109D01*
X138915062Y-114571405D01*
X138793595Y-114449937D01*
X138634890Y-114384200D01*
X138029950Y-114384200D01*
X137922000Y-114492150D01*
X137668000Y-114492150D01*
X137560050Y-114384200D01*
X136955110Y-114384200D01*
X136796405Y-114449937D01*
X136674938Y-114571405D01*
X136609200Y-114730109D01*
X108712000Y-114730109D01*
X108712000Y-114216565D01*
X118588040Y-114216565D01*
X118673311Y-114405510D01*
X119136803Y-114564618D01*
X119625900Y-114534243D01*
X119936689Y-114405510D01*
X120021960Y-114216565D01*
X125088040Y-114216565D01*
X125173311Y-114405510D01*
X125636803Y-114564618D01*
X126125900Y-114534243D01*
X126436689Y-114405510D01*
X126521960Y-114216565D01*
X125805000Y-113499605D01*
X125088040Y-114216565D01*
X120021960Y-114216565D01*
X119305000Y-113499605D01*
X118588040Y-114216565D01*
X108712000Y-114216565D01*
X108712000Y-113151803D01*
X118060382Y-113151803D01*
X118090757Y-113640900D01*
X118219490Y-113951689D01*
X118408435Y-114036960D01*
X119125395Y-113320000D01*
X119484605Y-113320000D01*
X120201565Y-114036960D01*
X120390510Y-113951689D01*
X120549618Y-113488197D01*
X120528727Y-113151803D01*
X124560382Y-113151803D01*
X124590757Y-113640900D01*
X124719490Y-113951689D01*
X124908435Y-114036960D01*
X125625395Y-113320000D01*
X125984605Y-113320000D01*
X126701565Y-114036960D01*
X126890510Y-113951689D01*
X127049618Y-113488197D01*
X127019243Y-112999100D01*
X126890510Y-112688311D01*
X126701565Y-112603040D01*
X125984605Y-113320000D01*
X125625395Y-113320000D01*
X124908435Y-112603040D01*
X124719490Y-112688311D01*
X124560382Y-113151803D01*
X120528727Y-113151803D01*
X120519243Y-112999100D01*
X120390510Y-112688311D01*
X120201565Y-112603040D01*
X119484605Y-113320000D01*
X119125395Y-113320000D01*
X118408435Y-112603040D01*
X118219490Y-112688311D01*
X118060382Y-113151803D01*
X108712000Y-113151803D01*
X108712000Y-112423435D01*
X118588040Y-112423435D01*
X119305000Y-113140395D01*
X120021960Y-112423435D01*
X125088040Y-112423435D01*
X125805000Y-113140395D01*
X126521960Y-112423435D01*
X126436689Y-112234490D01*
X125973197Y-112075382D01*
X125484100Y-112105757D01*
X125173311Y-112234490D01*
X125088040Y-112423435D01*
X120021960Y-112423435D01*
X119936689Y-112234490D01*
X119473197Y-112075382D01*
X118984100Y-112105757D01*
X118673311Y-112234490D01*
X118588040Y-112423435D01*
X108712000Y-112423435D01*
X108712000Y-110741396D01*
X109042138Y-111071534D01*
X109569561Y-111290000D01*
X110140439Y-111290000D01*
X110667862Y-111071534D01*
X111071534Y-110667862D01*
X111125000Y-110538784D01*
X111178466Y-110667862D01*
X111582138Y-111071534D01*
X112109561Y-111290000D01*
X112680439Y-111290000D01*
X113207862Y-111071534D01*
X113527831Y-110751565D01*
X114218040Y-110751565D01*
X114303311Y-110940510D01*
X114766803Y-111099618D01*
X115255900Y-111069243D01*
X115566689Y-110940510D01*
X115651960Y-110751565D01*
X114935000Y-110034605D01*
X114218040Y-110751565D01*
X113527831Y-110751565D01*
X113611534Y-110667862D01*
X113768034Y-110290037D01*
X113849490Y-110486689D01*
X114038435Y-110571960D01*
X114755395Y-109855000D01*
X115114605Y-109855000D01*
X115831565Y-110571960D01*
X116020510Y-110486689D01*
X116179618Y-110023197D01*
X116149243Y-109534100D01*
X116020510Y-109223311D01*
X115831565Y-109138040D01*
X115114605Y-109855000D01*
X114755395Y-109855000D01*
X114038435Y-109138040D01*
X113849490Y-109223311D01*
X113775662Y-109438377D01*
X113611534Y-109042138D01*
X113207862Y-108638466D01*
X113078784Y-108585000D01*
X113207862Y-108531534D01*
X113611534Y-108127862D01*
X113665000Y-107998784D01*
X113718466Y-108127862D01*
X114122138Y-108531534D01*
X114499963Y-108688034D01*
X114303311Y-108769490D01*
X114218040Y-108958435D01*
X114935000Y-109675395D01*
X115651960Y-108958435D01*
X115566689Y-108769490D01*
X115351623Y-108695662D01*
X115747862Y-108531534D01*
X116151534Y-108127862D01*
X116370000Y-107600439D01*
X116370000Y-107029561D01*
X116151534Y-106502138D01*
X115747862Y-106098466D01*
X115220439Y-105880000D01*
X114649561Y-105880000D01*
X114122138Y-106098466D01*
X113718466Y-106502138D01*
X113665000Y-106631216D01*
X113611534Y-106502138D01*
X113207862Y-106098466D01*
X112680439Y-105880000D01*
X112109561Y-105880000D01*
X111582138Y-106098466D01*
X111279738Y-106400866D01*
X111253157Y-106267235D01*
X111112809Y-106057191D01*
X110902765Y-105916843D01*
X110655000Y-105867560D01*
X109055000Y-105867560D01*
X108807235Y-105916843D01*
X108712000Y-105980477D01*
X108712000Y-105837853D01*
X118338572Y-105837853D01*
X118338572Y-106252147D01*
X118497116Y-106634906D01*
X118790066Y-106927856D01*
X119172825Y-107086400D01*
X119587119Y-107086400D01*
X119969878Y-106927856D01*
X120262828Y-106634906D01*
X120421372Y-106252147D01*
X120421372Y-105837853D01*
X120262828Y-105455094D01*
X119969878Y-105162144D01*
X119587119Y-105003600D01*
X119172825Y-105003600D01*
X118790066Y-105162144D01*
X118497116Y-105455094D01*
X118338572Y-105837853D01*
X108712000Y-105837853D01*
X108712000Y-104401565D01*
X109138040Y-104401565D01*
X109223311Y-104590510D01*
X109686803Y-104749618D01*
X110175900Y-104719243D01*
X110486689Y-104590510D01*
X110571960Y-104401565D01*
X111678040Y-104401565D01*
X111763311Y-104590510D01*
X112226803Y-104749618D01*
X112715900Y-104719243D01*
X113026689Y-104590510D01*
X113111960Y-104401565D01*
X112395000Y-103684605D01*
X111678040Y-104401565D01*
X110571960Y-104401565D01*
X109855000Y-103684605D01*
X109138040Y-104401565D01*
X108712000Y-104401565D01*
X108712000Y-103997896D01*
X108769490Y-104136689D01*
X108958435Y-104221960D01*
X109675395Y-103505000D01*
X110034605Y-103505000D01*
X110751565Y-104221960D01*
X110940510Y-104136689D01*
X111099618Y-103673197D01*
X111078727Y-103336803D01*
X111150382Y-103336803D01*
X111180757Y-103825900D01*
X111309490Y-104136689D01*
X111498435Y-104221960D01*
X112215395Y-103505000D01*
X112574605Y-103505000D01*
X113291565Y-104221960D01*
X113480510Y-104136689D01*
X113639618Y-103673197D01*
X113609243Y-103184100D01*
X113480510Y-102873311D01*
X113291565Y-102788040D01*
X112574605Y-103505000D01*
X112215395Y-103505000D01*
X111498435Y-102788040D01*
X111309490Y-102873311D01*
X111150382Y-103336803D01*
X111078727Y-103336803D01*
X111069243Y-103184100D01*
X110940510Y-102873311D01*
X110751565Y-102788040D01*
X110034605Y-103505000D01*
X109675395Y-103505000D01*
X108958435Y-102788040D01*
X108769490Y-102873311D01*
X108712000Y-103040783D01*
X108712000Y-101851396D01*
X109042138Y-102181534D01*
X109419963Y-102338034D01*
X109223311Y-102419490D01*
X109138040Y-102608435D01*
X109855000Y-103325395D01*
X110571960Y-102608435D01*
X110486689Y-102419490D01*
X110271623Y-102345662D01*
X110667862Y-102181534D01*
X111071534Y-101777862D01*
X111125000Y-101648784D01*
X111178466Y-101777862D01*
X111582138Y-102181534D01*
X111959963Y-102338034D01*
X111763311Y-102419490D01*
X111678040Y-102608435D01*
X112395000Y-103325395D01*
X113057542Y-102662853D01*
X122148600Y-102662853D01*
X122148600Y-103077147D01*
X122307144Y-103459906D01*
X122600094Y-103752856D01*
X122982853Y-103911400D01*
X123397147Y-103911400D01*
X123779906Y-103752856D01*
X124072856Y-103459906D01*
X124231400Y-103077147D01*
X124231400Y-102662853D01*
X124072856Y-102280094D01*
X123779906Y-101987144D01*
X123397147Y-101828600D01*
X122982853Y-101828600D01*
X122600094Y-101987144D01*
X122307144Y-102280094D01*
X122148600Y-102662853D01*
X113057542Y-102662853D01*
X113111960Y-102608435D01*
X113026689Y-102419490D01*
X112811623Y-102345662D01*
X113207862Y-102181534D01*
X113611534Y-101777862D01*
X113830000Y-101250439D01*
X113830000Y-100679561D01*
X113611534Y-100152138D01*
X113207862Y-99748466D01*
X113078784Y-99695000D01*
X113207862Y-99641534D01*
X113381753Y-99467643D01*
X116332000Y-99467643D01*
X116332000Y-99922357D01*
X116506011Y-100342458D01*
X116827542Y-100663989D01*
X117247643Y-100838000D01*
X117702357Y-100838000D01*
X118122458Y-100663989D01*
X118443989Y-100342458D01*
X118534952Y-100122853D01*
X120878600Y-100122853D01*
X120878600Y-100537147D01*
X121037144Y-100919906D01*
X121330094Y-101212856D01*
X121712853Y-101371400D01*
X122127147Y-101371400D01*
X122509906Y-101212856D01*
X122802856Y-100919906D01*
X122961400Y-100537147D01*
X122961400Y-100122853D01*
X122924635Y-100034095D01*
X123144906Y-99942856D01*
X123266200Y-99821562D01*
X123266200Y-99932462D01*
X123447945Y-100371233D01*
X123783767Y-100707055D01*
X124222538Y-100888800D01*
X124697462Y-100888800D01*
X125136233Y-100707055D01*
X125472055Y-100371233D01*
X125517777Y-100260851D01*
X125716737Y-100343263D01*
X125828538Y-100613174D01*
X125517945Y-100923767D01*
X125336200Y-101362538D01*
X125336200Y-101837462D01*
X125517945Y-102276233D01*
X125853767Y-102612055D01*
X126292538Y-102793800D01*
X126767462Y-102793800D01*
X127206233Y-102612055D01*
X127542055Y-102276233D01*
X127723800Y-101837462D01*
X127723800Y-101372643D01*
X130302000Y-101372643D01*
X130302000Y-101827357D01*
X130476011Y-102247458D01*
X130797542Y-102568989D01*
X131217643Y-102743000D01*
X131672357Y-102743000D01*
X132092458Y-102568989D01*
X132413989Y-102247458D01*
X132588000Y-101827357D01*
X132588000Y-101372643D01*
X132413989Y-100952542D01*
X132092458Y-100631011D01*
X131672357Y-100457000D01*
X131217643Y-100457000D01*
X130797542Y-100631011D01*
X130476011Y-100952542D01*
X130302000Y-101372643D01*
X127723800Y-101372643D01*
X127723800Y-101362538D01*
X127542055Y-100923767D01*
X127434735Y-100816447D01*
X127607066Y-100644116D01*
X127765610Y-100261357D01*
X127765610Y-99847063D01*
X127607066Y-99464304D01*
X127314116Y-99171354D01*
X127013263Y-99046737D01*
X126920398Y-98822538D01*
X130251200Y-98822538D01*
X130251200Y-99297462D01*
X130432945Y-99736233D01*
X130768767Y-100072055D01*
X131207538Y-100253800D01*
X131682462Y-100253800D01*
X132121233Y-100072055D01*
X132457055Y-99736233D01*
X132638800Y-99297462D01*
X132638800Y-98822538D01*
X132590435Y-98705774D01*
X132669906Y-98672856D01*
X132962856Y-98379906D01*
X133121400Y-97997147D01*
X133121400Y-97582853D01*
X132962856Y-97200094D01*
X132669906Y-96907144D01*
X132287147Y-96748600D01*
X131872853Y-96748600D01*
X131490094Y-96907144D01*
X131197144Y-97200094D01*
X131038600Y-97582853D01*
X131038600Y-97936176D01*
X130768767Y-98047945D01*
X130432945Y-98383767D01*
X130251200Y-98822538D01*
X126920398Y-98822538D01*
X126888646Y-98745884D01*
X126595696Y-98452934D01*
X126212937Y-98294390D01*
X125798643Y-98294390D01*
X125415884Y-98452934D01*
X125161053Y-98707765D01*
X125136233Y-98682945D01*
X124697462Y-98501200D01*
X124222538Y-98501200D01*
X123783767Y-98682945D01*
X123596400Y-98870312D01*
X123596400Y-98852853D01*
X123437856Y-98470094D01*
X123144906Y-98177144D01*
X122762147Y-98018600D01*
X122347853Y-98018600D01*
X121965094Y-98177144D01*
X121672144Y-98470094D01*
X121513600Y-98852853D01*
X121513600Y-99267147D01*
X121550365Y-99355905D01*
X121330094Y-99447144D01*
X121037144Y-99740094D01*
X120878600Y-100122853D01*
X118534952Y-100122853D01*
X118618000Y-99922357D01*
X118618000Y-99467643D01*
X118573502Y-99360214D01*
X118699906Y-99307856D01*
X118992856Y-99014906D01*
X119151400Y-98632147D01*
X119151400Y-98217853D01*
X118992856Y-97835094D01*
X118699906Y-97542144D01*
X118317147Y-97383600D01*
X117902853Y-97383600D01*
X117520094Y-97542144D01*
X117227144Y-97835094D01*
X117068600Y-98217853D01*
X117068600Y-98626162D01*
X116827542Y-98726011D01*
X116506011Y-99047542D01*
X116332000Y-99467643D01*
X113381753Y-99467643D01*
X113611534Y-99237862D01*
X113830000Y-98710439D01*
X113830000Y-98139561D01*
X113611534Y-97612138D01*
X113207862Y-97208466D01*
X112680439Y-96990000D01*
X112109561Y-96990000D01*
X111582138Y-97208466D01*
X111279738Y-97510866D01*
X111253157Y-97377235D01*
X111112809Y-97167191D01*
X110902765Y-97026843D01*
X110655000Y-96977560D01*
X109055000Y-96977560D01*
X108807235Y-97026843D01*
X108712000Y-97090477D01*
X108712000Y-93137853D01*
X119608600Y-93137853D01*
X119608600Y-93552147D01*
X119767144Y-93934906D01*
X120060094Y-94227856D01*
X120442853Y-94386400D01*
X120857147Y-94386400D01*
X121239906Y-94227856D01*
X121532856Y-93934906D01*
X121691400Y-93552147D01*
X121691400Y-93137853D01*
X121532856Y-92755094D01*
X121239906Y-92462144D01*
X120857147Y-92303600D01*
X120442853Y-92303600D01*
X120060094Y-92462144D01*
X119767144Y-92755094D01*
X119608600Y-93137853D01*
X108712000Y-93137853D01*
X108712000Y-86294398D01*
X110245000Y-86294398D01*
X110245000Y-86805602D01*
X110440629Y-87277894D01*
X110802106Y-87639371D01*
X111274398Y-87835000D01*
X111785602Y-87835000D01*
X112257894Y-87639371D01*
X112619371Y-87277894D01*
X112815000Y-86805602D01*
X112815000Y-86294398D01*
X114245000Y-86294398D01*
X114245000Y-86805602D01*
X114440629Y-87277894D01*
X114802106Y-87639371D01*
X115274398Y-87835000D01*
X115785602Y-87835000D01*
X116257894Y-87639371D01*
X116619371Y-87277894D01*
X116815000Y-86805602D01*
X116815000Y-86594950D01*
X119464200Y-86594950D01*
X119464200Y-87199890D01*
X119529937Y-87358595D01*
X119651405Y-87480062D01*
X119810109Y-87545800D01*
X120415050Y-87545800D01*
X120523000Y-87437850D01*
X120523000Y-86487000D01*
X119572150Y-86487000D01*
X119464200Y-86594950D01*
X116815000Y-86594950D01*
X116815000Y-86294398D01*
X116619371Y-85822106D01*
X116257894Y-85460629D01*
X115785602Y-85265000D01*
X115274398Y-85265000D01*
X114802106Y-85460629D01*
X114440629Y-85822106D01*
X114245000Y-86294398D01*
X112815000Y-86294398D01*
X112619371Y-85822106D01*
X112257894Y-85460629D01*
X111785602Y-85265000D01*
X111274398Y-85265000D01*
X110802106Y-85460629D01*
X110440629Y-85822106D01*
X110245000Y-86294398D01*
X108712000Y-86294398D01*
X108712000Y-85217000D01*
X119706782Y-85217000D01*
X119651405Y-85239938D01*
G04 #@! TO.N,/USB Serial/USHLD*
G36*
X135763000Y-89026280D02*
X135382000Y-89946096D01*
X135382000Y-91663904D01*
X135763000Y-92583720D01*
X135763000Y-95123000D01*
X131723643Y-95123000D01*
X131711091Y-95092698D01*
X131475302Y-94856909D01*
X131167228Y-94729300D01*
X130833772Y-94729300D01*
X130525698Y-94856909D01*
X130492500Y-94890107D01*
X130459302Y-94856909D01*
X130151228Y-94729300D01*
X129817772Y-94729300D01*
X129509698Y-94856909D01*
X129273909Y-95092698D01*
X129261357Y-95123000D01*
X126612695Y-95123000D01*
X126612695Y-95038777D01*
X126485086Y-94730703D01*
X126249297Y-94494914D01*
X125941223Y-94367305D01*
X125607767Y-94367305D01*
X125299693Y-94494914D01*
X125063904Y-94730703D01*
X124936295Y-95038777D01*
X124936295Y-95123000D01*
X122682000Y-95123000D01*
X122682000Y-87432957D01*
X127914400Y-87432957D01*
X127914400Y-87827043D01*
X128065210Y-88191130D01*
X128343870Y-88469790D01*
X128707957Y-88620600D01*
X129102043Y-88620600D01*
X129466130Y-88469790D01*
X129744790Y-88191130D01*
X129895600Y-87827043D01*
X129895600Y-87432957D01*
X129744790Y-87068870D01*
X129466130Y-86790210D01*
X129102043Y-86639400D01*
X128707957Y-86639400D01*
X128343870Y-86790210D01*
X128065210Y-87068870D01*
X127914400Y-87432957D01*
X122682000Y-87432957D01*
X122682000Y-85217000D01*
X135763000Y-85217000D01*
X135763000Y-89026280D01*
X135763000Y-89026280D01*
G37*
X135763000Y-89026280D02*
X135382000Y-89946096D01*
X135382000Y-91663904D01*
X135763000Y-92583720D01*
X135763000Y-95123000D01*
X131723643Y-95123000D01*
X131711091Y-95092698D01*
X131475302Y-94856909D01*
X131167228Y-94729300D01*
X130833772Y-94729300D01*
X130525698Y-94856909D01*
X130492500Y-94890107D01*
X130459302Y-94856909D01*
X130151228Y-94729300D01*
X129817772Y-94729300D01*
X129509698Y-94856909D01*
X129273909Y-95092698D01*
X129261357Y-95123000D01*
X126612695Y-95123000D01*
X126612695Y-95038777D01*
X126485086Y-94730703D01*
X126249297Y-94494914D01*
X125941223Y-94367305D01*
X125607767Y-94367305D01*
X125299693Y-94494914D01*
X125063904Y-94730703D01*
X124936295Y-95038777D01*
X124936295Y-95123000D01*
X122682000Y-95123000D01*
X122682000Y-87432957D01*
X127914400Y-87432957D01*
X127914400Y-87827043D01*
X128065210Y-88191130D01*
X128343870Y-88469790D01*
X128707957Y-88620600D01*
X129102043Y-88620600D01*
X129466130Y-88469790D01*
X129744790Y-88191130D01*
X129895600Y-87827043D01*
X129895600Y-87432957D01*
X129744790Y-87068870D01*
X129466130Y-86790210D01*
X129102043Y-86639400D01*
X128707957Y-86639400D01*
X128343870Y-86790210D01*
X128065210Y-87068870D01*
X127914400Y-87432957D01*
X122682000Y-87432957D01*
X122682000Y-85217000D01*
X135763000Y-85217000D01*
X135763000Y-89026280D01*
G04 #@! TD*
D20*
X123825000Y-114300000D03*
X123825000Y-113030000D03*
X127635000Y-114300000D03*
X127635000Y-113030000D03*
X134620000Y-103505000D03*
X171450000Y-89535000D03*
X201295000Y-108585000D03*
X195580000Y-113030000D03*
X205105000Y-92075028D03*
X180340000Y-114300000D03*
X173990000Y-96520000D03*
X182245000Y-96520000D03*
X181610000Y-97790000D03*
X174625000Y-97790000D03*
X144780000Y-122555000D03*
X144780000Y-121285000D03*
X175260000Y-111760000D03*
X163195000Y-116840000D03*
X162560000Y-93980000D03*
X144780000Y-90170000D03*
X159004000Y-88265000D03*
X180340000Y-117475000D03*
X184785000Y-95885000D03*
X179705000Y-111760000D03*
X179705000Y-106680000D03*
X179705000Y-101600000D03*
X133985000Y-108585000D03*
X129540000Y-108585000D03*
X154305000Y-103505000D03*
X146685000Y-94615000D03*
X160655000Y-93980000D03*
X154940000Y-93980000D03*
X197485000Y-114935000D03*
X198120000Y-113030000D03*
X191770000Y-111125000D03*
X191770000Y-122555000D03*
X150495000Y-116205000D03*
X187325000Y-109855000D03*
X152400000Y-109220000D03*
X156210000Y-95250000D03*
X131445000Y-101600000D03*
X117475000Y-99695000D03*
X132715000Y-118110000D03*
X160655000Y-88265000D03*
X173990000Y-93345000D03*
X173990000Y-94615000D03*
X173990000Y-92075000D03*
X174625000Y-117475000D03*
X127635000Y-122555000D03*
X127635000Y-121285000D03*
X170815000Y-107950000D03*
X163195000Y-111125000D03*
X154305000Y-112395000D03*
X154305000Y-98425000D03*
X147320000Y-113665000D03*
X149860000Y-113665000D03*
X168275000Y-93345000D03*
X150495000Y-98425000D03*
X160655000Y-102235000D03*
X149860000Y-93980000D03*
X161925000Y-100965000D03*
X184150000Y-120015000D03*
X196850000Y-118745000D03*
X173355000Y-118745000D03*
X160655000Y-118745000D03*
X169545000Y-109220000D03*
X132080000Y-97790000D03*
X152400000Y-114935000D03*
X118110000Y-98425000D03*
X122555000Y-99060000D03*
X121920000Y-100330000D03*
X131445000Y-99060000D03*
X126530000Y-101600000D03*
X124460000Y-99695000D03*
X128905000Y-87630000D03*
X126724210Y-100054210D03*
X131000500Y-95567500D03*
X126005790Y-99335790D03*
X129984500Y-95567500D03*
X123190000Y-102870000D03*
X119379972Y-106045000D03*
X133667500Y-94615000D03*
X127317500Y-94615000D03*
X128905000Y-85725000D03*
X131445000Y-85725000D03*
X125730000Y-93345000D03*
X159385000Y-117475000D03*
X160655000Y-100965000D03*
X195580000Y-104140000D03*
X190500000Y-104140000D03*
X182245000Y-94615000D03*
X182245000Y-92075000D03*
X182245000Y-93345000D03*
X197485000Y-120015000D03*
X172720000Y-89535000D03*
X167640000Y-92075000D03*
X168910000Y-100965000D03*
X201929974Y-111125000D03*
X189865000Y-116840000D03*
X193675000Y-104140000D03*
X189230000Y-114935000D03*
X183515000Y-97155000D03*
X196850000Y-116840000D03*
X188595000Y-112395000D03*
X194945000Y-114300000D03*
X191135000Y-116205000D03*
X193040000Y-120015000D03*
X189230000Y-118745000D03*
X187325000Y-111125000D03*
X193040000Y-118745000D03*
X193040000Y-113665000D03*
X170465000Y-110775000D03*
X179070000Y-117475000D03*
X175260000Y-116205000D03*
X177800000Y-120015000D03*
X172085000Y-113030000D03*
X161290000Y-111125000D03*
X149225000Y-98425000D03*
X151765000Y-99060000D03*
X147320000Y-97790000D03*
X158115000Y-99695000D03*
X145415000Y-99695000D03*
X151765000Y-93345000D03*
X146685000Y-92710000D03*
X153035000Y-94615000D03*
X165100000Y-98425000D03*
X164465000Y-99695000D03*
X172085000Y-97790000D03*
X164465000Y-105410000D03*
X169545000Y-106045000D03*
X165735000Y-100965000D03*
X166370000Y-85725000D03*
X149225000Y-117475000D03*
X167640000Y-103505000D03*
X151130000Y-109855000D03*
X167005000Y-86995000D03*
X168910000Y-102235000D03*
X147955000Y-116840000D03*
X164465000Y-90805000D03*
X148590000Y-111125000D03*
X151765000Y-101600000D03*
X159385000Y-104775000D03*
X163195000Y-99695000D03*
X148590000Y-101600000D03*
X147320000Y-101600000D03*
X160020000Y-103505000D03*
X161290000Y-116840000D03*
X165735000Y-111125000D03*
X153035000Y-118110000D03*
X151130000Y-118110000D03*
X157480000Y-95250000D03*
X158115000Y-110490000D03*
X146685000Y-122555000D03*
X158750000Y-93980000D03*
X157480000Y-93980000D03*
X161925000Y-90805000D03*
X144780000Y-88900000D03*
X168275000Y-94615000D03*
X170815000Y-103505000D03*
X174625000Y-102870000D03*
X174625000Y-104140000D03*
X170815000Y-104775000D03*
X174625000Y-105410000D03*
X200025000Y-104140000D03*
X192405000Y-103505000D03*
X198755000Y-102870000D03*
X198755000Y-104140000D03*
X205105000Y-103505000D03*
X120650000Y-93345000D03*
X125774495Y-95205505D03*
X115530000Y-86550000D03*
X111530000Y-86550000D03*
X120650000Y-86360000D03*
X137795000Y-97155000D03*
X137795000Y-99695000D03*
X109855000Y-98425000D03*
X112395000Y-98425000D03*
X109855000Y-100965000D03*
X112395000Y-100965000D03*
X109855000Y-103505000D03*
X112395000Y-103505000D03*
X166370000Y-116840000D03*
X166370000Y-119380000D03*
X168910000Y-116840000D03*
X168910000Y-119380000D03*
X171450000Y-116840000D03*
X171450000Y-119380000D03*
X125805000Y-113320000D03*
X119305000Y-113320000D03*
X119305000Y-117820000D03*
X125805000Y-117820000D03*
X195097400Y-99898200D03*
X180340000Y-86995000D03*
X177800000Y-86995000D03*
X175260000Y-86995000D03*
X172720000Y-86995000D03*
X115009734Y-115697000D03*
X115009734Y-117983000D03*
X113030000Y-119126000D03*
X111050266Y-117983000D03*
X111050266Y-115697000D03*
X113030000Y-114554000D03*
X113030000Y-116840000D03*
X203909734Y-115697000D03*
X203909734Y-117983000D03*
X201930000Y-119126000D03*
X199950266Y-117983000D03*
X199950266Y-115697000D03*
X201930000Y-114554000D03*
X201930000Y-116840000D03*
X141679734Y-89662000D03*
X141679734Y-91948000D03*
X139700000Y-93091000D03*
X137720266Y-91948000D03*
X137720266Y-89662000D03*
X139700000Y-88519000D03*
X139700000Y-90805000D03*
X114935000Y-109855000D03*
X114935000Y-107315000D03*
X112395000Y-109855000D03*
X112395000Y-107315000D03*
X109855000Y-109855000D03*
X109855000Y-107315000D03*
X141605000Y-98425000D03*
X144145000Y-98425000D03*
X141605000Y-100965000D03*
X144145000Y-100965000D03*
X141605000Y-103505000D03*
X144145000Y-103505000D03*
X141605000Y-106045000D03*
X144145000Y-106045000D03*
X141605000Y-108585000D03*
X144145000Y-108585000D03*
X141605000Y-111125000D03*
X144145000Y-111125000D03*
X141605000Y-113665000D03*
X144145000Y-113665000D03*
X141605000Y-116205000D03*
X144145000Y-116205000D03*
X137795000Y-115570000D03*
M02*
