G04 #@! TF.GenerationSoftware,KiCad,Pcbnew,5.0.0-fee4fd1~65~ubuntu17.10.1*
G04 #@! TF.CreationDate,2018-09-18T22:06:37-04:00*
G04 #@! TF.ProjectId,motherboard,6D6F74686572626F6172642E6B696361,rev?*
G04 #@! TF.SameCoordinates,Original*
G04 #@! TF.FileFunction,Soldermask,Top*
G04 #@! TF.FilePolarity,Negative*
%FSLAX46Y46*%
G04 Gerber Fmt 4.6, Leading zero omitted, Abs format (unit mm)*
G04 Created by KiCad (PCBNEW 5.0.0-fee4fd1~65~ubuntu17.10.1) date Tue Sep 18 22:06:37 2018*
%MOMM*%
%LPD*%
G01*
G04 APERTURE LIST*
%ADD10C,1.904800*%
%ADD11R,1.060000X0.410000*%
%ADD12R,1.304800X1.404800*%
%ADD13R,0.960000X0.560000*%
%ADD14R,2.104800X1.904800*%
%ADD15R,1.904800X1.904800*%
%ADD16C,6.654800*%
%ADD17R,0.560000X1.660000*%
%ADD18R,1.660000X0.560000*%
%ADD19R,4.004800X4.004800*%
%ADD20R,2.209800X1.066800*%
%ADD21R,1.066800X2.209800*%
%ADD22R,1.504800X3.804800*%
%ADD23R,1.000000X1.300000*%
%ADD24R,1.700000X1.500000*%
%ADD25R,1.300000X1.000000*%
%ADD26R,1.700000X1.200000*%
%ADD27R,1.300000X1.500000*%
%ADD28R,1.450000X1.500000*%
%ADD29R,2.804800X4.104800*%
%ADD30R,0.804800X1.704800*%
%ADD31R,2.104800X2.504800*%
%ADD32C,1.604800*%
%ADD33R,2.504800X0.904800*%
%ADD34R,1.600000X0.600000*%
%ADD35R,0.700000X1.600000*%
%ADD36R,1.560000X0.410000*%
%ADD37R,0.410000X1.560000*%
%ADD38R,1.404800X1.304800*%
%ADD39R,1.604800X1.804800*%
%ADD40R,1.804800X1.604800*%
%ADD41R,1.504800X0.954800*%
%ADD42R,1.904800X2.104800*%
%ADD43C,1.304800*%
G04 APERTURE END LIST*
D10*
G04 #@! TO.C,SW1*
X125805000Y-113320000D03*
X119305000Y-113320000D03*
X119305000Y-117820000D03*
X125805000Y-117820000D03*
G04 #@! TD*
D11*
G04 #@! TO.C,U8*
X120220000Y-116320000D03*
X120220000Y-115820000D03*
X120220000Y-115320000D03*
X120220000Y-114820000D03*
X123620000Y-116320000D03*
X123620000Y-115820000D03*
X123620000Y-115320000D03*
X123620000Y-114820000D03*
G04 #@! TD*
D12*
G04 #@! TO.C,C13*
X135890000Y-120865000D03*
X135890000Y-119165000D03*
G04 #@! TD*
D13*
G04 #@! TO.C,U9*
X156140000Y-119395000D03*
X156140000Y-118745000D03*
X156140000Y-118095000D03*
X153740000Y-118095000D03*
X153740000Y-119395000D03*
G04 #@! TD*
D14*
G04 #@! TO.C,F1*
X135890000Y-98555000D03*
X135890000Y-95755000D03*
G04 #@! TD*
D10*
G04 #@! TO.C,J18*
X202565000Y-111125000D03*
D15*
X205105000Y-111125000D03*
G04 #@! TD*
D16*
G04 #@! TO.C,H2*
X201930000Y-116840000D03*
G04 #@! TD*
G04 #@! TO.C,H3*
X139700000Y-90805000D03*
G04 #@! TD*
G04 #@! TO.C,H1*
X113030000Y-116840000D03*
G04 #@! TD*
D17*
G04 #@! TO.C,U7*
X147585000Y-97230000D03*
X148235000Y-97230000D03*
X148885000Y-97230000D03*
X149535000Y-97230000D03*
X150185000Y-97230000D03*
X150835000Y-97230000D03*
X151485000Y-97230000D03*
X152135000Y-97230000D03*
X147585000Y-103430000D03*
X148235000Y-103430000D03*
X148885000Y-103430000D03*
X149535000Y-103430000D03*
X150185000Y-103430000D03*
X150835000Y-103430000D03*
X151485000Y-103430000D03*
X152135000Y-103430000D03*
G04 #@! TD*
D18*
G04 #@! TO.C,U5*
X194235000Y-115835000D03*
X194235000Y-116485000D03*
X194235000Y-117135000D03*
X194235000Y-117785000D03*
X194235000Y-118435000D03*
X194235000Y-119085000D03*
X194235000Y-119735000D03*
X194235000Y-120385000D03*
X188035000Y-115835000D03*
X188035000Y-116485000D03*
X188035000Y-117135000D03*
X188035000Y-117785000D03*
X188035000Y-118435000D03*
X188035000Y-119085000D03*
X188035000Y-119735000D03*
X188035000Y-120385000D03*
G04 #@! TD*
D19*
G04 #@! TO.C,U4*
X195097400Y-99898200D03*
D20*
X188214000Y-102489000D03*
X188214000Y-101473000D03*
X188214000Y-100457000D03*
X188214000Y-99441000D03*
X188214000Y-98425000D03*
X188214000Y-97409000D03*
X188214000Y-96393000D03*
X188214000Y-95377000D03*
X188214000Y-94361000D03*
X188214000Y-93345000D03*
D21*
X190119000Y-106172000D03*
X193167000Y-106172000D03*
X194183000Y-106172000D03*
X195199000Y-106172000D03*
X196215000Y-106172000D03*
X197231000Y-106172000D03*
X198247000Y-106172000D03*
X199263000Y-106172000D03*
X200279000Y-106172000D03*
D20*
X202946000Y-103505000D03*
X202946000Y-102489000D03*
X202946000Y-101473000D03*
X202946000Y-100457000D03*
X202946000Y-96393000D03*
X202946000Y-94361000D03*
X202946000Y-93345000D03*
X202946000Y-92329000D03*
X202946000Y-91313000D03*
G04 #@! TD*
D22*
G04 #@! TO.C,Y2*
X180975000Y-109430000D03*
X180975000Y-103930000D03*
G04 #@! TD*
G04 #@! TO.C,Y1*
X133350000Y-109010000D03*
X133350000Y-114510000D03*
G04 #@! TD*
D23*
G04 #@! TO.C,J5*
X148550000Y-93050000D03*
X149650000Y-93050000D03*
X150750000Y-93050000D03*
X151850000Y-93050000D03*
X152950000Y-93050000D03*
X154050000Y-93050000D03*
X155150000Y-93050000D03*
X156250000Y-93050000D03*
D24*
X146900000Y-91550000D03*
D25*
X146700000Y-90400000D03*
D26*
X146900000Y-89250000D03*
D27*
X157400000Y-91990000D03*
D28*
X157325000Y-89400000D03*
G04 #@! TD*
D29*
G04 #@! TO.C,J2*
X134375000Y-86750000D03*
X125975000Y-86750000D03*
D30*
X128575000Y-89150000D03*
X131775000Y-89150000D03*
X130975000Y-89150000D03*
X129375000Y-89150000D03*
X130175000Y-89150000D03*
G04 #@! TD*
D31*
G04 #@! TO.C,J1*
X118665000Y-91550000D03*
X118665000Y-94450000D03*
X111065000Y-94450000D03*
D32*
X116165000Y-86550000D03*
X112165000Y-86550000D03*
G04 #@! TD*
D33*
G04 #@! TO.C,U2*
X169070000Y-89535000D03*
X169070000Y-88265000D03*
X169070000Y-85725000D03*
X163670000Y-89535000D03*
X163670000Y-88265000D03*
X163670000Y-85725000D03*
X169070000Y-86995000D03*
X163670000Y-86995000D03*
G04 #@! TD*
D34*
G04 #@! TO.C,U3*
X124505000Y-103765000D03*
X124505000Y-102965000D03*
X124505000Y-102165000D03*
X124505000Y-101365000D03*
X124505000Y-100565000D03*
X124505000Y-99765000D03*
X124505000Y-98965000D03*
X124505000Y-98165000D03*
D35*
X126105000Y-96565000D03*
X126905000Y-96565000D03*
X127705000Y-96565000D03*
X128505000Y-96565000D03*
X129305000Y-96565000D03*
X130105000Y-96565000D03*
X130905000Y-96565000D03*
X131705000Y-96565000D03*
D34*
X133305000Y-98165000D03*
X133305000Y-98965000D03*
X133305000Y-99765000D03*
X133305000Y-100565000D03*
X133305000Y-101365000D03*
X133305000Y-102165000D03*
X133305000Y-102965000D03*
X133305000Y-103765000D03*
D35*
X131705000Y-105365000D03*
X130905000Y-105365000D03*
X130105000Y-105365000D03*
X129305000Y-105365000D03*
X128505000Y-105365000D03*
X127705000Y-105365000D03*
X126905000Y-105365000D03*
X126105000Y-105365000D03*
G04 #@! TD*
D36*
G04 #@! TO.C,U1*
X156565000Y-110775000D03*
X156565000Y-110275000D03*
X156565000Y-109775000D03*
X156565000Y-109275000D03*
X156565000Y-108775000D03*
X156565000Y-108275000D03*
X156565000Y-107775000D03*
X156565000Y-107275000D03*
X156565000Y-106775000D03*
X156565000Y-106275000D03*
X156565000Y-105775000D03*
X156565000Y-105275000D03*
X156565000Y-104775000D03*
X156565000Y-104275000D03*
X156565000Y-103775000D03*
X156565000Y-103275000D03*
X156565000Y-102775000D03*
X156565000Y-102275000D03*
X156565000Y-101775000D03*
X156565000Y-101275000D03*
X156565000Y-100775000D03*
X156565000Y-100275000D03*
X156565000Y-99775000D03*
X156565000Y-99275000D03*
X156565000Y-98775000D03*
D37*
X158465000Y-96875000D03*
X158965000Y-96875000D03*
X159465000Y-96875000D03*
X159965000Y-96875000D03*
X160465000Y-96875000D03*
X160965000Y-96875000D03*
X161465000Y-96875000D03*
X161965000Y-96875000D03*
X162465000Y-96875000D03*
X162965000Y-96875000D03*
X163465000Y-96875000D03*
X163965000Y-96875000D03*
X164465000Y-96875000D03*
X164965000Y-96875000D03*
X165465000Y-96875000D03*
X165965000Y-96875000D03*
X166465000Y-96875000D03*
X166965000Y-96875000D03*
X167465000Y-96875000D03*
X167965000Y-96875000D03*
X168465000Y-96875000D03*
X168965000Y-96875000D03*
X169465000Y-96875000D03*
X169965000Y-96875000D03*
X170465000Y-96875000D03*
D36*
X172365000Y-98775000D03*
X172365000Y-99275000D03*
X172365000Y-99775000D03*
X172365000Y-100275000D03*
X172365000Y-100775000D03*
X172365000Y-101275000D03*
X172365000Y-101775000D03*
X172365000Y-102275000D03*
X172365000Y-102775000D03*
X172365000Y-103275000D03*
X172365000Y-103775000D03*
X172365000Y-104275000D03*
X172365000Y-104775000D03*
X172365000Y-105275000D03*
X172365000Y-105775000D03*
X172365000Y-106275000D03*
X172365000Y-106775000D03*
X172365000Y-107275000D03*
X172365000Y-107775000D03*
X172365000Y-108275000D03*
X172365000Y-108775000D03*
X172365000Y-109275000D03*
X172365000Y-109775000D03*
X172365000Y-110275000D03*
X172365000Y-110775000D03*
D37*
X170465000Y-112675000D03*
X169965000Y-112675000D03*
X169465000Y-112675000D03*
X168965000Y-112675000D03*
X168465000Y-112675000D03*
X167965000Y-112675000D03*
X167465000Y-112675000D03*
X166965000Y-112675000D03*
X166465000Y-112675000D03*
X165965000Y-112675000D03*
X165465000Y-112675000D03*
X164965000Y-112675000D03*
X164465000Y-112675000D03*
X163965000Y-112675000D03*
X163465000Y-112675000D03*
X162965000Y-112675000D03*
X162465000Y-112675000D03*
X161965000Y-112675000D03*
X161465000Y-112675000D03*
X160965000Y-112675000D03*
X160465000Y-112675000D03*
X159965000Y-112675000D03*
X159465000Y-112675000D03*
X158965000Y-112675000D03*
X158465000Y-112675000D03*
G04 #@! TD*
D12*
G04 #@! TO.C,C26*
X154305000Y-102450000D03*
X154305000Y-100750000D03*
G04 #@! TD*
D38*
G04 #@! TO.C,R22*
X164250000Y-92075000D03*
X165950000Y-92075000D03*
G04 #@! TD*
G04 #@! TO.C,C25*
X164250000Y-93980000D03*
X165950000Y-93980000D03*
G04 #@! TD*
D39*
G04 #@! TO.C,L1*
X124140000Y-92710000D03*
X122240000Y-92710000D03*
G04 #@! TD*
D12*
G04 #@! TO.C,R8*
X177165000Y-107530000D03*
X177165000Y-105830000D03*
G04 #@! TD*
G04 #@! TO.C,R7*
X129540000Y-112610000D03*
X129540000Y-110910000D03*
G04 #@! TD*
D38*
G04 #@! TO.C,R5*
X118530000Y-106045000D03*
X120230000Y-106045000D03*
G04 #@! TD*
D12*
G04 #@! TO.C,R4*
X129540000Y-93242500D03*
X129540000Y-91542500D03*
G04 #@! TD*
G04 #@! TO.C,R3*
X131445000Y-91542500D03*
X131445000Y-93242500D03*
G04 #@! TD*
D15*
G04 #@! TO.C,J10*
X109855000Y-98425000D03*
D10*
X112395000Y-98425000D03*
X109855000Y-100965000D03*
X112395000Y-100965000D03*
X109855000Y-103505000D03*
X112395000Y-103505000D03*
G04 #@! TD*
D40*
G04 #@! TO.C,C20*
X180340000Y-92390000D03*
X180340000Y-90490000D03*
G04 #@! TD*
G04 #@! TO.C,C19*
X176530000Y-90490000D03*
X176530000Y-92390000D03*
G04 #@! TD*
D41*
G04 #@! TO.C,U6*
X177035000Y-94935000D03*
X177035000Y-95885000D03*
X177035000Y-96835000D03*
X179835000Y-96835000D03*
X179835000Y-94935000D03*
G04 #@! TD*
D10*
G04 #@! TO.C,J7*
X166370000Y-116840000D03*
X166370000Y-119380000D03*
X168910000Y-116840000D03*
X168910000Y-119380000D03*
X171450000Y-116840000D03*
D15*
X171450000Y-119380000D03*
G04 #@! TD*
D38*
G04 #@! TO.C,C12*
X157060000Y-121285000D03*
X155360000Y-121285000D03*
G04 #@! TD*
D10*
G04 #@! TO.C,J3*
X180340000Y-86995000D03*
X177800000Y-86995000D03*
X175260000Y-86995000D03*
D15*
X172720000Y-86995000D03*
G04 #@! TD*
D38*
G04 #@! TO.C,C1*
X128055000Y-108585000D03*
X129755000Y-108585000D03*
G04 #@! TD*
G04 #@! TO.C,C2*
X128055000Y-114935000D03*
X129755000Y-114935000D03*
G04 #@! TD*
D40*
G04 #@! TO.C,C4*
X121920000Y-99375000D03*
X121920000Y-97475000D03*
G04 #@! TD*
D38*
G04 #@! TO.C,C5*
X120865000Y-102235000D03*
X119165000Y-102235000D03*
G04 #@! TD*
G04 #@! TO.C,C6*
X131865000Y-118745000D03*
X133565000Y-118745000D03*
G04 #@! TD*
D12*
G04 #@! TO.C,C7*
X177165000Y-111340000D03*
X177165000Y-109640000D03*
G04 #@! TD*
G04 #@! TO.C,C8*
X177165000Y-102020000D03*
X177165000Y-103720000D03*
G04 #@! TD*
D38*
G04 #@! TO.C,C9*
X193460000Y-121920000D03*
X195160000Y-121920000D03*
G04 #@! TD*
D12*
G04 #@! TO.C,C10*
X174625000Y-110070000D03*
X174625000Y-108370000D03*
G04 #@! TD*
D10*
G04 #@! TO.C,J4*
X114935000Y-109855000D03*
X114935000Y-107315000D03*
X112395000Y-109855000D03*
X112395000Y-107315000D03*
X109855000Y-109855000D03*
D15*
X109855000Y-107315000D03*
G04 #@! TD*
D10*
G04 #@! TO.C,J9*
X141605000Y-98425000D03*
X144145000Y-98425000D03*
X141605000Y-100965000D03*
X144145000Y-100965000D03*
X141605000Y-103505000D03*
X144145000Y-103505000D03*
X141605000Y-106045000D03*
X144145000Y-106045000D03*
X141605000Y-108585000D03*
X144145000Y-108585000D03*
X141605000Y-111125000D03*
X144145000Y-111125000D03*
X141605000Y-113665000D03*
X144145000Y-113665000D03*
X141605000Y-116205000D03*
D15*
X144145000Y-116205000D03*
G04 #@! TD*
D12*
G04 #@! TO.C,Z1*
X133667500Y-91542500D03*
X133667500Y-93242500D03*
G04 #@! TD*
G04 #@! TO.C,Z2*
X127317500Y-91542500D03*
X127317500Y-93242500D03*
G04 #@! TD*
D38*
G04 #@! TO.C,R10*
X183935000Y-93345000D03*
X185635000Y-93345000D03*
G04 #@! TD*
G04 #@! TO.C,C11*
X119800000Y-104140000D03*
X121500000Y-104140000D03*
G04 #@! TD*
G04 #@! TO.C,R6*
X140755000Y-120650000D03*
X142455000Y-120650000D03*
G04 #@! TD*
G04 #@! TO.C,R9*
X148170000Y-120650000D03*
X146470000Y-120650000D03*
G04 #@! TD*
D12*
G04 #@! TO.C,C14*
X160020000Y-90590000D03*
X160020000Y-92290000D03*
G04 #@! TD*
D38*
G04 #@! TO.C,R11*
X171665000Y-92710000D03*
X169965000Y-92710000D03*
G04 #@! TD*
D12*
G04 #@! TO.C,C15*
X199390000Y-109005000D03*
X199390000Y-110705000D03*
G04 #@! TD*
D40*
G04 #@! TO.C,C16*
X194310000Y-111440000D03*
X194310000Y-109540000D03*
G04 #@! TD*
G04 #@! TO.C,C18*
X196850000Y-108905000D03*
X196850000Y-110805000D03*
G04 #@! TD*
D38*
G04 #@! TO.C,R12*
X176315000Y-117475000D03*
X178015000Y-117475000D03*
G04 #@! TD*
G04 #@! TO.C,R13*
X182030000Y-114300000D03*
X183730000Y-114300000D03*
G04 #@! TD*
G04 #@! TO.C,R14*
X183730000Y-117475000D03*
X182030000Y-117475000D03*
G04 #@! TD*
D39*
G04 #@! TO.C,C17*
X192085000Y-109220000D03*
X190185000Y-109220000D03*
G04 #@! TD*
D40*
G04 #@! TO.C,C21*
X144653000Y-95565000D03*
X144653000Y-93665000D03*
G04 #@! TD*
D38*
G04 #@! TO.C,R15*
X147740000Y-108585000D03*
X149440000Y-108585000D03*
G04 #@! TD*
D12*
G04 #@! TO.C,R16*
X153035000Y-107530000D03*
X153035000Y-105830000D03*
G04 #@! TD*
D38*
G04 #@! TO.C,R17*
X147740000Y-106680000D03*
X149440000Y-106680000D03*
G04 #@! TD*
G04 #@! TO.C,R18*
X176950000Y-114300000D03*
X178650000Y-114300000D03*
G04 #@! TD*
D12*
G04 #@! TO.C,R20*
X147320000Y-110910000D03*
X147320000Y-112610000D03*
G04 #@! TD*
G04 #@! TO.C,R21*
X149860000Y-112610000D03*
X149860000Y-110910000D03*
G04 #@! TD*
D38*
G04 #@! TO.C,C22*
X164045000Y-115570000D03*
X162345000Y-115570000D03*
G04 #@! TD*
D12*
G04 #@! TO.C,C23*
X154305000Y-109640000D03*
X154305000Y-111340000D03*
G04 #@! TD*
D38*
G04 #@! TO.C,C24*
X150280000Y-116205000D03*
X151980000Y-116205000D03*
G04 #@! TD*
D12*
G04 #@! TO.C,C27*
X154305000Y-96305000D03*
X154305000Y-98005000D03*
G04 #@! TD*
D38*
G04 #@! TO.C,R23*
X142455000Y-122555000D03*
X140755000Y-122555000D03*
G04 #@! TD*
D42*
G04 #@! TO.C,D1*
X133480000Y-121285000D03*
X130680000Y-121285000D03*
G04 #@! TD*
G04 #@! TO.C,D2*
X120780000Y-108585000D03*
X117980000Y-108585000D03*
G04 #@! TD*
D39*
G04 #@! TO.C,R24*
X120335000Y-88265000D03*
X122235000Y-88265000D03*
G04 #@! TD*
D12*
G04 #@! TO.C,C28*
X122555000Y-118530000D03*
X122555000Y-120230000D03*
G04 #@! TD*
D38*
G04 #@! TO.C,C29*
X153250000Y-121285000D03*
X151550000Y-121285000D03*
G04 #@! TD*
D40*
G04 #@! TO.C,R25*
X138430000Y-105090000D03*
X138430000Y-103190000D03*
G04 #@! TD*
G04 #@! TO.C,R26*
X138430000Y-100645000D03*
X138430000Y-98745000D03*
G04 #@! TD*
D12*
G04 #@! TO.C,R27*
X152400000Y-113245000D03*
X152400000Y-111545000D03*
G04 #@! TD*
D38*
G04 #@! TO.C,R28*
X117895000Y-120650000D03*
X119595000Y-120650000D03*
G04 #@! TD*
G04 #@! TO.C,R29*
X129755000Y-118745000D03*
X128055000Y-118745000D03*
G04 #@! TD*
G04 #@! TO.C,R30*
X156425000Y-116205000D03*
X154725000Y-116205000D03*
G04 #@! TD*
G04 #@! TO.C,R31*
X159170000Y-119380000D03*
X160870000Y-119380000D03*
G04 #@! TD*
D12*
G04 #@! TO.C,R33*
X121285000Y-111545000D03*
X121285000Y-113245000D03*
G04 #@! TD*
D38*
G04 #@! TO.C,R19*
X159170000Y-121285000D03*
X160870000Y-121285000D03*
G04 #@! TD*
D15*
G04 #@! TO.C,J6*
X137795000Y-115570000D03*
D10*
X137795000Y-113030000D03*
X137795000Y-110490000D03*
X137795000Y-107950000D03*
G04 #@! TD*
D12*
G04 #@! TO.C,R1*
X124460000Y-119800000D03*
X124460000Y-121500000D03*
G04 #@! TD*
G04 #@! TO.C,R2*
X123190000Y-111545000D03*
X123190000Y-113245000D03*
G04 #@! TD*
D38*
G04 #@! TO.C,R32*
X150710000Y-118745000D03*
X149010000Y-118745000D03*
G04 #@! TD*
D32*
G04 #@! TO.C,B1*
X183085000Y-99060000D03*
D43*
X175635000Y-99060000D03*
G04 #@! TD*
M02*
