G04 #@! TF.GenerationSoftware,KiCad,Pcbnew,5.0.0-fee4fd1~65~ubuntu17.10.1*
G04 #@! TF.CreationDate,2018-08-22T05:15:13-04:00*
G04 #@! TF.ProjectId,motherboard,6D6F74686572626F6172642E6B696361,rev?*
G04 #@! TF.SameCoordinates,Original*
G04 #@! TF.FileFunction,Soldermask,Top*
G04 #@! TF.FilePolarity,Negative*
%FSLAX46Y46*%
G04 Gerber Fmt 4.6, Leading zero omitted, Abs format (unit mm)*
G04 Created by KiCad (PCBNEW 5.0.0-fee4fd1~65~ubuntu17.10.1) date Wed Aug 22 05:15:13 2018*
%MOMM*%
%LPD*%
G01*
G04 APERTURE LIST*
%ADD10R,0.900000X1.800000*%
%ADD11R,2.900000X4.200000*%
%ADD12R,2.200000X2.600000*%
%ADD13R,1.400000X1.500000*%
%ADD14R,1.500000X1.400000*%
%ADD15R,1.900000X1.700000*%
%ADD16R,0.750000X2.200000*%
%ADD17R,1.908000X1.908000*%
%ADD18R,2.000000X2.000000*%
%ADD19C,2.000000*%
%ADD20R,1.600000X1.050000*%
%ADD21R,2.305000X1.162000*%
%ADD22R,1.162000X2.305000*%
%ADD23R,4.100000X4.100000*%
%ADD24R,1.000000X1.300000*%
%ADD25R,1.700000X1.500000*%
%ADD26R,1.300000X1.000000*%
%ADD27R,1.700000X1.200000*%
%ADD28R,1.300000X1.500000*%
%ADD29R,1.450000X1.500000*%
%ADD30R,1.500000X1.200000*%
%ADD31C,6.750000*%
%ADD32R,2.000000X0.700000*%
%ADD33R,0.700000X2.000000*%
%ADD34R,2.600000X1.000000*%
%ADD35R,0.800000X2.000000*%
%ADD36R,2.000000X0.800000*%
%ADD37R,3.900000X1.600000*%
%ADD38R,1.600000X3.900000*%
%ADD39R,1.700000X1.900000*%
%ADD40R,2.200000X0.750000*%
G04 APERTURE END LIST*
D10*
G04 #@! TO.C,J2*
X130175000Y-89350000D03*
X129375000Y-89350000D03*
X130975000Y-89350000D03*
X131775000Y-89350000D03*
X128575000Y-89350000D03*
D11*
X125975000Y-86750000D03*
X134375000Y-86750000D03*
G04 #@! TD*
D12*
G04 #@! TO.C,J1*
X118030000Y-91550000D03*
X118030000Y-94450000D03*
X110430000Y-94450000D03*
G04 #@! TD*
D13*
G04 #@! TO.C,C26*
X154305000Y-101815000D03*
X154305000Y-100115000D03*
G04 #@! TD*
D14*
G04 #@! TO.C,R22*
X164250000Y-92710000D03*
X165950000Y-92710000D03*
G04 #@! TD*
G04 #@! TO.C,C25*
X164250000Y-94615000D03*
X165950000Y-94615000D03*
G04 #@! TD*
D15*
G04 #@! TO.C,L1*
X123825000Y-92707500D03*
X123825000Y-90807500D03*
G04 #@! TD*
D13*
G04 #@! TO.C,R8*
X177165000Y-107530000D03*
X177165000Y-105830000D03*
G04 #@! TD*
D14*
G04 #@! TO.C,R7*
X133135000Y-106680000D03*
X134835000Y-106680000D03*
G04 #@! TD*
D13*
G04 #@! TO.C,R5*
X117475000Y-103085000D03*
X117475000Y-101385000D03*
G04 #@! TD*
G04 #@! TO.C,R4*
X129540000Y-93242500D03*
X129540000Y-91542500D03*
G04 #@! TD*
D14*
G04 #@! TO.C,R2*
X155360000Y-116205000D03*
X157060000Y-116205000D03*
G04 #@! TD*
G04 #@! TO.C,R1*
X156425000Y-114300000D03*
X154725000Y-114300000D03*
G04 #@! TD*
D13*
G04 #@! TO.C,R3*
X131445000Y-91542500D03*
X131445000Y-93242500D03*
G04 #@! TD*
D16*
G04 #@! TO.C,U7*
X147585000Y-95895000D03*
X148235000Y-95895000D03*
X148885000Y-95895000D03*
X149535000Y-95895000D03*
X150185000Y-95895000D03*
X150835000Y-95895000D03*
X151485000Y-95895000D03*
X152135000Y-95895000D03*
X147585000Y-103495000D03*
X148235000Y-103495000D03*
X148885000Y-103495000D03*
X149535000Y-103495000D03*
X150185000Y-103495000D03*
X150835000Y-103495000D03*
X151485000Y-103495000D03*
X152135000Y-103495000D03*
G04 #@! TD*
D17*
G04 #@! TO.C,J12*
X120650000Y-86360000D03*
G04 #@! TD*
D18*
G04 #@! TO.C,J6*
X137795000Y-97155000D03*
D19*
X137795000Y-99695000D03*
G04 #@! TD*
D18*
G04 #@! TO.C,J10*
X109855000Y-98425000D03*
D19*
X112395000Y-98425000D03*
X109855000Y-100965000D03*
X112395000Y-100965000D03*
X109855000Y-103505000D03*
X112395000Y-103505000D03*
G04 #@! TD*
D15*
G04 #@! TO.C,C20*
X180340000Y-92390000D03*
X180340000Y-90490000D03*
G04 #@! TD*
G04 #@! TO.C,C19*
X176530000Y-90490000D03*
X176530000Y-92390000D03*
G04 #@! TD*
D20*
G04 #@! TO.C,U6*
X177035000Y-94935000D03*
X177035000Y-95885000D03*
X177035000Y-96835000D03*
X179835000Y-96835000D03*
X179835000Y-94935000D03*
G04 #@! TD*
D19*
G04 #@! TO.C,J7*
X166370000Y-116840000D03*
X166370000Y-119380000D03*
X168910000Y-116840000D03*
X168910000Y-119380000D03*
X171450000Y-116840000D03*
D18*
X171450000Y-119380000D03*
G04 #@! TD*
D19*
G04 #@! TO.C,SW1*
X125805000Y-113320000D03*
X119305000Y-113320000D03*
X119305000Y-117820000D03*
X125805000Y-117820000D03*
G04 #@! TD*
D21*
G04 #@! TO.C,U4*
X202946000Y-91313000D03*
X202946000Y-92329000D03*
X202946000Y-93345000D03*
X202946000Y-94361000D03*
X202946000Y-96393000D03*
X202946000Y-100457000D03*
X202946000Y-101473000D03*
X202946000Y-102489000D03*
X202946000Y-103505000D03*
D22*
X200279000Y-106172000D03*
X199263000Y-106172000D03*
X198247000Y-106172000D03*
X197231000Y-106172000D03*
X196215000Y-106172000D03*
X195199000Y-106172000D03*
X194183000Y-106172000D03*
X193167000Y-106172000D03*
X190119000Y-106172000D03*
D21*
X188214000Y-93345000D03*
X188214000Y-94361000D03*
X188214000Y-95377000D03*
X188214000Y-96393000D03*
X188214000Y-97409000D03*
X188214000Y-98425000D03*
X188214000Y-99441000D03*
X188214000Y-100457000D03*
X188214000Y-101473000D03*
X188214000Y-102489000D03*
D23*
X195097400Y-99898200D03*
G04 #@! TD*
D24*
G04 #@! TO.C,J5*
X148550000Y-91780000D03*
X149650000Y-91780000D03*
X150750000Y-91780000D03*
X151850000Y-91780000D03*
X152950000Y-91780000D03*
X154050000Y-91780000D03*
X155150000Y-91780000D03*
X156250000Y-91780000D03*
D25*
X146900000Y-90280000D03*
D26*
X146700000Y-89130000D03*
D27*
X146900000Y-87980000D03*
D28*
X157400000Y-90720000D03*
D29*
X157325000Y-88130000D03*
G04 #@! TD*
D13*
G04 #@! TO.C,C12*
X134620000Y-114720000D03*
X134620000Y-116420000D03*
G04 #@! TD*
D30*
G04 #@! TO.C,D1*
X136890000Y-120650000D03*
X134890000Y-120650000D03*
G04 #@! TD*
D19*
G04 #@! TO.C,J3*
X180340000Y-86995000D03*
X177800000Y-86995000D03*
X175260000Y-86995000D03*
D18*
X172720000Y-86995000D03*
G04 #@! TD*
D14*
G04 #@! TO.C,C1*
X138645000Y-106680000D03*
X136945000Y-106680000D03*
G04 #@! TD*
G04 #@! TO.C,C2*
X129325000Y-106680000D03*
X131025000Y-106680000D03*
G04 #@! TD*
G04 #@! TO.C,C3*
X134835000Y-101600000D03*
X133135000Y-101600000D03*
G04 #@! TD*
D15*
G04 #@! TO.C,C4*
X121920000Y-108905000D03*
X121920000Y-110805000D03*
G04 #@! TD*
D13*
G04 #@! TO.C,C5*
X125095000Y-109005000D03*
X125095000Y-110705000D03*
G04 #@! TD*
G04 #@! TO.C,C6*
X119380000Y-107735000D03*
X119380000Y-109435000D03*
G04 #@! TD*
G04 #@! TO.C,C7*
X177165000Y-111340000D03*
X177165000Y-109640000D03*
G04 #@! TD*
G04 #@! TO.C,C8*
X177165000Y-102020000D03*
X177165000Y-103720000D03*
G04 #@! TD*
D14*
G04 #@! TO.C,C9*
X193460000Y-122555000D03*
X195160000Y-122555000D03*
G04 #@! TD*
D13*
G04 #@! TO.C,C10*
X174625000Y-110070000D03*
X174625000Y-108370000D03*
G04 #@! TD*
D15*
G04 #@! TO.C,F1*
X133985000Y-98740000D03*
X133985000Y-96840000D03*
G04 #@! TD*
D31*
G04 #@! TO.C,H1*
X113030000Y-116840000D03*
G04 #@! TD*
G04 #@! TO.C,H2*
X201930000Y-116840000D03*
G04 #@! TD*
G04 #@! TO.C,H3*
X139700000Y-90805000D03*
G04 #@! TD*
D19*
G04 #@! TO.C,J4*
X114935000Y-109855000D03*
X114935000Y-107315000D03*
X112395000Y-109855000D03*
X112395000Y-107315000D03*
X109855000Y-109855000D03*
D18*
X109855000Y-107315000D03*
G04 #@! TD*
D19*
G04 #@! TO.C,J9*
X141605000Y-98425000D03*
X144145000Y-98425000D03*
X141605000Y-100965000D03*
X144145000Y-100965000D03*
X141605000Y-103505000D03*
X144145000Y-103505000D03*
X141605000Y-106045000D03*
X144145000Y-106045000D03*
X141605000Y-108585000D03*
X144145000Y-108585000D03*
X141605000Y-111125000D03*
X144145000Y-111125000D03*
X141605000Y-113665000D03*
X144145000Y-113665000D03*
X141605000Y-116205000D03*
D18*
X144145000Y-116205000D03*
G04 #@! TD*
D32*
G04 #@! TO.C,U1*
X156465000Y-110775000D03*
X156465000Y-110275000D03*
X156465000Y-109775000D03*
X156465000Y-109275000D03*
X156465000Y-108775000D03*
X156465000Y-108275000D03*
X156465000Y-107775000D03*
X156465000Y-107275000D03*
X156465000Y-106775000D03*
X156465000Y-106275000D03*
X156465000Y-105775000D03*
X156465000Y-105275000D03*
X156465000Y-104775000D03*
X156465000Y-104275000D03*
X156465000Y-103775000D03*
X156465000Y-103275000D03*
X156465000Y-102775000D03*
X156465000Y-102275000D03*
X156465000Y-101775000D03*
X156465000Y-101275000D03*
X156465000Y-100775000D03*
X156465000Y-100275000D03*
X156465000Y-99775000D03*
X156465000Y-99275000D03*
X156465000Y-98775000D03*
D33*
X158465000Y-96775000D03*
X158965000Y-96775000D03*
X159465000Y-96775000D03*
X159965000Y-96775000D03*
X160465000Y-96775000D03*
X160965000Y-96775000D03*
X161465000Y-96775000D03*
X161965000Y-96775000D03*
X162465000Y-96775000D03*
X162965000Y-96775000D03*
X163465000Y-96775000D03*
X163965000Y-96775000D03*
X164465000Y-96775000D03*
X164965000Y-96775000D03*
X165465000Y-96775000D03*
X165965000Y-96775000D03*
X166465000Y-96775000D03*
X166965000Y-96775000D03*
X167465000Y-96775000D03*
X167965000Y-96775000D03*
X168465000Y-96775000D03*
X168965000Y-96775000D03*
X169465000Y-96775000D03*
X169965000Y-96775000D03*
X170465000Y-96775000D03*
D32*
X172465000Y-98775000D03*
X172465000Y-99275000D03*
X172465000Y-99775000D03*
X172465000Y-100275000D03*
X172465000Y-100775000D03*
X172465000Y-101275000D03*
X172465000Y-101775000D03*
X172465000Y-102275000D03*
X172465000Y-102775000D03*
X172465000Y-103275000D03*
X172465000Y-103775000D03*
X172465000Y-104275000D03*
X172465000Y-104775000D03*
X172465000Y-105275000D03*
X172465000Y-105775000D03*
X172465000Y-106275000D03*
X172465000Y-106775000D03*
X172465000Y-107275000D03*
X172465000Y-107775000D03*
X172465000Y-108275000D03*
X172465000Y-108775000D03*
X172465000Y-109275000D03*
X172465000Y-109775000D03*
X172465000Y-110275000D03*
X172465000Y-110775000D03*
D33*
X170465000Y-112775000D03*
X169965000Y-112775000D03*
X169465000Y-112775000D03*
X168965000Y-112775000D03*
X168465000Y-112775000D03*
X167965000Y-112775000D03*
X167465000Y-112775000D03*
X166965000Y-112775000D03*
X166465000Y-112775000D03*
X165965000Y-112775000D03*
X165465000Y-112775000D03*
X164965000Y-112775000D03*
X164465000Y-112775000D03*
X163965000Y-112775000D03*
X163465000Y-112775000D03*
X162965000Y-112775000D03*
X162465000Y-112775000D03*
X161965000Y-112775000D03*
X161465000Y-112775000D03*
X160965000Y-112775000D03*
X160465000Y-112775000D03*
X159965000Y-112775000D03*
X159465000Y-112775000D03*
X158965000Y-112775000D03*
X158465000Y-112775000D03*
G04 #@! TD*
D34*
G04 #@! TO.C,U2*
X169070000Y-89535000D03*
X169070000Y-88265000D03*
X169070000Y-85725000D03*
X163670000Y-89535000D03*
X163670000Y-88265000D03*
X163670000Y-85725000D03*
X169070000Y-86995000D03*
X163670000Y-86995000D03*
G04 #@! TD*
D35*
G04 #@! TO.C,U3*
X127260000Y-106100000D03*
X126460000Y-106100000D03*
X125660000Y-106100000D03*
X124860000Y-106100000D03*
X124060000Y-106100000D03*
X123260000Y-106100000D03*
X122460000Y-106100000D03*
X121660000Y-106100000D03*
D36*
X119960000Y-104400000D03*
X119960000Y-103600000D03*
X119960000Y-102800000D03*
X119960000Y-102000000D03*
X119960000Y-101200000D03*
X119960000Y-100400000D03*
X119960000Y-99600000D03*
X119960000Y-98800000D03*
D35*
X121660000Y-97100000D03*
X122460000Y-97100000D03*
X123260000Y-97100000D03*
X124060000Y-97100000D03*
X124860000Y-97100000D03*
X125660000Y-97100000D03*
X126460000Y-97100000D03*
X127260000Y-97100000D03*
D36*
X128960000Y-98800000D03*
X128960000Y-99600000D03*
X128960000Y-100400000D03*
X128960000Y-101200000D03*
X128960000Y-102000000D03*
X128960000Y-102800000D03*
X128960000Y-103600000D03*
X128960000Y-104400000D03*
G04 #@! TD*
D37*
G04 #@! TO.C,Y1*
X136735000Y-110490000D03*
X131235000Y-110490000D03*
G04 #@! TD*
D38*
G04 #@! TO.C,Y2*
X180975000Y-109430000D03*
X180975000Y-103930000D03*
G04 #@! TD*
D13*
G04 #@! TO.C,Z1*
X133667500Y-91542500D03*
X133667500Y-93242500D03*
G04 #@! TD*
G04 #@! TO.C,Z2*
X127317500Y-91542500D03*
X127317500Y-93242500D03*
G04 #@! TD*
D17*
G04 #@! TO.C,J11*
X137795000Y-115570000D03*
G04 #@! TD*
D14*
G04 #@! TO.C,R10*
X183935000Y-93345000D03*
X185635000Y-93345000D03*
G04 #@! TD*
D13*
G04 #@! TO.C,C11*
X127000000Y-110705000D03*
X127000000Y-109005000D03*
G04 #@! TD*
D15*
G04 #@! TO.C,C13*
X130175000Y-114620000D03*
X130175000Y-116520000D03*
G04 #@! TD*
D14*
G04 #@! TO.C,R6*
X135040000Y-118745000D03*
X136740000Y-118745000D03*
G04 #@! TD*
D13*
G04 #@! TO.C,R9*
X132715000Y-116420000D03*
X132715000Y-114720000D03*
G04 #@! TD*
G04 #@! TO.C,C14*
X160020000Y-89955000D03*
X160020000Y-91655000D03*
G04 #@! TD*
D14*
G04 #@! TO.C,R11*
X171030000Y-92075000D03*
X169330000Y-92075000D03*
G04 #@! TD*
D13*
G04 #@! TO.C,C15*
X199390000Y-109005000D03*
X199390000Y-110705000D03*
G04 #@! TD*
D15*
G04 #@! TO.C,C16*
X194310000Y-110805000D03*
X194310000Y-108905000D03*
G04 #@! TD*
G04 #@! TO.C,C18*
X196850000Y-108905000D03*
X196850000Y-110805000D03*
G04 #@! TD*
D14*
G04 #@! TO.C,R12*
X176315000Y-117475000D03*
X178015000Y-117475000D03*
G04 #@! TD*
G04 #@! TO.C,R13*
X182030000Y-114300000D03*
X183730000Y-114300000D03*
G04 #@! TD*
G04 #@! TO.C,R14*
X183730000Y-117475000D03*
X182030000Y-117475000D03*
G04 #@! TD*
D39*
G04 #@! TO.C,C17*
X192085000Y-109220000D03*
X190185000Y-109220000D03*
G04 #@! TD*
D15*
G04 #@! TO.C,C21*
X144780000Y-95565000D03*
X144780000Y-93665000D03*
G04 #@! TD*
D14*
G04 #@! TO.C,R15*
X147105000Y-107950000D03*
X148805000Y-107950000D03*
G04 #@! TD*
G04 #@! TO.C,R16*
X142455000Y-95885000D03*
X140755000Y-95885000D03*
G04 #@! TD*
G04 #@! TO.C,R17*
X147105000Y-106045000D03*
X148805000Y-106045000D03*
G04 #@! TD*
G04 #@! TO.C,R18*
X153885000Y-121920000D03*
X152185000Y-121920000D03*
G04 #@! TD*
D13*
G04 #@! TO.C,R19*
X172085000Y-94400000D03*
X172085000Y-96100000D03*
G04 #@! TD*
G04 #@! TO.C,R20*
X147320000Y-110910000D03*
X147320000Y-112610000D03*
G04 #@! TD*
G04 #@! TO.C,R21*
X149860000Y-112610000D03*
X149860000Y-110910000D03*
G04 #@! TD*
D14*
G04 #@! TO.C,C22*
X164045000Y-114935000D03*
X162345000Y-114935000D03*
G04 #@! TD*
D13*
G04 #@! TO.C,C23*
X154305000Y-109640000D03*
X154305000Y-111340000D03*
G04 #@! TD*
D14*
G04 #@! TO.C,C24*
X148375000Y-121920000D03*
X150075000Y-121920000D03*
G04 #@! TD*
D13*
G04 #@! TO.C,C27*
X154940000Y-95035000D03*
X154940000Y-96735000D03*
G04 #@! TD*
D40*
G04 #@! TO.C,U5*
X187335000Y-120385000D03*
X187335000Y-119735000D03*
X187335000Y-119085000D03*
X187335000Y-118435000D03*
X187335000Y-117785000D03*
X187335000Y-117135000D03*
X187335000Y-116485000D03*
X187335000Y-115835000D03*
X194935000Y-120385000D03*
X194935000Y-119735000D03*
X194935000Y-119085000D03*
X194935000Y-118435000D03*
X194935000Y-117785000D03*
X194935000Y-117135000D03*
X194935000Y-116485000D03*
X194935000Y-115835000D03*
G04 #@! TD*
M02*
