G04 #@! TF.GenerationSoftware,KiCad,Pcbnew,5.0.0-fee4fd1~65~ubuntu17.10.1*
G04 #@! TF.CreationDate,2018-11-08T19:54:44-05:00*
G04 #@! TF.ProjectId,motherboard,6D6F74686572626F6172642E6B696361,rev?*
G04 #@! TF.SameCoordinates,Original*
G04 #@! TF.FileFunction,Copper,L1,Top,Signal*
G04 #@! TF.FilePolarity,Positive*
%FSLAX46Y46*%
G04 Gerber Fmt 4.6, Leading zero omitted, Abs format (unit mm)*
G04 Created by KiCad (PCBNEW 5.0.0-fee4fd1~65~ubuntu17.10.1) date Thu Nov  8 19:54:44 2018*
%MOMM*%
%LPD*%
G01*
G04 APERTURE LIST*
G04 #@! TA.AperFunction,ComponentPad*
%ADD10R,3.700000X3.700000*%
G04 #@! TD*
G04 #@! TA.AperFunction,SMDPad,CuDef*
%ADD11R,1.905000X0.635000*%
G04 #@! TD*
G04 #@! TA.AperFunction,SMDPad,CuDef*
%ADD12R,0.635000X1.905000*%
G04 #@! TD*
G04 #@! TA.AperFunction,SMDPad,CuDef*
%ADD13R,0.700000X1.000000*%
G04 #@! TD*
G04 #@! TA.AperFunction,SMDPad,CuDef*
%ADD14R,1.400000X1.100000*%
G04 #@! TD*
G04 #@! TA.AperFunction,SMDPad,CuDef*
%ADD15R,1.000000X0.600000*%
G04 #@! TD*
G04 #@! TA.AperFunction,SMDPad,CuDef*
%ADD16R,1.400000X0.900000*%
G04 #@! TD*
G04 #@! TA.AperFunction,SMDPad,CuDef*
%ADD17R,1.000000X1.200000*%
G04 #@! TD*
G04 #@! TA.AperFunction,SMDPad,CuDef*
%ADD18R,1.150000X1.200000*%
G04 #@! TD*
G04 #@! TA.AperFunction,SMDPad,CuDef*
%ADD19R,0.800000X0.900000*%
G04 #@! TD*
G04 #@! TA.AperFunction,SMDPad,CuDef*
%ADD20R,1.300000X1.500000*%
G04 #@! TD*
G04 #@! TA.AperFunction,SMDPad,CuDef*
%ADD21R,1.100000X1.000000*%
G04 #@! TD*
G04 #@! TA.AperFunction,ComponentPad*
%ADD22C,1.600000*%
G04 #@! TD*
G04 #@! TA.AperFunction,SMDPad,CuDef*
%ADD23R,1.000000X1.100000*%
G04 #@! TD*
G04 #@! TA.AperFunction,ComponentPad*
%ADD24R,1.600000X1.600000*%
G04 #@! TD*
G04 #@! TA.AperFunction,ComponentPad*
%ADD25C,6.350000*%
G04 #@! TD*
G04 #@! TA.AperFunction,ViaPad*
%ADD26C,1.016000*%
G04 #@! TD*
G04 #@! TA.AperFunction,SMDPad,CuDef*
%ADD27R,0.400000X1.500000*%
G04 #@! TD*
G04 #@! TA.AperFunction,SMDPad,CuDef*
%ADD28R,1.500000X0.400000*%
G04 #@! TD*
G04 #@! TA.AperFunction,SMDPad,CuDef*
%ADD29R,1.200000X3.500000*%
G04 #@! TD*
G04 #@! TA.AperFunction,SMDPad,CuDef*
%ADD30R,2.500000X3.800000*%
G04 #@! TD*
G04 #@! TA.AperFunction,SMDPad,CuDef*
%ADD31R,0.500000X1.400000*%
G04 #@! TD*
G04 #@! TA.AperFunction,SMDPad,CuDef*
%ADD32R,1.800000X2.200000*%
G04 #@! TD*
G04 #@! TA.AperFunction,SMDPad,CuDef*
%ADD33R,2.200000X0.600000*%
G04 #@! TD*
G04 #@! TA.AperFunction,SMDPad,CuDef*
%ADD34R,1.400000X0.400000*%
G04 #@! TD*
G04 #@! TA.AperFunction,SMDPad,CuDef*
%ADD35R,1.400000X0.250000*%
G04 #@! TD*
G04 #@! TA.AperFunction,SMDPad,CuDef*
%ADD36R,0.250000X1.400000*%
G04 #@! TD*
G04 #@! TA.AperFunction,SMDPad,CuDef*
%ADD37R,1.500000X1.300000*%
G04 #@! TD*
G04 #@! TA.AperFunction,SMDPad,CuDef*
%ADD38R,1.200000X0.650000*%
G04 #@! TD*
G04 #@! TA.AperFunction,SMDPad,CuDef*
%ADD39R,1.600000X1.800000*%
G04 #@! TD*
G04 #@! TA.AperFunction,BGAPad,CuDef*
%ADD40C,1.270000*%
G04 #@! TD*
G04 #@! TA.AperFunction,SMDPad,CuDef*
%ADD41R,1.000000X1.440000*%
G04 #@! TD*
G04 #@! TA.AperFunction,SMDPad,CuDef*
%ADD42R,1.200000X1.440000*%
G04 #@! TD*
G04 #@! TA.AperFunction,SMDPad,CuDef*
%ADD43R,1.800000X1.600000*%
G04 #@! TD*
G04 #@! TA.AperFunction,ViaPad*
%ADD44C,0.812800*%
G04 #@! TD*
G04 #@! TA.AperFunction,ViaPad*
%ADD45C,1.117600*%
G04 #@! TD*
G04 #@! TA.AperFunction,Conductor*
%ADD46C,0.304800*%
G04 #@! TD*
G04 #@! TA.AperFunction,Conductor*
%ADD47C,0.254000*%
G04 #@! TD*
G04 #@! TA.AperFunction,Conductor*
%ADD48C,0.203200*%
G04 #@! TD*
%ADD49C,0.350000*%
G04 APERTURE END LIST*
D10*
G04 #@! TO.P,U4,29*
G04 #@! TO.N,GND*
X195097400Y-99898200D03*
D11*
G04 #@! TO.P,U4,19*
G04 #@! TO.N,Net-(U4-Pad19)*
X188214000Y-102489000D03*
G04 #@! TO.P,U4,18*
G04 #@! TO.N,/Peripherals/WSCK_3V3*
X188214000Y-101473000D03*
G04 #@! TO.P,U4,17*
G04 #@! TO.N,/MISO*
X188214000Y-100457000D03*
G04 #@! TO.P,U4,16*
G04 #@! TO.N,/Peripherals/WCS_3V3*
X188214000Y-99441000D03*
G04 #@! TO.P,U4,15*
G04 #@! TO.N,/Peripherals/WMOSI_3V3*
X188214000Y-98425000D03*
G04 #@! TO.P,U4,14*
G04 #@! TO.N,Net-(U4-Pad14)*
X188214000Y-97409000D03*
G04 #@! TO.P,U4,13*
G04 #@! TO.N,/WIRQ*
X188214000Y-96393000D03*
G04 #@! TO.P,U4,12*
G04 #@! TO.N,GND*
X188214000Y-95377000D03*
G04 #@! TO.P,U4,11*
G04 #@! TO.N,/Peripherals/WWAKE_3V3*
X188214000Y-94361000D03*
G04 #@! TO.P,U4,10*
G04 #@! TO.N,/Peripherals/SPI_CFG*
X188214000Y-93345000D03*
D12*
G04 #@! TO.P,U4,20*
G04 #@! TO.N,+3V3*
X190119000Y-106172000D03*
G04 #@! TO.P,U4,21*
G04 #@! TO.N,/Peripherals/GPIO_1*
X193167000Y-106172000D03*
G04 #@! TO.P,U4,22*
G04 #@! TO.N,/Peripherals/WEN_3V3*
X194183000Y-106172000D03*
G04 #@! TO.P,U4,23*
G04 #@! TO.N,+3V3*
X195199000Y-106172000D03*
G04 #@! TO.P,U4,24*
G04 #@! TO.N,/Peripherals/1P3V*
X196215000Y-106172000D03*
G04 #@! TO.P,U4,25*
G04 #@! TO.N,/Peripherals/GPIO_3*
X197231000Y-106172000D03*
G04 #@! TO.P,U4,26*
G04 #@! TO.N,/Peripherals/LED_WIFI*
X198247000Y-106172000D03*
G04 #@! TO.P,U4,27*
G04 #@! TO.N,/Peripherals/LED_NET*
X199263000Y-106172000D03*
G04 #@! TO.P,U4,28*
G04 #@! TO.N,GND*
X200279000Y-106172000D03*
D11*
G04 #@! TO.P,U4,1*
G04 #@! TO.N,/Peripherals/LED_ERR*
X202946000Y-103505000D03*
G04 #@! TO.P,U4,2*
G04 #@! TO.N,Net-(U4-Pad2)*
X202946000Y-102489000D03*
G04 #@! TO.P,U4,3*
G04 #@! TO.N,Net-(U4-Pad3)*
X202946000Y-101473000D03*
G04 #@! TO.P,U4,4*
G04 #@! TO.N,/Peripherals/WRST_3V3*
X202946000Y-100457000D03*
G04 #@! TO.P,U4,5*
G04 #@! TO.N,Net-(U4-Pad5)*
X202946000Y-96393000D03*
G04 #@! TO.P,U4,6*
G04 #@! TO.N,Net-(U4-Pad6)*
X202946000Y-94361000D03*
G04 #@! TO.P,U4,7*
G04 #@! TO.N,Net-(U4-Pad7)*
X202946000Y-93345000D03*
G04 #@! TO.P,U4,8*
G04 #@! TO.N,Net-(U4-Pad8)*
X202946000Y-92329000D03*
G04 #@! TO.P,U4,9*
G04 #@! TO.N,GND*
X202946000Y-91313000D03*
G04 #@! TD*
D13*
G04 #@! TO.P,J5,1*
G04 #@! TO.N,Net-(J5-Pad1)*
X148550000Y-93050000D03*
G04 #@! TO.P,J5,2*
G04 #@! TO.N,/Peripherals/SDCS_3V3*
X149650000Y-93050000D03*
G04 #@! TO.P,J5,3*
G04 #@! TO.N,/Peripherals/CMOSI_3V3*
X150750000Y-93050000D03*
G04 #@! TO.P,J5,4*
G04 #@! TO.N,DVDD*
X151850000Y-93050000D03*
G04 #@! TO.P,J5,5*
G04 #@! TO.N,/Peripherals/CSCK_3V3*
X152950000Y-93050000D03*
G04 #@! TO.P,J5,6*
G04 #@! TO.N,GND*
X154050000Y-93050000D03*
G04 #@! TO.P,J5,7*
G04 #@! TO.N,/MISO*
X155150000Y-93050000D03*
G04 #@! TO.P,J5,8*
G04 #@! TO.N,Net-(J5-Pad8)*
X156250000Y-93050000D03*
D14*
G04 #@! TO.P,J5,SH*
G04 #@! TO.N,GND*
X146900000Y-91550000D03*
D15*
G04 #@! TO.P,J5,DC*
X146700000Y-90400000D03*
D16*
G04 #@! TO.P,J5,DT*
G04 #@! TO.N,/SD_DET*
X146900000Y-89250000D03*
D17*
G04 #@! TO.P,J5,SH*
G04 #@! TO.N,GND*
X157400000Y-91990000D03*
D18*
X157325000Y-89400000D03*
G04 #@! TD*
D19*
G04 #@! TO.P,Q1,1*
G04 #@! TO.N,Net-(Q1-Pad1)*
X121555000Y-121015000D03*
G04 #@! TO.P,Q1,2*
G04 #@! TO.N,GND*
X123555000Y-121015000D03*
G04 #@! TO.P,Q1,3*
G04 #@! TO.N,/USB Serial/VUSB-DET*
X122555000Y-119015000D03*
G04 #@! TD*
D20*
G04 #@! TO.P,C4,2*
G04 #@! TO.N,Net-(C4-Pad2)*
X132400000Y-107950000D03*
G04 #@! TO.P,C4,1*
G04 #@! TO.N,GND*
X134300000Y-107950000D03*
G04 #@! TD*
D21*
G04 #@! TO.P,R24,1*
G04 #@! TO.N,/USB Serial/URXD*
X155995000Y-117475000D03*
G04 #@! TO.P,R24,2*
G04 #@! TO.N,/PE1*
X157695000Y-117475000D03*
G04 #@! TD*
D22*
G04 #@! TO.P,SW1,2*
G04 #@! TO.N,GND*
X125805000Y-113320000D03*
X119305000Y-113320000D03*
G04 #@! TO.P,SW1,1*
G04 #@! TO.N,Net-(C13-Pad1)*
X119305000Y-117820000D03*
X125805000Y-117820000D03*
G04 #@! TD*
D23*
G04 #@! TO.P,C13,1*
G04 #@! TO.N,Net-(C13-Pad1)*
X135890000Y-120865000D03*
G04 #@! TO.P,C13,2*
G04 #@! TO.N,/RESET*
X135890000Y-119165000D03*
G04 #@! TD*
D22*
G04 #@! TO.P,J12,2*
G04 #@! TO.N,GND*
X202565000Y-111125000D03*
D24*
G04 #@! TO.P,J12,1*
X205105000Y-111125000D03*
G04 #@! TD*
D25*
G04 #@! TO.P,H2,P*
G04 #@! TO.N,GND*
X201930000Y-116840000D03*
D26*
G04 #@! TD*
G04 #@! TO.N,GND*
G04 #@! TO.C,H2*
X201930000Y-114554000D03*
G04 #@! TO.N,GND*
G04 #@! TO.C,H2*
X199950266Y-115697000D03*
X199950266Y-117983000D03*
X201930000Y-119126000D03*
X203909734Y-117983000D03*
X203909734Y-115697000D03*
G04 #@! TD*
D25*
G04 #@! TO.P,H3,P*
G04 #@! TO.N,GND*
X139700000Y-90805000D03*
D26*
G04 #@! TD*
G04 #@! TO.N,GND*
G04 #@! TO.C,H3*
X139700000Y-88519000D03*
G04 #@! TO.N,GND*
G04 #@! TO.C,H3*
X137720266Y-89662000D03*
X137720266Y-91948000D03*
X139700000Y-93091000D03*
X141679734Y-91948000D03*
X141679734Y-89662000D03*
G04 #@! TD*
D25*
G04 #@! TO.P,H1,P*
G04 #@! TO.N,GND*
X113030000Y-116840000D03*
D26*
G04 #@! TD*
G04 #@! TO.N,GND*
G04 #@! TO.C,H1*
X113030000Y-114554000D03*
G04 #@! TO.N,GND*
G04 #@! TO.C,H1*
X111050266Y-115697000D03*
X111050266Y-117983000D03*
X113030000Y-119126000D03*
X115009734Y-117983000D03*
X115009734Y-115697000D03*
G04 #@! TD*
D27*
G04 #@! TO.P,U7,8*
G04 #@! TO.N,GND*
X147585000Y-97230000D03*
G04 #@! TO.P,U7,7*
G04 #@! TO.N,/SDCS*
X148235000Y-97230000D03*
G04 #@! TO.P,U7,6*
G04 #@! TO.N,/Peripherals/SDCS_3V3*
X148885000Y-97230000D03*
G04 #@! TO.P,U7,5*
G04 #@! TO.N,/MOSI*
X149535000Y-97230000D03*
G04 #@! TO.P,U7,4*
G04 #@! TO.N,/Peripherals/CMOSI_3V3*
X150185000Y-97230000D03*
G04 #@! TO.P,U7,3*
G04 #@! TO.N,/SCK*
X150835000Y-97230000D03*
G04 #@! TO.P,U7,2*
G04 #@! TO.N,/Peripherals/CSCK_3V3*
X151485000Y-97230000D03*
G04 #@! TO.P,U7,1*
G04 #@! TO.N,DVDD*
X152135000Y-97230000D03*
G04 #@! TO.P,U7,9*
G04 #@! TO.N,/CRST*
X147585000Y-103430000D03*
G04 #@! TO.P,U7,10*
G04 #@! TO.N,/Peripherals/CRST_3V3*
X148235000Y-103430000D03*
G04 #@! TO.P,U7,11*
G04 #@! TO.N,/XDCS*
X148885000Y-103430000D03*
G04 #@! TO.P,U7,12*
G04 #@! TO.N,/Peripherals/XDCS_3V3*
X149535000Y-103430000D03*
G04 #@! TO.P,U7,13*
G04 #@! TO.N,N/C*
X150185000Y-103430000D03*
G04 #@! TO.P,U7,14*
G04 #@! TO.N,/CCS*
X150835000Y-103430000D03*
G04 #@! TO.P,U7,15*
G04 #@! TO.N,/Peripherals/CCS_3V3*
X151485000Y-103430000D03*
G04 #@! TO.P,U7,16*
G04 #@! TO.N,N/C*
X152135000Y-103430000D03*
G04 #@! TD*
D28*
G04 #@! TO.P,U5,8*
G04 #@! TO.N,GND*
X194235000Y-115835000D03*
G04 #@! TO.P,U5,7*
G04 #@! TO.N,/WWAKE*
X194235000Y-116485000D03*
G04 #@! TO.P,U5,6*
G04 #@! TO.N,/Peripherals/WWAKE_3V3*
X194235000Y-117135000D03*
G04 #@! TO.P,U5,5*
G04 #@! TO.N,/SCK*
X194235000Y-117785000D03*
G04 #@! TO.P,U5,4*
G04 #@! TO.N,/Peripherals/WSCK_3V3*
X194235000Y-118435000D03*
G04 #@! TO.P,U5,3*
G04 #@! TO.N,/MOSI*
X194235000Y-119085000D03*
G04 #@! TO.P,U5,2*
G04 #@! TO.N,/Peripherals/WMOSI_3V3*
X194235000Y-119735000D03*
G04 #@! TO.P,U5,1*
G04 #@! TO.N,+3V3*
X194235000Y-120385000D03*
G04 #@! TO.P,U5,9*
G04 #@! TO.N,/WEN*
X188035000Y-115835000D03*
G04 #@! TO.P,U5,10*
G04 #@! TO.N,/Peripherals/WEN_3V3*
X188035000Y-116485000D03*
G04 #@! TO.P,U5,11*
G04 #@! TO.N,/WRST*
X188035000Y-117135000D03*
G04 #@! TO.P,U5,12*
G04 #@! TO.N,/Peripherals/WRST_3V3*
X188035000Y-117785000D03*
G04 #@! TO.P,U5,13*
G04 #@! TO.N,N/C*
X188035000Y-118435000D03*
G04 #@! TO.P,U5,14*
G04 #@! TO.N,/WCS*
X188035000Y-119085000D03*
G04 #@! TO.P,U5,15*
G04 #@! TO.N,/Peripherals/WCS_3V3*
X188035000Y-119735000D03*
G04 #@! TO.P,U5,16*
G04 #@! TO.N,N/C*
X188035000Y-120385000D03*
G04 #@! TD*
D29*
G04 #@! TO.P,Y2,2*
G04 #@! TO.N,Net-(C7-Pad1)*
X180975000Y-109430000D03*
G04 #@! TO.P,Y2,1*
G04 #@! TO.N,Net-(C8-Pad1)*
X180975000Y-103930000D03*
G04 #@! TD*
G04 #@! TO.P,Y1,2*
G04 #@! TO.N,Net-(C1-Pad1)*
X137160000Y-98215000D03*
G04 #@! TO.P,Y1,1*
G04 #@! TO.N,Net-(C2-Pad1)*
X137160000Y-103715000D03*
G04 #@! TD*
D30*
G04 #@! TO.P,J2,SH*
G04 #@! TO.N,GND*
X134375000Y-86750000D03*
X125975000Y-86750000D03*
D31*
G04 #@! TO.P,J2,5*
X128575000Y-89150000D03*
G04 #@! TO.P,J2,1*
G04 #@! TO.N,/USB Serial/UVCC_IN*
X131775000Y-89150000D03*
G04 #@! TO.P,J2,2*
G04 #@! TO.N,/USB Serial/D_IN-*
X130975000Y-89150000D03*
G04 #@! TO.P,J2,4*
G04 #@! TO.N,Net-(J2-Pad4)*
X129375000Y-89150000D03*
G04 #@! TO.P,J2,3*
G04 #@! TO.N,/USB Serial/D_IN+*
X130175000Y-89150000D03*
G04 #@! TD*
D32*
G04 #@! TO.P,J1,2*
G04 #@! TO.N,GND*
X118665000Y-91550000D03*
G04 #@! TO.P,J1,3*
X118665000Y-94450000D03*
G04 #@! TO.P,J1,1*
G04 #@! TO.N,/VIN*
X111065000Y-94450000D03*
G04 #@! TD*
D33*
G04 #@! TO.P,U2,5*
G04 #@! TO.N,GND*
X169070000Y-89535000D03*
G04 #@! TO.P,U2,6*
G04 #@! TO.N,Net-(B1-PadP)*
X169070000Y-88265000D03*
G04 #@! TO.P,U2,8*
G04 #@! TO.N,/SCL*
X169070000Y-85725000D03*
G04 #@! TO.P,U2,4*
G04 #@! TO.N,Net-(U2-Pad4)*
X163670000Y-89535000D03*
G04 #@! TO.P,U2,3*
G04 #@! TO.N,/RTC_INT*
X163670000Y-88265000D03*
G04 #@! TO.P,U2,1*
G04 #@! TO.N,Net-(U2-Pad1)*
X163670000Y-85725000D03*
G04 #@! TO.P,U2,7*
G04 #@! TO.N,/SDA*
X169070000Y-86995000D03*
G04 #@! TO.P,U2,2*
G04 #@! TO.N,+5V*
X163670000Y-86995000D03*
G04 #@! TD*
D34*
G04 #@! TO.P,U3,32*
G04 #@! TO.N,+5V*
X128860000Y-103245000D03*
G04 #@! TO.P,U3,31*
G04 #@! TO.N,/USB Serial/UVCC*
X128860000Y-104045000D03*
G04 #@! TO.P,U3,30*
G04 #@! TO.N,/USB Serial/D-*
X128860000Y-104845000D03*
G04 #@! TO.P,U3,29*
G04 #@! TO.N,/USB Serial/D+*
X128860000Y-105645000D03*
G04 #@! TO.P,U3,28*
G04 #@! TO.N,GND*
X128860000Y-106445000D03*
G04 #@! TO.P,U3,27*
G04 #@! TO.N,Net-(C4-Pad2)*
X128860000Y-107245000D03*
G04 #@! TO.P,U3,26*
G04 #@! TO.N,Net-(U3-Pad26)*
X128860000Y-108045000D03*
G04 #@! TO.P,U3,25*
G04 #@! TO.N,Net-(U3-Pad25)*
X128860000Y-108845000D03*
D31*
G04 #@! TO.P,U3,24*
G04 #@! TO.N,/USB Serial/RESET-USB*
X127260000Y-110445000D03*
G04 #@! TO.P,U3,23*
G04 #@! TO.N,Net-(U3-Pad23)*
X126460000Y-110445000D03*
G04 #@! TO.P,U3,22*
G04 #@! TO.N,/USB Serial/VUSB-DET*
X125660000Y-110445000D03*
G04 #@! TO.P,U3,21*
G04 #@! TO.N,Net-(U3-Pad21)*
X124860000Y-110445000D03*
G04 #@! TO.P,U3,20*
G04 #@! TO.N,Net-(U3-Pad20)*
X124060000Y-110445000D03*
G04 #@! TO.P,U3,19*
G04 #@! TO.N,Net-(U3-Pad19)*
X123260000Y-110445000D03*
G04 #@! TO.P,U3,18*
G04 #@! TO.N,Net-(U3-Pad18)*
X122460000Y-110445000D03*
G04 #@! TO.P,U3,17*
G04 #@! TO.N,/USB Serial/MISO-USB*
X121660000Y-110445000D03*
D34*
G04 #@! TO.P,U3,16*
G04 #@! TO.N,/USB Serial/MOSI-USB*
X120060000Y-108845000D03*
G04 #@! TO.P,U3,15*
G04 #@! TO.N,/USB Serial/SCK-USB*
X120060000Y-108045000D03*
G04 #@! TO.P,U3,14*
G04 #@! TO.N,Net-(U3-Pad14)*
X120060000Y-107245000D03*
G04 #@! TO.P,U3,13*
G04 #@! TO.N,/USB Serial/RESET*
X120060000Y-106445000D03*
G04 #@! TO.P,U3,12*
G04 #@! TO.N,Net-(U3-Pad12)*
X120060000Y-105645000D03*
G04 #@! TO.P,U3,11*
G04 #@! TO.N,/USB Serial/LED_TX*
X120060000Y-104845000D03*
G04 #@! TO.P,U3,10*
G04 #@! TO.N,/USB Serial/LED_RX*
X120060000Y-104045000D03*
G04 #@! TO.P,U3,9*
G04 #@! TO.N,/USB Serial/UTXD*
X120060000Y-103245000D03*
D31*
G04 #@! TO.P,U3,8*
G04 #@! TO.N,/USB Serial/URXD*
X121660000Y-101645000D03*
G04 #@! TO.P,U3,7*
G04 #@! TO.N,Net-(U3-Pad7)*
X122460000Y-101645000D03*
G04 #@! TO.P,U3,6*
G04 #@! TO.N,Net-(U3-Pad6)*
X123260000Y-101645000D03*
G04 #@! TO.P,U3,5*
G04 #@! TO.N,Net-(U3-Pad5)*
X124060000Y-101645000D03*
G04 #@! TO.P,U3,4*
G04 #@! TO.N,+5V*
X124860000Y-101645000D03*
G04 #@! TO.P,U3,3*
G04 #@! TO.N,GND*
X125660000Y-101645000D03*
G04 #@! TO.P,U3,2*
G04 #@! TO.N,Net-(C1-Pad1)*
X126460000Y-101645000D03*
G04 #@! TO.P,U3,1*
G04 #@! TO.N,Net-(C2-Pad1)*
X127260000Y-101645000D03*
G04 #@! TD*
D35*
G04 #@! TO.P,U1,100*
G04 #@! TO.N,+5V*
X156565000Y-110775000D03*
G04 #@! TO.P,U1,99*
G04 #@! TO.N,GND*
X156565000Y-110275000D03*
G04 #@! TO.P,U1,98*
G04 #@! TO.N,Net-(C24-Pad1)*
X156565000Y-109775000D03*
G04 #@! TO.P,U1,97*
G04 #@! TO.N,Net-(U1-Pad97)*
X156565000Y-109275000D03*
G04 #@! TO.P,U1,96*
G04 #@! TO.N,Net-(U1-Pad96)*
X156565000Y-108775000D03*
G04 #@! TO.P,U1,95*
G04 #@! TO.N,Net-(U1-Pad95)*
X156565000Y-108275000D03*
G04 #@! TO.P,U1,94*
G04 #@! TO.N,Net-(U1-Pad94)*
X156565000Y-107775000D03*
G04 #@! TO.P,U1,93*
G04 #@! TO.N,Net-(U1-Pad93)*
X156565000Y-107275000D03*
G04 #@! TO.P,U1,92*
G04 #@! TO.N,Net-(U1-Pad92)*
X156565000Y-106775000D03*
G04 #@! TO.P,U1,91*
G04 #@! TO.N,Net-(U1-Pad91)*
X156565000Y-106275000D03*
G04 #@! TO.P,U1,90*
G04 #@! TO.N,Net-(U1-Pad90)*
X156565000Y-105775000D03*
G04 #@! TO.P,U1,89*
G04 #@! TO.N,/LOW_BATT*
X156565000Y-105275000D03*
G04 #@! TO.P,U1,88*
G04 #@! TO.N,Net-(U1-Pad88)*
X156565000Y-104775000D03*
G04 #@! TO.P,U1,87*
G04 #@! TO.N,Net-(U1-Pad87)*
X156565000Y-104275000D03*
G04 #@! TO.P,U1,86*
G04 #@! TO.N,Net-(U1-Pad86)*
X156565000Y-103775000D03*
G04 #@! TO.P,U1,85*
G04 #@! TO.N,Net-(U1-Pad85)*
X156565000Y-103275000D03*
G04 #@! TO.P,U1,84*
G04 #@! TO.N,Net-(U1-Pad84)*
X156565000Y-102775000D03*
G04 #@! TO.P,U1,83*
G04 #@! TO.N,/ON_BATT*
X156565000Y-102275000D03*
G04 #@! TO.P,U1,82*
G04 #@! TO.N,Net-(U1-Pad82)*
X156565000Y-101775000D03*
G04 #@! TO.P,U1,81*
G04 #@! TO.N,GND*
X156565000Y-101275000D03*
G04 #@! TO.P,U1,80*
G04 #@! TO.N,+5V*
X156565000Y-100775000D03*
G04 #@! TO.P,U1,79*
G04 #@! TO.N,Net-(U1-Pad79)*
X156565000Y-100275000D03*
G04 #@! TO.P,U1,78*
G04 #@! TO.N,Net-(U1-Pad78)*
X156565000Y-99775000D03*
G04 #@! TO.P,U1,77*
G04 #@! TO.N,Net-(U1-Pad77)*
X156565000Y-99275000D03*
G04 #@! TO.P,U1,76*
G04 #@! TO.N,Net-(U1-Pad76)*
X156565000Y-98775000D03*
D36*
G04 #@! TO.P,U1,75*
G04 #@! TO.N,/ALRM_SW*
X158465000Y-96875000D03*
G04 #@! TO.P,U1,74*
G04 #@! TO.N,Net-(U1-Pad74)*
X158965000Y-96875000D03*
G04 #@! TO.P,U1,73*
G04 #@! TO.N,Net-(U1-Pad73)*
X159465000Y-96875000D03*
G04 #@! TO.P,U1,72*
G04 #@! TO.N,/A_SHDN*
X159965000Y-96875000D03*
G04 #@! TO.P,U1,71*
G04 #@! TO.N,/XDCS*
X160465000Y-96875000D03*
G04 #@! TO.P,U1,70*
G04 #@! TO.N,Net-(U1-Pad70)*
X160965000Y-96875000D03*
G04 #@! TO.P,U1,69*
G04 #@! TO.N,Net-(U1-Pad69)*
X161465000Y-96875000D03*
G04 #@! TO.P,U1,68*
G04 #@! TO.N,Net-(U1-Pad68)*
X161965000Y-96875000D03*
G04 #@! TO.P,U1,67*
G04 #@! TO.N,Net-(U1-Pad67)*
X162465000Y-96875000D03*
G04 #@! TO.P,U1,66*
G04 #@! TO.N,Net-(U1-Pad66)*
X162965000Y-96875000D03*
G04 #@! TO.P,U1,65*
G04 #@! TO.N,Net-(U1-Pad65)*
X163465000Y-96875000D03*
G04 #@! TO.P,U1,64*
G04 #@! TO.N,Net-(U1-Pad64)*
X163965000Y-96875000D03*
G04 #@! TO.P,U1,63*
G04 #@! TO.N,Net-(U1-Pad63)*
X164465000Y-96875000D03*
G04 #@! TO.P,U1,62*
G04 #@! TO.N,GND*
X164965000Y-96875000D03*
G04 #@! TO.P,U1,61*
G04 #@! TO.N,+5V*
X165465000Y-96875000D03*
G04 #@! TO.P,U1,60*
G04 #@! TO.N,/PIX_SHDN*
X165965000Y-96875000D03*
G04 #@! TO.P,U1,59*
G04 #@! TO.N,Net-(U1-Pad59)*
X166465000Y-96875000D03*
G04 #@! TO.P,U1,58*
G04 #@! TO.N,Net-(U1-Pad58)*
X166965000Y-96875000D03*
G04 #@! TO.P,U1,57*
G04 #@! TO.N,/SD_DET*
X167465000Y-96875000D03*
G04 #@! TO.P,U1,56*
G04 #@! TO.N,Net-(U1-Pad56)*
X167965000Y-96875000D03*
G04 #@! TO.P,U1,55*
G04 #@! TO.N,/PIX_LAMP*
X168465000Y-96875000D03*
G04 #@! TO.P,U1,54*
G04 #@! TO.N,Net-(U1-Pad54)*
X168965000Y-96875000D03*
G04 #@! TO.P,U1,53*
G04 #@! TO.N,/PIX_CLK*
X169465000Y-96875000D03*
G04 #@! TO.P,U1,52*
G04 #@! TO.N,Net-(U1-Pad52)*
X169965000Y-96875000D03*
G04 #@! TO.P,U1,51*
G04 #@! TO.N,Net-(U1-Pad51)*
X170465000Y-96875000D03*
D35*
G04 #@! TO.P,U1,50*
G04 #@! TO.N,Net-(U1-Pad50)*
X172365000Y-98775000D03*
G04 #@! TO.P,U1,49*
G04 #@! TO.N,Net-(U1-Pad49)*
X172365000Y-99275000D03*
G04 #@! TO.P,U1,48*
G04 #@! TO.N,Net-(U1-Pad48)*
X172365000Y-99775000D03*
G04 #@! TO.P,U1,47*
G04 #@! TO.N,Net-(U1-Pad47)*
X172365000Y-100275000D03*
G04 #@! TO.P,U1,46*
G04 #@! TO.N,/DREQ*
X172365000Y-100775000D03*
G04 #@! TO.P,U1,45*
G04 #@! TO.N,/WIRQ*
X172365000Y-101275000D03*
G04 #@! TO.P,U1,44*
G04 #@! TO.N,/SDA*
X172365000Y-101775000D03*
G04 #@! TO.P,U1,43*
G04 #@! TO.N,/SCL*
X172365000Y-102275000D03*
G04 #@! TO.P,U1,42*
G04 #@! TO.N,/P42*
X172365000Y-102775000D03*
G04 #@! TO.P,U1,41*
G04 #@! TO.N,/P43*
X172365000Y-103275000D03*
G04 #@! TO.P,U1,40*
G04 #@! TO.N,/P44*
X172365000Y-103775000D03*
G04 #@! TO.P,U1,39*
G04 #@! TO.N,/P45*
X172365000Y-104275000D03*
G04 #@! TO.P,U1,38*
G04 #@! TO.N,/P46*
X172365000Y-104775000D03*
G04 #@! TO.P,U1,37*
G04 #@! TO.N,Net-(U1-Pad37)*
X172365000Y-105275000D03*
G04 #@! TO.P,U1,36*
G04 #@! TO.N,Net-(U1-Pad36)*
X172365000Y-105775000D03*
G04 #@! TO.P,U1,35*
G04 #@! TO.N,Net-(U1-Pad35)*
X172365000Y-106275000D03*
G04 #@! TO.P,U1,34*
G04 #@! TO.N,Net-(C8-Pad1)*
X172365000Y-106775000D03*
G04 #@! TO.P,U1,33*
G04 #@! TO.N,Net-(C7-Pad1)*
X172365000Y-107275000D03*
G04 #@! TO.P,U1,32*
G04 #@! TO.N,GND*
X172365000Y-107775000D03*
G04 #@! TO.P,U1,31*
G04 #@! TO.N,+5V*
X172365000Y-108275000D03*
G04 #@! TO.P,U1,30*
G04 #@! TO.N,/RESET*
X172365000Y-108775000D03*
G04 #@! TO.P,U1,29*
G04 #@! TO.N,Net-(U1-Pad29)*
X172365000Y-109275000D03*
G04 #@! TO.P,U1,28*
G04 #@! TO.N,Net-(U1-Pad28)*
X172365000Y-109775000D03*
G04 #@! TO.P,U1,27*
G04 #@! TO.N,Net-(U1-Pad27)*
X172365000Y-110275000D03*
G04 #@! TO.P,U1,26*
G04 #@! TO.N,/WCS*
X172365000Y-110775000D03*
D36*
G04 #@! TO.P,U1,25*
G04 #@! TO.N,/WEN*
X170465000Y-112675000D03*
G04 #@! TO.P,U1,24*
G04 #@! TO.N,/WRST*
X169965000Y-112675000D03*
G04 #@! TO.P,U1,23*
G04 #@! TO.N,/WWAKE*
X169465000Y-112675000D03*
G04 #@! TO.P,U1,22*
G04 #@! TO.N,/MISO*
X168965000Y-112675000D03*
G04 #@! TO.P,U1,21*
G04 #@! TO.N,/MOSI*
X168465000Y-112675000D03*
G04 #@! TO.P,U1,20*
G04 #@! TO.N,/SCK*
X167965000Y-112675000D03*
G04 #@! TO.P,U1,19*
G04 #@! TO.N,Net-(U1-Pad19)*
X167465000Y-112675000D03*
G04 #@! TO.P,U1,18*
G04 #@! TO.N,/CRST*
X166965000Y-112675000D03*
G04 #@! TO.P,U1,17*
G04 #@! TO.N,/ALS_INT*
X166465000Y-112675000D03*
G04 #@! TO.P,U1,16*
G04 #@! TO.N,Net-(U1-Pad16)*
X165965000Y-112675000D03*
G04 #@! TO.P,U1,15*
G04 #@! TO.N,/CFG\005C~RST*
X165465000Y-112675000D03*
G04 #@! TO.P,U1,14*
G04 #@! TO.N,Net-(U1-Pad14)*
X164965000Y-112675000D03*
G04 #@! TO.P,U1,13*
G04 #@! TO.N,/CCS*
X164465000Y-112675000D03*
G04 #@! TO.P,U1,12*
G04 #@! TO.N,Net-(U1-Pad12)*
X163965000Y-112675000D03*
G04 #@! TO.P,U1,11*
G04 #@! TO.N,GND*
X163465000Y-112675000D03*
G04 #@! TO.P,U1,10*
G04 #@! TO.N,+5V*
X162965000Y-112675000D03*
G04 #@! TO.P,U1,9*
G04 #@! TO.N,Net-(U1-Pad9)*
X162465000Y-112675000D03*
G04 #@! TO.P,U1,8*
G04 #@! TO.N,Net-(U1-Pad8)*
X161965000Y-112675000D03*
G04 #@! TO.P,U1,7*
G04 #@! TO.N,/KCHG*
X161465000Y-112675000D03*
G04 #@! TO.P,U1,6*
G04 #@! TO.N,/RTC_INT*
X160965000Y-112675000D03*
G04 #@! TO.P,U1,5*
G04 #@! TO.N,/OLRST*
X160465000Y-112675000D03*
G04 #@! TO.P,U1,4*
G04 #@! TO.N,Net-(U1-Pad4)*
X159965000Y-112675000D03*
G04 #@! TO.P,U1,3*
G04 #@! TO.N,/PE1*
X159465000Y-112675000D03*
G04 #@! TO.P,U1,2*
G04 #@! TO.N,/PE0*
X158965000Y-112675000D03*
G04 #@! TO.P,U1,1*
G04 #@! TO.N,/SDCS*
X158465000Y-112675000D03*
G04 #@! TD*
D23*
G04 #@! TO.P,C26,1*
G04 #@! TO.N,GND*
X154305000Y-102450000D03*
G04 #@! TO.P,C26,2*
G04 #@! TO.N,+5V*
X154305000Y-100750000D03*
G04 #@! TD*
D21*
G04 #@! TO.P,C25,1*
G04 #@! TO.N,GND*
X164250000Y-93980000D03*
G04 #@! TO.P,C25,2*
G04 #@! TO.N,+5V*
X165950000Y-93980000D03*
G04 #@! TD*
D23*
G04 #@! TO.P,R8,1*
G04 #@! TO.N,Net-(C7-Pad1)*
X177165000Y-107530000D03*
G04 #@! TO.P,R8,2*
G04 #@! TO.N,Net-(C8-Pad1)*
X177165000Y-105830000D03*
G04 #@! TD*
G04 #@! TO.P,R7,2*
G04 #@! TO.N,Net-(C2-Pad1)*
X133350000Y-101815000D03*
G04 #@! TO.P,R7,1*
G04 #@! TO.N,Net-(C1-Pad1)*
X133350000Y-100115000D03*
G04 #@! TD*
D21*
G04 #@! TO.P,R5,1*
G04 #@! TO.N,/USB Serial/RESET-USB*
X131865000Y-114935000D03*
G04 #@! TO.P,R5,2*
G04 #@! TO.N,+5V*
X133565000Y-114935000D03*
G04 #@! TD*
D23*
G04 #@! TO.P,R4,2*
G04 #@! TO.N,/USB Serial/D+*
X129540000Y-93877500D03*
G04 #@! TO.P,R4,1*
G04 #@! TO.N,/USB Serial/D_IN+*
X129540000Y-92177500D03*
G04 #@! TD*
G04 #@! TO.P,R3,1*
G04 #@! TO.N,/USB Serial/D_IN-*
X131445000Y-92177500D03*
G04 #@! TO.P,R3,2*
G04 #@! TO.N,/USB Serial/D-*
X131445000Y-93877500D03*
G04 #@! TD*
D24*
G04 #@! TO.P,J10,1*
G04 #@! TO.N,/VIN*
X110490000Y-98425000D03*
D22*
G04 #@! TO.P,J10,2*
G04 #@! TO.N,+5V*
X113030000Y-98425000D03*
G04 #@! TO.P,J10,3*
G04 #@! TO.N,/VIN*
X110490000Y-100965000D03*
G04 #@! TO.P,J10,4*
G04 #@! TO.N,+5V*
X113030000Y-100965000D03*
G04 #@! TO.P,J10,5*
G04 #@! TO.N,GND*
X110490000Y-103505000D03*
G04 #@! TO.P,J10,6*
X113030000Y-103505000D03*
G04 #@! TD*
D37*
G04 #@! TO.P,C20,2*
G04 #@! TO.N,+3V3*
X180340000Y-92390000D03*
G04 #@! TO.P,C20,1*
G04 #@! TO.N,GND*
X180340000Y-90490000D03*
G04 #@! TD*
G04 #@! TO.P,C19,1*
G04 #@! TO.N,GND*
X176530000Y-90490000D03*
G04 #@! TO.P,C19,2*
G04 #@! TO.N,+5V*
X176530000Y-92390000D03*
G04 #@! TD*
D38*
G04 #@! TO.P,U6,1*
G04 #@! TO.N,+5V*
X177035000Y-94935000D03*
G04 #@! TO.P,U6,2*
G04 #@! TO.N,GND*
X177035000Y-95885000D03*
G04 #@! TO.P,U6,3*
G04 #@! TO.N,+5V*
X177035000Y-96835000D03*
G04 #@! TO.P,U6,4*
G04 #@! TO.N,Net-(U6-Pad4)*
X179835000Y-96835000D03*
G04 #@! TO.P,U6,5*
G04 #@! TO.N,+3V3*
X179835000Y-94935000D03*
G04 #@! TD*
D22*
G04 #@! TO.P,J7,6*
G04 #@! TO.N,GND*
X166370000Y-116840000D03*
G04 #@! TO.P,J7,5*
G04 #@! TO.N,/RESET*
X166370000Y-119380000D03*
G04 #@! TO.P,J7,4*
G04 #@! TO.N,/MOSI*
X168910000Y-116840000D03*
G04 #@! TO.P,J7,3*
G04 #@! TO.N,/SCK*
X168910000Y-119380000D03*
G04 #@! TO.P,J7,2*
G04 #@! TO.N,+5V*
X171450000Y-116840000D03*
D24*
G04 #@! TO.P,J7,1*
G04 #@! TO.N,/MISO*
X171450000Y-119380000D03*
G04 #@! TD*
D21*
G04 #@! TO.P,C12,2*
G04 #@! TO.N,/RESET*
X151980000Y-121285000D03*
G04 #@! TO.P,C12,1*
G04 #@! TO.N,GND*
X150280000Y-121285000D03*
G04 #@! TD*
D22*
G04 #@! TO.P,J3,4*
G04 #@! TO.N,/KCHG*
X180340000Y-86995000D03*
G04 #@! TO.P,J3,3*
G04 #@! TO.N,/A_SHDN*
X177800000Y-86995000D03*
G04 #@! TO.P,J3,2*
G04 #@! TO.N,/SCL*
X175260000Y-86995000D03*
D24*
G04 #@! TO.P,J3,1*
G04 #@! TO.N,/SDA*
X172720000Y-86995000D03*
G04 #@! TD*
D21*
G04 #@! TO.P,C1,2*
G04 #@! TO.N,GND*
X131865000Y-97790000D03*
G04 #@! TO.P,C1,1*
G04 #@! TO.N,Net-(C1-Pad1)*
X133565000Y-97790000D03*
G04 #@! TD*
G04 #@! TO.P,C2,2*
G04 #@! TO.N,GND*
X131865000Y-104140000D03*
G04 #@! TO.P,C2,1*
G04 #@! TO.N,Net-(C2-Pad1)*
X133565000Y-104140000D03*
G04 #@! TD*
G04 #@! TO.P,C5,2*
G04 #@! TO.N,/USB Serial/UVCC*
X124675000Y-97155000D03*
G04 #@! TO.P,C5,1*
G04 #@! TO.N,GND*
X122975000Y-97155000D03*
G04 #@! TD*
G04 #@! TO.P,C6,2*
G04 #@! TO.N,/USB Serial/RESET*
X131865000Y-118745000D03*
G04 #@! TO.P,C6,1*
G04 #@! TO.N,/RESET*
X133565000Y-118745000D03*
G04 #@! TD*
D23*
G04 #@! TO.P,C7,2*
G04 #@! TO.N,GND*
X177165000Y-111340000D03*
G04 #@! TO.P,C7,1*
G04 #@! TO.N,Net-(C7-Pad1)*
X177165000Y-109640000D03*
G04 #@! TD*
G04 #@! TO.P,C8,2*
G04 #@! TO.N,GND*
X177165000Y-102020000D03*
G04 #@! TO.P,C8,1*
G04 #@! TO.N,Net-(C8-Pad1)*
X177165000Y-103720000D03*
G04 #@! TD*
D21*
G04 #@! TO.P,C9,1*
G04 #@! TO.N,+3V3*
X195160000Y-121920000D03*
G04 #@! TO.P,C9,2*
G04 #@! TO.N,GND*
X193460000Y-121920000D03*
G04 #@! TD*
D23*
G04 #@! TO.P,C10,2*
G04 #@! TO.N,+5V*
X174625000Y-110070000D03*
G04 #@! TO.P,C10,1*
G04 #@! TO.N,GND*
X174625000Y-108370000D03*
G04 #@! TD*
D22*
G04 #@! TO.P,J4,6*
G04 #@! TO.N,GND*
X114935000Y-109855000D03*
G04 #@! TO.P,J4,5*
G04 #@! TO.N,/USB Serial/RESET-USB*
X114935000Y-107315000D03*
G04 #@! TO.P,J4,4*
G04 #@! TO.N,/USB Serial/MOSI-USB*
X112395000Y-109855000D03*
G04 #@! TO.P,J4,3*
G04 #@! TO.N,/USB Serial/SCK-USB*
X112395000Y-107315000D03*
G04 #@! TO.P,J4,2*
G04 #@! TO.N,+5V*
X109855000Y-109855000D03*
D24*
G04 #@! TO.P,J4,1*
G04 #@! TO.N,/USB Serial/MISO-USB*
X109855000Y-107315000D03*
G04 #@! TD*
D22*
G04 #@! TO.P,J9,16*
G04 #@! TO.N,/ALRM_SW*
X141605000Y-98425000D03*
G04 #@! TO.P,J9,15*
G04 #@! TO.N,DVDD*
X144145000Y-98425000D03*
G04 #@! TO.P,J9,14*
G04 #@! TO.N,/Peripherals/XDCS_3V3*
X141605000Y-100965000D03*
G04 #@! TO.P,J9,13*
G04 #@! TO.N,/MISO*
X144145000Y-100965000D03*
G04 #@! TO.P,J9,12*
G04 #@! TO.N,/Peripherals/CSCK_3V3*
X141605000Y-103505000D03*
G04 #@! TO.P,J9,11*
G04 #@! TO.N,/Peripherals/CMOSI_3V3*
X144145000Y-103505000D03*
G04 #@! TO.P,J9,10*
G04 #@! TO.N,/DREQ*
X141605000Y-106045000D03*
G04 #@! TO.P,J9,9*
G04 #@! TO.N,/Peripherals/CRST_3V3*
X144145000Y-106045000D03*
G04 #@! TO.P,J9,8*
G04 #@! TO.N,/PIX_SHDN*
X141605000Y-108585000D03*
G04 #@! TO.P,J9,7*
G04 #@! TO.N,/Peripherals/CCS_3V3*
X144145000Y-108585000D03*
G04 #@! TO.P,J9,6*
G04 #@! TO.N,/PIX_LAMP*
X141605000Y-111125000D03*
G04 #@! TO.P,J9,5*
G04 #@! TO.N,/PIX_CLK*
X144145000Y-111125000D03*
G04 #@! TO.P,J9,4*
G04 #@! TO.N,GND*
X141605000Y-113665000D03*
G04 #@! TO.P,J9,3*
X144145000Y-113665000D03*
G04 #@! TO.P,J9,2*
G04 #@! TO.N,+5V*
X141605000Y-116205000D03*
D24*
G04 #@! TO.P,J9,1*
X144145000Y-116205000D03*
G04 #@! TD*
D21*
G04 #@! TO.P,R10,2*
G04 #@! TO.N,+3V3*
X183935000Y-93345000D03*
G04 #@! TO.P,R10,1*
G04 #@! TO.N,/Peripherals/SPI_CFG*
X185635000Y-93345000D03*
G04 #@! TD*
G04 #@! TO.P,C11,2*
G04 #@! TO.N,GND*
X125945000Y-99060000D03*
G04 #@! TO.P,C11,1*
G04 #@! TO.N,+5V*
X124245000Y-99060000D03*
G04 #@! TD*
G04 #@! TO.P,R6,2*
G04 #@! TO.N,+5V*
X140755000Y-120650000D03*
G04 #@! TO.P,R6,1*
G04 #@! TO.N,/CFG\005C~RST*
X142455000Y-120650000D03*
G04 #@! TD*
G04 #@! TO.P,R9,2*
G04 #@! TO.N,+5V*
X150280000Y-119380000D03*
G04 #@! TO.P,R9,1*
G04 #@! TO.N,/RESET*
X151980000Y-119380000D03*
G04 #@! TD*
G04 #@! TO.P,R11,1*
G04 #@! TO.N,/RTC_INT*
X169965000Y-92710000D03*
G04 #@! TO.P,R11,2*
G04 #@! TO.N,+5V*
X171665000Y-92710000D03*
G04 #@! TD*
D23*
G04 #@! TO.P,C15,2*
G04 #@! TO.N,/Peripherals/1P3V*
X199390000Y-109005000D03*
G04 #@! TO.P,C15,1*
G04 #@! TO.N,GND*
X199390000Y-110705000D03*
G04 #@! TD*
D37*
G04 #@! TO.P,C16,1*
G04 #@! TO.N,+3V3*
X194310000Y-109540000D03*
G04 #@! TO.P,C16,2*
G04 #@! TO.N,GND*
X194310000Y-111440000D03*
G04 #@! TD*
G04 #@! TO.P,C18,2*
G04 #@! TO.N,/Peripherals/1P3V*
X196850000Y-108905000D03*
G04 #@! TO.P,C18,1*
G04 #@! TO.N,GND*
X196850000Y-110805000D03*
G04 #@! TD*
D21*
G04 #@! TO.P,R12,1*
G04 #@! TO.N,+5V*
X176315000Y-117475000D03*
G04 #@! TO.P,R12,2*
G04 #@! TO.N,/WCS*
X178015000Y-117475000D03*
G04 #@! TD*
G04 #@! TO.P,R13,1*
G04 #@! TO.N,GND*
X182030000Y-114300000D03*
G04 #@! TO.P,R13,2*
G04 #@! TO.N,/WEN*
X183730000Y-114300000D03*
G04 #@! TD*
G04 #@! TO.P,R14,2*
G04 #@! TO.N,/WRST*
X183730000Y-117475000D03*
G04 #@! TO.P,R14,1*
G04 #@! TO.N,GND*
X182030000Y-117475000D03*
G04 #@! TD*
D20*
G04 #@! TO.P,C17,1*
G04 #@! TO.N,+3V3*
X190185000Y-109220000D03*
G04 #@! TO.P,C17,2*
G04 #@! TO.N,GND*
X192085000Y-109220000D03*
G04 #@! TD*
D37*
G04 #@! TO.P,C21,1*
G04 #@! TO.N,GND*
X144653000Y-95565000D03*
G04 #@! TO.P,C21,2*
G04 #@! TO.N,DVDD*
X144653000Y-93665000D03*
G04 #@! TD*
D21*
G04 #@! TO.P,R15,1*
G04 #@! TO.N,DVDD*
X147740000Y-108585000D03*
G04 #@! TO.P,R15,2*
G04 #@! TO.N,/CCS*
X149440000Y-108585000D03*
G04 #@! TD*
D23*
G04 #@! TO.P,R16,2*
G04 #@! TO.N,/SDCS*
X153035000Y-107530000D03*
G04 #@! TO.P,R16,1*
G04 #@! TO.N,DVDD*
X153035000Y-105830000D03*
G04 #@! TD*
D21*
G04 #@! TO.P,R17,1*
G04 #@! TO.N,DVDD*
X147740000Y-106680000D03*
G04 #@! TO.P,R17,2*
G04 #@! TO.N,/XDCS*
X149440000Y-106680000D03*
G04 #@! TD*
G04 #@! TO.P,R18,2*
G04 #@! TO.N,/CRST*
X176950000Y-114300000D03*
G04 #@! TO.P,R18,1*
G04 #@! TO.N,GND*
X178650000Y-114300000D03*
G04 #@! TD*
G04 #@! TO.P,C22,1*
G04 #@! TO.N,GND*
X164045000Y-115570000D03*
G04 #@! TO.P,C22,2*
G04 #@! TO.N,+5V*
X162345000Y-115570000D03*
G04 #@! TD*
D23*
G04 #@! TO.P,C23,1*
G04 #@! TO.N,GND*
X154305000Y-109640000D03*
G04 #@! TO.P,C23,2*
G04 #@! TO.N,+5V*
X154305000Y-111340000D03*
G04 #@! TD*
D21*
G04 #@! TO.P,C24,2*
G04 #@! TO.N,GND*
X150280000Y-116205000D03*
G04 #@! TO.P,C24,1*
G04 #@! TO.N,Net-(C24-Pad1)*
X151980000Y-116205000D03*
G04 #@! TD*
D23*
G04 #@! TO.P,C3,1*
G04 #@! TO.N,DVDD*
X154305000Y-98005000D03*
G04 #@! TO.P,C3,2*
G04 #@! TO.N,GND*
X154305000Y-96305000D03*
G04 #@! TD*
D21*
G04 #@! TO.P,R23,1*
G04 #@! TO.N,/CFG\005C~RST*
X142455000Y-122555000D03*
G04 #@! TO.P,R23,2*
G04 #@! TO.N,Net-(C13-Pad1)*
X140755000Y-122555000D03*
G04 #@! TD*
D39*
G04 #@! TO.P,D1,A*
G04 #@! TO.N,/RESET*
X133480000Y-121285000D03*
G04 #@! TO.P,D1,K*
G04 #@! TO.N,+5V*
X130680000Y-121285000D03*
G04 #@! TD*
G04 #@! TO.P,D2,K*
G04 #@! TO.N,+5V*
X134115000Y-112395000D03*
G04 #@! TO.P,D2,A*
G04 #@! TO.N,/USB Serial/RESET-USB*
X131315000Y-112395000D03*
G04 #@! TD*
D24*
G04 #@! TO.P,J6,1*
G04 #@! TO.N,/LOW_BATT*
X137795000Y-115570000D03*
D22*
G04 #@! TO.P,J6,2*
G04 #@! TO.N,/ON_BATT*
X137795000Y-113030000D03*
G04 #@! TO.P,J6,3*
G04 #@! TO.N,/SDA*
X137795000Y-110490000D03*
G04 #@! TO.P,J6,4*
G04 #@! TO.N,/SCL*
X137795000Y-107950000D03*
G04 #@! TD*
D21*
G04 #@! TO.P,R19,1*
G04 #@! TO.N,/USB Serial/UTXD*
X154725000Y-114935000D03*
G04 #@! TO.P,R19,2*
G04 #@! TO.N,/PE0*
X156425000Y-114935000D03*
G04 #@! TD*
D40*
G04 #@! TO.P,TP2,1*
G04 #@! TO.N,/RESET*
X138430000Y-118110000D03*
G04 #@! TD*
D23*
G04 #@! TO.P,C14,1*
G04 #@! TO.N,GND*
X160020000Y-92290000D03*
G04 #@! TO.P,C14,2*
G04 #@! TO.N,+5V*
X160020000Y-90590000D03*
G04 #@! TD*
G04 #@! TO.P,R20,1*
G04 #@! TO.N,/SDA*
X147320000Y-110910000D03*
G04 #@! TO.P,R20,2*
G04 #@! TO.N,+5V*
X147320000Y-112610000D03*
G04 #@! TD*
G04 #@! TO.P,R21,2*
G04 #@! TO.N,+5V*
X149860000Y-112610000D03*
G04 #@! TO.P,R21,1*
G04 #@! TO.N,/SCL*
X149860000Y-110910000D03*
G04 #@! TD*
D21*
G04 #@! TO.P,R22,1*
G04 #@! TO.N,/SD_DET*
X164250000Y-92075000D03*
G04 #@! TO.P,R22,2*
G04 #@! TO.N,+5V*
X165950000Y-92075000D03*
G04 #@! TD*
D41*
G04 #@! TO.P,DA1,4*
G04 #@! TO.N,/USB Serial/UVCC*
X127054156Y-94431202D03*
G04 #@! TO.P,DA1,3*
G04 #@! TO.N,/USB Serial/D_IN-*
X125154156Y-94431202D03*
G04 #@! TO.P,DA1,2*
G04 #@! TO.N,/USB Serial/D_IN+*
X125154156Y-92231202D03*
D42*
G04 #@! TO.P,DA1,1*
G04 #@! TO.N,GND*
X126854156Y-92231202D03*
G04 #@! TD*
D43*
G04 #@! TO.P,F1,1*
G04 #@! TO.N,/USB Serial/UVCC_IN*
X133985000Y-91945000D03*
G04 #@! TO.P,F1,2*
G04 #@! TO.N,/USB Serial/UVCC*
X133985000Y-94745000D03*
G04 #@! TD*
D21*
G04 #@! TO.P,R1,1*
G04 #@! TO.N,/USB Serial/UVCC*
X119165000Y-115570000D03*
G04 #@! TO.P,R1,2*
G04 #@! TO.N,Net-(Q1-Pad1)*
X120865000Y-115570000D03*
G04 #@! TD*
G04 #@! TO.P,R2,2*
G04 #@! TO.N,/USB Serial/VUSB-DET*
X122975000Y-115570000D03*
G04 #@! TO.P,R2,1*
G04 #@! TO.N,+5V*
X124675000Y-115570000D03*
G04 #@! TD*
D26*
G04 #@! TO.N,GND*
X205740000Y-93345000D03*
X180340000Y-114300000D03*
X180340000Y-117475000D03*
X184785000Y-95885000D03*
X198120000Y-113030000D03*
X191770000Y-111125000D03*
X116205000Y-92075000D03*
X116205000Y-93980000D03*
X154305000Y-94615000D03*
X146685000Y-95885000D03*
X201295000Y-107950000D03*
X163830000Y-117475000D03*
X144145000Y-122555000D03*
X145415000Y-122555000D03*
X154305000Y-108585000D03*
X154305000Y-103505000D03*
X191770000Y-122555000D03*
X197485000Y-115570000D03*
X144145000Y-91440000D03*
X148590000Y-116205000D03*
X174625000Y-97790000D03*
X181610000Y-97790000D03*
X196215000Y-113030000D03*
X178435000Y-90170000D03*
X171450000Y-89535000D03*
X178435000Y-91440000D03*
X178435000Y-92710000D03*
X174625000Y-96520000D03*
X181610000Y-96520000D03*
X163195000Y-93980000D03*
X160020000Y-93980000D03*
X148590000Y-121285000D03*
X135890000Y-107950000D03*
X174625000Y-111760000D03*
X130810000Y-99060000D03*
X130810000Y-102870000D03*
X130810000Y-106045000D03*
X179070000Y-111760000D03*
X179070000Y-101600000D03*
X124460000Y-122555000D03*
X121285000Y-90170000D03*
X121285000Y-92075000D03*
X121285000Y-93980000D03*
X116205000Y-90170000D03*
X131445000Y-110490000D03*
X127635000Y-98425000D03*
D44*
G04 #@! TO.N,/MISO*
X187325000Y-109855000D03*
X155575000Y-94615000D03*
X163830000Y-118745000D03*
X161290000Y-116840000D03*
X160020000Y-111125000D03*
X159385000Y-99060000D03*
D26*
G04 #@! TO.N,+5V*
X173990000Y-93345000D03*
X173990000Y-94615000D03*
X174625000Y-117475000D03*
X163195000Y-111125000D03*
X147320000Y-113665000D03*
X170180000Y-107315000D03*
X173990000Y-92075000D03*
X149860000Y-113665000D03*
X154305000Y-99695000D03*
X138430000Y-120650000D03*
X154305000Y-113030000D03*
X161290000Y-89535000D03*
X168275000Y-92710000D03*
X148590000Y-119380000D03*
X126365000Y-115570000D03*
X128270000Y-120015000D03*
X128270000Y-121285000D03*
X135890000Y-112395000D03*
X135890000Y-114300000D03*
X114935000Y-99695000D03*
X114935000Y-98425000D03*
X114935000Y-100965000D03*
X122555000Y-99695000D03*
D44*
G04 #@! TO.N,/SCK*
X150495000Y-99060000D03*
X161290000Y-101600000D03*
G04 #@! TO.N,/MOSI*
X184785000Y-120015000D03*
X196215000Y-118745000D03*
X176530000Y-120015000D03*
X149860000Y-95250000D03*
X162560000Y-101600000D03*
G04 #@! TO.N,/RESET*
X169545000Y-109220000D03*
X163830000Y-120015000D03*
D26*
G04 #@! TO.N,/VIN*
X112395000Y-90170000D03*
X112395000Y-92075000D03*
X109855000Y-90170000D03*
X109855000Y-92075000D03*
D44*
G04 #@! TO.N,/USB Serial/RESET-USB*
X123825000Y-108585000D03*
G04 #@! TO.N,/USB Serial/D-*
X127584200Y-104736900D03*
X131127500Y-95567500D03*
G04 #@! TO.N,/USB Serial/D+*
X127584200Y-105752900D03*
X129857500Y-95567500D03*
G04 #@! TO.N,/USB Serial/D_IN+*
X123564156Y-92696202D03*
X129540000Y-90805000D03*
G04 #@! TO.N,/USB Serial/D_IN-*
X123564156Y-93966202D03*
X131445000Y-90805000D03*
G04 #@! TO.N,/DREQ*
X140335000Y-96520000D03*
X170815000Y-94615000D03*
X162560000Y-92710000D03*
G04 #@! TO.N,/A_SHDN*
X166370000Y-99060000D03*
D45*
G04 #@! TO.N,+3V3*
X195580000Y-104140000D03*
X182245000Y-94615000D03*
X182245000Y-92075000D03*
X182245000Y-93345000D03*
D26*
X196850000Y-120015000D03*
X194310000Y-93345000D03*
D45*
X189865000Y-104140000D03*
D44*
G04 #@! TO.N,Net-(B1-PadP)*
X181610000Y-88265000D03*
G04 #@! TO.N,/RTC_INT*
X167640000Y-91440000D03*
X161925000Y-109220000D03*
G04 #@! TO.N,/Peripherals/WRST_3V3*
X189865000Y-116840000D03*
X204470000Y-108585000D03*
G04 #@! TO.N,/Peripherals/WEN_3V3*
X193675000Y-104140000D03*
X189230000Y-114935000D03*
G04 #@! TO.N,/Peripherals/WWAKE_3V3*
X188595000Y-112395000D03*
X194945000Y-114300000D03*
X196215000Y-116840000D03*
X191770000Y-95250000D03*
G04 #@! TO.N,/Peripherals/WMOSI_3V3*
X191135000Y-116205000D03*
X192405000Y-120015000D03*
G04 #@! TO.N,/Peripherals/WCS_3V3*
X187325000Y-111125000D03*
X186055000Y-120015000D03*
G04 #@! TO.N,/Peripherals/WSCK_3V3*
X193040000Y-113665000D03*
X192405000Y-118745000D03*
G04 #@! TO.N,/WCS*
X170465000Y-110775000D03*
X179705000Y-118745000D03*
G04 #@! TO.N,/WIRQ*
X190500000Y-96520000D03*
X173990000Y-100965000D03*
G04 #@! TO.N,/Peripherals/CMOSI_3V3*
X148590000Y-99060000D03*
G04 #@! TO.N,/Peripherals/CSCK_3V3*
X151765000Y-99060000D03*
X153035000Y-94615000D03*
G04 #@! TO.N,/SDCS*
X146685000Y-98425000D03*
X153035000Y-108585000D03*
X159385000Y-100330000D03*
X158750000Y-107950000D03*
D26*
G04 #@! TO.N,DVDD*
X146050000Y-107315000D03*
X151765000Y-94615000D03*
X147320000Y-93980000D03*
D44*
G04 #@! TO.N,/PIX_SHDN*
X161925000Y-98425000D03*
G04 #@! TO.N,/PIX_LAMP*
X165100000Y-103505000D03*
G04 #@! TO.N,/PIX_CLK*
X165100000Y-105410000D03*
G04 #@! TO.N,/KCHG*
X163195000Y-109855000D03*
G04 #@! TO.N,/SCL*
X166370000Y-85725000D03*
X151765000Y-109855000D03*
X147320000Y-116205000D03*
X166370000Y-104775000D03*
G04 #@! TO.N,/SDA*
X167005000Y-86995000D03*
X148590000Y-111125000D03*
X146050000Y-116205000D03*
X164465000Y-90805000D03*
X167640000Y-103505000D03*
G04 #@! TO.N,/CCS*
X151765000Y-101600000D03*
X161290000Y-104140000D03*
G04 #@! TO.N,/XDCS*
X149225000Y-105410000D03*
X160655000Y-95250000D03*
G04 #@! TO.N,/CRST*
X166370000Y-114935000D03*
X148590000Y-101600000D03*
X174625000Y-114300000D03*
X161290000Y-102870000D03*
G04 #@! TO.N,/ALS_INT*
X165735000Y-111125000D03*
G04 #@! TO.N,/OLRST*
X160020000Y-118110000D03*
G04 #@! TO.N,/ALRM_SW*
X157480000Y-94615000D03*
G04 #@! TO.N,Net-(C24-Pad1)*
X153035000Y-116205000D03*
X158750000Y-115570000D03*
X157480000Y-112395000D03*
G04 #@! TO.N,/LOW_BATT*
X158115000Y-104140000D03*
G04 #@! TO.N,/ON_BATT*
X159385000Y-95250000D03*
X158115000Y-98425000D03*
G04 #@! TO.N,/SD_DET*
X144780000Y-90170000D03*
X167640000Y-93980000D03*
X162560000Y-90805000D03*
G04 #@! TO.N,/P42*
X170815000Y-103505000D03*
G04 #@! TO.N,/P43*
X174625000Y-103505000D03*
G04 #@! TO.N,/P44*
X174625000Y-104775000D03*
G04 #@! TO.N,/P46*
X170815000Y-106045000D03*
G04 #@! TO.N,/P45*
X170180000Y-104775000D03*
G04 #@! TO.N,/Peripherals/LED_NET*
X200025000Y-104140000D03*
G04 #@! TO.N,/Peripherals/GPIO_1*
X192405000Y-102870000D03*
G04 #@! TO.N,/Peripherals/GPIO_3*
X198755000Y-102870000D03*
G04 #@! TO.N,/Peripherals/LED_WIFI*
X198755000Y-104140000D03*
G04 #@! TO.N,/Peripherals/LED_ERR*
X205105000Y-103505000D03*
G04 #@! TO.N,/USB Serial/LED_TX*
X121920000Y-105410000D03*
G04 #@! TO.N,/USB Serial/LED_RX*
X118110000Y-106680000D03*
G04 #@! TO.N,/USB Serial/RESET*
X123825000Y-107315000D03*
X128905000Y-118110000D03*
D26*
G04 #@! TO.N,/USB Serial/UVCC*
X116840000Y-107315000D03*
X116840000Y-109855000D03*
X117475000Y-115570000D03*
X135890000Y-93980000D03*
X126365000Y-97155000D03*
X125095000Y-104775000D03*
D44*
G04 #@! TO.N,/USB Serial/UTXD*
X125095000Y-107315000D03*
X133985000Y-109855000D03*
G04 #@! TO.N,/USB Serial/URXD*
X135890000Y-110490000D03*
X125095000Y-106045000D03*
G04 #@! TD*
D46*
G04 #@! TO.N,GND*
X182030000Y-114300000D02*
X180340000Y-114300000D01*
D47*
X154940000Y-110275000D02*
X154305000Y-109640000D01*
X156465000Y-110275000D02*
X154940000Y-110275000D01*
D46*
X182030000Y-117475000D02*
X180340000Y-117475000D01*
X185293000Y-95377000D02*
X188214000Y-95377000D01*
X184785000Y-95885000D02*
X185293000Y-95377000D01*
X202946000Y-91313000D02*
X204342972Y-91313000D01*
X146700000Y-91350000D02*
X146900000Y-91550000D01*
X146700000Y-90400000D02*
X146700000Y-91350000D01*
D47*
X163465000Y-112775000D02*
X163465000Y-113935000D01*
D46*
X164045000Y-114515000D02*
X164045000Y-115570000D01*
D47*
X163465000Y-113935000D02*
X164045000Y-114515000D01*
X174030000Y-107775000D02*
X174625000Y-108370000D01*
X172465000Y-107775000D02*
X174030000Y-107775000D01*
D46*
X154080000Y-96530000D02*
X154090000Y-96520000D01*
D47*
X156565000Y-101275000D02*
X155480000Y-101275000D01*
X155155000Y-101600000D02*
X155155000Y-102020000D01*
X155480000Y-101275000D02*
X155155000Y-101600000D01*
X154725000Y-102450000D02*
X154305000Y-102450000D01*
X155155000Y-102020000D02*
X154725000Y-102450000D01*
D46*
X154305000Y-94615000D02*
X154050000Y-94360000D01*
D47*
X154305000Y-94615000D02*
X154305000Y-96305000D01*
X146685000Y-95885000D02*
X147320000Y-95885000D01*
X147585000Y-97230000D02*
X147585000Y-96150000D01*
X147585000Y-96150000D02*
X147320000Y-95885000D01*
X146050000Y-95885000D02*
X146685000Y-95885000D01*
X145730000Y-95565000D02*
X146050000Y-95885000D01*
X144653000Y-95565000D02*
X145730000Y-95565000D01*
D46*
X200279000Y-107569000D02*
X200279000Y-106172000D01*
X201295000Y-107950000D02*
X200660000Y-107950000D01*
X200660000Y-107950000D02*
X200279000Y-107569000D01*
D47*
X180340000Y-114300000D02*
X178650000Y-114300000D01*
D46*
X164045000Y-117260000D02*
X164045000Y-115570000D01*
X163830000Y-117475000D02*
X164045000Y-117260000D01*
D47*
X154305000Y-102450000D02*
X154305000Y-103505000D01*
X154305000Y-108585000D02*
X154305000Y-109640000D01*
X191770000Y-122555000D02*
X192405000Y-121920000D01*
X192405000Y-121920000D02*
X193460000Y-121920000D01*
D46*
X195315000Y-115835000D02*
X194935000Y-115835000D01*
X197485000Y-115570000D02*
X195580000Y-115570000D01*
X195580000Y-115570000D02*
X195315000Y-115835000D01*
D47*
X154050000Y-93050000D02*
X154050000Y-93725000D01*
X154305000Y-93980000D02*
X154305000Y-94615000D01*
X154050000Y-93725000D02*
X154305000Y-93980000D01*
X164965000Y-95750000D02*
X164965000Y-96775000D01*
X164250000Y-93980000D02*
X164250000Y-95035000D01*
X164250000Y-95035000D02*
X164965000Y-95750000D01*
D46*
X145525000Y-91550000D02*
X146900000Y-91550000D01*
X145415000Y-91440000D02*
X145525000Y-91550000D01*
X144145000Y-91440000D02*
X145415000Y-91440000D01*
D47*
X150280000Y-116205000D02*
X148590000Y-116205000D01*
D46*
X169070000Y-89535000D02*
X171450000Y-89535000D01*
X163195000Y-93980000D02*
X164250000Y-93980000D01*
D47*
X150280000Y-121285000D02*
X148590000Y-121285000D01*
X134300000Y-107950000D02*
X135890000Y-107950000D01*
D46*
X125660000Y-101645000D02*
X125660000Y-100400000D01*
X125660000Y-100400000D02*
X125945000Y-100115000D01*
X125945000Y-100115000D02*
X125945000Y-99060000D01*
D47*
X123825000Y-122555000D02*
X124460000Y-122555000D01*
X123555000Y-121015000D02*
X123555000Y-122285000D01*
X123555000Y-122285000D02*
X123825000Y-122555000D01*
D46*
X127635000Y-98425000D02*
X127000000Y-99060000D01*
X127000000Y-99060000D02*
X125945000Y-99060000D01*
D47*
X122975000Y-97155000D02*
X121920000Y-97155000D01*
X121920000Y-97155000D02*
X121285000Y-96520000D01*
X121285000Y-96520000D02*
X120650000Y-95885000D01*
X204342972Y-91313000D02*
X204978000Y-91313000D01*
X205740000Y-92075000D02*
X205740000Y-93345000D01*
X204978000Y-91313000D02*
X205740000Y-92075000D01*
D48*
G04 #@! TO.N,/MISO*
X170446800Y-119380000D02*
X171450000Y-119380000D01*
X170180000Y-119113200D02*
X170446800Y-119380000D01*
X170180000Y-115570000D02*
X170180000Y-119113200D01*
X168965000Y-112775000D02*
X168965000Y-114355000D01*
X168965000Y-114355000D02*
X170180000Y-115570000D01*
X155150000Y-93050000D02*
X155405199Y-93050000D01*
X155150000Y-94190000D02*
X155150000Y-93050000D01*
X155575000Y-94615000D02*
X155150000Y-94190000D01*
X185420000Y-107950000D02*
X185420000Y-101600000D01*
X187325000Y-109855000D02*
X185420000Y-107950000D01*
X185420000Y-101600000D02*
X186563000Y-100457000D01*
X186563000Y-100457000D02*
X188214000Y-100457000D01*
X160020000Y-101600000D02*
X160020000Y-108585000D01*
X160655000Y-100965000D02*
X160020000Y-101600000D01*
X160020000Y-108585000D02*
X160020000Y-111125000D01*
X159385000Y-99060000D02*
X160655000Y-100330000D01*
X160655000Y-100330000D02*
X160655000Y-100965000D01*
D46*
G04 #@! TO.N,+5V*
X178120000Y-94935000D02*
X177035000Y-94935000D01*
X177939800Y-96835000D02*
X178435000Y-96339800D01*
X178435000Y-96339800D02*
X178435000Y-95250000D01*
X177035000Y-96835000D02*
X177939800Y-96835000D01*
X178435000Y-95250000D02*
X178120000Y-94935000D01*
X174625000Y-117475000D02*
X176315000Y-117475000D01*
D47*
X174625000Y-110070000D02*
X174205000Y-110070000D01*
X174205000Y-110070000D02*
X173794799Y-109659799D01*
X173794799Y-109659799D02*
X173794799Y-108585000D01*
X173484799Y-108275000D02*
X173794799Y-108585000D01*
X172465000Y-108275000D02*
X173484799Y-108275000D01*
X162965000Y-114315000D02*
X162345000Y-114935000D01*
X162965000Y-112775000D02*
X162965000Y-114315000D01*
X162965000Y-112775000D02*
X162965000Y-111355000D01*
D46*
X162965000Y-111355000D02*
X163195000Y-111125000D01*
D47*
X154870000Y-110775000D02*
X154305000Y-111340000D01*
X156465000Y-110775000D02*
X154870000Y-110775000D01*
D46*
X147320000Y-112610000D02*
X147320000Y-113665000D01*
D47*
X171140000Y-108275000D02*
X172465000Y-108275000D01*
X170180000Y-107315000D02*
X171140000Y-108275000D01*
D46*
X161290000Y-89535000D02*
X161290000Y-89375000D01*
X161925000Y-86995000D02*
X163670000Y-86995000D01*
X161290000Y-89535000D02*
X161290000Y-87630000D01*
X161290000Y-87630000D02*
X161925000Y-86995000D01*
X165950000Y-93980000D02*
X165950000Y-92075000D01*
D47*
X165465000Y-96775000D02*
X165465000Y-95520000D01*
X165950000Y-95035000D02*
X165950000Y-93980000D01*
X165465000Y-95520000D02*
X165950000Y-95035000D01*
X162345000Y-114935000D02*
X162345000Y-115570000D01*
X171665000Y-92710000D02*
X173990000Y-92710000D01*
X154330000Y-100775000D02*
X154305000Y-100750000D01*
X156565000Y-100775000D02*
X154330000Y-100775000D01*
D46*
X149860000Y-112610000D02*
X149860000Y-113665000D01*
D47*
X154305000Y-99695000D02*
X154305000Y-100750000D01*
X138430000Y-120650000D02*
X140755000Y-120650000D01*
D46*
X154305000Y-111340000D02*
X154305000Y-113030000D01*
D47*
X160020000Y-90590000D02*
X160870000Y-90590000D01*
X160870000Y-90590000D02*
X161290000Y-90170000D01*
X161290000Y-90170000D02*
X161290000Y-89535000D01*
D46*
X167005000Y-92075000D02*
X165950000Y-92075000D01*
X168275000Y-92710000D02*
X167640000Y-92710000D01*
X167640000Y-92710000D02*
X167005000Y-92075000D01*
D47*
X150280000Y-119380000D02*
X148590000Y-119380000D01*
X124860000Y-101645000D02*
X124860000Y-102635000D01*
X125470000Y-103245000D02*
X128860000Y-103245000D01*
X124860000Y-102635000D02*
X125470000Y-103245000D01*
D46*
X124245000Y-100115000D02*
X124245000Y-99060000D01*
X124860000Y-101645000D02*
X124860000Y-100730000D01*
X124860000Y-100730000D02*
X124245000Y-100115000D01*
D47*
X124675000Y-115570000D02*
X126365000Y-115570000D01*
X133565000Y-114935000D02*
X133565000Y-114085000D01*
X134115000Y-113535000D02*
X134115000Y-112395000D01*
X133565000Y-114085000D02*
X134115000Y-113535000D01*
X128270000Y-121285000D02*
X129540000Y-121285000D01*
X129540000Y-121285000D02*
X130680000Y-121285000D01*
X135890000Y-112395000D02*
X134115000Y-112395000D01*
D46*
X123190000Y-99060000D02*
X124245000Y-99060000D01*
X122555000Y-99695000D02*
X123190000Y-99060000D01*
D48*
G04 #@! TO.N,/SCK*
X150495000Y-99060000D02*
X150495000Y-98425000D01*
X150495000Y-98425000D02*
X150835000Y-98085000D01*
X150835000Y-98085000D02*
X150835000Y-97230000D01*
X171450000Y-121920000D02*
X189865000Y-121920000D01*
X189865000Y-121920000D02*
X191135000Y-120650000D01*
X191135000Y-118745000D02*
X192095000Y-117785000D01*
X192095000Y-117785000D02*
X194935000Y-117785000D01*
X168910000Y-119380000D02*
X171450000Y-121920000D01*
X191135000Y-120650000D02*
X191135000Y-118745000D01*
X167965000Y-114610000D02*
X167640000Y-114935000D01*
X167640000Y-118110000D02*
X168910000Y-119380000D01*
X163195000Y-103505000D02*
X163195000Y-106045000D01*
X161290000Y-101600000D02*
X163195000Y-103505000D01*
X167640000Y-114935000D02*
X167640000Y-118110000D01*
X163195000Y-106045000D02*
X167965000Y-110815000D01*
X167965000Y-110815000D02*
X167965000Y-114610000D01*
G04 #@! TO.N,/MOSI*
X195580000Y-118745000D02*
X195240000Y-119085000D01*
X195240000Y-119085000D02*
X194935000Y-119085000D01*
X196215000Y-118745000D02*
X195580000Y-118745000D01*
X176530000Y-120015000D02*
X184785000Y-120015000D01*
X149535000Y-96210000D02*
X149535000Y-97230000D01*
X149860000Y-95250000D02*
X149860000Y-95885000D01*
X149860000Y-95885000D02*
X149535000Y-96210000D01*
X168910000Y-114935000D02*
X168910000Y-116840000D01*
X168465000Y-114490000D02*
X168910000Y-114935000D01*
X168465000Y-110045000D02*
X168465000Y-114490000D01*
X163830000Y-105410000D02*
X168465000Y-110045000D01*
X163830000Y-102870000D02*
X163830000Y-105410000D01*
X162560000Y-101600000D02*
X163830000Y-102870000D01*
G04 #@! TO.N,/RESET*
X169990000Y-108775000D02*
X172465000Y-108775000D01*
X169545000Y-109220000D02*
X169990000Y-108775000D01*
X135890000Y-119165000D02*
X135040000Y-119165000D01*
X134620000Y-118745000D02*
X133565000Y-118745000D01*
X135040000Y-119165000D02*
X134620000Y-118745000D01*
X133565000Y-121200000D02*
X133480000Y-121285000D01*
X133565000Y-118745000D02*
X133565000Y-121200000D01*
X138430000Y-118110000D02*
X138430000Y-119165000D01*
X138430000Y-119165000D02*
X135890000Y-119165000D01*
X151980000Y-121285000D02*
X151980000Y-122555000D01*
X151980000Y-119380000D02*
X151980000Y-121285000D01*
X163830000Y-120650000D02*
X163830000Y-120015000D01*
X161925000Y-122555000D02*
X163830000Y-120650000D01*
X138430000Y-119165000D02*
X145200000Y-119165000D01*
X145200000Y-119165000D02*
X148590000Y-122555000D01*
X148590000Y-122555000D02*
X161925000Y-122555000D01*
G04 #@! TO.N,Net-(C2-Pad1)*
X133565000Y-104140000D02*
X133565000Y-103085000D01*
X133350000Y-102870000D02*
X133350000Y-101815000D01*
X133565000Y-103085000D02*
X133350000Y-102870000D01*
X133350000Y-101815000D02*
X134200000Y-101815000D01*
X136100000Y-103715000D02*
X137160000Y-103715000D01*
X134200000Y-101815000D02*
X136100000Y-103715000D01*
X133350000Y-101815000D02*
X132295000Y-101815000D01*
X132125000Y-101645000D02*
X127260000Y-101645000D01*
X132295000Y-101815000D02*
X132125000Y-101645000D01*
G04 #@! TO.N,Net-(C1-Pad1)*
X133350000Y-100115000D02*
X133350000Y-99060000D01*
X133565000Y-97790000D02*
X133565000Y-98845000D01*
X133565000Y-98845000D02*
X133350000Y-99060000D01*
X133350000Y-100115000D02*
X134200000Y-100115000D01*
X136100000Y-98215000D02*
X137160000Y-98215000D01*
X134200000Y-100115000D02*
X136100000Y-98215000D01*
X126460000Y-101645000D02*
X126460000Y-100870000D01*
X126460000Y-100870000D02*
X127000000Y-100330000D01*
X132295000Y-100115000D02*
X132080000Y-100330000D01*
X133350000Y-100115000D02*
X132295000Y-100115000D01*
X127000000Y-100330000D02*
X132080000Y-100330000D01*
G04 #@! TO.N,/USB Serial/RESET-USB*
X131865000Y-114935000D02*
X131865000Y-114085000D01*
X131315000Y-113535000D02*
X131315000Y-112395000D01*
X131865000Y-114085000D02*
X131315000Y-113535000D01*
X127635000Y-112395000D02*
X131315000Y-112395000D01*
X127260000Y-110445000D02*
X127260000Y-112020000D01*
X127260000Y-112020000D02*
X127635000Y-112395000D01*
X127260000Y-109480000D02*
X127260000Y-110445000D01*
X123825000Y-108585000D02*
X126365000Y-108585000D01*
X126365000Y-108585000D02*
X127260000Y-109480000D01*
G04 #@! TO.N,Net-(C4-Pad2)*
X128860000Y-107245000D02*
X130105000Y-107245000D01*
X130810000Y-107950000D02*
X132400000Y-107950000D01*
X130105000Y-107245000D02*
X130810000Y-107950000D01*
G04 #@! TO.N,/USB Serial/MISO-USB*
X121660000Y-110445000D02*
X121660000Y-111385000D01*
X121285000Y-111760000D02*
X120650000Y-111760000D01*
X121660000Y-111385000D02*
X121285000Y-111760000D01*
X109855000Y-107315000D02*
X111125000Y-108585000D01*
X111125000Y-108585000D02*
X111125000Y-111125000D01*
X111125000Y-111125000D02*
X111760000Y-111760000D01*
X111760000Y-111760000D02*
X120650000Y-111760000D01*
G04 #@! TO.N,/USB Serial/SCK-USB*
X113665000Y-108585000D02*
X112395000Y-107315000D01*
X118110000Y-108585000D02*
X113665000Y-108585000D01*
X120060000Y-108045000D02*
X118650000Y-108045000D01*
X118650000Y-108045000D02*
X118110000Y-108585000D01*
G04 #@! TO.N,/USB Serial/MOSI-USB*
X119380000Y-111125000D02*
X113665000Y-111125000D01*
X120060000Y-108845000D02*
X120060000Y-110445000D01*
X113665000Y-111125000D02*
X112395000Y-109855000D01*
X120060000Y-110445000D02*
X119380000Y-111125000D01*
G04 #@! TO.N,/USB Serial/D-*
X128860000Y-104845000D02*
X127692300Y-104845000D01*
X127692300Y-104845000D02*
X127584200Y-104736900D01*
X131445000Y-94615000D02*
X131445000Y-93877500D01*
X131127500Y-95567500D02*
X131127500Y-94932500D01*
X131127500Y-94932500D02*
X131445000Y-94615000D01*
G04 #@! TO.N,/USB Serial/D+*
X128860000Y-105645000D02*
X127692100Y-105645000D01*
X127692100Y-105645000D02*
X127584200Y-105752900D01*
X129857500Y-95567500D02*
X129857500Y-94932500D01*
X129540000Y-94615000D02*
X129540000Y-93877500D01*
X129857500Y-94932500D02*
X129540000Y-94615000D01*
D47*
G04 #@! TO.N,/USB Serial/UVCC_IN*
X133220000Y-91310000D02*
X133985000Y-91310000D01*
X131775000Y-89150000D02*
X132965000Y-89150000D01*
X133985000Y-90170000D02*
X133985000Y-91945000D01*
X132965000Y-89150000D02*
X133985000Y-90170000D01*
D48*
G04 #@! TO.N,/USB Serial/D_IN+*
X125154156Y-92231202D02*
X124029156Y-92231202D01*
X124029156Y-92231202D02*
X123564156Y-92696202D01*
X129540000Y-92177500D02*
X129540000Y-90805000D01*
X130175000Y-90170000D02*
X129540000Y-90805000D01*
X130175000Y-89150000D02*
X130175000Y-90170000D01*
G04 #@! TO.N,/USB Serial/D_IN-*
X125154156Y-94431202D02*
X124029156Y-94431202D01*
X124029156Y-94431202D02*
X123564156Y-93966202D01*
X131445000Y-92177500D02*
X131445000Y-90805000D01*
X130975000Y-89150000D02*
X130975000Y-90335000D01*
X130975000Y-90335000D02*
X131445000Y-90805000D01*
G04 #@! TO.N,Net-(C7-Pad1)*
X177165000Y-107530000D02*
X178015000Y-107530000D01*
X179915000Y-109430000D02*
X180975000Y-109430000D01*
X178015000Y-107530000D02*
X179915000Y-109430000D01*
X177165000Y-107530000D02*
X177165000Y-109640000D01*
X176110000Y-107530000D02*
X177165000Y-107530000D01*
X172465000Y-107275000D02*
X175855000Y-107275000D01*
X175855000Y-107275000D02*
X176110000Y-107530000D01*
G04 #@! TO.N,Net-(C8-Pad1)*
X172465000Y-106775000D02*
X175165000Y-106775000D01*
X176110000Y-105830000D02*
X177165000Y-105830000D01*
X175165000Y-106775000D02*
X176110000Y-105830000D01*
X177165000Y-105830000D02*
X177165000Y-103720000D01*
X177165000Y-105830000D02*
X178015000Y-105830000D01*
X178015000Y-105830000D02*
X179915000Y-103930000D01*
X179915000Y-103930000D02*
X180975000Y-103930000D01*
G04 #@! TO.N,Net-(C13-Pad1)*
X135890000Y-120865000D02*
X135890000Y-122555000D01*
X140755000Y-122555000D02*
X135890000Y-122555000D01*
X135255000Y-123190000D02*
X135890000Y-122555000D01*
X127000000Y-123190000D02*
X135255000Y-123190000D01*
X125805000Y-117820000D02*
X125805000Y-121995000D01*
X125805000Y-121995000D02*
X127000000Y-123190000D01*
G04 #@! TO.N,/DREQ*
X140335000Y-104775000D02*
X141605000Y-106045000D01*
X140335000Y-96520000D02*
X140335000Y-104775000D01*
X171260000Y-100775000D02*
X172365000Y-100775000D01*
X170815000Y-100330000D02*
X171260000Y-100775000D01*
X171450000Y-95250000D02*
X171450000Y-97790000D01*
X171450000Y-97790000D02*
X170815000Y-98425000D01*
X170815000Y-94615000D02*
X171450000Y-95250000D01*
X170815000Y-98425000D02*
X170815000Y-100330000D01*
G04 #@! TO.N,/A_SHDN*
X159965000Y-97735000D02*
X159965000Y-96775000D01*
X161925000Y-99695000D02*
X159965000Y-97735000D01*
X165735000Y-99695000D02*
X161925000Y-99695000D01*
X166370000Y-99060000D02*
X165735000Y-99695000D01*
D46*
G04 #@! TO.N,+3V3*
X195199000Y-104521000D02*
X195580000Y-104140000D01*
X195199000Y-106172000D02*
X195199000Y-104521000D01*
X190119000Y-109154000D02*
X190185000Y-109220000D01*
X190119000Y-106172000D02*
X190119000Y-109154000D01*
X183935000Y-93345000D02*
X182245000Y-93345000D01*
X194310000Y-108585000D02*
X194310000Y-108905000D01*
X195199000Y-106172000D02*
X195199000Y-107696000D01*
X195199000Y-107696000D02*
X194310000Y-108585000D01*
D47*
X196850000Y-120015000D02*
X195580000Y-120015000D01*
X195210000Y-120385000D02*
X194835000Y-120385000D01*
X195580000Y-120015000D02*
X195210000Y-120385000D01*
X195210000Y-121870000D02*
X195160000Y-121920000D01*
X195160000Y-121920000D02*
X196215000Y-121920000D01*
X196850000Y-121285000D02*
X196850000Y-120015000D01*
X196215000Y-121920000D02*
X196850000Y-121285000D01*
D46*
X190119000Y-104394000D02*
X190119000Y-106172000D01*
X189865000Y-104140000D02*
X190119000Y-104394000D01*
D48*
G04 #@! TO.N,Net-(B1-PadP)*
X181610000Y-88265000D02*
X172085000Y-88265000D01*
X172085000Y-88265000D02*
X169070000Y-88265000D01*
G04 #@! TO.N,/RTC_INT*
X167640000Y-91440000D02*
X168910000Y-91440000D01*
X169965000Y-92710000D02*
X169965000Y-91860000D01*
X169545000Y-91440000D02*
X168910000Y-91440000D01*
X169965000Y-91860000D02*
X169545000Y-91440000D01*
X160965000Y-110180000D02*
X160965000Y-112675000D01*
X161925000Y-109220000D02*
X160965000Y-110180000D01*
X165735000Y-88265000D02*
X163670000Y-88265000D01*
X167005000Y-89535000D02*
X165735000Y-88265000D01*
X167640000Y-91440000D02*
X167005000Y-90805000D01*
X167005000Y-90805000D02*
X167005000Y-89535000D01*
G04 #@! TO.N,/Peripherals/WRST_3V3*
X189865000Y-117475000D02*
X189865000Y-116840000D01*
X188035000Y-117785000D02*
X189555000Y-117785000D01*
X189555000Y-117785000D02*
X189865000Y-117475000D01*
X205232000Y-100457000D02*
X202946000Y-100457000D01*
X204470000Y-108585000D02*
X206375000Y-106680000D01*
X206375000Y-101600000D02*
X205232000Y-100457000D01*
X206375000Y-106680000D02*
X206375000Y-101600000D01*
G04 #@! TO.N,/Peripherals/WEN_3V3*
X194183000Y-104648000D02*
X193675000Y-104140000D01*
X194183000Y-106172000D02*
X194183000Y-104648000D01*
X188950000Y-116485000D02*
X187335000Y-116485000D01*
X189230000Y-116205000D02*
X188950000Y-116485000D01*
X189230000Y-114935000D02*
X189230000Y-116205000D01*
G04 #@! TO.N,/Peripherals/WWAKE_3V3*
X192405000Y-114935000D02*
X189865000Y-112395000D01*
X194945000Y-114300000D02*
X194310000Y-114935000D01*
X189865000Y-112395000D02*
X188595000Y-112395000D01*
X194310000Y-114935000D02*
X192405000Y-114935000D01*
X195285000Y-117135000D02*
X194935000Y-117135000D01*
X196215000Y-116840000D02*
X195580000Y-116840000D01*
X195580000Y-116840000D02*
X195285000Y-117135000D01*
X191770000Y-95250000D02*
X190881000Y-94361000D01*
X190881000Y-94361000D02*
X188214000Y-94361000D01*
G04 #@! TO.N,/Peripherals/WMOSI_3V3*
X193320000Y-119735000D02*
X194935000Y-119735000D01*
X192405000Y-120015000D02*
X193040000Y-120015000D01*
X193040000Y-120015000D02*
X193320000Y-119735000D01*
X184150000Y-100330000D02*
X186055000Y-98425000D01*
X189865000Y-113665000D02*
X188595000Y-113665000D01*
X184150000Y-109220000D02*
X184150000Y-100330000D01*
X188595000Y-113665000D02*
X184150000Y-109220000D01*
X191135000Y-116205000D02*
X191135000Y-114935000D01*
X191135000Y-114935000D02*
X189865000Y-113665000D01*
X186055000Y-98425000D02*
X188214000Y-98425000D01*
G04 #@! TO.N,/Peripherals/WCS_3V3*
X186055000Y-120015000D02*
X186765000Y-120015000D01*
X186765000Y-120015000D02*
X187045000Y-119735000D01*
X187045000Y-119735000D02*
X187335000Y-119735000D01*
X184785000Y-108585000D02*
X184785000Y-100965000D01*
X184785000Y-108585000D02*
X187325000Y-111125000D01*
X184785000Y-100965000D02*
X186309000Y-99441000D01*
X186309000Y-99441000D02*
X188214000Y-99441000D01*
G04 #@! TO.N,/Peripherals/WSCK_3V3*
X193350000Y-118435000D02*
X194935000Y-118435000D01*
X192405000Y-118745000D02*
X193040000Y-118745000D01*
X193040000Y-118745000D02*
X193350000Y-118435000D01*
X192405000Y-113665000D02*
X186055000Y-107315000D01*
X193040000Y-113665000D02*
X192405000Y-113665000D01*
X186055000Y-107315000D02*
X186055000Y-102235000D01*
X186817000Y-101473000D02*
X188214000Y-101473000D01*
X186055000Y-102235000D02*
X186817000Y-101473000D01*
G04 #@! TO.N,/WEN*
X183730000Y-114300000D02*
X183730000Y-115570000D01*
X170465000Y-112775000D02*
X170465000Y-113950000D01*
X170465000Y-113950000D02*
X170815000Y-114300000D01*
X170815000Y-114300000D02*
X173355000Y-114300000D01*
X185685000Y-115835000D02*
X187335000Y-115835000D01*
X173355000Y-114300000D02*
X174625000Y-115570000D01*
X174625000Y-115570000D02*
X185420000Y-115570000D01*
X185420000Y-115570000D02*
X185685000Y-115835000D01*
G04 #@! TO.N,/WRST*
X183730000Y-117475000D02*
X183730000Y-116205000D01*
X185715000Y-117135000D02*
X187335000Y-117135000D01*
X169965000Y-114085000D02*
X170815000Y-114935000D01*
X169965000Y-112775000D02*
X169965000Y-114085000D01*
X170815000Y-114935000D02*
X172720000Y-114935000D01*
X172720000Y-114935000D02*
X173990000Y-116205000D01*
X173990000Y-116205000D02*
X184785000Y-116205000D01*
X184785000Y-116205000D02*
X185715000Y-117135000D01*
G04 #@! TO.N,/WCS*
X172465000Y-110775000D02*
X170465000Y-110775000D01*
X187030000Y-119085000D02*
X187335000Y-119085000D01*
X179705000Y-118745000D02*
X186690000Y-118745000D01*
X186690000Y-118745000D02*
X187030000Y-119085000D01*
X178015000Y-117475000D02*
X178015000Y-118325000D01*
X178435000Y-118745000D02*
X179705000Y-118745000D01*
X178015000Y-118325000D02*
X178435000Y-118745000D01*
G04 #@! TO.N,/WWAKE*
X170815000Y-115570000D02*
X169465000Y-114220000D01*
X173355000Y-116840000D02*
X172085000Y-115570000D01*
X192125000Y-116485000D02*
X190500000Y-118110000D01*
X194935000Y-116485000D02*
X192125000Y-116485000D01*
X172085000Y-115570000D02*
X170815000Y-115570000D01*
X190500000Y-118110000D02*
X190500000Y-120015000D01*
X190500000Y-120015000D02*
X189230000Y-121285000D01*
X173355000Y-118745000D02*
X173355000Y-116840000D01*
X175895000Y-121285000D02*
X173355000Y-118745000D01*
X169465000Y-114220000D02*
X169465000Y-112775000D01*
X189230000Y-121285000D02*
X175895000Y-121285000D01*
G04 #@! TO.N,/WIRQ*
X190500000Y-96520000D02*
X190373000Y-96393000D01*
X190373000Y-96393000D02*
X188214000Y-96393000D01*
X173680000Y-101275000D02*
X172365000Y-101275000D01*
X173990000Y-100965000D02*
X173680000Y-101275000D01*
G04 #@! TO.N,/Peripherals/CCS_3V3*
X151485000Y-108865000D02*
X151485000Y-103495000D01*
X150495000Y-109855000D02*
X151485000Y-108865000D01*
X144145000Y-108585000D02*
X145415000Y-108585000D01*
X145415000Y-108585000D02*
X146685000Y-109855000D01*
X146685000Y-109855000D02*
X150495000Y-109855000D01*
G04 #@! TO.N,/Peripherals/CMOSI_3V3*
X150750000Y-95630000D02*
X150750000Y-93050000D01*
X150185000Y-96195000D02*
X150750000Y-95630000D01*
X148590000Y-99060000D02*
X149225000Y-99060000D01*
X150185000Y-98100000D02*
X150185000Y-96195000D01*
X149225000Y-99060000D02*
X150185000Y-98100000D01*
G04 #@! TO.N,/Peripherals/CSCK_3V3*
X151765000Y-99060000D02*
X151765000Y-98425000D01*
X151765000Y-98425000D02*
X151485000Y-98145000D01*
X151485000Y-98145000D02*
X151485000Y-97230000D01*
X153035000Y-94615000D02*
X153035000Y-93980000D01*
X152950000Y-93050000D02*
X152950000Y-93895000D01*
X152950000Y-93895000D02*
X153035000Y-93980000D01*
G04 #@! TO.N,/Peripherals/SDCS_3V3*
X149650000Y-94190000D02*
X149650000Y-93050000D01*
X148885000Y-97230000D02*
X148885000Y-94955000D01*
X148885000Y-94955000D02*
X149650000Y-94190000D01*
G04 #@! TO.N,/SDCS*
X146685000Y-98425000D02*
X147955000Y-98425000D01*
X147955000Y-98425000D02*
X148235000Y-98145000D01*
X148235000Y-97230000D02*
X148235000Y-98145000D01*
X153035000Y-107530000D02*
X153035000Y-108585000D01*
X158465000Y-111410000D02*
X158465000Y-112775000D01*
X159385000Y-106045000D02*
X159385000Y-105410000D01*
X159385000Y-100330000D02*
X159385000Y-106045000D01*
X159385000Y-106045000D02*
X158750000Y-106680000D01*
X158750000Y-106680000D02*
X158750000Y-107950000D01*
X158750000Y-107950000D02*
X158750000Y-111125000D01*
X158750000Y-111125000D02*
X158465000Y-111410000D01*
G04 #@! TO.N,/Peripherals/XDCS_3V3*
X147955000Y-99695000D02*
X149535000Y-101275000D01*
X149535000Y-101275000D02*
X149535000Y-103495000D01*
X142875000Y-99695000D02*
X141605000Y-100965000D01*
X147955000Y-99695000D02*
X142875000Y-99695000D01*
G04 #@! TO.N,/Peripherals/CRST_3V3*
X148235000Y-103495000D02*
X148235000Y-104495000D01*
X147955000Y-105410000D02*
X146685000Y-105410000D01*
X148235000Y-104130000D02*
X148235000Y-105130000D01*
X148235000Y-105130000D02*
X147955000Y-105410000D01*
X144145000Y-106045000D02*
X146050000Y-106045000D01*
X146050000Y-106045000D02*
X146685000Y-105410000D01*
D47*
G04 #@! TO.N,DVDD*
X146685000Y-106680000D02*
X146050000Y-107315000D01*
X146050000Y-107315000D02*
X146050000Y-107950000D01*
X146685000Y-108585000D02*
X147105000Y-108585000D01*
X146050000Y-107950000D02*
X146685000Y-108585000D01*
X147105000Y-108585000D02*
X147740000Y-108585000D01*
X146685000Y-106680000D02*
X147740000Y-106680000D01*
X152135000Y-96630000D02*
X152135000Y-97525000D01*
X153035000Y-105830000D02*
X153035000Y-98005000D01*
X153035000Y-98005000D02*
X154305000Y-98005000D01*
X153035000Y-97790000D02*
X153035000Y-98005000D01*
X152135000Y-97230000D02*
X152475000Y-97230000D01*
X152475000Y-97230000D02*
X153035000Y-97790000D01*
D46*
X151765000Y-93135000D02*
X151850000Y-93050000D01*
D47*
X144145000Y-93665000D02*
X144780000Y-93665000D01*
X144653000Y-93665000D02*
X145730000Y-93665000D01*
X151850000Y-93050000D02*
X151850000Y-93895000D01*
X151765000Y-93980000D02*
X151765000Y-94615000D01*
X151850000Y-93895000D02*
X151765000Y-93980000D01*
X152135000Y-95620000D02*
X152135000Y-96530000D01*
X151765000Y-94615000D02*
X151765000Y-95250000D01*
X151765000Y-95250000D02*
X152135000Y-95620000D01*
X146045000Y-93980000D02*
X145730000Y-93665000D01*
X147320000Y-93980000D02*
X146045000Y-93980000D01*
D48*
G04 #@! TO.N,/CFG\005C~RST*
X142455000Y-120650000D02*
X142455000Y-122555000D01*
X165465000Y-115840000D02*
X165465000Y-112775000D01*
X145415000Y-120650000D02*
X147955000Y-123190000D01*
X142455000Y-120650000D02*
X145415000Y-120650000D01*
X147955000Y-123190000D02*
X162560000Y-123190000D01*
X162560000Y-123190000D02*
X165100000Y-120650000D01*
X165100000Y-120650000D02*
X165100000Y-116205000D01*
X165100000Y-116205000D02*
X165465000Y-115840000D01*
G04 #@! TO.N,/PIX_SHDN*
X161925000Y-98425000D02*
X165735000Y-98425000D01*
X165735000Y-98425000D02*
X165965000Y-98195000D01*
X165965000Y-98195000D02*
X165965000Y-96775000D01*
G04 #@! TO.N,/PIX_LAMP*
X168465000Y-100140000D02*
X168465000Y-96775000D01*
X165100000Y-103505000D02*
X168465000Y-100140000D01*
G04 #@! TO.N,/PIX_CLK*
X169465000Y-100410000D02*
X169465000Y-96875000D01*
X165100000Y-105410000D02*
X165100000Y-104775000D01*
X165100000Y-104775000D02*
X169465000Y-100410000D01*
G04 #@! TO.N,/KCHG*
X161465000Y-110950000D02*
X161465000Y-112675000D01*
X163195000Y-109855000D02*
X162560000Y-109855000D01*
X162560000Y-109855000D02*
X161465000Y-110950000D01*
G04 #@! TO.N,/SCL*
X166370000Y-85725000D02*
X169070000Y-85725000D01*
X149860000Y-110910000D02*
X151130000Y-110910000D01*
X151130000Y-114300000D02*
X151130000Y-110490000D01*
X151130000Y-110490000D02*
X151765000Y-109855000D01*
X150495000Y-114935000D02*
X151130000Y-114300000D01*
X148590000Y-114935000D02*
X150495000Y-114935000D01*
X147320000Y-116205000D02*
X148590000Y-114935000D01*
X167640000Y-104775000D02*
X170140000Y-102275000D01*
X166370000Y-104775000D02*
X167640000Y-104775000D01*
X170140000Y-102275000D02*
X172465000Y-102275000D01*
G04 #@! TO.N,/SDA*
X169070000Y-86995000D02*
X167005000Y-86995000D01*
X148590000Y-111125000D02*
X148375000Y-110910000D01*
X148375000Y-110910000D02*
X147320000Y-110910000D01*
X169070000Y-86995000D02*
X172720000Y-86995000D01*
X148590000Y-113665000D02*
X148590000Y-111125000D01*
X146050000Y-116205000D02*
X148590000Y-113665000D01*
X167640000Y-103505000D02*
X169370000Y-101775000D01*
X169370000Y-101775000D02*
X172465000Y-101775000D01*
G04 #@! TO.N,/CCS*
X150495000Y-108585000D02*
X149440000Y-108585000D01*
X150835000Y-108245000D02*
X150495000Y-108585000D01*
X150835000Y-101895000D02*
X150835000Y-108245000D01*
X151765000Y-101600000D02*
X151130000Y-101600000D01*
X151130000Y-101600000D02*
X150835000Y-101895000D01*
X161290000Y-104140000D02*
X161290000Y-106680000D01*
X161290000Y-106680000D02*
X164465000Y-109855000D01*
X164465000Y-109855000D02*
X164465000Y-112775000D01*
G04 #@! TO.N,/XDCS*
X149440000Y-105625000D02*
X149440000Y-106680000D01*
X149225000Y-105410000D02*
X149440000Y-105625000D01*
X148885000Y-105070000D02*
X148885000Y-103430000D01*
X149225000Y-105410000D02*
X148885000Y-105070000D01*
X160655000Y-95250000D02*
X160465000Y-95440000D01*
X160465000Y-95440000D02*
X160465000Y-96775000D01*
G04 #@! TO.N,/CRST*
X148590000Y-101600000D02*
X147955000Y-101600000D01*
X147955000Y-101600000D02*
X147585000Y-101970000D01*
X147585000Y-101970000D02*
X147585000Y-103495000D01*
X176950000Y-114300000D02*
X174625000Y-114300000D01*
X161290000Y-102870000D02*
X162560000Y-104140000D01*
X162560000Y-104140000D02*
X162560000Y-106680000D01*
X162560000Y-106680000D02*
X166965000Y-111085000D01*
X166965000Y-111085000D02*
X166965000Y-114340000D01*
X166965000Y-114340000D02*
X166370000Y-114935000D01*
G04 #@! TO.N,/ALS_INT*
X166465000Y-111855000D02*
X166465000Y-112775000D01*
X166465000Y-111855000D02*
X165735000Y-111125000D01*
G04 #@! TO.N,/OLRST*
X160020000Y-118110000D02*
X160465000Y-117665000D01*
X160465000Y-112675000D02*
X160465000Y-117665000D01*
G04 #@! TO.N,/ALRM_SW*
X158465000Y-95600000D02*
X158465000Y-96775000D01*
X157480000Y-94615000D02*
X158465000Y-95600000D01*
G04 #@! TO.N,Net-(C24-Pad1)*
X151980000Y-116205000D02*
X153035000Y-116205000D01*
X157400000Y-109775000D02*
X156565000Y-109775000D01*
X158115000Y-110490000D02*
X157400000Y-109775000D01*
X157480000Y-112395000D02*
X157480000Y-111760000D01*
X157480000Y-111760000D02*
X158115000Y-111125000D01*
X158115000Y-111125000D02*
X158115000Y-110490000D01*
G04 #@! TO.N,/LOW_BATT*
X158115000Y-104140000D02*
X158115000Y-104775000D01*
X158115000Y-104775000D02*
X157615000Y-105275000D01*
X157615000Y-105275000D02*
X156565000Y-105275000D01*
G04 #@! TO.N,/ON_BATT*
X157440000Y-102275000D02*
X156565000Y-102275000D01*
X158115000Y-101600000D02*
X157440000Y-102275000D01*
X158115000Y-98425000D02*
X158115000Y-101600000D01*
G04 #@! TO.N,/SD_DET*
X144780000Y-90170000D02*
X144780000Y-90100000D01*
X145700000Y-89250000D02*
X146900000Y-89250000D01*
X144780000Y-90170000D02*
X145700000Y-89250000D01*
X167465000Y-96875000D02*
X167465000Y-95425000D01*
X167640000Y-95250000D02*
X167640000Y-93980000D01*
X167465000Y-95425000D02*
X167640000Y-95250000D01*
X163195000Y-92075000D02*
X164250000Y-92075000D01*
X162560000Y-90805000D02*
X162560000Y-91440000D01*
X162560000Y-91440000D02*
X163195000Y-92075000D01*
G04 #@! TO.N,/P42*
X170815000Y-103505000D02*
X171545000Y-102775000D01*
X171545000Y-102775000D02*
X172465000Y-102775000D01*
G04 #@! TO.N,/P43*
X172365000Y-103275000D02*
X173760000Y-103275000D01*
X173760000Y-103275000D02*
X173990000Y-103505000D01*
X173990000Y-103505000D02*
X174625000Y-103505000D01*
G04 #@! TO.N,/P44*
X173625000Y-103775000D02*
X172465000Y-103775000D01*
X174625000Y-104775000D02*
X173625000Y-103775000D01*
G04 #@! TO.N,/P46*
X171450000Y-104775000D02*
X172465000Y-104775000D01*
X170815000Y-106045000D02*
X170815000Y-105410000D01*
X170815000Y-105410000D02*
X171450000Y-104775000D01*
G04 #@! TO.N,/P45*
X170180000Y-104775000D02*
X170680000Y-104275000D01*
X170680000Y-104275000D02*
X172465000Y-104275000D01*
G04 #@! TO.N,/Peripherals/LED_NET*
X199263000Y-106172000D02*
X199263000Y-104902000D01*
X199263000Y-104902000D02*
X200025000Y-104140000D01*
G04 #@! TO.N,/Peripherals/GPIO_1*
X192405000Y-102870000D02*
X192405000Y-104140000D01*
X192405000Y-104140000D02*
X193167000Y-104902000D01*
X193167000Y-104902000D02*
X193167000Y-106172000D01*
G04 #@! TO.N,/Peripherals/GPIO_3*
X198755000Y-102870000D02*
X197231000Y-104394000D01*
X197231000Y-104394000D02*
X197231000Y-106172000D01*
G04 #@! TO.N,/Peripherals/LED_WIFI*
X198755000Y-104140000D02*
X198247000Y-104648000D01*
X198247000Y-104648000D02*
X198247000Y-106172000D01*
G04 #@! TO.N,/Peripherals/LED_ERR*
X205105000Y-103505000D02*
X202946000Y-103505000D01*
G04 #@! TO.N,/Peripherals/1P3V*
X196215000Y-106172000D02*
X196215000Y-107327700D01*
X196850000Y-107962700D02*
X196850000Y-108905000D01*
X196215000Y-107327700D02*
X196850000Y-107962700D01*
X199290000Y-108905000D02*
X199390000Y-109005000D01*
X196850000Y-108905000D02*
X199290000Y-108905000D01*
G04 #@! TO.N,/Peripherals/SPI_CFG*
X188214000Y-93345000D02*
X185635000Y-93345000D01*
G04 #@! TO.N,/USB Serial/LED_TX*
X121355000Y-104845000D02*
X120060000Y-104845000D01*
X121920000Y-105410000D02*
X121355000Y-104845000D01*
G04 #@! TO.N,/USB Serial/LED_RX*
X120060000Y-104045000D02*
X119285000Y-104045000D01*
X118110000Y-106680000D02*
X118110000Y-104775000D01*
X118110000Y-104775000D02*
X118840000Y-104045000D01*
X118840000Y-104045000D02*
X120060000Y-104045000D01*
G04 #@! TO.N,/USB Serial/RESET*
X122955000Y-106445000D02*
X120060000Y-106445000D01*
X123825000Y-107315000D02*
X122955000Y-106445000D01*
X128905000Y-118110000D02*
X130175000Y-118110000D01*
X130810000Y-118745000D02*
X131865000Y-118745000D01*
X130175000Y-118110000D02*
X130810000Y-118745000D01*
G04 #@! TO.N,/PE0*
X158965000Y-112675000D02*
X158965000Y-114085000D01*
X158965000Y-114085000D02*
X158115000Y-114935000D01*
X156425000Y-114935000D02*
X158115000Y-114935000D01*
G04 #@! TO.N,/PE1*
X159465000Y-112675000D02*
X159465000Y-116760000D01*
X159465000Y-116760000D02*
X158750000Y-117475000D01*
X157695000Y-117475000D02*
X158750000Y-117475000D01*
D47*
G04 #@! TO.N,/USB Serial/UVCC*
X117475000Y-115570000D02*
X119165000Y-115570000D01*
X135125000Y-94745000D02*
X133985000Y-94745000D01*
X135890000Y-93980000D02*
X135125000Y-94745000D01*
X127054156Y-96465844D02*
X126365000Y-97155000D01*
X127054156Y-94431202D02*
X127054156Y-96465844D01*
X124675000Y-97155000D02*
X126365000Y-97155000D01*
X127977790Y-104045000D02*
X128860000Y-104045000D01*
X127635000Y-103702210D02*
X127977790Y-104045000D01*
X125292210Y-104775000D02*
X126365000Y-103702210D01*
X126365000Y-103702210D02*
X127635000Y-103702210D01*
X125095000Y-104775000D02*
X125292210Y-104775000D01*
D48*
G04 #@! TO.N,Net-(Q1-Pad1)*
X120865000Y-117055000D02*
X120865000Y-115570000D01*
X121555000Y-121015000D02*
X121555000Y-117745000D01*
X121555000Y-117745000D02*
X120865000Y-117055000D01*
G04 #@! TO.N,/USB Serial/VUSB-DET*
X122555000Y-119015000D02*
X122555000Y-117475000D01*
X122975000Y-117055000D02*
X122975000Y-115570000D01*
X122555000Y-117475000D02*
X122975000Y-117055000D01*
X123825000Y-112395000D02*
X122975000Y-113245000D01*
X122975000Y-113245000D02*
X122975000Y-115570000D01*
X125660000Y-110445000D02*
X125660000Y-111830000D01*
X125095000Y-112395000D02*
X123825000Y-112395000D01*
X125660000Y-111830000D02*
X125095000Y-112395000D01*
G04 #@! TO.N,/USB Serial/UTXD*
X125095000Y-107315000D02*
X121025000Y-103245000D01*
X121025000Y-103245000D02*
X120060000Y-103245000D01*
X139065000Y-109220000D02*
X140335000Y-110490000D01*
X140335000Y-110490000D02*
X140335000Y-116840000D01*
X133985000Y-109855000D02*
X135255000Y-109855000D01*
X135890000Y-109220000D02*
X139065000Y-109220000D01*
X153670000Y-117475000D02*
X154725000Y-116420000D01*
X135255000Y-109855000D02*
X135890000Y-109220000D01*
X140335000Y-116840000D02*
X140970000Y-117475000D01*
X140970000Y-117475000D02*
X153670000Y-117475000D01*
X154725000Y-116420000D02*
X154725000Y-114935000D01*
G04 #@! TO.N,/USB Serial/URXD*
X139700000Y-117475000D02*
X140335000Y-118110000D01*
X139700000Y-112395000D02*
X139700000Y-117475000D01*
X137160000Y-111760000D02*
X139065000Y-111760000D01*
X135890000Y-110490000D02*
X137160000Y-111760000D01*
X139065000Y-111760000D02*
X139700000Y-112395000D01*
X140335000Y-118110000D02*
X154305000Y-118110000D01*
X154305000Y-118110000D02*
X154940000Y-117475000D01*
X154940000Y-117475000D02*
X155995000Y-117475000D01*
X125095000Y-106045000D02*
X121660000Y-102610000D01*
X121660000Y-102610000D02*
X121660000Y-101645000D01*
G04 #@! TD*
D47*
G04 #@! TO.N,/VIN*
G36*
X112903000Y-95832394D02*
X111670197Y-97065197D01*
X111642667Y-97106399D01*
X111633000Y-97155000D01*
X111633000Y-97357342D01*
X111534595Y-97258938D01*
X111375891Y-97193200D01*
X110851950Y-97193200D01*
X110744000Y-97301150D01*
X110744000Y-98171000D01*
X110764000Y-98171000D01*
X110764000Y-98679000D01*
X110744000Y-98679000D01*
X110744000Y-99548850D01*
X110851950Y-99656800D01*
X111375891Y-99656800D01*
X111534595Y-99591062D01*
X111633000Y-99492658D01*
X111633000Y-100446778D01*
X111461232Y-100352978D01*
X110849210Y-100965000D01*
X111461232Y-101577022D01*
X111633000Y-101483222D01*
X111633000Y-102108000D01*
X111008222Y-102108000D01*
X111102022Y-101936232D01*
X110490000Y-101324210D01*
X109877978Y-101936232D01*
X109971778Y-102108000D01*
X108712000Y-102108000D01*
X108712000Y-100924849D01*
X109234710Y-100924849D01*
X109314898Y-101408285D01*
X109345628Y-101482473D01*
X109518768Y-101577022D01*
X110130790Y-100965000D01*
X109518768Y-100352978D01*
X109345628Y-100447527D01*
X109234710Y-100924849D01*
X108712000Y-100924849D01*
X108712000Y-99993768D01*
X109877978Y-99993768D01*
X110490000Y-100605790D01*
X111102022Y-99993768D01*
X111007473Y-99820628D01*
X110530151Y-99709710D01*
X110046715Y-99789898D01*
X109972527Y-99820628D01*
X109877978Y-99993768D01*
X108712000Y-99993768D01*
X108712000Y-98786950D01*
X109258200Y-98786950D01*
X109258200Y-99310890D01*
X109323937Y-99469595D01*
X109445405Y-99591062D01*
X109604109Y-99656800D01*
X110128050Y-99656800D01*
X110236000Y-99548850D01*
X110236000Y-98679000D01*
X109366150Y-98679000D01*
X109258200Y-98786950D01*
X108712000Y-98786950D01*
X108712000Y-97539110D01*
X109258200Y-97539110D01*
X109258200Y-98063050D01*
X109366150Y-98171000D01*
X110236000Y-98171000D01*
X110236000Y-97301150D01*
X110128050Y-97193200D01*
X109604109Y-97193200D01*
X109445405Y-97258938D01*
X109323937Y-97380405D01*
X109258200Y-97539110D01*
X108712000Y-97539110D01*
X108712000Y-94811950D01*
X109733200Y-94811950D01*
X109733200Y-95635890D01*
X109798937Y-95794595D01*
X109920405Y-95916062D01*
X110079109Y-95981800D01*
X110703050Y-95981800D01*
X110811000Y-95873850D01*
X110811000Y-94704000D01*
X111319000Y-94704000D01*
X111319000Y-95873850D01*
X111426950Y-95981800D01*
X112050891Y-95981800D01*
X112209595Y-95916062D01*
X112331063Y-95794595D01*
X112396800Y-95635890D01*
X112396800Y-94811950D01*
X112288850Y-94704000D01*
X111319000Y-94704000D01*
X110811000Y-94704000D01*
X109841150Y-94704000D01*
X109733200Y-94811950D01*
X108712000Y-94811950D01*
X108712000Y-93264110D01*
X109733200Y-93264110D01*
X109733200Y-94088050D01*
X109841150Y-94196000D01*
X110811000Y-94196000D01*
X110811000Y-93026150D01*
X111319000Y-93026150D01*
X111319000Y-94196000D01*
X112288850Y-94196000D01*
X112396800Y-94088050D01*
X112396800Y-93264110D01*
X112331063Y-93105405D01*
X112209595Y-92983938D01*
X112050891Y-92918200D01*
X111426950Y-92918200D01*
X111319000Y-93026150D01*
X110811000Y-93026150D01*
X110703050Y-92918200D01*
X110079109Y-92918200D01*
X109920405Y-92983938D01*
X109798937Y-93105405D01*
X109733200Y-93264110D01*
X108712000Y-93264110D01*
X108712000Y-89662000D01*
X112903000Y-89662000D01*
X112903000Y-95832394D01*
X112903000Y-95832394D01*
G37*
X112903000Y-95832394D02*
X111670197Y-97065197D01*
X111642667Y-97106399D01*
X111633000Y-97155000D01*
X111633000Y-97357342D01*
X111534595Y-97258938D01*
X111375891Y-97193200D01*
X110851950Y-97193200D01*
X110744000Y-97301150D01*
X110744000Y-98171000D01*
X110764000Y-98171000D01*
X110764000Y-98679000D01*
X110744000Y-98679000D01*
X110744000Y-99548850D01*
X110851950Y-99656800D01*
X111375891Y-99656800D01*
X111534595Y-99591062D01*
X111633000Y-99492658D01*
X111633000Y-100446778D01*
X111461232Y-100352978D01*
X110849210Y-100965000D01*
X111461232Y-101577022D01*
X111633000Y-101483222D01*
X111633000Y-102108000D01*
X111008222Y-102108000D01*
X111102022Y-101936232D01*
X110490000Y-101324210D01*
X109877978Y-101936232D01*
X109971778Y-102108000D01*
X108712000Y-102108000D01*
X108712000Y-100924849D01*
X109234710Y-100924849D01*
X109314898Y-101408285D01*
X109345628Y-101482473D01*
X109518768Y-101577022D01*
X110130790Y-100965000D01*
X109518768Y-100352978D01*
X109345628Y-100447527D01*
X109234710Y-100924849D01*
X108712000Y-100924849D01*
X108712000Y-99993768D01*
X109877978Y-99993768D01*
X110490000Y-100605790D01*
X111102022Y-99993768D01*
X111007473Y-99820628D01*
X110530151Y-99709710D01*
X110046715Y-99789898D01*
X109972527Y-99820628D01*
X109877978Y-99993768D01*
X108712000Y-99993768D01*
X108712000Y-98786950D01*
X109258200Y-98786950D01*
X109258200Y-99310890D01*
X109323937Y-99469595D01*
X109445405Y-99591062D01*
X109604109Y-99656800D01*
X110128050Y-99656800D01*
X110236000Y-99548850D01*
X110236000Y-98679000D01*
X109366150Y-98679000D01*
X109258200Y-98786950D01*
X108712000Y-98786950D01*
X108712000Y-97539110D01*
X109258200Y-97539110D01*
X109258200Y-98063050D01*
X109366150Y-98171000D01*
X110236000Y-98171000D01*
X110236000Y-97301150D01*
X110128050Y-97193200D01*
X109604109Y-97193200D01*
X109445405Y-97258938D01*
X109323937Y-97380405D01*
X109258200Y-97539110D01*
X108712000Y-97539110D01*
X108712000Y-94811950D01*
X109733200Y-94811950D01*
X109733200Y-95635890D01*
X109798937Y-95794595D01*
X109920405Y-95916062D01*
X110079109Y-95981800D01*
X110703050Y-95981800D01*
X110811000Y-95873850D01*
X110811000Y-94704000D01*
X111319000Y-94704000D01*
X111319000Y-95873850D01*
X111426950Y-95981800D01*
X112050891Y-95981800D01*
X112209595Y-95916062D01*
X112331063Y-95794595D01*
X112396800Y-95635890D01*
X112396800Y-94811950D01*
X112288850Y-94704000D01*
X111319000Y-94704000D01*
X110811000Y-94704000D01*
X109841150Y-94704000D01*
X109733200Y-94811950D01*
X108712000Y-94811950D01*
X108712000Y-93264110D01*
X109733200Y-93264110D01*
X109733200Y-94088050D01*
X109841150Y-94196000D01*
X110811000Y-94196000D01*
X110811000Y-93026150D01*
X111319000Y-93026150D01*
X111319000Y-94196000D01*
X112288850Y-94196000D01*
X112396800Y-94088050D01*
X112396800Y-93264110D01*
X112331063Y-93105405D01*
X112209595Y-92983938D01*
X112050891Y-92918200D01*
X111426950Y-92918200D01*
X111319000Y-93026150D01*
X110811000Y-93026150D01*
X110703050Y-92918200D01*
X110079109Y-92918200D01*
X109920405Y-92983938D01*
X109798937Y-93105405D01*
X109733200Y-93264110D01*
X108712000Y-93264110D01*
X108712000Y-89662000D01*
X112903000Y-89662000D01*
X112903000Y-95832394D01*
G04 #@! TO.N,GND*
G36*
X124293200Y-86388050D02*
X124401150Y-86496000D01*
X125721000Y-86496000D01*
X125721000Y-86476000D01*
X126229000Y-86476000D01*
X126229000Y-86496000D01*
X127548850Y-86496000D01*
X127656800Y-86388050D01*
X127656800Y-85598000D01*
X128397000Y-85598000D01*
X128397000Y-86868000D01*
X128406667Y-86916601D01*
X128434197Y-86957803D01*
X128475399Y-86985333D01*
X128524000Y-86995000D01*
X131953000Y-86995000D01*
X132001601Y-86985333D01*
X132042803Y-86957803D01*
X132070333Y-86916601D01*
X132080000Y-86868000D01*
X132080000Y-85598000D01*
X132693200Y-85598000D01*
X132693200Y-86388050D01*
X132801150Y-86496000D01*
X134121000Y-86496000D01*
X134121000Y-86476000D01*
X134629000Y-86476000D01*
X134629000Y-86496000D01*
X135948850Y-86496000D01*
X136056800Y-86388050D01*
X136056800Y-85217000D01*
X143383000Y-85217000D01*
X143383000Y-92895103D01*
X143359151Y-93015000D01*
X143359151Y-94315000D01*
X143383000Y-94434897D01*
X143383000Y-94488000D01*
X136806783Y-94488000D01*
X136931400Y-94187147D01*
X136931400Y-93772853D01*
X136772856Y-93390094D01*
X136479906Y-93097144D01*
X136097147Y-92938600D01*
X135682853Y-92938600D01*
X135300094Y-93097144D01*
X135273345Y-93123893D01*
X135387451Y-92953122D01*
X135428849Y-92745000D01*
X135428849Y-91145000D01*
X135387451Y-90936878D01*
X135269559Y-90760441D01*
X135093122Y-90642549D01*
X134885000Y-90601151D01*
X134645400Y-90601151D01*
X134645400Y-90235042D01*
X134658338Y-90170000D01*
X134636084Y-90058122D01*
X134607083Y-89912325D01*
X134461121Y-89693878D01*
X134405980Y-89657034D01*
X133830745Y-89081800D01*
X134013050Y-89081800D01*
X134121000Y-88973850D01*
X134121000Y-87004000D01*
X134629000Y-87004000D01*
X134629000Y-88973850D01*
X134736950Y-89081800D01*
X135710890Y-89081800D01*
X135869595Y-89016063D01*
X135991062Y-88894595D01*
X136056800Y-88735891D01*
X136056800Y-87111950D01*
X135948850Y-87004000D01*
X134629000Y-87004000D01*
X134121000Y-87004000D01*
X132801150Y-87004000D01*
X132693200Y-87111950D01*
X132693200Y-88489600D01*
X132568849Y-88489600D01*
X132568849Y-88450000D01*
X132527451Y-88241878D01*
X132409559Y-88065441D01*
X132233122Y-87947549D01*
X132025000Y-87906151D01*
X131525000Y-87906151D01*
X131375000Y-87935988D01*
X131225000Y-87906151D01*
X130725000Y-87906151D01*
X130575000Y-87935988D01*
X130425000Y-87906151D01*
X129925000Y-87906151D01*
X129775000Y-87935988D01*
X129625000Y-87906151D01*
X129125000Y-87906151D01*
X128916878Y-87947549D01*
X128811142Y-88018200D01*
X128807950Y-88018200D01*
X128801523Y-88024627D01*
X128740441Y-88065441D01*
X128622549Y-88241878D01*
X128581151Y-88450000D01*
X128581151Y-89850000D01*
X128622549Y-90058122D01*
X128740441Y-90234559D01*
X128764972Y-90250950D01*
X128743276Y-90272646D01*
X128600200Y-90618062D01*
X128600200Y-90991938D01*
X128693606Y-91217440D01*
X128655441Y-91242941D01*
X128537549Y-91419378D01*
X128496151Y-91627500D01*
X128496151Y-92727500D01*
X128537549Y-92935622D01*
X128598940Y-93027500D01*
X128537549Y-93119378D01*
X128496151Y-93327500D01*
X128496151Y-94427500D01*
X128508185Y-94488000D01*
X128098005Y-94488000D01*
X128098005Y-93711202D01*
X128056607Y-93503080D01*
X127938715Y-93326643D01*
X127789245Y-93226770D01*
X127820218Y-93195797D01*
X127885956Y-93037093D01*
X127885956Y-92593152D01*
X127778006Y-92485202D01*
X127108156Y-92485202D01*
X127108156Y-92505202D01*
X126600156Y-92505202D01*
X126600156Y-92485202D01*
X126580156Y-92485202D01*
X126580156Y-91977202D01*
X126600156Y-91977202D01*
X126600156Y-91187352D01*
X127108156Y-91187352D01*
X127108156Y-91977202D01*
X127778006Y-91977202D01*
X127885956Y-91869252D01*
X127885956Y-91425311D01*
X127820218Y-91266607D01*
X127698751Y-91145139D01*
X127540046Y-91079402D01*
X127216106Y-91079402D01*
X127108156Y-91187352D01*
X126600156Y-91187352D01*
X126492206Y-91079402D01*
X126168266Y-91079402D01*
X126042075Y-91131671D01*
X126038715Y-91126643D01*
X125862278Y-91008751D01*
X125654156Y-90967353D01*
X124654156Y-90967353D01*
X124446034Y-91008751D01*
X124269597Y-91126643D01*
X124151705Y-91303080D01*
X124110307Y-91511202D01*
X124110307Y-91596202D01*
X124091691Y-91596202D01*
X124029155Y-91583763D01*
X123966620Y-91596202D01*
X123966615Y-91596202D01*
X123781391Y-91633045D01*
X123596776Y-91756402D01*
X123377218Y-91756402D01*
X123031802Y-91899478D01*
X122767432Y-92163848D01*
X122624356Y-92509264D01*
X122624356Y-92883140D01*
X122767432Y-93228556D01*
X122870078Y-93331202D01*
X122767432Y-93433848D01*
X122624356Y-93779264D01*
X122624356Y-94153140D01*
X122763060Y-94488000D01*
X121920000Y-94488000D01*
X121871399Y-94497667D01*
X121830197Y-94525197D01*
X119290197Y-97065197D01*
X119262667Y-97106399D01*
X119253000Y-97155000D01*
X119253000Y-101547394D01*
X114882394Y-105918000D01*
X108712000Y-105918000D01*
X108712000Y-104476232D01*
X109877978Y-104476232D01*
X109972527Y-104649372D01*
X110449849Y-104760290D01*
X110933285Y-104680102D01*
X111007473Y-104649372D01*
X111102022Y-104476232D01*
X112417978Y-104476232D01*
X112512527Y-104649372D01*
X112989849Y-104760290D01*
X113473285Y-104680102D01*
X113547473Y-104649372D01*
X113642022Y-104476232D01*
X113030000Y-103864210D01*
X112417978Y-104476232D01*
X111102022Y-104476232D01*
X110490000Y-103864210D01*
X109877978Y-104476232D01*
X108712000Y-104476232D01*
X108712000Y-102997000D01*
X109343427Y-102997000D01*
X109234710Y-103464849D01*
X109314898Y-103948285D01*
X109345628Y-104022473D01*
X109518768Y-104117022D01*
X110130790Y-103505000D01*
X110116648Y-103490858D01*
X110475858Y-103131648D01*
X110490000Y-103145790D01*
X110504143Y-103131648D01*
X110863353Y-103490858D01*
X110849210Y-103505000D01*
X111461232Y-104117022D01*
X111634372Y-104022473D01*
X111745290Y-103545151D01*
X111665102Y-103061715D01*
X111638296Y-102997000D01*
X111883427Y-102997000D01*
X111774710Y-103464849D01*
X111854898Y-103948285D01*
X111885628Y-104022473D01*
X112058768Y-104117022D01*
X112670790Y-103505000D01*
X112656648Y-103490858D01*
X113015858Y-103131648D01*
X113030000Y-103145790D01*
X113044143Y-103131648D01*
X113403353Y-103490858D01*
X113389210Y-103505000D01*
X114001232Y-104117022D01*
X114174372Y-104022473D01*
X114285290Y-103545151D01*
X114205102Y-103061715D01*
X114178296Y-102997000D01*
X115570000Y-102997000D01*
X115618601Y-102987333D01*
X115659803Y-102959803D01*
X116929803Y-101689803D01*
X116957333Y-101648601D01*
X116967000Y-101600000D01*
X116967000Y-97155000D01*
X116957333Y-97106399D01*
X116929803Y-97065197D01*
X115697000Y-95832394D01*
X115697000Y-94811950D01*
X117333200Y-94811950D01*
X117333200Y-95635890D01*
X117398937Y-95794595D01*
X117520405Y-95916062D01*
X117679109Y-95981800D01*
X118303050Y-95981800D01*
X118411000Y-95873850D01*
X118411000Y-94704000D01*
X118919000Y-94704000D01*
X118919000Y-95873850D01*
X119026950Y-95981800D01*
X119650891Y-95981800D01*
X119809595Y-95916062D01*
X119931063Y-95794595D01*
X119996800Y-95635890D01*
X119996800Y-94811950D01*
X119888850Y-94704000D01*
X118919000Y-94704000D01*
X118411000Y-94704000D01*
X117441150Y-94704000D01*
X117333200Y-94811950D01*
X115697000Y-94811950D01*
X115697000Y-91911950D01*
X117333200Y-91911950D01*
X117333200Y-92735890D01*
X117398937Y-92894595D01*
X117504343Y-93000000D01*
X117398937Y-93105405D01*
X117333200Y-93264110D01*
X117333200Y-94088050D01*
X117441150Y-94196000D01*
X118411000Y-94196000D01*
X118411000Y-93026150D01*
X118384850Y-93000000D01*
X118411000Y-92973850D01*
X118411000Y-91804000D01*
X118919000Y-91804000D01*
X118919000Y-92973850D01*
X118945150Y-93000000D01*
X118919000Y-93026150D01*
X118919000Y-94196000D01*
X119888850Y-94196000D01*
X119996800Y-94088050D01*
X119996800Y-93264110D01*
X119931063Y-93105405D01*
X119825657Y-93000000D01*
X119931063Y-92894595D01*
X119996800Y-92735890D01*
X119996800Y-91911950D01*
X119888850Y-91804000D01*
X118919000Y-91804000D01*
X118411000Y-91804000D01*
X117441150Y-91804000D01*
X117333200Y-91911950D01*
X115697000Y-91911950D01*
X115697000Y-90364110D01*
X117333200Y-90364110D01*
X117333200Y-91188050D01*
X117441150Y-91296000D01*
X118411000Y-91296000D01*
X118411000Y-90126150D01*
X118919000Y-90126150D01*
X118919000Y-91296000D01*
X119888850Y-91296000D01*
X119996800Y-91188050D01*
X119996800Y-90364110D01*
X119931063Y-90205405D01*
X119809595Y-90083938D01*
X119650891Y-90018200D01*
X119026950Y-90018200D01*
X118919000Y-90126150D01*
X118411000Y-90126150D01*
X118303050Y-90018200D01*
X117679109Y-90018200D01*
X117520405Y-90083938D01*
X117398937Y-90205405D01*
X117333200Y-90364110D01*
X115697000Y-90364110D01*
X115697000Y-89511950D01*
X127893200Y-89511950D01*
X127893200Y-89935891D01*
X127958938Y-90094595D01*
X128080405Y-90216063D01*
X128239110Y-90281800D01*
X128342050Y-90281800D01*
X128450000Y-90173850D01*
X128450000Y-89404000D01*
X128001150Y-89404000D01*
X127893200Y-89511950D01*
X115697000Y-89511950D01*
X115697000Y-87637051D01*
X115929607Y-87733400D01*
X116400393Y-87733400D01*
X116835342Y-87553238D01*
X117168238Y-87220342D01*
X117213135Y-87111950D01*
X124293200Y-87111950D01*
X124293200Y-88735891D01*
X124358938Y-88894595D01*
X124480405Y-89016063D01*
X124639110Y-89081800D01*
X125613050Y-89081800D01*
X125721000Y-88973850D01*
X125721000Y-87004000D01*
X126229000Y-87004000D01*
X126229000Y-88973850D01*
X126336950Y-89081800D01*
X127310890Y-89081800D01*
X127469595Y-89016063D01*
X127591062Y-88894595D01*
X127656800Y-88735891D01*
X127656800Y-88364109D01*
X127893200Y-88364109D01*
X127893200Y-88788050D01*
X128001150Y-88896000D01*
X128450000Y-88896000D01*
X128450000Y-88126150D01*
X128342050Y-88018200D01*
X128239110Y-88018200D01*
X128080405Y-88083937D01*
X127958938Y-88205405D01*
X127893200Y-88364109D01*
X127656800Y-88364109D01*
X127656800Y-87111950D01*
X127548850Y-87004000D01*
X126229000Y-87004000D01*
X125721000Y-87004000D01*
X124401150Y-87004000D01*
X124293200Y-87111950D01*
X117213135Y-87111950D01*
X117348400Y-86785393D01*
X117348400Y-86314607D01*
X117168238Y-85879658D01*
X116835342Y-85546762D01*
X116400393Y-85366600D01*
X115929607Y-85366600D01*
X115697000Y-85462949D01*
X115697000Y-85217000D01*
X124293200Y-85217000D01*
X124293200Y-86388050D01*
X124293200Y-86388050D01*
G37*
X124293200Y-86388050D02*
X124401150Y-86496000D01*
X125721000Y-86496000D01*
X125721000Y-86476000D01*
X126229000Y-86476000D01*
X126229000Y-86496000D01*
X127548850Y-86496000D01*
X127656800Y-86388050D01*
X127656800Y-85598000D01*
X128397000Y-85598000D01*
X128397000Y-86868000D01*
X128406667Y-86916601D01*
X128434197Y-86957803D01*
X128475399Y-86985333D01*
X128524000Y-86995000D01*
X131953000Y-86995000D01*
X132001601Y-86985333D01*
X132042803Y-86957803D01*
X132070333Y-86916601D01*
X132080000Y-86868000D01*
X132080000Y-85598000D01*
X132693200Y-85598000D01*
X132693200Y-86388050D01*
X132801150Y-86496000D01*
X134121000Y-86496000D01*
X134121000Y-86476000D01*
X134629000Y-86476000D01*
X134629000Y-86496000D01*
X135948850Y-86496000D01*
X136056800Y-86388050D01*
X136056800Y-85217000D01*
X143383000Y-85217000D01*
X143383000Y-92895103D01*
X143359151Y-93015000D01*
X143359151Y-94315000D01*
X143383000Y-94434897D01*
X143383000Y-94488000D01*
X136806783Y-94488000D01*
X136931400Y-94187147D01*
X136931400Y-93772853D01*
X136772856Y-93390094D01*
X136479906Y-93097144D01*
X136097147Y-92938600D01*
X135682853Y-92938600D01*
X135300094Y-93097144D01*
X135273345Y-93123893D01*
X135387451Y-92953122D01*
X135428849Y-92745000D01*
X135428849Y-91145000D01*
X135387451Y-90936878D01*
X135269559Y-90760441D01*
X135093122Y-90642549D01*
X134885000Y-90601151D01*
X134645400Y-90601151D01*
X134645400Y-90235042D01*
X134658338Y-90170000D01*
X134636084Y-90058122D01*
X134607083Y-89912325D01*
X134461121Y-89693878D01*
X134405980Y-89657034D01*
X133830745Y-89081800D01*
X134013050Y-89081800D01*
X134121000Y-88973850D01*
X134121000Y-87004000D01*
X134629000Y-87004000D01*
X134629000Y-88973850D01*
X134736950Y-89081800D01*
X135710890Y-89081800D01*
X135869595Y-89016063D01*
X135991062Y-88894595D01*
X136056800Y-88735891D01*
X136056800Y-87111950D01*
X135948850Y-87004000D01*
X134629000Y-87004000D01*
X134121000Y-87004000D01*
X132801150Y-87004000D01*
X132693200Y-87111950D01*
X132693200Y-88489600D01*
X132568849Y-88489600D01*
X132568849Y-88450000D01*
X132527451Y-88241878D01*
X132409559Y-88065441D01*
X132233122Y-87947549D01*
X132025000Y-87906151D01*
X131525000Y-87906151D01*
X131375000Y-87935988D01*
X131225000Y-87906151D01*
X130725000Y-87906151D01*
X130575000Y-87935988D01*
X130425000Y-87906151D01*
X129925000Y-87906151D01*
X129775000Y-87935988D01*
X129625000Y-87906151D01*
X129125000Y-87906151D01*
X128916878Y-87947549D01*
X128811142Y-88018200D01*
X128807950Y-88018200D01*
X128801523Y-88024627D01*
X128740441Y-88065441D01*
X128622549Y-88241878D01*
X128581151Y-88450000D01*
X128581151Y-89850000D01*
X128622549Y-90058122D01*
X128740441Y-90234559D01*
X128764972Y-90250950D01*
X128743276Y-90272646D01*
X128600200Y-90618062D01*
X128600200Y-90991938D01*
X128693606Y-91217440D01*
X128655441Y-91242941D01*
X128537549Y-91419378D01*
X128496151Y-91627500D01*
X128496151Y-92727500D01*
X128537549Y-92935622D01*
X128598940Y-93027500D01*
X128537549Y-93119378D01*
X128496151Y-93327500D01*
X128496151Y-94427500D01*
X128508185Y-94488000D01*
X128098005Y-94488000D01*
X128098005Y-93711202D01*
X128056607Y-93503080D01*
X127938715Y-93326643D01*
X127789245Y-93226770D01*
X127820218Y-93195797D01*
X127885956Y-93037093D01*
X127885956Y-92593152D01*
X127778006Y-92485202D01*
X127108156Y-92485202D01*
X127108156Y-92505202D01*
X126600156Y-92505202D01*
X126600156Y-92485202D01*
X126580156Y-92485202D01*
X126580156Y-91977202D01*
X126600156Y-91977202D01*
X126600156Y-91187352D01*
X127108156Y-91187352D01*
X127108156Y-91977202D01*
X127778006Y-91977202D01*
X127885956Y-91869252D01*
X127885956Y-91425311D01*
X127820218Y-91266607D01*
X127698751Y-91145139D01*
X127540046Y-91079402D01*
X127216106Y-91079402D01*
X127108156Y-91187352D01*
X126600156Y-91187352D01*
X126492206Y-91079402D01*
X126168266Y-91079402D01*
X126042075Y-91131671D01*
X126038715Y-91126643D01*
X125862278Y-91008751D01*
X125654156Y-90967353D01*
X124654156Y-90967353D01*
X124446034Y-91008751D01*
X124269597Y-91126643D01*
X124151705Y-91303080D01*
X124110307Y-91511202D01*
X124110307Y-91596202D01*
X124091691Y-91596202D01*
X124029155Y-91583763D01*
X123966620Y-91596202D01*
X123966615Y-91596202D01*
X123781391Y-91633045D01*
X123596776Y-91756402D01*
X123377218Y-91756402D01*
X123031802Y-91899478D01*
X122767432Y-92163848D01*
X122624356Y-92509264D01*
X122624356Y-92883140D01*
X122767432Y-93228556D01*
X122870078Y-93331202D01*
X122767432Y-93433848D01*
X122624356Y-93779264D01*
X122624356Y-94153140D01*
X122763060Y-94488000D01*
X121920000Y-94488000D01*
X121871399Y-94497667D01*
X121830197Y-94525197D01*
X119290197Y-97065197D01*
X119262667Y-97106399D01*
X119253000Y-97155000D01*
X119253000Y-101547394D01*
X114882394Y-105918000D01*
X108712000Y-105918000D01*
X108712000Y-104476232D01*
X109877978Y-104476232D01*
X109972527Y-104649372D01*
X110449849Y-104760290D01*
X110933285Y-104680102D01*
X111007473Y-104649372D01*
X111102022Y-104476232D01*
X112417978Y-104476232D01*
X112512527Y-104649372D01*
X112989849Y-104760290D01*
X113473285Y-104680102D01*
X113547473Y-104649372D01*
X113642022Y-104476232D01*
X113030000Y-103864210D01*
X112417978Y-104476232D01*
X111102022Y-104476232D01*
X110490000Y-103864210D01*
X109877978Y-104476232D01*
X108712000Y-104476232D01*
X108712000Y-102997000D01*
X109343427Y-102997000D01*
X109234710Y-103464849D01*
X109314898Y-103948285D01*
X109345628Y-104022473D01*
X109518768Y-104117022D01*
X110130790Y-103505000D01*
X110116648Y-103490858D01*
X110475858Y-103131648D01*
X110490000Y-103145790D01*
X110504143Y-103131648D01*
X110863353Y-103490858D01*
X110849210Y-103505000D01*
X111461232Y-104117022D01*
X111634372Y-104022473D01*
X111745290Y-103545151D01*
X111665102Y-103061715D01*
X111638296Y-102997000D01*
X111883427Y-102997000D01*
X111774710Y-103464849D01*
X111854898Y-103948285D01*
X111885628Y-104022473D01*
X112058768Y-104117022D01*
X112670790Y-103505000D01*
X112656648Y-103490858D01*
X113015858Y-103131648D01*
X113030000Y-103145790D01*
X113044143Y-103131648D01*
X113403353Y-103490858D01*
X113389210Y-103505000D01*
X114001232Y-104117022D01*
X114174372Y-104022473D01*
X114285290Y-103545151D01*
X114205102Y-103061715D01*
X114178296Y-102997000D01*
X115570000Y-102997000D01*
X115618601Y-102987333D01*
X115659803Y-102959803D01*
X116929803Y-101689803D01*
X116957333Y-101648601D01*
X116967000Y-101600000D01*
X116967000Y-97155000D01*
X116957333Y-97106399D01*
X116929803Y-97065197D01*
X115697000Y-95832394D01*
X115697000Y-94811950D01*
X117333200Y-94811950D01*
X117333200Y-95635890D01*
X117398937Y-95794595D01*
X117520405Y-95916062D01*
X117679109Y-95981800D01*
X118303050Y-95981800D01*
X118411000Y-95873850D01*
X118411000Y-94704000D01*
X118919000Y-94704000D01*
X118919000Y-95873850D01*
X119026950Y-95981800D01*
X119650891Y-95981800D01*
X119809595Y-95916062D01*
X119931063Y-95794595D01*
X119996800Y-95635890D01*
X119996800Y-94811950D01*
X119888850Y-94704000D01*
X118919000Y-94704000D01*
X118411000Y-94704000D01*
X117441150Y-94704000D01*
X117333200Y-94811950D01*
X115697000Y-94811950D01*
X115697000Y-91911950D01*
X117333200Y-91911950D01*
X117333200Y-92735890D01*
X117398937Y-92894595D01*
X117504343Y-93000000D01*
X117398937Y-93105405D01*
X117333200Y-93264110D01*
X117333200Y-94088050D01*
X117441150Y-94196000D01*
X118411000Y-94196000D01*
X118411000Y-93026150D01*
X118384850Y-93000000D01*
X118411000Y-92973850D01*
X118411000Y-91804000D01*
X118919000Y-91804000D01*
X118919000Y-92973850D01*
X118945150Y-93000000D01*
X118919000Y-93026150D01*
X118919000Y-94196000D01*
X119888850Y-94196000D01*
X119996800Y-94088050D01*
X119996800Y-93264110D01*
X119931063Y-93105405D01*
X119825657Y-93000000D01*
X119931063Y-92894595D01*
X119996800Y-92735890D01*
X119996800Y-91911950D01*
X119888850Y-91804000D01*
X118919000Y-91804000D01*
X118411000Y-91804000D01*
X117441150Y-91804000D01*
X117333200Y-91911950D01*
X115697000Y-91911950D01*
X115697000Y-90364110D01*
X117333200Y-90364110D01*
X117333200Y-91188050D01*
X117441150Y-91296000D01*
X118411000Y-91296000D01*
X118411000Y-90126150D01*
X118919000Y-90126150D01*
X118919000Y-91296000D01*
X119888850Y-91296000D01*
X119996800Y-91188050D01*
X119996800Y-90364110D01*
X119931063Y-90205405D01*
X119809595Y-90083938D01*
X119650891Y-90018200D01*
X119026950Y-90018200D01*
X118919000Y-90126150D01*
X118411000Y-90126150D01*
X118303050Y-90018200D01*
X117679109Y-90018200D01*
X117520405Y-90083938D01*
X117398937Y-90205405D01*
X117333200Y-90364110D01*
X115697000Y-90364110D01*
X115697000Y-89511950D01*
X127893200Y-89511950D01*
X127893200Y-89935891D01*
X127958938Y-90094595D01*
X128080405Y-90216063D01*
X128239110Y-90281800D01*
X128342050Y-90281800D01*
X128450000Y-90173850D01*
X128450000Y-89404000D01*
X128001150Y-89404000D01*
X127893200Y-89511950D01*
X115697000Y-89511950D01*
X115697000Y-87637051D01*
X115929607Y-87733400D01*
X116400393Y-87733400D01*
X116835342Y-87553238D01*
X117168238Y-87220342D01*
X117213135Y-87111950D01*
X124293200Y-87111950D01*
X124293200Y-88735891D01*
X124358938Y-88894595D01*
X124480405Y-89016063D01*
X124639110Y-89081800D01*
X125613050Y-89081800D01*
X125721000Y-88973850D01*
X125721000Y-87004000D01*
X126229000Y-87004000D01*
X126229000Y-88973850D01*
X126336950Y-89081800D01*
X127310890Y-89081800D01*
X127469595Y-89016063D01*
X127591062Y-88894595D01*
X127656800Y-88735891D01*
X127656800Y-88364109D01*
X127893200Y-88364109D01*
X127893200Y-88788050D01*
X128001150Y-88896000D01*
X128450000Y-88896000D01*
X128450000Y-88126150D01*
X128342050Y-88018200D01*
X128239110Y-88018200D01*
X128080405Y-88083937D01*
X127958938Y-88205405D01*
X127893200Y-88364109D01*
X127656800Y-88364109D01*
X127656800Y-87111950D01*
X127548850Y-87004000D01*
X126229000Y-87004000D01*
X125721000Y-87004000D01*
X124401150Y-87004000D01*
X124293200Y-87111950D01*
X117213135Y-87111950D01*
X117348400Y-86785393D01*
X117348400Y-86314607D01*
X117168238Y-85879658D01*
X116835342Y-85546762D01*
X116400393Y-85366600D01*
X115929607Y-85366600D01*
X115697000Y-85462949D01*
X115697000Y-85217000D01*
X124293200Y-85217000D01*
X124293200Y-86388050D01*
G36*
X192212000Y-109093000D02*
X192232000Y-109093000D01*
X192232000Y-109347000D01*
X192212000Y-109347000D01*
X192212000Y-110446250D01*
X192370750Y-110605000D01*
X192861309Y-110605000D01*
X192944115Y-110570700D01*
X192950197Y-110579803D01*
X192957677Y-110584801D01*
X192925000Y-110663691D01*
X192925000Y-111154250D01*
X193083750Y-111313000D01*
X194183000Y-111313000D01*
X194183000Y-111293000D01*
X194437000Y-111293000D01*
X194437000Y-111313000D01*
X194457000Y-111313000D01*
X194457000Y-111567000D01*
X194437000Y-111567000D01*
X194437000Y-112566250D01*
X194595750Y-112725000D01*
X195186310Y-112725000D01*
X195419699Y-112628327D01*
X195598327Y-112449698D01*
X195695000Y-112216309D01*
X195695000Y-111948026D01*
X195740301Y-111993327D01*
X195973690Y-112090000D01*
X196564250Y-112090000D01*
X196723000Y-111931250D01*
X196723000Y-110932000D01*
X196977000Y-110932000D01*
X196977000Y-111931250D01*
X197135750Y-112090000D01*
X197726310Y-112090000D01*
X197959699Y-111993327D01*
X198138327Y-111814698D01*
X198235000Y-111581309D01*
X198235000Y-111090750D01*
X198135000Y-110990750D01*
X198255000Y-110990750D01*
X198255000Y-111381309D01*
X198351673Y-111614698D01*
X198530301Y-111793327D01*
X198763690Y-111890000D01*
X199104250Y-111890000D01*
X199263000Y-111731250D01*
X199263000Y-110832000D01*
X199517000Y-110832000D01*
X199517000Y-111731250D01*
X199675750Y-111890000D01*
X200016310Y-111890000D01*
X200249699Y-111793327D01*
X200428327Y-111614698D01*
X200525000Y-111381309D01*
X200525000Y-110990750D01*
X200366250Y-110832000D01*
X199517000Y-110832000D01*
X199263000Y-110832000D01*
X198413750Y-110832000D01*
X198255000Y-110990750D01*
X198135000Y-110990750D01*
X198076250Y-110932000D01*
X196977000Y-110932000D01*
X196723000Y-110932000D01*
X196703000Y-110932000D01*
X196703000Y-110678000D01*
X196723000Y-110678000D01*
X196723000Y-110658000D01*
X196977000Y-110658000D01*
X196977000Y-110678000D01*
X198076250Y-110678000D01*
X198137250Y-110617000D01*
X200533000Y-110617000D01*
X200533000Y-111707394D01*
X198702394Y-113538000D01*
X195512078Y-113538000D01*
X195477354Y-113503276D01*
X195131938Y-113360200D01*
X194758062Y-113360200D01*
X194412646Y-113503276D01*
X194377922Y-113538000D01*
X193979800Y-113538000D01*
X193979800Y-113478062D01*
X193836724Y-113132646D01*
X193572354Y-112868276D01*
X193226938Y-112725200D01*
X192853062Y-112725200D01*
X192507646Y-112868276D01*
X192506973Y-112868949D01*
X191363775Y-111725750D01*
X192925000Y-111725750D01*
X192925000Y-112216309D01*
X193021673Y-112449698D01*
X193200301Y-112628327D01*
X193433690Y-112725000D01*
X194024250Y-112725000D01*
X194183000Y-112566250D01*
X194183000Y-111567000D01*
X193083750Y-111567000D01*
X192925000Y-111725750D01*
X191363775Y-111725750D01*
X191262000Y-111623975D01*
X191262000Y-110585660D01*
X191308691Y-110605000D01*
X191799250Y-110605000D01*
X191958000Y-110446250D01*
X191958000Y-109347000D01*
X191938000Y-109347000D01*
X191938000Y-109093000D01*
X191958000Y-109093000D01*
X191958000Y-109073000D01*
X192212000Y-109073000D01*
X192212000Y-109093000D01*
X192212000Y-109093000D01*
G37*
X192212000Y-109093000D02*
X192232000Y-109093000D01*
X192232000Y-109347000D01*
X192212000Y-109347000D01*
X192212000Y-110446250D01*
X192370750Y-110605000D01*
X192861309Y-110605000D01*
X192944115Y-110570700D01*
X192950197Y-110579803D01*
X192957677Y-110584801D01*
X192925000Y-110663691D01*
X192925000Y-111154250D01*
X193083750Y-111313000D01*
X194183000Y-111313000D01*
X194183000Y-111293000D01*
X194437000Y-111293000D01*
X194437000Y-111313000D01*
X194457000Y-111313000D01*
X194457000Y-111567000D01*
X194437000Y-111567000D01*
X194437000Y-112566250D01*
X194595750Y-112725000D01*
X195186310Y-112725000D01*
X195419699Y-112628327D01*
X195598327Y-112449698D01*
X195695000Y-112216309D01*
X195695000Y-111948026D01*
X195740301Y-111993327D01*
X195973690Y-112090000D01*
X196564250Y-112090000D01*
X196723000Y-111931250D01*
X196723000Y-110932000D01*
X196977000Y-110932000D01*
X196977000Y-111931250D01*
X197135750Y-112090000D01*
X197726310Y-112090000D01*
X197959699Y-111993327D01*
X198138327Y-111814698D01*
X198235000Y-111581309D01*
X198235000Y-111090750D01*
X198135000Y-110990750D01*
X198255000Y-110990750D01*
X198255000Y-111381309D01*
X198351673Y-111614698D01*
X198530301Y-111793327D01*
X198763690Y-111890000D01*
X199104250Y-111890000D01*
X199263000Y-111731250D01*
X199263000Y-110832000D01*
X199517000Y-110832000D01*
X199517000Y-111731250D01*
X199675750Y-111890000D01*
X200016310Y-111890000D01*
X200249699Y-111793327D01*
X200428327Y-111614698D01*
X200525000Y-111381309D01*
X200525000Y-110990750D01*
X200366250Y-110832000D01*
X199517000Y-110832000D01*
X199263000Y-110832000D01*
X198413750Y-110832000D01*
X198255000Y-110990750D01*
X198135000Y-110990750D01*
X198076250Y-110932000D01*
X196977000Y-110932000D01*
X196723000Y-110932000D01*
X196703000Y-110932000D01*
X196703000Y-110678000D01*
X196723000Y-110678000D01*
X196723000Y-110658000D01*
X196977000Y-110658000D01*
X196977000Y-110678000D01*
X198076250Y-110678000D01*
X198137250Y-110617000D01*
X200533000Y-110617000D01*
X200533000Y-111707394D01*
X198702394Y-113538000D01*
X195512078Y-113538000D01*
X195477354Y-113503276D01*
X195131938Y-113360200D01*
X194758062Y-113360200D01*
X194412646Y-113503276D01*
X194377922Y-113538000D01*
X193979800Y-113538000D01*
X193979800Y-113478062D01*
X193836724Y-113132646D01*
X193572354Y-112868276D01*
X193226938Y-112725200D01*
X192853062Y-112725200D01*
X192507646Y-112868276D01*
X192506973Y-112868949D01*
X191363775Y-111725750D01*
X192925000Y-111725750D01*
X192925000Y-112216309D01*
X193021673Y-112449698D01*
X193200301Y-112628327D01*
X193433690Y-112725000D01*
X194024250Y-112725000D01*
X194183000Y-112566250D01*
X194183000Y-111567000D01*
X193083750Y-111567000D01*
X192925000Y-111725750D01*
X191363775Y-111725750D01*
X191262000Y-111623975D01*
X191262000Y-110585660D01*
X191308691Y-110605000D01*
X191799250Y-110605000D01*
X191958000Y-110446250D01*
X191958000Y-109347000D01*
X191938000Y-109347000D01*
X191938000Y-109093000D01*
X191958000Y-109093000D01*
X191958000Y-109073000D01*
X192212000Y-109073000D01*
X192212000Y-109093000D01*
G36*
X182753000Y-101017606D02*
X182753000Y-112379854D01*
X182194836Y-112902957D01*
X173407201Y-112895407D01*
X172847000Y-112341944D01*
X172847000Y-111625750D01*
X176030000Y-111625750D01*
X176030000Y-112016309D01*
X176126673Y-112249698D01*
X176305301Y-112428327D01*
X176538690Y-112525000D01*
X176879250Y-112525000D01*
X177038000Y-112366250D01*
X177038000Y-111467000D01*
X177292000Y-111467000D01*
X177292000Y-112366250D01*
X177450750Y-112525000D01*
X177791310Y-112525000D01*
X178024699Y-112428327D01*
X178203327Y-112249698D01*
X178300000Y-112016309D01*
X178300000Y-111625750D01*
X178141250Y-111467000D01*
X177292000Y-111467000D01*
X177038000Y-111467000D01*
X176188750Y-111467000D01*
X176030000Y-111625750D01*
X172847000Y-111625750D01*
X172847000Y-111443849D01*
X173065000Y-111443849D01*
X173273122Y-111402451D01*
X173449559Y-111284559D01*
X173567451Y-111108122D01*
X173608849Y-110900000D01*
X173608849Y-110759247D01*
X173622549Y-110828122D01*
X173740441Y-111004559D01*
X173916878Y-111122451D01*
X174125000Y-111163849D01*
X175125000Y-111163849D01*
X175333122Y-111122451D01*
X175509559Y-111004559D01*
X175627451Y-110828122D01*
X175668849Y-110620000D01*
X175668849Y-109520000D01*
X175628064Y-109314961D01*
X175663327Y-109279698D01*
X175760000Y-109046309D01*
X175760000Y-108655750D01*
X175601250Y-108497000D01*
X174752000Y-108497000D01*
X174752000Y-108517000D01*
X174498000Y-108517000D01*
X174498000Y-108497000D01*
X174478000Y-108497000D01*
X174478000Y-108243000D01*
X174498000Y-108243000D01*
X174498000Y-108223000D01*
X174752000Y-108223000D01*
X174752000Y-108243000D01*
X175601250Y-108243000D01*
X175760000Y-108084250D01*
X175760000Y-108059845D01*
X175862235Y-108128157D01*
X176047459Y-108165000D01*
X176047464Y-108165000D01*
X176109999Y-108177439D01*
X176139371Y-108171597D01*
X176162549Y-108288122D01*
X176280441Y-108464559D01*
X176456878Y-108582451D01*
X176469693Y-108585000D01*
X176456878Y-108587549D01*
X176280441Y-108705441D01*
X176162549Y-108881878D01*
X176121151Y-109090000D01*
X176121151Y-110190000D01*
X176161936Y-110395039D01*
X176126673Y-110430302D01*
X176030000Y-110663691D01*
X176030000Y-111054250D01*
X176188750Y-111213000D01*
X177038000Y-111213000D01*
X177038000Y-111193000D01*
X177292000Y-111193000D01*
X177292000Y-111213000D01*
X178141250Y-111213000D01*
X178300000Y-111054250D01*
X178300000Y-110663691D01*
X178203327Y-110430302D01*
X178168064Y-110395039D01*
X178208849Y-110190000D01*
X178208849Y-109090000D01*
X178167451Y-108881878D01*
X178049559Y-108705441D01*
X177873122Y-108587549D01*
X177860307Y-108585000D01*
X177873122Y-108582451D01*
X178049559Y-108464559D01*
X178050350Y-108463375D01*
X179421766Y-109834791D01*
X179457191Y-109887809D01*
X179510208Y-109923234D01*
X179510210Y-109923236D01*
X179667235Y-110028157D01*
X179831151Y-110060762D01*
X179831151Y-111180000D01*
X179872549Y-111388122D01*
X179990441Y-111564559D01*
X180166878Y-111682451D01*
X180375000Y-111723849D01*
X181575000Y-111723849D01*
X181783122Y-111682451D01*
X181959559Y-111564559D01*
X182077451Y-111388122D01*
X182118849Y-111180000D01*
X182118849Y-107680000D01*
X182077451Y-107471878D01*
X181959559Y-107295441D01*
X181783122Y-107177549D01*
X181575000Y-107136151D01*
X180375000Y-107136151D01*
X180166878Y-107177549D01*
X179990441Y-107295441D01*
X179872549Y-107471878D01*
X179831151Y-107680000D01*
X179831151Y-108448126D01*
X178508238Y-107125214D01*
X178472809Y-107072191D01*
X178262765Y-106931843D01*
X178196654Y-106918693D01*
X178167451Y-106771878D01*
X178106060Y-106680000D01*
X178167451Y-106588122D01*
X178196654Y-106441307D01*
X178262765Y-106428157D01*
X178472809Y-106287809D01*
X178508238Y-106234786D01*
X179831151Y-104911874D01*
X179831151Y-105680000D01*
X179872549Y-105888122D01*
X179990441Y-106064559D01*
X180166878Y-106182451D01*
X180375000Y-106223849D01*
X181575000Y-106223849D01*
X181783122Y-106182451D01*
X181959559Y-106064559D01*
X182077451Y-105888122D01*
X182118849Y-105680000D01*
X182118849Y-102180000D01*
X182077451Y-101971878D01*
X181959559Y-101795441D01*
X181783122Y-101677549D01*
X181575000Y-101636151D01*
X180375000Y-101636151D01*
X180166878Y-101677549D01*
X179990441Y-101795441D01*
X179872549Y-101971878D01*
X179831151Y-102180000D01*
X179831151Y-103299238D01*
X179667235Y-103331843D01*
X179510210Y-103436764D01*
X179510208Y-103436766D01*
X179457191Y-103472191D01*
X179421766Y-103525209D01*
X178050350Y-104896625D01*
X178049559Y-104895441D01*
X177873122Y-104777549D01*
X177860307Y-104775000D01*
X177873122Y-104772451D01*
X178049559Y-104654559D01*
X178167451Y-104478122D01*
X178208849Y-104270000D01*
X178208849Y-103170000D01*
X178168064Y-102964961D01*
X178203327Y-102929698D01*
X178300000Y-102696309D01*
X178300000Y-102305750D01*
X178141250Y-102147000D01*
X177292000Y-102147000D01*
X177292000Y-102167000D01*
X177038000Y-102167000D01*
X177038000Y-102147000D01*
X176188750Y-102147000D01*
X176030000Y-102305750D01*
X176030000Y-102696309D01*
X176126673Y-102929698D01*
X176161936Y-102964961D01*
X176121151Y-103170000D01*
X176121151Y-104270000D01*
X176162549Y-104478122D01*
X176280441Y-104654559D01*
X176456878Y-104772451D01*
X176469693Y-104775000D01*
X176456878Y-104777549D01*
X176280441Y-104895441D01*
X176162549Y-105071878D01*
X176139371Y-105188403D01*
X176110000Y-105182561D01*
X176047463Y-105195000D01*
X176047459Y-105195000D01*
X175862235Y-105231843D01*
X175705210Y-105336764D01*
X175705208Y-105336766D01*
X175652191Y-105372191D01*
X175616765Y-105425209D01*
X174901976Y-106140000D01*
X174707025Y-106140000D01*
X174714803Y-106134803D01*
X175349803Y-105499803D01*
X175377333Y-105458601D01*
X175387000Y-105410000D01*
X175387000Y-105342078D01*
X175421724Y-105307354D01*
X175564800Y-104961938D01*
X175564800Y-104588062D01*
X175421724Y-104242646D01*
X175387000Y-104207922D01*
X175387000Y-104072078D01*
X175421724Y-104037354D01*
X175564800Y-103691938D01*
X175564800Y-103318062D01*
X175421724Y-102972646D01*
X175387000Y-102937922D01*
X175387000Y-101343691D01*
X176030000Y-101343691D01*
X176030000Y-101734250D01*
X176188750Y-101893000D01*
X177038000Y-101893000D01*
X177038000Y-100993750D01*
X177292000Y-100993750D01*
X177292000Y-101893000D01*
X178141250Y-101893000D01*
X178300000Y-101734250D01*
X178300000Y-101343691D01*
X178203327Y-101110302D01*
X178024699Y-100931673D01*
X177791310Y-100835000D01*
X177450750Y-100835000D01*
X177292000Y-100993750D01*
X177038000Y-100993750D01*
X176879250Y-100835000D01*
X176538690Y-100835000D01*
X176305301Y-100931673D01*
X176126673Y-101110302D01*
X176030000Y-101343691D01*
X175387000Y-101343691D01*
X175387000Y-101017606D01*
X175947606Y-100457000D01*
X182192394Y-100457000D01*
X182753000Y-101017606D01*
X182753000Y-101017606D01*
G37*
X182753000Y-101017606D02*
X182753000Y-112379854D01*
X182194836Y-112902957D01*
X173407201Y-112895407D01*
X172847000Y-112341944D01*
X172847000Y-111625750D01*
X176030000Y-111625750D01*
X176030000Y-112016309D01*
X176126673Y-112249698D01*
X176305301Y-112428327D01*
X176538690Y-112525000D01*
X176879250Y-112525000D01*
X177038000Y-112366250D01*
X177038000Y-111467000D01*
X177292000Y-111467000D01*
X177292000Y-112366250D01*
X177450750Y-112525000D01*
X177791310Y-112525000D01*
X178024699Y-112428327D01*
X178203327Y-112249698D01*
X178300000Y-112016309D01*
X178300000Y-111625750D01*
X178141250Y-111467000D01*
X177292000Y-111467000D01*
X177038000Y-111467000D01*
X176188750Y-111467000D01*
X176030000Y-111625750D01*
X172847000Y-111625750D01*
X172847000Y-111443849D01*
X173065000Y-111443849D01*
X173273122Y-111402451D01*
X173449559Y-111284559D01*
X173567451Y-111108122D01*
X173608849Y-110900000D01*
X173608849Y-110759247D01*
X173622549Y-110828122D01*
X173740441Y-111004559D01*
X173916878Y-111122451D01*
X174125000Y-111163849D01*
X175125000Y-111163849D01*
X175333122Y-111122451D01*
X175509559Y-111004559D01*
X175627451Y-110828122D01*
X175668849Y-110620000D01*
X175668849Y-109520000D01*
X175628064Y-109314961D01*
X175663327Y-109279698D01*
X175760000Y-109046309D01*
X175760000Y-108655750D01*
X175601250Y-108497000D01*
X174752000Y-108497000D01*
X174752000Y-108517000D01*
X174498000Y-108517000D01*
X174498000Y-108497000D01*
X174478000Y-108497000D01*
X174478000Y-108243000D01*
X174498000Y-108243000D01*
X174498000Y-108223000D01*
X174752000Y-108223000D01*
X174752000Y-108243000D01*
X175601250Y-108243000D01*
X175760000Y-108084250D01*
X175760000Y-108059845D01*
X175862235Y-108128157D01*
X176047459Y-108165000D01*
X176047464Y-108165000D01*
X176109999Y-108177439D01*
X176139371Y-108171597D01*
X176162549Y-108288122D01*
X176280441Y-108464559D01*
X176456878Y-108582451D01*
X176469693Y-108585000D01*
X176456878Y-108587549D01*
X176280441Y-108705441D01*
X176162549Y-108881878D01*
X176121151Y-109090000D01*
X176121151Y-110190000D01*
X176161936Y-110395039D01*
X176126673Y-110430302D01*
X176030000Y-110663691D01*
X176030000Y-111054250D01*
X176188750Y-111213000D01*
X177038000Y-111213000D01*
X177038000Y-111193000D01*
X177292000Y-111193000D01*
X177292000Y-111213000D01*
X178141250Y-111213000D01*
X178300000Y-111054250D01*
X178300000Y-110663691D01*
X178203327Y-110430302D01*
X178168064Y-110395039D01*
X178208849Y-110190000D01*
X178208849Y-109090000D01*
X178167451Y-108881878D01*
X178049559Y-108705441D01*
X177873122Y-108587549D01*
X177860307Y-108585000D01*
X177873122Y-108582451D01*
X178049559Y-108464559D01*
X178050350Y-108463375D01*
X179421766Y-109834791D01*
X179457191Y-109887809D01*
X179510208Y-109923234D01*
X179510210Y-109923236D01*
X179667235Y-110028157D01*
X179831151Y-110060762D01*
X179831151Y-111180000D01*
X179872549Y-111388122D01*
X179990441Y-111564559D01*
X180166878Y-111682451D01*
X180375000Y-111723849D01*
X181575000Y-111723849D01*
X181783122Y-111682451D01*
X181959559Y-111564559D01*
X182077451Y-111388122D01*
X182118849Y-111180000D01*
X182118849Y-107680000D01*
X182077451Y-107471878D01*
X181959559Y-107295441D01*
X181783122Y-107177549D01*
X181575000Y-107136151D01*
X180375000Y-107136151D01*
X180166878Y-107177549D01*
X179990441Y-107295441D01*
X179872549Y-107471878D01*
X179831151Y-107680000D01*
X179831151Y-108448126D01*
X178508238Y-107125214D01*
X178472809Y-107072191D01*
X178262765Y-106931843D01*
X178196654Y-106918693D01*
X178167451Y-106771878D01*
X178106060Y-106680000D01*
X178167451Y-106588122D01*
X178196654Y-106441307D01*
X178262765Y-106428157D01*
X178472809Y-106287809D01*
X178508238Y-106234786D01*
X179831151Y-104911874D01*
X179831151Y-105680000D01*
X179872549Y-105888122D01*
X179990441Y-106064559D01*
X180166878Y-106182451D01*
X180375000Y-106223849D01*
X181575000Y-106223849D01*
X181783122Y-106182451D01*
X181959559Y-106064559D01*
X182077451Y-105888122D01*
X182118849Y-105680000D01*
X182118849Y-102180000D01*
X182077451Y-101971878D01*
X181959559Y-101795441D01*
X181783122Y-101677549D01*
X181575000Y-101636151D01*
X180375000Y-101636151D01*
X180166878Y-101677549D01*
X179990441Y-101795441D01*
X179872549Y-101971878D01*
X179831151Y-102180000D01*
X179831151Y-103299238D01*
X179667235Y-103331843D01*
X179510210Y-103436764D01*
X179510208Y-103436766D01*
X179457191Y-103472191D01*
X179421766Y-103525209D01*
X178050350Y-104896625D01*
X178049559Y-104895441D01*
X177873122Y-104777549D01*
X177860307Y-104775000D01*
X177873122Y-104772451D01*
X178049559Y-104654559D01*
X178167451Y-104478122D01*
X178208849Y-104270000D01*
X178208849Y-103170000D01*
X178168064Y-102964961D01*
X178203327Y-102929698D01*
X178300000Y-102696309D01*
X178300000Y-102305750D01*
X178141250Y-102147000D01*
X177292000Y-102147000D01*
X177292000Y-102167000D01*
X177038000Y-102167000D01*
X177038000Y-102147000D01*
X176188750Y-102147000D01*
X176030000Y-102305750D01*
X176030000Y-102696309D01*
X176126673Y-102929698D01*
X176161936Y-102964961D01*
X176121151Y-103170000D01*
X176121151Y-104270000D01*
X176162549Y-104478122D01*
X176280441Y-104654559D01*
X176456878Y-104772451D01*
X176469693Y-104775000D01*
X176456878Y-104777549D01*
X176280441Y-104895441D01*
X176162549Y-105071878D01*
X176139371Y-105188403D01*
X176110000Y-105182561D01*
X176047463Y-105195000D01*
X176047459Y-105195000D01*
X175862235Y-105231843D01*
X175705210Y-105336764D01*
X175705208Y-105336766D01*
X175652191Y-105372191D01*
X175616765Y-105425209D01*
X174901976Y-106140000D01*
X174707025Y-106140000D01*
X174714803Y-106134803D01*
X175349803Y-105499803D01*
X175377333Y-105458601D01*
X175387000Y-105410000D01*
X175387000Y-105342078D01*
X175421724Y-105307354D01*
X175564800Y-104961938D01*
X175564800Y-104588062D01*
X175421724Y-104242646D01*
X175387000Y-104207922D01*
X175387000Y-104072078D01*
X175421724Y-104037354D01*
X175564800Y-103691938D01*
X175564800Y-103318062D01*
X175421724Y-102972646D01*
X175387000Y-102937922D01*
X175387000Y-101343691D01*
X176030000Y-101343691D01*
X176030000Y-101734250D01*
X176188750Y-101893000D01*
X177038000Y-101893000D01*
X177038000Y-100993750D01*
X177292000Y-100993750D01*
X177292000Y-101893000D01*
X178141250Y-101893000D01*
X178300000Y-101734250D01*
X178300000Y-101343691D01*
X178203327Y-101110302D01*
X178024699Y-100931673D01*
X177791310Y-100835000D01*
X177450750Y-100835000D01*
X177292000Y-100993750D01*
X177038000Y-100993750D01*
X176879250Y-100835000D01*
X176538690Y-100835000D01*
X176305301Y-100931673D01*
X176126673Y-101110302D01*
X176030000Y-101343691D01*
X175387000Y-101343691D01*
X175387000Y-101017606D01*
X175947606Y-100457000D01*
X182192394Y-100457000D01*
X182753000Y-101017606D01*
G04 #@! TO.N,+5V*
G36*
X175145000Y-91613691D02*
X175145000Y-92104250D01*
X175303750Y-92263000D01*
X176403000Y-92263000D01*
X176403000Y-92243000D01*
X176657000Y-92243000D01*
X176657000Y-92263000D01*
X176677000Y-92263000D01*
X176677000Y-92517000D01*
X176657000Y-92517000D01*
X176657000Y-93516250D01*
X176815750Y-93675000D01*
X177038000Y-93675000D01*
X177038000Y-95016151D01*
X176435000Y-95016151D01*
X176226878Y-95057549D01*
X176220217Y-95062000D01*
X175958750Y-95062000D01*
X175897750Y-95123000D01*
X173482000Y-95123000D01*
X173482000Y-94483691D01*
X175800000Y-94483691D01*
X175800000Y-94649250D01*
X175958750Y-94808000D01*
X176908000Y-94808000D01*
X176908000Y-94133750D01*
X176749250Y-93975000D01*
X176308690Y-93975000D01*
X176075301Y-94071673D01*
X175896673Y-94250302D01*
X175800000Y-94483691D01*
X173482000Y-94483691D01*
X173482000Y-92675750D01*
X175145000Y-92675750D01*
X175145000Y-93166309D01*
X175241673Y-93399698D01*
X175420301Y-93578327D01*
X175653690Y-93675000D01*
X176244250Y-93675000D01*
X176403000Y-93516250D01*
X176403000Y-92517000D01*
X175303750Y-92517000D01*
X175145000Y-92675750D01*
X173482000Y-92675750D01*
X173482000Y-91567000D01*
X175164340Y-91567000D01*
X175145000Y-91613691D01*
X175145000Y-91613691D01*
G37*
X175145000Y-91613691D02*
X175145000Y-92104250D01*
X175303750Y-92263000D01*
X176403000Y-92263000D01*
X176403000Y-92243000D01*
X176657000Y-92243000D01*
X176657000Y-92263000D01*
X176677000Y-92263000D01*
X176677000Y-92517000D01*
X176657000Y-92517000D01*
X176657000Y-93516250D01*
X176815750Y-93675000D01*
X177038000Y-93675000D01*
X177038000Y-95016151D01*
X176435000Y-95016151D01*
X176226878Y-95057549D01*
X176220217Y-95062000D01*
X175958750Y-95062000D01*
X175897750Y-95123000D01*
X173482000Y-95123000D01*
X173482000Y-94483691D01*
X175800000Y-94483691D01*
X175800000Y-94649250D01*
X175958750Y-94808000D01*
X176908000Y-94808000D01*
X176908000Y-94133750D01*
X176749250Y-93975000D01*
X176308690Y-93975000D01*
X176075301Y-94071673D01*
X175896673Y-94250302D01*
X175800000Y-94483691D01*
X173482000Y-94483691D01*
X173482000Y-92675750D01*
X175145000Y-92675750D01*
X175145000Y-93166309D01*
X175241673Y-93399698D01*
X175420301Y-93578327D01*
X175653690Y-93675000D01*
X176244250Y-93675000D01*
X176403000Y-93516250D01*
X176403000Y-92517000D01*
X175303750Y-92517000D01*
X175145000Y-92675750D01*
X173482000Y-92675750D01*
X173482000Y-91567000D01*
X175164340Y-91567000D01*
X175145000Y-91613691D01*
G04 #@! TO.N,+3V3*
G36*
X182753000Y-92711447D02*
X182750000Y-92718690D01*
X182750000Y-93059250D01*
X182753000Y-93062250D01*
X182753000Y-93627750D01*
X182750000Y-93630750D01*
X182750000Y-93971310D01*
X182753000Y-93978553D01*
X182753000Y-95123000D01*
X180972250Y-95123000D01*
X180911250Y-95062000D01*
X179962000Y-95062000D01*
X179962000Y-95082000D01*
X179832000Y-95082000D01*
X179832000Y-94133750D01*
X179962000Y-94133750D01*
X179962000Y-94808000D01*
X180911250Y-94808000D01*
X181070000Y-94649250D01*
X181070000Y-94483691D01*
X180973327Y-94250302D01*
X180794699Y-94071673D01*
X180561310Y-93975000D01*
X180120750Y-93975000D01*
X179962000Y-94133750D01*
X179832000Y-94133750D01*
X179832000Y-93675000D01*
X180054250Y-93675000D01*
X180213000Y-93516250D01*
X180213000Y-92517000D01*
X180467000Y-92517000D01*
X180467000Y-93516250D01*
X180625750Y-93675000D01*
X181216310Y-93675000D01*
X181449699Y-93578327D01*
X181628327Y-93399698D01*
X181725000Y-93166309D01*
X181725000Y-92675750D01*
X181566250Y-92517000D01*
X180467000Y-92517000D01*
X180213000Y-92517000D01*
X180193000Y-92517000D01*
X180193000Y-92263000D01*
X180213000Y-92263000D01*
X180213000Y-92243000D01*
X180467000Y-92243000D01*
X180467000Y-92263000D01*
X181566250Y-92263000D01*
X181725000Y-92104250D01*
X181725000Y-91613691D01*
X181705660Y-91567000D01*
X182753000Y-91567000D01*
X182753000Y-92711447D01*
X182753000Y-92711447D01*
G37*
X182753000Y-92711447D02*
X182750000Y-92718690D01*
X182750000Y-93059250D01*
X182753000Y-93062250D01*
X182753000Y-93627750D01*
X182750000Y-93630750D01*
X182750000Y-93971310D01*
X182753000Y-93978553D01*
X182753000Y-95123000D01*
X180972250Y-95123000D01*
X180911250Y-95062000D01*
X179962000Y-95062000D01*
X179962000Y-95082000D01*
X179832000Y-95082000D01*
X179832000Y-94133750D01*
X179962000Y-94133750D01*
X179962000Y-94808000D01*
X180911250Y-94808000D01*
X181070000Y-94649250D01*
X181070000Y-94483691D01*
X180973327Y-94250302D01*
X180794699Y-94071673D01*
X180561310Y-93975000D01*
X180120750Y-93975000D01*
X179962000Y-94133750D01*
X179832000Y-94133750D01*
X179832000Y-93675000D01*
X180054250Y-93675000D01*
X180213000Y-93516250D01*
X180213000Y-92517000D01*
X180467000Y-92517000D01*
X180467000Y-93516250D01*
X180625750Y-93675000D01*
X181216310Y-93675000D01*
X181449699Y-93578327D01*
X181628327Y-93399698D01*
X181725000Y-93166309D01*
X181725000Y-92675750D01*
X181566250Y-92517000D01*
X180467000Y-92517000D01*
X180213000Y-92517000D01*
X180193000Y-92517000D01*
X180193000Y-92263000D01*
X180213000Y-92263000D01*
X180213000Y-92243000D01*
X180467000Y-92243000D01*
X180467000Y-92263000D01*
X181566250Y-92263000D01*
X181725000Y-92104250D01*
X181725000Y-91613691D01*
X181705660Y-91567000D01*
X182753000Y-91567000D01*
X182753000Y-92711447D01*
G04 #@! TO.N,GND*
G36*
X181077646Y-89061724D02*
X181423062Y-89204800D01*
X181796938Y-89204800D01*
X182118000Y-89071812D01*
X182118000Y-90906600D01*
X181725000Y-90906600D01*
X181725000Y-90775750D01*
X181566250Y-90617000D01*
X180467000Y-90617000D01*
X180467000Y-90637000D01*
X180213000Y-90637000D01*
X180213000Y-90617000D01*
X179113750Y-90617000D01*
X178955000Y-90775750D01*
X178955000Y-91266309D01*
X178987677Y-91345199D01*
X178980197Y-91350197D01*
X178952667Y-91391399D01*
X178943000Y-91440000D01*
X178943000Y-93218000D01*
X177927000Y-93218000D01*
X177927000Y-91440000D01*
X177917333Y-91391399D01*
X177889803Y-91350197D01*
X177882323Y-91345199D01*
X177915000Y-91266309D01*
X177915000Y-90775750D01*
X177756250Y-90617000D01*
X176657000Y-90617000D01*
X176657000Y-90637000D01*
X176403000Y-90637000D01*
X176403000Y-90617000D01*
X175303750Y-90617000D01*
X175145000Y-90775750D01*
X175145000Y-90906600D01*
X173482000Y-90906600D01*
X173482000Y-89713691D01*
X175145000Y-89713691D01*
X175145000Y-90204250D01*
X175303750Y-90363000D01*
X176403000Y-90363000D01*
X176403000Y-89363750D01*
X176657000Y-89363750D01*
X176657000Y-90363000D01*
X177756250Y-90363000D01*
X177915000Y-90204250D01*
X177915000Y-89713691D01*
X178955000Y-89713691D01*
X178955000Y-90204250D01*
X179113750Y-90363000D01*
X180213000Y-90363000D01*
X180213000Y-89363750D01*
X180467000Y-89363750D01*
X180467000Y-90363000D01*
X181566250Y-90363000D01*
X181725000Y-90204250D01*
X181725000Y-89713691D01*
X181628327Y-89480302D01*
X181449699Y-89301673D01*
X181216310Y-89205000D01*
X180625750Y-89205000D01*
X180467000Y-89363750D01*
X180213000Y-89363750D01*
X180054250Y-89205000D01*
X179463690Y-89205000D01*
X179230301Y-89301673D01*
X179051673Y-89480302D01*
X178955000Y-89713691D01*
X177915000Y-89713691D01*
X177818327Y-89480302D01*
X177639699Y-89301673D01*
X177406310Y-89205000D01*
X176815750Y-89205000D01*
X176657000Y-89363750D01*
X176403000Y-89363750D01*
X176244250Y-89205000D01*
X175653690Y-89205000D01*
X175420301Y-89301673D01*
X175241673Y-89480302D01*
X175145000Y-89713691D01*
X173482000Y-89713691D01*
X173482000Y-89027000D01*
X181042922Y-89027000D01*
X181077646Y-89061724D01*
X181077646Y-89061724D01*
G37*
X181077646Y-89061724D02*
X181423062Y-89204800D01*
X181796938Y-89204800D01*
X182118000Y-89071812D01*
X182118000Y-90906600D01*
X181725000Y-90906600D01*
X181725000Y-90775750D01*
X181566250Y-90617000D01*
X180467000Y-90617000D01*
X180467000Y-90637000D01*
X180213000Y-90637000D01*
X180213000Y-90617000D01*
X179113750Y-90617000D01*
X178955000Y-90775750D01*
X178955000Y-91266309D01*
X178987677Y-91345199D01*
X178980197Y-91350197D01*
X178952667Y-91391399D01*
X178943000Y-91440000D01*
X178943000Y-93218000D01*
X177927000Y-93218000D01*
X177927000Y-91440000D01*
X177917333Y-91391399D01*
X177889803Y-91350197D01*
X177882323Y-91345199D01*
X177915000Y-91266309D01*
X177915000Y-90775750D01*
X177756250Y-90617000D01*
X176657000Y-90617000D01*
X176657000Y-90637000D01*
X176403000Y-90637000D01*
X176403000Y-90617000D01*
X175303750Y-90617000D01*
X175145000Y-90775750D01*
X175145000Y-90906600D01*
X173482000Y-90906600D01*
X173482000Y-89713691D01*
X175145000Y-89713691D01*
X175145000Y-90204250D01*
X175303750Y-90363000D01*
X176403000Y-90363000D01*
X176403000Y-89363750D01*
X176657000Y-89363750D01*
X176657000Y-90363000D01*
X177756250Y-90363000D01*
X177915000Y-90204250D01*
X177915000Y-89713691D01*
X178955000Y-89713691D01*
X178955000Y-90204250D01*
X179113750Y-90363000D01*
X180213000Y-90363000D01*
X180213000Y-89363750D01*
X180467000Y-89363750D01*
X180467000Y-90363000D01*
X181566250Y-90363000D01*
X181725000Y-90204250D01*
X181725000Y-89713691D01*
X181628327Y-89480302D01*
X181449699Y-89301673D01*
X181216310Y-89205000D01*
X180625750Y-89205000D01*
X180467000Y-89363750D01*
X180213000Y-89363750D01*
X180054250Y-89205000D01*
X179463690Y-89205000D01*
X179230301Y-89301673D01*
X179051673Y-89480302D01*
X178955000Y-89713691D01*
X177915000Y-89713691D01*
X177818327Y-89480302D01*
X177639699Y-89301673D01*
X177406310Y-89205000D01*
X176815750Y-89205000D01*
X176657000Y-89363750D01*
X176403000Y-89363750D01*
X176244250Y-89205000D01*
X175653690Y-89205000D01*
X175420301Y-89301673D01*
X175241673Y-89480302D01*
X175145000Y-89713691D01*
X173482000Y-89713691D01*
X173482000Y-89027000D01*
X181042922Y-89027000D01*
X181077646Y-89061724D01*
G36*
X179235000Y-95803849D02*
X180435000Y-95803849D01*
X180537804Y-95783400D01*
X182753000Y-95783400D01*
X182753000Y-97737394D01*
X182447049Y-98043345D01*
X182414658Y-98056762D01*
X182081762Y-98389658D01*
X182068345Y-98422049D01*
X181557394Y-98933000D01*
X176668400Y-98933000D01*
X176668400Y-98854444D01*
X176511075Y-98474626D01*
X176220374Y-98183925D01*
X175840556Y-98026600D01*
X175429444Y-98026600D01*
X175049626Y-98183925D01*
X174758925Y-98474626D01*
X174601600Y-98854444D01*
X174601600Y-98856994D01*
X173482000Y-97737394D01*
X173482000Y-95783400D01*
X176332196Y-95783400D01*
X176435000Y-95803849D01*
X177182000Y-95803849D01*
X177182000Y-95966151D01*
X176435000Y-95966151D01*
X176226878Y-96007549D01*
X176220217Y-96012000D01*
X175958750Y-96012000D01*
X175800000Y-96170750D01*
X175800000Y-96336309D01*
X175891151Y-96556367D01*
X175891151Y-97160000D01*
X175932549Y-97368122D01*
X176050441Y-97544559D01*
X176226878Y-97662451D01*
X176435000Y-97703849D01*
X177635000Y-97703849D01*
X177843122Y-97662451D01*
X178019559Y-97544559D01*
X178039740Y-97514356D01*
X178207386Y-97481009D01*
X178434234Y-97329434D01*
X178472497Y-97272169D01*
X178691151Y-97053516D01*
X178691151Y-97160000D01*
X178732549Y-97368122D01*
X178850441Y-97544559D01*
X179026878Y-97662451D01*
X179235000Y-97703849D01*
X180435000Y-97703849D01*
X180643122Y-97662451D01*
X180819559Y-97544559D01*
X180937451Y-97368122D01*
X180978849Y-97160000D01*
X180978849Y-96510000D01*
X180937451Y-96301878D01*
X180819559Y-96125441D01*
X180643122Y-96007549D01*
X180435000Y-95966151D01*
X179235000Y-95966151D01*
X179120800Y-95988867D01*
X179120800Y-95781133D01*
X179235000Y-95803849D01*
X179235000Y-95803849D01*
G37*
X179235000Y-95803849D02*
X180435000Y-95803849D01*
X180537804Y-95783400D01*
X182753000Y-95783400D01*
X182753000Y-97737394D01*
X182447049Y-98043345D01*
X182414658Y-98056762D01*
X182081762Y-98389658D01*
X182068345Y-98422049D01*
X181557394Y-98933000D01*
X176668400Y-98933000D01*
X176668400Y-98854444D01*
X176511075Y-98474626D01*
X176220374Y-98183925D01*
X175840556Y-98026600D01*
X175429444Y-98026600D01*
X175049626Y-98183925D01*
X174758925Y-98474626D01*
X174601600Y-98854444D01*
X174601600Y-98856994D01*
X173482000Y-97737394D01*
X173482000Y-95783400D01*
X176332196Y-95783400D01*
X176435000Y-95803849D01*
X177182000Y-95803849D01*
X177182000Y-95966151D01*
X176435000Y-95966151D01*
X176226878Y-96007549D01*
X176220217Y-96012000D01*
X175958750Y-96012000D01*
X175800000Y-96170750D01*
X175800000Y-96336309D01*
X175891151Y-96556367D01*
X175891151Y-97160000D01*
X175932549Y-97368122D01*
X176050441Y-97544559D01*
X176226878Y-97662451D01*
X176435000Y-97703849D01*
X177635000Y-97703849D01*
X177843122Y-97662451D01*
X178019559Y-97544559D01*
X178039740Y-97514356D01*
X178207386Y-97481009D01*
X178434234Y-97329434D01*
X178472497Y-97272169D01*
X178691151Y-97053516D01*
X178691151Y-97160000D01*
X178732549Y-97368122D01*
X178850441Y-97544559D01*
X179026878Y-97662451D01*
X179235000Y-97703849D01*
X180435000Y-97703849D01*
X180643122Y-97662451D01*
X180819559Y-97544559D01*
X180937451Y-97368122D01*
X180978849Y-97160000D01*
X180978849Y-96510000D01*
X180937451Y-96301878D01*
X180819559Y-96125441D01*
X180643122Y-96007549D01*
X180435000Y-95966151D01*
X179235000Y-95966151D01*
X179120800Y-95988867D01*
X179120800Y-95781133D01*
X179235000Y-95803849D01*
G36*
X160407144Y-88945094D02*
X160248600Y-89327853D01*
X160248600Y-89496151D01*
X159520000Y-89496151D01*
X159311878Y-89537549D01*
X159135441Y-89655441D01*
X159017549Y-89831878D01*
X158976151Y-90040000D01*
X158976151Y-91140000D01*
X159016936Y-91345039D01*
X158981673Y-91380302D01*
X158885000Y-91613691D01*
X158885000Y-92004250D01*
X159043750Y-92163000D01*
X159893000Y-92163000D01*
X159893000Y-92143000D01*
X160147000Y-92143000D01*
X160147000Y-92163000D01*
X160996250Y-92163000D01*
X161155000Y-92004250D01*
X161155000Y-91613691D01*
X161058327Y-91380302D01*
X161023064Y-91345039D01*
X161046291Y-91228271D01*
X161127675Y-91212083D01*
X161163000Y-91188480D01*
X161163000Y-94443188D01*
X160841938Y-94310200D01*
X160468062Y-94310200D01*
X160122646Y-94453276D01*
X160087922Y-94488000D01*
X159952078Y-94488000D01*
X159917354Y-94453276D01*
X159571938Y-94310200D01*
X159198062Y-94310200D01*
X158852646Y-94453276D01*
X158817922Y-94488000D01*
X158419800Y-94488000D01*
X158419800Y-94428062D01*
X158276724Y-94082646D01*
X158012354Y-93818276D01*
X157666938Y-93675200D01*
X157293062Y-93675200D01*
X157103311Y-93753797D01*
X157143849Y-93550000D01*
X157143849Y-93195401D01*
X157273000Y-93066250D01*
X157273000Y-92117000D01*
X157527000Y-92117000D01*
X157527000Y-93066250D01*
X157685750Y-93225000D01*
X158026309Y-93225000D01*
X158259698Y-93128327D01*
X158438327Y-92949699D01*
X158535000Y-92716310D01*
X158535000Y-92575750D01*
X158885000Y-92575750D01*
X158885000Y-92966309D01*
X158981673Y-93199698D01*
X159160301Y-93378327D01*
X159393690Y-93475000D01*
X159734250Y-93475000D01*
X159893000Y-93316250D01*
X159893000Y-92417000D01*
X160147000Y-92417000D01*
X160147000Y-93316250D01*
X160305750Y-93475000D01*
X160646310Y-93475000D01*
X160879699Y-93378327D01*
X161058327Y-93199698D01*
X161155000Y-92966309D01*
X161155000Y-92575750D01*
X160996250Y-92417000D01*
X160147000Y-92417000D01*
X159893000Y-92417000D01*
X159043750Y-92417000D01*
X158885000Y-92575750D01*
X158535000Y-92575750D01*
X158535000Y-92275750D01*
X158376250Y-92117000D01*
X157527000Y-92117000D01*
X157273000Y-92117000D01*
X157253000Y-92117000D01*
X157253000Y-91863000D01*
X157273000Y-91863000D01*
X157273000Y-90913750D01*
X157527000Y-90913750D01*
X157527000Y-91863000D01*
X158376250Y-91863000D01*
X158535000Y-91704250D01*
X158535000Y-91263690D01*
X158438327Y-91030301D01*
X158259698Y-90851673D01*
X158026309Y-90755000D01*
X157685750Y-90755000D01*
X157527000Y-90913750D01*
X157273000Y-90913750D01*
X157114250Y-90755000D01*
X156972000Y-90755000D01*
X156972000Y-90635000D01*
X157039250Y-90635000D01*
X157198000Y-90476250D01*
X157198000Y-89527000D01*
X157452000Y-89527000D01*
X157452000Y-90476250D01*
X157610750Y-90635000D01*
X158026309Y-90635000D01*
X158259698Y-90538327D01*
X158438327Y-90359699D01*
X158535000Y-90126310D01*
X158535000Y-89685750D01*
X158376250Y-89527000D01*
X157452000Y-89527000D01*
X157198000Y-89527000D01*
X157178000Y-89527000D01*
X157178000Y-89273000D01*
X157198000Y-89273000D01*
X157198000Y-89253000D01*
X157452000Y-89253000D01*
X157452000Y-89273000D01*
X158376250Y-89273000D01*
X158535000Y-89114250D01*
X158535000Y-88873400D01*
X160478838Y-88873400D01*
X160407144Y-88945094D01*
X160407144Y-88945094D01*
G37*
X160407144Y-88945094D02*
X160248600Y-89327853D01*
X160248600Y-89496151D01*
X159520000Y-89496151D01*
X159311878Y-89537549D01*
X159135441Y-89655441D01*
X159017549Y-89831878D01*
X158976151Y-90040000D01*
X158976151Y-91140000D01*
X159016936Y-91345039D01*
X158981673Y-91380302D01*
X158885000Y-91613691D01*
X158885000Y-92004250D01*
X159043750Y-92163000D01*
X159893000Y-92163000D01*
X159893000Y-92143000D01*
X160147000Y-92143000D01*
X160147000Y-92163000D01*
X160996250Y-92163000D01*
X161155000Y-92004250D01*
X161155000Y-91613691D01*
X161058327Y-91380302D01*
X161023064Y-91345039D01*
X161046291Y-91228271D01*
X161127675Y-91212083D01*
X161163000Y-91188480D01*
X161163000Y-94443188D01*
X160841938Y-94310200D01*
X160468062Y-94310200D01*
X160122646Y-94453276D01*
X160087922Y-94488000D01*
X159952078Y-94488000D01*
X159917354Y-94453276D01*
X159571938Y-94310200D01*
X159198062Y-94310200D01*
X158852646Y-94453276D01*
X158817922Y-94488000D01*
X158419800Y-94488000D01*
X158419800Y-94428062D01*
X158276724Y-94082646D01*
X158012354Y-93818276D01*
X157666938Y-93675200D01*
X157293062Y-93675200D01*
X157103311Y-93753797D01*
X157143849Y-93550000D01*
X157143849Y-93195401D01*
X157273000Y-93066250D01*
X157273000Y-92117000D01*
X157527000Y-92117000D01*
X157527000Y-93066250D01*
X157685750Y-93225000D01*
X158026309Y-93225000D01*
X158259698Y-93128327D01*
X158438327Y-92949699D01*
X158535000Y-92716310D01*
X158535000Y-92575750D01*
X158885000Y-92575750D01*
X158885000Y-92966309D01*
X158981673Y-93199698D01*
X159160301Y-93378327D01*
X159393690Y-93475000D01*
X159734250Y-93475000D01*
X159893000Y-93316250D01*
X159893000Y-92417000D01*
X160147000Y-92417000D01*
X160147000Y-93316250D01*
X160305750Y-93475000D01*
X160646310Y-93475000D01*
X160879699Y-93378327D01*
X161058327Y-93199698D01*
X161155000Y-92966309D01*
X161155000Y-92575750D01*
X160996250Y-92417000D01*
X160147000Y-92417000D01*
X159893000Y-92417000D01*
X159043750Y-92417000D01*
X158885000Y-92575750D01*
X158535000Y-92575750D01*
X158535000Y-92275750D01*
X158376250Y-92117000D01*
X157527000Y-92117000D01*
X157273000Y-92117000D01*
X157253000Y-92117000D01*
X157253000Y-91863000D01*
X157273000Y-91863000D01*
X157273000Y-90913750D01*
X157527000Y-90913750D01*
X157527000Y-91863000D01*
X158376250Y-91863000D01*
X158535000Y-91704250D01*
X158535000Y-91263690D01*
X158438327Y-91030301D01*
X158259698Y-90851673D01*
X158026309Y-90755000D01*
X157685750Y-90755000D01*
X157527000Y-90913750D01*
X157273000Y-90913750D01*
X157114250Y-90755000D01*
X156972000Y-90755000D01*
X156972000Y-90635000D01*
X157039250Y-90635000D01*
X157198000Y-90476250D01*
X157198000Y-89527000D01*
X157452000Y-89527000D01*
X157452000Y-90476250D01*
X157610750Y-90635000D01*
X158026309Y-90635000D01*
X158259698Y-90538327D01*
X158438327Y-90359699D01*
X158535000Y-90126310D01*
X158535000Y-89685750D01*
X158376250Y-89527000D01*
X157452000Y-89527000D01*
X157198000Y-89527000D01*
X157178000Y-89527000D01*
X157178000Y-89273000D01*
X157198000Y-89273000D01*
X157198000Y-89253000D01*
X157452000Y-89253000D01*
X157452000Y-89273000D01*
X158376250Y-89273000D01*
X158535000Y-89114250D01*
X158535000Y-88873400D01*
X160478838Y-88873400D01*
X160407144Y-88945094D01*
G36*
X138938000Y-95937606D02*
X138938000Y-105992394D01*
X138377394Y-106553000D01*
X129891850Y-106553000D01*
X129883850Y-106545000D01*
X129771790Y-106545000D01*
X129768122Y-106542549D01*
X129560000Y-106501151D01*
X128713000Y-106501151D01*
X128713000Y-106388849D01*
X129560000Y-106388849D01*
X129768122Y-106347451D01*
X129771790Y-106345000D01*
X129883850Y-106345000D01*
X129991800Y-106237050D01*
X129991800Y-106172000D01*
X130175000Y-106172000D01*
X130223601Y-106162333D01*
X130264803Y-106134803D01*
X130292333Y-106093601D01*
X130302000Y-106045000D01*
X130302000Y-104374950D01*
X130883200Y-104374950D01*
X130883200Y-104725891D01*
X130948938Y-104884595D01*
X131070405Y-105006063D01*
X131229110Y-105071800D01*
X131630050Y-105071800D01*
X131738000Y-104963850D01*
X131738000Y-104267000D01*
X130991150Y-104267000D01*
X130883200Y-104374950D01*
X130302000Y-104374950D01*
X130302000Y-103554109D01*
X130883200Y-103554109D01*
X130883200Y-103905050D01*
X130991150Y-104013000D01*
X131738000Y-104013000D01*
X131738000Y-103316150D01*
X131630050Y-103208200D01*
X131229110Y-103208200D01*
X131070405Y-103273937D01*
X130948938Y-103395405D01*
X130883200Y-103554109D01*
X130302000Y-103554109D01*
X130302000Y-102280000D01*
X131847953Y-102280000D01*
X132047235Y-102413157D01*
X132232459Y-102450000D01*
X132232464Y-102450000D01*
X132294999Y-102462439D01*
X132324371Y-102456597D01*
X132347549Y-102573122D01*
X132465441Y-102749559D01*
X132641878Y-102867451D01*
X132704533Y-102879914D01*
X132715000Y-102932537D01*
X132715000Y-102932540D01*
X132751843Y-103117764D01*
X132777970Y-103156865D01*
X132630441Y-103255441D01*
X132627081Y-103260469D01*
X132500890Y-103208200D01*
X132099950Y-103208200D01*
X131992000Y-103316150D01*
X131992000Y-104013000D01*
X132012000Y-104013000D01*
X132012000Y-104267000D01*
X131992000Y-104267000D01*
X131992000Y-104963850D01*
X132099950Y-105071800D01*
X132500890Y-105071800D01*
X132627081Y-105019531D01*
X132630441Y-105024559D01*
X132806878Y-105142451D01*
X133015000Y-105183849D01*
X134115000Y-105183849D01*
X134323122Y-105142451D01*
X134499559Y-105024559D01*
X134617451Y-104848122D01*
X134658849Y-104640000D01*
X134658849Y-103640000D01*
X134617451Y-103431878D01*
X134499559Y-103255441D01*
X134323122Y-103137549D01*
X134206597Y-103114371D01*
X134212439Y-103085000D01*
X134200000Y-103022463D01*
X134200000Y-103022459D01*
X134163157Y-102837235D01*
X134144695Y-102809605D01*
X134234559Y-102749559D01*
X134235350Y-102748375D01*
X135606766Y-104119791D01*
X135642191Y-104172809D01*
X135695208Y-104208234D01*
X135695210Y-104208236D01*
X135801252Y-104279091D01*
X135852235Y-104313157D01*
X136016151Y-104345762D01*
X136016151Y-105465000D01*
X136057549Y-105673122D01*
X136175441Y-105849559D01*
X136351878Y-105967451D01*
X136560000Y-106008849D01*
X137760000Y-106008849D01*
X137968122Y-105967451D01*
X138144559Y-105849559D01*
X138262451Y-105673122D01*
X138303849Y-105465000D01*
X138303849Y-101965000D01*
X138262451Y-101756878D01*
X138144559Y-101580441D01*
X137968122Y-101462549D01*
X137760000Y-101421151D01*
X136560000Y-101421151D01*
X136351878Y-101462549D01*
X136175441Y-101580441D01*
X136057549Y-101756878D01*
X136016151Y-101965000D01*
X136016151Y-102733126D01*
X134693238Y-101410214D01*
X134657809Y-101357191D01*
X134447765Y-101216843D01*
X134381654Y-101203693D01*
X134352451Y-101056878D01*
X134291060Y-100965000D01*
X134352451Y-100873122D01*
X134381654Y-100726307D01*
X134447765Y-100713157D01*
X134657809Y-100572809D01*
X134693238Y-100519786D01*
X136016151Y-99196874D01*
X136016151Y-99965000D01*
X136057549Y-100173122D01*
X136175441Y-100349559D01*
X136351878Y-100467451D01*
X136560000Y-100508849D01*
X137760000Y-100508849D01*
X137968122Y-100467451D01*
X138144559Y-100349559D01*
X138262451Y-100173122D01*
X138303849Y-99965000D01*
X138303849Y-96465000D01*
X138262451Y-96256878D01*
X138144559Y-96080441D01*
X137968122Y-95962549D01*
X137760000Y-95921151D01*
X136560000Y-95921151D01*
X136351878Y-95962549D01*
X136175441Y-96080441D01*
X136057549Y-96256878D01*
X136016151Y-96465000D01*
X136016151Y-97584238D01*
X135852235Y-97616843D01*
X135695210Y-97721764D01*
X135695208Y-97721766D01*
X135642191Y-97757191D01*
X135606766Y-97810209D01*
X134235350Y-99181625D01*
X134234559Y-99180441D01*
X134144695Y-99120395D01*
X134163157Y-99092765D01*
X134200000Y-98907541D01*
X134200000Y-98907537D01*
X134212439Y-98845000D01*
X134206597Y-98815629D01*
X134323122Y-98792451D01*
X134499559Y-98674559D01*
X134617451Y-98498122D01*
X134658849Y-98290000D01*
X134658849Y-97290000D01*
X134617451Y-97081878D01*
X134499559Y-96905441D01*
X134323122Y-96787549D01*
X134115000Y-96746151D01*
X133015000Y-96746151D01*
X132806878Y-96787549D01*
X132630441Y-96905441D01*
X132627081Y-96910469D01*
X132500890Y-96858200D01*
X132099950Y-96858200D01*
X131992000Y-96966150D01*
X131992000Y-97663000D01*
X132012000Y-97663000D01*
X132012000Y-97917000D01*
X131992000Y-97917000D01*
X131992000Y-98613850D01*
X132099950Y-98721800D01*
X132500890Y-98721800D01*
X132627081Y-98669531D01*
X132630441Y-98674559D01*
X132777970Y-98773135D01*
X132751843Y-98812236D01*
X132704533Y-99050086D01*
X132641878Y-99062549D01*
X132465441Y-99180441D01*
X132347549Y-99356878D01*
X132324371Y-99473403D01*
X132295000Y-99467561D01*
X132232463Y-99480000D01*
X132232459Y-99480000D01*
X132047235Y-99516843D01*
X131837191Y-99657191D01*
X131811928Y-99695000D01*
X130302000Y-99695000D01*
X130302000Y-98024950D01*
X130883200Y-98024950D01*
X130883200Y-98375891D01*
X130948938Y-98534595D01*
X131070405Y-98656063D01*
X131229110Y-98721800D01*
X131630050Y-98721800D01*
X131738000Y-98613850D01*
X131738000Y-97917000D01*
X130991150Y-97917000D01*
X130883200Y-98024950D01*
X130302000Y-98024950D01*
X130302000Y-97204109D01*
X130883200Y-97204109D01*
X130883200Y-97555050D01*
X130991150Y-97663000D01*
X131738000Y-97663000D01*
X131738000Y-96966150D01*
X131630050Y-96858200D01*
X131229110Y-96858200D01*
X131070405Y-96923937D01*
X130948938Y-97045405D01*
X130883200Y-97204109D01*
X130302000Y-97204109D01*
X130302000Y-96647000D01*
X134620000Y-96647000D01*
X134668601Y-96637333D01*
X134709803Y-96609803D01*
X135942606Y-95377000D01*
X138377394Y-95377000D01*
X138938000Y-95937606D01*
X138938000Y-95937606D01*
G37*
X138938000Y-95937606D02*
X138938000Y-105992394D01*
X138377394Y-106553000D01*
X129891850Y-106553000D01*
X129883850Y-106545000D01*
X129771790Y-106545000D01*
X129768122Y-106542549D01*
X129560000Y-106501151D01*
X128713000Y-106501151D01*
X128713000Y-106388849D01*
X129560000Y-106388849D01*
X129768122Y-106347451D01*
X129771790Y-106345000D01*
X129883850Y-106345000D01*
X129991800Y-106237050D01*
X129991800Y-106172000D01*
X130175000Y-106172000D01*
X130223601Y-106162333D01*
X130264803Y-106134803D01*
X130292333Y-106093601D01*
X130302000Y-106045000D01*
X130302000Y-104374950D01*
X130883200Y-104374950D01*
X130883200Y-104725891D01*
X130948938Y-104884595D01*
X131070405Y-105006063D01*
X131229110Y-105071800D01*
X131630050Y-105071800D01*
X131738000Y-104963850D01*
X131738000Y-104267000D01*
X130991150Y-104267000D01*
X130883200Y-104374950D01*
X130302000Y-104374950D01*
X130302000Y-103554109D01*
X130883200Y-103554109D01*
X130883200Y-103905050D01*
X130991150Y-104013000D01*
X131738000Y-104013000D01*
X131738000Y-103316150D01*
X131630050Y-103208200D01*
X131229110Y-103208200D01*
X131070405Y-103273937D01*
X130948938Y-103395405D01*
X130883200Y-103554109D01*
X130302000Y-103554109D01*
X130302000Y-102280000D01*
X131847953Y-102280000D01*
X132047235Y-102413157D01*
X132232459Y-102450000D01*
X132232464Y-102450000D01*
X132294999Y-102462439D01*
X132324371Y-102456597D01*
X132347549Y-102573122D01*
X132465441Y-102749559D01*
X132641878Y-102867451D01*
X132704533Y-102879914D01*
X132715000Y-102932537D01*
X132715000Y-102932540D01*
X132751843Y-103117764D01*
X132777970Y-103156865D01*
X132630441Y-103255441D01*
X132627081Y-103260469D01*
X132500890Y-103208200D01*
X132099950Y-103208200D01*
X131992000Y-103316150D01*
X131992000Y-104013000D01*
X132012000Y-104013000D01*
X132012000Y-104267000D01*
X131992000Y-104267000D01*
X131992000Y-104963850D01*
X132099950Y-105071800D01*
X132500890Y-105071800D01*
X132627081Y-105019531D01*
X132630441Y-105024559D01*
X132806878Y-105142451D01*
X133015000Y-105183849D01*
X134115000Y-105183849D01*
X134323122Y-105142451D01*
X134499559Y-105024559D01*
X134617451Y-104848122D01*
X134658849Y-104640000D01*
X134658849Y-103640000D01*
X134617451Y-103431878D01*
X134499559Y-103255441D01*
X134323122Y-103137549D01*
X134206597Y-103114371D01*
X134212439Y-103085000D01*
X134200000Y-103022463D01*
X134200000Y-103022459D01*
X134163157Y-102837235D01*
X134144695Y-102809605D01*
X134234559Y-102749559D01*
X134235350Y-102748375D01*
X135606766Y-104119791D01*
X135642191Y-104172809D01*
X135695208Y-104208234D01*
X135695210Y-104208236D01*
X135801252Y-104279091D01*
X135852235Y-104313157D01*
X136016151Y-104345762D01*
X136016151Y-105465000D01*
X136057549Y-105673122D01*
X136175441Y-105849559D01*
X136351878Y-105967451D01*
X136560000Y-106008849D01*
X137760000Y-106008849D01*
X137968122Y-105967451D01*
X138144559Y-105849559D01*
X138262451Y-105673122D01*
X138303849Y-105465000D01*
X138303849Y-101965000D01*
X138262451Y-101756878D01*
X138144559Y-101580441D01*
X137968122Y-101462549D01*
X137760000Y-101421151D01*
X136560000Y-101421151D01*
X136351878Y-101462549D01*
X136175441Y-101580441D01*
X136057549Y-101756878D01*
X136016151Y-101965000D01*
X136016151Y-102733126D01*
X134693238Y-101410214D01*
X134657809Y-101357191D01*
X134447765Y-101216843D01*
X134381654Y-101203693D01*
X134352451Y-101056878D01*
X134291060Y-100965000D01*
X134352451Y-100873122D01*
X134381654Y-100726307D01*
X134447765Y-100713157D01*
X134657809Y-100572809D01*
X134693238Y-100519786D01*
X136016151Y-99196874D01*
X136016151Y-99965000D01*
X136057549Y-100173122D01*
X136175441Y-100349559D01*
X136351878Y-100467451D01*
X136560000Y-100508849D01*
X137760000Y-100508849D01*
X137968122Y-100467451D01*
X138144559Y-100349559D01*
X138262451Y-100173122D01*
X138303849Y-99965000D01*
X138303849Y-96465000D01*
X138262451Y-96256878D01*
X138144559Y-96080441D01*
X137968122Y-95962549D01*
X137760000Y-95921151D01*
X136560000Y-95921151D01*
X136351878Y-95962549D01*
X136175441Y-96080441D01*
X136057549Y-96256878D01*
X136016151Y-96465000D01*
X136016151Y-97584238D01*
X135852235Y-97616843D01*
X135695210Y-97721764D01*
X135695208Y-97721766D01*
X135642191Y-97757191D01*
X135606766Y-97810209D01*
X134235350Y-99181625D01*
X134234559Y-99180441D01*
X134144695Y-99120395D01*
X134163157Y-99092765D01*
X134200000Y-98907541D01*
X134200000Y-98907537D01*
X134212439Y-98845000D01*
X134206597Y-98815629D01*
X134323122Y-98792451D01*
X134499559Y-98674559D01*
X134617451Y-98498122D01*
X134658849Y-98290000D01*
X134658849Y-97290000D01*
X134617451Y-97081878D01*
X134499559Y-96905441D01*
X134323122Y-96787549D01*
X134115000Y-96746151D01*
X133015000Y-96746151D01*
X132806878Y-96787549D01*
X132630441Y-96905441D01*
X132627081Y-96910469D01*
X132500890Y-96858200D01*
X132099950Y-96858200D01*
X131992000Y-96966150D01*
X131992000Y-97663000D01*
X132012000Y-97663000D01*
X132012000Y-97917000D01*
X131992000Y-97917000D01*
X131992000Y-98613850D01*
X132099950Y-98721800D01*
X132500890Y-98721800D01*
X132627081Y-98669531D01*
X132630441Y-98674559D01*
X132777970Y-98773135D01*
X132751843Y-98812236D01*
X132704533Y-99050086D01*
X132641878Y-99062549D01*
X132465441Y-99180441D01*
X132347549Y-99356878D01*
X132324371Y-99473403D01*
X132295000Y-99467561D01*
X132232463Y-99480000D01*
X132232459Y-99480000D01*
X132047235Y-99516843D01*
X131837191Y-99657191D01*
X131811928Y-99695000D01*
X130302000Y-99695000D01*
X130302000Y-98024950D01*
X130883200Y-98024950D01*
X130883200Y-98375891D01*
X130948938Y-98534595D01*
X131070405Y-98656063D01*
X131229110Y-98721800D01*
X131630050Y-98721800D01*
X131738000Y-98613850D01*
X131738000Y-97917000D01*
X130991150Y-97917000D01*
X130883200Y-98024950D01*
X130302000Y-98024950D01*
X130302000Y-97204109D01*
X130883200Y-97204109D01*
X130883200Y-97555050D01*
X130991150Y-97663000D01*
X131738000Y-97663000D01*
X131738000Y-96966150D01*
X131630050Y-96858200D01*
X131229110Y-96858200D01*
X131070405Y-96923937D01*
X130948938Y-97045405D01*
X130883200Y-97204109D01*
X130302000Y-97204109D01*
X130302000Y-96647000D01*
X134620000Y-96647000D01*
X134668601Y-96637333D01*
X134709803Y-96609803D01*
X135942606Y-95377000D01*
X138377394Y-95377000D01*
X138938000Y-95937606D01*
G04 #@! TO.N,+5V*
G36*
X116078000Y-97842606D02*
X116078000Y-100912394D01*
X114882394Y-102108000D01*
X113548222Y-102108000D01*
X113642022Y-101936232D01*
X113030000Y-101324210D01*
X113015858Y-101338353D01*
X112656648Y-100979143D01*
X112670790Y-100965000D01*
X113389210Y-100965000D01*
X114001232Y-101577022D01*
X114174372Y-101482473D01*
X114285290Y-101005151D01*
X114205102Y-100521715D01*
X114174372Y-100447527D01*
X114001232Y-100352978D01*
X113389210Y-100965000D01*
X112670790Y-100965000D01*
X112656648Y-100950858D01*
X113015858Y-100591648D01*
X113030000Y-100605790D01*
X113642022Y-99993768D01*
X113547473Y-99820628D01*
X113070151Y-99709710D01*
X112586715Y-99789898D01*
X112522000Y-99816704D01*
X112522000Y-99571573D01*
X112989849Y-99680290D01*
X113473285Y-99600102D01*
X113547473Y-99569372D01*
X113642022Y-99396232D01*
X113030000Y-98784210D01*
X113015858Y-98798353D01*
X112656648Y-98439143D01*
X112670790Y-98425000D01*
X113389210Y-98425000D01*
X114001232Y-99037022D01*
X114174372Y-98942473D01*
X114285290Y-98465151D01*
X114205102Y-97981715D01*
X114174372Y-97907527D01*
X114001232Y-97812978D01*
X113389210Y-98425000D01*
X112670790Y-98425000D01*
X112656648Y-98410858D01*
X113015858Y-98051648D01*
X113030000Y-98065790D01*
X113642022Y-97453768D01*
X113548222Y-97282000D01*
X115517394Y-97282000D01*
X116078000Y-97842606D01*
X116078000Y-97842606D01*
G37*
X116078000Y-97842606D02*
X116078000Y-100912394D01*
X114882394Y-102108000D01*
X113548222Y-102108000D01*
X113642022Y-101936232D01*
X113030000Y-101324210D01*
X113015858Y-101338353D01*
X112656648Y-100979143D01*
X112670790Y-100965000D01*
X113389210Y-100965000D01*
X114001232Y-101577022D01*
X114174372Y-101482473D01*
X114285290Y-101005151D01*
X114205102Y-100521715D01*
X114174372Y-100447527D01*
X114001232Y-100352978D01*
X113389210Y-100965000D01*
X112670790Y-100965000D01*
X112656648Y-100950858D01*
X113015858Y-100591648D01*
X113030000Y-100605790D01*
X113642022Y-99993768D01*
X113547473Y-99820628D01*
X113070151Y-99709710D01*
X112586715Y-99789898D01*
X112522000Y-99816704D01*
X112522000Y-99571573D01*
X112989849Y-99680290D01*
X113473285Y-99600102D01*
X113547473Y-99569372D01*
X113642022Y-99396232D01*
X113030000Y-98784210D01*
X113015858Y-98798353D01*
X112656648Y-98439143D01*
X112670790Y-98425000D01*
X113389210Y-98425000D01*
X114001232Y-99037022D01*
X114174372Y-98942473D01*
X114285290Y-98465151D01*
X114205102Y-97981715D01*
X114174372Y-97907527D01*
X114001232Y-97812978D01*
X113389210Y-98425000D01*
X112670790Y-98425000D01*
X112656648Y-98410858D01*
X113015858Y-98051648D01*
X113030000Y-98065790D01*
X113642022Y-97453768D01*
X113548222Y-97282000D01*
X115517394Y-97282000D01*
X116078000Y-97842606D01*
G04 #@! TD*
D49*
X205740000Y-93345000D03*
X180340000Y-114300000D03*
X180340000Y-117475000D03*
X184785000Y-95885000D03*
X198120000Y-113030000D03*
X191770000Y-111125000D03*
X116205000Y-92075000D03*
X116205000Y-93980000D03*
X154305000Y-94615000D03*
X146685000Y-95885000D03*
X201295000Y-107950000D03*
X163830000Y-117475000D03*
X144145000Y-122555000D03*
X145415000Y-122555000D03*
X154305000Y-108585000D03*
X154305000Y-103505000D03*
X191770000Y-122555000D03*
X197485000Y-115570000D03*
X144145000Y-91440000D03*
X148590000Y-116205000D03*
X174625000Y-97790000D03*
X181610000Y-97790000D03*
X196215000Y-113030000D03*
X178435000Y-90170000D03*
X171450000Y-89535000D03*
X178435000Y-91440000D03*
X178435000Y-92710000D03*
X174625000Y-96520000D03*
X181610000Y-96520000D03*
X163195000Y-93980000D03*
X160020000Y-93980000D03*
X148590000Y-121285000D03*
X135890000Y-107950000D03*
X174625000Y-111760000D03*
X130810000Y-99060000D03*
X130810000Y-102870000D03*
X130810000Y-106045000D03*
X179070000Y-111760000D03*
X179070000Y-101600000D03*
X124460000Y-122555000D03*
X121285000Y-90170000D03*
X121285000Y-92075000D03*
X121285000Y-93980000D03*
X116205000Y-90170000D03*
X131445000Y-110490000D03*
X127635000Y-98425000D03*
X187325000Y-109855000D03*
X155575000Y-94615000D03*
X163830000Y-118745000D03*
X161290000Y-116840000D03*
X160020000Y-111125000D03*
X159385000Y-99060000D03*
X173990000Y-93345000D03*
X173990000Y-94615000D03*
X174625000Y-117475000D03*
X163195000Y-111125000D03*
X147320000Y-113665000D03*
X170180000Y-107315000D03*
X173990000Y-92075000D03*
X149860000Y-113665000D03*
X154305000Y-99695000D03*
X138430000Y-120650000D03*
X154305000Y-113030000D03*
X161290000Y-89535000D03*
X168275000Y-92710000D03*
X148590000Y-119380000D03*
X126365000Y-115570000D03*
X128270000Y-120015000D03*
X128270000Y-121285000D03*
X135890000Y-112395000D03*
X135890000Y-114300000D03*
X114935000Y-99695000D03*
X114935000Y-98425000D03*
X114935000Y-100965000D03*
X122555000Y-99695000D03*
X150495000Y-99060000D03*
X161290000Y-101600000D03*
X184785000Y-120015000D03*
X196215000Y-118745000D03*
X176530000Y-120015000D03*
X149860000Y-95250000D03*
X162560000Y-101600000D03*
X169545000Y-109220000D03*
X163830000Y-120015000D03*
X112395000Y-90170000D03*
X112395000Y-92075000D03*
X109855000Y-90170000D03*
X109855000Y-92075000D03*
X123825000Y-108585000D03*
X127584200Y-104736900D03*
X131127500Y-95567500D03*
X127584200Y-105752900D03*
X129857500Y-95567500D03*
X123564156Y-92696202D03*
X129540000Y-90805000D03*
X123564156Y-93966202D03*
X131445000Y-90805000D03*
X140335000Y-96520000D03*
X170815000Y-94615000D03*
X162560000Y-92710000D03*
X166370000Y-99060000D03*
X195580000Y-104140000D03*
X182245000Y-94615000D03*
X182245000Y-92075000D03*
X182245000Y-93345000D03*
X196850000Y-120015000D03*
X194310000Y-93345000D03*
X189865000Y-104140000D03*
X181610000Y-88265000D03*
X167640000Y-91440000D03*
X161925000Y-109220000D03*
X189865000Y-116840000D03*
X204470000Y-108585000D03*
X193675000Y-104140000D03*
X189230000Y-114935000D03*
X188595000Y-112395000D03*
X194945000Y-114300000D03*
X196215000Y-116840000D03*
X191770000Y-95250000D03*
X191135000Y-116205000D03*
X192405000Y-120015000D03*
X187325000Y-111125000D03*
X186055000Y-120015000D03*
X193040000Y-113665000D03*
X192405000Y-118745000D03*
X170465000Y-110775000D03*
X179705000Y-118745000D03*
X190500000Y-96520000D03*
X173990000Y-100965000D03*
X148590000Y-99060000D03*
X151765000Y-99060000D03*
X153035000Y-94615000D03*
X146685000Y-98425000D03*
X153035000Y-108585000D03*
X159385000Y-100330000D03*
X158750000Y-107950000D03*
X146050000Y-107315000D03*
X151765000Y-94615000D03*
X147320000Y-93980000D03*
X161925000Y-98425000D03*
X165100000Y-103505000D03*
X165100000Y-105410000D03*
X163195000Y-109855000D03*
X166370000Y-85725000D03*
X151765000Y-109855000D03*
X147320000Y-116205000D03*
X166370000Y-104775000D03*
X167005000Y-86995000D03*
X148590000Y-111125000D03*
X146050000Y-116205000D03*
X164465000Y-90805000D03*
X167640000Y-103505000D03*
X151765000Y-101600000D03*
X161290000Y-104140000D03*
X149225000Y-105410000D03*
X160655000Y-95250000D03*
X166370000Y-114935000D03*
X148590000Y-101600000D03*
X174625000Y-114300000D03*
X161290000Y-102870000D03*
X165735000Y-111125000D03*
X160020000Y-118110000D03*
X157480000Y-94615000D03*
X153035000Y-116205000D03*
X158750000Y-115570000D03*
X157480000Y-112395000D03*
X158115000Y-104140000D03*
X159385000Y-95250000D03*
X158115000Y-98425000D03*
X144780000Y-90170000D03*
X167640000Y-93980000D03*
X162560000Y-90805000D03*
X170815000Y-103505000D03*
X174625000Y-103505000D03*
X174625000Y-104775000D03*
X170815000Y-106045000D03*
X170180000Y-104775000D03*
X200025000Y-104140000D03*
X192405000Y-102870000D03*
X198755000Y-102870000D03*
X198755000Y-104140000D03*
X205105000Y-103505000D03*
X121920000Y-105410000D03*
X118110000Y-106680000D03*
X123825000Y-107315000D03*
X128905000Y-118110000D03*
X116840000Y-107315000D03*
X116840000Y-109855000D03*
X117475000Y-115570000D03*
X135890000Y-93980000D03*
X126365000Y-97155000D03*
X125095000Y-104775000D03*
X125095000Y-107315000D03*
X133985000Y-109855000D03*
X135890000Y-110490000D03*
X125095000Y-106045000D03*
X195097400Y-99898200D03*
X125805000Y-113320000D03*
X119305000Y-113320000D03*
X119305000Y-117820000D03*
X125805000Y-117820000D03*
X202565000Y-111125000D03*
X205105000Y-111125000D03*
X201930000Y-116840000D03*
X201930000Y-114554000D03*
X199950266Y-115697000D03*
X199950266Y-117983000D03*
X201930000Y-119126000D03*
X203909734Y-117983000D03*
X203909734Y-115697000D03*
X139700000Y-90805000D03*
X139700000Y-88519000D03*
X137720266Y-89662000D03*
X137720266Y-91948000D03*
X139700000Y-93091000D03*
X141679734Y-91948000D03*
X141679734Y-89662000D03*
X113030000Y-116840000D03*
X113030000Y-114554000D03*
X111050266Y-115697000D03*
X111050266Y-117983000D03*
X113030000Y-119126000D03*
X115009734Y-117983000D03*
X115009734Y-115697000D03*
X116165000Y-86550000D03*
X112165000Y-86550000D03*
X110490000Y-98425000D03*
X113030000Y-98425000D03*
X110490000Y-100965000D03*
X113030000Y-100965000D03*
X110490000Y-103505000D03*
X113030000Y-103505000D03*
X166370000Y-116840000D03*
X166370000Y-119380000D03*
X168910000Y-116840000D03*
X168910000Y-119380000D03*
X171450000Y-116840000D03*
X171450000Y-119380000D03*
X180340000Y-86995000D03*
X177800000Y-86995000D03*
X175260000Y-86995000D03*
X172720000Y-86995000D03*
X114935000Y-109855000D03*
X114935000Y-107315000D03*
X112395000Y-109855000D03*
X112395000Y-107315000D03*
X109855000Y-109855000D03*
X109855000Y-107315000D03*
X141605000Y-98425000D03*
X144145000Y-98425000D03*
X141605000Y-100965000D03*
X144145000Y-100965000D03*
X141605000Y-103505000D03*
X144145000Y-103505000D03*
X141605000Y-106045000D03*
X144145000Y-106045000D03*
X141605000Y-108585000D03*
X144145000Y-108585000D03*
X141605000Y-111125000D03*
X144145000Y-111125000D03*
X141605000Y-113665000D03*
X144145000Y-113665000D03*
X141605000Y-116205000D03*
X144145000Y-116205000D03*
X137795000Y-115570000D03*
X137795000Y-113030000D03*
X137795000Y-110490000D03*
X137795000Y-107950000D03*
X183085000Y-99060000D03*
X175635000Y-99060000D03*
M02*
