G04 #@! TF.GenerationSoftware,KiCad,Pcbnew,5.0.0-fee4fd1~65~ubuntu17.10.1*
G04 #@! TF.CreationDate,2018-09-23T03:35:41-04:00*
G04 #@! TF.ProjectId,motherboard,6D6F74686572626F6172642E6B696361,rev?*
G04 #@! TF.SameCoordinates,Original*
G04 #@! TF.FileFunction,Legend,Bot*
G04 #@! TF.FilePolarity,Positive*
%FSLAX46Y46*%
G04 Gerber Fmt 4.6, Leading zero omitted, Abs format (unit mm)*
G04 Created by KiCad (PCBNEW 5.0.0-fee4fd1~65~ubuntu17.10.1) date Sun Sep 23 03:35:41 2018*
%MOMM*%
%LPD*%
G01*
G04 APERTURE LIST*
%ADD10C,0.250000*%
%ADD11C,0.300000*%
%ADD12C,0.400000*%
%ADD13C,0.180000*%
G04 APERTURE END LIST*
D10*
X132802380Y-92729595D02*
X133611904Y-92729595D01*
X133707142Y-92777214D01*
X133754761Y-92824833D01*
X133802380Y-92920071D01*
X133802380Y-93110547D01*
X133754761Y-93205785D01*
X133707142Y-93253404D01*
X133611904Y-93301023D01*
X132802380Y-93301023D01*
X132802380Y-93634357D02*
X133802380Y-93967690D01*
X132802380Y-94301023D01*
X133707142Y-95205785D02*
X133754761Y-95158166D01*
X133802380Y-95015309D01*
X133802380Y-94920071D01*
X133754761Y-94777214D01*
X133659523Y-94681976D01*
X133564285Y-94634357D01*
X133373809Y-94586738D01*
X133230952Y-94586738D01*
X133040476Y-94634357D01*
X132945238Y-94681976D01*
X132850000Y-94777214D01*
X132802380Y-94920071D01*
X132802380Y-95015309D01*
X132850000Y-95158166D01*
X132897619Y-95205785D01*
X133707142Y-96205785D02*
X133754761Y-96158166D01*
X133802380Y-96015309D01*
X133802380Y-95920071D01*
X133754761Y-95777214D01*
X133659523Y-95681976D01*
X133564285Y-95634357D01*
X133373809Y-95586738D01*
X133230952Y-95586738D01*
X133040476Y-95634357D01*
X132945238Y-95681976D01*
X132850000Y-95777214D01*
X132802380Y-95920071D01*
X132802380Y-96015309D01*
X132850000Y-96158166D01*
X132897619Y-96205785D01*
D11*
X189039428Y-101580142D02*
X187896571Y-101580142D01*
X188468000Y-102151571D02*
X188468000Y-101008714D01*
X152533000Y-112937857D02*
X152533000Y-111737857D01*
X152075857Y-111737857D01*
X151961571Y-111795000D01*
X151904428Y-111852142D01*
X151847285Y-111966428D01*
X151847285Y-112137857D01*
X151904428Y-112252142D01*
X151961571Y-112309285D01*
X152075857Y-112366428D01*
X152533000Y-112366428D01*
X150647285Y-112823571D02*
X150704428Y-112880714D01*
X150875857Y-112937857D01*
X150990142Y-112937857D01*
X151161571Y-112880714D01*
X151275857Y-112766428D01*
X151333000Y-112652142D01*
X151390142Y-112423571D01*
X151390142Y-112252142D01*
X151333000Y-112023571D01*
X151275857Y-111909285D01*
X151161571Y-111795000D01*
X150990142Y-111737857D01*
X150875857Y-111737857D01*
X150704428Y-111795000D01*
X150647285Y-111852142D01*
X150133000Y-112480714D02*
X149218714Y-112480714D01*
X148418714Y-111737857D02*
X148304428Y-111737857D01*
X148190142Y-111795000D01*
X148133000Y-111852142D01*
X148075857Y-111966428D01*
X148018714Y-112195000D01*
X148018714Y-112480714D01*
X148075857Y-112709285D01*
X148133000Y-112823571D01*
X148190142Y-112880714D01*
X148304428Y-112937857D01*
X148418714Y-112937857D01*
X148533000Y-112880714D01*
X148590142Y-112823571D01*
X148647285Y-112709285D01*
X148704428Y-112480714D01*
X148704428Y-112195000D01*
X148647285Y-111966428D01*
X148590142Y-111852142D01*
X148533000Y-111795000D01*
X148418714Y-111737857D01*
X146933000Y-111737857D02*
X147504428Y-111737857D01*
X147561571Y-112309285D01*
X147504428Y-112252142D01*
X147390142Y-112195000D01*
X147104428Y-112195000D01*
X146990142Y-112252142D01*
X146933000Y-112309285D01*
X146875857Y-112423571D01*
X146875857Y-112709285D01*
X146933000Y-112823571D01*
X146990142Y-112880714D01*
X147104428Y-112937857D01*
X147390142Y-112937857D01*
X147504428Y-112880714D01*
X147561571Y-112823571D01*
X168566857Y-112937857D02*
X168966857Y-112366428D01*
X169252571Y-112937857D02*
X169252571Y-111737857D01*
X168795428Y-111737857D01*
X168681142Y-111795000D01*
X168624000Y-111852142D01*
X168566857Y-111966428D01*
X168566857Y-112137857D01*
X168624000Y-112252142D01*
X168681142Y-112309285D01*
X168795428Y-112366428D01*
X169252571Y-112366428D01*
X168052571Y-112309285D02*
X167652571Y-112309285D01*
X167481142Y-112937857D02*
X168052571Y-112937857D01*
X168052571Y-111737857D01*
X167481142Y-111737857D01*
X167138285Y-111737857D02*
X166738285Y-112937857D01*
X166338285Y-111737857D01*
X165938285Y-112823571D02*
X165881142Y-112880714D01*
X165938285Y-112937857D01*
X165995428Y-112880714D01*
X165938285Y-112823571D01*
X165938285Y-112937857D01*
X164509714Y-112595000D02*
X163938285Y-112595000D01*
X164624000Y-112937857D02*
X164224000Y-111737857D01*
X163824000Y-112937857D01*
D10*
X188786714Y-107707857D02*
X188839095Y-107760238D01*
X188996238Y-107812619D01*
X189101000Y-107812619D01*
X189258142Y-107760238D01*
X189362904Y-107655476D01*
X189415285Y-107550714D01*
X189467666Y-107341190D01*
X189467666Y-107184047D01*
X189415285Y-106974523D01*
X189362904Y-106869761D01*
X189258142Y-106765000D01*
X189101000Y-106712619D01*
X188996238Y-106712619D01*
X188839095Y-106765000D01*
X188786714Y-106817380D01*
X187686714Y-107812619D02*
X188053380Y-107288809D01*
X188315285Y-107812619D02*
X188315285Y-106712619D01*
X187896238Y-106712619D01*
X187791476Y-106765000D01*
X187739095Y-106817380D01*
X187686714Y-106922142D01*
X187686714Y-107079285D01*
X187739095Y-107184047D01*
X187791476Y-107236428D01*
X187896238Y-107288809D01*
X188315285Y-107288809D01*
X187215285Y-107393571D02*
X186377190Y-107393571D01*
X185277190Y-107812619D02*
X185905761Y-107812619D01*
X185591476Y-107812619D02*
X185591476Y-106712619D01*
X185696238Y-106869761D01*
X185801000Y-106974523D01*
X185905761Y-107026904D01*
X184858142Y-106817380D02*
X184805761Y-106765000D01*
X184701000Y-106712619D01*
X184439095Y-106712619D01*
X184334333Y-106765000D01*
X184281952Y-106817380D01*
X184229571Y-106922142D01*
X184229571Y-107026904D01*
X184281952Y-107184047D01*
X184910523Y-107812619D01*
X184229571Y-107812619D01*
X183810523Y-106817380D02*
X183758142Y-106765000D01*
X183653380Y-106712619D01*
X183391476Y-106712619D01*
X183286714Y-106765000D01*
X183234333Y-106817380D01*
X183181952Y-106922142D01*
X183181952Y-107026904D01*
X183234333Y-107184047D01*
X183862904Y-107812619D01*
X183181952Y-107812619D01*
X182501000Y-106712619D02*
X182396238Y-106712619D01*
X182291476Y-106765000D01*
X182239095Y-106817380D01*
X182186714Y-106922142D01*
X182134333Y-107131666D01*
X182134333Y-107393571D01*
X182186714Y-107603095D01*
X182239095Y-107707857D01*
X182291476Y-107760238D01*
X182396238Y-107812619D01*
X182501000Y-107812619D01*
X182605761Y-107760238D01*
X182658142Y-107707857D01*
X182710523Y-107603095D01*
X182762904Y-107393571D01*
X182762904Y-107131666D01*
X182710523Y-106922142D01*
X182658142Y-106817380D01*
X182605761Y-106765000D01*
X182501000Y-106712619D01*
D12*
X168650047Y-107394333D02*
X167697666Y-107394333D01*
X168840523Y-107965761D02*
X168173857Y-105965761D01*
X167507190Y-107965761D01*
X166554809Y-107965761D02*
X166745285Y-107870523D01*
X166840523Y-107680047D01*
X166840523Y-105965761D01*
X164935761Y-107965761D02*
X164935761Y-106918142D01*
X165031000Y-106727666D01*
X165221476Y-106632428D01*
X165602428Y-106632428D01*
X165792904Y-106727666D01*
X164935761Y-107870523D02*
X165126238Y-107965761D01*
X165602428Y-107965761D01*
X165792904Y-107870523D01*
X165888142Y-107680047D01*
X165888142Y-107489571D01*
X165792904Y-107299095D01*
X165602428Y-107203857D01*
X165126238Y-107203857D01*
X164935761Y-107108619D01*
X163983380Y-107965761D02*
X163983380Y-106632428D01*
X163983380Y-107013380D02*
X163888142Y-106822904D01*
X163792904Y-106727666D01*
X163602428Y-106632428D01*
X163411952Y-106632428D01*
X162745285Y-107965761D02*
X162745285Y-106632428D01*
X162745285Y-106822904D02*
X162650047Y-106727666D01*
X162459571Y-106632428D01*
X162173857Y-106632428D01*
X161983380Y-106727666D01*
X161888142Y-106918142D01*
X161888142Y-107965761D01*
X161888142Y-106918142D02*
X161792904Y-106727666D01*
X161602428Y-106632428D01*
X161316714Y-106632428D01*
X161126238Y-106727666D01*
X161031000Y-106918142D01*
X161031000Y-107965761D01*
X157411952Y-107775285D02*
X157507190Y-107870523D01*
X157792904Y-107965761D01*
X157983380Y-107965761D01*
X158269095Y-107870523D01*
X158459571Y-107680047D01*
X158554809Y-107489571D01*
X158650047Y-107108619D01*
X158650047Y-106822904D01*
X158554809Y-106441952D01*
X158459571Y-106251476D01*
X158269095Y-106061000D01*
X157983380Y-105965761D01*
X157792904Y-105965761D01*
X157507190Y-106061000D01*
X157411952Y-106156238D01*
X156269095Y-107965761D02*
X156459571Y-107870523D01*
X156554809Y-107680047D01*
X156554809Y-105965761D01*
X155221476Y-107965761D02*
X155411952Y-107870523D01*
X155507190Y-107775285D01*
X155602428Y-107584809D01*
X155602428Y-107013380D01*
X155507190Y-106822904D01*
X155411952Y-106727666D01*
X155221476Y-106632428D01*
X154935761Y-106632428D01*
X154745285Y-106727666D01*
X154650047Y-106822904D01*
X154554809Y-107013380D01*
X154554809Y-107584809D01*
X154650047Y-107775285D01*
X154745285Y-107870523D01*
X154935761Y-107965761D01*
X155221476Y-107965761D01*
X152840523Y-107870523D02*
X153031000Y-107965761D01*
X153411952Y-107965761D01*
X153602428Y-107870523D01*
X153697666Y-107775285D01*
X153792904Y-107584809D01*
X153792904Y-107013380D01*
X153697666Y-106822904D01*
X153602428Y-106727666D01*
X153411952Y-106632428D01*
X153031000Y-106632428D01*
X152840523Y-106727666D01*
X151983380Y-107965761D02*
X151983380Y-105965761D01*
X151792904Y-107203857D02*
X151221476Y-107965761D01*
X151221476Y-106632428D02*
X151983380Y-107394333D01*
X149126238Y-105965761D02*
X148459571Y-107965761D01*
X147792904Y-105965761D01*
X147316714Y-105965761D02*
X146078619Y-105965761D01*
X146745285Y-106727666D01*
X146459571Y-106727666D01*
X146269095Y-106822904D01*
X146173857Y-106918142D01*
X146078619Y-107108619D01*
X146078619Y-107584809D01*
X146173857Y-107775285D01*
X146269095Y-107870523D01*
X146459571Y-107965761D01*
X147031000Y-107965761D01*
X147221476Y-107870523D01*
X147316714Y-107775285D01*
D10*
X120150000Y-90007785D02*
X120102380Y-89912547D01*
X120102380Y-89769690D01*
X120150000Y-89626833D01*
X120245238Y-89531595D01*
X120340476Y-89483976D01*
X120530952Y-89436357D01*
X120673809Y-89436357D01*
X120864285Y-89483976D01*
X120959523Y-89531595D01*
X121054761Y-89626833D01*
X121102380Y-89769690D01*
X121102380Y-89864928D01*
X121054761Y-90007785D01*
X121007142Y-90055404D01*
X120673809Y-90055404D01*
X120673809Y-89864928D01*
X121102380Y-90483976D02*
X120102380Y-90483976D01*
X121102380Y-91055404D01*
X120102380Y-91055404D01*
X121102380Y-91531595D02*
X120102380Y-91531595D01*
X120102380Y-91769690D01*
X120150000Y-91912547D01*
X120245238Y-92007785D01*
X120340476Y-92055404D01*
X120530952Y-92103023D01*
X120673809Y-92103023D01*
X120864285Y-92055404D01*
X120959523Y-92007785D01*
X121054761Y-91912547D01*
X121102380Y-91769690D01*
X121102380Y-91531595D01*
X128722380Y-93205785D02*
X128722380Y-92729595D01*
X127722380Y-92729595D01*
X128341428Y-93539119D02*
X128341428Y-94301023D01*
X128722380Y-95348642D02*
X128246190Y-95015309D01*
X128722380Y-94777214D02*
X127722380Y-94777214D01*
X127722380Y-95158166D01*
X127770000Y-95253404D01*
X127817619Y-95301023D01*
X127912857Y-95348642D01*
X128055714Y-95348642D01*
X128150952Y-95301023D01*
X128198571Y-95253404D01*
X128246190Y-95158166D01*
X128246190Y-94777214D01*
X127722380Y-95681976D02*
X128722380Y-96348642D01*
X127722380Y-96348642D02*
X128722380Y-95681976D01*
X128722380Y-96729595D02*
X127722380Y-96729595D01*
X127722380Y-96967690D01*
X127770000Y-97110547D01*
X127865238Y-97205785D01*
X127960476Y-97253404D01*
X128150952Y-97301023D01*
X128293809Y-97301023D01*
X128484285Y-97253404D01*
X128579523Y-97205785D01*
X128674761Y-97110547D01*
X128722380Y-96967690D01*
X128722380Y-96729595D01*
X118181428Y-89356976D02*
X118181428Y-90118880D01*
X118562380Y-89737928D02*
X117800476Y-89737928D01*
X117562380Y-91071261D02*
X117562380Y-90595071D01*
X118038571Y-90547452D01*
X117990952Y-90595071D01*
X117943333Y-90690309D01*
X117943333Y-90928404D01*
X117990952Y-91023642D01*
X118038571Y-91071261D01*
X118133809Y-91118880D01*
X118371904Y-91118880D01*
X118467142Y-91071261D01*
X118514761Y-91023642D01*
X118562380Y-90928404D01*
X118562380Y-90690309D01*
X118514761Y-90595071D01*
X118467142Y-90547452D01*
X117562380Y-91404595D02*
X118562380Y-91737928D01*
X117562380Y-92071261D01*
X131262380Y-93205785D02*
X131262380Y-92729595D01*
X130262380Y-92729595D01*
X130881428Y-93539119D02*
X130881428Y-94301023D01*
X130262380Y-94634357D02*
X130262380Y-95205785D01*
X131262380Y-94920071D02*
X130262380Y-94920071D01*
X130262380Y-95443880D02*
X131262380Y-96110547D01*
X130262380Y-96110547D02*
X131262380Y-95443880D01*
X131262380Y-96491500D02*
X130262380Y-96491500D01*
X130262380Y-96729595D01*
X130310000Y-96872452D01*
X130405238Y-96967690D01*
X130500476Y-97015309D01*
X130690952Y-97062928D01*
X130833809Y-97062928D01*
X131024285Y-97015309D01*
X131119523Y-96967690D01*
X131214761Y-96872452D01*
X131262380Y-96729595D01*
X131262380Y-96491500D01*
X169913547Y-89177761D02*
X169770690Y-89225380D01*
X169532595Y-89225380D01*
X169437357Y-89177761D01*
X169389738Y-89130142D01*
X169342119Y-89034904D01*
X169342119Y-88939666D01*
X169389738Y-88844428D01*
X169437357Y-88796809D01*
X169532595Y-88749190D01*
X169723071Y-88701571D01*
X169818309Y-88653952D01*
X169865928Y-88606333D01*
X169913547Y-88511095D01*
X169913547Y-88415857D01*
X169865928Y-88320619D01*
X169818309Y-88273000D01*
X169723071Y-88225380D01*
X169484976Y-88225380D01*
X169342119Y-88273000D01*
X168913547Y-89225380D02*
X168913547Y-88225380D01*
X168675452Y-88225380D01*
X168532595Y-88273000D01*
X168437357Y-88368238D01*
X168389738Y-88463476D01*
X168342119Y-88653952D01*
X168342119Y-88796809D01*
X168389738Y-88987285D01*
X168437357Y-89082523D01*
X168532595Y-89177761D01*
X168675452Y-89225380D01*
X168913547Y-89225380D01*
X167961166Y-88939666D02*
X167484976Y-88939666D01*
X168056404Y-89225380D02*
X167723071Y-88225380D01*
X167389738Y-89225380D01*
X169865928Y-86764761D02*
X169723071Y-86812380D01*
X169484976Y-86812380D01*
X169389738Y-86764761D01*
X169342119Y-86717142D01*
X169294500Y-86621904D01*
X169294500Y-86526666D01*
X169342119Y-86431428D01*
X169389738Y-86383809D01*
X169484976Y-86336190D01*
X169675452Y-86288571D01*
X169770690Y-86240952D01*
X169818309Y-86193333D01*
X169865928Y-86098095D01*
X169865928Y-86002857D01*
X169818309Y-85907619D01*
X169770690Y-85860000D01*
X169675452Y-85812380D01*
X169437357Y-85812380D01*
X169294500Y-85860000D01*
X168294500Y-86717142D02*
X168342119Y-86764761D01*
X168484976Y-86812380D01*
X168580214Y-86812380D01*
X168723071Y-86764761D01*
X168818309Y-86669523D01*
X168865928Y-86574285D01*
X168913547Y-86383809D01*
X168913547Y-86240952D01*
X168865928Y-86050476D01*
X168818309Y-85955238D01*
X168723071Y-85860000D01*
X168580214Y-85812380D01*
X168484976Y-85812380D01*
X168342119Y-85860000D01*
X168294500Y-85907619D01*
X167389738Y-86812380D02*
X167865928Y-86812380D01*
X167865928Y-85812380D01*
X193175000Y-88071309D02*
X193127380Y-87976071D01*
X193127380Y-87833214D01*
X193175000Y-87690357D01*
X193270238Y-87595119D01*
X193365476Y-87547500D01*
X193555952Y-87499880D01*
X193698809Y-87499880D01*
X193889285Y-87547500D01*
X193984523Y-87595119D01*
X194079761Y-87690357D01*
X194127380Y-87833214D01*
X194127380Y-87928452D01*
X194079761Y-88071309D01*
X194032142Y-88118928D01*
X193698809Y-88118928D01*
X193698809Y-87928452D01*
X194127380Y-88547500D02*
X193127380Y-88547500D01*
X193127380Y-88928452D01*
X193175000Y-89023690D01*
X193222619Y-89071309D01*
X193317857Y-89118928D01*
X193460714Y-89118928D01*
X193555952Y-89071309D01*
X193603571Y-89023690D01*
X193651190Y-88928452D01*
X193651190Y-88547500D01*
X194127380Y-89547500D02*
X193127380Y-89547500D01*
X193127380Y-90214166D02*
X193127380Y-90404642D01*
X193175000Y-90499880D01*
X193270238Y-90595119D01*
X193460714Y-90642738D01*
X193794047Y-90642738D01*
X193984523Y-90595119D01*
X194079761Y-90499880D01*
X194127380Y-90404642D01*
X194127380Y-90214166D01*
X194079761Y-90118928D01*
X193984523Y-90023690D01*
X193794047Y-89976071D01*
X193460714Y-89976071D01*
X193270238Y-90023690D01*
X193175000Y-90118928D01*
X193127380Y-90214166D01*
X194222619Y-90833214D02*
X194222619Y-91595119D01*
X194127380Y-92357023D02*
X194127380Y-91785595D01*
X194127380Y-92071309D02*
X193127380Y-92071309D01*
X193270238Y-91976071D01*
X193365476Y-91880833D01*
X193413095Y-91785595D01*
X195715000Y-88071309D02*
X195667380Y-87976071D01*
X195667380Y-87833214D01*
X195715000Y-87690357D01*
X195810238Y-87595119D01*
X195905476Y-87547500D01*
X196095952Y-87499880D01*
X196238809Y-87499880D01*
X196429285Y-87547500D01*
X196524523Y-87595119D01*
X196619761Y-87690357D01*
X196667380Y-87833214D01*
X196667380Y-87928452D01*
X196619761Y-88071309D01*
X196572142Y-88118928D01*
X196238809Y-88118928D01*
X196238809Y-87928452D01*
X196667380Y-88547500D02*
X195667380Y-88547500D01*
X195667380Y-88928452D01*
X195715000Y-89023690D01*
X195762619Y-89071309D01*
X195857857Y-89118928D01*
X196000714Y-89118928D01*
X196095952Y-89071309D01*
X196143571Y-89023690D01*
X196191190Y-88928452D01*
X196191190Y-88547500D01*
X196667380Y-89547500D02*
X195667380Y-89547500D01*
X195667380Y-90214166D02*
X195667380Y-90404642D01*
X195715000Y-90499880D01*
X195810238Y-90595119D01*
X196000714Y-90642738D01*
X196334047Y-90642738D01*
X196524523Y-90595119D01*
X196619761Y-90499880D01*
X196667380Y-90404642D01*
X196667380Y-90214166D01*
X196619761Y-90118928D01*
X196524523Y-90023690D01*
X196334047Y-89976071D01*
X196000714Y-89976071D01*
X195810238Y-90023690D01*
X195715000Y-90118928D01*
X195667380Y-90214166D01*
X196762619Y-90833214D02*
X196762619Y-91595119D01*
X195667380Y-91737976D02*
X195667380Y-92357023D01*
X196048333Y-92023690D01*
X196048333Y-92166547D01*
X196095952Y-92261785D01*
X196143571Y-92309404D01*
X196238809Y-92357023D01*
X196476904Y-92357023D01*
X196572142Y-92309404D01*
X196619761Y-92261785D01*
X196667380Y-92166547D01*
X196667380Y-91880833D01*
X196619761Y-91785595D01*
X196572142Y-91737976D01*
X204287380Y-88309404D02*
X204287380Y-87833214D01*
X203287380Y-87833214D01*
X203906428Y-88642738D02*
X203906428Y-89404642D01*
X203763571Y-89880833D02*
X203763571Y-90214166D01*
X204287380Y-90357023D02*
X204287380Y-89880833D01*
X203287380Y-89880833D01*
X203287380Y-90357023D01*
X204287380Y-91357023D02*
X203811190Y-91023690D01*
X204287380Y-90785595D02*
X203287380Y-90785595D01*
X203287380Y-91166547D01*
X203335000Y-91261785D01*
X203382619Y-91309404D01*
X203477857Y-91357023D01*
X203620714Y-91357023D01*
X203715952Y-91309404D01*
X203763571Y-91261785D01*
X203811190Y-91166547D01*
X203811190Y-90785595D01*
X204287380Y-92357023D02*
X203811190Y-92023690D01*
X204287380Y-91785595D02*
X203287380Y-91785595D01*
X203287380Y-92166547D01*
X203335000Y-92261785D01*
X203382619Y-92309404D01*
X203477857Y-92357023D01*
X203620714Y-92357023D01*
X203715952Y-92309404D01*
X203763571Y-92261785D01*
X203811190Y-92166547D01*
X203811190Y-91785595D01*
X199207380Y-88261785D02*
X199207380Y-87785595D01*
X198207380Y-87785595D01*
X198826428Y-88595119D02*
X198826428Y-89357023D01*
X198207380Y-89737976D02*
X199207380Y-89976071D01*
X198493095Y-90166547D01*
X199207380Y-90357023D01*
X198207380Y-90595119D01*
X199207380Y-90976071D02*
X198207380Y-90976071D01*
X198683571Y-91785595D02*
X198683571Y-91452261D01*
X199207380Y-91452261D02*
X198207380Y-91452261D01*
X198207380Y-91928452D01*
X199207380Y-92309404D02*
X198207380Y-92309404D01*
X201747380Y-88499880D02*
X201747380Y-88023690D01*
X200747380Y-88023690D01*
X201366428Y-88833214D02*
X201366428Y-89595119D01*
X201747380Y-90071309D02*
X200747380Y-90071309D01*
X201747380Y-90642738D01*
X200747380Y-90642738D01*
X201223571Y-91118928D02*
X201223571Y-91452261D01*
X201747380Y-91595119D02*
X201747380Y-91118928D01*
X200747380Y-91118928D01*
X200747380Y-91595119D01*
X200747380Y-91880833D02*
X200747380Y-92452261D01*
X201747380Y-92166547D02*
X200747380Y-92166547D01*
X172537380Y-111597833D02*
X171537380Y-111597833D01*
X171537380Y-111978785D01*
X171585000Y-112074023D01*
X171632619Y-112121642D01*
X171727857Y-112169261D01*
X171870714Y-112169261D01*
X171965952Y-112121642D01*
X172013571Y-112074023D01*
X172061190Y-111978785D01*
X172061190Y-111597833D01*
X171870714Y-113026404D02*
X172537380Y-113026404D01*
X171489761Y-112788309D02*
X172204047Y-112550214D01*
X172204047Y-113169261D01*
X171537380Y-113978785D02*
X171537380Y-113788309D01*
X171585000Y-113693071D01*
X171632619Y-113645452D01*
X171775476Y-113550214D01*
X171965952Y-113502595D01*
X172346904Y-113502595D01*
X172442142Y-113550214D01*
X172489761Y-113597833D01*
X172537380Y-113693071D01*
X172537380Y-113883547D01*
X172489761Y-113978785D01*
X172442142Y-114026404D01*
X172346904Y-114074023D01*
X172108809Y-114074023D01*
X172013571Y-114026404D01*
X171965952Y-113978785D01*
X171918333Y-113883547D01*
X171918333Y-113693071D01*
X171965952Y-113597833D01*
X172013571Y-113550214D01*
X172108809Y-113502595D01*
X174442380Y-111597833D02*
X173442380Y-111597833D01*
X173442380Y-111978785D01*
X173490000Y-112074023D01*
X173537619Y-112121642D01*
X173632857Y-112169261D01*
X173775714Y-112169261D01*
X173870952Y-112121642D01*
X173918571Y-112074023D01*
X173966190Y-111978785D01*
X173966190Y-111597833D01*
X173775714Y-113026404D02*
X174442380Y-113026404D01*
X173394761Y-112788309D02*
X174109047Y-112550214D01*
X174109047Y-113169261D01*
X173442380Y-114026404D02*
X173442380Y-113550214D01*
X173918571Y-113502595D01*
X173870952Y-113550214D01*
X173823333Y-113645452D01*
X173823333Y-113883547D01*
X173870952Y-113978785D01*
X173918571Y-114026404D01*
X174013809Y-114074023D01*
X174251904Y-114074023D01*
X174347142Y-114026404D01*
X174394761Y-113978785D01*
X174442380Y-113883547D01*
X174442380Y-113645452D01*
X174394761Y-113550214D01*
X174347142Y-113502595D01*
X176347380Y-111597833D02*
X175347380Y-111597833D01*
X175347380Y-111978785D01*
X175395000Y-112074023D01*
X175442619Y-112121642D01*
X175537857Y-112169261D01*
X175680714Y-112169261D01*
X175775952Y-112121642D01*
X175823571Y-112074023D01*
X175871190Y-111978785D01*
X175871190Y-111597833D01*
X175680714Y-113026404D02*
X176347380Y-113026404D01*
X175299761Y-112788309D02*
X176014047Y-112550214D01*
X176014047Y-113169261D01*
X175680714Y-113978785D02*
X176347380Y-113978785D01*
X175299761Y-113740690D02*
X176014047Y-113502595D01*
X176014047Y-114121642D01*
X178252380Y-111597833D02*
X177252380Y-111597833D01*
X177252380Y-111978785D01*
X177300000Y-112074023D01*
X177347619Y-112121642D01*
X177442857Y-112169261D01*
X177585714Y-112169261D01*
X177680952Y-112121642D01*
X177728571Y-112074023D01*
X177776190Y-111978785D01*
X177776190Y-111597833D01*
X177585714Y-113026404D02*
X178252380Y-113026404D01*
X177204761Y-112788309D02*
X177919047Y-112550214D01*
X177919047Y-113169261D01*
X177252380Y-113454976D02*
X177252380Y-114074023D01*
X177633333Y-113740690D01*
X177633333Y-113883547D01*
X177680952Y-113978785D01*
X177728571Y-114026404D01*
X177823809Y-114074023D01*
X178061904Y-114074023D01*
X178157142Y-114026404D01*
X178204761Y-113978785D01*
X178252380Y-113883547D01*
X178252380Y-113597833D01*
X178204761Y-113502595D01*
X178157142Y-113454976D01*
X180157380Y-111597833D02*
X179157380Y-111597833D01*
X179157380Y-111978785D01*
X179205000Y-112074023D01*
X179252619Y-112121642D01*
X179347857Y-112169261D01*
X179490714Y-112169261D01*
X179585952Y-112121642D01*
X179633571Y-112074023D01*
X179681190Y-111978785D01*
X179681190Y-111597833D01*
X179490714Y-113026404D02*
X180157380Y-113026404D01*
X179109761Y-112788309D02*
X179824047Y-112550214D01*
X179824047Y-113169261D01*
X179252619Y-113502595D02*
X179205000Y-113550214D01*
X179157380Y-113645452D01*
X179157380Y-113883547D01*
X179205000Y-113978785D01*
X179252619Y-114026404D01*
X179347857Y-114074023D01*
X179443095Y-114074023D01*
X179585952Y-114026404D01*
X180157380Y-113454976D01*
X180157380Y-114074023D01*
D13*
G04 #@! TO.C,J8*
X143510000Y-123825000D02*
X143510000Y-120650000D01*
X128270000Y-120650000D02*
X128270000Y-123825000D01*
X143510000Y-120650000D02*
X128270000Y-120650000D01*
X143510000Y-123825000D02*
X143002000Y-123825000D01*
X141478000Y-123825000D02*
X140462000Y-123825000D01*
X138938000Y-123825000D02*
X137922000Y-123825000D01*
X136398000Y-123825000D02*
X135382000Y-123825000D01*
X133858000Y-123825000D02*
X132842000Y-123825000D01*
X131318000Y-123825000D02*
X130302000Y-123825000D01*
X128778000Y-123825000D02*
X128270000Y-123825000D01*
G04 #@! TO.C,SW1*
X122555000Y-114935000D02*
X122555000Y-116205000D01*
X123190000Y-115570000D02*
X121920000Y-115570000D01*
X124305000Y-115570000D02*
G75*
G03X124305000Y-115570000I-1750000J0D01*
G01*
X119555000Y-116820000D02*
X119555000Y-114320000D01*
X125055000Y-112570000D02*
X120055000Y-112570000D01*
X125055000Y-118570000D02*
X120055000Y-118570000D01*
X125555000Y-116820000D02*
X125555000Y-114320000D01*
G04 #@! TO.C,J13*
X134302500Y-88265000D02*
X127317500Y-88265000D01*
X127317500Y-88265000D02*
X127317500Y-92075000D01*
X127317500Y-92075000D02*
X134302500Y-92075000D01*
X134302500Y-92075000D02*
X134302500Y-88265000D01*
G04 #@! TO.C,J14*
X180530500Y-110807500D02*
X180530500Y-107632500D01*
X171259500Y-110807500D02*
X180530500Y-110807500D01*
X171259500Y-107632500D02*
X171259500Y-110807500D01*
X180530500Y-107632500D02*
X171259500Y-107632500D01*
G04 #@! TO.C,J7*
X165100000Y-120650000D02*
X172720000Y-120650000D01*
X172720000Y-115570000D02*
X165100000Y-115570000D01*
X165100000Y-115570000D02*
X165100000Y-120650000D01*
X172720000Y-120650000D02*
X172720000Y-115570000D01*
G04 #@! TO.C,J4*
X116205000Y-106045000D02*
X108585000Y-106045000D01*
X108585000Y-111125000D02*
X116205000Y-111125000D01*
X116205000Y-111125000D02*
X116205000Y-106045000D01*
X108585000Y-106045000D02*
X108585000Y-111125000D01*
G04 #@! TO.C,J16*
X161925000Y-85090000D02*
X161925000Y-90170000D01*
X161925000Y-90170000D02*
X165735000Y-90170000D01*
X165735000Y-90170000D02*
X165735000Y-85090000D01*
X165735000Y-85090000D02*
X161925000Y-85090000D01*
G04 #@! TO.C,J15*
X121920000Y-92710000D02*
X116840000Y-92710000D01*
X116840000Y-92710000D02*
X116840000Y-96520000D01*
X116840000Y-96520000D02*
X121920000Y-96520000D01*
X121920000Y-96520000D02*
X121920000Y-92710000D01*
G04 #@! TO.C,J17*
X205105000Y-93345000D02*
X192405000Y-93345000D01*
X192405000Y-97155000D02*
X205105000Y-97155000D01*
X205105000Y-97155000D02*
X205105000Y-93345000D01*
X192405000Y-93345000D02*
X192405000Y-97155000D01*
G04 #@! TO.C,B1*
X186385000Y-105060000D02*
X186385000Y-102860000D01*
X186385000Y-93060000D02*
X186385000Y-95260000D01*
X171183557Y-100535323D02*
G75*
G03X178435000Y-106460000I7251443J1475323D01*
G01*
X178436281Y-91666423D02*
G75*
G03X171185001Y-97610001I-1281J-7393577D01*
G01*
X185235000Y-92260000D02*
X185585000Y-92260000D01*
X186385000Y-93060000D02*
G75*
G03X185585000Y-92260000I-800000J0D01*
G01*
X185235000Y-92260000D02*
G75*
G03X184435000Y-93060000I0J-800000D01*
G01*
X185585000Y-105860000D02*
X185235000Y-105860000D01*
X185585000Y-105860000D02*
G75*
G03X186385000Y-105060000I0J800000D01*
G01*
X184435000Y-105060000D02*
G75*
G03X185235000Y-105860000I800000J0D01*
G01*
X184435000Y-93060000D02*
X184435000Y-93910000D01*
X184435000Y-105060000D02*
X184435000Y-104210000D01*
X183977272Y-94156612D02*
G75*
G03X178435000Y-91660000I-5542272J-4903388D01*
G01*
X183980651Y-94167248D02*
G75*
G03X184435000Y-93910000I154349J257248D01*
G01*
X183977272Y-103963388D02*
G75*
G02X178435000Y-106460000I-5542272J4903388D01*
G01*
X183980651Y-103952752D02*
G75*
G02X184435000Y-104210000I154349J-257248D01*
G01*
X186385000Y-102860000D02*
X186785000Y-100460000D01*
X186385000Y-95260000D02*
X186785000Y-97660000D01*
G04 #@! TO.C,J8*
X142869190Y-118967380D02*
X142869190Y-119681666D01*
X142916809Y-119824523D01*
X143012047Y-119919761D01*
X143154904Y-119967380D01*
X143250142Y-119967380D01*
X142250142Y-119395952D02*
X142345380Y-119348333D01*
X142393000Y-119300714D01*
X142440619Y-119205476D01*
X142440619Y-119157857D01*
X142393000Y-119062619D01*
X142345380Y-119015000D01*
X142250142Y-118967380D01*
X142059666Y-118967380D01*
X141964428Y-119015000D01*
X141916809Y-119062619D01*
X141869190Y-119157857D01*
X141869190Y-119205476D01*
X141916809Y-119300714D01*
X141964428Y-119348333D01*
X142059666Y-119395952D01*
X142250142Y-119395952D01*
X142345380Y-119443571D01*
X142393000Y-119491190D01*
X142440619Y-119586428D01*
X142440619Y-119776904D01*
X142393000Y-119872142D01*
X142345380Y-119919761D01*
X142250142Y-119967380D01*
X142059666Y-119967380D01*
X141964428Y-119919761D01*
X141916809Y-119872142D01*
X141869190Y-119776904D01*
X141869190Y-119586428D01*
X141916809Y-119491190D01*
X141964428Y-119443571D01*
X142059666Y-119395952D01*
G04 #@! TO.C,SW1*
X124947523Y-111874761D02*
X124804666Y-111922380D01*
X124566571Y-111922380D01*
X124471333Y-111874761D01*
X124423714Y-111827142D01*
X124376095Y-111731904D01*
X124376095Y-111636666D01*
X124423714Y-111541428D01*
X124471333Y-111493809D01*
X124566571Y-111446190D01*
X124757047Y-111398571D01*
X124852285Y-111350952D01*
X124899904Y-111303333D01*
X124947523Y-111208095D01*
X124947523Y-111112857D01*
X124899904Y-111017619D01*
X124852285Y-110970000D01*
X124757047Y-110922380D01*
X124518952Y-110922380D01*
X124376095Y-110970000D01*
X124042761Y-110922380D02*
X123804666Y-111922380D01*
X123614190Y-111208095D01*
X123423714Y-111922380D01*
X123185619Y-110922380D01*
X122280857Y-111922380D02*
X122852285Y-111922380D01*
X122566571Y-111922380D02*
X122566571Y-110922380D01*
X122661809Y-111065238D01*
X122757047Y-111160476D01*
X122852285Y-111208095D01*
G04 #@! TO.C,J13*
X133979190Y-86582380D02*
X133979190Y-87296666D01*
X134026809Y-87439523D01*
X134122047Y-87534761D01*
X134264904Y-87582380D01*
X134360142Y-87582380D01*
X132979190Y-87582380D02*
X133550619Y-87582380D01*
X133264904Y-87582380D02*
X133264904Y-86582380D01*
X133360142Y-86725238D01*
X133455380Y-86820476D01*
X133550619Y-86868095D01*
X132645857Y-86582380D02*
X132026809Y-86582380D01*
X132360142Y-86963333D01*
X132217285Y-86963333D01*
X132122047Y-87010952D01*
X132074428Y-87058571D01*
X132026809Y-87153809D01*
X132026809Y-87391904D01*
X132074428Y-87487142D01*
X132122047Y-87534761D01*
X132217285Y-87582380D01*
X132503000Y-87582380D01*
X132598238Y-87534761D01*
X132645857Y-87487142D01*
G04 #@! TO.C,J14*
X173222190Y-106267380D02*
X173222190Y-106981666D01*
X173269809Y-107124523D01*
X173365047Y-107219761D01*
X173507904Y-107267380D01*
X173603142Y-107267380D01*
X172222190Y-107267380D02*
X172793619Y-107267380D01*
X172507904Y-107267380D02*
X172507904Y-106267380D01*
X172603142Y-106410238D01*
X172698380Y-106505476D01*
X172793619Y-106553095D01*
X171365047Y-106600714D02*
X171365047Y-107267380D01*
X171603142Y-106219761D02*
X171841238Y-106934047D01*
X171222190Y-106934047D01*
G04 #@! TO.C,J7*
X173323380Y-119004809D02*
X174037666Y-119004809D01*
X174180523Y-118957190D01*
X174275761Y-118861952D01*
X174323380Y-118719095D01*
X174323380Y-118623857D01*
X173323380Y-119385761D02*
X173323380Y-120052428D01*
X174323380Y-119623857D01*
G04 #@! TO.C,J4*
X109722190Y-111601380D02*
X109722190Y-112315666D01*
X109769809Y-112458523D01*
X109865047Y-112553761D01*
X110007904Y-112601380D01*
X110103142Y-112601380D01*
X108817428Y-111934714D02*
X108817428Y-112601380D01*
X109055523Y-111553761D02*
X109293619Y-112268047D01*
X108674571Y-112268047D01*
G04 #@! TO.C,J16*
X163824190Y-91027380D02*
X163824190Y-91741666D01*
X163871809Y-91884523D01*
X163967047Y-91979761D01*
X164109904Y-92027380D01*
X164205142Y-92027380D01*
X162824190Y-92027380D02*
X163395619Y-92027380D01*
X163109904Y-92027380D02*
X163109904Y-91027380D01*
X163205142Y-91170238D01*
X163300380Y-91265476D01*
X163395619Y-91313095D01*
X161967047Y-91027380D02*
X162157523Y-91027380D01*
X162252761Y-91075000D01*
X162300380Y-91122619D01*
X162395619Y-91265476D01*
X162443238Y-91455952D01*
X162443238Y-91836904D01*
X162395619Y-91932142D01*
X162348000Y-91979761D01*
X162252761Y-92027380D01*
X162062285Y-92027380D01*
X161967047Y-91979761D01*
X161919428Y-91932142D01*
X161871809Y-91836904D01*
X161871809Y-91598809D01*
X161919428Y-91503571D01*
X161967047Y-91455952D01*
X162062285Y-91408333D01*
X162252761Y-91408333D01*
X162348000Y-91455952D01*
X162395619Y-91503571D01*
X162443238Y-91598809D01*
G04 #@! TO.C,J15*
X122396380Y-94493809D02*
X123110666Y-94493809D01*
X123253523Y-94446190D01*
X123348761Y-94350952D01*
X123396380Y-94208095D01*
X123396380Y-94112857D01*
X123396380Y-95493809D02*
X123396380Y-94922380D01*
X123396380Y-95208095D02*
X122396380Y-95208095D01*
X122539238Y-95112857D01*
X122634476Y-95017619D01*
X122682095Y-94922380D01*
X122396380Y-96398571D02*
X122396380Y-95922380D01*
X122872571Y-95874761D01*
X122824952Y-95922380D01*
X122777333Y-96017619D01*
X122777333Y-96255714D01*
X122824952Y-96350952D01*
X122872571Y-96398571D01*
X122967809Y-96446190D01*
X123205904Y-96446190D01*
X123301142Y-96398571D01*
X123348761Y-96350952D01*
X123396380Y-96255714D01*
X123396380Y-96017619D01*
X123348761Y-95922380D01*
X123301142Y-95874761D01*
G04 #@! TO.C,J17*
X204591190Y-97758380D02*
X204591190Y-98472666D01*
X204638809Y-98615523D01*
X204734047Y-98710761D01*
X204876904Y-98758380D01*
X204972142Y-98758380D01*
X203591190Y-98758380D02*
X204162619Y-98758380D01*
X203876904Y-98758380D02*
X203876904Y-97758380D01*
X203972142Y-97901238D01*
X204067380Y-97996476D01*
X204162619Y-98044095D01*
X203257857Y-97758380D02*
X202591190Y-97758380D01*
X203019761Y-98758380D01*
G04 #@! TO.C,TP1*
X160011904Y-113752380D02*
X159440476Y-113752380D01*
X159726190Y-114752380D02*
X159726190Y-113752380D01*
X159107142Y-114752380D02*
X159107142Y-113752380D01*
X158726190Y-113752380D01*
X158630952Y-113800000D01*
X158583333Y-113847619D01*
X158535714Y-113942857D01*
X158535714Y-114085714D01*
X158583333Y-114180952D01*
X158630952Y-114228571D01*
X158726190Y-114276190D01*
X159107142Y-114276190D01*
X157583333Y-114752380D02*
X158154761Y-114752380D01*
X157869047Y-114752380D02*
X157869047Y-113752380D01*
X157964285Y-113895238D01*
X158059523Y-113990476D01*
X158154761Y-114038095D01*
G04 #@! TO.C,B1*
X184427761Y-90606571D02*
X184284904Y-90654190D01*
X184237285Y-90701809D01*
X184189666Y-90797047D01*
X184189666Y-90939904D01*
X184237285Y-91035142D01*
X184284904Y-91082761D01*
X184380142Y-91130380D01*
X184761095Y-91130380D01*
X184761095Y-90130380D01*
X184427761Y-90130380D01*
X184332523Y-90178000D01*
X184284904Y-90225619D01*
X184237285Y-90320857D01*
X184237285Y-90416095D01*
X184284904Y-90511333D01*
X184332523Y-90558952D01*
X184427761Y-90606571D01*
X184761095Y-90606571D01*
X183237285Y-91130380D02*
X183808714Y-91130380D01*
X183523000Y-91130380D02*
X183523000Y-90130380D01*
X183618238Y-90273238D01*
X183713476Y-90368476D01*
X183808714Y-90416095D01*
G04 #@! TD*
M02*
