G04 #@! TF.GenerationSoftware,KiCad,Pcbnew,5.0.0-fee4fd1~65~ubuntu17.10.1*
G04 #@! TF.CreationDate,2018-09-18T22:06:37-04:00*
G04 #@! TF.ProjectId,motherboard,6D6F74686572626F6172642E6B696361,rev?*
G04 #@! TF.SameCoordinates,Original*
G04 #@! TF.FileFunction,Copper,L4,Bot,Signal*
G04 #@! TF.FilePolarity,Positive*
%FSLAX46Y46*%
G04 Gerber Fmt 4.6, Leading zero omitted, Abs format (unit mm)*
G04 Created by KiCad (PCBNEW 5.0.0-fee4fd1~65~ubuntu17.10.1) date Tue Sep 18 22:06:37 2018*
%MOMM*%
%LPD*%
G01*
G04 APERTURE LIST*
G04 #@! TA.AperFunction,ComponentPad*
%ADD10C,1.600000*%
G04 #@! TD*
G04 #@! TA.AperFunction,SMDPad,CuDef*
%ADD11O,3.175000X1.270000*%
G04 #@! TD*
G04 #@! TA.AperFunction,SMDPad,CuDef*
%ADD12O,1.270000X3.175000*%
G04 #@! TD*
G04 #@! TA.AperFunction,ComponentPad*
%ADD13R,1.600000X1.600000*%
G04 #@! TD*
G04 #@! TA.AperFunction,ComponentPad*
%ADD14C,6.350000*%
G04 #@! TD*
G04 #@! TA.AperFunction,ViaPad*
%ADD15C,1.016000*%
G04 #@! TD*
G04 #@! TA.AperFunction,ComponentPad*
%ADD16R,3.700000X3.700000*%
G04 #@! TD*
G04 #@! TA.AperFunction,SMDPad,CuDef*
%ADD17R,7.620000X2.540000*%
G04 #@! TD*
G04 #@! TA.AperFunction,SMDPad,CuDef*
%ADD18R,12.700000X2.540000*%
G04 #@! TD*
G04 #@! TA.AperFunction,SMDPad,CuDef*
%ADD19O,1.016000X2.540000*%
G04 #@! TD*
G04 #@! TA.AperFunction,BGAPad,CuDef*
%ADD20C,1.270000*%
G04 #@! TD*
G04 #@! TA.AperFunction,SMDPad,CuDef*
%ADD21R,4.500000X2.300000*%
G04 #@! TD*
G04 #@! TA.AperFunction,ViaPad*
%ADD22C,0.812800*%
G04 #@! TD*
G04 #@! TA.AperFunction,ViaPad*
%ADD23C,1.117600*%
G04 #@! TD*
G04 #@! TA.AperFunction,Conductor*
%ADD24C,0.406400*%
G04 #@! TD*
G04 #@! TA.AperFunction,Conductor*
%ADD25C,0.254000*%
G04 #@! TD*
G04 #@! TA.AperFunction,Conductor*
%ADD26C,0.203200*%
G04 #@! TD*
%ADD27C,0.350000*%
G04 APERTURE END LIST*
D10*
G04 #@! TO.P,SW1,2*
G04 #@! TO.N,GND*
X125805000Y-113320000D03*
X119305000Y-113320000D03*
G04 #@! TO.P,SW1,1*
G04 #@! TO.N,Net-(C13-Pad1)*
X119305000Y-117820000D03*
X125805000Y-117820000D03*
G04 #@! TD*
D11*
G04 #@! TO.P,J11,1*
G04 #@! TO.N,Net-(C13-Pad1)*
X126365000Y-109855000D03*
G04 #@! TD*
D12*
G04 #@! TO.P,J13,1*
G04 #@! TO.N,UVCC*
X133350000Y-90170000D03*
G04 #@! TO.P,J13,2*
G04 #@! TO.N,/USB Serial/LED_TX*
X130810000Y-90170000D03*
G04 #@! TO.P,J13,3*
G04 #@! TO.N,/USB Serial/LED_RX*
X128270000Y-90170000D03*
G04 #@! TD*
D10*
G04 #@! TO.P,J18,2*
G04 #@! TO.N,GND*
X202565000Y-111125000D03*
D13*
G04 #@! TO.P,J18,1*
X205105000Y-111125000D03*
G04 #@! TD*
D14*
G04 #@! TO.P,H2,P*
G04 #@! TO.N,GND*
X201930000Y-116840000D03*
D15*
G04 #@! TD*
G04 #@! TO.N,GND*
G04 #@! TO.C,H2*
X201930000Y-114554000D03*
G04 #@! TO.N,GND*
G04 #@! TO.C,H2*
X199950266Y-115697000D03*
X199950266Y-117983000D03*
X201930000Y-119126000D03*
X203909734Y-117983000D03*
X203909734Y-115697000D03*
G04 #@! TD*
D14*
G04 #@! TO.P,H3,P*
G04 #@! TO.N,GND*
X139700000Y-90805000D03*
D15*
G04 #@! TD*
G04 #@! TO.N,GND*
G04 #@! TO.C,H3*
X139700000Y-88519000D03*
G04 #@! TO.N,GND*
G04 #@! TO.C,H3*
X137720266Y-89662000D03*
X137720266Y-91948000D03*
X139700000Y-93091000D03*
X141679734Y-91948000D03*
X141679734Y-89662000D03*
G04 #@! TD*
D14*
G04 #@! TO.P,H1,P*
G04 #@! TO.N,GND*
X113030000Y-116840000D03*
D15*
G04 #@! TD*
G04 #@! TO.N,GND*
G04 #@! TO.C,H1*
X113030000Y-114554000D03*
G04 #@! TO.N,GND*
G04 #@! TO.C,H1*
X111050266Y-115697000D03*
X111050266Y-117983000D03*
X113030000Y-119126000D03*
X115009734Y-117983000D03*
X115009734Y-115697000D03*
G04 #@! TD*
D16*
G04 #@! TO.P,U4,29*
G04 #@! TO.N,GND*
X195097400Y-99898200D03*
G04 #@! TD*
D17*
G04 #@! TO.P,H6,1*
G04 #@! TO.N,Net-(H6-Pad1)*
X201295000Y-122555000D03*
G04 #@! TD*
D18*
G04 #@! TO.P,H5,1*
G04 #@! TO.N,Net-(H5-Pad1)*
X156210000Y-122555000D03*
G04 #@! TD*
G04 #@! TO.P,H4,1*
G04 #@! TO.N,Net-(H4-Pad1)*
X114935000Y-122555000D03*
G04 #@! TD*
D19*
G04 #@! TO.P,J14,4*
G04 #@! TO.N,/P45*
X175895000Y-109220000D03*
G04 #@! TO.P,J14,5*
G04 #@! TO.N,/P46*
X173990000Y-109220000D03*
G04 #@! TO.P,J14,3*
G04 #@! TO.N,/P44*
X177800000Y-109220000D03*
G04 #@! TO.P,J14,2*
G04 #@! TO.N,/P43*
X179705000Y-109220000D03*
G04 #@! TO.P,J14,1*
G04 #@! TO.N,/P42*
X181610000Y-109220000D03*
G04 #@! TD*
D13*
G04 #@! TO.P,J10,1*
G04 #@! TO.N,/VIN*
X109855000Y-98425000D03*
D10*
G04 #@! TO.P,J10,2*
X112395000Y-98425000D03*
G04 #@! TO.P,J10,3*
G04 #@! TO.N,+5V*
X109855000Y-100965000D03*
G04 #@! TO.P,J10,4*
X112395000Y-100965000D03*
G04 #@! TO.P,J10,5*
G04 #@! TO.N,GND*
X109855000Y-103505000D03*
G04 #@! TO.P,J10,6*
X112395000Y-103505000D03*
G04 #@! TD*
G04 #@! TO.P,J7,6*
G04 #@! TO.N,GND*
X166370000Y-116840000D03*
G04 #@! TO.P,J7,5*
G04 #@! TO.N,/RESET*
X166370000Y-119380000D03*
G04 #@! TO.P,J7,4*
G04 #@! TO.N,/MOSI*
X168910000Y-116840000D03*
G04 #@! TO.P,J7,3*
G04 #@! TO.N,/SCK*
X168910000Y-119380000D03*
G04 #@! TO.P,J7,2*
G04 #@! TO.N,+5V*
X171450000Y-116840000D03*
D13*
G04 #@! TO.P,J7,1*
G04 #@! TO.N,/MISO*
X171450000Y-119380000D03*
G04 #@! TD*
D10*
G04 #@! TO.P,J3,4*
G04 #@! TO.N,/KCHG*
X180340000Y-86995000D03*
G04 #@! TO.P,J3,3*
G04 #@! TO.N,/A_SHDN*
X177800000Y-86995000D03*
G04 #@! TO.P,J3,2*
G04 #@! TO.N,/SCL*
X175260000Y-86995000D03*
D13*
G04 #@! TO.P,J3,1*
G04 #@! TO.N,/SDA*
X172720000Y-86995000D03*
G04 #@! TD*
D10*
G04 #@! TO.P,J4,6*
G04 #@! TO.N,GND*
X114935000Y-109855000D03*
G04 #@! TO.P,J4,5*
G04 #@! TO.N,/USB Serial/RESET-USB*
X114935000Y-107315000D03*
G04 #@! TO.P,J4,4*
G04 #@! TO.N,/USB Serial/MOSI-USB*
X112395000Y-109855000D03*
G04 #@! TO.P,J4,3*
G04 #@! TO.N,/USB Serial/SCK-USB*
X112395000Y-107315000D03*
G04 #@! TO.P,J4,2*
G04 #@! TO.N,UVCC*
X109855000Y-109855000D03*
D13*
G04 #@! TO.P,J4,1*
G04 #@! TO.N,/USB Serial/MISO-USB*
X109855000Y-107315000D03*
G04 #@! TD*
D12*
G04 #@! TO.P,J8,6*
G04 #@! TO.N,GND*
X142240000Y-122555000D03*
G04 #@! TO.P,J8,5*
G04 #@! TO.N,/ALS_INT*
X139700000Y-122555000D03*
G04 #@! TO.P,J8,4*
G04 #@! TO.N,/OLRST*
X137160000Y-122555000D03*
G04 #@! TO.P,J8,3*
G04 #@! TO.N,/SCL*
X134620000Y-122555000D03*
G04 #@! TO.P,J8,2*
G04 #@! TO.N,/SDA*
X132080000Y-122555000D03*
G04 #@! TO.P,J8,1*
G04 #@! TO.N,+5V*
X129540000Y-122555000D03*
G04 #@! TD*
D10*
G04 #@! TO.P,J9,16*
G04 #@! TO.N,/ALRM_SW*
X141605000Y-98425000D03*
G04 #@! TO.P,J9,15*
G04 #@! TO.N,DVDD*
X144145000Y-98425000D03*
G04 #@! TO.P,J9,14*
G04 #@! TO.N,/Peripherals/XDCS_3V3*
X141605000Y-100965000D03*
G04 #@! TO.P,J9,13*
G04 #@! TO.N,/MISO*
X144145000Y-100965000D03*
G04 #@! TO.P,J9,12*
G04 #@! TO.N,/Peripherals/CSCK_3V3*
X141605000Y-103505000D03*
G04 #@! TO.P,J9,11*
G04 #@! TO.N,/Peripherals/CMOSI_3V3*
X144145000Y-103505000D03*
G04 #@! TO.P,J9,10*
G04 #@! TO.N,/DREQ*
X141605000Y-106045000D03*
G04 #@! TO.P,J9,9*
G04 #@! TO.N,/Peripherals/CRST_3V3*
X144145000Y-106045000D03*
G04 #@! TO.P,J9,8*
G04 #@! TO.N,/PIX_SHDN*
X141605000Y-108585000D03*
G04 #@! TO.P,J9,7*
G04 #@! TO.N,/Peripherals/CCS_3V3*
X144145000Y-108585000D03*
G04 #@! TO.P,J9,6*
G04 #@! TO.N,/PIX_LAMP*
X141605000Y-111125000D03*
G04 #@! TO.P,J9,5*
G04 #@! TO.N,/PIX_CLK*
X144145000Y-111125000D03*
G04 #@! TO.P,J9,4*
G04 #@! TO.N,GND*
X141605000Y-113665000D03*
G04 #@! TO.P,J9,3*
X144145000Y-113665000D03*
G04 #@! TO.P,J9,2*
G04 #@! TO.N,+5V*
X141605000Y-116205000D03*
D13*
G04 #@! TO.P,J9,1*
X144145000Y-116205000D03*
G04 #@! TD*
D11*
G04 #@! TO.P,J16,1*
G04 #@! TO.N,/SDA*
X163830000Y-88900000D03*
G04 #@! TO.P,J16,2*
G04 #@! TO.N,/SCL*
X163830000Y-86360000D03*
G04 #@! TD*
D12*
G04 #@! TO.P,J15,1*
G04 #@! TO.N,+5V*
X118110000Y-94615000D03*
G04 #@! TO.P,J15,2*
G04 #@! TO.N,GND*
X120650000Y-94615000D03*
G04 #@! TD*
G04 #@! TO.P,J17,1*
G04 #@! TO.N,/Peripherals/GPIO_1*
X193675000Y-95250000D03*
G04 #@! TO.P,J17,2*
G04 #@! TO.N,/Peripherals/GPIO_3*
X196215000Y-95250000D03*
G04 #@! TO.P,J17,3*
G04 #@! TO.N,/Peripherals/LED_WIFI*
X198755000Y-95250000D03*
G04 #@! TO.P,J17,5*
G04 #@! TO.N,/Peripherals/LED_ERR*
X203835000Y-95250000D03*
G04 #@! TO.P,J17,4*
G04 #@! TO.N,/Peripherals/LED_NET*
X201295000Y-95250000D03*
G04 #@! TD*
D20*
G04 #@! TO.P,TP1,1*
G04 #@! TO.N,Net-(C24-Pad1)*
X158750000Y-112395000D03*
G04 #@! TD*
D13*
G04 #@! TO.P,J6,1*
G04 #@! TO.N,/LOW_BATT*
X137795000Y-115570000D03*
D10*
G04 #@! TO.P,J6,2*
G04 #@! TO.N,/ON_BATT*
X137795000Y-113030000D03*
G04 #@! TO.P,J6,3*
G04 #@! TO.N,/SDA*
X137795000Y-110490000D03*
G04 #@! TO.P,J6,4*
G04 #@! TO.N,/SCL*
X137795000Y-107950000D03*
G04 #@! TD*
D21*
G04 #@! TO.P,B1,P*
G04 #@! TO.N,Net-(B1-PadP)*
X187335000Y-99060000D03*
G04 #@! TO.P,B1,N*
G04 #@! TO.N,GND*
X170935000Y-99060000D03*
G04 #@! TD*
D15*
G04 #@! TO.N,GND*
X195580000Y-113030000D03*
X205105000Y-92075028D03*
X180340000Y-114300000D03*
X173990000Y-96520000D03*
X162560000Y-93980000D03*
X158750000Y-89535000D03*
X180340000Y-117475000D03*
X184785000Y-95885000D03*
X179070000Y-111760000D03*
X160655000Y-93980000D03*
X198120000Y-113030000D03*
X191770000Y-111125000D03*
X115570000Y-90170000D03*
X115570000Y-92075000D03*
X115570000Y-93980000D03*
X115570000Y-95885000D03*
X182245000Y-96520000D03*
X181610000Y-97790000D03*
X179070000Y-101600000D03*
X144780000Y-91440000D03*
X154305000Y-94615000D03*
X146685000Y-95885000D03*
X178435000Y-89535000D03*
X178435000Y-90805000D03*
X174625000Y-90170000D03*
X201295000Y-107950000D03*
X175260000Y-111760000D03*
X163830000Y-117475000D03*
X144145000Y-122555000D03*
X145415000Y-122555000D03*
X158115000Y-116840000D03*
X154305000Y-108585000D03*
X154305000Y-103505000D03*
X149225000Y-116205000D03*
X172085000Y-89535000D03*
X154940000Y-120015000D03*
X118745000Y-104140000D03*
X134620000Y-106680000D03*
X134620000Y-111760000D03*
X134620000Y-116840000D03*
X131445000Y-116840000D03*
X128905000Y-116840000D03*
X128270000Y-107315000D03*
X131445000Y-111760000D03*
X122555000Y-121285000D03*
X191770000Y-122555000D03*
X197485000Y-115570000D03*
X125095000Y-107315000D03*
X174625000Y-97790000D03*
D22*
G04 #@! TO.N,/MISO*
X187325000Y-109855000D03*
X155575000Y-94615000D03*
X163830000Y-118745000D03*
X161290000Y-116840000D03*
X160655000Y-110490000D03*
X156845000Y-97155000D03*
D15*
G04 #@! TO.N,+5V*
X173990000Y-93345000D03*
X173990000Y-94615000D03*
X174625000Y-117475000D03*
X163195000Y-111125000D03*
X147320000Y-113665000D03*
X168275000Y-93345000D03*
X170180000Y-107315000D03*
X161290000Y-89535000D03*
X173990000Y-92075000D03*
X149860000Y-113665000D03*
X154305000Y-99695000D03*
X149860000Y-120015000D03*
X136525000Y-106045000D03*
X136525000Y-104775000D03*
X138430000Y-120650000D03*
X121920000Y-116840000D03*
X154305000Y-113030000D03*
X128270000Y-120650000D03*
X127000000Y-120650000D03*
X162560000Y-120015000D03*
D22*
G04 #@! TO.N,/SCK*
X150495000Y-99060000D03*
X162560000Y-102235000D03*
G04 #@! TO.N,/MOSI*
X149860000Y-94615000D03*
X184785000Y-120015000D03*
X196215000Y-118745000D03*
X176530000Y-120015000D03*
X162560000Y-100965000D03*
G04 #@! TO.N,/RESET*
X169545000Y-109220000D03*
X163830000Y-120015000D03*
D15*
G04 #@! TO.N,/VIN*
X112395000Y-90170000D03*
X112395000Y-92075000D03*
X109855000Y-90170000D03*
X109855000Y-92075000D03*
D22*
G04 #@! TO.N,/USB Serial/RESET-USB*
X127635000Y-94615000D03*
G04 #@! TO.N,/USB Serial/MISO-USB*
X126365000Y-98425000D03*
G04 #@! TO.N,/USB Serial/SCK-USB*
X131445000Y-100330000D03*
G04 #@! TO.N,/USB Serial/MOSI-USB*
X128905000Y-102870000D03*
G04 #@! TO.N,/USB Serial/D-*
X127994211Y-101324211D03*
X131000500Y-94678500D03*
G04 #@! TO.N,/USB Serial/D+*
X129984500Y-94678500D03*
X127275789Y-100605789D03*
D15*
G04 #@! TO.N,/USB Serial/UVCC_IN*
X137795000Y-95250000D03*
X122555000Y-102235000D03*
D23*
G04 #@! TO.N,/USB Serial/USHLD*
X125095000Y-89535000D03*
X125730000Y-93345000D03*
X125730000Y-92075000D03*
D15*
X133985000Y-94615000D03*
D22*
G04 #@! TO.N,/DREQ*
X161290000Y-114300000D03*
X146050000Y-112395000D03*
G04 #@! TO.N,/A_SHDN*
X167640000Y-98425000D03*
D23*
G04 #@! TO.N,+3V3*
X195580000Y-104140000D03*
X190500000Y-104140000D03*
X182245000Y-94615000D03*
X182245000Y-92075000D03*
X182245000Y-93345000D03*
D15*
X196850000Y-120015000D03*
D22*
G04 #@! TO.N,Net-(B1-PadP)*
X181610000Y-88265000D03*
G04 #@! TO.N,/RTC_INT*
X167640000Y-91440000D03*
X167640000Y-102235000D03*
G04 #@! TO.N,/Peripherals/WRST_3V3*
X189865000Y-116840000D03*
X204470000Y-108585000D03*
G04 #@! TO.N,/Peripherals/WEN_3V3*
X193675000Y-104140000D03*
X189230000Y-114935000D03*
G04 #@! TO.N,/Peripherals/WWAKE_3V3*
X188595000Y-112395000D03*
X194945000Y-114300000D03*
X196215000Y-116840000D03*
X190500000Y-95250000D03*
G04 #@! TO.N,/Peripherals/WMOSI_3V3*
X191135000Y-116205000D03*
X192405000Y-120015000D03*
G04 #@! TO.N,/Peripherals/WCS_3V3*
X187325000Y-111125000D03*
X186055000Y-120015000D03*
G04 #@! TO.N,/Peripherals/WSCK_3V3*
X193040000Y-113665000D03*
X192405000Y-118745000D03*
G04 #@! TO.N,/WCS*
X170465000Y-110775000D03*
X179705000Y-118745000D03*
G04 #@! TO.N,/WIRQ*
X172085000Y-113030000D03*
X184150000Y-111125000D03*
X161925000Y-110490000D03*
X190500000Y-96520000D03*
G04 #@! TO.N,/Peripherals/CMOSI_3V3*
X148590000Y-99060000D03*
G04 #@! TO.N,/Peripherals/CSCK_3V3*
X153035000Y-93980000D03*
X151765000Y-99060000D03*
G04 #@! TO.N,/SDCS*
X146685000Y-98425000D03*
X153035000Y-108585000D03*
X159385000Y-107315000D03*
X158115000Y-99695000D03*
D15*
G04 #@! TO.N,DVDD*
X147320000Y-93345000D03*
X146050000Y-107315000D03*
X151765000Y-94615000D03*
D22*
G04 #@! TO.N,/PIX_SHDN*
X163830000Y-99060000D03*
G04 #@! TO.N,/PIX_LAMP*
X165100000Y-103505000D03*
G04 #@! TO.N,/PIX_CLK*
X165100000Y-104775000D03*
G04 #@! TO.N,/KCHG*
X174625000Y-100330000D03*
G04 #@! TO.N,/SCL*
X166370000Y-85725000D03*
X166370000Y-104775000D03*
X151765000Y-109855000D03*
X147320000Y-116205000D03*
G04 #@! TO.N,/SDA*
X167005000Y-86995000D03*
X164465000Y-90805000D03*
X148590000Y-111125000D03*
X167640000Y-103505000D03*
X146050000Y-116205000D03*
G04 #@! TO.N,/CCS*
X151765000Y-101600000D03*
X161290000Y-103505000D03*
G04 #@! TO.N,/XDCS*
X149225000Y-105410000D03*
X161290000Y-95250000D03*
G04 #@! TO.N,/CRST*
X166370000Y-114935000D03*
X148590000Y-101600000D03*
X174625000Y-114300000D03*
X161290000Y-102235000D03*
G04 #@! TO.N,/ALS_INT*
X165735000Y-111125000D03*
G04 #@! TO.N,/OLRST*
X160020000Y-118110000D03*
G04 #@! TO.N,/ALRM_SW*
X157480000Y-94615000D03*
G04 #@! TO.N,Net-(C24-Pad1)*
X153035000Y-116205000D03*
X158750000Y-115570000D03*
X158115000Y-110490000D03*
G04 #@! TO.N,/LOW_BATT*
X158115000Y-103505000D03*
G04 #@! TO.N,/ON_BATT*
X158750000Y-93980000D03*
G04 #@! TO.N,/SD_DET*
X168275000Y-94615000D03*
X144780000Y-90170000D03*
X161925000Y-90805000D03*
G04 #@! TO.N,/P42*
X170180000Y-103505000D03*
G04 #@! TO.N,/P43*
X174625000Y-102870000D03*
G04 #@! TO.N,/P44*
X174625000Y-104140000D03*
G04 #@! TO.N,/P46*
X170815000Y-104775000D03*
G04 #@! TO.N,/P45*
X174625000Y-105410000D03*
G04 #@! TO.N,/Peripherals/LED_NET*
X200025000Y-104140000D03*
G04 #@! TO.N,/Peripherals/GPIO_1*
X192405000Y-103505000D03*
G04 #@! TO.N,/Peripherals/GPIO_3*
X198755000Y-102870000D03*
G04 #@! TO.N,/Peripherals/LED_WIFI*
X198755000Y-104140000D03*
G04 #@! TO.N,/Peripherals/LED_ERR*
X205105000Y-103505000D03*
G04 #@! TO.N,/USB Serial/LED_TX*
X135255000Y-100330000D03*
G04 #@! TO.N,/USB Serial/LED_RX*
X135255000Y-103505000D03*
G04 #@! TO.N,/USB Serial/URXD*
X136525000Y-111760000D03*
X133350000Y-104775000D03*
G04 #@! TO.N,/USB Serial/UTXD*
X134620000Y-104775000D03*
X117475000Y-113030000D03*
D15*
G04 #@! TO.N,UVCC*
X136525000Y-100965000D03*
X152400000Y-120015000D03*
X122555000Y-105410000D03*
X122555000Y-106680000D03*
X136525000Y-102235000D03*
X124460000Y-122555000D03*
D22*
G04 #@! TO.N,/USB Serial/RESET*
X130810000Y-118745000D03*
X118745000Y-116205000D03*
G04 #@! TO.N,/PE0*
X152400000Y-114935000D03*
X125095000Y-114935000D03*
X121285000Y-120650000D03*
G04 #@! TO.N,/USB Serial/RESET-M*
X131445000Y-103505000D03*
X125095000Y-116205000D03*
G04 #@! TD*
D24*
G04 #@! TO.N,GND*
X120650000Y-94615000D02*
X120650000Y-97155000D01*
X114300000Y-103505000D02*
X112395000Y-103505000D01*
X120650000Y-97155000D02*
X114300000Y-103505000D01*
D25*
X170935000Y-99060000D02*
X173355000Y-99060000D01*
X173355000Y-99060000D02*
X174625000Y-97790000D01*
D26*
G04 #@! TO.N,/MISO*
X171450000Y-121285000D02*
X171450000Y-119380000D01*
X168910000Y-121285000D02*
X171450000Y-121285000D01*
X167640000Y-120015000D02*
X168910000Y-121285000D01*
X167640000Y-118745000D02*
X167640000Y-120015000D01*
X167005000Y-118110000D02*
X167640000Y-118745000D01*
X163830000Y-118745000D02*
X164465000Y-118110000D01*
X164465000Y-118110000D02*
X167005000Y-118110000D01*
X185420000Y-111760000D02*
X187325000Y-109855000D01*
X171450000Y-121285000D02*
X180975000Y-121285000D01*
X185420000Y-116840000D02*
X185420000Y-111760000D01*
X180975000Y-121285000D02*
X185420000Y-116840000D01*
X161290000Y-116840000D02*
X162560000Y-115570000D01*
X162560000Y-115570000D02*
X162560000Y-113665000D01*
X162560000Y-113665000D02*
X160655000Y-111760000D01*
X160655000Y-111760000D02*
X160655000Y-110490000D01*
X156845000Y-97155000D02*
X156210000Y-96520000D01*
X156210000Y-96520000D02*
X147320000Y-96520000D01*
X147320000Y-96520000D02*
X145415000Y-98425000D01*
X145415000Y-98425000D02*
X145415000Y-99695000D01*
X145415000Y-99695000D02*
X144145000Y-100965000D01*
D24*
G04 #@! TO.N,+5V*
X118110000Y-97790000D02*
X118110000Y-94615000D01*
X112395000Y-100965000D02*
X114935000Y-100965000D01*
X114935000Y-100965000D02*
X118110000Y-97790000D01*
D26*
G04 #@! TO.N,/SCK*
X151765000Y-97790000D02*
X150495000Y-99060000D01*
X154305000Y-97790000D02*
X151765000Y-97790000D01*
X162560000Y-102235000D02*
X161290000Y-100965000D01*
X161290000Y-100965000D02*
X157480000Y-100965000D01*
X157480000Y-100965000D02*
X154305000Y-97790000D01*
G04 #@! TO.N,/MOSI*
X186055000Y-121285000D02*
X184785000Y-120015000D01*
X196215000Y-118745000D02*
X193675000Y-121285000D01*
X193675000Y-121285000D02*
X186055000Y-121285000D01*
X170180000Y-118110000D02*
X168910000Y-116840000D01*
X172720000Y-118110000D02*
X170180000Y-118110000D01*
X174625000Y-120015000D02*
X172720000Y-118110000D01*
X176530000Y-120015000D02*
X174625000Y-120015000D01*
X151130000Y-95885000D02*
X149860000Y-94615000D01*
X162560000Y-100965000D02*
X157480000Y-95885000D01*
X157480000Y-95885000D02*
X151130000Y-95885000D01*
G04 #@! TO.N,/RESET*
X165100000Y-119380000D02*
X166370000Y-119380000D01*
X163830000Y-120015000D02*
X164465000Y-120015000D01*
X164465000Y-120015000D02*
X165100000Y-119380000D01*
G04 #@! TO.N,/USB Serial/RESET-USB*
X114935000Y-105410000D02*
X114935000Y-107315000D01*
X120650000Y-99695000D02*
X114935000Y-105410000D01*
X126365000Y-99695000D02*
X120650000Y-99695000D01*
X127635000Y-94615000D02*
X127635000Y-98425000D01*
X127635000Y-98425000D02*
X126365000Y-99695000D01*
G04 #@! TO.N,/USB Serial/MISO-USB*
X109855000Y-106680000D02*
X109855000Y-107950000D01*
X109855000Y-107315000D02*
X109855000Y-106680000D01*
X120650000Y-98425000D02*
X113665000Y-105410000D01*
X113665000Y-105410000D02*
X110490000Y-105410000D01*
X126365000Y-98425000D02*
X120650000Y-98425000D01*
X110490000Y-105410000D02*
X109855000Y-106045000D01*
X109855000Y-106045000D02*
X109855000Y-106680000D01*
G04 #@! TO.N,/USB Serial/SCK-USB*
X127000000Y-103505000D02*
X130175000Y-100330000D01*
X130175000Y-100330000D02*
X131445000Y-100330000D01*
X121285000Y-103505000D02*
X127000000Y-103505000D01*
X116205000Y-108585000D02*
X121285000Y-103505000D01*
X113665000Y-108585000D02*
X116205000Y-108585000D01*
X112395000Y-107315000D02*
X113665000Y-108585000D01*
G04 #@! TO.N,/USB Serial/MOSI-USB*
X127635000Y-104140000D02*
X121920000Y-104140000D01*
X112395000Y-111125000D02*
X112395000Y-109855000D01*
X116840000Y-110490000D02*
X115570000Y-111760000D01*
X128905000Y-102870000D02*
X127635000Y-104140000D01*
X121920000Y-104140000D02*
X116840000Y-109220000D01*
X116840000Y-109220000D02*
X116840000Y-110490000D01*
X113030000Y-111760000D02*
X112395000Y-111125000D01*
X115570000Y-111760000D02*
X113030000Y-111760000D01*
G04 #@! TO.N,/USB Serial/D-*
X130695700Y-94983300D02*
X131000500Y-94678500D01*
X130695700Y-98191669D02*
X130695700Y-94983300D01*
X127994211Y-101324211D02*
X127994211Y-100893158D01*
X127994211Y-100893158D02*
X130695700Y-98191669D01*
G04 #@! TO.N,/USB Serial/D+*
X130289300Y-94983300D02*
X129984500Y-94678500D01*
X130289300Y-98023331D02*
X130289300Y-94983300D01*
X127275789Y-100605789D02*
X127706842Y-100605789D01*
X127706842Y-100605789D02*
X130289300Y-98023331D01*
G04 #@! TO.N,Net-(C13-Pad1)*
X123190000Y-117820000D02*
X125805000Y-117820000D01*
X119305000Y-117820000D02*
X123190000Y-117820000D01*
X123825000Y-109855000D02*
X126365000Y-109855000D01*
X123190000Y-117820000D02*
X123190000Y-110490000D01*
X123190000Y-110490000D02*
X123825000Y-109855000D01*
G04 #@! TO.N,/DREQ*
X153670000Y-114300000D02*
X161290000Y-114300000D01*
X146050000Y-112395000D02*
X151765000Y-112395000D01*
X151765000Y-112395000D02*
X153670000Y-114300000D01*
G04 #@! TO.N,/A_SHDN*
X167640000Y-98425000D02*
X167640000Y-97155000D01*
X167640000Y-97155000D02*
X170180000Y-94615000D01*
X170180000Y-94615000D02*
X170180000Y-89535000D01*
X170180000Y-89535000D02*
X171450000Y-88265000D01*
X176530000Y-88265000D02*
X177800000Y-86995000D01*
X171450000Y-88265000D02*
X176530000Y-88265000D01*
G04 #@! TO.N,Net-(B1-PadP)*
X187335000Y-100955000D02*
X187335000Y-99060000D01*
X181610000Y-90170000D02*
X180340000Y-91440000D01*
X181610000Y-88265000D02*
X181610000Y-90170000D01*
X180340000Y-91440000D02*
X180340000Y-99060000D01*
X180340000Y-99060000D02*
X182880000Y-101600000D01*
X182880000Y-101600000D02*
X186690000Y-101600000D01*
X186690000Y-101600000D02*
X187335000Y-100955000D01*
G04 #@! TO.N,/RTC_INT*
X166370000Y-92710000D02*
X167640000Y-91440000D01*
X166370000Y-100965000D02*
X166370000Y-92710000D01*
X167640000Y-102235000D02*
X166370000Y-100965000D01*
G04 #@! TO.N,/Peripherals/WRST_3V3*
X204470000Y-108585000D02*
X202565000Y-108585000D01*
X202565000Y-108585000D02*
X200025000Y-111125000D01*
X200025000Y-111125000D02*
X194310000Y-111125000D01*
X194310000Y-111125000D02*
X189865000Y-115570000D01*
X189865000Y-115570000D02*
X189865000Y-116840000D01*
G04 #@! TO.N,/Peripherals/WEN_3V3*
X193675000Y-110490000D02*
X193675000Y-104140000D01*
X189230000Y-114935000D02*
X193675000Y-110490000D01*
G04 #@! TO.N,/Peripherals/WWAKE_3V3*
X196215000Y-115570000D02*
X194945000Y-114300000D01*
X196215000Y-116840000D02*
X196215000Y-115570000D01*
X191770000Y-96520000D02*
X191770000Y-100965000D01*
X191770000Y-100965000D02*
X188595000Y-104140000D01*
X190500000Y-95250000D02*
X191770000Y-96520000D01*
X188595000Y-104140000D02*
X188595000Y-112395000D01*
G04 #@! TO.N,/Peripherals/WMOSI_3V3*
X192405000Y-120015000D02*
X191135000Y-118745000D01*
X191135000Y-118745000D02*
X191135000Y-116205000D01*
G04 #@! TO.N,/Peripherals/WCS_3V3*
X186055000Y-112395000D02*
X187325000Y-111125000D01*
X186055000Y-120015000D02*
X186055000Y-112395000D01*
G04 #@! TO.N,/Peripherals/WSCK_3V3*
X193040000Y-116840000D02*
X193040000Y-113665000D01*
X192405000Y-118745000D02*
X192405000Y-117475000D01*
X192405000Y-117475000D02*
X193040000Y-116840000D01*
G04 #@! TO.N,/WCS*
X172370000Y-110775000D02*
X170465000Y-110775000D01*
X176530000Y-114935000D02*
X172370000Y-110775000D01*
X179705000Y-118745000D02*
X177800000Y-118745000D01*
X176530000Y-117475000D02*
X176530000Y-114935000D01*
X177800000Y-118745000D02*
X176530000Y-117475000D01*
G04 #@! TO.N,/WIRQ*
X161925000Y-110490000D02*
X162560000Y-109855000D01*
X162560000Y-109855000D02*
X166370000Y-109855000D01*
X166370000Y-109855000D02*
X169545000Y-113030000D01*
X169545000Y-113030000D02*
X172085000Y-113030000D01*
X187960000Y-103505000D02*
X187960000Y-107315000D01*
X190500000Y-96520000D02*
X190500000Y-100965000D01*
X187960000Y-107315000D02*
X184150000Y-111125000D01*
X190500000Y-100965000D02*
X187960000Y-103505000D01*
G04 #@! TO.N,/Peripherals/CSCK_3V3*
X150495000Y-100330000D02*
X147320000Y-100330000D01*
X151765000Y-99060000D02*
X150495000Y-100330000D01*
X147320000Y-100330000D02*
X145415000Y-102235000D01*
X141605000Y-103505000D02*
X142875000Y-102235000D01*
X142875000Y-102235000D02*
X145415000Y-102235000D01*
G04 #@! TO.N,/SDCS*
X153035000Y-107950000D02*
X153035000Y-108585000D01*
X153670000Y-107315000D02*
X153035000Y-107950000D01*
X159385000Y-107315000D02*
X153670000Y-107315000D01*
X158115000Y-99695000D02*
X157480000Y-99695000D01*
X157480000Y-99695000D02*
X154940000Y-97155000D01*
X154940000Y-97155000D02*
X147955000Y-97155000D01*
X147955000Y-97155000D02*
X146685000Y-98425000D01*
G04 #@! TO.N,/PIX_LAMP*
X142875000Y-109855000D02*
X141605000Y-111125000D01*
X146685000Y-109855000D02*
X142875000Y-109855000D01*
X165100000Y-103505000D02*
X163195000Y-105410000D01*
X157480000Y-105410000D02*
X156845000Y-106045000D01*
X156845000Y-106045000D02*
X150495000Y-106045000D01*
X163195000Y-105410000D02*
X157480000Y-105410000D01*
X150495000Y-106045000D02*
X146685000Y-109855000D01*
G04 #@! TO.N,/PIX_CLK*
X157480000Y-106680000D02*
X151130000Y-106680000D01*
X151130000Y-106680000D02*
X146685000Y-111125000D01*
X163830000Y-106045000D02*
X158115000Y-106045000D01*
X165100000Y-104775000D02*
X163830000Y-106045000D01*
X146685000Y-111125000D02*
X144145000Y-111125000D01*
X158115000Y-106045000D02*
X157480000Y-106680000D01*
G04 #@! TO.N,/KCHG*
X174625000Y-100330000D02*
X178435000Y-100330000D01*
X178435000Y-100330000D02*
X179705000Y-99060000D01*
X179705000Y-99060000D02*
X179705000Y-90805000D01*
X179705000Y-90805000D02*
X180340000Y-90170000D01*
X180340000Y-90170000D02*
X180340000Y-86995000D01*
G04 #@! TO.N,/SCL*
X166370000Y-85725000D02*
X165735000Y-86360000D01*
X163195000Y-86360000D02*
X165735000Y-86360000D01*
X173990000Y-85725000D02*
X175260000Y-86995000D01*
X166370000Y-85725000D02*
X173990000Y-85725000D01*
X165735000Y-86995000D02*
X165735000Y-86360000D01*
X166370000Y-103505000D02*
X165100000Y-102235000D01*
X166370000Y-104775000D02*
X166370000Y-103505000D01*
X165100000Y-102235000D02*
X165100000Y-91440000D01*
X165100000Y-91440000D02*
X166370000Y-90170000D01*
X166370000Y-90170000D02*
X166370000Y-87630000D01*
X166370000Y-87630000D02*
X165735000Y-86995000D01*
X166370000Y-106045000D02*
X166370000Y-104775000D01*
X163830000Y-108585000D02*
X166370000Y-106045000D01*
X156210000Y-108585000D02*
X163830000Y-108585000D01*
X151765000Y-109855000D02*
X154940000Y-109855000D01*
X154940000Y-109855000D02*
X156210000Y-108585000D01*
X147320000Y-116840000D02*
X146050000Y-118110000D01*
X146050000Y-118110000D02*
X137795000Y-118110000D01*
X136525000Y-119380000D02*
X135255000Y-119380000D01*
X137795000Y-118110000D02*
X136525000Y-119380000D01*
X134620000Y-120015000D02*
X134620000Y-122555000D01*
X147320000Y-116205000D02*
X147320000Y-116840000D01*
X135255000Y-119380000D02*
X134620000Y-120015000D01*
G04 #@! TO.N,/SDA*
X163830000Y-90805000D02*
X164465000Y-90805000D01*
X163195000Y-88900000D02*
X163195000Y-90170000D01*
X163195000Y-90170000D02*
X163830000Y-90805000D01*
X165735000Y-92075000D02*
X167005000Y-90805000D01*
X167640000Y-103505000D02*
X165735000Y-101600000D01*
X167005000Y-90805000D02*
X167005000Y-86995000D01*
X165735000Y-101600000D02*
X165735000Y-92075000D01*
X154940000Y-111125000D02*
X148590000Y-111125000D01*
X156845000Y-109220000D02*
X154940000Y-111125000D01*
X167640000Y-103505000D02*
X167640000Y-106045000D01*
X164465000Y-109220000D02*
X156845000Y-109220000D01*
X167640000Y-106045000D02*
X164465000Y-109220000D01*
X132080000Y-120015000D02*
X132080000Y-122555000D01*
X146050000Y-116840000D02*
X145415000Y-117475000D01*
X146050000Y-116205000D02*
X146050000Y-116840000D01*
X145415000Y-117475000D02*
X137160000Y-117475000D01*
X137160000Y-117475000D02*
X135890000Y-118745000D01*
X135890000Y-118745000D02*
X133350000Y-118745000D01*
X133350000Y-118745000D02*
X132080000Y-120015000D01*
G04 #@! TO.N,/CCS*
X153035000Y-101600000D02*
X151765000Y-101600000D01*
X153670000Y-102235000D02*
X153035000Y-101600000D01*
X161290000Y-103505000D02*
X160020000Y-102235000D01*
X160020000Y-102235000D02*
X153670000Y-102235000D01*
G04 #@! TO.N,/XDCS*
X156210000Y-105410000D02*
X149225000Y-105410000D01*
X156845000Y-104775000D02*
X156210000Y-105410000D01*
X162560000Y-104775000D02*
X156845000Y-104775000D01*
X161290000Y-98425000D02*
X163830000Y-100965000D01*
X163830000Y-103505000D02*
X162560000Y-104775000D01*
X163830000Y-100965000D02*
X163830000Y-103505000D01*
X161290000Y-95250000D02*
X161290000Y-98425000D01*
G04 #@! TO.N,/CRST*
X168910000Y-114935000D02*
X166370000Y-114935000D01*
X174625000Y-114300000D02*
X169545000Y-114300000D01*
X169545000Y-114300000D02*
X168910000Y-114935000D01*
X150495000Y-101600000D02*
X148590000Y-101600000D01*
X160655000Y-101600000D02*
X154305000Y-101600000D01*
X161290000Y-102235000D02*
X160655000Y-101600000D01*
X154305000Y-101600000D02*
X153035000Y-100330000D01*
X153035000Y-100330000D02*
X151765000Y-100330000D01*
X151765000Y-100330000D02*
X150495000Y-101600000D01*
G04 #@! TO.N,/ALS_INT*
X140335000Y-119380000D02*
X139700000Y-120015000D01*
X147320000Y-119380000D02*
X140335000Y-119380000D01*
X148590000Y-118110000D02*
X147320000Y-119380000D01*
X163195000Y-113665000D02*
X163195000Y-116205000D01*
X155575000Y-118110000D02*
X148590000Y-118110000D01*
X139700000Y-120015000D02*
X139700000Y-122555000D01*
X163195000Y-116205000D02*
X160020000Y-119380000D01*
X160020000Y-119380000D02*
X156845000Y-119380000D01*
X165735000Y-111125000D02*
X163195000Y-113665000D01*
X156845000Y-119380000D02*
X155575000Y-118110000D01*
G04 #@! TO.N,/OLRST*
X137160000Y-120015000D02*
X137160000Y-122555000D01*
X138430000Y-118745000D02*
X137160000Y-120015000D01*
X146685000Y-118745000D02*
X138430000Y-118745000D01*
X147955000Y-117475000D02*
X146685000Y-118745000D01*
X160020000Y-118110000D02*
X156845000Y-118110000D01*
X156845000Y-118110000D02*
X156210000Y-117475000D01*
X156210000Y-117475000D02*
X147955000Y-117475000D01*
G04 #@! TO.N,/ALRM_SW*
X157480000Y-94615000D02*
X155575000Y-92710000D01*
X147955000Y-94615000D02*
X145415000Y-94615000D01*
X145415000Y-94615000D02*
X141605000Y-98425000D01*
X155575000Y-92710000D02*
X149860000Y-92710000D01*
X149860000Y-92710000D02*
X147955000Y-94615000D01*
G04 #@! TO.N,Net-(C24-Pad1)*
X156210000Y-116205000D02*
X153035000Y-116205000D01*
X156845000Y-115570000D02*
X156210000Y-116205000D01*
X158750000Y-115570000D02*
X156845000Y-115570000D01*
X158750000Y-111125000D02*
X158750000Y-112395000D01*
X158115000Y-110490000D02*
X158750000Y-111125000D01*
G04 #@! TO.N,/LOW_BATT*
X140335000Y-114300000D02*
X139065000Y-115570000D01*
X140335000Y-105410000D02*
X140335000Y-114300000D01*
X147320000Y-104775000D02*
X140970000Y-104775000D01*
X150495000Y-104140000D02*
X147955000Y-104140000D01*
X140970000Y-104775000D02*
X140335000Y-105410000D01*
X147955000Y-104140000D02*
X147320000Y-104775000D01*
X151130000Y-104775000D02*
X150495000Y-104140000D01*
X139065000Y-115570000D02*
X137795000Y-115570000D01*
X155575000Y-104775000D02*
X151130000Y-104775000D01*
X158115000Y-103505000D02*
X156845000Y-103505000D01*
X156845000Y-103505000D02*
X155575000Y-104775000D01*
G04 #@! TO.N,/ON_BATT*
X156210000Y-91440000D02*
X158750000Y-93980000D01*
X146685000Y-91440000D02*
X156210000Y-91440000D01*
X139700000Y-98425000D02*
X146685000Y-91440000D01*
X139700000Y-112395000D02*
X139700000Y-98425000D01*
X137795000Y-113030000D02*
X139065000Y-113030000D01*
X139065000Y-113030000D02*
X139700000Y-112395000D01*
G04 #@! TO.N,/SD_DET*
X144780000Y-90170000D02*
X146050000Y-90170000D01*
X146685000Y-90805000D02*
X161925000Y-90805000D01*
X146050000Y-90170000D02*
X146685000Y-90805000D01*
G04 #@! TO.N,/P42*
X181610000Y-106045000D02*
X181610000Y-109220000D01*
X177165000Y-101600000D02*
X181610000Y-106045000D01*
X173990000Y-101600000D02*
X177165000Y-101600000D01*
X170180000Y-103505000D02*
X172085000Y-103505000D01*
X172085000Y-103505000D02*
X173990000Y-101600000D01*
G04 #@! TO.N,/P43*
X179705000Y-106045000D02*
X179705000Y-109220000D01*
X174625000Y-102870000D02*
X176530000Y-102870000D01*
X176530000Y-102870000D02*
X179705000Y-106045000D01*
G04 #@! TO.N,/P44*
X177800000Y-106045000D02*
X177800000Y-109220000D01*
X174625000Y-104140000D02*
X175895000Y-104140000D01*
X175895000Y-104140000D02*
X177800000Y-106045000D01*
G04 #@! TO.N,/P46*
X173990000Y-106045000D02*
X173990000Y-109220000D01*
X172720000Y-104775000D02*
X173990000Y-106045000D01*
X170815000Y-104775000D02*
X172720000Y-104775000D01*
G04 #@! TO.N,/P45*
X175895000Y-106045000D02*
X175895000Y-109220000D01*
X174625000Y-105410000D02*
X175260000Y-105410000D01*
X175260000Y-105410000D02*
X175895000Y-106045000D01*
G04 #@! TO.N,/Peripherals/LED_NET*
X200025000Y-104140000D02*
X201295000Y-102870000D01*
X201295000Y-102870000D02*
X201295000Y-95250000D01*
G04 #@! TO.N,/Peripherals/GPIO_1*
X192405000Y-97155000D02*
X193675000Y-95885000D01*
X192405000Y-103505000D02*
X192405000Y-97155000D01*
X193675000Y-95885000D02*
X193675000Y-95250000D01*
G04 #@! TO.N,/Peripherals/GPIO_3*
X198755000Y-102870000D02*
X198755000Y-98425000D01*
X198755000Y-98425000D02*
X196215000Y-95885000D01*
X196215000Y-95885000D02*
X196215000Y-95250000D01*
G04 #@! TO.N,/Peripherals/LED_WIFI*
X198755000Y-97155000D02*
X198755000Y-95250000D01*
X198755000Y-104140000D02*
X200025000Y-102870000D01*
X200025000Y-102870000D02*
X200025000Y-98425000D01*
X200025000Y-98425000D02*
X198755000Y-97155000D01*
G04 #@! TO.N,/Peripherals/LED_ERR*
X203835000Y-102235000D02*
X203835000Y-95250000D01*
X205105000Y-103505000D02*
X203835000Y-102235000D01*
G04 #@! TO.N,/USB Serial/LED_TX*
X135255000Y-100330000D02*
X133985000Y-99060000D01*
X133985000Y-99060000D02*
X133985000Y-95885000D01*
X133985000Y-95885000D02*
X130810000Y-92710000D01*
X130810000Y-92710000D02*
X130810000Y-90170000D01*
G04 #@! TO.N,/USB Serial/LED_RX*
X128905000Y-93345000D02*
X128270000Y-92710000D01*
X130810000Y-93345000D02*
X128905000Y-93345000D01*
X135255000Y-103505000D02*
X133350000Y-101600000D01*
X128270000Y-92710000D02*
X128270000Y-90170000D01*
X133350000Y-95885000D02*
X130810000Y-93345000D01*
X133350000Y-101600000D02*
X133350000Y-95885000D01*
G04 #@! TO.N,/USB Serial/URXD*
X133350000Y-104775000D02*
X133350000Y-107315000D01*
X133350000Y-107315000D02*
X136525000Y-110490000D01*
X136525000Y-110490000D02*
X136525000Y-111760000D01*
G04 #@! TO.N,/USB Serial/UTXD*
X125730000Y-104775000D02*
X128270000Y-104775000D01*
X117475000Y-113030000D02*
X125730000Y-104775000D01*
X130810000Y-102235000D02*
X132715000Y-102235000D01*
X134620000Y-104140000D02*
X134620000Y-104775000D01*
X128270000Y-104775000D02*
X130810000Y-102235000D01*
X132715000Y-102235000D02*
X134620000Y-104140000D01*
D25*
G04 #@! TO.N,UVCC*
X133350000Y-92075000D02*
X136525000Y-95250000D01*
X133350000Y-90170000D02*
X133350000Y-92075000D01*
X136525000Y-95250000D02*
X136525000Y-100965000D01*
X117475000Y-109855000D02*
X120650000Y-106680000D01*
X116205000Y-112395000D02*
X117475000Y-111125000D01*
X109855000Y-109855000D02*
X109855000Y-111125000D01*
X111125000Y-112395000D02*
X116205000Y-112395000D01*
X109855000Y-111125000D02*
X111125000Y-112395000D01*
X117475000Y-111125000D02*
X117475000Y-109855000D01*
X120650000Y-106680000D02*
X122555000Y-106680000D01*
D26*
G04 #@! TO.N,/USB Serial/RESET*
X118110000Y-116840000D02*
X118110000Y-118745000D01*
X118110000Y-118745000D02*
X118745000Y-119380000D01*
X118745000Y-119380000D02*
X127000000Y-119380000D01*
X127000000Y-119380000D02*
X127635000Y-118745000D01*
X118745000Y-116205000D02*
X118110000Y-116840000D01*
X127635000Y-118745000D02*
X130810000Y-118745000D01*
G04 #@! TO.N,/PE0*
X125095000Y-114935000D02*
X134620000Y-114935000D01*
X136525000Y-116840000D02*
X139065000Y-116840000D01*
X134620000Y-114935000D02*
X136525000Y-116840000D01*
X139065000Y-116840000D02*
X140970000Y-114935000D01*
X140970000Y-114935000D02*
X152400000Y-114935000D01*
G04 #@! TO.N,/USB Serial/RESET-M*
X123825000Y-114935000D02*
X123825000Y-113030000D01*
X125095000Y-116205000D02*
X123825000Y-114935000D01*
X123825000Y-113030000D02*
X125095000Y-111760000D01*
X125095000Y-111760000D02*
X128270000Y-111760000D01*
X128270000Y-111760000D02*
X131445000Y-108585000D01*
X131445000Y-108585000D02*
X131445000Y-103505000D01*
G04 #@! TD*
D25*
G04 #@! TO.N,+5V*
G36*
X130048000Y-120454775D02*
X129908675Y-120380572D01*
X129863112Y-120374291D01*
X129667000Y-120498531D01*
X129667000Y-122428000D01*
X129687000Y-122428000D01*
X129687000Y-122682000D01*
X129667000Y-122682000D01*
X129667000Y-122702000D01*
X129413000Y-122702000D01*
X129413000Y-122682000D01*
X128270000Y-122682000D01*
X128270000Y-123063000D01*
X126492000Y-123063000D01*
X126492000Y-121475500D01*
X128270000Y-121475500D01*
X128270000Y-122428000D01*
X129413000Y-122428000D01*
X129413000Y-120498531D01*
X129216888Y-120374291D01*
X129171325Y-120380572D01*
X128731777Y-120614672D01*
X128415274Y-120999159D01*
X128270000Y-121475500D01*
X126492000Y-121475500D01*
X126492000Y-120142000D01*
X130048000Y-120142000D01*
X130048000Y-120454775D01*
X130048000Y-120454775D01*
G37*
X130048000Y-120454775D02*
X129908675Y-120380572D01*
X129863112Y-120374291D01*
X129667000Y-120498531D01*
X129667000Y-122428000D01*
X129687000Y-122428000D01*
X129687000Y-122682000D01*
X129667000Y-122682000D01*
X129667000Y-122702000D01*
X129413000Y-122702000D01*
X129413000Y-122682000D01*
X128270000Y-122682000D01*
X128270000Y-123063000D01*
X126492000Y-123063000D01*
X126492000Y-121475500D01*
X128270000Y-121475500D01*
X128270000Y-122428000D01*
X129413000Y-122428000D01*
X129413000Y-120498531D01*
X129216888Y-120374291D01*
X129171325Y-120380572D01*
X128731777Y-120614672D01*
X128415274Y-120999159D01*
X128270000Y-121475500D01*
X126492000Y-121475500D01*
X126492000Y-120142000D01*
X130048000Y-120142000D01*
X130048000Y-120454775D01*
G04 #@! TO.N,GND*
G36*
X145923000Y-123063000D02*
X143510000Y-123063000D01*
X143510000Y-122682000D01*
X142367000Y-122682000D01*
X142367000Y-122702000D01*
X142113000Y-122702000D01*
X142113000Y-122682000D01*
X142093000Y-122682000D01*
X142093000Y-122428000D01*
X142113000Y-122428000D01*
X142113000Y-120498531D01*
X142367000Y-120498531D01*
X142367000Y-122428000D01*
X143510000Y-122428000D01*
X143510000Y-121475500D01*
X143364726Y-120999159D01*
X143048223Y-120614672D01*
X142608675Y-120380572D01*
X142563112Y-120374291D01*
X142367000Y-120498531D01*
X142113000Y-120498531D01*
X141916888Y-120374291D01*
X141871325Y-120380572D01*
X141732000Y-120454775D01*
X141732000Y-120142000D01*
X145923000Y-120142000D01*
X145923000Y-123063000D01*
X145923000Y-123063000D01*
G37*
X145923000Y-123063000D02*
X143510000Y-123063000D01*
X143510000Y-122682000D01*
X142367000Y-122682000D01*
X142367000Y-122702000D01*
X142113000Y-122702000D01*
X142113000Y-122682000D01*
X142093000Y-122682000D01*
X142093000Y-122428000D01*
X142113000Y-122428000D01*
X142113000Y-120498531D01*
X142367000Y-120498531D01*
X142367000Y-122428000D01*
X143510000Y-122428000D01*
X143510000Y-121475500D01*
X143364726Y-120999159D01*
X143048223Y-120614672D01*
X142608675Y-120380572D01*
X142563112Y-120374291D01*
X142367000Y-120498531D01*
X142113000Y-120498531D01*
X141916888Y-120374291D01*
X141871325Y-120380572D01*
X141732000Y-120454775D01*
X141732000Y-120142000D01*
X145923000Y-120142000D01*
X145923000Y-123063000D01*
G04 #@! TD*
D27*
X195580000Y-113030000D03*
X205105000Y-92075028D03*
X180340000Y-114300000D03*
X173990000Y-96520000D03*
X162560000Y-93980000D03*
X158750000Y-89535000D03*
X180340000Y-117475000D03*
X184785000Y-95885000D03*
X179070000Y-111760000D03*
X160655000Y-93980000D03*
X198120000Y-113030000D03*
X191770000Y-111125000D03*
X115570000Y-90170000D03*
X115570000Y-92075000D03*
X115570000Y-93980000D03*
X115570000Y-95885000D03*
X182245000Y-96520000D03*
X181610000Y-97790000D03*
X179070000Y-101600000D03*
X144780000Y-91440000D03*
X154305000Y-94615000D03*
X146685000Y-95885000D03*
X178435000Y-89535000D03*
X178435000Y-90805000D03*
X174625000Y-90170000D03*
X201295000Y-107950000D03*
X175260000Y-111760000D03*
X163830000Y-117475000D03*
X144145000Y-122555000D03*
X145415000Y-122555000D03*
X158115000Y-116840000D03*
X154305000Y-108585000D03*
X154305000Y-103505000D03*
X149225000Y-116205000D03*
X172085000Y-89535000D03*
X154940000Y-120015000D03*
X118745000Y-104140000D03*
X134620000Y-106680000D03*
X134620000Y-111760000D03*
X134620000Y-116840000D03*
X131445000Y-116840000D03*
X128905000Y-116840000D03*
X128270000Y-107315000D03*
X131445000Y-111760000D03*
X122555000Y-121285000D03*
X191770000Y-122555000D03*
X197485000Y-115570000D03*
X125095000Y-107315000D03*
X174625000Y-97790000D03*
X187325000Y-109855000D03*
X155575000Y-94615000D03*
X163830000Y-118745000D03*
X161290000Y-116840000D03*
X160655000Y-110490000D03*
X156845000Y-97155000D03*
X173990000Y-93345000D03*
X173990000Y-94615000D03*
X174625000Y-117475000D03*
X163195000Y-111125000D03*
X147320000Y-113665000D03*
X168275000Y-93345000D03*
X170180000Y-107315000D03*
X161290000Y-89535000D03*
X173990000Y-92075000D03*
X149860000Y-113665000D03*
X154305000Y-99695000D03*
X149860000Y-120015000D03*
X136525000Y-106045000D03*
X136525000Y-104775000D03*
X138430000Y-120650000D03*
X121920000Y-116840000D03*
X154305000Y-113030000D03*
X128270000Y-120650000D03*
X127000000Y-120650000D03*
X162560000Y-120015000D03*
X150495000Y-99060000D03*
X162560000Y-102235000D03*
X149860000Y-94615000D03*
X184785000Y-120015000D03*
X196215000Y-118745000D03*
X176530000Y-120015000D03*
X162560000Y-100965000D03*
X169545000Y-109220000D03*
X163830000Y-120015000D03*
X112395000Y-90170000D03*
X112395000Y-92075000D03*
X109855000Y-90170000D03*
X109855000Y-92075000D03*
X127635000Y-94615000D03*
X126365000Y-98425000D03*
X131445000Y-100330000D03*
X128905000Y-102870000D03*
X127994211Y-101324211D03*
X131000500Y-94678500D03*
X129984500Y-94678500D03*
X127275789Y-100605789D03*
X137795000Y-95250000D03*
X122555000Y-102235000D03*
X125095000Y-89535000D03*
X125730000Y-93345000D03*
X125730000Y-92075000D03*
X133985000Y-94615000D03*
X161290000Y-114300000D03*
X146050000Y-112395000D03*
X167640000Y-98425000D03*
X195580000Y-104140000D03*
X190500000Y-104140000D03*
X182245000Y-94615000D03*
X182245000Y-92075000D03*
X182245000Y-93345000D03*
X196850000Y-120015000D03*
X181610000Y-88265000D03*
X167640000Y-91440000D03*
X167640000Y-102235000D03*
X189865000Y-116840000D03*
X204470000Y-108585000D03*
X193675000Y-104140000D03*
X189230000Y-114935000D03*
X188595000Y-112395000D03*
X194945000Y-114300000D03*
X196215000Y-116840000D03*
X190500000Y-95250000D03*
X191135000Y-116205000D03*
X192405000Y-120015000D03*
X187325000Y-111125000D03*
X186055000Y-120015000D03*
X193040000Y-113665000D03*
X192405000Y-118745000D03*
X170465000Y-110775000D03*
X179705000Y-118745000D03*
X172085000Y-113030000D03*
X184150000Y-111125000D03*
X161925000Y-110490000D03*
X190500000Y-96520000D03*
X148590000Y-99060000D03*
X153035000Y-93980000D03*
X151765000Y-99060000D03*
X146685000Y-98425000D03*
X153035000Y-108585000D03*
X159385000Y-107315000D03*
X158115000Y-99695000D03*
X147320000Y-93345000D03*
X146050000Y-107315000D03*
X151765000Y-94615000D03*
X163830000Y-99060000D03*
X165100000Y-103505000D03*
X165100000Y-104775000D03*
X174625000Y-100330000D03*
X166370000Y-85725000D03*
X166370000Y-104775000D03*
X151765000Y-109855000D03*
X147320000Y-116205000D03*
X167005000Y-86995000D03*
X164465000Y-90805000D03*
X148590000Y-111125000D03*
X167640000Y-103505000D03*
X146050000Y-116205000D03*
X151765000Y-101600000D03*
X161290000Y-103505000D03*
X149225000Y-105410000D03*
X161290000Y-95250000D03*
X166370000Y-114935000D03*
X148590000Y-101600000D03*
X174625000Y-114300000D03*
X161290000Y-102235000D03*
X165735000Y-111125000D03*
X160020000Y-118110000D03*
X157480000Y-94615000D03*
X153035000Y-116205000D03*
X158750000Y-115570000D03*
X158115000Y-110490000D03*
X158115000Y-103505000D03*
X158750000Y-93980000D03*
X168275000Y-94615000D03*
X144780000Y-90170000D03*
X161925000Y-90805000D03*
X170180000Y-103505000D03*
X174625000Y-102870000D03*
X174625000Y-104140000D03*
X170815000Y-104775000D03*
X174625000Y-105410000D03*
X200025000Y-104140000D03*
X192405000Y-103505000D03*
X198755000Y-102870000D03*
X198755000Y-104140000D03*
X205105000Y-103505000D03*
X135255000Y-100330000D03*
X135255000Y-103505000D03*
X136525000Y-111760000D03*
X133350000Y-104775000D03*
X134620000Y-104775000D03*
X117475000Y-113030000D03*
X136525000Y-100965000D03*
X152400000Y-120015000D03*
X122555000Y-105410000D03*
X122555000Y-106680000D03*
X136525000Y-102235000D03*
X124460000Y-122555000D03*
X130810000Y-118745000D03*
X118745000Y-116205000D03*
X152400000Y-114935000D03*
X125095000Y-114935000D03*
X121285000Y-120650000D03*
X131445000Y-103505000D03*
X125095000Y-116205000D03*
X125805000Y-113320000D03*
X119305000Y-113320000D03*
X119305000Y-117820000D03*
X125805000Y-117820000D03*
X202565000Y-111125000D03*
X205105000Y-111125000D03*
X201930000Y-116840000D03*
X201930000Y-114554000D03*
X199950266Y-115697000D03*
X199950266Y-117983000D03*
X201930000Y-119126000D03*
X203909734Y-117983000D03*
X203909734Y-115697000D03*
X139700000Y-90805000D03*
X139700000Y-88519000D03*
X137720266Y-89662000D03*
X137720266Y-91948000D03*
X139700000Y-93091000D03*
X141679734Y-91948000D03*
X141679734Y-89662000D03*
X113030000Y-116840000D03*
X113030000Y-114554000D03*
X111050266Y-115697000D03*
X111050266Y-117983000D03*
X113030000Y-119126000D03*
X115009734Y-117983000D03*
X115009734Y-115697000D03*
X195097400Y-99898200D03*
X116165000Y-86550000D03*
X112165000Y-86550000D03*
X109855000Y-98425000D03*
X112395000Y-98425000D03*
X109855000Y-100965000D03*
X112395000Y-100965000D03*
X109855000Y-103505000D03*
X112395000Y-103505000D03*
X166370000Y-116840000D03*
X166370000Y-119380000D03*
X168910000Y-116840000D03*
X168910000Y-119380000D03*
X171450000Y-116840000D03*
X171450000Y-119380000D03*
X180340000Y-86995000D03*
X177800000Y-86995000D03*
X175260000Y-86995000D03*
X172720000Y-86995000D03*
X114935000Y-109855000D03*
X114935000Y-107315000D03*
X112395000Y-109855000D03*
X112395000Y-107315000D03*
X109855000Y-109855000D03*
X109855000Y-107315000D03*
X141605000Y-98425000D03*
X144145000Y-98425000D03*
X141605000Y-100965000D03*
X144145000Y-100965000D03*
X141605000Y-103505000D03*
X144145000Y-103505000D03*
X141605000Y-106045000D03*
X144145000Y-106045000D03*
X141605000Y-108585000D03*
X144145000Y-108585000D03*
X141605000Y-111125000D03*
X144145000Y-111125000D03*
X141605000Y-113665000D03*
X144145000Y-113665000D03*
X141605000Y-116205000D03*
X144145000Y-116205000D03*
X137795000Y-115570000D03*
X137795000Y-113030000D03*
X137795000Y-110490000D03*
X137795000Y-107950000D03*
X183085000Y-99060000D03*
X175635000Y-99060000D03*
M02*
