M48
INCH,TZ
T1C0.0160
T2C0.0200
T3C0.0394
T4C0.0591
T5C0.1160
T6C0.0394
T7C0.0512
%
G90
G05
T1
X46500Y-42000
X48000Y-41500
X48647Y-36495
X48647Y-36995
X48750Y-42250
X48750Y-42750
X49250Y-41750
X49250Y-42250
X50230Y-41235
X50230Y-41635
X50750Y-46500
X51000Y-35750
X51125Y-37625
X51625Y-37625
X51750Y-35750
X52750Y-43250
X53500Y-43500
X55250Y-38000
X57000Y-35500
X57500Y-45750
X57750Y-38750
X58000Y-45750
X58500Y-39000
X58500Y-40000
X58500Y-43750
X58750Y-41500
X59000Y-37500
X59250Y-39000
X59750Y-39000
X59750Y-40000
X59750Y-43250
X60250Y-37250
X60250Y-42750
X60250Y-45750
X61250Y-37250
X62000Y-37250
X62000Y-44250
X62250Y-38750
X62250Y-41000
X62500Y-42500
X62500Y-45500
X62750Y-37500
X62750Y-39000
X62750Y-39500
X63000Y-43750
X63000Y-46500
X63250Y-37500
X63500Y-40000
X63500Y-40500
X63500Y-41000
X63500Y-46000
X63750Y-38750
X63750Y-43000
X64000Y-35750
X64000Y-36500
X64000Y-40000
X64250Y-43250
X64500Y-46750
X64500Y-47250
X64750Y-35750
X65000Y-40750
X65000Y-41500
X65250Y-43750
X65500Y-33750
X65500Y-39000
X65500Y-41250
X65500Y-45250
X65750Y-34250
X66000Y-36000
X66000Y-37000
X66000Y-40750
X66750Y-43000
X67000Y-41250
X67112Y-43612
X67250Y-37250
X67250Y-40750
X67250Y-41750
X68500Y-39750
X68750Y-40750
X68750Y-41250
X68750Y-45000
X69500Y-47250
X70750Y-46750
X71500Y-34750
X72750Y-47250
X73250Y-47250
X73750Y-43250
X73750Y-43750
X74250Y-44250
X74500Y-45250
X74750Y-46000
X75000Y-38000
X75250Y-45750
X75500Y-37500
X75750Y-40500
X75750Y-46750
X75750Y-47250
X76000Y-44750
X76250Y-41000
X76750Y-45000
X77250Y-46000
X77250Y-46750
X78250Y-40500
X78250Y-41000
X78750Y-41000
X80500Y-42750
X80750Y-40750
T2
X43250Y-35500
X43250Y-36250
X44250Y-35500
X44250Y-36250
X45250Y-38750
X45250Y-39250
X45250Y-39750
X45750Y-35500
X45750Y-36250
X45750Y-37000
X46000Y-42250
X46000Y-43250
X46250Y-45500
X47750Y-35500
X47750Y-36250
X47750Y-37000
X48250Y-39250
X49000Y-48250
X49250Y-41250
X49750Y-38250
X49750Y-45500
X50250Y-38750
X50500Y-47250
X50500Y-47750
X51500Y-39000
X51500Y-40500
X51500Y-41750
X51750Y-43500
X53500Y-37000
X53500Y-42500
X53500Y-44250
X53500Y-45000
X54500Y-47500
X56750Y-36000
X56750Y-48250
X57250Y-48250
X57500Y-42250
X57750Y-37750
X58000Y-37000
X58000Y-44750
X58500Y-45750
X58500Y-47000
X58500Y-47750
X59000Y-44750
X59750Y-37250
X60750Y-37250
X60750Y-39250
X60750Y-40750
X60750Y-42750
X60750Y-44500
X63000Y-37000
X63500Y-35250
X64250Y-37000
X64250Y-43750
X64500Y-46250
X66250Y-36500
X67000Y-42250
X67500Y-35250
X68500Y-36250
X68500Y-36750
X68500Y-37250
X68750Y-38000
X68750Y-38500
X68750Y-44000
X68750Y-46250
X70250Y-35500
X70250Y-36000
X70250Y-36500
X70500Y-40000
X70500Y-44000
X71000Y-45000
X71000Y-46250
X71500Y-38000
X71500Y-38500
X71750Y-36250
X71750Y-36750
X71750Y-37250
X72750Y-37750
X74750Y-41000
X75500Y-43750
X75500Y-48250
X76500Y-36750
X77000Y-41000
X77250Y-44500
X77500Y-47250
X77750Y-45500
X78000Y-44500
X79250Y-42500
X81000Y-36750
X54221Y-35300
X54221Y-36200
X55000Y-34850
X55000Y-36650
X55779Y-35300
X55779Y-36200
X43721Y-45550
X43721Y-46450
X44500Y-45100
X44500Y-46900
X45279Y-45550
X45279Y-46450
X78721Y-45550
X78721Y-46450
X79500Y-45100
X79500Y-46900
X80279Y-45550
X80279Y-46450
T3
X68000Y-34250
X69000Y-34250
X70000Y-34250
X71000Y-34250
X46970Y-44614
X46970Y-46386
X49530Y-44614
X49530Y-46386
X55750Y-38750
X55750Y-39750
X55750Y-40750
X55750Y-41750
X55750Y-42750
X55750Y-43750
X55750Y-44750
X55750Y-45750
X56750Y-38750
X56750Y-39750
X56750Y-40750
X56750Y-41750
X56750Y-42750
X56750Y-43750
X56750Y-44750
X56750Y-45750
X79750Y-43750
X80750Y-43750
X43250Y-42250
X43250Y-43250
X44250Y-42250
X44250Y-43250
X45250Y-42250
X45250Y-43250
X54250Y-42500
X54250Y-43500
X54250Y-44500
X54250Y-45500
X65500Y-46000
X65500Y-47000
X66500Y-46000
X66500Y-47000
X67500Y-46000
X67500Y-47000
X43500Y-38750
X43500Y-39750
X43500Y-40750
X44500Y-38750
X44500Y-39750
X44500Y-40750
T4
X76810Y-39330
T5
X55000Y-35750
X44500Y-46000
X79500Y-46000
T6
X69148Y-39000
T7
X44159Y-34075
X45734Y-34075
X72081Y-39000
T0
M30
