G04 #@! TF.GenerationSoftware,KiCad,Pcbnew,5.0.0-fee4fd1~65~ubuntu17.10.1*
G04 #@! TF.CreationDate,2018-11-08T19:54:44-05:00*
G04 #@! TF.ProjectId,motherboard,6D6F74686572626F6172642E6B696361,rev?*
G04 #@! TF.SameCoordinates,Original*
G04 #@! TF.FileFunction,Legend,Top*
G04 #@! TF.FilePolarity,Positive*
%FSLAX46Y46*%
G04 Gerber Fmt 4.6, Leading zero omitted, Abs format (unit mm)*
G04 Created by KiCad (PCBNEW 5.0.0-fee4fd1~65~ubuntu17.10.1) date Thu Nov  8 19:54:44 2018*
%MOMM*%
%LPD*%
G01*
G04 APERTURE LIST*
%ADD10C,0.200000*%
%ADD11C,0.180000*%
%ADD12C,0.150000*%
%ADD13C,0.400000*%
%ADD14C,0.300000*%
%ADD15C,0.152400*%
G04 APERTURE END LIST*
D10*
X194310000Y-112903000D02*
X192278000Y-112903000D01*
X194310000Y-112522000D02*
X194310000Y-112903000D01*
X161988500Y-92011500D02*
X163195000Y-92011500D01*
X161988500Y-93091000D02*
X161988500Y-92011500D01*
X178054000Y-112268000D02*
X179324000Y-112268000D01*
X173355000Y-109982000D02*
X173355000Y-111760000D01*
X173609000Y-109982000D02*
X173355000Y-109982000D01*
X155575000Y-98933000D02*
X155194000Y-98933000D01*
X149225000Y-114173000D02*
X149225000Y-113538000D01*
X147828000Y-114173000D02*
X149225000Y-114173000D01*
X131826000Y-105791000D02*
X131826000Y-105156000D01*
X132588000Y-105791000D02*
X131826000Y-105791000D01*
X147828000Y-117094000D02*
X147828000Y-113538000D01*
X145923000Y-117094000D02*
X148209000Y-117094000D01*
X151130000Y-109093000D02*
X150368000Y-109093000D01*
X151130000Y-108458000D02*
X151130000Y-109093000D01*
X155575000Y-99822000D02*
X155575000Y-97663000D01*
X155194000Y-99822000D02*
X155575000Y-99822000D01*
D11*
G04 #@! TO.C,U4*
X188214000Y-89535000D02*
X202946000Y-84455000D01*
X202946000Y-89535000D02*
X188214000Y-84455000D01*
X188214000Y-89535000D02*
X202946000Y-89535000D01*
X202946000Y-84455000D02*
X202946000Y-90678000D01*
X202946000Y-95758000D02*
X202946000Y-94996000D01*
X202946000Y-99822000D02*
X202946000Y-97028000D01*
X202946000Y-106172000D02*
X202946000Y-104140000D01*
X202946000Y-106172000D02*
X200914000Y-106172000D01*
X190754000Y-106172000D02*
X192532000Y-106172000D01*
X188214000Y-106172000D02*
X189484000Y-106172000D01*
X188214000Y-84455000D02*
X188214000Y-92710000D01*
X188214000Y-106172000D02*
X188214000Y-103124000D01*
X188214000Y-84455000D02*
X202946000Y-84455000D01*
G04 #@! TO.C,J5*
X156550000Y-88900000D02*
X147800000Y-88900000D01*
X157800000Y-94350000D02*
X146400000Y-94350000D01*
X146400000Y-94350000D02*
X146400000Y-92350000D01*
X157800000Y-90200000D02*
X157800000Y-91200000D01*
X157800000Y-94350000D02*
X157800000Y-92800000D01*
G04 #@! TO.C,Q1*
X121105000Y-119365000D02*
X121905000Y-119365000D01*
X124005000Y-119365000D02*
X123205000Y-119365000D01*
X121105000Y-119365000D02*
X121105000Y-120315000D01*
X124005000Y-119365000D02*
X124005000Y-120315000D01*
X122205000Y-120665000D02*
X122905000Y-120665000D01*
G04 #@! TO.C,C4*
X135382000Y-109093000D02*
X135382000Y-106807000D01*
X131318000Y-109093000D02*
X135382000Y-109093000D01*
X131318000Y-106807000D02*
X131318000Y-109093000D01*
X135382000Y-106807000D02*
X131318000Y-106807000D01*
G04 #@! TO.C,R24*
X155067000Y-116586000D02*
X158623000Y-116586000D01*
X158623000Y-116586000D02*
X158623000Y-118364000D01*
X158623000Y-118364000D02*
X155067000Y-118364000D01*
X155067000Y-118364000D02*
X155067000Y-116586000D01*
G04 #@! TO.C,C13*
X135001000Y-121793000D02*
X135001000Y-118237000D01*
X135001000Y-118237000D02*
X136779000Y-118237000D01*
X136779000Y-118237000D02*
X136779000Y-121793000D01*
X136779000Y-121793000D02*
X135001000Y-121793000D01*
G04 #@! TO.C,J12*
X206375000Y-109855000D02*
X206375000Y-112395000D01*
X201295000Y-109855000D02*
X206375000Y-109855000D01*
X201295000Y-112395000D02*
X201295000Y-109855000D01*
X206375000Y-112395000D02*
X201295000Y-112395000D01*
G04 #@! TO.C,U7*
X147360000Y-98130000D02*
X152360000Y-98130000D01*
X147360000Y-102530000D02*
X147360000Y-98130000D01*
X152360000Y-102530000D02*
X147360000Y-102530000D01*
X151860000Y-100330000D02*
G75*
G03X152360000Y-100830000I500000J0D01*
G01*
X152360000Y-99830000D02*
G75*
G03X151860000Y-100330000I0J-500000D01*
G01*
X152360000Y-100830000D02*
X152360000Y-102530000D01*
X152360000Y-99830000D02*
X152360000Y-98130000D01*
G04 #@! TO.C,U5*
X193335000Y-115610000D02*
X193335000Y-120610000D01*
X188935000Y-115610000D02*
X193335000Y-115610000D01*
X188935000Y-120610000D02*
X188935000Y-115610000D01*
X191135000Y-120110000D02*
G75*
G03X190635000Y-120610000I0J-500000D01*
G01*
X191635000Y-120610000D02*
G75*
G03X191135000Y-120110000I-500000J0D01*
G01*
X190635000Y-120610000D02*
X188935000Y-120610000D01*
X191635000Y-120610000D02*
X193335000Y-120610000D01*
G04 #@! TO.C,Y2*
X182975000Y-103180000D02*
X182975000Y-110180000D01*
X182975000Y-110180000D02*
X181975000Y-110180000D01*
X179975000Y-110180000D02*
X178975000Y-110180000D01*
X178975000Y-110180000D02*
X178975000Y-103180000D01*
X178975000Y-103180000D02*
X179975000Y-103180000D01*
X182975000Y-103180000D02*
X181975000Y-103180000D01*
G04 #@! TO.C,Y1*
X135160000Y-104465000D02*
X135160000Y-97465000D01*
X135160000Y-97465000D02*
X136160000Y-97465000D01*
X138160000Y-97465000D02*
X139160000Y-97465000D01*
X139160000Y-97465000D02*
X139160000Y-104465000D01*
X139160000Y-104465000D02*
X138160000Y-104465000D01*
X135160000Y-104465000D02*
X136160000Y-104465000D01*
G04 #@! TO.C,J2*
X127175000Y-84550000D02*
X127175000Y-83050000D01*
X128675000Y-85150000D02*
X127475000Y-85150000D01*
X128675000Y-86650000D02*
X128675000Y-85150000D01*
X131675000Y-86650000D02*
X128675000Y-86650000D01*
X131675000Y-85150000D02*
X131675000Y-86650000D01*
X132875000Y-85150000D02*
X131675000Y-85150000D01*
X133175000Y-83050000D02*
X133175000Y-84550000D01*
X133175000Y-83050000D02*
X127175000Y-83050000D01*
X134025000Y-82550000D02*
X126325000Y-82550000D01*
X126325000Y-82550000D02*
X126325000Y-84550000D01*
X134025000Y-82550000D02*
X134025000Y-84550000D01*
X134025000Y-88950000D02*
X134025000Y-89550000D01*
X134025000Y-89550000D02*
X132325000Y-89550000D01*
X128025000Y-89550000D02*
X126325000Y-89550000D01*
X126325000Y-89550000D02*
X126325000Y-88950000D01*
D12*
G04 #@! TO.C,J1*
X112265000Y-95050000D02*
X117465000Y-95050000D01*
X109665000Y-85250000D02*
X109665000Y-86450000D01*
X110465000Y-85250000D02*
X109665000Y-85250000D01*
X110465000Y-83750000D02*
X110465000Y-85250000D01*
X109665000Y-83750000D02*
X110465000Y-83750000D01*
X109665000Y-82550000D02*
X109665000Y-83750000D01*
X118665000Y-85250000D02*
X118665000Y-86450000D01*
X118665000Y-82550000D02*
X118665000Y-83750000D01*
X117865000Y-85250000D02*
X118665000Y-85250000D01*
X117865000Y-83750000D02*
X117865000Y-85250000D01*
X118665000Y-83750000D02*
X117865000Y-83750000D01*
X110465000Y-86450000D02*
X110465000Y-93050000D01*
X109665000Y-86450000D02*
X110465000Y-86450000D01*
X117865000Y-86450000D02*
X117865000Y-90150000D01*
X118665000Y-86450000D02*
X117865000Y-86450000D01*
X109665000Y-82550000D02*
X118665000Y-82550000D01*
D11*
G04 #@! TO.C,U2*
X165735000Y-85130000D02*
G75*
G03X167005000Y-85130000I635000J0D01*
G01*
X164420000Y-88773000D02*
X164420000Y-89027000D01*
X164420000Y-87503000D02*
X164420000Y-87757000D01*
X164420000Y-86233000D02*
X164420000Y-86487000D01*
X168320000Y-88773000D02*
X168320000Y-89027000D01*
X168320000Y-87503000D02*
X168320000Y-87757000D01*
X168320000Y-86233000D02*
X168320000Y-86487000D01*
X165170000Y-90130000D02*
X165170000Y-85130000D01*
X167005000Y-85130000D02*
X168320000Y-85130000D01*
X164420000Y-85130000D02*
X165735000Y-85130000D01*
X168320000Y-90130000D02*
X164420000Y-90130000D01*
G04 #@! TO.C,U3*
X127960000Y-103145000D02*
X127960000Y-109545000D01*
X127960000Y-109545000D02*
X120960000Y-109545000D01*
X120960000Y-109545000D02*
X120960000Y-102545000D01*
X120960000Y-102545000D02*
X127360000Y-102545000D01*
X127960000Y-103145000D02*
X127360000Y-102545000D01*
D13*
X127160000Y-103545000D02*
G75*
G03X127160000Y-103545000I-200000J0D01*
G01*
D11*
G04 #@! TO.C,U1*
X157465000Y-110775000D02*
X157465000Y-97775000D01*
X157465000Y-97775000D02*
X171465000Y-97775000D01*
X171465000Y-97775000D02*
X171465000Y-111775000D01*
X171465000Y-111775000D02*
X158465000Y-111775000D01*
X157465000Y-110775000D02*
X158465000Y-111775000D01*
D13*
X159165000Y-110275000D02*
G75*
G03X159165000Y-110275000I-200000J0D01*
G01*
D11*
G04 #@! TO.C,C26*
X153416000Y-103378000D02*
X153416000Y-99822000D01*
X153416000Y-99822000D02*
X155194000Y-99822000D01*
X155194000Y-99822000D02*
X155194000Y-103378000D01*
X155194000Y-103378000D02*
X153416000Y-103378000D01*
G04 #@! TO.C,C25*
X163322000Y-93091000D02*
X166878000Y-93091000D01*
X166878000Y-93091000D02*
X166878000Y-94869000D01*
X166878000Y-94869000D02*
X163322000Y-94869000D01*
X163322000Y-94869000D02*
X163322000Y-93091000D01*
G04 #@! TO.C,R8*
X176276000Y-108458000D02*
X176276000Y-104902000D01*
X176276000Y-104902000D02*
X178054000Y-104902000D01*
X178054000Y-104902000D02*
X178054000Y-108458000D01*
X178054000Y-108458000D02*
X176276000Y-108458000D01*
G04 #@! TO.C,R7*
X132461000Y-99187000D02*
X134239000Y-99187000D01*
X132461000Y-102743000D02*
X132461000Y-99187000D01*
X134239000Y-102743000D02*
X132461000Y-102743000D01*
X134239000Y-99187000D02*
X134239000Y-102743000D01*
G04 #@! TO.C,R5*
X130937000Y-114046000D02*
X134493000Y-114046000D01*
X134493000Y-114046000D02*
X134493000Y-115824000D01*
X134493000Y-115824000D02*
X130937000Y-115824000D01*
X130937000Y-115824000D02*
X130937000Y-114046000D01*
G04 #@! TO.C,R4*
X128651000Y-91249500D02*
X130429000Y-91249500D01*
X128651000Y-94805500D02*
X128651000Y-91249500D01*
X130429000Y-94805500D02*
X128651000Y-94805500D01*
X130429000Y-91249500D02*
X130429000Y-94805500D01*
G04 #@! TO.C,R3*
X132334000Y-91249500D02*
X132334000Y-94805500D01*
X132334000Y-94805500D02*
X130556000Y-94805500D01*
X130556000Y-94805500D02*
X130556000Y-91249500D01*
X130556000Y-91249500D02*
X132334000Y-91249500D01*
G04 #@! TO.C,J10*
X109220000Y-97155000D02*
X114300000Y-97155000D01*
X114300000Y-104775000D02*
X109220000Y-104775000D01*
X114300000Y-97155000D02*
X114300000Y-104775000D01*
X109220000Y-104775000D02*
X109220000Y-97155000D01*
G04 #@! TO.C,C20*
X181483000Y-89408000D02*
X179197000Y-89408000D01*
X181483000Y-93472000D02*
X181483000Y-89408000D01*
X179197000Y-93472000D02*
X181483000Y-93472000D01*
X179197000Y-89408000D02*
X179197000Y-93472000D01*
G04 #@! TO.C,C19*
X175387000Y-89408000D02*
X175387000Y-93472000D01*
X175387000Y-93472000D02*
X177673000Y-93472000D01*
X177673000Y-93472000D02*
X177673000Y-89408000D01*
X177673000Y-89408000D02*
X175387000Y-89408000D01*
D14*
G04 #@! TO.C,U6*
X177185000Y-94135000D02*
G75*
G03X177185000Y-94135000I-150000J0D01*
G01*
D11*
X179235000Y-95435000D02*
X179235000Y-96335000D01*
X179235000Y-97335000D02*
X177635000Y-97335000D01*
X179235000Y-94435000D02*
X177635000Y-94435000D01*
G04 #@! TO.C,C12*
X149352000Y-122174000D02*
X149352000Y-120396000D01*
X152908000Y-122174000D02*
X149352000Y-122174000D01*
X152908000Y-120396000D02*
X152908000Y-122174000D01*
X149352000Y-120396000D02*
X152908000Y-120396000D01*
G04 #@! TO.C,J3*
X171450000Y-88265000D02*
X171450000Y-85725000D01*
X181610000Y-88265000D02*
X171450000Y-88265000D01*
X181610000Y-85725000D02*
X181610000Y-88265000D01*
X171450000Y-85725000D02*
X181610000Y-85725000D01*
G04 #@! TO.C,C1*
X134493000Y-96901000D02*
X134493000Y-98679000D01*
X130937000Y-96901000D02*
X134493000Y-96901000D01*
X130937000Y-98679000D02*
X130937000Y-96901000D01*
X134493000Y-98679000D02*
X130937000Y-98679000D01*
G04 #@! TO.C,C2*
X134493000Y-103251000D02*
X134493000Y-105029000D01*
X130937000Y-103251000D02*
X134493000Y-103251000D01*
X130937000Y-105029000D02*
X130937000Y-103251000D01*
X134493000Y-105029000D02*
X130937000Y-105029000D01*
G04 #@! TO.C,C5*
X122047000Y-98044000D02*
X122047000Y-96266000D01*
X125603000Y-98044000D02*
X122047000Y-98044000D01*
X125603000Y-96266000D02*
X125603000Y-98044000D01*
X122047000Y-96266000D02*
X125603000Y-96266000D01*
G04 #@! TO.C,C6*
X134493000Y-117856000D02*
X134493000Y-119634000D01*
X130937000Y-117856000D02*
X134493000Y-117856000D01*
X130937000Y-119634000D02*
X130937000Y-117856000D01*
X134493000Y-119634000D02*
X130937000Y-119634000D01*
G04 #@! TO.C,C7*
X176276000Y-108712000D02*
X178054000Y-108712000D01*
X176276000Y-112268000D02*
X176276000Y-108712000D01*
X178054000Y-112268000D02*
X176276000Y-112268000D01*
X178054000Y-108712000D02*
X178054000Y-112268000D01*
G04 #@! TO.C,C8*
X178054000Y-104648000D02*
X176276000Y-104648000D01*
X178054000Y-101092000D02*
X178054000Y-104648000D01*
X176276000Y-101092000D02*
X178054000Y-101092000D01*
X176276000Y-104648000D02*
X176276000Y-101092000D01*
G04 #@! TO.C,C9*
X196088000Y-122809000D02*
X192532000Y-122809000D01*
X192532000Y-122809000D02*
X192532000Y-121031000D01*
X192532000Y-121031000D02*
X196088000Y-121031000D01*
X196088000Y-121031000D02*
X196088000Y-122809000D01*
G04 #@! TO.C,C10*
X173736000Y-107442000D02*
X175514000Y-107442000D01*
X173736000Y-110998000D02*
X173736000Y-107442000D01*
X175514000Y-110998000D02*
X173736000Y-110998000D01*
X175514000Y-107442000D02*
X175514000Y-110998000D01*
G04 #@! TO.C,J9*
X145415000Y-97155000D02*
X145415000Y-117475000D01*
X140335000Y-117475000D02*
X140335000Y-97155000D01*
X140335000Y-97155000D02*
X145415000Y-97155000D01*
X145415000Y-117475000D02*
X140335000Y-117475000D01*
G04 #@! TO.C,R10*
X186563000Y-92456000D02*
X186563000Y-94234000D01*
X183007000Y-92456000D02*
X186563000Y-92456000D01*
X183007000Y-94234000D02*
X183007000Y-92456000D01*
X186563000Y-94234000D02*
X183007000Y-94234000D01*
G04 #@! TO.C,C11*
X123317000Y-99949000D02*
X123317000Y-98171000D01*
X126873000Y-99949000D02*
X123317000Y-99949000D01*
X126873000Y-98171000D02*
X126873000Y-99949000D01*
X123317000Y-98171000D02*
X126873000Y-98171000D01*
G04 #@! TO.C,R6*
X143383000Y-119761000D02*
X143383000Y-121539000D01*
X139827000Y-119761000D02*
X143383000Y-119761000D01*
X139827000Y-121539000D02*
X139827000Y-119761000D01*
X143383000Y-121539000D02*
X139827000Y-121539000D01*
G04 #@! TO.C,R9*
X152908000Y-118491000D02*
X152908000Y-120269000D01*
X149352000Y-118491000D02*
X152908000Y-118491000D01*
X149352000Y-120269000D02*
X149352000Y-118491000D01*
X152908000Y-120269000D02*
X149352000Y-120269000D01*
G04 #@! TO.C,R11*
X169037000Y-91821000D02*
X172593000Y-91821000D01*
X172593000Y-91821000D02*
X172593000Y-93599000D01*
X172593000Y-93599000D02*
X169037000Y-93599000D01*
X169037000Y-93599000D02*
X169037000Y-91821000D01*
G04 #@! TO.C,C15*
X200279000Y-111633000D02*
X198501000Y-111633000D01*
X200279000Y-108077000D02*
X200279000Y-111633000D01*
X198501000Y-108077000D02*
X200279000Y-108077000D01*
X198501000Y-111633000D02*
X198501000Y-108077000D01*
G04 #@! TO.C,C16*
X193167000Y-108458000D02*
X193167000Y-112522000D01*
X193167000Y-112522000D02*
X195453000Y-112522000D01*
X195453000Y-112522000D02*
X195453000Y-108458000D01*
X195453000Y-108458000D02*
X193167000Y-108458000D01*
G04 #@! TO.C,C18*
X195707000Y-111887000D02*
X197993000Y-111887000D01*
X195707000Y-107823000D02*
X195707000Y-111887000D01*
X197993000Y-107823000D02*
X195707000Y-107823000D01*
X197993000Y-111887000D02*
X197993000Y-107823000D01*
G04 #@! TO.C,R12*
X175387000Y-116586000D02*
X178943000Y-116586000D01*
X178943000Y-116586000D02*
X178943000Y-118364000D01*
X178943000Y-118364000D02*
X175387000Y-118364000D01*
X175387000Y-118364000D02*
X175387000Y-116586000D01*
G04 #@! TO.C,R13*
X181102000Y-113411000D02*
X184658000Y-113411000D01*
X184658000Y-113411000D02*
X184658000Y-115189000D01*
X184658000Y-115189000D02*
X181102000Y-115189000D01*
X181102000Y-115189000D02*
X181102000Y-113411000D01*
G04 #@! TO.C,R14*
X181102000Y-118364000D02*
X181102000Y-116586000D01*
X184658000Y-118364000D02*
X181102000Y-118364000D01*
X184658000Y-116586000D02*
X184658000Y-118364000D01*
X181102000Y-116586000D02*
X184658000Y-116586000D01*
G04 #@! TO.C,C17*
X189103000Y-110363000D02*
X193167000Y-110363000D01*
X193167000Y-110363000D02*
X193167000Y-108077000D01*
X193167000Y-108077000D02*
X189103000Y-108077000D01*
X189103000Y-108077000D02*
X189103000Y-110363000D01*
G04 #@! TO.C,C21*
X145796000Y-96647000D02*
X145796000Y-92583000D01*
X145796000Y-92583000D02*
X143510000Y-92583000D01*
X143510000Y-92583000D02*
X143510000Y-96647000D01*
X143510000Y-96647000D02*
X145796000Y-96647000D01*
G04 #@! TO.C,R15*
X146812000Y-107696000D02*
X150368000Y-107696000D01*
X150368000Y-107696000D02*
X150368000Y-109474000D01*
X150368000Y-109474000D02*
X146812000Y-109474000D01*
X146812000Y-109474000D02*
X146812000Y-107696000D01*
G04 #@! TO.C,R16*
X152146000Y-104902000D02*
X153924000Y-104902000D01*
X152146000Y-108458000D02*
X152146000Y-104902000D01*
X153924000Y-108458000D02*
X152146000Y-108458000D01*
X153924000Y-104902000D02*
X153924000Y-108458000D01*
G04 #@! TO.C,R17*
X146812000Y-105791000D02*
X150368000Y-105791000D01*
X150368000Y-105791000D02*
X150368000Y-107569000D01*
X150368000Y-107569000D02*
X146812000Y-107569000D01*
X146812000Y-107569000D02*
X146812000Y-105791000D01*
G04 #@! TO.C,R18*
X179578000Y-113411000D02*
X179578000Y-115189000D01*
X176022000Y-113411000D02*
X179578000Y-113411000D01*
X176022000Y-115189000D02*
X176022000Y-113411000D01*
X179578000Y-115189000D02*
X176022000Y-115189000D01*
G04 #@! TO.C,C22*
X164973000Y-116459000D02*
X161417000Y-116459000D01*
X161417000Y-116459000D02*
X161417000Y-114681000D01*
X161417000Y-114681000D02*
X164973000Y-114681000D01*
X164973000Y-114681000D02*
X164973000Y-116459000D01*
G04 #@! TO.C,C23*
X155194000Y-108712000D02*
X155194000Y-112268000D01*
X155194000Y-112268000D02*
X153416000Y-112268000D01*
X153416000Y-112268000D02*
X153416000Y-108712000D01*
X153416000Y-108712000D02*
X155194000Y-108712000D01*
G04 #@! TO.C,C24*
X152908000Y-115316000D02*
X152908000Y-117094000D01*
X149352000Y-115316000D02*
X152908000Y-115316000D01*
X149352000Y-117094000D02*
X149352000Y-115316000D01*
X152908000Y-117094000D02*
X149352000Y-117094000D01*
G04 #@! TO.C,C3*
X153416000Y-98933000D02*
X153416000Y-95377000D01*
X153416000Y-95377000D02*
X155194000Y-95377000D01*
X155194000Y-95377000D02*
X155194000Y-98933000D01*
X155194000Y-98933000D02*
X153416000Y-98933000D01*
G04 #@! TO.C,R23*
X143383000Y-123444000D02*
X139827000Y-123444000D01*
X139827000Y-123444000D02*
X139827000Y-121666000D01*
X139827000Y-121666000D02*
X143383000Y-121666000D01*
X143383000Y-121666000D02*
X143383000Y-123444000D01*
G04 #@! TO.C,D1*
X129159000Y-120015000D02*
X129159000Y-122555000D01*
X129286000Y-120015000D02*
X129286000Y-122555000D01*
X129413000Y-120015000D02*
X129413000Y-122555000D01*
X129540000Y-120015000D02*
X129540000Y-122555000D01*
X134620000Y-120015000D02*
X129159000Y-120015000D01*
X134620000Y-122555000D02*
X134620000Y-120015000D01*
X129159000Y-122555000D02*
X134620000Y-122555000D01*
G04 #@! TO.C,D2*
X135636000Y-111125000D02*
X130175000Y-111125000D01*
X130175000Y-111125000D02*
X130175000Y-113665000D01*
X130175000Y-113665000D02*
X135636000Y-113665000D01*
X135255000Y-113665000D02*
X135255000Y-111125000D01*
X135382000Y-113665000D02*
X135382000Y-111125000D01*
X135509000Y-113665000D02*
X135509000Y-111125000D01*
X135636000Y-113665000D02*
X135636000Y-111125000D01*
G04 #@! TO.C,J6*
X136525000Y-116840000D02*
X136525000Y-106680000D01*
X136525000Y-106680000D02*
X139065000Y-106680000D01*
X139065000Y-106680000D02*
X139065000Y-116840000D01*
X139065000Y-116840000D02*
X136525000Y-116840000D01*
G04 #@! TO.C,R19*
X153797000Y-114046000D02*
X157353000Y-114046000D01*
X157353000Y-114046000D02*
X157353000Y-115824000D01*
X157353000Y-115824000D02*
X153797000Y-115824000D01*
X153797000Y-115824000D02*
X153797000Y-114046000D01*
G04 #@! TO.C,C14*
X159131000Y-93218000D02*
X159131000Y-89662000D01*
X159131000Y-89662000D02*
X160909000Y-89662000D01*
X160909000Y-89662000D02*
X160909000Y-93218000D01*
X160909000Y-93218000D02*
X159131000Y-93218000D01*
G04 #@! TO.C,R20*
X148209000Y-109982000D02*
X148209000Y-113538000D01*
X148209000Y-113538000D02*
X146431000Y-113538000D01*
X146431000Y-113538000D02*
X146431000Y-109982000D01*
X146431000Y-109982000D02*
X148209000Y-109982000D01*
G04 #@! TO.C,R21*
X148971000Y-109982000D02*
X150749000Y-109982000D01*
X148971000Y-113538000D02*
X148971000Y-109982000D01*
X150749000Y-113538000D02*
X148971000Y-113538000D01*
X150749000Y-109982000D02*
X150749000Y-113538000D01*
G04 #@! TO.C,R22*
X163322000Y-91186000D02*
X166878000Y-91186000D01*
X166878000Y-91186000D02*
X166878000Y-92964000D01*
X166878000Y-92964000D02*
X163322000Y-92964000D01*
X163322000Y-92964000D02*
X163322000Y-91186000D01*
D15*
G04 #@! TO.C,DA1*
X126369156Y-93966202D02*
X125839156Y-93966202D01*
X126069156Y-92696202D02*
X125839156Y-92696202D01*
X127554156Y-93531202D02*
X127554156Y-93131202D01*
X124654156Y-93531202D02*
X124654156Y-93131202D01*
D11*
G04 #@! TO.C,F1*
X132715000Y-90805000D02*
X132715000Y-95885000D01*
X132715000Y-95885000D02*
X135255000Y-95885000D01*
X135255000Y-95885000D02*
X135255000Y-90805000D01*
X135255000Y-90805000D02*
X132715000Y-90805000D01*
G04 #@! TO.C,R1*
X118237000Y-114681000D02*
X121793000Y-114681000D01*
X121793000Y-114681000D02*
X121793000Y-116459000D01*
X121793000Y-116459000D02*
X118237000Y-116459000D01*
X118237000Y-116459000D02*
X118237000Y-114681000D01*
G04 #@! TO.C,R2*
X125603000Y-114681000D02*
X125603000Y-116459000D01*
X122047000Y-114681000D02*
X125603000Y-114681000D01*
X122047000Y-116459000D02*
X122047000Y-114681000D01*
X125603000Y-116459000D02*
X122047000Y-116459000D01*
G04 #@! TO.C,U4*
D12*
X186777380Y-87375904D02*
X187586904Y-87375904D01*
X187682142Y-87328285D01*
X187729761Y-87280666D01*
X187777380Y-87185428D01*
X187777380Y-86994952D01*
X187729761Y-86899714D01*
X187682142Y-86852095D01*
X187586904Y-86804476D01*
X186777380Y-86804476D01*
X187110714Y-85899714D02*
X187777380Y-85899714D01*
X186729761Y-86137809D02*
X187444047Y-86375904D01*
X187444047Y-85756857D01*
G04 #@! TO.C,J5*
X144700666Y-88606380D02*
X144700666Y-89320666D01*
X144653047Y-89463523D01*
X144557809Y-89558761D01*
X144414952Y-89606380D01*
X144319714Y-89606380D01*
X145653047Y-88606380D02*
X145176857Y-88606380D01*
X145129238Y-89082571D01*
X145176857Y-89034952D01*
X145272095Y-88987333D01*
X145510190Y-88987333D01*
X145605428Y-89034952D01*
X145653047Y-89082571D01*
X145700666Y-89177809D01*
X145700666Y-89415904D01*
X145653047Y-89511142D01*
X145605428Y-89558761D01*
X145510190Y-89606380D01*
X145272095Y-89606380D01*
X145176857Y-89558761D01*
X145129238Y-89511142D01*
G04 #@! TO.C,Q1*
D11*
X120697619Y-120898238D02*
X120650000Y-120993476D01*
X120554761Y-121088714D01*
X120411904Y-121231571D01*
X120364285Y-121326809D01*
X120364285Y-121422047D01*
X120602380Y-121374428D02*
X120554761Y-121469666D01*
X120459523Y-121564904D01*
X120269047Y-121612523D01*
X119935714Y-121612523D01*
X119745238Y-121564904D01*
X119650000Y-121469666D01*
X119602380Y-121374428D01*
X119602380Y-121183952D01*
X119650000Y-121088714D01*
X119745238Y-120993476D01*
X119935714Y-120945857D01*
X120269047Y-120945857D01*
X120459523Y-120993476D01*
X120554761Y-121088714D01*
X120602380Y-121183952D01*
X120602380Y-121374428D01*
X120602380Y-119993476D02*
X120602380Y-120564904D01*
X120602380Y-120279190D02*
X119602380Y-120279190D01*
X119745238Y-120374428D01*
X119840476Y-120469666D01*
X119888095Y-120564904D01*
G04 #@! TO.C,C4*
X130921142Y-108039476D02*
X130968761Y-108087095D01*
X131016380Y-108229952D01*
X131016380Y-108325190D01*
X130968761Y-108468047D01*
X130873523Y-108563285D01*
X130778285Y-108610904D01*
X130587809Y-108658523D01*
X130444952Y-108658523D01*
X130254476Y-108610904D01*
X130159238Y-108563285D01*
X130064000Y-108468047D01*
X130016380Y-108325190D01*
X130016380Y-108229952D01*
X130064000Y-108087095D01*
X130111619Y-108039476D01*
X130349714Y-107182333D02*
X131016380Y-107182333D01*
X129968761Y-107420428D02*
X130683047Y-107658523D01*
X130683047Y-107039476D01*
G04 #@! TO.C,R24*
X156755523Y-119586380D02*
X156422190Y-119110190D01*
X156184095Y-119586380D02*
X156184095Y-118586380D01*
X156565047Y-118586380D01*
X156660285Y-118634000D01*
X156707904Y-118681619D01*
X156755523Y-118776857D01*
X156755523Y-118919714D01*
X156707904Y-119014952D01*
X156660285Y-119062571D01*
X156565047Y-119110190D01*
X156184095Y-119110190D01*
X157136476Y-118681619D02*
X157184095Y-118634000D01*
X157279333Y-118586380D01*
X157517428Y-118586380D01*
X157612666Y-118634000D01*
X157660285Y-118681619D01*
X157707904Y-118776857D01*
X157707904Y-118872095D01*
X157660285Y-119014952D01*
X157088857Y-119586380D01*
X157707904Y-119586380D01*
X158565047Y-118919714D02*
X158565047Y-119586380D01*
X158326952Y-118538761D02*
X158088857Y-119253047D01*
X158707904Y-119253047D01*
G04 #@! TO.C,C13*
X137793428Y-121074428D02*
X137836285Y-121117285D01*
X137879142Y-121245857D01*
X137879142Y-121331571D01*
X137836285Y-121460142D01*
X137750571Y-121545857D01*
X137664857Y-121588714D01*
X137493428Y-121631571D01*
X137364857Y-121631571D01*
X137193428Y-121588714D01*
X137107714Y-121545857D01*
X137022000Y-121460142D01*
X136979142Y-121331571D01*
X136979142Y-121245857D01*
X137022000Y-121117285D01*
X137064857Y-121074428D01*
X137879142Y-120217285D02*
X137879142Y-120731571D01*
X137879142Y-120474428D02*
X136979142Y-120474428D01*
X137107714Y-120560142D01*
X137193428Y-120645857D01*
X137236285Y-120731571D01*
X136979142Y-119917285D02*
X136979142Y-119360142D01*
X137322000Y-119660142D01*
X137322000Y-119531571D01*
X137364857Y-119445857D01*
X137407714Y-119403000D01*
X137493428Y-119360142D01*
X137707714Y-119360142D01*
X137793428Y-119403000D01*
X137836285Y-119445857D01*
X137879142Y-119531571D01*
X137879142Y-119788714D01*
X137836285Y-119874428D01*
X137793428Y-119917285D01*
G04 #@! TO.C,J12*
X201935809Y-108553380D02*
X201935809Y-109267666D01*
X201888190Y-109410523D01*
X201792952Y-109505761D01*
X201650095Y-109553380D01*
X201554857Y-109553380D01*
X202935809Y-109553380D02*
X202364380Y-109553380D01*
X202650095Y-109553380D02*
X202650095Y-108553380D01*
X202554857Y-108696238D01*
X202459619Y-108791476D01*
X202364380Y-108839095D01*
X203316761Y-108648619D02*
X203364380Y-108601000D01*
X203459619Y-108553380D01*
X203697714Y-108553380D01*
X203792952Y-108601000D01*
X203840571Y-108648619D01*
X203888190Y-108743857D01*
X203888190Y-108839095D01*
X203840571Y-108981952D01*
X203269142Y-109553380D01*
X203888190Y-109553380D01*
G04 #@! TO.C,U7*
X146018380Y-102260904D02*
X146827904Y-102260904D01*
X146923142Y-102213285D01*
X146970761Y-102165666D01*
X147018380Y-102070428D01*
X147018380Y-101879952D01*
X146970761Y-101784714D01*
X146923142Y-101737095D01*
X146827904Y-101689476D01*
X146018380Y-101689476D01*
X146018380Y-101308523D02*
X146018380Y-100641857D01*
X147018380Y-101070428D01*
G04 #@! TO.C,U5*
X190474095Y-114268380D02*
X190474095Y-115077904D01*
X190521714Y-115173142D01*
X190569333Y-115220761D01*
X190664571Y-115268380D01*
X190855047Y-115268380D01*
X190950285Y-115220761D01*
X190997904Y-115173142D01*
X191045523Y-115077904D01*
X191045523Y-114268380D01*
X191997904Y-114268380D02*
X191521714Y-114268380D01*
X191474095Y-114744571D01*
X191521714Y-114696952D01*
X191616952Y-114649333D01*
X191855047Y-114649333D01*
X191950285Y-114696952D01*
X191997904Y-114744571D01*
X192045523Y-114839809D01*
X192045523Y-115077904D01*
X191997904Y-115173142D01*
X191950285Y-115220761D01*
X191855047Y-115268380D01*
X191616952Y-115268380D01*
X191521714Y-115220761D01*
X191474095Y-115173142D01*
G04 #@! TO.C,Y2*
X183872190Y-109569190D02*
X184348380Y-109569190D01*
X183348380Y-109902523D02*
X183872190Y-109569190D01*
X183348380Y-109235857D01*
X183443619Y-108950142D02*
X183396000Y-108902523D01*
X183348380Y-108807285D01*
X183348380Y-108569190D01*
X183396000Y-108473952D01*
X183443619Y-108426333D01*
X183538857Y-108378714D01*
X183634095Y-108378714D01*
X183776952Y-108426333D01*
X184348380Y-108997761D01*
X184348380Y-108378714D01*
G04 #@! TO.C,Y1*
X138715809Y-96623190D02*
X138715809Y-97099380D01*
X138382476Y-96099380D02*
X138715809Y-96623190D01*
X139049142Y-96099380D01*
X139906285Y-97099380D02*
X139334857Y-97099380D01*
X139620571Y-97099380D02*
X139620571Y-96099380D01*
X139525333Y-96242238D01*
X139430095Y-96337476D01*
X139334857Y-96385095D01*
G04 #@! TO.C,J2*
X136112380Y-86862190D02*
X136826666Y-86862190D01*
X136969523Y-86909809D01*
X137064761Y-87005047D01*
X137112380Y-87147904D01*
X137112380Y-87243142D01*
X136207619Y-86433619D02*
X136160000Y-86386000D01*
X136112380Y-86290761D01*
X136112380Y-86052666D01*
X136160000Y-85957428D01*
X136207619Y-85909809D01*
X136302857Y-85862190D01*
X136398095Y-85862190D01*
X136540952Y-85909809D01*
X137112380Y-86481238D01*
X137112380Y-85862190D01*
G04 #@! TO.C,J1*
X109045380Y-88048476D02*
X109759666Y-88048476D01*
X109902523Y-88096095D01*
X109997761Y-88191333D01*
X110045380Y-88334190D01*
X110045380Y-88429428D01*
X110045380Y-87048476D02*
X110045380Y-87619904D01*
X110045380Y-87334190D02*
X109045380Y-87334190D01*
X109188238Y-87429428D01*
X109283476Y-87524666D01*
X109331095Y-87619904D01*
G04 #@! TO.C,U2*
X161131380Y-86766904D02*
X161940904Y-86766904D01*
X162036142Y-86719285D01*
X162083761Y-86671666D01*
X162131380Y-86576428D01*
X162131380Y-86385952D01*
X162083761Y-86290714D01*
X162036142Y-86243095D01*
X161940904Y-86195476D01*
X161131380Y-86195476D01*
X161226619Y-85766904D02*
X161179000Y-85719285D01*
X161131380Y-85624047D01*
X161131380Y-85385952D01*
X161179000Y-85290714D01*
X161226619Y-85243095D01*
X161321857Y-85195476D01*
X161417095Y-85195476D01*
X161559952Y-85243095D01*
X162131380Y-85814523D01*
X162131380Y-85195476D01*
G04 #@! TO.C,U3*
X119456285Y-109997142D02*
X119456285Y-110725714D01*
X119499142Y-110811428D01*
X119542000Y-110854285D01*
X119627714Y-110897142D01*
X119799142Y-110897142D01*
X119884857Y-110854285D01*
X119927714Y-110811428D01*
X119970571Y-110725714D01*
X119970571Y-109997142D01*
X120313428Y-109997142D02*
X120870571Y-109997142D01*
X120570571Y-110340000D01*
X120699142Y-110340000D01*
X120784857Y-110382857D01*
X120827714Y-110425714D01*
X120870571Y-110511428D01*
X120870571Y-110725714D01*
X120827714Y-110811428D01*
X120784857Y-110854285D01*
X120699142Y-110897142D01*
X120442000Y-110897142D01*
X120356285Y-110854285D01*
X120313428Y-110811428D01*
G04 #@! TO.C,U1*
X172085095Y-96607380D02*
X172085095Y-97416904D01*
X172132714Y-97512142D01*
X172180333Y-97559761D01*
X172275571Y-97607380D01*
X172466047Y-97607380D01*
X172561285Y-97559761D01*
X172608904Y-97512142D01*
X172656523Y-97416904D01*
X172656523Y-96607380D01*
X173656523Y-97607380D02*
X173085095Y-97607380D01*
X173370809Y-97607380D02*
X173370809Y-96607380D01*
X173275571Y-96750238D01*
X173180333Y-96845476D01*
X173085095Y-96893095D01*
G04 #@! TO.C,C26*
X156039571Y-97280428D02*
X155996714Y-97323285D01*
X155868142Y-97366142D01*
X155782428Y-97366142D01*
X155653857Y-97323285D01*
X155568142Y-97237571D01*
X155525285Y-97151857D01*
X155482428Y-96980428D01*
X155482428Y-96851857D01*
X155525285Y-96680428D01*
X155568142Y-96594714D01*
X155653857Y-96509000D01*
X155782428Y-96466142D01*
X155868142Y-96466142D01*
X155996714Y-96509000D01*
X156039571Y-96551857D01*
X156382428Y-96551857D02*
X156425285Y-96509000D01*
X156511000Y-96466142D01*
X156725285Y-96466142D01*
X156811000Y-96509000D01*
X156853857Y-96551857D01*
X156896714Y-96637571D01*
X156896714Y-96723285D01*
X156853857Y-96851857D01*
X156339571Y-97366142D01*
X156896714Y-97366142D01*
X157668142Y-96466142D02*
X157496714Y-96466142D01*
X157411000Y-96509000D01*
X157368142Y-96551857D01*
X157282428Y-96680428D01*
X157239571Y-96851857D01*
X157239571Y-97194714D01*
X157282428Y-97280428D01*
X157325285Y-97323285D01*
X157411000Y-97366142D01*
X157582428Y-97366142D01*
X157668142Y-97323285D01*
X157711000Y-97280428D01*
X157753857Y-97194714D01*
X157753857Y-96980428D01*
X157711000Y-96894714D01*
X157668142Y-96851857D01*
X157582428Y-96809000D01*
X157411000Y-96809000D01*
X157325285Y-96851857D01*
X157282428Y-96894714D01*
X157239571Y-96980428D01*
G04 #@! TO.C,C25*
X167931523Y-95361142D02*
X167883904Y-95408761D01*
X167741047Y-95456380D01*
X167645809Y-95456380D01*
X167502952Y-95408761D01*
X167407714Y-95313523D01*
X167360095Y-95218285D01*
X167312476Y-95027809D01*
X167312476Y-94884952D01*
X167360095Y-94694476D01*
X167407714Y-94599238D01*
X167502952Y-94504000D01*
X167645809Y-94456380D01*
X167741047Y-94456380D01*
X167883904Y-94504000D01*
X167931523Y-94551619D01*
X168312476Y-94551619D02*
X168360095Y-94504000D01*
X168455333Y-94456380D01*
X168693428Y-94456380D01*
X168788666Y-94504000D01*
X168836285Y-94551619D01*
X168883904Y-94646857D01*
X168883904Y-94742095D01*
X168836285Y-94884952D01*
X168264857Y-95456380D01*
X168883904Y-95456380D01*
X169788666Y-94456380D02*
X169312476Y-94456380D01*
X169264857Y-94932571D01*
X169312476Y-94884952D01*
X169407714Y-94837333D01*
X169645809Y-94837333D01*
X169741047Y-94884952D01*
X169788666Y-94932571D01*
X169836285Y-95027809D01*
X169836285Y-95265904D01*
X169788666Y-95361142D01*
X169741047Y-95408761D01*
X169645809Y-95456380D01*
X169407714Y-95456380D01*
X169312476Y-95408761D01*
X169264857Y-95361142D01*
G04 #@! TO.C,R8*
X175974380Y-105626476D02*
X175498190Y-105959809D01*
X175974380Y-106197904D02*
X174974380Y-106197904D01*
X174974380Y-105816952D01*
X175022000Y-105721714D01*
X175069619Y-105674095D01*
X175164857Y-105626476D01*
X175307714Y-105626476D01*
X175402952Y-105674095D01*
X175450571Y-105721714D01*
X175498190Y-105816952D01*
X175498190Y-106197904D01*
X175402952Y-105055047D02*
X175355333Y-105150285D01*
X175307714Y-105197904D01*
X175212476Y-105245523D01*
X175164857Y-105245523D01*
X175069619Y-105197904D01*
X175022000Y-105150285D01*
X174974380Y-105055047D01*
X174974380Y-104864571D01*
X175022000Y-104769333D01*
X175069619Y-104721714D01*
X175164857Y-104674095D01*
X175212476Y-104674095D01*
X175307714Y-104721714D01*
X175355333Y-104769333D01*
X175402952Y-104864571D01*
X175402952Y-105055047D01*
X175450571Y-105150285D01*
X175498190Y-105197904D01*
X175593428Y-105245523D01*
X175783904Y-105245523D01*
X175879142Y-105197904D01*
X175926761Y-105150285D01*
X175974380Y-105055047D01*
X175974380Y-104864571D01*
X175926761Y-104769333D01*
X175879142Y-104721714D01*
X175783904Y-104674095D01*
X175593428Y-104674095D01*
X175498190Y-104721714D01*
X175450571Y-104769333D01*
X175402952Y-104864571D01*
G04 #@! TO.C,R7*
X132032380Y-100927476D02*
X131556190Y-101260809D01*
X132032380Y-101498904D02*
X131032380Y-101498904D01*
X131032380Y-101117952D01*
X131080000Y-101022714D01*
X131127619Y-100975095D01*
X131222857Y-100927476D01*
X131365714Y-100927476D01*
X131460952Y-100975095D01*
X131508571Y-101022714D01*
X131556190Y-101117952D01*
X131556190Y-101498904D01*
X131032380Y-100594142D02*
X131032380Y-99927476D01*
X132032380Y-100356047D01*
G04 #@! TO.C,R5*
X130635380Y-115024476D02*
X130159190Y-115357809D01*
X130635380Y-115595904D02*
X129635380Y-115595904D01*
X129635380Y-115214952D01*
X129683000Y-115119714D01*
X129730619Y-115072095D01*
X129825857Y-115024476D01*
X129968714Y-115024476D01*
X130063952Y-115072095D01*
X130111571Y-115119714D01*
X130159190Y-115214952D01*
X130159190Y-115595904D01*
X129635380Y-114119714D02*
X129635380Y-114595904D01*
X130111571Y-114643523D01*
X130063952Y-114595904D01*
X130016333Y-114500666D01*
X130016333Y-114262571D01*
X130063952Y-114167333D01*
X130111571Y-114119714D01*
X130206809Y-114072095D01*
X130444904Y-114072095D01*
X130540142Y-114119714D01*
X130587761Y-114167333D01*
X130635380Y-114262571D01*
X130635380Y-114500666D01*
X130587761Y-114595904D01*
X130540142Y-114643523D01*
G04 #@! TO.C,R4*
X129116142Y-95928428D02*
X128687571Y-96228428D01*
X129116142Y-96442714D02*
X128216142Y-96442714D01*
X128216142Y-96099857D01*
X128259000Y-96014142D01*
X128301857Y-95971285D01*
X128387571Y-95928428D01*
X128516142Y-95928428D01*
X128601857Y-95971285D01*
X128644714Y-96014142D01*
X128687571Y-96099857D01*
X128687571Y-96442714D01*
X128516142Y-95157000D02*
X129116142Y-95157000D01*
X128173285Y-95371285D02*
X128816142Y-95585571D01*
X128816142Y-95028428D01*
G04 #@! TO.C,R3*
X132291142Y-95928428D02*
X131862571Y-96228428D01*
X132291142Y-96442714D02*
X131391142Y-96442714D01*
X131391142Y-96099857D01*
X131434000Y-96014142D01*
X131476857Y-95971285D01*
X131562571Y-95928428D01*
X131691142Y-95928428D01*
X131776857Y-95971285D01*
X131819714Y-96014142D01*
X131862571Y-96099857D01*
X131862571Y-96442714D01*
X131391142Y-95628428D02*
X131391142Y-95071285D01*
X131734000Y-95371285D01*
X131734000Y-95242714D01*
X131776857Y-95157000D01*
X131819714Y-95114142D01*
X131905428Y-95071285D01*
X132119714Y-95071285D01*
X132205428Y-95114142D01*
X132248285Y-95157000D01*
X132291142Y-95242714D01*
X132291142Y-95499857D01*
X132248285Y-95585571D01*
X132205428Y-95628428D01*
G04 #@! TO.C,J10*
X114776380Y-104388190D02*
X115490666Y-104388190D01*
X115633523Y-104435809D01*
X115728761Y-104531047D01*
X115776380Y-104673904D01*
X115776380Y-104769142D01*
X115776380Y-103388190D02*
X115776380Y-103959619D01*
X115776380Y-103673904D02*
X114776380Y-103673904D01*
X114919238Y-103769142D01*
X115014476Y-103864380D01*
X115062095Y-103959619D01*
X114776380Y-102769142D02*
X114776380Y-102673904D01*
X114824000Y-102578666D01*
X114871619Y-102531047D01*
X114966857Y-102483428D01*
X115157333Y-102435809D01*
X115395428Y-102435809D01*
X115585904Y-102483428D01*
X115681142Y-102531047D01*
X115728761Y-102578666D01*
X115776380Y-102673904D01*
X115776380Y-102769142D01*
X115728761Y-102864380D01*
X115681142Y-102912000D01*
X115585904Y-102959619D01*
X115395428Y-103007238D01*
X115157333Y-103007238D01*
X114966857Y-102959619D01*
X114871619Y-102912000D01*
X114824000Y-102864380D01*
X114776380Y-102769142D01*
G04 #@! TO.C,C20*
X182737142Y-90894476D02*
X182784761Y-90942095D01*
X182832380Y-91084952D01*
X182832380Y-91180190D01*
X182784761Y-91323047D01*
X182689523Y-91418285D01*
X182594285Y-91465904D01*
X182403809Y-91513523D01*
X182260952Y-91513523D01*
X182070476Y-91465904D01*
X181975238Y-91418285D01*
X181880000Y-91323047D01*
X181832380Y-91180190D01*
X181832380Y-91084952D01*
X181880000Y-90942095D01*
X181927619Y-90894476D01*
X181927619Y-90513523D02*
X181880000Y-90465904D01*
X181832380Y-90370666D01*
X181832380Y-90132571D01*
X181880000Y-90037333D01*
X181927619Y-89989714D01*
X182022857Y-89942095D01*
X182118095Y-89942095D01*
X182260952Y-89989714D01*
X182832380Y-90561142D01*
X182832380Y-89942095D01*
X181832380Y-89323047D02*
X181832380Y-89227809D01*
X181880000Y-89132571D01*
X181927619Y-89084952D01*
X182022857Y-89037333D01*
X182213333Y-88989714D01*
X182451428Y-88989714D01*
X182641904Y-89037333D01*
X182737142Y-89084952D01*
X182784761Y-89132571D01*
X182832380Y-89227809D01*
X182832380Y-89323047D01*
X182784761Y-89418285D01*
X182737142Y-89465904D01*
X182641904Y-89513523D01*
X182451428Y-89561142D01*
X182213333Y-89561142D01*
X182022857Y-89513523D01*
X181927619Y-89465904D01*
X181880000Y-89418285D01*
X181832380Y-89323047D01*
G04 #@! TO.C,C19*
X174863142Y-90513476D02*
X174910761Y-90561095D01*
X174958380Y-90703952D01*
X174958380Y-90799190D01*
X174910761Y-90942047D01*
X174815523Y-91037285D01*
X174720285Y-91084904D01*
X174529809Y-91132523D01*
X174386952Y-91132523D01*
X174196476Y-91084904D01*
X174101238Y-91037285D01*
X174006000Y-90942047D01*
X173958380Y-90799190D01*
X173958380Y-90703952D01*
X174006000Y-90561095D01*
X174053619Y-90513476D01*
X174958380Y-89561095D02*
X174958380Y-90132523D01*
X174958380Y-89846809D02*
X173958380Y-89846809D01*
X174101238Y-89942047D01*
X174196476Y-90037285D01*
X174244095Y-90132523D01*
X174958380Y-89084904D02*
X174958380Y-88894428D01*
X174910761Y-88799190D01*
X174863142Y-88751571D01*
X174720285Y-88656333D01*
X174529809Y-88608714D01*
X174148857Y-88608714D01*
X174053619Y-88656333D01*
X174006000Y-88703952D01*
X173958380Y-88799190D01*
X173958380Y-88989666D01*
X174006000Y-89084904D01*
X174053619Y-89132523D01*
X174148857Y-89180142D01*
X174386952Y-89180142D01*
X174482190Y-89132523D01*
X174529809Y-89084904D01*
X174577428Y-88989666D01*
X174577428Y-88799190D01*
X174529809Y-88703952D01*
X174482190Y-88656333D01*
X174386952Y-88608714D01*
G04 #@! TO.C,U6*
X177901095Y-97758380D02*
X177901095Y-98567904D01*
X177948714Y-98663142D01*
X177996333Y-98710761D01*
X178091571Y-98758380D01*
X178282047Y-98758380D01*
X178377285Y-98710761D01*
X178424904Y-98663142D01*
X178472523Y-98567904D01*
X178472523Y-97758380D01*
X179377285Y-97758380D02*
X179186809Y-97758380D01*
X179091571Y-97806000D01*
X179043952Y-97853619D01*
X178948714Y-97996476D01*
X178901095Y-98186952D01*
X178901095Y-98567904D01*
X178948714Y-98663142D01*
X178996333Y-98710761D01*
X179091571Y-98758380D01*
X179282047Y-98758380D01*
X179377285Y-98710761D01*
X179424904Y-98663142D01*
X179472523Y-98567904D01*
X179472523Y-98329809D01*
X179424904Y-98234571D01*
X179377285Y-98186952D01*
X179282047Y-98139333D01*
X179091571Y-98139333D01*
X178996333Y-98186952D01*
X178948714Y-98234571D01*
X178901095Y-98329809D01*
G04 #@! TO.C,C12*
X153961523Y-121777142D02*
X153913904Y-121824761D01*
X153771047Y-121872380D01*
X153675809Y-121872380D01*
X153532952Y-121824761D01*
X153437714Y-121729523D01*
X153390095Y-121634285D01*
X153342476Y-121443809D01*
X153342476Y-121300952D01*
X153390095Y-121110476D01*
X153437714Y-121015238D01*
X153532952Y-120920000D01*
X153675809Y-120872380D01*
X153771047Y-120872380D01*
X153913904Y-120920000D01*
X153961523Y-120967619D01*
X154913904Y-121872380D02*
X154342476Y-121872380D01*
X154628190Y-121872380D02*
X154628190Y-120872380D01*
X154532952Y-121015238D01*
X154437714Y-121110476D01*
X154342476Y-121158095D01*
X155294857Y-120967619D02*
X155342476Y-120920000D01*
X155437714Y-120872380D01*
X155675809Y-120872380D01*
X155771047Y-120920000D01*
X155818666Y-120967619D01*
X155866285Y-121062857D01*
X155866285Y-121158095D01*
X155818666Y-121300952D01*
X155247238Y-121872380D01*
X155866285Y-121872380D01*
G04 #@! TO.C,J3*
X182086380Y-87497190D02*
X182800666Y-87497190D01*
X182943523Y-87544809D01*
X183038761Y-87640047D01*
X183086380Y-87782904D01*
X183086380Y-87878142D01*
X182086380Y-87116238D02*
X182086380Y-86497190D01*
X182467333Y-86830523D01*
X182467333Y-86687666D01*
X182514952Y-86592428D01*
X182562571Y-86544809D01*
X182657809Y-86497190D01*
X182895904Y-86497190D01*
X182991142Y-86544809D01*
X183038761Y-86592428D01*
X183086380Y-86687666D01*
X183086380Y-86973380D01*
X183038761Y-87068619D01*
X182991142Y-87116238D01*
G04 #@! TO.C,C1*
X130413142Y-97879476D02*
X130460761Y-97927095D01*
X130508380Y-98069952D01*
X130508380Y-98165190D01*
X130460761Y-98308047D01*
X130365523Y-98403285D01*
X130270285Y-98450904D01*
X130079809Y-98498523D01*
X129936952Y-98498523D01*
X129746476Y-98450904D01*
X129651238Y-98403285D01*
X129556000Y-98308047D01*
X129508380Y-98165190D01*
X129508380Y-98069952D01*
X129556000Y-97927095D01*
X129603619Y-97879476D01*
X130508380Y-96927095D02*
X130508380Y-97498523D01*
X130508380Y-97212809D02*
X129508380Y-97212809D01*
X129651238Y-97308047D01*
X129746476Y-97403285D01*
X129794095Y-97498523D01*
G04 #@! TO.C,C2*
X133641523Y-106156142D02*
X133593904Y-106203761D01*
X133451047Y-106251380D01*
X133355809Y-106251380D01*
X133212952Y-106203761D01*
X133117714Y-106108523D01*
X133070095Y-106013285D01*
X133022476Y-105822809D01*
X133022476Y-105679952D01*
X133070095Y-105489476D01*
X133117714Y-105394238D01*
X133212952Y-105299000D01*
X133355809Y-105251380D01*
X133451047Y-105251380D01*
X133593904Y-105299000D01*
X133641523Y-105346619D01*
X134022476Y-105346619D02*
X134070095Y-105299000D01*
X134165333Y-105251380D01*
X134403428Y-105251380D01*
X134498666Y-105299000D01*
X134546285Y-105346619D01*
X134593904Y-105441857D01*
X134593904Y-105537095D01*
X134546285Y-105679952D01*
X133974857Y-106251380D01*
X134593904Y-106251380D01*
G04 #@! TO.C,C5*
X120687523Y-97393142D02*
X120639904Y-97440761D01*
X120497047Y-97488380D01*
X120401809Y-97488380D01*
X120258952Y-97440761D01*
X120163714Y-97345523D01*
X120116095Y-97250285D01*
X120068476Y-97059809D01*
X120068476Y-96916952D01*
X120116095Y-96726476D01*
X120163714Y-96631238D01*
X120258952Y-96536000D01*
X120401809Y-96488380D01*
X120497047Y-96488380D01*
X120639904Y-96536000D01*
X120687523Y-96583619D01*
X121592285Y-96488380D02*
X121116095Y-96488380D01*
X121068476Y-96964571D01*
X121116095Y-96916952D01*
X121211333Y-96869333D01*
X121449428Y-96869333D01*
X121544666Y-96916952D01*
X121592285Y-96964571D01*
X121639904Y-97059809D01*
X121639904Y-97297904D01*
X121592285Y-97393142D01*
X121544666Y-97440761D01*
X121449428Y-97488380D01*
X121211333Y-97488380D01*
X121116095Y-97440761D01*
X121068476Y-97393142D01*
G04 #@! TO.C,C6*
X133006523Y-117459142D02*
X132958904Y-117506761D01*
X132816047Y-117554380D01*
X132720809Y-117554380D01*
X132577952Y-117506761D01*
X132482714Y-117411523D01*
X132435095Y-117316285D01*
X132387476Y-117125809D01*
X132387476Y-116982952D01*
X132435095Y-116792476D01*
X132482714Y-116697238D01*
X132577952Y-116602000D01*
X132720809Y-116554380D01*
X132816047Y-116554380D01*
X132958904Y-116602000D01*
X133006523Y-116649619D01*
X133863666Y-116554380D02*
X133673190Y-116554380D01*
X133577952Y-116602000D01*
X133530333Y-116649619D01*
X133435095Y-116792476D01*
X133387476Y-116982952D01*
X133387476Y-117363904D01*
X133435095Y-117459142D01*
X133482714Y-117506761D01*
X133577952Y-117554380D01*
X133768428Y-117554380D01*
X133863666Y-117506761D01*
X133911285Y-117459142D01*
X133958904Y-117363904D01*
X133958904Y-117125809D01*
X133911285Y-117030571D01*
X133863666Y-116982952D01*
X133768428Y-116935333D01*
X133577952Y-116935333D01*
X133482714Y-116982952D01*
X133435095Y-117030571D01*
X133387476Y-117125809D01*
G04 #@! TO.C,C7*
X180377523Y-112633142D02*
X180329904Y-112680761D01*
X180187047Y-112728380D01*
X180091809Y-112728380D01*
X179948952Y-112680761D01*
X179853714Y-112585523D01*
X179806095Y-112490285D01*
X179758476Y-112299809D01*
X179758476Y-112156952D01*
X179806095Y-111966476D01*
X179853714Y-111871238D01*
X179948952Y-111776000D01*
X180091809Y-111728380D01*
X180187047Y-111728380D01*
X180329904Y-111776000D01*
X180377523Y-111823619D01*
X180710857Y-111728380D02*
X181377523Y-111728380D01*
X180948952Y-112728380D01*
G04 #@! TO.C,C8*
X175879142Y-102070476D02*
X175926761Y-102118095D01*
X175974380Y-102260952D01*
X175974380Y-102356190D01*
X175926761Y-102499047D01*
X175831523Y-102594285D01*
X175736285Y-102641904D01*
X175545809Y-102689523D01*
X175402952Y-102689523D01*
X175212476Y-102641904D01*
X175117238Y-102594285D01*
X175022000Y-102499047D01*
X174974380Y-102356190D01*
X174974380Y-102260952D01*
X175022000Y-102118095D01*
X175069619Y-102070476D01*
X175402952Y-101499047D02*
X175355333Y-101594285D01*
X175307714Y-101641904D01*
X175212476Y-101689523D01*
X175164857Y-101689523D01*
X175069619Y-101641904D01*
X175022000Y-101594285D01*
X174974380Y-101499047D01*
X174974380Y-101308571D01*
X175022000Y-101213333D01*
X175069619Y-101165714D01*
X175164857Y-101118095D01*
X175212476Y-101118095D01*
X175307714Y-101165714D01*
X175355333Y-101213333D01*
X175402952Y-101308571D01*
X175402952Y-101499047D01*
X175450571Y-101594285D01*
X175498190Y-101641904D01*
X175593428Y-101689523D01*
X175783904Y-101689523D01*
X175879142Y-101641904D01*
X175926761Y-101594285D01*
X175974380Y-101499047D01*
X175974380Y-101308571D01*
X175926761Y-101213333D01*
X175879142Y-101165714D01*
X175783904Y-101118095D01*
X175593428Y-101118095D01*
X175498190Y-101165714D01*
X175450571Y-101213333D01*
X175402952Y-101308571D01*
G04 #@! TO.C,C9*
X197141523Y-122158142D02*
X197093904Y-122205761D01*
X196951047Y-122253380D01*
X196855809Y-122253380D01*
X196712952Y-122205761D01*
X196617714Y-122110523D01*
X196570095Y-122015285D01*
X196522476Y-121824809D01*
X196522476Y-121681952D01*
X196570095Y-121491476D01*
X196617714Y-121396238D01*
X196712952Y-121301000D01*
X196855809Y-121253380D01*
X196951047Y-121253380D01*
X197093904Y-121301000D01*
X197141523Y-121348619D01*
X197617714Y-122253380D02*
X197808190Y-122253380D01*
X197903428Y-122205761D01*
X197951047Y-122158142D01*
X198046285Y-122015285D01*
X198093904Y-121824809D01*
X198093904Y-121443857D01*
X198046285Y-121348619D01*
X197998666Y-121301000D01*
X197903428Y-121253380D01*
X197712952Y-121253380D01*
X197617714Y-121301000D01*
X197570095Y-121348619D01*
X197522476Y-121443857D01*
X197522476Y-121681952D01*
X197570095Y-121777190D01*
X197617714Y-121824809D01*
X197712952Y-121872428D01*
X197903428Y-121872428D01*
X197998666Y-121824809D01*
X198046285Y-121777190D01*
X198093904Y-121681952D01*
G04 #@! TO.C,C10*
X172376523Y-113014142D02*
X172328904Y-113061761D01*
X172186047Y-113109380D01*
X172090809Y-113109380D01*
X171947952Y-113061761D01*
X171852714Y-112966523D01*
X171805095Y-112871285D01*
X171757476Y-112680809D01*
X171757476Y-112537952D01*
X171805095Y-112347476D01*
X171852714Y-112252238D01*
X171947952Y-112157000D01*
X172090809Y-112109380D01*
X172186047Y-112109380D01*
X172328904Y-112157000D01*
X172376523Y-112204619D01*
X173328904Y-113109380D02*
X172757476Y-113109380D01*
X173043190Y-113109380D02*
X173043190Y-112109380D01*
X172947952Y-112252238D01*
X172852714Y-112347476D01*
X172757476Y-112395095D01*
X173947952Y-112109380D02*
X174043190Y-112109380D01*
X174138428Y-112157000D01*
X174186047Y-112204619D01*
X174233666Y-112299857D01*
X174281285Y-112490333D01*
X174281285Y-112728428D01*
X174233666Y-112918904D01*
X174186047Y-113014142D01*
X174138428Y-113061761D01*
X174043190Y-113109380D01*
X173947952Y-113109380D01*
X173852714Y-113061761D01*
X173805095Y-113014142D01*
X173757476Y-112918904D01*
X173709857Y-112728428D01*
X173709857Y-112490333D01*
X173757476Y-112299857D01*
X173805095Y-112204619D01*
X173852714Y-112157000D01*
X173947952Y-112109380D01*
G04 #@! TO.C,J9*
X145637380Y-115183190D02*
X146351666Y-115183190D01*
X146494523Y-115230809D01*
X146589761Y-115326047D01*
X146637380Y-115468904D01*
X146637380Y-115564142D01*
X146637380Y-114659380D02*
X146637380Y-114468904D01*
X146589761Y-114373666D01*
X146542142Y-114326047D01*
X146399285Y-114230809D01*
X146208809Y-114183190D01*
X145827857Y-114183190D01*
X145732619Y-114230809D01*
X145685000Y-114278428D01*
X145637380Y-114373666D01*
X145637380Y-114564142D01*
X145685000Y-114659380D01*
X145732619Y-114707000D01*
X145827857Y-114754619D01*
X146065952Y-114754619D01*
X146161190Y-114707000D01*
X146208809Y-114659380D01*
X146256428Y-114564142D01*
X146256428Y-114373666D01*
X146208809Y-114278428D01*
X146161190Y-114230809D01*
X146065952Y-114183190D01*
G04 #@! TO.C,R10*
X184441523Y-92154380D02*
X184108190Y-91678190D01*
X183870095Y-92154380D02*
X183870095Y-91154380D01*
X184251047Y-91154380D01*
X184346285Y-91202000D01*
X184393904Y-91249619D01*
X184441523Y-91344857D01*
X184441523Y-91487714D01*
X184393904Y-91582952D01*
X184346285Y-91630571D01*
X184251047Y-91678190D01*
X183870095Y-91678190D01*
X185393904Y-92154380D02*
X184822476Y-92154380D01*
X185108190Y-92154380D02*
X185108190Y-91154380D01*
X185012952Y-91297238D01*
X184917714Y-91392476D01*
X184822476Y-91440095D01*
X186012952Y-91154380D02*
X186108190Y-91154380D01*
X186203428Y-91202000D01*
X186251047Y-91249619D01*
X186298666Y-91344857D01*
X186346285Y-91535333D01*
X186346285Y-91773428D01*
X186298666Y-91963904D01*
X186251047Y-92059142D01*
X186203428Y-92106761D01*
X186108190Y-92154380D01*
X186012952Y-92154380D01*
X185917714Y-92106761D01*
X185870095Y-92059142D01*
X185822476Y-91963904D01*
X185774857Y-91773428D01*
X185774857Y-91535333D01*
X185822476Y-91344857D01*
X185870095Y-91249619D01*
X185917714Y-91202000D01*
X186012952Y-91154380D01*
G04 #@! TO.C,C11*
X127845571Y-99947428D02*
X127802714Y-99990285D01*
X127674142Y-100033142D01*
X127588428Y-100033142D01*
X127459857Y-99990285D01*
X127374142Y-99904571D01*
X127331285Y-99818857D01*
X127288428Y-99647428D01*
X127288428Y-99518857D01*
X127331285Y-99347428D01*
X127374142Y-99261714D01*
X127459857Y-99176000D01*
X127588428Y-99133142D01*
X127674142Y-99133142D01*
X127802714Y-99176000D01*
X127845571Y-99218857D01*
X128702714Y-100033142D02*
X128188428Y-100033142D01*
X128445571Y-100033142D02*
X128445571Y-99133142D01*
X128359857Y-99261714D01*
X128274142Y-99347428D01*
X128188428Y-99390285D01*
X129559857Y-100033142D02*
X129045571Y-100033142D01*
X129302714Y-100033142D02*
X129302714Y-99133142D01*
X129217000Y-99261714D01*
X129131285Y-99347428D01*
X129045571Y-99390285D01*
G04 #@! TO.C,R6*
X144436523Y-121364380D02*
X144103190Y-120888190D01*
X143865095Y-121364380D02*
X143865095Y-120364380D01*
X144246047Y-120364380D01*
X144341285Y-120412000D01*
X144388904Y-120459619D01*
X144436523Y-120554857D01*
X144436523Y-120697714D01*
X144388904Y-120792952D01*
X144341285Y-120840571D01*
X144246047Y-120888190D01*
X143865095Y-120888190D01*
X145293666Y-120364380D02*
X145103190Y-120364380D01*
X145007952Y-120412000D01*
X144960333Y-120459619D01*
X144865095Y-120602476D01*
X144817476Y-120792952D01*
X144817476Y-121173904D01*
X144865095Y-121269142D01*
X144912714Y-121316761D01*
X145007952Y-121364380D01*
X145198428Y-121364380D01*
X145293666Y-121316761D01*
X145341285Y-121269142D01*
X145388904Y-121173904D01*
X145388904Y-120935809D01*
X145341285Y-120840571D01*
X145293666Y-120792952D01*
X145198428Y-120745333D01*
X145007952Y-120745333D01*
X144912714Y-120792952D01*
X144865095Y-120840571D01*
X144817476Y-120935809D01*
G04 #@! TO.C,R9*
X154088523Y-119967380D02*
X153755190Y-119491190D01*
X153517095Y-119967380D02*
X153517095Y-118967380D01*
X153898047Y-118967380D01*
X153993285Y-119015000D01*
X154040904Y-119062619D01*
X154088523Y-119157857D01*
X154088523Y-119300714D01*
X154040904Y-119395952D01*
X153993285Y-119443571D01*
X153898047Y-119491190D01*
X153517095Y-119491190D01*
X154564714Y-119967380D02*
X154755190Y-119967380D01*
X154850428Y-119919761D01*
X154898047Y-119872142D01*
X154993285Y-119729285D01*
X155040904Y-119538809D01*
X155040904Y-119157857D01*
X154993285Y-119062619D01*
X154945666Y-119015000D01*
X154850428Y-118967380D01*
X154659952Y-118967380D01*
X154564714Y-119015000D01*
X154517095Y-119062619D01*
X154469476Y-119157857D01*
X154469476Y-119395952D01*
X154517095Y-119491190D01*
X154564714Y-119538809D01*
X154659952Y-119586428D01*
X154850428Y-119586428D01*
X154945666Y-119538809D01*
X154993285Y-119491190D01*
X155040904Y-119395952D01*
G04 #@! TO.C,R11*
X170598523Y-91519380D02*
X170265190Y-91043190D01*
X170027095Y-91519380D02*
X170027095Y-90519380D01*
X170408047Y-90519380D01*
X170503285Y-90567000D01*
X170550904Y-90614619D01*
X170598523Y-90709857D01*
X170598523Y-90852714D01*
X170550904Y-90947952D01*
X170503285Y-90995571D01*
X170408047Y-91043190D01*
X170027095Y-91043190D01*
X171550904Y-91519380D02*
X170979476Y-91519380D01*
X171265190Y-91519380D02*
X171265190Y-90519380D01*
X171169952Y-90662238D01*
X171074714Y-90757476D01*
X170979476Y-90805095D01*
X172503285Y-91519380D02*
X171931857Y-91519380D01*
X172217571Y-91519380D02*
X172217571Y-90519380D01*
X172122333Y-90662238D01*
X172027095Y-90757476D01*
X171931857Y-90805095D01*
G04 #@! TO.C,C15*
X199173523Y-112887142D02*
X199125904Y-112934761D01*
X198983047Y-112982380D01*
X198887809Y-112982380D01*
X198744952Y-112934761D01*
X198649714Y-112839523D01*
X198602095Y-112744285D01*
X198554476Y-112553809D01*
X198554476Y-112410952D01*
X198602095Y-112220476D01*
X198649714Y-112125238D01*
X198744952Y-112030000D01*
X198887809Y-111982380D01*
X198983047Y-111982380D01*
X199125904Y-112030000D01*
X199173523Y-112077619D01*
X200125904Y-112982380D02*
X199554476Y-112982380D01*
X199840190Y-112982380D02*
X199840190Y-111982380D01*
X199744952Y-112125238D01*
X199649714Y-112220476D01*
X199554476Y-112268095D01*
X201030666Y-111982380D02*
X200554476Y-111982380D01*
X200506857Y-112458571D01*
X200554476Y-112410952D01*
X200649714Y-112363333D01*
X200887809Y-112363333D01*
X200983047Y-112410952D01*
X201030666Y-112458571D01*
X201078285Y-112553809D01*
X201078285Y-112791904D01*
X201030666Y-112887142D01*
X200983047Y-112934761D01*
X200887809Y-112982380D01*
X200649714Y-112982380D01*
X200554476Y-112934761D01*
X200506857Y-112887142D01*
G04 #@! TO.C,C16*
X190029523Y-113268142D02*
X189981904Y-113315761D01*
X189839047Y-113363380D01*
X189743809Y-113363380D01*
X189600952Y-113315761D01*
X189505714Y-113220523D01*
X189458095Y-113125285D01*
X189410476Y-112934809D01*
X189410476Y-112791952D01*
X189458095Y-112601476D01*
X189505714Y-112506238D01*
X189600952Y-112411000D01*
X189743809Y-112363380D01*
X189839047Y-112363380D01*
X189981904Y-112411000D01*
X190029523Y-112458619D01*
X190981904Y-113363380D02*
X190410476Y-113363380D01*
X190696190Y-113363380D02*
X190696190Y-112363380D01*
X190600952Y-112506238D01*
X190505714Y-112601476D01*
X190410476Y-112649095D01*
X191839047Y-112363380D02*
X191648571Y-112363380D01*
X191553333Y-112411000D01*
X191505714Y-112458619D01*
X191410476Y-112601476D01*
X191362857Y-112791952D01*
X191362857Y-113172904D01*
X191410476Y-113268142D01*
X191458095Y-113315761D01*
X191553333Y-113363380D01*
X191743809Y-113363380D01*
X191839047Y-113315761D01*
X191886666Y-113268142D01*
X191934285Y-113172904D01*
X191934285Y-112934809D01*
X191886666Y-112839571D01*
X191839047Y-112791952D01*
X191743809Y-112744333D01*
X191553333Y-112744333D01*
X191458095Y-112791952D01*
X191410476Y-112839571D01*
X191362857Y-112934809D01*
G04 #@! TO.C,C18*
X197469142Y-114262476D02*
X197516761Y-114310095D01*
X197564380Y-114452952D01*
X197564380Y-114548190D01*
X197516761Y-114691047D01*
X197421523Y-114786285D01*
X197326285Y-114833904D01*
X197135809Y-114881523D01*
X196992952Y-114881523D01*
X196802476Y-114833904D01*
X196707238Y-114786285D01*
X196612000Y-114691047D01*
X196564380Y-114548190D01*
X196564380Y-114452952D01*
X196612000Y-114310095D01*
X196659619Y-114262476D01*
X197564380Y-113310095D02*
X197564380Y-113881523D01*
X197564380Y-113595809D02*
X196564380Y-113595809D01*
X196707238Y-113691047D01*
X196802476Y-113786285D01*
X196850095Y-113881523D01*
X196992952Y-112738666D02*
X196945333Y-112833904D01*
X196897714Y-112881523D01*
X196802476Y-112929142D01*
X196754857Y-112929142D01*
X196659619Y-112881523D01*
X196612000Y-112833904D01*
X196564380Y-112738666D01*
X196564380Y-112548190D01*
X196612000Y-112452952D01*
X196659619Y-112405333D01*
X196754857Y-112357714D01*
X196802476Y-112357714D01*
X196897714Y-112405333D01*
X196945333Y-112452952D01*
X196992952Y-112548190D01*
X196992952Y-112738666D01*
X197040571Y-112833904D01*
X197088190Y-112881523D01*
X197183428Y-112929142D01*
X197373904Y-112929142D01*
X197469142Y-112881523D01*
X197516761Y-112833904D01*
X197564380Y-112738666D01*
X197564380Y-112548190D01*
X197516761Y-112452952D01*
X197469142Y-112405333D01*
X197373904Y-112357714D01*
X197183428Y-112357714D01*
X197088190Y-112405333D01*
X197040571Y-112452952D01*
X196992952Y-112548190D01*
G04 #@! TO.C,R12*
X176567523Y-119586380D02*
X176234190Y-119110190D01*
X175996095Y-119586380D02*
X175996095Y-118586380D01*
X176377047Y-118586380D01*
X176472285Y-118634000D01*
X176519904Y-118681619D01*
X176567523Y-118776857D01*
X176567523Y-118919714D01*
X176519904Y-119014952D01*
X176472285Y-119062571D01*
X176377047Y-119110190D01*
X175996095Y-119110190D01*
X177519904Y-119586380D02*
X176948476Y-119586380D01*
X177234190Y-119586380D02*
X177234190Y-118586380D01*
X177138952Y-118729238D01*
X177043714Y-118824476D01*
X176948476Y-118872095D01*
X177900857Y-118681619D02*
X177948476Y-118634000D01*
X178043714Y-118586380D01*
X178281809Y-118586380D01*
X178377047Y-118634000D01*
X178424666Y-118681619D01*
X178472285Y-118776857D01*
X178472285Y-118872095D01*
X178424666Y-119014952D01*
X177853238Y-119586380D01*
X178472285Y-119586380D01*
G04 #@! TO.C,R13*
X186134380Y-114897476D02*
X185658190Y-115230809D01*
X186134380Y-115468904D02*
X185134380Y-115468904D01*
X185134380Y-115087952D01*
X185182000Y-114992714D01*
X185229619Y-114945095D01*
X185324857Y-114897476D01*
X185467714Y-114897476D01*
X185562952Y-114945095D01*
X185610571Y-114992714D01*
X185658190Y-115087952D01*
X185658190Y-115468904D01*
X186134380Y-113945095D02*
X186134380Y-114516523D01*
X186134380Y-114230809D02*
X185134380Y-114230809D01*
X185277238Y-114326047D01*
X185372476Y-114421285D01*
X185420095Y-114516523D01*
X185134380Y-113611761D02*
X185134380Y-112992714D01*
X185515333Y-113326047D01*
X185515333Y-113183190D01*
X185562952Y-113087952D01*
X185610571Y-113040333D01*
X185705809Y-112992714D01*
X185943904Y-112992714D01*
X186039142Y-113040333D01*
X186086761Y-113087952D01*
X186134380Y-113183190D01*
X186134380Y-113468904D01*
X186086761Y-113564142D01*
X186039142Y-113611761D01*
G04 #@! TO.C,R14*
X182409523Y-119586380D02*
X182076190Y-119110190D01*
X181838095Y-119586380D02*
X181838095Y-118586380D01*
X182219047Y-118586380D01*
X182314285Y-118634000D01*
X182361904Y-118681619D01*
X182409523Y-118776857D01*
X182409523Y-118919714D01*
X182361904Y-119014952D01*
X182314285Y-119062571D01*
X182219047Y-119110190D01*
X181838095Y-119110190D01*
X183361904Y-119586380D02*
X182790476Y-119586380D01*
X183076190Y-119586380D02*
X183076190Y-118586380D01*
X182980952Y-118729238D01*
X182885714Y-118824476D01*
X182790476Y-118872095D01*
X184219047Y-118919714D02*
X184219047Y-119586380D01*
X183980952Y-118538761D02*
X183742857Y-119253047D01*
X184361904Y-119253047D01*
G04 #@! TO.C,C17*
X188452142Y-109563476D02*
X188499761Y-109611095D01*
X188547380Y-109753952D01*
X188547380Y-109849190D01*
X188499761Y-109992047D01*
X188404523Y-110087285D01*
X188309285Y-110134904D01*
X188118809Y-110182523D01*
X187975952Y-110182523D01*
X187785476Y-110134904D01*
X187690238Y-110087285D01*
X187595000Y-109992047D01*
X187547380Y-109849190D01*
X187547380Y-109753952D01*
X187595000Y-109611095D01*
X187642619Y-109563476D01*
X188547380Y-108611095D02*
X188547380Y-109182523D01*
X188547380Y-108896809D02*
X187547380Y-108896809D01*
X187690238Y-108992047D01*
X187785476Y-109087285D01*
X187833095Y-109182523D01*
X187547380Y-108277761D02*
X187547380Y-107611095D01*
X188547380Y-108039666D01*
G04 #@! TO.C,C21*
X142986142Y-95847476D02*
X143033761Y-95895095D01*
X143081380Y-96037952D01*
X143081380Y-96133190D01*
X143033761Y-96276047D01*
X142938523Y-96371285D01*
X142843285Y-96418904D01*
X142652809Y-96466523D01*
X142509952Y-96466523D01*
X142319476Y-96418904D01*
X142224238Y-96371285D01*
X142129000Y-96276047D01*
X142081380Y-96133190D01*
X142081380Y-96037952D01*
X142129000Y-95895095D01*
X142176619Y-95847476D01*
X142176619Y-95466523D02*
X142129000Y-95418904D01*
X142081380Y-95323666D01*
X142081380Y-95085571D01*
X142129000Y-94990333D01*
X142176619Y-94942714D01*
X142271857Y-94895095D01*
X142367095Y-94895095D01*
X142509952Y-94942714D01*
X143081380Y-95514142D01*
X143081380Y-94895095D01*
X143081380Y-93942714D02*
X143081380Y-94514142D01*
X143081380Y-94228428D02*
X142081380Y-94228428D01*
X142224238Y-94323666D01*
X142319476Y-94418904D01*
X142367095Y-94514142D01*
G04 #@! TO.C,R15*
X151590380Y-107531476D02*
X151114190Y-107864809D01*
X151590380Y-108102904D02*
X150590380Y-108102904D01*
X150590380Y-107721952D01*
X150638000Y-107626714D01*
X150685619Y-107579095D01*
X150780857Y-107531476D01*
X150923714Y-107531476D01*
X151018952Y-107579095D01*
X151066571Y-107626714D01*
X151114190Y-107721952D01*
X151114190Y-108102904D01*
X151590380Y-106579095D02*
X151590380Y-107150523D01*
X151590380Y-106864809D02*
X150590380Y-106864809D01*
X150733238Y-106960047D01*
X150828476Y-107055285D01*
X150876095Y-107150523D01*
X150590380Y-105674333D02*
X150590380Y-106150523D01*
X151066571Y-106198142D01*
X151018952Y-106150523D01*
X150971333Y-106055285D01*
X150971333Y-105817190D01*
X151018952Y-105721952D01*
X151066571Y-105674333D01*
X151161809Y-105626714D01*
X151399904Y-105626714D01*
X151495142Y-105674333D01*
X151542761Y-105721952D01*
X151590380Y-105817190D01*
X151590380Y-106055285D01*
X151542761Y-106150523D01*
X151495142Y-106198142D01*
G04 #@! TO.C,R16*
X155151142Y-107104428D02*
X154722571Y-107404428D01*
X155151142Y-107618714D02*
X154251142Y-107618714D01*
X154251142Y-107275857D01*
X154294000Y-107190142D01*
X154336857Y-107147285D01*
X154422571Y-107104428D01*
X154551142Y-107104428D01*
X154636857Y-107147285D01*
X154679714Y-107190142D01*
X154722571Y-107275857D01*
X154722571Y-107618714D01*
X155151142Y-106247285D02*
X155151142Y-106761571D01*
X155151142Y-106504428D02*
X154251142Y-106504428D01*
X154379714Y-106590142D01*
X154465428Y-106675857D01*
X154508285Y-106761571D01*
X154251142Y-105475857D02*
X154251142Y-105647285D01*
X154294000Y-105733000D01*
X154336857Y-105775857D01*
X154465428Y-105861571D01*
X154636857Y-105904428D01*
X154979714Y-105904428D01*
X155065428Y-105861571D01*
X155108285Y-105818714D01*
X155151142Y-105733000D01*
X155151142Y-105561571D01*
X155108285Y-105475857D01*
X155065428Y-105433000D01*
X154979714Y-105390142D01*
X154765428Y-105390142D01*
X154679714Y-105433000D01*
X154636857Y-105475857D01*
X154594000Y-105561571D01*
X154594000Y-105733000D01*
X154636857Y-105818714D01*
X154679714Y-105861571D01*
X154765428Y-105904428D01*
G04 #@! TO.C,R17*
X146722523Y-105489380D02*
X146389190Y-105013190D01*
X146151095Y-105489380D02*
X146151095Y-104489380D01*
X146532047Y-104489380D01*
X146627285Y-104537000D01*
X146674904Y-104584619D01*
X146722523Y-104679857D01*
X146722523Y-104822714D01*
X146674904Y-104917952D01*
X146627285Y-104965571D01*
X146532047Y-105013190D01*
X146151095Y-105013190D01*
X147674904Y-105489380D02*
X147103476Y-105489380D01*
X147389190Y-105489380D02*
X147389190Y-104489380D01*
X147293952Y-104632238D01*
X147198714Y-104727476D01*
X147103476Y-104775095D01*
X148008238Y-104489380D02*
X148674904Y-104489380D01*
X148246333Y-105489380D01*
G04 #@! TO.C,R18*
X173646523Y-115649380D02*
X173313190Y-115173190D01*
X173075095Y-115649380D02*
X173075095Y-114649380D01*
X173456047Y-114649380D01*
X173551285Y-114697000D01*
X173598904Y-114744619D01*
X173646523Y-114839857D01*
X173646523Y-114982714D01*
X173598904Y-115077952D01*
X173551285Y-115125571D01*
X173456047Y-115173190D01*
X173075095Y-115173190D01*
X174598904Y-115649380D02*
X174027476Y-115649380D01*
X174313190Y-115649380D02*
X174313190Y-114649380D01*
X174217952Y-114792238D01*
X174122714Y-114887476D01*
X174027476Y-114935095D01*
X175170333Y-115077952D02*
X175075095Y-115030333D01*
X175027476Y-114982714D01*
X174979857Y-114887476D01*
X174979857Y-114839857D01*
X175027476Y-114744619D01*
X175075095Y-114697000D01*
X175170333Y-114649380D01*
X175360809Y-114649380D01*
X175456047Y-114697000D01*
X175503666Y-114744619D01*
X175551285Y-114839857D01*
X175551285Y-114887476D01*
X175503666Y-114982714D01*
X175456047Y-115030333D01*
X175360809Y-115077952D01*
X175170333Y-115077952D01*
X175075095Y-115125571D01*
X175027476Y-115173190D01*
X174979857Y-115268428D01*
X174979857Y-115458904D01*
X175027476Y-115554142D01*
X175075095Y-115601761D01*
X175170333Y-115649380D01*
X175360809Y-115649380D01*
X175456047Y-115601761D01*
X175503666Y-115554142D01*
X175551285Y-115458904D01*
X175551285Y-115268428D01*
X175503666Y-115173190D01*
X175456047Y-115125571D01*
X175360809Y-115077952D01*
G04 #@! TO.C,C22*
X160893142Y-115786476D02*
X160940761Y-115834095D01*
X160988380Y-115976952D01*
X160988380Y-116072190D01*
X160940761Y-116215047D01*
X160845523Y-116310285D01*
X160750285Y-116357904D01*
X160559809Y-116405523D01*
X160416952Y-116405523D01*
X160226476Y-116357904D01*
X160131238Y-116310285D01*
X160036000Y-116215047D01*
X159988380Y-116072190D01*
X159988380Y-115976952D01*
X160036000Y-115834095D01*
X160083619Y-115786476D01*
X160083619Y-115405523D02*
X160036000Y-115357904D01*
X159988380Y-115262666D01*
X159988380Y-115024571D01*
X160036000Y-114929333D01*
X160083619Y-114881714D01*
X160178857Y-114834095D01*
X160274095Y-114834095D01*
X160416952Y-114881714D01*
X160988380Y-115453142D01*
X160988380Y-114834095D01*
X160083619Y-114453142D02*
X160036000Y-114405523D01*
X159988380Y-114310285D01*
X159988380Y-114072190D01*
X160036000Y-113976952D01*
X160083619Y-113929333D01*
X160178857Y-113881714D01*
X160274095Y-113881714D01*
X160416952Y-113929333D01*
X160988380Y-114500761D01*
X160988380Y-113881714D01*
G04 #@! TO.C,C23*
X153019142Y-112230476D02*
X153066761Y-112278095D01*
X153114380Y-112420952D01*
X153114380Y-112516190D01*
X153066761Y-112659047D01*
X152971523Y-112754285D01*
X152876285Y-112801904D01*
X152685809Y-112849523D01*
X152542952Y-112849523D01*
X152352476Y-112801904D01*
X152257238Y-112754285D01*
X152162000Y-112659047D01*
X152114380Y-112516190D01*
X152114380Y-112420952D01*
X152162000Y-112278095D01*
X152209619Y-112230476D01*
X152209619Y-111849523D02*
X152162000Y-111801904D01*
X152114380Y-111706666D01*
X152114380Y-111468571D01*
X152162000Y-111373333D01*
X152209619Y-111325714D01*
X152304857Y-111278095D01*
X152400095Y-111278095D01*
X152542952Y-111325714D01*
X153114380Y-111897142D01*
X153114380Y-111278095D01*
X152114380Y-110944761D02*
X152114380Y-110325714D01*
X152495333Y-110659047D01*
X152495333Y-110516190D01*
X152542952Y-110420952D01*
X152590571Y-110373333D01*
X152685809Y-110325714D01*
X152923904Y-110325714D01*
X153019142Y-110373333D01*
X153066761Y-110420952D01*
X153114380Y-110516190D01*
X153114380Y-110801904D01*
X153066761Y-110897142D01*
X153019142Y-110944761D01*
G04 #@! TO.C,C24*
X151167523Y-114919142D02*
X151119904Y-114966761D01*
X150977047Y-115014380D01*
X150881809Y-115014380D01*
X150738952Y-114966761D01*
X150643714Y-114871523D01*
X150596095Y-114776285D01*
X150548476Y-114585809D01*
X150548476Y-114442952D01*
X150596095Y-114252476D01*
X150643714Y-114157238D01*
X150738952Y-114062000D01*
X150881809Y-114014380D01*
X150977047Y-114014380D01*
X151119904Y-114062000D01*
X151167523Y-114109619D01*
X151548476Y-114109619D02*
X151596095Y-114062000D01*
X151691333Y-114014380D01*
X151929428Y-114014380D01*
X152024666Y-114062000D01*
X152072285Y-114109619D01*
X152119904Y-114204857D01*
X152119904Y-114300095D01*
X152072285Y-114442952D01*
X151500857Y-115014380D01*
X152119904Y-115014380D01*
X152977047Y-114347714D02*
X152977047Y-115014380D01*
X152738952Y-113966761D02*
X152500857Y-114681047D01*
X153119904Y-114681047D01*
G04 #@! TO.C,C3*
X156039571Y-96010428D02*
X155996714Y-96053285D01*
X155868142Y-96096142D01*
X155782428Y-96096142D01*
X155653857Y-96053285D01*
X155568142Y-95967571D01*
X155525285Y-95881857D01*
X155482428Y-95710428D01*
X155482428Y-95581857D01*
X155525285Y-95410428D01*
X155568142Y-95324714D01*
X155653857Y-95239000D01*
X155782428Y-95196142D01*
X155868142Y-95196142D01*
X155996714Y-95239000D01*
X156039571Y-95281857D01*
X156339571Y-95196142D02*
X156896714Y-95196142D01*
X156596714Y-95539000D01*
X156725285Y-95539000D01*
X156811000Y-95581857D01*
X156853857Y-95624714D01*
X156896714Y-95710428D01*
X156896714Y-95924714D01*
X156853857Y-96010428D01*
X156811000Y-96053285D01*
X156725285Y-96096142D01*
X156468142Y-96096142D01*
X156382428Y-96053285D01*
X156339571Y-96010428D01*
G04 #@! TO.C,R23*
X137751571Y-123528142D02*
X137451571Y-123099571D01*
X137237285Y-123528142D02*
X137237285Y-122628142D01*
X137580142Y-122628142D01*
X137665857Y-122671000D01*
X137708714Y-122713857D01*
X137751571Y-122799571D01*
X137751571Y-122928142D01*
X137708714Y-123013857D01*
X137665857Y-123056714D01*
X137580142Y-123099571D01*
X137237285Y-123099571D01*
X138094428Y-122713857D02*
X138137285Y-122671000D01*
X138223000Y-122628142D01*
X138437285Y-122628142D01*
X138523000Y-122671000D01*
X138565857Y-122713857D01*
X138608714Y-122799571D01*
X138608714Y-122885285D01*
X138565857Y-123013857D01*
X138051571Y-123528142D01*
X138608714Y-123528142D01*
X138908714Y-122628142D02*
X139465857Y-122628142D01*
X139165857Y-122971000D01*
X139294428Y-122971000D01*
X139380142Y-123013857D01*
X139423000Y-123056714D01*
X139465857Y-123142428D01*
X139465857Y-123356714D01*
X139423000Y-123442428D01*
X139380142Y-123485285D01*
X139294428Y-123528142D01*
X139037285Y-123528142D01*
X138951571Y-123485285D01*
X138908714Y-123442428D01*
G04 #@! TO.C,D1*
X127482095Y-123269380D02*
X127482095Y-122269380D01*
X127720190Y-122269380D01*
X127863047Y-122317000D01*
X127958285Y-122412238D01*
X128005904Y-122507476D01*
X128053523Y-122697952D01*
X128053523Y-122840809D01*
X128005904Y-123031285D01*
X127958285Y-123126523D01*
X127863047Y-123221761D01*
X127720190Y-123269380D01*
X127482095Y-123269380D01*
X129005904Y-123269380D02*
X128434476Y-123269380D01*
X128720190Y-123269380D02*
X128720190Y-122269380D01*
X128624952Y-122412238D01*
X128529714Y-122507476D01*
X128434476Y-122555095D01*
G04 #@! TO.C,D2*
X129878142Y-112952714D02*
X128978142Y-112952714D01*
X128978142Y-112738428D01*
X129021000Y-112609857D01*
X129106714Y-112524142D01*
X129192428Y-112481285D01*
X129363857Y-112438428D01*
X129492428Y-112438428D01*
X129663857Y-112481285D01*
X129749571Y-112524142D01*
X129835285Y-112609857D01*
X129878142Y-112738428D01*
X129878142Y-112952714D01*
X129063857Y-112095571D02*
X129021000Y-112052714D01*
X128978142Y-111967000D01*
X128978142Y-111752714D01*
X129021000Y-111667000D01*
X129063857Y-111624142D01*
X129149571Y-111581285D01*
X129235285Y-111581285D01*
X129363857Y-111624142D01*
X129878142Y-112138428D01*
X129878142Y-111581285D01*
G04 #@! TO.C,J6*
X135223380Y-116453190D02*
X135937666Y-116453190D01*
X136080523Y-116500809D01*
X136175761Y-116596047D01*
X136223380Y-116738904D01*
X136223380Y-116834142D01*
X135223380Y-115548428D02*
X135223380Y-115738904D01*
X135271000Y-115834142D01*
X135318619Y-115881761D01*
X135461476Y-115977000D01*
X135651952Y-116024619D01*
X136032904Y-116024619D01*
X136128142Y-115977000D01*
X136175761Y-115929380D01*
X136223380Y-115834142D01*
X136223380Y-115643666D01*
X136175761Y-115548428D01*
X136128142Y-115500809D01*
X136032904Y-115453190D01*
X135794809Y-115453190D01*
X135699571Y-115500809D01*
X135651952Y-115548428D01*
X135604333Y-115643666D01*
X135604333Y-115834142D01*
X135651952Y-115929380D01*
X135699571Y-115977000D01*
X135794809Y-116024619D01*
G04 #@! TO.C,R19*
X156039571Y-113749142D02*
X155739571Y-113320571D01*
X155525285Y-113749142D02*
X155525285Y-112849142D01*
X155868142Y-112849142D01*
X155953857Y-112892000D01*
X155996714Y-112934857D01*
X156039571Y-113020571D01*
X156039571Y-113149142D01*
X155996714Y-113234857D01*
X155953857Y-113277714D01*
X155868142Y-113320571D01*
X155525285Y-113320571D01*
X156896714Y-113749142D02*
X156382428Y-113749142D01*
X156639571Y-113749142D02*
X156639571Y-112849142D01*
X156553857Y-112977714D01*
X156468142Y-113063428D01*
X156382428Y-113106285D01*
X157325285Y-113749142D02*
X157496714Y-113749142D01*
X157582428Y-113706285D01*
X157625285Y-113663428D01*
X157711000Y-113534857D01*
X157753857Y-113363428D01*
X157753857Y-113020571D01*
X157711000Y-112934857D01*
X157668142Y-112892000D01*
X157582428Y-112849142D01*
X157411000Y-112849142D01*
X157325285Y-112892000D01*
X157282428Y-112934857D01*
X157239571Y-113020571D01*
X157239571Y-113234857D01*
X157282428Y-113320571D01*
X157325285Y-113363428D01*
X157411000Y-113406285D01*
X157582428Y-113406285D01*
X157668142Y-113363428D01*
X157711000Y-113320571D01*
X157753857Y-113234857D01*
G04 #@! TO.C,TP2*
X139327095Y-118070380D02*
X139898523Y-118070380D01*
X139612809Y-119070380D02*
X139612809Y-118070380D01*
X140231857Y-119070380D02*
X140231857Y-118070380D01*
X140612809Y-118070380D01*
X140708047Y-118118000D01*
X140755666Y-118165619D01*
X140803285Y-118260857D01*
X140803285Y-118403714D01*
X140755666Y-118498952D01*
X140708047Y-118546571D01*
X140612809Y-118594190D01*
X140231857Y-118594190D01*
X141184238Y-118165619D02*
X141231857Y-118118000D01*
X141327095Y-118070380D01*
X141565190Y-118070380D01*
X141660428Y-118118000D01*
X141708047Y-118165619D01*
X141755666Y-118260857D01*
X141755666Y-118356095D01*
X141708047Y-118498952D01*
X141136619Y-119070380D01*
X141755666Y-119070380D01*
G04 #@! TO.C,C14*
X158787523Y-89392142D02*
X158739904Y-89439761D01*
X158597047Y-89487380D01*
X158501809Y-89487380D01*
X158358952Y-89439761D01*
X158263714Y-89344523D01*
X158216095Y-89249285D01*
X158168476Y-89058809D01*
X158168476Y-88915952D01*
X158216095Y-88725476D01*
X158263714Y-88630238D01*
X158358952Y-88535000D01*
X158501809Y-88487380D01*
X158597047Y-88487380D01*
X158739904Y-88535000D01*
X158787523Y-88582619D01*
X159739904Y-89487380D02*
X159168476Y-89487380D01*
X159454190Y-89487380D02*
X159454190Y-88487380D01*
X159358952Y-88630238D01*
X159263714Y-88725476D01*
X159168476Y-88773095D01*
X160597047Y-88820714D02*
X160597047Y-89487380D01*
X160358952Y-88439761D02*
X160120857Y-89154047D01*
X160739904Y-89154047D01*
G04 #@! TO.C,R20*
X146764380Y-119342476D02*
X146288190Y-119675809D01*
X146764380Y-119913904D02*
X145764380Y-119913904D01*
X145764380Y-119532952D01*
X145812000Y-119437714D01*
X145859619Y-119390095D01*
X145954857Y-119342476D01*
X146097714Y-119342476D01*
X146192952Y-119390095D01*
X146240571Y-119437714D01*
X146288190Y-119532952D01*
X146288190Y-119913904D01*
X145859619Y-118961523D02*
X145812000Y-118913904D01*
X145764380Y-118818666D01*
X145764380Y-118580571D01*
X145812000Y-118485333D01*
X145859619Y-118437714D01*
X145954857Y-118390095D01*
X146050095Y-118390095D01*
X146192952Y-118437714D01*
X146764380Y-119009142D01*
X146764380Y-118390095D01*
X145764380Y-117771047D02*
X145764380Y-117675809D01*
X145812000Y-117580571D01*
X145859619Y-117532952D01*
X145954857Y-117485333D01*
X146145333Y-117437714D01*
X146383428Y-117437714D01*
X146573904Y-117485333D01*
X146669142Y-117532952D01*
X146716761Y-117580571D01*
X146764380Y-117675809D01*
X146764380Y-117771047D01*
X146716761Y-117866285D01*
X146669142Y-117913904D01*
X146573904Y-117961523D01*
X146383428Y-118009142D01*
X146145333Y-118009142D01*
X145954857Y-117961523D01*
X145859619Y-117913904D01*
X145812000Y-117866285D01*
X145764380Y-117771047D01*
G04 #@! TO.C,R21*
X148161380Y-119342476D02*
X147685190Y-119675809D01*
X148161380Y-119913904D02*
X147161380Y-119913904D01*
X147161380Y-119532952D01*
X147209000Y-119437714D01*
X147256619Y-119390095D01*
X147351857Y-119342476D01*
X147494714Y-119342476D01*
X147589952Y-119390095D01*
X147637571Y-119437714D01*
X147685190Y-119532952D01*
X147685190Y-119913904D01*
X147256619Y-118961523D02*
X147209000Y-118913904D01*
X147161380Y-118818666D01*
X147161380Y-118580571D01*
X147209000Y-118485333D01*
X147256619Y-118437714D01*
X147351857Y-118390095D01*
X147447095Y-118390095D01*
X147589952Y-118437714D01*
X148161380Y-119009142D01*
X148161380Y-118390095D01*
X148161380Y-117437714D02*
X148161380Y-118009142D01*
X148161380Y-117723428D02*
X147161380Y-117723428D01*
X147304238Y-117818666D01*
X147399476Y-117913904D01*
X147447095Y-118009142D01*
G04 #@! TO.C,R22*
X162512380Y-95212476D02*
X162036190Y-95545809D01*
X162512380Y-95783904D02*
X161512380Y-95783904D01*
X161512380Y-95402952D01*
X161560000Y-95307714D01*
X161607619Y-95260095D01*
X161702857Y-95212476D01*
X161845714Y-95212476D01*
X161940952Y-95260095D01*
X161988571Y-95307714D01*
X162036190Y-95402952D01*
X162036190Y-95783904D01*
X161607619Y-94831523D02*
X161560000Y-94783904D01*
X161512380Y-94688666D01*
X161512380Y-94450571D01*
X161560000Y-94355333D01*
X161607619Y-94307714D01*
X161702857Y-94260095D01*
X161798095Y-94260095D01*
X161940952Y-94307714D01*
X162512380Y-94879142D01*
X162512380Y-94260095D01*
X161607619Y-93879142D02*
X161560000Y-93831523D01*
X161512380Y-93736285D01*
X161512380Y-93498190D01*
X161560000Y-93402952D01*
X161607619Y-93355333D01*
X161702857Y-93307714D01*
X161798095Y-93307714D01*
X161940952Y-93355333D01*
X162512380Y-93926761D01*
X162512380Y-93307714D01*
G04 #@! TO.C,DA1*
X122783095Y-91011380D02*
X122783095Y-90011380D01*
X123021190Y-90011380D01*
X123164047Y-90059000D01*
X123259285Y-90154238D01*
X123306904Y-90249476D01*
X123354523Y-90439952D01*
X123354523Y-90582809D01*
X123306904Y-90773285D01*
X123259285Y-90868523D01*
X123164047Y-90963761D01*
X123021190Y-91011380D01*
X122783095Y-91011380D01*
X123735476Y-90725666D02*
X124211666Y-90725666D01*
X123640238Y-91011380D02*
X123973571Y-90011380D01*
X124306904Y-91011380D01*
X125164047Y-91011380D02*
X124592619Y-91011380D01*
X124878333Y-91011380D02*
X124878333Y-90011380D01*
X124783095Y-90154238D01*
X124687857Y-90249476D01*
X124592619Y-90297095D01*
G04 #@! TO.C,F1*
X134927428Y-89979571D02*
X134594095Y-89979571D01*
X134594095Y-90503380D02*
X134594095Y-89503380D01*
X135070285Y-89503380D01*
X135975047Y-90503380D02*
X135403619Y-90503380D01*
X135689333Y-90503380D02*
X135689333Y-89503380D01*
X135594095Y-89646238D01*
X135498857Y-89741476D01*
X135403619Y-89789095D01*
G04 #@! TO.C,R1*
X120814523Y-114379380D02*
X120481190Y-113903190D01*
X120243095Y-114379380D02*
X120243095Y-113379380D01*
X120624047Y-113379380D01*
X120719285Y-113427000D01*
X120766904Y-113474619D01*
X120814523Y-113569857D01*
X120814523Y-113712714D01*
X120766904Y-113807952D01*
X120719285Y-113855571D01*
X120624047Y-113903190D01*
X120243095Y-113903190D01*
X121766904Y-114379380D02*
X121195476Y-114379380D01*
X121481190Y-114379380D02*
X121481190Y-113379380D01*
X121385952Y-113522238D01*
X121290714Y-113617476D01*
X121195476Y-113665095D01*
G04 #@! TO.C,R2*
X123608523Y-114379380D02*
X123275190Y-113903190D01*
X123037095Y-114379380D02*
X123037095Y-113379380D01*
X123418047Y-113379380D01*
X123513285Y-113427000D01*
X123560904Y-113474619D01*
X123608523Y-113569857D01*
X123608523Y-113712714D01*
X123560904Y-113807952D01*
X123513285Y-113855571D01*
X123418047Y-113903190D01*
X123037095Y-113903190D01*
X123989476Y-113474619D02*
X124037095Y-113427000D01*
X124132333Y-113379380D01*
X124370428Y-113379380D01*
X124465666Y-113427000D01*
X124513285Y-113474619D01*
X124560904Y-113569857D01*
X124560904Y-113665095D01*
X124513285Y-113807952D01*
X123941857Y-114379380D01*
X124560904Y-114379380D01*
G04 #@! TD*
M02*
