M48
INCH,TZ
T1C0.0160
T2C0.0200
T3C0.0394
T4C0.0591
T5C0.1160
T6C0.0512
%
G90
G05
T1
X46500Y-38750
X47000Y-41750
X47750Y-36750
X48000Y-39500
X48250Y-39000
X48500Y-40500
X49518Y-37482
X49609Y-39109
X49891Y-39391
X51175Y-37625
X51575Y-37625
X52000Y-38500
X57000Y-35000
X57250Y-39250
X57750Y-48250
X58000Y-38500
X58000Y-40000
X58250Y-46000
X58500Y-40000
X58500Y-43750
X58750Y-38750
X58750Y-46250
X59000Y-37000
X59250Y-38750
X59250Y-45750
X59500Y-43250
X59500Y-46500
X59750Y-39000
X59750Y-40000
X60000Y-43000
X60000Y-45250
X60250Y-46500
X61500Y-37500
X62000Y-37000
X62000Y-37500
X62250Y-39250
X62250Y-43500
X62500Y-37000
X62750Y-41250
X62750Y-46250
X63000Y-40750
X63250Y-39750
X63250Y-40250
X63250Y-46750
X63500Y-43750
X63500Y-46000
X63750Y-35750
X63750Y-39750
X64250Y-39250
X64750Y-35750
X64750Y-39250
X64750Y-41500
X65000Y-38750
X65250Y-39750
X65250Y-43750
X65500Y-33750
X65750Y-34250
X66000Y-36250
X66000Y-40750
X66250Y-37250
X66500Y-39750
X66500Y-40250
X66750Y-41750
X66750Y-43000
X67112Y-43612
X67250Y-40750
X67250Y-41250
X67750Y-38500
X67750Y-44500
X68000Y-35250
X68250Y-46750
X68750Y-40500
X68750Y-41000
X68750Y-41500
X69000Y-45750
X70000Y-47250
X70500Y-46250
X72250Y-38250
X72500Y-47250
X73750Y-43250
X73750Y-43750
X74250Y-44250
X74500Y-45250
X74500Y-46750
X74750Y-46000
X75250Y-45750
X75750Y-40750
X76000Y-44750
X76000Y-46750
X76000Y-47250
X76250Y-41000
X76750Y-45000
X77500Y-46000
X77500Y-46750
X78250Y-40500
X78250Y-41000
X78750Y-41000
X79500Y-43750
X80750Y-40750
T2
X43250Y-35500
X43250Y-36250
X44250Y-35500
X44250Y-36250
X45500Y-35500
X45500Y-36250
X45500Y-37000
X45500Y-37750
X46250Y-39250
X48750Y-44500
X48750Y-45000
X49000Y-39250
X49500Y-36750
X49815Y-40000
X50125Y-37250
X50250Y-44500
X50250Y-45000
X50250Y-47750
X50250Y-48250
X50750Y-33750
X50750Y-34500
X51000Y-42750
X51750Y-33750
X51750Y-39000
X51750Y-40000
X52250Y-46500
X52625Y-37250
X52750Y-42750
X53000Y-40750
X57000Y-35500
X57000Y-47750
X57000Y-48250
X57750Y-36500
X57750Y-37250
X58000Y-44750
X59000Y-44750
X59750Y-36750
X60250Y-37250
X60750Y-38750
X60750Y-40750
X60750Y-44250
X61000Y-37000
X62600Y-34750
X63250Y-34750
X63250Y-37000
X64000Y-37000
X64250Y-43750
X64250Y-46000
X66250Y-36750
X67250Y-42500
X67500Y-35250
X68500Y-36250
X68500Y-36750
X68500Y-37250
X68500Y-38000
X68750Y-38500
X68750Y-46250
X69000Y-44000
X70750Y-40000
X70750Y-42000
X70750Y-44000
X71000Y-45000
X71000Y-46250
X71500Y-38500
X71750Y-36250
X71750Y-36750
X71750Y-37250
X71750Y-38000
X72750Y-37750
X75000Y-41000
X75500Y-43750
X75500Y-48250
X77000Y-41000
X77000Y-44500
X77750Y-45250
X77750Y-47250
X78000Y-44500
X79250Y-42750
X80750Y-36250
X43721Y-45550
X43721Y-46450
X44500Y-45100
X44500Y-46900
X45279Y-45550
X45279Y-46450
X78721Y-45550
X78721Y-46450
X79500Y-45100
X79500Y-46900
X80279Y-45550
X80279Y-46450
X54221Y-35300
X54221Y-36200
X55000Y-34850
X55000Y-36650
X55779Y-35300
X55779Y-36200
T3
X55750Y-38750
X55750Y-39750
X55750Y-40750
X55750Y-41750
X55750Y-42750
X55750Y-43750
X55750Y-44750
X55750Y-45750
X56750Y-38750
X56750Y-39750
X56750Y-40750
X56750Y-41750
X56750Y-42750
X56750Y-43750
X56750Y-44750
X56750Y-45750
X54250Y-38250
X54250Y-39250
X47500Y-34000
X65500Y-46000
X65500Y-47000
X66500Y-46000
X66500Y-47000
X67500Y-46000
X67500Y-47000
X54250Y-45500
X46970Y-44614
X46970Y-46386
X49530Y-44614
X49530Y-46386
X68000Y-34250
X69000Y-34250
X70000Y-34250
X71000Y-34250
X43250Y-42250
X43250Y-43250
X44250Y-42250
X44250Y-43250
X45250Y-42250
X45250Y-43250
X43250Y-38750
X43250Y-39750
X43250Y-40750
X44250Y-38750
X44250Y-39750
X44250Y-40750
T4
X76810Y-39330
T5
X44500Y-46000
X79500Y-46000
X55000Y-35750
T6
X44159Y-34075
X45734Y-34075
T0
M30
