G04 #@! TF.GenerationSoftware,KiCad,Pcbnew,5.0.0-fee4fd1~65~ubuntu17.10.1*
G04 #@! TF.CreationDate,2018-09-23T03:35:41-04:00*
G04 #@! TF.ProjectId,motherboard,6D6F74686572626F6172642E6B696361,rev?*
G04 #@! TF.SameCoordinates,Original*
G04 #@! TF.FileFunction,Copper,L1,Top,Signal*
G04 #@! TF.FilePolarity,Positive*
%FSLAX46Y46*%
G04 Gerber Fmt 4.6, Leading zero omitted, Abs format (unit mm)*
G04 Created by KiCad (PCBNEW 5.0.0-fee4fd1~65~ubuntu17.10.1) date Sun Sep 23 03:35:41 2018*
%MOMM*%
%LPD*%
G01*
G04 APERTURE LIST*
G04 #@! TA.AperFunction,ComponentPad*
%ADD10C,1.600000*%
G04 #@! TD*
G04 #@! TA.AperFunction,SMDPad,CuDef*
%ADD11R,0.900000X0.250000*%
G04 #@! TD*
G04 #@! TA.AperFunction,SMDPad,CuDef*
%ADD12R,1.000000X1.100000*%
G04 #@! TD*
G04 #@! TA.AperFunction,SMDPad,CuDef*
%ADD13R,0.800000X0.400000*%
G04 #@! TD*
G04 #@! TA.AperFunction,SMDPad,CuDef*
%ADD14R,1.800000X1.600000*%
G04 #@! TD*
G04 #@! TA.AperFunction,ComponentPad*
%ADD15R,1.600000X1.600000*%
G04 #@! TD*
G04 #@! TA.AperFunction,ComponentPad*
%ADD16C,6.350000*%
G04 #@! TD*
G04 #@! TA.AperFunction,ViaPad*
%ADD17C,1.016000*%
G04 #@! TD*
G04 #@! TA.AperFunction,SMDPad,CuDef*
%ADD18R,0.400000X1.500000*%
G04 #@! TD*
G04 #@! TA.AperFunction,SMDPad,CuDef*
%ADD19R,1.500000X0.400000*%
G04 #@! TD*
G04 #@! TA.AperFunction,ComponentPad*
%ADD20R,3.700000X3.700000*%
G04 #@! TD*
G04 #@! TA.AperFunction,SMDPad,CuDef*
%ADD21R,1.905000X0.762000*%
G04 #@! TD*
G04 #@! TA.AperFunction,SMDPad,CuDef*
%ADD22R,0.762000X1.905000*%
G04 #@! TD*
G04 #@! TA.AperFunction,SMDPad,CuDef*
%ADD23R,1.200000X3.500000*%
G04 #@! TD*
G04 #@! TA.AperFunction,SMDPad,CuDef*
%ADD24R,0.700000X1.000000*%
G04 #@! TD*
G04 #@! TA.AperFunction,SMDPad,CuDef*
%ADD25R,1.400000X1.200000*%
G04 #@! TD*
G04 #@! TA.AperFunction,SMDPad,CuDef*
%ADD26R,1.000000X0.700000*%
G04 #@! TD*
G04 #@! TA.AperFunction,SMDPad,CuDef*
%ADD27R,1.400000X0.900000*%
G04 #@! TD*
G04 #@! TA.AperFunction,SMDPad,CuDef*
%ADD28R,1.000000X1.200000*%
G04 #@! TD*
G04 #@! TA.AperFunction,SMDPad,CuDef*
%ADD29R,1.150000X1.200000*%
G04 #@! TD*
G04 #@! TA.AperFunction,SMDPad,CuDef*
%ADD30R,2.500000X3.800000*%
G04 #@! TD*
G04 #@! TA.AperFunction,SMDPad,CuDef*
%ADD31R,0.500000X1.400000*%
G04 #@! TD*
G04 #@! TA.AperFunction,SMDPad,CuDef*
%ADD32R,1.800000X2.200000*%
G04 #@! TD*
G04 #@! TA.AperFunction,SMDPad,CuDef*
%ADD33R,2.200000X0.600000*%
G04 #@! TD*
G04 #@! TA.AperFunction,SMDPad,CuDef*
%ADD34R,1.400000X0.400000*%
G04 #@! TD*
G04 #@! TA.AperFunction,SMDPad,CuDef*
%ADD35R,1.400000X0.250000*%
G04 #@! TD*
G04 #@! TA.AperFunction,SMDPad,CuDef*
%ADD36R,0.250000X1.400000*%
G04 #@! TD*
G04 #@! TA.AperFunction,SMDPad,CuDef*
%ADD37R,1.100000X1.000000*%
G04 #@! TD*
G04 #@! TA.AperFunction,SMDPad,CuDef*
%ADD38R,1.300000X1.500000*%
G04 #@! TD*
G04 #@! TA.AperFunction,SMDPad,CuDef*
%ADD39R,1.500000X1.300000*%
G04 #@! TD*
G04 #@! TA.AperFunction,SMDPad,CuDef*
%ADD40R,1.200000X0.650000*%
G04 #@! TD*
G04 #@! TA.AperFunction,SMDPad,CuDef*
%ADD41R,1.600000X1.800000*%
G04 #@! TD*
G04 #@! TA.AperFunction,BGAPad,CuDef*
%ADD42C,1.270000*%
G04 #@! TD*
G04 #@! TA.AperFunction,ViaPad*
%ADD43C,0.812800*%
G04 #@! TD*
G04 #@! TA.AperFunction,ViaPad*
%ADD44C,1.117600*%
G04 #@! TD*
G04 #@! TA.AperFunction,Conductor*
%ADD45C,0.304800*%
G04 #@! TD*
G04 #@! TA.AperFunction,Conductor*
%ADD46C,0.254000*%
G04 #@! TD*
G04 #@! TA.AperFunction,Conductor*
%ADD47C,0.203200*%
G04 #@! TD*
G04 #@! TA.AperFunction,Conductor*
%ADD48C,0.406400*%
G04 #@! TD*
%ADD49C,0.350000*%
G04 APERTURE END LIST*
D10*
G04 #@! TO.P,SW1,2*
G04 #@! TO.N,GND*
X125805000Y-113320000D03*
X119305000Y-113320000D03*
G04 #@! TO.P,SW1,1*
G04 #@! TO.N,Net-(C13-Pad1)*
X119305000Y-117820000D03*
X125805000Y-117820000D03*
G04 #@! TD*
D11*
G04 #@! TO.P,U8,8*
G04 #@! TO.N,+5V*
X120220000Y-116320000D03*
G04 #@! TO.P,U8,7*
G04 #@! TO.N,Net-(R2-Pad2)*
X120220000Y-115820000D03*
G04 #@! TO.P,U8,6*
G04 #@! TO.N,/USB Serial/RESET*
X120220000Y-115320000D03*
G04 #@! TO.P,U8,5*
G04 #@! TO.N,/USB Serial/UTXD*
X120220000Y-114820000D03*
G04 #@! TO.P,U8,1*
G04 #@! TO.N,Net-(R2-Pad2)*
X123620000Y-116320000D03*
G04 #@! TO.P,U8,2*
G04 #@! TO.N,/USB Serial/RESET-M*
X123620000Y-115820000D03*
G04 #@! TO.P,U8,3*
G04 #@! TO.N,/PE0*
X123620000Y-115320000D03*
G04 #@! TO.P,U8,4*
G04 #@! TO.N,GND*
X123620000Y-114820000D03*
G04 #@! TD*
D12*
G04 #@! TO.P,C13,1*
G04 #@! TO.N,Net-(C13-Pad1)*
X135890000Y-120865000D03*
G04 #@! TO.P,C13,2*
G04 #@! TO.N,/RESET*
X135890000Y-119165000D03*
G04 #@! TD*
D13*
G04 #@! TO.P,U9,1*
G04 #@! TO.N,Net-(R19-Pad1)*
X156140000Y-119395000D03*
G04 #@! TO.P,U9,2*
G04 #@! TO.N,/PE1*
X156140000Y-118745000D03*
G04 #@! TO.P,U9,3*
G04 #@! TO.N,GND*
X156140000Y-118095000D03*
G04 #@! TO.P,U9,4*
G04 #@! TO.N,/USB Serial/URXD*
X153740000Y-118095000D03*
G04 #@! TO.P,U9,5*
G04 #@! TO.N,UVCC*
X153740000Y-119395000D03*
G04 #@! TD*
D14*
G04 #@! TO.P,F1,2*
G04 #@! TO.N,/USB Serial/UVCC_IN*
X135890000Y-98555000D03*
G04 #@! TO.P,F1,1*
G04 #@! TO.N,Net-(F1-Pad1)*
X135890000Y-95755000D03*
G04 #@! TD*
D10*
G04 #@! TO.P,J18,2*
G04 #@! TO.N,GND*
X202565000Y-111125000D03*
D15*
G04 #@! TO.P,J18,1*
X205105000Y-111125000D03*
G04 #@! TD*
D16*
G04 #@! TO.P,H2,P*
G04 #@! TO.N,GND*
X201930000Y-116840000D03*
D17*
G04 #@! TD*
G04 #@! TO.N,GND*
G04 #@! TO.C,H2*
X201930000Y-114554000D03*
G04 #@! TO.N,GND*
G04 #@! TO.C,H2*
X199950266Y-115697000D03*
X199950266Y-117983000D03*
X201930000Y-119126000D03*
X203909734Y-117983000D03*
X203909734Y-115697000D03*
G04 #@! TD*
D16*
G04 #@! TO.P,H3,P*
G04 #@! TO.N,GND*
X139700000Y-90805000D03*
D17*
G04 #@! TD*
G04 #@! TO.N,GND*
G04 #@! TO.C,H3*
X139700000Y-88519000D03*
G04 #@! TO.N,GND*
G04 #@! TO.C,H3*
X137720266Y-89662000D03*
X137720266Y-91948000D03*
X139700000Y-93091000D03*
X141679734Y-91948000D03*
X141679734Y-89662000D03*
G04 #@! TD*
D16*
G04 #@! TO.P,H1,P*
G04 #@! TO.N,GND*
X113030000Y-116840000D03*
D17*
G04 #@! TD*
G04 #@! TO.N,GND*
G04 #@! TO.C,H1*
X113030000Y-114554000D03*
G04 #@! TO.N,GND*
G04 #@! TO.C,H1*
X111050266Y-115697000D03*
X111050266Y-117983000D03*
X113030000Y-119126000D03*
X115009734Y-117983000D03*
X115009734Y-115697000D03*
G04 #@! TD*
D18*
G04 #@! TO.P,U7,8*
G04 #@! TO.N,GND*
X147585000Y-97230000D03*
G04 #@! TO.P,U7,7*
G04 #@! TO.N,/SDCS*
X148235000Y-97230000D03*
G04 #@! TO.P,U7,6*
G04 #@! TO.N,/Peripherals/SDCS_3V3*
X148885000Y-97230000D03*
G04 #@! TO.P,U7,5*
G04 #@! TO.N,/MOSI*
X149535000Y-97230000D03*
G04 #@! TO.P,U7,4*
G04 #@! TO.N,/Peripherals/CMOSI_3V3*
X150185000Y-97230000D03*
G04 #@! TO.P,U7,3*
G04 #@! TO.N,/SCK*
X150835000Y-97230000D03*
G04 #@! TO.P,U7,2*
G04 #@! TO.N,/Peripherals/CSCK_3V3*
X151485000Y-97230000D03*
G04 #@! TO.P,U7,1*
G04 #@! TO.N,DVDD*
X152135000Y-97230000D03*
G04 #@! TO.P,U7,9*
G04 #@! TO.N,/CRST*
X147585000Y-103430000D03*
G04 #@! TO.P,U7,10*
G04 #@! TO.N,/Peripherals/CRST_3V3*
X148235000Y-103430000D03*
G04 #@! TO.P,U7,11*
G04 #@! TO.N,/XDCS*
X148885000Y-103430000D03*
G04 #@! TO.P,U7,12*
G04 #@! TO.N,/Peripherals/XDCS_3V3*
X149535000Y-103430000D03*
G04 #@! TO.P,U7,13*
G04 #@! TO.N,N/C*
X150185000Y-103430000D03*
G04 #@! TO.P,U7,14*
G04 #@! TO.N,/CCS*
X150835000Y-103430000D03*
G04 #@! TO.P,U7,15*
G04 #@! TO.N,/Peripherals/CCS_3V3*
X151485000Y-103430000D03*
G04 #@! TO.P,U7,16*
G04 #@! TO.N,N/C*
X152135000Y-103430000D03*
G04 #@! TD*
D19*
G04 #@! TO.P,U5,8*
G04 #@! TO.N,GND*
X194235000Y-115835000D03*
G04 #@! TO.P,U5,7*
G04 #@! TO.N,/WWAKE*
X194235000Y-116485000D03*
G04 #@! TO.P,U5,6*
G04 #@! TO.N,/Peripherals/WWAKE_3V3*
X194235000Y-117135000D03*
G04 #@! TO.P,U5,5*
G04 #@! TO.N,/SCK*
X194235000Y-117785000D03*
G04 #@! TO.P,U5,4*
G04 #@! TO.N,/Peripherals/WSCK_3V3*
X194235000Y-118435000D03*
G04 #@! TO.P,U5,3*
G04 #@! TO.N,/MOSI*
X194235000Y-119085000D03*
G04 #@! TO.P,U5,2*
G04 #@! TO.N,/Peripherals/WMOSI_3V3*
X194235000Y-119735000D03*
G04 #@! TO.P,U5,1*
G04 #@! TO.N,+3V3*
X194235000Y-120385000D03*
G04 #@! TO.P,U5,9*
G04 #@! TO.N,/WEN*
X188035000Y-115835000D03*
G04 #@! TO.P,U5,10*
G04 #@! TO.N,/Peripherals/WEN_3V3*
X188035000Y-116485000D03*
G04 #@! TO.P,U5,11*
G04 #@! TO.N,/WRST*
X188035000Y-117135000D03*
G04 #@! TO.P,U5,12*
G04 #@! TO.N,/Peripherals/WRST_3V3*
X188035000Y-117785000D03*
G04 #@! TO.P,U5,13*
G04 #@! TO.N,N/C*
X188035000Y-118435000D03*
G04 #@! TO.P,U5,14*
G04 #@! TO.N,/WCS*
X188035000Y-119085000D03*
G04 #@! TO.P,U5,15*
G04 #@! TO.N,/Peripherals/WCS_3V3*
X188035000Y-119735000D03*
G04 #@! TO.P,U5,16*
G04 #@! TO.N,N/C*
X188035000Y-120385000D03*
G04 #@! TD*
D20*
G04 #@! TO.P,U4,29*
G04 #@! TO.N,GND*
X195097400Y-99898200D03*
D21*
G04 #@! TO.P,U4,19*
G04 #@! TO.N,Net-(U4-Pad19)*
X188214000Y-102489000D03*
G04 #@! TO.P,U4,18*
G04 #@! TO.N,/Peripherals/WSCK_3V3*
X188214000Y-101473000D03*
G04 #@! TO.P,U4,17*
G04 #@! TO.N,/MISO*
X188214000Y-100457000D03*
G04 #@! TO.P,U4,16*
G04 #@! TO.N,/Peripherals/WCS_3V3*
X188214000Y-99441000D03*
G04 #@! TO.P,U4,15*
G04 #@! TO.N,/Peripherals/WMOSI_3V3*
X188214000Y-98425000D03*
G04 #@! TO.P,U4,14*
G04 #@! TO.N,Net-(U4-Pad14)*
X188214000Y-97409000D03*
G04 #@! TO.P,U4,13*
G04 #@! TO.N,/WIRQ*
X188214000Y-96393000D03*
G04 #@! TO.P,U4,12*
G04 #@! TO.N,GND*
X188214000Y-95377000D03*
G04 #@! TO.P,U4,11*
G04 #@! TO.N,/Peripherals/WWAKE_3V3*
X188214000Y-94361000D03*
G04 #@! TO.P,U4,10*
G04 #@! TO.N,/Peripherals/SPI_CFG*
X188214000Y-93345000D03*
D22*
G04 #@! TO.P,U4,20*
G04 #@! TO.N,+3V3*
X190119000Y-106172000D03*
G04 #@! TO.P,U4,21*
G04 #@! TO.N,/Peripherals/GPIO_1*
X193167000Y-106172000D03*
G04 #@! TO.P,U4,22*
G04 #@! TO.N,/Peripherals/WEN_3V3*
X194183000Y-106172000D03*
G04 #@! TO.P,U4,23*
G04 #@! TO.N,+3V3*
X195199000Y-106172000D03*
G04 #@! TO.P,U4,24*
G04 #@! TO.N,/Peripherals/1P3V*
X196215000Y-106172000D03*
G04 #@! TO.P,U4,25*
G04 #@! TO.N,/Peripherals/GPIO_3*
X197231000Y-106172000D03*
G04 #@! TO.P,U4,26*
G04 #@! TO.N,/Peripherals/LED_WIFI*
X198247000Y-106172000D03*
G04 #@! TO.P,U4,27*
G04 #@! TO.N,/Peripherals/LED_NET*
X199263000Y-106172000D03*
G04 #@! TO.P,U4,28*
G04 #@! TO.N,GND*
X200279000Y-106172000D03*
D21*
G04 #@! TO.P,U4,1*
G04 #@! TO.N,/Peripherals/LED_ERR*
X202946000Y-103505000D03*
G04 #@! TO.P,U4,2*
G04 #@! TO.N,Net-(U4-Pad2)*
X202946000Y-102489000D03*
G04 #@! TO.P,U4,3*
G04 #@! TO.N,Net-(U4-Pad3)*
X202946000Y-101473000D03*
G04 #@! TO.P,U4,4*
G04 #@! TO.N,/Peripherals/WRST_3V3*
X202946000Y-100457000D03*
G04 #@! TO.P,U4,5*
G04 #@! TO.N,Net-(U4-Pad5)*
X202946000Y-96393000D03*
G04 #@! TO.P,U4,6*
G04 #@! TO.N,Net-(U4-Pad6)*
X202946000Y-94361000D03*
G04 #@! TO.P,U4,7*
G04 #@! TO.N,Net-(U4-Pad7)*
X202946000Y-93345000D03*
G04 #@! TO.P,U4,8*
G04 #@! TO.N,Net-(U4-Pad8)*
X202946000Y-92329000D03*
G04 #@! TO.P,U4,9*
G04 #@! TO.N,GND*
X202946000Y-91313000D03*
G04 #@! TD*
D23*
G04 #@! TO.P,Y2,2*
G04 #@! TO.N,Net-(C7-Pad1)*
X180975000Y-109430000D03*
G04 #@! TO.P,Y2,1*
G04 #@! TO.N,Net-(C8-Pad1)*
X180975000Y-103930000D03*
G04 #@! TD*
G04 #@! TO.P,Y1,2*
G04 #@! TO.N,Net-(C1-Pad1)*
X133350000Y-109010000D03*
G04 #@! TO.P,Y1,1*
G04 #@! TO.N,Net-(C2-Pad1)*
X133350000Y-114510000D03*
G04 #@! TD*
D24*
G04 #@! TO.P,J5,1*
G04 #@! TO.N,Net-(J5-Pad1)*
X148550000Y-93050000D03*
G04 #@! TO.P,J5,2*
G04 #@! TO.N,/Peripherals/SDCS_3V3*
X149650000Y-93050000D03*
G04 #@! TO.P,J5,3*
G04 #@! TO.N,/Peripherals/CMOSI_3V3*
X150750000Y-93050000D03*
G04 #@! TO.P,J5,4*
G04 #@! TO.N,DVDD*
X151850000Y-93050000D03*
G04 #@! TO.P,J5,5*
G04 #@! TO.N,/Peripherals/CSCK_3V3*
X152950000Y-93050000D03*
G04 #@! TO.P,J5,6*
G04 #@! TO.N,GND*
X154050000Y-93050000D03*
G04 #@! TO.P,J5,7*
G04 #@! TO.N,/MISO*
X155150000Y-93050000D03*
G04 #@! TO.P,J5,8*
G04 #@! TO.N,Net-(J5-Pad8)*
X156250000Y-93050000D03*
D25*
G04 #@! TO.P,J5,SH*
G04 #@! TO.N,GND*
X146900000Y-91550000D03*
D26*
G04 #@! TO.P,J5,DC*
X146700000Y-90400000D03*
D27*
G04 #@! TO.P,J5,DT*
G04 #@! TO.N,/SD_DET*
X146900000Y-89250000D03*
D28*
G04 #@! TO.P,J5,SH*
G04 #@! TO.N,GND*
X157400000Y-91990000D03*
D29*
X157325000Y-89400000D03*
G04 #@! TD*
D30*
G04 #@! TO.P,J2,SH*
G04 #@! TO.N,/USB Serial/USHLD*
X134375000Y-86750000D03*
X125975000Y-86750000D03*
D31*
G04 #@! TO.P,J2,5*
G04 #@! TO.N,/USB Serial/UGND*
X128575000Y-89150000D03*
G04 #@! TO.P,J2,1*
G04 #@! TO.N,Net-(F1-Pad1)*
X131775000Y-89150000D03*
G04 #@! TO.P,J2,2*
G04 #@! TO.N,/USB Serial/D_IN-*
X130975000Y-89150000D03*
G04 #@! TO.P,J2,4*
G04 #@! TO.N,Net-(J2-Pad4)*
X129375000Y-89150000D03*
G04 #@! TO.P,J2,3*
G04 #@! TO.N,/USB Serial/D_IN+*
X130175000Y-89150000D03*
G04 #@! TD*
D32*
G04 #@! TO.P,J1,2*
G04 #@! TO.N,GND*
X118665000Y-91550000D03*
G04 #@! TO.P,J1,3*
X118665000Y-94450000D03*
G04 #@! TO.P,J1,1*
G04 #@! TO.N,/VIN*
X111065000Y-94450000D03*
G04 #@! TD*
D33*
G04 #@! TO.P,U2,5*
G04 #@! TO.N,GND*
X169070000Y-89535000D03*
G04 #@! TO.P,U2,6*
G04 #@! TO.N,Net-(B1-PadP)*
X169070000Y-88265000D03*
G04 #@! TO.P,U2,8*
G04 #@! TO.N,/SCL*
X169070000Y-85725000D03*
G04 #@! TO.P,U2,4*
G04 #@! TO.N,Net-(U2-Pad4)*
X163670000Y-89535000D03*
G04 #@! TO.P,U2,3*
G04 #@! TO.N,/RTC_INT*
X163670000Y-88265000D03*
G04 #@! TO.P,U2,1*
G04 #@! TO.N,Net-(U2-Pad1)*
X163670000Y-85725000D03*
G04 #@! TO.P,U2,7*
G04 #@! TO.N,/SDA*
X169070000Y-86995000D03*
G04 #@! TO.P,U2,2*
G04 #@! TO.N,+5V*
X163670000Y-86995000D03*
G04 #@! TD*
D34*
G04 #@! TO.P,U3,32*
G04 #@! TO.N,UVCC*
X124505000Y-103765000D03*
G04 #@! TO.P,U3,31*
G04 #@! TO.N,/USB Serial/UVCC_IN*
X124505000Y-102965000D03*
G04 #@! TO.P,U3,30*
G04 #@! TO.N,/USB Serial/D-*
X124505000Y-102165000D03*
G04 #@! TO.P,U3,29*
G04 #@! TO.N,/USB Serial/D+*
X124505000Y-101365000D03*
G04 #@! TO.P,U3,28*
G04 #@! TO.N,/USB Serial/UGND*
X124505000Y-100565000D03*
G04 #@! TO.P,U3,27*
G04 #@! TO.N,Net-(C4-Pad2)*
X124505000Y-99765000D03*
G04 #@! TO.P,U3,26*
G04 #@! TO.N,Net-(U3-Pad26)*
X124505000Y-98965000D03*
G04 #@! TO.P,U3,25*
G04 #@! TO.N,Net-(U3-Pad25)*
X124505000Y-98165000D03*
D31*
G04 #@! TO.P,U3,24*
G04 #@! TO.N,/USB Serial/RESET-USB*
X126105000Y-96565000D03*
G04 #@! TO.P,U3,23*
G04 #@! TO.N,Net-(U3-Pad23)*
X126905000Y-96565000D03*
G04 #@! TO.P,U3,22*
G04 #@! TO.N,Net-(U3-Pad22)*
X127705000Y-96565000D03*
G04 #@! TO.P,U3,21*
G04 #@! TO.N,Net-(U3-Pad21)*
X128505000Y-96565000D03*
G04 #@! TO.P,U3,20*
G04 #@! TO.N,Net-(U3-Pad20)*
X129305000Y-96565000D03*
G04 #@! TO.P,U3,19*
G04 #@! TO.N,Net-(U3-Pad19)*
X130105000Y-96565000D03*
G04 #@! TO.P,U3,18*
G04 #@! TO.N,Net-(U3-Pad18)*
X130905000Y-96565000D03*
G04 #@! TO.P,U3,17*
G04 #@! TO.N,/USB Serial/MISO-USB*
X131705000Y-96565000D03*
D34*
G04 #@! TO.P,U3,16*
G04 #@! TO.N,/USB Serial/MOSI-USB*
X133305000Y-98165000D03*
G04 #@! TO.P,U3,15*
G04 #@! TO.N,/USB Serial/SCK-USB*
X133305000Y-98965000D03*
G04 #@! TO.P,U3,14*
G04 #@! TO.N,Net-(U3-Pad14)*
X133305000Y-99765000D03*
G04 #@! TO.P,U3,13*
G04 #@! TO.N,/USB Serial/RESET-M*
X133305000Y-100565000D03*
G04 #@! TO.P,U3,12*
G04 #@! TO.N,Net-(U3-Pad12)*
X133305000Y-101365000D03*
G04 #@! TO.P,U3,11*
G04 #@! TO.N,/USB Serial/LED_TX*
X133305000Y-102165000D03*
G04 #@! TO.P,U3,10*
G04 #@! TO.N,/USB Serial/LED_RX*
X133305000Y-102965000D03*
G04 #@! TO.P,U3,9*
G04 #@! TO.N,/USB Serial/UTXD*
X133305000Y-103765000D03*
D31*
G04 #@! TO.P,U3,8*
G04 #@! TO.N,/USB Serial/URXD*
X131705000Y-105365000D03*
G04 #@! TO.P,U3,7*
G04 #@! TO.N,Net-(U3-Pad7)*
X130905000Y-105365000D03*
G04 #@! TO.P,U3,6*
G04 #@! TO.N,Net-(U3-Pad6)*
X130105000Y-105365000D03*
G04 #@! TO.P,U3,5*
G04 #@! TO.N,Net-(U3-Pad5)*
X129305000Y-105365000D03*
G04 #@! TO.P,U3,4*
G04 #@! TO.N,UVCC*
X128505000Y-105365000D03*
G04 #@! TO.P,U3,3*
G04 #@! TO.N,GND*
X127705000Y-105365000D03*
G04 #@! TO.P,U3,2*
G04 #@! TO.N,Net-(C1-Pad1)*
X126905000Y-105365000D03*
G04 #@! TO.P,U3,1*
G04 #@! TO.N,Net-(C2-Pad1)*
X126105000Y-105365000D03*
G04 #@! TD*
D35*
G04 #@! TO.P,U1,100*
G04 #@! TO.N,+5V*
X156565000Y-110775000D03*
G04 #@! TO.P,U1,99*
G04 #@! TO.N,GND*
X156565000Y-110275000D03*
G04 #@! TO.P,U1,98*
G04 #@! TO.N,Net-(C24-Pad1)*
X156565000Y-109775000D03*
G04 #@! TO.P,U1,97*
G04 #@! TO.N,Net-(U1-Pad97)*
X156565000Y-109275000D03*
G04 #@! TO.P,U1,96*
G04 #@! TO.N,Net-(U1-Pad96)*
X156565000Y-108775000D03*
G04 #@! TO.P,U1,95*
G04 #@! TO.N,Net-(U1-Pad95)*
X156565000Y-108275000D03*
G04 #@! TO.P,U1,94*
G04 #@! TO.N,Net-(U1-Pad94)*
X156565000Y-107775000D03*
G04 #@! TO.P,U1,93*
G04 #@! TO.N,Net-(U1-Pad93)*
X156565000Y-107275000D03*
G04 #@! TO.P,U1,92*
G04 #@! TO.N,Net-(U1-Pad92)*
X156565000Y-106775000D03*
G04 #@! TO.P,U1,91*
G04 #@! TO.N,Net-(U1-Pad91)*
X156565000Y-106275000D03*
G04 #@! TO.P,U1,90*
G04 #@! TO.N,Net-(U1-Pad90)*
X156565000Y-105775000D03*
G04 #@! TO.P,U1,89*
G04 #@! TO.N,/LOW_BATT*
X156565000Y-105275000D03*
G04 #@! TO.P,U1,88*
G04 #@! TO.N,Net-(U1-Pad88)*
X156565000Y-104775000D03*
G04 #@! TO.P,U1,87*
G04 #@! TO.N,Net-(U1-Pad87)*
X156565000Y-104275000D03*
G04 #@! TO.P,U1,86*
G04 #@! TO.N,Net-(U1-Pad86)*
X156565000Y-103775000D03*
G04 #@! TO.P,U1,85*
G04 #@! TO.N,Net-(U1-Pad85)*
X156565000Y-103275000D03*
G04 #@! TO.P,U1,84*
G04 #@! TO.N,Net-(U1-Pad84)*
X156565000Y-102775000D03*
G04 #@! TO.P,U1,83*
G04 #@! TO.N,/ON_BATT*
X156565000Y-102275000D03*
G04 #@! TO.P,U1,82*
G04 #@! TO.N,Net-(U1-Pad82)*
X156565000Y-101775000D03*
G04 #@! TO.P,U1,81*
G04 #@! TO.N,GND*
X156565000Y-101275000D03*
G04 #@! TO.P,U1,80*
G04 #@! TO.N,+5V*
X156565000Y-100775000D03*
G04 #@! TO.P,U1,79*
G04 #@! TO.N,Net-(U1-Pad79)*
X156565000Y-100275000D03*
G04 #@! TO.P,U1,78*
G04 #@! TO.N,Net-(U1-Pad78)*
X156565000Y-99775000D03*
G04 #@! TO.P,U1,77*
G04 #@! TO.N,Net-(U1-Pad77)*
X156565000Y-99275000D03*
G04 #@! TO.P,U1,76*
G04 #@! TO.N,Net-(U1-Pad76)*
X156565000Y-98775000D03*
D36*
G04 #@! TO.P,U1,75*
G04 #@! TO.N,/ALRM_SW*
X158465000Y-96875000D03*
G04 #@! TO.P,U1,74*
G04 #@! TO.N,Net-(U1-Pad74)*
X158965000Y-96875000D03*
G04 #@! TO.P,U1,73*
G04 #@! TO.N,Net-(U1-Pad73)*
X159465000Y-96875000D03*
G04 #@! TO.P,U1,72*
G04 #@! TO.N,/A_SHDN*
X159965000Y-96875000D03*
G04 #@! TO.P,U1,71*
G04 #@! TO.N,/XDCS*
X160465000Y-96875000D03*
G04 #@! TO.P,U1,70*
G04 #@! TO.N,Net-(U1-Pad70)*
X160965000Y-96875000D03*
G04 #@! TO.P,U1,69*
G04 #@! TO.N,Net-(U1-Pad69)*
X161465000Y-96875000D03*
G04 #@! TO.P,U1,68*
G04 #@! TO.N,Net-(U1-Pad68)*
X161965000Y-96875000D03*
G04 #@! TO.P,U1,67*
G04 #@! TO.N,Net-(U1-Pad67)*
X162465000Y-96875000D03*
G04 #@! TO.P,U1,66*
G04 #@! TO.N,Net-(U1-Pad66)*
X162965000Y-96875000D03*
G04 #@! TO.P,U1,65*
G04 #@! TO.N,Net-(U1-Pad65)*
X163465000Y-96875000D03*
G04 #@! TO.P,U1,64*
G04 #@! TO.N,Net-(U1-Pad64)*
X163965000Y-96875000D03*
G04 #@! TO.P,U1,63*
G04 #@! TO.N,Net-(U1-Pad63)*
X164465000Y-96875000D03*
G04 #@! TO.P,U1,62*
G04 #@! TO.N,GND*
X164965000Y-96875000D03*
G04 #@! TO.P,U1,61*
G04 #@! TO.N,+5V*
X165465000Y-96875000D03*
G04 #@! TO.P,U1,60*
G04 #@! TO.N,/PIX_SHDN*
X165965000Y-96875000D03*
G04 #@! TO.P,U1,59*
G04 #@! TO.N,Net-(U1-Pad59)*
X166465000Y-96875000D03*
G04 #@! TO.P,U1,58*
G04 #@! TO.N,Net-(U1-Pad58)*
X166965000Y-96875000D03*
G04 #@! TO.P,U1,57*
G04 #@! TO.N,/SD_DET*
X167465000Y-96875000D03*
G04 #@! TO.P,U1,56*
G04 #@! TO.N,Net-(U1-Pad56)*
X167965000Y-96875000D03*
G04 #@! TO.P,U1,55*
G04 #@! TO.N,/PIX_LAMP*
X168465000Y-96875000D03*
G04 #@! TO.P,U1,54*
G04 #@! TO.N,Net-(U1-Pad54)*
X168965000Y-96875000D03*
G04 #@! TO.P,U1,53*
G04 #@! TO.N,/PIX_CLK*
X169465000Y-96875000D03*
G04 #@! TO.P,U1,52*
G04 #@! TO.N,Net-(U1-Pad52)*
X169965000Y-96875000D03*
G04 #@! TO.P,U1,51*
G04 #@! TO.N,Net-(U1-Pad51)*
X170465000Y-96875000D03*
D35*
G04 #@! TO.P,U1,50*
G04 #@! TO.N,Net-(U1-Pad50)*
X172365000Y-98775000D03*
G04 #@! TO.P,U1,49*
G04 #@! TO.N,Net-(U1-Pad49)*
X172365000Y-99275000D03*
G04 #@! TO.P,U1,48*
G04 #@! TO.N,Net-(U1-Pad48)*
X172365000Y-99775000D03*
G04 #@! TO.P,U1,47*
G04 #@! TO.N,Net-(U1-Pad47)*
X172365000Y-100275000D03*
G04 #@! TO.P,U1,46*
G04 #@! TO.N,/DREQ*
X172365000Y-100775000D03*
G04 #@! TO.P,U1,45*
G04 #@! TO.N,/WIRQ*
X172365000Y-101275000D03*
G04 #@! TO.P,U1,44*
G04 #@! TO.N,/SDA*
X172365000Y-101775000D03*
G04 #@! TO.P,U1,43*
G04 #@! TO.N,/SCL*
X172365000Y-102275000D03*
G04 #@! TO.P,U1,42*
G04 #@! TO.N,/P42*
X172365000Y-102775000D03*
G04 #@! TO.P,U1,41*
G04 #@! TO.N,/P43*
X172365000Y-103275000D03*
G04 #@! TO.P,U1,40*
G04 #@! TO.N,/P44*
X172365000Y-103775000D03*
G04 #@! TO.P,U1,39*
G04 #@! TO.N,/P45*
X172365000Y-104275000D03*
G04 #@! TO.P,U1,38*
G04 #@! TO.N,/P46*
X172365000Y-104775000D03*
G04 #@! TO.P,U1,37*
G04 #@! TO.N,Net-(U1-Pad37)*
X172365000Y-105275000D03*
G04 #@! TO.P,U1,36*
G04 #@! TO.N,Net-(U1-Pad36)*
X172365000Y-105775000D03*
G04 #@! TO.P,U1,35*
G04 #@! TO.N,Net-(U1-Pad35)*
X172365000Y-106275000D03*
G04 #@! TO.P,U1,34*
G04 #@! TO.N,Net-(C8-Pad1)*
X172365000Y-106775000D03*
G04 #@! TO.P,U1,33*
G04 #@! TO.N,Net-(C7-Pad1)*
X172365000Y-107275000D03*
G04 #@! TO.P,U1,32*
G04 #@! TO.N,GND*
X172365000Y-107775000D03*
G04 #@! TO.P,U1,31*
G04 #@! TO.N,+5V*
X172365000Y-108275000D03*
G04 #@! TO.P,U1,30*
G04 #@! TO.N,/RESET*
X172365000Y-108775000D03*
G04 #@! TO.P,U1,29*
G04 #@! TO.N,Net-(U1-Pad29)*
X172365000Y-109275000D03*
G04 #@! TO.P,U1,28*
G04 #@! TO.N,Net-(U1-Pad28)*
X172365000Y-109775000D03*
G04 #@! TO.P,U1,27*
G04 #@! TO.N,Net-(U1-Pad27)*
X172365000Y-110275000D03*
G04 #@! TO.P,U1,26*
G04 #@! TO.N,/WCS*
X172365000Y-110775000D03*
D36*
G04 #@! TO.P,U1,25*
G04 #@! TO.N,/WEN*
X170465000Y-112675000D03*
G04 #@! TO.P,U1,24*
G04 #@! TO.N,/WRST*
X169965000Y-112675000D03*
G04 #@! TO.P,U1,23*
G04 #@! TO.N,/WWAKE*
X169465000Y-112675000D03*
G04 #@! TO.P,U1,22*
G04 #@! TO.N,/MISO*
X168965000Y-112675000D03*
G04 #@! TO.P,U1,21*
G04 #@! TO.N,/MOSI*
X168465000Y-112675000D03*
G04 #@! TO.P,U1,20*
G04 #@! TO.N,/SCK*
X167965000Y-112675000D03*
G04 #@! TO.P,U1,19*
G04 #@! TO.N,Net-(U1-Pad19)*
X167465000Y-112675000D03*
G04 #@! TO.P,U1,18*
G04 #@! TO.N,/CRST*
X166965000Y-112675000D03*
G04 #@! TO.P,U1,17*
G04 #@! TO.N,/ALS_INT*
X166465000Y-112675000D03*
G04 #@! TO.P,U1,16*
G04 #@! TO.N,Net-(U1-Pad16)*
X165965000Y-112675000D03*
G04 #@! TO.P,U1,15*
G04 #@! TO.N,/CFG\005C~RST*
X165465000Y-112675000D03*
G04 #@! TO.P,U1,14*
G04 #@! TO.N,Net-(U1-Pad14)*
X164965000Y-112675000D03*
G04 #@! TO.P,U1,13*
G04 #@! TO.N,/CCS*
X164465000Y-112675000D03*
G04 #@! TO.P,U1,12*
G04 #@! TO.N,Net-(U1-Pad12)*
X163965000Y-112675000D03*
G04 #@! TO.P,U1,11*
G04 #@! TO.N,GND*
X163465000Y-112675000D03*
G04 #@! TO.P,U1,10*
G04 #@! TO.N,+5V*
X162965000Y-112675000D03*
G04 #@! TO.P,U1,9*
G04 #@! TO.N,Net-(U1-Pad9)*
X162465000Y-112675000D03*
G04 #@! TO.P,U1,8*
G04 #@! TO.N,Net-(U1-Pad8)*
X161965000Y-112675000D03*
G04 #@! TO.P,U1,7*
G04 #@! TO.N,/KCHG*
X161465000Y-112675000D03*
G04 #@! TO.P,U1,6*
G04 #@! TO.N,/RTC_INT*
X160965000Y-112675000D03*
G04 #@! TO.P,U1,5*
G04 #@! TO.N,/OLRST*
X160465000Y-112675000D03*
G04 #@! TO.P,U1,4*
G04 #@! TO.N,Net-(U1-Pad4)*
X159965000Y-112675000D03*
G04 #@! TO.P,U1,3*
G04 #@! TO.N,/PE1*
X159465000Y-112675000D03*
G04 #@! TO.P,U1,2*
G04 #@! TO.N,/PE0*
X158965000Y-112675000D03*
G04 #@! TO.P,U1,1*
G04 #@! TO.N,/SDCS*
X158465000Y-112675000D03*
G04 #@! TD*
D12*
G04 #@! TO.P,C26,1*
G04 #@! TO.N,GND*
X154305000Y-102450000D03*
G04 #@! TO.P,C26,2*
G04 #@! TO.N,+5V*
X154305000Y-100750000D03*
G04 #@! TD*
D37*
G04 #@! TO.P,R22,1*
G04 #@! TO.N,/SD_DET*
X164250000Y-92075000D03*
G04 #@! TO.P,R22,2*
G04 #@! TO.N,+5V*
X165950000Y-92075000D03*
G04 #@! TD*
G04 #@! TO.P,C25,1*
G04 #@! TO.N,GND*
X164250000Y-93980000D03*
G04 #@! TO.P,C25,2*
G04 #@! TO.N,+5V*
X165950000Y-93980000D03*
G04 #@! TD*
D38*
G04 #@! TO.P,L1,1*
G04 #@! TO.N,/USB Serial/USHLD*
X124140000Y-92710000D03*
G04 #@! TO.P,L1,2*
G04 #@! TO.N,/USB Serial/UGND*
X122240000Y-92710000D03*
G04 #@! TD*
D12*
G04 #@! TO.P,R8,1*
G04 #@! TO.N,Net-(C7-Pad1)*
X177165000Y-107530000D03*
G04 #@! TO.P,R8,2*
G04 #@! TO.N,Net-(C8-Pad1)*
X177165000Y-105830000D03*
G04 #@! TD*
G04 #@! TO.P,R7,2*
G04 #@! TO.N,Net-(C2-Pad1)*
X129540000Y-112610000D03*
G04 #@! TO.P,R7,1*
G04 #@! TO.N,Net-(C1-Pad1)*
X129540000Y-110910000D03*
G04 #@! TD*
D37*
G04 #@! TO.P,R5,1*
G04 #@! TO.N,/USB Serial/RESET-USB*
X118530000Y-106045000D03*
G04 #@! TO.P,R5,2*
G04 #@! TO.N,UVCC*
X120230000Y-106045000D03*
G04 #@! TD*
D12*
G04 #@! TO.P,R4,2*
G04 #@! TO.N,/USB Serial/D+*
X129540000Y-93242500D03*
G04 #@! TO.P,R4,1*
G04 #@! TO.N,/USB Serial/D_IN+*
X129540000Y-91542500D03*
G04 #@! TD*
G04 #@! TO.P,R3,1*
G04 #@! TO.N,/USB Serial/D_IN-*
X131445000Y-91542500D03*
G04 #@! TO.P,R3,2*
G04 #@! TO.N,/USB Serial/D-*
X131445000Y-93242500D03*
G04 #@! TD*
D15*
G04 #@! TO.P,J10,1*
G04 #@! TO.N,/VIN*
X109855000Y-98425000D03*
D10*
G04 #@! TO.P,J10,2*
X112395000Y-98425000D03*
G04 #@! TO.P,J10,3*
G04 #@! TO.N,+5V*
X109855000Y-100965000D03*
G04 #@! TO.P,J10,4*
X112395000Y-100965000D03*
G04 #@! TO.P,J10,5*
G04 #@! TO.N,GND*
X109855000Y-103505000D03*
G04 #@! TO.P,J10,6*
X112395000Y-103505000D03*
G04 #@! TD*
D39*
G04 #@! TO.P,C20,2*
G04 #@! TO.N,+3V3*
X180340000Y-92390000D03*
G04 #@! TO.P,C20,1*
G04 #@! TO.N,GND*
X180340000Y-90490000D03*
G04 #@! TD*
G04 #@! TO.P,C19,1*
G04 #@! TO.N,GND*
X176530000Y-90490000D03*
G04 #@! TO.P,C19,2*
G04 #@! TO.N,+5V*
X176530000Y-92390000D03*
G04 #@! TD*
D40*
G04 #@! TO.P,U6,1*
G04 #@! TO.N,+5V*
X177035000Y-94935000D03*
G04 #@! TO.P,U6,2*
G04 #@! TO.N,GND*
X177035000Y-95885000D03*
G04 #@! TO.P,U6,3*
G04 #@! TO.N,+5V*
X177035000Y-96835000D03*
G04 #@! TO.P,U6,4*
G04 #@! TO.N,Net-(U6-Pad4)*
X179835000Y-96835000D03*
G04 #@! TO.P,U6,5*
G04 #@! TO.N,+3V3*
X179835000Y-94935000D03*
G04 #@! TD*
D10*
G04 #@! TO.P,J7,6*
G04 #@! TO.N,GND*
X166370000Y-116840000D03*
G04 #@! TO.P,J7,5*
G04 #@! TO.N,/RESET*
X166370000Y-119380000D03*
G04 #@! TO.P,J7,4*
G04 #@! TO.N,/MOSI*
X168910000Y-116840000D03*
G04 #@! TO.P,J7,3*
G04 #@! TO.N,/SCK*
X168910000Y-119380000D03*
G04 #@! TO.P,J7,2*
G04 #@! TO.N,+5V*
X171450000Y-116840000D03*
D15*
G04 #@! TO.P,J7,1*
G04 #@! TO.N,/MISO*
X171450000Y-119380000D03*
G04 #@! TD*
D37*
G04 #@! TO.P,C12,2*
G04 #@! TO.N,/RESET*
X157060000Y-121285000D03*
G04 #@! TO.P,C12,1*
G04 #@! TO.N,GND*
X155360000Y-121285000D03*
G04 #@! TD*
D10*
G04 #@! TO.P,J3,4*
G04 #@! TO.N,/KCHG*
X180340000Y-86995000D03*
G04 #@! TO.P,J3,3*
G04 #@! TO.N,/A_SHDN*
X177800000Y-86995000D03*
G04 #@! TO.P,J3,2*
G04 #@! TO.N,/SCL*
X175260000Y-86995000D03*
D15*
G04 #@! TO.P,J3,1*
G04 #@! TO.N,/SDA*
X172720000Y-86995000D03*
G04 #@! TD*
D37*
G04 #@! TO.P,C1,2*
G04 #@! TO.N,GND*
X128055000Y-108585000D03*
G04 #@! TO.P,C1,1*
G04 #@! TO.N,Net-(C1-Pad1)*
X129755000Y-108585000D03*
G04 #@! TD*
G04 #@! TO.P,C2,2*
G04 #@! TO.N,GND*
X128055000Y-114935000D03*
G04 #@! TO.P,C2,1*
G04 #@! TO.N,Net-(C2-Pad1)*
X129755000Y-114935000D03*
G04 #@! TD*
D39*
G04 #@! TO.P,C4,2*
G04 #@! TO.N,Net-(C4-Pad2)*
X121920000Y-99375000D03*
G04 #@! TO.P,C4,1*
G04 #@! TO.N,/USB Serial/UGND*
X121920000Y-97475000D03*
G04 #@! TD*
D37*
G04 #@! TO.P,C5,2*
G04 #@! TO.N,/USB Serial/UVCC_IN*
X120865000Y-102235000D03*
G04 #@! TO.P,C5,1*
G04 #@! TO.N,/USB Serial/UGND*
X119165000Y-102235000D03*
G04 #@! TD*
G04 #@! TO.P,C6,2*
G04 #@! TO.N,/USB Serial/RESET*
X131865000Y-118745000D03*
G04 #@! TO.P,C6,1*
G04 #@! TO.N,/RESET*
X133565000Y-118745000D03*
G04 #@! TD*
D12*
G04 #@! TO.P,C7,2*
G04 #@! TO.N,GND*
X177165000Y-111340000D03*
G04 #@! TO.P,C7,1*
G04 #@! TO.N,Net-(C7-Pad1)*
X177165000Y-109640000D03*
G04 #@! TD*
G04 #@! TO.P,C8,2*
G04 #@! TO.N,GND*
X177165000Y-102020000D03*
G04 #@! TO.P,C8,1*
G04 #@! TO.N,Net-(C8-Pad1)*
X177165000Y-103720000D03*
G04 #@! TD*
D37*
G04 #@! TO.P,C9,1*
G04 #@! TO.N,GND*
X193460000Y-121920000D03*
G04 #@! TO.P,C9,2*
G04 #@! TO.N,+3V3*
X195160000Y-121920000D03*
G04 #@! TD*
D12*
G04 #@! TO.P,C10,2*
G04 #@! TO.N,+5V*
X174625000Y-110070000D03*
G04 #@! TO.P,C10,1*
G04 #@! TO.N,GND*
X174625000Y-108370000D03*
G04 #@! TD*
D10*
G04 #@! TO.P,J4,6*
G04 #@! TO.N,GND*
X114935000Y-109855000D03*
G04 #@! TO.P,J4,5*
G04 #@! TO.N,/USB Serial/RESET-USB*
X114935000Y-107315000D03*
G04 #@! TO.P,J4,4*
G04 #@! TO.N,/USB Serial/MOSI-USB*
X112395000Y-109855000D03*
G04 #@! TO.P,J4,3*
G04 #@! TO.N,/USB Serial/SCK-USB*
X112395000Y-107315000D03*
G04 #@! TO.P,J4,2*
G04 #@! TO.N,UVCC*
X109855000Y-109855000D03*
D15*
G04 #@! TO.P,J4,1*
G04 #@! TO.N,/USB Serial/MISO-USB*
X109855000Y-107315000D03*
G04 #@! TD*
D10*
G04 #@! TO.P,J9,16*
G04 #@! TO.N,/ALRM_SW*
X141605000Y-98425000D03*
G04 #@! TO.P,J9,15*
G04 #@! TO.N,DVDD*
X144145000Y-98425000D03*
G04 #@! TO.P,J9,14*
G04 #@! TO.N,/Peripherals/XDCS_3V3*
X141605000Y-100965000D03*
G04 #@! TO.P,J9,13*
G04 #@! TO.N,/MISO*
X144145000Y-100965000D03*
G04 #@! TO.P,J9,12*
G04 #@! TO.N,/Peripherals/CSCK_3V3*
X141605000Y-103505000D03*
G04 #@! TO.P,J9,11*
G04 #@! TO.N,/Peripherals/CMOSI_3V3*
X144145000Y-103505000D03*
G04 #@! TO.P,J9,10*
G04 #@! TO.N,/DREQ*
X141605000Y-106045000D03*
G04 #@! TO.P,J9,9*
G04 #@! TO.N,/Peripherals/CRST_3V3*
X144145000Y-106045000D03*
G04 #@! TO.P,J9,8*
G04 #@! TO.N,/PIX_SHDN*
X141605000Y-108585000D03*
G04 #@! TO.P,J9,7*
G04 #@! TO.N,/Peripherals/CCS_3V3*
X144145000Y-108585000D03*
G04 #@! TO.P,J9,6*
G04 #@! TO.N,/PIX_LAMP*
X141605000Y-111125000D03*
G04 #@! TO.P,J9,5*
G04 #@! TO.N,/PIX_CLK*
X144145000Y-111125000D03*
G04 #@! TO.P,J9,4*
G04 #@! TO.N,GND*
X141605000Y-113665000D03*
G04 #@! TO.P,J9,3*
X144145000Y-113665000D03*
G04 #@! TO.P,J9,2*
G04 #@! TO.N,+5V*
X141605000Y-116205000D03*
D15*
G04 #@! TO.P,J9,1*
X144145000Y-116205000D03*
G04 #@! TD*
D12*
G04 #@! TO.P,Z1,2*
G04 #@! TO.N,/USB Serial/D_IN-*
X133667500Y-91542500D03*
G04 #@! TO.P,Z1,1*
G04 #@! TO.N,/USB Serial/USHLD*
X133667500Y-93242500D03*
G04 #@! TD*
G04 #@! TO.P,Z2,2*
G04 #@! TO.N,/USB Serial/D_IN+*
X127317500Y-91542500D03*
G04 #@! TO.P,Z2,1*
G04 #@! TO.N,/USB Serial/USHLD*
X127317500Y-93242500D03*
G04 #@! TD*
D37*
G04 #@! TO.P,R10,2*
G04 #@! TO.N,+3V3*
X183935000Y-93345000D03*
G04 #@! TO.P,R10,1*
G04 #@! TO.N,/Peripherals/SPI_CFG*
X185635000Y-93345000D03*
G04 #@! TD*
G04 #@! TO.P,C11,2*
G04 #@! TO.N,GND*
X119800000Y-104140000D03*
G04 #@! TO.P,C11,1*
G04 #@! TO.N,UVCC*
X121500000Y-104140000D03*
G04 #@! TD*
G04 #@! TO.P,R6,2*
G04 #@! TO.N,+5V*
X140755000Y-120650000D03*
G04 #@! TO.P,R6,1*
G04 #@! TO.N,/CFG\005C~RST*
X142455000Y-120650000D03*
G04 #@! TD*
G04 #@! TO.P,R9,2*
G04 #@! TO.N,+5V*
X148170000Y-120650000D03*
G04 #@! TO.P,R9,1*
G04 #@! TO.N,/RESET*
X146470000Y-120650000D03*
G04 #@! TD*
D12*
G04 #@! TO.P,C14,2*
G04 #@! TO.N,+5V*
X160020000Y-90590000D03*
G04 #@! TO.P,C14,1*
G04 #@! TO.N,GND*
X160020000Y-92290000D03*
G04 #@! TD*
D37*
G04 #@! TO.P,R11,1*
G04 #@! TO.N,+5V*
X171665000Y-92710000D03*
G04 #@! TO.P,R11,2*
G04 #@! TO.N,/RTC_INT*
X169965000Y-92710000D03*
G04 #@! TD*
D12*
G04 #@! TO.P,C15,2*
G04 #@! TO.N,/Peripherals/1P3V*
X199390000Y-109005000D03*
G04 #@! TO.P,C15,1*
G04 #@! TO.N,GND*
X199390000Y-110705000D03*
G04 #@! TD*
D39*
G04 #@! TO.P,C16,1*
G04 #@! TO.N,GND*
X194310000Y-111440000D03*
G04 #@! TO.P,C16,2*
G04 #@! TO.N,+3V3*
X194310000Y-109540000D03*
G04 #@! TD*
G04 #@! TO.P,C18,2*
G04 #@! TO.N,/Peripherals/1P3V*
X196850000Y-108905000D03*
G04 #@! TO.P,C18,1*
G04 #@! TO.N,GND*
X196850000Y-110805000D03*
G04 #@! TD*
D37*
G04 #@! TO.P,R12,1*
G04 #@! TO.N,+5V*
X176315000Y-117475000D03*
G04 #@! TO.P,R12,2*
G04 #@! TO.N,/WCS*
X178015000Y-117475000D03*
G04 #@! TD*
G04 #@! TO.P,R13,1*
G04 #@! TO.N,GND*
X182030000Y-114300000D03*
G04 #@! TO.P,R13,2*
G04 #@! TO.N,/WEN*
X183730000Y-114300000D03*
G04 #@! TD*
G04 #@! TO.P,R14,2*
G04 #@! TO.N,/WRST*
X183730000Y-117475000D03*
G04 #@! TO.P,R14,1*
G04 #@! TO.N,GND*
X182030000Y-117475000D03*
G04 #@! TD*
D38*
G04 #@! TO.P,C17,1*
G04 #@! TO.N,GND*
X192085000Y-109220000D03*
G04 #@! TO.P,C17,2*
G04 #@! TO.N,+3V3*
X190185000Y-109220000D03*
G04 #@! TD*
D39*
G04 #@! TO.P,C21,1*
G04 #@! TO.N,GND*
X144653000Y-95565000D03*
G04 #@! TO.P,C21,2*
G04 #@! TO.N,DVDD*
X144653000Y-93665000D03*
G04 #@! TD*
D37*
G04 #@! TO.P,R15,1*
G04 #@! TO.N,DVDD*
X147740000Y-108585000D03*
G04 #@! TO.P,R15,2*
G04 #@! TO.N,/CCS*
X149440000Y-108585000D03*
G04 #@! TD*
D12*
G04 #@! TO.P,R16,2*
G04 #@! TO.N,/SDCS*
X153035000Y-107530000D03*
G04 #@! TO.P,R16,1*
G04 #@! TO.N,DVDD*
X153035000Y-105830000D03*
G04 #@! TD*
D37*
G04 #@! TO.P,R17,1*
G04 #@! TO.N,DVDD*
X147740000Y-106680000D03*
G04 #@! TO.P,R17,2*
G04 #@! TO.N,/XDCS*
X149440000Y-106680000D03*
G04 #@! TD*
G04 #@! TO.P,R18,2*
G04 #@! TO.N,/CRST*
X176950000Y-114300000D03*
G04 #@! TO.P,R18,1*
G04 #@! TO.N,GND*
X178650000Y-114300000D03*
G04 #@! TD*
D12*
G04 #@! TO.P,R20,1*
G04 #@! TO.N,/SDA*
X147320000Y-110910000D03*
G04 #@! TO.P,R20,2*
G04 #@! TO.N,+5V*
X147320000Y-112610000D03*
G04 #@! TD*
G04 #@! TO.P,R21,2*
G04 #@! TO.N,+5V*
X149860000Y-112610000D03*
G04 #@! TO.P,R21,1*
G04 #@! TO.N,/SCL*
X149860000Y-110910000D03*
G04 #@! TD*
D37*
G04 #@! TO.P,C22,1*
G04 #@! TO.N,GND*
X164045000Y-115570000D03*
G04 #@! TO.P,C22,2*
G04 #@! TO.N,+5V*
X162345000Y-115570000D03*
G04 #@! TD*
D12*
G04 #@! TO.P,C23,1*
G04 #@! TO.N,GND*
X154305000Y-109640000D03*
G04 #@! TO.P,C23,2*
G04 #@! TO.N,+5V*
X154305000Y-111340000D03*
G04 #@! TD*
D37*
G04 #@! TO.P,C24,2*
G04 #@! TO.N,GND*
X150280000Y-116205000D03*
G04 #@! TO.P,C24,1*
G04 #@! TO.N,Net-(C24-Pad1)*
X151980000Y-116205000D03*
G04 #@! TD*
D12*
G04 #@! TO.P,C27,1*
G04 #@! TO.N,GND*
X154305000Y-96305000D03*
G04 #@! TO.P,C27,2*
G04 #@! TO.N,DVDD*
X154305000Y-98005000D03*
G04 #@! TD*
D37*
G04 #@! TO.P,R23,1*
G04 #@! TO.N,/CFG\005C~RST*
X142455000Y-122555000D03*
G04 #@! TO.P,R23,2*
G04 #@! TO.N,Net-(C13-Pad1)*
X140755000Y-122555000D03*
G04 #@! TD*
D41*
G04 #@! TO.P,D1,A*
G04 #@! TO.N,/RESET*
X133480000Y-121285000D03*
G04 #@! TO.P,D1,K*
G04 #@! TO.N,+5V*
X130680000Y-121285000D03*
G04 #@! TD*
G04 #@! TO.P,D2,K*
G04 #@! TO.N,UVCC*
X120780000Y-108585000D03*
G04 #@! TO.P,D2,A*
G04 #@! TO.N,/USB Serial/RESET-USB*
X117980000Y-108585000D03*
G04 #@! TD*
D38*
G04 #@! TO.P,R24,1*
G04 #@! TO.N,GND*
X120335000Y-88265000D03*
G04 #@! TO.P,R24,2*
G04 #@! TO.N,/USB Serial/UGND*
X122235000Y-88265000D03*
G04 #@! TD*
D12*
G04 #@! TO.P,C28,1*
G04 #@! TO.N,+5V*
X122555000Y-118530000D03*
G04 #@! TO.P,C28,2*
G04 #@! TO.N,GND*
X122555000Y-120230000D03*
G04 #@! TD*
D37*
G04 #@! TO.P,C29,2*
G04 #@! TO.N,GND*
X153250000Y-121285000D03*
G04 #@! TO.P,C29,1*
G04 #@! TO.N,UVCC*
X151550000Y-121285000D03*
G04 #@! TD*
D39*
G04 #@! TO.P,R25,1*
G04 #@! TO.N,+5V*
X138430000Y-105090000D03*
G04 #@! TO.P,R25,2*
G04 #@! TO.N,UVCC*
X138430000Y-103190000D03*
G04 #@! TD*
G04 #@! TO.P,R26,2*
G04 #@! TO.N,UVCC*
X138430000Y-100645000D03*
G04 #@! TO.P,R26,1*
G04 #@! TO.N,/USB Serial/UVCC_IN*
X138430000Y-98745000D03*
G04 #@! TD*
D12*
G04 #@! TO.P,R27,1*
G04 #@! TO.N,/PE0*
X152400000Y-113245000D03*
G04 #@! TO.P,R27,2*
G04 #@! TO.N,GND*
X152400000Y-111545000D03*
G04 #@! TD*
D37*
G04 #@! TO.P,R28,1*
G04 #@! TO.N,/USB Serial/UTXD*
X117895000Y-120650000D03*
G04 #@! TO.P,R28,2*
G04 #@! TO.N,/PE0*
X119595000Y-120650000D03*
G04 #@! TD*
G04 #@! TO.P,R29,2*
G04 #@! TO.N,/USB Serial/RESET*
X129755000Y-118745000D03*
G04 #@! TO.P,R29,1*
G04 #@! TO.N,/USB Serial/RESET-M*
X128055000Y-118745000D03*
G04 #@! TD*
G04 #@! TO.P,R30,2*
G04 #@! TO.N,GND*
X156425000Y-116205000D03*
G04 #@! TO.P,R30,1*
G04 #@! TO.N,/PE1*
X154725000Y-116205000D03*
G04 #@! TD*
G04 #@! TO.P,R31,2*
G04 #@! TO.N,Net-(R19-Pad1)*
X159170000Y-119380000D03*
G04 #@! TO.P,R31,1*
G04 #@! TO.N,GND*
X160870000Y-119380000D03*
G04 #@! TD*
D12*
G04 #@! TO.P,R33,2*
G04 #@! TO.N,UVCC*
X121285000Y-111545000D03*
G04 #@! TO.P,R33,1*
G04 #@! TO.N,Net-(R2-Pad2)*
X121285000Y-113245000D03*
G04 #@! TD*
D37*
G04 #@! TO.P,R19,1*
G04 #@! TO.N,Net-(R19-Pad1)*
X159170000Y-121285000D03*
G04 #@! TO.P,R19,2*
G04 #@! TO.N,+5V*
X160870000Y-121285000D03*
G04 #@! TD*
D15*
G04 #@! TO.P,J6,1*
G04 #@! TO.N,/LOW_BATT*
X137795000Y-115570000D03*
D10*
G04 #@! TO.P,J6,2*
G04 #@! TO.N,/ON_BATT*
X137795000Y-113030000D03*
G04 #@! TO.P,J6,3*
G04 #@! TO.N,/SDA*
X137795000Y-110490000D03*
G04 #@! TO.P,J6,4*
G04 #@! TO.N,/SCL*
X137795000Y-107950000D03*
G04 #@! TD*
D12*
G04 #@! TO.P,R1,1*
G04 #@! TO.N,/USB Serial/RESET-M*
X124460000Y-119800000D03*
G04 #@! TO.P,R1,2*
G04 #@! TO.N,UVCC*
X124460000Y-121500000D03*
G04 #@! TD*
G04 #@! TO.P,R2,1*
G04 #@! TO.N,GND*
X123190000Y-111545000D03*
G04 #@! TO.P,R2,2*
G04 #@! TO.N,Net-(R2-Pad2)*
X123190000Y-113245000D03*
G04 #@! TD*
D37*
G04 #@! TO.P,R32,1*
G04 #@! TO.N,/PE1*
X150710000Y-118745000D03*
G04 #@! TO.P,R32,2*
G04 #@! TO.N,/USB Serial/URXD*
X149010000Y-118745000D03*
G04 #@! TD*
D42*
G04 #@! TO.P,TP2,1*
G04 #@! TO.N,/RESET*
X138430000Y-118110000D03*
G04 #@! TD*
D17*
G04 #@! TO.N,GND*
X195580000Y-113030000D03*
X205105000Y-92075028D03*
X180340000Y-114300000D03*
X180340000Y-117475000D03*
X184785000Y-95885000D03*
X179070000Y-111760000D03*
X198120000Y-113030000D03*
X191770000Y-111125000D03*
X115570000Y-90170000D03*
X115570000Y-92075000D03*
X115570000Y-93980000D03*
X115570000Y-95885000D03*
X182245000Y-96520000D03*
X179070000Y-101600000D03*
X154305000Y-94615000D03*
X146685000Y-95885000D03*
X178435000Y-89535000D03*
X178435000Y-90805000D03*
X174625000Y-90170000D03*
X201295000Y-107950000D03*
X175260000Y-111760000D03*
X163830000Y-117475000D03*
X144145000Y-122555000D03*
X145415000Y-122555000D03*
X158115000Y-116840000D03*
X154305000Y-108585000D03*
X154305000Y-103505000D03*
X172085000Y-89535000D03*
X154940000Y-120015000D03*
X118745000Y-104140000D03*
X134620000Y-106680000D03*
X134620000Y-111760000D03*
X134620000Y-116840000D03*
X131445000Y-116840000D03*
X128905000Y-116840000D03*
X128270000Y-107315000D03*
X131445000Y-111760000D03*
X122555000Y-121285000D03*
X191770000Y-122555000D03*
X197485000Y-115570000D03*
X125095000Y-107315000D03*
X144145000Y-91440000D03*
X163195000Y-93980000D03*
X148590000Y-116205000D03*
X160020000Y-93980000D03*
X175260000Y-97790000D03*
X173990000Y-96520000D03*
X181610000Y-97790000D03*
D43*
G04 #@! TO.N,/MISO*
X187325000Y-109855000D03*
X155575000Y-94615000D03*
X163830000Y-118745000D03*
X161290000Y-116840000D03*
X160020000Y-111125000D03*
X159385000Y-98425000D03*
D17*
G04 #@! TO.N,+5V*
X173990000Y-93345000D03*
X173990000Y-94615000D03*
X174625000Y-117475000D03*
X163195000Y-111125000D03*
X147320000Y-113665000D03*
X170180000Y-107315000D03*
X173990000Y-92075000D03*
X149860000Y-113665000D03*
X154305000Y-99695000D03*
X149860000Y-120015000D03*
X136525000Y-106045000D03*
X136525000Y-104775000D03*
X138430000Y-120650000D03*
X121920000Y-116840000D03*
X154305000Y-113030000D03*
X128270000Y-120650000D03*
X127000000Y-120650000D03*
X162560000Y-120015000D03*
X161290000Y-89535000D03*
X168275000Y-92710000D03*
D43*
G04 #@! TO.N,/SCK*
X150495000Y-99060000D03*
X161290000Y-100965000D03*
G04 #@! TO.N,/MOSI*
X184785000Y-120015000D03*
X196215000Y-118745000D03*
X176530000Y-120015000D03*
X149860000Y-95250000D03*
X162560000Y-100965000D03*
G04 #@! TO.N,/RESET*
X169545000Y-109220000D03*
X163830000Y-120015000D03*
D17*
G04 #@! TO.N,/VIN*
X112395000Y-90170000D03*
X112395000Y-92075000D03*
X109855000Y-90170000D03*
X109855000Y-92075000D03*
D43*
G04 #@! TO.N,/USB Serial/RESET-USB*
X127635000Y-94615000D03*
G04 #@! TO.N,/USB Serial/MISO-USB*
X126365000Y-98425000D03*
G04 #@! TO.N,/USB Serial/SCK-USB*
X131445000Y-100330000D03*
G04 #@! TO.N,/USB Serial/MOSI-USB*
X128905000Y-102870000D03*
G04 #@! TO.N,/USB Serial/D-*
X127994211Y-101324211D03*
X131000500Y-94678500D03*
G04 #@! TO.N,/USB Serial/D+*
X129984500Y-94678500D03*
X127275789Y-100605789D03*
D17*
G04 #@! TO.N,/USB Serial/UVCC_IN*
X137795000Y-95250000D03*
X122555000Y-102235000D03*
D44*
G04 #@! TO.N,/USB Serial/USHLD*
X125095000Y-89535000D03*
X125730000Y-93345000D03*
X125730000Y-92075000D03*
D17*
X133985000Y-94615000D03*
D43*
G04 #@! TO.N,/DREQ*
X140335000Y-96520000D03*
X161925000Y-92710000D03*
X168910000Y-95250000D03*
G04 #@! TO.N,/A_SHDN*
X167005000Y-98425000D03*
D44*
G04 #@! TO.N,+3V3*
X195580000Y-104140000D03*
X190500000Y-104140000D03*
X182245000Y-94615000D03*
X182245000Y-92075000D03*
X182245000Y-93345000D03*
D17*
X196850000Y-120015000D03*
D43*
G04 #@! TO.N,Net-(B1-PadP)*
X181610000Y-88265000D03*
G04 #@! TO.N,/RTC_INT*
X167640000Y-91440000D03*
X161925000Y-109220000D03*
G04 #@! TO.N,/Peripherals/WRST_3V3*
X189865000Y-116840000D03*
X204470000Y-108585000D03*
G04 #@! TO.N,/Peripherals/WEN_3V3*
X193675000Y-104140000D03*
X189230000Y-114935000D03*
G04 #@! TO.N,/Peripherals/WWAKE_3V3*
X188595000Y-112395000D03*
X194945000Y-114300000D03*
X196215000Y-116840000D03*
X190500000Y-95250000D03*
G04 #@! TO.N,/Peripherals/WMOSI_3V3*
X191135000Y-116205000D03*
X192405000Y-120015000D03*
G04 #@! TO.N,/Peripherals/WCS_3V3*
X187325000Y-111125000D03*
X186055000Y-120015000D03*
G04 #@! TO.N,/Peripherals/WSCK_3V3*
X193040000Y-113665000D03*
X192405000Y-118745000D03*
G04 #@! TO.N,/WCS*
X170465000Y-110775000D03*
X179705000Y-118745000D03*
G04 #@! TO.N,/WIRQ*
X190500000Y-96520000D03*
X180340000Y-100330000D03*
G04 #@! TO.N,/Peripherals/CMOSI_3V3*
X148590000Y-99060000D03*
G04 #@! TO.N,/Peripherals/CSCK_3V3*
X151765000Y-99060000D03*
X153035000Y-94615000D03*
G04 #@! TO.N,/SDCS*
X146685000Y-98425000D03*
X153035000Y-108585000D03*
X159385000Y-107315000D03*
X159385000Y-99695000D03*
D17*
G04 #@! TO.N,DVDD*
X146050000Y-107315000D03*
X151765000Y-94615000D03*
X147320000Y-93980000D03*
D43*
G04 #@! TO.N,/PIX_SHDN*
X163195000Y-98425000D03*
G04 #@! TO.N,/PIX_LAMP*
X165100000Y-102235000D03*
G04 #@! TO.N,/PIX_CLK*
X165100000Y-104775000D03*
G04 #@! TO.N,/KCHG*
X163195000Y-109855000D03*
G04 #@! TO.N,/SCL*
X166370000Y-85725000D03*
X151765000Y-109855000D03*
X147320000Y-116205000D03*
X166370000Y-103505000D03*
G04 #@! TO.N,/SDA*
X167005000Y-86995000D03*
X148590000Y-111125000D03*
X146050000Y-116205000D03*
X164465000Y-90805000D03*
X167640000Y-102235000D03*
G04 #@! TO.N,/CCS*
X151765000Y-101600000D03*
X161290000Y-103505000D03*
G04 #@! TO.N,/XDCS*
X149225000Y-105410000D03*
X161290000Y-95250000D03*
G04 #@! TO.N,/CRST*
X166370000Y-114935000D03*
X148590000Y-101600000D03*
X174625000Y-114300000D03*
X161290000Y-102235000D03*
G04 #@! TO.N,/ALS_INT*
X165735000Y-111125000D03*
G04 #@! TO.N,/OLRST*
X160020000Y-118110000D03*
G04 #@! TO.N,/ALRM_SW*
X157480000Y-94615000D03*
G04 #@! TO.N,Net-(C24-Pad1)*
X153035000Y-116205000D03*
X158750000Y-115570000D03*
X158115000Y-110490000D03*
G04 #@! TO.N,/LOW_BATT*
X158115000Y-103505000D03*
G04 #@! TO.N,/ON_BATT*
X159385000Y-95250000D03*
X158115000Y-98425000D03*
G04 #@! TO.N,/SD_DET*
X144780000Y-90170000D03*
X167640000Y-93980000D03*
X162560000Y-90805000D03*
G04 #@! TO.N,/P42*
X170815000Y-103505000D03*
G04 #@! TO.N,/P43*
X174625000Y-103505000D03*
G04 #@! TO.N,/P44*
X174625000Y-104775000D03*
G04 #@! TO.N,/P46*
X170815000Y-106045000D03*
G04 #@! TO.N,/P45*
X170180000Y-104775000D03*
G04 #@! TO.N,/Peripherals/LED_NET*
X200025000Y-104140000D03*
G04 #@! TO.N,/Peripherals/GPIO_1*
X192405000Y-103505000D03*
G04 #@! TO.N,/Peripherals/GPIO_3*
X198755000Y-102870000D03*
G04 #@! TO.N,/Peripherals/LED_WIFI*
X198755000Y-104140000D03*
G04 #@! TO.N,/Peripherals/LED_ERR*
X205105000Y-103505000D03*
G04 #@! TO.N,/USB Serial/LED_TX*
X135255000Y-100330000D03*
G04 #@! TO.N,/USB Serial/LED_RX*
X135255000Y-103505000D03*
G04 #@! TO.N,/USB Serial/URXD*
X136525000Y-111760000D03*
X133350000Y-104775000D03*
G04 #@! TO.N,/USB Serial/UTXD*
X134620000Y-104775000D03*
X117475000Y-113030000D03*
D17*
G04 #@! TO.N,UVCC*
X136525000Y-100965000D03*
X152400000Y-120015000D03*
X122555000Y-105410000D03*
X122555000Y-106680000D03*
X136525000Y-102235000D03*
X124460000Y-122555000D03*
D43*
G04 #@! TO.N,/USB Serial/RESET*
X130810000Y-118745000D03*
X118745000Y-116205000D03*
G04 #@! TO.N,/PE0*
X152400000Y-114935000D03*
X125095000Y-114935000D03*
X121285000Y-120650000D03*
G04 #@! TO.N,/USB Serial/RESET-M*
X131445000Y-103505000D03*
X125095000Y-116205000D03*
G04 #@! TD*
D45*
G04 #@! TO.N,GND*
X204342972Y-91313000D02*
X205105000Y-92075028D01*
X182030000Y-114300000D02*
X180340000Y-114300000D01*
D46*
X154940000Y-110275000D02*
X154305000Y-109640000D01*
X156465000Y-110275000D02*
X154940000Y-110275000D01*
D45*
X182030000Y-117475000D02*
X180340000Y-117475000D01*
X185293000Y-95377000D02*
X188214000Y-95377000D01*
X184785000Y-95885000D02*
X185293000Y-95377000D01*
X202946000Y-91313000D02*
X204342972Y-91313000D01*
X146700000Y-91350000D02*
X146900000Y-91550000D01*
X146700000Y-90400000D02*
X146700000Y-91350000D01*
D46*
X163465000Y-112775000D02*
X163465000Y-113935000D01*
D45*
X164045000Y-114515000D02*
X164045000Y-115570000D01*
D46*
X163465000Y-113935000D02*
X164045000Y-114515000D01*
X174030000Y-107775000D02*
X174625000Y-108370000D01*
X172465000Y-107775000D02*
X174030000Y-107775000D01*
D45*
X154080000Y-96530000D02*
X154090000Y-96520000D01*
D46*
X156565000Y-101275000D02*
X155480000Y-101275000D01*
X155155000Y-101600000D02*
X155155000Y-102020000D01*
X155480000Y-101275000D02*
X155155000Y-101600000D01*
X154725000Y-102450000D02*
X154305000Y-102450000D01*
X155155000Y-102020000D02*
X154725000Y-102450000D01*
D45*
X154305000Y-94615000D02*
X154050000Y-94360000D01*
D46*
X154305000Y-94615000D02*
X154305000Y-96305000D01*
X146685000Y-95885000D02*
X147320000Y-95885000D01*
X147585000Y-97230000D02*
X147585000Y-96150000D01*
X147585000Y-96150000D02*
X147320000Y-95885000D01*
X146050000Y-95885000D02*
X146685000Y-95885000D01*
X145730000Y-95565000D02*
X146050000Y-95885000D01*
X144653000Y-95565000D02*
X145730000Y-95565000D01*
D45*
X200279000Y-107569000D02*
X200279000Y-106172000D01*
X201295000Y-107950000D02*
X200660000Y-107950000D01*
X200660000Y-107950000D02*
X200279000Y-107569000D01*
D46*
X180340000Y-114300000D02*
X178650000Y-114300000D01*
X156140000Y-118095000D02*
X156830000Y-118095000D01*
X156830000Y-118095000D02*
X156845000Y-118095000D01*
X156775000Y-118095000D02*
X156845000Y-118095000D01*
D45*
X164045000Y-117260000D02*
X164045000Y-115570000D01*
D46*
X163830000Y-117475000D02*
X161925000Y-119380000D01*
X161925000Y-119380000D02*
X160870000Y-119380000D01*
D45*
X163830000Y-117475000D02*
X164045000Y-117260000D01*
D46*
X156425000Y-116205000D02*
X157480000Y-116205000D01*
X157480000Y-116205000D02*
X158115000Y-116840000D01*
X158115000Y-117475000D02*
X157495000Y-118095000D01*
X158115000Y-116840000D02*
X158115000Y-117475000D01*
X157495000Y-118095000D02*
X156845000Y-118095000D01*
X154305000Y-102450000D02*
X154305000Y-103505000D01*
X154305000Y-108585000D02*
X154305000Y-109640000D01*
D45*
X169070000Y-89535000D02*
X172085000Y-89535000D01*
D46*
X155155000Y-120230000D02*
X154940000Y-120015000D01*
X153250000Y-121285000D02*
X155360000Y-121285000D01*
X154940000Y-120015000D02*
X154305000Y-120650000D01*
X154305000Y-120650000D02*
X154305000Y-121285000D01*
X118745000Y-104140000D02*
X119800000Y-104140000D01*
X152400000Y-111545000D02*
X152400000Y-110490000D01*
X152400000Y-110490000D02*
X153250000Y-109640000D01*
X153250000Y-109640000D02*
X154305000Y-109640000D01*
D47*
X124805000Y-113320000D02*
X125805000Y-113320000D01*
X123620000Y-114505000D02*
X124805000Y-113320000D01*
X123620000Y-114820000D02*
X123620000Y-114505000D01*
D46*
X122555000Y-120230000D02*
X122555000Y-121285000D01*
X124675000Y-111545000D02*
X123190000Y-111545000D01*
X125095000Y-111125000D02*
X124675000Y-111545000D01*
X191770000Y-122555000D02*
X192405000Y-121920000D01*
X192405000Y-121920000D02*
X193460000Y-121920000D01*
D45*
X195315000Y-115835000D02*
X194935000Y-115835000D01*
X197485000Y-115570000D02*
X195580000Y-115570000D01*
X195580000Y-115570000D02*
X195315000Y-115835000D01*
D46*
X154050000Y-93050000D02*
X154050000Y-93725000D01*
X154305000Y-93980000D02*
X154305000Y-94615000D01*
X154050000Y-93725000D02*
X154305000Y-93980000D01*
X164965000Y-95750000D02*
X164965000Y-96775000D01*
X164250000Y-93980000D02*
X164250000Y-95035000D01*
X164250000Y-95035000D02*
X164965000Y-95750000D01*
D45*
X145525000Y-91550000D02*
X146900000Y-91550000D01*
X145415000Y-91440000D02*
X145525000Y-91550000D01*
X144145000Y-91440000D02*
X145415000Y-91440000D01*
X163195000Y-93980000D02*
X164250000Y-93980000D01*
D46*
X150280000Y-116205000D02*
X148590000Y-116205000D01*
D47*
G04 #@! TO.N,/MISO*
X170446800Y-119380000D02*
X171450000Y-119380000D01*
X170180000Y-119113200D02*
X170446800Y-119380000D01*
X170180000Y-115570000D02*
X170180000Y-119113200D01*
X168965000Y-112775000D02*
X168965000Y-114355000D01*
X168965000Y-114355000D02*
X170180000Y-115570000D01*
X186563000Y-100457000D02*
X188214000Y-100457000D01*
X185420000Y-101600000D02*
X186563000Y-100457000D01*
X187325000Y-109855000D02*
X185420000Y-107950000D01*
X185420000Y-107950000D02*
X185420000Y-101600000D01*
X155150000Y-93050000D02*
X155405199Y-93050000D01*
X155150000Y-94190000D02*
X155150000Y-93050000D01*
X155575000Y-94615000D02*
X155150000Y-94190000D01*
X160655000Y-107950000D02*
X160020000Y-108585000D01*
X160655000Y-99695000D02*
X160655000Y-100330000D01*
X159385000Y-98425000D02*
X160655000Y-99695000D01*
X160020000Y-108585000D02*
X160020000Y-111125000D01*
X160020000Y-100965000D02*
X160020000Y-106045000D01*
X160020000Y-106045000D02*
X160655000Y-106680000D01*
X160655000Y-106680000D02*
X160655000Y-107950000D01*
X160655000Y-100330000D02*
X160020000Y-100965000D01*
D45*
G04 #@! TO.N,+5V*
X178120000Y-94935000D02*
X177035000Y-94935000D01*
X177939800Y-96835000D02*
X178435000Y-96339800D01*
X178435000Y-96339800D02*
X178435000Y-95250000D01*
X177035000Y-96835000D02*
X177939800Y-96835000D01*
X178435000Y-95250000D02*
X178120000Y-94935000D01*
X174625000Y-117475000D02*
X176315000Y-117475000D01*
D46*
X174625000Y-110070000D02*
X174205000Y-110070000D01*
X174205000Y-110070000D02*
X173794799Y-109659799D01*
X173794799Y-109659799D02*
X173794799Y-108585000D01*
X173484799Y-108275000D02*
X173794799Y-108585000D01*
X172465000Y-108275000D02*
X173484799Y-108275000D01*
X162965000Y-114315000D02*
X162345000Y-114935000D01*
X162965000Y-112775000D02*
X162965000Y-114315000D01*
X162965000Y-112775000D02*
X162965000Y-111355000D01*
D45*
X162965000Y-111355000D02*
X163195000Y-111125000D01*
D46*
X154870000Y-110775000D02*
X154305000Y-111340000D01*
X156465000Y-110775000D02*
X154870000Y-110775000D01*
D45*
X147320000Y-112610000D02*
X147320000Y-113665000D01*
D46*
X171140000Y-108275000D02*
X172465000Y-108275000D01*
X170180000Y-107315000D02*
X171140000Y-108275000D01*
D45*
X161290000Y-89535000D02*
X161290000Y-89375000D01*
X161925000Y-86995000D02*
X163670000Y-86995000D01*
X161290000Y-89535000D02*
X161290000Y-87630000D01*
X161290000Y-87630000D02*
X161925000Y-86995000D01*
X165950000Y-93980000D02*
X165950000Y-92075000D01*
D46*
X165465000Y-96775000D02*
X165465000Y-95520000D01*
X165950000Y-95035000D02*
X165950000Y-93980000D01*
X165465000Y-95520000D02*
X165950000Y-95035000D01*
X162345000Y-114935000D02*
X162345000Y-115570000D01*
X171665000Y-92710000D02*
X173990000Y-92710000D01*
X154330000Y-100775000D02*
X154305000Y-100750000D01*
X156565000Y-100775000D02*
X154330000Y-100775000D01*
D45*
X149860000Y-112610000D02*
X149860000Y-113665000D01*
D46*
X154305000Y-99695000D02*
X154305000Y-100750000D01*
X149225000Y-120650000D02*
X149860000Y-120015000D01*
X148170000Y-120650000D02*
X149225000Y-120650000D01*
X138430000Y-120650000D02*
X140755000Y-120650000D01*
D47*
X120220000Y-116320000D02*
X121400000Y-116320000D01*
X121400000Y-116320000D02*
X121920000Y-116840000D01*
D46*
X122555000Y-117475000D02*
X121920000Y-116840000D01*
X122555000Y-118530000D02*
X122555000Y-117475000D01*
D45*
X154305000Y-111340000D02*
X154305000Y-113030000D01*
D46*
X129540000Y-121285000D02*
X130680000Y-121285000D01*
X128270000Y-120650000D02*
X128905000Y-121285000D01*
X128905000Y-121285000D02*
X129540000Y-121285000D01*
X161925000Y-121285000D02*
X160870000Y-121285000D01*
X162560000Y-120015000D02*
X162560000Y-120650000D01*
X162560000Y-120650000D02*
X161925000Y-121285000D01*
X160020000Y-90590000D02*
X160870000Y-90590000D01*
X160870000Y-90590000D02*
X161290000Y-90170000D01*
X161290000Y-90170000D02*
X161290000Y-89535000D01*
D45*
X167005000Y-92075000D02*
X165950000Y-92075000D01*
X168275000Y-92710000D02*
X167640000Y-92710000D01*
X167640000Y-92710000D02*
X167005000Y-92075000D01*
D47*
G04 #@! TO.N,/SCK*
X150495000Y-99060000D02*
X150495000Y-98425000D01*
X150495000Y-98425000D02*
X150835000Y-98085000D01*
X150835000Y-98085000D02*
X150835000Y-97230000D01*
X171450000Y-121920000D02*
X189865000Y-121920000D01*
X189865000Y-121920000D02*
X191135000Y-120650000D01*
X191135000Y-118745000D02*
X192095000Y-117785000D01*
X192095000Y-117785000D02*
X194935000Y-117785000D01*
X168910000Y-119380000D02*
X171450000Y-121920000D01*
X191135000Y-120650000D02*
X191135000Y-118745000D01*
X167965000Y-114610000D02*
X167640000Y-114935000D01*
X167965000Y-110815000D02*
X167965000Y-114610000D01*
X163195000Y-106045000D02*
X167965000Y-110815000D01*
X163195000Y-102870000D02*
X163195000Y-106045000D01*
X167640000Y-118110000D02*
X168910000Y-119380000D01*
X167640000Y-114935000D02*
X167640000Y-118110000D01*
X161290000Y-100965000D02*
X163195000Y-102870000D01*
G04 #@! TO.N,/MOSI*
X195580000Y-118745000D02*
X195240000Y-119085000D01*
X195240000Y-119085000D02*
X194935000Y-119085000D01*
X196215000Y-118745000D02*
X195580000Y-118745000D01*
X176530000Y-120015000D02*
X184785000Y-120015000D01*
X149535000Y-96210000D02*
X149535000Y-97230000D01*
X149860000Y-95250000D02*
X149860000Y-95885000D01*
X149860000Y-95885000D02*
X149535000Y-96210000D01*
X168465000Y-110045000D02*
X168465000Y-114490000D01*
X163830000Y-105410000D02*
X168465000Y-110045000D01*
X168465000Y-114490000D02*
X168910000Y-114935000D01*
X163830000Y-102235000D02*
X163830000Y-105410000D01*
X168910000Y-114935000D02*
X168910000Y-116840000D01*
X162560000Y-100965000D02*
X163830000Y-102235000D01*
G04 #@! TO.N,/RESET*
X169990000Y-108775000D02*
X172465000Y-108775000D01*
X169545000Y-109220000D02*
X169990000Y-108775000D01*
X163830000Y-120650000D02*
X163830000Y-120015000D01*
X161925000Y-122555000D02*
X163830000Y-120650000D01*
X135890000Y-119165000D02*
X135040000Y-119165000D01*
X134620000Y-118745000D02*
X133565000Y-118745000D01*
X135040000Y-119165000D02*
X134620000Y-118745000D01*
X133565000Y-121200000D02*
X133480000Y-121285000D01*
X133565000Y-118745000D02*
X133565000Y-121200000D01*
X157060000Y-121285000D02*
X157060000Y-122555000D01*
X157060000Y-122555000D02*
X161925000Y-122555000D01*
X147320000Y-122555000D02*
X157060000Y-122555000D01*
X146470000Y-120650000D02*
X146470000Y-121705000D01*
X146470000Y-121705000D02*
X147320000Y-122555000D01*
X146470000Y-120650000D02*
X146470000Y-119800000D01*
X146470000Y-119800000D02*
X145835000Y-119165000D01*
X145835000Y-119165000D02*
X138938000Y-119165000D01*
X138430000Y-118110000D02*
X138430000Y-119165000D01*
X138938000Y-119165000D02*
X138430000Y-119165000D01*
X138430000Y-119165000D02*
X135890000Y-119165000D01*
G04 #@! TO.N,Net-(C2-Pad1)*
X132925000Y-115780000D02*
X133350000Y-115780000D01*
X129755000Y-114935000D02*
X129755000Y-113880000D01*
X129540000Y-113665000D02*
X129540000Y-112610000D01*
X129755000Y-113880000D02*
X129540000Y-113665000D01*
X129540000Y-112610000D02*
X130390000Y-112610000D01*
X132290000Y-114510000D02*
X133350000Y-114510000D01*
X130390000Y-112610000D02*
X132290000Y-114510000D01*
X126105000Y-105365000D02*
X126105000Y-110230000D01*
X126105000Y-110230000D02*
X128485000Y-112610000D01*
X128485000Y-112610000D02*
X129540000Y-112610000D01*
G04 #@! TO.N,Net-(C1-Pad1)*
X126905000Y-105365000D02*
X126905000Y-109760000D01*
X128055000Y-110910000D02*
X129540000Y-110910000D01*
X126905000Y-109760000D02*
X128055000Y-110910000D01*
X129540000Y-110910000D02*
X129540000Y-109855000D01*
X129755000Y-108585000D02*
X129755000Y-109640000D01*
X129755000Y-109640000D02*
X129540000Y-109855000D01*
X129540000Y-110910000D02*
X130390000Y-110910000D01*
X132290000Y-109010000D02*
X133350000Y-109010000D01*
X130390000Y-110910000D02*
X132290000Y-109010000D01*
G04 #@! TO.N,/USB Serial/RESET-USB*
X114935000Y-107315000D02*
X115570000Y-107315000D01*
X114935000Y-107315000D02*
X116205000Y-108585000D01*
X116205000Y-108585000D02*
X117980000Y-108585000D01*
X117980000Y-108585000D02*
X117980000Y-107445000D01*
X118530000Y-106895000D02*
X118530000Y-106045000D01*
X117980000Y-107445000D02*
X118530000Y-106895000D01*
X126105000Y-95510000D02*
X126105000Y-96565000D01*
X127635000Y-94615000D02*
X127000000Y-94615000D01*
X127000000Y-94615000D02*
X126105000Y-95510000D01*
G04 #@! TO.N,Net-(C4-Pad2)*
X121920000Y-99375000D02*
X122870000Y-99375000D01*
X123260000Y-99765000D02*
X124505000Y-99765000D01*
X122870000Y-99375000D02*
X123260000Y-99765000D01*
G04 #@! TO.N,/USB Serial/MISO-USB*
X126365000Y-98425000D02*
X130810000Y-98425000D01*
X131705000Y-97530000D02*
X131705000Y-96565000D01*
X130810000Y-98425000D02*
X131705000Y-97530000D01*
G04 #@! TO.N,/USB Serial/SCK-USB*
X131445000Y-99695000D02*
X132175000Y-98965000D01*
X132175000Y-98965000D02*
X133305000Y-98965000D01*
X131445000Y-100330000D02*
X131445000Y-99695000D01*
G04 #@! TO.N,/USB Serial/MOSI-USB*
X128905000Y-101600000D02*
X132340000Y-98165000D01*
X132340000Y-98165000D02*
X133305000Y-98165000D01*
X128905000Y-102870000D02*
X128905000Y-101600000D01*
D46*
G04 #@! TO.N,/USB Serial/UGND*
X125725000Y-90810000D02*
X127385000Y-89150000D01*
X127385000Y-89150000D02*
X128575000Y-89150000D01*
X122235000Y-90810000D02*
X125725000Y-90810000D01*
D47*
G04 #@! TO.N,/USB Serial/D-*
X131445000Y-94234000D02*
X131445000Y-93218000D01*
X127563158Y-101324211D02*
X127994211Y-101324211D01*
X124505000Y-102165000D02*
X125555001Y-102165000D01*
X126919169Y-101968200D02*
X127563158Y-101324211D01*
X125555001Y-102165000D02*
X125751801Y-101968200D01*
X125751801Y-101968200D02*
X126919169Y-101968200D01*
X131000500Y-94678500D02*
X131445000Y-94234000D01*
G04 #@! TO.N,/USB Serial/D+*
X129540000Y-94234000D02*
X129540000Y-93242500D01*
X129984500Y-94678500D02*
X129540000Y-94234000D01*
X126750831Y-101561800D02*
X127275789Y-101036842D01*
X125751801Y-101561800D02*
X126750831Y-101561800D01*
X125555001Y-101365000D02*
X125751801Y-101561800D01*
X124505000Y-101365000D02*
X125555001Y-101365000D01*
X127275789Y-101036842D02*
X127275789Y-100605789D01*
D46*
G04 #@! TO.N,/USB Serial/UVCC_IN*
X137795000Y-95250000D02*
X138430000Y-95885000D01*
X138430000Y-95885000D02*
X138430000Y-98745000D01*
X135890000Y-98555000D02*
X137290000Y-98555000D01*
X137480000Y-98745000D02*
X137290000Y-98555000D01*
X138430000Y-98745000D02*
X137480000Y-98745000D01*
X122555000Y-102235000D02*
X120865000Y-102235000D01*
X123285000Y-102965000D02*
X122555000Y-102235000D01*
X124505000Y-102965000D02*
X123285000Y-102965000D01*
D47*
G04 #@! TO.N,/USB Serial/D_IN+*
X127317500Y-91542500D02*
X129540000Y-91542500D01*
X130175000Y-89150000D02*
X130175000Y-90170000D01*
X129540000Y-90805000D02*
X129540000Y-91542500D01*
X130175000Y-90170000D02*
X129540000Y-90805000D01*
G04 #@! TO.N,/USB Serial/D_IN-*
X133667500Y-91542500D02*
X131445000Y-91542500D01*
X130975000Y-89150000D02*
X130975000Y-90335000D01*
X131445000Y-90805000D02*
X131445000Y-91542500D01*
X130975000Y-90335000D02*
X131445000Y-90805000D01*
G04 #@! TO.N,Net-(C7-Pad1)*
X177165000Y-107530000D02*
X178015000Y-107530000D01*
X179915000Y-109430000D02*
X180975000Y-109430000D01*
X178015000Y-107530000D02*
X179915000Y-109430000D01*
X177165000Y-107530000D02*
X177165000Y-109640000D01*
X176110000Y-107530000D02*
X177165000Y-107530000D01*
X172465000Y-107275000D02*
X175855000Y-107275000D01*
X175855000Y-107275000D02*
X176110000Y-107530000D01*
G04 #@! TO.N,Net-(C8-Pad1)*
X172465000Y-106775000D02*
X175165000Y-106775000D01*
X176110000Y-105830000D02*
X177165000Y-105830000D01*
X175165000Y-106775000D02*
X176110000Y-105830000D01*
X177165000Y-105830000D02*
X177165000Y-103720000D01*
X177165000Y-105830000D02*
X178015000Y-105830000D01*
X178015000Y-105830000D02*
X179915000Y-103930000D01*
X179915000Y-103930000D02*
X180975000Y-103930000D01*
G04 #@! TO.N,Net-(C13-Pad1)*
X135890000Y-120865000D02*
X135890000Y-122555000D01*
X140755000Y-122555000D02*
X135890000Y-122555000D01*
X135255000Y-123190000D02*
X135890000Y-122555000D01*
X127000000Y-123190000D02*
X135255000Y-123190000D01*
X125805000Y-117820000D02*
X125805000Y-121995000D01*
X125805000Y-121995000D02*
X127000000Y-123190000D01*
G04 #@! TO.N,/DREQ*
X140335000Y-104775000D02*
X141605000Y-106045000D01*
X140335000Y-96520000D02*
X140335000Y-104775000D01*
X173545000Y-100775000D02*
X172365000Y-100775000D01*
X173990000Y-100330000D02*
X173545000Y-100775000D01*
X172085000Y-96520000D02*
X173990000Y-98425000D01*
X173990000Y-98425000D02*
X173990000Y-100330000D01*
X168910000Y-95250000D02*
X170815000Y-95250000D01*
X170815000Y-95250000D02*
X172085000Y-96520000D01*
G04 #@! TO.N,/A_SHDN*
X159965000Y-97735000D02*
X159965000Y-96775000D01*
X161925000Y-99695000D02*
X159965000Y-97735000D01*
X167005000Y-98425000D02*
X165735000Y-99695000D01*
X165735000Y-99695000D02*
X161925000Y-99695000D01*
D45*
G04 #@! TO.N,+3V3*
X195199000Y-104521000D02*
X195580000Y-104140000D01*
X195199000Y-106172000D02*
X195199000Y-104521000D01*
X190119000Y-104521000D02*
X190500000Y-104140000D01*
X190119000Y-106172000D02*
X190119000Y-104521000D01*
X190119000Y-109154000D02*
X190185000Y-109220000D01*
X190119000Y-106172000D02*
X190119000Y-109154000D01*
X183935000Y-93345000D02*
X182245000Y-93345000D01*
X194310000Y-108585000D02*
X194310000Y-108905000D01*
X195199000Y-106172000D02*
X195199000Y-107696000D01*
X195199000Y-107696000D02*
X194310000Y-108585000D01*
D46*
X196850000Y-120015000D02*
X195580000Y-120015000D01*
X195210000Y-120385000D02*
X194835000Y-120385000D01*
X195580000Y-120015000D02*
X195210000Y-120385000D01*
X195210000Y-121870000D02*
X195160000Y-121920000D01*
X195160000Y-121920000D02*
X196215000Y-121920000D01*
X196850000Y-121285000D02*
X196850000Y-120015000D01*
X196215000Y-121920000D02*
X196850000Y-121285000D01*
D47*
G04 #@! TO.N,Net-(B1-PadP)*
X181610000Y-88265000D02*
X172085000Y-88265000D01*
X172085000Y-88265000D02*
X169070000Y-88265000D01*
G04 #@! TO.N,/RTC_INT*
X167640000Y-91440000D02*
X168910000Y-91440000D01*
X169965000Y-92710000D02*
X169965000Y-91860000D01*
X169545000Y-91440000D02*
X168910000Y-91440000D01*
X169965000Y-91860000D02*
X169545000Y-91440000D01*
X160965000Y-110180000D02*
X160965000Y-112675000D01*
X161925000Y-109220000D02*
X160965000Y-110180000D01*
X165735000Y-88265000D02*
X163670000Y-88265000D01*
X167005000Y-89535000D02*
X165735000Y-88265000D01*
X167640000Y-91440000D02*
X167005000Y-90805000D01*
X167005000Y-90805000D02*
X167005000Y-89535000D01*
G04 #@! TO.N,/Peripherals/WRST_3V3*
X189865000Y-117475000D02*
X189865000Y-116840000D01*
X188035000Y-117785000D02*
X189555000Y-117785000D01*
X189555000Y-117785000D02*
X189865000Y-117475000D01*
X205232000Y-100457000D02*
X202946000Y-100457000D01*
X204470000Y-108585000D02*
X206375000Y-106680000D01*
X206375000Y-101600000D02*
X205232000Y-100457000D01*
X206375000Y-106680000D02*
X206375000Y-101600000D01*
G04 #@! TO.N,/Peripherals/WEN_3V3*
X194183000Y-104648000D02*
X193675000Y-104140000D01*
X194183000Y-106172000D02*
X194183000Y-104648000D01*
X188950000Y-116485000D02*
X187335000Y-116485000D01*
X189230000Y-116205000D02*
X188950000Y-116485000D01*
X189230000Y-114935000D02*
X189230000Y-116205000D01*
G04 #@! TO.N,/Peripherals/WWAKE_3V3*
X192405000Y-114935000D02*
X189865000Y-112395000D01*
X194945000Y-114300000D02*
X194310000Y-114935000D01*
X189865000Y-112395000D02*
X188595000Y-112395000D01*
X194310000Y-114935000D02*
X192405000Y-114935000D01*
X195285000Y-117135000D02*
X194935000Y-117135000D01*
X196215000Y-116840000D02*
X195580000Y-116840000D01*
X195580000Y-116840000D02*
X195285000Y-117135000D01*
X189611000Y-94361000D02*
X188214000Y-94361000D01*
X190500000Y-95250000D02*
X189611000Y-94361000D01*
G04 #@! TO.N,/Peripherals/WMOSI_3V3*
X193320000Y-119735000D02*
X194935000Y-119735000D01*
X192405000Y-120015000D02*
X193040000Y-120015000D01*
X193040000Y-120015000D02*
X193320000Y-119735000D01*
X186055000Y-98425000D02*
X188214000Y-98425000D01*
X191135000Y-114935000D02*
X189865000Y-113665000D01*
X191135000Y-116205000D02*
X191135000Y-114935000D01*
X188595000Y-113665000D02*
X184150000Y-109220000D01*
X189865000Y-113665000D02*
X188595000Y-113665000D01*
X184150000Y-109220000D02*
X184150000Y-100330000D01*
X184150000Y-100330000D02*
X186055000Y-98425000D01*
G04 #@! TO.N,/Peripherals/WCS_3V3*
X186309000Y-99441000D02*
X188214000Y-99441000D01*
X184785000Y-108585000D02*
X184785000Y-100965000D01*
X184785000Y-100965000D02*
X186309000Y-99441000D01*
X184785000Y-108585000D02*
X187325000Y-111125000D01*
X186055000Y-120015000D02*
X186765000Y-120015000D01*
X186765000Y-120015000D02*
X187045000Y-119735000D01*
X187045000Y-119735000D02*
X187335000Y-119735000D01*
G04 #@! TO.N,/Peripherals/WSCK_3V3*
X186817000Y-101473000D02*
X188214000Y-101473000D01*
X186055000Y-102235000D02*
X186817000Y-101473000D01*
X186055000Y-107315000D02*
X186055000Y-102235000D01*
X193040000Y-113665000D02*
X192405000Y-113665000D01*
X192405000Y-113665000D02*
X186055000Y-107315000D01*
X193350000Y-118435000D02*
X194935000Y-118435000D01*
X192405000Y-118745000D02*
X193040000Y-118745000D01*
X193040000Y-118745000D02*
X193350000Y-118435000D01*
G04 #@! TO.N,/WEN*
X183730000Y-114300000D02*
X183730000Y-115570000D01*
X170465000Y-112775000D02*
X170465000Y-113950000D01*
X170465000Y-113950000D02*
X170815000Y-114300000D01*
X170815000Y-114300000D02*
X173355000Y-114300000D01*
X185685000Y-115835000D02*
X187335000Y-115835000D01*
X173355000Y-114300000D02*
X174625000Y-115570000D01*
X174625000Y-115570000D02*
X185420000Y-115570000D01*
X185420000Y-115570000D02*
X185685000Y-115835000D01*
G04 #@! TO.N,/WRST*
X183730000Y-117475000D02*
X183730000Y-116205000D01*
X185715000Y-117135000D02*
X187335000Y-117135000D01*
X169965000Y-114085000D02*
X170815000Y-114935000D01*
X169965000Y-112775000D02*
X169965000Y-114085000D01*
X170815000Y-114935000D02*
X172720000Y-114935000D01*
X172720000Y-114935000D02*
X173990000Y-116205000D01*
X173990000Y-116205000D02*
X184785000Y-116205000D01*
X184785000Y-116205000D02*
X185715000Y-117135000D01*
G04 #@! TO.N,/WCS*
X172465000Y-110775000D02*
X170465000Y-110775000D01*
X187030000Y-119085000D02*
X187335000Y-119085000D01*
X179705000Y-118745000D02*
X186690000Y-118745000D01*
X186690000Y-118745000D02*
X187030000Y-119085000D01*
X178015000Y-117475000D02*
X178015000Y-118325000D01*
X178435000Y-118745000D02*
X179705000Y-118745000D01*
X178015000Y-118325000D02*
X178435000Y-118745000D01*
G04 #@! TO.N,/WWAKE*
X170815000Y-115570000D02*
X169465000Y-114220000D01*
X173355000Y-116840000D02*
X172085000Y-115570000D01*
X192125000Y-116485000D02*
X190500000Y-118110000D01*
X194935000Y-116485000D02*
X192125000Y-116485000D01*
X172085000Y-115570000D02*
X170815000Y-115570000D01*
X190500000Y-118110000D02*
X190500000Y-120015000D01*
X190500000Y-120015000D02*
X189230000Y-121285000D01*
X173355000Y-118745000D02*
X173355000Y-116840000D01*
X175895000Y-121285000D02*
X173355000Y-118745000D01*
X169465000Y-114220000D02*
X169465000Y-112775000D01*
X189230000Y-121285000D02*
X175895000Y-121285000D01*
G04 #@! TO.N,/WIRQ*
X190500000Y-96520000D02*
X190373000Y-96393000D01*
X190373000Y-96393000D02*
X188214000Y-96393000D01*
X174315000Y-101275000D02*
X172365000Y-101275000D01*
X174625000Y-100965000D02*
X174315000Y-101275000D01*
X175260000Y-100330000D02*
X174625000Y-100965000D01*
X180340000Y-100330000D02*
X175260000Y-100330000D01*
G04 #@! TO.N,/Peripherals/CCS_3V3*
X151485000Y-108865000D02*
X151485000Y-103495000D01*
X150495000Y-109855000D02*
X151485000Y-108865000D01*
X144145000Y-108585000D02*
X145415000Y-108585000D01*
X145415000Y-108585000D02*
X146685000Y-109855000D01*
X146685000Y-109855000D02*
X150495000Y-109855000D01*
G04 #@! TO.N,/Peripherals/CMOSI_3V3*
X150750000Y-95630000D02*
X150750000Y-93050000D01*
X150185000Y-96195000D02*
X150750000Y-95630000D01*
X148590000Y-99060000D02*
X149225000Y-99060000D01*
X150185000Y-98100000D02*
X150185000Y-96195000D01*
X149225000Y-99060000D02*
X150185000Y-98100000D01*
G04 #@! TO.N,/Peripherals/CSCK_3V3*
X151765000Y-99060000D02*
X151765000Y-98425000D01*
X151765000Y-98425000D02*
X151485000Y-98145000D01*
X151485000Y-98145000D02*
X151485000Y-97230000D01*
X153035000Y-94615000D02*
X153035000Y-93980000D01*
X152950000Y-93050000D02*
X152950000Y-93895000D01*
X152950000Y-93895000D02*
X153035000Y-93980000D01*
G04 #@! TO.N,/Peripherals/SDCS_3V3*
X149650000Y-94190000D02*
X149650000Y-93050000D01*
X148885000Y-97230000D02*
X148885000Y-94955000D01*
X148885000Y-94955000D02*
X149650000Y-94190000D01*
G04 #@! TO.N,/SDCS*
X146685000Y-98425000D02*
X147955000Y-98425000D01*
X147955000Y-98425000D02*
X148235000Y-98145000D01*
X148235000Y-97230000D02*
X148235000Y-98145000D01*
X153035000Y-107530000D02*
X153035000Y-108585000D01*
X159385000Y-110490000D02*
X158465000Y-111410000D01*
X158465000Y-111410000D02*
X158465000Y-112775000D01*
X159385000Y-99695000D02*
X159385000Y-110490000D01*
G04 #@! TO.N,/Peripherals/XDCS_3V3*
X147955000Y-99695000D02*
X149535000Y-101275000D01*
X149535000Y-101275000D02*
X149535000Y-103495000D01*
X142875000Y-99695000D02*
X141605000Y-100965000D01*
X147955000Y-99695000D02*
X142875000Y-99695000D01*
G04 #@! TO.N,/Peripherals/CRST_3V3*
X148235000Y-103495000D02*
X148235000Y-104495000D01*
X147955000Y-105410000D02*
X146685000Y-105410000D01*
X148235000Y-104130000D02*
X148235000Y-105130000D01*
X148235000Y-105130000D02*
X147955000Y-105410000D01*
X144145000Y-106045000D02*
X146050000Y-106045000D01*
X146050000Y-106045000D02*
X146685000Y-105410000D01*
D46*
G04 #@! TO.N,DVDD*
X146685000Y-106680000D02*
X146050000Y-107315000D01*
X146050000Y-107315000D02*
X146050000Y-107950000D01*
X146685000Y-108585000D02*
X147105000Y-108585000D01*
X146050000Y-107950000D02*
X146685000Y-108585000D01*
X147105000Y-108585000D02*
X147740000Y-108585000D01*
X146685000Y-106680000D02*
X147740000Y-106680000D01*
X152135000Y-96630000D02*
X152135000Y-97525000D01*
X153035000Y-105830000D02*
X153035000Y-98005000D01*
X153035000Y-98005000D02*
X154305000Y-98005000D01*
X153035000Y-97790000D02*
X153035000Y-98005000D01*
X152135000Y-97230000D02*
X152475000Y-97230000D01*
X152475000Y-97230000D02*
X153035000Y-97790000D01*
D45*
X151765000Y-93135000D02*
X151850000Y-93050000D01*
D46*
X144145000Y-93665000D02*
X144780000Y-93665000D01*
X144653000Y-93665000D02*
X145730000Y-93665000D01*
X151850000Y-93050000D02*
X151850000Y-93895000D01*
X151765000Y-93980000D02*
X151765000Y-94615000D01*
X151850000Y-93895000D02*
X151765000Y-93980000D01*
X152135000Y-95620000D02*
X152135000Y-96530000D01*
X151765000Y-94615000D02*
X151765000Y-95250000D01*
X151765000Y-95250000D02*
X152135000Y-95620000D01*
X146045000Y-93980000D02*
X145730000Y-93665000D01*
X147320000Y-93980000D02*
X146045000Y-93980000D01*
D47*
G04 #@! TO.N,/CFG\005C~RST*
X165465000Y-115840000D02*
X165465000Y-112775000D01*
X144780000Y-120650000D02*
X147320000Y-123190000D01*
X165100000Y-116205000D02*
X165465000Y-115840000D01*
X147320000Y-123190000D02*
X162560000Y-123190000D01*
X162560000Y-123190000D02*
X165100000Y-120650000D01*
X165100000Y-120650000D02*
X165100000Y-116205000D01*
X142455000Y-120650000D02*
X142455000Y-122555000D01*
X142455000Y-120650000D02*
X144780000Y-120650000D01*
G04 #@! TO.N,/PIX_SHDN*
X163195000Y-98425000D02*
X165735000Y-98425000D01*
X165735000Y-98425000D02*
X165965000Y-98195000D01*
X165965000Y-98195000D02*
X165965000Y-96775000D01*
G04 #@! TO.N,/PIX_LAMP*
X168465000Y-98235000D02*
X168465000Y-96775000D01*
X165100000Y-101600000D02*
X168465000Y-98235000D01*
X165100000Y-102235000D02*
X165100000Y-101600000D01*
G04 #@! TO.N,/PIX_CLK*
X169465000Y-99140000D02*
X169465000Y-96875000D01*
X165100000Y-104775000D02*
X165100000Y-103505000D01*
X165100000Y-103505000D02*
X169465000Y-99140000D01*
G04 #@! TO.N,/KCHG*
X161465000Y-110950000D02*
X161465000Y-112675000D01*
X163195000Y-109855000D02*
X162560000Y-109855000D01*
X162560000Y-109855000D02*
X161465000Y-110950000D01*
G04 #@! TO.N,/SCL*
X166370000Y-85725000D02*
X169070000Y-85725000D01*
X149860000Y-110910000D02*
X151130000Y-110910000D01*
X151130000Y-114300000D02*
X151130000Y-110490000D01*
X151130000Y-110490000D02*
X151765000Y-109855000D01*
X150495000Y-114935000D02*
X151130000Y-114300000D01*
X148590000Y-114935000D02*
X150495000Y-114935000D01*
X147320000Y-116205000D02*
X148590000Y-114935000D01*
X170140000Y-102275000D02*
X172465000Y-102275000D01*
X166370000Y-103505000D02*
X168910000Y-103505000D01*
X168910000Y-103505000D02*
X170140000Y-102275000D01*
G04 #@! TO.N,/SDA*
X169070000Y-86995000D02*
X167005000Y-86995000D01*
X148590000Y-111125000D02*
X148375000Y-110910000D01*
X148375000Y-110910000D02*
X147320000Y-110910000D01*
X169070000Y-86995000D02*
X172720000Y-86995000D01*
X148590000Y-113665000D02*
X148590000Y-111125000D01*
X146050000Y-116205000D02*
X148590000Y-113665000D01*
X169370000Y-101775000D02*
X172465000Y-101775000D01*
X167640000Y-102235000D02*
X168910000Y-102235000D01*
X168910000Y-102235000D02*
X169370000Y-101775000D01*
G04 #@! TO.N,/CCS*
X150495000Y-108585000D02*
X149440000Y-108585000D01*
X150835000Y-108245000D02*
X150495000Y-108585000D01*
X150835000Y-101895000D02*
X150835000Y-108245000D01*
X151765000Y-101600000D02*
X151130000Y-101600000D01*
X151130000Y-101600000D02*
X150835000Y-101895000D01*
X164465000Y-109855000D02*
X164465000Y-112775000D01*
X161290000Y-106680000D02*
X164465000Y-109855000D01*
X161290000Y-103505000D02*
X161290000Y-106680000D01*
G04 #@! TO.N,/XDCS*
X149440000Y-105625000D02*
X149440000Y-106680000D01*
X149225000Y-105410000D02*
X149440000Y-105625000D01*
X148885000Y-105070000D02*
X148885000Y-103430000D01*
X149225000Y-105410000D02*
X148885000Y-105070000D01*
X161290000Y-95250000D02*
X160465000Y-96075000D01*
X160465000Y-96075000D02*
X160465000Y-96775000D01*
G04 #@! TO.N,/CRST*
X148590000Y-101600000D02*
X147955000Y-101600000D01*
X147955000Y-101600000D02*
X147585000Y-101970000D01*
X147585000Y-101970000D02*
X147585000Y-103495000D01*
X176950000Y-114300000D02*
X174625000Y-114300000D01*
X166965000Y-114340000D02*
X166370000Y-114935000D01*
X166965000Y-111085000D02*
X166965000Y-114340000D01*
X162560000Y-106680000D02*
X166965000Y-111085000D01*
X161290000Y-102235000D02*
X162560000Y-103505000D01*
X162560000Y-103505000D02*
X162560000Y-106680000D01*
G04 #@! TO.N,Net-(R19-Pad1)*
X159155000Y-119395000D02*
X159170000Y-119380000D01*
X156140000Y-119395000D02*
X159155000Y-119395000D01*
X159170000Y-119380000D02*
X159170000Y-121285000D01*
G04 #@! TO.N,/ALS_INT*
X166465000Y-111855000D02*
X166465000Y-112775000D01*
X166465000Y-111855000D02*
X165735000Y-111125000D01*
G04 #@! TO.N,/OLRST*
X160020000Y-118110000D02*
X160465000Y-117665000D01*
X160465000Y-112675000D02*
X160465000Y-117665000D01*
G04 #@! TO.N,/ALRM_SW*
X158465000Y-95600000D02*
X158465000Y-96775000D01*
X157480000Y-94615000D02*
X158465000Y-95600000D01*
G04 #@! TO.N,Net-(C24-Pad1)*
X151980000Y-116205000D02*
X153035000Y-116205000D01*
X158115000Y-110490000D02*
X157400000Y-109775000D01*
X157400000Y-109775000D02*
X156565000Y-109775000D01*
G04 #@! TO.N,/LOW_BATT*
X158115000Y-103505000D02*
X158115000Y-104775000D01*
X158115000Y-104775000D02*
X157615000Y-105275000D01*
X157615000Y-105275000D02*
X156565000Y-105275000D01*
G04 #@! TO.N,/ON_BATT*
X157440000Y-102275000D02*
X156565000Y-102275000D01*
X158115000Y-101600000D02*
X157440000Y-102275000D01*
X158115000Y-98425000D02*
X158115000Y-101600000D01*
G04 #@! TO.N,/SD_DET*
X144780000Y-90170000D02*
X144780000Y-90100000D01*
X145700000Y-89250000D02*
X146900000Y-89250000D01*
X144780000Y-90170000D02*
X145700000Y-89250000D01*
X167465000Y-96875000D02*
X167465000Y-95425000D01*
X167640000Y-95250000D02*
X167640000Y-93980000D01*
X167465000Y-95425000D02*
X167640000Y-95250000D01*
X163195000Y-92075000D02*
X164250000Y-92075000D01*
X162560000Y-90805000D02*
X162560000Y-91440000D01*
X162560000Y-91440000D02*
X163195000Y-92075000D01*
G04 #@! TO.N,/P42*
X170815000Y-103505000D02*
X171545000Y-102775000D01*
X171545000Y-102775000D02*
X172465000Y-102775000D01*
G04 #@! TO.N,/P43*
X172365000Y-103275000D02*
X173760000Y-103275000D01*
X173760000Y-103275000D02*
X173990000Y-103505000D01*
X173990000Y-103505000D02*
X174625000Y-103505000D01*
G04 #@! TO.N,/P44*
X173625000Y-103775000D02*
X172465000Y-103775000D01*
X174625000Y-104775000D02*
X173625000Y-103775000D01*
G04 #@! TO.N,/P46*
X171450000Y-104775000D02*
X172465000Y-104775000D01*
X170815000Y-106045000D02*
X170815000Y-105410000D01*
X170815000Y-105410000D02*
X171450000Y-104775000D01*
G04 #@! TO.N,/P45*
X170180000Y-104775000D02*
X170680000Y-104275000D01*
X170680000Y-104275000D02*
X172465000Y-104275000D01*
G04 #@! TO.N,/Peripherals/LED_NET*
X199263000Y-106172000D02*
X199263000Y-104902000D01*
X199263000Y-104902000D02*
X200025000Y-104140000D01*
G04 #@! TO.N,/Peripherals/GPIO_1*
X193167000Y-104902000D02*
X193167000Y-106172000D01*
X192405000Y-103505000D02*
X192405000Y-104140000D01*
X192405000Y-104140000D02*
X193167000Y-104902000D01*
G04 #@! TO.N,/Peripherals/GPIO_3*
X198755000Y-102870000D02*
X197231000Y-104394000D01*
X197231000Y-104394000D02*
X197231000Y-106172000D01*
G04 #@! TO.N,/Peripherals/LED_WIFI*
X198755000Y-104140000D02*
X198247000Y-104648000D01*
X198247000Y-104648000D02*
X198247000Y-106172000D01*
G04 #@! TO.N,/Peripherals/LED_ERR*
X205105000Y-103505000D02*
X202946000Y-103505000D01*
G04 #@! TO.N,/Peripherals/1P3V*
X196215000Y-106172000D02*
X196215000Y-107327700D01*
X196850000Y-107962700D02*
X196850000Y-108905000D01*
X196215000Y-107327700D02*
X196850000Y-107962700D01*
X199290000Y-108905000D02*
X199390000Y-109005000D01*
X196850000Y-108905000D02*
X199290000Y-108905000D01*
G04 #@! TO.N,/Peripherals/SPI_CFG*
X188214000Y-93345000D02*
X185635000Y-93345000D01*
G04 #@! TO.N,/USB Serial/LED_TX*
X134690000Y-102165000D02*
X133305000Y-102165000D01*
X135255000Y-101600000D02*
X134690000Y-102165000D01*
X135255000Y-100330000D02*
X135255000Y-101600000D01*
G04 #@! TO.N,/USB Serial/LED_RX*
X135255000Y-103505000D02*
X134715000Y-102965000D01*
X134715000Y-102965000D02*
X133305000Y-102965000D01*
G04 #@! TO.N,/USB Serial/URXD*
X153020000Y-118095000D02*
X153740000Y-118095000D01*
X152400000Y-117475000D02*
X149010000Y-117475000D01*
X152400000Y-117475000D02*
X153020000Y-118095000D01*
X149010000Y-118745000D02*
X149010000Y-117475000D01*
X140335000Y-117475000D02*
X139700000Y-116840000D01*
X139700000Y-116840000D02*
X139700000Y-112395000D01*
X137160000Y-111760000D02*
X136525000Y-111760000D01*
X149010000Y-117475000D02*
X140335000Y-117475000D01*
X139700000Y-112395000D02*
X139065000Y-111760000D01*
X139065000Y-111760000D02*
X137160000Y-111760000D01*
X133350000Y-104775000D02*
X132760000Y-105365000D01*
X132760000Y-105365000D02*
X131705000Y-105365000D01*
G04 #@! TO.N,/USB Serial/UTXD*
X120220000Y-114820000D02*
X119265000Y-114820000D01*
X119265000Y-114820000D02*
X117475000Y-114820000D01*
X117475000Y-113030000D02*
X117475000Y-114820000D01*
X134620000Y-104140000D02*
X134245000Y-103765000D01*
X134620000Y-104775000D02*
X134620000Y-104140000D01*
X134245000Y-103765000D02*
X133305000Y-103765000D01*
X117475000Y-118745000D02*
X117475000Y-114820000D01*
X117895000Y-119165000D02*
X117475000Y-118745000D01*
X117895000Y-120650000D02*
X117895000Y-119165000D01*
D46*
G04 #@! TO.N,UVCC*
X125470000Y-103765000D02*
X125730000Y-103505000D01*
X124505000Y-103765000D02*
X125470000Y-103765000D01*
X125730000Y-103505000D02*
X127000000Y-103505000D01*
X128505000Y-104375000D02*
X128505000Y-105365000D01*
X127000000Y-103505000D02*
X127635000Y-103505000D01*
X127635000Y-103505000D02*
X128505000Y-104375000D01*
X152400000Y-120015000D02*
X153020000Y-119395000D01*
X153020000Y-119395000D02*
X153740000Y-119395000D01*
X151765000Y-120015000D02*
X152400000Y-120015000D01*
X151550000Y-120230000D02*
X151765000Y-120015000D01*
X151550000Y-121285000D02*
X151550000Y-120230000D01*
X124460000Y-121500000D02*
X124460000Y-122555000D01*
D47*
G04 #@! TO.N,/USB Serial/RESET*
X131865000Y-118745000D02*
X129755000Y-118745000D01*
X118745000Y-115570000D02*
X118995000Y-115320000D01*
X118745000Y-116205000D02*
X118745000Y-115570000D01*
X118995000Y-115320000D02*
X120220000Y-115320000D01*
G04 #@! TO.N,Net-(R2-Pad2)*
X121285000Y-113245000D02*
X121920000Y-113245000D01*
X121920000Y-113245000D02*
X122305000Y-113245000D01*
X122305000Y-115820000D02*
X122305000Y-113245000D01*
X120220000Y-115820000D02*
X122305000Y-115820000D01*
X122305000Y-113245000D02*
X123190000Y-113245000D01*
X122805000Y-116320000D02*
X122305000Y-115820000D01*
X123620000Y-116320000D02*
X122805000Y-116320000D01*
G04 #@! TO.N,/PE0*
X158115000Y-114935000D02*
X152400000Y-114935000D01*
X158965000Y-112675000D02*
X158965000Y-114085000D01*
X158965000Y-114085000D02*
X158115000Y-114935000D01*
X152400000Y-113245000D02*
X152400000Y-114935000D01*
X125095000Y-114935000D02*
X124710000Y-115320000D01*
X123620000Y-115320000D02*
X124710000Y-115320000D01*
X119595000Y-120650000D02*
X121285000Y-120650000D01*
G04 #@! TO.N,/PE1*
X156140000Y-118745000D02*
X157480000Y-118745000D01*
X154725000Y-116205000D02*
X154725000Y-118745000D01*
X150710000Y-118745000D02*
X154725000Y-118745000D01*
X154725000Y-118745000D02*
X156140000Y-118745000D01*
X159465000Y-117395000D02*
X158115000Y-118745000D01*
X159465000Y-112675000D02*
X159465000Y-117395000D01*
X158115000Y-118745000D02*
X157410000Y-118745000D01*
D48*
G04 #@! TO.N,Net-(F1-Pad1)*
X133600000Y-89150000D02*
X131775000Y-89150000D01*
X135255000Y-90805000D02*
X133600000Y-89150000D01*
X135255000Y-92075000D02*
X135255000Y-90805000D01*
X135890000Y-95755000D02*
X135890000Y-92710000D01*
X135890000Y-92710000D02*
X135255000Y-92075000D01*
D47*
G04 #@! TO.N,/USB Serial/RESET-M*
X124710000Y-115820000D02*
X123620000Y-115820000D01*
X125095000Y-116205000D02*
X124710000Y-115820000D01*
X128055000Y-118745000D02*
X128055000Y-117895000D01*
X125730000Y-116205000D02*
X125095000Y-116205000D01*
X126365000Y-116205000D02*
X125730000Y-116205000D01*
X128055000Y-117895000D02*
X126365000Y-116205000D01*
X125095000Y-116840000D02*
X125095000Y-116205000D01*
X124460000Y-117475000D02*
X124460000Y-119800000D01*
X124460000Y-117475000D02*
X125095000Y-116840000D01*
X131445000Y-101600000D02*
X132480000Y-100565000D01*
X132480000Y-100565000D02*
X133305000Y-100565000D01*
X131445000Y-103505000D02*
X131445000Y-101600000D01*
G04 #@! TD*
D46*
G04 #@! TO.N,/VIN*
G36*
X112903000Y-95250000D02*
X112912667Y-95298601D01*
X112940197Y-95339803D01*
X114173000Y-96572606D01*
X114173000Y-99568000D01*
X112913222Y-99568000D01*
X113007022Y-99396232D01*
X112395000Y-98784210D01*
X111782978Y-99396232D01*
X111876778Y-99568000D01*
X110922657Y-99568000D01*
X111021063Y-99469595D01*
X111086800Y-99310890D01*
X111086800Y-98786950D01*
X110978850Y-98679000D01*
X110109000Y-98679000D01*
X110109000Y-98699000D01*
X109601000Y-98699000D01*
X109601000Y-98679000D01*
X109581000Y-98679000D01*
X109581000Y-98384849D01*
X111139710Y-98384849D01*
X111219898Y-98868285D01*
X111250628Y-98942473D01*
X111423768Y-99037022D01*
X112035790Y-98425000D01*
X112754210Y-98425000D01*
X113366232Y-99037022D01*
X113539372Y-98942473D01*
X113650290Y-98465151D01*
X113570102Y-97981715D01*
X113539372Y-97907527D01*
X113366232Y-97812978D01*
X112754210Y-98425000D01*
X112035790Y-98425000D01*
X111423768Y-97812978D01*
X111250628Y-97907527D01*
X111139710Y-98384849D01*
X109581000Y-98384849D01*
X109581000Y-98171000D01*
X109601000Y-98171000D01*
X109601000Y-97301150D01*
X110109000Y-97301150D01*
X110109000Y-98171000D01*
X110978850Y-98171000D01*
X111086800Y-98063050D01*
X111086800Y-97539110D01*
X111051451Y-97453768D01*
X111782978Y-97453768D01*
X112395000Y-98065790D01*
X113007022Y-97453768D01*
X112912473Y-97280628D01*
X112435151Y-97169710D01*
X111951715Y-97249898D01*
X111877527Y-97280628D01*
X111782978Y-97453768D01*
X111051451Y-97453768D01*
X111021063Y-97380405D01*
X110899595Y-97258938D01*
X110740891Y-97193200D01*
X110216950Y-97193200D01*
X110109000Y-97301150D01*
X109601000Y-97301150D01*
X109493050Y-97193200D01*
X108969109Y-97193200D01*
X108810405Y-97258938D01*
X108712000Y-97357342D01*
X108712000Y-94811950D01*
X109733200Y-94811950D01*
X109733200Y-95635890D01*
X109798937Y-95794595D01*
X109920405Y-95916062D01*
X110079109Y-95981800D01*
X110703050Y-95981800D01*
X110811000Y-95873850D01*
X110811000Y-94704000D01*
X111319000Y-94704000D01*
X111319000Y-95873850D01*
X111426950Y-95981800D01*
X112050891Y-95981800D01*
X112209595Y-95916062D01*
X112331063Y-95794595D01*
X112396800Y-95635890D01*
X112396800Y-94811950D01*
X112288850Y-94704000D01*
X111319000Y-94704000D01*
X110811000Y-94704000D01*
X109841150Y-94704000D01*
X109733200Y-94811950D01*
X108712000Y-94811950D01*
X108712000Y-93264110D01*
X109733200Y-93264110D01*
X109733200Y-94088050D01*
X109841150Y-94196000D01*
X110811000Y-94196000D01*
X110811000Y-93026150D01*
X111319000Y-93026150D01*
X111319000Y-94196000D01*
X112288850Y-94196000D01*
X112396800Y-94088050D01*
X112396800Y-93264110D01*
X112331063Y-93105405D01*
X112209595Y-92983938D01*
X112050891Y-92918200D01*
X111426950Y-92918200D01*
X111319000Y-93026150D01*
X110811000Y-93026150D01*
X110703050Y-92918200D01*
X110079109Y-92918200D01*
X109920405Y-92983938D01*
X109798937Y-93105405D01*
X109733200Y-93264110D01*
X108712000Y-93264110D01*
X108712000Y-89662000D01*
X112903000Y-89662000D01*
X112903000Y-95250000D01*
X112903000Y-95250000D01*
G37*
X112903000Y-95250000D02*
X112912667Y-95298601D01*
X112940197Y-95339803D01*
X114173000Y-96572606D01*
X114173000Y-99568000D01*
X112913222Y-99568000D01*
X113007022Y-99396232D01*
X112395000Y-98784210D01*
X111782978Y-99396232D01*
X111876778Y-99568000D01*
X110922657Y-99568000D01*
X111021063Y-99469595D01*
X111086800Y-99310890D01*
X111086800Y-98786950D01*
X110978850Y-98679000D01*
X110109000Y-98679000D01*
X110109000Y-98699000D01*
X109601000Y-98699000D01*
X109601000Y-98679000D01*
X109581000Y-98679000D01*
X109581000Y-98384849D01*
X111139710Y-98384849D01*
X111219898Y-98868285D01*
X111250628Y-98942473D01*
X111423768Y-99037022D01*
X112035790Y-98425000D01*
X112754210Y-98425000D01*
X113366232Y-99037022D01*
X113539372Y-98942473D01*
X113650290Y-98465151D01*
X113570102Y-97981715D01*
X113539372Y-97907527D01*
X113366232Y-97812978D01*
X112754210Y-98425000D01*
X112035790Y-98425000D01*
X111423768Y-97812978D01*
X111250628Y-97907527D01*
X111139710Y-98384849D01*
X109581000Y-98384849D01*
X109581000Y-98171000D01*
X109601000Y-98171000D01*
X109601000Y-97301150D01*
X110109000Y-97301150D01*
X110109000Y-98171000D01*
X110978850Y-98171000D01*
X111086800Y-98063050D01*
X111086800Y-97539110D01*
X111051451Y-97453768D01*
X111782978Y-97453768D01*
X112395000Y-98065790D01*
X113007022Y-97453768D01*
X112912473Y-97280628D01*
X112435151Y-97169710D01*
X111951715Y-97249898D01*
X111877527Y-97280628D01*
X111782978Y-97453768D01*
X111051451Y-97453768D01*
X111021063Y-97380405D01*
X110899595Y-97258938D01*
X110740891Y-97193200D01*
X110216950Y-97193200D01*
X110109000Y-97301150D01*
X109601000Y-97301150D01*
X109493050Y-97193200D01*
X108969109Y-97193200D01*
X108810405Y-97258938D01*
X108712000Y-97357342D01*
X108712000Y-94811950D01*
X109733200Y-94811950D01*
X109733200Y-95635890D01*
X109798937Y-95794595D01*
X109920405Y-95916062D01*
X110079109Y-95981800D01*
X110703050Y-95981800D01*
X110811000Y-95873850D01*
X110811000Y-94704000D01*
X111319000Y-94704000D01*
X111319000Y-95873850D01*
X111426950Y-95981800D01*
X112050891Y-95981800D01*
X112209595Y-95916062D01*
X112331063Y-95794595D01*
X112396800Y-95635890D01*
X112396800Y-94811950D01*
X112288850Y-94704000D01*
X111319000Y-94704000D01*
X110811000Y-94704000D01*
X109841150Y-94704000D01*
X109733200Y-94811950D01*
X108712000Y-94811950D01*
X108712000Y-93264110D01*
X109733200Y-93264110D01*
X109733200Y-94088050D01*
X109841150Y-94196000D01*
X110811000Y-94196000D01*
X110811000Y-93026150D01*
X111319000Y-93026150D01*
X111319000Y-94196000D01*
X112288850Y-94196000D01*
X112396800Y-94088050D01*
X112396800Y-93264110D01*
X112331063Y-93105405D01*
X112209595Y-92983938D01*
X112050891Y-92918200D01*
X111426950Y-92918200D01*
X111319000Y-93026150D01*
X110811000Y-93026150D01*
X110703050Y-92918200D01*
X110079109Y-92918200D01*
X109920405Y-92983938D01*
X109798937Y-93105405D01*
X109733200Y-93264110D01*
X108712000Y-93264110D01*
X108712000Y-89662000D01*
X112903000Y-89662000D01*
X112903000Y-95250000D01*
G04 #@! TO.N,GND*
G36*
X120523000Y-94562394D02*
X119996800Y-95088594D01*
X119996800Y-94811950D01*
X119888850Y-94704000D01*
X118919000Y-94704000D01*
X118919000Y-95873850D01*
X119026950Y-95981800D01*
X119103594Y-95981800D01*
X117385197Y-97700197D01*
X117357667Y-97741399D01*
X117348000Y-97790000D01*
X117348000Y-102817394D01*
X114882394Y-105283000D01*
X108712000Y-105283000D01*
X108712000Y-104476232D01*
X109242978Y-104476232D01*
X109337527Y-104649372D01*
X109814849Y-104760290D01*
X110298285Y-104680102D01*
X110372473Y-104649372D01*
X110467022Y-104476232D01*
X111782978Y-104476232D01*
X111877527Y-104649372D01*
X112354849Y-104760290D01*
X112838285Y-104680102D01*
X112912473Y-104649372D01*
X113007022Y-104476232D01*
X112395000Y-103864210D01*
X111782978Y-104476232D01*
X110467022Y-104476232D01*
X109855000Y-103864210D01*
X109242978Y-104476232D01*
X108712000Y-104476232D01*
X108712000Y-104023222D01*
X108883768Y-104117022D01*
X109495790Y-103505000D01*
X110214210Y-103505000D01*
X110826232Y-104117022D01*
X110999372Y-104022473D01*
X111110290Y-103545151D01*
X111096971Y-103464849D01*
X111139710Y-103464849D01*
X111219898Y-103948285D01*
X111250628Y-104022473D01*
X111423768Y-104117022D01*
X112035790Y-103505000D01*
X112754210Y-103505000D01*
X113366232Y-104117022D01*
X113539372Y-104022473D01*
X113650290Y-103545151D01*
X113570102Y-103061715D01*
X113539372Y-102987527D01*
X113366232Y-102892978D01*
X112754210Y-103505000D01*
X112035790Y-103505000D01*
X111423768Y-102892978D01*
X111250628Y-102987527D01*
X111139710Y-103464849D01*
X111096971Y-103464849D01*
X111030102Y-103061715D01*
X110999372Y-102987527D01*
X110826232Y-102892978D01*
X110214210Y-103505000D01*
X109495790Y-103505000D01*
X108883768Y-102892978D01*
X108712000Y-102986778D01*
X108712000Y-102362000D01*
X109336778Y-102362000D01*
X109242978Y-102533768D01*
X109855000Y-103145790D01*
X110467022Y-102533768D01*
X110373222Y-102362000D01*
X111876778Y-102362000D01*
X111782978Y-102533768D01*
X112395000Y-103145790D01*
X113007022Y-102533768D01*
X112913222Y-102362000D01*
X114300000Y-102362000D01*
X114348601Y-102352333D01*
X114389803Y-102324803D01*
X115024803Y-101689803D01*
X115052333Y-101648601D01*
X115062000Y-101600000D01*
X115062000Y-94811950D01*
X117333200Y-94811950D01*
X117333200Y-95635890D01*
X117398937Y-95794595D01*
X117520405Y-95916062D01*
X117679109Y-95981800D01*
X118303050Y-95981800D01*
X118411000Y-95873850D01*
X118411000Y-94704000D01*
X117441150Y-94704000D01*
X117333200Y-94811950D01*
X115062000Y-94811950D01*
X115062000Y-91911950D01*
X117333200Y-91911950D01*
X117333200Y-92735890D01*
X117398937Y-92894595D01*
X117504343Y-93000000D01*
X117398937Y-93105405D01*
X117333200Y-93264110D01*
X117333200Y-94088050D01*
X117441150Y-94196000D01*
X118411000Y-94196000D01*
X118411000Y-93026150D01*
X118384850Y-93000000D01*
X118411000Y-92973850D01*
X118411000Y-91804000D01*
X118919000Y-91804000D01*
X118919000Y-92973850D01*
X118945150Y-93000000D01*
X118919000Y-93026150D01*
X118919000Y-94196000D01*
X119888850Y-94196000D01*
X119996800Y-94088050D01*
X119996800Y-93264110D01*
X119931063Y-93105405D01*
X119825657Y-93000000D01*
X119931063Y-92894595D01*
X119996800Y-92735890D01*
X119996800Y-91911950D01*
X119888850Y-91804000D01*
X118919000Y-91804000D01*
X118411000Y-91804000D01*
X117441150Y-91804000D01*
X117333200Y-91911950D01*
X115062000Y-91911950D01*
X115062000Y-90364110D01*
X117333200Y-90364110D01*
X117333200Y-91188050D01*
X117441150Y-91296000D01*
X118411000Y-91296000D01*
X118411000Y-90126150D01*
X118919000Y-90126150D01*
X118919000Y-91296000D01*
X119888850Y-91296000D01*
X119996800Y-91188050D01*
X119996800Y-90364110D01*
X119931063Y-90205405D01*
X119809595Y-90083938D01*
X119650891Y-90018200D01*
X119026950Y-90018200D01*
X118919000Y-90126150D01*
X118411000Y-90126150D01*
X118303050Y-90018200D01*
X117679109Y-90018200D01*
X117520405Y-90083938D01*
X117398937Y-90205405D01*
X117333200Y-90364110D01*
X115062000Y-90364110D01*
X115062000Y-88626950D01*
X119253200Y-88626950D01*
X119253200Y-89100891D01*
X119318938Y-89259595D01*
X119440405Y-89381063D01*
X119599110Y-89446800D01*
X119973050Y-89446800D01*
X120081000Y-89338850D01*
X120081000Y-88519000D01*
X119361150Y-88519000D01*
X119253200Y-88626950D01*
X115062000Y-88626950D01*
X115062000Y-86979496D01*
X115161762Y-87220342D01*
X115494658Y-87553238D01*
X115929607Y-87733400D01*
X116400393Y-87733400D01*
X116835342Y-87553238D01*
X116959471Y-87429109D01*
X119253200Y-87429109D01*
X119253200Y-87903050D01*
X119361150Y-88011000D01*
X120081000Y-88011000D01*
X120081000Y-87191150D01*
X119973050Y-87083200D01*
X119599110Y-87083200D01*
X119440405Y-87148937D01*
X119318938Y-87270405D01*
X119253200Y-87429109D01*
X116959471Y-87429109D01*
X117168238Y-87220342D01*
X117348400Y-86785393D01*
X117348400Y-86314607D01*
X117168238Y-85879658D01*
X116835342Y-85546762D01*
X116400393Y-85366600D01*
X115929607Y-85366600D01*
X115494658Y-85546762D01*
X115161762Y-85879658D01*
X115062000Y-86120504D01*
X115062000Y-85217000D01*
X120523000Y-85217000D01*
X120523000Y-94562394D01*
X120523000Y-94562394D01*
G37*
X120523000Y-94562394D02*
X119996800Y-95088594D01*
X119996800Y-94811950D01*
X119888850Y-94704000D01*
X118919000Y-94704000D01*
X118919000Y-95873850D01*
X119026950Y-95981800D01*
X119103594Y-95981800D01*
X117385197Y-97700197D01*
X117357667Y-97741399D01*
X117348000Y-97790000D01*
X117348000Y-102817394D01*
X114882394Y-105283000D01*
X108712000Y-105283000D01*
X108712000Y-104476232D01*
X109242978Y-104476232D01*
X109337527Y-104649372D01*
X109814849Y-104760290D01*
X110298285Y-104680102D01*
X110372473Y-104649372D01*
X110467022Y-104476232D01*
X111782978Y-104476232D01*
X111877527Y-104649372D01*
X112354849Y-104760290D01*
X112838285Y-104680102D01*
X112912473Y-104649372D01*
X113007022Y-104476232D01*
X112395000Y-103864210D01*
X111782978Y-104476232D01*
X110467022Y-104476232D01*
X109855000Y-103864210D01*
X109242978Y-104476232D01*
X108712000Y-104476232D01*
X108712000Y-104023222D01*
X108883768Y-104117022D01*
X109495790Y-103505000D01*
X110214210Y-103505000D01*
X110826232Y-104117022D01*
X110999372Y-104022473D01*
X111110290Y-103545151D01*
X111096971Y-103464849D01*
X111139710Y-103464849D01*
X111219898Y-103948285D01*
X111250628Y-104022473D01*
X111423768Y-104117022D01*
X112035790Y-103505000D01*
X112754210Y-103505000D01*
X113366232Y-104117022D01*
X113539372Y-104022473D01*
X113650290Y-103545151D01*
X113570102Y-103061715D01*
X113539372Y-102987527D01*
X113366232Y-102892978D01*
X112754210Y-103505000D01*
X112035790Y-103505000D01*
X111423768Y-102892978D01*
X111250628Y-102987527D01*
X111139710Y-103464849D01*
X111096971Y-103464849D01*
X111030102Y-103061715D01*
X110999372Y-102987527D01*
X110826232Y-102892978D01*
X110214210Y-103505000D01*
X109495790Y-103505000D01*
X108883768Y-102892978D01*
X108712000Y-102986778D01*
X108712000Y-102362000D01*
X109336778Y-102362000D01*
X109242978Y-102533768D01*
X109855000Y-103145790D01*
X110467022Y-102533768D01*
X110373222Y-102362000D01*
X111876778Y-102362000D01*
X111782978Y-102533768D01*
X112395000Y-103145790D01*
X113007022Y-102533768D01*
X112913222Y-102362000D01*
X114300000Y-102362000D01*
X114348601Y-102352333D01*
X114389803Y-102324803D01*
X115024803Y-101689803D01*
X115052333Y-101648601D01*
X115062000Y-101600000D01*
X115062000Y-94811950D01*
X117333200Y-94811950D01*
X117333200Y-95635890D01*
X117398937Y-95794595D01*
X117520405Y-95916062D01*
X117679109Y-95981800D01*
X118303050Y-95981800D01*
X118411000Y-95873850D01*
X118411000Y-94704000D01*
X117441150Y-94704000D01*
X117333200Y-94811950D01*
X115062000Y-94811950D01*
X115062000Y-91911950D01*
X117333200Y-91911950D01*
X117333200Y-92735890D01*
X117398937Y-92894595D01*
X117504343Y-93000000D01*
X117398937Y-93105405D01*
X117333200Y-93264110D01*
X117333200Y-94088050D01*
X117441150Y-94196000D01*
X118411000Y-94196000D01*
X118411000Y-93026150D01*
X118384850Y-93000000D01*
X118411000Y-92973850D01*
X118411000Y-91804000D01*
X118919000Y-91804000D01*
X118919000Y-92973850D01*
X118945150Y-93000000D01*
X118919000Y-93026150D01*
X118919000Y-94196000D01*
X119888850Y-94196000D01*
X119996800Y-94088050D01*
X119996800Y-93264110D01*
X119931063Y-93105405D01*
X119825657Y-93000000D01*
X119931063Y-92894595D01*
X119996800Y-92735890D01*
X119996800Y-91911950D01*
X119888850Y-91804000D01*
X118919000Y-91804000D01*
X118411000Y-91804000D01*
X117441150Y-91804000D01*
X117333200Y-91911950D01*
X115062000Y-91911950D01*
X115062000Y-90364110D01*
X117333200Y-90364110D01*
X117333200Y-91188050D01*
X117441150Y-91296000D01*
X118411000Y-91296000D01*
X118411000Y-90126150D01*
X118919000Y-90126150D01*
X118919000Y-91296000D01*
X119888850Y-91296000D01*
X119996800Y-91188050D01*
X119996800Y-90364110D01*
X119931063Y-90205405D01*
X119809595Y-90083938D01*
X119650891Y-90018200D01*
X119026950Y-90018200D01*
X118919000Y-90126150D01*
X118411000Y-90126150D01*
X118303050Y-90018200D01*
X117679109Y-90018200D01*
X117520405Y-90083938D01*
X117398937Y-90205405D01*
X117333200Y-90364110D01*
X115062000Y-90364110D01*
X115062000Y-88626950D01*
X119253200Y-88626950D01*
X119253200Y-89100891D01*
X119318938Y-89259595D01*
X119440405Y-89381063D01*
X119599110Y-89446800D01*
X119973050Y-89446800D01*
X120081000Y-89338850D01*
X120081000Y-88519000D01*
X119361150Y-88519000D01*
X119253200Y-88626950D01*
X115062000Y-88626950D01*
X115062000Y-86979496D01*
X115161762Y-87220342D01*
X115494658Y-87553238D01*
X115929607Y-87733400D01*
X116400393Y-87733400D01*
X116835342Y-87553238D01*
X116959471Y-87429109D01*
X119253200Y-87429109D01*
X119253200Y-87903050D01*
X119361150Y-88011000D01*
X120081000Y-88011000D01*
X120081000Y-87191150D01*
X119973050Y-87083200D01*
X119599110Y-87083200D01*
X119440405Y-87148937D01*
X119318938Y-87270405D01*
X119253200Y-87429109D01*
X116959471Y-87429109D01*
X117168238Y-87220342D01*
X117348400Y-86785393D01*
X117348400Y-86314607D01*
X117168238Y-85879658D01*
X116835342Y-85546762D01*
X116400393Y-85366600D01*
X115929607Y-85366600D01*
X115494658Y-85546762D01*
X115161762Y-85879658D01*
X115062000Y-86120504D01*
X115062000Y-85217000D01*
X120523000Y-85217000D01*
X120523000Y-94562394D01*
G04 #@! TO.N,/USB Serial/USHLD*
G36*
X134620000Y-92137537D02*
X134620000Y-92137540D01*
X134656843Y-92322764D01*
X134797191Y-92532809D01*
X134850214Y-92568238D01*
X135255001Y-92973026D01*
X135255000Y-94514741D01*
X134990000Y-94514741D01*
X134821520Y-94548254D01*
X134678690Y-94643690D01*
X134583254Y-94786520D01*
X134549741Y-94955000D01*
X134549741Y-95758000D01*
X133477000Y-95758000D01*
X133477000Y-94179850D01*
X133540500Y-94116350D01*
X133540500Y-93369500D01*
X133794500Y-93369500D01*
X133794500Y-94116350D01*
X133902450Y-94224300D01*
X134253391Y-94224300D01*
X134412095Y-94158562D01*
X134533563Y-94037095D01*
X134599300Y-93878390D01*
X134599300Y-93477450D01*
X134491350Y-93369500D01*
X133794500Y-93369500D01*
X133540500Y-93369500D01*
X133520500Y-93369500D01*
X133520500Y-93115500D01*
X133540500Y-93115500D01*
X133540500Y-93095500D01*
X133794500Y-93095500D01*
X133794500Y-93115500D01*
X134491350Y-93115500D01*
X134599300Y-93007550D01*
X134599300Y-92606610D01*
X134533563Y-92447905D01*
X134483079Y-92397421D01*
X134574246Y-92260980D01*
X134607759Y-92092500D01*
X134607759Y-92075995D01*
X134620000Y-92137537D01*
X134620000Y-92137537D01*
G37*
X134620000Y-92137537D02*
X134620000Y-92137540D01*
X134656843Y-92322764D01*
X134797191Y-92532809D01*
X134850214Y-92568238D01*
X135255001Y-92973026D01*
X135255000Y-94514741D01*
X134990000Y-94514741D01*
X134821520Y-94548254D01*
X134678690Y-94643690D01*
X134583254Y-94786520D01*
X134549741Y-94955000D01*
X134549741Y-95758000D01*
X133477000Y-95758000D01*
X133477000Y-94179850D01*
X133540500Y-94116350D01*
X133540500Y-93369500D01*
X133794500Y-93369500D01*
X133794500Y-94116350D01*
X133902450Y-94224300D01*
X134253391Y-94224300D01*
X134412095Y-94158562D01*
X134533563Y-94037095D01*
X134599300Y-93878390D01*
X134599300Y-93477450D01*
X134491350Y-93369500D01*
X133794500Y-93369500D01*
X133540500Y-93369500D01*
X133520500Y-93369500D01*
X133520500Y-93115500D01*
X133540500Y-93115500D01*
X133540500Y-93095500D01*
X133794500Y-93095500D01*
X133794500Y-93115500D01*
X134491350Y-93115500D01*
X134599300Y-93007550D01*
X134599300Y-92606610D01*
X134533563Y-92447905D01*
X134483079Y-92397421D01*
X134574246Y-92260980D01*
X134607759Y-92092500D01*
X134607759Y-92075995D01*
X134620000Y-92137537D01*
G36*
X126377241Y-90992500D02*
X126377241Y-92092500D01*
X126410754Y-92260980D01*
X126501921Y-92397421D01*
X126451437Y-92447905D01*
X126385700Y-92606610D01*
X126385700Y-93007550D01*
X126493650Y-93115500D01*
X127190500Y-93115500D01*
X127190500Y-93095500D01*
X127444500Y-93095500D01*
X127444500Y-93115500D01*
X127464500Y-93115500D01*
X127464500Y-93369500D01*
X127444500Y-93369500D01*
X127444500Y-93389500D01*
X127190500Y-93389500D01*
X127190500Y-93369500D01*
X126493650Y-93369500D01*
X126385700Y-93477450D01*
X126385700Y-93853000D01*
X124969563Y-93853000D01*
X125034595Y-93826063D01*
X125156062Y-93704595D01*
X125221800Y-93545891D01*
X125221800Y-92944950D01*
X125113850Y-92837000D01*
X124267000Y-92837000D01*
X124267000Y-92857000D01*
X124013000Y-92857000D01*
X124013000Y-92837000D01*
X123993000Y-92837000D01*
X123993000Y-92583000D01*
X124013000Y-92583000D01*
X124013000Y-91636150D01*
X124267000Y-91636150D01*
X124267000Y-92583000D01*
X125113850Y-92583000D01*
X125221800Y-92475050D01*
X125221800Y-91874109D01*
X125156062Y-91715405D01*
X125034595Y-91593937D01*
X124875890Y-91528200D01*
X124374950Y-91528200D01*
X124267000Y-91636150D01*
X124013000Y-91636150D01*
X123952000Y-91575150D01*
X123952000Y-91368800D01*
X125669965Y-91368800D01*
X125725000Y-91379747D01*
X125780035Y-91368800D01*
X125943033Y-91336378D01*
X126127872Y-91212872D01*
X126159050Y-91166211D01*
X126388286Y-90936976D01*
X126377241Y-90992500D01*
X126377241Y-90992500D01*
G37*
X126377241Y-90992500D02*
X126377241Y-92092500D01*
X126410754Y-92260980D01*
X126501921Y-92397421D01*
X126451437Y-92447905D01*
X126385700Y-92606610D01*
X126385700Y-93007550D01*
X126493650Y-93115500D01*
X127190500Y-93115500D01*
X127190500Y-93095500D01*
X127444500Y-93095500D01*
X127444500Y-93115500D01*
X127464500Y-93115500D01*
X127464500Y-93369500D01*
X127444500Y-93369500D01*
X127444500Y-93389500D01*
X127190500Y-93389500D01*
X127190500Y-93369500D01*
X126493650Y-93369500D01*
X126385700Y-93477450D01*
X126385700Y-93853000D01*
X124969563Y-93853000D01*
X125034595Y-93826063D01*
X125156062Y-93704595D01*
X125221800Y-93545891D01*
X125221800Y-92944950D01*
X125113850Y-92837000D01*
X124267000Y-92837000D01*
X124267000Y-92857000D01*
X124013000Y-92857000D01*
X124013000Y-92837000D01*
X123993000Y-92837000D01*
X123993000Y-92583000D01*
X124013000Y-92583000D01*
X124013000Y-91636150D01*
X124267000Y-91636150D01*
X124267000Y-92583000D01*
X125113850Y-92583000D01*
X125221800Y-92475050D01*
X125221800Y-91874109D01*
X125156062Y-91715405D01*
X125034595Y-91593937D01*
X124875890Y-91528200D01*
X124374950Y-91528200D01*
X124267000Y-91636150D01*
X124013000Y-91636150D01*
X123952000Y-91575150D01*
X123952000Y-91368800D01*
X125669965Y-91368800D01*
X125725000Y-91379747D01*
X125780035Y-91368800D01*
X125943033Y-91336378D01*
X126127872Y-91212872D01*
X126159050Y-91166211D01*
X126388286Y-90936976D01*
X126377241Y-90992500D01*
G36*
X124293200Y-86515050D02*
X124401150Y-86623000D01*
X125848000Y-86623000D01*
X125848000Y-86603000D01*
X126102000Y-86603000D01*
X126102000Y-86623000D01*
X127548850Y-86623000D01*
X127656800Y-86515050D01*
X127656800Y-85598000D01*
X128397000Y-85598000D01*
X128397000Y-86868000D01*
X128406667Y-86916601D01*
X128434197Y-86957803D01*
X128475399Y-86985333D01*
X128524000Y-86995000D01*
X131953000Y-86995000D01*
X132001601Y-86985333D01*
X132042803Y-86957803D01*
X132070333Y-86916601D01*
X132080000Y-86868000D01*
X132080000Y-85598000D01*
X132693200Y-85598000D01*
X132693200Y-86515050D01*
X132801150Y-86623000D01*
X134248000Y-86623000D01*
X134248000Y-86603000D01*
X134502000Y-86603000D01*
X134502000Y-86623000D01*
X134522000Y-86623000D01*
X134522000Y-86877000D01*
X134502000Y-86877000D01*
X134502000Y-86897000D01*
X134248000Y-86897000D01*
X134248000Y-86877000D01*
X132801150Y-86877000D01*
X132693200Y-86984950D01*
X132693200Y-88515000D01*
X132465259Y-88515000D01*
X132465259Y-88450000D01*
X132431746Y-88281520D01*
X132336310Y-88138690D01*
X132193480Y-88043254D01*
X132025000Y-88009741D01*
X131525000Y-88009741D01*
X131375000Y-88039578D01*
X131225000Y-88009741D01*
X130725000Y-88009741D01*
X130575000Y-88039578D01*
X130425000Y-88009741D01*
X129925000Y-88009741D01*
X129775000Y-88039578D01*
X129625000Y-88009741D01*
X129125000Y-88009741D01*
X128975000Y-88039578D01*
X128825000Y-88009741D01*
X128325000Y-88009741D01*
X128156520Y-88043254D01*
X128013690Y-88138690D01*
X127918254Y-88281520D01*
X127884741Y-88450000D01*
X127884741Y-88591200D01*
X127656800Y-88591200D01*
X127656800Y-86984950D01*
X127548850Y-86877000D01*
X126102000Y-86877000D01*
X126102000Y-88973850D01*
X126209950Y-89081800D01*
X126662937Y-89081800D01*
X125493539Y-90251200D01*
X123952000Y-90251200D01*
X123952000Y-86984950D01*
X124293200Y-86984950D01*
X124293200Y-88735891D01*
X124358938Y-88894595D01*
X124480405Y-89016063D01*
X124639110Y-89081800D01*
X125740050Y-89081800D01*
X125848000Y-88973850D01*
X125848000Y-86877000D01*
X124401150Y-86877000D01*
X124293200Y-86984950D01*
X123952000Y-86984950D01*
X123952000Y-85217000D01*
X124293200Y-85217000D01*
X124293200Y-86515050D01*
X124293200Y-86515050D01*
G37*
X124293200Y-86515050D02*
X124401150Y-86623000D01*
X125848000Y-86623000D01*
X125848000Y-86603000D01*
X126102000Y-86603000D01*
X126102000Y-86623000D01*
X127548850Y-86623000D01*
X127656800Y-86515050D01*
X127656800Y-85598000D01*
X128397000Y-85598000D01*
X128397000Y-86868000D01*
X128406667Y-86916601D01*
X128434197Y-86957803D01*
X128475399Y-86985333D01*
X128524000Y-86995000D01*
X131953000Y-86995000D01*
X132001601Y-86985333D01*
X132042803Y-86957803D01*
X132070333Y-86916601D01*
X132080000Y-86868000D01*
X132080000Y-85598000D01*
X132693200Y-85598000D01*
X132693200Y-86515050D01*
X132801150Y-86623000D01*
X134248000Y-86623000D01*
X134248000Y-86603000D01*
X134502000Y-86603000D01*
X134502000Y-86623000D01*
X134522000Y-86623000D01*
X134522000Y-86877000D01*
X134502000Y-86877000D01*
X134502000Y-86897000D01*
X134248000Y-86897000D01*
X134248000Y-86877000D01*
X132801150Y-86877000D01*
X132693200Y-86984950D01*
X132693200Y-88515000D01*
X132465259Y-88515000D01*
X132465259Y-88450000D01*
X132431746Y-88281520D01*
X132336310Y-88138690D01*
X132193480Y-88043254D01*
X132025000Y-88009741D01*
X131525000Y-88009741D01*
X131375000Y-88039578D01*
X131225000Y-88009741D01*
X130725000Y-88009741D01*
X130575000Y-88039578D01*
X130425000Y-88009741D01*
X129925000Y-88009741D01*
X129775000Y-88039578D01*
X129625000Y-88009741D01*
X129125000Y-88009741D01*
X128975000Y-88039578D01*
X128825000Y-88009741D01*
X128325000Y-88009741D01*
X128156520Y-88043254D01*
X128013690Y-88138690D01*
X127918254Y-88281520D01*
X127884741Y-88450000D01*
X127884741Y-88591200D01*
X127656800Y-88591200D01*
X127656800Y-86984950D01*
X127548850Y-86877000D01*
X126102000Y-86877000D01*
X126102000Y-88973850D01*
X126209950Y-89081800D01*
X126662937Y-89081800D01*
X125493539Y-90251200D01*
X123952000Y-90251200D01*
X123952000Y-86984950D01*
X124293200Y-86984950D01*
X124293200Y-88735891D01*
X124358938Y-88894595D01*
X124480405Y-89016063D01*
X124639110Y-89081800D01*
X125740050Y-89081800D01*
X125848000Y-88973850D01*
X125848000Y-86877000D01*
X124401150Y-86877000D01*
X124293200Y-86984950D01*
X123952000Y-86984950D01*
X123952000Y-85217000D01*
X124293200Y-85217000D01*
X124293200Y-86515050D01*
G04 #@! TO.N,GND*
G36*
X192212000Y-109093000D02*
X192232000Y-109093000D01*
X192232000Y-109347000D01*
X192212000Y-109347000D01*
X192212000Y-110446250D01*
X192370750Y-110605000D01*
X192861309Y-110605000D01*
X192944115Y-110570700D01*
X192950197Y-110579803D01*
X192957677Y-110584801D01*
X192925000Y-110663691D01*
X192925000Y-111154250D01*
X193083750Y-111313000D01*
X194183000Y-111313000D01*
X194183000Y-111293000D01*
X194437000Y-111293000D01*
X194437000Y-111313000D01*
X194457000Y-111313000D01*
X194457000Y-111567000D01*
X194437000Y-111567000D01*
X194437000Y-112566250D01*
X194595750Y-112725000D01*
X195186310Y-112725000D01*
X195419699Y-112628327D01*
X195598327Y-112449698D01*
X195695000Y-112216309D01*
X195695000Y-111948026D01*
X195740301Y-111993327D01*
X195973690Y-112090000D01*
X196564250Y-112090000D01*
X196723000Y-111931250D01*
X196723000Y-110932000D01*
X196977000Y-110932000D01*
X196977000Y-111931250D01*
X197135750Y-112090000D01*
X197726310Y-112090000D01*
X197959699Y-111993327D01*
X198138327Y-111814698D01*
X198235000Y-111581309D01*
X198235000Y-111090750D01*
X198135000Y-110990750D01*
X198255000Y-110990750D01*
X198255000Y-111381309D01*
X198351673Y-111614698D01*
X198530301Y-111793327D01*
X198763690Y-111890000D01*
X199104250Y-111890000D01*
X199263000Y-111731250D01*
X199263000Y-110832000D01*
X199517000Y-110832000D01*
X199517000Y-111731250D01*
X199675750Y-111890000D01*
X200016310Y-111890000D01*
X200249699Y-111793327D01*
X200428327Y-111614698D01*
X200525000Y-111381309D01*
X200525000Y-110990750D01*
X200366250Y-110832000D01*
X199517000Y-110832000D01*
X199263000Y-110832000D01*
X198413750Y-110832000D01*
X198255000Y-110990750D01*
X198135000Y-110990750D01*
X198076250Y-110932000D01*
X196977000Y-110932000D01*
X196723000Y-110932000D01*
X196703000Y-110932000D01*
X196703000Y-110678000D01*
X196723000Y-110678000D01*
X196723000Y-110658000D01*
X196977000Y-110658000D01*
X196977000Y-110678000D01*
X198076250Y-110678000D01*
X198137250Y-110617000D01*
X200533000Y-110617000D01*
X200533000Y-111707394D01*
X198702394Y-113538000D01*
X195512078Y-113538000D01*
X195477354Y-113503276D01*
X195131938Y-113360200D01*
X194758062Y-113360200D01*
X194412646Y-113503276D01*
X194377922Y-113538000D01*
X193979800Y-113538000D01*
X193979800Y-113478062D01*
X193836724Y-113132646D01*
X193572354Y-112868276D01*
X193226938Y-112725200D01*
X192853062Y-112725200D01*
X192507646Y-112868276D01*
X192506973Y-112868949D01*
X191363775Y-111725750D01*
X192925000Y-111725750D01*
X192925000Y-112216309D01*
X193021673Y-112449698D01*
X193200301Y-112628327D01*
X193433690Y-112725000D01*
X194024250Y-112725000D01*
X194183000Y-112566250D01*
X194183000Y-111567000D01*
X193083750Y-111567000D01*
X192925000Y-111725750D01*
X191363775Y-111725750D01*
X191262000Y-111623975D01*
X191262000Y-110585660D01*
X191308691Y-110605000D01*
X191799250Y-110605000D01*
X191958000Y-110446250D01*
X191958000Y-109347000D01*
X191938000Y-109347000D01*
X191938000Y-109093000D01*
X191958000Y-109093000D01*
X191958000Y-109073000D01*
X192212000Y-109073000D01*
X192212000Y-109093000D01*
X192212000Y-109093000D01*
G37*
X192212000Y-109093000D02*
X192232000Y-109093000D01*
X192232000Y-109347000D01*
X192212000Y-109347000D01*
X192212000Y-110446250D01*
X192370750Y-110605000D01*
X192861309Y-110605000D01*
X192944115Y-110570700D01*
X192950197Y-110579803D01*
X192957677Y-110584801D01*
X192925000Y-110663691D01*
X192925000Y-111154250D01*
X193083750Y-111313000D01*
X194183000Y-111313000D01*
X194183000Y-111293000D01*
X194437000Y-111293000D01*
X194437000Y-111313000D01*
X194457000Y-111313000D01*
X194457000Y-111567000D01*
X194437000Y-111567000D01*
X194437000Y-112566250D01*
X194595750Y-112725000D01*
X195186310Y-112725000D01*
X195419699Y-112628327D01*
X195598327Y-112449698D01*
X195695000Y-112216309D01*
X195695000Y-111948026D01*
X195740301Y-111993327D01*
X195973690Y-112090000D01*
X196564250Y-112090000D01*
X196723000Y-111931250D01*
X196723000Y-110932000D01*
X196977000Y-110932000D01*
X196977000Y-111931250D01*
X197135750Y-112090000D01*
X197726310Y-112090000D01*
X197959699Y-111993327D01*
X198138327Y-111814698D01*
X198235000Y-111581309D01*
X198235000Y-111090750D01*
X198135000Y-110990750D01*
X198255000Y-110990750D01*
X198255000Y-111381309D01*
X198351673Y-111614698D01*
X198530301Y-111793327D01*
X198763690Y-111890000D01*
X199104250Y-111890000D01*
X199263000Y-111731250D01*
X199263000Y-110832000D01*
X199517000Y-110832000D01*
X199517000Y-111731250D01*
X199675750Y-111890000D01*
X200016310Y-111890000D01*
X200249699Y-111793327D01*
X200428327Y-111614698D01*
X200525000Y-111381309D01*
X200525000Y-110990750D01*
X200366250Y-110832000D01*
X199517000Y-110832000D01*
X199263000Y-110832000D01*
X198413750Y-110832000D01*
X198255000Y-110990750D01*
X198135000Y-110990750D01*
X198076250Y-110932000D01*
X196977000Y-110932000D01*
X196723000Y-110932000D01*
X196703000Y-110932000D01*
X196703000Y-110678000D01*
X196723000Y-110678000D01*
X196723000Y-110658000D01*
X196977000Y-110658000D01*
X196977000Y-110678000D01*
X198076250Y-110678000D01*
X198137250Y-110617000D01*
X200533000Y-110617000D01*
X200533000Y-111707394D01*
X198702394Y-113538000D01*
X195512078Y-113538000D01*
X195477354Y-113503276D01*
X195131938Y-113360200D01*
X194758062Y-113360200D01*
X194412646Y-113503276D01*
X194377922Y-113538000D01*
X193979800Y-113538000D01*
X193979800Y-113478062D01*
X193836724Y-113132646D01*
X193572354Y-112868276D01*
X193226938Y-112725200D01*
X192853062Y-112725200D01*
X192507646Y-112868276D01*
X192506973Y-112868949D01*
X191363775Y-111725750D01*
X192925000Y-111725750D01*
X192925000Y-112216309D01*
X193021673Y-112449698D01*
X193200301Y-112628327D01*
X193433690Y-112725000D01*
X194024250Y-112725000D01*
X194183000Y-112566250D01*
X194183000Y-111567000D01*
X193083750Y-111567000D01*
X192925000Y-111725750D01*
X191363775Y-111725750D01*
X191262000Y-111623975D01*
X191262000Y-110585660D01*
X191308691Y-110605000D01*
X191799250Y-110605000D01*
X191958000Y-110446250D01*
X191958000Y-109347000D01*
X191938000Y-109347000D01*
X191938000Y-109093000D01*
X191958000Y-109093000D01*
X191958000Y-109073000D01*
X192212000Y-109073000D01*
X192212000Y-109093000D01*
G36*
X176126673Y-101110302D02*
X176030000Y-101343691D01*
X176030000Y-101734250D01*
X176188750Y-101893000D01*
X177038000Y-101893000D01*
X177038000Y-101873000D01*
X177292000Y-101873000D01*
X177292000Y-101893000D01*
X178141250Y-101893000D01*
X178300000Y-101734250D01*
X178300000Y-101343691D01*
X178203327Y-101110302D01*
X178185025Y-101092000D01*
X179772922Y-101092000D01*
X179807646Y-101126724D01*
X180153062Y-101269800D01*
X180526938Y-101269800D01*
X180872354Y-101126724D01*
X180907078Y-101092000D01*
X182192394Y-101092000D01*
X182753000Y-101652606D01*
X182753000Y-111697329D01*
X182194550Y-112220700D01*
X178207930Y-112238587D01*
X178300000Y-112016309D01*
X178300000Y-111625750D01*
X178141250Y-111467000D01*
X177292000Y-111467000D01*
X177292000Y-111487000D01*
X177038000Y-111487000D01*
X177038000Y-111467000D01*
X176188750Y-111467000D01*
X176030000Y-111625750D01*
X176030000Y-112016309D01*
X176125940Y-112247928D01*
X173406918Y-112260127D01*
X172847000Y-111706944D01*
X172847000Y-111443849D01*
X173065000Y-111443849D01*
X173273122Y-111402451D01*
X173449559Y-111284559D01*
X173567451Y-111108122D01*
X173608849Y-110900000D01*
X173608849Y-110759247D01*
X173622549Y-110828122D01*
X173740441Y-111004559D01*
X173916878Y-111122451D01*
X174125000Y-111163849D01*
X175125000Y-111163849D01*
X175333122Y-111122451D01*
X175509559Y-111004559D01*
X175627451Y-110828122D01*
X175668849Y-110620000D01*
X175668849Y-109520000D01*
X175628064Y-109314961D01*
X175663327Y-109279698D01*
X175760000Y-109046309D01*
X175760000Y-108655750D01*
X175601250Y-108497000D01*
X174752000Y-108497000D01*
X174752000Y-108517000D01*
X174498000Y-108517000D01*
X174498000Y-108497000D01*
X174478000Y-108497000D01*
X174478000Y-108243000D01*
X174498000Y-108243000D01*
X174498000Y-108223000D01*
X174752000Y-108223000D01*
X174752000Y-108243000D01*
X175601250Y-108243000D01*
X175760000Y-108084250D01*
X175760000Y-108059845D01*
X175862235Y-108128157D01*
X176047459Y-108165000D01*
X176047464Y-108165000D01*
X176109999Y-108177439D01*
X176139371Y-108171597D01*
X176162549Y-108288122D01*
X176280441Y-108464559D01*
X176456878Y-108582451D01*
X176469693Y-108585000D01*
X176456878Y-108587549D01*
X176280441Y-108705441D01*
X176162549Y-108881878D01*
X176121151Y-109090000D01*
X176121151Y-110190000D01*
X176161936Y-110395039D01*
X176126673Y-110430302D01*
X176030000Y-110663691D01*
X176030000Y-111054250D01*
X176188750Y-111213000D01*
X177038000Y-111213000D01*
X177038000Y-111193000D01*
X177292000Y-111193000D01*
X177292000Y-111213000D01*
X178141250Y-111213000D01*
X178300000Y-111054250D01*
X178300000Y-110663691D01*
X178203327Y-110430302D01*
X178168064Y-110395039D01*
X178208849Y-110190000D01*
X178208849Y-109090000D01*
X178167451Y-108881878D01*
X178049559Y-108705441D01*
X177873122Y-108587549D01*
X177860307Y-108585000D01*
X177873122Y-108582451D01*
X178049559Y-108464559D01*
X178050350Y-108463375D01*
X179421766Y-109834791D01*
X179457191Y-109887809D01*
X179510208Y-109923234D01*
X179510210Y-109923236D01*
X179667235Y-110028157D01*
X179831151Y-110060762D01*
X179831151Y-111180000D01*
X179872549Y-111388122D01*
X179990441Y-111564559D01*
X180166878Y-111682451D01*
X180375000Y-111723849D01*
X181575000Y-111723849D01*
X181783122Y-111682451D01*
X181959559Y-111564559D01*
X182077451Y-111388122D01*
X182118849Y-111180000D01*
X182118849Y-107680000D01*
X182077451Y-107471878D01*
X181959559Y-107295441D01*
X181783122Y-107177549D01*
X181575000Y-107136151D01*
X180375000Y-107136151D01*
X180166878Y-107177549D01*
X179990441Y-107295441D01*
X179872549Y-107471878D01*
X179831151Y-107680000D01*
X179831151Y-108448126D01*
X178508238Y-107125214D01*
X178472809Y-107072191D01*
X178262765Y-106931843D01*
X178196654Y-106918693D01*
X178167451Y-106771878D01*
X178106060Y-106680000D01*
X178167451Y-106588122D01*
X178196654Y-106441307D01*
X178262765Y-106428157D01*
X178472809Y-106287809D01*
X178508238Y-106234786D01*
X179831151Y-104911874D01*
X179831151Y-105680000D01*
X179872549Y-105888122D01*
X179990441Y-106064559D01*
X180166878Y-106182451D01*
X180375000Y-106223849D01*
X181575000Y-106223849D01*
X181783122Y-106182451D01*
X181959559Y-106064559D01*
X182077451Y-105888122D01*
X182118849Y-105680000D01*
X182118849Y-102180000D01*
X182077451Y-101971878D01*
X181959559Y-101795441D01*
X181783122Y-101677549D01*
X181575000Y-101636151D01*
X180375000Y-101636151D01*
X180166878Y-101677549D01*
X179990441Y-101795441D01*
X179872549Y-101971878D01*
X179831151Y-102180000D01*
X179831151Y-103299238D01*
X179667235Y-103331843D01*
X179510210Y-103436764D01*
X179510208Y-103436766D01*
X179457191Y-103472191D01*
X179421766Y-103525209D01*
X178050350Y-104896625D01*
X178049559Y-104895441D01*
X177873122Y-104777549D01*
X177860307Y-104775000D01*
X177873122Y-104772451D01*
X178049559Y-104654559D01*
X178167451Y-104478122D01*
X178208849Y-104270000D01*
X178208849Y-103170000D01*
X178168064Y-102964961D01*
X178203327Y-102929698D01*
X178300000Y-102696309D01*
X178300000Y-102305750D01*
X178141250Y-102147000D01*
X177292000Y-102147000D01*
X177292000Y-102167000D01*
X177038000Y-102167000D01*
X177038000Y-102147000D01*
X176188750Y-102147000D01*
X176030000Y-102305750D01*
X176030000Y-102696309D01*
X176126673Y-102929698D01*
X176161936Y-102964961D01*
X176121151Y-103170000D01*
X176121151Y-104270000D01*
X176162549Y-104478122D01*
X176280441Y-104654559D01*
X176456878Y-104772451D01*
X176469693Y-104775000D01*
X176456878Y-104777549D01*
X176280441Y-104895441D01*
X176162549Y-105071878D01*
X176139371Y-105188403D01*
X176110000Y-105182561D01*
X176047463Y-105195000D01*
X176047459Y-105195000D01*
X175862235Y-105231843D01*
X175705210Y-105336764D01*
X175705208Y-105336766D01*
X175652191Y-105372191D01*
X175616765Y-105425209D01*
X174901976Y-106140000D01*
X174707025Y-106140000D01*
X174714803Y-106134803D01*
X175349803Y-105499803D01*
X175377333Y-105458601D01*
X175387000Y-105410000D01*
X175387000Y-105342078D01*
X175421724Y-105307354D01*
X175564800Y-104961938D01*
X175564800Y-104588062D01*
X175421724Y-104242646D01*
X175387000Y-104207922D01*
X175387000Y-104072078D01*
X175421724Y-104037354D01*
X175564800Y-103691938D01*
X175564800Y-103318062D01*
X175421724Y-102972646D01*
X175387000Y-102937922D01*
X175387000Y-101652606D01*
X175947606Y-101092000D01*
X176144975Y-101092000D01*
X176126673Y-101110302D01*
X176126673Y-101110302D01*
G37*
X176126673Y-101110302D02*
X176030000Y-101343691D01*
X176030000Y-101734250D01*
X176188750Y-101893000D01*
X177038000Y-101893000D01*
X177038000Y-101873000D01*
X177292000Y-101873000D01*
X177292000Y-101893000D01*
X178141250Y-101893000D01*
X178300000Y-101734250D01*
X178300000Y-101343691D01*
X178203327Y-101110302D01*
X178185025Y-101092000D01*
X179772922Y-101092000D01*
X179807646Y-101126724D01*
X180153062Y-101269800D01*
X180526938Y-101269800D01*
X180872354Y-101126724D01*
X180907078Y-101092000D01*
X182192394Y-101092000D01*
X182753000Y-101652606D01*
X182753000Y-111697329D01*
X182194550Y-112220700D01*
X178207930Y-112238587D01*
X178300000Y-112016309D01*
X178300000Y-111625750D01*
X178141250Y-111467000D01*
X177292000Y-111467000D01*
X177292000Y-111487000D01*
X177038000Y-111487000D01*
X177038000Y-111467000D01*
X176188750Y-111467000D01*
X176030000Y-111625750D01*
X176030000Y-112016309D01*
X176125940Y-112247928D01*
X173406918Y-112260127D01*
X172847000Y-111706944D01*
X172847000Y-111443849D01*
X173065000Y-111443849D01*
X173273122Y-111402451D01*
X173449559Y-111284559D01*
X173567451Y-111108122D01*
X173608849Y-110900000D01*
X173608849Y-110759247D01*
X173622549Y-110828122D01*
X173740441Y-111004559D01*
X173916878Y-111122451D01*
X174125000Y-111163849D01*
X175125000Y-111163849D01*
X175333122Y-111122451D01*
X175509559Y-111004559D01*
X175627451Y-110828122D01*
X175668849Y-110620000D01*
X175668849Y-109520000D01*
X175628064Y-109314961D01*
X175663327Y-109279698D01*
X175760000Y-109046309D01*
X175760000Y-108655750D01*
X175601250Y-108497000D01*
X174752000Y-108497000D01*
X174752000Y-108517000D01*
X174498000Y-108517000D01*
X174498000Y-108497000D01*
X174478000Y-108497000D01*
X174478000Y-108243000D01*
X174498000Y-108243000D01*
X174498000Y-108223000D01*
X174752000Y-108223000D01*
X174752000Y-108243000D01*
X175601250Y-108243000D01*
X175760000Y-108084250D01*
X175760000Y-108059845D01*
X175862235Y-108128157D01*
X176047459Y-108165000D01*
X176047464Y-108165000D01*
X176109999Y-108177439D01*
X176139371Y-108171597D01*
X176162549Y-108288122D01*
X176280441Y-108464559D01*
X176456878Y-108582451D01*
X176469693Y-108585000D01*
X176456878Y-108587549D01*
X176280441Y-108705441D01*
X176162549Y-108881878D01*
X176121151Y-109090000D01*
X176121151Y-110190000D01*
X176161936Y-110395039D01*
X176126673Y-110430302D01*
X176030000Y-110663691D01*
X176030000Y-111054250D01*
X176188750Y-111213000D01*
X177038000Y-111213000D01*
X177038000Y-111193000D01*
X177292000Y-111193000D01*
X177292000Y-111213000D01*
X178141250Y-111213000D01*
X178300000Y-111054250D01*
X178300000Y-110663691D01*
X178203327Y-110430302D01*
X178168064Y-110395039D01*
X178208849Y-110190000D01*
X178208849Y-109090000D01*
X178167451Y-108881878D01*
X178049559Y-108705441D01*
X177873122Y-108587549D01*
X177860307Y-108585000D01*
X177873122Y-108582451D01*
X178049559Y-108464559D01*
X178050350Y-108463375D01*
X179421766Y-109834791D01*
X179457191Y-109887809D01*
X179510208Y-109923234D01*
X179510210Y-109923236D01*
X179667235Y-110028157D01*
X179831151Y-110060762D01*
X179831151Y-111180000D01*
X179872549Y-111388122D01*
X179990441Y-111564559D01*
X180166878Y-111682451D01*
X180375000Y-111723849D01*
X181575000Y-111723849D01*
X181783122Y-111682451D01*
X181959559Y-111564559D01*
X182077451Y-111388122D01*
X182118849Y-111180000D01*
X182118849Y-107680000D01*
X182077451Y-107471878D01*
X181959559Y-107295441D01*
X181783122Y-107177549D01*
X181575000Y-107136151D01*
X180375000Y-107136151D01*
X180166878Y-107177549D01*
X179990441Y-107295441D01*
X179872549Y-107471878D01*
X179831151Y-107680000D01*
X179831151Y-108448126D01*
X178508238Y-107125214D01*
X178472809Y-107072191D01*
X178262765Y-106931843D01*
X178196654Y-106918693D01*
X178167451Y-106771878D01*
X178106060Y-106680000D01*
X178167451Y-106588122D01*
X178196654Y-106441307D01*
X178262765Y-106428157D01*
X178472809Y-106287809D01*
X178508238Y-106234786D01*
X179831151Y-104911874D01*
X179831151Y-105680000D01*
X179872549Y-105888122D01*
X179990441Y-106064559D01*
X180166878Y-106182451D01*
X180375000Y-106223849D01*
X181575000Y-106223849D01*
X181783122Y-106182451D01*
X181959559Y-106064559D01*
X182077451Y-105888122D01*
X182118849Y-105680000D01*
X182118849Y-102180000D01*
X182077451Y-101971878D01*
X181959559Y-101795441D01*
X181783122Y-101677549D01*
X181575000Y-101636151D01*
X180375000Y-101636151D01*
X180166878Y-101677549D01*
X179990441Y-101795441D01*
X179872549Y-101971878D01*
X179831151Y-102180000D01*
X179831151Y-103299238D01*
X179667235Y-103331843D01*
X179510210Y-103436764D01*
X179510208Y-103436766D01*
X179457191Y-103472191D01*
X179421766Y-103525209D01*
X178050350Y-104896625D01*
X178049559Y-104895441D01*
X177873122Y-104777549D01*
X177860307Y-104775000D01*
X177873122Y-104772451D01*
X178049559Y-104654559D01*
X178167451Y-104478122D01*
X178208849Y-104270000D01*
X178208849Y-103170000D01*
X178168064Y-102964961D01*
X178203327Y-102929698D01*
X178300000Y-102696309D01*
X178300000Y-102305750D01*
X178141250Y-102147000D01*
X177292000Y-102147000D01*
X177292000Y-102167000D01*
X177038000Y-102167000D01*
X177038000Y-102147000D01*
X176188750Y-102147000D01*
X176030000Y-102305750D01*
X176030000Y-102696309D01*
X176126673Y-102929698D01*
X176161936Y-102964961D01*
X176121151Y-103170000D01*
X176121151Y-104270000D01*
X176162549Y-104478122D01*
X176280441Y-104654559D01*
X176456878Y-104772451D01*
X176469693Y-104775000D01*
X176456878Y-104777549D01*
X176280441Y-104895441D01*
X176162549Y-105071878D01*
X176139371Y-105188403D01*
X176110000Y-105182561D01*
X176047463Y-105195000D01*
X176047459Y-105195000D01*
X175862235Y-105231843D01*
X175705210Y-105336764D01*
X175705208Y-105336766D01*
X175652191Y-105372191D01*
X175616765Y-105425209D01*
X174901976Y-106140000D01*
X174707025Y-106140000D01*
X174714803Y-106134803D01*
X175349803Y-105499803D01*
X175377333Y-105458601D01*
X175387000Y-105410000D01*
X175387000Y-105342078D01*
X175421724Y-105307354D01*
X175564800Y-104961938D01*
X175564800Y-104588062D01*
X175421724Y-104242646D01*
X175387000Y-104207922D01*
X175387000Y-104072078D01*
X175421724Y-104037354D01*
X175564800Y-103691938D01*
X175564800Y-103318062D01*
X175421724Y-102972646D01*
X175387000Y-102937922D01*
X175387000Y-101652606D01*
X175947606Y-101092000D01*
X176144975Y-101092000D01*
X176126673Y-101110302D01*
G04 #@! TO.N,+5V*
G36*
X175145000Y-91613691D02*
X175145000Y-92104250D01*
X175303750Y-92263000D01*
X176403000Y-92263000D01*
X176403000Y-92243000D01*
X176657000Y-92243000D01*
X176657000Y-92263000D01*
X176677000Y-92263000D01*
X176677000Y-92517000D01*
X176657000Y-92517000D01*
X176657000Y-93516250D01*
X176815750Y-93675000D01*
X177038000Y-93675000D01*
X177038000Y-95016151D01*
X176435000Y-95016151D01*
X176226878Y-95057549D01*
X176220217Y-95062000D01*
X175958750Y-95062000D01*
X175897750Y-95123000D01*
X173482000Y-95123000D01*
X173482000Y-94483691D01*
X175800000Y-94483691D01*
X175800000Y-94649250D01*
X175958750Y-94808000D01*
X176908000Y-94808000D01*
X176908000Y-94133750D01*
X176749250Y-93975000D01*
X176308690Y-93975000D01*
X176075301Y-94071673D01*
X175896673Y-94250302D01*
X175800000Y-94483691D01*
X173482000Y-94483691D01*
X173482000Y-92675750D01*
X175145000Y-92675750D01*
X175145000Y-93166309D01*
X175241673Y-93399698D01*
X175420301Y-93578327D01*
X175653690Y-93675000D01*
X176244250Y-93675000D01*
X176403000Y-93516250D01*
X176403000Y-92517000D01*
X175303750Y-92517000D01*
X175145000Y-92675750D01*
X173482000Y-92675750D01*
X173482000Y-91567000D01*
X175164340Y-91567000D01*
X175145000Y-91613691D01*
X175145000Y-91613691D01*
G37*
X175145000Y-91613691D02*
X175145000Y-92104250D01*
X175303750Y-92263000D01*
X176403000Y-92263000D01*
X176403000Y-92243000D01*
X176657000Y-92243000D01*
X176657000Y-92263000D01*
X176677000Y-92263000D01*
X176677000Y-92517000D01*
X176657000Y-92517000D01*
X176657000Y-93516250D01*
X176815750Y-93675000D01*
X177038000Y-93675000D01*
X177038000Y-95016151D01*
X176435000Y-95016151D01*
X176226878Y-95057549D01*
X176220217Y-95062000D01*
X175958750Y-95062000D01*
X175897750Y-95123000D01*
X173482000Y-95123000D01*
X173482000Y-94483691D01*
X175800000Y-94483691D01*
X175800000Y-94649250D01*
X175958750Y-94808000D01*
X176908000Y-94808000D01*
X176908000Y-94133750D01*
X176749250Y-93975000D01*
X176308690Y-93975000D01*
X176075301Y-94071673D01*
X175896673Y-94250302D01*
X175800000Y-94483691D01*
X173482000Y-94483691D01*
X173482000Y-92675750D01*
X175145000Y-92675750D01*
X175145000Y-93166309D01*
X175241673Y-93399698D01*
X175420301Y-93578327D01*
X175653690Y-93675000D01*
X176244250Y-93675000D01*
X176403000Y-93516250D01*
X176403000Y-92517000D01*
X175303750Y-92517000D01*
X175145000Y-92675750D01*
X173482000Y-92675750D01*
X173482000Y-91567000D01*
X175164340Y-91567000D01*
X175145000Y-91613691D01*
G04 #@! TO.N,+3V3*
G36*
X182753000Y-92711447D02*
X182750000Y-92718690D01*
X182750000Y-93059250D01*
X182753000Y-93062250D01*
X182753000Y-93627750D01*
X182750000Y-93630750D01*
X182750000Y-93971310D01*
X182753000Y-93978553D01*
X182753000Y-95123000D01*
X180972250Y-95123000D01*
X180911250Y-95062000D01*
X179962000Y-95062000D01*
X179962000Y-95082000D01*
X179832000Y-95082000D01*
X179832000Y-94133750D01*
X179962000Y-94133750D01*
X179962000Y-94808000D01*
X180911250Y-94808000D01*
X181070000Y-94649250D01*
X181070000Y-94483691D01*
X180973327Y-94250302D01*
X180794699Y-94071673D01*
X180561310Y-93975000D01*
X180120750Y-93975000D01*
X179962000Y-94133750D01*
X179832000Y-94133750D01*
X179832000Y-93675000D01*
X180054250Y-93675000D01*
X180213000Y-93516250D01*
X180213000Y-92517000D01*
X180467000Y-92517000D01*
X180467000Y-93516250D01*
X180625750Y-93675000D01*
X181216310Y-93675000D01*
X181449699Y-93578327D01*
X181628327Y-93399698D01*
X181725000Y-93166309D01*
X181725000Y-92675750D01*
X181566250Y-92517000D01*
X180467000Y-92517000D01*
X180213000Y-92517000D01*
X180193000Y-92517000D01*
X180193000Y-92263000D01*
X180213000Y-92263000D01*
X180213000Y-92243000D01*
X180467000Y-92243000D01*
X180467000Y-92263000D01*
X181566250Y-92263000D01*
X181725000Y-92104250D01*
X181725000Y-91613691D01*
X181705660Y-91567000D01*
X182753000Y-91567000D01*
X182753000Y-92711447D01*
X182753000Y-92711447D01*
G37*
X182753000Y-92711447D02*
X182750000Y-92718690D01*
X182750000Y-93059250D01*
X182753000Y-93062250D01*
X182753000Y-93627750D01*
X182750000Y-93630750D01*
X182750000Y-93971310D01*
X182753000Y-93978553D01*
X182753000Y-95123000D01*
X180972250Y-95123000D01*
X180911250Y-95062000D01*
X179962000Y-95062000D01*
X179962000Y-95082000D01*
X179832000Y-95082000D01*
X179832000Y-94133750D01*
X179962000Y-94133750D01*
X179962000Y-94808000D01*
X180911250Y-94808000D01*
X181070000Y-94649250D01*
X181070000Y-94483691D01*
X180973327Y-94250302D01*
X180794699Y-94071673D01*
X180561310Y-93975000D01*
X180120750Y-93975000D01*
X179962000Y-94133750D01*
X179832000Y-94133750D01*
X179832000Y-93675000D01*
X180054250Y-93675000D01*
X180213000Y-93516250D01*
X180213000Y-92517000D01*
X180467000Y-92517000D01*
X180467000Y-93516250D01*
X180625750Y-93675000D01*
X181216310Y-93675000D01*
X181449699Y-93578327D01*
X181628327Y-93399698D01*
X181725000Y-93166309D01*
X181725000Y-92675750D01*
X181566250Y-92517000D01*
X180467000Y-92517000D01*
X180213000Y-92517000D01*
X180193000Y-92517000D01*
X180193000Y-92263000D01*
X180213000Y-92263000D01*
X180213000Y-92243000D01*
X180467000Y-92243000D01*
X180467000Y-92263000D01*
X181566250Y-92263000D01*
X181725000Y-92104250D01*
X181725000Y-91613691D01*
X181705660Y-91567000D01*
X182753000Y-91567000D01*
X182753000Y-92711447D01*
G04 #@! TO.N,GND*
G36*
X181077646Y-89061724D02*
X181423062Y-89204800D01*
X181796938Y-89204800D01*
X182118000Y-89071812D01*
X182118000Y-90906600D01*
X181725000Y-90906600D01*
X181725000Y-90775750D01*
X181566250Y-90617000D01*
X180467000Y-90617000D01*
X180467000Y-90637000D01*
X180213000Y-90637000D01*
X180213000Y-90617000D01*
X179113750Y-90617000D01*
X178955000Y-90775750D01*
X178955000Y-91266309D01*
X178974340Y-91313000D01*
X177895660Y-91313000D01*
X177915000Y-91266309D01*
X177915000Y-90775750D01*
X177756250Y-90617000D01*
X176657000Y-90617000D01*
X176657000Y-90637000D01*
X176403000Y-90637000D01*
X176403000Y-90617000D01*
X175303750Y-90617000D01*
X175145000Y-90775750D01*
X175145000Y-90906600D01*
X173482000Y-90906600D01*
X173482000Y-89713691D01*
X175145000Y-89713691D01*
X175145000Y-90204250D01*
X175303750Y-90363000D01*
X176403000Y-90363000D01*
X176403000Y-89363750D01*
X176657000Y-89363750D01*
X176657000Y-90363000D01*
X177756250Y-90363000D01*
X177915000Y-90204250D01*
X177915000Y-89713691D01*
X178955000Y-89713691D01*
X178955000Y-90204250D01*
X179113750Y-90363000D01*
X180213000Y-90363000D01*
X180213000Y-89363750D01*
X180467000Y-89363750D01*
X180467000Y-90363000D01*
X181566250Y-90363000D01*
X181725000Y-90204250D01*
X181725000Y-89713691D01*
X181628327Y-89480302D01*
X181449699Y-89301673D01*
X181216310Y-89205000D01*
X180625750Y-89205000D01*
X180467000Y-89363750D01*
X180213000Y-89363750D01*
X180054250Y-89205000D01*
X179463690Y-89205000D01*
X179230301Y-89301673D01*
X179051673Y-89480302D01*
X178955000Y-89713691D01*
X177915000Y-89713691D01*
X177818327Y-89480302D01*
X177639699Y-89301673D01*
X177406310Y-89205000D01*
X176815750Y-89205000D01*
X176657000Y-89363750D01*
X176403000Y-89363750D01*
X176244250Y-89205000D01*
X175653690Y-89205000D01*
X175420301Y-89301673D01*
X175241673Y-89480302D01*
X175145000Y-89713691D01*
X173482000Y-89713691D01*
X173482000Y-89027000D01*
X181042922Y-89027000D01*
X181077646Y-89061724D01*
X181077646Y-89061724D01*
G37*
X181077646Y-89061724D02*
X181423062Y-89204800D01*
X181796938Y-89204800D01*
X182118000Y-89071812D01*
X182118000Y-90906600D01*
X181725000Y-90906600D01*
X181725000Y-90775750D01*
X181566250Y-90617000D01*
X180467000Y-90617000D01*
X180467000Y-90637000D01*
X180213000Y-90637000D01*
X180213000Y-90617000D01*
X179113750Y-90617000D01*
X178955000Y-90775750D01*
X178955000Y-91266309D01*
X178974340Y-91313000D01*
X177895660Y-91313000D01*
X177915000Y-91266309D01*
X177915000Y-90775750D01*
X177756250Y-90617000D01*
X176657000Y-90617000D01*
X176657000Y-90637000D01*
X176403000Y-90637000D01*
X176403000Y-90617000D01*
X175303750Y-90617000D01*
X175145000Y-90775750D01*
X175145000Y-90906600D01*
X173482000Y-90906600D01*
X173482000Y-89713691D01*
X175145000Y-89713691D01*
X175145000Y-90204250D01*
X175303750Y-90363000D01*
X176403000Y-90363000D01*
X176403000Y-89363750D01*
X176657000Y-89363750D01*
X176657000Y-90363000D01*
X177756250Y-90363000D01*
X177915000Y-90204250D01*
X177915000Y-89713691D01*
X178955000Y-89713691D01*
X178955000Y-90204250D01*
X179113750Y-90363000D01*
X180213000Y-90363000D01*
X180213000Y-89363750D01*
X180467000Y-89363750D01*
X180467000Y-90363000D01*
X181566250Y-90363000D01*
X181725000Y-90204250D01*
X181725000Y-89713691D01*
X181628327Y-89480302D01*
X181449699Y-89301673D01*
X181216310Y-89205000D01*
X180625750Y-89205000D01*
X180467000Y-89363750D01*
X180213000Y-89363750D01*
X180054250Y-89205000D01*
X179463690Y-89205000D01*
X179230301Y-89301673D01*
X179051673Y-89480302D01*
X178955000Y-89713691D01*
X177915000Y-89713691D01*
X177818327Y-89480302D01*
X177639699Y-89301673D01*
X177406310Y-89205000D01*
X176815750Y-89205000D01*
X176657000Y-89363750D01*
X176403000Y-89363750D01*
X176244250Y-89205000D01*
X175653690Y-89205000D01*
X175420301Y-89301673D01*
X175241673Y-89480302D01*
X175145000Y-89713691D01*
X173482000Y-89713691D01*
X173482000Y-89027000D01*
X181042922Y-89027000D01*
X181077646Y-89061724D01*
G36*
X179235000Y-95803849D02*
X180435000Y-95803849D01*
X180537804Y-95783400D01*
X182753000Y-95783400D01*
X182753000Y-97737394D01*
X182447049Y-98043345D01*
X182414658Y-98056762D01*
X182081762Y-98389658D01*
X182068345Y-98422049D01*
X181557394Y-98933000D01*
X176668400Y-98933000D01*
X176668400Y-98854444D01*
X176511075Y-98474626D01*
X176220374Y-98183925D01*
X175840556Y-98026600D01*
X175429444Y-98026600D01*
X175049626Y-98183925D01*
X174758925Y-98474626D01*
X174625000Y-98797951D01*
X174625000Y-98487537D01*
X174637439Y-98425000D01*
X174625000Y-98362463D01*
X174625000Y-98362459D01*
X174588157Y-98177235D01*
X174507659Y-98056762D01*
X174483236Y-98020210D01*
X174483234Y-98020208D01*
X174447809Y-97967191D01*
X174394792Y-97931766D01*
X173482000Y-97018975D01*
X173482000Y-95783400D01*
X176332196Y-95783400D01*
X176435000Y-95803849D01*
X177182000Y-95803849D01*
X177182000Y-95966151D01*
X176435000Y-95966151D01*
X176226878Y-96007549D01*
X176220217Y-96012000D01*
X175958750Y-96012000D01*
X175800000Y-96170750D01*
X175800000Y-96336309D01*
X175891151Y-96556367D01*
X175891151Y-97160000D01*
X175932549Y-97368122D01*
X176050441Y-97544559D01*
X176226878Y-97662451D01*
X176435000Y-97703849D01*
X177635000Y-97703849D01*
X177843122Y-97662451D01*
X178019559Y-97544559D01*
X178039740Y-97514356D01*
X178207386Y-97481009D01*
X178434234Y-97329434D01*
X178472497Y-97272169D01*
X178691151Y-97053516D01*
X178691151Y-97160000D01*
X178732549Y-97368122D01*
X178850441Y-97544559D01*
X179026878Y-97662451D01*
X179235000Y-97703849D01*
X180435000Y-97703849D01*
X180643122Y-97662451D01*
X180819559Y-97544559D01*
X180937451Y-97368122D01*
X180978849Y-97160000D01*
X180978849Y-96510000D01*
X180937451Y-96301878D01*
X180819559Y-96125441D01*
X180643122Y-96007549D01*
X180435000Y-95966151D01*
X179235000Y-95966151D01*
X179120800Y-95988867D01*
X179120800Y-95781133D01*
X179235000Y-95803849D01*
X179235000Y-95803849D01*
G37*
X179235000Y-95803849D02*
X180435000Y-95803849D01*
X180537804Y-95783400D01*
X182753000Y-95783400D01*
X182753000Y-97737394D01*
X182447049Y-98043345D01*
X182414658Y-98056762D01*
X182081762Y-98389658D01*
X182068345Y-98422049D01*
X181557394Y-98933000D01*
X176668400Y-98933000D01*
X176668400Y-98854444D01*
X176511075Y-98474626D01*
X176220374Y-98183925D01*
X175840556Y-98026600D01*
X175429444Y-98026600D01*
X175049626Y-98183925D01*
X174758925Y-98474626D01*
X174625000Y-98797951D01*
X174625000Y-98487537D01*
X174637439Y-98425000D01*
X174625000Y-98362463D01*
X174625000Y-98362459D01*
X174588157Y-98177235D01*
X174507659Y-98056762D01*
X174483236Y-98020210D01*
X174483234Y-98020208D01*
X174447809Y-97967191D01*
X174394792Y-97931766D01*
X173482000Y-97018975D01*
X173482000Y-95783400D01*
X176332196Y-95783400D01*
X176435000Y-95803849D01*
X177182000Y-95803849D01*
X177182000Y-95966151D01*
X176435000Y-95966151D01*
X176226878Y-96007549D01*
X176220217Y-96012000D01*
X175958750Y-96012000D01*
X175800000Y-96170750D01*
X175800000Y-96336309D01*
X175891151Y-96556367D01*
X175891151Y-97160000D01*
X175932549Y-97368122D01*
X176050441Y-97544559D01*
X176226878Y-97662451D01*
X176435000Y-97703849D01*
X177635000Y-97703849D01*
X177843122Y-97662451D01*
X178019559Y-97544559D01*
X178039740Y-97514356D01*
X178207386Y-97481009D01*
X178434234Y-97329434D01*
X178472497Y-97272169D01*
X178691151Y-97053516D01*
X178691151Y-97160000D01*
X178732549Y-97368122D01*
X178850441Y-97544559D01*
X179026878Y-97662451D01*
X179235000Y-97703849D01*
X180435000Y-97703849D01*
X180643122Y-97662451D01*
X180819559Y-97544559D01*
X180937451Y-97368122D01*
X180978849Y-97160000D01*
X180978849Y-96510000D01*
X180937451Y-96301878D01*
X180819559Y-96125441D01*
X180643122Y-96007549D01*
X180435000Y-95966151D01*
X179235000Y-95966151D01*
X179120800Y-95988867D01*
X179120800Y-95781133D01*
X179235000Y-95803849D01*
G36*
X160407144Y-88945094D02*
X160248600Y-89327853D01*
X160248600Y-89496151D01*
X159520000Y-89496151D01*
X159311878Y-89537549D01*
X159135441Y-89655441D01*
X159017549Y-89831878D01*
X158976151Y-90040000D01*
X158976151Y-91140000D01*
X159016936Y-91345039D01*
X158981673Y-91380302D01*
X158885000Y-91613691D01*
X158885000Y-92004250D01*
X159043750Y-92163000D01*
X159893000Y-92163000D01*
X159893000Y-92143000D01*
X160147000Y-92143000D01*
X160147000Y-92163000D01*
X160167000Y-92163000D01*
X160167000Y-92417000D01*
X160147000Y-92417000D01*
X160147000Y-93316250D01*
X160305750Y-93475000D01*
X160646310Y-93475000D01*
X160879699Y-93378327D01*
X161058327Y-93199698D01*
X161084467Y-93136590D01*
X161128276Y-93242354D01*
X161163000Y-93277078D01*
X161163000Y-94310200D01*
X161103062Y-94310200D01*
X160757646Y-94453276D01*
X160722922Y-94488000D01*
X159952078Y-94488000D01*
X159917354Y-94453276D01*
X159571938Y-94310200D01*
X159198062Y-94310200D01*
X158852646Y-94453276D01*
X158817922Y-94488000D01*
X158419800Y-94488000D01*
X158419800Y-94428062D01*
X158276724Y-94082646D01*
X158012354Y-93818276D01*
X157666938Y-93675200D01*
X157293062Y-93675200D01*
X157103311Y-93753797D01*
X157143849Y-93550000D01*
X157143849Y-93195401D01*
X157273000Y-93066250D01*
X157273000Y-92117000D01*
X157527000Y-92117000D01*
X157527000Y-93066250D01*
X157685750Y-93225000D01*
X158026309Y-93225000D01*
X158259698Y-93128327D01*
X158438327Y-92949699D01*
X158535000Y-92716310D01*
X158535000Y-92575750D01*
X158885000Y-92575750D01*
X158885000Y-92966309D01*
X158981673Y-93199698D01*
X159160301Y-93378327D01*
X159393690Y-93475000D01*
X159734250Y-93475000D01*
X159893000Y-93316250D01*
X159893000Y-92417000D01*
X159043750Y-92417000D01*
X158885000Y-92575750D01*
X158535000Y-92575750D01*
X158535000Y-92275750D01*
X158376250Y-92117000D01*
X157527000Y-92117000D01*
X157273000Y-92117000D01*
X157253000Y-92117000D01*
X157253000Y-91863000D01*
X157273000Y-91863000D01*
X157273000Y-90913750D01*
X157527000Y-90913750D01*
X157527000Y-91863000D01*
X158376250Y-91863000D01*
X158535000Y-91704250D01*
X158535000Y-91263690D01*
X158438327Y-91030301D01*
X158259698Y-90851673D01*
X158026309Y-90755000D01*
X157685750Y-90755000D01*
X157527000Y-90913750D01*
X157273000Y-90913750D01*
X157114250Y-90755000D01*
X156972000Y-90755000D01*
X156972000Y-90635000D01*
X157039250Y-90635000D01*
X157198000Y-90476250D01*
X157198000Y-89527000D01*
X157452000Y-89527000D01*
X157452000Y-90476250D01*
X157610750Y-90635000D01*
X158026309Y-90635000D01*
X158259698Y-90538327D01*
X158438327Y-90359699D01*
X158535000Y-90126310D01*
X158535000Y-89685750D01*
X158376250Y-89527000D01*
X157452000Y-89527000D01*
X157198000Y-89527000D01*
X157178000Y-89527000D01*
X157178000Y-89273000D01*
X157198000Y-89273000D01*
X157198000Y-89253000D01*
X157452000Y-89253000D01*
X157452000Y-89273000D01*
X158376250Y-89273000D01*
X158535000Y-89114250D01*
X158535000Y-88873400D01*
X160478838Y-88873400D01*
X160407144Y-88945094D01*
X160407144Y-88945094D01*
G37*
X160407144Y-88945094D02*
X160248600Y-89327853D01*
X160248600Y-89496151D01*
X159520000Y-89496151D01*
X159311878Y-89537549D01*
X159135441Y-89655441D01*
X159017549Y-89831878D01*
X158976151Y-90040000D01*
X158976151Y-91140000D01*
X159016936Y-91345039D01*
X158981673Y-91380302D01*
X158885000Y-91613691D01*
X158885000Y-92004250D01*
X159043750Y-92163000D01*
X159893000Y-92163000D01*
X159893000Y-92143000D01*
X160147000Y-92143000D01*
X160147000Y-92163000D01*
X160167000Y-92163000D01*
X160167000Y-92417000D01*
X160147000Y-92417000D01*
X160147000Y-93316250D01*
X160305750Y-93475000D01*
X160646310Y-93475000D01*
X160879699Y-93378327D01*
X161058327Y-93199698D01*
X161084467Y-93136590D01*
X161128276Y-93242354D01*
X161163000Y-93277078D01*
X161163000Y-94310200D01*
X161103062Y-94310200D01*
X160757646Y-94453276D01*
X160722922Y-94488000D01*
X159952078Y-94488000D01*
X159917354Y-94453276D01*
X159571938Y-94310200D01*
X159198062Y-94310200D01*
X158852646Y-94453276D01*
X158817922Y-94488000D01*
X158419800Y-94488000D01*
X158419800Y-94428062D01*
X158276724Y-94082646D01*
X158012354Y-93818276D01*
X157666938Y-93675200D01*
X157293062Y-93675200D01*
X157103311Y-93753797D01*
X157143849Y-93550000D01*
X157143849Y-93195401D01*
X157273000Y-93066250D01*
X157273000Y-92117000D01*
X157527000Y-92117000D01*
X157527000Y-93066250D01*
X157685750Y-93225000D01*
X158026309Y-93225000D01*
X158259698Y-93128327D01*
X158438327Y-92949699D01*
X158535000Y-92716310D01*
X158535000Y-92575750D01*
X158885000Y-92575750D01*
X158885000Y-92966309D01*
X158981673Y-93199698D01*
X159160301Y-93378327D01*
X159393690Y-93475000D01*
X159734250Y-93475000D01*
X159893000Y-93316250D01*
X159893000Y-92417000D01*
X159043750Y-92417000D01*
X158885000Y-92575750D01*
X158535000Y-92575750D01*
X158535000Y-92275750D01*
X158376250Y-92117000D01*
X157527000Y-92117000D01*
X157273000Y-92117000D01*
X157253000Y-92117000D01*
X157253000Y-91863000D01*
X157273000Y-91863000D01*
X157273000Y-90913750D01*
X157527000Y-90913750D01*
X157527000Y-91863000D01*
X158376250Y-91863000D01*
X158535000Y-91704250D01*
X158535000Y-91263690D01*
X158438327Y-91030301D01*
X158259698Y-90851673D01*
X158026309Y-90755000D01*
X157685750Y-90755000D01*
X157527000Y-90913750D01*
X157273000Y-90913750D01*
X157114250Y-90755000D01*
X156972000Y-90755000D01*
X156972000Y-90635000D01*
X157039250Y-90635000D01*
X157198000Y-90476250D01*
X157198000Y-89527000D01*
X157452000Y-89527000D01*
X157452000Y-90476250D01*
X157610750Y-90635000D01*
X158026309Y-90635000D01*
X158259698Y-90538327D01*
X158438327Y-90359699D01*
X158535000Y-90126310D01*
X158535000Y-89685750D01*
X158376250Y-89527000D01*
X157452000Y-89527000D01*
X157198000Y-89527000D01*
X157178000Y-89527000D01*
X157178000Y-89273000D01*
X157198000Y-89273000D01*
X157198000Y-89253000D01*
X157452000Y-89253000D01*
X157452000Y-89273000D01*
X158376250Y-89273000D01*
X158535000Y-89114250D01*
X158535000Y-88873400D01*
X160478838Y-88873400D01*
X160407144Y-88945094D01*
G04 #@! TO.N,UVCC*
G36*
X137203750Y-100518000D02*
X138303000Y-100518000D01*
X138303000Y-100498000D01*
X138557000Y-100498000D01*
X138557000Y-100518000D01*
X138577000Y-100518000D01*
X138577000Y-100772000D01*
X138557000Y-100772000D01*
X138557000Y-101771250D01*
X138703250Y-101917500D01*
X138557000Y-102063750D01*
X138557000Y-103063000D01*
X138577000Y-103063000D01*
X138577000Y-103317000D01*
X138557000Y-103317000D01*
X138557000Y-103337000D01*
X138303000Y-103337000D01*
X138303000Y-103317000D01*
X137203750Y-103317000D01*
X137142750Y-103378000D01*
X136194800Y-103378000D01*
X136194800Y-103318062D01*
X136051724Y-102972646D01*
X136017000Y-102937922D01*
X136017000Y-100930750D01*
X137045000Y-100930750D01*
X137045000Y-101421309D01*
X137141673Y-101654698D01*
X137320301Y-101833327D01*
X137523512Y-101917500D01*
X137320301Y-102001673D01*
X137141673Y-102180302D01*
X137045000Y-102413691D01*
X137045000Y-102904250D01*
X137203750Y-103063000D01*
X138303000Y-103063000D01*
X138303000Y-102063750D01*
X138156750Y-101917500D01*
X138303000Y-101771250D01*
X138303000Y-100772000D01*
X137203750Y-100772000D01*
X137045000Y-100930750D01*
X136017000Y-100930750D01*
X136017000Y-100897078D01*
X136051724Y-100862354D01*
X136194800Y-100516938D01*
X136194800Y-100457000D01*
X137142750Y-100457000D01*
X137203750Y-100518000D01*
X137203750Y-100518000D01*
G37*
X137203750Y-100518000D02*
X138303000Y-100518000D01*
X138303000Y-100498000D01*
X138557000Y-100498000D01*
X138557000Y-100518000D01*
X138577000Y-100518000D01*
X138577000Y-100772000D01*
X138557000Y-100772000D01*
X138557000Y-101771250D01*
X138703250Y-101917500D01*
X138557000Y-102063750D01*
X138557000Y-103063000D01*
X138577000Y-103063000D01*
X138577000Y-103317000D01*
X138557000Y-103317000D01*
X138557000Y-103337000D01*
X138303000Y-103337000D01*
X138303000Y-103317000D01*
X137203750Y-103317000D01*
X137142750Y-103378000D01*
X136194800Y-103378000D01*
X136194800Y-103318062D01*
X136051724Y-102972646D01*
X136017000Y-102937922D01*
X136017000Y-100930750D01*
X137045000Y-100930750D01*
X137045000Y-101421309D01*
X137141673Y-101654698D01*
X137320301Y-101833327D01*
X137523512Y-101917500D01*
X137320301Y-102001673D01*
X137141673Y-102180302D01*
X137045000Y-102413691D01*
X137045000Y-102904250D01*
X137203750Y-103063000D01*
X138303000Y-103063000D01*
X138303000Y-102063750D01*
X138156750Y-101917500D01*
X138303000Y-101771250D01*
X138303000Y-100772000D01*
X137203750Y-100772000D01*
X137045000Y-100930750D01*
X136017000Y-100930750D01*
X136017000Y-100897078D01*
X136051724Y-100862354D01*
X136194800Y-100516938D01*
X136194800Y-100457000D01*
X137142750Y-100457000D01*
X137203750Y-100518000D01*
G04 #@! TO.N,/USB Serial/UGND*
G36*
X122362000Y-88138000D02*
X122382000Y-88138000D01*
X122382000Y-88392000D01*
X122362000Y-88392000D01*
X122362000Y-89491250D01*
X122428000Y-89557250D01*
X122428000Y-91422750D01*
X122367000Y-91483750D01*
X122367000Y-92583000D01*
X122387000Y-92583000D01*
X122387000Y-92837000D01*
X122367000Y-92837000D01*
X122367000Y-93936250D01*
X122428000Y-93997250D01*
X122428000Y-96190000D01*
X122205750Y-96190000D01*
X122047000Y-96348750D01*
X122047000Y-97348000D01*
X122067000Y-97348000D01*
X122067000Y-97602000D01*
X122047000Y-97602000D01*
X122047000Y-97622000D01*
X121793000Y-97622000D01*
X121793000Y-97602000D01*
X120693750Y-97602000D01*
X120535000Y-97760750D01*
X120535000Y-98251309D01*
X120567677Y-98330199D01*
X120560197Y-98335197D01*
X120532667Y-98376399D01*
X120523000Y-98425000D01*
X120523000Y-100330000D01*
X120532667Y-100378601D01*
X120560197Y-100419803D01*
X120601399Y-100447333D01*
X120650000Y-100457000D01*
X120856441Y-100457000D01*
X120961878Y-100527451D01*
X121170000Y-100568849D01*
X122670000Y-100568849D01*
X122878122Y-100527451D01*
X122983559Y-100457000D01*
X123320750Y-100457000D01*
X123328750Y-100465000D01*
X123593210Y-100465000D01*
X123596878Y-100467451D01*
X123805000Y-100508849D01*
X124333000Y-100508849D01*
X124333000Y-100621151D01*
X123805000Y-100621151D01*
X123596878Y-100662549D01*
X123593210Y-100665000D01*
X123328750Y-100665000D01*
X123170000Y-100823750D01*
X123170000Y-100838000D01*
X120650000Y-100838000D01*
X120601399Y-100847667D01*
X120560197Y-100875197D01*
X120532667Y-100916399D01*
X120523000Y-100965000D01*
X120523000Y-101191151D01*
X120315000Y-101191151D01*
X120109961Y-101231936D01*
X120074698Y-101196673D01*
X119841309Y-101100000D01*
X119450750Y-101100000D01*
X119292000Y-101258750D01*
X119292000Y-102108000D01*
X119312000Y-102108000D01*
X119312000Y-102362000D01*
X119292000Y-102362000D01*
X119292000Y-102382000D01*
X119038000Y-102382000D01*
X119038000Y-102362000D01*
X119018000Y-102362000D01*
X119018000Y-102108000D01*
X119038000Y-102108000D01*
X119038000Y-101258750D01*
X118879250Y-101100000D01*
X118872000Y-101100000D01*
X118872000Y-97842606D01*
X120015915Y-96698691D01*
X120535000Y-96698691D01*
X120535000Y-97189250D01*
X120693750Y-97348000D01*
X121793000Y-97348000D01*
X121793000Y-96348750D01*
X121634250Y-96190000D01*
X121043690Y-96190000D01*
X120810301Y-96286673D01*
X120631673Y-96465302D01*
X120535000Y-96698691D01*
X120015915Y-96698691D01*
X122009803Y-94704803D01*
X122037333Y-94663601D01*
X122047000Y-94615000D01*
X122047000Y-94002250D01*
X122113000Y-93936250D01*
X122113000Y-92837000D01*
X122093000Y-92837000D01*
X122093000Y-92583000D01*
X122113000Y-92583000D01*
X122113000Y-91483750D01*
X122047000Y-91417750D01*
X122047000Y-89552250D01*
X122108000Y-89491250D01*
X122108000Y-88392000D01*
X122088000Y-88392000D01*
X122088000Y-88138000D01*
X122108000Y-88138000D01*
X122108000Y-88118000D01*
X122362000Y-88118000D01*
X122362000Y-88138000D01*
X122362000Y-88138000D01*
G37*
X122362000Y-88138000D02*
X122382000Y-88138000D01*
X122382000Y-88392000D01*
X122362000Y-88392000D01*
X122362000Y-89491250D01*
X122428000Y-89557250D01*
X122428000Y-91422750D01*
X122367000Y-91483750D01*
X122367000Y-92583000D01*
X122387000Y-92583000D01*
X122387000Y-92837000D01*
X122367000Y-92837000D01*
X122367000Y-93936250D01*
X122428000Y-93997250D01*
X122428000Y-96190000D01*
X122205750Y-96190000D01*
X122047000Y-96348750D01*
X122047000Y-97348000D01*
X122067000Y-97348000D01*
X122067000Y-97602000D01*
X122047000Y-97602000D01*
X122047000Y-97622000D01*
X121793000Y-97622000D01*
X121793000Y-97602000D01*
X120693750Y-97602000D01*
X120535000Y-97760750D01*
X120535000Y-98251309D01*
X120567677Y-98330199D01*
X120560197Y-98335197D01*
X120532667Y-98376399D01*
X120523000Y-98425000D01*
X120523000Y-100330000D01*
X120532667Y-100378601D01*
X120560197Y-100419803D01*
X120601399Y-100447333D01*
X120650000Y-100457000D01*
X120856441Y-100457000D01*
X120961878Y-100527451D01*
X121170000Y-100568849D01*
X122670000Y-100568849D01*
X122878122Y-100527451D01*
X122983559Y-100457000D01*
X123320750Y-100457000D01*
X123328750Y-100465000D01*
X123593210Y-100465000D01*
X123596878Y-100467451D01*
X123805000Y-100508849D01*
X124333000Y-100508849D01*
X124333000Y-100621151D01*
X123805000Y-100621151D01*
X123596878Y-100662549D01*
X123593210Y-100665000D01*
X123328750Y-100665000D01*
X123170000Y-100823750D01*
X123170000Y-100838000D01*
X120650000Y-100838000D01*
X120601399Y-100847667D01*
X120560197Y-100875197D01*
X120532667Y-100916399D01*
X120523000Y-100965000D01*
X120523000Y-101191151D01*
X120315000Y-101191151D01*
X120109961Y-101231936D01*
X120074698Y-101196673D01*
X119841309Y-101100000D01*
X119450750Y-101100000D01*
X119292000Y-101258750D01*
X119292000Y-102108000D01*
X119312000Y-102108000D01*
X119312000Y-102362000D01*
X119292000Y-102362000D01*
X119292000Y-102382000D01*
X119038000Y-102382000D01*
X119038000Y-102362000D01*
X119018000Y-102362000D01*
X119018000Y-102108000D01*
X119038000Y-102108000D01*
X119038000Y-101258750D01*
X118879250Y-101100000D01*
X118872000Y-101100000D01*
X118872000Y-97842606D01*
X120015915Y-96698691D01*
X120535000Y-96698691D01*
X120535000Y-97189250D01*
X120693750Y-97348000D01*
X121793000Y-97348000D01*
X121793000Y-96348750D01*
X121634250Y-96190000D01*
X121043690Y-96190000D01*
X120810301Y-96286673D01*
X120631673Y-96465302D01*
X120535000Y-96698691D01*
X120015915Y-96698691D01*
X122009803Y-94704803D01*
X122037333Y-94663601D01*
X122047000Y-94615000D01*
X122047000Y-94002250D01*
X122113000Y-93936250D01*
X122113000Y-92837000D01*
X122093000Y-92837000D01*
X122093000Y-92583000D01*
X122113000Y-92583000D01*
X122113000Y-91483750D01*
X122047000Y-91417750D01*
X122047000Y-89552250D01*
X122108000Y-89491250D01*
X122108000Y-88392000D01*
X122088000Y-88392000D01*
X122088000Y-88138000D01*
X122108000Y-88138000D01*
X122108000Y-88118000D01*
X122362000Y-88118000D01*
X122362000Y-88138000D01*
G04 #@! TO.N,GND*
G36*
X127711151Y-106065000D02*
X127752549Y-106273122D01*
X127830000Y-106389035D01*
X127830000Y-106541250D01*
X127988750Y-106700000D01*
X128081310Y-106700000D01*
X128301368Y-106608849D01*
X128755000Y-106608849D01*
X128905000Y-106579012D01*
X129055000Y-106608849D01*
X129555000Y-106608849D01*
X129705000Y-106579012D01*
X129855000Y-106608849D01*
X130355000Y-106608849D01*
X130505000Y-106579012D01*
X130655000Y-106608849D01*
X131155000Y-106608849D01*
X131305000Y-106579012D01*
X131455000Y-106608849D01*
X131955000Y-106608849D01*
X132163122Y-106567451D01*
X132339559Y-106449559D01*
X132457451Y-106273122D01*
X132477565Y-106172000D01*
X134567394Y-106172000D01*
X135128000Y-106732606D01*
X135128000Y-116787394D01*
X134567394Y-117348000D01*
X128406026Y-117348000D01*
X126858238Y-115800214D01*
X126822809Y-115747191D01*
X126612765Y-115606843D01*
X126573673Y-115599067D01*
X126195356Y-115220750D01*
X126870000Y-115220750D01*
X126870000Y-115561310D01*
X126966673Y-115794699D01*
X127145302Y-115973327D01*
X127378691Y-116070000D01*
X127769250Y-116070000D01*
X127928000Y-115911250D01*
X127928000Y-115062000D01*
X127028750Y-115062000D01*
X126870000Y-115220750D01*
X126195356Y-115220750D01*
X126034800Y-115060194D01*
X126034800Y-114748062D01*
X126033830Y-114745720D01*
X126158454Y-114739778D01*
X126559005Y-114573864D01*
X126633139Y-114327745D01*
X125805000Y-113499605D01*
X125790858Y-113513748D01*
X125611252Y-113334142D01*
X125625395Y-113320000D01*
X125984605Y-113320000D01*
X126812745Y-114148139D01*
X126954144Y-114105548D01*
X126870000Y-114308690D01*
X126870000Y-114649250D01*
X127028750Y-114808000D01*
X127928000Y-114808000D01*
X127928000Y-113958750D01*
X127769250Y-113800000D01*
X127378691Y-113800000D01*
X127145302Y-113896673D01*
X127109868Y-113932107D01*
X127251965Y-113536777D01*
X127224778Y-112966546D01*
X127058864Y-112565995D01*
X126812745Y-112491861D01*
X125984605Y-113320000D01*
X125625395Y-113320000D01*
X124797255Y-112491861D01*
X124587000Y-112555192D01*
X124587000Y-112312255D01*
X124976861Y-112312255D01*
X125805000Y-113140395D01*
X126633139Y-112312255D01*
X126559005Y-112066136D01*
X126021777Y-111873035D01*
X125451546Y-111900222D01*
X125050995Y-112066136D01*
X124976861Y-112312255D01*
X124587000Y-112312255D01*
X124587000Y-106732606D01*
X125147606Y-106172000D01*
X125332435Y-106172000D01*
X125352549Y-106273122D01*
X125470000Y-106448899D01*
X125470001Y-110167458D01*
X125457561Y-110230000D01*
X125506843Y-110477764D01*
X125586442Y-110596892D01*
X125647192Y-110687809D01*
X125700212Y-110723236D01*
X127991764Y-113014789D01*
X128027191Y-113067809D01*
X128237235Y-113208157D01*
X128422459Y-113245000D01*
X128422464Y-113245000D01*
X128484999Y-113257439D01*
X128514371Y-113251597D01*
X128537549Y-113368122D01*
X128655441Y-113544559D01*
X128831878Y-113662451D01*
X128894533Y-113674914D01*
X128905000Y-113727537D01*
X128905000Y-113727540D01*
X128936303Y-113884911D01*
X128731309Y-113800000D01*
X128340750Y-113800000D01*
X128182000Y-113958750D01*
X128182000Y-114808000D01*
X128202000Y-114808000D01*
X128202000Y-115062000D01*
X128182000Y-115062000D01*
X128182000Y-115911250D01*
X128340750Y-116070000D01*
X128731309Y-116070000D01*
X128964698Y-115973327D01*
X128999961Y-115938064D01*
X129205000Y-115978849D01*
X130305000Y-115978849D01*
X130513122Y-115937451D01*
X130689559Y-115819559D01*
X130807451Y-115643122D01*
X130848849Y-115435000D01*
X130848849Y-114435000D01*
X130807451Y-114226878D01*
X130689559Y-114050441D01*
X130513122Y-113932549D01*
X130396597Y-113909371D01*
X130402439Y-113880000D01*
X130390000Y-113817463D01*
X130390000Y-113817459D01*
X130353157Y-113632235D01*
X130334695Y-113604605D01*
X130424559Y-113544559D01*
X130425350Y-113543375D01*
X131796766Y-114914791D01*
X131832191Y-114967809D01*
X131885208Y-115003234D01*
X131885210Y-115003236D01*
X131987088Y-115071309D01*
X132042235Y-115108157D01*
X132206151Y-115140762D01*
X132206151Y-116260000D01*
X132247549Y-116468122D01*
X132365441Y-116644559D01*
X132541878Y-116762451D01*
X132750000Y-116803849D01*
X133950000Y-116803849D01*
X134158122Y-116762451D01*
X134334559Y-116644559D01*
X134452451Y-116468122D01*
X134493849Y-116260000D01*
X134493849Y-112760000D01*
X134452451Y-112551878D01*
X134334559Y-112375441D01*
X134158122Y-112257549D01*
X133950000Y-112216151D01*
X132750000Y-112216151D01*
X132541878Y-112257549D01*
X132365441Y-112375441D01*
X132247549Y-112551878D01*
X132206151Y-112760000D01*
X132206151Y-113528126D01*
X130883238Y-112205214D01*
X130847809Y-112152191D01*
X130637765Y-112011843D01*
X130571654Y-111998693D01*
X130542451Y-111851878D01*
X130481060Y-111760000D01*
X130542451Y-111668122D01*
X130571654Y-111521307D01*
X130637765Y-111508157D01*
X130847809Y-111367809D01*
X130883238Y-111314786D01*
X132206151Y-109991874D01*
X132206151Y-110760000D01*
X132247549Y-110968122D01*
X132365441Y-111144559D01*
X132541878Y-111262451D01*
X132750000Y-111303849D01*
X133950000Y-111303849D01*
X134158122Y-111262451D01*
X134334559Y-111144559D01*
X134452451Y-110968122D01*
X134493849Y-110760000D01*
X134493849Y-107260000D01*
X134452451Y-107051878D01*
X134334559Y-106875441D01*
X134158122Y-106757549D01*
X133950000Y-106716151D01*
X132750000Y-106716151D01*
X132541878Y-106757549D01*
X132365441Y-106875441D01*
X132247549Y-107051878D01*
X132206151Y-107260000D01*
X132206151Y-108379238D01*
X132042235Y-108411843D01*
X131885210Y-108516764D01*
X131885208Y-108516766D01*
X131832191Y-108552191D01*
X131796766Y-108605209D01*
X130425350Y-109976625D01*
X130424559Y-109975441D01*
X130334695Y-109915395D01*
X130353157Y-109887765D01*
X130390000Y-109702541D01*
X130390000Y-109702537D01*
X130402439Y-109640000D01*
X130396597Y-109610629D01*
X130513122Y-109587451D01*
X130689559Y-109469559D01*
X130807451Y-109293122D01*
X130848849Y-109085000D01*
X130848849Y-108085000D01*
X130807451Y-107876878D01*
X130689559Y-107700441D01*
X130513122Y-107582549D01*
X130305000Y-107541151D01*
X129205000Y-107541151D01*
X128999961Y-107581936D01*
X128964698Y-107546673D01*
X128731309Y-107450000D01*
X128340750Y-107450000D01*
X128182000Y-107608750D01*
X128182000Y-108458000D01*
X128202000Y-108458000D01*
X128202000Y-108712000D01*
X128182000Y-108712000D01*
X128182000Y-109561250D01*
X128340750Y-109720000D01*
X128731309Y-109720000D01*
X128936303Y-109635089D01*
X128894533Y-109845086D01*
X128831878Y-109857549D01*
X128655441Y-109975441D01*
X128537549Y-110151878D01*
X128513059Y-110275000D01*
X128318026Y-110275000D01*
X127763025Y-109720000D01*
X127769250Y-109720000D01*
X127928000Y-109561250D01*
X127928000Y-108712000D01*
X127908000Y-108712000D01*
X127908000Y-108458000D01*
X127928000Y-108458000D01*
X127928000Y-107608750D01*
X127769250Y-107450000D01*
X127540000Y-107450000D01*
X127540000Y-106581250D01*
X127580000Y-106541250D01*
X127580000Y-106389035D01*
X127657451Y-106273122D01*
X127698849Y-106065000D01*
X127698849Y-105218000D01*
X127711151Y-105218000D01*
X127711151Y-106065000D01*
X127711151Y-106065000D01*
G37*
X127711151Y-106065000D02*
X127752549Y-106273122D01*
X127830000Y-106389035D01*
X127830000Y-106541250D01*
X127988750Y-106700000D01*
X128081310Y-106700000D01*
X128301368Y-106608849D01*
X128755000Y-106608849D01*
X128905000Y-106579012D01*
X129055000Y-106608849D01*
X129555000Y-106608849D01*
X129705000Y-106579012D01*
X129855000Y-106608849D01*
X130355000Y-106608849D01*
X130505000Y-106579012D01*
X130655000Y-106608849D01*
X131155000Y-106608849D01*
X131305000Y-106579012D01*
X131455000Y-106608849D01*
X131955000Y-106608849D01*
X132163122Y-106567451D01*
X132339559Y-106449559D01*
X132457451Y-106273122D01*
X132477565Y-106172000D01*
X134567394Y-106172000D01*
X135128000Y-106732606D01*
X135128000Y-116787394D01*
X134567394Y-117348000D01*
X128406026Y-117348000D01*
X126858238Y-115800214D01*
X126822809Y-115747191D01*
X126612765Y-115606843D01*
X126573673Y-115599067D01*
X126195356Y-115220750D01*
X126870000Y-115220750D01*
X126870000Y-115561310D01*
X126966673Y-115794699D01*
X127145302Y-115973327D01*
X127378691Y-116070000D01*
X127769250Y-116070000D01*
X127928000Y-115911250D01*
X127928000Y-115062000D01*
X127028750Y-115062000D01*
X126870000Y-115220750D01*
X126195356Y-115220750D01*
X126034800Y-115060194D01*
X126034800Y-114748062D01*
X126033830Y-114745720D01*
X126158454Y-114739778D01*
X126559005Y-114573864D01*
X126633139Y-114327745D01*
X125805000Y-113499605D01*
X125790858Y-113513748D01*
X125611252Y-113334142D01*
X125625395Y-113320000D01*
X125984605Y-113320000D01*
X126812745Y-114148139D01*
X126954144Y-114105548D01*
X126870000Y-114308690D01*
X126870000Y-114649250D01*
X127028750Y-114808000D01*
X127928000Y-114808000D01*
X127928000Y-113958750D01*
X127769250Y-113800000D01*
X127378691Y-113800000D01*
X127145302Y-113896673D01*
X127109868Y-113932107D01*
X127251965Y-113536777D01*
X127224778Y-112966546D01*
X127058864Y-112565995D01*
X126812745Y-112491861D01*
X125984605Y-113320000D01*
X125625395Y-113320000D01*
X124797255Y-112491861D01*
X124587000Y-112555192D01*
X124587000Y-112312255D01*
X124976861Y-112312255D01*
X125805000Y-113140395D01*
X126633139Y-112312255D01*
X126559005Y-112066136D01*
X126021777Y-111873035D01*
X125451546Y-111900222D01*
X125050995Y-112066136D01*
X124976861Y-112312255D01*
X124587000Y-112312255D01*
X124587000Y-106732606D01*
X125147606Y-106172000D01*
X125332435Y-106172000D01*
X125352549Y-106273122D01*
X125470000Y-106448899D01*
X125470001Y-110167458D01*
X125457561Y-110230000D01*
X125506843Y-110477764D01*
X125586442Y-110596892D01*
X125647192Y-110687809D01*
X125700212Y-110723236D01*
X127991764Y-113014789D01*
X128027191Y-113067809D01*
X128237235Y-113208157D01*
X128422459Y-113245000D01*
X128422464Y-113245000D01*
X128484999Y-113257439D01*
X128514371Y-113251597D01*
X128537549Y-113368122D01*
X128655441Y-113544559D01*
X128831878Y-113662451D01*
X128894533Y-113674914D01*
X128905000Y-113727537D01*
X128905000Y-113727540D01*
X128936303Y-113884911D01*
X128731309Y-113800000D01*
X128340750Y-113800000D01*
X128182000Y-113958750D01*
X128182000Y-114808000D01*
X128202000Y-114808000D01*
X128202000Y-115062000D01*
X128182000Y-115062000D01*
X128182000Y-115911250D01*
X128340750Y-116070000D01*
X128731309Y-116070000D01*
X128964698Y-115973327D01*
X128999961Y-115938064D01*
X129205000Y-115978849D01*
X130305000Y-115978849D01*
X130513122Y-115937451D01*
X130689559Y-115819559D01*
X130807451Y-115643122D01*
X130848849Y-115435000D01*
X130848849Y-114435000D01*
X130807451Y-114226878D01*
X130689559Y-114050441D01*
X130513122Y-113932549D01*
X130396597Y-113909371D01*
X130402439Y-113880000D01*
X130390000Y-113817463D01*
X130390000Y-113817459D01*
X130353157Y-113632235D01*
X130334695Y-113604605D01*
X130424559Y-113544559D01*
X130425350Y-113543375D01*
X131796766Y-114914791D01*
X131832191Y-114967809D01*
X131885208Y-115003234D01*
X131885210Y-115003236D01*
X131987088Y-115071309D01*
X132042235Y-115108157D01*
X132206151Y-115140762D01*
X132206151Y-116260000D01*
X132247549Y-116468122D01*
X132365441Y-116644559D01*
X132541878Y-116762451D01*
X132750000Y-116803849D01*
X133950000Y-116803849D01*
X134158122Y-116762451D01*
X134334559Y-116644559D01*
X134452451Y-116468122D01*
X134493849Y-116260000D01*
X134493849Y-112760000D01*
X134452451Y-112551878D01*
X134334559Y-112375441D01*
X134158122Y-112257549D01*
X133950000Y-112216151D01*
X132750000Y-112216151D01*
X132541878Y-112257549D01*
X132365441Y-112375441D01*
X132247549Y-112551878D01*
X132206151Y-112760000D01*
X132206151Y-113528126D01*
X130883238Y-112205214D01*
X130847809Y-112152191D01*
X130637765Y-112011843D01*
X130571654Y-111998693D01*
X130542451Y-111851878D01*
X130481060Y-111760000D01*
X130542451Y-111668122D01*
X130571654Y-111521307D01*
X130637765Y-111508157D01*
X130847809Y-111367809D01*
X130883238Y-111314786D01*
X132206151Y-109991874D01*
X132206151Y-110760000D01*
X132247549Y-110968122D01*
X132365441Y-111144559D01*
X132541878Y-111262451D01*
X132750000Y-111303849D01*
X133950000Y-111303849D01*
X134158122Y-111262451D01*
X134334559Y-111144559D01*
X134452451Y-110968122D01*
X134493849Y-110760000D01*
X134493849Y-107260000D01*
X134452451Y-107051878D01*
X134334559Y-106875441D01*
X134158122Y-106757549D01*
X133950000Y-106716151D01*
X132750000Y-106716151D01*
X132541878Y-106757549D01*
X132365441Y-106875441D01*
X132247549Y-107051878D01*
X132206151Y-107260000D01*
X132206151Y-108379238D01*
X132042235Y-108411843D01*
X131885210Y-108516764D01*
X131885208Y-108516766D01*
X131832191Y-108552191D01*
X131796766Y-108605209D01*
X130425350Y-109976625D01*
X130424559Y-109975441D01*
X130334695Y-109915395D01*
X130353157Y-109887765D01*
X130390000Y-109702541D01*
X130390000Y-109702537D01*
X130402439Y-109640000D01*
X130396597Y-109610629D01*
X130513122Y-109587451D01*
X130689559Y-109469559D01*
X130807451Y-109293122D01*
X130848849Y-109085000D01*
X130848849Y-108085000D01*
X130807451Y-107876878D01*
X130689559Y-107700441D01*
X130513122Y-107582549D01*
X130305000Y-107541151D01*
X129205000Y-107541151D01*
X128999961Y-107581936D01*
X128964698Y-107546673D01*
X128731309Y-107450000D01*
X128340750Y-107450000D01*
X128182000Y-107608750D01*
X128182000Y-108458000D01*
X128202000Y-108458000D01*
X128202000Y-108712000D01*
X128182000Y-108712000D01*
X128182000Y-109561250D01*
X128340750Y-109720000D01*
X128731309Y-109720000D01*
X128936303Y-109635089D01*
X128894533Y-109845086D01*
X128831878Y-109857549D01*
X128655441Y-109975441D01*
X128537549Y-110151878D01*
X128513059Y-110275000D01*
X128318026Y-110275000D01*
X127763025Y-109720000D01*
X127769250Y-109720000D01*
X127928000Y-109561250D01*
X127928000Y-108712000D01*
X127908000Y-108712000D01*
X127908000Y-108458000D01*
X127928000Y-108458000D01*
X127928000Y-107608750D01*
X127769250Y-107450000D01*
X127540000Y-107450000D01*
X127540000Y-106581250D01*
X127580000Y-106541250D01*
X127580000Y-106389035D01*
X127657451Y-106273122D01*
X127698849Y-106065000D01*
X127698849Y-105218000D01*
X127711151Y-105218000D01*
X127711151Y-106065000D01*
G04 #@! TO.N,+5V*
G36*
X137045000Y-104313691D02*
X137045000Y-104804250D01*
X137203750Y-104963000D01*
X138303000Y-104963000D01*
X138303000Y-104943000D01*
X138557000Y-104943000D01*
X138557000Y-104963000D01*
X138577000Y-104963000D01*
X138577000Y-105217000D01*
X138557000Y-105217000D01*
X138557000Y-106216250D01*
X138715750Y-106375000D01*
X139306310Y-106375000D01*
X139539699Y-106278327D01*
X139573000Y-106245026D01*
X139573000Y-106553000D01*
X136017000Y-106553000D01*
X136017000Y-105375750D01*
X137045000Y-105375750D01*
X137045000Y-105866309D01*
X137141673Y-106099698D01*
X137320301Y-106278327D01*
X137553690Y-106375000D01*
X138144250Y-106375000D01*
X138303000Y-106216250D01*
X138303000Y-105217000D01*
X137203750Y-105217000D01*
X137045000Y-105375750D01*
X136017000Y-105375750D01*
X136017000Y-104267000D01*
X137064340Y-104267000D01*
X137045000Y-104313691D01*
X137045000Y-104313691D01*
G37*
X137045000Y-104313691D02*
X137045000Y-104804250D01*
X137203750Y-104963000D01*
X138303000Y-104963000D01*
X138303000Y-104943000D01*
X138557000Y-104943000D01*
X138557000Y-104963000D01*
X138577000Y-104963000D01*
X138577000Y-105217000D01*
X138557000Y-105217000D01*
X138557000Y-106216250D01*
X138715750Y-106375000D01*
X139306310Y-106375000D01*
X139539699Y-106278327D01*
X139573000Y-106245026D01*
X139573000Y-106553000D01*
X136017000Y-106553000D01*
X136017000Y-105375750D01*
X137045000Y-105375750D01*
X137045000Y-105866309D01*
X137141673Y-106099698D01*
X137320301Y-106278327D01*
X137553690Y-106375000D01*
X138144250Y-106375000D01*
X138303000Y-106216250D01*
X138303000Y-105217000D01*
X137203750Y-105217000D01*
X137045000Y-105375750D01*
X136017000Y-105375750D01*
X136017000Y-104267000D01*
X137064340Y-104267000D01*
X137045000Y-104313691D01*
G04 #@! TO.N,UVCC*
G36*
X123285000Y-103638338D02*
X123299253Y-103635503D01*
X123328750Y-103665000D01*
X123593210Y-103665000D01*
X123596878Y-103667451D01*
X123805000Y-103708849D01*
X124333000Y-103708849D01*
X124333000Y-103865000D01*
X123328750Y-103865000D01*
X123178453Y-104015297D01*
X123141399Y-104022667D01*
X123100197Y-104050197D01*
X123072667Y-104091399D01*
X123063000Y-104140000D01*
X123063000Y-110451151D01*
X122690000Y-110451151D01*
X122481878Y-110492549D01*
X122305441Y-110610441D01*
X122302647Y-110614622D01*
X122144699Y-110456673D01*
X121911310Y-110360000D01*
X121570750Y-110360000D01*
X121412000Y-110518750D01*
X121412000Y-111418000D01*
X121432000Y-111418000D01*
X121432000Y-111633000D01*
X120142000Y-111633000D01*
X120142000Y-110868691D01*
X120150000Y-110868691D01*
X120150000Y-111259250D01*
X120308750Y-111418000D01*
X121158000Y-111418000D01*
X121158000Y-110518750D01*
X120999250Y-110360000D01*
X120658690Y-110360000D01*
X120425301Y-110456673D01*
X120246673Y-110635302D01*
X120150000Y-110868691D01*
X120142000Y-110868691D01*
X120142000Y-110120000D01*
X120494250Y-110120000D01*
X120653000Y-109961250D01*
X120653000Y-108712000D01*
X120907000Y-108712000D01*
X120907000Y-109961250D01*
X121065750Y-110120000D01*
X121706309Y-110120000D01*
X121939698Y-110023327D01*
X122118327Y-109844699D01*
X122215000Y-109611310D01*
X122215000Y-108870750D01*
X122056250Y-108712000D01*
X120907000Y-108712000D01*
X120653000Y-108712000D01*
X120633000Y-108712000D01*
X120633000Y-108458000D01*
X120653000Y-108458000D01*
X120653000Y-108438000D01*
X120907000Y-108438000D01*
X120907000Y-108458000D01*
X122056250Y-108458000D01*
X122215000Y-108299250D01*
X122215000Y-107558690D01*
X122118327Y-107325301D01*
X121939698Y-107146673D01*
X121706309Y-107050000D01*
X121173025Y-107050000D01*
X121318327Y-106904699D01*
X121415000Y-106671310D01*
X121415000Y-106330750D01*
X121256250Y-106172000D01*
X120357000Y-106172000D01*
X120357000Y-106192000D01*
X120142000Y-106192000D01*
X120142000Y-105898000D01*
X120357000Y-105898000D01*
X120357000Y-105918000D01*
X121256250Y-105918000D01*
X121415000Y-105759250D01*
X121415000Y-105418690D01*
X121318327Y-105185301D01*
X121311138Y-105178112D01*
X121373000Y-105116250D01*
X121373000Y-104267000D01*
X121627000Y-104267000D01*
X121627000Y-105116250D01*
X121785750Y-105275000D01*
X122176309Y-105275000D01*
X122409698Y-105178327D01*
X122588327Y-104999699D01*
X122685000Y-104766310D01*
X122685000Y-104425750D01*
X122526250Y-104267000D01*
X121627000Y-104267000D01*
X121373000Y-104267000D01*
X121353000Y-104267000D01*
X121353000Y-104013000D01*
X121373000Y-104013000D01*
X121373000Y-103993000D01*
X121627000Y-103993000D01*
X121627000Y-104013000D01*
X122526250Y-104013000D01*
X122685000Y-103854250D01*
X122685000Y-103632000D01*
X123253138Y-103632000D01*
X123285000Y-103638338D01*
X123285000Y-103638338D01*
G37*
X123285000Y-103638338D02*
X123299253Y-103635503D01*
X123328750Y-103665000D01*
X123593210Y-103665000D01*
X123596878Y-103667451D01*
X123805000Y-103708849D01*
X124333000Y-103708849D01*
X124333000Y-103865000D01*
X123328750Y-103865000D01*
X123178453Y-104015297D01*
X123141399Y-104022667D01*
X123100197Y-104050197D01*
X123072667Y-104091399D01*
X123063000Y-104140000D01*
X123063000Y-110451151D01*
X122690000Y-110451151D01*
X122481878Y-110492549D01*
X122305441Y-110610441D01*
X122302647Y-110614622D01*
X122144699Y-110456673D01*
X121911310Y-110360000D01*
X121570750Y-110360000D01*
X121412000Y-110518750D01*
X121412000Y-111418000D01*
X121432000Y-111418000D01*
X121432000Y-111633000D01*
X120142000Y-111633000D01*
X120142000Y-110868691D01*
X120150000Y-110868691D01*
X120150000Y-111259250D01*
X120308750Y-111418000D01*
X121158000Y-111418000D01*
X121158000Y-110518750D01*
X120999250Y-110360000D01*
X120658690Y-110360000D01*
X120425301Y-110456673D01*
X120246673Y-110635302D01*
X120150000Y-110868691D01*
X120142000Y-110868691D01*
X120142000Y-110120000D01*
X120494250Y-110120000D01*
X120653000Y-109961250D01*
X120653000Y-108712000D01*
X120907000Y-108712000D01*
X120907000Y-109961250D01*
X121065750Y-110120000D01*
X121706309Y-110120000D01*
X121939698Y-110023327D01*
X122118327Y-109844699D01*
X122215000Y-109611310D01*
X122215000Y-108870750D01*
X122056250Y-108712000D01*
X120907000Y-108712000D01*
X120653000Y-108712000D01*
X120633000Y-108712000D01*
X120633000Y-108458000D01*
X120653000Y-108458000D01*
X120653000Y-108438000D01*
X120907000Y-108438000D01*
X120907000Y-108458000D01*
X122056250Y-108458000D01*
X122215000Y-108299250D01*
X122215000Y-107558690D01*
X122118327Y-107325301D01*
X121939698Y-107146673D01*
X121706309Y-107050000D01*
X121173025Y-107050000D01*
X121318327Y-106904699D01*
X121415000Y-106671310D01*
X121415000Y-106330750D01*
X121256250Y-106172000D01*
X120357000Y-106172000D01*
X120357000Y-106192000D01*
X120142000Y-106192000D01*
X120142000Y-105898000D01*
X120357000Y-105898000D01*
X120357000Y-105918000D01*
X121256250Y-105918000D01*
X121415000Y-105759250D01*
X121415000Y-105418690D01*
X121318327Y-105185301D01*
X121311138Y-105178112D01*
X121373000Y-105116250D01*
X121373000Y-104267000D01*
X121627000Y-104267000D01*
X121627000Y-105116250D01*
X121785750Y-105275000D01*
X122176309Y-105275000D01*
X122409698Y-105178327D01*
X122588327Y-104999699D01*
X122685000Y-104766310D01*
X122685000Y-104425750D01*
X122526250Y-104267000D01*
X121627000Y-104267000D01*
X121373000Y-104267000D01*
X121353000Y-104267000D01*
X121353000Y-104013000D01*
X121373000Y-104013000D01*
X121373000Y-103993000D01*
X121627000Y-103993000D01*
X121627000Y-104013000D01*
X122526250Y-104013000D01*
X122685000Y-103854250D01*
X122685000Y-103632000D01*
X123253138Y-103632000D01*
X123285000Y-103638338D01*
G04 #@! TD*
D49*
X195580000Y-113030000D03*
X205105000Y-92075028D03*
X180340000Y-114300000D03*
X180340000Y-117475000D03*
X184785000Y-95885000D03*
X179070000Y-111760000D03*
X198120000Y-113030000D03*
X191770000Y-111125000D03*
X115570000Y-90170000D03*
X115570000Y-92075000D03*
X115570000Y-93980000D03*
X115570000Y-95885000D03*
X182245000Y-96520000D03*
X179070000Y-101600000D03*
X154305000Y-94615000D03*
X146685000Y-95885000D03*
X178435000Y-89535000D03*
X178435000Y-90805000D03*
X174625000Y-90170000D03*
X201295000Y-107950000D03*
X175260000Y-111760000D03*
X163830000Y-117475000D03*
X144145000Y-122555000D03*
X145415000Y-122555000D03*
X158115000Y-116840000D03*
X154305000Y-108585000D03*
X154305000Y-103505000D03*
X172085000Y-89535000D03*
X154940000Y-120015000D03*
X118745000Y-104140000D03*
X134620000Y-106680000D03*
X134620000Y-111760000D03*
X134620000Y-116840000D03*
X131445000Y-116840000D03*
X128905000Y-116840000D03*
X128270000Y-107315000D03*
X131445000Y-111760000D03*
X122555000Y-121285000D03*
X191770000Y-122555000D03*
X197485000Y-115570000D03*
X125095000Y-107315000D03*
X144145000Y-91440000D03*
X163195000Y-93980000D03*
X148590000Y-116205000D03*
X160020000Y-93980000D03*
X175260000Y-97790000D03*
X173990000Y-96520000D03*
X181610000Y-97790000D03*
X187325000Y-109855000D03*
X155575000Y-94615000D03*
X163830000Y-118745000D03*
X161290000Y-116840000D03*
X160020000Y-111125000D03*
X159385000Y-98425000D03*
X173990000Y-93345000D03*
X173990000Y-94615000D03*
X174625000Y-117475000D03*
X163195000Y-111125000D03*
X147320000Y-113665000D03*
X170180000Y-107315000D03*
X173990000Y-92075000D03*
X149860000Y-113665000D03*
X154305000Y-99695000D03*
X149860000Y-120015000D03*
X136525000Y-106045000D03*
X136525000Y-104775000D03*
X138430000Y-120650000D03*
X121920000Y-116840000D03*
X154305000Y-113030000D03*
X128270000Y-120650000D03*
X127000000Y-120650000D03*
X162560000Y-120015000D03*
X161290000Y-89535000D03*
X168275000Y-92710000D03*
X150495000Y-99060000D03*
X161290000Y-100965000D03*
X184785000Y-120015000D03*
X196215000Y-118745000D03*
X176530000Y-120015000D03*
X149860000Y-95250000D03*
X162560000Y-100965000D03*
X169545000Y-109220000D03*
X163830000Y-120015000D03*
X112395000Y-90170000D03*
X112395000Y-92075000D03*
X109855000Y-90170000D03*
X109855000Y-92075000D03*
X127635000Y-94615000D03*
X126365000Y-98425000D03*
X131445000Y-100330000D03*
X128905000Y-102870000D03*
X127994211Y-101324211D03*
X131000500Y-94678500D03*
X129984500Y-94678500D03*
X127275789Y-100605789D03*
X137795000Y-95250000D03*
X122555000Y-102235000D03*
X125095000Y-89535000D03*
X125730000Y-93345000D03*
X125730000Y-92075000D03*
X133985000Y-94615000D03*
X140335000Y-96520000D03*
X161925000Y-92710000D03*
X168910000Y-95250000D03*
X167005000Y-98425000D03*
X195580000Y-104140000D03*
X190500000Y-104140000D03*
X182245000Y-94615000D03*
X182245000Y-92075000D03*
X182245000Y-93345000D03*
X196850000Y-120015000D03*
X181610000Y-88265000D03*
X167640000Y-91440000D03*
X161925000Y-109220000D03*
X189865000Y-116840000D03*
X204470000Y-108585000D03*
X193675000Y-104140000D03*
X189230000Y-114935000D03*
X188595000Y-112395000D03*
X194945000Y-114300000D03*
X196215000Y-116840000D03*
X190500000Y-95250000D03*
X191135000Y-116205000D03*
X192405000Y-120015000D03*
X187325000Y-111125000D03*
X186055000Y-120015000D03*
X193040000Y-113665000D03*
X192405000Y-118745000D03*
X170465000Y-110775000D03*
X179705000Y-118745000D03*
X190500000Y-96520000D03*
X180340000Y-100330000D03*
X148590000Y-99060000D03*
X151765000Y-99060000D03*
X153035000Y-94615000D03*
X146685000Y-98425000D03*
X153035000Y-108585000D03*
X159385000Y-107315000D03*
X159385000Y-99695000D03*
X146050000Y-107315000D03*
X151765000Y-94615000D03*
X147320000Y-93980000D03*
X163195000Y-98425000D03*
X165100000Y-102235000D03*
X165100000Y-104775000D03*
X163195000Y-109855000D03*
X166370000Y-85725000D03*
X151765000Y-109855000D03*
X147320000Y-116205000D03*
X166370000Y-103505000D03*
X167005000Y-86995000D03*
X148590000Y-111125000D03*
X146050000Y-116205000D03*
X164465000Y-90805000D03*
X167640000Y-102235000D03*
X151765000Y-101600000D03*
X161290000Y-103505000D03*
X149225000Y-105410000D03*
X161290000Y-95250000D03*
X166370000Y-114935000D03*
X148590000Y-101600000D03*
X174625000Y-114300000D03*
X161290000Y-102235000D03*
X165735000Y-111125000D03*
X160020000Y-118110000D03*
X157480000Y-94615000D03*
X153035000Y-116205000D03*
X158750000Y-115570000D03*
X158115000Y-110490000D03*
X158115000Y-103505000D03*
X159385000Y-95250000D03*
X158115000Y-98425000D03*
X144780000Y-90170000D03*
X167640000Y-93980000D03*
X162560000Y-90805000D03*
X170815000Y-103505000D03*
X174625000Y-103505000D03*
X174625000Y-104775000D03*
X170815000Y-106045000D03*
X170180000Y-104775000D03*
X200025000Y-104140000D03*
X192405000Y-103505000D03*
X198755000Y-102870000D03*
X198755000Y-104140000D03*
X205105000Y-103505000D03*
X135255000Y-100330000D03*
X135255000Y-103505000D03*
X136525000Y-111760000D03*
X133350000Y-104775000D03*
X134620000Y-104775000D03*
X117475000Y-113030000D03*
X136525000Y-100965000D03*
X152400000Y-120015000D03*
X122555000Y-105410000D03*
X122555000Y-106680000D03*
X136525000Y-102235000D03*
X124460000Y-122555000D03*
X130810000Y-118745000D03*
X118745000Y-116205000D03*
X152400000Y-114935000D03*
X125095000Y-114935000D03*
X121285000Y-120650000D03*
X131445000Y-103505000D03*
X125095000Y-116205000D03*
X125805000Y-113320000D03*
X119305000Y-113320000D03*
X119305000Y-117820000D03*
X125805000Y-117820000D03*
X202565000Y-111125000D03*
X205105000Y-111125000D03*
X201930000Y-116840000D03*
X201930000Y-114554000D03*
X199950266Y-115697000D03*
X199950266Y-117983000D03*
X201930000Y-119126000D03*
X203909734Y-117983000D03*
X203909734Y-115697000D03*
X139700000Y-90805000D03*
X139700000Y-88519000D03*
X137720266Y-89662000D03*
X137720266Y-91948000D03*
X139700000Y-93091000D03*
X141679734Y-91948000D03*
X141679734Y-89662000D03*
X113030000Y-116840000D03*
X113030000Y-114554000D03*
X111050266Y-115697000D03*
X111050266Y-117983000D03*
X113030000Y-119126000D03*
X115009734Y-117983000D03*
X115009734Y-115697000D03*
X195097400Y-99898200D03*
X116165000Y-86550000D03*
X112165000Y-86550000D03*
X109855000Y-98425000D03*
X112395000Y-98425000D03*
X109855000Y-100965000D03*
X112395000Y-100965000D03*
X109855000Y-103505000D03*
X112395000Y-103505000D03*
X166370000Y-116840000D03*
X166370000Y-119380000D03*
X168910000Y-116840000D03*
X168910000Y-119380000D03*
X171450000Y-116840000D03*
X171450000Y-119380000D03*
X180340000Y-86995000D03*
X177800000Y-86995000D03*
X175260000Y-86995000D03*
X172720000Y-86995000D03*
X114935000Y-109855000D03*
X114935000Y-107315000D03*
X112395000Y-109855000D03*
X112395000Y-107315000D03*
X109855000Y-109855000D03*
X109855000Y-107315000D03*
X141605000Y-98425000D03*
X144145000Y-98425000D03*
X141605000Y-100965000D03*
X144145000Y-100965000D03*
X141605000Y-103505000D03*
X144145000Y-103505000D03*
X141605000Y-106045000D03*
X144145000Y-106045000D03*
X141605000Y-108585000D03*
X144145000Y-108585000D03*
X141605000Y-111125000D03*
X144145000Y-111125000D03*
X141605000Y-113665000D03*
X144145000Y-113665000D03*
X141605000Y-116205000D03*
X144145000Y-116205000D03*
X137795000Y-115570000D03*
X137795000Y-113030000D03*
X137795000Y-110490000D03*
X137795000Y-107950000D03*
X183085000Y-99060000D03*
X175635000Y-99060000D03*
M02*
