G04 #@! TF.GenerationSoftware,KiCad,Pcbnew,5.0.0-fee4fd1~65~ubuntu17.10.1*
G04 #@! TF.CreationDate,2018-09-18T22:06:37-04:00*
G04 #@! TF.ProjectId,motherboard,6D6F74686572626F6172642E6B696361,rev?*
G04 #@! TF.SameCoordinates,Original*
G04 #@! TF.FileFunction,Soldermask,Bot*
G04 #@! TF.FilePolarity,Negative*
%FSLAX46Y46*%
G04 Gerber Fmt 4.6, Leading zero omitted, Abs format (unit mm)*
G04 Created by KiCad (PCBNEW 5.0.0-fee4fd1~65~ubuntu17.10.1) date Tue Sep 18 22:06:37 2018*
%MOMM*%
%LPD*%
G01*
G04 APERTURE LIST*
%ADD10C,1.904800*%
%ADD11O,3.479800X1.574800*%
%ADD12O,1.574800X3.479800*%
%ADD13R,1.904800X1.904800*%
%ADD14C,6.654800*%
%ADD15R,4.004800X4.004800*%
%ADD16C,1.604800*%
%ADD17R,7.924800X2.844800*%
%ADD18R,13.004800X2.844800*%
%ADD19O,1.320800X2.844800*%
%ADD20C,1.574800*%
%ADD21C,1.304800*%
%ADD22R,4.804800X2.604800*%
G04 APERTURE END LIST*
D10*
G04 #@! TO.C,SW1*
X125805000Y-113320000D03*
X119305000Y-113320000D03*
X119305000Y-117820000D03*
X125805000Y-117820000D03*
G04 #@! TD*
D11*
G04 #@! TO.C,J11*
X126365000Y-109855000D03*
G04 #@! TD*
D12*
G04 #@! TO.C,J13*
X133350000Y-90170000D03*
X130810000Y-90170000D03*
X128270000Y-90170000D03*
G04 #@! TD*
D10*
G04 #@! TO.C,J18*
X202565000Y-111125000D03*
D13*
X205105000Y-111125000D03*
G04 #@! TD*
D14*
G04 #@! TO.C,H2*
X201930000Y-116840000D03*
G04 #@! TD*
G04 #@! TO.C,H3*
X139700000Y-90805000D03*
G04 #@! TD*
G04 #@! TO.C,H1*
X113030000Y-116840000D03*
G04 #@! TD*
D15*
G04 #@! TO.C,U4*
X195097400Y-99898200D03*
G04 #@! TD*
D16*
G04 #@! TO.C,J1*
X116165000Y-86550000D03*
X112165000Y-86550000D03*
G04 #@! TD*
D17*
G04 #@! TO.C,H6*
X201295000Y-122555000D03*
G04 #@! TD*
D18*
G04 #@! TO.C,H5*
X156210000Y-122555000D03*
G04 #@! TD*
G04 #@! TO.C,H4*
X114935000Y-122555000D03*
G04 #@! TD*
D19*
G04 #@! TO.C,J14*
X175895000Y-109220000D03*
X173990000Y-109220000D03*
X177800000Y-109220000D03*
X179705000Y-109220000D03*
X181610000Y-109220000D03*
G04 #@! TD*
D13*
G04 #@! TO.C,J10*
X109855000Y-98425000D03*
D10*
X112395000Y-98425000D03*
X109855000Y-100965000D03*
X112395000Y-100965000D03*
X109855000Y-103505000D03*
X112395000Y-103505000D03*
G04 #@! TD*
G04 #@! TO.C,J7*
X166370000Y-116840000D03*
X166370000Y-119380000D03*
X168910000Y-116840000D03*
X168910000Y-119380000D03*
X171450000Y-116840000D03*
D13*
X171450000Y-119380000D03*
G04 #@! TD*
D10*
G04 #@! TO.C,J3*
X180340000Y-86995000D03*
X177800000Y-86995000D03*
X175260000Y-86995000D03*
D13*
X172720000Y-86995000D03*
G04 #@! TD*
D10*
G04 #@! TO.C,J4*
X114935000Y-109855000D03*
X114935000Y-107315000D03*
X112395000Y-109855000D03*
X112395000Y-107315000D03*
X109855000Y-109855000D03*
D13*
X109855000Y-107315000D03*
G04 #@! TD*
D12*
G04 #@! TO.C,J8*
X142240000Y-122555000D03*
X139700000Y-122555000D03*
X137160000Y-122555000D03*
X134620000Y-122555000D03*
X132080000Y-122555000D03*
X129540000Y-122555000D03*
G04 #@! TD*
D10*
G04 #@! TO.C,J9*
X141605000Y-98425000D03*
X144145000Y-98425000D03*
X141605000Y-100965000D03*
X144145000Y-100965000D03*
X141605000Y-103505000D03*
X144145000Y-103505000D03*
X141605000Y-106045000D03*
X144145000Y-106045000D03*
X141605000Y-108585000D03*
X144145000Y-108585000D03*
X141605000Y-111125000D03*
X144145000Y-111125000D03*
X141605000Y-113665000D03*
X144145000Y-113665000D03*
X141605000Y-116205000D03*
D13*
X144145000Y-116205000D03*
G04 #@! TD*
D11*
G04 #@! TO.C,J16*
X163830000Y-88900000D03*
X163830000Y-86360000D03*
G04 #@! TD*
D12*
G04 #@! TO.C,J15*
X118110000Y-94615000D03*
X120650000Y-94615000D03*
G04 #@! TD*
G04 #@! TO.C,J17*
X193675000Y-95250000D03*
X196215000Y-95250000D03*
X198755000Y-95250000D03*
X203835000Y-95250000D03*
X201295000Y-95250000D03*
G04 #@! TD*
D20*
G04 #@! TO.C,TP1*
X158750000Y-112395000D03*
G04 #@! TD*
D13*
G04 #@! TO.C,J6*
X137795000Y-115570000D03*
D10*
X137795000Y-113030000D03*
X137795000Y-110490000D03*
X137795000Y-107950000D03*
G04 #@! TD*
D16*
G04 #@! TO.C,B1*
X183085000Y-99060000D03*
D21*
X175635000Y-99060000D03*
D22*
X187335000Y-99060000D03*
X170935000Y-99060000D03*
G04 #@! TD*
M02*
