G04 #@! TF.GenerationSoftware,KiCad,Pcbnew,5.0.0-fee4fd1~65~ubuntu17.10.1*
G04 #@! TF.CreationDate,2018-09-23T03:35:41-04:00*
G04 #@! TF.ProjectId,motherboard,6D6F74686572626F6172642E6B696361,rev?*
G04 #@! TF.SameCoordinates,Original*
G04 #@! TF.FileFunction,Copper,L4,Bot,Signal*
G04 #@! TF.FilePolarity,Positive*
%FSLAX46Y46*%
G04 Gerber Fmt 4.6, Leading zero omitted, Abs format (unit mm)*
G04 Created by KiCad (PCBNEW 5.0.0-fee4fd1~65~ubuntu17.10.1) date Sun Sep 23 03:35:41 2018*
%MOMM*%
%LPD*%
G01*
G04 APERTURE LIST*
G04 #@! TA.AperFunction,SMDPad,CuDef*
%ADD10C,1.270000*%
G04 #@! TD*
G04 #@! TA.AperFunction,Conductor*
%ADD11C,0.350000*%
G04 #@! TD*
G04 #@! TA.AperFunction,ComponentPad*
%ADD12C,1.600000*%
G04 #@! TD*
G04 #@! TA.AperFunction,SMDPad,CuDef*
%ADD13O,3.175000X1.270000*%
G04 #@! TD*
G04 #@! TA.AperFunction,SMDPad,CuDef*
%ADD14O,1.270000X3.175000*%
G04 #@! TD*
G04 #@! TA.AperFunction,ComponentPad*
%ADD15R,1.600000X1.600000*%
G04 #@! TD*
G04 #@! TA.AperFunction,ComponentPad*
%ADD16C,6.350000*%
G04 #@! TD*
G04 #@! TA.AperFunction,ViaPad*
%ADD17C,1.016000*%
G04 #@! TD*
G04 #@! TA.AperFunction,ComponentPad*
%ADD18R,3.700000X3.700000*%
G04 #@! TD*
G04 #@! TA.AperFunction,SMDPad,CuDef*
%ADD19R,7.620000X2.540000*%
G04 #@! TD*
G04 #@! TA.AperFunction,SMDPad,CuDef*
%ADD20R,12.700000X2.540000*%
G04 #@! TD*
G04 #@! TA.AperFunction,SMDPad,CuDef*
%ADD21O,1.016000X2.540000*%
G04 #@! TD*
G04 #@! TA.AperFunction,BGAPad,CuDef*
%ADD22C,1.270000*%
G04 #@! TD*
G04 #@! TA.AperFunction,SMDPad,CuDef*
%ADD23R,4.500000X2.300000*%
G04 #@! TD*
G04 #@! TA.AperFunction,ViaPad*
%ADD24C,0.812800*%
G04 #@! TD*
G04 #@! TA.AperFunction,ViaPad*
%ADD25C,1.117600*%
G04 #@! TD*
G04 #@! TA.AperFunction,Conductor*
%ADD26C,0.406400*%
G04 #@! TD*
G04 #@! TA.AperFunction,Conductor*
%ADD27C,0.508000*%
G04 #@! TD*
G04 #@! TA.AperFunction,Conductor*
%ADD28C,0.203200*%
G04 #@! TD*
G04 #@! TA.AperFunction,Conductor*
%ADD29C,0.254000*%
G04 #@! TD*
%ADD30C,0.350000*%
G04 APERTURE END LIST*
D10*
G04 #@! TO.P,J8,6*
G04 #@! TO.N,GND*
X142240000Y-121920000D03*
D11*
G04 #@! TD*
G04 #@! TO.N,GND*
G04 #@! TO.C,J8*
G36*
X141605000Y-121920000D02*
X141605765Y-121920000D01*
X141605765Y-121888842D01*
X141611873Y-121826826D01*
X141624030Y-121765708D01*
X141642120Y-121706075D01*
X141665967Y-121648503D01*
X141695342Y-121593545D01*
X141729963Y-121541731D01*
X141769496Y-121493560D01*
X141813560Y-121449496D01*
X141861731Y-121409963D01*
X141913545Y-121375342D01*
X141968503Y-121345967D01*
X142026075Y-121322120D01*
X142085708Y-121304030D01*
X142146826Y-121291873D01*
X142208842Y-121285765D01*
X142271158Y-121285765D01*
X142333174Y-121291873D01*
X142394292Y-121304030D01*
X142453925Y-121322120D01*
X142511497Y-121345967D01*
X142566455Y-121375342D01*
X142618269Y-121409963D01*
X142666440Y-121449496D01*
X142710504Y-121493560D01*
X142750037Y-121541731D01*
X142784658Y-121593545D01*
X142814033Y-121648503D01*
X142837880Y-121706075D01*
X142855970Y-121765708D01*
X142868127Y-121826826D01*
X142874235Y-121888842D01*
X142874235Y-121920000D01*
X142875000Y-121920000D01*
X142875000Y-123825000D01*
X141605000Y-123825000D01*
X141605000Y-121920000D01*
X141605000Y-121920000D01*
G37*
D10*
G04 #@! TO.P,J8,1*
G04 #@! TO.N,+5V*
X129540000Y-121920000D03*
D11*
G04 #@! TD*
G04 #@! TO.N,+5V*
G04 #@! TO.C,J8*
G36*
X128905000Y-121920000D02*
X128905765Y-121920000D01*
X128905765Y-121888842D01*
X128911873Y-121826826D01*
X128924030Y-121765708D01*
X128942120Y-121706075D01*
X128965967Y-121648503D01*
X128995342Y-121593545D01*
X129029963Y-121541731D01*
X129069496Y-121493560D01*
X129113560Y-121449496D01*
X129161731Y-121409963D01*
X129213545Y-121375342D01*
X129268503Y-121345967D01*
X129326075Y-121322120D01*
X129385708Y-121304030D01*
X129446826Y-121291873D01*
X129508842Y-121285765D01*
X129571158Y-121285765D01*
X129633174Y-121291873D01*
X129694292Y-121304030D01*
X129753925Y-121322120D01*
X129811497Y-121345967D01*
X129866455Y-121375342D01*
X129918269Y-121409963D01*
X129966440Y-121449496D01*
X130010504Y-121493560D01*
X130050037Y-121541731D01*
X130084658Y-121593545D01*
X130114033Y-121648503D01*
X130137880Y-121706075D01*
X130155970Y-121765708D01*
X130168127Y-121826826D01*
X130174235Y-121888842D01*
X130174235Y-121920000D01*
X130175000Y-121920000D01*
X130175000Y-123825000D01*
X128905000Y-123825000D01*
X128905000Y-121920000D01*
X128905000Y-121920000D01*
G37*
D10*
G04 #@! TO.P,J8,2*
G04 #@! TO.N,/SDA*
X132080000Y-121920000D03*
D11*
G04 #@! TD*
G04 #@! TO.N,/SDA*
G04 #@! TO.C,J8*
G36*
X131445000Y-121920000D02*
X131445765Y-121920000D01*
X131445765Y-121888842D01*
X131451873Y-121826826D01*
X131464030Y-121765708D01*
X131482120Y-121706075D01*
X131505967Y-121648503D01*
X131535342Y-121593545D01*
X131569963Y-121541731D01*
X131609496Y-121493560D01*
X131653560Y-121449496D01*
X131701731Y-121409963D01*
X131753545Y-121375342D01*
X131808503Y-121345967D01*
X131866075Y-121322120D01*
X131925708Y-121304030D01*
X131986826Y-121291873D01*
X132048842Y-121285765D01*
X132111158Y-121285765D01*
X132173174Y-121291873D01*
X132234292Y-121304030D01*
X132293925Y-121322120D01*
X132351497Y-121345967D01*
X132406455Y-121375342D01*
X132458269Y-121409963D01*
X132506440Y-121449496D01*
X132550504Y-121493560D01*
X132590037Y-121541731D01*
X132624658Y-121593545D01*
X132654033Y-121648503D01*
X132677880Y-121706075D01*
X132695970Y-121765708D01*
X132708127Y-121826826D01*
X132714235Y-121888842D01*
X132714235Y-121920000D01*
X132715000Y-121920000D01*
X132715000Y-123825000D01*
X131445000Y-123825000D01*
X131445000Y-121920000D01*
X131445000Y-121920000D01*
G37*
D10*
G04 #@! TO.P,J8,3*
G04 #@! TO.N,/SCL*
X134620000Y-121920000D03*
D11*
G04 #@! TD*
G04 #@! TO.N,/SCL*
G04 #@! TO.C,J8*
G36*
X133985000Y-121920000D02*
X133985765Y-121920000D01*
X133985765Y-121888842D01*
X133991873Y-121826826D01*
X134004030Y-121765708D01*
X134022120Y-121706075D01*
X134045967Y-121648503D01*
X134075342Y-121593545D01*
X134109963Y-121541731D01*
X134149496Y-121493560D01*
X134193560Y-121449496D01*
X134241731Y-121409963D01*
X134293545Y-121375342D01*
X134348503Y-121345967D01*
X134406075Y-121322120D01*
X134465708Y-121304030D01*
X134526826Y-121291873D01*
X134588842Y-121285765D01*
X134651158Y-121285765D01*
X134713174Y-121291873D01*
X134774292Y-121304030D01*
X134833925Y-121322120D01*
X134891497Y-121345967D01*
X134946455Y-121375342D01*
X134998269Y-121409963D01*
X135046440Y-121449496D01*
X135090504Y-121493560D01*
X135130037Y-121541731D01*
X135164658Y-121593545D01*
X135194033Y-121648503D01*
X135217880Y-121706075D01*
X135235970Y-121765708D01*
X135248127Y-121826826D01*
X135254235Y-121888842D01*
X135254235Y-121920000D01*
X135255000Y-121920000D01*
X135255000Y-123825000D01*
X133985000Y-123825000D01*
X133985000Y-121920000D01*
X133985000Y-121920000D01*
G37*
D10*
G04 #@! TO.P,J8,4*
G04 #@! TO.N,/OLRST*
X137160000Y-121920000D03*
D11*
G04 #@! TD*
G04 #@! TO.N,/OLRST*
G04 #@! TO.C,J8*
G36*
X136525000Y-121920000D02*
X136525765Y-121920000D01*
X136525765Y-121888842D01*
X136531873Y-121826826D01*
X136544030Y-121765708D01*
X136562120Y-121706075D01*
X136585967Y-121648503D01*
X136615342Y-121593545D01*
X136649963Y-121541731D01*
X136689496Y-121493560D01*
X136733560Y-121449496D01*
X136781731Y-121409963D01*
X136833545Y-121375342D01*
X136888503Y-121345967D01*
X136946075Y-121322120D01*
X137005708Y-121304030D01*
X137066826Y-121291873D01*
X137128842Y-121285765D01*
X137191158Y-121285765D01*
X137253174Y-121291873D01*
X137314292Y-121304030D01*
X137373925Y-121322120D01*
X137431497Y-121345967D01*
X137486455Y-121375342D01*
X137538269Y-121409963D01*
X137586440Y-121449496D01*
X137630504Y-121493560D01*
X137670037Y-121541731D01*
X137704658Y-121593545D01*
X137734033Y-121648503D01*
X137757880Y-121706075D01*
X137775970Y-121765708D01*
X137788127Y-121826826D01*
X137794235Y-121888842D01*
X137794235Y-121920000D01*
X137795000Y-121920000D01*
X137795000Y-123825000D01*
X136525000Y-123825000D01*
X136525000Y-121920000D01*
X136525000Y-121920000D01*
G37*
D10*
G04 #@! TO.P,J8,5*
G04 #@! TO.N,/ALS_INT*
X139700000Y-121920000D03*
D11*
G04 #@! TD*
G04 #@! TO.N,/ALS_INT*
G04 #@! TO.C,J8*
G36*
X139065000Y-121920000D02*
X139065765Y-121920000D01*
X139065765Y-121888842D01*
X139071873Y-121826826D01*
X139084030Y-121765708D01*
X139102120Y-121706075D01*
X139125967Y-121648503D01*
X139155342Y-121593545D01*
X139189963Y-121541731D01*
X139229496Y-121493560D01*
X139273560Y-121449496D01*
X139321731Y-121409963D01*
X139373545Y-121375342D01*
X139428503Y-121345967D01*
X139486075Y-121322120D01*
X139545708Y-121304030D01*
X139606826Y-121291873D01*
X139668842Y-121285765D01*
X139731158Y-121285765D01*
X139793174Y-121291873D01*
X139854292Y-121304030D01*
X139913925Y-121322120D01*
X139971497Y-121345967D01*
X140026455Y-121375342D01*
X140078269Y-121409963D01*
X140126440Y-121449496D01*
X140170504Y-121493560D01*
X140210037Y-121541731D01*
X140244658Y-121593545D01*
X140274033Y-121648503D01*
X140297880Y-121706075D01*
X140315970Y-121765708D01*
X140328127Y-121826826D01*
X140334235Y-121888842D01*
X140334235Y-121920000D01*
X140335000Y-121920000D01*
X140335000Y-123825000D01*
X139065000Y-123825000D01*
X139065000Y-121920000D01*
X139065000Y-121920000D01*
G37*
D12*
G04 #@! TO.P,SW1,2*
G04 #@! TO.N,GND*
X125805000Y-113320000D03*
X119305000Y-113320000D03*
G04 #@! TO.P,SW1,1*
G04 #@! TO.N,Net-(C13-Pad1)*
X119305000Y-117820000D03*
X125805000Y-117820000D03*
G04 #@! TD*
D13*
G04 #@! TO.P,J11,1*
G04 #@! TO.N,Net-(C13-Pad1)*
X126365000Y-109855000D03*
G04 #@! TD*
D14*
G04 #@! TO.P,J13,1*
G04 #@! TO.N,UVCC*
X133350000Y-90170000D03*
G04 #@! TO.P,J13,2*
G04 #@! TO.N,/USB Serial/LED_TX*
X130810000Y-90170000D03*
G04 #@! TO.P,J13,3*
G04 #@! TO.N,/USB Serial/LED_RX*
X128270000Y-90170000D03*
G04 #@! TD*
D12*
G04 #@! TO.P,J18,2*
G04 #@! TO.N,GND*
X202565000Y-111125000D03*
D15*
G04 #@! TO.P,J18,1*
X205105000Y-111125000D03*
G04 #@! TD*
D16*
G04 #@! TO.P,H2,P*
G04 #@! TO.N,GND*
X201930000Y-116840000D03*
D17*
G04 #@! TD*
G04 #@! TO.N,GND*
G04 #@! TO.C,H2*
X201930000Y-114554000D03*
G04 #@! TO.N,GND*
G04 #@! TO.C,H2*
X199950266Y-115697000D03*
X199950266Y-117983000D03*
X201930000Y-119126000D03*
X203909734Y-117983000D03*
X203909734Y-115697000D03*
G04 #@! TD*
D16*
G04 #@! TO.P,H3,P*
G04 #@! TO.N,GND*
X139700000Y-90805000D03*
D17*
G04 #@! TD*
G04 #@! TO.N,GND*
G04 #@! TO.C,H3*
X139700000Y-88519000D03*
G04 #@! TO.N,GND*
G04 #@! TO.C,H3*
X137720266Y-89662000D03*
X137720266Y-91948000D03*
X139700000Y-93091000D03*
X141679734Y-91948000D03*
X141679734Y-89662000D03*
G04 #@! TD*
D16*
G04 #@! TO.P,H1,P*
G04 #@! TO.N,GND*
X113030000Y-116840000D03*
D17*
G04 #@! TD*
G04 #@! TO.N,GND*
G04 #@! TO.C,H1*
X113030000Y-114554000D03*
G04 #@! TO.N,GND*
G04 #@! TO.C,H1*
X111050266Y-115697000D03*
X111050266Y-117983000D03*
X113030000Y-119126000D03*
X115009734Y-117983000D03*
X115009734Y-115697000D03*
G04 #@! TD*
D18*
G04 #@! TO.P,U4,29*
G04 #@! TO.N,GND*
X195097400Y-99898200D03*
G04 #@! TD*
D19*
G04 #@! TO.P,H6,1*
G04 #@! TO.N,Net-(H6-Pad1)*
X201295000Y-122555000D03*
G04 #@! TD*
D20*
G04 #@! TO.P,H5,1*
G04 #@! TO.N,Net-(H5-Pad1)*
X156210000Y-122555000D03*
G04 #@! TD*
G04 #@! TO.P,H4,1*
G04 #@! TO.N,Net-(H4-Pad1)*
X114935000Y-122555000D03*
G04 #@! TD*
D21*
G04 #@! TO.P,J14,4*
G04 #@! TO.N,/P45*
X173990000Y-109220000D03*
G04 #@! TO.P,J14,5*
G04 #@! TO.N,/P46*
X172085000Y-109220000D03*
G04 #@! TO.P,J14,3*
G04 #@! TO.N,/P44*
X175895000Y-109220000D03*
G04 #@! TO.P,J14,2*
G04 #@! TO.N,/P43*
X177800000Y-109220000D03*
G04 #@! TO.P,J14,1*
G04 #@! TO.N,/P42*
X179705000Y-109220000D03*
G04 #@! TD*
D15*
G04 #@! TO.P,J10,1*
G04 #@! TO.N,/VIN*
X109855000Y-98425000D03*
D12*
G04 #@! TO.P,J10,2*
X112395000Y-98425000D03*
G04 #@! TO.P,J10,3*
G04 #@! TO.N,+5V*
X109855000Y-100965000D03*
G04 #@! TO.P,J10,4*
X112395000Y-100965000D03*
G04 #@! TO.P,J10,5*
G04 #@! TO.N,GND*
X109855000Y-103505000D03*
G04 #@! TO.P,J10,6*
X112395000Y-103505000D03*
G04 #@! TD*
G04 #@! TO.P,J7,6*
G04 #@! TO.N,GND*
X166370000Y-116840000D03*
G04 #@! TO.P,J7,5*
G04 #@! TO.N,/RESET*
X166370000Y-119380000D03*
G04 #@! TO.P,J7,4*
G04 #@! TO.N,/MOSI*
X168910000Y-116840000D03*
G04 #@! TO.P,J7,3*
G04 #@! TO.N,/SCK*
X168910000Y-119380000D03*
G04 #@! TO.P,J7,2*
G04 #@! TO.N,+5V*
X171450000Y-116840000D03*
D15*
G04 #@! TO.P,J7,1*
G04 #@! TO.N,/MISO*
X171450000Y-119380000D03*
G04 #@! TD*
D12*
G04 #@! TO.P,J3,4*
G04 #@! TO.N,/KCHG*
X180340000Y-86995000D03*
G04 #@! TO.P,J3,3*
G04 #@! TO.N,/A_SHDN*
X177800000Y-86995000D03*
G04 #@! TO.P,J3,2*
G04 #@! TO.N,/SCL*
X175260000Y-86995000D03*
D15*
G04 #@! TO.P,J3,1*
G04 #@! TO.N,/SDA*
X172720000Y-86995000D03*
G04 #@! TD*
D12*
G04 #@! TO.P,J4,6*
G04 #@! TO.N,GND*
X114935000Y-109855000D03*
G04 #@! TO.P,J4,5*
G04 #@! TO.N,/USB Serial/RESET-USB*
X114935000Y-107315000D03*
G04 #@! TO.P,J4,4*
G04 #@! TO.N,/USB Serial/MOSI-USB*
X112395000Y-109855000D03*
G04 #@! TO.P,J4,3*
G04 #@! TO.N,/USB Serial/SCK-USB*
X112395000Y-107315000D03*
G04 #@! TO.P,J4,2*
G04 #@! TO.N,UVCC*
X109855000Y-109855000D03*
D15*
G04 #@! TO.P,J4,1*
G04 #@! TO.N,/USB Serial/MISO-USB*
X109855000Y-107315000D03*
G04 #@! TD*
D12*
G04 #@! TO.P,J9,16*
G04 #@! TO.N,/ALRM_SW*
X141605000Y-98425000D03*
G04 #@! TO.P,J9,15*
G04 #@! TO.N,DVDD*
X144145000Y-98425000D03*
G04 #@! TO.P,J9,14*
G04 #@! TO.N,/Peripherals/XDCS_3V3*
X141605000Y-100965000D03*
G04 #@! TO.P,J9,13*
G04 #@! TO.N,/MISO*
X144145000Y-100965000D03*
G04 #@! TO.P,J9,12*
G04 #@! TO.N,/Peripherals/CSCK_3V3*
X141605000Y-103505000D03*
G04 #@! TO.P,J9,11*
G04 #@! TO.N,/Peripherals/CMOSI_3V3*
X144145000Y-103505000D03*
G04 #@! TO.P,J9,10*
G04 #@! TO.N,/DREQ*
X141605000Y-106045000D03*
G04 #@! TO.P,J9,9*
G04 #@! TO.N,/Peripherals/CRST_3V3*
X144145000Y-106045000D03*
G04 #@! TO.P,J9,8*
G04 #@! TO.N,/PIX_SHDN*
X141605000Y-108585000D03*
G04 #@! TO.P,J9,7*
G04 #@! TO.N,/Peripherals/CCS_3V3*
X144145000Y-108585000D03*
G04 #@! TO.P,J9,6*
G04 #@! TO.N,/PIX_LAMP*
X141605000Y-111125000D03*
G04 #@! TO.P,J9,5*
G04 #@! TO.N,/PIX_CLK*
X144145000Y-111125000D03*
G04 #@! TO.P,J9,4*
G04 #@! TO.N,GND*
X141605000Y-113665000D03*
G04 #@! TO.P,J9,3*
X144145000Y-113665000D03*
G04 #@! TO.P,J9,2*
G04 #@! TO.N,+5V*
X141605000Y-116205000D03*
D15*
G04 #@! TO.P,J9,1*
X144145000Y-116205000D03*
G04 #@! TD*
D13*
G04 #@! TO.P,J16,1*
G04 #@! TO.N,/SDA*
X163830000Y-88900000D03*
G04 #@! TO.P,J16,2*
G04 #@! TO.N,/SCL*
X163830000Y-86360000D03*
G04 #@! TD*
D14*
G04 #@! TO.P,J15,1*
G04 #@! TO.N,+5V*
X118110000Y-94615000D03*
G04 #@! TO.P,J15,2*
G04 #@! TO.N,GND*
X120650000Y-94615000D03*
G04 #@! TD*
G04 #@! TO.P,J17,1*
G04 #@! TO.N,/Peripherals/GPIO_1*
X193675000Y-95250000D03*
G04 #@! TO.P,J17,2*
G04 #@! TO.N,/Peripherals/GPIO_3*
X196215000Y-95250000D03*
G04 #@! TO.P,J17,3*
G04 #@! TO.N,/Peripherals/LED_WIFI*
X198755000Y-95250000D03*
G04 #@! TO.P,J17,5*
G04 #@! TO.N,/Peripherals/LED_ERR*
X203835000Y-95250000D03*
G04 #@! TO.P,J17,4*
G04 #@! TO.N,/Peripherals/LED_NET*
X201295000Y-95250000D03*
G04 #@! TD*
D22*
G04 #@! TO.P,TP1,1*
G04 #@! TO.N,Net-(C24-Pad1)*
X158750000Y-112395000D03*
G04 #@! TD*
D15*
G04 #@! TO.P,J6,1*
G04 #@! TO.N,/LOW_BATT*
X137795000Y-115570000D03*
D12*
G04 #@! TO.P,J6,2*
G04 #@! TO.N,/ON_BATT*
X137795000Y-113030000D03*
G04 #@! TO.P,J6,3*
G04 #@! TO.N,/SDA*
X137795000Y-110490000D03*
G04 #@! TO.P,J6,4*
G04 #@! TO.N,/SCL*
X137795000Y-107950000D03*
G04 #@! TD*
D23*
G04 #@! TO.P,B1,P*
G04 #@! TO.N,Net-(B1-PadP)*
X187335000Y-99060000D03*
G04 #@! TO.P,B1,N*
G04 #@! TO.N,GND*
X170935000Y-99060000D03*
G04 #@! TD*
D17*
G04 #@! TO.N,GND*
X195580000Y-113030000D03*
X205105000Y-92075028D03*
X180340000Y-114300000D03*
X180340000Y-117475000D03*
X184785000Y-95885000D03*
X179070000Y-111760000D03*
X198120000Y-113030000D03*
X191770000Y-111125000D03*
X115570000Y-90170000D03*
X115570000Y-92075000D03*
X115570000Y-93980000D03*
X115570000Y-95885000D03*
X182245000Y-96520000D03*
X179070000Y-101600000D03*
X154305000Y-94615000D03*
X146685000Y-95885000D03*
X178435000Y-89535000D03*
X178435000Y-90805000D03*
X174625000Y-90170000D03*
X201295000Y-107950000D03*
X175260000Y-111760000D03*
X163830000Y-117475000D03*
X144145000Y-122555000D03*
X145415000Y-122555000D03*
X158115000Y-116840000D03*
X154305000Y-108585000D03*
X154305000Y-103505000D03*
X172085000Y-89535000D03*
X154940000Y-120015000D03*
X118745000Y-104140000D03*
X134620000Y-106680000D03*
X134620000Y-111760000D03*
X134620000Y-116840000D03*
X131445000Y-116840000D03*
X128905000Y-116840000D03*
X128270000Y-107315000D03*
X131445000Y-111760000D03*
X122555000Y-121285000D03*
X191770000Y-122555000D03*
X197485000Y-115570000D03*
X125095000Y-107315000D03*
X144145000Y-91440000D03*
X163195000Y-93980000D03*
X148590000Y-116205000D03*
X160020000Y-93980000D03*
X175260000Y-97790000D03*
X173990000Y-96520000D03*
X181610000Y-97790000D03*
D24*
G04 #@! TO.N,/MISO*
X187325000Y-109855000D03*
X155575000Y-94615000D03*
X163830000Y-118745000D03*
X161290000Y-116840000D03*
X160020000Y-111125000D03*
X159385000Y-98425000D03*
D17*
G04 #@! TO.N,+5V*
X173990000Y-93345000D03*
X173990000Y-94615000D03*
X174625000Y-117475000D03*
X163195000Y-111125000D03*
X147320000Y-113665000D03*
X170180000Y-107315000D03*
X173990000Y-92075000D03*
X149860000Y-113665000D03*
X154305000Y-99695000D03*
X149860000Y-120015000D03*
X136525000Y-106045000D03*
X136525000Y-104775000D03*
X138430000Y-120650000D03*
X121920000Y-116840000D03*
X154305000Y-113030000D03*
X128270000Y-120650000D03*
X127000000Y-120650000D03*
X162560000Y-120015000D03*
X161290000Y-89535000D03*
X168275000Y-92710000D03*
D24*
G04 #@! TO.N,/SCK*
X150495000Y-99060000D03*
X161290000Y-100965000D03*
G04 #@! TO.N,/MOSI*
X184785000Y-120015000D03*
X196215000Y-118745000D03*
X176530000Y-120015000D03*
X149860000Y-95250000D03*
X162560000Y-100965000D03*
G04 #@! TO.N,/RESET*
X169545000Y-109220000D03*
X163830000Y-120015000D03*
D17*
G04 #@! TO.N,/VIN*
X112395000Y-90170000D03*
X112395000Y-92075000D03*
X109855000Y-90170000D03*
X109855000Y-92075000D03*
D24*
G04 #@! TO.N,/USB Serial/RESET-USB*
X127635000Y-94615000D03*
G04 #@! TO.N,/USB Serial/MISO-USB*
X126365000Y-98425000D03*
G04 #@! TO.N,/USB Serial/SCK-USB*
X131445000Y-100330000D03*
G04 #@! TO.N,/USB Serial/MOSI-USB*
X128905000Y-102870000D03*
G04 #@! TO.N,/USB Serial/D-*
X127994211Y-101324211D03*
X131000500Y-94678500D03*
G04 #@! TO.N,/USB Serial/D+*
X129984500Y-94678500D03*
X127275789Y-100605789D03*
D17*
G04 #@! TO.N,/USB Serial/UVCC_IN*
X137795000Y-95250000D03*
X122555000Y-102235000D03*
D25*
G04 #@! TO.N,/USB Serial/USHLD*
X125095000Y-89535000D03*
X125730000Y-93345000D03*
X125730000Y-92075000D03*
D17*
X133985000Y-94615000D03*
D24*
G04 #@! TO.N,/DREQ*
X140335000Y-96520000D03*
X161925000Y-92710000D03*
X168910000Y-95250000D03*
G04 #@! TO.N,/A_SHDN*
X167005000Y-98425000D03*
D25*
G04 #@! TO.N,+3V3*
X195580000Y-104140000D03*
X190500000Y-104140000D03*
X182245000Y-94615000D03*
X182245000Y-92075000D03*
X182245000Y-93345000D03*
D17*
X196850000Y-120015000D03*
D24*
G04 #@! TO.N,Net-(B1-PadP)*
X181610000Y-88265000D03*
G04 #@! TO.N,/RTC_INT*
X167640000Y-91440000D03*
X161925000Y-109220000D03*
G04 #@! TO.N,/Peripherals/WRST_3V3*
X189865000Y-116840000D03*
X204470000Y-108585000D03*
G04 #@! TO.N,/Peripherals/WEN_3V3*
X193675000Y-104140000D03*
X189230000Y-114935000D03*
G04 #@! TO.N,/Peripherals/WWAKE_3V3*
X188595000Y-112395000D03*
X194945000Y-114300000D03*
X196215000Y-116840000D03*
X190500000Y-95250000D03*
G04 #@! TO.N,/Peripherals/WMOSI_3V3*
X191135000Y-116205000D03*
X192405000Y-120015000D03*
G04 #@! TO.N,/Peripherals/WCS_3V3*
X187325000Y-111125000D03*
X186055000Y-120015000D03*
G04 #@! TO.N,/Peripherals/WSCK_3V3*
X193040000Y-113665000D03*
X192405000Y-118745000D03*
G04 #@! TO.N,/WCS*
X170465000Y-110775000D03*
X179705000Y-118745000D03*
G04 #@! TO.N,/WIRQ*
X190500000Y-96520000D03*
X180340000Y-100330000D03*
G04 #@! TO.N,/Peripherals/CMOSI_3V3*
X148590000Y-99060000D03*
G04 #@! TO.N,/Peripherals/CSCK_3V3*
X151765000Y-99060000D03*
X153035000Y-94615000D03*
G04 #@! TO.N,/SDCS*
X146685000Y-98425000D03*
X153035000Y-108585000D03*
X159385000Y-107315000D03*
X159385000Y-99695000D03*
D17*
G04 #@! TO.N,DVDD*
X146050000Y-107315000D03*
X151765000Y-94615000D03*
X147320000Y-93980000D03*
D24*
G04 #@! TO.N,/PIX_SHDN*
X163195000Y-98425000D03*
G04 #@! TO.N,/PIX_LAMP*
X165100000Y-102235000D03*
G04 #@! TO.N,/PIX_CLK*
X165100000Y-104775000D03*
G04 #@! TO.N,/KCHG*
X163195000Y-109855000D03*
G04 #@! TO.N,/SCL*
X166370000Y-85725000D03*
X151765000Y-109855000D03*
X147320000Y-116205000D03*
X166370000Y-103505000D03*
G04 #@! TO.N,/SDA*
X167005000Y-86995000D03*
X148590000Y-111125000D03*
X146050000Y-116205000D03*
X164465000Y-90805000D03*
X167640000Y-102235000D03*
G04 #@! TO.N,/CCS*
X151765000Y-101600000D03*
X161290000Y-103505000D03*
G04 #@! TO.N,/XDCS*
X149225000Y-105410000D03*
X161290000Y-95250000D03*
G04 #@! TO.N,/CRST*
X166370000Y-114935000D03*
X148590000Y-101600000D03*
X174625000Y-114300000D03*
X161290000Y-102235000D03*
G04 #@! TO.N,/ALS_INT*
X165735000Y-111125000D03*
G04 #@! TO.N,/OLRST*
X160020000Y-118110000D03*
G04 #@! TO.N,/ALRM_SW*
X157480000Y-94615000D03*
G04 #@! TO.N,Net-(C24-Pad1)*
X153035000Y-116205000D03*
X158750000Y-115570000D03*
X158115000Y-110490000D03*
G04 #@! TO.N,/LOW_BATT*
X158115000Y-103505000D03*
G04 #@! TO.N,/ON_BATT*
X159385000Y-95250000D03*
X158115000Y-98425000D03*
G04 #@! TO.N,/SD_DET*
X144780000Y-90170000D03*
X167640000Y-93980000D03*
X162560000Y-90805000D03*
G04 #@! TO.N,/P42*
X170815000Y-103505000D03*
G04 #@! TO.N,/P43*
X174625000Y-103505000D03*
G04 #@! TO.N,/P44*
X174625000Y-104775000D03*
G04 #@! TO.N,/P46*
X170815000Y-106045000D03*
G04 #@! TO.N,/P45*
X170180000Y-104775000D03*
G04 #@! TO.N,/Peripherals/LED_NET*
X200025000Y-104140000D03*
G04 #@! TO.N,/Peripherals/GPIO_1*
X192405000Y-103505000D03*
G04 #@! TO.N,/Peripherals/GPIO_3*
X198755000Y-102870000D03*
G04 #@! TO.N,/Peripherals/LED_WIFI*
X198755000Y-104140000D03*
G04 #@! TO.N,/Peripherals/LED_ERR*
X205105000Y-103505000D03*
G04 #@! TO.N,/USB Serial/LED_TX*
X135255000Y-100330000D03*
G04 #@! TO.N,/USB Serial/LED_RX*
X135255000Y-103505000D03*
G04 #@! TO.N,/USB Serial/URXD*
X136525000Y-111760000D03*
X133350000Y-104775000D03*
G04 #@! TO.N,/USB Serial/UTXD*
X134620000Y-104775000D03*
X117475000Y-113030000D03*
D17*
G04 #@! TO.N,UVCC*
X136525000Y-100965000D03*
X152400000Y-120015000D03*
X122555000Y-105410000D03*
X122555000Y-106680000D03*
X136525000Y-102235000D03*
X124460000Y-122555000D03*
D24*
G04 #@! TO.N,/USB Serial/RESET*
X130810000Y-118745000D03*
X118745000Y-116205000D03*
G04 #@! TO.N,/PE0*
X152400000Y-114935000D03*
X125095000Y-114935000D03*
X121285000Y-120650000D03*
G04 #@! TO.N,/USB Serial/RESET-M*
X131445000Y-103505000D03*
X125095000Y-116205000D03*
G04 #@! TD*
D26*
G04 #@! TO.N,GND*
X120650000Y-94615000D02*
X120650000Y-97155000D01*
X114300000Y-103505000D02*
X112395000Y-103505000D01*
X120650000Y-97155000D02*
X114300000Y-103505000D01*
D27*
X142240000Y-121920000D02*
X142240000Y-120650000D01*
X143510000Y-122555000D02*
X142240000Y-122555000D01*
D28*
G04 #@! TO.N,/MISO*
X171450000Y-121285000D02*
X171450000Y-119380000D01*
X168910000Y-121285000D02*
X171450000Y-121285000D01*
X167640000Y-120015000D02*
X168910000Y-121285000D01*
X167640000Y-118745000D02*
X167640000Y-120015000D01*
X167005000Y-118110000D02*
X167640000Y-118745000D01*
X163830000Y-118745000D02*
X164465000Y-118110000D01*
X164465000Y-118110000D02*
X167005000Y-118110000D01*
X185420000Y-111760000D02*
X187325000Y-109855000D01*
X171450000Y-121285000D02*
X180975000Y-121285000D01*
X185420000Y-116840000D02*
X185420000Y-111760000D01*
X180975000Y-121285000D02*
X185420000Y-116840000D01*
X162560000Y-113665000D02*
X162560000Y-115570000D01*
X160020000Y-111125000D02*
X162560000Y-113665000D01*
X162560000Y-115570000D02*
X161290000Y-116840000D01*
X145415000Y-99695000D02*
X144145000Y-100965000D01*
X159385000Y-98425000D02*
X157480000Y-96520000D01*
X157480000Y-96520000D02*
X147320000Y-96520000D01*
X147320000Y-96520000D02*
X145415000Y-98425000D01*
X145415000Y-98425000D02*
X145415000Y-99695000D01*
D26*
G04 #@! TO.N,+5V*
X118110000Y-97790000D02*
X118110000Y-94615000D01*
X112395000Y-100965000D02*
X114935000Y-100965000D01*
X114935000Y-100965000D02*
X118110000Y-97790000D01*
D27*
X127635000Y-122555000D02*
X129540000Y-122555000D01*
X129540000Y-121920000D02*
X129540000Y-120650000D01*
D28*
G04 #@! TO.N,/SCK*
X161290000Y-100965000D02*
X157480000Y-100965000D01*
X154305000Y-97790000D02*
X151765000Y-97790000D01*
X157480000Y-100965000D02*
X154305000Y-97790000D01*
X151765000Y-97790000D02*
X150495000Y-99060000D01*
G04 #@! TO.N,/MOSI*
X186055000Y-121285000D02*
X184785000Y-120015000D01*
X196215000Y-118745000D02*
X193675000Y-121285000D01*
X193675000Y-121285000D02*
X186055000Y-121285000D01*
X170180000Y-118110000D02*
X168910000Y-116840000D01*
X172720000Y-118110000D02*
X170180000Y-118110000D01*
X174625000Y-120015000D02*
X172720000Y-118110000D01*
X176530000Y-120015000D02*
X174625000Y-120015000D01*
X162560000Y-100965000D02*
X162560000Y-100330000D01*
X162560000Y-100330000D02*
X158115000Y-95885000D01*
X158115000Y-95885000D02*
X150495000Y-95885000D01*
X150495000Y-95885000D02*
X149860000Y-95250000D01*
G04 #@! TO.N,/RESET*
X165100000Y-119380000D02*
X166370000Y-119380000D01*
X163830000Y-120015000D02*
X164465000Y-120015000D01*
X164465000Y-120015000D02*
X165100000Y-119380000D01*
G04 #@! TO.N,/USB Serial/RESET-USB*
X114935000Y-105410000D02*
X114935000Y-107315000D01*
X120650000Y-99695000D02*
X114935000Y-105410000D01*
X126365000Y-99695000D02*
X120650000Y-99695000D01*
X127635000Y-94615000D02*
X127635000Y-98425000D01*
X127635000Y-98425000D02*
X126365000Y-99695000D01*
G04 #@! TO.N,/USB Serial/MISO-USB*
X109855000Y-106680000D02*
X109855000Y-107950000D01*
X109855000Y-107315000D02*
X109855000Y-106680000D01*
X120650000Y-98425000D02*
X113665000Y-105410000D01*
X113665000Y-105410000D02*
X110490000Y-105410000D01*
X126365000Y-98425000D02*
X120650000Y-98425000D01*
X110490000Y-105410000D02*
X109855000Y-106045000D01*
X109855000Y-106045000D02*
X109855000Y-106680000D01*
G04 #@! TO.N,/USB Serial/SCK-USB*
X127000000Y-103505000D02*
X130175000Y-100330000D01*
X130175000Y-100330000D02*
X131445000Y-100330000D01*
X121285000Y-103505000D02*
X127000000Y-103505000D01*
X116205000Y-108585000D02*
X121285000Y-103505000D01*
X113665000Y-108585000D02*
X116205000Y-108585000D01*
X112395000Y-107315000D02*
X113665000Y-108585000D01*
G04 #@! TO.N,/USB Serial/MOSI-USB*
X127635000Y-104140000D02*
X121920000Y-104140000D01*
X112395000Y-111125000D02*
X112395000Y-109855000D01*
X116840000Y-110490000D02*
X115570000Y-111760000D01*
X128905000Y-102870000D02*
X127635000Y-104140000D01*
X121920000Y-104140000D02*
X116840000Y-109220000D01*
X116840000Y-109220000D02*
X116840000Y-110490000D01*
X113030000Y-111760000D02*
X112395000Y-111125000D01*
X115570000Y-111760000D02*
X113030000Y-111760000D01*
G04 #@! TO.N,/USB Serial/D-*
X130695700Y-94983300D02*
X131000500Y-94678500D01*
X130695700Y-98191669D02*
X130695700Y-94983300D01*
X127994211Y-101324211D02*
X127994211Y-100893158D01*
X127994211Y-100893158D02*
X130695700Y-98191669D01*
G04 #@! TO.N,/USB Serial/D+*
X130289300Y-94983300D02*
X129984500Y-94678500D01*
X130289300Y-98023331D02*
X130289300Y-94983300D01*
X127275789Y-100605789D02*
X127706842Y-100605789D01*
X127706842Y-100605789D02*
X130289300Y-98023331D01*
G04 #@! TO.N,Net-(C13-Pad1)*
X123190000Y-117820000D02*
X125805000Y-117820000D01*
X119305000Y-117820000D02*
X123190000Y-117820000D01*
X123825000Y-109855000D02*
X126365000Y-109855000D01*
X123190000Y-117820000D02*
X123190000Y-110490000D01*
X123190000Y-110490000D02*
X123825000Y-109855000D01*
G04 #@! TO.N,/DREQ*
X146050000Y-90805000D02*
X140335000Y-96520000D01*
X158750000Y-90805000D02*
X146050000Y-90805000D01*
X161925000Y-92710000D02*
X160655000Y-92710000D01*
X160655000Y-92710000D02*
X158750000Y-90805000D01*
G04 #@! TO.N,/A_SHDN*
X167005000Y-98425000D02*
X167640000Y-97790000D01*
X167640000Y-97790000D02*
X167640000Y-95250000D01*
X167640000Y-95250000D02*
X170180000Y-92710000D01*
X176530000Y-88265000D02*
X177800000Y-86995000D01*
X171450000Y-88265000D02*
X176530000Y-88265000D01*
X170180000Y-89535000D02*
X171450000Y-88265000D01*
X170180000Y-92710000D02*
X170180000Y-89535000D01*
G04 #@! TO.N,Net-(B1-PadP)*
X187335000Y-100955000D02*
X187335000Y-99060000D01*
X181610000Y-90170000D02*
X180340000Y-91440000D01*
X181610000Y-88265000D02*
X181610000Y-90170000D01*
X180340000Y-91440000D02*
X180340000Y-99060000D01*
X180340000Y-99060000D02*
X182880000Y-101600000D01*
X182880000Y-101600000D02*
X186690000Y-101600000D01*
X186690000Y-101600000D02*
X187335000Y-100955000D01*
G04 #@! TO.N,/RTC_INT*
X162560000Y-108585000D02*
X166370000Y-108585000D01*
X165735000Y-93345000D02*
X167640000Y-91440000D01*
X161925000Y-109220000D02*
X162560000Y-108585000D01*
X165735000Y-98425000D02*
X165735000Y-93345000D01*
X168910000Y-101600000D02*
X165735000Y-98425000D01*
X168910000Y-102870000D02*
X168910000Y-101600000D01*
X168275000Y-106680000D02*
X168275000Y-103505000D01*
X166370000Y-108585000D02*
X168275000Y-106680000D01*
X168275000Y-103505000D02*
X168910000Y-102870000D01*
G04 #@! TO.N,/Peripherals/WRST_3V3*
X204470000Y-108585000D02*
X202565000Y-108585000D01*
X202565000Y-108585000D02*
X200025000Y-111125000D01*
X200025000Y-111125000D02*
X194310000Y-111125000D01*
X194310000Y-111125000D02*
X189865000Y-115570000D01*
X189865000Y-115570000D02*
X189865000Y-116840000D01*
G04 #@! TO.N,/Peripherals/WEN_3V3*
X193675000Y-110490000D02*
X193675000Y-104140000D01*
X189230000Y-114935000D02*
X193675000Y-110490000D01*
G04 #@! TO.N,/Peripherals/WWAKE_3V3*
X196215000Y-115570000D02*
X194945000Y-114300000D01*
X196215000Y-116840000D02*
X196215000Y-115570000D01*
X191770000Y-96520000D02*
X191770000Y-100965000D01*
X191770000Y-100965000D02*
X188595000Y-104140000D01*
X190500000Y-95250000D02*
X191770000Y-96520000D01*
X188595000Y-104140000D02*
X188595000Y-112395000D01*
G04 #@! TO.N,/Peripherals/WMOSI_3V3*
X192405000Y-120015000D02*
X191135000Y-118745000D01*
X191135000Y-118745000D02*
X191135000Y-116205000D01*
G04 #@! TO.N,/Peripherals/WCS_3V3*
X186055000Y-112395000D02*
X187325000Y-111125000D01*
X186055000Y-120015000D02*
X186055000Y-112395000D01*
G04 #@! TO.N,/Peripherals/WSCK_3V3*
X193040000Y-116840000D02*
X193040000Y-113665000D01*
X192405000Y-118745000D02*
X192405000Y-117475000D01*
X192405000Y-117475000D02*
X193040000Y-116840000D01*
G04 #@! TO.N,/WCS*
X172720000Y-113030000D02*
X170465000Y-110775000D01*
X175260000Y-113030000D02*
X172720000Y-113030000D01*
X176530000Y-114300000D02*
X175260000Y-113030000D01*
X176530000Y-117475000D02*
X176530000Y-114300000D01*
X179705000Y-118745000D02*
X177800000Y-118745000D01*
X177800000Y-118745000D02*
X176530000Y-117475000D01*
G04 #@! TO.N,/WIRQ*
X190500000Y-96520000D02*
X190500000Y-100965000D01*
X190500000Y-100965000D02*
X187960000Y-103505000D01*
X187960000Y-103505000D02*
X183515000Y-103505000D01*
X183515000Y-103505000D02*
X180340000Y-100330000D01*
G04 #@! TO.N,/Peripherals/CSCK_3V3*
X150495000Y-100330000D02*
X147320000Y-100330000D01*
X151765000Y-99060000D02*
X150495000Y-100330000D01*
X147320000Y-100330000D02*
X145415000Y-102235000D01*
X141605000Y-103505000D02*
X142875000Y-102235000D01*
X142875000Y-102235000D02*
X145415000Y-102235000D01*
G04 #@! TO.N,/SDCS*
X153035000Y-107950000D02*
X153035000Y-108585000D01*
X153670000Y-107315000D02*
X153035000Y-107950000D01*
X159385000Y-107315000D02*
X153670000Y-107315000D01*
X157480000Y-99695000D02*
X154940000Y-97155000D01*
X154940000Y-97155000D02*
X147955000Y-97155000D01*
X147955000Y-97155000D02*
X146685000Y-98425000D01*
X159385000Y-99695000D02*
X157480000Y-99695000D01*
G04 #@! TO.N,/PIX_LAMP*
X146685000Y-109855000D02*
X142875000Y-109855000D01*
X165100000Y-102235000D02*
X161925000Y-105410000D01*
X161925000Y-105410000D02*
X157480000Y-105410000D01*
X150495000Y-106045000D02*
X146685000Y-109855000D01*
X142875000Y-109855000D02*
X141605000Y-111125000D01*
X157480000Y-105410000D02*
X156845000Y-106045000D01*
X156845000Y-106045000D02*
X150495000Y-106045000D01*
G04 #@! TO.N,/PIX_CLK*
X146685000Y-111125000D02*
X144145000Y-111125000D01*
X165100000Y-104775000D02*
X163830000Y-106045000D01*
X151130000Y-106680000D02*
X146685000Y-111125000D01*
X163830000Y-106045000D02*
X158115000Y-106045000D01*
X157480000Y-106680000D02*
X151130000Y-106680000D01*
X158115000Y-106045000D02*
X157480000Y-106680000D01*
G04 #@! TO.N,/KCHG*
X180340000Y-90170000D02*
X180340000Y-86995000D01*
X179705000Y-90805000D02*
X180340000Y-90170000D01*
X179705000Y-99060000D02*
X179705000Y-90805000D01*
X163195000Y-109855000D02*
X166370000Y-109855000D01*
X171450000Y-101600000D02*
X177165000Y-101600000D01*
X166370000Y-109855000D02*
X168910000Y-107315000D01*
X168910000Y-107315000D02*
X168910000Y-104140000D01*
X168910000Y-104140000D02*
X171450000Y-101600000D01*
X177165000Y-101600000D02*
X179705000Y-99060000D01*
G04 #@! TO.N,/SCL*
X166370000Y-85725000D02*
X165735000Y-86360000D01*
X163195000Y-86360000D02*
X165735000Y-86360000D01*
X173990000Y-85725000D02*
X175260000Y-86995000D01*
X166370000Y-85725000D02*
X173990000Y-85725000D01*
X147320000Y-116205000D02*
X147320000Y-116840000D01*
X135255000Y-119380000D02*
X134620000Y-120015000D01*
X147320000Y-116840000D02*
X146050000Y-118110000D01*
X146050000Y-118110000D02*
X137795000Y-118110000D01*
X137795000Y-118110000D02*
X136525000Y-119380000D01*
X136525000Y-119380000D02*
X135255000Y-119380000D01*
X165735000Y-86995000D02*
X165735000Y-86360000D01*
X166370000Y-87630000D02*
X165735000Y-86995000D01*
X166370000Y-106045000D02*
X165100000Y-107315000D01*
X165100000Y-107315000D02*
X161290000Y-107315000D01*
X166370000Y-103505000D02*
X166370000Y-106045000D01*
X161290000Y-107315000D02*
X160020000Y-108585000D01*
X156210000Y-108585000D02*
X154940000Y-109855000D01*
X154940000Y-109855000D02*
X151765000Y-109855000D01*
X166370000Y-103505000D02*
X166370000Y-101600000D01*
X166370000Y-101600000D02*
X164465000Y-99695000D01*
X164465000Y-99695000D02*
X164465000Y-92075000D01*
X160020000Y-108585000D02*
X156210000Y-108585000D01*
X164465000Y-92075000D02*
X166370000Y-90170000D01*
X166370000Y-90170000D02*
X166370000Y-87630000D01*
X134620000Y-120015000D02*
X134620000Y-121920000D01*
G04 #@! TO.N,/SDA*
X145415000Y-117475000D02*
X137160000Y-117475000D01*
X146050000Y-116840000D02*
X145415000Y-117475000D01*
X146050000Y-116205000D02*
X146050000Y-116840000D01*
X137160000Y-117475000D02*
X135890000Y-118745000D01*
X135890000Y-118745000D02*
X133350000Y-118745000D01*
X133350000Y-118745000D02*
X132080000Y-120015000D01*
X163830000Y-88900000D02*
X163830000Y-89535000D01*
X164465000Y-90170000D02*
X164465000Y-90805000D01*
X163830000Y-89535000D02*
X164465000Y-90170000D01*
X167005000Y-90805000D02*
X167005000Y-86995000D01*
X167640000Y-102235000D02*
X167640000Y-101600000D01*
X154940000Y-111125000D02*
X148590000Y-111125000D01*
X156845000Y-109220000D02*
X154940000Y-111125000D01*
X160655000Y-109220000D02*
X156845000Y-109220000D01*
X161925000Y-107950000D02*
X160655000Y-109220000D01*
X165100000Y-92710000D02*
X167005000Y-90805000D01*
X165100000Y-99060000D02*
X165100000Y-92710000D01*
X165735000Y-107950000D02*
X161925000Y-107950000D01*
X167640000Y-101600000D02*
X165100000Y-99060000D01*
X167640000Y-106045000D02*
X165735000Y-107950000D01*
X167640000Y-102235000D02*
X167640000Y-106045000D01*
X132080000Y-120015000D02*
X132080000Y-121920000D01*
G04 #@! TO.N,/CCS*
X161290000Y-103505000D02*
X160020000Y-102235000D01*
X160020000Y-102235000D02*
X153670000Y-102235000D01*
X153035000Y-101600000D02*
X151765000Y-101600000D01*
X153670000Y-102235000D02*
X153035000Y-101600000D01*
G04 #@! TO.N,/XDCS*
X156210000Y-105410000D02*
X149225000Y-105410000D01*
X161290000Y-97790000D02*
X163830000Y-100330000D01*
X161290000Y-95250000D02*
X161290000Y-97790000D01*
X163830000Y-100330000D02*
X163830000Y-102235000D01*
X163830000Y-102235000D02*
X161290000Y-104775000D01*
X161290000Y-104775000D02*
X156845000Y-104775000D01*
X156845000Y-104775000D02*
X156210000Y-105410000D01*
G04 #@! TO.N,/CRST*
X168910000Y-114935000D02*
X166370000Y-114935000D01*
X174625000Y-114300000D02*
X169545000Y-114300000D01*
X169545000Y-114300000D02*
X168910000Y-114935000D01*
X150495000Y-101600000D02*
X148590000Y-101600000D01*
X160655000Y-101600000D02*
X154305000Y-101600000D01*
X161290000Y-102235000D02*
X160655000Y-101600000D01*
X154305000Y-101600000D02*
X153035000Y-100330000D01*
X153035000Y-100330000D02*
X151765000Y-100330000D01*
X151765000Y-100330000D02*
X150495000Y-101600000D01*
G04 #@! TO.N,/ALS_INT*
X140335000Y-119380000D02*
X139700000Y-120015000D01*
X147320000Y-119380000D02*
X140335000Y-119380000D01*
X148590000Y-118110000D02*
X147320000Y-119380000D01*
X163195000Y-113665000D02*
X163195000Y-116205000D01*
X155575000Y-118110000D02*
X148590000Y-118110000D01*
X163195000Y-116205000D02*
X160020000Y-119380000D01*
X160020000Y-119380000D02*
X156845000Y-119380000D01*
X165735000Y-111125000D02*
X163195000Y-113665000D01*
X156845000Y-119380000D02*
X155575000Y-118110000D01*
X139700000Y-120015000D02*
X139700000Y-121920000D01*
G04 #@! TO.N,/OLRST*
X138430000Y-118745000D02*
X137160000Y-120015000D01*
X146685000Y-118745000D02*
X138430000Y-118745000D01*
X147955000Y-117475000D02*
X146685000Y-118745000D01*
X160020000Y-118110000D02*
X156845000Y-118110000D01*
X156845000Y-118110000D02*
X156210000Y-117475000D01*
X156210000Y-117475000D02*
X147955000Y-117475000D01*
X137160000Y-120015000D02*
X137160000Y-121920000D01*
G04 #@! TO.N,/ALRM_SW*
X147955000Y-92075000D02*
X141605000Y-98425000D01*
X157480000Y-94615000D02*
X154940000Y-92075000D01*
X154940000Y-92075000D02*
X147955000Y-92075000D01*
G04 #@! TO.N,Net-(C24-Pad1)*
X156210000Y-116205000D02*
X153035000Y-116205000D01*
X156845000Y-115570000D02*
X156210000Y-116205000D01*
X158750000Y-115570000D02*
X156845000Y-115570000D01*
X158750000Y-111125000D02*
X158750000Y-112395000D01*
X158115000Y-110490000D02*
X158750000Y-111125000D01*
G04 #@! TO.N,/LOW_BATT*
X140335000Y-114300000D02*
X139065000Y-115570000D01*
X140335000Y-107950000D02*
X140335000Y-114300000D01*
X140970000Y-107315000D02*
X140335000Y-107950000D01*
X144780000Y-107315000D02*
X140970000Y-107315000D01*
X158115000Y-103505000D02*
X156845000Y-103505000D01*
X156845000Y-103505000D02*
X155575000Y-104775000D01*
X139065000Y-115570000D02*
X137795000Y-115570000D01*
X155575000Y-104775000D02*
X151130000Y-104775000D01*
X150495000Y-104140000D02*
X147955000Y-104140000D01*
X151130000Y-104775000D02*
X150495000Y-104140000D01*
X147955000Y-104140000D02*
X144780000Y-107315000D01*
G04 #@! TO.N,/ON_BATT*
X139065000Y-113030000D02*
X137795000Y-113030000D01*
X139700000Y-112395000D02*
X139065000Y-113030000D01*
X139700000Y-98425000D02*
X139700000Y-112395000D01*
X146685000Y-91440000D02*
X139700000Y-98425000D01*
X159385000Y-95250000D02*
X155575000Y-91440000D01*
X155575000Y-91440000D02*
X146685000Y-91440000D01*
G04 #@! TO.N,/SD_DET*
X162560000Y-90805000D02*
X160020000Y-90805000D01*
X159385000Y-90170000D02*
X144780000Y-90170000D01*
X160020000Y-90805000D02*
X159385000Y-90170000D01*
G04 #@! TO.N,/P42*
X170815000Y-103505000D02*
X172085000Y-102235000D01*
X172085000Y-102235000D02*
X175260000Y-102235000D01*
X179705000Y-106680000D02*
X179705000Y-109220000D01*
X175260000Y-102235000D02*
X179705000Y-106680000D01*
G04 #@! TO.N,/P43*
X174625000Y-103505000D02*
X177165000Y-106045000D01*
X177165000Y-106045000D02*
X177800000Y-106680000D01*
X177800000Y-106680000D02*
X177800000Y-109220000D01*
G04 #@! TO.N,/P44*
X175895000Y-106045000D02*
X175895000Y-109220000D01*
X174625000Y-104775000D02*
X175895000Y-106045000D01*
G04 #@! TO.N,/P46*
X172085000Y-106680000D02*
X172085000Y-109220000D01*
X170815000Y-106045000D02*
X171450000Y-106045000D01*
X171450000Y-106045000D02*
X172085000Y-106680000D01*
G04 #@! TO.N,/P45*
X170180000Y-104775000D02*
X172085000Y-104775000D01*
X172085000Y-104775000D02*
X173990000Y-106680000D01*
X173990000Y-106680000D02*
X173990000Y-109220000D01*
G04 #@! TO.N,/Peripherals/LED_NET*
X200025000Y-104140000D02*
X201295000Y-102870000D01*
X201295000Y-102870000D02*
X201295000Y-95250000D01*
G04 #@! TO.N,/Peripherals/GPIO_1*
X192405000Y-97155000D02*
X193675000Y-95885000D01*
X192405000Y-103505000D02*
X192405000Y-97155000D01*
X193675000Y-95885000D02*
X193675000Y-95250000D01*
G04 #@! TO.N,/Peripherals/GPIO_3*
X198755000Y-102870000D02*
X198755000Y-98425000D01*
X198755000Y-98425000D02*
X196215000Y-95885000D01*
X196215000Y-95885000D02*
X196215000Y-95250000D01*
G04 #@! TO.N,/Peripherals/LED_WIFI*
X198755000Y-97155000D02*
X198755000Y-95250000D01*
X198755000Y-104140000D02*
X200025000Y-102870000D01*
X200025000Y-102870000D02*
X200025000Y-98425000D01*
X200025000Y-98425000D02*
X198755000Y-97155000D01*
G04 #@! TO.N,/Peripherals/LED_ERR*
X203835000Y-102235000D02*
X203835000Y-95250000D01*
X205105000Y-103505000D02*
X203835000Y-102235000D01*
G04 #@! TO.N,/USB Serial/LED_TX*
X135255000Y-100330000D02*
X133985000Y-99060000D01*
X133985000Y-99060000D02*
X133985000Y-95885000D01*
X133985000Y-95885000D02*
X130810000Y-92710000D01*
X130810000Y-92710000D02*
X130810000Y-90170000D01*
G04 #@! TO.N,/USB Serial/LED_RX*
X128905000Y-93345000D02*
X128270000Y-92710000D01*
X130810000Y-93345000D02*
X128905000Y-93345000D01*
X135255000Y-103505000D02*
X133350000Y-101600000D01*
X128270000Y-92710000D02*
X128270000Y-90170000D01*
X133350000Y-95885000D02*
X130810000Y-93345000D01*
X133350000Y-101600000D02*
X133350000Y-95885000D01*
G04 #@! TO.N,/USB Serial/URXD*
X133350000Y-104775000D02*
X133350000Y-107315000D01*
X133350000Y-107315000D02*
X136525000Y-110490000D01*
X136525000Y-110490000D02*
X136525000Y-111760000D01*
G04 #@! TO.N,/USB Serial/UTXD*
X125730000Y-104775000D02*
X128270000Y-104775000D01*
X117475000Y-113030000D02*
X125730000Y-104775000D01*
X130810000Y-102235000D02*
X132715000Y-102235000D01*
X134620000Y-104140000D02*
X134620000Y-104775000D01*
X128270000Y-104775000D02*
X130810000Y-102235000D01*
X132715000Y-102235000D02*
X134620000Y-104140000D01*
D29*
G04 #@! TO.N,UVCC*
X133350000Y-92075000D02*
X136525000Y-95250000D01*
X133350000Y-90170000D02*
X133350000Y-92075000D01*
X136525000Y-95250000D02*
X136525000Y-100965000D01*
X117475000Y-109855000D02*
X120650000Y-106680000D01*
X116205000Y-112395000D02*
X117475000Y-111125000D01*
X109855000Y-109855000D02*
X109855000Y-111125000D01*
X111125000Y-112395000D02*
X116205000Y-112395000D01*
X109855000Y-111125000D02*
X111125000Y-112395000D01*
X117475000Y-111125000D02*
X117475000Y-109855000D01*
X120650000Y-106680000D02*
X122555000Y-106680000D01*
D28*
G04 #@! TO.N,/USB Serial/RESET*
X118110000Y-116840000D02*
X118110000Y-118745000D01*
X118110000Y-118745000D02*
X118745000Y-119380000D01*
X118745000Y-119380000D02*
X127000000Y-119380000D01*
X127000000Y-119380000D02*
X127635000Y-118745000D01*
X118745000Y-116205000D02*
X118110000Y-116840000D01*
X127635000Y-118745000D02*
X130810000Y-118745000D01*
G04 #@! TO.N,/PE0*
X125095000Y-114935000D02*
X134620000Y-114935000D01*
X136525000Y-116840000D02*
X139065000Y-116840000D01*
X134620000Y-114935000D02*
X136525000Y-116840000D01*
X139065000Y-116840000D02*
X140970000Y-114935000D01*
X140970000Y-114935000D02*
X152400000Y-114935000D01*
G04 #@! TO.N,/USB Serial/RESET-M*
X123825000Y-114935000D02*
X123825000Y-113030000D01*
X125095000Y-116205000D02*
X123825000Y-114935000D01*
X123825000Y-113030000D02*
X125095000Y-111760000D01*
X125095000Y-111760000D02*
X128270000Y-111760000D01*
X128270000Y-111760000D02*
X131445000Y-108585000D01*
X131445000Y-108585000D02*
X131445000Y-103505000D01*
G04 #@! TD*
D29*
G04 #@! TO.N,+5V*
G36*
X130048000Y-120857817D02*
X130047459Y-120857528D01*
X129932453Y-120809891D01*
X129830430Y-120778943D01*
X129708340Y-120754658D01*
X129602241Y-120744208D01*
X129477759Y-120744208D01*
X129371660Y-120754658D01*
X129249570Y-120778943D01*
X129147547Y-120809891D01*
X129032541Y-120857528D01*
X128938518Y-120907784D01*
X128835015Y-120976942D01*
X128752600Y-121044578D01*
X128664578Y-121132600D01*
X128596942Y-121215015D01*
X128527784Y-121318518D01*
X128477528Y-121412541D01*
X128429891Y-121527547D01*
X128398943Y-121629570D01*
X128374658Y-121751660D01*
X128364208Y-121857759D01*
X128364208Y-121904626D01*
X128361150Y-121920000D01*
X128361150Y-123063000D01*
X126492000Y-123063000D01*
X126492000Y-120142000D01*
X130048000Y-120142000D01*
X130048000Y-120857817D01*
X130048000Y-120857817D01*
G37*
X130048000Y-120857817D02*
X130047459Y-120857528D01*
X129932453Y-120809891D01*
X129830430Y-120778943D01*
X129708340Y-120754658D01*
X129602241Y-120744208D01*
X129477759Y-120744208D01*
X129371660Y-120754658D01*
X129249570Y-120778943D01*
X129147547Y-120809891D01*
X129032541Y-120857528D01*
X128938518Y-120907784D01*
X128835015Y-120976942D01*
X128752600Y-121044578D01*
X128664578Y-121132600D01*
X128596942Y-121215015D01*
X128527784Y-121318518D01*
X128477528Y-121412541D01*
X128429891Y-121527547D01*
X128398943Y-121629570D01*
X128374658Y-121751660D01*
X128364208Y-121857759D01*
X128364208Y-121904626D01*
X128361150Y-121920000D01*
X128361150Y-123063000D01*
X126492000Y-123063000D01*
X126492000Y-120142000D01*
X130048000Y-120142000D01*
X130048000Y-120857817D01*
G04 #@! TO.N,GND*
G36*
X145923000Y-123063000D02*
X143418850Y-123063000D01*
X143418850Y-121920000D01*
X143415792Y-121904626D01*
X143415792Y-121857759D01*
X143405342Y-121751660D01*
X143381057Y-121629570D01*
X143350109Y-121527547D01*
X143302472Y-121412541D01*
X143252216Y-121318518D01*
X143183058Y-121215015D01*
X143115422Y-121132600D01*
X143027400Y-121044578D01*
X142944985Y-120976942D01*
X142841482Y-120907784D01*
X142747459Y-120857528D01*
X142632453Y-120809891D01*
X142530430Y-120778943D01*
X142408340Y-120754658D01*
X142302241Y-120744208D01*
X142177759Y-120744208D01*
X142071660Y-120754658D01*
X141949570Y-120778943D01*
X141847547Y-120809891D01*
X141732541Y-120857528D01*
X141732000Y-120857817D01*
X141732000Y-120142000D01*
X145923000Y-120142000D01*
X145923000Y-123063000D01*
X145923000Y-123063000D01*
G37*
X145923000Y-123063000D02*
X143418850Y-123063000D01*
X143418850Y-121920000D01*
X143415792Y-121904626D01*
X143415792Y-121857759D01*
X143405342Y-121751660D01*
X143381057Y-121629570D01*
X143350109Y-121527547D01*
X143302472Y-121412541D01*
X143252216Y-121318518D01*
X143183058Y-121215015D01*
X143115422Y-121132600D01*
X143027400Y-121044578D01*
X142944985Y-120976942D01*
X142841482Y-120907784D01*
X142747459Y-120857528D01*
X142632453Y-120809891D01*
X142530430Y-120778943D01*
X142408340Y-120754658D01*
X142302241Y-120744208D01*
X142177759Y-120744208D01*
X142071660Y-120754658D01*
X141949570Y-120778943D01*
X141847547Y-120809891D01*
X141732541Y-120857528D01*
X141732000Y-120857817D01*
X141732000Y-120142000D01*
X145923000Y-120142000D01*
X145923000Y-123063000D01*
G36*
X173400094Y-95497856D02*
X173782853Y-95656400D01*
X174197147Y-95656400D01*
X174579906Y-95497856D01*
X174700762Y-95377000D01*
X176477394Y-95377000D01*
X177038000Y-95937606D01*
X177038000Y-99642394D01*
X176477394Y-100203000D01*
X173820000Y-100203000D01*
X173820000Y-99345750D01*
X173661250Y-99187000D01*
X171062000Y-99187000D01*
X171062000Y-99207000D01*
X170808000Y-99207000D01*
X170808000Y-99187000D01*
X170788000Y-99187000D01*
X170788000Y-98933000D01*
X170808000Y-98933000D01*
X170808000Y-97433750D01*
X171062000Y-97433750D01*
X171062000Y-98933000D01*
X173661250Y-98933000D01*
X173739806Y-98854444D01*
X174601600Y-98854444D01*
X174601600Y-99265556D01*
X174758925Y-99645374D01*
X175049626Y-99936075D01*
X175429444Y-100093400D01*
X175840556Y-100093400D01*
X176220374Y-99936075D01*
X176511075Y-99645374D01*
X176668400Y-99265556D01*
X176668400Y-98854444D01*
X176511075Y-98474626D01*
X176220374Y-98183925D01*
X175840556Y-98026600D01*
X175429444Y-98026600D01*
X175049626Y-98183925D01*
X174758925Y-98474626D01*
X174601600Y-98854444D01*
X173739806Y-98854444D01*
X173820000Y-98774250D01*
X173820000Y-97783690D01*
X173723327Y-97550301D01*
X173544698Y-97371673D01*
X173311309Y-97275000D01*
X171220750Y-97275000D01*
X171062000Y-97433750D01*
X170808000Y-97433750D01*
X170649250Y-97275000D01*
X169037000Y-97275000D01*
X169037000Y-96189800D01*
X169096938Y-96189800D01*
X169442354Y-96046724D01*
X169706724Y-95782354D01*
X169849800Y-95436938D01*
X169849800Y-95377000D01*
X173279238Y-95377000D01*
X173400094Y-95497856D01*
X173400094Y-95497856D01*
G37*
X173400094Y-95497856D02*
X173782853Y-95656400D01*
X174197147Y-95656400D01*
X174579906Y-95497856D01*
X174700762Y-95377000D01*
X176477394Y-95377000D01*
X177038000Y-95937606D01*
X177038000Y-99642394D01*
X176477394Y-100203000D01*
X173820000Y-100203000D01*
X173820000Y-99345750D01*
X173661250Y-99187000D01*
X171062000Y-99187000D01*
X171062000Y-99207000D01*
X170808000Y-99207000D01*
X170808000Y-99187000D01*
X170788000Y-99187000D01*
X170788000Y-98933000D01*
X170808000Y-98933000D01*
X170808000Y-97433750D01*
X171062000Y-97433750D01*
X171062000Y-98933000D01*
X173661250Y-98933000D01*
X173739806Y-98854444D01*
X174601600Y-98854444D01*
X174601600Y-99265556D01*
X174758925Y-99645374D01*
X175049626Y-99936075D01*
X175429444Y-100093400D01*
X175840556Y-100093400D01*
X176220374Y-99936075D01*
X176511075Y-99645374D01*
X176668400Y-99265556D01*
X176668400Y-98854444D01*
X176511075Y-98474626D01*
X176220374Y-98183925D01*
X175840556Y-98026600D01*
X175429444Y-98026600D01*
X175049626Y-98183925D01*
X174758925Y-98474626D01*
X174601600Y-98854444D01*
X173739806Y-98854444D01*
X173820000Y-98774250D01*
X173820000Y-97783690D01*
X173723327Y-97550301D01*
X173544698Y-97371673D01*
X173311309Y-97275000D01*
X171220750Y-97275000D01*
X171062000Y-97433750D01*
X170808000Y-97433750D01*
X170649250Y-97275000D01*
X169037000Y-97275000D01*
X169037000Y-96189800D01*
X169096938Y-96189800D01*
X169442354Y-96046724D01*
X169706724Y-95782354D01*
X169849800Y-95436938D01*
X169849800Y-95377000D01*
X173279238Y-95377000D01*
X173400094Y-95497856D01*
G04 #@! TD*
D30*
X195580000Y-113030000D03*
X205105000Y-92075028D03*
X180340000Y-114300000D03*
X180340000Y-117475000D03*
X184785000Y-95885000D03*
X179070000Y-111760000D03*
X198120000Y-113030000D03*
X191770000Y-111125000D03*
X115570000Y-90170000D03*
X115570000Y-92075000D03*
X115570000Y-93980000D03*
X115570000Y-95885000D03*
X182245000Y-96520000D03*
X179070000Y-101600000D03*
X154305000Y-94615000D03*
X146685000Y-95885000D03*
X178435000Y-89535000D03*
X178435000Y-90805000D03*
X174625000Y-90170000D03*
X201295000Y-107950000D03*
X175260000Y-111760000D03*
X163830000Y-117475000D03*
X144145000Y-122555000D03*
X145415000Y-122555000D03*
X158115000Y-116840000D03*
X154305000Y-108585000D03*
X154305000Y-103505000D03*
X172085000Y-89535000D03*
X154940000Y-120015000D03*
X118745000Y-104140000D03*
X134620000Y-106680000D03*
X134620000Y-111760000D03*
X134620000Y-116840000D03*
X131445000Y-116840000D03*
X128905000Y-116840000D03*
X128270000Y-107315000D03*
X131445000Y-111760000D03*
X122555000Y-121285000D03*
X191770000Y-122555000D03*
X197485000Y-115570000D03*
X125095000Y-107315000D03*
X144145000Y-91440000D03*
X163195000Y-93980000D03*
X148590000Y-116205000D03*
X160020000Y-93980000D03*
X175260000Y-97790000D03*
X173990000Y-96520000D03*
X181610000Y-97790000D03*
X187325000Y-109855000D03*
X155575000Y-94615000D03*
X163830000Y-118745000D03*
X161290000Y-116840000D03*
X160020000Y-111125000D03*
X159385000Y-98425000D03*
X173990000Y-93345000D03*
X173990000Y-94615000D03*
X174625000Y-117475000D03*
X163195000Y-111125000D03*
X147320000Y-113665000D03*
X170180000Y-107315000D03*
X173990000Y-92075000D03*
X149860000Y-113665000D03*
X154305000Y-99695000D03*
X149860000Y-120015000D03*
X136525000Y-106045000D03*
X136525000Y-104775000D03*
X138430000Y-120650000D03*
X121920000Y-116840000D03*
X154305000Y-113030000D03*
X128270000Y-120650000D03*
X127000000Y-120650000D03*
X162560000Y-120015000D03*
X161290000Y-89535000D03*
X168275000Y-92710000D03*
X150495000Y-99060000D03*
X161290000Y-100965000D03*
X184785000Y-120015000D03*
X196215000Y-118745000D03*
X176530000Y-120015000D03*
X149860000Y-95250000D03*
X162560000Y-100965000D03*
X169545000Y-109220000D03*
X163830000Y-120015000D03*
X112395000Y-90170000D03*
X112395000Y-92075000D03*
X109855000Y-90170000D03*
X109855000Y-92075000D03*
X127635000Y-94615000D03*
X126365000Y-98425000D03*
X131445000Y-100330000D03*
X128905000Y-102870000D03*
X127994211Y-101324211D03*
X131000500Y-94678500D03*
X129984500Y-94678500D03*
X127275789Y-100605789D03*
X137795000Y-95250000D03*
X122555000Y-102235000D03*
X125095000Y-89535000D03*
X125730000Y-93345000D03*
X125730000Y-92075000D03*
X133985000Y-94615000D03*
X140335000Y-96520000D03*
X161925000Y-92710000D03*
X168910000Y-95250000D03*
X167005000Y-98425000D03*
X195580000Y-104140000D03*
X190500000Y-104140000D03*
X182245000Y-94615000D03*
X182245000Y-92075000D03*
X182245000Y-93345000D03*
X196850000Y-120015000D03*
X181610000Y-88265000D03*
X167640000Y-91440000D03*
X161925000Y-109220000D03*
X189865000Y-116840000D03*
X204470000Y-108585000D03*
X193675000Y-104140000D03*
X189230000Y-114935000D03*
X188595000Y-112395000D03*
X194945000Y-114300000D03*
X196215000Y-116840000D03*
X190500000Y-95250000D03*
X191135000Y-116205000D03*
X192405000Y-120015000D03*
X187325000Y-111125000D03*
X186055000Y-120015000D03*
X193040000Y-113665000D03*
X192405000Y-118745000D03*
X170465000Y-110775000D03*
X179705000Y-118745000D03*
X190500000Y-96520000D03*
X180340000Y-100330000D03*
X148590000Y-99060000D03*
X151765000Y-99060000D03*
X153035000Y-94615000D03*
X146685000Y-98425000D03*
X153035000Y-108585000D03*
X159385000Y-107315000D03*
X159385000Y-99695000D03*
X146050000Y-107315000D03*
X151765000Y-94615000D03*
X147320000Y-93980000D03*
X163195000Y-98425000D03*
X165100000Y-102235000D03*
X165100000Y-104775000D03*
X163195000Y-109855000D03*
X166370000Y-85725000D03*
X151765000Y-109855000D03*
X147320000Y-116205000D03*
X166370000Y-103505000D03*
X167005000Y-86995000D03*
X148590000Y-111125000D03*
X146050000Y-116205000D03*
X164465000Y-90805000D03*
X167640000Y-102235000D03*
X151765000Y-101600000D03*
X161290000Y-103505000D03*
X149225000Y-105410000D03*
X161290000Y-95250000D03*
X166370000Y-114935000D03*
X148590000Y-101600000D03*
X174625000Y-114300000D03*
X161290000Y-102235000D03*
X165735000Y-111125000D03*
X160020000Y-118110000D03*
X157480000Y-94615000D03*
X153035000Y-116205000D03*
X158750000Y-115570000D03*
X158115000Y-110490000D03*
X158115000Y-103505000D03*
X159385000Y-95250000D03*
X158115000Y-98425000D03*
X144780000Y-90170000D03*
X167640000Y-93980000D03*
X162560000Y-90805000D03*
X170815000Y-103505000D03*
X174625000Y-103505000D03*
X174625000Y-104775000D03*
X170815000Y-106045000D03*
X170180000Y-104775000D03*
X200025000Y-104140000D03*
X192405000Y-103505000D03*
X198755000Y-102870000D03*
X198755000Y-104140000D03*
X205105000Y-103505000D03*
X135255000Y-100330000D03*
X135255000Y-103505000D03*
X136525000Y-111760000D03*
X133350000Y-104775000D03*
X134620000Y-104775000D03*
X117475000Y-113030000D03*
X136525000Y-100965000D03*
X152400000Y-120015000D03*
X122555000Y-105410000D03*
X122555000Y-106680000D03*
X136525000Y-102235000D03*
X124460000Y-122555000D03*
X130810000Y-118745000D03*
X118745000Y-116205000D03*
X152400000Y-114935000D03*
X125095000Y-114935000D03*
X121285000Y-120650000D03*
X131445000Y-103505000D03*
X125095000Y-116205000D03*
X125805000Y-113320000D03*
X119305000Y-113320000D03*
X119305000Y-117820000D03*
X125805000Y-117820000D03*
X202565000Y-111125000D03*
X205105000Y-111125000D03*
X201930000Y-116840000D03*
X201930000Y-114554000D03*
X199950266Y-115697000D03*
X199950266Y-117983000D03*
X201930000Y-119126000D03*
X203909734Y-117983000D03*
X203909734Y-115697000D03*
X139700000Y-90805000D03*
X139700000Y-88519000D03*
X137720266Y-89662000D03*
X137720266Y-91948000D03*
X139700000Y-93091000D03*
X141679734Y-91948000D03*
X141679734Y-89662000D03*
X113030000Y-116840000D03*
X113030000Y-114554000D03*
X111050266Y-115697000D03*
X111050266Y-117983000D03*
X113030000Y-119126000D03*
X115009734Y-117983000D03*
X115009734Y-115697000D03*
X195097400Y-99898200D03*
X116165000Y-86550000D03*
X112165000Y-86550000D03*
X109855000Y-98425000D03*
X112395000Y-98425000D03*
X109855000Y-100965000D03*
X112395000Y-100965000D03*
X109855000Y-103505000D03*
X112395000Y-103505000D03*
X166370000Y-116840000D03*
X166370000Y-119380000D03*
X168910000Y-116840000D03*
X168910000Y-119380000D03*
X171450000Y-116840000D03*
X171450000Y-119380000D03*
X180340000Y-86995000D03*
X177800000Y-86995000D03*
X175260000Y-86995000D03*
X172720000Y-86995000D03*
X114935000Y-109855000D03*
X114935000Y-107315000D03*
X112395000Y-109855000D03*
X112395000Y-107315000D03*
X109855000Y-109855000D03*
X109855000Y-107315000D03*
X141605000Y-98425000D03*
X144145000Y-98425000D03*
X141605000Y-100965000D03*
X144145000Y-100965000D03*
X141605000Y-103505000D03*
X144145000Y-103505000D03*
X141605000Y-106045000D03*
X144145000Y-106045000D03*
X141605000Y-108585000D03*
X144145000Y-108585000D03*
X141605000Y-111125000D03*
X144145000Y-111125000D03*
X141605000Y-113665000D03*
X144145000Y-113665000D03*
X141605000Y-116205000D03*
X144145000Y-116205000D03*
X137795000Y-115570000D03*
X137795000Y-113030000D03*
X137795000Y-110490000D03*
X137795000Y-107950000D03*
X183085000Y-99060000D03*
X175635000Y-99060000D03*
M02*
