G04 #@! TF.FileFunction,Copper,L1,Top,Signal*
%FSLAX46Y46*%
G04 Gerber Fmt 4.6, Leading zero omitted, Abs format (unit mm)*
G04 Created by KiCad (PCBNEW (2016-05-03 BZR 6266)-product) date Mon Jul 11 04:52:19 2016*
%MOMM*%
%LPD*%
G01*
G04 APERTURE LIST*
%ADD10C,0.350000*%
%ADD11C,0.150000*%
%ADD12R,1.500000X1.000000*%
%ADD13R,1.100000X1.000000*%
%ADD14C,5.080000*%
%ADD15C,1.016000*%
%ADD16C,1.270000*%
%ADD17C,0.965200*%
%ADD18C,0.406400*%
%ADD19C,0.254000*%
%ADD20C,0.350000*%
G04 APERTURE END LIST*
D10*
D11*
X140335000Y-86995000D02*
X140335000Y-116205000D01*
X151765000Y-86995000D02*
X140335000Y-86995000D01*
X151765000Y-116205000D02*
X151765000Y-86995000D01*
X140335000Y-116205000D02*
X151765000Y-116205000D01*
D12*
X148500000Y-91110000D03*
X143600000Y-91110000D03*
X143600000Y-94310000D03*
X148500000Y-94310000D03*
D13*
X146900000Y-88900000D03*
X145200000Y-88900000D03*
X146900000Y-114300000D03*
X145200000Y-114300000D03*
D14*
X146050000Y-101600000D03*
D15*
X146050000Y-99695000D03*
X144400222Y-100647500D03*
X144400222Y-102552500D03*
X146050000Y-103505000D03*
X147699778Y-102552500D03*
X147699778Y-100647500D03*
D12*
X148500000Y-108890000D03*
X143600000Y-108890000D03*
X143600000Y-112090000D03*
X148500000Y-112090000D03*
D16*
X149860000Y-100330000D03*
X149860000Y-99060000D03*
X148618354Y-99031646D03*
X146050000Y-97790000D03*
X146050000Y-95885000D03*
X142240000Y-102870000D03*
X142240000Y-104140000D03*
X143510000Y-104140000D03*
X146050000Y-105410000D03*
X146050000Y-107315000D03*
D17*
X146061607Y-92721565D03*
X146050000Y-111125000D03*
X143509992Y-92710000D03*
X146050000Y-112395000D03*
D18*
X148618354Y-99031646D02*
X149831646Y-99031646D01*
X149831646Y-99031646D02*
X149860000Y-99060000D01*
X146050000Y-95885000D02*
X146050000Y-97790000D01*
X143510000Y-104140000D02*
X142240000Y-104140000D01*
X146050000Y-107315000D02*
X146050000Y-105410000D01*
D19*
X143600000Y-94310000D02*
X145085000Y-94310000D01*
X145085000Y-94310000D02*
X146061607Y-93333393D01*
X146061607Y-93333393D02*
X146061607Y-92721565D01*
X148500000Y-108890000D02*
X147015000Y-108890000D01*
X147015000Y-108890000D02*
X146050000Y-109855000D01*
X146050000Y-109855000D02*
X146050000Y-111125000D01*
X148500000Y-91110000D02*
X146380000Y-91110000D01*
X144780000Y-92710000D02*
X143509992Y-92710000D01*
X146380000Y-91110000D02*
X144780000Y-92710000D01*
X143600000Y-112090000D02*
X143905000Y-112395000D01*
X143905000Y-112395000D02*
X146050000Y-112395000D01*
X148500000Y-91110000D02*
X148895000Y-91110000D01*
G36*
X151003000Y-115443000D02*
X146812000Y-115443000D01*
X146812000Y-114550000D01*
X147175000Y-114550000D01*
X147175000Y-115276250D01*
X147333750Y-115435000D01*
X147576309Y-115435000D01*
X147809698Y-115338327D01*
X147988327Y-115159699D01*
X148085000Y-114926310D01*
X148085000Y-114708750D01*
X147926250Y-114550000D01*
X147175000Y-114550000D01*
X146812000Y-114550000D01*
X146812000Y-113069918D01*
X146910821Y-112971269D01*
X147065824Y-112597982D01*
X147065910Y-112498750D01*
X147115000Y-112498750D01*
X147115000Y-112716310D01*
X147211673Y-112949699D01*
X147390302Y-113128327D01*
X147478838Y-113165000D01*
X147333750Y-113165000D01*
X147175000Y-113323750D01*
X147175000Y-114050000D01*
X147926250Y-114050000D01*
X148085000Y-113891250D01*
X148085000Y-113673690D01*
X147988327Y-113440301D01*
X147809698Y-113261673D01*
X147721162Y-113225000D01*
X147966250Y-113225000D01*
X148125000Y-113066250D01*
X148125000Y-112340000D01*
X148875000Y-112340000D01*
X148875000Y-113066250D01*
X149033750Y-113225000D01*
X149376309Y-113225000D01*
X149609698Y-113128327D01*
X149788327Y-112949699D01*
X149885000Y-112716310D01*
X149885000Y-112498750D01*
X149726250Y-112340000D01*
X148875000Y-112340000D01*
X148125000Y-112340000D01*
X147273750Y-112340000D01*
X147115000Y-112498750D01*
X147065910Y-112498750D01*
X147066176Y-112193792D01*
X146911825Y-111820234D01*
X146851841Y-111760146D01*
X146910821Y-111701269D01*
X147009472Y-111463690D01*
X147115000Y-111463690D01*
X147115000Y-111681250D01*
X147273750Y-111840000D01*
X148125000Y-111840000D01*
X148125000Y-111113750D01*
X148875000Y-111113750D01*
X148875000Y-111840000D01*
X149726250Y-111840000D01*
X149885000Y-111681250D01*
X149885000Y-111463690D01*
X149788327Y-111230301D01*
X149609698Y-111051673D01*
X149376309Y-110955000D01*
X149033750Y-110955000D01*
X148875000Y-111113750D01*
X148125000Y-111113750D01*
X147966250Y-110955000D01*
X147623691Y-110955000D01*
X147390302Y-111051673D01*
X147211673Y-111230301D01*
X147115000Y-111463690D01*
X147009472Y-111463690D01*
X147065824Y-111327982D01*
X147066176Y-110923792D01*
X146911825Y-110550234D01*
X146812000Y-110450235D01*
X146812000Y-110026946D01*
X147246451Y-109592495D01*
X147360165Y-109769210D01*
X147538412Y-109891001D01*
X147750000Y-109933849D01*
X149250000Y-109933849D01*
X149447666Y-109896656D01*
X149629210Y-109779835D01*
X149751001Y-109601588D01*
X149793849Y-109390000D01*
X149793849Y-108390000D01*
X149756656Y-108192334D01*
X149639835Y-108010790D01*
X149461588Y-107888999D01*
X149250000Y-107846151D01*
X147750000Y-107846151D01*
X147552334Y-107883344D01*
X147447000Y-107951125D01*
X147447000Y-104348195D01*
X147788667Y-104207021D01*
X148653982Y-103343214D01*
X149122865Y-102214019D01*
X149123932Y-100991345D01*
X148657021Y-99861333D01*
X147793214Y-98996018D01*
X146812000Y-98588582D01*
X146812000Y-98507065D01*
X146801994Y-98457655D01*
X146773553Y-98416030D01*
X146731159Y-98388750D01*
X146685000Y-98380065D01*
X145542000Y-98380065D01*
X145542000Y-95459065D01*
X146685000Y-95459065D01*
X146734410Y-95449059D01*
X146776035Y-95420618D01*
X146803315Y-95378224D01*
X146812000Y-95332065D01*
X146812000Y-94718750D01*
X147115000Y-94718750D01*
X147115000Y-94936310D01*
X147211673Y-95169699D01*
X147390302Y-95348327D01*
X147623691Y-95445000D01*
X147966250Y-95445000D01*
X148125000Y-95286250D01*
X148125000Y-94560000D01*
X148875000Y-94560000D01*
X148875000Y-95286250D01*
X149033750Y-95445000D01*
X149376309Y-95445000D01*
X149609698Y-95348327D01*
X149788327Y-95169699D01*
X149885000Y-94936310D01*
X149885000Y-94718750D01*
X149726250Y-94560000D01*
X148875000Y-94560000D01*
X148125000Y-94560000D01*
X147273750Y-94560000D01*
X147115000Y-94718750D01*
X146812000Y-94718750D01*
X146812000Y-93683690D01*
X147115000Y-93683690D01*
X147115000Y-93901250D01*
X147273750Y-94060000D01*
X148125000Y-94060000D01*
X148125000Y-93333750D01*
X148875000Y-93333750D01*
X148875000Y-94060000D01*
X149726250Y-94060000D01*
X149885000Y-93901250D01*
X149885000Y-93683690D01*
X149788327Y-93450301D01*
X149609698Y-93271673D01*
X149376309Y-93175000D01*
X149033750Y-93175000D01*
X148875000Y-93333750D01*
X148125000Y-93333750D01*
X147966250Y-93175000D01*
X147623691Y-93175000D01*
X147390302Y-93271673D01*
X147211673Y-93450301D01*
X147115000Y-93683690D01*
X146812000Y-93683690D01*
X146812000Y-93408069D01*
X146922428Y-93297834D01*
X147077431Y-92924547D01*
X147077783Y-92520357D01*
X146923432Y-92146799D01*
X146812000Y-92035172D01*
X146812000Y-91770400D01*
X147236332Y-91770400D01*
X147243344Y-91807666D01*
X147360165Y-91989210D01*
X147538412Y-92111001D01*
X147750000Y-92153849D01*
X149250000Y-92153849D01*
X149447666Y-92116656D01*
X149629210Y-91999835D01*
X149751001Y-91821588D01*
X149793849Y-91610000D01*
X149793849Y-90610000D01*
X149756656Y-90412334D01*
X149639835Y-90230790D01*
X149461588Y-90108999D01*
X149250000Y-90066151D01*
X147750000Y-90066151D01*
X147552334Y-90103344D01*
X147370790Y-90220165D01*
X147248999Y-90398412D01*
X147238633Y-90449600D01*
X146812000Y-90449600D01*
X146812000Y-89150000D01*
X147175000Y-89150000D01*
X147175000Y-89876250D01*
X147333750Y-90035000D01*
X147576309Y-90035000D01*
X147809698Y-89938327D01*
X147988327Y-89759699D01*
X148085000Y-89526310D01*
X148085000Y-89308750D01*
X147926250Y-89150000D01*
X147175000Y-89150000D01*
X146812000Y-89150000D01*
X146812000Y-87923750D01*
X147175000Y-87923750D01*
X147175000Y-88650000D01*
X147926250Y-88650000D01*
X148085000Y-88491250D01*
X148085000Y-88273690D01*
X147988327Y-88040301D01*
X147809698Y-87861673D01*
X147576309Y-87765000D01*
X147333750Y-87765000D01*
X147175000Y-87923750D01*
X146812000Y-87923750D01*
X146812000Y-87757000D01*
X151003000Y-87757000D01*
X151003000Y-115443000D01*
X151003000Y-115443000D01*
G37*
X151003000Y-115443000D02*
X146812000Y-115443000D01*
X146812000Y-114550000D01*
X147175000Y-114550000D01*
X147175000Y-115276250D01*
X147333750Y-115435000D01*
X147576309Y-115435000D01*
X147809698Y-115338327D01*
X147988327Y-115159699D01*
X148085000Y-114926310D01*
X148085000Y-114708750D01*
X147926250Y-114550000D01*
X147175000Y-114550000D01*
X146812000Y-114550000D01*
X146812000Y-113069918D01*
X146910821Y-112971269D01*
X147065824Y-112597982D01*
X147065910Y-112498750D01*
X147115000Y-112498750D01*
X147115000Y-112716310D01*
X147211673Y-112949699D01*
X147390302Y-113128327D01*
X147478838Y-113165000D01*
X147333750Y-113165000D01*
X147175000Y-113323750D01*
X147175000Y-114050000D01*
X147926250Y-114050000D01*
X148085000Y-113891250D01*
X148085000Y-113673690D01*
X147988327Y-113440301D01*
X147809698Y-113261673D01*
X147721162Y-113225000D01*
X147966250Y-113225000D01*
X148125000Y-113066250D01*
X148125000Y-112340000D01*
X148875000Y-112340000D01*
X148875000Y-113066250D01*
X149033750Y-113225000D01*
X149376309Y-113225000D01*
X149609698Y-113128327D01*
X149788327Y-112949699D01*
X149885000Y-112716310D01*
X149885000Y-112498750D01*
X149726250Y-112340000D01*
X148875000Y-112340000D01*
X148125000Y-112340000D01*
X147273750Y-112340000D01*
X147115000Y-112498750D01*
X147065910Y-112498750D01*
X147066176Y-112193792D01*
X146911825Y-111820234D01*
X146851841Y-111760146D01*
X146910821Y-111701269D01*
X147009472Y-111463690D01*
X147115000Y-111463690D01*
X147115000Y-111681250D01*
X147273750Y-111840000D01*
X148125000Y-111840000D01*
X148125000Y-111113750D01*
X148875000Y-111113750D01*
X148875000Y-111840000D01*
X149726250Y-111840000D01*
X149885000Y-111681250D01*
X149885000Y-111463690D01*
X149788327Y-111230301D01*
X149609698Y-111051673D01*
X149376309Y-110955000D01*
X149033750Y-110955000D01*
X148875000Y-111113750D01*
X148125000Y-111113750D01*
X147966250Y-110955000D01*
X147623691Y-110955000D01*
X147390302Y-111051673D01*
X147211673Y-111230301D01*
X147115000Y-111463690D01*
X147009472Y-111463690D01*
X147065824Y-111327982D01*
X147066176Y-110923792D01*
X146911825Y-110550234D01*
X146812000Y-110450235D01*
X146812000Y-110026946D01*
X147246451Y-109592495D01*
X147360165Y-109769210D01*
X147538412Y-109891001D01*
X147750000Y-109933849D01*
X149250000Y-109933849D01*
X149447666Y-109896656D01*
X149629210Y-109779835D01*
X149751001Y-109601588D01*
X149793849Y-109390000D01*
X149793849Y-108390000D01*
X149756656Y-108192334D01*
X149639835Y-108010790D01*
X149461588Y-107888999D01*
X149250000Y-107846151D01*
X147750000Y-107846151D01*
X147552334Y-107883344D01*
X147447000Y-107951125D01*
X147447000Y-104348195D01*
X147788667Y-104207021D01*
X148653982Y-103343214D01*
X149122865Y-102214019D01*
X149123932Y-100991345D01*
X148657021Y-99861333D01*
X147793214Y-98996018D01*
X146812000Y-98588582D01*
X146812000Y-98507065D01*
X146801994Y-98457655D01*
X146773553Y-98416030D01*
X146731159Y-98388750D01*
X146685000Y-98380065D01*
X145542000Y-98380065D01*
X145542000Y-95459065D01*
X146685000Y-95459065D01*
X146734410Y-95449059D01*
X146776035Y-95420618D01*
X146803315Y-95378224D01*
X146812000Y-95332065D01*
X146812000Y-94718750D01*
X147115000Y-94718750D01*
X147115000Y-94936310D01*
X147211673Y-95169699D01*
X147390302Y-95348327D01*
X147623691Y-95445000D01*
X147966250Y-95445000D01*
X148125000Y-95286250D01*
X148125000Y-94560000D01*
X148875000Y-94560000D01*
X148875000Y-95286250D01*
X149033750Y-95445000D01*
X149376309Y-95445000D01*
X149609698Y-95348327D01*
X149788327Y-95169699D01*
X149885000Y-94936310D01*
X149885000Y-94718750D01*
X149726250Y-94560000D01*
X148875000Y-94560000D01*
X148125000Y-94560000D01*
X147273750Y-94560000D01*
X147115000Y-94718750D01*
X146812000Y-94718750D01*
X146812000Y-93683690D01*
X147115000Y-93683690D01*
X147115000Y-93901250D01*
X147273750Y-94060000D01*
X148125000Y-94060000D01*
X148125000Y-93333750D01*
X148875000Y-93333750D01*
X148875000Y-94060000D01*
X149726250Y-94060000D01*
X149885000Y-93901250D01*
X149885000Y-93683690D01*
X149788327Y-93450301D01*
X149609698Y-93271673D01*
X149376309Y-93175000D01*
X149033750Y-93175000D01*
X148875000Y-93333750D01*
X148125000Y-93333750D01*
X147966250Y-93175000D01*
X147623691Y-93175000D01*
X147390302Y-93271673D01*
X147211673Y-93450301D01*
X147115000Y-93683690D01*
X146812000Y-93683690D01*
X146812000Y-93408069D01*
X146922428Y-93297834D01*
X147077431Y-92924547D01*
X147077783Y-92520357D01*
X146923432Y-92146799D01*
X146812000Y-92035172D01*
X146812000Y-91770400D01*
X147236332Y-91770400D01*
X147243344Y-91807666D01*
X147360165Y-91989210D01*
X147538412Y-92111001D01*
X147750000Y-92153849D01*
X149250000Y-92153849D01*
X149447666Y-92116656D01*
X149629210Y-91999835D01*
X149751001Y-91821588D01*
X149793849Y-91610000D01*
X149793849Y-90610000D01*
X149756656Y-90412334D01*
X149639835Y-90230790D01*
X149461588Y-90108999D01*
X149250000Y-90066151D01*
X147750000Y-90066151D01*
X147552334Y-90103344D01*
X147370790Y-90220165D01*
X147248999Y-90398412D01*
X147238633Y-90449600D01*
X146812000Y-90449600D01*
X146812000Y-89150000D01*
X147175000Y-89150000D01*
X147175000Y-89876250D01*
X147333750Y-90035000D01*
X147576309Y-90035000D01*
X147809698Y-89938327D01*
X147988327Y-89759699D01*
X148085000Y-89526310D01*
X148085000Y-89308750D01*
X147926250Y-89150000D01*
X147175000Y-89150000D01*
X146812000Y-89150000D01*
X146812000Y-87923750D01*
X147175000Y-87923750D01*
X147175000Y-88650000D01*
X147926250Y-88650000D01*
X148085000Y-88491250D01*
X148085000Y-88273690D01*
X147988327Y-88040301D01*
X147809698Y-87861673D01*
X147576309Y-87765000D01*
X147333750Y-87765000D01*
X147175000Y-87923750D01*
X146812000Y-87923750D01*
X146812000Y-87757000D01*
X151003000Y-87757000D01*
X151003000Y-115443000D01*
G36*
X145288000Y-91268054D02*
X144985000Y-91571054D01*
X144985000Y-91518750D01*
X144826250Y-91360000D01*
X143975000Y-91360000D01*
X143975000Y-91511000D01*
X143225000Y-91511000D01*
X143225000Y-91360000D01*
X142373750Y-91360000D01*
X142215000Y-91518750D01*
X142215000Y-91736310D01*
X142311673Y-91969699D01*
X142490302Y-92148327D01*
X142620685Y-92202333D01*
X142494168Y-92507018D01*
X142493816Y-92911208D01*
X142648167Y-93284766D01*
X142664439Y-93301066D01*
X142652334Y-93303344D01*
X142470790Y-93420165D01*
X142348999Y-93598412D01*
X142306151Y-93810000D01*
X142306151Y-94810000D01*
X142343344Y-95007666D01*
X142460165Y-95189210D01*
X142638412Y-95311001D01*
X142850000Y-95353849D01*
X144350000Y-95353849D01*
X144547666Y-95316656D01*
X144653000Y-95248875D01*
X144653000Y-99060000D01*
X144663006Y-99109410D01*
X144691447Y-99151035D01*
X144733841Y-99178315D01*
X144780000Y-99187000D01*
X145288000Y-99187000D01*
X145288000Y-104775000D01*
X145298006Y-104824410D01*
X145326447Y-104866035D01*
X145368841Y-104893315D01*
X145415000Y-104902000D01*
X146558000Y-104902000D01*
X146558000Y-107823000D01*
X145415000Y-107823000D01*
X145365590Y-107833006D01*
X145323965Y-107861447D01*
X145296685Y-107903841D01*
X145288000Y-107950000D01*
X145288000Y-110450083D01*
X145189179Y-110548731D01*
X145034176Y-110922018D01*
X145033824Y-111326208D01*
X145188175Y-111699766D01*
X145222948Y-111734600D01*
X144893849Y-111734600D01*
X144893849Y-111590000D01*
X144856656Y-111392334D01*
X144739835Y-111210790D01*
X144561588Y-111088999D01*
X144350000Y-111046151D01*
X142850000Y-111046151D01*
X142652334Y-111083344D01*
X142470790Y-111200165D01*
X142348999Y-111378412D01*
X142306151Y-111590000D01*
X142306151Y-112590000D01*
X142343344Y-112787666D01*
X142460165Y-112969210D01*
X142638412Y-113091001D01*
X142850000Y-113133849D01*
X144350000Y-113133849D01*
X144547666Y-113096656D01*
X144611779Y-113055400D01*
X145273660Y-113055400D01*
X145288000Y-113069765D01*
X145288000Y-115443000D01*
X141097000Y-115443000D01*
X141097000Y-114708750D01*
X144015000Y-114708750D01*
X144015000Y-114926310D01*
X144111673Y-115159699D01*
X144290302Y-115338327D01*
X144523691Y-115435000D01*
X144766250Y-115435000D01*
X144925000Y-115276250D01*
X144925000Y-114550000D01*
X144173750Y-114550000D01*
X144015000Y-114708750D01*
X141097000Y-114708750D01*
X141097000Y-113673690D01*
X144015000Y-113673690D01*
X144015000Y-113891250D01*
X144173750Y-114050000D01*
X144925000Y-114050000D01*
X144925000Y-113323750D01*
X144766250Y-113165000D01*
X144523691Y-113165000D01*
X144290302Y-113261673D01*
X144111673Y-113440301D01*
X144015000Y-113673690D01*
X141097000Y-113673690D01*
X141097000Y-109298750D01*
X142215000Y-109298750D01*
X142215000Y-109516310D01*
X142311673Y-109749699D01*
X142490302Y-109928327D01*
X142723691Y-110025000D01*
X143066250Y-110025000D01*
X143225000Y-109866250D01*
X143225000Y-109140000D01*
X143975000Y-109140000D01*
X143975000Y-109866250D01*
X144133750Y-110025000D01*
X144476309Y-110025000D01*
X144709698Y-109928327D01*
X144888327Y-109749699D01*
X144985000Y-109516310D01*
X144985000Y-109298750D01*
X144826250Y-109140000D01*
X143975000Y-109140000D01*
X143225000Y-109140000D01*
X142373750Y-109140000D01*
X142215000Y-109298750D01*
X141097000Y-109298750D01*
X141097000Y-108263690D01*
X142215000Y-108263690D01*
X142215000Y-108481250D01*
X142373750Y-108640000D01*
X143225000Y-108640000D01*
X143225000Y-107913750D01*
X143975000Y-107913750D01*
X143975000Y-108640000D01*
X144826250Y-108640000D01*
X144985000Y-108481250D01*
X144985000Y-108263690D01*
X144888327Y-108030301D01*
X144709698Y-107851673D01*
X144476309Y-107755000D01*
X144133750Y-107755000D01*
X143975000Y-107913750D01*
X143225000Y-107913750D01*
X143066250Y-107755000D01*
X142723691Y-107755000D01*
X142490302Y-107851673D01*
X142311673Y-108030301D01*
X142215000Y-108263690D01*
X141097000Y-108263690D01*
X141097000Y-90483690D01*
X142215000Y-90483690D01*
X142215000Y-90701250D01*
X142373750Y-90860000D01*
X143225000Y-90860000D01*
X143225000Y-90133750D01*
X143975000Y-90133750D01*
X143975000Y-90860000D01*
X144826250Y-90860000D01*
X144985000Y-90701250D01*
X144985000Y-90483690D01*
X144888327Y-90250301D01*
X144709698Y-90071673D01*
X144621162Y-90035000D01*
X144766250Y-90035000D01*
X144925000Y-89876250D01*
X144925000Y-89150000D01*
X144173750Y-89150000D01*
X144015000Y-89308750D01*
X144015000Y-89526310D01*
X144111673Y-89759699D01*
X144290302Y-89938327D01*
X144378838Y-89975000D01*
X144133750Y-89975000D01*
X143975000Y-90133750D01*
X143225000Y-90133750D01*
X143066250Y-89975000D01*
X142723691Y-89975000D01*
X142490302Y-90071673D01*
X142311673Y-90250301D01*
X142215000Y-90483690D01*
X141097000Y-90483690D01*
X141097000Y-88273690D01*
X144015000Y-88273690D01*
X144015000Y-88491250D01*
X144173750Y-88650000D01*
X144925000Y-88650000D01*
X144925000Y-87923750D01*
X144766250Y-87765000D01*
X144523691Y-87765000D01*
X144290302Y-87861673D01*
X144111673Y-88040301D01*
X144015000Y-88273690D01*
X141097000Y-88273690D01*
X141097000Y-87757000D01*
X145288000Y-87757000D01*
X145288000Y-91268054D01*
X145288000Y-91268054D01*
G37*
X145288000Y-91268054D02*
X144985000Y-91571054D01*
X144985000Y-91518750D01*
X144826250Y-91360000D01*
X143975000Y-91360000D01*
X143975000Y-91511000D01*
X143225000Y-91511000D01*
X143225000Y-91360000D01*
X142373750Y-91360000D01*
X142215000Y-91518750D01*
X142215000Y-91736310D01*
X142311673Y-91969699D01*
X142490302Y-92148327D01*
X142620685Y-92202333D01*
X142494168Y-92507018D01*
X142493816Y-92911208D01*
X142648167Y-93284766D01*
X142664439Y-93301066D01*
X142652334Y-93303344D01*
X142470790Y-93420165D01*
X142348999Y-93598412D01*
X142306151Y-93810000D01*
X142306151Y-94810000D01*
X142343344Y-95007666D01*
X142460165Y-95189210D01*
X142638412Y-95311001D01*
X142850000Y-95353849D01*
X144350000Y-95353849D01*
X144547666Y-95316656D01*
X144653000Y-95248875D01*
X144653000Y-99060000D01*
X144663006Y-99109410D01*
X144691447Y-99151035D01*
X144733841Y-99178315D01*
X144780000Y-99187000D01*
X145288000Y-99187000D01*
X145288000Y-104775000D01*
X145298006Y-104824410D01*
X145326447Y-104866035D01*
X145368841Y-104893315D01*
X145415000Y-104902000D01*
X146558000Y-104902000D01*
X146558000Y-107823000D01*
X145415000Y-107823000D01*
X145365590Y-107833006D01*
X145323965Y-107861447D01*
X145296685Y-107903841D01*
X145288000Y-107950000D01*
X145288000Y-110450083D01*
X145189179Y-110548731D01*
X145034176Y-110922018D01*
X145033824Y-111326208D01*
X145188175Y-111699766D01*
X145222948Y-111734600D01*
X144893849Y-111734600D01*
X144893849Y-111590000D01*
X144856656Y-111392334D01*
X144739835Y-111210790D01*
X144561588Y-111088999D01*
X144350000Y-111046151D01*
X142850000Y-111046151D01*
X142652334Y-111083344D01*
X142470790Y-111200165D01*
X142348999Y-111378412D01*
X142306151Y-111590000D01*
X142306151Y-112590000D01*
X142343344Y-112787666D01*
X142460165Y-112969210D01*
X142638412Y-113091001D01*
X142850000Y-113133849D01*
X144350000Y-113133849D01*
X144547666Y-113096656D01*
X144611779Y-113055400D01*
X145273660Y-113055400D01*
X145288000Y-113069765D01*
X145288000Y-115443000D01*
X141097000Y-115443000D01*
X141097000Y-114708750D01*
X144015000Y-114708750D01*
X144015000Y-114926310D01*
X144111673Y-115159699D01*
X144290302Y-115338327D01*
X144523691Y-115435000D01*
X144766250Y-115435000D01*
X144925000Y-115276250D01*
X144925000Y-114550000D01*
X144173750Y-114550000D01*
X144015000Y-114708750D01*
X141097000Y-114708750D01*
X141097000Y-113673690D01*
X144015000Y-113673690D01*
X144015000Y-113891250D01*
X144173750Y-114050000D01*
X144925000Y-114050000D01*
X144925000Y-113323750D01*
X144766250Y-113165000D01*
X144523691Y-113165000D01*
X144290302Y-113261673D01*
X144111673Y-113440301D01*
X144015000Y-113673690D01*
X141097000Y-113673690D01*
X141097000Y-109298750D01*
X142215000Y-109298750D01*
X142215000Y-109516310D01*
X142311673Y-109749699D01*
X142490302Y-109928327D01*
X142723691Y-110025000D01*
X143066250Y-110025000D01*
X143225000Y-109866250D01*
X143225000Y-109140000D01*
X143975000Y-109140000D01*
X143975000Y-109866250D01*
X144133750Y-110025000D01*
X144476309Y-110025000D01*
X144709698Y-109928327D01*
X144888327Y-109749699D01*
X144985000Y-109516310D01*
X144985000Y-109298750D01*
X144826250Y-109140000D01*
X143975000Y-109140000D01*
X143225000Y-109140000D01*
X142373750Y-109140000D01*
X142215000Y-109298750D01*
X141097000Y-109298750D01*
X141097000Y-108263690D01*
X142215000Y-108263690D01*
X142215000Y-108481250D01*
X142373750Y-108640000D01*
X143225000Y-108640000D01*
X143225000Y-107913750D01*
X143975000Y-107913750D01*
X143975000Y-108640000D01*
X144826250Y-108640000D01*
X144985000Y-108481250D01*
X144985000Y-108263690D01*
X144888327Y-108030301D01*
X144709698Y-107851673D01*
X144476309Y-107755000D01*
X144133750Y-107755000D01*
X143975000Y-107913750D01*
X143225000Y-107913750D01*
X143066250Y-107755000D01*
X142723691Y-107755000D01*
X142490302Y-107851673D01*
X142311673Y-108030301D01*
X142215000Y-108263690D01*
X141097000Y-108263690D01*
X141097000Y-90483690D01*
X142215000Y-90483690D01*
X142215000Y-90701250D01*
X142373750Y-90860000D01*
X143225000Y-90860000D01*
X143225000Y-90133750D01*
X143975000Y-90133750D01*
X143975000Y-90860000D01*
X144826250Y-90860000D01*
X144985000Y-90701250D01*
X144985000Y-90483690D01*
X144888327Y-90250301D01*
X144709698Y-90071673D01*
X144621162Y-90035000D01*
X144766250Y-90035000D01*
X144925000Y-89876250D01*
X144925000Y-89150000D01*
X144173750Y-89150000D01*
X144015000Y-89308750D01*
X144015000Y-89526310D01*
X144111673Y-89759699D01*
X144290302Y-89938327D01*
X144378838Y-89975000D01*
X144133750Y-89975000D01*
X143975000Y-90133750D01*
X143225000Y-90133750D01*
X143066250Y-89975000D01*
X142723691Y-89975000D01*
X142490302Y-90071673D01*
X142311673Y-90250301D01*
X142215000Y-90483690D01*
X141097000Y-90483690D01*
X141097000Y-88273690D01*
X144015000Y-88273690D01*
X144015000Y-88491250D01*
X144173750Y-88650000D01*
X144925000Y-88650000D01*
X144925000Y-87923750D01*
X144766250Y-87765000D01*
X144523691Y-87765000D01*
X144290302Y-87861673D01*
X144111673Y-88040301D01*
X144015000Y-88273690D01*
X141097000Y-88273690D01*
X141097000Y-87757000D01*
X145288000Y-87757000D01*
X145288000Y-91268054D01*
D20*
X149860000Y-100330000D03*
X149860000Y-99060000D03*
X148618354Y-99031646D03*
X146050000Y-97790000D03*
X146050000Y-95885000D03*
X142240000Y-102870000D03*
X142240000Y-104140000D03*
X143510000Y-104140000D03*
X146050000Y-105410000D03*
X146050000Y-107315000D03*
X146061607Y-92721565D03*
X146050000Y-111125000D03*
X143509992Y-92710000D03*
X146050000Y-112395000D03*
X146050000Y-101600000D03*
X146050000Y-99695000D03*
X144400222Y-100647500D03*
X144400222Y-102552500D03*
X146050000Y-103505000D03*
X147699778Y-102552500D03*
X147699778Y-100647500D03*
M02*
