G04 #@! TF.FileFunction,Copper,L2,Bot,Signal*
%FSLAX46Y46*%
G04 Gerber Fmt 4.6, Leading zero omitted, Abs format (unit mm)*
G04 Created by KiCad (PCBNEW (2016-05-03 BZR 6266)-product) date Mon Jul 11 04:52:19 2016*
%MOMM*%
%LPD*%
G01*
G04 APERTURE LIST*
%ADD10C,0.350000*%
%ADD11C,0.150000*%
%ADD12O,3.175000X1.270000*%
%ADD13C,5.080000*%
%ADD14C,1.016000*%
%ADD15R,3.810000X2.540000*%
%ADD16C,1.270000*%
%ADD17C,0.965200*%
%ADD18C,0.406400*%
%ADD19C,0.254000*%
%ADD20C,0.350000*%
G04 APERTURE END LIST*
D10*
D11*
X140335000Y-86995000D02*
X140335000Y-116205000D01*
X151765000Y-86995000D02*
X140335000Y-86995000D01*
X151765000Y-116205000D02*
X151765000Y-86995000D01*
X140335000Y-116205000D02*
X151765000Y-116205000D01*
D12*
X146050000Y-91440000D03*
X146050000Y-88900000D03*
D13*
X146050000Y-101600000D03*
D14*
X146050000Y-99695000D03*
X144400222Y-100647500D03*
X144400222Y-102552500D03*
X146050000Y-103505000D03*
X147699778Y-102552500D03*
X147699778Y-100647500D03*
D15*
X143510000Y-96520000D03*
X143510000Y-106680000D03*
X148590000Y-96520000D03*
X148590000Y-106680000D03*
D16*
X149860000Y-100330000D03*
X149860000Y-99060000D03*
X148618354Y-99031646D03*
X146050000Y-97790000D03*
X146050000Y-95885000D03*
X142240000Y-102870000D03*
X142240000Y-104140000D03*
X143510000Y-104140000D03*
X146050000Y-105410000D03*
X146050000Y-107315000D03*
D17*
X146061607Y-92721565D03*
X146050000Y-111125000D03*
X143509992Y-92710000D03*
X146050000Y-112395000D03*
D18*
X149860000Y-99060000D02*
X149860000Y-100330000D01*
X148590000Y-96520000D02*
X148590000Y-99003292D01*
X148590000Y-99003292D02*
X148618354Y-99031646D01*
X149225000Y-96520000D02*
X146685000Y-96520000D01*
X146685000Y-96520000D02*
X146050000Y-95885000D01*
X142240000Y-104140000D02*
X142240000Y-102870000D01*
X143510000Y-106680000D02*
X143510000Y-104140000D01*
X149225000Y-106680000D02*
X146685000Y-106680000D01*
X146685000Y-106680000D02*
X146050000Y-107315000D01*
D19*
X146050000Y-92709958D02*
X146061607Y-92721565D01*
X146050000Y-91440000D02*
X146050000Y-92709958D01*
X146050000Y-111125000D02*
X149860000Y-111125000D01*
X149860000Y-111125000D02*
X151130000Y-109855000D01*
X151130000Y-109855000D02*
X151130000Y-90170000D01*
X151130000Y-90170000D02*
X149860000Y-88900000D01*
X149860000Y-88900000D02*
X146050000Y-88900000D01*
X146050000Y-112395000D02*
X142875000Y-112395000D01*
X142875000Y-112395000D02*
X140970000Y-110490000D01*
X140970000Y-110490000D02*
X140970000Y-93980000D01*
X140970000Y-93980000D02*
X142240000Y-92710000D01*
X142240000Y-92710000D02*
X143509992Y-92710000D01*
G36*
X142933723Y-93570821D02*
X143307010Y-93725824D01*
X143711200Y-93726176D01*
X144084758Y-93571825D01*
X144184757Y-93472000D01*
X145375145Y-93472000D01*
X145485338Y-93582386D01*
X145858625Y-93737389D01*
X146262815Y-93737741D01*
X146636373Y-93583390D01*
X146747958Y-93472000D01*
X150368000Y-93472000D01*
X150368000Y-100838000D01*
X149060571Y-100838000D01*
X148657021Y-99861333D01*
X147793214Y-98996018D01*
X146664019Y-98527135D01*
X145441345Y-98526068D01*
X144311333Y-98992979D01*
X143446018Y-99856786D01*
X143038582Y-100838000D01*
X141732000Y-100838000D01*
X141732000Y-94151946D01*
X142411946Y-93472000D01*
X142835075Y-93472000D01*
X142933723Y-93570821D01*
X142933723Y-93570821D01*
G37*
X142933723Y-93570821D02*
X143307010Y-93725824D01*
X143711200Y-93726176D01*
X144084758Y-93571825D01*
X144184757Y-93472000D01*
X145375145Y-93472000D01*
X145485338Y-93582386D01*
X145858625Y-93737389D01*
X146262815Y-93737741D01*
X146636373Y-93583390D01*
X146747958Y-93472000D01*
X150368000Y-93472000D01*
X150368000Y-100838000D01*
X149060571Y-100838000D01*
X148657021Y-99861333D01*
X147793214Y-98996018D01*
X146664019Y-98527135D01*
X145441345Y-98526068D01*
X144311333Y-98992979D01*
X143446018Y-99856786D01*
X143038582Y-100838000D01*
X141732000Y-100838000D01*
X141732000Y-94151946D01*
X142411946Y-93472000D01*
X142835075Y-93472000D01*
X142933723Y-93570821D01*
G36*
X150368000Y-109539369D02*
X150179369Y-109728000D01*
X141732000Y-109728000D01*
X141732000Y-102362000D01*
X150368000Y-102362000D01*
X150368000Y-109539369D01*
X150368000Y-109539369D01*
G37*
X150368000Y-109539369D02*
X150179369Y-109728000D01*
X141732000Y-109728000D01*
X141732000Y-102362000D01*
X150368000Y-102362000D01*
X150368000Y-109539369D01*
D20*
X149860000Y-100330000D03*
X149860000Y-99060000D03*
X148618354Y-99031646D03*
X146050000Y-97790000D03*
X146050000Y-95885000D03*
X142240000Y-102870000D03*
X142240000Y-104140000D03*
X143510000Y-104140000D03*
X146050000Y-105410000D03*
X146050000Y-107315000D03*
X146061607Y-92721565D03*
X146050000Y-111125000D03*
X143509992Y-92710000D03*
X146050000Y-112395000D03*
X146050000Y-101600000D03*
X146050000Y-99695000D03*
X144400222Y-100647500D03*
X144400222Y-102552500D03*
X146050000Y-103505000D03*
X147699778Y-102552500D03*
X147699778Y-100647500D03*
M02*
