G04 #@! TF.FileFunction,Copper,L2,Inr,Signal*
%FSLAX46Y46*%
G04 Gerber Fmt 4.6, Leading zero omitted, Abs format (unit mm)*
G04 Created by KiCad (PCBNEW (2016-05-03 BZR 6266)-product) date Mon Jul 11 04:52:19 2016*
%MOMM*%
%LPD*%
G01*
G04 APERTURE LIST*
%ADD10C,0.350000*%
%ADD11C,0.150000*%
%ADD12C,5.080000*%
%ADD13C,1.016000*%
%ADD14C,1.270000*%
%ADD15C,0.965200*%
%ADD16C,0.254000*%
%ADD17C,0.350000*%
G04 APERTURE END LIST*
D10*
D11*
X140335000Y-86995000D02*
X140335000Y-116205000D01*
X151765000Y-86995000D02*
X140335000Y-86995000D01*
X151765000Y-116205000D02*
X151765000Y-86995000D01*
X140335000Y-116205000D02*
X151765000Y-116205000D01*
D12*
X146050000Y-101600000D03*
D13*
X146050000Y-99695000D03*
X144400222Y-100647500D03*
X144400222Y-102552500D03*
X146050000Y-103505000D03*
X147699778Y-102552500D03*
X147699778Y-100647500D03*
D14*
X149860000Y-100330000D03*
X149860000Y-99060000D03*
X148618354Y-99031646D03*
X146050000Y-97790000D03*
X146050000Y-95885000D03*
X142240000Y-102870000D03*
X142240000Y-104140000D03*
X143510000Y-104140000D03*
X146050000Y-105410000D03*
X146050000Y-107315000D03*
D15*
X146061607Y-92721565D03*
X146050000Y-111125000D03*
X143509992Y-92710000D03*
X146050000Y-112395000D03*
D16*
G36*
X151055000Y-98626443D02*
X150937282Y-98341542D01*
X150580337Y-97983974D01*
X150113727Y-97790221D01*
X149608490Y-97789780D01*
X149273070Y-97928372D01*
X148872081Y-97761867D01*
X148366844Y-97761426D01*
X147899896Y-97954364D01*
X147542328Y-98311309D01*
X147348575Y-98777919D01*
X147348134Y-99283156D01*
X147541072Y-99750104D01*
X147898017Y-100107672D01*
X148364627Y-100301425D01*
X148590024Y-100301622D01*
X148589780Y-100581510D01*
X148782718Y-101048458D01*
X149139663Y-101406026D01*
X149606273Y-101599779D01*
X150111510Y-101600220D01*
X150578458Y-101407282D01*
X150936026Y-101050337D01*
X151055000Y-100763815D01*
X151055000Y-115495000D01*
X141045000Y-115495000D01*
X141045000Y-111346329D01*
X144932207Y-111346329D01*
X145101992Y-111757242D01*
X145104475Y-111759729D01*
X145103097Y-111761104D01*
X144932594Y-112171720D01*
X144932207Y-112616329D01*
X145101992Y-113027242D01*
X145416104Y-113341903D01*
X145826720Y-113512406D01*
X146271329Y-113512793D01*
X146682242Y-113343008D01*
X146996903Y-113028896D01*
X147167406Y-112618280D01*
X147167793Y-112173671D01*
X146998008Y-111762758D01*
X146995525Y-111760271D01*
X146996903Y-111758896D01*
X147167406Y-111348280D01*
X147167793Y-110903671D01*
X146998008Y-110492758D01*
X146683896Y-110178097D01*
X146273280Y-110007594D01*
X145828671Y-110007207D01*
X145417758Y-110176992D01*
X145103097Y-110491104D01*
X144932594Y-110901720D01*
X144932207Y-111346329D01*
X141045000Y-111346329D01*
X141045000Y-96136510D01*
X144779780Y-96136510D01*
X144972718Y-96603458D01*
X145206447Y-96837595D01*
X144973974Y-97069663D01*
X144780221Y-97536273D01*
X144779780Y-98041510D01*
X144972718Y-98508458D01*
X145329663Y-98866026D01*
X145796273Y-99059779D01*
X146301510Y-99060220D01*
X146768458Y-98867282D01*
X147126026Y-98510337D01*
X147319779Y-98043727D01*
X147320220Y-97538490D01*
X147127282Y-97071542D01*
X146893553Y-96837405D01*
X147126026Y-96605337D01*
X147319779Y-96138727D01*
X147320220Y-95633490D01*
X147127282Y-95166542D01*
X146770337Y-94808974D01*
X146303727Y-94615221D01*
X145798490Y-94614780D01*
X145331542Y-94807718D01*
X144973974Y-95164663D01*
X144780221Y-95631273D01*
X144779780Y-96136510D01*
X141045000Y-96136510D01*
X141045000Y-92931329D01*
X142392199Y-92931329D01*
X142561984Y-93342242D01*
X142876096Y-93656903D01*
X143286712Y-93827406D01*
X143731321Y-93827793D01*
X144142234Y-93658008D01*
X144456895Y-93343896D01*
X144623405Y-92942894D01*
X144943814Y-92942894D01*
X145113599Y-93353807D01*
X145427711Y-93668468D01*
X145838327Y-93838971D01*
X146282936Y-93839358D01*
X146693849Y-93669573D01*
X147008510Y-93355461D01*
X147179013Y-92944845D01*
X147179400Y-92500236D01*
X147009615Y-92089323D01*
X146695503Y-91774662D01*
X146284887Y-91604159D01*
X145840278Y-91603772D01*
X145429365Y-91773557D01*
X145114704Y-92087669D01*
X144944201Y-92498285D01*
X144943814Y-92942894D01*
X144623405Y-92942894D01*
X144627398Y-92933280D01*
X144627785Y-92488671D01*
X144458000Y-92077758D01*
X144143888Y-91763097D01*
X143733272Y-91592594D01*
X143288663Y-91592207D01*
X142877750Y-91761992D01*
X142563089Y-92076104D01*
X142392586Y-92486720D01*
X142392199Y-92931329D01*
X141045000Y-92931329D01*
X141045000Y-87705000D01*
X151055000Y-87705000D01*
X151055000Y-98626443D01*
X151055000Y-98626443D01*
G37*
X151055000Y-98626443D02*
X150937282Y-98341542D01*
X150580337Y-97983974D01*
X150113727Y-97790221D01*
X149608490Y-97789780D01*
X149273070Y-97928372D01*
X148872081Y-97761867D01*
X148366844Y-97761426D01*
X147899896Y-97954364D01*
X147542328Y-98311309D01*
X147348575Y-98777919D01*
X147348134Y-99283156D01*
X147541072Y-99750104D01*
X147898017Y-100107672D01*
X148364627Y-100301425D01*
X148590024Y-100301622D01*
X148589780Y-100581510D01*
X148782718Y-101048458D01*
X149139663Y-101406026D01*
X149606273Y-101599779D01*
X150111510Y-101600220D01*
X150578458Y-101407282D01*
X150936026Y-101050337D01*
X151055000Y-100763815D01*
X151055000Y-115495000D01*
X141045000Y-115495000D01*
X141045000Y-111346329D01*
X144932207Y-111346329D01*
X145101992Y-111757242D01*
X145104475Y-111759729D01*
X145103097Y-111761104D01*
X144932594Y-112171720D01*
X144932207Y-112616329D01*
X145101992Y-113027242D01*
X145416104Y-113341903D01*
X145826720Y-113512406D01*
X146271329Y-113512793D01*
X146682242Y-113343008D01*
X146996903Y-113028896D01*
X147167406Y-112618280D01*
X147167793Y-112173671D01*
X146998008Y-111762758D01*
X146995525Y-111760271D01*
X146996903Y-111758896D01*
X147167406Y-111348280D01*
X147167793Y-110903671D01*
X146998008Y-110492758D01*
X146683896Y-110178097D01*
X146273280Y-110007594D01*
X145828671Y-110007207D01*
X145417758Y-110176992D01*
X145103097Y-110491104D01*
X144932594Y-110901720D01*
X144932207Y-111346329D01*
X141045000Y-111346329D01*
X141045000Y-96136510D01*
X144779780Y-96136510D01*
X144972718Y-96603458D01*
X145206447Y-96837595D01*
X144973974Y-97069663D01*
X144780221Y-97536273D01*
X144779780Y-98041510D01*
X144972718Y-98508458D01*
X145329663Y-98866026D01*
X145796273Y-99059779D01*
X146301510Y-99060220D01*
X146768458Y-98867282D01*
X147126026Y-98510337D01*
X147319779Y-98043727D01*
X147320220Y-97538490D01*
X147127282Y-97071542D01*
X146893553Y-96837405D01*
X147126026Y-96605337D01*
X147319779Y-96138727D01*
X147320220Y-95633490D01*
X147127282Y-95166542D01*
X146770337Y-94808974D01*
X146303727Y-94615221D01*
X145798490Y-94614780D01*
X145331542Y-94807718D01*
X144973974Y-95164663D01*
X144780221Y-95631273D01*
X144779780Y-96136510D01*
X141045000Y-96136510D01*
X141045000Y-92931329D01*
X142392199Y-92931329D01*
X142561984Y-93342242D01*
X142876096Y-93656903D01*
X143286712Y-93827406D01*
X143731321Y-93827793D01*
X144142234Y-93658008D01*
X144456895Y-93343896D01*
X144623405Y-92942894D01*
X144943814Y-92942894D01*
X145113599Y-93353807D01*
X145427711Y-93668468D01*
X145838327Y-93838971D01*
X146282936Y-93839358D01*
X146693849Y-93669573D01*
X147008510Y-93355461D01*
X147179013Y-92944845D01*
X147179400Y-92500236D01*
X147009615Y-92089323D01*
X146695503Y-91774662D01*
X146284887Y-91604159D01*
X145840278Y-91603772D01*
X145429365Y-91773557D01*
X145114704Y-92087669D01*
X144944201Y-92498285D01*
X144943814Y-92942894D01*
X144623405Y-92942894D01*
X144627398Y-92933280D01*
X144627785Y-92488671D01*
X144458000Y-92077758D01*
X144143888Y-91763097D01*
X143733272Y-91592594D01*
X143288663Y-91592207D01*
X142877750Y-91761992D01*
X142563089Y-92076104D01*
X142392586Y-92486720D01*
X142392199Y-92931329D01*
X141045000Y-92931329D01*
X141045000Y-87705000D01*
X151055000Y-87705000D01*
X151055000Y-98626443D01*
D17*
X149860000Y-100330000D03*
X149860000Y-99060000D03*
X148618354Y-99031646D03*
X146050000Y-97790000D03*
X146050000Y-95885000D03*
X142240000Y-102870000D03*
X142240000Y-104140000D03*
X143510000Y-104140000D03*
X146050000Y-105410000D03*
X146050000Y-107315000D03*
X146061607Y-92721565D03*
X146050000Y-111125000D03*
X143509992Y-92710000D03*
X146050000Y-112395000D03*
X146050000Y-101600000D03*
X146050000Y-99695000D03*
X144400222Y-100647500D03*
X144400222Y-102552500D03*
X146050000Y-103505000D03*
X147699778Y-102552500D03*
X147699778Y-100647500D03*
M02*
