G04 #@! TF.GenerationSoftware,KiCad,Pcbnew,5.0.0-fee4fd1~65~ubuntu17.10.1*
G04 #@! TF.CreationDate,2018-08-22T05:20:18-04:00*
G04 #@! TF.ProjectId,rgb-dots,7267622D646F74732E6B696361645F70,B*
G04 #@! TF.SameCoordinates,Original*
G04 #@! TF.FileFunction,Copper,L3,Inr,Signal*
G04 #@! TF.FilePolarity,Positive*
%FSLAX46Y46*%
G04 Gerber Fmt 4.6, Leading zero omitted, Abs format (unit mm)*
G04 Created by KiCad (PCBNEW 5.0.0-fee4fd1~65~ubuntu17.10.1) date Wed Aug 22 05:20:18 2018*
%MOMM*%
%LPD*%
G01*
G04 APERTURE LIST*
G04 #@! TA.AperFunction,ViaPad*
%ADD10C,5.080000*%
G04 #@! TD*
G04 #@! TA.AperFunction,ViaPad*
%ADD11C,1.016000*%
G04 #@! TD*
G04 #@! TA.AperFunction,ViaPad*
%ADD12C,1.270000*%
G04 #@! TD*
G04 #@! TA.AperFunction,ViaPad*
%ADD13C,0.965200*%
G04 #@! TD*
G04 #@! TA.AperFunction,Conductor*
%ADD14C,0.254000*%
G04 #@! TD*
%ADD15C,0.350000*%
G04 APERTURE END LIST*
D10*
G04 #@! TO.N,GND*
G04 #@! TO.C,H1*
X146050000Y-101600000D03*
D11*
X146050000Y-99695000D03*
X144400222Y-100647500D03*
X144400222Y-102552500D03*
X146050000Y-103505000D03*
X147699778Y-102552500D03*
X147699778Y-100647500D03*
G04 #@! TD*
D12*
G04 #@! TO.N,+5V*
X149860000Y-100330000D03*
X149860000Y-99060000D03*
X148618354Y-99031646D03*
X146050000Y-97790000D03*
X146050000Y-95885000D03*
G04 #@! TO.N,GND*
X142240000Y-102870000D03*
X142240000Y-104140000D03*
X143510000Y-104140000D03*
X146050000Y-105410000D03*
X146050000Y-107315000D03*
D13*
G04 #@! TO.N,/DIN*
X146061607Y-92721565D03*
G04 #@! TO.N,/DOUT*
X146050000Y-111125000D03*
G04 #@! TO.N,Net-(U1-Pad2)*
X143509992Y-92710000D03*
X146050000Y-112395000D03*
G04 #@! TD*
D14*
G04 #@! TO.N,+5V*
G36*
X151055000Y-115495000D02*
X141045000Y-115495000D01*
X141045000Y-111346329D01*
X144932207Y-111346329D01*
X145101992Y-111757242D01*
X145104475Y-111759729D01*
X145103097Y-111761104D01*
X144932594Y-112171720D01*
X144932207Y-112616329D01*
X145101992Y-113027242D01*
X145416104Y-113341903D01*
X145826720Y-113512406D01*
X146271329Y-113512793D01*
X146682242Y-113343008D01*
X146996903Y-113028896D01*
X147167406Y-112618280D01*
X147167793Y-112173671D01*
X146998008Y-111762758D01*
X146995525Y-111760271D01*
X146996903Y-111758896D01*
X147167406Y-111348280D01*
X147167793Y-110903671D01*
X146998008Y-110492758D01*
X146683896Y-110178097D01*
X146273280Y-110007594D01*
X145828671Y-110007207D01*
X145417758Y-110176992D01*
X145103097Y-110491104D01*
X144932594Y-110901720D01*
X144932207Y-111346329D01*
X141045000Y-111346329D01*
X141045000Y-104573557D01*
X141162718Y-104858458D01*
X141519663Y-105216026D01*
X141986273Y-105409779D01*
X142491510Y-105410220D01*
X142875368Y-105251614D01*
X143256273Y-105409779D01*
X143761510Y-105410220D01*
X144228458Y-105217282D01*
X144586026Y-104860337D01*
X144738458Y-104493240D01*
X145043750Y-104620008D01*
X144973974Y-104689663D01*
X144780221Y-105156273D01*
X144779780Y-105661510D01*
X144972718Y-106128458D01*
X145206447Y-106362595D01*
X144973974Y-106594663D01*
X144780221Y-107061273D01*
X144779780Y-107566510D01*
X144972718Y-108033458D01*
X145329663Y-108391026D01*
X145796273Y-108584779D01*
X146301510Y-108585220D01*
X146768458Y-108392282D01*
X147126026Y-108035337D01*
X147319779Y-107568727D01*
X147320220Y-107063490D01*
X147127282Y-106596542D01*
X146893553Y-106362405D01*
X147126026Y-106130337D01*
X147319779Y-105663727D01*
X147320220Y-105158490D01*
X147127282Y-104691542D01*
X147055681Y-104619816D01*
X147846143Y-104293204D01*
X148740065Y-103400841D01*
X149224448Y-102234317D01*
X149225550Y-100971224D01*
X148743204Y-99803857D01*
X147850841Y-98909935D01*
X146684317Y-98425552D01*
X145421224Y-98424450D01*
X144253857Y-98906796D01*
X143359935Y-99799159D01*
X142875552Y-100965683D01*
X142874860Y-101758481D01*
X142493727Y-101600221D01*
X141988490Y-101599780D01*
X141521542Y-101792718D01*
X141163974Y-102149663D01*
X141045000Y-102436185D01*
X141045000Y-92931329D01*
X142392199Y-92931329D01*
X142561984Y-93342242D01*
X142876096Y-93656903D01*
X143286712Y-93827406D01*
X143731321Y-93827793D01*
X144142234Y-93658008D01*
X144456895Y-93343896D01*
X144623405Y-92942894D01*
X144943814Y-92942894D01*
X145113599Y-93353807D01*
X145427711Y-93668468D01*
X145838327Y-93838971D01*
X146282936Y-93839358D01*
X146693849Y-93669573D01*
X147008510Y-93355461D01*
X147179013Y-92944845D01*
X147179400Y-92500236D01*
X147009615Y-92089323D01*
X146695503Y-91774662D01*
X146284887Y-91604159D01*
X145840278Y-91603772D01*
X145429365Y-91773557D01*
X145114704Y-92087669D01*
X144944201Y-92498285D01*
X144943814Y-92942894D01*
X144623405Y-92942894D01*
X144627398Y-92933280D01*
X144627785Y-92488671D01*
X144458000Y-92077758D01*
X144143888Y-91763097D01*
X143733272Y-91592594D01*
X143288663Y-91592207D01*
X142877750Y-91761992D01*
X142563089Y-92076104D01*
X142392586Y-92486720D01*
X142392199Y-92931329D01*
X141045000Y-92931329D01*
X141045000Y-87705000D01*
X151055000Y-87705000D01*
X151055000Y-115495000D01*
X151055000Y-115495000D01*
G37*
X151055000Y-115495000D02*
X141045000Y-115495000D01*
X141045000Y-111346329D01*
X144932207Y-111346329D01*
X145101992Y-111757242D01*
X145104475Y-111759729D01*
X145103097Y-111761104D01*
X144932594Y-112171720D01*
X144932207Y-112616329D01*
X145101992Y-113027242D01*
X145416104Y-113341903D01*
X145826720Y-113512406D01*
X146271329Y-113512793D01*
X146682242Y-113343008D01*
X146996903Y-113028896D01*
X147167406Y-112618280D01*
X147167793Y-112173671D01*
X146998008Y-111762758D01*
X146995525Y-111760271D01*
X146996903Y-111758896D01*
X147167406Y-111348280D01*
X147167793Y-110903671D01*
X146998008Y-110492758D01*
X146683896Y-110178097D01*
X146273280Y-110007594D01*
X145828671Y-110007207D01*
X145417758Y-110176992D01*
X145103097Y-110491104D01*
X144932594Y-110901720D01*
X144932207Y-111346329D01*
X141045000Y-111346329D01*
X141045000Y-104573557D01*
X141162718Y-104858458D01*
X141519663Y-105216026D01*
X141986273Y-105409779D01*
X142491510Y-105410220D01*
X142875368Y-105251614D01*
X143256273Y-105409779D01*
X143761510Y-105410220D01*
X144228458Y-105217282D01*
X144586026Y-104860337D01*
X144738458Y-104493240D01*
X145043750Y-104620008D01*
X144973974Y-104689663D01*
X144780221Y-105156273D01*
X144779780Y-105661510D01*
X144972718Y-106128458D01*
X145206447Y-106362595D01*
X144973974Y-106594663D01*
X144780221Y-107061273D01*
X144779780Y-107566510D01*
X144972718Y-108033458D01*
X145329663Y-108391026D01*
X145796273Y-108584779D01*
X146301510Y-108585220D01*
X146768458Y-108392282D01*
X147126026Y-108035337D01*
X147319779Y-107568727D01*
X147320220Y-107063490D01*
X147127282Y-106596542D01*
X146893553Y-106362405D01*
X147126026Y-106130337D01*
X147319779Y-105663727D01*
X147320220Y-105158490D01*
X147127282Y-104691542D01*
X147055681Y-104619816D01*
X147846143Y-104293204D01*
X148740065Y-103400841D01*
X149224448Y-102234317D01*
X149225550Y-100971224D01*
X148743204Y-99803857D01*
X147850841Y-98909935D01*
X146684317Y-98425552D01*
X145421224Y-98424450D01*
X144253857Y-98906796D01*
X143359935Y-99799159D01*
X142875552Y-100965683D01*
X142874860Y-101758481D01*
X142493727Y-101600221D01*
X141988490Y-101599780D01*
X141521542Y-101792718D01*
X141163974Y-102149663D01*
X141045000Y-102436185D01*
X141045000Y-92931329D01*
X142392199Y-92931329D01*
X142561984Y-93342242D01*
X142876096Y-93656903D01*
X143286712Y-93827406D01*
X143731321Y-93827793D01*
X144142234Y-93658008D01*
X144456895Y-93343896D01*
X144623405Y-92942894D01*
X144943814Y-92942894D01*
X145113599Y-93353807D01*
X145427711Y-93668468D01*
X145838327Y-93838971D01*
X146282936Y-93839358D01*
X146693849Y-93669573D01*
X147008510Y-93355461D01*
X147179013Y-92944845D01*
X147179400Y-92500236D01*
X147009615Y-92089323D01*
X146695503Y-91774662D01*
X146284887Y-91604159D01*
X145840278Y-91603772D01*
X145429365Y-91773557D01*
X145114704Y-92087669D01*
X144944201Y-92498285D01*
X144943814Y-92942894D01*
X144623405Y-92942894D01*
X144627398Y-92933280D01*
X144627785Y-92488671D01*
X144458000Y-92077758D01*
X144143888Y-91763097D01*
X143733272Y-91592594D01*
X143288663Y-91592207D01*
X142877750Y-91761992D01*
X142563089Y-92076104D01*
X142392586Y-92486720D01*
X142392199Y-92931329D01*
X141045000Y-92931329D01*
X141045000Y-87705000D01*
X151055000Y-87705000D01*
X151055000Y-115495000D01*
G04 #@! TD*
D15*
X149860000Y-100330000D03*
X149860000Y-99060000D03*
X148618354Y-99031646D03*
X146050000Y-97790000D03*
X146050000Y-95885000D03*
X142240000Y-102870000D03*
X142240000Y-104140000D03*
X143510000Y-104140000D03*
X146050000Y-105410000D03*
X146050000Y-107315000D03*
X146061607Y-92721565D03*
X146050000Y-111125000D03*
X143509992Y-92710000D03*
X146050000Y-112395000D03*
X146050000Y-101600000D03*
X146050000Y-99695000D03*
X144400222Y-100647500D03*
X144400222Y-102552500D03*
X146050000Y-103505000D03*
X147699778Y-102552500D03*
X147699778Y-100647500D03*
M02*
