M48
INCH,TZ
T1C0.0180
T2C0.0200
T3C0.0240
T4C0.0890
%
G90
G05
T1
X56500Y-36500
X57500Y-43750
X57500Y-44250
X57505Y-36505
T2
X56850Y-39625
X56850Y-40375
X57500Y-39250
X57500Y-40750
X58150Y-39625
X58150Y-40375
T3
X56000Y-40500
X56000Y-41000
X56500Y-41000
X57500Y-37750
X57500Y-38500
X57500Y-41500
X57500Y-42250
X58511Y-38989
X59000Y-39000
X59000Y-39500
T4
X57500Y-40000
T0
M30
