G04 #@! TF.GenerationSoftware,KiCad,Pcbnew,5.0.0-fee4fd1~65~ubuntu17.10.1*
G04 #@! TF.CreationDate,2018-08-22T05:20:18-04:00*
G04 #@! TF.ProjectId,rgb-dots,7267622D646F74732E6B696361645F70,B*
G04 #@! TF.SameCoordinates,Original*
G04 #@! TF.FileFunction,Legend,Bot*
G04 #@! TF.FilePolarity,Positive*
%FSLAX46Y46*%
G04 Gerber Fmt 4.6, Leading zero omitted, Abs format (unit mm)*
G04 Created by KiCad (PCBNEW 5.0.0-fee4fd1~65~ubuntu17.10.1) date Wed Aug 22 05:20:18 2018*
%MOMM*%
%LPD*%
G01*
G04 APERTURE LIST*
%ADD10C,0.254000*%
%ADD11C,0.050000*%
%ADD12C,0.002540*%
G04 APERTURE END LIST*
D10*
X142064619Y-89087476D02*
X141580809Y-88748809D01*
X142064619Y-88506904D02*
X141048619Y-88506904D01*
X141048619Y-88893952D01*
X141097000Y-88990714D01*
X141145380Y-89039095D01*
X141242142Y-89087476D01*
X141387285Y-89087476D01*
X141484047Y-89039095D01*
X141532428Y-88990714D01*
X141580809Y-88893952D01*
X141580809Y-88506904D01*
X141532428Y-89522904D02*
X141532428Y-89861571D01*
X142064619Y-90006714D02*
X142064619Y-89522904D01*
X141048619Y-89522904D01*
X141048619Y-90006714D01*
X141048619Y-90297000D02*
X142064619Y-90635666D01*
X141048619Y-90974333D01*
X141967857Y-91313000D02*
X142016238Y-91361380D01*
X142064619Y-91313000D01*
X142016238Y-91264619D01*
X141967857Y-91313000D01*
X142064619Y-91313000D01*
X141532428Y-92909571D02*
X141580809Y-93054714D01*
X141629190Y-93103095D01*
X141725952Y-93151476D01*
X141871095Y-93151476D01*
X141967857Y-93103095D01*
X142016238Y-93054714D01*
X142064619Y-92957952D01*
X142064619Y-92570904D01*
X141048619Y-92570904D01*
X141048619Y-92909571D01*
X141097000Y-93006333D01*
X141145380Y-93054714D01*
X141242142Y-93103095D01*
X141338904Y-93103095D01*
X141435666Y-93054714D01*
X141484047Y-93006333D01*
X141532428Y-92909571D01*
X141532428Y-92570904D01*
X149769285Y-89359619D02*
X149769285Y-88343619D01*
X149527380Y-88343619D01*
X149382238Y-88392000D01*
X149285476Y-88488761D01*
X149237095Y-88585523D01*
X149188714Y-88779047D01*
X149188714Y-88924190D01*
X149237095Y-89117714D01*
X149285476Y-89214476D01*
X149382238Y-89311238D01*
X149527380Y-89359619D01*
X149769285Y-89359619D01*
X148559761Y-88343619D02*
X148366238Y-88343619D01*
X148269476Y-88392000D01*
X148172714Y-88488761D01*
X148124333Y-88682285D01*
X148124333Y-89020952D01*
X148172714Y-89214476D01*
X148269476Y-89311238D01*
X148366238Y-89359619D01*
X148559761Y-89359619D01*
X148656523Y-89311238D01*
X148753285Y-89214476D01*
X148801666Y-89020952D01*
X148801666Y-88682285D01*
X148753285Y-88488761D01*
X148656523Y-88392000D01*
X148559761Y-88343619D01*
X149479000Y-92026619D02*
X149479000Y-91010619D01*
X149237095Y-91010619D01*
X149091952Y-91059000D01*
X148995190Y-91155761D01*
X148946809Y-91252523D01*
X148898428Y-91446047D01*
X148898428Y-91591190D01*
X148946809Y-91784714D01*
X148995190Y-91881476D01*
X149091952Y-91978238D01*
X149237095Y-92026619D01*
X149479000Y-92026619D01*
X148463000Y-92026619D02*
X148463000Y-91010619D01*
X146824095Y-108712000D02*
X146920857Y-108663619D01*
X147066000Y-108663619D01*
X147211142Y-108712000D01*
X147307904Y-108808761D01*
X147356285Y-108905523D01*
X147404666Y-109099047D01*
X147404666Y-109244190D01*
X147356285Y-109437714D01*
X147307904Y-109534476D01*
X147211142Y-109631238D01*
X147066000Y-109679619D01*
X146969238Y-109679619D01*
X146824095Y-109631238D01*
X146775714Y-109582857D01*
X146775714Y-109244190D01*
X146969238Y-109244190D01*
X146340285Y-109679619D02*
X146340285Y-108663619D01*
X145759714Y-109679619D01*
X145759714Y-108663619D01*
X145275904Y-109679619D02*
X145275904Y-108663619D01*
X145034000Y-108663619D01*
X144888857Y-108712000D01*
X144792095Y-108808761D01*
X144743714Y-108905523D01*
X144695333Y-109099047D01*
X144695333Y-109244190D01*
X144743714Y-109437714D01*
X144792095Y-109534476D01*
X144888857Y-109631238D01*
X145034000Y-109679619D01*
X145275904Y-109679619D01*
X147356285Y-94306571D02*
X146582190Y-94306571D01*
X146969238Y-94693619D02*
X146969238Y-93919523D01*
X145614571Y-93677619D02*
X146098380Y-93677619D01*
X146146761Y-94161428D01*
X146098380Y-94113047D01*
X146001619Y-94064666D01*
X145759714Y-94064666D01*
X145662952Y-94113047D01*
X145614571Y-94161428D01*
X145566190Y-94258190D01*
X145566190Y-94500095D01*
X145614571Y-94596857D01*
X145662952Y-94645238D01*
X145759714Y-94693619D01*
X146001619Y-94693619D01*
X146098380Y-94645238D01*
X146146761Y-94596857D01*
X145275904Y-93677619D02*
X144937238Y-94693619D01*
X144598571Y-93677619D01*
D11*
G04 #@! TO.C,SIGNATURE_SILK*
G36*
X142892379Y-112955960D02*
X142829298Y-112959227D01*
X142774945Y-112971312D01*
X142761861Y-112976516D01*
X142701545Y-113014324D01*
X142641804Y-113072202D01*
X142583342Y-113149052D01*
X142530729Y-113237293D01*
X142914248Y-113237293D01*
X142928650Y-113263292D01*
X142939792Y-113297345D01*
X142946470Y-113349147D01*
X142948780Y-113415777D01*
X142946820Y-113494317D01*
X142940687Y-113581846D01*
X142930478Y-113675444D01*
X142916291Y-113772190D01*
X142910588Y-113805230D01*
X142902365Y-113849329D01*
X142895695Y-113876600D01*
X142888578Y-113891082D01*
X142879016Y-113896814D01*
X142865010Y-113897834D01*
X142864745Y-113897834D01*
X142846918Y-113899774D01*
X142828778Y-113906956D01*
X142808001Y-113921426D01*
X142782266Y-113945227D01*
X142749251Y-113980403D01*
X142706634Y-114028999D01*
X142678860Y-114061482D01*
X142642636Y-114103840D01*
X142611486Y-114139820D01*
X142587851Y-114166635D01*
X142574175Y-114181501D01*
X142571815Y-114183584D01*
X142570756Y-114177407D01*
X142573623Y-114157857D01*
X142580746Y-114123404D01*
X142592455Y-114072517D01*
X142609082Y-114003667D01*
X142622138Y-113950750D01*
X142655794Y-113823707D01*
X142691842Y-113703312D01*
X142729393Y-113591873D01*
X142767557Y-113491696D01*
X142805444Y-113405087D01*
X142842164Y-113334352D01*
X142876828Y-113281797D01*
X142883262Y-113273876D01*
X142914248Y-113237293D01*
X142530729Y-113237293D01*
X142526863Y-113243776D01*
X142473069Y-113355279D01*
X142422664Y-113482463D01*
X142405205Y-113532709D01*
X142391686Y-113572992D01*
X142380578Y-113606048D01*
X142373741Y-113626346D01*
X142372754Y-113629255D01*
X142361598Y-113631286D01*
X142334760Y-113622546D01*
X142297785Y-113605442D01*
X142255353Y-113585719D01*
X142220505Y-113574868D01*
X142182963Y-113570405D01*
X142150190Y-113569750D01*
X142086830Y-113575041D01*
X142026758Y-113592015D01*
X141966887Y-113622326D01*
X141904129Y-113667626D01*
X141835395Y-113729571D01*
X141816167Y-113748604D01*
X141719280Y-113858179D01*
X141706012Y-113876667D01*
X142168902Y-113876667D01*
X142186601Y-113886693D01*
X142202712Y-113914583D01*
X142216564Y-113957052D01*
X142227483Y-114010818D01*
X142234798Y-114072597D01*
X142237835Y-114139106D01*
X142236078Y-114204750D01*
X142218967Y-114359656D01*
X142188469Y-114517084D01*
X142181746Y-114544600D01*
X142171889Y-114578876D01*
X142159835Y-114606935D01*
X142142112Y-114634424D01*
X142115252Y-114666986D01*
X142088100Y-114696965D01*
X142012121Y-114779356D01*
X141978420Y-114761928D01*
X141934405Y-114747565D01*
X141886903Y-114745232D01*
X141844067Y-114754704D01*
X141823641Y-114766235D01*
X141802566Y-114791246D01*
X141786089Y-114825297D01*
X141783912Y-114832381D01*
X141766120Y-114894784D01*
X141750678Y-114941266D01*
X141735674Y-114976640D01*
X141719197Y-115005719D01*
X141709458Y-115019887D01*
X141690258Y-115043449D01*
X141675476Y-115056307D01*
X141670367Y-115056957D01*
X141661466Y-115039775D01*
X141652041Y-115008898D01*
X141643855Y-114971675D01*
X141638674Y-114935454D01*
X141637790Y-114921325D01*
X141639466Y-114890891D01*
X141644856Y-114848655D01*
X141652821Y-114803419D01*
X141653407Y-114800550D01*
X141679532Y-114699537D01*
X141717688Y-114587574D01*
X141765760Y-114469453D01*
X141821635Y-114349969D01*
X141883196Y-114233916D01*
X141948329Y-114126088D01*
X141956383Y-114113781D01*
X141993803Y-114060087D01*
X142033392Y-114008359D01*
X142072583Y-113961461D01*
X142108808Y-113922255D01*
X142139503Y-113893607D01*
X142162099Y-113878378D01*
X142168902Y-113876667D01*
X141706012Y-113876667D01*
X141628277Y-113984978D01*
X141544956Y-114125453D01*
X141471116Y-114276061D01*
X141408556Y-114433254D01*
X141359074Y-114593488D01*
X141334776Y-114697588D01*
X141321218Y-114778828D01*
X141312639Y-114861281D01*
X141309178Y-114940110D01*
X141310975Y-115010480D01*
X141318170Y-115067554D01*
X141323471Y-115088459D01*
X141345977Y-115146611D01*
X141377057Y-115201564D01*
X141408040Y-115244958D01*
X141444826Y-115293151D01*
X141423681Y-115333680D01*
X141407003Y-115385870D01*
X141409030Y-115437457D01*
X141427493Y-115484995D01*
X141460122Y-115525041D01*
X141504647Y-115554151D01*
X141558798Y-115568880D01*
X141579418Y-115570000D01*
X141617733Y-115567909D01*
X141651840Y-115562596D01*
X141664127Y-115559068D01*
X141690609Y-115544033D01*
X141729795Y-115514851D01*
X141780147Y-115473037D01*
X141840126Y-115420101D01*
X141908195Y-115357557D01*
X141982815Y-115286918D01*
X142062448Y-115209695D01*
X142145557Y-115127401D01*
X142230601Y-115041549D01*
X142316044Y-114953651D01*
X142400348Y-114865220D01*
X142481973Y-114777768D01*
X142559383Y-114692808D01*
X142631037Y-114611851D01*
X142651534Y-114588162D01*
X142681821Y-114553308D01*
X142706288Y-114525834D01*
X142722164Y-114508806D01*
X142726834Y-114504837D01*
X142723590Y-114515825D01*
X142714679Y-114543114D01*
X142701337Y-114582992D01*
X142684796Y-114631751D01*
X142678492Y-114650191D01*
X142637948Y-114762461D01*
X142600375Y-114853862D01*
X142565787Y-114924369D01*
X142534194Y-114973955D01*
X142525986Y-114983974D01*
X142500483Y-115027313D01*
X142493479Y-115074534D01*
X142503940Y-115121355D01*
X142530837Y-115163495D01*
X142573137Y-115196672D01*
X142577830Y-115199157D01*
X142634770Y-115217085D01*
X142692962Y-115215346D01*
X142748309Y-115194752D01*
X142796718Y-115156117D01*
X142797160Y-115155635D01*
X142819169Y-115125276D01*
X142846333Y-115077780D01*
X142877338Y-115016161D01*
X142910868Y-114943436D01*
X142945609Y-114862620D01*
X142980244Y-114776729D01*
X143013460Y-114688778D01*
X143043941Y-114601783D01*
X143059518Y-114554000D01*
X143095635Y-114432990D01*
X143129641Y-114305965D01*
X143161073Y-114175616D01*
X143189465Y-114044633D01*
X143214357Y-113915707D01*
X143235283Y-113791528D01*
X143251781Y-113674787D01*
X143263387Y-113568175D01*
X143269639Y-113474382D01*
X143270072Y-113396099D01*
X143266600Y-113351457D01*
X143245518Y-113251042D01*
X143210211Y-113162321D01*
X143161854Y-113087024D01*
X143101621Y-113026885D01*
X143030685Y-112983637D01*
X143012161Y-112975950D01*
X142956047Y-112961528D01*
X142892379Y-112955960D01*
X142892379Y-112955960D01*
G37*
X142892379Y-112955960D02*
X142829298Y-112959227D01*
X142774945Y-112971312D01*
X142761861Y-112976516D01*
X142701545Y-113014324D01*
X142641804Y-113072202D01*
X142583342Y-113149052D01*
X142530729Y-113237293D01*
X142914248Y-113237293D01*
X142928650Y-113263292D01*
X142939792Y-113297345D01*
X142946470Y-113349147D01*
X142948780Y-113415777D01*
X142946820Y-113494317D01*
X142940687Y-113581846D01*
X142930478Y-113675444D01*
X142916291Y-113772190D01*
X142910588Y-113805230D01*
X142902365Y-113849329D01*
X142895695Y-113876600D01*
X142888578Y-113891082D01*
X142879016Y-113896814D01*
X142865010Y-113897834D01*
X142864745Y-113897834D01*
X142846918Y-113899774D01*
X142828778Y-113906956D01*
X142808001Y-113921426D01*
X142782266Y-113945227D01*
X142749251Y-113980403D01*
X142706634Y-114028999D01*
X142678860Y-114061482D01*
X142642636Y-114103840D01*
X142611486Y-114139820D01*
X142587851Y-114166635D01*
X142574175Y-114181501D01*
X142571815Y-114183584D01*
X142570756Y-114177407D01*
X142573623Y-114157857D01*
X142580746Y-114123404D01*
X142592455Y-114072517D01*
X142609082Y-114003667D01*
X142622138Y-113950750D01*
X142655794Y-113823707D01*
X142691842Y-113703312D01*
X142729393Y-113591873D01*
X142767557Y-113491696D01*
X142805444Y-113405087D01*
X142842164Y-113334352D01*
X142876828Y-113281797D01*
X142883262Y-113273876D01*
X142914248Y-113237293D01*
X142530729Y-113237293D01*
X142526863Y-113243776D01*
X142473069Y-113355279D01*
X142422664Y-113482463D01*
X142405205Y-113532709D01*
X142391686Y-113572992D01*
X142380578Y-113606048D01*
X142373741Y-113626346D01*
X142372754Y-113629255D01*
X142361598Y-113631286D01*
X142334760Y-113622546D01*
X142297785Y-113605442D01*
X142255353Y-113585719D01*
X142220505Y-113574868D01*
X142182963Y-113570405D01*
X142150190Y-113569750D01*
X142086830Y-113575041D01*
X142026758Y-113592015D01*
X141966887Y-113622326D01*
X141904129Y-113667626D01*
X141835395Y-113729571D01*
X141816167Y-113748604D01*
X141719280Y-113858179D01*
X141706012Y-113876667D01*
X142168902Y-113876667D01*
X142186601Y-113886693D01*
X142202712Y-113914583D01*
X142216564Y-113957052D01*
X142227483Y-114010818D01*
X142234798Y-114072597D01*
X142237835Y-114139106D01*
X142236078Y-114204750D01*
X142218967Y-114359656D01*
X142188469Y-114517084D01*
X142181746Y-114544600D01*
X142171889Y-114578876D01*
X142159835Y-114606935D01*
X142142112Y-114634424D01*
X142115252Y-114666986D01*
X142088100Y-114696965D01*
X142012121Y-114779356D01*
X141978420Y-114761928D01*
X141934405Y-114747565D01*
X141886903Y-114745232D01*
X141844067Y-114754704D01*
X141823641Y-114766235D01*
X141802566Y-114791246D01*
X141786089Y-114825297D01*
X141783912Y-114832381D01*
X141766120Y-114894784D01*
X141750678Y-114941266D01*
X141735674Y-114976640D01*
X141719197Y-115005719D01*
X141709458Y-115019887D01*
X141690258Y-115043449D01*
X141675476Y-115056307D01*
X141670367Y-115056957D01*
X141661466Y-115039775D01*
X141652041Y-115008898D01*
X141643855Y-114971675D01*
X141638674Y-114935454D01*
X141637790Y-114921325D01*
X141639466Y-114890891D01*
X141644856Y-114848655D01*
X141652821Y-114803419D01*
X141653407Y-114800550D01*
X141679532Y-114699537D01*
X141717688Y-114587574D01*
X141765760Y-114469453D01*
X141821635Y-114349969D01*
X141883196Y-114233916D01*
X141948329Y-114126088D01*
X141956383Y-114113781D01*
X141993803Y-114060087D01*
X142033392Y-114008359D01*
X142072583Y-113961461D01*
X142108808Y-113922255D01*
X142139503Y-113893607D01*
X142162099Y-113878378D01*
X142168902Y-113876667D01*
X141706012Y-113876667D01*
X141628277Y-113984978D01*
X141544956Y-114125453D01*
X141471116Y-114276061D01*
X141408556Y-114433254D01*
X141359074Y-114593488D01*
X141334776Y-114697588D01*
X141321218Y-114778828D01*
X141312639Y-114861281D01*
X141309178Y-114940110D01*
X141310975Y-115010480D01*
X141318170Y-115067554D01*
X141323471Y-115088459D01*
X141345977Y-115146611D01*
X141377057Y-115201564D01*
X141408040Y-115244958D01*
X141444826Y-115293151D01*
X141423681Y-115333680D01*
X141407003Y-115385870D01*
X141409030Y-115437457D01*
X141427493Y-115484995D01*
X141460122Y-115525041D01*
X141504647Y-115554151D01*
X141558798Y-115568880D01*
X141579418Y-115570000D01*
X141617733Y-115567909D01*
X141651840Y-115562596D01*
X141664127Y-115559068D01*
X141690609Y-115544033D01*
X141729795Y-115514851D01*
X141780147Y-115473037D01*
X141840126Y-115420101D01*
X141908195Y-115357557D01*
X141982815Y-115286918D01*
X142062448Y-115209695D01*
X142145557Y-115127401D01*
X142230601Y-115041549D01*
X142316044Y-114953651D01*
X142400348Y-114865220D01*
X142481973Y-114777768D01*
X142559383Y-114692808D01*
X142631037Y-114611851D01*
X142651534Y-114588162D01*
X142681821Y-114553308D01*
X142706288Y-114525834D01*
X142722164Y-114508806D01*
X142726834Y-114504837D01*
X142723590Y-114515825D01*
X142714679Y-114543114D01*
X142701337Y-114582992D01*
X142684796Y-114631751D01*
X142678492Y-114650191D01*
X142637948Y-114762461D01*
X142600375Y-114853862D01*
X142565787Y-114924369D01*
X142534194Y-114973955D01*
X142525986Y-114983974D01*
X142500483Y-115027313D01*
X142493479Y-115074534D01*
X142503940Y-115121355D01*
X142530837Y-115163495D01*
X142573137Y-115196672D01*
X142577830Y-115199157D01*
X142634770Y-115217085D01*
X142692962Y-115215346D01*
X142748309Y-115194752D01*
X142796718Y-115156117D01*
X142797160Y-115155635D01*
X142819169Y-115125276D01*
X142846333Y-115077780D01*
X142877338Y-115016161D01*
X142910868Y-114943436D01*
X142945609Y-114862620D01*
X142980244Y-114776729D01*
X143013460Y-114688778D01*
X143043941Y-114601783D01*
X143059518Y-114554000D01*
X143095635Y-114432990D01*
X143129641Y-114305965D01*
X143161073Y-114175616D01*
X143189465Y-114044633D01*
X143214357Y-113915707D01*
X143235283Y-113791528D01*
X143251781Y-113674787D01*
X143263387Y-113568175D01*
X143269639Y-113474382D01*
X143270072Y-113396099D01*
X143266600Y-113351457D01*
X143245518Y-113251042D01*
X143210211Y-113162321D01*
X143161854Y-113087024D01*
X143101621Y-113026885D01*
X143030685Y-112983637D01*
X143012161Y-112975950D01*
X142956047Y-112961528D01*
X142892379Y-112955960D01*
G36*
X143248303Y-110532417D02*
X143200837Y-110538952D01*
X143154347Y-110556692D01*
X143114337Y-110584575D01*
X143099617Y-110600521D01*
X143091819Y-110612724D01*
X143085886Y-110628982D01*
X143081368Y-110652647D01*
X143077815Y-110687067D01*
X143074776Y-110735591D01*
X143071801Y-110801568D01*
X143071467Y-110809837D01*
X143068615Y-110875783D01*
X143064799Y-110956718D01*
X143060326Y-111046507D01*
X143055506Y-111139011D01*
X143050645Y-111228092D01*
X143048994Y-111257292D01*
X143044839Y-111330426D01*
X143041116Y-111396837D01*
X143037989Y-111453511D01*
X143035624Y-111497437D01*
X143034184Y-111525602D01*
X143033810Y-111534703D01*
X143027349Y-111547540D01*
X143009854Y-111572669D01*
X142984083Y-111606324D01*
X142956306Y-111640536D01*
X142929597Y-111671928D01*
X142894076Y-111712680D01*
X142851935Y-111760372D01*
X142805367Y-111812584D01*
X142756564Y-111866895D01*
X142707718Y-111920886D01*
X142661023Y-111972136D01*
X142618670Y-112018226D01*
X142582853Y-112056735D01*
X142555763Y-112085243D01*
X142539594Y-112101331D01*
X142536599Y-112103795D01*
X142533152Y-112096264D01*
X142531336Y-112070033D01*
X142531209Y-112027511D01*
X142532830Y-111971108D01*
X142533145Y-111963517D01*
X142535289Y-111890715D01*
X142534157Y-111834906D01*
X142529008Y-111792068D01*
X142519103Y-111758181D01*
X142503700Y-111729221D01*
X142485591Y-111705309D01*
X142447696Y-111671465D01*
X142402171Y-111647514D01*
X142354907Y-111635330D01*
X142311800Y-111636785D01*
X142292331Y-111643898D01*
X142279651Y-111651808D01*
X142269307Y-111662043D01*
X142261013Y-111676746D01*
X142254486Y-111698055D01*
X142249441Y-111728114D01*
X142245595Y-111769063D01*
X142242663Y-111823044D01*
X142240361Y-111892198D01*
X142238406Y-111978665D01*
X142236901Y-112061625D01*
X142235159Y-112146671D01*
X142232993Y-112225847D01*
X142230519Y-112296431D01*
X142227853Y-112355700D01*
X142225112Y-112400932D01*
X142222413Y-112429404D01*
X142220816Y-112437433D01*
X142209868Y-112454067D01*
X142185785Y-112483191D01*
X142150679Y-112522616D01*
X142106666Y-112570153D01*
X142055859Y-112623613D01*
X142000372Y-112680807D01*
X141942319Y-112739545D01*
X141883815Y-112797638D01*
X141826972Y-112852898D01*
X141773905Y-112903136D01*
X141748388Y-112926653D01*
X141652694Y-113011443D01*
X141568157Y-113081066D01*
X141492866Y-113137006D01*
X141424910Y-113180748D01*
X141411501Y-113188462D01*
X141361802Y-113222118D01*
X141332195Y-113256992D01*
X141321634Y-113295434D01*
X141329076Y-113339793D01*
X141336110Y-113358008D01*
X141368998Y-113411713D01*
X141416873Y-113452817D01*
X141440142Y-113466095D01*
X141479224Y-113479717D01*
X141521886Y-113481155D01*
X141570163Y-113469675D01*
X141626095Y-113444543D01*
X141691720Y-113405023D01*
X141769074Y-113350382D01*
X141776534Y-113344807D01*
X141816664Y-113314438D01*
X141851150Y-113287505D01*
X141883672Y-113260861D01*
X141917907Y-113231356D01*
X141957536Y-113195841D01*
X142006235Y-113151168D01*
X142048513Y-113112000D01*
X142126901Y-113039216D01*
X142139905Y-113077042D01*
X142156449Y-113115522D01*
X142177273Y-113139097D01*
X142208656Y-113153932D01*
X142222268Y-113157925D01*
X142271190Y-113164273D01*
X142321885Y-113159575D01*
X142368801Y-113145529D01*
X142406384Y-113123833D01*
X142429082Y-113096186D01*
X142429812Y-113094467D01*
X142434951Y-113075360D01*
X142442434Y-113039202D01*
X142451599Y-112989895D01*
X142461785Y-112931341D01*
X142472331Y-112867441D01*
X142482575Y-112802096D01*
X142491856Y-112739209D01*
X142499214Y-112685019D01*
X142501775Y-112668789D01*
X142506040Y-112653450D01*
X142513561Y-112636887D01*
X142525888Y-112616985D01*
X142544573Y-112591628D01*
X142571167Y-112558703D01*
X142607223Y-112516093D01*
X142654290Y-112461684D01*
X142709083Y-112398895D01*
X142763130Y-112337027D01*
X142814579Y-112278062D01*
X142861220Y-112224538D01*
X142900843Y-112178994D01*
X142931238Y-112143966D01*
X142950196Y-112121994D01*
X142951730Y-112120201D01*
X142972713Y-112097420D01*
X142987098Y-112085263D01*
X142991417Y-112085578D01*
X142990345Y-112099392D01*
X142987360Y-112130789D01*
X142982808Y-112176308D01*
X142977036Y-112232485D01*
X142970390Y-112295859D01*
X142969898Y-112300510D01*
X142960482Y-112382385D01*
X142951439Y-112447267D01*
X142942972Y-112493915D01*
X142935285Y-112521090D01*
X142932856Y-112525716D01*
X142924056Y-112549524D01*
X142918671Y-112585711D01*
X142917217Y-112625686D01*
X142920207Y-112660861D01*
X142923908Y-112674985D01*
X142942940Y-112697329D01*
X142976998Y-112713086D01*
X143020797Y-112721631D01*
X143069051Y-112722338D01*
X143116478Y-112714581D01*
X143150434Y-112701781D01*
X143180508Y-112682726D01*
X143204037Y-112661476D01*
X143208278Y-112655926D01*
X143216832Y-112633379D01*
X143226281Y-112591533D01*
X143236453Y-112532229D01*
X143247175Y-112457309D01*
X143258275Y-112368615D01*
X143269580Y-112267986D01*
X143280918Y-112157265D01*
X143292117Y-112038293D01*
X143303004Y-111912911D01*
X143313406Y-111782959D01*
X143323152Y-111650280D01*
X143332069Y-111516715D01*
X143339984Y-111384104D01*
X143346726Y-111254289D01*
X143352121Y-111129111D01*
X143352704Y-111113556D01*
X143356847Y-110987856D01*
X143359211Y-110881680D01*
X143359714Y-110793455D01*
X143358276Y-110721605D01*
X143354817Y-110664557D01*
X143349254Y-110620736D01*
X143341509Y-110588569D01*
X143331499Y-110566482D01*
X143324167Y-110557204D01*
X143291247Y-110538147D01*
X143248303Y-110532417D01*
X143248303Y-110532417D01*
G37*
X143248303Y-110532417D02*
X143200837Y-110538952D01*
X143154347Y-110556692D01*
X143114337Y-110584575D01*
X143099617Y-110600521D01*
X143091819Y-110612724D01*
X143085886Y-110628982D01*
X143081368Y-110652647D01*
X143077815Y-110687067D01*
X143074776Y-110735591D01*
X143071801Y-110801568D01*
X143071467Y-110809837D01*
X143068615Y-110875783D01*
X143064799Y-110956718D01*
X143060326Y-111046507D01*
X143055506Y-111139011D01*
X143050645Y-111228092D01*
X143048994Y-111257292D01*
X143044839Y-111330426D01*
X143041116Y-111396837D01*
X143037989Y-111453511D01*
X143035624Y-111497437D01*
X143034184Y-111525602D01*
X143033810Y-111534703D01*
X143027349Y-111547540D01*
X143009854Y-111572669D01*
X142984083Y-111606324D01*
X142956306Y-111640536D01*
X142929597Y-111671928D01*
X142894076Y-111712680D01*
X142851935Y-111760372D01*
X142805367Y-111812584D01*
X142756564Y-111866895D01*
X142707718Y-111920886D01*
X142661023Y-111972136D01*
X142618670Y-112018226D01*
X142582853Y-112056735D01*
X142555763Y-112085243D01*
X142539594Y-112101331D01*
X142536599Y-112103795D01*
X142533152Y-112096264D01*
X142531336Y-112070033D01*
X142531209Y-112027511D01*
X142532830Y-111971108D01*
X142533145Y-111963517D01*
X142535289Y-111890715D01*
X142534157Y-111834906D01*
X142529008Y-111792068D01*
X142519103Y-111758181D01*
X142503700Y-111729221D01*
X142485591Y-111705309D01*
X142447696Y-111671465D01*
X142402171Y-111647514D01*
X142354907Y-111635330D01*
X142311800Y-111636785D01*
X142292331Y-111643898D01*
X142279651Y-111651808D01*
X142269307Y-111662043D01*
X142261013Y-111676746D01*
X142254486Y-111698055D01*
X142249441Y-111728114D01*
X142245595Y-111769063D01*
X142242663Y-111823044D01*
X142240361Y-111892198D01*
X142238406Y-111978665D01*
X142236901Y-112061625D01*
X142235159Y-112146671D01*
X142232993Y-112225847D01*
X142230519Y-112296431D01*
X142227853Y-112355700D01*
X142225112Y-112400932D01*
X142222413Y-112429404D01*
X142220816Y-112437433D01*
X142209868Y-112454067D01*
X142185785Y-112483191D01*
X142150679Y-112522616D01*
X142106666Y-112570153D01*
X142055859Y-112623613D01*
X142000372Y-112680807D01*
X141942319Y-112739545D01*
X141883815Y-112797638D01*
X141826972Y-112852898D01*
X141773905Y-112903136D01*
X141748388Y-112926653D01*
X141652694Y-113011443D01*
X141568157Y-113081066D01*
X141492866Y-113137006D01*
X141424910Y-113180748D01*
X141411501Y-113188462D01*
X141361802Y-113222118D01*
X141332195Y-113256992D01*
X141321634Y-113295434D01*
X141329076Y-113339793D01*
X141336110Y-113358008D01*
X141368998Y-113411713D01*
X141416873Y-113452817D01*
X141440142Y-113466095D01*
X141479224Y-113479717D01*
X141521886Y-113481155D01*
X141570163Y-113469675D01*
X141626095Y-113444543D01*
X141691720Y-113405023D01*
X141769074Y-113350382D01*
X141776534Y-113344807D01*
X141816664Y-113314438D01*
X141851150Y-113287505D01*
X141883672Y-113260861D01*
X141917907Y-113231356D01*
X141957536Y-113195841D01*
X142006235Y-113151168D01*
X142048513Y-113112000D01*
X142126901Y-113039216D01*
X142139905Y-113077042D01*
X142156449Y-113115522D01*
X142177273Y-113139097D01*
X142208656Y-113153932D01*
X142222268Y-113157925D01*
X142271190Y-113164273D01*
X142321885Y-113159575D01*
X142368801Y-113145529D01*
X142406384Y-113123833D01*
X142429082Y-113096186D01*
X142429812Y-113094467D01*
X142434951Y-113075360D01*
X142442434Y-113039202D01*
X142451599Y-112989895D01*
X142461785Y-112931341D01*
X142472331Y-112867441D01*
X142482575Y-112802096D01*
X142491856Y-112739209D01*
X142499214Y-112685019D01*
X142501775Y-112668789D01*
X142506040Y-112653450D01*
X142513561Y-112636887D01*
X142525888Y-112616985D01*
X142544573Y-112591628D01*
X142571167Y-112558703D01*
X142607223Y-112516093D01*
X142654290Y-112461684D01*
X142709083Y-112398895D01*
X142763130Y-112337027D01*
X142814579Y-112278062D01*
X142861220Y-112224538D01*
X142900843Y-112178994D01*
X142931238Y-112143966D01*
X142950196Y-112121994D01*
X142951730Y-112120201D01*
X142972713Y-112097420D01*
X142987098Y-112085263D01*
X142991417Y-112085578D01*
X142990345Y-112099392D01*
X142987360Y-112130789D01*
X142982808Y-112176308D01*
X142977036Y-112232485D01*
X142970390Y-112295859D01*
X142969898Y-112300510D01*
X142960482Y-112382385D01*
X142951439Y-112447267D01*
X142942972Y-112493915D01*
X142935285Y-112521090D01*
X142932856Y-112525716D01*
X142924056Y-112549524D01*
X142918671Y-112585711D01*
X142917217Y-112625686D01*
X142920207Y-112660861D01*
X142923908Y-112674985D01*
X142942940Y-112697329D01*
X142976998Y-112713086D01*
X143020797Y-112721631D01*
X143069051Y-112722338D01*
X143116478Y-112714581D01*
X143150434Y-112701781D01*
X143180508Y-112682726D01*
X143204037Y-112661476D01*
X143208278Y-112655926D01*
X143216832Y-112633379D01*
X143226281Y-112591533D01*
X143236453Y-112532229D01*
X143247175Y-112457309D01*
X143258275Y-112368615D01*
X143269580Y-112267986D01*
X143280918Y-112157265D01*
X143292117Y-112038293D01*
X143303004Y-111912911D01*
X143313406Y-111782959D01*
X143323152Y-111650280D01*
X143332069Y-111516715D01*
X143339984Y-111384104D01*
X143346726Y-111254289D01*
X143352121Y-111129111D01*
X143352704Y-111113556D01*
X143356847Y-110987856D01*
X143359211Y-110881680D01*
X143359714Y-110793455D01*
X143358276Y-110721605D01*
X143354817Y-110664557D01*
X143349254Y-110620736D01*
X143341509Y-110588569D01*
X143331499Y-110566482D01*
X143324167Y-110557204D01*
X143291247Y-110538147D01*
X143248303Y-110532417D01*
D12*
G04 #@! TO.C,LOGO-OSHW-150*
G36*
X150124160Y-114802920D02*
X150103840Y-114792760D01*
X150060660Y-114764820D01*
X149997160Y-114721640D01*
X149920960Y-114673380D01*
X149847300Y-114620040D01*
X149783800Y-114579400D01*
X149740620Y-114551460D01*
X149722840Y-114541300D01*
X149712680Y-114546380D01*
X149677120Y-114561620D01*
X149623780Y-114589560D01*
X149595840Y-114604800D01*
X149547580Y-114625120D01*
X149522180Y-114630200D01*
X149519640Y-114622580D01*
X149501860Y-114587020D01*
X149473920Y-114523520D01*
X149438360Y-114442240D01*
X149397720Y-114345720D01*
X149352000Y-114241580D01*
X149308820Y-114134900D01*
X149265640Y-114033300D01*
X149230080Y-113941860D01*
X149199600Y-113868200D01*
X149179280Y-113817400D01*
X149171660Y-113794540D01*
X149174200Y-113789460D01*
X149199600Y-113766600D01*
X149240240Y-113736120D01*
X149329140Y-113662460D01*
X149420580Y-113550700D01*
X149473920Y-113423700D01*
X149491700Y-113284000D01*
X149476460Y-113157000D01*
X149425660Y-113030000D01*
X149339300Y-112918240D01*
X149232620Y-112834420D01*
X149108160Y-112783620D01*
X148971000Y-112765840D01*
X148838920Y-112781080D01*
X148711920Y-112831880D01*
X148600160Y-112915700D01*
X148551900Y-112971580D01*
X148485860Y-113085880D01*
X148450300Y-113207800D01*
X148445220Y-113238280D01*
X148450300Y-113370360D01*
X148490940Y-113497360D01*
X148562060Y-113611660D01*
X148658580Y-113705640D01*
X148671280Y-113715800D01*
X148717000Y-113748820D01*
X148747480Y-113774220D01*
X148770340Y-113792000D01*
X148600160Y-114203480D01*
X148572220Y-114266980D01*
X148526500Y-114378740D01*
X148485860Y-114475260D01*
X148452840Y-114554000D01*
X148429980Y-114604800D01*
X148419820Y-114625120D01*
X148419820Y-114627660D01*
X148404580Y-114630200D01*
X148371560Y-114617500D01*
X148315680Y-114589560D01*
X148277580Y-114571780D01*
X148234400Y-114548920D01*
X148214080Y-114541300D01*
X148198840Y-114551460D01*
X148155660Y-114576860D01*
X148094700Y-114617500D01*
X148021040Y-114668300D01*
X147952460Y-114716560D01*
X147886420Y-114759740D01*
X147840700Y-114787680D01*
X147817840Y-114800380D01*
X147815300Y-114800380D01*
X147794980Y-114790220D01*
X147756880Y-114759740D01*
X147701000Y-114706400D01*
X147622260Y-114627660D01*
X147609560Y-114614960D01*
X147546060Y-114548920D01*
X147492720Y-114493040D01*
X147457160Y-114454940D01*
X147444460Y-114437160D01*
X147457160Y-114414300D01*
X147485100Y-114368580D01*
X147528280Y-114302540D01*
X147579080Y-114226340D01*
X147716240Y-114028220D01*
X147642580Y-113842800D01*
X147619720Y-113786920D01*
X147589240Y-113715800D01*
X147568920Y-113667540D01*
X147556220Y-113644680D01*
X147535900Y-113639600D01*
X147485100Y-113626900D01*
X147411440Y-113611660D01*
X147322540Y-113593880D01*
X147238720Y-113578640D01*
X147162520Y-113565940D01*
X147109180Y-113553240D01*
X147083780Y-113548160D01*
X147078700Y-113545620D01*
X147073620Y-113532920D01*
X147071080Y-113507520D01*
X147068540Y-113461800D01*
X147068540Y-113390680D01*
X147068540Y-113284000D01*
X147068540Y-113276380D01*
X147068540Y-113174780D01*
X147071080Y-113096040D01*
X147073620Y-113042700D01*
X147076160Y-113022380D01*
X147099020Y-113014760D01*
X147154900Y-113004600D01*
X147228560Y-112989360D01*
X147320000Y-112971580D01*
X147325080Y-112971580D01*
X147416520Y-112953800D01*
X147490180Y-112938560D01*
X147543520Y-112925860D01*
X147566380Y-112918240D01*
X147571460Y-112913160D01*
X147589240Y-112877600D01*
X147614640Y-112821720D01*
X147645120Y-112753140D01*
X147673060Y-112682020D01*
X147701000Y-112618520D01*
X147716240Y-112572800D01*
X147721320Y-112549940D01*
X147708620Y-112527080D01*
X147678140Y-112481360D01*
X147632420Y-112415320D01*
X147581620Y-112339120D01*
X147576540Y-112334040D01*
X147525740Y-112257840D01*
X147482560Y-112194340D01*
X147454620Y-112148620D01*
X147444460Y-112125760D01*
X147462240Y-112102900D01*
X147500340Y-112059720D01*
X147556220Y-112001300D01*
X147622260Y-111935260D01*
X147645120Y-111912400D01*
X147718780Y-111841280D01*
X147769580Y-111793020D01*
X147802600Y-111767620D01*
X147817840Y-111762540D01*
X147840700Y-111777780D01*
X147888960Y-111808260D01*
X147955000Y-111853980D01*
X148031200Y-111904780D01*
X148036280Y-111909860D01*
X148112480Y-111960660D01*
X148175980Y-112003840D01*
X148221700Y-112034320D01*
X148242020Y-112044480D01*
X148244560Y-112044480D01*
X148275040Y-112036860D01*
X148328380Y-112016540D01*
X148396960Y-111991140D01*
X148465540Y-111963200D01*
X148531580Y-111935260D01*
X148579840Y-111914940D01*
X148600160Y-111902240D01*
X148602700Y-111899700D01*
X148610320Y-111871760D01*
X148623020Y-111815880D01*
X148638260Y-111737140D01*
X148656040Y-111643160D01*
X148658580Y-111630460D01*
X148676360Y-111539020D01*
X148691600Y-111462820D01*
X148701760Y-111412020D01*
X148706840Y-111391700D01*
X148719540Y-111386620D01*
X148765260Y-111384080D01*
X148831300Y-111381540D01*
X148915120Y-111381540D01*
X148998940Y-111381540D01*
X149082760Y-111384080D01*
X149153880Y-111386620D01*
X149207220Y-111389160D01*
X149227540Y-111394240D01*
X149237700Y-111424720D01*
X149247860Y-111480600D01*
X149265640Y-111559340D01*
X149283420Y-111653320D01*
X149285960Y-111668560D01*
X149303740Y-111760000D01*
X149318980Y-111833660D01*
X149329140Y-111884460D01*
X149334220Y-111904780D01*
X149344380Y-111909860D01*
X149379940Y-111925100D01*
X149440900Y-111950500D01*
X149517100Y-111980980D01*
X149692360Y-112052100D01*
X149905720Y-111904780D01*
X149923500Y-111892080D01*
X150002240Y-111841280D01*
X150065740Y-111798100D01*
X150108920Y-111770160D01*
X150126700Y-111760000D01*
X150129240Y-111760000D01*
X150149560Y-111777780D01*
X150192740Y-111818420D01*
X150248620Y-111874300D01*
X150317200Y-111942880D01*
X150368000Y-111991140D01*
X150426420Y-112052100D01*
X150461980Y-112092740D01*
X150482300Y-112118140D01*
X150489920Y-112133380D01*
X150489920Y-112143540D01*
X150474680Y-112166400D01*
X150444200Y-112212120D01*
X150398480Y-112278160D01*
X150347680Y-112354360D01*
X150304500Y-112415320D01*
X150258780Y-112488980D01*
X150228300Y-112539780D01*
X150218140Y-112565180D01*
X150220680Y-112575340D01*
X150235920Y-112615980D01*
X150261320Y-112679480D01*
X150291800Y-112755680D01*
X150368000Y-112925860D01*
X150477220Y-112946180D01*
X150545800Y-112958880D01*
X150639780Y-112976660D01*
X150728680Y-112994440D01*
X150870920Y-113022380D01*
X150876000Y-113535460D01*
X150853140Y-113545620D01*
X150832820Y-113550700D01*
X150779480Y-113563400D01*
X150705820Y-113578640D01*
X150619460Y-113593880D01*
X150543260Y-113609120D01*
X150469600Y-113621820D01*
X150413720Y-113631980D01*
X150390860Y-113637060D01*
X150383240Y-113644680D01*
X150365460Y-113682780D01*
X150340060Y-113741200D01*
X150309580Y-113809780D01*
X150279100Y-113883440D01*
X150251160Y-113949480D01*
X150233380Y-114000280D01*
X150225760Y-114025680D01*
X150238460Y-114046000D01*
X150266400Y-114089180D01*
X150307040Y-114152680D01*
X150357840Y-114228880D01*
X150408640Y-114302540D01*
X150451820Y-114366040D01*
X150482300Y-114411760D01*
X150495000Y-114434620D01*
X150489920Y-114447320D01*
X150459440Y-114482880D01*
X150403560Y-114543840D01*
X150319740Y-114625120D01*
X150304500Y-114637820D01*
X150238460Y-114703860D01*
X150182580Y-114754660D01*
X150141940Y-114790220D01*
X150124160Y-114802920D01*
X150124160Y-114802920D01*
G37*
X150124160Y-114802920D02*
X150103840Y-114792760D01*
X150060660Y-114764820D01*
X149997160Y-114721640D01*
X149920960Y-114673380D01*
X149847300Y-114620040D01*
X149783800Y-114579400D01*
X149740620Y-114551460D01*
X149722840Y-114541300D01*
X149712680Y-114546380D01*
X149677120Y-114561620D01*
X149623780Y-114589560D01*
X149595840Y-114604800D01*
X149547580Y-114625120D01*
X149522180Y-114630200D01*
X149519640Y-114622580D01*
X149501860Y-114587020D01*
X149473920Y-114523520D01*
X149438360Y-114442240D01*
X149397720Y-114345720D01*
X149352000Y-114241580D01*
X149308820Y-114134900D01*
X149265640Y-114033300D01*
X149230080Y-113941860D01*
X149199600Y-113868200D01*
X149179280Y-113817400D01*
X149171660Y-113794540D01*
X149174200Y-113789460D01*
X149199600Y-113766600D01*
X149240240Y-113736120D01*
X149329140Y-113662460D01*
X149420580Y-113550700D01*
X149473920Y-113423700D01*
X149491700Y-113284000D01*
X149476460Y-113157000D01*
X149425660Y-113030000D01*
X149339300Y-112918240D01*
X149232620Y-112834420D01*
X149108160Y-112783620D01*
X148971000Y-112765840D01*
X148838920Y-112781080D01*
X148711920Y-112831880D01*
X148600160Y-112915700D01*
X148551900Y-112971580D01*
X148485860Y-113085880D01*
X148450300Y-113207800D01*
X148445220Y-113238280D01*
X148450300Y-113370360D01*
X148490940Y-113497360D01*
X148562060Y-113611660D01*
X148658580Y-113705640D01*
X148671280Y-113715800D01*
X148717000Y-113748820D01*
X148747480Y-113774220D01*
X148770340Y-113792000D01*
X148600160Y-114203480D01*
X148572220Y-114266980D01*
X148526500Y-114378740D01*
X148485860Y-114475260D01*
X148452840Y-114554000D01*
X148429980Y-114604800D01*
X148419820Y-114625120D01*
X148419820Y-114627660D01*
X148404580Y-114630200D01*
X148371560Y-114617500D01*
X148315680Y-114589560D01*
X148277580Y-114571780D01*
X148234400Y-114548920D01*
X148214080Y-114541300D01*
X148198840Y-114551460D01*
X148155660Y-114576860D01*
X148094700Y-114617500D01*
X148021040Y-114668300D01*
X147952460Y-114716560D01*
X147886420Y-114759740D01*
X147840700Y-114787680D01*
X147817840Y-114800380D01*
X147815300Y-114800380D01*
X147794980Y-114790220D01*
X147756880Y-114759740D01*
X147701000Y-114706400D01*
X147622260Y-114627660D01*
X147609560Y-114614960D01*
X147546060Y-114548920D01*
X147492720Y-114493040D01*
X147457160Y-114454940D01*
X147444460Y-114437160D01*
X147457160Y-114414300D01*
X147485100Y-114368580D01*
X147528280Y-114302540D01*
X147579080Y-114226340D01*
X147716240Y-114028220D01*
X147642580Y-113842800D01*
X147619720Y-113786920D01*
X147589240Y-113715800D01*
X147568920Y-113667540D01*
X147556220Y-113644680D01*
X147535900Y-113639600D01*
X147485100Y-113626900D01*
X147411440Y-113611660D01*
X147322540Y-113593880D01*
X147238720Y-113578640D01*
X147162520Y-113565940D01*
X147109180Y-113553240D01*
X147083780Y-113548160D01*
X147078700Y-113545620D01*
X147073620Y-113532920D01*
X147071080Y-113507520D01*
X147068540Y-113461800D01*
X147068540Y-113390680D01*
X147068540Y-113284000D01*
X147068540Y-113276380D01*
X147068540Y-113174780D01*
X147071080Y-113096040D01*
X147073620Y-113042700D01*
X147076160Y-113022380D01*
X147099020Y-113014760D01*
X147154900Y-113004600D01*
X147228560Y-112989360D01*
X147320000Y-112971580D01*
X147325080Y-112971580D01*
X147416520Y-112953800D01*
X147490180Y-112938560D01*
X147543520Y-112925860D01*
X147566380Y-112918240D01*
X147571460Y-112913160D01*
X147589240Y-112877600D01*
X147614640Y-112821720D01*
X147645120Y-112753140D01*
X147673060Y-112682020D01*
X147701000Y-112618520D01*
X147716240Y-112572800D01*
X147721320Y-112549940D01*
X147708620Y-112527080D01*
X147678140Y-112481360D01*
X147632420Y-112415320D01*
X147581620Y-112339120D01*
X147576540Y-112334040D01*
X147525740Y-112257840D01*
X147482560Y-112194340D01*
X147454620Y-112148620D01*
X147444460Y-112125760D01*
X147462240Y-112102900D01*
X147500340Y-112059720D01*
X147556220Y-112001300D01*
X147622260Y-111935260D01*
X147645120Y-111912400D01*
X147718780Y-111841280D01*
X147769580Y-111793020D01*
X147802600Y-111767620D01*
X147817840Y-111762540D01*
X147840700Y-111777780D01*
X147888960Y-111808260D01*
X147955000Y-111853980D01*
X148031200Y-111904780D01*
X148036280Y-111909860D01*
X148112480Y-111960660D01*
X148175980Y-112003840D01*
X148221700Y-112034320D01*
X148242020Y-112044480D01*
X148244560Y-112044480D01*
X148275040Y-112036860D01*
X148328380Y-112016540D01*
X148396960Y-111991140D01*
X148465540Y-111963200D01*
X148531580Y-111935260D01*
X148579840Y-111914940D01*
X148600160Y-111902240D01*
X148602700Y-111899700D01*
X148610320Y-111871760D01*
X148623020Y-111815880D01*
X148638260Y-111737140D01*
X148656040Y-111643160D01*
X148658580Y-111630460D01*
X148676360Y-111539020D01*
X148691600Y-111462820D01*
X148701760Y-111412020D01*
X148706840Y-111391700D01*
X148719540Y-111386620D01*
X148765260Y-111384080D01*
X148831300Y-111381540D01*
X148915120Y-111381540D01*
X148998940Y-111381540D01*
X149082760Y-111384080D01*
X149153880Y-111386620D01*
X149207220Y-111389160D01*
X149227540Y-111394240D01*
X149237700Y-111424720D01*
X149247860Y-111480600D01*
X149265640Y-111559340D01*
X149283420Y-111653320D01*
X149285960Y-111668560D01*
X149303740Y-111760000D01*
X149318980Y-111833660D01*
X149329140Y-111884460D01*
X149334220Y-111904780D01*
X149344380Y-111909860D01*
X149379940Y-111925100D01*
X149440900Y-111950500D01*
X149517100Y-111980980D01*
X149692360Y-112052100D01*
X149905720Y-111904780D01*
X149923500Y-111892080D01*
X150002240Y-111841280D01*
X150065740Y-111798100D01*
X150108920Y-111770160D01*
X150126700Y-111760000D01*
X150129240Y-111760000D01*
X150149560Y-111777780D01*
X150192740Y-111818420D01*
X150248620Y-111874300D01*
X150317200Y-111942880D01*
X150368000Y-111991140D01*
X150426420Y-112052100D01*
X150461980Y-112092740D01*
X150482300Y-112118140D01*
X150489920Y-112133380D01*
X150489920Y-112143540D01*
X150474680Y-112166400D01*
X150444200Y-112212120D01*
X150398480Y-112278160D01*
X150347680Y-112354360D01*
X150304500Y-112415320D01*
X150258780Y-112488980D01*
X150228300Y-112539780D01*
X150218140Y-112565180D01*
X150220680Y-112575340D01*
X150235920Y-112615980D01*
X150261320Y-112679480D01*
X150291800Y-112755680D01*
X150368000Y-112925860D01*
X150477220Y-112946180D01*
X150545800Y-112958880D01*
X150639780Y-112976660D01*
X150728680Y-112994440D01*
X150870920Y-113022380D01*
X150876000Y-113535460D01*
X150853140Y-113545620D01*
X150832820Y-113550700D01*
X150779480Y-113563400D01*
X150705820Y-113578640D01*
X150619460Y-113593880D01*
X150543260Y-113609120D01*
X150469600Y-113621820D01*
X150413720Y-113631980D01*
X150390860Y-113637060D01*
X150383240Y-113644680D01*
X150365460Y-113682780D01*
X150340060Y-113741200D01*
X150309580Y-113809780D01*
X150279100Y-113883440D01*
X150251160Y-113949480D01*
X150233380Y-114000280D01*
X150225760Y-114025680D01*
X150238460Y-114046000D01*
X150266400Y-114089180D01*
X150307040Y-114152680D01*
X150357840Y-114228880D01*
X150408640Y-114302540D01*
X150451820Y-114366040D01*
X150482300Y-114411760D01*
X150495000Y-114434620D01*
X150489920Y-114447320D01*
X150459440Y-114482880D01*
X150403560Y-114543840D01*
X150319740Y-114625120D01*
X150304500Y-114637820D01*
X150238460Y-114703860D01*
X150182580Y-114754660D01*
X150141940Y-114790220D01*
X150124160Y-114802920D01*
G04 #@! TD*
M02*
