G04 #@! TF.FileFunction,Legend,Top*
%FSLAX46Y46*%
G04 Gerber Fmt 4.6, Leading zero omitted, Abs format (unit mm)*
G04 Created by KiCad (PCBNEW (2016-05-03 BZR 6266)-product) date Mon Jul 11 04:52:19 2016*
%MOMM*%
%LPD*%
G01*
G04 APERTURE LIST*
%ADD10C,0.350000*%
%ADD11C,0.150000*%
%ADD12C,0.180000*%
%ADD13C,0.300000*%
G04 APERTURE END LIST*
D10*
D11*
X140335000Y-86995000D02*
X140335000Y-116205000D01*
X151765000Y-86995000D02*
X140335000Y-86995000D01*
X151765000Y-116205000D02*
X151765000Y-86995000D01*
X140335000Y-116205000D02*
X151765000Y-116205000D01*
D12*
X143550000Y-92110000D02*
X144750000Y-92110000D01*
X144750000Y-92110000D02*
X144750000Y-90210000D01*
D13*
X142950000Y-89910000D02*
G75*
G03X142950000Y-89910000I-100000J0D01*
G01*
D12*
X143550000Y-95010000D02*
X143550000Y-95210000D01*
X143550000Y-95210000D02*
X148550000Y-95210000D01*
X148550000Y-95210000D02*
X148550000Y-95010000D01*
X143550000Y-91810000D02*
X143550000Y-93610000D01*
X148550000Y-90210000D02*
X143550000Y-90210000D01*
X143550000Y-90210000D02*
X143550000Y-90410000D01*
X148550000Y-90210000D02*
X148550000Y-90410000D01*
X148550000Y-93710000D02*
X148550000Y-91810000D01*
X147828000Y-89789000D02*
X144272000Y-89789000D01*
X144272000Y-89789000D02*
X144272000Y-88011000D01*
X144272000Y-88011000D02*
X147828000Y-88011000D01*
X147828000Y-88011000D02*
X147828000Y-89789000D01*
X147828000Y-115189000D02*
X144272000Y-115189000D01*
X144272000Y-115189000D02*
X144272000Y-113411000D01*
X144272000Y-113411000D02*
X147828000Y-113411000D01*
X147828000Y-113411000D02*
X147828000Y-115189000D01*
X143550000Y-109890000D02*
X144750000Y-109890000D01*
X144750000Y-109890000D02*
X144750000Y-107990000D01*
D13*
X142950000Y-107690000D02*
G75*
G03X142950000Y-107690000I-100000J0D01*
G01*
D12*
X143550000Y-112790000D02*
X143550000Y-112990000D01*
X143550000Y-112990000D02*
X148550000Y-112990000D01*
X148550000Y-112990000D02*
X148550000Y-112790000D01*
X143550000Y-109590000D02*
X143550000Y-111390000D01*
X148550000Y-107990000D02*
X143550000Y-107990000D01*
X143550000Y-107990000D02*
X143550000Y-108190000D01*
X148550000Y-107990000D02*
X148550000Y-108190000D01*
X148550000Y-111490000D02*
X148550000Y-109590000D01*
X141224095Y-92162381D02*
X141224095Y-92971905D01*
X141271714Y-93067143D01*
X141319333Y-93114762D01*
X141414571Y-93162381D01*
X141605048Y-93162381D01*
X141700286Y-93114762D01*
X141747905Y-93067143D01*
X141795524Y-92971905D01*
X141795524Y-92162381D01*
X142795524Y-93162381D02*
X142224095Y-93162381D01*
X142509809Y-93162381D02*
X142509809Y-92162381D01*
X142414571Y-92305238D01*
X142319333Y-92400476D01*
X142224095Y-92448095D01*
X143049524Y-89265143D02*
X143001905Y-89312762D01*
X142859048Y-89360381D01*
X142763810Y-89360381D01*
X142620952Y-89312762D01*
X142525714Y-89217524D01*
X142478095Y-89122286D01*
X142430476Y-88931810D01*
X142430476Y-88788952D01*
X142478095Y-88598476D01*
X142525714Y-88503238D01*
X142620952Y-88408000D01*
X142763810Y-88360381D01*
X142859048Y-88360381D01*
X143001905Y-88408000D01*
X143049524Y-88455619D01*
X144001905Y-89360381D02*
X143430476Y-89360381D01*
X143716190Y-89360381D02*
X143716190Y-88360381D01*
X143620952Y-88503238D01*
X143525714Y-88598476D01*
X143430476Y-88646095D01*
X148891524Y-114665143D02*
X148843905Y-114712762D01*
X148701048Y-114760381D01*
X148605810Y-114760381D01*
X148462952Y-114712762D01*
X148367714Y-114617524D01*
X148320095Y-114522286D01*
X148272476Y-114331810D01*
X148272476Y-114188952D01*
X148320095Y-113998476D01*
X148367714Y-113903238D01*
X148462952Y-113808000D01*
X148605810Y-113760381D01*
X148701048Y-113760381D01*
X148843905Y-113808000D01*
X148891524Y-113855619D01*
X149272476Y-113855619D02*
X149320095Y-113808000D01*
X149415333Y-113760381D01*
X149653429Y-113760381D01*
X149748667Y-113808000D01*
X149796286Y-113855619D01*
X149843905Y-113950857D01*
X149843905Y-114046095D01*
X149796286Y-114188952D01*
X149224857Y-114760381D01*
X149843905Y-114760381D01*
X148971095Y-109942381D02*
X148971095Y-110751905D01*
X149018714Y-110847143D01*
X149066333Y-110894762D01*
X149161571Y-110942381D01*
X149352048Y-110942381D01*
X149447286Y-110894762D01*
X149494905Y-110847143D01*
X149542524Y-110751905D01*
X149542524Y-109942381D01*
X149971095Y-110037619D02*
X150018714Y-109990000D01*
X150113952Y-109942381D01*
X150352048Y-109942381D01*
X150447286Y-109990000D01*
X150494905Y-110037619D01*
X150542524Y-110132857D01*
X150542524Y-110228095D01*
X150494905Y-110370952D01*
X149923476Y-110942381D01*
X150542524Y-110942381D01*
M02*
