G04 #@! TF.FileFunction,Profile,NP*
%FSLAX46Y46*%
G04 Gerber Fmt 4.6, Leading zero omitted, Abs format (unit mm)*
G04 Created by KiCad (PCBNEW 4.0.7-e2-6376~60~ubuntu17.10.1) date Tue Aug 14 05:52:14 2018*
%MOMM*%
%LPD*%
G01*
G04 APERTURE LIST*
%ADD10C,0.350000*%
%ADD11C,0.150000*%
G04 APERTURE END LIST*
D10*
D11*
X173990000Y-135255000D02*
X173990000Y-146050000D01*
X176530000Y-135255000D02*
X176530000Y-138430000D01*
X173990000Y-115570000D02*
X173990000Y-128905000D01*
X176530000Y-128905000D02*
X176530000Y-115570000D01*
X176530000Y-135255000D02*
G75*
G03X173990000Y-135255000I-1270000J0D01*
G01*
X173990000Y-128905000D02*
G75*
G03X176530000Y-128905000I1270000J0D01*
G01*
X173990000Y-109220000D02*
G75*
G03X176530000Y-109220000I1270000J0D01*
G01*
X176530000Y-115570000D02*
G75*
G03X173990000Y-115570000I-1270000J0D01*
G01*
X156210000Y-122555000D02*
G75*
G03X158750000Y-122555000I1270000J0D01*
G01*
X158750000Y-128905000D02*
G75*
G03X156210000Y-128905000I-1270000J0D01*
G01*
X156210000Y-146050000D02*
X156210000Y-128905000D01*
X135890000Y-146050000D02*
X156210000Y-146050000D01*
X135890000Y-127000000D02*
X135890000Y-146050000D01*
X128270000Y-127000000D02*
X135890000Y-127000000D01*
X158750000Y-133985000D02*
X158750000Y-128905000D01*
X156210000Y-120650000D02*
X156210000Y-122555000D01*
X154940000Y-120650000D02*
X156210000Y-120650000D01*
X158750000Y-117475000D02*
X158750000Y-122555000D01*
X124460000Y-120650000D02*
X154940000Y-120650000D01*
X124460000Y-118110000D02*
G75*
G03X124460000Y-120650000I0J-1270000D01*
G01*
X118110000Y-120650000D02*
G75*
G03X118110000Y-118110000I0J1270000D01*
G01*
X164465000Y-105410000D02*
X165735000Y-105410000D01*
X173990000Y-105410000D02*
X172085000Y-105410000D01*
X184785000Y-102870000D02*
X172085000Y-102870000D01*
X173990000Y-105410000D02*
X173990000Y-109220000D01*
X176530000Y-105410000D02*
X176530000Y-109220000D01*
X184785000Y-105410000D02*
X176530000Y-105410000D01*
X199390000Y-105410000D02*
X191135000Y-105410000D01*
X191135000Y-102870000D02*
X199390000Y-102870000D01*
X128270000Y-127000000D02*
G75*
G03X128270000Y-129540000I0J-1270000D01*
G01*
X121920000Y-129540000D02*
G75*
G03X121920000Y-127000000I0J1270000D01*
G01*
X110490000Y-127000000D02*
G75*
G03X110490000Y-129540000I0J-1270000D01*
G01*
X104140000Y-129540000D02*
G75*
G03X104140000Y-127000000I0J1270000D01*
G01*
X128270000Y-129540000D02*
X133350000Y-129540000D01*
X110490000Y-129540000D02*
X121920000Y-129540000D01*
X110490000Y-127000000D02*
X121920000Y-127000000D01*
X100330000Y-129540000D02*
X104140000Y-129540000D01*
X100330000Y-127000000D02*
X104140000Y-127000000D01*
X124460000Y-118110000D02*
X140970000Y-118110000D01*
X100330000Y-118110000D02*
X118110000Y-118110000D01*
X100330000Y-55880000D02*
X199390000Y-55880000D01*
X100330000Y-120650000D02*
X118110000Y-120650000D01*
X100330000Y-127000000D02*
X100330000Y-120650000D01*
X100330000Y-74930000D02*
X103505000Y-74930000D01*
X150495000Y-74930000D02*
X109855000Y-74930000D01*
X183515000Y-74930000D02*
X156845000Y-74930000D01*
X199390000Y-74930000D02*
X189865000Y-74930000D01*
X191135000Y-102870000D02*
G75*
G03X191135000Y-105410000I0J-1270000D01*
G01*
X184785000Y-105410000D02*
G75*
G03X184785000Y-102870000I0J1270000D01*
G01*
X172085000Y-102870000D02*
G75*
G03X172085000Y-105410000I0J-1270000D01*
G01*
X165735000Y-105410000D02*
G75*
G03X165735000Y-102870000I0J1270000D01*
G01*
X133350000Y-102870000D02*
G75*
G03X133350000Y-105410000I0J-1270000D01*
G01*
X127000000Y-105410000D02*
G75*
G03X127000000Y-102870000I0J1270000D01*
G01*
X109855000Y-102870000D02*
G75*
G03X109855000Y-105410000I0J-1270000D01*
G01*
X103505000Y-105410000D02*
G75*
G03X103505000Y-102870000I0J1270000D01*
G01*
X100330000Y-102870000D02*
X103505000Y-102870000D01*
X127000000Y-102870000D02*
X109855000Y-102870000D01*
X165735000Y-102870000D02*
X133350000Y-102870000D01*
X133350000Y-105410000D02*
X140970000Y-105410000D01*
X109855000Y-105410000D02*
X127000000Y-105410000D01*
X100330000Y-105410000D02*
X103505000Y-105410000D01*
X189865000Y-74930000D02*
G75*
G03X189865000Y-77470000I0J-1270000D01*
G01*
X183515000Y-77470000D02*
G75*
G03X183515000Y-74930000I0J1270000D01*
G01*
X156845000Y-74930000D02*
G75*
G03X156845000Y-77470000I0J-1270000D01*
G01*
X150495000Y-77470000D02*
G75*
G03X150495000Y-74930000I0J1270000D01*
G01*
X109855000Y-74930000D02*
G75*
G03X109855000Y-77470000I0J-1270000D01*
G01*
X103505000Y-77470000D02*
G75*
G03X103505000Y-74930000I0J1270000D01*
G01*
X150495000Y-77470000D02*
X109855000Y-77470000D01*
X183515000Y-77470000D02*
X156845000Y-77470000D01*
X199390000Y-77470000D02*
X189865000Y-77470000D01*
X100330000Y-77470000D02*
X103505000Y-77470000D01*
X100330000Y-77470000D02*
X100330000Y-102870000D01*
X199390000Y-102870000D02*
X199390000Y-77470000D01*
X100330000Y-105410000D02*
X100330000Y-118110000D01*
X140970000Y-118110000D02*
X140970000Y-105410000D01*
X113665000Y-60325000D02*
G75*
G03X111125000Y-60325000I-1270000J0D01*
G01*
X113665000Y-72390000D02*
X113665000Y-60325000D01*
X111125000Y-72390000D02*
G75*
G03X113665000Y-72390000I1270000J0D01*
G01*
X111125000Y-72390000D02*
X111125000Y-60325000D01*
X100330000Y-74930000D02*
X100330000Y-55880000D01*
X199390000Y-55880000D02*
X199390000Y-74930000D01*
X133350000Y-139700000D02*
X133350000Y-129540000D01*
X124460000Y-139700000D02*
X133350000Y-139700000D01*
X124460000Y-146050000D02*
X124460000Y-139700000D01*
X109220000Y-146050000D02*
X124460000Y-146050000D01*
X109220000Y-139700000D02*
X109220000Y-146050000D01*
X100330000Y-139700000D02*
X109220000Y-139700000D01*
X100330000Y-129540000D02*
X100330000Y-139700000D01*
X199390000Y-105410000D02*
X199390000Y-138430000D01*
X193040000Y-144780000D02*
X182880000Y-144780000D01*
X199390000Y-138430000D02*
X193040000Y-144780000D01*
X176530000Y-138430000D02*
X182880000Y-144780000D01*
X164465000Y-117475000D02*
X164465000Y-105410000D01*
X158750000Y-117475000D02*
X164465000Y-117475000D01*
X164465000Y-133985000D02*
X158750000Y-133985000D01*
X164465000Y-146050000D02*
X164465000Y-133985000D01*
X173990000Y-146050000D02*
X164465000Y-146050000D01*
M02*
