G04 #@! TF.FileFunction,Legend,Top*
%FSLAX46Y46*%
G04 Gerber Fmt 4.6, Leading zero omitted, Abs format (unit mm)*
G04 Created by KiCad (PCBNEW (2016-05-03 BZR 6266)-product) date Fri Jul 15 05:32:01 2016*
%MOMM*%
%LPD*%
G01*
G04 APERTURE LIST*
%ADD10C,0.350000*%
%ADD11C,0.150000*%
%ADD12C,0.203200*%
%ADD13C,0.254000*%
%ADD14C,0.300000*%
%ADD15C,0.180000*%
G04 APERTURE END LIST*
D10*
D11*
X104140000Y-116205000D02*
X104140000Y-135255000D01*
X114935000Y-116205000D02*
X104140000Y-116205000D01*
X114935000Y-135255000D02*
X114935000Y-116205000D01*
X104140000Y-135255000D02*
X114935000Y-135255000D01*
D12*
X108855000Y-119296000D02*
X110855000Y-119296000D01*
X110855000Y-121496000D02*
X108855000Y-121496000D01*
D13*
X108585000Y-119126000D02*
G75*
G03X108585000Y-119126000I-127000J0D01*
G01*
D14*
X106985000Y-132845000D02*
G75*
G03X106985000Y-132845000I-150000J0D01*
G01*
D15*
X108135000Y-130645000D02*
X109035000Y-130645000D01*
X110035000Y-130645000D02*
X110035000Y-132245000D01*
X107135000Y-130645000D02*
X107135000Y-132245000D01*
X106553000Y-134747000D02*
X106553000Y-130683000D01*
X106553000Y-130683000D02*
X104267000Y-130683000D01*
X104267000Y-130683000D02*
X104267000Y-134747000D01*
X104267000Y-134747000D02*
X106553000Y-134747000D01*
X109982000Y-126492000D02*
X105918000Y-126492000D01*
X105918000Y-126492000D02*
X105918000Y-128778000D01*
X105918000Y-128778000D02*
X109982000Y-128778000D01*
X109982000Y-128778000D02*
X109982000Y-126492000D01*
X104521000Y-122428000D02*
X104521000Y-118872000D01*
X104521000Y-118872000D02*
X106299000Y-118872000D01*
X106299000Y-118872000D02*
X106299000Y-122428000D01*
X106299000Y-122428000D02*
X104521000Y-122428000D01*
X108600000Y-122375000D02*
X108600000Y-123175000D01*
X108600000Y-125275000D02*
X108600000Y-124475000D01*
X108600000Y-122375000D02*
X107650000Y-122375000D01*
X108600000Y-125275000D02*
X107650000Y-125275000D01*
X107300000Y-123475000D02*
X107300000Y-124175000D01*
X113845000Y-124475000D02*
X113045000Y-124475000D01*
X110945000Y-124475000D02*
X111745000Y-124475000D01*
X113845000Y-124475000D02*
X113845000Y-123525000D01*
X110945000Y-124475000D02*
X110945000Y-123525000D01*
X112745000Y-123175000D02*
X112045000Y-123175000D01*
X110871000Y-131318000D02*
X110871000Y-127762000D01*
X110871000Y-127762000D02*
X112649000Y-127762000D01*
X112649000Y-127762000D02*
X112649000Y-131318000D01*
X112649000Y-131318000D02*
X110871000Y-131318000D01*
X112776000Y-130048000D02*
X112776000Y-126492000D01*
X112776000Y-126492000D02*
X114554000Y-126492000D01*
X114554000Y-126492000D02*
X114554000Y-130048000D01*
X114554000Y-130048000D02*
X112776000Y-130048000D01*
X112903000Y-118364000D02*
X109347000Y-118364000D01*
X109347000Y-118364000D02*
X109347000Y-116586000D01*
X109347000Y-116586000D02*
X112903000Y-116586000D01*
X112903000Y-116586000D02*
X112903000Y-118364000D01*
X114554000Y-118237000D02*
X114554000Y-121793000D01*
X114554000Y-121793000D02*
X112776000Y-121793000D01*
X112776000Y-121793000D02*
X112776000Y-118237000D01*
X112776000Y-118237000D02*
X114554000Y-118237000D01*
X108950095Y-121761381D02*
X108950095Y-122570905D01*
X108997714Y-122666143D01*
X109045333Y-122713762D01*
X109140571Y-122761381D01*
X109331048Y-122761381D01*
X109426286Y-122713762D01*
X109473905Y-122666143D01*
X109521524Y-122570905D01*
X109521524Y-121761381D01*
X109950095Y-121856619D02*
X109997714Y-121809000D01*
X110092952Y-121761381D01*
X110331048Y-121761381D01*
X110426286Y-121809000D01*
X110473905Y-121856619D01*
X110521524Y-121951857D01*
X110521524Y-122047095D01*
X110473905Y-122189952D01*
X109902476Y-122761381D01*
X110521524Y-122761381D01*
X110331381Y-134127905D02*
X111140905Y-134127905D01*
X111236143Y-134080286D01*
X111283762Y-134032667D01*
X111331381Y-133937429D01*
X111331381Y-133746952D01*
X111283762Y-133651714D01*
X111236143Y-133604095D01*
X111140905Y-133556476D01*
X110331381Y-133556476D01*
X111331381Y-132556476D02*
X111331381Y-133127905D01*
X111331381Y-132842191D02*
X110331381Y-132842191D01*
X110474238Y-132937429D01*
X110569476Y-133032667D01*
X110617095Y-133127905D01*
X107489524Y-134858143D02*
X107441905Y-134905762D01*
X107299048Y-134953381D01*
X107203810Y-134953381D01*
X107060952Y-134905762D01*
X106965714Y-134810524D01*
X106918095Y-134715286D01*
X106870476Y-134524810D01*
X106870476Y-134381952D01*
X106918095Y-134191476D01*
X106965714Y-134096238D01*
X107060952Y-134001000D01*
X107203810Y-133953381D01*
X107299048Y-133953381D01*
X107441905Y-134001000D01*
X107489524Y-134048619D01*
X108441905Y-134953381D02*
X107870476Y-134953381D01*
X108156190Y-134953381D02*
X108156190Y-133953381D01*
X108060952Y-134096238D01*
X107965714Y-134191476D01*
X107870476Y-134239095D01*
X105521143Y-128603476D02*
X105568762Y-128651095D01*
X105616381Y-128793952D01*
X105616381Y-128889190D01*
X105568762Y-129032048D01*
X105473524Y-129127286D01*
X105378286Y-129174905D01*
X105187810Y-129222524D01*
X105044952Y-129222524D01*
X104854476Y-129174905D01*
X104759238Y-129127286D01*
X104664000Y-129032048D01*
X104616381Y-128889190D01*
X104616381Y-128793952D01*
X104664000Y-128651095D01*
X104711619Y-128603476D01*
X104711619Y-128222524D02*
X104664000Y-128174905D01*
X104616381Y-128079667D01*
X104616381Y-127841571D01*
X104664000Y-127746333D01*
X104711619Y-127698714D01*
X104806857Y-127651095D01*
X104902095Y-127651095D01*
X105044952Y-127698714D01*
X105616381Y-128270143D01*
X105616381Y-127651095D01*
X105076524Y-118475143D02*
X105028905Y-118522762D01*
X104886048Y-118570381D01*
X104790810Y-118570381D01*
X104647952Y-118522762D01*
X104552714Y-118427524D01*
X104505095Y-118332286D01*
X104457476Y-118141810D01*
X104457476Y-117998952D01*
X104505095Y-117808476D01*
X104552714Y-117713238D01*
X104647952Y-117618000D01*
X104790810Y-117570381D01*
X104886048Y-117570381D01*
X105028905Y-117618000D01*
X105076524Y-117665619D01*
X105409857Y-117570381D02*
X106028905Y-117570381D01*
X105695571Y-117951333D01*
X105838429Y-117951333D01*
X105933667Y-117998952D01*
X105981286Y-118046571D01*
X106028905Y-118141810D01*
X106028905Y-118379905D01*
X105981286Y-118475143D01*
X105933667Y-118522762D01*
X105838429Y-118570381D01*
X105552714Y-118570381D01*
X105457476Y-118522762D01*
X105409857Y-118475143D01*
X106092619Y-123682238D02*
X106045000Y-123777476D01*
X105949762Y-123872714D01*
X105806905Y-124015571D01*
X105759286Y-124110810D01*
X105759286Y-124206048D01*
X105997381Y-124158429D02*
X105949762Y-124253667D01*
X105854524Y-124348905D01*
X105664048Y-124396524D01*
X105330714Y-124396524D01*
X105140238Y-124348905D01*
X105045000Y-124253667D01*
X104997381Y-124158429D01*
X104997381Y-123967952D01*
X105045000Y-123872714D01*
X105140238Y-123777476D01*
X105330714Y-123729857D01*
X105664048Y-123729857D01*
X105854524Y-123777476D01*
X105949762Y-123872714D01*
X105997381Y-123967952D01*
X105997381Y-124158429D01*
X105997381Y-122777476D02*
X105997381Y-123348905D01*
X105997381Y-123063191D02*
X104997381Y-123063191D01*
X105140238Y-123158429D01*
X105235476Y-123253667D01*
X105283095Y-123348905D01*
X110632762Y-125904619D02*
X110537524Y-125857000D01*
X110442286Y-125761762D01*
X110299429Y-125618905D01*
X110204190Y-125571286D01*
X110108952Y-125571286D01*
X110156571Y-125809381D02*
X110061333Y-125761762D01*
X109966095Y-125666524D01*
X109918476Y-125476048D01*
X109918476Y-125142714D01*
X109966095Y-124952238D01*
X110061333Y-124857000D01*
X110156571Y-124809381D01*
X110347048Y-124809381D01*
X110442286Y-124857000D01*
X110537524Y-124952238D01*
X110585143Y-125142714D01*
X110585143Y-125476048D01*
X110537524Y-125666524D01*
X110442286Y-125761762D01*
X110347048Y-125809381D01*
X110156571Y-125809381D01*
X110966095Y-124904619D02*
X111013714Y-124857000D01*
X111108952Y-124809381D01*
X111347048Y-124809381D01*
X111442286Y-124857000D01*
X111489905Y-124904619D01*
X111537524Y-124999857D01*
X111537524Y-125095095D01*
X111489905Y-125237952D01*
X110918476Y-125809381D01*
X111537524Y-125809381D01*
X112728381Y-132540476D02*
X112252190Y-132873810D01*
X112728381Y-133111905D02*
X111728381Y-133111905D01*
X111728381Y-132730952D01*
X111776000Y-132635714D01*
X111823619Y-132588095D01*
X111918857Y-132540476D01*
X112061714Y-132540476D01*
X112156952Y-132588095D01*
X112204571Y-132635714D01*
X112252190Y-132730952D01*
X112252190Y-133111905D01*
X112728381Y-131588095D02*
X112728381Y-132159524D01*
X112728381Y-131873810D02*
X111728381Y-131873810D01*
X111871238Y-131969048D01*
X111966476Y-132064286D01*
X112014095Y-132159524D01*
X114379381Y-132540476D02*
X113903190Y-132873810D01*
X114379381Y-133111905D02*
X113379381Y-133111905D01*
X113379381Y-132730952D01*
X113427000Y-132635714D01*
X113474619Y-132588095D01*
X113569857Y-132540476D01*
X113712714Y-132540476D01*
X113807952Y-132588095D01*
X113855571Y-132635714D01*
X113903190Y-132730952D01*
X113903190Y-133111905D01*
X113474619Y-132159524D02*
X113427000Y-132111905D01*
X113379381Y-132016667D01*
X113379381Y-131778571D01*
X113427000Y-131683333D01*
X113474619Y-131635714D01*
X113569857Y-131588095D01*
X113665095Y-131588095D01*
X113807952Y-131635714D01*
X114379381Y-132207143D01*
X114379381Y-131588095D01*
X109045381Y-117681476D02*
X108569190Y-118014810D01*
X109045381Y-118252905D02*
X108045381Y-118252905D01*
X108045381Y-117871952D01*
X108093000Y-117776714D01*
X108140619Y-117729095D01*
X108235857Y-117681476D01*
X108378714Y-117681476D01*
X108473952Y-117729095D01*
X108521571Y-117776714D01*
X108569190Y-117871952D01*
X108569190Y-118252905D01*
X108045381Y-117348143D02*
X108045381Y-116729095D01*
X108426333Y-117062429D01*
X108426333Y-116919571D01*
X108473952Y-116824333D01*
X108521571Y-116776714D01*
X108616810Y-116729095D01*
X108854905Y-116729095D01*
X108950143Y-116776714D01*
X108997762Y-116824333D01*
X109045381Y-116919571D01*
X109045381Y-117205286D01*
X108997762Y-117300524D01*
X108950143Y-117348143D01*
X107775381Y-117681476D02*
X107299190Y-118014810D01*
X107775381Y-118252905D02*
X106775381Y-118252905D01*
X106775381Y-117871952D01*
X106823000Y-117776714D01*
X106870619Y-117729095D01*
X106965857Y-117681476D01*
X107108714Y-117681476D01*
X107203952Y-117729095D01*
X107251571Y-117776714D01*
X107299190Y-117871952D01*
X107299190Y-118252905D01*
X107108714Y-116824333D02*
X107775381Y-116824333D01*
X106727762Y-117062429D02*
X107442048Y-117300524D01*
X107442048Y-116681476D01*
M02*
