G04 #@! TF.FileFunction,Legend,Bot*
%FSLAX46Y46*%
G04 Gerber Fmt 4.6, Leading zero omitted, Abs format (unit mm)*
G04 Created by KiCad (PCBNEW (2016-05-03 BZR 6266)-product) date Fri Jul 22 02:28:54 2016*
%MOMM*%
%LPD*%
G01*
G04 APERTURE LIST*
%ADD10C,0.350000*%
%ADD11C,0.254000*%
%ADD12C,0.200000*%
%ADD13C,0.304800*%
%ADD14C,0.150000*%
%ADD15C,0.002540*%
G04 APERTURE END LIST*
D10*
D11*
X111699524Y-127955524D02*
X110429524Y-127955524D01*
X111699524Y-128560286D02*
X110429524Y-128560286D01*
X111699524Y-129286000D01*
X110429524Y-129286000D01*
X110429524Y-129709333D02*
X110429524Y-130435048D01*
X111699524Y-130072191D02*
X110429524Y-130072191D01*
D12*
X111937800Y-132562600D02*
X112217200Y-132562600D01*
D11*
X106680000Y-127653143D02*
X106619524Y-127532191D01*
X106619524Y-127350762D01*
X106680000Y-127169334D01*
X106800952Y-127048381D01*
X106921905Y-126987905D01*
X107163810Y-126927429D01*
X107345238Y-126927429D01*
X107587143Y-126987905D01*
X107708095Y-127048381D01*
X107829048Y-127169334D01*
X107889524Y-127350762D01*
X107889524Y-127471714D01*
X107829048Y-127653143D01*
X107768571Y-127713619D01*
X107345238Y-127713619D01*
X107345238Y-127471714D01*
X107889524Y-128257905D02*
X106619524Y-128257905D01*
X107889524Y-128983619D01*
X106619524Y-128983619D01*
X107889524Y-129588381D02*
X106619524Y-129588381D01*
X106619524Y-129890762D01*
X106680000Y-130072190D01*
X106800952Y-130193143D01*
X106921905Y-130253619D01*
X107163810Y-130314095D01*
X107345238Y-130314095D01*
X107587143Y-130253619D01*
X107708095Y-130193143D01*
X107829048Y-130072190D01*
X107889524Y-129890762D01*
X107889524Y-129588381D01*
X109734048Y-127290286D02*
X109794524Y-127471714D01*
X109794524Y-127774095D01*
X109734048Y-127895048D01*
X109673571Y-127955524D01*
X109552619Y-128016000D01*
X109431667Y-128016000D01*
X109310714Y-127955524D01*
X109250238Y-127895048D01*
X109189762Y-127774095D01*
X109129286Y-127532191D01*
X109068810Y-127411238D01*
X109008333Y-127350762D01*
X108887381Y-127290286D01*
X108766429Y-127290286D01*
X108645476Y-127350762D01*
X108585000Y-127411238D01*
X108524524Y-127532191D01*
X108524524Y-127834571D01*
X108585000Y-128016000D01*
X109673571Y-129286000D02*
X109734048Y-129225524D01*
X109794524Y-129044095D01*
X109794524Y-128923143D01*
X109734048Y-128741715D01*
X109613095Y-128620762D01*
X109492143Y-128560286D01*
X109250238Y-128499810D01*
X109068810Y-128499810D01*
X108826905Y-128560286D01*
X108705952Y-128620762D01*
X108585000Y-128741715D01*
X108524524Y-128923143D01*
X108524524Y-129044095D01*
X108585000Y-129225524D01*
X108645476Y-129286000D01*
X109794524Y-130435048D02*
X109794524Y-129830286D01*
X108524524Y-129830286D01*
X104714524Y-126625048D02*
X104714524Y-127411238D01*
X105198333Y-126987905D01*
X105198333Y-127169333D01*
X105258810Y-127290286D01*
X105319286Y-127350762D01*
X105440238Y-127411238D01*
X105742619Y-127411238D01*
X105863571Y-127350762D01*
X105924048Y-127290286D01*
X105984524Y-127169333D01*
X105984524Y-126806476D01*
X105924048Y-126685524D01*
X105863571Y-126625048D01*
X105863571Y-127955524D02*
X105924048Y-128016000D01*
X105984524Y-127955524D01*
X105924048Y-127895048D01*
X105863571Y-127955524D01*
X105984524Y-127955524D01*
X104714524Y-128439334D02*
X104714524Y-129225524D01*
X105198333Y-128802191D01*
X105198333Y-128983619D01*
X105258810Y-129104572D01*
X105319286Y-129165048D01*
X105440238Y-129225524D01*
X105742619Y-129225524D01*
X105863571Y-129165048D01*
X105924048Y-129104572D01*
X105984524Y-128983619D01*
X105984524Y-128620762D01*
X105924048Y-128499810D01*
X105863571Y-128439334D01*
X104714524Y-129588381D02*
X105984524Y-130011715D01*
X104714524Y-130435048D01*
X113544048Y-127229810D02*
X113604524Y-127411238D01*
X113604524Y-127713619D01*
X113544048Y-127834572D01*
X113483571Y-127895048D01*
X113362619Y-127955524D01*
X113241667Y-127955524D01*
X113120714Y-127895048D01*
X113060238Y-127834572D01*
X112999762Y-127713619D01*
X112939286Y-127471715D01*
X112878810Y-127350762D01*
X112818333Y-127290286D01*
X112697381Y-127229810D01*
X112576429Y-127229810D01*
X112455476Y-127290286D01*
X112395000Y-127350762D01*
X112334524Y-127471715D01*
X112334524Y-127774095D01*
X112395000Y-127955524D01*
X113604524Y-128499810D02*
X112334524Y-128499810D01*
X112334524Y-128802191D01*
X112395000Y-128983619D01*
X112515952Y-129104572D01*
X112636905Y-129165048D01*
X112878810Y-129225524D01*
X113060238Y-129225524D01*
X113302143Y-129165048D01*
X113423095Y-129104572D01*
X113544048Y-128983619D01*
X113604524Y-128802191D01*
X113604524Y-128499810D01*
X113241667Y-129709334D02*
X113241667Y-130314096D01*
X113604524Y-129588381D02*
X112334524Y-130011715D01*
X113604524Y-130435048D01*
X112927190Y-121986524D02*
X113350523Y-121381762D01*
X113652904Y-121986524D02*
X113652904Y-120716524D01*
X113169095Y-120716524D01*
X113048142Y-120777000D01*
X112987666Y-120837476D01*
X112927190Y-120958429D01*
X112927190Y-121139857D01*
X112987666Y-121260810D01*
X113048142Y-121321286D01*
X113169095Y-121381762D01*
X113652904Y-121381762D01*
X112382904Y-121321286D02*
X111959571Y-121321286D01*
X111778142Y-121986524D02*
X112382904Y-121986524D01*
X112382904Y-120716524D01*
X111778142Y-120716524D01*
X111415285Y-120716524D02*
X110991951Y-121986524D01*
X110568618Y-120716524D01*
X110145285Y-121865571D02*
X110084809Y-121926048D01*
X110145285Y-121986524D01*
X110205761Y-121926048D01*
X110145285Y-121865571D01*
X110145285Y-121986524D01*
X108633380Y-121623667D02*
X108028618Y-121623667D01*
X108754333Y-121986524D02*
X108330999Y-120716524D01*
X107907666Y-121986524D01*
D13*
X113622666Y-120138976D02*
X113622666Y-118741976D01*
X113090475Y-118741976D01*
X112957428Y-118808500D01*
X112890904Y-118875024D01*
X112824380Y-119008071D01*
X112824380Y-119207643D01*
X112890904Y-119340690D01*
X112957428Y-119407214D01*
X113090475Y-119473738D01*
X113622666Y-119473738D01*
X111427380Y-120005929D02*
X111493904Y-120072452D01*
X111693475Y-120138976D01*
X111826523Y-120138976D01*
X112026095Y-120072452D01*
X112159142Y-119939405D01*
X112225666Y-119806357D01*
X112292190Y-119540262D01*
X112292190Y-119340690D01*
X112225666Y-119074595D01*
X112159142Y-118941548D01*
X112026095Y-118808500D01*
X111826523Y-118741976D01*
X111693475Y-118741976D01*
X111493904Y-118808500D01*
X111427380Y-118875024D01*
X110828666Y-119606786D02*
X109764285Y-119606786D01*
X108832952Y-118741976D02*
X108699904Y-118741976D01*
X108566856Y-118808500D01*
X108500333Y-118875024D01*
X108433809Y-119008071D01*
X108367285Y-119274167D01*
X108367285Y-119606786D01*
X108433809Y-119872881D01*
X108500333Y-120005929D01*
X108566856Y-120072452D01*
X108699904Y-120138976D01*
X108832952Y-120138976D01*
X108965999Y-120072452D01*
X109032523Y-120005929D01*
X109099047Y-119872881D01*
X109165571Y-119606786D01*
X109165571Y-119274167D01*
X109099047Y-119008071D01*
X109032523Y-118875024D01*
X108965999Y-118808500D01*
X108832952Y-118741976D01*
X107901619Y-118741976D02*
X106970285Y-118741976D01*
X107569000Y-120138976D01*
D12*
X111429800Y-124333000D02*
X114300000Y-124333000D01*
X113868200Y-132562600D02*
X114300000Y-132562600D01*
X110032800Y-132562600D02*
X110312200Y-132562600D01*
X108127800Y-132562600D02*
X108407200Y-132562600D01*
X106222800Y-132562600D02*
X106502200Y-132562600D01*
X104140000Y-124333000D02*
X107010200Y-124333000D01*
X104140000Y-125907800D02*
X114300000Y-125907800D01*
X104089200Y-130987800D02*
X114300000Y-130987800D01*
X104140000Y-132562600D02*
X104597200Y-132562600D01*
D14*
X104140000Y-116205000D02*
X104140000Y-135255000D01*
X114300000Y-116205000D02*
X104140000Y-116205000D01*
X114300000Y-135255000D02*
X114300000Y-116205000D01*
X104140000Y-135255000D02*
X114300000Y-135255000D01*
D15*
G36*
X106814620Y-122295920D02*
X106799380Y-122290840D01*
X106771440Y-122270520D01*
X106728260Y-122242580D01*
X106677460Y-122209560D01*
X106629200Y-122176540D01*
X106586020Y-122148600D01*
X106558080Y-122130820D01*
X106545380Y-122123200D01*
X106540300Y-122125740D01*
X106514900Y-122135900D01*
X106479340Y-122156220D01*
X106461560Y-122166380D01*
X106428540Y-122179080D01*
X106413300Y-122181620D01*
X106410760Y-122176540D01*
X106398060Y-122153680D01*
X106380280Y-122110500D01*
X106354880Y-122057160D01*
X106329480Y-121991120D01*
X106299000Y-121922540D01*
X106268520Y-121851420D01*
X106240580Y-121782840D01*
X106217720Y-121724420D01*
X106197400Y-121673620D01*
X106184700Y-121640600D01*
X106179620Y-121625360D01*
X106179620Y-121622820D01*
X106197400Y-121605040D01*
X106225340Y-121584720D01*
X106283760Y-121536460D01*
X106344720Y-121462800D01*
X106380280Y-121378980D01*
X106390440Y-121285000D01*
X106380280Y-121201180D01*
X106347260Y-121117360D01*
X106288840Y-121041160D01*
X106217720Y-120985280D01*
X106136440Y-120952260D01*
X106045000Y-120939560D01*
X105958640Y-120949720D01*
X105872280Y-120982740D01*
X105798620Y-121041160D01*
X105765600Y-121076720D01*
X105722420Y-121152920D01*
X105697020Y-121234200D01*
X105694480Y-121254520D01*
X105699560Y-121340880D01*
X105724960Y-121427240D01*
X105773220Y-121503440D01*
X105836720Y-121566940D01*
X105844340Y-121572020D01*
X105874820Y-121594880D01*
X105895140Y-121610120D01*
X105912920Y-121622820D01*
X105798620Y-121897140D01*
X105780840Y-121940320D01*
X105750360Y-122013980D01*
X105722420Y-122080020D01*
X105699560Y-122130820D01*
X105684320Y-122163840D01*
X105679240Y-122179080D01*
X105676700Y-122179080D01*
X105666540Y-122181620D01*
X105646220Y-122174000D01*
X105608120Y-122156220D01*
X105582720Y-122143520D01*
X105554780Y-122128280D01*
X105542080Y-122123200D01*
X105529380Y-122128280D01*
X105501440Y-122146060D01*
X105460800Y-122174000D01*
X105412540Y-122207020D01*
X105366820Y-122240040D01*
X105323640Y-122267980D01*
X105290620Y-122288300D01*
X105277920Y-122295920D01*
X105275380Y-122295920D01*
X105260140Y-122288300D01*
X105237280Y-122267980D01*
X105199180Y-122232420D01*
X105145840Y-122181620D01*
X105138220Y-122171460D01*
X105095040Y-122128280D01*
X105059480Y-122090180D01*
X105036620Y-122064780D01*
X105029000Y-122052080D01*
X105029000Y-122052080D01*
X105036620Y-122039380D01*
X105054400Y-122006360D01*
X105084880Y-121963180D01*
X105117900Y-121912380D01*
X105209340Y-121780300D01*
X105158540Y-121658380D01*
X105143300Y-121620280D01*
X105125520Y-121572020D01*
X105110280Y-121539000D01*
X105102660Y-121526300D01*
X105089960Y-121521220D01*
X105054400Y-121513600D01*
X105006140Y-121503440D01*
X104947720Y-121490740D01*
X104891840Y-121480580D01*
X104841040Y-121472960D01*
X104802940Y-121465340D01*
X104787700Y-121460260D01*
X104782620Y-121460260D01*
X104780080Y-121450100D01*
X104777540Y-121434860D01*
X104777540Y-121404380D01*
X104777540Y-121356120D01*
X104777540Y-121285000D01*
X104777540Y-121279920D01*
X104777540Y-121213880D01*
X104777540Y-121160540D01*
X104780080Y-121124980D01*
X104782620Y-121109740D01*
X104782620Y-121109740D01*
X104797860Y-121107200D01*
X104833420Y-121099580D01*
X104884220Y-121089420D01*
X104945180Y-121076720D01*
X104947720Y-121076720D01*
X105008680Y-121066560D01*
X105059480Y-121053860D01*
X105095040Y-121046240D01*
X105110280Y-121041160D01*
X105112820Y-121038620D01*
X105125520Y-121015760D01*
X105140760Y-120977660D01*
X105161080Y-120931940D01*
X105181400Y-120883680D01*
X105199180Y-120843040D01*
X105209340Y-120810020D01*
X105211880Y-120797320D01*
X105211880Y-120794780D01*
X105204260Y-120782080D01*
X105183940Y-120751600D01*
X105153460Y-120705880D01*
X105117900Y-120655080D01*
X105115360Y-120652540D01*
X105082340Y-120601740D01*
X105054400Y-120558560D01*
X105034080Y-120528080D01*
X105029000Y-120512840D01*
X105029000Y-120512840D01*
X105039160Y-120497600D01*
X105064560Y-120469660D01*
X105102660Y-120431560D01*
X105145840Y-120385840D01*
X105161080Y-120370600D01*
X105209340Y-120322340D01*
X105244900Y-120291860D01*
X105265220Y-120274080D01*
X105275380Y-120271540D01*
X105275380Y-120271540D01*
X105290620Y-120281700D01*
X105323640Y-120302020D01*
X105366820Y-120332500D01*
X105417620Y-120365520D01*
X105422700Y-120368060D01*
X105473500Y-120403620D01*
X105516680Y-120431560D01*
X105544620Y-120451880D01*
X105559860Y-120459500D01*
X105559860Y-120459500D01*
X105582720Y-120454420D01*
X105618280Y-120441720D01*
X105661460Y-120423940D01*
X105709720Y-120406160D01*
X105752900Y-120385840D01*
X105783380Y-120373140D01*
X105798620Y-120362980D01*
X105798620Y-120362980D01*
X105803700Y-120345200D01*
X105813860Y-120307100D01*
X105824020Y-120253760D01*
X105836720Y-120192800D01*
X105836720Y-120182640D01*
X105849420Y-120121680D01*
X105859580Y-120070880D01*
X105867200Y-120037860D01*
X105869740Y-120022620D01*
X105877360Y-120020080D01*
X105907840Y-120020080D01*
X105953560Y-120017540D01*
X106006900Y-120017540D01*
X106062780Y-120017540D01*
X106118660Y-120017540D01*
X106166920Y-120020080D01*
X106202480Y-120022620D01*
X106215180Y-120025160D01*
X106215180Y-120025160D01*
X106222800Y-120045480D01*
X106230420Y-120083580D01*
X106240580Y-120136920D01*
X106253280Y-120197880D01*
X106255820Y-120208040D01*
X106265980Y-120269000D01*
X106276140Y-120319800D01*
X106283760Y-120352820D01*
X106286300Y-120365520D01*
X106293920Y-120370600D01*
X106316780Y-120380760D01*
X106357420Y-120396000D01*
X106408220Y-120416320D01*
X106525060Y-120464580D01*
X106667300Y-120365520D01*
X106680000Y-120357900D01*
X106730800Y-120322340D01*
X106773980Y-120294400D01*
X106801920Y-120276620D01*
X106814620Y-120269000D01*
X106817160Y-120269000D01*
X106829860Y-120281700D01*
X106857800Y-120309640D01*
X106895900Y-120345200D01*
X106941620Y-120390920D01*
X106974640Y-120423940D01*
X107015280Y-120464580D01*
X107038140Y-120489980D01*
X107053380Y-120507760D01*
X107058460Y-120517920D01*
X107055920Y-120525540D01*
X107048300Y-120540780D01*
X107025440Y-120571260D01*
X106997500Y-120614440D01*
X106961940Y-120665240D01*
X106934000Y-120705880D01*
X106903520Y-120754140D01*
X106883200Y-120789700D01*
X106875580Y-120804940D01*
X106878120Y-120812560D01*
X106888280Y-120840500D01*
X106903520Y-120883680D01*
X106926380Y-120931940D01*
X106974640Y-121046240D01*
X107048300Y-121058940D01*
X107094020Y-121069100D01*
X107157520Y-121081800D01*
X107215940Y-121091960D01*
X107309920Y-121109740D01*
X107315000Y-121452640D01*
X107299760Y-121457720D01*
X107284520Y-121462800D01*
X107251500Y-121470420D01*
X107200700Y-121480580D01*
X107142280Y-121490740D01*
X107094020Y-121500900D01*
X107043220Y-121511060D01*
X107007660Y-121516140D01*
X106989880Y-121521220D01*
X106987340Y-121526300D01*
X106974640Y-121549160D01*
X106956860Y-121589800D01*
X106936540Y-121635520D01*
X106916220Y-121683780D01*
X106898440Y-121726960D01*
X106885740Y-121762520D01*
X106880660Y-121780300D01*
X106888280Y-121793000D01*
X106908600Y-121820940D01*
X106936540Y-121864120D01*
X106969560Y-121914920D01*
X107002580Y-121963180D01*
X107033060Y-122006360D01*
X107053380Y-122036840D01*
X107061000Y-122052080D01*
X107055920Y-122059700D01*
X107035600Y-122085100D01*
X107000040Y-122123200D01*
X106944160Y-122179080D01*
X106934000Y-122186700D01*
X106888280Y-122229880D01*
X106852720Y-122265440D01*
X106824780Y-122288300D01*
X106814620Y-122295920D01*
X106814620Y-122295920D01*
G37*
X106814620Y-122295920D02*
X106799380Y-122290840D01*
X106771440Y-122270520D01*
X106728260Y-122242580D01*
X106677460Y-122209560D01*
X106629200Y-122176540D01*
X106586020Y-122148600D01*
X106558080Y-122130820D01*
X106545380Y-122123200D01*
X106540300Y-122125740D01*
X106514900Y-122135900D01*
X106479340Y-122156220D01*
X106461560Y-122166380D01*
X106428540Y-122179080D01*
X106413300Y-122181620D01*
X106410760Y-122176540D01*
X106398060Y-122153680D01*
X106380280Y-122110500D01*
X106354880Y-122057160D01*
X106329480Y-121991120D01*
X106299000Y-121922540D01*
X106268520Y-121851420D01*
X106240580Y-121782840D01*
X106217720Y-121724420D01*
X106197400Y-121673620D01*
X106184700Y-121640600D01*
X106179620Y-121625360D01*
X106179620Y-121622820D01*
X106197400Y-121605040D01*
X106225340Y-121584720D01*
X106283760Y-121536460D01*
X106344720Y-121462800D01*
X106380280Y-121378980D01*
X106390440Y-121285000D01*
X106380280Y-121201180D01*
X106347260Y-121117360D01*
X106288840Y-121041160D01*
X106217720Y-120985280D01*
X106136440Y-120952260D01*
X106045000Y-120939560D01*
X105958640Y-120949720D01*
X105872280Y-120982740D01*
X105798620Y-121041160D01*
X105765600Y-121076720D01*
X105722420Y-121152920D01*
X105697020Y-121234200D01*
X105694480Y-121254520D01*
X105699560Y-121340880D01*
X105724960Y-121427240D01*
X105773220Y-121503440D01*
X105836720Y-121566940D01*
X105844340Y-121572020D01*
X105874820Y-121594880D01*
X105895140Y-121610120D01*
X105912920Y-121622820D01*
X105798620Y-121897140D01*
X105780840Y-121940320D01*
X105750360Y-122013980D01*
X105722420Y-122080020D01*
X105699560Y-122130820D01*
X105684320Y-122163840D01*
X105679240Y-122179080D01*
X105676700Y-122179080D01*
X105666540Y-122181620D01*
X105646220Y-122174000D01*
X105608120Y-122156220D01*
X105582720Y-122143520D01*
X105554780Y-122128280D01*
X105542080Y-122123200D01*
X105529380Y-122128280D01*
X105501440Y-122146060D01*
X105460800Y-122174000D01*
X105412540Y-122207020D01*
X105366820Y-122240040D01*
X105323640Y-122267980D01*
X105290620Y-122288300D01*
X105277920Y-122295920D01*
X105275380Y-122295920D01*
X105260140Y-122288300D01*
X105237280Y-122267980D01*
X105199180Y-122232420D01*
X105145840Y-122181620D01*
X105138220Y-122171460D01*
X105095040Y-122128280D01*
X105059480Y-122090180D01*
X105036620Y-122064780D01*
X105029000Y-122052080D01*
X105029000Y-122052080D01*
X105036620Y-122039380D01*
X105054400Y-122006360D01*
X105084880Y-121963180D01*
X105117900Y-121912380D01*
X105209340Y-121780300D01*
X105158540Y-121658380D01*
X105143300Y-121620280D01*
X105125520Y-121572020D01*
X105110280Y-121539000D01*
X105102660Y-121526300D01*
X105089960Y-121521220D01*
X105054400Y-121513600D01*
X105006140Y-121503440D01*
X104947720Y-121490740D01*
X104891840Y-121480580D01*
X104841040Y-121472960D01*
X104802940Y-121465340D01*
X104787700Y-121460260D01*
X104782620Y-121460260D01*
X104780080Y-121450100D01*
X104777540Y-121434860D01*
X104777540Y-121404380D01*
X104777540Y-121356120D01*
X104777540Y-121285000D01*
X104777540Y-121279920D01*
X104777540Y-121213880D01*
X104777540Y-121160540D01*
X104780080Y-121124980D01*
X104782620Y-121109740D01*
X104782620Y-121109740D01*
X104797860Y-121107200D01*
X104833420Y-121099580D01*
X104884220Y-121089420D01*
X104945180Y-121076720D01*
X104947720Y-121076720D01*
X105008680Y-121066560D01*
X105059480Y-121053860D01*
X105095040Y-121046240D01*
X105110280Y-121041160D01*
X105112820Y-121038620D01*
X105125520Y-121015760D01*
X105140760Y-120977660D01*
X105161080Y-120931940D01*
X105181400Y-120883680D01*
X105199180Y-120843040D01*
X105209340Y-120810020D01*
X105211880Y-120797320D01*
X105211880Y-120794780D01*
X105204260Y-120782080D01*
X105183940Y-120751600D01*
X105153460Y-120705880D01*
X105117900Y-120655080D01*
X105115360Y-120652540D01*
X105082340Y-120601740D01*
X105054400Y-120558560D01*
X105034080Y-120528080D01*
X105029000Y-120512840D01*
X105029000Y-120512840D01*
X105039160Y-120497600D01*
X105064560Y-120469660D01*
X105102660Y-120431560D01*
X105145840Y-120385840D01*
X105161080Y-120370600D01*
X105209340Y-120322340D01*
X105244900Y-120291860D01*
X105265220Y-120274080D01*
X105275380Y-120271540D01*
X105275380Y-120271540D01*
X105290620Y-120281700D01*
X105323640Y-120302020D01*
X105366820Y-120332500D01*
X105417620Y-120365520D01*
X105422700Y-120368060D01*
X105473500Y-120403620D01*
X105516680Y-120431560D01*
X105544620Y-120451880D01*
X105559860Y-120459500D01*
X105559860Y-120459500D01*
X105582720Y-120454420D01*
X105618280Y-120441720D01*
X105661460Y-120423940D01*
X105709720Y-120406160D01*
X105752900Y-120385840D01*
X105783380Y-120373140D01*
X105798620Y-120362980D01*
X105798620Y-120362980D01*
X105803700Y-120345200D01*
X105813860Y-120307100D01*
X105824020Y-120253760D01*
X105836720Y-120192800D01*
X105836720Y-120182640D01*
X105849420Y-120121680D01*
X105859580Y-120070880D01*
X105867200Y-120037860D01*
X105869740Y-120022620D01*
X105877360Y-120020080D01*
X105907840Y-120020080D01*
X105953560Y-120017540D01*
X106006900Y-120017540D01*
X106062780Y-120017540D01*
X106118660Y-120017540D01*
X106166920Y-120020080D01*
X106202480Y-120022620D01*
X106215180Y-120025160D01*
X106215180Y-120025160D01*
X106222800Y-120045480D01*
X106230420Y-120083580D01*
X106240580Y-120136920D01*
X106253280Y-120197880D01*
X106255820Y-120208040D01*
X106265980Y-120269000D01*
X106276140Y-120319800D01*
X106283760Y-120352820D01*
X106286300Y-120365520D01*
X106293920Y-120370600D01*
X106316780Y-120380760D01*
X106357420Y-120396000D01*
X106408220Y-120416320D01*
X106525060Y-120464580D01*
X106667300Y-120365520D01*
X106680000Y-120357900D01*
X106730800Y-120322340D01*
X106773980Y-120294400D01*
X106801920Y-120276620D01*
X106814620Y-120269000D01*
X106817160Y-120269000D01*
X106829860Y-120281700D01*
X106857800Y-120309640D01*
X106895900Y-120345200D01*
X106941620Y-120390920D01*
X106974640Y-120423940D01*
X107015280Y-120464580D01*
X107038140Y-120489980D01*
X107053380Y-120507760D01*
X107058460Y-120517920D01*
X107055920Y-120525540D01*
X107048300Y-120540780D01*
X107025440Y-120571260D01*
X106997500Y-120614440D01*
X106961940Y-120665240D01*
X106934000Y-120705880D01*
X106903520Y-120754140D01*
X106883200Y-120789700D01*
X106875580Y-120804940D01*
X106878120Y-120812560D01*
X106888280Y-120840500D01*
X106903520Y-120883680D01*
X106926380Y-120931940D01*
X106974640Y-121046240D01*
X107048300Y-121058940D01*
X107094020Y-121069100D01*
X107157520Y-121081800D01*
X107215940Y-121091960D01*
X107309920Y-121109740D01*
X107315000Y-121452640D01*
X107299760Y-121457720D01*
X107284520Y-121462800D01*
X107251500Y-121470420D01*
X107200700Y-121480580D01*
X107142280Y-121490740D01*
X107094020Y-121500900D01*
X107043220Y-121511060D01*
X107007660Y-121516140D01*
X106989880Y-121521220D01*
X106987340Y-121526300D01*
X106974640Y-121549160D01*
X106956860Y-121589800D01*
X106936540Y-121635520D01*
X106916220Y-121683780D01*
X106898440Y-121726960D01*
X106885740Y-121762520D01*
X106880660Y-121780300D01*
X106888280Y-121793000D01*
X106908600Y-121820940D01*
X106936540Y-121864120D01*
X106969560Y-121914920D01*
X107002580Y-121963180D01*
X107033060Y-122006360D01*
X107053380Y-122036840D01*
X107061000Y-122052080D01*
X107055920Y-122059700D01*
X107035600Y-122085100D01*
X107000040Y-122123200D01*
X106944160Y-122179080D01*
X106934000Y-122186700D01*
X106888280Y-122229880D01*
X106852720Y-122265440D01*
X106824780Y-122288300D01*
X106814620Y-122295920D01*
M02*
