G04 #@! TF.FileFunction,Copper,L1,Top,Signal*
%FSLAX46Y46*%
G04 Gerber Fmt 4.6, Leading zero omitted, Abs format (unit mm)*
G04 Created by KiCad (PCBNEW (2016-05-03 BZR 6266)-product) date Fri Jul 15 05:32:01 2016*
%MOMM*%
%LPD*%
G01*
G04 APERTURE LIST*
%ADD10C,0.350000*%
%ADD11C,0.150000*%
%ADD12R,1.700000X0.350000*%
%ADD13R,0.650000X1.200000*%
%ADD14R,1.500000X1.300000*%
%ADD15R,1.300000X1.500000*%
%ADD16R,1.000000X1.100000*%
%ADD17R,0.900000X0.800000*%
%ADD18R,0.800000X0.900000*%
%ADD19R,1.100000X1.000000*%
%ADD20C,1.270000*%
%ADD21C,0.965200*%
%ADD22C,1.168400*%
%ADD23C,0.304800*%
%ADD24C,0.254000*%
%ADD25C,0.350000*%
G04 APERTURE END LIST*
D10*
D11*
X104140000Y-116205000D02*
X104140000Y-135255000D01*
X114935000Y-116205000D02*
X104140000Y-116205000D01*
X114935000Y-135255000D02*
X114935000Y-116205000D01*
X104140000Y-135255000D02*
X114935000Y-135255000D01*
D12*
X108755000Y-120396000D03*
X110955000Y-120396000D03*
X110955000Y-119746000D03*
X108755000Y-119746000D03*
X108755000Y-121046000D03*
X110955000Y-121046000D03*
D13*
X107635000Y-132845000D03*
X108585000Y-132845000D03*
X109535000Y-132845000D03*
X109535000Y-130045000D03*
X107635000Y-130045000D03*
D14*
X105410000Y-133665000D03*
X105410000Y-131765000D03*
D15*
X108900000Y-127635000D03*
X107000000Y-127635000D03*
D16*
X105410000Y-121500000D03*
X105410000Y-119800000D03*
D17*
X106950000Y-122825000D03*
X106950000Y-124825000D03*
X108950000Y-123825000D03*
D18*
X113395000Y-122825000D03*
X111395000Y-122825000D03*
X112395000Y-124825000D03*
D16*
X111760000Y-130390000D03*
X111760000Y-128690000D03*
X113665000Y-129120000D03*
X113665000Y-127420000D03*
D19*
X111975000Y-117475000D03*
X110275000Y-117475000D03*
D16*
X113665000Y-119165000D03*
X113665000Y-120865000D03*
D20*
X105410000Y-130175010D03*
D21*
X111760000Y-127000020D03*
X113665000Y-125831602D03*
D22*
X113665000Y-130810000D03*
X110421700Y-127635000D03*
X107316232Y-121437435D03*
X105410000Y-126999800D03*
X107315000Y-120015000D03*
X113665000Y-117475000D03*
D21*
X110490000Y-118745000D03*
X108585000Y-125831602D03*
D23*
X111760000Y-130390000D02*
X112395000Y-130390000D01*
X112395000Y-130390000D02*
X113665000Y-129120000D01*
X109535000Y-131445000D02*
X109900200Y-131445000D01*
X109900200Y-131445000D02*
X110955200Y-130390000D01*
X110955200Y-130390000D02*
X111760000Y-130390000D01*
X105410000Y-131765000D02*
X105410000Y-130175010D01*
X109535000Y-131445000D02*
X109220000Y-131445000D01*
X109535000Y-132845000D02*
X109535000Y-131445000D01*
X106886400Y-131445000D02*
X107635000Y-131445000D01*
X107635000Y-131445000D02*
X109220000Y-131445000D01*
X107635000Y-131838600D02*
X107635000Y-131445000D01*
X105410000Y-131765000D02*
X106566400Y-131765000D01*
X106566400Y-131765000D02*
X106886400Y-131445000D01*
X107635000Y-131838600D02*
X107635000Y-132845000D01*
D24*
X108950000Y-123825000D02*
X109855000Y-123825000D01*
X109855000Y-123825000D02*
X111760000Y-125730000D01*
X111760000Y-125730000D02*
X111760000Y-127000020D01*
X111760000Y-127000020D02*
X111760000Y-128690000D01*
X113665000Y-125831602D02*
X113665000Y-127420000D01*
X113665000Y-125095000D02*
X113665000Y-125831602D01*
X112395000Y-124825000D02*
X113395000Y-124825000D01*
X113395000Y-124825000D02*
X113665000Y-125095000D01*
D23*
X107316232Y-121437435D02*
X105410000Y-121437435D01*
X108900000Y-127635000D02*
X110421700Y-127635000D01*
X108755000Y-121046000D02*
X107707667Y-121046000D01*
X107707667Y-121046000D02*
X107316232Y-121437435D01*
X107000000Y-127635000D02*
X107000000Y-128590000D01*
X107635000Y-129225000D02*
X107635000Y-130045000D01*
X107000000Y-128590000D02*
X107635000Y-129225000D01*
X106045200Y-127635000D02*
X107000000Y-127635000D01*
X105410000Y-126999800D02*
X106045200Y-127635000D01*
X105410000Y-123190000D02*
X105410000Y-126999800D01*
X107315000Y-120015000D02*
X105410000Y-120015000D01*
X108755000Y-119746000D02*
X107584000Y-119746000D01*
X107584000Y-119746000D02*
X107315000Y-120015000D01*
X108755000Y-120396000D02*
X107696000Y-120396000D01*
X107696000Y-120396000D02*
X107315000Y-120015000D01*
X111975000Y-117475000D02*
X113665000Y-117475000D01*
X106950000Y-122825000D02*
X109609354Y-122825000D01*
X110609354Y-123825000D02*
X113030000Y-123825000D01*
X109609354Y-122825000D02*
X110609354Y-123825000D01*
X113030000Y-123825000D02*
X113395000Y-123460000D01*
X113395000Y-123460000D02*
X113395000Y-122825000D01*
X113665000Y-117475000D02*
X113665000Y-119165000D01*
X106950000Y-122825000D02*
X105775000Y-122825000D01*
X105775000Y-122825000D02*
X105410000Y-123190000D01*
D24*
X110275000Y-117475000D02*
X110275000Y-118530000D01*
X110275000Y-118530000D02*
X110490000Y-118745000D01*
X110955000Y-119746000D02*
X110955000Y-119210000D01*
X110955000Y-119210000D02*
X110490000Y-118745000D01*
X106950000Y-124825000D02*
X108315000Y-124825000D01*
X108315000Y-124825000D02*
X108585000Y-125095000D01*
X108585000Y-125095000D02*
X108585000Y-125831602D01*
X113665000Y-120865000D02*
X112911000Y-120865000D01*
X112911000Y-120865000D02*
X112730000Y-121046000D01*
X112730000Y-121046000D02*
X112059000Y-121046000D01*
X112059000Y-121046000D02*
X110955000Y-121046000D01*
X111395000Y-122825000D02*
X111395000Y-122190000D01*
X111395000Y-122190000D02*
X110955000Y-121750000D01*
X110955000Y-121750000D02*
X110955000Y-121046000D01*
G36*
X114173000Y-134493000D02*
X106498662Y-134493000D01*
X106541000Y-134390786D01*
X106541000Y-133887250D01*
X106445750Y-133792000D01*
X105537000Y-133792000D01*
X105537000Y-133812000D01*
X105283000Y-133812000D01*
X105283000Y-133792000D01*
X105263000Y-133792000D01*
X105263000Y-133538000D01*
X105283000Y-133538000D01*
X105283000Y-133518000D01*
X105537000Y-133518000D01*
X105537000Y-133538000D01*
X106445750Y-133538000D01*
X106541000Y-133442750D01*
X106541000Y-132939214D01*
X106496676Y-132832205D01*
X106539210Y-132804835D01*
X106661001Y-132626588D01*
X106702064Y-132423815D01*
X106766151Y-132411067D01*
X106766151Y-133445000D01*
X106803344Y-133642666D01*
X106920165Y-133824210D01*
X107098412Y-133946001D01*
X107310000Y-133988849D01*
X107960000Y-133988849D01*
X108157666Y-133951656D01*
X108339210Y-133834835D01*
X108345247Y-133826000D01*
X108362750Y-133826000D01*
X108458000Y-133730750D01*
X108458000Y-133660980D01*
X108461001Y-133656588D01*
X108503849Y-133445000D01*
X108503849Y-132698000D01*
X108666151Y-132698000D01*
X108666151Y-133445000D01*
X108703344Y-133642666D01*
X108712000Y-133656118D01*
X108712000Y-133730750D01*
X108807250Y-133826000D01*
X108822785Y-133826000D01*
X108998412Y-133946001D01*
X109210000Y-133988849D01*
X109860000Y-133988849D01*
X110057666Y-133951656D01*
X110239210Y-133834835D01*
X110361001Y-133656588D01*
X110403849Y-133445000D01*
X110403849Y-132245000D01*
X110366656Y-132047334D01*
X110319382Y-131973868D01*
X110385134Y-131929934D01*
X110944837Y-131370231D01*
X111048412Y-131441001D01*
X111260000Y-131483849D01*
X112260000Y-131483849D01*
X112457666Y-131446656D01*
X112639210Y-131329835D01*
X112761001Y-131151588D01*
X112803849Y-130940000D01*
X112803849Y-130925773D01*
X112879934Y-130874934D01*
X113452868Y-130302000D01*
X114173000Y-130302000D01*
X114173000Y-134493000D01*
X114173000Y-134493000D01*
G37*
X114173000Y-134493000D02*
X106498662Y-134493000D01*
X106541000Y-134390786D01*
X106541000Y-133887250D01*
X106445750Y-133792000D01*
X105537000Y-133792000D01*
X105537000Y-133812000D01*
X105283000Y-133812000D01*
X105283000Y-133792000D01*
X105263000Y-133792000D01*
X105263000Y-133538000D01*
X105283000Y-133538000D01*
X105283000Y-133518000D01*
X105537000Y-133518000D01*
X105537000Y-133538000D01*
X106445750Y-133538000D01*
X106541000Y-133442750D01*
X106541000Y-132939214D01*
X106496676Y-132832205D01*
X106539210Y-132804835D01*
X106661001Y-132626588D01*
X106702064Y-132423815D01*
X106766151Y-132411067D01*
X106766151Y-133445000D01*
X106803344Y-133642666D01*
X106920165Y-133824210D01*
X107098412Y-133946001D01*
X107310000Y-133988849D01*
X107960000Y-133988849D01*
X108157666Y-133951656D01*
X108339210Y-133834835D01*
X108345247Y-133826000D01*
X108362750Y-133826000D01*
X108458000Y-133730750D01*
X108458000Y-133660980D01*
X108461001Y-133656588D01*
X108503849Y-133445000D01*
X108503849Y-132698000D01*
X108666151Y-132698000D01*
X108666151Y-133445000D01*
X108703344Y-133642666D01*
X108712000Y-133656118D01*
X108712000Y-133730750D01*
X108807250Y-133826000D01*
X108822785Y-133826000D01*
X108998412Y-133946001D01*
X109210000Y-133988849D01*
X109860000Y-133988849D01*
X110057666Y-133951656D01*
X110239210Y-133834835D01*
X110361001Y-133656588D01*
X110403849Y-133445000D01*
X110403849Y-132245000D01*
X110366656Y-132047334D01*
X110319382Y-131973868D01*
X110385134Y-131929934D01*
X110944837Y-131370231D01*
X111048412Y-131441001D01*
X111260000Y-131483849D01*
X112260000Y-131483849D01*
X112457666Y-131446656D01*
X112639210Y-131329835D01*
X112761001Y-131151588D01*
X112803849Y-130940000D01*
X112803849Y-130925773D01*
X112879934Y-130874934D01*
X113452868Y-130302000D01*
X114173000Y-130302000D01*
X114173000Y-134493000D01*
D25*
X105410000Y-130175010D03*
X111760000Y-127000020D03*
X113665000Y-125831602D03*
X113665000Y-130810000D03*
X110421700Y-127635000D03*
X107316232Y-121437435D03*
X105410000Y-126999800D03*
X107315000Y-120015000D03*
X113665000Y-117475000D03*
X110490000Y-118745000D03*
X108585000Y-125831602D03*
M02*
