G04 #@! TF.FileFunction,Copper,L1,Top,Signal*
%FSLAX46Y46*%
G04 Gerber Fmt 4.6, Leading zero omitted, Abs format (unit mm)*
G04 Created by KiCad (PCBNEW (2016-05-03 BZR 6266)-product) date Thu Jul 21 02:54:24 2016*
%MOMM*%
%LPD*%
G01*
G04 APERTURE LIST*
%ADD10C,0.350000*%
%ADD11C,0.150000*%
%ADD12R,1.700000X0.350000*%
%ADD13R,1.100000X1.000000*%
%ADD14R,1.000000X1.100000*%
%ADD15C,1.168400*%
%ADD16C,0.965200*%
%ADD17C,0.304800*%
%ADD18C,0.254000*%
%ADD19C,0.350000*%
G04 APERTURE END LIST*
D10*
D11*
X104140000Y-116205000D02*
X104140000Y-135255000D01*
X114300000Y-116205000D02*
X104140000Y-116205000D01*
X114300000Y-135255000D02*
X114300000Y-116205000D01*
X104140000Y-135255000D02*
X114300000Y-135255000D01*
D12*
X108755000Y-120396000D03*
X110955000Y-120396000D03*
X110955000Y-119746000D03*
X108755000Y-119746000D03*
X108755000Y-121046000D03*
X110955000Y-121046000D03*
D13*
X106465000Y-117475000D03*
X108165000Y-117475000D03*
D14*
X105410000Y-125515000D03*
X105410000Y-127215000D03*
X107315000Y-127215000D03*
X107315000Y-125515000D03*
D15*
X106045000Y-122555000D03*
X109855000Y-117475000D03*
X107315000Y-131445000D03*
X105410000Y-119380000D03*
X105410000Y-131445000D03*
D16*
X113030000Y-131445000D03*
X109220000Y-131445000D03*
X111125000Y-131445000D03*
D17*
X108755000Y-121046000D02*
X106919000Y-121046000D01*
X106919000Y-121046000D02*
X106045000Y-121920000D01*
X106045000Y-121920000D02*
X106045000Y-122555000D01*
X108165000Y-117475000D02*
X109855000Y-117475000D01*
X107315000Y-127215000D02*
X107315000Y-131445000D01*
X106465000Y-118110000D02*
X106465000Y-117475000D01*
X106465000Y-119380000D02*
X106831000Y-119746000D01*
X106831000Y-119746000D02*
X108755000Y-119746000D01*
X105410000Y-119380000D02*
X106465000Y-119380000D01*
X106465000Y-118110000D02*
X106465000Y-119380000D01*
X105410000Y-127215000D02*
X105410000Y-131445000D01*
D18*
X113665000Y-127000000D02*
X113030000Y-127635000D01*
X113030000Y-127635000D02*
X113030000Y-131445000D01*
X113665000Y-125095000D02*
X113665000Y-127000000D01*
X110955000Y-119746000D02*
X112761000Y-119746000D01*
X112761000Y-119746000D02*
X113665000Y-120650000D01*
X113665000Y-120650000D02*
X113665000Y-125095000D01*
X110955000Y-121046000D02*
X112059000Y-121046000D01*
X112059000Y-121046000D02*
X112395000Y-121382000D01*
X112395000Y-125730000D02*
X109220000Y-128905000D01*
X112395000Y-121382000D02*
X112395000Y-125730000D01*
X109220000Y-128905000D02*
X109220000Y-131445000D01*
X113030000Y-126365000D02*
X111125000Y-128270000D01*
X111125000Y-128270000D02*
X111125000Y-131445000D01*
X113030000Y-125178434D02*
X113030000Y-126365000D01*
X113030000Y-125095000D02*
X113030000Y-125178434D01*
X110955000Y-120396000D02*
X112395000Y-120396000D01*
X112395000Y-120396000D02*
X113030000Y-121031000D01*
X113030000Y-121031000D02*
X113030000Y-125095000D01*
X108755000Y-120396000D02*
X106140500Y-120396000D01*
X106140500Y-120396000D02*
X104775000Y-121761500D01*
X104775000Y-121761500D02*
X104775000Y-123825000D01*
X104775000Y-123825000D02*
X105410000Y-124460000D01*
X105410000Y-124460000D02*
X105410000Y-125515000D01*
X107315000Y-125515000D02*
X105410000Y-125515000D01*
D19*
X106045000Y-122555000D03*
X109855000Y-117475000D03*
X107315000Y-131445000D03*
X105410000Y-119380000D03*
X105410000Y-131445000D03*
X113030000Y-131445000D03*
X109220000Y-131445000D03*
X111125000Y-131445000D03*
M02*
