G04 #@! TF.FileFunction,Copper,L4,Bot,Signal*
%FSLAX46Y46*%
G04 Gerber Fmt 4.6, Leading zero omitted, Abs format (unit mm)*
G04 Created by KiCad (PCBNEW (2016-05-03 BZR 6266)-product) date Fri Jul 15 05:32:01 2016*
%MOMM*%
%LPD*%
G01*
G04 APERTURE LIST*
%ADD10C,0.350000*%
%ADD11C,0.150000*%
%ADD12O,1.270000X3.175000*%
%ADD13R,7.620000X2.540000*%
%ADD14C,1.270000*%
%ADD15C,0.965200*%
%ADD16C,1.168400*%
%ADD17C,0.304800*%
%ADD18C,0.254000*%
%ADD19C,0.350000*%
G04 APERTURE END LIST*
D10*
D11*
X104140000Y-116205000D02*
X104140000Y-135255000D01*
X114935000Y-116205000D02*
X104140000Y-116205000D01*
X114935000Y-135255000D02*
X114935000Y-116205000D01*
X104140000Y-135255000D02*
X114935000Y-135255000D01*
D12*
X105410000Y-133350000D03*
X107950000Y-133350000D03*
X110490000Y-133350000D03*
X113030000Y-133350000D03*
D13*
X109855000Y-123698000D03*
D14*
X105410000Y-130175010D03*
D15*
X111760000Y-127000020D03*
X113665000Y-125831602D03*
D16*
X113665000Y-130810000D03*
X110421700Y-127635000D03*
X107316232Y-121437435D03*
X105410000Y-126999800D03*
X107315000Y-120015000D03*
X113665000Y-117475000D03*
D15*
X110490000Y-118745000D03*
X108585000Y-125831602D03*
D17*
X105410000Y-133350000D02*
X105410000Y-130175010D01*
D18*
X107950000Y-133350000D02*
X107950000Y-132080000D01*
X107950000Y-132080000D02*
X111760000Y-128270000D01*
X111760000Y-128270000D02*
X111760000Y-127682519D01*
X111760000Y-127682519D02*
X111760000Y-127000020D01*
X110490000Y-133350000D02*
X110490000Y-130810000D01*
X110490000Y-130810000D02*
X113665000Y-127635000D01*
X113665000Y-127635000D02*
X113665000Y-126999974D01*
X113665000Y-126999974D02*
X113665000Y-125831602D01*
D17*
X113080801Y-131394199D02*
X113665000Y-130810000D01*
X113030000Y-131445000D02*
X113080801Y-131394199D01*
X113030000Y-133350000D02*
X113030000Y-131445000D01*
D18*
X105511602Y-125831602D02*
X107902501Y-125831602D01*
X104775000Y-125095000D02*
X105511602Y-125831602D01*
X110490000Y-118745000D02*
X110007401Y-118262401D01*
X104775000Y-119856502D02*
X104775000Y-125095000D01*
X107902501Y-125831602D02*
X108585000Y-125831602D01*
X110007401Y-118262401D02*
X106369101Y-118262401D01*
X106369101Y-118262401D02*
X104775000Y-119856502D01*
D19*
X105410000Y-130175010D03*
X111760000Y-127000020D03*
X113665000Y-125831602D03*
X113665000Y-130810000D03*
X110421700Y-127635000D03*
X107316232Y-121437435D03*
X105410000Y-126999800D03*
X107315000Y-120015000D03*
X113665000Y-117475000D03*
X110490000Y-118745000D03*
X108585000Y-125831602D03*
M02*
