G04 #@! TF.FileFunction,Copper,L2,Bot,Signal*
%FSLAX46Y46*%
G04 Gerber Fmt 4.6, Leading zero omitted, Abs format (unit mm)*
G04 Created by KiCad (PCBNEW (2016-05-03 BZR 6266)-product) date Thu Jul 21 02:54:24 2016*
%MOMM*%
%LPD*%
G01*
G04 APERTURE LIST*
%ADD10C,0.350000*%
%ADD11C,0.150000*%
%ADD12R,3.810000X2.540000*%
%ADD13O,1.016000X2.540000*%
%ADD14C,1.168400*%
%ADD15C,0.965200*%
%ADD16C,0.304800*%
%ADD17C,0.254000*%
%ADD18C,0.350000*%
G04 APERTURE END LIST*
D10*
D11*
X104140000Y-116205000D02*
X104140000Y-135255000D01*
X114300000Y-116205000D02*
X104140000Y-116205000D01*
X114300000Y-135255000D02*
X114300000Y-116205000D01*
X104140000Y-135255000D02*
X114300000Y-135255000D01*
D12*
X109220000Y-123825000D03*
D13*
X105410000Y-133350000D03*
X107315000Y-133350000D03*
X109220000Y-133350000D03*
X113030000Y-133350000D03*
X111125000Y-133350000D03*
D14*
X106045000Y-122555000D03*
X109855000Y-117475000D03*
X107315000Y-131445000D03*
X105410000Y-119380000D03*
X105410000Y-131445000D03*
D15*
X113030000Y-131445000D03*
X109220000Y-131445000D03*
X111125000Y-131445000D03*
D16*
X107315000Y-131445000D02*
X107315000Y-133350000D01*
X105410000Y-131445000D02*
X105410000Y-129540000D01*
X105410000Y-129540000D02*
X104775000Y-128905000D01*
X104775000Y-128905000D02*
X104775000Y-121285000D01*
X104775000Y-121285000D02*
X105410000Y-120650000D01*
X105410000Y-120650000D02*
X105410000Y-119380000D01*
X105410000Y-131445000D02*
X105410000Y-133350000D01*
D17*
X113030000Y-131445000D02*
X113030000Y-133350000D01*
X109220000Y-131445000D02*
X109220000Y-133350000D01*
X111125000Y-131445000D02*
X111125000Y-133350000D01*
G36*
X113538000Y-130555831D02*
X113232982Y-130429176D01*
X112828792Y-130428824D01*
X112455234Y-130583175D01*
X112169179Y-130868731D01*
X112077465Y-131089601D01*
X111986825Y-130870234D01*
X111701269Y-130584179D01*
X111327982Y-130429176D01*
X110923792Y-130428824D01*
X110550234Y-130583175D01*
X110264179Y-130868731D01*
X110172465Y-131089601D01*
X110081825Y-130870234D01*
X109796269Y-130584179D01*
X109422982Y-130429176D01*
X109018792Y-130428824D01*
X108645234Y-130583175D01*
X108359179Y-130868731D01*
X108204176Y-131242018D01*
X108203824Y-131646208D01*
X108354157Y-132010042D01*
X108327623Y-132049753D01*
X108322394Y-132033260D01*
X108033421Y-131689974D01*
X107618134Y-131485929D01*
X107442000Y-131611978D01*
X107442000Y-132588000D01*
X107188000Y-132588000D01*
X107188000Y-131611978D01*
X107011866Y-131485929D01*
X106596579Y-131689974D01*
X106442290Y-131873262D01*
X106527406Y-131668280D01*
X106527793Y-131223671D01*
X106358008Y-130812758D01*
X106095800Y-130550092D01*
X106095800Y-129540005D01*
X106095801Y-129540000D01*
X106043597Y-129277555D01*
X105894934Y-129055066D01*
X105460800Y-128620932D01*
X105460800Y-122555000D01*
X106771151Y-122555000D01*
X106771151Y-125095000D01*
X106808344Y-125292666D01*
X106925165Y-125474210D01*
X107103412Y-125596001D01*
X107315000Y-125638849D01*
X111125000Y-125638849D01*
X111322666Y-125601656D01*
X111504210Y-125484835D01*
X111626001Y-125306588D01*
X111668849Y-125095000D01*
X111668849Y-122555000D01*
X111631656Y-122357334D01*
X111514835Y-122175790D01*
X111336588Y-122053999D01*
X111125000Y-122011151D01*
X107315000Y-122011151D01*
X107117334Y-122048344D01*
X106935790Y-122165165D01*
X106813999Y-122343412D01*
X106771151Y-122555000D01*
X105460800Y-122555000D01*
X105460800Y-121569068D01*
X105894934Y-121134934D01*
X106043597Y-120912445D01*
X106095801Y-120650000D01*
X106095800Y-120649995D01*
X106095800Y-120274543D01*
X106356903Y-120013896D01*
X106527406Y-119603280D01*
X106527793Y-119158671D01*
X106358008Y-118747758D01*
X106043896Y-118433097D01*
X105633280Y-118262594D01*
X105188671Y-118262207D01*
X104902000Y-118380656D01*
X104902000Y-116967000D01*
X113538000Y-116967000D01*
X113538000Y-130555831D01*
X113538000Y-130555831D01*
G37*
X113538000Y-130555831D02*
X113232982Y-130429176D01*
X112828792Y-130428824D01*
X112455234Y-130583175D01*
X112169179Y-130868731D01*
X112077465Y-131089601D01*
X111986825Y-130870234D01*
X111701269Y-130584179D01*
X111327982Y-130429176D01*
X110923792Y-130428824D01*
X110550234Y-130583175D01*
X110264179Y-130868731D01*
X110172465Y-131089601D01*
X110081825Y-130870234D01*
X109796269Y-130584179D01*
X109422982Y-130429176D01*
X109018792Y-130428824D01*
X108645234Y-130583175D01*
X108359179Y-130868731D01*
X108204176Y-131242018D01*
X108203824Y-131646208D01*
X108354157Y-132010042D01*
X108327623Y-132049753D01*
X108322394Y-132033260D01*
X108033421Y-131689974D01*
X107618134Y-131485929D01*
X107442000Y-131611978D01*
X107442000Y-132588000D01*
X107188000Y-132588000D01*
X107188000Y-131611978D01*
X107011866Y-131485929D01*
X106596579Y-131689974D01*
X106442290Y-131873262D01*
X106527406Y-131668280D01*
X106527793Y-131223671D01*
X106358008Y-130812758D01*
X106095800Y-130550092D01*
X106095800Y-129540005D01*
X106095801Y-129540000D01*
X106043597Y-129277555D01*
X105894934Y-129055066D01*
X105460800Y-128620932D01*
X105460800Y-122555000D01*
X106771151Y-122555000D01*
X106771151Y-125095000D01*
X106808344Y-125292666D01*
X106925165Y-125474210D01*
X107103412Y-125596001D01*
X107315000Y-125638849D01*
X111125000Y-125638849D01*
X111322666Y-125601656D01*
X111504210Y-125484835D01*
X111626001Y-125306588D01*
X111668849Y-125095000D01*
X111668849Y-122555000D01*
X111631656Y-122357334D01*
X111514835Y-122175790D01*
X111336588Y-122053999D01*
X111125000Y-122011151D01*
X107315000Y-122011151D01*
X107117334Y-122048344D01*
X106935790Y-122165165D01*
X106813999Y-122343412D01*
X106771151Y-122555000D01*
X105460800Y-122555000D01*
X105460800Y-121569068D01*
X105894934Y-121134934D01*
X106043597Y-120912445D01*
X106095801Y-120650000D01*
X106095800Y-120649995D01*
X106095800Y-120274543D01*
X106356903Y-120013896D01*
X106527406Y-119603280D01*
X106527793Y-119158671D01*
X106358008Y-118747758D01*
X106043896Y-118433097D01*
X105633280Y-118262594D01*
X105188671Y-118262207D01*
X104902000Y-118380656D01*
X104902000Y-116967000D01*
X113538000Y-116967000D01*
X113538000Y-130555831D01*
D18*
X106045000Y-122555000D03*
X109855000Y-117475000D03*
X107315000Y-131445000D03*
X105410000Y-119380000D03*
X105410000Y-131445000D03*
X113030000Y-131445000D03*
X109220000Y-131445000D03*
X111125000Y-131445000D03*
M02*
