G04 #@! TF.FileFunction,Soldermask,Bot*
%FSLAX46Y46*%
G04 Gerber Fmt 4.6, Leading zero omitted, Abs format (unit mm)*
G04 Created by KiCad (PCBNEW (2016-05-03 BZR 6266)-product) date Fri Jul 22 02:31:23 2016*
%MOMM*%
%LPD*%
G01*
G04 APERTURE LIST*
%ADD10C,0.350000*%
%ADD11C,0.150000*%
%ADD12C,0.050000*%
G04 APERTURE END LIST*
D10*
D11*
X102870000Y-143510000D02*
X102870000Y-124460000D01*
X188595000Y-124460000D02*
X188595000Y-143510000D01*
X102870000Y-124460000D02*
X188595000Y-124460000D01*
X188595000Y-143510000D02*
X102870000Y-143510000D01*
D12*
G36*
X104249621Y-134186040D02*
X104312702Y-134182773D01*
X104367055Y-134170688D01*
X104380139Y-134165484D01*
X104440455Y-134127676D01*
X104500196Y-134069798D01*
X104558658Y-133992948D01*
X104611271Y-133904707D01*
X104227752Y-133904707D01*
X104213350Y-133878708D01*
X104202208Y-133844655D01*
X104195530Y-133792853D01*
X104193220Y-133726223D01*
X104195180Y-133647683D01*
X104201313Y-133560154D01*
X104211522Y-133466556D01*
X104225709Y-133369810D01*
X104231412Y-133336770D01*
X104239635Y-133292671D01*
X104246305Y-133265400D01*
X104253422Y-133250918D01*
X104262984Y-133245186D01*
X104276990Y-133244166D01*
X104277255Y-133244166D01*
X104295082Y-133242226D01*
X104313222Y-133235044D01*
X104333999Y-133220574D01*
X104359734Y-133196773D01*
X104392749Y-133161597D01*
X104435366Y-133113001D01*
X104463140Y-133080518D01*
X104499364Y-133038160D01*
X104530514Y-133002180D01*
X104554149Y-132975365D01*
X104567825Y-132960499D01*
X104570185Y-132958416D01*
X104571244Y-132964593D01*
X104568377Y-132984143D01*
X104561254Y-133018596D01*
X104549545Y-133069483D01*
X104532918Y-133138333D01*
X104519862Y-133191250D01*
X104486206Y-133318293D01*
X104450158Y-133438688D01*
X104412607Y-133550127D01*
X104374443Y-133650304D01*
X104336556Y-133736913D01*
X104299836Y-133807648D01*
X104265172Y-133860203D01*
X104258738Y-133868124D01*
X104227752Y-133904707D01*
X104611271Y-133904707D01*
X104615137Y-133898224D01*
X104668931Y-133786721D01*
X104719336Y-133659537D01*
X104736795Y-133609291D01*
X104750314Y-133569008D01*
X104761422Y-133535952D01*
X104768259Y-133515654D01*
X104769246Y-133512745D01*
X104780402Y-133510714D01*
X104807240Y-133519454D01*
X104844215Y-133536558D01*
X104886647Y-133556281D01*
X104921495Y-133567132D01*
X104959037Y-133571595D01*
X104991810Y-133572250D01*
X105055170Y-133566959D01*
X105115242Y-133549985D01*
X105175113Y-133519674D01*
X105237871Y-133474374D01*
X105306605Y-133412429D01*
X105325833Y-133393396D01*
X105422720Y-133283821D01*
X105435988Y-133265333D01*
X104973098Y-133265333D01*
X104955399Y-133255307D01*
X104939288Y-133227417D01*
X104925436Y-133184948D01*
X104914517Y-133131182D01*
X104907202Y-133069403D01*
X104904165Y-133002894D01*
X104905922Y-132937250D01*
X104923033Y-132782344D01*
X104953531Y-132624916D01*
X104960254Y-132597400D01*
X104970111Y-132563124D01*
X104982165Y-132535065D01*
X104999888Y-132507576D01*
X105026748Y-132475014D01*
X105053900Y-132445035D01*
X105129879Y-132362644D01*
X105163580Y-132380072D01*
X105207595Y-132394435D01*
X105255097Y-132396768D01*
X105297933Y-132387296D01*
X105318359Y-132375765D01*
X105339434Y-132350754D01*
X105355911Y-132316703D01*
X105358088Y-132309619D01*
X105375880Y-132247216D01*
X105391322Y-132200734D01*
X105406326Y-132165360D01*
X105422803Y-132136281D01*
X105432542Y-132122113D01*
X105451742Y-132098551D01*
X105466524Y-132085693D01*
X105471633Y-132085043D01*
X105480534Y-132102225D01*
X105489959Y-132133102D01*
X105498145Y-132170325D01*
X105503326Y-132206546D01*
X105504210Y-132220675D01*
X105502534Y-132251109D01*
X105497144Y-132293345D01*
X105489179Y-132338581D01*
X105488593Y-132341450D01*
X105462468Y-132442463D01*
X105424312Y-132554426D01*
X105376240Y-132672547D01*
X105320365Y-132792031D01*
X105258804Y-132908084D01*
X105193671Y-133015912D01*
X105185617Y-133028219D01*
X105148197Y-133081913D01*
X105108608Y-133133641D01*
X105069417Y-133180539D01*
X105033192Y-133219745D01*
X105002497Y-133248393D01*
X104979901Y-133263622D01*
X104973098Y-133265333D01*
X105435988Y-133265333D01*
X105513723Y-133157022D01*
X105597044Y-133016547D01*
X105670884Y-132865939D01*
X105733444Y-132708746D01*
X105782926Y-132548512D01*
X105807224Y-132444412D01*
X105820782Y-132363172D01*
X105829361Y-132280719D01*
X105832822Y-132201890D01*
X105831025Y-132131520D01*
X105823830Y-132074446D01*
X105818529Y-132053541D01*
X105796023Y-131995389D01*
X105764943Y-131940436D01*
X105733960Y-131897042D01*
X105697174Y-131848849D01*
X105718319Y-131808320D01*
X105734997Y-131756130D01*
X105732970Y-131704543D01*
X105714507Y-131657005D01*
X105681878Y-131616959D01*
X105637353Y-131587849D01*
X105583202Y-131573120D01*
X105562582Y-131572000D01*
X105524267Y-131574091D01*
X105490160Y-131579404D01*
X105477873Y-131582932D01*
X105451391Y-131597967D01*
X105412205Y-131627149D01*
X105361853Y-131668963D01*
X105301874Y-131721899D01*
X105233805Y-131784443D01*
X105159185Y-131855082D01*
X105079552Y-131932305D01*
X104996443Y-132014599D01*
X104911399Y-132100451D01*
X104825956Y-132188349D01*
X104741652Y-132276780D01*
X104660027Y-132364232D01*
X104582617Y-132449192D01*
X104510963Y-132530149D01*
X104490466Y-132553838D01*
X104460179Y-132588692D01*
X104435712Y-132616166D01*
X104419836Y-132633194D01*
X104415166Y-132637163D01*
X104418410Y-132626175D01*
X104427321Y-132598886D01*
X104440663Y-132559008D01*
X104457204Y-132510249D01*
X104463508Y-132491809D01*
X104504052Y-132379539D01*
X104541625Y-132288138D01*
X104576213Y-132217631D01*
X104607806Y-132168045D01*
X104616014Y-132158026D01*
X104641517Y-132114687D01*
X104648521Y-132067466D01*
X104638060Y-132020645D01*
X104611163Y-131978505D01*
X104568863Y-131945328D01*
X104564170Y-131942843D01*
X104507230Y-131924915D01*
X104449038Y-131926654D01*
X104393691Y-131947248D01*
X104345282Y-131985883D01*
X104344840Y-131986365D01*
X104322831Y-132016724D01*
X104295667Y-132064220D01*
X104264662Y-132125839D01*
X104231132Y-132198564D01*
X104196391Y-132279380D01*
X104161756Y-132365271D01*
X104128540Y-132453222D01*
X104098059Y-132540217D01*
X104082482Y-132588000D01*
X104046365Y-132709010D01*
X104012359Y-132836035D01*
X103980927Y-132966384D01*
X103952535Y-133097367D01*
X103927643Y-133226293D01*
X103906717Y-133350472D01*
X103890219Y-133467213D01*
X103878613Y-133573825D01*
X103872361Y-133667618D01*
X103871928Y-133745901D01*
X103875400Y-133790543D01*
X103896482Y-133890958D01*
X103931789Y-133979679D01*
X103980146Y-134054976D01*
X104040379Y-134115115D01*
X104111315Y-134158363D01*
X104129839Y-134166050D01*
X104185953Y-134180472D01*
X104249621Y-134186040D01*
X104249621Y-134186040D01*
X104249621Y-134186040D01*
G37*
X104249621Y-134186040D02*
X104312702Y-134182773D01*
X104367055Y-134170688D01*
X104380139Y-134165484D01*
X104440455Y-134127676D01*
X104500196Y-134069798D01*
X104558658Y-133992948D01*
X104611271Y-133904707D01*
X104227752Y-133904707D01*
X104213350Y-133878708D01*
X104202208Y-133844655D01*
X104195530Y-133792853D01*
X104193220Y-133726223D01*
X104195180Y-133647683D01*
X104201313Y-133560154D01*
X104211522Y-133466556D01*
X104225709Y-133369810D01*
X104231412Y-133336770D01*
X104239635Y-133292671D01*
X104246305Y-133265400D01*
X104253422Y-133250918D01*
X104262984Y-133245186D01*
X104276990Y-133244166D01*
X104277255Y-133244166D01*
X104295082Y-133242226D01*
X104313222Y-133235044D01*
X104333999Y-133220574D01*
X104359734Y-133196773D01*
X104392749Y-133161597D01*
X104435366Y-133113001D01*
X104463140Y-133080518D01*
X104499364Y-133038160D01*
X104530514Y-133002180D01*
X104554149Y-132975365D01*
X104567825Y-132960499D01*
X104570185Y-132958416D01*
X104571244Y-132964593D01*
X104568377Y-132984143D01*
X104561254Y-133018596D01*
X104549545Y-133069483D01*
X104532918Y-133138333D01*
X104519862Y-133191250D01*
X104486206Y-133318293D01*
X104450158Y-133438688D01*
X104412607Y-133550127D01*
X104374443Y-133650304D01*
X104336556Y-133736913D01*
X104299836Y-133807648D01*
X104265172Y-133860203D01*
X104258738Y-133868124D01*
X104227752Y-133904707D01*
X104611271Y-133904707D01*
X104615137Y-133898224D01*
X104668931Y-133786721D01*
X104719336Y-133659537D01*
X104736795Y-133609291D01*
X104750314Y-133569008D01*
X104761422Y-133535952D01*
X104768259Y-133515654D01*
X104769246Y-133512745D01*
X104780402Y-133510714D01*
X104807240Y-133519454D01*
X104844215Y-133536558D01*
X104886647Y-133556281D01*
X104921495Y-133567132D01*
X104959037Y-133571595D01*
X104991810Y-133572250D01*
X105055170Y-133566959D01*
X105115242Y-133549985D01*
X105175113Y-133519674D01*
X105237871Y-133474374D01*
X105306605Y-133412429D01*
X105325833Y-133393396D01*
X105422720Y-133283821D01*
X105435988Y-133265333D01*
X104973098Y-133265333D01*
X104955399Y-133255307D01*
X104939288Y-133227417D01*
X104925436Y-133184948D01*
X104914517Y-133131182D01*
X104907202Y-133069403D01*
X104904165Y-133002894D01*
X104905922Y-132937250D01*
X104923033Y-132782344D01*
X104953531Y-132624916D01*
X104960254Y-132597400D01*
X104970111Y-132563124D01*
X104982165Y-132535065D01*
X104999888Y-132507576D01*
X105026748Y-132475014D01*
X105053900Y-132445035D01*
X105129879Y-132362644D01*
X105163580Y-132380072D01*
X105207595Y-132394435D01*
X105255097Y-132396768D01*
X105297933Y-132387296D01*
X105318359Y-132375765D01*
X105339434Y-132350754D01*
X105355911Y-132316703D01*
X105358088Y-132309619D01*
X105375880Y-132247216D01*
X105391322Y-132200734D01*
X105406326Y-132165360D01*
X105422803Y-132136281D01*
X105432542Y-132122113D01*
X105451742Y-132098551D01*
X105466524Y-132085693D01*
X105471633Y-132085043D01*
X105480534Y-132102225D01*
X105489959Y-132133102D01*
X105498145Y-132170325D01*
X105503326Y-132206546D01*
X105504210Y-132220675D01*
X105502534Y-132251109D01*
X105497144Y-132293345D01*
X105489179Y-132338581D01*
X105488593Y-132341450D01*
X105462468Y-132442463D01*
X105424312Y-132554426D01*
X105376240Y-132672547D01*
X105320365Y-132792031D01*
X105258804Y-132908084D01*
X105193671Y-133015912D01*
X105185617Y-133028219D01*
X105148197Y-133081913D01*
X105108608Y-133133641D01*
X105069417Y-133180539D01*
X105033192Y-133219745D01*
X105002497Y-133248393D01*
X104979901Y-133263622D01*
X104973098Y-133265333D01*
X105435988Y-133265333D01*
X105513723Y-133157022D01*
X105597044Y-133016547D01*
X105670884Y-132865939D01*
X105733444Y-132708746D01*
X105782926Y-132548512D01*
X105807224Y-132444412D01*
X105820782Y-132363172D01*
X105829361Y-132280719D01*
X105832822Y-132201890D01*
X105831025Y-132131520D01*
X105823830Y-132074446D01*
X105818529Y-132053541D01*
X105796023Y-131995389D01*
X105764943Y-131940436D01*
X105733960Y-131897042D01*
X105697174Y-131848849D01*
X105718319Y-131808320D01*
X105734997Y-131756130D01*
X105732970Y-131704543D01*
X105714507Y-131657005D01*
X105681878Y-131616959D01*
X105637353Y-131587849D01*
X105583202Y-131573120D01*
X105562582Y-131572000D01*
X105524267Y-131574091D01*
X105490160Y-131579404D01*
X105477873Y-131582932D01*
X105451391Y-131597967D01*
X105412205Y-131627149D01*
X105361853Y-131668963D01*
X105301874Y-131721899D01*
X105233805Y-131784443D01*
X105159185Y-131855082D01*
X105079552Y-131932305D01*
X104996443Y-132014599D01*
X104911399Y-132100451D01*
X104825956Y-132188349D01*
X104741652Y-132276780D01*
X104660027Y-132364232D01*
X104582617Y-132449192D01*
X104510963Y-132530149D01*
X104490466Y-132553838D01*
X104460179Y-132588692D01*
X104435712Y-132616166D01*
X104419836Y-132633194D01*
X104415166Y-132637163D01*
X104418410Y-132626175D01*
X104427321Y-132598886D01*
X104440663Y-132559008D01*
X104457204Y-132510249D01*
X104463508Y-132491809D01*
X104504052Y-132379539D01*
X104541625Y-132288138D01*
X104576213Y-132217631D01*
X104607806Y-132168045D01*
X104616014Y-132158026D01*
X104641517Y-132114687D01*
X104648521Y-132067466D01*
X104638060Y-132020645D01*
X104611163Y-131978505D01*
X104568863Y-131945328D01*
X104564170Y-131942843D01*
X104507230Y-131924915D01*
X104449038Y-131926654D01*
X104393691Y-131947248D01*
X104345282Y-131985883D01*
X104344840Y-131986365D01*
X104322831Y-132016724D01*
X104295667Y-132064220D01*
X104264662Y-132125839D01*
X104231132Y-132198564D01*
X104196391Y-132279380D01*
X104161756Y-132365271D01*
X104128540Y-132453222D01*
X104098059Y-132540217D01*
X104082482Y-132588000D01*
X104046365Y-132709010D01*
X104012359Y-132836035D01*
X103980927Y-132966384D01*
X103952535Y-133097367D01*
X103927643Y-133226293D01*
X103906717Y-133350472D01*
X103890219Y-133467213D01*
X103878613Y-133573825D01*
X103872361Y-133667618D01*
X103871928Y-133745901D01*
X103875400Y-133790543D01*
X103896482Y-133890958D01*
X103931789Y-133979679D01*
X103980146Y-134054976D01*
X104040379Y-134115115D01*
X104111315Y-134158363D01*
X104129839Y-134166050D01*
X104185953Y-134180472D01*
X104249621Y-134186040D01*
X104249621Y-134186040D01*
G36*
X103893697Y-136609583D02*
X103941163Y-136603048D01*
X103987653Y-136585308D01*
X104027663Y-136557425D01*
X104042383Y-136541479D01*
X104050181Y-136529276D01*
X104056114Y-136513018D01*
X104060632Y-136489353D01*
X104064185Y-136454933D01*
X104067224Y-136406409D01*
X104070199Y-136340432D01*
X104070533Y-136332163D01*
X104073385Y-136266217D01*
X104077201Y-136185282D01*
X104081674Y-136095493D01*
X104086494Y-136002989D01*
X104091355Y-135913908D01*
X104093006Y-135884708D01*
X104097161Y-135811574D01*
X104100884Y-135745163D01*
X104104011Y-135688489D01*
X104106376Y-135644563D01*
X104107816Y-135616398D01*
X104108190Y-135607297D01*
X104114651Y-135594460D01*
X104132146Y-135569331D01*
X104157917Y-135535676D01*
X104185694Y-135501464D01*
X104212403Y-135470072D01*
X104247924Y-135429320D01*
X104290065Y-135381628D01*
X104336633Y-135329416D01*
X104385436Y-135275105D01*
X104434282Y-135221114D01*
X104480977Y-135169864D01*
X104523330Y-135123774D01*
X104559147Y-135085265D01*
X104586237Y-135056757D01*
X104602406Y-135040669D01*
X104605401Y-135038205D01*
X104608848Y-135045736D01*
X104610664Y-135071967D01*
X104610791Y-135114489D01*
X104609170Y-135170892D01*
X104608855Y-135178483D01*
X104606711Y-135251285D01*
X104607843Y-135307094D01*
X104612992Y-135349932D01*
X104622897Y-135383819D01*
X104638300Y-135412779D01*
X104656409Y-135436691D01*
X104694304Y-135470535D01*
X104739829Y-135494486D01*
X104787093Y-135506670D01*
X104830200Y-135505215D01*
X104849669Y-135498102D01*
X104862349Y-135490192D01*
X104872693Y-135479957D01*
X104880987Y-135465254D01*
X104887514Y-135443945D01*
X104892559Y-135413886D01*
X104896405Y-135372937D01*
X104899337Y-135318956D01*
X104901639Y-135249802D01*
X104903594Y-135163335D01*
X104905099Y-135080375D01*
X104906841Y-134995329D01*
X104909007Y-134916153D01*
X104911481Y-134845569D01*
X104914147Y-134786300D01*
X104916888Y-134741068D01*
X104919587Y-134712596D01*
X104921184Y-134704567D01*
X104932132Y-134687933D01*
X104956215Y-134658809D01*
X104991321Y-134619384D01*
X105035334Y-134571847D01*
X105086141Y-134518387D01*
X105141628Y-134461193D01*
X105199681Y-134402455D01*
X105258185Y-134344362D01*
X105315028Y-134289102D01*
X105368095Y-134238864D01*
X105393612Y-134215347D01*
X105489306Y-134130557D01*
X105573843Y-134060934D01*
X105649134Y-134004994D01*
X105717090Y-133961252D01*
X105730499Y-133953538D01*
X105780198Y-133919882D01*
X105809805Y-133885008D01*
X105820366Y-133846566D01*
X105812924Y-133802207D01*
X105805890Y-133783992D01*
X105773002Y-133730287D01*
X105725127Y-133689183D01*
X105701858Y-133675905D01*
X105662776Y-133662283D01*
X105620114Y-133660845D01*
X105571837Y-133672325D01*
X105515905Y-133697457D01*
X105450280Y-133736977D01*
X105372926Y-133791618D01*
X105365466Y-133797193D01*
X105325336Y-133827562D01*
X105290850Y-133854495D01*
X105258328Y-133881139D01*
X105224093Y-133910644D01*
X105184464Y-133946159D01*
X105135765Y-133990832D01*
X105093487Y-134030000D01*
X105015099Y-134102784D01*
X105002095Y-134064958D01*
X104985551Y-134026478D01*
X104964727Y-134002903D01*
X104933344Y-133988068D01*
X104919732Y-133984075D01*
X104870810Y-133977727D01*
X104820115Y-133982425D01*
X104773199Y-133996471D01*
X104735616Y-134018167D01*
X104712918Y-134045814D01*
X104712188Y-134047533D01*
X104707049Y-134066640D01*
X104699566Y-134102798D01*
X104690401Y-134152105D01*
X104680215Y-134210659D01*
X104669669Y-134274559D01*
X104659425Y-134339904D01*
X104650144Y-134402791D01*
X104642786Y-134456981D01*
X104640225Y-134473211D01*
X104635960Y-134488550D01*
X104628439Y-134505113D01*
X104616112Y-134525015D01*
X104597427Y-134550372D01*
X104570833Y-134583297D01*
X104534777Y-134625907D01*
X104487710Y-134680316D01*
X104432917Y-134743105D01*
X104378870Y-134804973D01*
X104327421Y-134863938D01*
X104280780Y-134917462D01*
X104241157Y-134963006D01*
X104210762Y-134998034D01*
X104191804Y-135020006D01*
X104190270Y-135021799D01*
X104169287Y-135044580D01*
X104154902Y-135056737D01*
X104150583Y-135056422D01*
X104151655Y-135042608D01*
X104154640Y-135011211D01*
X104159192Y-134965692D01*
X104164964Y-134909515D01*
X104171610Y-134846141D01*
X104172102Y-134841490D01*
X104181518Y-134759615D01*
X104190561Y-134694733D01*
X104199028Y-134648085D01*
X104206715Y-134620910D01*
X104209144Y-134616284D01*
X104217944Y-134592476D01*
X104223329Y-134556289D01*
X104224783Y-134516314D01*
X104221793Y-134481139D01*
X104218092Y-134467015D01*
X104199060Y-134444671D01*
X104165002Y-134428914D01*
X104121203Y-134420369D01*
X104072949Y-134419662D01*
X104025522Y-134427419D01*
X103991566Y-134440219D01*
X103961492Y-134459274D01*
X103937963Y-134480524D01*
X103933722Y-134486074D01*
X103925168Y-134508621D01*
X103915719Y-134550467D01*
X103905547Y-134609771D01*
X103894825Y-134684691D01*
X103883725Y-134773385D01*
X103872420Y-134874014D01*
X103861082Y-134984735D01*
X103849883Y-135103707D01*
X103838996Y-135229089D01*
X103828594Y-135359041D01*
X103818848Y-135491720D01*
X103809931Y-135625285D01*
X103802016Y-135757896D01*
X103795274Y-135887711D01*
X103789879Y-136012889D01*
X103789296Y-136028444D01*
X103785153Y-136154144D01*
X103782789Y-136260320D01*
X103782286Y-136348545D01*
X103783724Y-136420395D01*
X103787183Y-136477443D01*
X103792746Y-136521264D01*
X103800491Y-136553431D01*
X103810501Y-136575518D01*
X103817833Y-136584796D01*
X103850753Y-136603853D01*
X103893697Y-136609583D01*
X103893697Y-136609583D01*
X103893697Y-136609583D01*
G37*
X103893697Y-136609583D02*
X103941163Y-136603048D01*
X103987653Y-136585308D01*
X104027663Y-136557425D01*
X104042383Y-136541479D01*
X104050181Y-136529276D01*
X104056114Y-136513018D01*
X104060632Y-136489353D01*
X104064185Y-136454933D01*
X104067224Y-136406409D01*
X104070199Y-136340432D01*
X104070533Y-136332163D01*
X104073385Y-136266217D01*
X104077201Y-136185282D01*
X104081674Y-136095493D01*
X104086494Y-136002989D01*
X104091355Y-135913908D01*
X104093006Y-135884708D01*
X104097161Y-135811574D01*
X104100884Y-135745163D01*
X104104011Y-135688489D01*
X104106376Y-135644563D01*
X104107816Y-135616398D01*
X104108190Y-135607297D01*
X104114651Y-135594460D01*
X104132146Y-135569331D01*
X104157917Y-135535676D01*
X104185694Y-135501464D01*
X104212403Y-135470072D01*
X104247924Y-135429320D01*
X104290065Y-135381628D01*
X104336633Y-135329416D01*
X104385436Y-135275105D01*
X104434282Y-135221114D01*
X104480977Y-135169864D01*
X104523330Y-135123774D01*
X104559147Y-135085265D01*
X104586237Y-135056757D01*
X104602406Y-135040669D01*
X104605401Y-135038205D01*
X104608848Y-135045736D01*
X104610664Y-135071967D01*
X104610791Y-135114489D01*
X104609170Y-135170892D01*
X104608855Y-135178483D01*
X104606711Y-135251285D01*
X104607843Y-135307094D01*
X104612992Y-135349932D01*
X104622897Y-135383819D01*
X104638300Y-135412779D01*
X104656409Y-135436691D01*
X104694304Y-135470535D01*
X104739829Y-135494486D01*
X104787093Y-135506670D01*
X104830200Y-135505215D01*
X104849669Y-135498102D01*
X104862349Y-135490192D01*
X104872693Y-135479957D01*
X104880987Y-135465254D01*
X104887514Y-135443945D01*
X104892559Y-135413886D01*
X104896405Y-135372937D01*
X104899337Y-135318956D01*
X104901639Y-135249802D01*
X104903594Y-135163335D01*
X104905099Y-135080375D01*
X104906841Y-134995329D01*
X104909007Y-134916153D01*
X104911481Y-134845569D01*
X104914147Y-134786300D01*
X104916888Y-134741068D01*
X104919587Y-134712596D01*
X104921184Y-134704567D01*
X104932132Y-134687933D01*
X104956215Y-134658809D01*
X104991321Y-134619384D01*
X105035334Y-134571847D01*
X105086141Y-134518387D01*
X105141628Y-134461193D01*
X105199681Y-134402455D01*
X105258185Y-134344362D01*
X105315028Y-134289102D01*
X105368095Y-134238864D01*
X105393612Y-134215347D01*
X105489306Y-134130557D01*
X105573843Y-134060934D01*
X105649134Y-134004994D01*
X105717090Y-133961252D01*
X105730499Y-133953538D01*
X105780198Y-133919882D01*
X105809805Y-133885008D01*
X105820366Y-133846566D01*
X105812924Y-133802207D01*
X105805890Y-133783992D01*
X105773002Y-133730287D01*
X105725127Y-133689183D01*
X105701858Y-133675905D01*
X105662776Y-133662283D01*
X105620114Y-133660845D01*
X105571837Y-133672325D01*
X105515905Y-133697457D01*
X105450280Y-133736977D01*
X105372926Y-133791618D01*
X105365466Y-133797193D01*
X105325336Y-133827562D01*
X105290850Y-133854495D01*
X105258328Y-133881139D01*
X105224093Y-133910644D01*
X105184464Y-133946159D01*
X105135765Y-133990832D01*
X105093487Y-134030000D01*
X105015099Y-134102784D01*
X105002095Y-134064958D01*
X104985551Y-134026478D01*
X104964727Y-134002903D01*
X104933344Y-133988068D01*
X104919732Y-133984075D01*
X104870810Y-133977727D01*
X104820115Y-133982425D01*
X104773199Y-133996471D01*
X104735616Y-134018167D01*
X104712918Y-134045814D01*
X104712188Y-134047533D01*
X104707049Y-134066640D01*
X104699566Y-134102798D01*
X104690401Y-134152105D01*
X104680215Y-134210659D01*
X104669669Y-134274559D01*
X104659425Y-134339904D01*
X104650144Y-134402791D01*
X104642786Y-134456981D01*
X104640225Y-134473211D01*
X104635960Y-134488550D01*
X104628439Y-134505113D01*
X104616112Y-134525015D01*
X104597427Y-134550372D01*
X104570833Y-134583297D01*
X104534777Y-134625907D01*
X104487710Y-134680316D01*
X104432917Y-134743105D01*
X104378870Y-134804973D01*
X104327421Y-134863938D01*
X104280780Y-134917462D01*
X104241157Y-134963006D01*
X104210762Y-134998034D01*
X104191804Y-135020006D01*
X104190270Y-135021799D01*
X104169287Y-135044580D01*
X104154902Y-135056737D01*
X104150583Y-135056422D01*
X104151655Y-135042608D01*
X104154640Y-135011211D01*
X104159192Y-134965692D01*
X104164964Y-134909515D01*
X104171610Y-134846141D01*
X104172102Y-134841490D01*
X104181518Y-134759615D01*
X104190561Y-134694733D01*
X104199028Y-134648085D01*
X104206715Y-134620910D01*
X104209144Y-134616284D01*
X104217944Y-134592476D01*
X104223329Y-134556289D01*
X104224783Y-134516314D01*
X104221793Y-134481139D01*
X104218092Y-134467015D01*
X104199060Y-134444671D01*
X104165002Y-134428914D01*
X104121203Y-134420369D01*
X104072949Y-134419662D01*
X104025522Y-134427419D01*
X103991566Y-134440219D01*
X103961492Y-134459274D01*
X103937963Y-134480524D01*
X103933722Y-134486074D01*
X103925168Y-134508621D01*
X103915719Y-134550467D01*
X103905547Y-134609771D01*
X103894825Y-134684691D01*
X103883725Y-134773385D01*
X103872420Y-134874014D01*
X103861082Y-134984735D01*
X103849883Y-135103707D01*
X103838996Y-135229089D01*
X103828594Y-135359041D01*
X103818848Y-135491720D01*
X103809931Y-135625285D01*
X103802016Y-135757896D01*
X103795274Y-135887711D01*
X103789879Y-136012889D01*
X103789296Y-136028444D01*
X103785153Y-136154144D01*
X103782789Y-136260320D01*
X103782286Y-136348545D01*
X103783724Y-136420395D01*
X103787183Y-136477443D01*
X103792746Y-136521264D01*
X103800491Y-136553431D01*
X103810501Y-136575518D01*
X103817833Y-136584796D01*
X103850753Y-136603853D01*
X103893697Y-136609583D01*
X103893697Y-136609583D01*
M02*
