G04 #@! TF.GenerationSoftware,KiCad,Pcbnew,5.0.0-fee4fd1~65~ubuntu17.10.1*
G04 #@! TF.CreationDate,2018-09-18T23:20:14-04:00*
G04 #@! TF.ProjectId,front-panel,66726F6E742D70616E656C2E6B696361,A*
G04 #@! TF.SameCoordinates,Original*
G04 #@! TF.FileFunction,Copper,L1,Top,Signal*
G04 #@! TF.FilePolarity,Positive*
%FSLAX46Y46*%
G04 Gerber Fmt 4.6, Leading zero omitted, Abs format (unit mm)*
G04 Created by KiCad (PCBNEW 5.0.0-fee4fd1~65~ubuntu17.10.1) date Tue Sep 18 23:20:14 2018*
%MOMM*%
%LPD*%
G01*
G04 APERTURE LIST*
G04 #@! TA.AperFunction,BGAPad,CuDef*
%ADD10C,1.270000*%
G04 #@! TD*
G04 #@! TA.AperFunction,SMDPad,CuDef*
%ADD11R,12.700000X2.540000*%
G04 #@! TD*
G04 #@! TA.AperFunction,SMDPad,CuDef*
%ADD12R,0.400000X3.000000*%
G04 #@! TD*
G04 #@! TA.AperFunction,SMDPad,CuDef*
%ADD13R,7.620000X2.540000*%
G04 #@! TD*
G04 #@! TA.AperFunction,SMDPad,CuDef*
%ADD14O,1.270000X3.175000*%
G04 #@! TD*
G04 #@! TA.AperFunction,SMDPad,CuDef*
%ADD15R,2.200000X0.600000*%
G04 #@! TD*
G04 #@! TA.AperFunction,SMDPad,CuDef*
%ADD16R,0.900000X0.800000*%
G04 #@! TD*
G04 #@! TA.AperFunction,SMDPad,CuDef*
%ADD17R,5.500000X3.500000*%
G04 #@! TD*
G04 #@! TA.AperFunction,SMDPad,CuDef*
%ADD18R,1.500000X1.300000*%
G04 #@! TD*
G04 #@! TA.AperFunction,SMDPad,CuDef*
%ADD19R,1.200000X0.650000*%
G04 #@! TD*
G04 #@! TA.AperFunction,SMDPad,CuDef*
%ADD20R,1.300000X1.500000*%
G04 #@! TD*
G04 #@! TA.AperFunction,SMDPad,CuDef*
%ADD21R,1.600000X1.800000*%
G04 #@! TD*
G04 #@! TA.AperFunction,SMDPad,CuDef*
%ADD22R,1.100000X1.000000*%
G04 #@! TD*
G04 #@! TA.AperFunction,SMDPad,CuDef*
%ADD23R,1.000000X1.100000*%
G04 #@! TD*
G04 #@! TA.AperFunction,SMDPad,CuDef*
%ADD24R,2.400000X2.400000*%
G04 #@! TD*
G04 #@! TA.AperFunction,SMDPad,CuDef*
%ADD25R,2.032000X2.184400*%
G04 #@! TD*
G04 #@! TA.AperFunction,SMDPad,CuDef*
%ADD26R,5.080000X2.540000*%
G04 #@! TD*
G04 #@! TA.AperFunction,ViaPad*
%ADD27C,1.270000*%
G04 #@! TD*
G04 #@! TA.AperFunction,ViaPad*
%ADD28C,0.965200*%
G04 #@! TD*
G04 #@! TA.AperFunction,Conductor*
%ADD29C,0.406400*%
G04 #@! TD*
G04 #@! TA.AperFunction,Conductor*
%ADD30C,0.254000*%
G04 #@! TD*
%ADD31C,0.350000*%
G04 APERTURE END LIST*
D10*
G04 #@! TO.P,TP2,1*
G04 #@! TO.N,GND*
X137160000Y-126365000D03*
G04 #@! TD*
G04 #@! TO.P,TP3,1*
G04 #@! TO.N,+3V3*
X146685000Y-128270000D03*
G04 #@! TD*
G04 #@! TO.P,TP1,1*
G04 #@! TO.N,+12V*
X140970000Y-126365000D03*
G04 #@! TD*
D11*
G04 #@! TO.P,H3,1*
G04 #@! TO.N,Net-(H3-Pad1)*
X148590000Y-132080000D03*
G04 #@! TD*
D12*
G04 #@! TO.P,U1,16*
G04 #@! TO.N,GND*
X118515000Y-141647600D03*
G04 #@! TO.P,U1,15*
X117815000Y-141647600D03*
G04 #@! TO.P,U1,14*
G04 #@! TO.N,/~RESET*
X117115000Y-141647600D03*
G04 #@! TO.P,U1,13*
G04 #@! TO.N,GND*
X116415000Y-141647600D03*
G04 #@! TO.P,U1,12*
G04 #@! TO.N,Net-(U1-Pad12)*
X115715000Y-141647600D03*
G04 #@! TO.P,U1,11*
G04 #@! TO.N,GND*
X115015000Y-141647600D03*
G04 #@! TO.P,U1,10*
G04 #@! TO.N,+5V*
X114315000Y-141647600D03*
G04 #@! TO.P,U1,9*
G04 #@! TO.N,GND*
X113615000Y-141647600D03*
G04 #@! TO.P,U1,8*
G04 #@! TO.N,+5V*
X112915000Y-141647600D03*
G04 #@! TO.P,U1,7*
G04 #@! TO.N,Net-(C1-Pad2)*
X112215000Y-141647600D03*
G04 #@! TO.P,U1,6*
G04 #@! TO.N,+5V*
X111515000Y-141647600D03*
G04 #@! TO.P,U1,5*
X110815000Y-141647600D03*
G04 #@! TO.P,U1,4*
G04 #@! TO.N,Net-(C1-Pad2)*
X110115000Y-141647600D03*
G04 #@! TO.P,U1,3*
G04 #@! TO.N,GND*
X109415000Y-141647600D03*
G04 #@! TO.P,U1,2*
G04 #@! TO.N,Net-(U1-Pad2)*
X108715000Y-141647600D03*
G04 #@! TO.P,U1,30*
G04 #@! TO.N,GND*
X128315000Y-141647600D03*
G04 #@! TO.P,U1,29*
X127615000Y-141647600D03*
G04 #@! TO.P,U1,28*
X126915000Y-141647600D03*
G04 #@! TO.P,U1,27*
X126215000Y-141647600D03*
G04 #@! TO.P,U1,26*
G04 #@! TO.N,Net-(R1-Pad1)*
X125515000Y-141647600D03*
G04 #@! TO.P,U1,25*
G04 #@! TO.N,GND*
X124815000Y-141647600D03*
G04 #@! TO.P,U1,24*
X124115000Y-141647600D03*
G04 #@! TO.P,U1,23*
X123415000Y-141647600D03*
G04 #@! TO.P,U1,22*
X122715000Y-141647600D03*
G04 #@! TO.P,U1,21*
X122015000Y-141647600D03*
G04 #@! TO.P,U1,20*
G04 #@! TO.N,/SDA*
X121315000Y-141647600D03*
G04 #@! TO.P,U1,19*
X120615000Y-141647600D03*
G04 #@! TO.P,U1,18*
G04 #@! TO.N,/SCL*
X119915000Y-141647600D03*
G04 #@! TO.P,U1,17*
G04 #@! TO.N,GND*
X119215000Y-141647600D03*
G04 #@! TO.P,U1,31*
G04 #@! TO.N,Net-(C2-PadA)*
X129015000Y-141647600D03*
G04 #@! TO.P,U1,32*
G04 #@! TO.N,+12V*
X129715000Y-141647600D03*
G04 #@! TO.P,U1,33*
G04 #@! TO.N,GND*
X130415000Y-141647600D03*
G04 #@! TO.P,U1,1*
X108015000Y-141647600D03*
G04 #@! TD*
D11*
G04 #@! TO.P,H1,1*
G04 #@! TO.N,Net-(H1-Pad1)*
X181610000Y-141605000D03*
G04 #@! TD*
G04 #@! TO.P,H2,1*
G04 #@! TO.N,Net-(H2-Pad1)*
X140335000Y-141605000D03*
G04 #@! TD*
D13*
G04 #@! TO.P,H4,1*
G04 #@! TO.N,Net-(H4-Pad1)*
X95250000Y-141605000D03*
G04 #@! TD*
D14*
G04 #@! TO.P,J1,6*
G04 #@! TO.N,GND*
X154305000Y-140970000D03*
G04 #@! TO.P,J1,5*
G04 #@! TO.N,/INT*
X156845000Y-140970000D03*
G04 #@! TO.P,J1,4*
G04 #@! TO.N,/~RESET*
X159385000Y-140970000D03*
G04 #@! TO.P,J1,3*
G04 #@! TO.N,/SCL*
X161925000Y-140970000D03*
G04 #@! TO.P,J1,2*
G04 #@! TO.N,/SDA*
X164465000Y-140970000D03*
G04 #@! TO.P,J1,1*
G04 #@! TO.N,+5V*
X167005000Y-140970000D03*
G04 #@! TD*
D15*
G04 #@! TO.P,U2,5*
G04 #@! TO.N,Net-(U2-Pad5)*
X170020000Y-132715000D03*
G04 #@! TO.P,U2,6*
G04 #@! TO.N,Net-(U2-Pad6)*
X170020000Y-133985000D03*
G04 #@! TO.P,U2,8*
G04 #@! TO.N,+12V*
X170020000Y-136525000D03*
G04 #@! TO.P,U2,4*
G04 #@! TO.N,GND*
X175420000Y-132715000D03*
G04 #@! TO.P,U2,3*
G04 #@! TO.N,/SW_12V*
X175420000Y-133985000D03*
G04 #@! TO.P,U2,1*
G04 #@! TO.N,+5V*
X175420000Y-136525000D03*
G04 #@! TO.P,U2,7*
G04 #@! TO.N,Net-(U2-Pad7)*
X170020000Y-135255000D03*
G04 #@! TO.P,U2,2*
G04 #@! TO.N,Net-(U2-Pad2)*
X175420000Y-135255000D03*
G04 #@! TD*
D16*
G04 #@! TO.P,Q2,3*
G04 #@! TO.N,/SCL*
X93075000Y-127635000D03*
G04 #@! TO.P,Q2,2*
G04 #@! TO.N,/SCL_3V3*
X91075000Y-128635000D03*
G04 #@! TO.P,Q2,1*
G04 #@! TO.N,+3V3*
X91075000Y-126635000D03*
G04 #@! TD*
D17*
G04 #@! TO.P,L1,2*
G04 #@! TO.N,/SW_12V*
X184150000Y-130750000D03*
G04 #@! TO.P,L1,1*
G04 #@! TO.N,+5V*
X184150000Y-135950000D03*
G04 #@! TD*
D18*
G04 #@! TO.P,C9,1*
G04 #@! TO.N,GND*
X154940000Y-127950000D03*
G04 #@! TO.P,C9,2*
G04 #@! TO.N,+5V*
X154940000Y-126050000D03*
G04 #@! TD*
G04 #@! TO.P,C10,1*
G04 #@! TO.N,GND*
X144780000Y-126050000D03*
G04 #@! TO.P,C10,2*
G04 #@! TO.N,+3V3*
X144780000Y-127950000D03*
G04 #@! TD*
D16*
G04 #@! TO.P,Q1,1*
G04 #@! TO.N,+3V3*
X96155000Y-126635000D03*
G04 #@! TO.P,Q1,2*
G04 #@! TO.N,/SDA_3V3*
X96155000Y-128635000D03*
G04 #@! TO.P,Q1,3*
G04 #@! TO.N,/SDA*
X98155000Y-127635000D03*
G04 #@! TD*
D19*
G04 #@! TO.P,U4,1*
G04 #@! TO.N,+5V*
X151260000Y-127950000D03*
G04 #@! TO.P,U4,2*
G04 #@! TO.N,GND*
X151260000Y-127000000D03*
G04 #@! TO.P,U4,3*
G04 #@! TO.N,+5V*
X151260000Y-126050000D03*
G04 #@! TO.P,U4,4*
G04 #@! TO.N,Net-(U4-Pad4)*
X148460000Y-126050000D03*
G04 #@! TO.P,U4,5*
G04 #@! TO.N,+3V3*
X148460000Y-127950000D03*
G04 #@! TD*
D20*
G04 #@! TO.P,C1,1*
G04 #@! TO.N,GND*
X108900000Y-126365000D03*
G04 #@! TO.P,C1,2*
G04 #@! TO.N,Net-(C1-Pad2)*
X107000000Y-126365000D03*
G04 #@! TD*
D21*
G04 #@! TO.P,C2,A*
G04 #@! TO.N,Net-(C2-PadA)*
X127505000Y-126365000D03*
G04 #@! TO.P,C2,K*
G04 #@! TO.N,GND*
X130305000Y-126365000D03*
G04 #@! TD*
D22*
G04 #@! TO.P,C3,1*
G04 #@! TO.N,GND*
X110910000Y-126365000D03*
G04 #@! TO.P,C3,2*
G04 #@! TO.N,+5V*
X112610000Y-126365000D03*
G04 #@! TD*
D18*
G04 #@! TO.P,C4,A*
G04 #@! TO.N,+12V*
X135890000Y-130490000D03*
G04 #@! TO.P,C4,K*
G04 #@! TO.N,GND*
X135890000Y-128590000D03*
G04 #@! TD*
D20*
G04 #@! TO.P,C5,A*
G04 #@! TO.N,+5V*
X116525000Y-126365000D03*
G04 #@! TO.P,C5,K*
G04 #@! TO.N,GND*
X118425000Y-126365000D03*
G04 #@! TD*
D23*
G04 #@! TO.P,C6,1*
G04 #@! TO.N,GND*
X138430000Y-128690000D03*
G04 #@! TO.P,C6,2*
G04 #@! TO.N,+12V*
X138430000Y-130390000D03*
G04 #@! TD*
D24*
G04 #@! TO.P,C7,A*
G04 #@! TO.N,+12V*
X168635000Y-127635000D03*
G04 #@! TO.P,C7,K*
G04 #@! TO.N,GND*
X162835000Y-127635000D03*
G04 #@! TD*
D25*
G04 #@! TO.P,D1,A*
G04 #@! TO.N,/SW_12V*
X177546000Y-127635000D03*
G04 #@! TO.P,D1,K*
G04 #@! TO.N,+12V*
X172974000Y-127635000D03*
G04 #@! TD*
D22*
G04 #@! TO.P,R1,1*
G04 #@! TO.N,Net-(R1-Pad1)*
X122340000Y-126365000D03*
G04 #@! TO.P,R1,2*
G04 #@! TO.N,GND*
X124040000Y-126365000D03*
G04 #@! TD*
G04 #@! TO.P,R4,1*
G04 #@! TO.N,/SDA_3V3*
X94195000Y-137795000D03*
G04 #@! TO.P,R4,2*
G04 #@! TO.N,+3V3*
X92495000Y-137795000D03*
G04 #@! TD*
G04 #@! TO.P,R5,1*
G04 #@! TO.N,/SCL_3V3*
X94195000Y-135255000D03*
G04 #@! TO.P,R5,2*
G04 #@! TO.N,+3V3*
X92495000Y-135255000D03*
G04 #@! TD*
G04 #@! TO.P,R3,1*
G04 #@! TO.N,GND*
X138010000Y-137795000D03*
G04 #@! TO.P,R3,2*
G04 #@! TO.N,/~RESET*
X136310000Y-137795000D03*
G04 #@! TD*
G04 #@! TO.P,R2,1*
G04 #@! TO.N,/INT*
X137375000Y-135890000D03*
G04 #@! TO.P,R2,2*
G04 #@! TO.N,+3V3*
X135675000Y-135890000D03*
G04 #@! TD*
D26*
G04 #@! TO.P,H5,1*
G04 #@! TO.N,Net-(H5-Pad1)*
X93980000Y-132080000D03*
G04 #@! TD*
D27*
G04 #@! TO.N,GND*
X131445000Y-137160000D03*
X127635000Y-137160000D03*
X104140000Y-137160000D03*
X113665000Y-136525000D03*
X116840000Y-136525000D03*
X116840000Y-128270000D03*
X118745000Y-128270000D03*
X120650000Y-128270000D03*
X120650000Y-126365000D03*
X109220000Y-128905000D03*
X111125000Y-128905000D03*
X113030000Y-128905000D03*
X104775000Y-142240000D03*
X108585000Y-139065000D03*
X108585000Y-137160000D03*
X152400000Y-142240000D03*
X150495000Y-142240000D03*
X148590000Y-142240000D03*
X148590000Y-138430000D03*
X150495000Y-138430000D03*
X152400000Y-138430000D03*
X154305000Y-138430000D03*
X142875000Y-126365000D03*
X147955000Y-129540000D03*
X151765000Y-129540000D03*
X149860000Y-129540000D03*
X170815000Y-130810000D03*
X159385000Y-129540000D03*
X159385000Y-125730000D03*
X159385000Y-127635000D03*
X124460000Y-136525000D03*
X127635000Y-139065000D03*
X131445000Y-139065000D03*
X172720000Y-136525000D03*
X172720000Y-134620000D03*
X172720000Y-132715000D03*
X174625000Y-130810000D03*
X172720000Y-130810000D03*
X139700000Y-137795000D03*
X138430000Y-127000000D03*
X135890000Y-127000000D03*
X132334000Y-126492000D03*
X132334000Y-128524000D03*
X130302000Y-128524000D03*
X123825000Y-128270000D03*
X125730000Y-128270000D03*
X125730000Y-126365000D03*
D28*
G04 #@! TO.N,/SDA*
X164465000Y-138430000D03*
X98425000Y-126365000D03*
X121285000Y-139065000D03*
G04 #@! TO.N,/SCL*
X94615000Y-127000000D03*
X161925000Y-138430000D03*
X121285000Y-137795000D03*
D27*
G04 #@! TO.N,+5V*
X143510000Y-135890000D03*
X123824990Y-133985000D03*
X111760000Y-136525000D03*
X180340000Y-138430000D03*
X180340000Y-136525000D03*
X158114982Y-135890000D03*
X156845000Y-131445000D03*
X178435000Y-138430000D03*
X178435000Y-136525000D03*
X114935000Y-138430000D03*
X114300000Y-127635000D03*
X114300000Y-126365000D03*
X111125000Y-139065000D03*
G04 #@! TO.N,/SW_12V*
X179705000Y-128905000D03*
X179705000Y-130810000D03*
X181610000Y-127635000D03*
X186690000Y-127635000D03*
X184150000Y-127635000D03*
D28*
G04 #@! TO.N,/~RESET*
X133985000Y-138430000D03*
X118110000Y-137795000D03*
X159385000Y-138430000D03*
D27*
G04 #@! TO.N,+3V3*
X107950016Y-132080000D03*
X90805000Y-136525000D03*
X132080000Y-132715000D03*
X93345000Y-125730000D03*
X117475000Y-131445000D03*
X123825000Y-131445000D03*
X142875000Y-128905000D03*
D28*
G04 #@! TO.N,/SDA_3V3*
X97790024Y-129540000D03*
G04 #@! TO.N,/SCL_3V3*
X97790000Y-135890000D03*
G04 #@! TO.N,/INT*
X97155000Y-138430000D03*
X108584994Y-134086611D03*
X116205000Y-132715000D03*
X122555000Y-132715000D03*
X133985000Y-134620000D03*
G04 #@! TD*
D29*
G04 #@! TO.N,GND*
X131445000Y-139065000D02*
X131445000Y-137160000D01*
X127635000Y-139065000D02*
X127635000Y-137160000D01*
X108585000Y-137160000D02*
X104140000Y-137160000D01*
X124460000Y-136525000D02*
X116840000Y-136525000D01*
X120650000Y-128270000D02*
X118745000Y-128270000D01*
X118425000Y-126365000D02*
X120650000Y-126365000D01*
X108900000Y-128585000D02*
X109220000Y-128905000D01*
X108900000Y-126365000D02*
X108900000Y-128585000D01*
X113030000Y-128905000D02*
X111125000Y-128905000D01*
X117815000Y-139741200D02*
X118515000Y-139741200D01*
X118515000Y-141647600D02*
X118515000Y-139741200D01*
X104775000Y-139065000D02*
X104775000Y-142240000D01*
X108585000Y-139065000D02*
X104775000Y-139065000D01*
X109415000Y-141647600D02*
X109415000Y-139895000D01*
X109415000Y-139895000D02*
X108585000Y-139065000D01*
X108015000Y-141647600D02*
X108015000Y-139635000D01*
X108015000Y-139635000D02*
X108585000Y-139065000D01*
X150495000Y-142240000D02*
X152400000Y-142240000D01*
X148590000Y-138430000D02*
X148590000Y-142240000D01*
X152400000Y-138430000D02*
X150495000Y-138430000D01*
X154305000Y-140970000D02*
X154305000Y-138430000D01*
X139700000Y-137795000D02*
X138010000Y-137795000D01*
X127615000Y-141647600D02*
X127615000Y-139085000D01*
X127615000Y-139085000D02*
X127635000Y-139065000D01*
X126915000Y-141647600D02*
X126915000Y-139785000D01*
X126915000Y-139785000D02*
X127635000Y-139065000D01*
X126215000Y-141647600D02*
X126215000Y-139741200D01*
X126215000Y-139741200D02*
X126365000Y-139591200D01*
X144780000Y-126050000D02*
X143190000Y-126050000D01*
X143190000Y-126050000D02*
X142875000Y-126365000D01*
X149860000Y-129540000D02*
X147955000Y-129540000D01*
X151260000Y-127000000D02*
X150253600Y-127000000D01*
X150253600Y-127000000D02*
X149860000Y-127393600D01*
X149860000Y-127393600D02*
X149860000Y-129540000D01*
X172720000Y-130810000D02*
X170815000Y-130810000D01*
X159385000Y-127635000D02*
X159385000Y-129540000D01*
X162835000Y-127635000D02*
X159385000Y-127635000D01*
X124815000Y-141647600D02*
X124815000Y-136880000D01*
X124815000Y-136880000D02*
X124460000Y-136525000D01*
X117815000Y-141647600D02*
X117815000Y-139741200D01*
X128315000Y-141647600D02*
X128315000Y-139745000D01*
X128315000Y-139745000D02*
X127635000Y-139065000D01*
X130415000Y-141647600D02*
X130415000Y-140095000D01*
X130415000Y-140095000D02*
X131445000Y-139065000D01*
X172720000Y-134620000D02*
X172720000Y-136525000D01*
X172720000Y-132715000D02*
X172720000Y-130810000D01*
X175420000Y-132715000D02*
X172720000Y-132715000D01*
X137160000Y-127000000D02*
X135890000Y-127000000D01*
X137160000Y-127000000D02*
X138430000Y-127000000D01*
X137160000Y-125730000D02*
X137160000Y-127000000D01*
X138430000Y-128690000D02*
X138430000Y-127000000D01*
X135890000Y-128590000D02*
X135890000Y-127000000D01*
X130305000Y-126365000D02*
X132207000Y-126365000D01*
X132207000Y-126365000D02*
X132334000Y-126492000D01*
X130302000Y-128524000D02*
X132334000Y-128524000D01*
X130305000Y-126365000D02*
X130305000Y-128521000D01*
X130305000Y-128521000D02*
X130302000Y-128524000D01*
X125730000Y-128270000D02*
X123825000Y-128270000D01*
X125730000Y-126365000D02*
X125730000Y-128270000D01*
X124040000Y-126365000D02*
X125730000Y-126365000D01*
D30*
G04 #@! TO.N,Net-(R1-Pad1)*
X125515000Y-141673000D02*
X125515000Y-130586868D01*
X125515000Y-130586868D02*
X124468132Y-129540000D01*
X123190000Y-129540000D02*
X122340000Y-128690000D01*
X122340000Y-128690000D02*
X122340000Y-127119000D01*
X124468132Y-129540000D02*
X123190000Y-129540000D01*
X122340000Y-127119000D02*
X122340000Y-126365000D01*
G04 #@! TO.N,/SDA*
X164465000Y-140970000D02*
X164465000Y-138430000D01*
X98155000Y-126635000D02*
X98155000Y-127635000D01*
X98425000Y-126365000D02*
X98155000Y-126635000D01*
X121315000Y-141673000D02*
X121315000Y-139095000D01*
X121315000Y-139095000D02*
X121285000Y-139065000D01*
X120615000Y-141673000D02*
X120615000Y-139735000D01*
X120615000Y-139735000D02*
X121285000Y-139065000D01*
G04 #@! TO.N,/SCL*
X93980000Y-127635000D02*
X94132401Y-127482599D01*
X93075000Y-127635000D02*
X93980000Y-127635000D01*
X94132401Y-127482599D02*
X94615000Y-127000000D01*
X161925000Y-140970000D02*
X161925000Y-138430000D01*
X119915000Y-139165000D02*
X121285000Y-137795000D01*
X119915000Y-141673000D02*
X119915000Y-139165000D01*
D29*
G04 #@! TO.N,+5V*
X143510000Y-135890000D02*
X158114982Y-135890000D01*
X113030000Y-133985000D02*
X114300000Y-133985000D01*
X114300000Y-133985000D02*
X123824990Y-133985000D01*
X114300000Y-127635000D02*
X114300000Y-133985000D01*
X111760000Y-136525000D02*
X111760000Y-135255000D01*
X111760000Y-135255000D02*
X113030000Y-133985000D01*
X111760000Y-136525000D02*
X112915000Y-137680000D01*
X112915000Y-137680000D02*
X112915000Y-141647600D01*
X151260000Y-127950000D02*
X152720000Y-127950000D01*
X152720000Y-127950000D02*
X153035000Y-127635000D01*
X153035000Y-127635000D02*
X153035000Y-126050000D01*
X151260000Y-126050000D02*
X153035000Y-126050000D01*
X153035000Y-126050000D02*
X154940000Y-126050000D01*
X178435000Y-136525000D02*
X180340000Y-136525000D01*
X159013025Y-135889998D02*
X159013023Y-135890000D01*
X159013023Y-135890000D02*
X158114982Y-135890000D01*
X164464998Y-135889998D02*
X159013025Y-135889998D01*
X167005000Y-138430000D02*
X164464998Y-135889998D01*
X159013023Y-135890000D02*
X159013007Y-135890000D01*
X156845000Y-126798600D02*
X156845000Y-131445000D01*
X154940000Y-126050000D02*
X156096400Y-126050000D01*
X156096400Y-126050000D02*
X156845000Y-126798600D01*
X178435000Y-136525000D02*
X178435000Y-138430000D01*
X175420000Y-136525000D02*
X178435000Y-136525000D01*
X167005000Y-138430000D02*
X178435000Y-138430000D01*
X111515000Y-141647600D02*
X111515000Y-140580000D01*
X111515000Y-140580000D02*
X111515000Y-139766600D01*
X110815000Y-141647600D02*
X110815000Y-139686600D01*
X167005000Y-140970000D02*
X167005000Y-138430000D01*
X114315000Y-139050000D02*
X114935000Y-138430000D01*
X114315000Y-141673000D02*
X114315000Y-139050000D01*
X114300000Y-126365000D02*
X114300000Y-127635000D01*
X114300000Y-126365000D02*
X116525000Y-126365000D01*
X112610000Y-126365000D02*
X114300000Y-126365000D01*
X111125000Y-139376600D02*
X110815000Y-139686600D01*
X111125000Y-139376600D02*
X111125000Y-139065000D01*
X111515000Y-141673000D02*
X111515000Y-139766600D01*
X111515000Y-139766600D02*
X111125000Y-139376600D01*
D30*
G04 #@! TO.N,Net-(C1-Pad2)*
X107000000Y-126365000D02*
X107000000Y-128991316D01*
X107000000Y-128991316D02*
X110108999Y-132100315D01*
X110108999Y-132100315D02*
X110108999Y-137795000D01*
X112215000Y-141673000D02*
X112215000Y-138250000D01*
X112215000Y-138250000D02*
X111760000Y-137795000D01*
X111760000Y-137795000D02*
X110108999Y-137795000D01*
X110108999Y-140045998D02*
X110108999Y-137795000D01*
X110115000Y-141673000D02*
X110115000Y-140051999D01*
X110115000Y-140051999D02*
X110108999Y-140045998D01*
G04 #@! TO.N,Net-(C2-PadA)*
X129015000Y-141673000D02*
X129015000Y-134730000D01*
X129015000Y-134730000D02*
X127505000Y-133220000D01*
X127505000Y-133220000D02*
X127505000Y-126365000D01*
D29*
G04 #@! TO.N,+12V*
X140970000Y-129540000D02*
X140120000Y-130390000D01*
X140120000Y-130390000D02*
X138430000Y-130390000D01*
X166370000Y-133985000D02*
X156845000Y-133985000D01*
X156845000Y-133985000D02*
X156210000Y-134620000D01*
X156210000Y-134620000D02*
X140970000Y-134620000D01*
X140970000Y-134620000D02*
X138430000Y-132080000D01*
X138430000Y-132080000D02*
X138430000Y-130390000D01*
X129715000Y-141673000D02*
X129715000Y-132540000D01*
X129715000Y-132540000D02*
X131765000Y-130490000D01*
X131765000Y-130490000D02*
X135890000Y-130490000D01*
X166370000Y-133985000D02*
X166370000Y-132080000D01*
X166370000Y-132080000D02*
X168635000Y-129815000D01*
X168635000Y-129815000D02*
X168635000Y-127635000D01*
X170020000Y-136525000D02*
X167640000Y-136525000D01*
X167640000Y-136525000D02*
X166370000Y-135255000D01*
X166370000Y-135255000D02*
X166370000Y-133985000D01*
X172974000Y-127635000D02*
X168635000Y-127635000D01*
X135890000Y-130490000D02*
X138330000Y-130490000D01*
X138330000Y-130490000D02*
X138430000Y-130390000D01*
X140970000Y-126365000D02*
X140970000Y-129540000D01*
G04 #@! TO.N,/SW_12V*
X179705000Y-130810000D02*
X179705000Y-128905000D01*
X179705000Y-128905000D02*
X179705000Y-127635000D01*
X177546000Y-127635000D02*
X179705000Y-127635000D01*
X179705000Y-127635000D02*
X181610000Y-127635000D01*
X179705000Y-133350000D02*
X179705000Y-130810000D01*
X179070000Y-133985000D02*
X179705000Y-133350000D01*
X175420000Y-133985000D02*
X179070000Y-133985000D01*
X184150000Y-127635000D02*
X181610000Y-127635000D01*
X184150000Y-127635000D02*
X186690000Y-127635000D01*
D30*
G04 #@! TO.N,/~RESET*
X134620000Y-137795000D02*
X136310000Y-137795000D01*
X133985000Y-138430000D02*
X134620000Y-137795000D01*
X117627401Y-138277599D02*
X118110000Y-137795000D01*
X117115000Y-141673000D02*
X117115000Y-138790000D01*
X117115000Y-138790000D02*
X117627401Y-138277599D01*
X159385000Y-140970000D02*
X159385000Y-138430000D01*
D29*
G04 #@! TO.N,+3V3*
X96155000Y-125095000D02*
X103505000Y-125095000D01*
X105410000Y-130810000D02*
X106680000Y-132080000D01*
X106680000Y-132080000D02*
X107950016Y-132080000D01*
X103505000Y-125095000D02*
X105410000Y-127000000D01*
X105410000Y-127000000D02*
X105410000Y-130810000D01*
X148460000Y-127950000D02*
X147005000Y-127950000D01*
X147005000Y-127950000D02*
X146685000Y-128270000D01*
X92495000Y-136525000D02*
X92495000Y-135255000D01*
X92495000Y-137795000D02*
X92495000Y-136525000D01*
X92495000Y-136525000D02*
X90805000Y-136525000D01*
X135675000Y-135890000D02*
X133350000Y-135890000D01*
X133350000Y-135890000D02*
X132080000Y-134620000D01*
X132080000Y-134620000D02*
X132080000Y-132715000D01*
X93345000Y-125730000D02*
X91980000Y-125730000D01*
X91980000Y-125730000D02*
X91075000Y-126635000D01*
X93980000Y-125730000D02*
X94615000Y-125095000D01*
X94615000Y-125095000D02*
X96155000Y-125095000D01*
X93345000Y-125730000D02*
X93980000Y-125730000D01*
X96155000Y-126635000D02*
X96155000Y-125095000D01*
X123825000Y-131445000D02*
X117475000Y-131445000D01*
X144780000Y-127950000D02*
X143830000Y-127950000D01*
X143830000Y-127950000D02*
X142875000Y-128905000D01*
X148460000Y-127950000D02*
X144780000Y-127950000D01*
D30*
G04 #@! TO.N,/SDA_3V3*
X94195000Y-137795000D02*
X95885000Y-137795000D01*
X95885000Y-137795000D02*
X96520000Y-137160000D01*
X96520000Y-137160000D02*
X98425000Y-137160000D01*
X98425000Y-137160000D02*
X99060000Y-136525000D01*
X99060000Y-136525000D02*
X99060000Y-130809976D01*
X99060000Y-130809976D02*
X98272623Y-130022599D01*
X98272623Y-130022599D02*
X97790024Y-129540000D01*
X96885024Y-128635000D02*
X97307425Y-129057401D01*
X97307425Y-129057401D02*
X97790024Y-129540000D01*
X96155000Y-128635000D02*
X96885024Y-128635000D01*
G04 #@! TO.N,/SCL_3V3*
X97790000Y-135890000D02*
X97790000Y-130810000D01*
X97790000Y-130810000D02*
X97155000Y-130175000D01*
X97155000Y-130175000D02*
X95250000Y-130175000D01*
X95250000Y-130175000D02*
X93710000Y-128635000D01*
X93710000Y-128635000D02*
X91075000Y-128635000D01*
X95885000Y-135255000D02*
X96520000Y-135890000D01*
X96520000Y-135890000D02*
X97790000Y-135890000D01*
X94195000Y-135255000D02*
X95885000Y-135255000D01*
G04 #@! TO.N,/INT*
X97155000Y-138430000D02*
X99060000Y-138430000D01*
X99060000Y-138430000D02*
X99695000Y-137795000D01*
X99695000Y-127635000D02*
X100330000Y-127000000D01*
X99695000Y-137795000D02*
X99695000Y-127635000D01*
X100330000Y-127000000D02*
X103505000Y-127000000D01*
X104140000Y-127635000D02*
X104140000Y-132080000D01*
X103505000Y-127000000D02*
X104140000Y-127635000D01*
X104140000Y-132080000D02*
X106146611Y-134086611D01*
X106146611Y-134086611D02*
X107902495Y-134086611D01*
X107902495Y-134086611D02*
X108584994Y-134086611D01*
X106781611Y-134086611D02*
X107902495Y-134086611D01*
X116205000Y-132715000D02*
X122555000Y-132715000D01*
X137375000Y-134620000D02*
X139065000Y-134620000D01*
X133985000Y-134620000D02*
X137375000Y-134620000D01*
X137375000Y-134620000D02*
X137375000Y-135890000D01*
X139065000Y-134620000D02*
X141605000Y-137160000D01*
X141605000Y-137160000D02*
X155575000Y-137160000D01*
X155575000Y-137160000D02*
X156845000Y-138430000D01*
X156845000Y-138430000D02*
X156845000Y-140970000D01*
G04 #@! TD*
G04 #@! TO.N,GND*
G36*
X109550200Y-137739960D02*
X109539252Y-137795000D01*
X109550200Y-137850040D01*
X109550199Y-139788551D01*
X109515000Y-139823750D01*
X109515000Y-139969024D01*
X109508254Y-139979120D01*
X109474741Y-140147600D01*
X109474741Y-141794600D01*
X109355259Y-141794600D01*
X109355259Y-140147600D01*
X109321746Y-139979120D01*
X109315000Y-139969024D01*
X109315000Y-139823750D01*
X109207050Y-139715800D01*
X109129110Y-139715800D01*
X109073443Y-139738858D01*
X108915000Y-139707341D01*
X108515000Y-139707341D01*
X108356557Y-139738858D01*
X108300890Y-139715800D01*
X108222950Y-139715800D01*
X108115000Y-139823750D01*
X108115000Y-139969024D01*
X108108254Y-139979120D01*
X108074741Y-140147600D01*
X108074741Y-141794600D01*
X107915000Y-141794600D01*
X107915000Y-141774600D01*
X107491150Y-141774600D01*
X107383200Y-141882550D01*
X107383200Y-142113000D01*
X106045000Y-142113000D01*
X105996399Y-142122667D01*
X105955197Y-142150197D01*
X105927667Y-142191399D01*
X105918000Y-142240000D01*
X105918000Y-143003200D01*
X102997000Y-143003200D01*
X102997000Y-142057351D01*
X103011777Y-142039741D01*
X103232311Y-141657767D01*
X103232312Y-141657766D01*
X103292511Y-141492370D01*
X103368151Y-141063393D01*
X103376800Y-141019911D01*
X103376800Y-140061709D01*
X107383200Y-140061709D01*
X107383200Y-141412650D01*
X107491150Y-141520600D01*
X107915000Y-141520600D01*
X107915000Y-139823750D01*
X107807050Y-139715800D01*
X107729110Y-139715800D01*
X107570405Y-139781537D01*
X107448938Y-139903005D01*
X107383200Y-140061709D01*
X103376800Y-140061709D01*
X103376800Y-136017000D01*
X109550200Y-136017000D01*
X109550200Y-137739960D01*
X109550200Y-137739960D01*
G37*
X109550200Y-137739960D02*
X109539252Y-137795000D01*
X109550200Y-137850040D01*
X109550199Y-139788551D01*
X109515000Y-139823750D01*
X109515000Y-139969024D01*
X109508254Y-139979120D01*
X109474741Y-140147600D01*
X109474741Y-141794600D01*
X109355259Y-141794600D01*
X109355259Y-140147600D01*
X109321746Y-139979120D01*
X109315000Y-139969024D01*
X109315000Y-139823750D01*
X109207050Y-139715800D01*
X109129110Y-139715800D01*
X109073443Y-139738858D01*
X108915000Y-139707341D01*
X108515000Y-139707341D01*
X108356557Y-139738858D01*
X108300890Y-139715800D01*
X108222950Y-139715800D01*
X108115000Y-139823750D01*
X108115000Y-139969024D01*
X108108254Y-139979120D01*
X108074741Y-140147600D01*
X108074741Y-141794600D01*
X107915000Y-141794600D01*
X107915000Y-141774600D01*
X107491150Y-141774600D01*
X107383200Y-141882550D01*
X107383200Y-142113000D01*
X106045000Y-142113000D01*
X105996399Y-142122667D01*
X105955197Y-142150197D01*
X105927667Y-142191399D01*
X105918000Y-142240000D01*
X105918000Y-143003200D01*
X102997000Y-143003200D01*
X102997000Y-142057351D01*
X103011777Y-142039741D01*
X103232311Y-141657767D01*
X103232312Y-141657766D01*
X103292511Y-141492370D01*
X103368151Y-141063393D01*
X103376800Y-141019911D01*
X103376800Y-140061709D01*
X107383200Y-140061709D01*
X107383200Y-141412650D01*
X107491150Y-141520600D01*
X107915000Y-141520600D01*
X107915000Y-139823750D01*
X107807050Y-139715800D01*
X107729110Y-139715800D01*
X107570405Y-139781537D01*
X107448938Y-139903005D01*
X107383200Y-140061709D01*
X103376800Y-140061709D01*
X103376800Y-136017000D01*
X109550200Y-136017000D01*
X109550200Y-137739960D01*
G36*
X131953000Y-142113000D02*
X131046800Y-142113000D01*
X131046800Y-141882550D01*
X130938850Y-141774600D01*
X130515000Y-141774600D01*
X130515000Y-141794600D01*
X130355259Y-141794600D01*
X130355259Y-140147600D01*
X130350000Y-140121161D01*
X130350000Y-139823750D01*
X130515000Y-139823750D01*
X130515000Y-141520600D01*
X130938850Y-141520600D01*
X131046800Y-141412650D01*
X131046800Y-140061709D01*
X130981062Y-139903005D01*
X130859595Y-139781537D01*
X130700890Y-139715800D01*
X130622950Y-139715800D01*
X130515000Y-139823750D01*
X130350000Y-139823750D01*
X130350000Y-136017000D01*
X131953000Y-136017000D01*
X131953000Y-142113000D01*
X131953000Y-142113000D01*
G37*
X131953000Y-142113000D02*
X131046800Y-142113000D01*
X131046800Y-141882550D01*
X130938850Y-141774600D01*
X130515000Y-141774600D01*
X130515000Y-141794600D01*
X130355259Y-141794600D01*
X130355259Y-140147600D01*
X130350000Y-140121161D01*
X130350000Y-139823750D01*
X130515000Y-139823750D01*
X130515000Y-141520600D01*
X130938850Y-141520600D01*
X131046800Y-141412650D01*
X131046800Y-140061709D01*
X130981062Y-139903005D01*
X130859595Y-139781537D01*
X130700890Y-139715800D01*
X130622950Y-139715800D01*
X130515000Y-139823750D01*
X130350000Y-139823750D01*
X130350000Y-136017000D01*
X131953000Y-136017000D01*
X131953000Y-142113000D01*
G36*
X124956200Y-139782550D02*
X124915000Y-139823750D01*
X124915000Y-139969024D01*
X124908254Y-139979120D01*
X124874741Y-140147600D01*
X124874741Y-141794600D01*
X124715000Y-141794600D01*
X124715000Y-141774600D01*
X124215000Y-141774600D01*
X124215000Y-141794600D01*
X124015000Y-141794600D01*
X124015000Y-141774600D01*
X123515000Y-141774600D01*
X123515000Y-141794600D01*
X123315000Y-141794600D01*
X123315000Y-141774600D01*
X122815000Y-141774600D01*
X122815000Y-141794600D01*
X122615000Y-141794600D01*
X122615000Y-141774600D01*
X122115000Y-141774600D01*
X122115000Y-141794600D01*
X121955259Y-141794600D01*
X121955259Y-140147600D01*
X121938175Y-140061709D01*
X122083200Y-140061709D01*
X122083200Y-141412650D01*
X122115000Y-141444450D01*
X122115000Y-141520600D01*
X122615000Y-141520600D01*
X122615000Y-141444450D01*
X122646800Y-141412650D01*
X122646800Y-140061709D01*
X122783200Y-140061709D01*
X122783200Y-141412650D01*
X122815000Y-141444450D01*
X122815000Y-141520600D01*
X123315000Y-141520600D01*
X123315000Y-141444450D01*
X123346800Y-141412650D01*
X123346800Y-140061709D01*
X123483200Y-140061709D01*
X123483200Y-141412650D01*
X123515000Y-141444450D01*
X123515000Y-141520600D01*
X124015000Y-141520600D01*
X124015000Y-141444450D01*
X124046800Y-141412650D01*
X124046800Y-140061709D01*
X124183200Y-140061709D01*
X124183200Y-141412650D01*
X124215000Y-141444450D01*
X124215000Y-141520600D01*
X124715000Y-141520600D01*
X124715000Y-141444450D01*
X124746800Y-141412650D01*
X124746800Y-140061709D01*
X124715000Y-139984938D01*
X124715000Y-139823750D01*
X124607050Y-139715800D01*
X124529110Y-139715800D01*
X124465000Y-139742355D01*
X124400890Y-139715800D01*
X124322950Y-139715800D01*
X124215000Y-139823750D01*
X124215000Y-139984938D01*
X124183200Y-140061709D01*
X124046800Y-140061709D01*
X124015000Y-139984938D01*
X124015000Y-139823750D01*
X123907050Y-139715800D01*
X123829110Y-139715800D01*
X123765000Y-139742355D01*
X123700890Y-139715800D01*
X123622950Y-139715800D01*
X123515000Y-139823750D01*
X123515000Y-139984938D01*
X123483200Y-140061709D01*
X123346800Y-140061709D01*
X123315000Y-139984938D01*
X123315000Y-139823750D01*
X123207050Y-139715800D01*
X123129110Y-139715800D01*
X123065000Y-139742355D01*
X123000890Y-139715800D01*
X122922950Y-139715800D01*
X122815000Y-139823750D01*
X122815000Y-139984938D01*
X122783200Y-140061709D01*
X122646800Y-140061709D01*
X122615000Y-139984938D01*
X122615000Y-139823750D01*
X122507050Y-139715800D01*
X122429110Y-139715800D01*
X122365000Y-139742355D01*
X122300890Y-139715800D01*
X122222950Y-139715800D01*
X122115000Y-139823750D01*
X122115000Y-139984938D01*
X122083200Y-140061709D01*
X121938175Y-140061709D01*
X121921746Y-139979120D01*
X121915000Y-139969024D01*
X121915000Y-139823750D01*
X121873800Y-139782550D01*
X121873800Y-139769357D01*
X122060191Y-139582966D01*
X122199400Y-139246885D01*
X122199400Y-138883115D01*
X122060191Y-138547034D01*
X121943157Y-138430000D01*
X122060191Y-138312966D01*
X122199400Y-137976885D01*
X122199400Y-137613115D01*
X122060191Y-137277034D01*
X121802966Y-137019809D01*
X121466885Y-136880600D01*
X121103115Y-136880600D01*
X120767034Y-137019809D01*
X120509809Y-137277034D01*
X120370600Y-137613115D01*
X120370600Y-137919138D01*
X119558787Y-138730952D01*
X119512129Y-138762128D01*
X119455188Y-138847346D01*
X119388622Y-138946968D01*
X119345253Y-139165000D01*
X119356201Y-139220039D01*
X119356201Y-139782549D01*
X119315000Y-139823750D01*
X119315000Y-139969024D01*
X119308254Y-139979120D01*
X119274741Y-140147600D01*
X119274741Y-141794600D01*
X119115000Y-141794600D01*
X119115000Y-141774600D01*
X118615000Y-141774600D01*
X118615000Y-141794600D01*
X118415000Y-141794600D01*
X118415000Y-141774600D01*
X117915000Y-141774600D01*
X117915000Y-141794600D01*
X117755259Y-141794600D01*
X117755259Y-140147600D01*
X117738175Y-140061709D01*
X117883200Y-140061709D01*
X117883200Y-141412650D01*
X117915000Y-141444450D01*
X117915000Y-141520600D01*
X118415000Y-141520600D01*
X118415000Y-141444450D01*
X118446800Y-141412650D01*
X118446800Y-140061709D01*
X118583200Y-140061709D01*
X118583200Y-141412650D01*
X118615000Y-141444450D01*
X118615000Y-141520600D01*
X119115000Y-141520600D01*
X119115000Y-141444450D01*
X119146800Y-141412650D01*
X119146800Y-140061709D01*
X119115000Y-139984938D01*
X119115000Y-139823750D01*
X119007050Y-139715800D01*
X118929110Y-139715800D01*
X118865000Y-139742355D01*
X118800890Y-139715800D01*
X118722950Y-139715800D01*
X118615000Y-139823750D01*
X118615000Y-139984938D01*
X118583200Y-140061709D01*
X118446800Y-140061709D01*
X118415000Y-139984938D01*
X118415000Y-139823750D01*
X118307050Y-139715800D01*
X118229110Y-139715800D01*
X118165000Y-139742355D01*
X118100890Y-139715800D01*
X118022950Y-139715800D01*
X117915000Y-139823750D01*
X117915000Y-139984938D01*
X117883200Y-140061709D01*
X117738175Y-140061709D01*
X117721746Y-139979120D01*
X117715000Y-139969024D01*
X117715000Y-139823750D01*
X117673800Y-139782550D01*
X117673800Y-139021461D01*
X117985862Y-138709400D01*
X118291885Y-138709400D01*
X118627966Y-138570191D01*
X118885191Y-138312966D01*
X119024400Y-137976885D01*
X119024400Y-137613115D01*
X118885191Y-137277034D01*
X118627966Y-137019809D01*
X118291885Y-136880600D01*
X117928115Y-136880600D01*
X117592034Y-137019809D01*
X117334809Y-137277034D01*
X117195600Y-137613115D01*
X117195600Y-137919138D01*
X116758787Y-138355952D01*
X116712129Y-138387128D01*
X116639882Y-138495253D01*
X116588622Y-138571968D01*
X116545253Y-138790000D01*
X116556201Y-138845039D01*
X116556201Y-139782549D01*
X116515000Y-139823750D01*
X116515000Y-139969024D01*
X116508254Y-139979120D01*
X116474741Y-140147600D01*
X116474741Y-141794600D01*
X116355259Y-141794600D01*
X116355259Y-140147600D01*
X116321746Y-139979120D01*
X116315000Y-139969024D01*
X116315000Y-139823750D01*
X116207050Y-139715800D01*
X116129110Y-139715800D01*
X116073443Y-139738858D01*
X115915000Y-139707341D01*
X115515000Y-139707341D01*
X115356557Y-139738858D01*
X115300890Y-139715800D01*
X115222950Y-139715800D01*
X115115000Y-139823750D01*
X115115000Y-139969024D01*
X115108254Y-139979120D01*
X115074741Y-140147600D01*
X115074741Y-141794600D01*
X114955259Y-141794600D01*
X114955259Y-140147600D01*
X114950000Y-140121161D01*
X114950000Y-139496800D01*
X115147200Y-139496800D01*
X115539294Y-139334389D01*
X115839389Y-139034294D01*
X116001800Y-138642200D01*
X116001800Y-138217800D01*
X115839389Y-137825706D01*
X115539294Y-137525611D01*
X115147200Y-137363200D01*
X114722800Y-137363200D01*
X114330706Y-137525611D01*
X114030611Y-137825706D01*
X113868200Y-138217800D01*
X113868200Y-138584836D01*
X113857192Y-138592191D01*
X113821765Y-138645211D01*
X113716843Y-138802236D01*
X113667561Y-139050000D01*
X113680001Y-139112542D01*
X113680001Y-140121158D01*
X113674741Y-140147600D01*
X113674741Y-141794600D01*
X113555259Y-141794600D01*
X113555259Y-140147600D01*
X113550000Y-140121161D01*
X113550000Y-137742537D01*
X113562439Y-137680000D01*
X113550000Y-137617463D01*
X113550000Y-137617459D01*
X113513157Y-137432235D01*
X113465528Y-137360953D01*
X113408236Y-137275210D01*
X113408234Y-137275208D01*
X113372809Y-137222191D01*
X113319792Y-137186766D01*
X112826800Y-136693775D01*
X112826800Y-136312800D01*
X112704275Y-136017000D01*
X124956200Y-136017000D01*
X124956200Y-139782550D01*
X124956200Y-139782550D01*
G37*
X124956200Y-139782550D02*
X124915000Y-139823750D01*
X124915000Y-139969024D01*
X124908254Y-139979120D01*
X124874741Y-140147600D01*
X124874741Y-141794600D01*
X124715000Y-141794600D01*
X124715000Y-141774600D01*
X124215000Y-141774600D01*
X124215000Y-141794600D01*
X124015000Y-141794600D01*
X124015000Y-141774600D01*
X123515000Y-141774600D01*
X123515000Y-141794600D01*
X123315000Y-141794600D01*
X123315000Y-141774600D01*
X122815000Y-141774600D01*
X122815000Y-141794600D01*
X122615000Y-141794600D01*
X122615000Y-141774600D01*
X122115000Y-141774600D01*
X122115000Y-141794600D01*
X121955259Y-141794600D01*
X121955259Y-140147600D01*
X121938175Y-140061709D01*
X122083200Y-140061709D01*
X122083200Y-141412650D01*
X122115000Y-141444450D01*
X122115000Y-141520600D01*
X122615000Y-141520600D01*
X122615000Y-141444450D01*
X122646800Y-141412650D01*
X122646800Y-140061709D01*
X122783200Y-140061709D01*
X122783200Y-141412650D01*
X122815000Y-141444450D01*
X122815000Y-141520600D01*
X123315000Y-141520600D01*
X123315000Y-141444450D01*
X123346800Y-141412650D01*
X123346800Y-140061709D01*
X123483200Y-140061709D01*
X123483200Y-141412650D01*
X123515000Y-141444450D01*
X123515000Y-141520600D01*
X124015000Y-141520600D01*
X124015000Y-141444450D01*
X124046800Y-141412650D01*
X124046800Y-140061709D01*
X124183200Y-140061709D01*
X124183200Y-141412650D01*
X124215000Y-141444450D01*
X124215000Y-141520600D01*
X124715000Y-141520600D01*
X124715000Y-141444450D01*
X124746800Y-141412650D01*
X124746800Y-140061709D01*
X124715000Y-139984938D01*
X124715000Y-139823750D01*
X124607050Y-139715800D01*
X124529110Y-139715800D01*
X124465000Y-139742355D01*
X124400890Y-139715800D01*
X124322950Y-139715800D01*
X124215000Y-139823750D01*
X124215000Y-139984938D01*
X124183200Y-140061709D01*
X124046800Y-140061709D01*
X124015000Y-139984938D01*
X124015000Y-139823750D01*
X123907050Y-139715800D01*
X123829110Y-139715800D01*
X123765000Y-139742355D01*
X123700890Y-139715800D01*
X123622950Y-139715800D01*
X123515000Y-139823750D01*
X123515000Y-139984938D01*
X123483200Y-140061709D01*
X123346800Y-140061709D01*
X123315000Y-139984938D01*
X123315000Y-139823750D01*
X123207050Y-139715800D01*
X123129110Y-139715800D01*
X123065000Y-139742355D01*
X123000890Y-139715800D01*
X122922950Y-139715800D01*
X122815000Y-139823750D01*
X122815000Y-139984938D01*
X122783200Y-140061709D01*
X122646800Y-140061709D01*
X122615000Y-139984938D01*
X122615000Y-139823750D01*
X122507050Y-139715800D01*
X122429110Y-139715800D01*
X122365000Y-139742355D01*
X122300890Y-139715800D01*
X122222950Y-139715800D01*
X122115000Y-139823750D01*
X122115000Y-139984938D01*
X122083200Y-140061709D01*
X121938175Y-140061709D01*
X121921746Y-139979120D01*
X121915000Y-139969024D01*
X121915000Y-139823750D01*
X121873800Y-139782550D01*
X121873800Y-139769357D01*
X122060191Y-139582966D01*
X122199400Y-139246885D01*
X122199400Y-138883115D01*
X122060191Y-138547034D01*
X121943157Y-138430000D01*
X122060191Y-138312966D01*
X122199400Y-137976885D01*
X122199400Y-137613115D01*
X122060191Y-137277034D01*
X121802966Y-137019809D01*
X121466885Y-136880600D01*
X121103115Y-136880600D01*
X120767034Y-137019809D01*
X120509809Y-137277034D01*
X120370600Y-137613115D01*
X120370600Y-137919138D01*
X119558787Y-138730952D01*
X119512129Y-138762128D01*
X119455188Y-138847346D01*
X119388622Y-138946968D01*
X119345253Y-139165000D01*
X119356201Y-139220039D01*
X119356201Y-139782549D01*
X119315000Y-139823750D01*
X119315000Y-139969024D01*
X119308254Y-139979120D01*
X119274741Y-140147600D01*
X119274741Y-141794600D01*
X119115000Y-141794600D01*
X119115000Y-141774600D01*
X118615000Y-141774600D01*
X118615000Y-141794600D01*
X118415000Y-141794600D01*
X118415000Y-141774600D01*
X117915000Y-141774600D01*
X117915000Y-141794600D01*
X117755259Y-141794600D01*
X117755259Y-140147600D01*
X117738175Y-140061709D01*
X117883200Y-140061709D01*
X117883200Y-141412650D01*
X117915000Y-141444450D01*
X117915000Y-141520600D01*
X118415000Y-141520600D01*
X118415000Y-141444450D01*
X118446800Y-141412650D01*
X118446800Y-140061709D01*
X118583200Y-140061709D01*
X118583200Y-141412650D01*
X118615000Y-141444450D01*
X118615000Y-141520600D01*
X119115000Y-141520600D01*
X119115000Y-141444450D01*
X119146800Y-141412650D01*
X119146800Y-140061709D01*
X119115000Y-139984938D01*
X119115000Y-139823750D01*
X119007050Y-139715800D01*
X118929110Y-139715800D01*
X118865000Y-139742355D01*
X118800890Y-139715800D01*
X118722950Y-139715800D01*
X118615000Y-139823750D01*
X118615000Y-139984938D01*
X118583200Y-140061709D01*
X118446800Y-140061709D01*
X118415000Y-139984938D01*
X118415000Y-139823750D01*
X118307050Y-139715800D01*
X118229110Y-139715800D01*
X118165000Y-139742355D01*
X118100890Y-139715800D01*
X118022950Y-139715800D01*
X117915000Y-139823750D01*
X117915000Y-139984938D01*
X117883200Y-140061709D01*
X117738175Y-140061709D01*
X117721746Y-139979120D01*
X117715000Y-139969024D01*
X117715000Y-139823750D01*
X117673800Y-139782550D01*
X117673800Y-139021461D01*
X117985862Y-138709400D01*
X118291885Y-138709400D01*
X118627966Y-138570191D01*
X118885191Y-138312966D01*
X119024400Y-137976885D01*
X119024400Y-137613115D01*
X118885191Y-137277034D01*
X118627966Y-137019809D01*
X118291885Y-136880600D01*
X117928115Y-136880600D01*
X117592034Y-137019809D01*
X117334809Y-137277034D01*
X117195600Y-137613115D01*
X117195600Y-137919138D01*
X116758787Y-138355952D01*
X116712129Y-138387128D01*
X116639882Y-138495253D01*
X116588622Y-138571968D01*
X116545253Y-138790000D01*
X116556201Y-138845039D01*
X116556201Y-139782549D01*
X116515000Y-139823750D01*
X116515000Y-139969024D01*
X116508254Y-139979120D01*
X116474741Y-140147600D01*
X116474741Y-141794600D01*
X116355259Y-141794600D01*
X116355259Y-140147600D01*
X116321746Y-139979120D01*
X116315000Y-139969024D01*
X116315000Y-139823750D01*
X116207050Y-139715800D01*
X116129110Y-139715800D01*
X116073443Y-139738858D01*
X115915000Y-139707341D01*
X115515000Y-139707341D01*
X115356557Y-139738858D01*
X115300890Y-139715800D01*
X115222950Y-139715800D01*
X115115000Y-139823750D01*
X115115000Y-139969024D01*
X115108254Y-139979120D01*
X115074741Y-140147600D01*
X115074741Y-141794600D01*
X114955259Y-141794600D01*
X114955259Y-140147600D01*
X114950000Y-140121161D01*
X114950000Y-139496800D01*
X115147200Y-139496800D01*
X115539294Y-139334389D01*
X115839389Y-139034294D01*
X116001800Y-138642200D01*
X116001800Y-138217800D01*
X115839389Y-137825706D01*
X115539294Y-137525611D01*
X115147200Y-137363200D01*
X114722800Y-137363200D01*
X114330706Y-137525611D01*
X114030611Y-137825706D01*
X113868200Y-138217800D01*
X113868200Y-138584836D01*
X113857192Y-138592191D01*
X113821765Y-138645211D01*
X113716843Y-138802236D01*
X113667561Y-139050000D01*
X113680001Y-139112542D01*
X113680001Y-140121158D01*
X113674741Y-140147600D01*
X113674741Y-141794600D01*
X113555259Y-141794600D01*
X113555259Y-140147600D01*
X113550000Y-140121161D01*
X113550000Y-137742537D01*
X113562439Y-137680000D01*
X113550000Y-137617463D01*
X113550000Y-137617459D01*
X113513157Y-137432235D01*
X113465528Y-137360953D01*
X113408236Y-137275210D01*
X113408234Y-137275208D01*
X113372809Y-137222191D01*
X113319792Y-137186766D01*
X112826800Y-136693775D01*
X112826800Y-136312800D01*
X112704275Y-136017000D01*
X124956200Y-136017000D01*
X124956200Y-139782550D01*
G36*
X128456200Y-139782550D02*
X128415000Y-139823750D01*
X128415000Y-139969024D01*
X128408254Y-139979120D01*
X128374741Y-140147600D01*
X128374741Y-141794600D01*
X128215000Y-141794600D01*
X128215000Y-141774600D01*
X127715000Y-141774600D01*
X127715000Y-141794600D01*
X127515000Y-141794600D01*
X127515000Y-141774600D01*
X127015000Y-141774600D01*
X127015000Y-141794600D01*
X126815000Y-141794600D01*
X126815000Y-141774600D01*
X126315000Y-141774600D01*
X126315000Y-141794600D01*
X126155259Y-141794600D01*
X126155259Y-140147600D01*
X126138175Y-140061709D01*
X126283200Y-140061709D01*
X126283200Y-141412650D01*
X126315000Y-141444450D01*
X126315000Y-141520600D01*
X126815000Y-141520600D01*
X126815000Y-141444450D01*
X126846800Y-141412650D01*
X126846800Y-140061709D01*
X126983200Y-140061709D01*
X126983200Y-141412650D01*
X127015000Y-141444450D01*
X127015000Y-141520600D01*
X127515000Y-141520600D01*
X127515000Y-141444450D01*
X127546800Y-141412650D01*
X127546800Y-140061709D01*
X127683200Y-140061709D01*
X127683200Y-141412650D01*
X127715000Y-141444450D01*
X127715000Y-141520600D01*
X128215000Y-141520600D01*
X128215000Y-141444450D01*
X128246800Y-141412650D01*
X128246800Y-140061709D01*
X128215000Y-139984938D01*
X128215000Y-139823750D01*
X128107050Y-139715800D01*
X128029110Y-139715800D01*
X127965000Y-139742355D01*
X127900890Y-139715800D01*
X127822950Y-139715800D01*
X127715000Y-139823750D01*
X127715000Y-139984938D01*
X127683200Y-140061709D01*
X127546800Y-140061709D01*
X127515000Y-139984938D01*
X127515000Y-139823750D01*
X127407050Y-139715800D01*
X127329110Y-139715800D01*
X127265000Y-139742355D01*
X127200890Y-139715800D01*
X127122950Y-139715800D01*
X127015000Y-139823750D01*
X127015000Y-139984938D01*
X126983200Y-140061709D01*
X126846800Y-140061709D01*
X126815000Y-139984938D01*
X126815000Y-139823750D01*
X126707050Y-139715800D01*
X126629110Y-139715800D01*
X126565000Y-139742355D01*
X126500890Y-139715800D01*
X126422950Y-139715800D01*
X126315000Y-139823750D01*
X126315000Y-139984938D01*
X126283200Y-140061709D01*
X126138175Y-140061709D01*
X126121746Y-139979120D01*
X126115000Y-139969024D01*
X126115000Y-139823750D01*
X126073800Y-139782550D01*
X126073800Y-136017000D01*
X128456201Y-136017000D01*
X128456200Y-139782550D01*
X128456200Y-139782550D01*
G37*
X128456200Y-139782550D02*
X128415000Y-139823750D01*
X128415000Y-139969024D01*
X128408254Y-139979120D01*
X128374741Y-140147600D01*
X128374741Y-141794600D01*
X128215000Y-141794600D01*
X128215000Y-141774600D01*
X127715000Y-141774600D01*
X127715000Y-141794600D01*
X127515000Y-141794600D01*
X127515000Y-141774600D01*
X127015000Y-141774600D01*
X127015000Y-141794600D01*
X126815000Y-141794600D01*
X126815000Y-141774600D01*
X126315000Y-141774600D01*
X126315000Y-141794600D01*
X126155259Y-141794600D01*
X126155259Y-140147600D01*
X126138175Y-140061709D01*
X126283200Y-140061709D01*
X126283200Y-141412650D01*
X126315000Y-141444450D01*
X126315000Y-141520600D01*
X126815000Y-141520600D01*
X126815000Y-141444450D01*
X126846800Y-141412650D01*
X126846800Y-140061709D01*
X126983200Y-140061709D01*
X126983200Y-141412650D01*
X127015000Y-141444450D01*
X127015000Y-141520600D01*
X127515000Y-141520600D01*
X127515000Y-141444450D01*
X127546800Y-141412650D01*
X127546800Y-140061709D01*
X127683200Y-140061709D01*
X127683200Y-141412650D01*
X127715000Y-141444450D01*
X127715000Y-141520600D01*
X128215000Y-141520600D01*
X128215000Y-141444450D01*
X128246800Y-141412650D01*
X128246800Y-140061709D01*
X128215000Y-139984938D01*
X128215000Y-139823750D01*
X128107050Y-139715800D01*
X128029110Y-139715800D01*
X127965000Y-139742355D01*
X127900890Y-139715800D01*
X127822950Y-139715800D01*
X127715000Y-139823750D01*
X127715000Y-139984938D01*
X127683200Y-140061709D01*
X127546800Y-140061709D01*
X127515000Y-139984938D01*
X127515000Y-139823750D01*
X127407050Y-139715800D01*
X127329110Y-139715800D01*
X127265000Y-139742355D01*
X127200890Y-139715800D01*
X127122950Y-139715800D01*
X127015000Y-139823750D01*
X127015000Y-139984938D01*
X126983200Y-140061709D01*
X126846800Y-140061709D01*
X126815000Y-139984938D01*
X126815000Y-139823750D01*
X126707050Y-139715800D01*
X126629110Y-139715800D01*
X126565000Y-139742355D01*
X126500890Y-139715800D01*
X126422950Y-139715800D01*
X126315000Y-139823750D01*
X126315000Y-139984938D01*
X126283200Y-140061709D01*
X126138175Y-140061709D01*
X126121746Y-139979120D01*
X126115000Y-139969024D01*
X126115000Y-139823750D01*
X126073800Y-139782550D01*
X126073800Y-136017000D01*
X128456201Y-136017000D01*
X128456200Y-139782550D01*
G36*
X126298254Y-125296520D02*
X126264741Y-125465000D01*
X126264741Y-127265000D01*
X126298254Y-127433480D01*
X126393690Y-127576310D01*
X126536520Y-127671746D01*
X126705000Y-127705259D01*
X126946201Y-127705259D01*
X126946201Y-129413000D01*
X125131393Y-129413000D01*
X124902182Y-129183789D01*
X124871004Y-129137128D01*
X124686165Y-129013622D01*
X124523167Y-128981200D01*
X124468132Y-128970253D01*
X124413097Y-128981200D01*
X123421463Y-128981200D01*
X122898800Y-128458539D01*
X122898800Y-127303509D01*
X123058480Y-127271746D01*
X123194921Y-127180579D01*
X123245405Y-127231063D01*
X123404110Y-127296800D01*
X123805050Y-127296800D01*
X123913000Y-127188850D01*
X123913000Y-126492000D01*
X124167000Y-126492000D01*
X124167000Y-127188850D01*
X124274950Y-127296800D01*
X124675890Y-127296800D01*
X124834595Y-127231063D01*
X124956062Y-127109595D01*
X125021800Y-126950891D01*
X125021800Y-126599950D01*
X124913850Y-126492000D01*
X124167000Y-126492000D01*
X123913000Y-126492000D01*
X123893000Y-126492000D01*
X123893000Y-126238000D01*
X123913000Y-126238000D01*
X123913000Y-125541150D01*
X124167000Y-125541150D01*
X124167000Y-126238000D01*
X124913850Y-126238000D01*
X125021800Y-126130050D01*
X125021800Y-125779109D01*
X124956062Y-125620405D01*
X124834595Y-125498937D01*
X124675890Y-125433200D01*
X124274950Y-125433200D01*
X124167000Y-125541150D01*
X123913000Y-125541150D01*
X123805050Y-125433200D01*
X123404110Y-125433200D01*
X123245405Y-125498937D01*
X123194921Y-125549421D01*
X123058480Y-125458254D01*
X122890000Y-125424741D01*
X121790000Y-125424741D01*
X121621520Y-125458254D01*
X121478690Y-125553690D01*
X121383254Y-125696520D01*
X121349741Y-125865000D01*
X121349741Y-126865000D01*
X121383254Y-127033480D01*
X121478690Y-127176310D01*
X121621520Y-127271746D01*
X121781201Y-127303509D01*
X121781200Y-128634965D01*
X121770253Y-128690000D01*
X121781200Y-128745034D01*
X121813622Y-128908032D01*
X121937128Y-129092872D01*
X121983789Y-129124050D01*
X122272739Y-129413000D01*
X114935000Y-129413000D01*
X114935000Y-128508683D01*
X115204389Y-128239294D01*
X115366800Y-127847200D01*
X115366800Y-127422800D01*
X115204389Y-127030706D01*
X115173683Y-127000000D01*
X115434741Y-127000000D01*
X115434741Y-127115000D01*
X115468254Y-127283480D01*
X115563690Y-127426310D01*
X115706520Y-127521746D01*
X115875000Y-127555259D01*
X117175000Y-127555259D01*
X117343480Y-127521746D01*
X117479921Y-127430579D01*
X117530405Y-127481063D01*
X117689110Y-127546800D01*
X118190050Y-127546800D01*
X118298000Y-127438850D01*
X118298000Y-126492000D01*
X118552000Y-126492000D01*
X118552000Y-127438850D01*
X118659950Y-127546800D01*
X119160890Y-127546800D01*
X119319595Y-127481063D01*
X119441062Y-127359595D01*
X119506800Y-127200891D01*
X119506800Y-126599950D01*
X119398850Y-126492000D01*
X118552000Y-126492000D01*
X118298000Y-126492000D01*
X118278000Y-126492000D01*
X118278000Y-126238000D01*
X118298000Y-126238000D01*
X118298000Y-126218000D01*
X118552000Y-126218000D01*
X118552000Y-126238000D01*
X119398850Y-126238000D01*
X119506800Y-126130050D01*
X119506800Y-125529109D01*
X119441062Y-125370405D01*
X119319595Y-125248937D01*
X119254563Y-125222000D01*
X126348047Y-125222000D01*
X126298254Y-125296520D01*
X126298254Y-125296520D01*
G37*
X126298254Y-125296520D02*
X126264741Y-125465000D01*
X126264741Y-127265000D01*
X126298254Y-127433480D01*
X126393690Y-127576310D01*
X126536520Y-127671746D01*
X126705000Y-127705259D01*
X126946201Y-127705259D01*
X126946201Y-129413000D01*
X125131393Y-129413000D01*
X124902182Y-129183789D01*
X124871004Y-129137128D01*
X124686165Y-129013622D01*
X124523167Y-128981200D01*
X124468132Y-128970253D01*
X124413097Y-128981200D01*
X123421463Y-128981200D01*
X122898800Y-128458539D01*
X122898800Y-127303509D01*
X123058480Y-127271746D01*
X123194921Y-127180579D01*
X123245405Y-127231063D01*
X123404110Y-127296800D01*
X123805050Y-127296800D01*
X123913000Y-127188850D01*
X123913000Y-126492000D01*
X124167000Y-126492000D01*
X124167000Y-127188850D01*
X124274950Y-127296800D01*
X124675890Y-127296800D01*
X124834595Y-127231063D01*
X124956062Y-127109595D01*
X125021800Y-126950891D01*
X125021800Y-126599950D01*
X124913850Y-126492000D01*
X124167000Y-126492000D01*
X123913000Y-126492000D01*
X123893000Y-126492000D01*
X123893000Y-126238000D01*
X123913000Y-126238000D01*
X123913000Y-125541150D01*
X124167000Y-125541150D01*
X124167000Y-126238000D01*
X124913850Y-126238000D01*
X125021800Y-126130050D01*
X125021800Y-125779109D01*
X124956062Y-125620405D01*
X124834595Y-125498937D01*
X124675890Y-125433200D01*
X124274950Y-125433200D01*
X124167000Y-125541150D01*
X123913000Y-125541150D01*
X123805050Y-125433200D01*
X123404110Y-125433200D01*
X123245405Y-125498937D01*
X123194921Y-125549421D01*
X123058480Y-125458254D01*
X122890000Y-125424741D01*
X121790000Y-125424741D01*
X121621520Y-125458254D01*
X121478690Y-125553690D01*
X121383254Y-125696520D01*
X121349741Y-125865000D01*
X121349741Y-126865000D01*
X121383254Y-127033480D01*
X121478690Y-127176310D01*
X121621520Y-127271746D01*
X121781201Y-127303509D01*
X121781200Y-128634965D01*
X121770253Y-128690000D01*
X121781200Y-128745034D01*
X121813622Y-128908032D01*
X121937128Y-129092872D01*
X121983789Y-129124050D01*
X122272739Y-129413000D01*
X114935000Y-129413000D01*
X114935000Y-128508683D01*
X115204389Y-128239294D01*
X115366800Y-127847200D01*
X115366800Y-127422800D01*
X115204389Y-127030706D01*
X115173683Y-127000000D01*
X115434741Y-127000000D01*
X115434741Y-127115000D01*
X115468254Y-127283480D01*
X115563690Y-127426310D01*
X115706520Y-127521746D01*
X115875000Y-127555259D01*
X117175000Y-127555259D01*
X117343480Y-127521746D01*
X117479921Y-127430579D01*
X117530405Y-127481063D01*
X117689110Y-127546800D01*
X118190050Y-127546800D01*
X118298000Y-127438850D01*
X118298000Y-126492000D01*
X118552000Y-126492000D01*
X118552000Y-127438850D01*
X118659950Y-127546800D01*
X119160890Y-127546800D01*
X119319595Y-127481063D01*
X119441062Y-127359595D01*
X119506800Y-127200891D01*
X119506800Y-126599950D01*
X119398850Y-126492000D01*
X118552000Y-126492000D01*
X118298000Y-126492000D01*
X118278000Y-126492000D01*
X118278000Y-126238000D01*
X118298000Y-126238000D01*
X118298000Y-126218000D01*
X118552000Y-126218000D01*
X118552000Y-126238000D01*
X119398850Y-126238000D01*
X119506800Y-126130050D01*
X119506800Y-125529109D01*
X119441062Y-125370405D01*
X119319595Y-125248937D01*
X119254563Y-125222000D01*
X126348047Y-125222000D01*
X126298254Y-125296520D01*
G36*
X129073200Y-125379109D02*
X129073200Y-126130050D01*
X129181150Y-126238000D01*
X130178000Y-126238000D01*
X130178000Y-126218000D01*
X130432000Y-126218000D01*
X130432000Y-126238000D01*
X131428850Y-126238000D01*
X131536800Y-126130050D01*
X131536800Y-125379109D01*
X131471723Y-125222000D01*
X133223000Y-125222000D01*
X133223000Y-129413000D01*
X128063800Y-129413000D01*
X128063800Y-127705259D01*
X128305000Y-127705259D01*
X128473480Y-127671746D01*
X128616310Y-127576310D01*
X128711746Y-127433480D01*
X128745259Y-127265000D01*
X128745259Y-126599950D01*
X129073200Y-126599950D01*
X129073200Y-127350891D01*
X129138938Y-127509595D01*
X129260405Y-127631063D01*
X129419110Y-127696800D01*
X130070050Y-127696800D01*
X130178000Y-127588850D01*
X130178000Y-126492000D01*
X130432000Y-126492000D01*
X130432000Y-127588850D01*
X130539950Y-127696800D01*
X131190890Y-127696800D01*
X131349595Y-127631063D01*
X131471062Y-127509595D01*
X131536800Y-127350891D01*
X131536800Y-126599950D01*
X131428850Y-126492000D01*
X130432000Y-126492000D01*
X130178000Y-126492000D01*
X129181150Y-126492000D01*
X129073200Y-126599950D01*
X128745259Y-126599950D01*
X128745259Y-125465000D01*
X128711746Y-125296520D01*
X128661953Y-125222000D01*
X129138277Y-125222000D01*
X129073200Y-125379109D01*
X129073200Y-125379109D01*
G37*
X129073200Y-125379109D02*
X129073200Y-126130050D01*
X129181150Y-126238000D01*
X130178000Y-126238000D01*
X130178000Y-126218000D01*
X130432000Y-126218000D01*
X130432000Y-126238000D01*
X131428850Y-126238000D01*
X131536800Y-126130050D01*
X131536800Y-125379109D01*
X131471723Y-125222000D01*
X133223000Y-125222000D01*
X133223000Y-129413000D01*
X128063800Y-129413000D01*
X128063800Y-127705259D01*
X128305000Y-127705259D01*
X128473480Y-127671746D01*
X128616310Y-127576310D01*
X128711746Y-127433480D01*
X128745259Y-127265000D01*
X128745259Y-126599950D01*
X129073200Y-126599950D01*
X129073200Y-127350891D01*
X129138938Y-127509595D01*
X129260405Y-127631063D01*
X129419110Y-127696800D01*
X130070050Y-127696800D01*
X130178000Y-127588850D01*
X130178000Y-126492000D01*
X130432000Y-126492000D01*
X130432000Y-127588850D01*
X130539950Y-127696800D01*
X131190890Y-127696800D01*
X131349595Y-127631063D01*
X131471062Y-127509595D01*
X131536800Y-127350891D01*
X131536800Y-126599950D01*
X131428850Y-126492000D01*
X130432000Y-126492000D01*
X130178000Y-126492000D01*
X129181150Y-126492000D01*
X129073200Y-126599950D01*
X128745259Y-126599950D01*
X128745259Y-125465000D01*
X128711746Y-125296520D01*
X128661953Y-125222000D01*
X129138277Y-125222000D01*
X129073200Y-125379109D01*
G36*
X115563690Y-125303690D02*
X115468254Y-125446520D01*
X115434741Y-125615000D01*
X115434741Y-125730000D01*
X115173683Y-125730000D01*
X114904294Y-125460611D01*
X114512200Y-125298200D01*
X114087800Y-125298200D01*
X113695706Y-125460611D01*
X113523908Y-125632409D01*
X113471310Y-125553690D01*
X113328480Y-125458254D01*
X113160000Y-125424741D01*
X112060000Y-125424741D01*
X111891520Y-125458254D01*
X111755079Y-125549421D01*
X111704595Y-125498937D01*
X111545890Y-125433200D01*
X111144950Y-125433200D01*
X111037000Y-125541150D01*
X111037000Y-126238000D01*
X111057000Y-126238000D01*
X111057000Y-126492000D01*
X111037000Y-126492000D01*
X111037000Y-127188850D01*
X111144950Y-127296800D01*
X111545890Y-127296800D01*
X111704595Y-127231063D01*
X111755079Y-127180579D01*
X111891520Y-127271746D01*
X112060000Y-127305259D01*
X113160000Y-127305259D01*
X113292832Y-127278837D01*
X113233200Y-127422800D01*
X113233200Y-127847200D01*
X113395611Y-128239294D01*
X113665000Y-128508683D01*
X113665000Y-129413000D01*
X108211946Y-129413000D01*
X108077000Y-129278055D01*
X108077000Y-127510718D01*
X108164110Y-127546800D01*
X108665050Y-127546800D01*
X108773000Y-127438850D01*
X108773000Y-126492000D01*
X109027000Y-126492000D01*
X109027000Y-127438850D01*
X109134950Y-127546800D01*
X109635890Y-127546800D01*
X109794595Y-127481063D01*
X109916062Y-127359595D01*
X109981800Y-127200891D01*
X109981800Y-127080292D01*
X109993938Y-127109595D01*
X110115405Y-127231063D01*
X110274110Y-127296800D01*
X110675050Y-127296800D01*
X110783000Y-127188850D01*
X110783000Y-126492000D01*
X110036150Y-126492000D01*
X109955000Y-126573150D01*
X109873850Y-126492000D01*
X109027000Y-126492000D01*
X108773000Y-126492000D01*
X108753000Y-126492000D01*
X108753000Y-126238000D01*
X108773000Y-126238000D01*
X108773000Y-126218000D01*
X109027000Y-126218000D01*
X109027000Y-126238000D01*
X109873850Y-126238000D01*
X109955000Y-126156850D01*
X110036150Y-126238000D01*
X110783000Y-126238000D01*
X110783000Y-125541150D01*
X110675050Y-125433200D01*
X110274110Y-125433200D01*
X110115405Y-125498937D01*
X109993938Y-125620405D01*
X109981800Y-125649708D01*
X109981800Y-125529109D01*
X109916062Y-125370405D01*
X109794595Y-125248937D01*
X109729563Y-125222000D01*
X115685948Y-125222000D01*
X115563690Y-125303690D01*
X115563690Y-125303690D01*
G37*
X115563690Y-125303690D02*
X115468254Y-125446520D01*
X115434741Y-125615000D01*
X115434741Y-125730000D01*
X115173683Y-125730000D01*
X114904294Y-125460611D01*
X114512200Y-125298200D01*
X114087800Y-125298200D01*
X113695706Y-125460611D01*
X113523908Y-125632409D01*
X113471310Y-125553690D01*
X113328480Y-125458254D01*
X113160000Y-125424741D01*
X112060000Y-125424741D01*
X111891520Y-125458254D01*
X111755079Y-125549421D01*
X111704595Y-125498937D01*
X111545890Y-125433200D01*
X111144950Y-125433200D01*
X111037000Y-125541150D01*
X111037000Y-126238000D01*
X111057000Y-126238000D01*
X111057000Y-126492000D01*
X111037000Y-126492000D01*
X111037000Y-127188850D01*
X111144950Y-127296800D01*
X111545890Y-127296800D01*
X111704595Y-127231063D01*
X111755079Y-127180579D01*
X111891520Y-127271746D01*
X112060000Y-127305259D01*
X113160000Y-127305259D01*
X113292832Y-127278837D01*
X113233200Y-127422800D01*
X113233200Y-127847200D01*
X113395611Y-128239294D01*
X113665000Y-128508683D01*
X113665000Y-129413000D01*
X108211946Y-129413000D01*
X108077000Y-129278055D01*
X108077000Y-127510718D01*
X108164110Y-127546800D01*
X108665050Y-127546800D01*
X108773000Y-127438850D01*
X108773000Y-126492000D01*
X109027000Y-126492000D01*
X109027000Y-127438850D01*
X109134950Y-127546800D01*
X109635890Y-127546800D01*
X109794595Y-127481063D01*
X109916062Y-127359595D01*
X109981800Y-127200891D01*
X109981800Y-127080292D01*
X109993938Y-127109595D01*
X110115405Y-127231063D01*
X110274110Y-127296800D01*
X110675050Y-127296800D01*
X110783000Y-127188850D01*
X110783000Y-126492000D01*
X110036150Y-126492000D01*
X109955000Y-126573150D01*
X109873850Y-126492000D01*
X109027000Y-126492000D01*
X108773000Y-126492000D01*
X108753000Y-126492000D01*
X108753000Y-126238000D01*
X108773000Y-126238000D01*
X108773000Y-126218000D01*
X109027000Y-126218000D01*
X109027000Y-126238000D01*
X109873850Y-126238000D01*
X109955000Y-126156850D01*
X110036150Y-126238000D01*
X110783000Y-126238000D01*
X110783000Y-125541150D01*
X110675050Y-125433200D01*
X110274110Y-125433200D01*
X110115405Y-125498937D01*
X109993938Y-125620405D01*
X109981800Y-125649708D01*
X109981800Y-125529109D01*
X109916062Y-125370405D01*
X109794595Y-125248937D01*
X109729563Y-125222000D01*
X115685948Y-125222000D01*
X115563690Y-125303690D01*
G36*
X154813000Y-139096990D02*
X154596134Y-138991194D01*
X154432000Y-139067098D01*
X154432000Y-140843000D01*
X154452000Y-140843000D01*
X154452000Y-141097000D01*
X154432000Y-141097000D01*
X154432000Y-141117000D01*
X154178000Y-141117000D01*
X154178000Y-141097000D01*
X153238200Y-141097000D01*
X153238200Y-142049500D01*
X153368006Y-142448079D01*
X153624516Y-142748000D01*
X148082000Y-142748000D01*
X148082000Y-139890500D01*
X153238200Y-139890500D01*
X153238200Y-140843000D01*
X154178000Y-140843000D01*
X154178000Y-139067098D01*
X154013866Y-138991194D01*
X153640461Y-139173356D01*
X153368006Y-139491921D01*
X153238200Y-139890500D01*
X148082000Y-139890500D01*
X148082000Y-137922000D01*
X154813000Y-137922000D01*
X154813000Y-139096990D01*
X154813000Y-139096990D01*
G37*
X154813000Y-139096990D02*
X154596134Y-138991194D01*
X154432000Y-139067098D01*
X154432000Y-140843000D01*
X154452000Y-140843000D01*
X154452000Y-141097000D01*
X154432000Y-141097000D01*
X154432000Y-141117000D01*
X154178000Y-141117000D01*
X154178000Y-141097000D01*
X153238200Y-141097000D01*
X153238200Y-142049500D01*
X153368006Y-142448079D01*
X153624516Y-142748000D01*
X148082000Y-142748000D01*
X148082000Y-139890500D01*
X153238200Y-139890500D01*
X153238200Y-140843000D01*
X154178000Y-140843000D01*
X154178000Y-139067098D01*
X154013866Y-138991194D01*
X153640461Y-139173356D01*
X153368006Y-139491921D01*
X153238200Y-139890500D01*
X148082000Y-139890500D01*
X148082000Y-137922000D01*
X154813000Y-137922000D01*
X154813000Y-139096990D01*
D29*
G36*
X136649885Y-125317182D02*
X136583625Y-125501257D01*
X137160000Y-126077632D01*
X137736375Y-125501257D01*
X137670115Y-125317182D01*
X137597804Y-125298200D01*
X138861800Y-125298200D01*
X138861800Y-127632000D01*
X138760200Y-127632000D01*
X138633200Y-127759000D01*
X138633200Y-128486800D01*
X138653200Y-128486800D01*
X138653200Y-128893200D01*
X138633200Y-128893200D01*
X138633200Y-128913200D01*
X138226800Y-128913200D01*
X138226800Y-128893200D01*
X137549000Y-128893200D01*
X137422000Y-129020200D01*
X137422000Y-129336800D01*
X137148000Y-129336800D01*
X137148000Y-128920200D01*
X137021000Y-128793200D01*
X136093200Y-128793200D01*
X136093200Y-128813200D01*
X135686800Y-128813200D01*
X135686800Y-128793200D01*
X134759000Y-128793200D01*
X134632000Y-128920200D01*
X134632000Y-129336800D01*
X134188200Y-129336800D01*
X134188200Y-127838953D01*
X134632000Y-127838953D01*
X134632000Y-128259800D01*
X134759000Y-128386800D01*
X135686800Y-128386800D01*
X135686800Y-127559000D01*
X136093200Y-127559000D01*
X136093200Y-128386800D01*
X137021000Y-128386800D01*
X137148000Y-128259800D01*
X137148000Y-128038953D01*
X137422000Y-128038953D01*
X137422000Y-128359800D01*
X137549000Y-128486800D01*
X138226800Y-128486800D01*
X138226800Y-127759000D01*
X138099800Y-127632000D01*
X137828952Y-127632000D01*
X137642241Y-127709339D01*
X137499338Y-127852242D01*
X137422000Y-128038953D01*
X137148000Y-128038953D01*
X137148000Y-127838953D01*
X137070662Y-127652242D01*
X136927759Y-127509339D01*
X136772349Y-127444965D01*
X137089697Y-127528271D01*
X137540213Y-127466626D01*
X137670115Y-127412818D01*
X137736375Y-127228743D01*
X137160000Y-126652368D01*
X136583625Y-127228743D01*
X136649885Y-127412818D01*
X136722958Y-127432000D01*
X136220200Y-127432000D01*
X136093200Y-127559000D01*
X135686800Y-127559000D01*
X135559800Y-127432000D01*
X135038952Y-127432000D01*
X134852241Y-127509339D01*
X134709338Y-127652242D01*
X134632000Y-127838953D01*
X134188200Y-127838953D01*
X134188200Y-126294697D01*
X135996729Y-126294697D01*
X136058374Y-126745213D01*
X136112182Y-126875115D01*
X136296257Y-126941375D01*
X136872632Y-126365000D01*
X137447368Y-126365000D01*
X138023743Y-126941375D01*
X138207818Y-126875115D01*
X138323271Y-126435303D01*
X138261626Y-125984787D01*
X138207818Y-125854885D01*
X138023743Y-125788625D01*
X137447368Y-126365000D01*
X136872632Y-126365000D01*
X136296257Y-125788625D01*
X136112182Y-125854885D01*
X135996729Y-126294697D01*
X134188200Y-126294697D01*
X134188200Y-125298200D01*
X136695711Y-125298200D01*
X136649885Y-125317182D01*
X136649885Y-125317182D01*
G37*
X136649885Y-125317182D02*
X136583625Y-125501257D01*
X137160000Y-126077632D01*
X137736375Y-125501257D01*
X137670115Y-125317182D01*
X137597804Y-125298200D01*
X138861800Y-125298200D01*
X138861800Y-127632000D01*
X138760200Y-127632000D01*
X138633200Y-127759000D01*
X138633200Y-128486800D01*
X138653200Y-128486800D01*
X138653200Y-128893200D01*
X138633200Y-128893200D01*
X138633200Y-128913200D01*
X138226800Y-128913200D01*
X138226800Y-128893200D01*
X137549000Y-128893200D01*
X137422000Y-129020200D01*
X137422000Y-129336800D01*
X137148000Y-129336800D01*
X137148000Y-128920200D01*
X137021000Y-128793200D01*
X136093200Y-128793200D01*
X136093200Y-128813200D01*
X135686800Y-128813200D01*
X135686800Y-128793200D01*
X134759000Y-128793200D01*
X134632000Y-128920200D01*
X134632000Y-129336800D01*
X134188200Y-129336800D01*
X134188200Y-127838953D01*
X134632000Y-127838953D01*
X134632000Y-128259800D01*
X134759000Y-128386800D01*
X135686800Y-128386800D01*
X135686800Y-127559000D01*
X136093200Y-127559000D01*
X136093200Y-128386800D01*
X137021000Y-128386800D01*
X137148000Y-128259800D01*
X137148000Y-128038953D01*
X137422000Y-128038953D01*
X137422000Y-128359800D01*
X137549000Y-128486800D01*
X138226800Y-128486800D01*
X138226800Y-127759000D01*
X138099800Y-127632000D01*
X137828952Y-127632000D01*
X137642241Y-127709339D01*
X137499338Y-127852242D01*
X137422000Y-128038953D01*
X137148000Y-128038953D01*
X137148000Y-127838953D01*
X137070662Y-127652242D01*
X136927759Y-127509339D01*
X136772349Y-127444965D01*
X137089697Y-127528271D01*
X137540213Y-127466626D01*
X137670115Y-127412818D01*
X137736375Y-127228743D01*
X137160000Y-126652368D01*
X136583625Y-127228743D01*
X136649885Y-127412818D01*
X136722958Y-127432000D01*
X136220200Y-127432000D01*
X136093200Y-127559000D01*
X135686800Y-127559000D01*
X135559800Y-127432000D01*
X135038952Y-127432000D01*
X134852241Y-127509339D01*
X134709338Y-127652242D01*
X134632000Y-127838953D01*
X134188200Y-127838953D01*
X134188200Y-126294697D01*
X135996729Y-126294697D01*
X136058374Y-126745213D01*
X136112182Y-126875115D01*
X136296257Y-126941375D01*
X136872632Y-126365000D01*
X137447368Y-126365000D01*
X138023743Y-126941375D01*
X138207818Y-126875115D01*
X138323271Y-126435303D01*
X138261626Y-125984787D01*
X138207818Y-125854885D01*
X138023743Y-125788625D01*
X137447368Y-126365000D01*
X136872632Y-126365000D01*
X136296257Y-125788625D01*
X136112182Y-125854885D01*
X135996729Y-126294697D01*
X134188200Y-126294697D01*
X134188200Y-125298200D01*
X136695711Y-125298200D01*
X136649885Y-125317182D01*
G04 #@! TO.N,/SW_12V*
G36*
X187756800Y-131876800D02*
X187611200Y-131876800D01*
X187611200Y-130978600D01*
X187433400Y-130800800D01*
X184200800Y-130800800D01*
X184200800Y-130820800D01*
X184099200Y-130820800D01*
X184099200Y-130800800D01*
X180866600Y-130800800D01*
X180688800Y-130978600D01*
X180688800Y-131876800D01*
X178638200Y-131876800D01*
X178638200Y-129438400D01*
X178703467Y-129438400D01*
X178964863Y-129330126D01*
X179164926Y-129130062D01*
X179273200Y-128868666D01*
X179273200Y-128858534D01*
X180688800Y-128858534D01*
X180688800Y-130521400D01*
X180866600Y-130699200D01*
X184099200Y-130699200D01*
X184099200Y-128466600D01*
X184200800Y-128466600D01*
X184200800Y-130699200D01*
X187433400Y-130699200D01*
X187611200Y-130521400D01*
X187611200Y-128858534D01*
X187502926Y-128597138D01*
X187302863Y-128397074D01*
X187041467Y-128288800D01*
X184378600Y-128288800D01*
X184200800Y-128466600D01*
X184099200Y-128466600D01*
X183921400Y-128288800D01*
X181258533Y-128288800D01*
X180997137Y-128397074D01*
X180797074Y-128597138D01*
X180688800Y-128858534D01*
X179273200Y-128858534D01*
X179273200Y-127863600D01*
X179095400Y-127685800D01*
X178638200Y-127685800D01*
X178638200Y-127584200D01*
X179095400Y-127584200D01*
X179273200Y-127406400D01*
X179273200Y-126401334D01*
X179164926Y-126139938D01*
X178964863Y-125939874D01*
X178703467Y-125831600D01*
X178638200Y-125831600D01*
X178638200Y-125298200D01*
X187756800Y-125298200D01*
X187756800Y-131876800D01*
X187756800Y-131876800D01*
G37*
X187756800Y-131876800D02*
X187611200Y-131876800D01*
X187611200Y-130978600D01*
X187433400Y-130800800D01*
X184200800Y-130800800D01*
X184200800Y-130820800D01*
X184099200Y-130820800D01*
X184099200Y-130800800D01*
X180866600Y-130800800D01*
X180688800Y-130978600D01*
X180688800Y-131876800D01*
X178638200Y-131876800D01*
X178638200Y-129438400D01*
X178703467Y-129438400D01*
X178964863Y-129330126D01*
X179164926Y-129130062D01*
X179273200Y-128868666D01*
X179273200Y-128858534D01*
X180688800Y-128858534D01*
X180688800Y-130521400D01*
X180866600Y-130699200D01*
X184099200Y-130699200D01*
X184099200Y-128466600D01*
X184200800Y-128466600D01*
X184200800Y-130699200D01*
X187433400Y-130699200D01*
X187611200Y-130521400D01*
X187611200Y-128858534D01*
X187502926Y-128597138D01*
X187302863Y-128397074D01*
X187041467Y-128288800D01*
X184378600Y-128288800D01*
X184200800Y-128466600D01*
X184099200Y-128466600D01*
X183921400Y-128288800D01*
X181258533Y-128288800D01*
X180997137Y-128397074D01*
X180797074Y-128597138D01*
X180688800Y-128858534D01*
X179273200Y-128858534D01*
X179273200Y-127863600D01*
X179095400Y-127685800D01*
X178638200Y-127685800D01*
X178638200Y-127584200D01*
X179095400Y-127584200D01*
X179273200Y-127406400D01*
X179273200Y-126401334D01*
X179164926Y-126139938D01*
X178964863Y-125939874D01*
X178703467Y-125831600D01*
X178638200Y-125831600D01*
X178638200Y-125298200D01*
X187756800Y-125298200D01*
X187756800Y-131876800D01*
G04 #@! TO.N,GND*
G36*
X175056800Y-131703800D02*
X174178533Y-131703800D01*
X173917137Y-131812074D01*
X173717074Y-132012138D01*
X173608800Y-132273534D01*
X173608800Y-132486400D01*
X173786600Y-132664200D01*
X173796905Y-132664200D01*
X173786800Y-132715000D01*
X173786800Y-132765800D01*
X173786600Y-132765800D01*
X173608800Y-132943600D01*
X173608800Y-133156466D01*
X173717074Y-133417862D01*
X173746005Y-133446794D01*
X173745770Y-133447146D01*
X173698458Y-133685000D01*
X173698458Y-134285000D01*
X173745770Y-134522854D01*
X173786800Y-134584260D01*
X173786800Y-134655740D01*
X173745770Y-134717146D01*
X173698458Y-134955000D01*
X173698458Y-135555000D01*
X173745770Y-135792854D01*
X173786800Y-135854260D01*
X173786800Y-135925740D01*
X173745770Y-135987146D01*
X173698458Y-136225000D01*
X173698458Y-136825000D01*
X173724675Y-136956800D01*
X171715325Y-136956800D01*
X171741542Y-136825000D01*
X171741542Y-136225000D01*
X171694230Y-135987146D01*
X171629319Y-135890000D01*
X171694230Y-135792854D01*
X171741542Y-135555000D01*
X171741542Y-134955000D01*
X171694230Y-134717146D01*
X171629319Y-134620000D01*
X171694230Y-134522854D01*
X171741542Y-134285000D01*
X171741542Y-133685000D01*
X171694230Y-133447146D01*
X171629319Y-133350000D01*
X171694230Y-133252854D01*
X171741542Y-133015000D01*
X171741542Y-132415000D01*
X171694230Y-132177146D01*
X171559497Y-131975503D01*
X171357854Y-131840770D01*
X171120000Y-131793458D01*
X170383200Y-131793458D01*
X170383200Y-129743200D01*
X175056800Y-129743200D01*
X175056800Y-131703800D01*
X175056800Y-131703800D01*
G37*
X175056800Y-131703800D02*
X174178533Y-131703800D01*
X173917137Y-131812074D01*
X173717074Y-132012138D01*
X173608800Y-132273534D01*
X173608800Y-132486400D01*
X173786600Y-132664200D01*
X173796905Y-132664200D01*
X173786800Y-132715000D01*
X173786800Y-132765800D01*
X173786600Y-132765800D01*
X173608800Y-132943600D01*
X173608800Y-133156466D01*
X173717074Y-133417862D01*
X173746005Y-133446794D01*
X173745770Y-133447146D01*
X173698458Y-133685000D01*
X173698458Y-134285000D01*
X173745770Y-134522854D01*
X173786800Y-134584260D01*
X173786800Y-134655740D01*
X173745770Y-134717146D01*
X173698458Y-134955000D01*
X173698458Y-135555000D01*
X173745770Y-135792854D01*
X173786800Y-135854260D01*
X173786800Y-135925740D01*
X173745770Y-135987146D01*
X173698458Y-136225000D01*
X173698458Y-136825000D01*
X173724675Y-136956800D01*
X171715325Y-136956800D01*
X171741542Y-136825000D01*
X171741542Y-136225000D01*
X171694230Y-135987146D01*
X171629319Y-135890000D01*
X171694230Y-135792854D01*
X171741542Y-135555000D01*
X171741542Y-134955000D01*
X171694230Y-134717146D01*
X171629319Y-134620000D01*
X171694230Y-134522854D01*
X171741542Y-134285000D01*
X171741542Y-133685000D01*
X171694230Y-133447146D01*
X171629319Y-133350000D01*
X171694230Y-133252854D01*
X171741542Y-133015000D01*
X171741542Y-132415000D01*
X171694230Y-132177146D01*
X171559497Y-131975503D01*
X171357854Y-131840770D01*
X171120000Y-131793458D01*
X170383200Y-131793458D01*
X170383200Y-129743200D01*
X175056800Y-129743200D01*
X175056800Y-131703800D01*
G36*
X164896800Y-129971800D02*
X158318200Y-129971800D01*
X158318200Y-127863600D01*
X160923800Y-127863600D01*
X160923800Y-128976467D01*
X161032074Y-129237863D01*
X161232138Y-129437926D01*
X161493534Y-129546200D01*
X162606400Y-129546200D01*
X162784200Y-129368400D01*
X162784200Y-127685800D01*
X162885800Y-127685800D01*
X162885800Y-129368400D01*
X163063600Y-129546200D01*
X164176466Y-129546200D01*
X164437862Y-129437926D01*
X164637926Y-129237863D01*
X164746200Y-128976467D01*
X164746200Y-127863600D01*
X164568400Y-127685800D01*
X162885800Y-127685800D01*
X162784200Y-127685800D01*
X161101600Y-127685800D01*
X160923800Y-127863600D01*
X158318200Y-127863600D01*
X158318200Y-126293533D01*
X160923800Y-126293533D01*
X160923800Y-127406400D01*
X161101600Y-127584200D01*
X162784200Y-127584200D01*
X162784200Y-125901600D01*
X162885800Y-125901600D01*
X162885800Y-127584200D01*
X164568400Y-127584200D01*
X164746200Y-127406400D01*
X164746200Y-126293533D01*
X164637926Y-126032137D01*
X164437862Y-125832074D01*
X164176466Y-125723800D01*
X163063600Y-125723800D01*
X162885800Y-125901600D01*
X162784200Y-125901600D01*
X162606400Y-125723800D01*
X161493534Y-125723800D01*
X161232138Y-125832074D01*
X161032074Y-126032137D01*
X160923800Y-126293533D01*
X158318200Y-126293533D01*
X158318200Y-125298200D01*
X164896800Y-125298200D01*
X164896800Y-129971800D01*
X164896800Y-129971800D01*
G37*
X164896800Y-129971800D02*
X158318200Y-129971800D01*
X158318200Y-127863600D01*
X160923800Y-127863600D01*
X160923800Y-128976467D01*
X161032074Y-129237863D01*
X161232138Y-129437926D01*
X161493534Y-129546200D01*
X162606400Y-129546200D01*
X162784200Y-129368400D01*
X162784200Y-127685800D01*
X162885800Y-127685800D01*
X162885800Y-129368400D01*
X163063600Y-129546200D01*
X164176466Y-129546200D01*
X164437862Y-129437926D01*
X164637926Y-129237863D01*
X164746200Y-128976467D01*
X164746200Y-127863600D01*
X164568400Y-127685800D01*
X162885800Y-127685800D01*
X162784200Y-127685800D01*
X161101600Y-127685800D01*
X160923800Y-127863600D01*
X158318200Y-127863600D01*
X158318200Y-126293533D01*
X160923800Y-126293533D01*
X160923800Y-127406400D01*
X161101600Y-127584200D01*
X162784200Y-127584200D01*
X162784200Y-125901600D01*
X162885800Y-125901600D01*
X162885800Y-127584200D01*
X164568400Y-127584200D01*
X164746200Y-127406400D01*
X164746200Y-126293533D01*
X164637926Y-126032137D01*
X164437862Y-125832074D01*
X164176466Y-125723800D01*
X163063600Y-125723800D01*
X162885800Y-125901600D01*
X162784200Y-125901600D01*
X162606400Y-125723800D01*
X161493534Y-125723800D01*
X161232138Y-125832074D01*
X161032074Y-126032137D01*
X160923800Y-126293533D01*
X158318200Y-126293533D01*
X158318200Y-125298200D01*
X164896800Y-125298200D01*
X164896800Y-129971800D01*
G04 #@! TO.N,+5V*
G36*
X180688800Y-135721400D02*
X180866600Y-135899200D01*
X184099200Y-135899200D01*
X184099200Y-135879200D01*
X184200800Y-135879200D01*
X184200800Y-135899200D01*
X187433400Y-135899200D01*
X187611200Y-135721400D01*
X187611200Y-135458200D01*
X187756800Y-135458200D01*
X187756800Y-138861800D01*
X174828200Y-138861800D01*
X174828200Y-137536200D01*
X175191400Y-137536200D01*
X175369200Y-137358400D01*
X175369200Y-136575800D01*
X175470800Y-136575800D01*
X175470800Y-137358400D01*
X175648600Y-137536200D01*
X176661467Y-137536200D01*
X176922863Y-137427926D01*
X177122926Y-137227862D01*
X177231200Y-136966466D01*
X177231200Y-136753600D01*
X177053400Y-136575800D01*
X175470800Y-136575800D01*
X175369200Y-136575800D01*
X175349200Y-136575800D01*
X175349200Y-136474200D01*
X175369200Y-136474200D01*
X175369200Y-136454200D01*
X175470800Y-136454200D01*
X175470800Y-136474200D01*
X177053400Y-136474200D01*
X177231200Y-136296400D01*
X177231200Y-136178600D01*
X180688800Y-136178600D01*
X180688800Y-137841466D01*
X180797074Y-138102862D01*
X180997137Y-138302926D01*
X181258533Y-138411200D01*
X183921400Y-138411200D01*
X184099200Y-138233400D01*
X184099200Y-136000800D01*
X184200800Y-136000800D01*
X184200800Y-138233400D01*
X184378600Y-138411200D01*
X187041467Y-138411200D01*
X187302863Y-138302926D01*
X187502926Y-138102862D01*
X187611200Y-137841466D01*
X187611200Y-136178600D01*
X187433400Y-136000800D01*
X184200800Y-136000800D01*
X184099200Y-136000800D01*
X180866600Y-136000800D01*
X180688800Y-136178600D01*
X177231200Y-136178600D01*
X177231200Y-136083534D01*
X177122926Y-135822138D01*
X177093995Y-135793206D01*
X177094230Y-135792854D01*
X177141542Y-135555000D01*
X177141542Y-135458200D01*
X180688800Y-135458200D01*
X180688800Y-135721400D01*
X180688800Y-135721400D01*
G37*
X180688800Y-135721400D02*
X180866600Y-135899200D01*
X184099200Y-135899200D01*
X184099200Y-135879200D01*
X184200800Y-135879200D01*
X184200800Y-135899200D01*
X187433400Y-135899200D01*
X187611200Y-135721400D01*
X187611200Y-135458200D01*
X187756800Y-135458200D01*
X187756800Y-138861800D01*
X174828200Y-138861800D01*
X174828200Y-137536200D01*
X175191400Y-137536200D01*
X175369200Y-137358400D01*
X175369200Y-136575800D01*
X175470800Y-136575800D01*
X175470800Y-137358400D01*
X175648600Y-137536200D01*
X176661467Y-137536200D01*
X176922863Y-137427926D01*
X177122926Y-137227862D01*
X177231200Y-136966466D01*
X177231200Y-136753600D01*
X177053400Y-136575800D01*
X175470800Y-136575800D01*
X175369200Y-136575800D01*
X175349200Y-136575800D01*
X175349200Y-136474200D01*
X175369200Y-136474200D01*
X175369200Y-136454200D01*
X175470800Y-136454200D01*
X175470800Y-136474200D01*
X177053400Y-136474200D01*
X177231200Y-136296400D01*
X177231200Y-136178600D01*
X180688800Y-136178600D01*
X180688800Y-137841466D01*
X180797074Y-138102862D01*
X180997137Y-138302926D01*
X181258533Y-138411200D01*
X183921400Y-138411200D01*
X184099200Y-138233400D01*
X184099200Y-136000800D01*
X184200800Y-136000800D01*
X184200800Y-138233400D01*
X184378600Y-138411200D01*
X187041467Y-138411200D01*
X187302863Y-138302926D01*
X187502926Y-138102862D01*
X187611200Y-137841466D01*
X187611200Y-136178600D01*
X187433400Y-136000800D01*
X184200800Y-136000800D01*
X184099200Y-136000800D01*
X180866600Y-136000800D01*
X180688800Y-136178600D01*
X177231200Y-136178600D01*
X177231200Y-136083534D01*
X177122926Y-135822138D01*
X177093995Y-135793206D01*
X177094230Y-135792854D01*
X177141542Y-135555000D01*
X177141542Y-135458200D01*
X180688800Y-135458200D01*
X180688800Y-135721400D01*
G04 #@! TO.N,GND*
G36*
X143318800Y-125258534D02*
X143318800Y-125821400D01*
X143496600Y-125999200D01*
X144729200Y-125999200D01*
X144729200Y-125979200D01*
X144830800Y-125979200D01*
X144830800Y-125999200D01*
X146063400Y-125999200D01*
X146241200Y-125821400D01*
X146241200Y-125258534D01*
X146194007Y-125144600D01*
X147653165Y-125144600D01*
X147622146Y-125150770D01*
X147420503Y-125285503D01*
X147285770Y-125487146D01*
X147238458Y-125725000D01*
X147238458Y-126375000D01*
X147285770Y-126612854D01*
X147420503Y-126814497D01*
X147622146Y-126949230D01*
X147860000Y-126996542D01*
X149060000Y-126996542D01*
X149297854Y-126949230D01*
X149499497Y-126814497D01*
X149634230Y-126612854D01*
X149681542Y-126375000D01*
X149681542Y-125725000D01*
X149634230Y-125487146D01*
X149499497Y-125285503D01*
X149297854Y-125150770D01*
X149266835Y-125144600D01*
X150453165Y-125144600D01*
X150422146Y-125150770D01*
X150220503Y-125285503D01*
X150085770Y-125487146D01*
X150038458Y-125725000D01*
X150038458Y-126317081D01*
X149948800Y-126533534D01*
X149948800Y-126771400D01*
X150126600Y-126949200D01*
X150422101Y-126949200D01*
X150422146Y-126949230D01*
X150660000Y-126996542D01*
X151330800Y-126996542D01*
X151330800Y-127003458D01*
X150660000Y-127003458D01*
X150422146Y-127050770D01*
X150422101Y-127050800D01*
X150126600Y-127050800D01*
X149948800Y-127228600D01*
X149948800Y-127466466D01*
X150038458Y-127682919D01*
X150038458Y-128275000D01*
X150085770Y-128512854D01*
X150220503Y-128714497D01*
X150422146Y-128849230D01*
X150660000Y-128896542D01*
X151860000Y-128896542D01*
X152097854Y-128849230D01*
X152227206Y-128762800D01*
X152639950Y-128762800D01*
X152720000Y-128778723D01*
X152800050Y-128762800D01*
X153037139Y-128715640D01*
X153305996Y-128535996D01*
X153351343Y-128468129D01*
X153478800Y-128340672D01*
X153478800Y-128741466D01*
X153587074Y-129002862D01*
X153787137Y-129202926D01*
X154048533Y-129311200D01*
X154711400Y-129311200D01*
X154889200Y-129133400D01*
X154889200Y-128000800D01*
X154869200Y-128000800D01*
X154869200Y-127899200D01*
X154889200Y-127899200D01*
X154889200Y-127879200D01*
X154990800Y-127879200D01*
X154990800Y-127899200D01*
X155010800Y-127899200D01*
X155010800Y-128000800D01*
X154990800Y-128000800D01*
X154990800Y-129133400D01*
X155168600Y-129311200D01*
X155831467Y-129311200D01*
X156006800Y-129238574D01*
X156006800Y-129971800D01*
X143551813Y-129971800D01*
X143580009Y-129960121D01*
X143930121Y-129610009D01*
X144091029Y-129221542D01*
X145530000Y-129221542D01*
X145767854Y-129174230D01*
X145804568Y-129149698D01*
X145979991Y-129325121D01*
X146437434Y-129514600D01*
X146932566Y-129514600D01*
X147390009Y-129325121D01*
X147740121Y-128975009D01*
X147779274Y-128880485D01*
X147860000Y-128896542D01*
X149060000Y-128896542D01*
X149297854Y-128849230D01*
X149499497Y-128714497D01*
X149634230Y-128512854D01*
X149681542Y-128275000D01*
X149681542Y-127625000D01*
X149634230Y-127387146D01*
X149499497Y-127185503D01*
X149297854Y-127050770D01*
X149060000Y-127003458D01*
X147860000Y-127003458D01*
X147622146Y-127050770D01*
X147492794Y-127137200D01*
X147202475Y-127137200D01*
X146932566Y-127025400D01*
X146437434Y-127025400D01*
X146167525Y-127137200D01*
X146119159Y-127137200D01*
X146115746Y-127120042D01*
X146132926Y-127102862D01*
X146241200Y-126841466D01*
X146241200Y-126278600D01*
X146063400Y-126100800D01*
X144830800Y-126100800D01*
X144830800Y-126120800D01*
X144729200Y-126120800D01*
X144729200Y-126100800D01*
X143496600Y-126100800D01*
X143318800Y-126278600D01*
X143318800Y-126841466D01*
X143427074Y-127102862D01*
X143444254Y-127120042D01*
X143418983Y-127247087D01*
X143244004Y-127364004D01*
X143198659Y-127431868D01*
X142970127Y-127660400D01*
X142627434Y-127660400D01*
X142443200Y-127736712D01*
X142443200Y-125144600D01*
X143365993Y-125144600D01*
X143318800Y-125258534D01*
X143318800Y-125258534D01*
G37*
X143318800Y-125258534D02*
X143318800Y-125821400D01*
X143496600Y-125999200D01*
X144729200Y-125999200D01*
X144729200Y-125979200D01*
X144830800Y-125979200D01*
X144830800Y-125999200D01*
X146063400Y-125999200D01*
X146241200Y-125821400D01*
X146241200Y-125258534D01*
X146194007Y-125144600D01*
X147653165Y-125144600D01*
X147622146Y-125150770D01*
X147420503Y-125285503D01*
X147285770Y-125487146D01*
X147238458Y-125725000D01*
X147238458Y-126375000D01*
X147285770Y-126612854D01*
X147420503Y-126814497D01*
X147622146Y-126949230D01*
X147860000Y-126996542D01*
X149060000Y-126996542D01*
X149297854Y-126949230D01*
X149499497Y-126814497D01*
X149634230Y-126612854D01*
X149681542Y-126375000D01*
X149681542Y-125725000D01*
X149634230Y-125487146D01*
X149499497Y-125285503D01*
X149297854Y-125150770D01*
X149266835Y-125144600D01*
X150453165Y-125144600D01*
X150422146Y-125150770D01*
X150220503Y-125285503D01*
X150085770Y-125487146D01*
X150038458Y-125725000D01*
X150038458Y-126317081D01*
X149948800Y-126533534D01*
X149948800Y-126771400D01*
X150126600Y-126949200D01*
X150422101Y-126949200D01*
X150422146Y-126949230D01*
X150660000Y-126996542D01*
X151330800Y-126996542D01*
X151330800Y-127003458D01*
X150660000Y-127003458D01*
X150422146Y-127050770D01*
X150422101Y-127050800D01*
X150126600Y-127050800D01*
X149948800Y-127228600D01*
X149948800Y-127466466D01*
X150038458Y-127682919D01*
X150038458Y-128275000D01*
X150085770Y-128512854D01*
X150220503Y-128714497D01*
X150422146Y-128849230D01*
X150660000Y-128896542D01*
X151860000Y-128896542D01*
X152097854Y-128849230D01*
X152227206Y-128762800D01*
X152639950Y-128762800D01*
X152720000Y-128778723D01*
X152800050Y-128762800D01*
X153037139Y-128715640D01*
X153305996Y-128535996D01*
X153351343Y-128468129D01*
X153478800Y-128340672D01*
X153478800Y-128741466D01*
X153587074Y-129002862D01*
X153787137Y-129202926D01*
X154048533Y-129311200D01*
X154711400Y-129311200D01*
X154889200Y-129133400D01*
X154889200Y-128000800D01*
X154869200Y-128000800D01*
X154869200Y-127899200D01*
X154889200Y-127899200D01*
X154889200Y-127879200D01*
X154990800Y-127879200D01*
X154990800Y-127899200D01*
X155010800Y-127899200D01*
X155010800Y-128000800D01*
X154990800Y-128000800D01*
X154990800Y-129133400D01*
X155168600Y-129311200D01*
X155831467Y-129311200D01*
X156006800Y-129238574D01*
X156006800Y-129971800D01*
X143551813Y-129971800D01*
X143580009Y-129960121D01*
X143930121Y-129610009D01*
X144091029Y-129221542D01*
X145530000Y-129221542D01*
X145767854Y-129174230D01*
X145804568Y-129149698D01*
X145979991Y-129325121D01*
X146437434Y-129514600D01*
X146932566Y-129514600D01*
X147390009Y-129325121D01*
X147740121Y-128975009D01*
X147779274Y-128880485D01*
X147860000Y-128896542D01*
X149060000Y-128896542D01*
X149297854Y-128849230D01*
X149499497Y-128714497D01*
X149634230Y-128512854D01*
X149681542Y-128275000D01*
X149681542Y-127625000D01*
X149634230Y-127387146D01*
X149499497Y-127185503D01*
X149297854Y-127050770D01*
X149060000Y-127003458D01*
X147860000Y-127003458D01*
X147622146Y-127050770D01*
X147492794Y-127137200D01*
X147202475Y-127137200D01*
X146932566Y-127025400D01*
X146437434Y-127025400D01*
X146167525Y-127137200D01*
X146119159Y-127137200D01*
X146115746Y-127120042D01*
X146132926Y-127102862D01*
X146241200Y-126841466D01*
X146241200Y-126278600D01*
X146063400Y-126100800D01*
X144830800Y-126100800D01*
X144830800Y-126120800D01*
X144729200Y-126120800D01*
X144729200Y-126100800D01*
X143496600Y-126100800D01*
X143318800Y-126278600D01*
X143318800Y-126841466D01*
X143427074Y-127102862D01*
X143444254Y-127120042D01*
X143418983Y-127247087D01*
X143244004Y-127364004D01*
X143198659Y-127431868D01*
X142970127Y-127660400D01*
X142627434Y-127660400D01*
X142443200Y-127736712D01*
X142443200Y-125144600D01*
X143365993Y-125144600D01*
X143318800Y-125258534D01*
G04 #@! TD*
D31*
X131445000Y-137160000D03*
X127635000Y-137160000D03*
X104140000Y-137160000D03*
X113665000Y-136525000D03*
X116840000Y-136525000D03*
X116840000Y-128270000D03*
X118745000Y-128270000D03*
X120650000Y-128270000D03*
X120650000Y-126365000D03*
X109220000Y-128905000D03*
X111125000Y-128905000D03*
X113030000Y-128905000D03*
X104775000Y-142240000D03*
X108585000Y-139065000D03*
X108585000Y-137160000D03*
X152400000Y-142240000D03*
X150495000Y-142240000D03*
X148590000Y-142240000D03*
X148590000Y-138430000D03*
X150495000Y-138430000D03*
X152400000Y-138430000D03*
X154305000Y-138430000D03*
X142875000Y-126365000D03*
X147955000Y-129540000D03*
X151765000Y-129540000D03*
X149860000Y-129540000D03*
X170815000Y-130810000D03*
X159385000Y-129540000D03*
X159385000Y-125730000D03*
X159385000Y-127635000D03*
X124460000Y-136525000D03*
X127635000Y-139065000D03*
X131445000Y-139065000D03*
X172720000Y-136525000D03*
X172720000Y-134620000D03*
X172720000Y-132715000D03*
X174625000Y-130810000D03*
X172720000Y-130810000D03*
X139700000Y-137795000D03*
X138430000Y-127000000D03*
X135890000Y-127000000D03*
X132334000Y-126492000D03*
X132334000Y-128524000D03*
X130302000Y-128524000D03*
X123825000Y-128270000D03*
X125730000Y-128270000D03*
X125730000Y-126365000D03*
X164465000Y-138430000D03*
X98425000Y-126365000D03*
X121285000Y-139065000D03*
X94615000Y-127000000D03*
X161925000Y-138430000D03*
X121285000Y-137795000D03*
X143510000Y-135890000D03*
X123824990Y-133985000D03*
X111760000Y-136525000D03*
X180340000Y-138430000D03*
X180340000Y-136525000D03*
X158114982Y-135890000D03*
X156845000Y-131445000D03*
X178435000Y-138430000D03*
X178435000Y-136525000D03*
X114935000Y-138430000D03*
X114300000Y-127635000D03*
X114300000Y-126365000D03*
X111125000Y-139065000D03*
X179705000Y-128905000D03*
X179705000Y-130810000D03*
X181610000Y-127635000D03*
X186690000Y-127635000D03*
X184150000Y-127635000D03*
X133985000Y-138430000D03*
X118110000Y-137795000D03*
X159385000Y-138430000D03*
X107950016Y-132080000D03*
X90805000Y-136525000D03*
X132080000Y-132715000D03*
X93345000Y-125730000D03*
X117475000Y-131445000D03*
X123825000Y-131445000D03*
X142875000Y-128905000D03*
X97790024Y-129540000D03*
X97790000Y-135890000D03*
X97155000Y-138430000D03*
X108584994Y-134086611D03*
X116205000Y-132715000D03*
X122555000Y-132715000D03*
X133985000Y-134620000D03*
M02*
