G04 #@! TF.GenerationSoftware,KiCad,Pcbnew,5.0.0-fee4fd1~65~ubuntu17.10.1*
G04 #@! TF.CreationDate,2018-10-29T14:10:51-04:00*
G04 #@! TF.ProjectId,front-panel,66726F6E742D70616E656C2E6B696361,A*
G04 #@! TF.SameCoordinates,Original*
G04 #@! TF.FileFunction,Copper,L2,Bot,Signal*
G04 #@! TF.FilePolarity,Positive*
%FSLAX46Y46*%
G04 Gerber Fmt 4.6, Leading zero omitted, Abs format (unit mm)*
G04 Created by KiCad (PCBNEW 5.0.0-fee4fd1~65~ubuntu17.10.1) date Mon Oct 29 14:10:51 2018*
%MOMM*%
%LPD*%
G01*
G04 APERTURE LIST*
G04 #@! TA.AperFunction,SMDPad,CuDef*
%ADD10R,0.400000X1.700000*%
G04 #@! TD*
G04 #@! TA.AperFunction,SMDPad,CuDef*
%ADD11R,1.000000X1.100000*%
G04 #@! TD*
G04 #@! TA.AperFunction,ViaPad*
%ADD12C,1.270000*%
G04 #@! TD*
G04 #@! TA.AperFunction,ViaPad*
%ADD13C,0.965200*%
G04 #@! TD*
G04 #@! TA.AperFunction,Conductor*
%ADD14C,0.406400*%
G04 #@! TD*
G04 #@! TA.AperFunction,Conductor*
%ADD15C,0.304800*%
G04 #@! TD*
G04 #@! TA.AperFunction,Conductor*
%ADD16C,0.254000*%
G04 #@! TD*
%ADD17C,0.350000*%
G04 APERTURE END LIST*
D10*
G04 #@! TO.P,U3,4*
G04 #@! TO.N,N/C*
X95235000Y-132097600D03*
G04 #@! TO.P,U3,3*
G04 #@! TO.N,GND*
X95235000Y-134297600D03*
G04 #@! TO.P,U3,1*
G04 #@! TO.N,/SCL_3V3*
X96535000Y-134297600D03*
G04 #@! TO.P,U3,6*
G04 #@! TO.N,/SDA_3V3*
X96535000Y-132097600D03*
G04 #@! TO.P,U3,5*
G04 #@! TO.N,+3V3*
X95885000Y-132097600D03*
G04 #@! TO.P,U3,2*
G04 #@! TO.N,/INT*
X95885000Y-134297600D03*
G04 #@! TD*
D11*
G04 #@! TO.P,C8,1*
G04 #@! TO.N,+3V3*
X93345000Y-132500000D03*
G04 #@! TO.P,C8,2*
G04 #@! TO.N,GND*
X93345000Y-134200000D03*
G04 #@! TD*
D12*
G04 #@! TO.N,GND*
X131445000Y-137160000D03*
X127635000Y-137160000D03*
X104140000Y-137160000D03*
X113665000Y-136525000D03*
X116840000Y-136525000D03*
X116840000Y-128270000D03*
X118745000Y-128270000D03*
X120650000Y-128270000D03*
X120650000Y-126365000D03*
X109220000Y-128905000D03*
X111125000Y-128905000D03*
X113030000Y-128905000D03*
X104775000Y-142240000D03*
X108585000Y-139065000D03*
X108585000Y-137160000D03*
X152400000Y-142240000D03*
X150495000Y-142240000D03*
X148590000Y-142240000D03*
X148590000Y-138430000D03*
X150495000Y-138430000D03*
X152400000Y-138430000D03*
X154305000Y-138430000D03*
X142875000Y-126365000D03*
X147955000Y-129540000D03*
X151765000Y-129540000D03*
X149860000Y-129540000D03*
X170815000Y-130810000D03*
X159385000Y-129540000D03*
X159385000Y-125730000D03*
X159385000Y-127635000D03*
X124460000Y-136525000D03*
X127635000Y-139065000D03*
X131445000Y-139065000D03*
X172720000Y-136525000D03*
X172720000Y-134620000D03*
X172720000Y-132715000D03*
X174625000Y-130810000D03*
X172720000Y-130810000D03*
X139700000Y-137795000D03*
X138430000Y-127000000D03*
X135890000Y-127000000D03*
X132334000Y-126492000D03*
X132334000Y-128524000D03*
X130302000Y-128524000D03*
X123825000Y-128270000D03*
X125730000Y-128270000D03*
X125730000Y-126365000D03*
D13*
G04 #@! TO.N,/SDA*
X164465000Y-138430000D03*
X98425000Y-126365000D03*
X121285000Y-139065000D03*
G04 #@! TO.N,/SCL*
X94615000Y-127000000D03*
X161925000Y-138430000D03*
X121285000Y-137795000D03*
D12*
G04 #@! TO.N,+5V*
X143510000Y-135890000D03*
X123824990Y-133985000D03*
X111760000Y-136525000D03*
X180340000Y-138430000D03*
X180340000Y-136525000D03*
X158114982Y-135890000D03*
X156845000Y-131445000D03*
X178435000Y-138430000D03*
X178435000Y-136525000D03*
X114935000Y-138430000D03*
X114300000Y-127635000D03*
X114300000Y-126365000D03*
X111125000Y-139065000D03*
G04 #@! TO.N,/SW_12V*
X179705000Y-128905000D03*
X179705000Y-130810000D03*
X181610000Y-127635000D03*
X186690000Y-127635000D03*
X184150000Y-127635000D03*
D13*
G04 #@! TO.N,/~RESET*
X133985000Y-138430000D03*
X118110000Y-137795000D03*
X159385000Y-138430000D03*
D12*
G04 #@! TO.N,+3V3*
X107950016Y-132080000D03*
X90805000Y-136525000D03*
X132080000Y-132715000D03*
X93345000Y-125730000D03*
X117475000Y-131445000D03*
X123825000Y-131445000D03*
X142875000Y-128905000D03*
D13*
G04 #@! TO.N,/SDA_3V3*
X97790024Y-129540000D03*
G04 #@! TO.N,/SCL_3V3*
X97790000Y-135890000D03*
G04 #@! TO.N,/INT*
X97155000Y-138430000D03*
X108584994Y-134086611D03*
X116205000Y-132715000D03*
X122555000Y-132715000D03*
X133985000Y-134620000D03*
G04 #@! TD*
D14*
G04 #@! TO.N,GND*
X116840000Y-136525000D02*
X113665000Y-136525000D01*
X118745000Y-128270000D02*
X116840000Y-128270000D01*
X120650000Y-126365000D02*
X120650000Y-128270000D01*
X111125000Y-128905000D02*
X109220000Y-128905000D01*
X108585000Y-139065000D02*
X108585000Y-137160000D01*
X148590000Y-142240000D02*
X150495000Y-142240000D01*
X150495000Y-138430000D02*
X148590000Y-138430000D01*
X154305000Y-138430000D02*
X152400000Y-138430000D01*
X149860000Y-129540000D02*
X151765000Y-129540000D01*
X159385000Y-127635000D02*
X159385000Y-125730000D01*
X172720000Y-132715000D02*
X172720000Y-134620000D01*
X172720000Y-130810000D02*
X174625000Y-130810000D01*
D15*
X95235000Y-134297600D02*
X95235000Y-136525000D01*
X95235000Y-136525000D02*
X93345000Y-136525000D01*
X93345000Y-136525000D02*
X93345000Y-134200000D01*
D16*
G04 #@! TO.N,/SDA*
X98425000Y-126365000D02*
X99060000Y-125730000D01*
X99060000Y-125730000D02*
X103505000Y-125730000D01*
X103505000Y-125730000D02*
X106045000Y-128270000D01*
X118110000Y-140970000D02*
X120015000Y-139065000D01*
X106045000Y-128270000D02*
X106045000Y-139700000D01*
X106045000Y-139700000D02*
X107315000Y-140970000D01*
X107315000Y-140970000D02*
X118110000Y-140970000D01*
X120015000Y-139065000D02*
X121285000Y-139065000D01*
X121285000Y-139065000D02*
X122555000Y-139065000D01*
X161925000Y-140970000D02*
X163982401Y-138912599D01*
X135255000Y-140970000D02*
X161925000Y-140970000D01*
X134620000Y-141605000D02*
X135255000Y-140970000D01*
X125095000Y-141605000D02*
X134620000Y-141605000D01*
X163982401Y-138912599D02*
X164465000Y-138430000D01*
X122555000Y-139065000D02*
X125095000Y-141605000D01*
G04 #@! TO.N,/SCL*
X96520000Y-125095000D02*
X95097599Y-126517401D01*
X106680000Y-127635000D02*
X104140000Y-125095000D01*
X106680000Y-139065000D02*
X106680000Y-127635000D01*
X107950000Y-140335000D02*
X106680000Y-139065000D01*
X120015000Y-137795000D02*
X117475000Y-140335000D01*
X95097599Y-126517401D02*
X94615000Y-127000000D01*
X121285000Y-137795000D02*
X120015000Y-137795000D01*
X117475000Y-140335000D02*
X107950000Y-140335000D01*
X104140000Y-125095000D02*
X96520000Y-125095000D01*
X121285000Y-137795000D02*
X122555000Y-137795000D01*
X160020000Y-140335000D02*
X161925000Y-138430000D01*
X134620000Y-140335000D02*
X160020000Y-140335000D01*
X133985000Y-140970000D02*
X134620000Y-140335000D01*
X125730000Y-140970000D02*
X133985000Y-140970000D01*
X122555000Y-137795000D02*
X125730000Y-140970000D01*
D14*
G04 #@! TO.N,+5V*
X130810000Y-135890000D02*
X128905000Y-133985000D01*
X128905000Y-133985000D02*
X124723015Y-133985000D01*
X143510000Y-135890000D02*
X130810000Y-135890000D01*
X124723015Y-133985000D02*
X123824990Y-133985000D01*
X111125000Y-137160000D02*
X111760000Y-136525000D01*
X111125000Y-139065000D02*
X111125000Y-137160000D01*
X180340000Y-136525000D02*
X180340000Y-138430000D01*
X156845000Y-131445000D02*
X156845000Y-133350000D01*
X156845000Y-133350000D02*
X158114982Y-134619982D01*
X158114982Y-134619982D02*
X158114982Y-134991975D01*
X158114982Y-134991975D02*
X158114982Y-135890000D01*
X114935000Y-138430000D02*
X114300000Y-139065000D01*
X114300000Y-139065000D02*
X111125000Y-139065000D01*
G04 #@! TO.N,/SW_12V*
X179705000Y-130810000D02*
X179705000Y-128905000D01*
D16*
G04 #@! TO.N,/~RESET*
X133985000Y-139700000D02*
X133985000Y-138430000D01*
X133985000Y-139700000D02*
X158115000Y-139700000D01*
X158115000Y-139700000D02*
X159385000Y-138430000D01*
X133985000Y-139700000D02*
X133350000Y-140335000D01*
X133350000Y-140335000D02*
X126365000Y-140335000D01*
X126365000Y-140335000D02*
X122555000Y-136525000D01*
X122555000Y-136525000D02*
X119380000Y-136525000D01*
X118592599Y-137312401D02*
X118110000Y-137795000D01*
X119380000Y-136525000D02*
X118592599Y-137312401D01*
D15*
G04 #@! TO.N,+3V3*
X93345000Y-130175000D02*
X95218800Y-130175000D01*
X95218800Y-130175000D02*
X95885000Y-130841200D01*
X95885000Y-130841200D02*
X95885000Y-132097600D01*
D14*
X117475000Y-131445000D02*
X112395000Y-131445000D01*
X112395000Y-131445000D02*
X111760000Y-132080000D01*
X111760000Y-132080000D02*
X107950016Y-132080000D01*
X93345000Y-131865000D02*
X93345000Y-132500000D01*
X93345000Y-131865000D02*
X93345000Y-130175000D01*
X93345000Y-125730000D02*
X93345000Y-130175000D01*
X93345000Y-130175000D02*
X91440000Y-130175000D01*
X91440000Y-130175000D02*
X90805000Y-130810000D01*
X90805000Y-130810000D02*
X90805000Y-135626975D01*
X90805000Y-135626975D02*
X90805000Y-136525000D01*
X140335000Y-131445000D02*
X132080000Y-131445000D01*
X132080000Y-132715000D02*
X132080000Y-131445000D01*
X132080000Y-131445000D02*
X124723025Y-131445000D01*
X124723025Y-131445000D02*
X123825000Y-131445000D01*
X142875000Y-128905000D02*
X140335000Y-131445000D01*
X129540000Y-131445000D02*
X123825000Y-131445000D01*
D16*
G04 #@! TO.N,/SDA_3V3*
X97307425Y-130022599D02*
X97790024Y-129540000D01*
X96535000Y-130795024D02*
X97307425Y-130022599D01*
X96535000Y-132097600D02*
X96535000Y-130795024D01*
G04 #@! TO.N,/SCL_3V3*
X96535000Y-134297600D02*
X96535000Y-135270000D01*
X96535000Y-135270000D02*
X97155000Y-135890000D01*
X97155000Y-135890000D02*
X97790000Y-135890000D01*
G04 #@! TO.N,/INT*
X95885000Y-135890000D02*
X95885000Y-134297600D01*
X97155000Y-137160000D02*
X95885000Y-135890000D01*
X116205000Y-132715000D02*
X113030000Y-132715000D01*
X113030000Y-132715000D02*
X111658389Y-134086611D01*
X111658389Y-134086611D02*
X108584994Y-134086611D01*
X97155000Y-138430000D02*
X97155000Y-137160000D01*
X122555000Y-132715000D02*
X128905000Y-132715000D01*
X128905000Y-132715000D02*
X130810000Y-134620000D01*
X130810000Y-134620000D02*
X133985000Y-134620000D01*
G04 #@! TD*
G04 #@! TO.N,GND*
G36*
X166243000Y-129540000D02*
X166252667Y-129588601D01*
X166280197Y-129629803D01*
X166321399Y-129657333D01*
X166370000Y-129667000D01*
X175133000Y-129667000D01*
X175133000Y-132588000D01*
X173990000Y-132588000D01*
X173941399Y-132597667D01*
X173900197Y-132625197D01*
X173872667Y-132666399D01*
X173863000Y-132715000D01*
X173863000Y-142901600D01*
X90143400Y-142901600D01*
X90143400Y-141029920D01*
X99721600Y-141029920D01*
X99731993Y-141082170D01*
X99807433Y-141510013D01*
X99807433Y-141510015D01*
X99837304Y-141592083D01*
X99879700Y-141708566D01*
X99879701Y-141708567D01*
X100100233Y-142090538D01*
X100100234Y-142090540D01*
X100236052Y-142252401D01*
X100573928Y-142535913D01*
X100756915Y-142641561D01*
X101171382Y-142792415D01*
X101379467Y-142829106D01*
X101820534Y-142829106D01*
X102028618Y-142792415D01*
X102443086Y-142641561D01*
X102626073Y-142535913D01*
X102626075Y-142535910D01*
X102963948Y-142252401D01*
X103099766Y-142090540D01*
X103099767Y-142090538D01*
X103320299Y-141708567D01*
X103392567Y-141510015D01*
X103392567Y-141510013D01*
X103468005Y-141082179D01*
X103478400Y-141029921D01*
X103478400Y-128845079D01*
X103468005Y-128792821D01*
X103392567Y-128364987D01*
X103392567Y-128364985D01*
X103320299Y-128166433D01*
X103099765Y-127784459D01*
X103079192Y-127759941D01*
X102963948Y-127622599D01*
X102626075Y-127339090D01*
X102626073Y-127339087D01*
X102443086Y-127233439D01*
X102028618Y-127082585D01*
X101820534Y-127045894D01*
X101379467Y-127045894D01*
X101171382Y-127082585D01*
X100756915Y-127233439D01*
X100573928Y-127339087D01*
X100236052Y-127622599D01*
X100120808Y-127759941D01*
X100100235Y-127784459D01*
X99879701Y-128166432D01*
X99879700Y-128166434D01*
X99858019Y-128226003D01*
X99807433Y-128364985D01*
X99807433Y-128364987D01*
X99731987Y-128792866D01*
X99721601Y-128845079D01*
X99721600Y-141029920D01*
X90143400Y-141029920D01*
X90143400Y-137515622D01*
X90572591Y-137693400D01*
X91037409Y-137693400D01*
X91466845Y-137515521D01*
X91795521Y-137186845D01*
X91973400Y-136757409D01*
X91973400Y-136292591D01*
X91795521Y-135863155D01*
X91541600Y-135609234D01*
X91541600Y-134358750D01*
X92311600Y-134358750D01*
X92311600Y-134856100D01*
X92392805Y-135052147D01*
X92542853Y-135202195D01*
X92738900Y-135283400D01*
X93186250Y-135283400D01*
X93319600Y-135150050D01*
X93319600Y-134225400D01*
X93370400Y-134225400D01*
X93370400Y-135150050D01*
X93503750Y-135283400D01*
X93951100Y-135283400D01*
X94147147Y-135202195D01*
X94297195Y-135052147D01*
X94378400Y-134856100D01*
X94378400Y-134358750D01*
X94245050Y-134225400D01*
X93370400Y-134225400D01*
X93319600Y-134225400D01*
X92444950Y-134225400D01*
X92311600Y-134358750D01*
X91541600Y-134358750D01*
X91541600Y-131115109D01*
X91745110Y-130911600D01*
X92608401Y-130911600D01*
X92608400Y-131466577D01*
X92460441Y-131565441D01*
X92342549Y-131741878D01*
X92301151Y-131950000D01*
X92301151Y-133050000D01*
X92342549Y-133258122D01*
X92398620Y-133342038D01*
X92392805Y-133347853D01*
X92311600Y-133543900D01*
X92311600Y-134041250D01*
X92444950Y-134174600D01*
X93319600Y-134174600D01*
X93319600Y-134154600D01*
X93370400Y-134154600D01*
X93370400Y-134174600D01*
X94245050Y-134174600D01*
X94378400Y-134041250D01*
X94378400Y-133543900D01*
X94297195Y-133347853D01*
X94291380Y-133342038D01*
X94347451Y-133258122D01*
X94388849Y-133050000D01*
X94388849Y-131950000D01*
X94347451Y-131741878D01*
X94229559Y-131565441D01*
X94081600Y-131466577D01*
X94081600Y-130860800D01*
X94653795Y-130860800D01*
X94650441Y-130863041D01*
X94532549Y-131039478D01*
X94491151Y-131247600D01*
X94491151Y-132947600D01*
X94532549Y-133155722D01*
X94560947Y-133198223D01*
X94501600Y-133341500D01*
X94501600Y-134138850D01*
X94634950Y-134272200D01*
X95141151Y-134272200D01*
X95141151Y-134323000D01*
X94634950Y-134323000D01*
X94501600Y-134456350D01*
X94501600Y-135253700D01*
X94582805Y-135449747D01*
X94732853Y-135599795D01*
X94928900Y-135681000D01*
X95076250Y-135681000D01*
X95209598Y-135547652D01*
X95209598Y-135681000D01*
X95224600Y-135681000D01*
X95224600Y-135824957D01*
X95211662Y-135890000D01*
X95224600Y-135955042D01*
X95262917Y-136147674D01*
X95408878Y-136366121D01*
X95464022Y-136402967D01*
X96494601Y-137433547D01*
X96494601Y-137653557D01*
X96293676Y-137854482D01*
X96139000Y-138227905D01*
X96139000Y-138632095D01*
X96293676Y-139005518D01*
X96579482Y-139291324D01*
X96952905Y-139446000D01*
X97357095Y-139446000D01*
X97730518Y-139291324D01*
X98016324Y-139005518D01*
X98171000Y-138632095D01*
X98171000Y-138227905D01*
X98016324Y-137854482D01*
X97815400Y-137653558D01*
X97815400Y-137225041D01*
X97828338Y-137159999D01*
X97807662Y-137056058D01*
X97777814Y-136906000D01*
X97992095Y-136906000D01*
X98365518Y-136751324D01*
X98651324Y-136465518D01*
X98806000Y-136092095D01*
X98806000Y-135687905D01*
X98651324Y-135314482D01*
X98365518Y-135028676D01*
X97992095Y-134874000D01*
X97587905Y-134874000D01*
X97278849Y-135002014D01*
X97278849Y-133447600D01*
X97237451Y-133239478D01*
X97209469Y-133197600D01*
X97237451Y-133155722D01*
X97278849Y-132947600D01*
X97278849Y-131247600D01*
X97237451Y-131039478D01*
X97232260Y-131031709D01*
X97707970Y-130556000D01*
X97992119Y-130556000D01*
X98365542Y-130401324D01*
X98651348Y-130115518D01*
X98806024Y-129742095D01*
X98806024Y-129337905D01*
X98651348Y-128964482D01*
X98365542Y-128678676D01*
X97992119Y-128524000D01*
X97587929Y-128524000D01*
X97214506Y-128678676D01*
X96928700Y-128964482D01*
X96774024Y-129337905D01*
X96774024Y-129622054D01*
X96204873Y-130191206D01*
X95751498Y-129737831D01*
X95713234Y-129680566D01*
X95486386Y-129528991D01*
X95286343Y-129489200D01*
X95286342Y-129489200D01*
X95218800Y-129475765D01*
X95151258Y-129489200D01*
X94081600Y-129489200D01*
X94081600Y-127878770D01*
X94412905Y-128016000D01*
X94817095Y-128016000D01*
X95190518Y-127861324D01*
X95476324Y-127575518D01*
X95631000Y-127202095D01*
X95631000Y-126917945D01*
X96793546Y-125755400D01*
X97597758Y-125755400D01*
X97563676Y-125789482D01*
X97409000Y-126162905D01*
X97409000Y-126567095D01*
X97563676Y-126940518D01*
X97849482Y-127226324D01*
X98222905Y-127381000D01*
X98627095Y-127381000D01*
X99000518Y-127226324D01*
X99286324Y-126940518D01*
X99441000Y-126567095D01*
X99441000Y-126390400D01*
X103231455Y-126390400D01*
X105384600Y-128543547D01*
X105384601Y-139634953D01*
X105371662Y-139700000D01*
X105395937Y-139822035D01*
X105422918Y-139957675D01*
X105568879Y-140176122D01*
X105624022Y-140212967D01*
X106802034Y-141390981D01*
X106838878Y-141446122D01*
X107057325Y-141592083D01*
X107249957Y-141630400D01*
X107314999Y-141643338D01*
X107380041Y-141630400D01*
X118044958Y-141630400D01*
X118110000Y-141643338D01*
X118175042Y-141630400D01*
X118175043Y-141630400D01*
X118367675Y-141592083D01*
X118586122Y-141446122D01*
X118622970Y-141390975D01*
X120288546Y-139725400D01*
X120508558Y-139725400D01*
X120709482Y-139926324D01*
X121082905Y-140081000D01*
X121487095Y-140081000D01*
X121860518Y-139926324D01*
X122061442Y-139725400D01*
X122281455Y-139725400D01*
X124582034Y-142025981D01*
X124618878Y-142081122D01*
X124837325Y-142227083D01*
X125029957Y-142265400D01*
X125029961Y-142265400D01*
X125094999Y-142278337D01*
X125160038Y-142265400D01*
X134554958Y-142265400D01*
X134620000Y-142278338D01*
X134685042Y-142265400D01*
X134685043Y-142265400D01*
X134877675Y-142227083D01*
X135096122Y-142081122D01*
X135132969Y-142025976D01*
X135528546Y-141630400D01*
X161859958Y-141630400D01*
X161925000Y-141643338D01*
X161990042Y-141630400D01*
X161990043Y-141630400D01*
X162182675Y-141592083D01*
X162401122Y-141446122D01*
X162437969Y-141390976D01*
X164382947Y-139446000D01*
X164667095Y-139446000D01*
X165040518Y-139291324D01*
X165326324Y-139005518D01*
X165481000Y-138632095D01*
X165481000Y-138227905D01*
X165326324Y-137854482D01*
X165040518Y-137568676D01*
X164667095Y-137414000D01*
X164262905Y-137414000D01*
X163889482Y-137568676D01*
X163603676Y-137854482D01*
X163449000Y-138227905D01*
X163449000Y-138512053D01*
X161651455Y-140309600D01*
X160979345Y-140309600D01*
X161842946Y-139446000D01*
X162127095Y-139446000D01*
X162500518Y-139291324D01*
X162786324Y-139005518D01*
X162941000Y-138632095D01*
X162941000Y-138227905D01*
X162786324Y-137854482D01*
X162500518Y-137568676D01*
X162127095Y-137414000D01*
X161722905Y-137414000D01*
X161349482Y-137568676D01*
X161063676Y-137854482D01*
X160909000Y-138227905D01*
X160909000Y-138512054D01*
X159746455Y-139674600D01*
X159074346Y-139674600D01*
X159302946Y-139446000D01*
X159587095Y-139446000D01*
X159960518Y-139291324D01*
X160246324Y-139005518D01*
X160401000Y-138632095D01*
X160401000Y-138227905D01*
X160246324Y-137854482D01*
X159960518Y-137568676D01*
X159587095Y-137414000D01*
X159182905Y-137414000D01*
X158809482Y-137568676D01*
X158523676Y-137854482D01*
X158369000Y-138227905D01*
X158369000Y-138512054D01*
X157841455Y-139039600D01*
X134812242Y-139039600D01*
X134846324Y-139005518D01*
X135001000Y-138632095D01*
X135001000Y-138227905D01*
X134846324Y-137854482D01*
X134560518Y-137568676D01*
X134187095Y-137414000D01*
X133782905Y-137414000D01*
X133409482Y-137568676D01*
X133123676Y-137854482D01*
X132969000Y-138227905D01*
X132969000Y-138632095D01*
X133123676Y-139005518D01*
X133324600Y-139206442D01*
X133324600Y-139426454D01*
X133076455Y-139674600D01*
X126638546Y-139674600D01*
X123067970Y-136104025D01*
X123031122Y-136048878D01*
X122812675Y-135902917D01*
X122620043Y-135864600D01*
X122620042Y-135864600D01*
X122555000Y-135851662D01*
X122489958Y-135864600D01*
X119445041Y-135864600D01*
X119379999Y-135851662D01*
X119314957Y-135864600D01*
X119122325Y-135902917D01*
X118903878Y-136048878D01*
X118867034Y-136104019D01*
X118192055Y-136779000D01*
X117907905Y-136779000D01*
X117534482Y-136933676D01*
X117248676Y-137219482D01*
X117094000Y-137592905D01*
X117094000Y-137997095D01*
X117248676Y-138370518D01*
X117534482Y-138656324D01*
X117907905Y-138811000D01*
X118065054Y-138811000D01*
X117201455Y-139674600D01*
X114713512Y-139674600D01*
X114827553Y-139598400D01*
X115167409Y-139598400D01*
X115596845Y-139420521D01*
X115925521Y-139091845D01*
X116103400Y-138662409D01*
X116103400Y-138197591D01*
X115925521Y-137768155D01*
X115596845Y-137439479D01*
X115167409Y-137261600D01*
X114702591Y-137261600D01*
X114273155Y-137439479D01*
X113944479Y-137768155D01*
X113766600Y-138197591D01*
X113766600Y-138328400D01*
X112040766Y-138328400D01*
X111861600Y-138149234D01*
X111861600Y-137693400D01*
X111992409Y-137693400D01*
X112421845Y-137515521D01*
X112750521Y-137186845D01*
X112928400Y-136757409D01*
X112928400Y-136292591D01*
X112750521Y-135863155D01*
X112421845Y-135534479D01*
X111992409Y-135356600D01*
X111527591Y-135356600D01*
X111098155Y-135534479D01*
X110769479Y-135863155D01*
X110591600Y-136292591D01*
X110591600Y-136632449D01*
X110552852Y-136690439D01*
X110552849Y-136690442D01*
X110431139Y-136872594D01*
X110373971Y-137160000D01*
X110388401Y-137232545D01*
X110388400Y-138149234D01*
X110134479Y-138403155D01*
X109956600Y-138832591D01*
X109956600Y-139297409D01*
X110112838Y-139674600D01*
X108223547Y-139674600D01*
X107340400Y-138791455D01*
X107340400Y-133092155D01*
X107717607Y-133248400D01*
X107986363Y-133248400D01*
X107723670Y-133511093D01*
X107568994Y-133884516D01*
X107568994Y-134288706D01*
X107723670Y-134662129D01*
X108009476Y-134947935D01*
X108382899Y-135102611D01*
X108787089Y-135102611D01*
X109160512Y-134947935D01*
X109361436Y-134747011D01*
X111593347Y-134747011D01*
X111658389Y-134759949D01*
X111723431Y-134747011D01*
X111723432Y-134747011D01*
X111916064Y-134708694D01*
X112134511Y-134562733D01*
X112171359Y-134507587D01*
X113303546Y-133375400D01*
X115428558Y-133375400D01*
X115629482Y-133576324D01*
X116002905Y-133731000D01*
X116407095Y-133731000D01*
X116780518Y-133576324D01*
X117066324Y-133290518D01*
X117221000Y-132917095D01*
X117221000Y-132604457D01*
X117242591Y-132613400D01*
X117707409Y-132613400D01*
X117950024Y-132512905D01*
X121539000Y-132512905D01*
X121539000Y-132917095D01*
X121693676Y-133290518D01*
X121979482Y-133576324D01*
X122352905Y-133731000D01*
X122665533Y-133731000D01*
X122656590Y-133752591D01*
X122656590Y-134217409D01*
X122834469Y-134646845D01*
X123163145Y-134975521D01*
X123592581Y-135153400D01*
X124057399Y-135153400D01*
X124486835Y-134975521D01*
X124740756Y-134721600D01*
X128599891Y-134721600D01*
X130237850Y-136359560D01*
X130278942Y-136421058D01*
X130340439Y-136462149D01*
X130340441Y-136462151D01*
X130434503Y-136525001D01*
X130522593Y-136583861D01*
X130737456Y-136626600D01*
X130737459Y-136626600D01*
X130810000Y-136641029D01*
X130882540Y-136626600D01*
X142594234Y-136626600D01*
X142848155Y-136880521D01*
X143277591Y-137058400D01*
X143742409Y-137058400D01*
X144171845Y-136880521D01*
X144500521Y-136551845D01*
X144678400Y-136122409D01*
X144678400Y-135657591D01*
X144500521Y-135228155D01*
X144171845Y-134899479D01*
X143742409Y-134721600D01*
X143277591Y-134721600D01*
X142848155Y-134899479D01*
X142594234Y-135153400D01*
X134863770Y-135153400D01*
X135001000Y-134822095D01*
X135001000Y-134417905D01*
X134846324Y-134044482D01*
X134560518Y-133758676D01*
X134187095Y-133604000D01*
X133782905Y-133604000D01*
X133409482Y-133758676D01*
X133208558Y-133959600D01*
X131083546Y-133959600D01*
X129417970Y-132294025D01*
X129381122Y-132238878D01*
X129295399Y-132181600D01*
X131036275Y-132181600D01*
X130911600Y-132482591D01*
X130911600Y-132947409D01*
X131089479Y-133376845D01*
X131418155Y-133705521D01*
X131847591Y-133883400D01*
X132312409Y-133883400D01*
X132741845Y-133705521D01*
X133070521Y-133376845D01*
X133248400Y-132947409D01*
X133248400Y-132482591D01*
X133123725Y-132181600D01*
X140262460Y-132181600D01*
X140335000Y-132196029D01*
X140407540Y-132181600D01*
X140407544Y-132181600D01*
X140622407Y-132138861D01*
X140866058Y-131976058D01*
X140907151Y-131914558D01*
X141609118Y-131212591D01*
X155676600Y-131212591D01*
X155676600Y-131677409D01*
X155854479Y-132106845D01*
X156108400Y-132360766D01*
X156108401Y-133277455D01*
X156093971Y-133350000D01*
X156151139Y-133637406D01*
X156272849Y-133819558D01*
X156272852Y-133819561D01*
X156313943Y-133881058D01*
X156375440Y-133922149D01*
X157378382Y-134925092D01*
X157378382Y-134974234D01*
X157124461Y-135228155D01*
X156946582Y-135657591D01*
X156946582Y-136122409D01*
X157124461Y-136551845D01*
X157453137Y-136880521D01*
X157882573Y-137058400D01*
X158347391Y-137058400D01*
X158776827Y-136880521D01*
X159105503Y-136551845D01*
X159283382Y-136122409D01*
X159283382Y-135657591D01*
X159105503Y-135228155D01*
X158851582Y-134974234D01*
X158851582Y-134692522D01*
X158866011Y-134619982D01*
X158851582Y-134547439D01*
X158851582Y-134547438D01*
X158808843Y-134332575D01*
X158768502Y-134272200D01*
X158687133Y-134150423D01*
X158687131Y-134150421D01*
X158646040Y-134088924D01*
X158584543Y-134047833D01*
X157581600Y-133044891D01*
X157581600Y-132360766D01*
X157835521Y-132106845D01*
X158013400Y-131677409D01*
X158013400Y-131212591D01*
X157835521Y-130783155D01*
X157506845Y-130454479D01*
X157077409Y-130276600D01*
X156612591Y-130276600D01*
X156183155Y-130454479D01*
X155854479Y-130783155D01*
X155676600Y-131212591D01*
X141609118Y-131212591D01*
X142748309Y-130073400D01*
X143107409Y-130073400D01*
X143536845Y-129895521D01*
X143865521Y-129566845D01*
X144043400Y-129137409D01*
X144043400Y-128672591D01*
X143865521Y-128243155D01*
X143536845Y-127914479D01*
X143107409Y-127736600D01*
X142642591Y-127736600D01*
X142213155Y-127914479D01*
X141884479Y-128243155D01*
X141706600Y-128672591D01*
X141706600Y-129031691D01*
X140029891Y-130708400D01*
X132152544Y-130708400D01*
X132080000Y-130693970D01*
X132007456Y-130708400D01*
X124740766Y-130708400D01*
X124486845Y-130454479D01*
X124057409Y-130276600D01*
X123592591Y-130276600D01*
X123163155Y-130454479D01*
X122834479Y-130783155D01*
X122656600Y-131212591D01*
X122656600Y-131677409D01*
X122665543Y-131699000D01*
X122352905Y-131699000D01*
X121979482Y-131853676D01*
X121693676Y-132139482D01*
X121539000Y-132512905D01*
X117950024Y-132512905D01*
X118136845Y-132435521D01*
X118465521Y-132106845D01*
X118643400Y-131677409D01*
X118643400Y-131212591D01*
X118465521Y-130783155D01*
X118136845Y-130454479D01*
X117707409Y-130276600D01*
X117242591Y-130276600D01*
X116813155Y-130454479D01*
X116559234Y-130708400D01*
X112467540Y-130708400D01*
X112395000Y-130693971D01*
X112322459Y-130708400D01*
X112322456Y-130708400D01*
X112137707Y-130745149D01*
X112107593Y-130751139D01*
X111925441Y-130872849D01*
X111925439Y-130872851D01*
X111863942Y-130913942D01*
X111822850Y-130975440D01*
X111454891Y-131343400D01*
X108865782Y-131343400D01*
X108611861Y-131089479D01*
X108182425Y-130911600D01*
X107717607Y-130911600D01*
X107340400Y-131067845D01*
X107340400Y-127700038D01*
X107353337Y-127634999D01*
X107340400Y-127569961D01*
X107340400Y-127569957D01*
X107302083Y-127377325D01*
X107156122Y-127158878D01*
X107100981Y-127122034D01*
X106111538Y-126132591D01*
X113131600Y-126132591D01*
X113131600Y-126597409D01*
X113298359Y-127000000D01*
X113131600Y-127402591D01*
X113131600Y-127867409D01*
X113309479Y-128296845D01*
X113638155Y-128625521D01*
X114067591Y-128803400D01*
X114532409Y-128803400D01*
X114961845Y-128625521D01*
X115290521Y-128296845D01*
X115468400Y-127867409D01*
X115468400Y-127402591D01*
X115301641Y-127000000D01*
X115468400Y-126597409D01*
X115468400Y-126132591D01*
X115290521Y-125703155D01*
X114961845Y-125374479D01*
X114532409Y-125196600D01*
X114067591Y-125196600D01*
X113638155Y-125374479D01*
X113309479Y-125703155D01*
X113131600Y-126132591D01*
X106111538Y-126132591D01*
X105047345Y-125068400D01*
X166243000Y-125068400D01*
X166243000Y-129540000D01*
X166243000Y-129540000D01*
G37*
X166243000Y-129540000D02*
X166252667Y-129588601D01*
X166280197Y-129629803D01*
X166321399Y-129657333D01*
X166370000Y-129667000D01*
X175133000Y-129667000D01*
X175133000Y-132588000D01*
X173990000Y-132588000D01*
X173941399Y-132597667D01*
X173900197Y-132625197D01*
X173872667Y-132666399D01*
X173863000Y-132715000D01*
X173863000Y-142901600D01*
X90143400Y-142901600D01*
X90143400Y-141029920D01*
X99721600Y-141029920D01*
X99731993Y-141082170D01*
X99807433Y-141510013D01*
X99807433Y-141510015D01*
X99837304Y-141592083D01*
X99879700Y-141708566D01*
X99879701Y-141708567D01*
X100100233Y-142090538D01*
X100100234Y-142090540D01*
X100236052Y-142252401D01*
X100573928Y-142535913D01*
X100756915Y-142641561D01*
X101171382Y-142792415D01*
X101379467Y-142829106D01*
X101820534Y-142829106D01*
X102028618Y-142792415D01*
X102443086Y-142641561D01*
X102626073Y-142535913D01*
X102626075Y-142535910D01*
X102963948Y-142252401D01*
X103099766Y-142090540D01*
X103099767Y-142090538D01*
X103320299Y-141708567D01*
X103392567Y-141510015D01*
X103392567Y-141510013D01*
X103468005Y-141082179D01*
X103478400Y-141029921D01*
X103478400Y-128845079D01*
X103468005Y-128792821D01*
X103392567Y-128364987D01*
X103392567Y-128364985D01*
X103320299Y-128166433D01*
X103099765Y-127784459D01*
X103079192Y-127759941D01*
X102963948Y-127622599D01*
X102626075Y-127339090D01*
X102626073Y-127339087D01*
X102443086Y-127233439D01*
X102028618Y-127082585D01*
X101820534Y-127045894D01*
X101379467Y-127045894D01*
X101171382Y-127082585D01*
X100756915Y-127233439D01*
X100573928Y-127339087D01*
X100236052Y-127622599D01*
X100120808Y-127759941D01*
X100100235Y-127784459D01*
X99879701Y-128166432D01*
X99879700Y-128166434D01*
X99858019Y-128226003D01*
X99807433Y-128364985D01*
X99807433Y-128364987D01*
X99731987Y-128792866D01*
X99721601Y-128845079D01*
X99721600Y-141029920D01*
X90143400Y-141029920D01*
X90143400Y-137515622D01*
X90572591Y-137693400D01*
X91037409Y-137693400D01*
X91466845Y-137515521D01*
X91795521Y-137186845D01*
X91973400Y-136757409D01*
X91973400Y-136292591D01*
X91795521Y-135863155D01*
X91541600Y-135609234D01*
X91541600Y-134358750D01*
X92311600Y-134358750D01*
X92311600Y-134856100D01*
X92392805Y-135052147D01*
X92542853Y-135202195D01*
X92738900Y-135283400D01*
X93186250Y-135283400D01*
X93319600Y-135150050D01*
X93319600Y-134225400D01*
X93370400Y-134225400D01*
X93370400Y-135150050D01*
X93503750Y-135283400D01*
X93951100Y-135283400D01*
X94147147Y-135202195D01*
X94297195Y-135052147D01*
X94378400Y-134856100D01*
X94378400Y-134358750D01*
X94245050Y-134225400D01*
X93370400Y-134225400D01*
X93319600Y-134225400D01*
X92444950Y-134225400D01*
X92311600Y-134358750D01*
X91541600Y-134358750D01*
X91541600Y-131115109D01*
X91745110Y-130911600D01*
X92608401Y-130911600D01*
X92608400Y-131466577D01*
X92460441Y-131565441D01*
X92342549Y-131741878D01*
X92301151Y-131950000D01*
X92301151Y-133050000D01*
X92342549Y-133258122D01*
X92398620Y-133342038D01*
X92392805Y-133347853D01*
X92311600Y-133543900D01*
X92311600Y-134041250D01*
X92444950Y-134174600D01*
X93319600Y-134174600D01*
X93319600Y-134154600D01*
X93370400Y-134154600D01*
X93370400Y-134174600D01*
X94245050Y-134174600D01*
X94378400Y-134041250D01*
X94378400Y-133543900D01*
X94297195Y-133347853D01*
X94291380Y-133342038D01*
X94347451Y-133258122D01*
X94388849Y-133050000D01*
X94388849Y-131950000D01*
X94347451Y-131741878D01*
X94229559Y-131565441D01*
X94081600Y-131466577D01*
X94081600Y-130860800D01*
X94653795Y-130860800D01*
X94650441Y-130863041D01*
X94532549Y-131039478D01*
X94491151Y-131247600D01*
X94491151Y-132947600D01*
X94532549Y-133155722D01*
X94560947Y-133198223D01*
X94501600Y-133341500D01*
X94501600Y-134138850D01*
X94634950Y-134272200D01*
X95141151Y-134272200D01*
X95141151Y-134323000D01*
X94634950Y-134323000D01*
X94501600Y-134456350D01*
X94501600Y-135253700D01*
X94582805Y-135449747D01*
X94732853Y-135599795D01*
X94928900Y-135681000D01*
X95076250Y-135681000D01*
X95209598Y-135547652D01*
X95209598Y-135681000D01*
X95224600Y-135681000D01*
X95224600Y-135824957D01*
X95211662Y-135890000D01*
X95224600Y-135955042D01*
X95262917Y-136147674D01*
X95408878Y-136366121D01*
X95464022Y-136402967D01*
X96494601Y-137433547D01*
X96494601Y-137653557D01*
X96293676Y-137854482D01*
X96139000Y-138227905D01*
X96139000Y-138632095D01*
X96293676Y-139005518D01*
X96579482Y-139291324D01*
X96952905Y-139446000D01*
X97357095Y-139446000D01*
X97730518Y-139291324D01*
X98016324Y-139005518D01*
X98171000Y-138632095D01*
X98171000Y-138227905D01*
X98016324Y-137854482D01*
X97815400Y-137653558D01*
X97815400Y-137225041D01*
X97828338Y-137159999D01*
X97807662Y-137056058D01*
X97777814Y-136906000D01*
X97992095Y-136906000D01*
X98365518Y-136751324D01*
X98651324Y-136465518D01*
X98806000Y-136092095D01*
X98806000Y-135687905D01*
X98651324Y-135314482D01*
X98365518Y-135028676D01*
X97992095Y-134874000D01*
X97587905Y-134874000D01*
X97278849Y-135002014D01*
X97278849Y-133447600D01*
X97237451Y-133239478D01*
X97209469Y-133197600D01*
X97237451Y-133155722D01*
X97278849Y-132947600D01*
X97278849Y-131247600D01*
X97237451Y-131039478D01*
X97232260Y-131031709D01*
X97707970Y-130556000D01*
X97992119Y-130556000D01*
X98365542Y-130401324D01*
X98651348Y-130115518D01*
X98806024Y-129742095D01*
X98806024Y-129337905D01*
X98651348Y-128964482D01*
X98365542Y-128678676D01*
X97992119Y-128524000D01*
X97587929Y-128524000D01*
X97214506Y-128678676D01*
X96928700Y-128964482D01*
X96774024Y-129337905D01*
X96774024Y-129622054D01*
X96204873Y-130191206D01*
X95751498Y-129737831D01*
X95713234Y-129680566D01*
X95486386Y-129528991D01*
X95286343Y-129489200D01*
X95286342Y-129489200D01*
X95218800Y-129475765D01*
X95151258Y-129489200D01*
X94081600Y-129489200D01*
X94081600Y-127878770D01*
X94412905Y-128016000D01*
X94817095Y-128016000D01*
X95190518Y-127861324D01*
X95476324Y-127575518D01*
X95631000Y-127202095D01*
X95631000Y-126917945D01*
X96793546Y-125755400D01*
X97597758Y-125755400D01*
X97563676Y-125789482D01*
X97409000Y-126162905D01*
X97409000Y-126567095D01*
X97563676Y-126940518D01*
X97849482Y-127226324D01*
X98222905Y-127381000D01*
X98627095Y-127381000D01*
X99000518Y-127226324D01*
X99286324Y-126940518D01*
X99441000Y-126567095D01*
X99441000Y-126390400D01*
X103231455Y-126390400D01*
X105384600Y-128543547D01*
X105384601Y-139634953D01*
X105371662Y-139700000D01*
X105395937Y-139822035D01*
X105422918Y-139957675D01*
X105568879Y-140176122D01*
X105624022Y-140212967D01*
X106802034Y-141390981D01*
X106838878Y-141446122D01*
X107057325Y-141592083D01*
X107249957Y-141630400D01*
X107314999Y-141643338D01*
X107380041Y-141630400D01*
X118044958Y-141630400D01*
X118110000Y-141643338D01*
X118175042Y-141630400D01*
X118175043Y-141630400D01*
X118367675Y-141592083D01*
X118586122Y-141446122D01*
X118622970Y-141390975D01*
X120288546Y-139725400D01*
X120508558Y-139725400D01*
X120709482Y-139926324D01*
X121082905Y-140081000D01*
X121487095Y-140081000D01*
X121860518Y-139926324D01*
X122061442Y-139725400D01*
X122281455Y-139725400D01*
X124582034Y-142025981D01*
X124618878Y-142081122D01*
X124837325Y-142227083D01*
X125029957Y-142265400D01*
X125029961Y-142265400D01*
X125094999Y-142278337D01*
X125160038Y-142265400D01*
X134554958Y-142265400D01*
X134620000Y-142278338D01*
X134685042Y-142265400D01*
X134685043Y-142265400D01*
X134877675Y-142227083D01*
X135096122Y-142081122D01*
X135132969Y-142025976D01*
X135528546Y-141630400D01*
X161859958Y-141630400D01*
X161925000Y-141643338D01*
X161990042Y-141630400D01*
X161990043Y-141630400D01*
X162182675Y-141592083D01*
X162401122Y-141446122D01*
X162437969Y-141390976D01*
X164382947Y-139446000D01*
X164667095Y-139446000D01*
X165040518Y-139291324D01*
X165326324Y-139005518D01*
X165481000Y-138632095D01*
X165481000Y-138227905D01*
X165326324Y-137854482D01*
X165040518Y-137568676D01*
X164667095Y-137414000D01*
X164262905Y-137414000D01*
X163889482Y-137568676D01*
X163603676Y-137854482D01*
X163449000Y-138227905D01*
X163449000Y-138512053D01*
X161651455Y-140309600D01*
X160979345Y-140309600D01*
X161842946Y-139446000D01*
X162127095Y-139446000D01*
X162500518Y-139291324D01*
X162786324Y-139005518D01*
X162941000Y-138632095D01*
X162941000Y-138227905D01*
X162786324Y-137854482D01*
X162500518Y-137568676D01*
X162127095Y-137414000D01*
X161722905Y-137414000D01*
X161349482Y-137568676D01*
X161063676Y-137854482D01*
X160909000Y-138227905D01*
X160909000Y-138512054D01*
X159746455Y-139674600D01*
X159074346Y-139674600D01*
X159302946Y-139446000D01*
X159587095Y-139446000D01*
X159960518Y-139291324D01*
X160246324Y-139005518D01*
X160401000Y-138632095D01*
X160401000Y-138227905D01*
X160246324Y-137854482D01*
X159960518Y-137568676D01*
X159587095Y-137414000D01*
X159182905Y-137414000D01*
X158809482Y-137568676D01*
X158523676Y-137854482D01*
X158369000Y-138227905D01*
X158369000Y-138512054D01*
X157841455Y-139039600D01*
X134812242Y-139039600D01*
X134846324Y-139005518D01*
X135001000Y-138632095D01*
X135001000Y-138227905D01*
X134846324Y-137854482D01*
X134560518Y-137568676D01*
X134187095Y-137414000D01*
X133782905Y-137414000D01*
X133409482Y-137568676D01*
X133123676Y-137854482D01*
X132969000Y-138227905D01*
X132969000Y-138632095D01*
X133123676Y-139005518D01*
X133324600Y-139206442D01*
X133324600Y-139426454D01*
X133076455Y-139674600D01*
X126638546Y-139674600D01*
X123067970Y-136104025D01*
X123031122Y-136048878D01*
X122812675Y-135902917D01*
X122620043Y-135864600D01*
X122620042Y-135864600D01*
X122555000Y-135851662D01*
X122489958Y-135864600D01*
X119445041Y-135864600D01*
X119379999Y-135851662D01*
X119314957Y-135864600D01*
X119122325Y-135902917D01*
X118903878Y-136048878D01*
X118867034Y-136104019D01*
X118192055Y-136779000D01*
X117907905Y-136779000D01*
X117534482Y-136933676D01*
X117248676Y-137219482D01*
X117094000Y-137592905D01*
X117094000Y-137997095D01*
X117248676Y-138370518D01*
X117534482Y-138656324D01*
X117907905Y-138811000D01*
X118065054Y-138811000D01*
X117201455Y-139674600D01*
X114713512Y-139674600D01*
X114827553Y-139598400D01*
X115167409Y-139598400D01*
X115596845Y-139420521D01*
X115925521Y-139091845D01*
X116103400Y-138662409D01*
X116103400Y-138197591D01*
X115925521Y-137768155D01*
X115596845Y-137439479D01*
X115167409Y-137261600D01*
X114702591Y-137261600D01*
X114273155Y-137439479D01*
X113944479Y-137768155D01*
X113766600Y-138197591D01*
X113766600Y-138328400D01*
X112040766Y-138328400D01*
X111861600Y-138149234D01*
X111861600Y-137693400D01*
X111992409Y-137693400D01*
X112421845Y-137515521D01*
X112750521Y-137186845D01*
X112928400Y-136757409D01*
X112928400Y-136292591D01*
X112750521Y-135863155D01*
X112421845Y-135534479D01*
X111992409Y-135356600D01*
X111527591Y-135356600D01*
X111098155Y-135534479D01*
X110769479Y-135863155D01*
X110591600Y-136292591D01*
X110591600Y-136632449D01*
X110552852Y-136690439D01*
X110552849Y-136690442D01*
X110431139Y-136872594D01*
X110373971Y-137160000D01*
X110388401Y-137232545D01*
X110388400Y-138149234D01*
X110134479Y-138403155D01*
X109956600Y-138832591D01*
X109956600Y-139297409D01*
X110112838Y-139674600D01*
X108223547Y-139674600D01*
X107340400Y-138791455D01*
X107340400Y-133092155D01*
X107717607Y-133248400D01*
X107986363Y-133248400D01*
X107723670Y-133511093D01*
X107568994Y-133884516D01*
X107568994Y-134288706D01*
X107723670Y-134662129D01*
X108009476Y-134947935D01*
X108382899Y-135102611D01*
X108787089Y-135102611D01*
X109160512Y-134947935D01*
X109361436Y-134747011D01*
X111593347Y-134747011D01*
X111658389Y-134759949D01*
X111723431Y-134747011D01*
X111723432Y-134747011D01*
X111916064Y-134708694D01*
X112134511Y-134562733D01*
X112171359Y-134507587D01*
X113303546Y-133375400D01*
X115428558Y-133375400D01*
X115629482Y-133576324D01*
X116002905Y-133731000D01*
X116407095Y-133731000D01*
X116780518Y-133576324D01*
X117066324Y-133290518D01*
X117221000Y-132917095D01*
X117221000Y-132604457D01*
X117242591Y-132613400D01*
X117707409Y-132613400D01*
X117950024Y-132512905D01*
X121539000Y-132512905D01*
X121539000Y-132917095D01*
X121693676Y-133290518D01*
X121979482Y-133576324D01*
X122352905Y-133731000D01*
X122665533Y-133731000D01*
X122656590Y-133752591D01*
X122656590Y-134217409D01*
X122834469Y-134646845D01*
X123163145Y-134975521D01*
X123592581Y-135153400D01*
X124057399Y-135153400D01*
X124486835Y-134975521D01*
X124740756Y-134721600D01*
X128599891Y-134721600D01*
X130237850Y-136359560D01*
X130278942Y-136421058D01*
X130340439Y-136462149D01*
X130340441Y-136462151D01*
X130434503Y-136525001D01*
X130522593Y-136583861D01*
X130737456Y-136626600D01*
X130737459Y-136626600D01*
X130810000Y-136641029D01*
X130882540Y-136626600D01*
X142594234Y-136626600D01*
X142848155Y-136880521D01*
X143277591Y-137058400D01*
X143742409Y-137058400D01*
X144171845Y-136880521D01*
X144500521Y-136551845D01*
X144678400Y-136122409D01*
X144678400Y-135657591D01*
X144500521Y-135228155D01*
X144171845Y-134899479D01*
X143742409Y-134721600D01*
X143277591Y-134721600D01*
X142848155Y-134899479D01*
X142594234Y-135153400D01*
X134863770Y-135153400D01*
X135001000Y-134822095D01*
X135001000Y-134417905D01*
X134846324Y-134044482D01*
X134560518Y-133758676D01*
X134187095Y-133604000D01*
X133782905Y-133604000D01*
X133409482Y-133758676D01*
X133208558Y-133959600D01*
X131083546Y-133959600D01*
X129417970Y-132294025D01*
X129381122Y-132238878D01*
X129295399Y-132181600D01*
X131036275Y-132181600D01*
X130911600Y-132482591D01*
X130911600Y-132947409D01*
X131089479Y-133376845D01*
X131418155Y-133705521D01*
X131847591Y-133883400D01*
X132312409Y-133883400D01*
X132741845Y-133705521D01*
X133070521Y-133376845D01*
X133248400Y-132947409D01*
X133248400Y-132482591D01*
X133123725Y-132181600D01*
X140262460Y-132181600D01*
X140335000Y-132196029D01*
X140407540Y-132181600D01*
X140407544Y-132181600D01*
X140622407Y-132138861D01*
X140866058Y-131976058D01*
X140907151Y-131914558D01*
X141609118Y-131212591D01*
X155676600Y-131212591D01*
X155676600Y-131677409D01*
X155854479Y-132106845D01*
X156108400Y-132360766D01*
X156108401Y-133277455D01*
X156093971Y-133350000D01*
X156151139Y-133637406D01*
X156272849Y-133819558D01*
X156272852Y-133819561D01*
X156313943Y-133881058D01*
X156375440Y-133922149D01*
X157378382Y-134925092D01*
X157378382Y-134974234D01*
X157124461Y-135228155D01*
X156946582Y-135657591D01*
X156946582Y-136122409D01*
X157124461Y-136551845D01*
X157453137Y-136880521D01*
X157882573Y-137058400D01*
X158347391Y-137058400D01*
X158776827Y-136880521D01*
X159105503Y-136551845D01*
X159283382Y-136122409D01*
X159283382Y-135657591D01*
X159105503Y-135228155D01*
X158851582Y-134974234D01*
X158851582Y-134692522D01*
X158866011Y-134619982D01*
X158851582Y-134547439D01*
X158851582Y-134547438D01*
X158808843Y-134332575D01*
X158768502Y-134272200D01*
X158687133Y-134150423D01*
X158687131Y-134150421D01*
X158646040Y-134088924D01*
X158584543Y-134047833D01*
X157581600Y-133044891D01*
X157581600Y-132360766D01*
X157835521Y-132106845D01*
X158013400Y-131677409D01*
X158013400Y-131212591D01*
X157835521Y-130783155D01*
X157506845Y-130454479D01*
X157077409Y-130276600D01*
X156612591Y-130276600D01*
X156183155Y-130454479D01*
X155854479Y-130783155D01*
X155676600Y-131212591D01*
X141609118Y-131212591D01*
X142748309Y-130073400D01*
X143107409Y-130073400D01*
X143536845Y-129895521D01*
X143865521Y-129566845D01*
X144043400Y-129137409D01*
X144043400Y-128672591D01*
X143865521Y-128243155D01*
X143536845Y-127914479D01*
X143107409Y-127736600D01*
X142642591Y-127736600D01*
X142213155Y-127914479D01*
X141884479Y-128243155D01*
X141706600Y-128672591D01*
X141706600Y-129031691D01*
X140029891Y-130708400D01*
X132152544Y-130708400D01*
X132080000Y-130693970D01*
X132007456Y-130708400D01*
X124740766Y-130708400D01*
X124486845Y-130454479D01*
X124057409Y-130276600D01*
X123592591Y-130276600D01*
X123163155Y-130454479D01*
X122834479Y-130783155D01*
X122656600Y-131212591D01*
X122656600Y-131677409D01*
X122665543Y-131699000D01*
X122352905Y-131699000D01*
X121979482Y-131853676D01*
X121693676Y-132139482D01*
X121539000Y-132512905D01*
X117950024Y-132512905D01*
X118136845Y-132435521D01*
X118465521Y-132106845D01*
X118643400Y-131677409D01*
X118643400Y-131212591D01*
X118465521Y-130783155D01*
X118136845Y-130454479D01*
X117707409Y-130276600D01*
X117242591Y-130276600D01*
X116813155Y-130454479D01*
X116559234Y-130708400D01*
X112467540Y-130708400D01*
X112395000Y-130693971D01*
X112322459Y-130708400D01*
X112322456Y-130708400D01*
X112137707Y-130745149D01*
X112107593Y-130751139D01*
X111925441Y-130872849D01*
X111925439Y-130872851D01*
X111863942Y-130913942D01*
X111822850Y-130975440D01*
X111454891Y-131343400D01*
X108865782Y-131343400D01*
X108611861Y-131089479D01*
X108182425Y-130911600D01*
X107717607Y-130911600D01*
X107340400Y-131067845D01*
X107340400Y-127700038D01*
X107353337Y-127634999D01*
X107340400Y-127569961D01*
X107340400Y-127569957D01*
X107302083Y-127377325D01*
X107156122Y-127158878D01*
X107100981Y-127122034D01*
X106111538Y-126132591D01*
X113131600Y-126132591D01*
X113131600Y-126597409D01*
X113298359Y-127000000D01*
X113131600Y-127402591D01*
X113131600Y-127867409D01*
X113309479Y-128296845D01*
X113638155Y-128625521D01*
X114067591Y-128803400D01*
X114532409Y-128803400D01*
X114961845Y-128625521D01*
X115290521Y-128296845D01*
X115468400Y-127867409D01*
X115468400Y-127402591D01*
X115301641Y-127000000D01*
X115468400Y-126597409D01*
X115468400Y-126132591D01*
X115290521Y-125703155D01*
X114961845Y-125374479D01*
X114532409Y-125196600D01*
X114067591Y-125196600D01*
X113638155Y-125374479D01*
X113309479Y-125703155D01*
X113131600Y-126132591D01*
X106111538Y-126132591D01*
X105047345Y-125068400D01*
X166243000Y-125068400D01*
X166243000Y-129540000D01*
D14*
G04 #@! TO.N,/SW_12V*
G36*
X187756800Y-131876800D02*
X178638200Y-131876800D01*
X178638200Y-125298200D01*
X187756800Y-125298200D01*
X187756800Y-131876800D01*
X187756800Y-131876800D01*
G37*
X187756800Y-131876800D02*
X178638200Y-131876800D01*
X178638200Y-125298200D01*
X187756800Y-125298200D01*
X187756800Y-131876800D01*
G04 #@! TO.N,+5V*
G36*
X187756800Y-138861800D02*
X175463200Y-138861800D01*
X175463200Y-134823200D01*
X187756800Y-134823200D01*
X187756800Y-138861800D01*
X187756800Y-138861800D01*
G37*
X187756800Y-138861800D02*
X175463200Y-138861800D01*
X175463200Y-134823200D01*
X187756800Y-134823200D01*
X187756800Y-138861800D01*
G04 #@! TD*
D17*
X131445000Y-137160000D03*
X127635000Y-137160000D03*
X104140000Y-137160000D03*
X113665000Y-136525000D03*
X116840000Y-136525000D03*
X116840000Y-128270000D03*
X118745000Y-128270000D03*
X120650000Y-128270000D03*
X120650000Y-126365000D03*
X109220000Y-128905000D03*
X111125000Y-128905000D03*
X113030000Y-128905000D03*
X104775000Y-142240000D03*
X108585000Y-139065000D03*
X108585000Y-137160000D03*
X152400000Y-142240000D03*
X150495000Y-142240000D03*
X148590000Y-142240000D03*
X148590000Y-138430000D03*
X150495000Y-138430000D03*
X152400000Y-138430000D03*
X154305000Y-138430000D03*
X142875000Y-126365000D03*
X147955000Y-129540000D03*
X151765000Y-129540000D03*
X149860000Y-129540000D03*
X170815000Y-130810000D03*
X159385000Y-129540000D03*
X159385000Y-125730000D03*
X159385000Y-127635000D03*
X124460000Y-136525000D03*
X127635000Y-139065000D03*
X131445000Y-139065000D03*
X172720000Y-136525000D03*
X172720000Y-134620000D03*
X172720000Y-132715000D03*
X174625000Y-130810000D03*
X172720000Y-130810000D03*
X139700000Y-137795000D03*
X138430000Y-127000000D03*
X135890000Y-127000000D03*
X132334000Y-126492000D03*
X132334000Y-128524000D03*
X130302000Y-128524000D03*
X123825000Y-128270000D03*
X125730000Y-128270000D03*
X125730000Y-126365000D03*
X164465000Y-138430000D03*
X98425000Y-126365000D03*
X121285000Y-139065000D03*
X94615000Y-127000000D03*
X161925000Y-138430000D03*
X121285000Y-137795000D03*
X143510000Y-135890000D03*
X123824990Y-133985000D03*
X111760000Y-136525000D03*
X180340000Y-138430000D03*
X180340000Y-136525000D03*
X158114982Y-135890000D03*
X156845000Y-131445000D03*
X178435000Y-138430000D03*
X178435000Y-136525000D03*
X114935000Y-138430000D03*
X114300000Y-127635000D03*
X114300000Y-126365000D03*
X111125000Y-139065000D03*
X179705000Y-128905000D03*
X179705000Y-130810000D03*
X181610000Y-127635000D03*
X186690000Y-127635000D03*
X184150000Y-127635000D03*
X133985000Y-138430000D03*
X118110000Y-137795000D03*
X159385000Y-138430000D03*
X107950016Y-132080000D03*
X90805000Y-136525000D03*
X132080000Y-132715000D03*
X93345000Y-125730000D03*
X117475000Y-131445000D03*
X123825000Y-131445000D03*
X142875000Y-128905000D03*
X97790024Y-129540000D03*
X97790000Y-135890000D03*
X97155000Y-138430000D03*
X108584994Y-134086611D03*
X116205000Y-132715000D03*
X122555000Y-132715000D03*
X133985000Y-134620000D03*
M02*
