G04 #@! TF.FileFunction,Copper,L2,Inr,Plane*
%FSLAX46Y46*%
G04 Gerber Fmt 4.6, Leading zero omitted, Abs format (unit mm)*
G04 Created by KiCad (PCBNEW (2016-05-03 BZR 6266)-product) date Sat Jul 16 12:20:10 2016*
%MOMM*%
%LPD*%
G01*
G04 APERTURE LIST*
%ADD10C,0.350000*%
%ADD11C,0.150000*%
%ADD12C,1.270000*%
%ADD13C,0.965200*%
%ADD14C,0.254000*%
%ADD15C,0.350000*%
G04 APERTURE END LIST*
D10*
D11*
X102870000Y-143510000D02*
X102870000Y-124460000D01*
X188595000Y-124460000D02*
X188595000Y-143510000D01*
X102870000Y-124460000D02*
X188595000Y-124460000D01*
X188595000Y-143510000D02*
X102870000Y-143510000D01*
D12*
X152400000Y-137160000D03*
X150495000Y-137160000D03*
X150495000Y-139065000D03*
X152400000Y-139065000D03*
X127635000Y-138430000D03*
X174625000Y-129540000D03*
X172720000Y-129540000D03*
X170815000Y-129540000D03*
X168910000Y-132715000D03*
X168910000Y-130810000D03*
X138430000Y-127000000D03*
X135890000Y-127000000D03*
X145415000Y-137160000D03*
X160019984Y-127635000D03*
X158115000Y-127635000D03*
X158115000Y-125730000D03*
X160020000Y-125730000D03*
X131445000Y-136525000D03*
X131445000Y-138430000D03*
X127635000Y-136525000D03*
X132334000Y-126492000D03*
X132334000Y-128524000D03*
X130302000Y-128524000D03*
X123825000Y-128270000D03*
X125730000Y-128270000D03*
X116840000Y-128270000D03*
X118745000Y-128270000D03*
X120650000Y-128270000D03*
X125730000Y-126365000D03*
X120650000Y-126365000D03*
X107315000Y-128270000D03*
X111125000Y-128270000D03*
X109220000Y-128270000D03*
X109219992Y-126365000D03*
X118745000Y-136525000D03*
X116840000Y-136525000D03*
X108585000Y-136525000D03*
X108585000Y-138430000D03*
D13*
X164465000Y-137795000D03*
X121285000Y-139065000D03*
X161925000Y-137795000D03*
X121285000Y-137795000D03*
X159385000Y-137795000D03*
X118110000Y-138430000D03*
D12*
X168910000Y-137160000D03*
X170815000Y-137160000D03*
X170815000Y-139065000D03*
X168910000Y-139065000D03*
X149860000Y-126365000D03*
X175895000Y-138430000D03*
X175895000Y-134620000D03*
X175895000Y-136525000D03*
X183515000Y-138430000D03*
X183515000Y-134620000D03*
X183515000Y-136525000D03*
X114300000Y-127635000D03*
X114300000Y-126365000D03*
X111125000Y-139065000D03*
X140335000Y-130175000D03*
X140335000Y-132080000D03*
X138430000Y-132080000D03*
X172720000Y-127634984D03*
X172720000Y-125730000D03*
X170815000Y-125730000D03*
X163830000Y-134721603D03*
X170815000Y-127635000D03*
D13*
X116840000Y-132714984D03*
X147955000Y-128270000D03*
X116840000Y-131445000D03*
X145415000Y-128270000D03*
X116840000Y-130175000D03*
X142875000Y-128270000D03*
X156845000Y-137795000D03*
X152400000Y-127635000D03*
X163830000Y-133350000D03*
D12*
X175895000Y-132715000D03*
X173990000Y-132715000D03*
X183515000Y-132080000D03*
X183515000Y-130175000D03*
X183515000Y-128270000D03*
X183515000Y-126365000D03*
D14*
G36*
X169748385Y-125516869D02*
X169748015Y-125941269D01*
X169910084Y-126333504D01*
X170209917Y-126633862D01*
X170326854Y-126682419D01*
X170211496Y-126730084D01*
X169911138Y-127029917D01*
X169748385Y-127421869D01*
X169748015Y-127846269D01*
X169910084Y-128238504D01*
X170209917Y-128538862D01*
X170601869Y-128701615D01*
X171026269Y-128701985D01*
X171418504Y-128539916D01*
X171718862Y-128240083D01*
X171767422Y-128123138D01*
X171815084Y-128238488D01*
X172114917Y-128538846D01*
X172506869Y-128701599D01*
X172931269Y-128701969D01*
X173323504Y-128539900D01*
X173623862Y-128240067D01*
X173786615Y-127848115D01*
X173786985Y-127423715D01*
X173624916Y-127031480D01*
X173325083Y-126731122D01*
X173208165Y-126682573D01*
X173323504Y-126634916D01*
X173382253Y-126576269D01*
X182448015Y-126576269D01*
X182610084Y-126968504D01*
X182909917Y-127268862D01*
X183026854Y-127317419D01*
X182911496Y-127365084D01*
X182611138Y-127664917D01*
X182448385Y-128056869D01*
X182448015Y-128481269D01*
X182610084Y-128873504D01*
X182909917Y-129173862D01*
X183026854Y-129222419D01*
X182911496Y-129270084D01*
X182611138Y-129569917D01*
X182448385Y-129961869D01*
X182448015Y-130386269D01*
X182610084Y-130778504D01*
X182909917Y-131078862D01*
X183026854Y-131127419D01*
X182911496Y-131175084D01*
X182611138Y-131474917D01*
X182448385Y-131866869D01*
X182448015Y-132291269D01*
X182610084Y-132683504D01*
X182909917Y-132983862D01*
X183301869Y-133146615D01*
X183726269Y-133146985D01*
X184118504Y-132984916D01*
X184418862Y-132685083D01*
X184581615Y-132293131D01*
X184581985Y-131868731D01*
X184419916Y-131476496D01*
X184120083Y-131176138D01*
X184003146Y-131127581D01*
X184118504Y-131079916D01*
X184418862Y-130780083D01*
X184581615Y-130388131D01*
X184581985Y-129963731D01*
X184419916Y-129571496D01*
X184120083Y-129271138D01*
X184003146Y-129222581D01*
X184118504Y-129174916D01*
X184418862Y-128875083D01*
X184581615Y-128483131D01*
X184581985Y-128058731D01*
X184419916Y-127666496D01*
X184120083Y-127366138D01*
X184003146Y-127317581D01*
X184118504Y-127269916D01*
X184418862Y-126970083D01*
X184581615Y-126578131D01*
X184581985Y-126153731D01*
X184419916Y-125761496D01*
X184120083Y-125461138D01*
X183728131Y-125298385D01*
X183303731Y-125298015D01*
X182911496Y-125460084D01*
X182611138Y-125759917D01*
X182448385Y-126151869D01*
X182448015Y-126576269D01*
X173382253Y-126576269D01*
X173623862Y-126335083D01*
X173786615Y-125943131D01*
X173786985Y-125518731D01*
X173664378Y-125222000D01*
X187833000Y-125222000D01*
X187833000Y-142748000D01*
X103632000Y-142748000D01*
X103632000Y-139276269D01*
X110058015Y-139276269D01*
X110220084Y-139668504D01*
X110519917Y-139968862D01*
X110911869Y-140131615D01*
X111336269Y-140131985D01*
X111728504Y-139969916D01*
X112028862Y-139670083D01*
X112191615Y-139278131D01*
X112191985Y-138853731D01*
X112091727Y-138611087D01*
X117195442Y-138611087D01*
X117334358Y-138947289D01*
X117591358Y-139204738D01*
X117927317Y-139344241D01*
X118291087Y-139344558D01*
X118627289Y-139205642D01*
X118884738Y-138948642D01*
X119024241Y-138612683D01*
X119024558Y-138248913D01*
X118911829Y-137976087D01*
X120370442Y-137976087D01*
X120509358Y-138312289D01*
X120626844Y-138429980D01*
X120510262Y-138546358D01*
X120370759Y-138882317D01*
X120370442Y-139246087D01*
X120509358Y-139582289D01*
X120766358Y-139839738D01*
X121102317Y-139979241D01*
X121466087Y-139979558D01*
X121802289Y-139840642D01*
X122059738Y-139583642D01*
X122199241Y-139247683D01*
X122199558Y-138883913D01*
X122060642Y-138547711D01*
X121943156Y-138430020D01*
X122059738Y-138313642D01*
X122199241Y-137977683D01*
X122199242Y-137976087D01*
X155930442Y-137976087D01*
X156069358Y-138312289D01*
X156326358Y-138569738D01*
X156662317Y-138709241D01*
X157026087Y-138709558D01*
X157362289Y-138570642D01*
X157619738Y-138313642D01*
X157759241Y-137977683D01*
X157759242Y-137976087D01*
X158470442Y-137976087D01*
X158609358Y-138312289D01*
X158866358Y-138569738D01*
X159202317Y-138709241D01*
X159566087Y-138709558D01*
X159902289Y-138570642D01*
X160159738Y-138313642D01*
X160299241Y-137977683D01*
X160299242Y-137976087D01*
X161010442Y-137976087D01*
X161149358Y-138312289D01*
X161406358Y-138569738D01*
X161742317Y-138709241D01*
X162106087Y-138709558D01*
X162442289Y-138570642D01*
X162699738Y-138313642D01*
X162839241Y-137977683D01*
X162839242Y-137976087D01*
X163550442Y-137976087D01*
X163689358Y-138312289D01*
X163946358Y-138569738D01*
X164282317Y-138709241D01*
X164646087Y-138709558D01*
X164982289Y-138570642D01*
X165239738Y-138313642D01*
X165379241Y-137977683D01*
X165379558Y-137613913D01*
X165279300Y-137371269D01*
X167843015Y-137371269D01*
X168005084Y-137763504D01*
X168304917Y-138063862D01*
X168421854Y-138112419D01*
X168306496Y-138160084D01*
X168006138Y-138459917D01*
X167843385Y-138851869D01*
X167843015Y-139276269D01*
X168005084Y-139668504D01*
X168304917Y-139968862D01*
X168696869Y-140131615D01*
X169121269Y-140131985D01*
X169513504Y-139969916D01*
X169813862Y-139670083D01*
X169862419Y-139553146D01*
X169910084Y-139668504D01*
X170209917Y-139968862D01*
X170601869Y-140131615D01*
X171026269Y-140131985D01*
X171418504Y-139969916D01*
X171718862Y-139670083D01*
X171881615Y-139278131D01*
X171881985Y-138853731D01*
X171719916Y-138461496D01*
X171420083Y-138161138D01*
X171303146Y-138112581D01*
X171418504Y-138064916D01*
X171718862Y-137765083D01*
X171881615Y-137373131D01*
X171881985Y-136948731D01*
X171719916Y-136556496D01*
X171420083Y-136256138D01*
X171028131Y-136093385D01*
X170603731Y-136093015D01*
X170211496Y-136255084D01*
X169911138Y-136554917D01*
X169862581Y-136671854D01*
X169814916Y-136556496D01*
X169515083Y-136256138D01*
X169123131Y-136093385D01*
X168698731Y-136093015D01*
X168306496Y-136255084D01*
X168006138Y-136554917D01*
X167843385Y-136946869D01*
X167843015Y-137371269D01*
X165279300Y-137371269D01*
X165240642Y-137277711D01*
X164983642Y-137020262D01*
X164647683Y-136880759D01*
X164283913Y-136880442D01*
X163947711Y-137019358D01*
X163690262Y-137276358D01*
X163550759Y-137612317D01*
X163550442Y-137976087D01*
X162839242Y-137976087D01*
X162839558Y-137613913D01*
X162700642Y-137277711D01*
X162443642Y-137020262D01*
X162107683Y-136880759D01*
X161743913Y-136880442D01*
X161407711Y-137019358D01*
X161150262Y-137276358D01*
X161010759Y-137612317D01*
X161010442Y-137976087D01*
X160299242Y-137976087D01*
X160299558Y-137613913D01*
X160160642Y-137277711D01*
X159903642Y-137020262D01*
X159567683Y-136880759D01*
X159203913Y-136880442D01*
X158867711Y-137019358D01*
X158610262Y-137276358D01*
X158470759Y-137612317D01*
X158470442Y-137976087D01*
X157759242Y-137976087D01*
X157759558Y-137613913D01*
X157620642Y-137277711D01*
X157363642Y-137020262D01*
X157027683Y-136880759D01*
X156663913Y-136880442D01*
X156327711Y-137019358D01*
X156070262Y-137276358D01*
X155930759Y-137612317D01*
X155930442Y-137976087D01*
X122199242Y-137976087D01*
X122199558Y-137613913D01*
X122060642Y-137277711D01*
X121803642Y-137020262D01*
X121467683Y-136880759D01*
X121103913Y-136880442D01*
X120767711Y-137019358D01*
X120510262Y-137276358D01*
X120370759Y-137612317D01*
X120370442Y-137976087D01*
X118911829Y-137976087D01*
X118885642Y-137912711D01*
X118628642Y-137655262D01*
X118292683Y-137515759D01*
X117928913Y-137515442D01*
X117592711Y-137654358D01*
X117335262Y-137911358D01*
X117195759Y-138247317D01*
X117195442Y-138611087D01*
X112091727Y-138611087D01*
X112029916Y-138461496D01*
X111730083Y-138161138D01*
X111338131Y-137998385D01*
X110913731Y-137998015D01*
X110521496Y-138160084D01*
X110221138Y-138459917D01*
X110058385Y-138851869D01*
X110058015Y-139276269D01*
X103632000Y-139276269D01*
X103632000Y-134932872D01*
X162763015Y-134932872D01*
X162925084Y-135325107D01*
X163224917Y-135625465D01*
X163616869Y-135788218D01*
X164041269Y-135788588D01*
X164433504Y-135626519D01*
X164733862Y-135326686D01*
X164896615Y-134934734D01*
X164896985Y-134510334D01*
X164734916Y-134118099D01*
X164545213Y-133928064D01*
X164604738Y-133868642D01*
X164744241Y-133532683D01*
X164744558Y-133168913D01*
X164644300Y-132926269D01*
X172923015Y-132926269D01*
X173085084Y-133318504D01*
X173384917Y-133618862D01*
X173776869Y-133781615D01*
X174201269Y-133781985D01*
X174593504Y-133619916D01*
X174893862Y-133320083D01*
X174942419Y-133203146D01*
X174990084Y-133318504D01*
X175289917Y-133618862D01*
X175406854Y-133667419D01*
X175291496Y-133715084D01*
X174991138Y-134014917D01*
X174828385Y-134406869D01*
X174828015Y-134831269D01*
X174990084Y-135223504D01*
X175289917Y-135523862D01*
X175406854Y-135572419D01*
X175291496Y-135620084D01*
X174991138Y-135919917D01*
X174828385Y-136311869D01*
X174828015Y-136736269D01*
X174990084Y-137128504D01*
X175289917Y-137428862D01*
X175406854Y-137477419D01*
X175291496Y-137525084D01*
X174991138Y-137824917D01*
X174828385Y-138216869D01*
X174828015Y-138641269D01*
X174990084Y-139033504D01*
X175289917Y-139333862D01*
X175681869Y-139496615D01*
X176106269Y-139496985D01*
X176498504Y-139334916D01*
X176798862Y-139035083D01*
X176961615Y-138643131D01*
X176961985Y-138218731D01*
X176799916Y-137826496D01*
X176500083Y-137526138D01*
X176383146Y-137477581D01*
X176498504Y-137429916D01*
X176798862Y-137130083D01*
X176961615Y-136738131D01*
X176961985Y-136313731D01*
X176799916Y-135921496D01*
X176500083Y-135621138D01*
X176383146Y-135572581D01*
X176498504Y-135524916D01*
X176798862Y-135225083D01*
X176961615Y-134833131D01*
X176961616Y-134831269D01*
X182448015Y-134831269D01*
X182610084Y-135223504D01*
X182909917Y-135523862D01*
X183026854Y-135572419D01*
X182911496Y-135620084D01*
X182611138Y-135919917D01*
X182448385Y-136311869D01*
X182448015Y-136736269D01*
X182610084Y-137128504D01*
X182909917Y-137428862D01*
X183026854Y-137477419D01*
X182911496Y-137525084D01*
X182611138Y-137824917D01*
X182448385Y-138216869D01*
X182448015Y-138641269D01*
X182610084Y-139033504D01*
X182909917Y-139333862D01*
X183301869Y-139496615D01*
X183726269Y-139496985D01*
X184118504Y-139334916D01*
X184418862Y-139035083D01*
X184581615Y-138643131D01*
X184581985Y-138218731D01*
X184419916Y-137826496D01*
X184120083Y-137526138D01*
X184003146Y-137477581D01*
X184118504Y-137429916D01*
X184418862Y-137130083D01*
X184581615Y-136738131D01*
X184581985Y-136313731D01*
X184419916Y-135921496D01*
X184120083Y-135621138D01*
X184003146Y-135572581D01*
X184118504Y-135524916D01*
X184418862Y-135225083D01*
X184581615Y-134833131D01*
X184581985Y-134408731D01*
X184419916Y-134016496D01*
X184120083Y-133716138D01*
X183728131Y-133553385D01*
X183303731Y-133553015D01*
X182911496Y-133715084D01*
X182611138Y-134014917D01*
X182448385Y-134406869D01*
X182448015Y-134831269D01*
X176961616Y-134831269D01*
X176961985Y-134408731D01*
X176799916Y-134016496D01*
X176500083Y-133716138D01*
X176383146Y-133667581D01*
X176498504Y-133619916D01*
X176798862Y-133320083D01*
X176961615Y-132928131D01*
X176961985Y-132503731D01*
X176799916Y-132111496D01*
X176500083Y-131811138D01*
X176108131Y-131648385D01*
X175683731Y-131648015D01*
X175291496Y-131810084D01*
X174991138Y-132109917D01*
X174942581Y-132226854D01*
X174894916Y-132111496D01*
X174595083Y-131811138D01*
X174203131Y-131648385D01*
X173778731Y-131648015D01*
X173386496Y-131810084D01*
X173086138Y-132109917D01*
X172923385Y-132501869D01*
X172923015Y-132926269D01*
X164644300Y-132926269D01*
X164605642Y-132832711D01*
X164348642Y-132575262D01*
X164012683Y-132435759D01*
X163648913Y-132435442D01*
X163312711Y-132574358D01*
X163055262Y-132831358D01*
X162915759Y-133167317D01*
X162915442Y-133531087D01*
X163054358Y-133867289D01*
X163114976Y-133928012D01*
X162926138Y-134116520D01*
X162763385Y-134508472D01*
X162763015Y-134932872D01*
X103632000Y-134932872D01*
X103632000Y-130356087D01*
X115925442Y-130356087D01*
X116064358Y-130692289D01*
X116181844Y-130809980D01*
X116065262Y-130926358D01*
X115925759Y-131262317D01*
X115925442Y-131626087D01*
X116064358Y-131962289D01*
X116181836Y-132079972D01*
X116065262Y-132196342D01*
X115925759Y-132532301D01*
X115925442Y-132896071D01*
X116064358Y-133232273D01*
X116321358Y-133489722D01*
X116657317Y-133629225D01*
X117021087Y-133629542D01*
X117357289Y-133490626D01*
X117614738Y-133233626D01*
X117754241Y-132897667D01*
X117754558Y-132533897D01*
X117654307Y-132291269D01*
X137363015Y-132291269D01*
X137525084Y-132683504D01*
X137824917Y-132983862D01*
X138216869Y-133146615D01*
X138641269Y-133146985D01*
X139033504Y-132984916D01*
X139333862Y-132685083D01*
X139382419Y-132568146D01*
X139430084Y-132683504D01*
X139729917Y-132983862D01*
X140121869Y-133146615D01*
X140546269Y-133146985D01*
X140938504Y-132984916D01*
X141238862Y-132685083D01*
X141401615Y-132293131D01*
X141401985Y-131868731D01*
X141239916Y-131476496D01*
X140940083Y-131176138D01*
X140823146Y-131127581D01*
X140938504Y-131079916D01*
X141238862Y-130780083D01*
X141401615Y-130388131D01*
X141401985Y-129963731D01*
X141239916Y-129571496D01*
X140940083Y-129271138D01*
X140548131Y-129108385D01*
X140123731Y-129108015D01*
X139731496Y-129270084D01*
X139431138Y-129569917D01*
X139268385Y-129961869D01*
X139268015Y-130386269D01*
X139430084Y-130778504D01*
X139729917Y-131078862D01*
X139846854Y-131127419D01*
X139731496Y-131175084D01*
X139431138Y-131474917D01*
X139382581Y-131591854D01*
X139334916Y-131476496D01*
X139035083Y-131176138D01*
X138643131Y-131013385D01*
X138218731Y-131013015D01*
X137826496Y-131175084D01*
X137526138Y-131474917D01*
X137363385Y-131866869D01*
X137363015Y-132291269D01*
X117654307Y-132291269D01*
X117615642Y-132197695D01*
X117498164Y-132080012D01*
X117614738Y-131963642D01*
X117754241Y-131627683D01*
X117754558Y-131263913D01*
X117615642Y-130927711D01*
X117498156Y-130810020D01*
X117614738Y-130693642D01*
X117754241Y-130357683D01*
X117754558Y-129993913D01*
X117615642Y-129657711D01*
X117358642Y-129400262D01*
X117022683Y-129260759D01*
X116658913Y-129260442D01*
X116322711Y-129399358D01*
X116065262Y-129656358D01*
X115925759Y-129992317D01*
X115925442Y-130356087D01*
X103632000Y-130356087D01*
X103632000Y-126576269D01*
X113233015Y-126576269D01*
X113395084Y-126968504D01*
X113426317Y-126999791D01*
X113396138Y-127029917D01*
X113233385Y-127421869D01*
X113233015Y-127846269D01*
X113395084Y-128238504D01*
X113694917Y-128538862D01*
X114086869Y-128701615D01*
X114511269Y-128701985D01*
X114903504Y-128539916D01*
X114992488Y-128451087D01*
X141960442Y-128451087D01*
X142099358Y-128787289D01*
X142356358Y-129044738D01*
X142692317Y-129184241D01*
X143056087Y-129184558D01*
X143392289Y-129045642D01*
X143649738Y-128788642D01*
X143789241Y-128452683D01*
X143789242Y-128451087D01*
X144500442Y-128451087D01*
X144639358Y-128787289D01*
X144896358Y-129044738D01*
X145232317Y-129184241D01*
X145596087Y-129184558D01*
X145932289Y-129045642D01*
X146189738Y-128788642D01*
X146329241Y-128452683D01*
X146329242Y-128451087D01*
X147040442Y-128451087D01*
X147179358Y-128787289D01*
X147436358Y-129044738D01*
X147772317Y-129184241D01*
X148136087Y-129184558D01*
X148472289Y-129045642D01*
X148729738Y-128788642D01*
X148869241Y-128452683D01*
X148869558Y-128088913D01*
X148756829Y-127816087D01*
X151485442Y-127816087D01*
X151624358Y-128152289D01*
X151881358Y-128409738D01*
X152217317Y-128549241D01*
X152581087Y-128549558D01*
X152917289Y-128410642D01*
X153174738Y-128153642D01*
X153314241Y-127817683D01*
X153314558Y-127453913D01*
X153175642Y-127117711D01*
X152918642Y-126860262D01*
X152582683Y-126720759D01*
X152218913Y-126720442D01*
X151882711Y-126859358D01*
X151625262Y-127116358D01*
X151485759Y-127452317D01*
X151485442Y-127816087D01*
X148756829Y-127816087D01*
X148730642Y-127752711D01*
X148473642Y-127495262D01*
X148137683Y-127355759D01*
X147773913Y-127355442D01*
X147437711Y-127494358D01*
X147180262Y-127751358D01*
X147040759Y-128087317D01*
X147040442Y-128451087D01*
X146329242Y-128451087D01*
X146329558Y-128088913D01*
X146190642Y-127752711D01*
X145933642Y-127495262D01*
X145597683Y-127355759D01*
X145233913Y-127355442D01*
X144897711Y-127494358D01*
X144640262Y-127751358D01*
X144500759Y-128087317D01*
X144500442Y-128451087D01*
X143789242Y-128451087D01*
X143789558Y-128088913D01*
X143650642Y-127752711D01*
X143393642Y-127495262D01*
X143057683Y-127355759D01*
X142693913Y-127355442D01*
X142357711Y-127494358D01*
X142100262Y-127751358D01*
X141960759Y-128087317D01*
X141960442Y-128451087D01*
X114992488Y-128451087D01*
X115203862Y-128240083D01*
X115366615Y-127848131D01*
X115366985Y-127423731D01*
X115204916Y-127031496D01*
X115173683Y-127000209D01*
X115203862Y-126970083D01*
X115366615Y-126578131D01*
X115366616Y-126576269D01*
X148793015Y-126576269D01*
X148955084Y-126968504D01*
X149254917Y-127268862D01*
X149646869Y-127431615D01*
X150071269Y-127431985D01*
X150463504Y-127269916D01*
X150763862Y-126970083D01*
X150926615Y-126578131D01*
X150926985Y-126153731D01*
X150764916Y-125761496D01*
X150465083Y-125461138D01*
X150073131Y-125298385D01*
X149648731Y-125298015D01*
X149256496Y-125460084D01*
X148956138Y-125759917D01*
X148793385Y-126151869D01*
X148793015Y-126576269D01*
X115366616Y-126576269D01*
X115366985Y-126153731D01*
X115204916Y-125761496D01*
X114905083Y-125461138D01*
X114513131Y-125298385D01*
X114088731Y-125298015D01*
X113696496Y-125460084D01*
X113396138Y-125759917D01*
X113233385Y-126151869D01*
X113233015Y-126576269D01*
X103632000Y-126576269D01*
X103632000Y-125222000D01*
X169870826Y-125222000D01*
X169748385Y-125516869D01*
X169748385Y-125516869D01*
G37*
X169748385Y-125516869D02*
X169748015Y-125941269D01*
X169910084Y-126333504D01*
X170209917Y-126633862D01*
X170326854Y-126682419D01*
X170211496Y-126730084D01*
X169911138Y-127029917D01*
X169748385Y-127421869D01*
X169748015Y-127846269D01*
X169910084Y-128238504D01*
X170209917Y-128538862D01*
X170601869Y-128701615D01*
X171026269Y-128701985D01*
X171418504Y-128539916D01*
X171718862Y-128240083D01*
X171767422Y-128123138D01*
X171815084Y-128238488D01*
X172114917Y-128538846D01*
X172506869Y-128701599D01*
X172931269Y-128701969D01*
X173323504Y-128539900D01*
X173623862Y-128240067D01*
X173786615Y-127848115D01*
X173786985Y-127423715D01*
X173624916Y-127031480D01*
X173325083Y-126731122D01*
X173208165Y-126682573D01*
X173323504Y-126634916D01*
X173382253Y-126576269D01*
X182448015Y-126576269D01*
X182610084Y-126968504D01*
X182909917Y-127268862D01*
X183026854Y-127317419D01*
X182911496Y-127365084D01*
X182611138Y-127664917D01*
X182448385Y-128056869D01*
X182448015Y-128481269D01*
X182610084Y-128873504D01*
X182909917Y-129173862D01*
X183026854Y-129222419D01*
X182911496Y-129270084D01*
X182611138Y-129569917D01*
X182448385Y-129961869D01*
X182448015Y-130386269D01*
X182610084Y-130778504D01*
X182909917Y-131078862D01*
X183026854Y-131127419D01*
X182911496Y-131175084D01*
X182611138Y-131474917D01*
X182448385Y-131866869D01*
X182448015Y-132291269D01*
X182610084Y-132683504D01*
X182909917Y-132983862D01*
X183301869Y-133146615D01*
X183726269Y-133146985D01*
X184118504Y-132984916D01*
X184418862Y-132685083D01*
X184581615Y-132293131D01*
X184581985Y-131868731D01*
X184419916Y-131476496D01*
X184120083Y-131176138D01*
X184003146Y-131127581D01*
X184118504Y-131079916D01*
X184418862Y-130780083D01*
X184581615Y-130388131D01*
X184581985Y-129963731D01*
X184419916Y-129571496D01*
X184120083Y-129271138D01*
X184003146Y-129222581D01*
X184118504Y-129174916D01*
X184418862Y-128875083D01*
X184581615Y-128483131D01*
X184581985Y-128058731D01*
X184419916Y-127666496D01*
X184120083Y-127366138D01*
X184003146Y-127317581D01*
X184118504Y-127269916D01*
X184418862Y-126970083D01*
X184581615Y-126578131D01*
X184581985Y-126153731D01*
X184419916Y-125761496D01*
X184120083Y-125461138D01*
X183728131Y-125298385D01*
X183303731Y-125298015D01*
X182911496Y-125460084D01*
X182611138Y-125759917D01*
X182448385Y-126151869D01*
X182448015Y-126576269D01*
X173382253Y-126576269D01*
X173623862Y-126335083D01*
X173786615Y-125943131D01*
X173786985Y-125518731D01*
X173664378Y-125222000D01*
X187833000Y-125222000D01*
X187833000Y-142748000D01*
X103632000Y-142748000D01*
X103632000Y-139276269D01*
X110058015Y-139276269D01*
X110220084Y-139668504D01*
X110519917Y-139968862D01*
X110911869Y-140131615D01*
X111336269Y-140131985D01*
X111728504Y-139969916D01*
X112028862Y-139670083D01*
X112191615Y-139278131D01*
X112191985Y-138853731D01*
X112091727Y-138611087D01*
X117195442Y-138611087D01*
X117334358Y-138947289D01*
X117591358Y-139204738D01*
X117927317Y-139344241D01*
X118291087Y-139344558D01*
X118627289Y-139205642D01*
X118884738Y-138948642D01*
X119024241Y-138612683D01*
X119024558Y-138248913D01*
X118911829Y-137976087D01*
X120370442Y-137976087D01*
X120509358Y-138312289D01*
X120626844Y-138429980D01*
X120510262Y-138546358D01*
X120370759Y-138882317D01*
X120370442Y-139246087D01*
X120509358Y-139582289D01*
X120766358Y-139839738D01*
X121102317Y-139979241D01*
X121466087Y-139979558D01*
X121802289Y-139840642D01*
X122059738Y-139583642D01*
X122199241Y-139247683D01*
X122199558Y-138883913D01*
X122060642Y-138547711D01*
X121943156Y-138430020D01*
X122059738Y-138313642D01*
X122199241Y-137977683D01*
X122199242Y-137976087D01*
X155930442Y-137976087D01*
X156069358Y-138312289D01*
X156326358Y-138569738D01*
X156662317Y-138709241D01*
X157026087Y-138709558D01*
X157362289Y-138570642D01*
X157619738Y-138313642D01*
X157759241Y-137977683D01*
X157759242Y-137976087D01*
X158470442Y-137976087D01*
X158609358Y-138312289D01*
X158866358Y-138569738D01*
X159202317Y-138709241D01*
X159566087Y-138709558D01*
X159902289Y-138570642D01*
X160159738Y-138313642D01*
X160299241Y-137977683D01*
X160299242Y-137976087D01*
X161010442Y-137976087D01*
X161149358Y-138312289D01*
X161406358Y-138569738D01*
X161742317Y-138709241D01*
X162106087Y-138709558D01*
X162442289Y-138570642D01*
X162699738Y-138313642D01*
X162839241Y-137977683D01*
X162839242Y-137976087D01*
X163550442Y-137976087D01*
X163689358Y-138312289D01*
X163946358Y-138569738D01*
X164282317Y-138709241D01*
X164646087Y-138709558D01*
X164982289Y-138570642D01*
X165239738Y-138313642D01*
X165379241Y-137977683D01*
X165379558Y-137613913D01*
X165279300Y-137371269D01*
X167843015Y-137371269D01*
X168005084Y-137763504D01*
X168304917Y-138063862D01*
X168421854Y-138112419D01*
X168306496Y-138160084D01*
X168006138Y-138459917D01*
X167843385Y-138851869D01*
X167843015Y-139276269D01*
X168005084Y-139668504D01*
X168304917Y-139968862D01*
X168696869Y-140131615D01*
X169121269Y-140131985D01*
X169513504Y-139969916D01*
X169813862Y-139670083D01*
X169862419Y-139553146D01*
X169910084Y-139668504D01*
X170209917Y-139968862D01*
X170601869Y-140131615D01*
X171026269Y-140131985D01*
X171418504Y-139969916D01*
X171718862Y-139670083D01*
X171881615Y-139278131D01*
X171881985Y-138853731D01*
X171719916Y-138461496D01*
X171420083Y-138161138D01*
X171303146Y-138112581D01*
X171418504Y-138064916D01*
X171718862Y-137765083D01*
X171881615Y-137373131D01*
X171881985Y-136948731D01*
X171719916Y-136556496D01*
X171420083Y-136256138D01*
X171028131Y-136093385D01*
X170603731Y-136093015D01*
X170211496Y-136255084D01*
X169911138Y-136554917D01*
X169862581Y-136671854D01*
X169814916Y-136556496D01*
X169515083Y-136256138D01*
X169123131Y-136093385D01*
X168698731Y-136093015D01*
X168306496Y-136255084D01*
X168006138Y-136554917D01*
X167843385Y-136946869D01*
X167843015Y-137371269D01*
X165279300Y-137371269D01*
X165240642Y-137277711D01*
X164983642Y-137020262D01*
X164647683Y-136880759D01*
X164283913Y-136880442D01*
X163947711Y-137019358D01*
X163690262Y-137276358D01*
X163550759Y-137612317D01*
X163550442Y-137976087D01*
X162839242Y-137976087D01*
X162839558Y-137613913D01*
X162700642Y-137277711D01*
X162443642Y-137020262D01*
X162107683Y-136880759D01*
X161743913Y-136880442D01*
X161407711Y-137019358D01*
X161150262Y-137276358D01*
X161010759Y-137612317D01*
X161010442Y-137976087D01*
X160299242Y-137976087D01*
X160299558Y-137613913D01*
X160160642Y-137277711D01*
X159903642Y-137020262D01*
X159567683Y-136880759D01*
X159203913Y-136880442D01*
X158867711Y-137019358D01*
X158610262Y-137276358D01*
X158470759Y-137612317D01*
X158470442Y-137976087D01*
X157759242Y-137976087D01*
X157759558Y-137613913D01*
X157620642Y-137277711D01*
X157363642Y-137020262D01*
X157027683Y-136880759D01*
X156663913Y-136880442D01*
X156327711Y-137019358D01*
X156070262Y-137276358D01*
X155930759Y-137612317D01*
X155930442Y-137976087D01*
X122199242Y-137976087D01*
X122199558Y-137613913D01*
X122060642Y-137277711D01*
X121803642Y-137020262D01*
X121467683Y-136880759D01*
X121103913Y-136880442D01*
X120767711Y-137019358D01*
X120510262Y-137276358D01*
X120370759Y-137612317D01*
X120370442Y-137976087D01*
X118911829Y-137976087D01*
X118885642Y-137912711D01*
X118628642Y-137655262D01*
X118292683Y-137515759D01*
X117928913Y-137515442D01*
X117592711Y-137654358D01*
X117335262Y-137911358D01*
X117195759Y-138247317D01*
X117195442Y-138611087D01*
X112091727Y-138611087D01*
X112029916Y-138461496D01*
X111730083Y-138161138D01*
X111338131Y-137998385D01*
X110913731Y-137998015D01*
X110521496Y-138160084D01*
X110221138Y-138459917D01*
X110058385Y-138851869D01*
X110058015Y-139276269D01*
X103632000Y-139276269D01*
X103632000Y-134932872D01*
X162763015Y-134932872D01*
X162925084Y-135325107D01*
X163224917Y-135625465D01*
X163616869Y-135788218D01*
X164041269Y-135788588D01*
X164433504Y-135626519D01*
X164733862Y-135326686D01*
X164896615Y-134934734D01*
X164896985Y-134510334D01*
X164734916Y-134118099D01*
X164545213Y-133928064D01*
X164604738Y-133868642D01*
X164744241Y-133532683D01*
X164744558Y-133168913D01*
X164644300Y-132926269D01*
X172923015Y-132926269D01*
X173085084Y-133318504D01*
X173384917Y-133618862D01*
X173776869Y-133781615D01*
X174201269Y-133781985D01*
X174593504Y-133619916D01*
X174893862Y-133320083D01*
X174942419Y-133203146D01*
X174990084Y-133318504D01*
X175289917Y-133618862D01*
X175406854Y-133667419D01*
X175291496Y-133715084D01*
X174991138Y-134014917D01*
X174828385Y-134406869D01*
X174828015Y-134831269D01*
X174990084Y-135223504D01*
X175289917Y-135523862D01*
X175406854Y-135572419D01*
X175291496Y-135620084D01*
X174991138Y-135919917D01*
X174828385Y-136311869D01*
X174828015Y-136736269D01*
X174990084Y-137128504D01*
X175289917Y-137428862D01*
X175406854Y-137477419D01*
X175291496Y-137525084D01*
X174991138Y-137824917D01*
X174828385Y-138216869D01*
X174828015Y-138641269D01*
X174990084Y-139033504D01*
X175289917Y-139333862D01*
X175681869Y-139496615D01*
X176106269Y-139496985D01*
X176498504Y-139334916D01*
X176798862Y-139035083D01*
X176961615Y-138643131D01*
X176961985Y-138218731D01*
X176799916Y-137826496D01*
X176500083Y-137526138D01*
X176383146Y-137477581D01*
X176498504Y-137429916D01*
X176798862Y-137130083D01*
X176961615Y-136738131D01*
X176961985Y-136313731D01*
X176799916Y-135921496D01*
X176500083Y-135621138D01*
X176383146Y-135572581D01*
X176498504Y-135524916D01*
X176798862Y-135225083D01*
X176961615Y-134833131D01*
X176961616Y-134831269D01*
X182448015Y-134831269D01*
X182610084Y-135223504D01*
X182909917Y-135523862D01*
X183026854Y-135572419D01*
X182911496Y-135620084D01*
X182611138Y-135919917D01*
X182448385Y-136311869D01*
X182448015Y-136736269D01*
X182610084Y-137128504D01*
X182909917Y-137428862D01*
X183026854Y-137477419D01*
X182911496Y-137525084D01*
X182611138Y-137824917D01*
X182448385Y-138216869D01*
X182448015Y-138641269D01*
X182610084Y-139033504D01*
X182909917Y-139333862D01*
X183301869Y-139496615D01*
X183726269Y-139496985D01*
X184118504Y-139334916D01*
X184418862Y-139035083D01*
X184581615Y-138643131D01*
X184581985Y-138218731D01*
X184419916Y-137826496D01*
X184120083Y-137526138D01*
X184003146Y-137477581D01*
X184118504Y-137429916D01*
X184418862Y-137130083D01*
X184581615Y-136738131D01*
X184581985Y-136313731D01*
X184419916Y-135921496D01*
X184120083Y-135621138D01*
X184003146Y-135572581D01*
X184118504Y-135524916D01*
X184418862Y-135225083D01*
X184581615Y-134833131D01*
X184581985Y-134408731D01*
X184419916Y-134016496D01*
X184120083Y-133716138D01*
X183728131Y-133553385D01*
X183303731Y-133553015D01*
X182911496Y-133715084D01*
X182611138Y-134014917D01*
X182448385Y-134406869D01*
X182448015Y-134831269D01*
X176961616Y-134831269D01*
X176961985Y-134408731D01*
X176799916Y-134016496D01*
X176500083Y-133716138D01*
X176383146Y-133667581D01*
X176498504Y-133619916D01*
X176798862Y-133320083D01*
X176961615Y-132928131D01*
X176961985Y-132503731D01*
X176799916Y-132111496D01*
X176500083Y-131811138D01*
X176108131Y-131648385D01*
X175683731Y-131648015D01*
X175291496Y-131810084D01*
X174991138Y-132109917D01*
X174942581Y-132226854D01*
X174894916Y-132111496D01*
X174595083Y-131811138D01*
X174203131Y-131648385D01*
X173778731Y-131648015D01*
X173386496Y-131810084D01*
X173086138Y-132109917D01*
X172923385Y-132501869D01*
X172923015Y-132926269D01*
X164644300Y-132926269D01*
X164605642Y-132832711D01*
X164348642Y-132575262D01*
X164012683Y-132435759D01*
X163648913Y-132435442D01*
X163312711Y-132574358D01*
X163055262Y-132831358D01*
X162915759Y-133167317D01*
X162915442Y-133531087D01*
X163054358Y-133867289D01*
X163114976Y-133928012D01*
X162926138Y-134116520D01*
X162763385Y-134508472D01*
X162763015Y-134932872D01*
X103632000Y-134932872D01*
X103632000Y-130356087D01*
X115925442Y-130356087D01*
X116064358Y-130692289D01*
X116181844Y-130809980D01*
X116065262Y-130926358D01*
X115925759Y-131262317D01*
X115925442Y-131626087D01*
X116064358Y-131962289D01*
X116181836Y-132079972D01*
X116065262Y-132196342D01*
X115925759Y-132532301D01*
X115925442Y-132896071D01*
X116064358Y-133232273D01*
X116321358Y-133489722D01*
X116657317Y-133629225D01*
X117021087Y-133629542D01*
X117357289Y-133490626D01*
X117614738Y-133233626D01*
X117754241Y-132897667D01*
X117754558Y-132533897D01*
X117654307Y-132291269D01*
X137363015Y-132291269D01*
X137525084Y-132683504D01*
X137824917Y-132983862D01*
X138216869Y-133146615D01*
X138641269Y-133146985D01*
X139033504Y-132984916D01*
X139333862Y-132685083D01*
X139382419Y-132568146D01*
X139430084Y-132683504D01*
X139729917Y-132983862D01*
X140121869Y-133146615D01*
X140546269Y-133146985D01*
X140938504Y-132984916D01*
X141238862Y-132685083D01*
X141401615Y-132293131D01*
X141401985Y-131868731D01*
X141239916Y-131476496D01*
X140940083Y-131176138D01*
X140823146Y-131127581D01*
X140938504Y-131079916D01*
X141238862Y-130780083D01*
X141401615Y-130388131D01*
X141401985Y-129963731D01*
X141239916Y-129571496D01*
X140940083Y-129271138D01*
X140548131Y-129108385D01*
X140123731Y-129108015D01*
X139731496Y-129270084D01*
X139431138Y-129569917D01*
X139268385Y-129961869D01*
X139268015Y-130386269D01*
X139430084Y-130778504D01*
X139729917Y-131078862D01*
X139846854Y-131127419D01*
X139731496Y-131175084D01*
X139431138Y-131474917D01*
X139382581Y-131591854D01*
X139334916Y-131476496D01*
X139035083Y-131176138D01*
X138643131Y-131013385D01*
X138218731Y-131013015D01*
X137826496Y-131175084D01*
X137526138Y-131474917D01*
X137363385Y-131866869D01*
X137363015Y-132291269D01*
X117654307Y-132291269D01*
X117615642Y-132197695D01*
X117498164Y-132080012D01*
X117614738Y-131963642D01*
X117754241Y-131627683D01*
X117754558Y-131263913D01*
X117615642Y-130927711D01*
X117498156Y-130810020D01*
X117614738Y-130693642D01*
X117754241Y-130357683D01*
X117754558Y-129993913D01*
X117615642Y-129657711D01*
X117358642Y-129400262D01*
X117022683Y-129260759D01*
X116658913Y-129260442D01*
X116322711Y-129399358D01*
X116065262Y-129656358D01*
X115925759Y-129992317D01*
X115925442Y-130356087D01*
X103632000Y-130356087D01*
X103632000Y-126576269D01*
X113233015Y-126576269D01*
X113395084Y-126968504D01*
X113426317Y-126999791D01*
X113396138Y-127029917D01*
X113233385Y-127421869D01*
X113233015Y-127846269D01*
X113395084Y-128238504D01*
X113694917Y-128538862D01*
X114086869Y-128701615D01*
X114511269Y-128701985D01*
X114903504Y-128539916D01*
X114992488Y-128451087D01*
X141960442Y-128451087D01*
X142099358Y-128787289D01*
X142356358Y-129044738D01*
X142692317Y-129184241D01*
X143056087Y-129184558D01*
X143392289Y-129045642D01*
X143649738Y-128788642D01*
X143789241Y-128452683D01*
X143789242Y-128451087D01*
X144500442Y-128451087D01*
X144639358Y-128787289D01*
X144896358Y-129044738D01*
X145232317Y-129184241D01*
X145596087Y-129184558D01*
X145932289Y-129045642D01*
X146189738Y-128788642D01*
X146329241Y-128452683D01*
X146329242Y-128451087D01*
X147040442Y-128451087D01*
X147179358Y-128787289D01*
X147436358Y-129044738D01*
X147772317Y-129184241D01*
X148136087Y-129184558D01*
X148472289Y-129045642D01*
X148729738Y-128788642D01*
X148869241Y-128452683D01*
X148869558Y-128088913D01*
X148756829Y-127816087D01*
X151485442Y-127816087D01*
X151624358Y-128152289D01*
X151881358Y-128409738D01*
X152217317Y-128549241D01*
X152581087Y-128549558D01*
X152917289Y-128410642D01*
X153174738Y-128153642D01*
X153314241Y-127817683D01*
X153314558Y-127453913D01*
X153175642Y-127117711D01*
X152918642Y-126860262D01*
X152582683Y-126720759D01*
X152218913Y-126720442D01*
X151882711Y-126859358D01*
X151625262Y-127116358D01*
X151485759Y-127452317D01*
X151485442Y-127816087D01*
X148756829Y-127816087D01*
X148730642Y-127752711D01*
X148473642Y-127495262D01*
X148137683Y-127355759D01*
X147773913Y-127355442D01*
X147437711Y-127494358D01*
X147180262Y-127751358D01*
X147040759Y-128087317D01*
X147040442Y-128451087D01*
X146329242Y-128451087D01*
X146329558Y-128088913D01*
X146190642Y-127752711D01*
X145933642Y-127495262D01*
X145597683Y-127355759D01*
X145233913Y-127355442D01*
X144897711Y-127494358D01*
X144640262Y-127751358D01*
X144500759Y-128087317D01*
X144500442Y-128451087D01*
X143789242Y-128451087D01*
X143789558Y-128088913D01*
X143650642Y-127752711D01*
X143393642Y-127495262D01*
X143057683Y-127355759D01*
X142693913Y-127355442D01*
X142357711Y-127494358D01*
X142100262Y-127751358D01*
X141960759Y-128087317D01*
X141960442Y-128451087D01*
X114992488Y-128451087D01*
X115203862Y-128240083D01*
X115366615Y-127848131D01*
X115366985Y-127423731D01*
X115204916Y-127031496D01*
X115173683Y-127000209D01*
X115203862Y-126970083D01*
X115366615Y-126578131D01*
X115366616Y-126576269D01*
X148793015Y-126576269D01*
X148955084Y-126968504D01*
X149254917Y-127268862D01*
X149646869Y-127431615D01*
X150071269Y-127431985D01*
X150463504Y-127269916D01*
X150763862Y-126970083D01*
X150926615Y-126578131D01*
X150926985Y-126153731D01*
X150764916Y-125761496D01*
X150465083Y-125461138D01*
X150073131Y-125298385D01*
X149648731Y-125298015D01*
X149256496Y-125460084D01*
X148956138Y-125759917D01*
X148793385Y-126151869D01*
X148793015Y-126576269D01*
X115366616Y-126576269D01*
X115366985Y-126153731D01*
X115204916Y-125761496D01*
X114905083Y-125461138D01*
X114513131Y-125298385D01*
X114088731Y-125298015D01*
X113696496Y-125460084D01*
X113396138Y-125759917D01*
X113233385Y-126151869D01*
X113233015Y-126576269D01*
X103632000Y-126576269D01*
X103632000Y-125222000D01*
X169870826Y-125222000D01*
X169748385Y-125516869D01*
D15*
X152400000Y-137160000D03*
X150495000Y-137160000D03*
X150495000Y-139065000D03*
X152400000Y-139065000D03*
X127635000Y-138430000D03*
X174625000Y-129540000D03*
X172720000Y-129540000D03*
X170815000Y-129540000D03*
X168910000Y-132715000D03*
X168910000Y-130810000D03*
X138430000Y-127000000D03*
X135890000Y-127000000D03*
X145415000Y-137160000D03*
X160019984Y-127635000D03*
X158115000Y-127635000D03*
X158115000Y-125730000D03*
X160020000Y-125730000D03*
X131445000Y-136525000D03*
X131445000Y-138430000D03*
X127635000Y-136525000D03*
X132334000Y-126492000D03*
X132334000Y-128524000D03*
X130302000Y-128524000D03*
X123825000Y-128270000D03*
X125730000Y-128270000D03*
X116840000Y-128270000D03*
X118745000Y-128270000D03*
X120650000Y-128270000D03*
X125730000Y-126365000D03*
X120650000Y-126365000D03*
X107315000Y-128270000D03*
X111125000Y-128270000D03*
X109220000Y-128270000D03*
X109219992Y-126365000D03*
X118745000Y-136525000D03*
X116840000Y-136525000D03*
X108585000Y-136525000D03*
X108585000Y-138430000D03*
X164465000Y-137795000D03*
X121285000Y-139065000D03*
X161925000Y-137795000D03*
X121285000Y-137795000D03*
X159385000Y-137795000D03*
X118110000Y-138430000D03*
X168910000Y-137160000D03*
X170815000Y-137160000D03*
X170815000Y-139065000D03*
X168910000Y-139065000D03*
X149860000Y-126365000D03*
X175895000Y-138430000D03*
X175895000Y-134620000D03*
X175895000Y-136525000D03*
X183515000Y-138430000D03*
X183515000Y-134620000D03*
X183515000Y-136525000D03*
X114300000Y-127635000D03*
X114300000Y-126365000D03*
X111125000Y-139065000D03*
X140335000Y-130175000D03*
X140335000Y-132080000D03*
X138430000Y-132080000D03*
X172720000Y-127634984D03*
X172720000Y-125730000D03*
X170815000Y-125730000D03*
X163830000Y-134721603D03*
X170815000Y-127635000D03*
X116840000Y-132714984D03*
X147955000Y-128270000D03*
X116840000Y-131445000D03*
X145415000Y-128270000D03*
X116840000Y-130175000D03*
X142875000Y-128270000D03*
X156845000Y-137795000D03*
X152400000Y-127635000D03*
X163830000Y-133350000D03*
X175895000Y-132715000D03*
X173990000Y-132715000D03*
X183515000Y-132080000D03*
X183515000Y-130175000D03*
X183515000Y-128270000D03*
X183515000Y-126365000D03*
M02*
