G04 #@! TF.FileFunction,Copper,L2,Inr,Signal*
%FSLAX46Y46*%
G04 Gerber Fmt 4.6, Leading zero omitted, Abs format (unit mm)*
G04 Created by KiCad (PCBNEW (2016-05-03 BZR 6266)-product) date Fri Jul 22 02:31:23 2016*
%MOMM*%
%LPD*%
G01*
G04 APERTURE LIST*
%ADD10C,0.350000*%
%ADD11C,0.150000*%
%ADD12C,1.270000*%
%ADD13C,0.965200*%
%ADD14C,0.350000*%
G04 APERTURE END LIST*
D10*
D11*
X102870000Y-143510000D02*
X102870000Y-124460000D01*
X188595000Y-124460000D02*
X188595000Y-143510000D01*
X102870000Y-124460000D02*
X188595000Y-124460000D01*
X188595000Y-143510000D02*
X102870000Y-143510000D01*
D12*
X140970000Y-137160000D03*
X127635000Y-139065000D03*
X127635000Y-137160000D03*
X131445000Y-137160000D03*
X131445000Y-139064986D03*
X146685000Y-133349990D03*
X153670000Y-137795000D03*
X148590000Y-139065000D03*
X120650000Y-128168387D03*
X150495000Y-139065000D03*
X152400000Y-139065000D03*
X174625000Y-129540000D03*
X172720000Y-129540000D03*
X170815000Y-129540000D03*
X168910000Y-130810000D03*
X138430000Y-127000000D03*
X135890000Y-127000000D03*
X160019984Y-127635000D03*
X158115000Y-127635000D03*
X158115000Y-125730000D03*
X160020000Y-125730000D03*
X132334000Y-126492000D03*
X132334000Y-128524000D03*
X130302000Y-128524000D03*
X123825000Y-128270000D03*
X125730000Y-128270000D03*
X116840000Y-128270000D03*
X118745000Y-128270000D03*
X125730000Y-126365000D03*
X120650000Y-126365000D03*
X107315000Y-128270000D03*
X111125000Y-128270000D03*
X109220000Y-128270000D03*
X109219992Y-126365000D03*
X118745000Y-136525000D03*
X116840000Y-136525000D03*
X108585000Y-136525000D03*
X108585000Y-138430000D03*
D13*
X164465000Y-138430000D03*
X121285000Y-139065000D03*
X161925000Y-138430000D03*
X121285000Y-137795000D03*
D12*
X111125000Y-134620000D03*
X114300000Y-130175000D03*
X168910000Y-137160000D03*
X170815000Y-137160000D03*
X170815000Y-139065000D03*
X168910000Y-139065000D03*
X149860000Y-126365000D03*
X175895000Y-138430000D03*
X175895000Y-134620000D03*
X175895000Y-136525000D03*
X183515000Y-138430000D03*
X183515000Y-134620000D03*
X183515000Y-136525000D03*
X114300000Y-127635000D03*
X114300000Y-126365000D03*
X111125000Y-139065000D03*
X135255000Y-135890000D03*
X149860000Y-135890000D03*
X116923421Y-134068421D03*
X124460000Y-133985000D03*
X172720000Y-127634984D03*
X172720000Y-125730000D03*
X170815000Y-125730000D03*
X163830000Y-134721603D03*
X170815000Y-127635000D03*
D13*
X122555000Y-132715000D03*
X147955000Y-128270000D03*
X123190000Y-131444986D03*
X145415000Y-128270000D03*
X122555012Y-130175000D03*
X142875000Y-128270000D03*
X156845000Y-138430016D03*
X168275012Y-133350000D03*
X152400000Y-127635000D03*
D12*
X175895000Y-132715000D03*
X173990000Y-132715000D03*
X183515000Y-132080000D03*
X183515000Y-130175000D03*
X183515000Y-128270000D03*
X183515000Y-126365000D03*
D13*
X133350000Y-139065000D03*
X159385000Y-138430000D03*
X118110000Y-138430000D03*
D14*
X140970000Y-137160000D03*
X127635000Y-139065000D03*
X127635000Y-137160000D03*
X131445000Y-137160000D03*
X131445000Y-139064986D03*
X146685000Y-133349990D03*
X153670000Y-137795000D03*
X148590000Y-139065000D03*
X120650000Y-128168387D03*
X150495000Y-139065000D03*
X152400000Y-139065000D03*
X174625000Y-129540000D03*
X172720000Y-129540000D03*
X170815000Y-129540000D03*
X168910000Y-130810000D03*
X138430000Y-127000000D03*
X135890000Y-127000000D03*
X160019984Y-127635000D03*
X158115000Y-127635000D03*
X158115000Y-125730000D03*
X160020000Y-125730000D03*
X132334000Y-126492000D03*
X132334000Y-128524000D03*
X130302000Y-128524000D03*
X123825000Y-128270000D03*
X125730000Y-128270000D03*
X116840000Y-128270000D03*
X118745000Y-128270000D03*
X125730000Y-126365000D03*
X120650000Y-126365000D03*
X107315000Y-128270000D03*
X111125000Y-128270000D03*
X109220000Y-128270000D03*
X109219992Y-126365000D03*
X118745000Y-136525000D03*
X116840000Y-136525000D03*
X108585000Y-136525000D03*
X108585000Y-138430000D03*
X164465000Y-138430000D03*
X121285000Y-139065000D03*
X161925000Y-138430000D03*
X121285000Y-137795000D03*
X111125000Y-134620000D03*
X114300000Y-130175000D03*
X168910000Y-137160000D03*
X170815000Y-137160000D03*
X170815000Y-139065000D03*
X168910000Y-139065000D03*
X149860000Y-126365000D03*
X175895000Y-138430000D03*
X175895000Y-134620000D03*
X175895000Y-136525000D03*
X183515000Y-138430000D03*
X183515000Y-134620000D03*
X183515000Y-136525000D03*
X114300000Y-127635000D03*
X114300000Y-126365000D03*
X111125000Y-139065000D03*
X135255000Y-135890000D03*
X149860000Y-135890000D03*
X116923421Y-134068421D03*
X124460000Y-133985000D03*
X172720000Y-127634984D03*
X172720000Y-125730000D03*
X170815000Y-125730000D03*
X163830000Y-134721603D03*
X170815000Y-127635000D03*
X122555000Y-132715000D03*
X147955000Y-128270000D03*
X123190000Y-131444986D03*
X145415000Y-128270000D03*
X122555012Y-130175000D03*
X142875000Y-128270000D03*
X156845000Y-138430016D03*
X168275012Y-133350000D03*
X152400000Y-127635000D03*
X175895000Y-132715000D03*
X173990000Y-132715000D03*
X183515000Y-132080000D03*
X183515000Y-130175000D03*
X183515000Y-128270000D03*
X183515000Y-126365000D03*
X133350000Y-139065000D03*
X159385000Y-138430000D03*
X118110000Y-138430000D03*
M02*
