G04 #@! TF.FileFunction,Legend,Top*
%FSLAX46Y46*%
G04 Gerber Fmt 4.6, Leading zero omitted, Abs format (unit mm)*
G04 Created by KiCad (PCBNEW (2016-05-03 BZR 6266)-product) date Thu Jul 21 03:07:48 2016*
%MOMM*%
%LPD*%
G01*
G04 APERTURE LIST*
%ADD10C,0.350000*%
%ADD11C,0.254000*%
%ADD12C,0.200000*%
%ADD13C,0.150000*%
%ADD14C,0.180000*%
%ADD15C,0.177800*%
G04 APERTURE END LIST*
D10*
D11*
X155321000Y-135654143D02*
X155381476Y-135533191D01*
X155381476Y-135351762D01*
X155321000Y-135170334D01*
X155200048Y-135049381D01*
X155079095Y-134988905D01*
X154837190Y-134928429D01*
X154655762Y-134928429D01*
X154413857Y-134988905D01*
X154292905Y-135049381D01*
X154171952Y-135170334D01*
X154111476Y-135351762D01*
X154111476Y-135472714D01*
X154171952Y-135654143D01*
X154232429Y-135714619D01*
X154655762Y-135714619D01*
X154655762Y-135472714D01*
X154111476Y-136258905D02*
X155381476Y-136258905D01*
X154111476Y-136984619D01*
X155381476Y-136984619D01*
X154111476Y-137589381D02*
X155381476Y-137589381D01*
X155381476Y-137891762D01*
X155321000Y-138073190D01*
X155200048Y-138194143D01*
X155079095Y-138254619D01*
X154837190Y-138315095D01*
X154655762Y-138315095D01*
X154413857Y-138254619D01*
X154292905Y-138194143D01*
X154171952Y-138073190D01*
X154111476Y-137891762D01*
X154111476Y-137589381D01*
X157540476Y-134601857D02*
X156270476Y-135025191D01*
X157540476Y-135448524D01*
X156935714Y-135871857D02*
X156935714Y-136295190D01*
X156270476Y-136476619D02*
X156270476Y-135871857D01*
X157540476Y-135871857D01*
X157540476Y-136476619D01*
X156270476Y-137020905D02*
X157540476Y-137020905D01*
X156270476Y-137746619D01*
X157540476Y-137746619D01*
X158810476Y-135629952D02*
X159415238Y-135206619D01*
X158810476Y-134904238D02*
X160080476Y-134904238D01*
X160080476Y-135388047D01*
X160020000Y-135509000D01*
X159959524Y-135569476D01*
X159838571Y-135629952D01*
X159657143Y-135629952D01*
X159536190Y-135569476D01*
X159475714Y-135509000D01*
X159415238Y-135388047D01*
X159415238Y-134904238D01*
X158870952Y-136113762D02*
X158810476Y-136295190D01*
X158810476Y-136597571D01*
X158870952Y-136718524D01*
X158931429Y-136779000D01*
X159052381Y-136839476D01*
X159173333Y-136839476D01*
X159294286Y-136779000D01*
X159354762Y-136718524D01*
X159415238Y-136597571D01*
X159475714Y-136355667D01*
X159536190Y-136234714D01*
X159596667Y-136174238D01*
X159717619Y-136113762D01*
X159838571Y-136113762D01*
X159959524Y-136174238D01*
X160020000Y-136234714D01*
X160080476Y-136355667D01*
X160080476Y-136658047D01*
X160020000Y-136839476D01*
X160080476Y-137202333D02*
X160080476Y-137928048D01*
X158810476Y-137565191D02*
X160080476Y-137565191D01*
X161410952Y-134783286D02*
X161350476Y-134964714D01*
X161350476Y-135267095D01*
X161410952Y-135388048D01*
X161471429Y-135448524D01*
X161592381Y-135509000D01*
X161713333Y-135509000D01*
X161834286Y-135448524D01*
X161894762Y-135388048D01*
X161955238Y-135267095D01*
X162015714Y-135025191D01*
X162076190Y-134904238D01*
X162136667Y-134843762D01*
X162257619Y-134783286D01*
X162378571Y-134783286D01*
X162499524Y-134843762D01*
X162560000Y-134904238D01*
X162620476Y-135025191D01*
X162620476Y-135327571D01*
X162560000Y-135509000D01*
X161350476Y-136053286D02*
X162620476Y-136053286D01*
X162620476Y-136355667D01*
X162560000Y-136537095D01*
X162439048Y-136658048D01*
X162318095Y-136718524D01*
X162076190Y-136779000D01*
X161894762Y-136779000D01*
X161652857Y-136718524D01*
X161531905Y-136658048D01*
X161410952Y-136537095D01*
X161350476Y-136355667D01*
X161350476Y-136053286D01*
X161350476Y-137928048D02*
X161350476Y-137323286D01*
X162620476Y-137323286D01*
X163442952Y-134849810D02*
X163382476Y-135031238D01*
X163382476Y-135333619D01*
X163442952Y-135454572D01*
X163503429Y-135515048D01*
X163624381Y-135575524D01*
X163745333Y-135575524D01*
X163866286Y-135515048D01*
X163926762Y-135454572D01*
X163987238Y-135333619D01*
X164047714Y-135091715D01*
X164108190Y-134970762D01*
X164168667Y-134910286D01*
X164289619Y-134849810D01*
X164410571Y-134849810D01*
X164531524Y-134910286D01*
X164592000Y-134970762D01*
X164652476Y-135091715D01*
X164652476Y-135394095D01*
X164592000Y-135575524D01*
X163382476Y-136119810D02*
X164652476Y-136119810D01*
X164652476Y-136422191D01*
X164592000Y-136603619D01*
X164471048Y-136724572D01*
X164350095Y-136785048D01*
X164108190Y-136845524D01*
X163926762Y-136845524D01*
X163684857Y-136785048D01*
X163563905Y-136724572D01*
X163442952Y-136603619D01*
X163382476Y-136422191D01*
X163382476Y-136119810D01*
X163745333Y-137329334D02*
X163745333Y-137934096D01*
X163382476Y-137208381D02*
X164652476Y-137631715D01*
X163382476Y-138055048D01*
X167700476Y-137039048D02*
X167700476Y-136434286D01*
X167095714Y-136373810D01*
X167156190Y-136434286D01*
X167216667Y-136555238D01*
X167216667Y-136857619D01*
X167156190Y-136978572D01*
X167095714Y-137039048D01*
X166974762Y-137099524D01*
X166672381Y-137099524D01*
X166551429Y-137039048D01*
X166490952Y-136978572D01*
X166430476Y-136857619D01*
X166430476Y-136555238D01*
X166490952Y-136434286D01*
X166551429Y-136373810D01*
X167700476Y-137462381D02*
X166430476Y-137885715D01*
X167700476Y-138309048D01*
D12*
X155956000Y-140817600D02*
X155194000Y-140817600D01*
X158496000Y-140817600D02*
X157734000Y-140817600D01*
X161036000Y-140817600D02*
X160274000Y-140817600D01*
X163576000Y-140817600D02*
X162814000Y-140817600D01*
X166116000Y-140817600D02*
X165354000Y-140817600D01*
X132080000Y-132588000D02*
X132080000Y-134162800D01*
X148996400Y-132588000D02*
X132080000Y-132588000D01*
X163195000Y-132588000D02*
X162153600Y-132588000D01*
X163195000Y-134162800D02*
X163195000Y-132588000D01*
X132080000Y-134162800D02*
X163195000Y-134162800D01*
X106680000Y-139242800D02*
X106680000Y-140055600D01*
X132080000Y-140817600D02*
X132080000Y-139242800D01*
X133731000Y-140817600D02*
X132080000Y-140817600D01*
X153416000Y-140817600D02*
X146913600Y-140817600D01*
X175031400Y-140817600D02*
X168300400Y-140817600D01*
X188595000Y-139242800D02*
X132080000Y-139242800D01*
X102870000Y-139242800D02*
X106680000Y-139242800D01*
D13*
X102870000Y-143510000D02*
X102870000Y-124460000D01*
X188595000Y-124460000D02*
X188595000Y-143510000D01*
X102870000Y-124460000D02*
X188595000Y-124460000D01*
X188595000Y-143510000D02*
X102870000Y-143510000D01*
X131115000Y-141973000D02*
X130865000Y-141973000D01*
X107315000Y-141973000D02*
X107565000Y-141973000D01*
X107315000Y-138223000D02*
X102815000Y-138223000D01*
X107315000Y-141973000D02*
X107315000Y-138223000D01*
X131115000Y-128223000D02*
X131115000Y-141973000D01*
X102815000Y-128223000D02*
X131115000Y-128223000D01*
D14*
X125984000Y-127635000D02*
X131445000Y-127635000D01*
X131445000Y-127635000D02*
X131445000Y-125095000D01*
X131445000Y-125095000D02*
X125984000Y-125095000D01*
X126365000Y-125095000D02*
X126365000Y-127635000D01*
X126238000Y-125095000D02*
X126238000Y-127635000D01*
X126111000Y-125095000D02*
X126111000Y-127635000D01*
X125984000Y-125095000D02*
X125984000Y-127635000D01*
X108077000Y-125222000D02*
X104013000Y-125222000D01*
X104013000Y-125222000D02*
X104013000Y-127508000D01*
X104013000Y-127508000D02*
X108077000Y-127508000D01*
X108077000Y-127508000D02*
X108077000Y-125222000D01*
X109982000Y-125476000D02*
X113538000Y-125476000D01*
X113538000Y-125476000D02*
X113538000Y-127254000D01*
X113538000Y-127254000D02*
X109982000Y-127254000D01*
X109982000Y-127254000D02*
X109982000Y-125476000D01*
X143764000Y-124587000D02*
X143764000Y-128143000D01*
X143764000Y-128143000D02*
X141986000Y-128143000D01*
X141986000Y-128143000D02*
X141986000Y-124587000D01*
X141986000Y-124587000D02*
X143764000Y-124587000D01*
X143764000Y-128397000D02*
X143764000Y-131953000D01*
X143764000Y-131953000D02*
X141986000Y-131953000D01*
X141986000Y-131953000D02*
X141986000Y-128397000D01*
X141986000Y-128397000D02*
X143764000Y-128397000D01*
X146304000Y-124587000D02*
X146304000Y-128143000D01*
X146304000Y-128143000D02*
X144526000Y-128143000D01*
X144526000Y-128143000D02*
X144526000Y-124587000D01*
X144526000Y-124587000D02*
X146304000Y-124587000D01*
X146304000Y-128397000D02*
X146304000Y-131953000D01*
X146304000Y-131953000D02*
X144526000Y-131953000D01*
X144526000Y-131953000D02*
X144526000Y-128397000D01*
X144526000Y-128397000D02*
X146304000Y-128397000D01*
X148844000Y-124587000D02*
X148844000Y-128143000D01*
X148844000Y-128143000D02*
X147066000Y-128143000D01*
X147066000Y-128143000D02*
X147066000Y-124587000D01*
X147066000Y-124587000D02*
X148844000Y-124587000D01*
X148844000Y-128397000D02*
X148844000Y-131953000D01*
X148844000Y-131953000D02*
X147066000Y-131953000D01*
X147066000Y-131953000D02*
X147066000Y-128397000D01*
X147066000Y-128397000D02*
X148844000Y-128397000D01*
X166960000Y-130215000D02*
X170860000Y-130215000D01*
X170860000Y-135215000D02*
X169545000Y-135215000D01*
X168275000Y-135215000D02*
X166960000Y-135215000D01*
X170110000Y-130215000D02*
X170110000Y-135215000D01*
X166960000Y-134112000D02*
X166960000Y-133858000D01*
X166960000Y-132842000D02*
X166960000Y-132588000D01*
X166960000Y-131572000D02*
X166960000Y-131318000D01*
X170860000Y-134112000D02*
X170860000Y-133858000D01*
X170860000Y-132842000D02*
X170860000Y-132588000D01*
X170860000Y-131572000D02*
X170860000Y-131318000D01*
X169545000Y-135215000D02*
G75*
G03X168275000Y-135215000I-635000J0D01*
G01*
X137033000Y-131445000D02*
X134747000Y-131445000D01*
X137033000Y-131826000D02*
X137033000Y-127508000D01*
X137033000Y-127508000D02*
X134747000Y-127508000D01*
X134747000Y-127508000D02*
X134747000Y-131826000D01*
X134747000Y-131826000D02*
X137033000Y-131826000D01*
X137033000Y-131572000D02*
X134747000Y-131572000D01*
X137033000Y-131699000D02*
X134747000Y-131699000D01*
X115570000Y-127508000D02*
X115570000Y-125222000D01*
X115189000Y-127508000D02*
X119507000Y-127508000D01*
X119507000Y-127508000D02*
X119507000Y-125222000D01*
X119507000Y-125222000D02*
X115189000Y-125222000D01*
X115189000Y-125222000D02*
X115189000Y-127508000D01*
X115443000Y-127508000D02*
X115443000Y-125222000D01*
X115316000Y-127508000D02*
X115316000Y-125222000D01*
X139319000Y-127762000D02*
X139319000Y-131318000D01*
X139319000Y-131318000D02*
X137541000Y-131318000D01*
X137541000Y-131318000D02*
X137541000Y-127762000D01*
X137541000Y-127762000D02*
X139319000Y-127762000D01*
X121412000Y-125476000D02*
X124968000Y-125476000D01*
X124968000Y-125476000D02*
X124968000Y-127254000D01*
X124968000Y-127254000D02*
X121412000Y-127254000D01*
X121412000Y-127254000D02*
X121412000Y-125476000D01*
X157353000Y-128524000D02*
X153797000Y-128524000D01*
X153797000Y-128524000D02*
X153797000Y-126746000D01*
X153797000Y-126746000D02*
X157353000Y-126746000D01*
X157353000Y-126746000D02*
X157353000Y-128524000D01*
X176705000Y-136985000D02*
X176705000Y-130985000D01*
X182705000Y-130985000D02*
X182705000Y-136985000D01*
D15*
X180594000Y-128143000D02*
X176403000Y-128143000D01*
X176403000Y-124587000D02*
X180594000Y-124587000D01*
X180594000Y-124587000D02*
X180594000Y-124968000D01*
X176403000Y-124587000D02*
X176403000Y-124968000D01*
X180594000Y-128143000D02*
X180594000Y-127762000D01*
X176403000Y-128143000D02*
X176403000Y-127762000D01*
D13*
G36*
X178181000Y-124587000D02*
X177419000Y-124587000D01*
X177419000Y-128143000D01*
X178181000Y-128143000D01*
X178181000Y-124587000D01*
G37*
X178181000Y-124587000D02*
X177419000Y-124587000D01*
X177419000Y-128143000D01*
X178181000Y-128143000D01*
X178181000Y-124587000D01*
X161235000Y-128365000D02*
X161235000Y-124365000D01*
X170535000Y-124365000D02*
X161235000Y-124365000D01*
X170535000Y-128365000D02*
X161235000Y-128365000D01*
X170235000Y-128365000D02*
X170235000Y-124365000D01*
X170435000Y-128365000D02*
X170435000Y-124365000D01*
X170335000Y-128365000D02*
X170335000Y-124365000D01*
X170535000Y-128365000D02*
X170535000Y-124365000D01*
D14*
X169433810Y-141827381D02*
X169433810Y-142541667D01*
X169386190Y-142684524D01*
X169290952Y-142779762D01*
X169148095Y-142827381D01*
X169052857Y-142827381D01*
X170433810Y-142827381D02*
X169862381Y-142827381D01*
X170148095Y-142827381D02*
X170148095Y-141827381D01*
X170052857Y-141970238D01*
X169957619Y-142065476D01*
X169862381Y-142113095D01*
X128190524Y-129397143D02*
X128142905Y-129444762D01*
X128000048Y-129492381D01*
X127904810Y-129492381D01*
X127761952Y-129444762D01*
X127666714Y-129349524D01*
X127619095Y-129254286D01*
X127571476Y-129063810D01*
X127571476Y-128920952D01*
X127619095Y-128730476D01*
X127666714Y-128635238D01*
X127761952Y-128540000D01*
X127904810Y-128492381D01*
X128000048Y-128492381D01*
X128142905Y-128540000D01*
X128190524Y-128587619D01*
X128571476Y-128587619D02*
X128619095Y-128540000D01*
X128714333Y-128492381D01*
X128952429Y-128492381D01*
X129047667Y-128540000D01*
X129095286Y-128587619D01*
X129142905Y-128682857D01*
X129142905Y-128778095D01*
X129095286Y-128920952D01*
X128523857Y-129492381D01*
X129142905Y-129492381D01*
X104441524Y-129397143D02*
X104393905Y-129444762D01*
X104251048Y-129492381D01*
X104155810Y-129492381D01*
X104012952Y-129444762D01*
X103917714Y-129349524D01*
X103870095Y-129254286D01*
X103822476Y-129063810D01*
X103822476Y-128920952D01*
X103870095Y-128730476D01*
X103917714Y-128635238D01*
X104012952Y-128540000D01*
X104155810Y-128492381D01*
X104251048Y-128492381D01*
X104393905Y-128540000D01*
X104441524Y-128587619D01*
X105393905Y-129492381D02*
X104822476Y-129492381D01*
X105108190Y-129492381D02*
X105108190Y-128492381D01*
X105012952Y-128635238D01*
X104917714Y-128730476D01*
X104822476Y-128778095D01*
X112569524Y-129397143D02*
X112521905Y-129444762D01*
X112379048Y-129492381D01*
X112283810Y-129492381D01*
X112140952Y-129444762D01*
X112045714Y-129349524D01*
X111998095Y-129254286D01*
X111950476Y-129063810D01*
X111950476Y-128920952D01*
X111998095Y-128730476D01*
X112045714Y-128635238D01*
X112140952Y-128540000D01*
X112283810Y-128492381D01*
X112379048Y-128492381D01*
X112521905Y-128540000D01*
X112569524Y-128587619D01*
X112902857Y-128492381D02*
X113521905Y-128492381D01*
X113188571Y-128873333D01*
X113331429Y-128873333D01*
X113426667Y-128920952D01*
X113474286Y-128968571D01*
X113521905Y-129063810D01*
X113521905Y-129301905D01*
X113474286Y-129397143D01*
X113426667Y-129444762D01*
X113331429Y-129492381D01*
X113045714Y-129492381D01*
X112950476Y-129444762D01*
X112902857Y-129397143D01*
X150193381Y-127841476D02*
X149717190Y-128174810D01*
X150193381Y-128412905D02*
X149193381Y-128412905D01*
X149193381Y-128031952D01*
X149241000Y-127936714D01*
X149288619Y-127889095D01*
X149383857Y-127841476D01*
X149526714Y-127841476D01*
X149621952Y-127889095D01*
X149669571Y-127936714D01*
X149717190Y-128031952D01*
X149717190Y-128412905D01*
X149288619Y-127460524D02*
X149241000Y-127412905D01*
X149193381Y-127317667D01*
X149193381Y-127079571D01*
X149241000Y-126984333D01*
X149288619Y-126936714D01*
X149383857Y-126889095D01*
X149479095Y-126889095D01*
X149621952Y-126936714D01*
X150193381Y-127508143D01*
X150193381Y-126889095D01*
X150193381Y-129873476D02*
X149717190Y-130206810D01*
X150193381Y-130444905D02*
X149193381Y-130444905D01*
X149193381Y-130063952D01*
X149241000Y-129968714D01*
X149288619Y-129921095D01*
X149383857Y-129873476D01*
X149526714Y-129873476D01*
X149621952Y-129921095D01*
X149669571Y-129968714D01*
X149717190Y-130063952D01*
X149717190Y-130444905D01*
X149193381Y-129540143D02*
X149193381Y-128921095D01*
X149574333Y-129254429D01*
X149574333Y-129111571D01*
X149621952Y-129016333D01*
X149669571Y-128968714D01*
X149764810Y-128921095D01*
X150002905Y-128921095D01*
X150098143Y-128968714D01*
X150145762Y-129016333D01*
X150193381Y-129111571D01*
X150193381Y-129397286D01*
X150145762Y-129492524D01*
X150098143Y-129540143D01*
X151590381Y-127841476D02*
X151114190Y-128174810D01*
X151590381Y-128412905D02*
X150590381Y-128412905D01*
X150590381Y-128031952D01*
X150638000Y-127936714D01*
X150685619Y-127889095D01*
X150780857Y-127841476D01*
X150923714Y-127841476D01*
X151018952Y-127889095D01*
X151066571Y-127936714D01*
X151114190Y-128031952D01*
X151114190Y-128412905D01*
X150923714Y-126984333D02*
X151590381Y-126984333D01*
X150542762Y-127222429D02*
X151257048Y-127460524D01*
X151257048Y-126841476D01*
X151590381Y-129873476D02*
X151114190Y-130206810D01*
X151590381Y-130444905D02*
X150590381Y-130444905D01*
X150590381Y-130063952D01*
X150638000Y-129968714D01*
X150685619Y-129921095D01*
X150780857Y-129873476D01*
X150923714Y-129873476D01*
X151018952Y-129921095D01*
X151066571Y-129968714D01*
X151114190Y-130063952D01*
X151114190Y-130444905D01*
X150590381Y-128968714D02*
X150590381Y-129444905D01*
X151066571Y-129492524D01*
X151018952Y-129444905D01*
X150971333Y-129349667D01*
X150971333Y-129111571D01*
X151018952Y-129016333D01*
X151066571Y-128968714D01*
X151161810Y-128921095D01*
X151399905Y-128921095D01*
X151495143Y-128968714D01*
X151542762Y-129016333D01*
X151590381Y-129111571D01*
X151590381Y-129349667D01*
X151542762Y-129444905D01*
X151495143Y-129492524D01*
X152860381Y-126317476D02*
X152384190Y-126650810D01*
X152860381Y-126888905D02*
X151860381Y-126888905D01*
X151860381Y-126507952D01*
X151908000Y-126412714D01*
X151955619Y-126365095D01*
X152050857Y-126317476D01*
X152193714Y-126317476D01*
X152288952Y-126365095D01*
X152336571Y-126412714D01*
X152384190Y-126507952D01*
X152384190Y-126888905D01*
X151860381Y-125460333D02*
X151860381Y-125650810D01*
X151908000Y-125746048D01*
X151955619Y-125793667D01*
X152098476Y-125888905D01*
X152288952Y-125936524D01*
X152669905Y-125936524D01*
X152765143Y-125888905D01*
X152812762Y-125841286D01*
X152860381Y-125746048D01*
X152860381Y-125555571D01*
X152812762Y-125460333D01*
X152765143Y-125412714D01*
X152669905Y-125365095D01*
X152431810Y-125365095D01*
X152336571Y-125412714D01*
X152288952Y-125460333D01*
X152241333Y-125555571D01*
X152241333Y-125746048D01*
X152288952Y-125841286D01*
X152336571Y-125888905D01*
X152431810Y-125936524D01*
X152987381Y-129873476D02*
X152511190Y-130206810D01*
X152987381Y-130444905D02*
X151987381Y-130444905D01*
X151987381Y-130063952D01*
X152035000Y-129968714D01*
X152082619Y-129921095D01*
X152177857Y-129873476D01*
X152320714Y-129873476D01*
X152415952Y-129921095D01*
X152463571Y-129968714D01*
X152511190Y-130063952D01*
X152511190Y-130444905D01*
X151987381Y-129540143D02*
X151987381Y-128873476D01*
X152987381Y-129302048D01*
X169656095Y-135477381D02*
X169656095Y-136286905D01*
X169703714Y-136382143D01*
X169751333Y-136429762D01*
X169846571Y-136477381D01*
X170037048Y-136477381D01*
X170132286Y-136429762D01*
X170179905Y-136382143D01*
X170227524Y-136286905D01*
X170227524Y-135477381D01*
X170656095Y-135572619D02*
X170703714Y-135525000D01*
X170798952Y-135477381D01*
X171037048Y-135477381D01*
X171132286Y-135525000D01*
X171179905Y-135572619D01*
X171227524Y-135667857D01*
X171227524Y-135763095D01*
X171179905Y-135905952D01*
X170608476Y-136477381D01*
X171227524Y-136477381D01*
X134350143Y-131016476D02*
X134397762Y-131064095D01*
X134445381Y-131206952D01*
X134445381Y-131302190D01*
X134397762Y-131445048D01*
X134302524Y-131540286D01*
X134207286Y-131587905D01*
X134016810Y-131635524D01*
X133873952Y-131635524D01*
X133683476Y-131587905D01*
X133588238Y-131540286D01*
X133493000Y-131445048D01*
X133445381Y-131302190D01*
X133445381Y-131206952D01*
X133493000Y-131064095D01*
X133540619Y-131016476D01*
X133778714Y-130159333D02*
X134445381Y-130159333D01*
X133397762Y-130397429D02*
X134112048Y-130635524D01*
X134112048Y-130016476D01*
X115363524Y-129397143D02*
X115315905Y-129444762D01*
X115173048Y-129492381D01*
X115077810Y-129492381D01*
X114934952Y-129444762D01*
X114839714Y-129349524D01*
X114792095Y-129254286D01*
X114744476Y-129063810D01*
X114744476Y-128920952D01*
X114792095Y-128730476D01*
X114839714Y-128635238D01*
X114934952Y-128540000D01*
X115077810Y-128492381D01*
X115173048Y-128492381D01*
X115315905Y-128540000D01*
X115363524Y-128587619D01*
X116268286Y-128492381D02*
X115792095Y-128492381D01*
X115744476Y-128968571D01*
X115792095Y-128920952D01*
X115887333Y-128873333D01*
X116125429Y-128873333D01*
X116220667Y-128920952D01*
X116268286Y-128968571D01*
X116315905Y-129063810D01*
X116315905Y-129301905D01*
X116268286Y-129397143D01*
X116220667Y-129444762D01*
X116125429Y-129492381D01*
X115887333Y-129492381D01*
X115792095Y-129444762D01*
X115744476Y-129397143D01*
X140573143Y-131270476D02*
X140620762Y-131318095D01*
X140668381Y-131460952D01*
X140668381Y-131556190D01*
X140620762Y-131699048D01*
X140525524Y-131794286D01*
X140430286Y-131841905D01*
X140239810Y-131889524D01*
X140096952Y-131889524D01*
X139906476Y-131841905D01*
X139811238Y-131794286D01*
X139716000Y-131699048D01*
X139668381Y-131556190D01*
X139668381Y-131460952D01*
X139716000Y-131318095D01*
X139763619Y-131270476D01*
X139668381Y-130413333D02*
X139668381Y-130603810D01*
X139716000Y-130699048D01*
X139763619Y-130746667D01*
X139906476Y-130841905D01*
X140096952Y-130889524D01*
X140477905Y-130889524D01*
X140573143Y-130841905D01*
X140620762Y-130794286D01*
X140668381Y-130699048D01*
X140668381Y-130508571D01*
X140620762Y-130413333D01*
X140573143Y-130365714D01*
X140477905Y-130318095D01*
X140239810Y-130318095D01*
X140144571Y-130365714D01*
X140096952Y-130413333D01*
X140049333Y-130508571D01*
X140049333Y-130699048D01*
X140096952Y-130794286D01*
X140144571Y-130841905D01*
X140239810Y-130889524D01*
X122221524Y-129492381D02*
X121888190Y-129016190D01*
X121650095Y-129492381D02*
X121650095Y-128492381D01*
X122031048Y-128492381D01*
X122126286Y-128540000D01*
X122173905Y-128587619D01*
X122221524Y-128682857D01*
X122221524Y-128825714D01*
X122173905Y-128920952D01*
X122126286Y-128968571D01*
X122031048Y-129016190D01*
X121650095Y-129016190D01*
X123173905Y-129492381D02*
X122602476Y-129492381D01*
X122888190Y-129492381D02*
X122888190Y-128492381D01*
X122792952Y-128635238D01*
X122697714Y-128730476D01*
X122602476Y-128778095D01*
X154987524Y-129873381D02*
X154654190Y-129397190D01*
X154416095Y-129873381D02*
X154416095Y-128873381D01*
X154797048Y-128873381D01*
X154892286Y-128921000D01*
X154939905Y-128968619D01*
X154987524Y-129063857D01*
X154987524Y-129206714D01*
X154939905Y-129301952D01*
X154892286Y-129349571D01*
X154797048Y-129397190D01*
X154416095Y-129397190D01*
X155939905Y-129873381D02*
X155368476Y-129873381D01*
X155654190Y-129873381D02*
X155654190Y-128873381D01*
X155558952Y-129016238D01*
X155463714Y-129111476D01*
X155368476Y-129159095D01*
X156320857Y-128968619D02*
X156368476Y-128921000D01*
X156463714Y-128873381D01*
X156701810Y-128873381D01*
X156797048Y-128921000D01*
X156844667Y-128968619D01*
X156892286Y-129063857D01*
X156892286Y-129159095D01*
X156844667Y-129301952D01*
X156273238Y-129873381D01*
X156892286Y-129873381D01*
X176355381Y-130603714D02*
X176355381Y-131079905D01*
X175355381Y-131079905D01*
X176355381Y-129746571D02*
X176355381Y-130318000D01*
X176355381Y-130032286D02*
X175355381Y-130032286D01*
X175498238Y-130127524D01*
X175593476Y-130222762D01*
X175641095Y-130318000D01*
X180959095Y-128857381D02*
X180959095Y-127857381D01*
X181197190Y-127857381D01*
X181340048Y-127905000D01*
X181435286Y-128000238D01*
X181482905Y-128095476D01*
X181530524Y-128285952D01*
X181530524Y-128428810D01*
X181482905Y-128619286D01*
X181435286Y-128714524D01*
X181340048Y-128809762D01*
X181197190Y-128857381D01*
X180959095Y-128857381D01*
X182482905Y-128857381D02*
X181911476Y-128857381D01*
X182197190Y-128857381D02*
X182197190Y-127857381D01*
X182101952Y-128000238D01*
X182006714Y-128095476D01*
X181911476Y-128143095D01*
X161845524Y-129651143D02*
X161797905Y-129698762D01*
X161655048Y-129746381D01*
X161559810Y-129746381D01*
X161416952Y-129698762D01*
X161321714Y-129603524D01*
X161274095Y-129508286D01*
X161226476Y-129317810D01*
X161226476Y-129174952D01*
X161274095Y-128984476D01*
X161321714Y-128889238D01*
X161416952Y-128794000D01*
X161559810Y-128746381D01*
X161655048Y-128746381D01*
X161797905Y-128794000D01*
X161845524Y-128841619D01*
X162178857Y-128746381D02*
X162845524Y-128746381D01*
X162416952Y-129746381D01*
X140787381Y-128635047D02*
X140787381Y-129206476D01*
X140787381Y-128920762D02*
X139787381Y-128920762D01*
X139930238Y-129016000D01*
X140025476Y-129111238D01*
X140073095Y-129206476D01*
X139882619Y-128254095D02*
X139835000Y-128206476D01*
X139787381Y-128111238D01*
X139787381Y-127873142D01*
X139835000Y-127777904D01*
X139882619Y-127730285D01*
X139977857Y-127682666D01*
X140073095Y-127682666D01*
X140215952Y-127730285D01*
X140787381Y-128301714D01*
X140787381Y-127682666D01*
X139787381Y-127396952D02*
X140787381Y-127063619D01*
X139787381Y-126730285D01*
X134112096Y-125230000D02*
X134016858Y-125182381D01*
X133874001Y-125182381D01*
X133731143Y-125230000D01*
X133635905Y-125325238D01*
X133588286Y-125420476D01*
X133540667Y-125610952D01*
X133540667Y-125753810D01*
X133588286Y-125944286D01*
X133635905Y-126039524D01*
X133731143Y-126134762D01*
X133874001Y-126182381D01*
X133969239Y-126182381D01*
X134112096Y-126134762D01*
X134159715Y-126087143D01*
X134159715Y-125753810D01*
X133969239Y-125753810D01*
X134588286Y-126182381D02*
X134588286Y-125182381D01*
X135159715Y-126182381D01*
X135159715Y-125182381D01*
X135635905Y-126182381D02*
X135635905Y-125182381D01*
X135874000Y-125182381D01*
X136016858Y-125230000D01*
X136112096Y-125325238D01*
X136159715Y-125420476D01*
X136207334Y-125610952D01*
X136207334Y-125753810D01*
X136159715Y-125944286D01*
X136112096Y-126039524D01*
X136016858Y-126134762D01*
X135874000Y-126182381D01*
X135635905Y-126182381D01*
M02*
