M48
INCH,TZ
T1C0.0180
T2C0.0240
%
G90
G05
T1
X37250Y-50000
X38250Y-54500
X38500Y-53500
X38500Y-51000
X38750Y-49750
X42750Y-52790
X45750Y-52250
X46500Y-54250
X47750Y-54250
X47750Y-54750
X48250Y-52250
X52750Y-53000
X52750Y-54500
X62750Y-54500
X63750Y-54500
X64750Y-54500
T2
X35750Y-53750
X36750Y-49500
X41000Y-54000
X41250Y-56000
X42500Y-52000
X42750Y-54000
X42750Y-54750
X43000Y-50750
X43750Y-50750
X43750Y-54750
X44000Y-53750
X44500Y-50750
X44750Y-53750
X45000Y-49750
X45000Y-50250
X45250Y-54500
X46000Y-50500
X46000Y-53750
X46250Y-51750
X46750Y-50500
X47500Y-49750
X47500Y-50500
X48750Y-52750
X48750Y-50500
X48750Y-51750
X49000Y-53750
X49500Y-49750
X49500Y-50500
X50250Y-54000
X50250Y-54750
X51300Y-50600
X51750Y-54000
X51750Y-54750
X52000Y-52250
X52100Y-49800
X52100Y-50600
X53500Y-50000
X54500Y-50000
X55000Y-54250
X56250Y-49750
X56250Y-50750
X56500Y-53500
X58250Y-51000
X58500Y-54500
X58500Y-56000
X59000Y-51000
X59250Y-54500
X59250Y-56000
X59750Y-51000
X60000Y-54500
X60000Y-56000
X60750Y-54500
X61750Y-51750
X62250Y-53500
X62750Y-49500
X62750Y-50250
X62750Y-51000
X67250Y-51500
X68000Y-51500
X68000Y-52250
X68000Y-53000
X68000Y-53750
X68750Y-51500
X70250Y-53750
X70250Y-54500
X70750Y-50750
X70750Y-51500
X71000Y-53750
X71000Y-54500
X71500Y-50250
X72500Y-50250
X73500Y-50250
T0
M30
