M48
INCH,TZ
T1C0.0180
T2C0.0200
T3C0.0240
T4C0.0394
T5C0.0650
T6C0.0890
T7C0.1160
T8C0.1550
T9C0.0300
%
G90
G05
T1
X35000Y-35250
X35000Y-40000
X35500Y-24500
X36500Y-29000
X36750Y-28000
X36750Y-25500
X37000Y-24250
X40250Y-45750
X41000Y-27290
X41500Y-32750
X42500Y-41250
X44000Y-26750
X44750Y-28750
X45000Y-37000
X46000Y-28750
X46000Y-29250
X46500Y-26750
X51000Y-27500
X51000Y-29000
X59250Y-45250
X60250Y-52500
X60250Y-53000
X60255Y-45255
X61000Y-29000
X62000Y-29000
X63000Y-29000
X64000Y-51500
X64000Y-55250
X65250Y-53750
X65750Y-47750
X66750Y-43500
X67500Y-56500
X68000Y-50250
X68000Y-51250
X68000Y-57500
X69250Y-46000
X70750Y-54250
X71750Y-47750
X72000Y-51500
X72000Y-50750
T2
X44221Y-53550
X44221Y-54450
X45000Y-53100
X45000Y-54900
X45779Y-53550
X45779Y-54450
X67350Y-47375
X67350Y-48125
X68000Y-47000
X68000Y-48500
X68650Y-47375
X68650Y-48125
X34221Y-53550
X34221Y-54450
X35000Y-53100
X35000Y-54900
X35779Y-53550
X35779Y-54450
X67350Y-53375
X67350Y-54125
X68000Y-53000
X68000Y-54500
X68650Y-53375
X68650Y-54125
X59600Y-48375
X59600Y-49125
X60250Y-48000
X60250Y-49500
X60900Y-48375
X60900Y-49125
T3
X34000Y-28250
X35000Y-24000
X35213Y-33982
X36000Y-34000
X36750Y-35500
X36750Y-37250
X36750Y-40000
X37000Y-33000
X37000Y-39250
X37250Y-43500
X37250Y-45250
X37250Y-45750
X37250Y-47250
X38000Y-43500
X38000Y-45250
X38000Y-45750
X38000Y-47250
X38250Y-40000
X38750Y-43500
X38750Y-47250
X39250Y-28500
X39250Y-40000
X39250Y-45750
X39500Y-30500
X39500Y-34000
X39500Y-43500
X39500Y-47250
X40250Y-43500
X40250Y-47250
X40750Y-26500
X41000Y-28500
X41000Y-29250
X41250Y-25250
X42000Y-25250
X42000Y-29250
X42250Y-28250
X42715Y-44535
X42750Y-25250
X42750Y-45500
X42750Y-47000
X43000Y-28250
X43250Y-24250
X43250Y-24750
X43500Y-29000
X44250Y-25000
X44250Y-28250
X44250Y-45250
X44250Y-45750
X44500Y-26250
X44750Y-43500
X44750Y-47500
X45000Y-25000
X45000Y-45250
X45000Y-45750
X45500Y-43500
X45500Y-47500
X45750Y-24250
X45750Y-25000
X45750Y-45250
X45750Y-45750
X46250Y-43500
X46250Y-47500
X47000Y-27250
X47000Y-25000
X47000Y-26250
X47000Y-43500
X47000Y-47500
X47250Y-28250
X47750Y-24250
X47750Y-25000
X47750Y-43500
X47750Y-47500
X48500Y-28500
X48500Y-29250
X49550Y-25100
X50000Y-28500
X50000Y-29250
X50250Y-26750
X50350Y-24300
X50350Y-25100
X51750Y-24500
X52750Y-24500
X53250Y-28750
X54500Y-24250
X54500Y-25250
X54750Y-28000
X56500Y-25500
X56750Y-29000
X56750Y-30500
X57250Y-25500
X57500Y-29000
X57500Y-30500
X58000Y-25500
X58250Y-29000
X58250Y-30500
X58750Y-49250
X58750Y-49750
X59000Y-29000
X59250Y-49750
X60000Y-26250
X60250Y-46500
X60250Y-47250
X60250Y-50250
X60250Y-51000
X60500Y-28000
X61000Y-24000
X61000Y-24750
X61000Y-25500
X61261Y-47739
X61750Y-47750
X61750Y-48250
X64000Y-45250
X64000Y-45750
X64000Y-46250
X64250Y-56000
X64500Y-45250
X64750Y-56500
X65250Y-57000
X65500Y-26000
X65500Y-45750
X65500Y-46250
X65750Y-57500
X66000Y-45750
X66000Y-46250
X66000Y-55250
X66000Y-55750
X66250Y-26000
X66250Y-26750
X66250Y-27500
X66250Y-28250
X66250Y-49750
X66250Y-50250
X66250Y-51250
X66250Y-51750
X66250Y-58000
X66500Y-45750
X66500Y-46250
X66500Y-55250
X66500Y-55750
X66750Y-49250
X66750Y-49750
X66750Y-50250
X66750Y-51250
X66750Y-51750
X66750Y-52250
X67000Y-26000
X68500Y-28250
X68500Y-29000
X69000Y-25250
X69000Y-26000
X69250Y-28250
X69250Y-29000
X69250Y-49250
X69250Y-49750
X69500Y-43500
X69500Y-44000
X69500Y-55250
X69500Y-55750
X69750Y-24750
X69750Y-49750
X69750Y-58000
X70000Y-43500
X70000Y-44000
X70000Y-55250
X70000Y-55750
X70250Y-57500
X70750Y-24750
X70750Y-57000
X71250Y-56500
X71500Y-45250
X71750Y-24750
X71750Y-56000
X72000Y-45250
X72000Y-45750
X72000Y-46250
T4
X39000Y-57750
X40000Y-57750
X41000Y-57750
T5
X38130Y-55000
X40000Y-55000
X41870Y-55000
T6
X68000Y-47750
X68000Y-53750
X60250Y-48750
T7
X45000Y-54000
X35000Y-54000
T8
X48000Y-45500
X35000Y-45500
T9
X54000Y-31150
X54000Y-31850
X54500Y-31150
X54500Y-31850
X55000Y-31150
X55000Y-31850
X42750Y-51850
X43250Y-51850
X43750Y-51850
X35750Y-51850
X36250Y-51850
X36750Y-51850
X35500Y-42150
X35500Y-42850
X36000Y-42150
X36000Y-42850
X36500Y-42150
X36500Y-42850
X67500Y-42150
X67500Y-42850
X68000Y-42150
X68000Y-42850
X68500Y-42150
X68500Y-42850
X35500Y-31150
X35500Y-31850
X36000Y-31150
X36000Y-31850
X36500Y-31150
X36500Y-31850
X59750Y-42150
X59750Y-42850
X60250Y-42150
X60250Y-42850
X60750Y-42150
X60750Y-42850
X57150Y-49750
X57150Y-50250
X57150Y-50750
X57850Y-49750
X57850Y-50250
X57850Y-50750
X67000Y-31150
X67000Y-31850
X67500Y-31150
X67500Y-31850
X68000Y-31150
X68000Y-31850
X44750Y-42150
X44750Y-42850
X45250Y-42150
X45250Y-42850
X45750Y-42150
X45750Y-42850
X62650Y-49750
X62650Y-50250
X62650Y-50750
X63350Y-49750
X63350Y-50250
X63350Y-50750
X41250Y-48150
X41750Y-48150
X42250Y-48150
T0
M30
