G04 #@! TF.GenerationSoftware,KiCad,Pcbnew,5.0.0-fee4fd1~65~ubuntu17.10.1*
G04 #@! TF.CreationDate,2018-10-29T15:09:50-04:00*
G04 #@! TF.ProjectId,panel,70616E656C2E6B696361645F70636200,A*
G04 #@! TF.SameCoordinates,Original*
G04 #@! TF.FileFunction,Soldermask,Bot*
G04 #@! TF.FilePolarity,Negative*
%FSLAX46Y46*%
G04 Gerber Fmt 4.6, Leading zero omitted, Abs format (unit mm)*
G04 Created by KiCad (PCBNEW 5.0.0-fee4fd1~65~ubuntu17.10.1) date Mon Oct 29 15:09:50 2018*
%MOMM*%
%LPD*%
G01*
G04 APERTURE LIST*
%ADD10C,6.750000*%
%ADD11R,2.000000X2.000000*%
%ADD12C,2.000000*%
%ADD13C,3.448000*%
%ADD14C,5.480000*%
%ADD15R,4.210000X2.940000*%
%ADD16O,3.575000X1.670000*%
%ADD17R,2.200000X2.000000*%
%ADD18R,0.560000X1.860000*%
%ADD19R,1.400000X1.500000*%
%ADD20O,4.210000X2.305000*%
%ADD21C,6.369000*%
G04 APERTURE END LIST*
D10*
G04 #@! TO.C,H1*
X114300000Y-137160000D03*
G04 #@! TD*
G04 #@! TO.C,H2*
X88900000Y-137160000D03*
G04 #@! TD*
D11*
G04 #@! TO.C,J1*
X104140000Y-146685000D03*
D12*
X101600000Y-146685000D03*
X99060000Y-146685000D03*
G04 #@! TD*
D13*
G04 #@! TO.C,SW1*
X106349800Y-139700000D03*
X101600000Y-139700000D03*
X96850200Y-139700000D03*
G04 #@! TD*
D14*
G04 #@! TO.C,H2*
X172720000Y-136525000D03*
G04 #@! TD*
G04 #@! TO.C,H1*
X172720000Y-121285000D03*
G04 #@! TD*
D15*
G04 #@! TO.C,J1*
X165735000Y-123825000D03*
G04 #@! TD*
G04 #@! TO.C,J2*
X165735000Y-133985000D03*
G04 #@! TD*
G04 #@! TO.C,J3*
X179705000Y-123825000D03*
G04 #@! TD*
G04 #@! TO.C,J4*
X179705000Y-133985000D03*
G04 #@! TD*
D16*
G04 #@! TO.C,J5*
X164465000Y-112395000D03*
G04 #@! TD*
G04 #@! TO.C,J6*
X180975000Y-112395000D03*
G04 #@! TD*
D17*
G04 #@! TO.C,C8*
X179705000Y-127505000D03*
X179705000Y-130305000D03*
G04 #@! TD*
G04 #@! TO.C,C9*
X165735000Y-127505000D03*
X165735000Y-130305000D03*
G04 #@! TD*
D18*
G04 #@! TO.C,U3*
X90790000Y-67327600D03*
X90790000Y-69527600D03*
X92090000Y-69527600D03*
X92090000Y-67327600D03*
X91440000Y-67327600D03*
X91440000Y-69527600D03*
G04 #@! TD*
D19*
G04 #@! TO.C,C8*
X88900000Y-67730000D03*
X88900000Y-69430000D03*
G04 #@! TD*
D20*
G04 #@! TO.C,J1*
X105410000Y-111760000D03*
X105410000Y-115570000D03*
X105410000Y-119380000D03*
G04 #@! TD*
D21*
G04 #@! TO.C,H1*
X121920000Y-115570000D03*
G04 #@! TD*
G04 #@! TO.C,H2*
X88900000Y-115570000D03*
G04 #@! TD*
D16*
G04 #@! TO.C,J1*
X153035000Y-113665000D03*
G04 #@! TD*
G04 #@! TO.C,J6*
X153035000Y-111125000D03*
G04 #@! TD*
D14*
G04 #@! TO.C,H1*
X153035000Y-123825000D03*
G04 #@! TD*
D15*
G04 #@! TO.C,J2*
X150495000Y-118745000D03*
G04 #@! TD*
G04 #@! TO.C,J3*
X150495000Y-128905000D03*
G04 #@! TD*
G04 #@! TO.C,J4*
X155575000Y-118745000D03*
G04 #@! TD*
G04 #@! TO.C,J5*
X155575000Y-128905000D03*
G04 #@! TD*
M02*
