G04 #@! TF.GenerationSoftware,KiCad,Pcbnew,5.0.0-fee4fd1~65~ubuntu17.10.1*
G04 #@! TF.CreationDate,2018-10-29T15:09:50-04:00*
G04 #@! TF.ProjectId,panel,70616E656C2E6B696361645F70636200,A*
G04 #@! TF.SameCoordinates,Original*
G04 #@! TF.FileFunction,Profile,NP*
%FSLAX46Y46*%
G04 Gerber Fmt 4.6, Leading zero omitted, Abs format (unit mm)*
G04 Created by KiCad (PCBNEW 5.0.0-fee4fd1~65~ubuntu17.10.1) date Mon Oct 29 15:09:50 2018*
%MOMM*%
%LPD*%
G01*
G04 APERTURE LIST*
%ADD10C,0.150000*%
G04 APERTURE END LIST*
D10*
X85090000Y-124460000D02*
X85090000Y-129540000D01*
X144780000Y-120015000D02*
X144780000Y-124460000D01*
X128270000Y-120015000D02*
X144780000Y-120015000D01*
X128270000Y-124460000D02*
X128270000Y-120015000D01*
X109220000Y-124460000D02*
X128270000Y-124460000D01*
X144780000Y-130810000D02*
G75*
G02X147320000Y-130810000I1270000J0D01*
G01*
X147320000Y-124460000D02*
G75*
G02X144780000Y-124460000I-1270000J0D01*
G01*
X120650000Y-129540000D02*
X120650000Y-138430000D01*
X144780000Y-138430000D02*
X144780000Y-130810000D01*
X120650000Y-138430000D02*
X144780000Y-138430000D01*
X147320000Y-124460000D02*
X147320000Y-109220000D01*
X147320000Y-138430000D02*
X147320000Y-130810000D01*
X158750000Y-130810000D02*
X158750000Y-138430000D01*
X161290000Y-142240000D02*
X161290000Y-130810000D01*
X158750000Y-124460000D02*
X158750000Y-109220000D01*
X161290000Y-109220000D02*
X161290000Y-124460000D01*
X156210000Y-109220000D02*
X158750000Y-109220000D01*
X149860000Y-109220000D02*
X147320000Y-109220000D01*
X158750000Y-124460000D02*
G75*
G03X161290000Y-124460000I1270000J0D01*
G01*
X161290000Y-130810000D02*
G75*
G03X158750000Y-130810000I-1270000J0D01*
G01*
X156210000Y-106680000D02*
G75*
G03X156210000Y-109220000I0J-1270000D01*
G01*
X149860000Y-109220000D02*
G75*
G03X149860000Y-106680000I0J1270000D01*
G01*
X102870000Y-121920000D02*
X85090000Y-121920000D01*
X125730000Y-121920000D02*
X109220000Y-121920000D01*
X118110000Y-109220000D02*
X125730000Y-109220000D01*
X88265000Y-109220000D02*
X85090000Y-109220000D01*
X111760000Y-109220000D02*
X94615000Y-109220000D01*
X174625000Y-78740000D02*
X184150000Y-78740000D01*
X141605000Y-78740000D02*
X168275000Y-78740000D01*
X94615000Y-78740000D02*
X135255000Y-78740000D01*
X85090000Y-78740000D02*
X88265000Y-78740000D01*
X113030000Y-129540000D02*
X120650000Y-129540000D01*
X109220000Y-121920000D02*
G75*
G03X109220000Y-124460000I0J-1270000D01*
G01*
X102870000Y-124460000D02*
G75*
G03X102870000Y-121920000I0J1270000D01*
G01*
X169545000Y-106680000D02*
X156210000Y-106680000D01*
X169545000Y-109220000D02*
X161290000Y-109220000D01*
X184150000Y-109220000D02*
X175895000Y-109220000D01*
X175895000Y-106680000D02*
X184150000Y-106680000D01*
X113030000Y-129540000D02*
G75*
G03X113030000Y-132080000I0J-1270000D01*
G01*
X106680000Y-132080000D02*
G75*
G03X106680000Y-129540000I0J1270000D01*
G01*
X95250000Y-129540000D02*
G75*
G03X95250000Y-132080000I0J-1270000D01*
G01*
X88900000Y-132080000D02*
G75*
G03X88900000Y-129540000I0J1270000D01*
G01*
X113030000Y-132080000D02*
X118110000Y-132080000D01*
X95250000Y-132080000D02*
X106680000Y-132080000D01*
X95250000Y-129540000D02*
X106680000Y-129540000D01*
X85090000Y-132080000D02*
X88900000Y-132080000D01*
X85090000Y-129540000D02*
X88900000Y-129540000D01*
X85090000Y-124460000D02*
X102870000Y-124460000D01*
X175895000Y-106680000D02*
G75*
G03X175895000Y-109220000I0J-1270000D01*
G01*
X169545000Y-109220000D02*
G75*
G03X169545000Y-106680000I0J1270000D01*
G01*
X118110000Y-106680000D02*
G75*
G03X118110000Y-109220000I0J-1270000D01*
G01*
X111760000Y-109220000D02*
G75*
G03X111760000Y-106680000I0J1270000D01*
G01*
X94615000Y-106680000D02*
G75*
G03X94615000Y-109220000I0J-1270000D01*
G01*
X88265000Y-109220000D02*
G75*
G03X88265000Y-106680000I0J1270000D01*
G01*
X85090000Y-106680000D02*
X88265000Y-106680000D01*
X111760000Y-106680000D02*
X94615000Y-106680000D01*
X149860000Y-106680000D02*
X118110000Y-106680000D01*
X174625000Y-78740000D02*
G75*
G03X174625000Y-81280000I0J-1270000D01*
G01*
X168275000Y-81280000D02*
G75*
G03X168275000Y-78740000I0J1270000D01*
G01*
X141605000Y-78740000D02*
G75*
G03X141605000Y-81280000I0J-1270000D01*
G01*
X135255000Y-81280000D02*
G75*
G03X135255000Y-78740000I0J1270000D01*
G01*
X94615000Y-78740000D02*
G75*
G03X94615000Y-81280000I0J-1270000D01*
G01*
X88265000Y-81280000D02*
G75*
G03X88265000Y-78740000I0J1270000D01*
G01*
X135255000Y-81280000D02*
X94615000Y-81280000D01*
X168275000Y-81280000D02*
X141605000Y-81280000D01*
X184150000Y-81280000D02*
X174625000Y-81280000D01*
X85090000Y-81280000D02*
X88265000Y-81280000D01*
X85090000Y-81280000D02*
X85090000Y-106680000D01*
X184150000Y-106680000D02*
X184150000Y-81280000D01*
X118110000Y-142240000D02*
X118110000Y-132080000D01*
X109220000Y-142240000D02*
X118110000Y-142240000D01*
X109220000Y-148590000D02*
X109220000Y-142240000D01*
X93980000Y-148590000D02*
X109220000Y-148590000D01*
X93980000Y-142240000D02*
X93980000Y-148590000D01*
X85090000Y-142240000D02*
X93980000Y-142240000D01*
X85090000Y-132080000D02*
X85090000Y-142240000D01*
X184150000Y-109220000D02*
X184150000Y-142240000D01*
X177800000Y-148590000D02*
X167640000Y-148590000D01*
X184150000Y-142240000D02*
X177800000Y-148590000D01*
X161290000Y-142240000D02*
X167640000Y-148590000D01*
X98425000Y-64135000D02*
G75*
G03X95885000Y-64135000I-1270000J0D01*
G01*
X98425000Y-76200000D02*
X98425000Y-64135000D01*
X95885000Y-76200000D02*
G75*
G03X98425000Y-76200000I1270000J0D01*
G01*
X95885000Y-76200000D02*
X95885000Y-64135000D01*
X85090000Y-78740000D02*
X85090000Y-59690000D01*
X184150000Y-59690000D02*
X184150000Y-78740000D01*
X85090000Y-59690000D02*
X184150000Y-59690000D01*
X85090000Y-109220000D02*
X85090000Y-121920000D01*
X125730000Y-121920000D02*
X125730000Y-109220000D01*
X147320000Y-138430000D02*
X158750000Y-138430000D01*
M02*
