G04 #@! TF.GenerationSoftware,KiCad,Pcbnew,5.0.0-fee4fd1~65~ubuntu17.10.1*
G04 #@! TF.CreationDate,2018-08-22T05:20:38-04:00*
G04 #@! TF.ProjectId,alarm-switch,616C61726D2D7377697463682E6B6963,rev?*
G04 #@! TF.SameCoordinates,Original*
G04 #@! TF.FileFunction,Legend,Bot*
G04 #@! TF.FilePolarity,Positive*
%FSLAX46Y46*%
G04 Gerber Fmt 4.6, Leading zero omitted, Abs format (unit mm)*
G04 Created by KiCad (PCBNEW 5.0.0-fee4fd1~65~ubuntu17.10.1) date Wed Aug 22 05:20:38 2018*
%MOMM*%
%LPD*%
G01*
G04 APERTURE LIST*
%ADD10C,0.300000*%
G04 APERTURE END LIST*
D10*
X127325000Y-106088571D02*
X127325000Y-104588571D01*
X126753571Y-104588571D01*
X126610714Y-104660000D01*
X126539285Y-104731428D01*
X126467857Y-104874285D01*
X126467857Y-105088571D01*
X126539285Y-105231428D01*
X126610714Y-105302857D01*
X126753571Y-105374285D01*
X127325000Y-105374285D01*
X124967857Y-105945714D02*
X125039285Y-106017142D01*
X125253571Y-106088571D01*
X125396428Y-106088571D01*
X125610714Y-106017142D01*
X125753571Y-105874285D01*
X125825000Y-105731428D01*
X125896428Y-105445714D01*
X125896428Y-105231428D01*
X125825000Y-104945714D01*
X125753571Y-104802857D01*
X125610714Y-104660000D01*
X125396428Y-104588571D01*
X125253571Y-104588571D01*
X125039285Y-104660000D01*
X124967857Y-104731428D01*
X124325000Y-105517142D02*
X123182142Y-105517142D01*
X122182142Y-104588571D02*
X122039285Y-104588571D01*
X121896428Y-104660000D01*
X121825000Y-104731428D01*
X121753571Y-104874285D01*
X121682142Y-105160000D01*
X121682142Y-105517142D01*
X121753571Y-105802857D01*
X121825000Y-105945714D01*
X121896428Y-106017142D01*
X122039285Y-106088571D01*
X122182142Y-106088571D01*
X122325000Y-106017142D01*
X122396428Y-105945714D01*
X122467857Y-105802857D01*
X122539285Y-105517142D01*
X122539285Y-105160000D01*
X122467857Y-104874285D01*
X122396428Y-104731428D01*
X122325000Y-104660000D01*
X122182142Y-104588571D01*
X120967857Y-106088571D02*
X120682142Y-106088571D01*
X120539285Y-106017142D01*
X120467857Y-105945714D01*
X120325000Y-105731428D01*
X120253571Y-105445714D01*
X120253571Y-104874285D01*
X120325000Y-104731428D01*
X120396428Y-104660000D01*
X120539285Y-104588571D01*
X120825000Y-104588571D01*
X120967857Y-104660000D01*
X121039285Y-104731428D01*
X121110714Y-104874285D01*
X121110714Y-105231428D01*
X121039285Y-105374285D01*
X120967857Y-105445714D01*
X120825000Y-105517142D01*
X120539285Y-105517142D01*
X120396428Y-105445714D01*
X120325000Y-105374285D01*
X120253571Y-105231428D01*
M02*
