G04 #@! TF.GenerationSoftware,KiCad,Pcbnew,5.0.0-fee4fd1~65~ubuntu17.10.1*
G04 #@! TF.CreationDate,2018-09-18T23:26:12-04:00*
G04 #@! TF.ProjectId,alarm-switch,616C61726D2D7377697463682E6B6963,rev?*
G04 #@! TF.SameCoordinates,Original*
G04 #@! TF.FileFunction,Legend,Top*
G04 #@! TF.FilePolarity,Positive*
%FSLAX46Y46*%
G04 Gerber Fmt 4.6, Leading zero omitted, Abs format (unit mm)*
G04 Created by KiCad (PCBNEW 5.0.0-fee4fd1~65~ubuntu17.10.1) date Tue Sep 18 23:26:12 2018*
%MOMM*%
%LPD*%
G01*
G04 APERTURE LIST*
%ADD10C,0.180000*%
G04 APERTURE END LIST*
D10*
G04 #@! TO.C,SW1*
X114173000Y-108585000D02*
X133477000Y-108585000D01*
X133477000Y-108585000D02*
X133477000Y-98425000D01*
X133477000Y-98425000D02*
X114173000Y-98425000D01*
X114173000Y-98425000D02*
X114173000Y-108585000D01*
X123190000Y-98425000D02*
X123190000Y-97282000D01*
X124460000Y-98425000D02*
X124460000Y-97282000D01*
X124460000Y-97282000D02*
G75*
G03X123190000Y-97282000I-635000J0D01*
G01*
G04 #@! TO.C,J1*
X120015000Y-92710000D02*
X127635000Y-92710000D01*
X127635000Y-92710000D02*
X127635000Y-95250000D01*
X127635000Y-95250000D02*
X120015000Y-95250000D01*
X120015000Y-95250000D02*
X120015000Y-92710000D01*
G04 #@! TO.C,SW1*
X114353476Y-97948761D02*
X114496333Y-97996380D01*
X114734428Y-97996380D01*
X114829666Y-97948761D01*
X114877285Y-97901142D01*
X114924904Y-97805904D01*
X114924904Y-97710666D01*
X114877285Y-97615428D01*
X114829666Y-97567809D01*
X114734428Y-97520190D01*
X114543952Y-97472571D01*
X114448714Y-97424952D01*
X114401095Y-97377333D01*
X114353476Y-97282095D01*
X114353476Y-97186857D01*
X114401095Y-97091619D01*
X114448714Y-97044000D01*
X114543952Y-96996380D01*
X114782047Y-96996380D01*
X114924904Y-97044000D01*
X115258238Y-96996380D02*
X115496333Y-97996380D01*
X115686809Y-97282095D01*
X115877285Y-97996380D01*
X116115380Y-96996380D01*
X117020142Y-97996380D02*
X116448714Y-97996380D01*
X116734428Y-97996380D02*
X116734428Y-96996380D01*
X116639190Y-97139238D01*
X116543952Y-97234476D01*
X116448714Y-97282095D01*
G04 #@! TO.C,J1*
X120401809Y-91027380D02*
X120401809Y-91741666D01*
X120354190Y-91884523D01*
X120258952Y-91979761D01*
X120116095Y-92027380D01*
X120020857Y-92027380D01*
X121401809Y-92027380D02*
X120830380Y-92027380D01*
X121116095Y-92027380D02*
X121116095Y-91027380D01*
X121020857Y-91170238D01*
X120925619Y-91265476D01*
X120830380Y-91313095D01*
G04 #@! TD*
M02*
