G04 #@! TF.GenerationSoftware,KiCad,Pcbnew,5.0.0-fee4fd1~65~ubuntu17.10.1*
G04 #@! TF.CreationDate,2018-10-29T15:23:50-04:00*
G04 #@! TF.ProjectId,daughterboard,6461756768746572626F6172642E6B69,rev?*
G04 #@! TF.SameCoordinates,Original*
G04 #@! TF.FileFunction,Copper,L1,Top,Signal*
G04 #@! TF.FilePolarity,Positive*
%FSLAX46Y46*%
G04 Gerber Fmt 4.6, Leading zero omitted, Abs format (unit mm)*
G04 Created by KiCad (PCBNEW 5.0.0-fee4fd1~65~ubuntu17.10.1) date Mon Oct 29 15:23:50 2018*
%MOMM*%
%LPD*%
G01*
G04 APERTURE LIST*
G04 #@! TA.AperFunction,SMDPad,CuDef*
%ADD10R,0.800000X0.400000*%
G04 #@! TD*
G04 #@! TA.AperFunction,SMDPad,CuDef*
%ADD11R,1.219200X2.235200*%
G04 #@! TD*
G04 #@! TA.AperFunction,SMDPad,CuDef*
%ADD12R,3.600000X2.200000*%
G04 #@! TD*
G04 #@! TA.AperFunction,ComponentPad*
%ADD13C,1.400000*%
G04 #@! TD*
G04 #@! TA.AperFunction,ComponentPad*
%ADD14R,1.400000X1.400000*%
G04 #@! TD*
G04 #@! TA.AperFunction,BGAPad,CuDef*
%ADD15C,1.270000*%
G04 #@! TD*
G04 #@! TA.AperFunction,SMDPad,CuDef*
%ADD16R,1.200000X3.500000*%
G04 #@! TD*
G04 #@! TA.AperFunction,SMDPad,CuDef*
%ADD17R,5.080000X2.540000*%
G04 #@! TD*
G04 #@! TA.AperFunction,SMDPad,CuDef*
%ADD18R,12.700000X2.540000*%
G04 #@! TD*
G04 #@! TA.AperFunction,ComponentPad*
%ADD19R,1.600000X1.600000*%
G04 #@! TD*
G04 #@! TA.AperFunction,ComponentPad*
%ADD20C,1.600000*%
G04 #@! TD*
G04 #@! TA.AperFunction,SMDPad,CuDef*
%ADD21R,1.000000X1.100000*%
G04 #@! TD*
G04 #@! TA.AperFunction,SMDPad,CuDef*
%ADD22R,1.100000X1.000000*%
G04 #@! TD*
G04 #@! TA.AperFunction,SMDPad,CuDef*
%ADD23R,1.500000X1.300000*%
G04 #@! TD*
G04 #@! TA.AperFunction,SMDPad,CuDef*
%ADD24R,1.300000X1.500000*%
G04 #@! TD*
G04 #@! TA.AperFunction,SMDPad,CuDef*
%ADD25R,1.200000X0.650000*%
G04 #@! TD*
G04 #@! TA.AperFunction,SMDPad,CuDef*
%ADD26R,1.500000X0.230000*%
G04 #@! TD*
G04 #@! TA.AperFunction,SMDPad,CuDef*
%ADD27R,0.230000X1.500000*%
G04 #@! TD*
G04 #@! TA.AperFunction,ComponentPad*
%ADD28R,2.400000X2.400000*%
G04 #@! TD*
G04 #@! TA.AperFunction,SMDPad,CuDef*
%ADD29R,0.250000X1.400000*%
G04 #@! TD*
G04 #@! TA.AperFunction,SMDPad,CuDef*
%ADD30R,1.400000X0.250000*%
G04 #@! TD*
G04 #@! TA.AperFunction,ViaPad*
%ADD31C,0.812800*%
G04 #@! TD*
G04 #@! TA.AperFunction,ViaPad*
%ADD32C,1.016000*%
G04 #@! TD*
G04 #@! TA.AperFunction,Conductor*
%ADD33C,0.203200*%
G04 #@! TD*
G04 #@! TA.AperFunction,Conductor*
%ADD34C,0.254000*%
G04 #@! TD*
G04 #@! TA.AperFunction,Conductor*
%ADD35C,1.270000*%
G04 #@! TD*
G04 #@! TA.AperFunction,Conductor*
%ADD36C,0.812800*%
G04 #@! TD*
%ADD37C,0.350000*%
G04 APERTURE END LIST*
D10*
G04 #@! TO.P,U2,5*
G04 #@! TO.N,+5V*
X192970000Y-79995000D03*
G04 #@! TO.P,U2,4*
G04 #@! TO.N,Net-(U2-Pad4)*
X192970000Y-81295000D03*
G04 #@! TO.P,U2,3*
G04 #@! TO.N,GND*
X190570000Y-81295000D03*
G04 #@! TO.P,U2,2*
G04 #@! TO.N,/A_SHDN*
X190570000Y-80645000D03*
G04 #@! TO.P,U2,1*
G04 #@! TO.N,N/C*
X190570000Y-79995000D03*
G04 #@! TD*
D11*
G04 #@! TO.P,Q1,1*
G04 #@! TO.N,/PIX_SHDN*
X175031400Y-106121200D03*
G04 #@! TO.P,Q1,2*
G04 #@! TO.N,/PIX_VCC*
X172720000Y-106121200D03*
G04 #@! TO.P,Q1,3*
G04 #@! TO.N,+5V*
X170408600Y-106121200D03*
D12*
G04 #@! TO.P,Q1,4*
G04 #@! TO.N,/PIX_VCC*
X172720000Y-112319000D03*
G04 #@! TD*
D13*
G04 #@! TO.P,J7,2*
G04 #@! TO.N,GND*
X208915000Y-104505000D03*
D14*
G04 #@! TO.P,J7,1*
G04 #@! TO.N,/ALRM_SW*
X208915000Y-102505000D03*
G04 #@! TD*
D15*
G04 #@! TO.P,TP1,1*
G04 #@! TO.N,/GPIO0*
X179705000Y-98425000D03*
G04 #@! TD*
G04 #@! TO.P,TP2,1*
G04 #@! TO.N,/GPIO1*
X181610000Y-98425000D03*
G04 #@! TD*
G04 #@! TO.P,TP3,1*
G04 #@! TO.N,/GPIO2*
X173990000Y-80645000D03*
G04 #@! TD*
G04 #@! TO.P,TP4,1*
G04 #@! TO.N,/GPIO3*
X172085000Y-80645000D03*
G04 #@! TD*
G04 #@! TO.P,TP5,1*
G04 #@! TO.N,/GPIO4*
X183515000Y-98425000D03*
G04 #@! TD*
G04 #@! TO.P,TP6,1*
G04 #@! TO.N,/GPIO5*
X175895000Y-99060000D03*
G04 #@! TD*
G04 #@! TO.P,TP7,1*
G04 #@! TO.N,/GPIO6*
X170180000Y-80645000D03*
G04 #@! TD*
G04 #@! TO.P,TP8,1*
G04 #@! TO.N,/GPIO7*
X168275000Y-80645000D03*
G04 #@! TD*
G04 #@! TO.P,TP9,1*
G04 #@! TO.N,/LEFT*
X189230000Y-87630000D03*
G04 #@! TD*
G04 #@! TO.P,TP10,1*
G04 #@! TO.N,/RIGHT*
X189230000Y-93980000D03*
G04 #@! TD*
D16*
G04 #@! TO.P,Y1,1*
G04 #@! TO.N,Net-(C12-Pad1)*
X161925000Y-93130000D03*
G04 #@! TO.P,Y1,2*
G04 #@! TO.N,Net-(C13-Pad1)*
X161925000Y-87630000D03*
G04 #@! TD*
D17*
G04 #@! TO.P,H2,1*
G04 #@! TO.N,Net-(H2-Pad1)*
X215265000Y-113030000D03*
G04 #@! TD*
D18*
G04 #@! TO.P,H1,1*
G04 #@! TO.N,Net-(H1-Pad1)*
X160655000Y-113030000D03*
G04 #@! TD*
D14*
G04 #@! TO.P,J1,1*
G04 #@! TO.N,/PIX_VCC*
X200565000Y-109220000D03*
D13*
G04 #@! TO.P,J1,2*
G04 #@! TO.N,Net-(J1-Pad2)*
X202565000Y-109220000D03*
G04 #@! TO.P,J1,3*
G04 #@! TO.N,GND*
X204565000Y-109220000D03*
G04 #@! TD*
D14*
G04 #@! TO.P,J2,1*
G04 #@! TO.N,+5V*
X179690000Y-109220000D03*
D13*
G04 #@! TO.P,J2,2*
G04 #@! TO.N,/PIX_VCC*
X181690000Y-109220000D03*
G04 #@! TO.P,J2,3*
G04 #@! TO.N,GND*
X183690000Y-109220000D03*
G04 #@! TO.P,J2,4*
X185690000Y-109220000D03*
G04 #@! TO.P,J2,5*
G04 #@! TO.N,Net-(J2-Pad5)*
X187690000Y-109220000D03*
G04 #@! TO.P,J2,6*
G04 #@! TO.N,/KCHG*
X189690000Y-109220000D03*
G04 #@! TO.P,J2,7*
G04 #@! TO.N,/SCL*
X191690000Y-109220000D03*
G04 #@! TO.P,J2,8*
G04 #@! TO.N,/SDA*
X193690000Y-109220000D03*
G04 #@! TD*
D14*
G04 #@! TO.P,J3,1*
G04 #@! TO.N,/OUT_L-*
X215900000Y-96980000D03*
D13*
G04 #@! TO.P,J3,2*
G04 #@! TO.N,/OUT_L+*
X215900000Y-94980000D03*
G04 #@! TO.P,J3,3*
G04 #@! TO.N,/OUT_R+*
X215900000Y-92980000D03*
G04 #@! TO.P,J3,4*
G04 #@! TO.N,/OUT_R-*
X215900000Y-90980000D03*
G04 #@! TD*
D19*
G04 #@! TO.P,J5,1*
G04 #@! TO.N,/SDA*
X185420000Y-77470000D03*
D20*
G04 #@! TO.P,J5,2*
G04 #@! TO.N,/SCL*
X187960000Y-77470000D03*
G04 #@! TO.P,J5,3*
G04 #@! TO.N,/A_SHDN*
X190500000Y-77470000D03*
G04 #@! TO.P,J5,4*
G04 #@! TO.N,/KCHG*
X193040000Y-77470000D03*
G04 #@! TD*
D19*
G04 #@! TO.P,J4,1*
G04 #@! TO.N,+5V*
X156845000Y-106680000D03*
D20*
G04 #@! TO.P,J4,2*
X154305000Y-106680000D03*
G04 #@! TO.P,J4,3*
G04 #@! TO.N,GND*
X156845000Y-104140000D03*
G04 #@! TO.P,J4,4*
X154305000Y-104140000D03*
G04 #@! TO.P,J4,5*
G04 #@! TO.N,/PIX_CLK*
X156845000Y-101600000D03*
G04 #@! TO.P,J4,6*
G04 #@! TO.N,/PIX_LAMP*
X154305000Y-101600000D03*
G04 #@! TO.P,J4,7*
G04 #@! TO.N,/CCS_3V3*
X156845000Y-99060000D03*
G04 #@! TO.P,J4,8*
G04 #@! TO.N,/PIX_SHDN*
X154305000Y-99060000D03*
G04 #@! TO.P,J4,9*
G04 #@! TO.N,/CRST_3V3*
X156845000Y-96520000D03*
G04 #@! TO.P,J4,10*
G04 #@! TO.N,/DREQ*
X154305000Y-96520000D03*
G04 #@! TO.P,J4,11*
G04 #@! TO.N,/CMOSI_3V3*
X156845000Y-93980000D03*
G04 #@! TO.P,J4,12*
G04 #@! TO.N,/SCLK_3V3*
X154305000Y-93980000D03*
G04 #@! TO.P,J4,13*
G04 #@! TO.N,/MISO*
X156845000Y-91440000D03*
G04 #@! TO.P,J4,14*
G04 #@! TO.N,/XDCS_3V3*
X154305000Y-91440000D03*
G04 #@! TO.P,J4,15*
G04 #@! TO.N,+3V3*
X156845000Y-88900000D03*
G04 #@! TO.P,J4,16*
G04 #@! TO.N,/ALRM_SW*
X154305000Y-88900000D03*
G04 #@! TD*
D21*
G04 #@! TO.P,R1,1*
G04 #@! TO.N,Net-(R1-Pad1)*
X187325000Y-104560000D03*
G04 #@! TO.P,R1,2*
G04 #@! TO.N,Net-(J2-Pad5)*
X187325000Y-106260000D03*
G04 #@! TD*
G04 #@! TO.P,C1,1*
G04 #@! TO.N,GND*
X177800000Y-77255000D03*
G04 #@! TO.P,C1,2*
G04 #@! TO.N,+3V3*
X177800000Y-78955000D03*
G04 #@! TD*
G04 #@! TO.P,C2,2*
G04 #@! TO.N,+1V8*
X175895000Y-80225000D03*
G04 #@! TO.P,C2,1*
G04 #@! TO.N,GND*
X175895000Y-78525000D03*
G04 #@! TD*
G04 #@! TO.P,C3,1*
G04 #@! TO.N,GND*
X170815000Y-98640000D03*
G04 #@! TO.P,C3,2*
G04 #@! TO.N,+1V8*
X170815000Y-96940000D03*
G04 #@! TD*
G04 #@! TO.P,C4,1*
G04 #@! TO.N,GND*
X177800000Y-100545000D03*
G04 #@! TO.P,C4,2*
G04 #@! TO.N,+1V8*
X177800000Y-98845000D03*
G04 #@! TD*
G04 #@! TO.P,C5,2*
G04 #@! TO.N,+3V3*
X168275000Y-92495000D03*
G04 #@! TO.P,C5,1*
G04 #@! TO.N,GND*
X168275000Y-94195000D03*
G04 #@! TD*
D22*
G04 #@! TO.P,C6,2*
G04 #@! TO.N,+1V8*
X178855000Y-81280000D03*
G04 #@! TO.P,C6,1*
G04 #@! TO.N,GND*
X180555000Y-81280000D03*
G04 #@! TD*
D21*
G04 #@! TO.P,C7,2*
G04 #@! TO.N,+3V3*
X168275000Y-87210000D03*
G04 #@! TO.P,C7,1*
G04 #@! TO.N,GND*
X168275000Y-85510000D03*
G04 #@! TD*
D22*
G04 #@! TO.P,C8,1*
G04 #@! TO.N,AGND*
X186905000Y-93980000D03*
G04 #@! TO.P,C8,2*
G04 #@! TO.N,AVDD*
X185205000Y-93980000D03*
G04 #@! TD*
G04 #@! TO.P,C9,1*
G04 #@! TO.N,AGND*
X188810000Y-90805000D03*
G04 #@! TO.P,C9,2*
G04 #@! TO.N,AVDD*
X187110000Y-90805000D03*
G04 #@! TD*
G04 #@! TO.P,C10,2*
G04 #@! TO.N,AVDD*
X185840000Y-88900000D03*
G04 #@! TO.P,C10,1*
G04 #@! TO.N,AGND*
X187540000Y-88900000D03*
G04 #@! TD*
D23*
G04 #@! TO.P,C11,A*
G04 #@! TO.N,+1V8*
X173355000Y-97475000D03*
G04 #@! TO.P,C11,K*
G04 #@! TO.N,GND*
X173355000Y-99375000D03*
G04 #@! TD*
D21*
G04 #@! TO.P,C12,1*
G04 #@! TO.N,Net-(C12-Pad1)*
X165735000Y-93130000D03*
G04 #@! TO.P,C12,2*
G04 #@! TO.N,GND*
X165735000Y-94830000D03*
G04 #@! TD*
G04 #@! TO.P,C13,1*
G04 #@! TO.N,Net-(C13-Pad1)*
X165735000Y-87210000D03*
G04 #@! TO.P,C13,2*
G04 #@! TO.N,GND*
X165735000Y-85510000D03*
G04 #@! TD*
D23*
G04 #@! TO.P,C14,K*
G04 #@! TO.N,GND*
X180340000Y-77155000D03*
G04 #@! TO.P,C14,A*
G04 #@! TO.N,+3V3*
X180340000Y-79055000D03*
G04 #@! TD*
G04 #@! TO.P,C15,1*
G04 #@! TO.N,AGND*
X185420000Y-84140000D03*
G04 #@! TO.P,C15,2*
G04 #@! TO.N,Net-(C15-Pad2)*
X185420000Y-86040000D03*
G04 #@! TD*
D24*
G04 #@! TO.P,C16,A*
G04 #@! TO.N,AVDD*
X185105000Y-96520000D03*
G04 #@! TO.P,C16,K*
G04 #@! TO.N,AGND*
X187005000Y-96520000D03*
G04 #@! TD*
D21*
G04 #@! TO.P,C17,2*
G04 #@! TO.N,Net-(C17-Pad2)*
X193040000Y-89955000D03*
G04 #@! TO.P,C17,1*
G04 #@! TO.N,AGND*
X193040000Y-91655000D03*
G04 #@! TD*
G04 #@! TO.P,C18,1*
G04 #@! TO.N,AGND*
X193040000Y-85305000D03*
G04 #@! TO.P,C18,2*
G04 #@! TO.N,Net-(C18-Pad2)*
X193040000Y-83605000D03*
G04 #@! TD*
G04 #@! TO.P,C19,1*
G04 #@! TO.N,AGND*
X193040000Y-96305000D03*
G04 #@! TO.P,C19,2*
G04 #@! TO.N,Net-(C19-Pad2)*
X193040000Y-98005000D03*
G04 #@! TD*
D24*
G04 #@! TO.P,C20,1*
G04 #@! TO.N,Net-(C20-Pad1)*
X193355000Y-87630000D03*
G04 #@! TO.P,C20,2*
G04 #@! TO.N,/LEFT*
X191455000Y-87630000D03*
G04 #@! TD*
G04 #@! TO.P,C21,2*
G04 #@! TO.N,AGND*
X199075000Y-96520000D03*
G04 #@! TO.P,C21,1*
G04 #@! TO.N,Net-(C21-Pad1)*
X200975000Y-96520000D03*
G04 #@! TD*
G04 #@! TO.P,C22,1*
G04 #@! TO.N,Net-(C22-Pad1)*
X200975000Y-91440000D03*
G04 #@! TO.P,C22,2*
G04 #@! TO.N,AGND*
X199075000Y-91440000D03*
G04 #@! TD*
G04 #@! TO.P,C23,2*
G04 #@! TO.N,/RIGHT*
X191455000Y-93980000D03*
G04 #@! TO.P,C23,1*
G04 #@! TO.N,Net-(C23-Pad1)*
X193355000Y-93980000D03*
G04 #@! TD*
G04 #@! TO.P,C24,2*
G04 #@! TO.N,+1V8*
X165420000Y-103505000D03*
G04 #@! TO.P,C24,1*
G04 #@! TO.N,GND*
X167320000Y-103505000D03*
G04 #@! TD*
G04 #@! TO.P,C25,1*
G04 #@! TO.N,GND*
X160340000Y-103505000D03*
G04 #@! TO.P,C25,2*
G04 #@! TO.N,+3V3*
X162240000Y-103505000D03*
G04 #@! TD*
D22*
G04 #@! TO.P,C26,2*
G04 #@! TO.N,AVDD*
X202780000Y-88900000D03*
G04 #@! TO.P,C26,1*
G04 #@! TO.N,AGND*
X201080000Y-88900000D03*
G04 #@! TD*
G04 #@! TO.P,C27,2*
G04 #@! TO.N,/PIX_VCC*
X183300000Y-106045000D03*
G04 #@! TO.P,C27,1*
G04 #@! TO.N,GND*
X185000000Y-106045000D03*
G04 #@! TD*
G04 #@! TO.P,R2,2*
G04 #@! TO.N,+5V*
X170600000Y-102870000D03*
G04 #@! TO.P,R2,1*
G04 #@! TO.N,/PIX_SHDN*
X172300000Y-102870000D03*
G04 #@! TD*
G04 #@! TO.P,R3,1*
G04 #@! TO.N,Net-(R3-Pad1)*
X197905000Y-106045000D03*
G04 #@! TO.P,R3,2*
G04 #@! TO.N,Net-(J1-Pad2)*
X199605000Y-106045000D03*
G04 #@! TD*
G04 #@! TO.P,R4,2*
G04 #@! TO.N,GND*
X183095000Y-84455000D03*
G04 #@! TO.P,R4,1*
G04 #@! TO.N,/CRST_3V3*
X181395000Y-84455000D03*
G04 #@! TD*
D21*
G04 #@! TO.P,R5,2*
G04 #@! TO.N,Net-(C12-Pad1)*
X165735000Y-91020000D03*
G04 #@! TO.P,R5,1*
G04 #@! TO.N,Net-(C13-Pad1)*
X165735000Y-89320000D03*
G04 #@! TD*
D22*
G04 #@! TO.P,R6,1*
G04 #@! TO.N,+3V3*
X165520000Y-98425000D03*
G04 #@! TO.P,R6,2*
G04 #@! TO.N,Net-(R6-Pad2)*
X167220000Y-98425000D03*
G04 #@! TD*
D21*
G04 #@! TO.P,R7,1*
G04 #@! TO.N,/ALRM_SW*
X203835000Y-102655000D03*
G04 #@! TO.P,R7,2*
G04 #@! TO.N,+5V*
X203835000Y-104355000D03*
G04 #@! TD*
G04 #@! TO.P,R8,2*
G04 #@! TO.N,/GBUF*
X191135000Y-91655000D03*
G04 #@! TO.P,R8,1*
G04 #@! TO.N,Net-(C17-Pad2)*
X191135000Y-89955000D03*
G04 #@! TD*
G04 #@! TO.P,R9,1*
G04 #@! TO.N,Net-(C18-Pad2)*
X191135000Y-83605000D03*
G04 #@! TO.P,R9,2*
G04 #@! TO.N,/LEFT*
X191135000Y-85305000D03*
G04 #@! TD*
G04 #@! TO.P,R10,2*
G04 #@! TO.N,/RIGHT*
X191135000Y-96305000D03*
G04 #@! TO.P,R10,1*
G04 #@! TO.N,Net-(C19-Pad2)*
X191135000Y-98005000D03*
G04 #@! TD*
D22*
G04 #@! TO.P,R11,2*
G04 #@! TO.N,+5V*
X186475000Y-80645000D03*
G04 #@! TO.P,R11,1*
G04 #@! TO.N,/A_SHDN*
X188175000Y-80645000D03*
G04 #@! TD*
D21*
G04 #@! TO.P,R12,2*
G04 #@! TO.N,/GPIO1*
X181610000Y-100115000D03*
G04 #@! TO.P,R12,1*
G04 #@! TO.N,GND*
X181610000Y-101815000D03*
G04 #@! TD*
G04 #@! TO.P,R13,1*
G04 #@! TO.N,GND*
X172085000Y-76620000D03*
G04 #@! TO.P,R13,2*
G04 #@! TO.N,/GPIO3*
X172085000Y-78320000D03*
G04 #@! TD*
G04 #@! TO.P,R14,2*
G04 #@! TO.N,/GPIO5*
X175895000Y-100750000D03*
G04 #@! TO.P,R14,1*
G04 #@! TO.N,GND*
X175895000Y-102450000D03*
G04 #@! TD*
G04 #@! TO.P,R15,1*
G04 #@! TO.N,GND*
X168275000Y-76620000D03*
G04 #@! TO.P,R15,2*
G04 #@! TO.N,/GPIO7*
X168275000Y-78320000D03*
G04 #@! TD*
G04 #@! TO.P,R16,1*
G04 #@! TO.N,GND*
X179705000Y-101815000D03*
G04 #@! TO.P,R16,2*
G04 #@! TO.N,/GPIO0*
X179705000Y-100115000D03*
G04 #@! TD*
G04 #@! TO.P,R17,1*
G04 #@! TO.N,GND*
X173990000Y-76620000D03*
G04 #@! TO.P,R17,2*
G04 #@! TO.N,/GPIO2*
X173990000Y-78320000D03*
G04 #@! TD*
G04 #@! TO.P,R18,1*
G04 #@! TO.N,GND*
X183515000Y-101815000D03*
G04 #@! TO.P,R18,2*
G04 #@! TO.N,/GPIO4*
X183515000Y-100115000D03*
G04 #@! TD*
G04 #@! TO.P,R19,2*
G04 #@! TO.N,/GPIO6*
X170180000Y-78320000D03*
G04 #@! TO.P,R19,1*
G04 #@! TO.N,GND*
X170180000Y-76620000D03*
G04 #@! TD*
D25*
G04 #@! TO.P,U3,6*
G04 #@! TO.N,+1V8*
X165230000Y-107000000D03*
G04 #@! TO.P,U3,5*
G04 #@! TO.N,+5V*
X165230000Y-107950000D03*
G04 #@! TO.P,U3,4*
X165230000Y-108900000D03*
G04 #@! TO.P,U3,3*
X162430000Y-108900000D03*
G04 #@! TO.P,U3,2*
G04 #@! TO.N,GND*
X162430000Y-107950000D03*
G04 #@! TO.P,U3,1*
G04 #@! TO.N,+3V3*
X162430000Y-107000000D03*
G04 #@! TD*
D26*
G04 #@! TO.P,U4,18*
G04 #@! TO.N,Net-(U2-Pad4)*
X203440000Y-93980000D03*
G04 #@! TO.P,U4,19*
G04 #@! TO.N,/SDA*
X203440000Y-94480000D03*
G04 #@! TO.P,U4,20*
G04 #@! TO.N,N/C*
X203440000Y-94980000D03*
G04 #@! TO.P,U4,17*
G04 #@! TO.N,/SCL*
X203440000Y-93480000D03*
G04 #@! TO.P,U4,16*
G04 #@! TO.N,N/C*
X203440000Y-92980000D03*
D27*
G04 #@! TO.P,U4,13*
G04 #@! TO.N,AVDD*
X205740000Y-91680000D03*
G04 #@! TO.P,U4,14*
G04 #@! TO.N,Net-(C23-Pad1)*
X205240000Y-91680000D03*
G04 #@! TO.P,U4,15*
G04 #@! TO.N,Net-(C22-Pad1)*
X204740000Y-91680000D03*
G04 #@! TO.P,U4,12*
G04 #@! TO.N,+5V*
X206240000Y-91680000D03*
G04 #@! TO.P,U4,11*
X206740000Y-91680000D03*
D26*
G04 #@! TO.P,U4,8*
G04 #@! TO.N,GND*
X208040000Y-93980000D03*
G04 #@! TO.P,U4,7*
G04 #@! TO.N,Net-(L3-Pad1)*
X208040000Y-94480000D03*
G04 #@! TO.P,U4,6*
G04 #@! TO.N,Net-(L4-Pad1)*
X208040000Y-94980000D03*
G04 #@! TO.P,U4,9*
G04 #@! TO.N,Net-(L6-Pad1)*
X208040000Y-93480000D03*
G04 #@! TO.P,U4,10*
G04 #@! TO.N,Net-(L5-Pad1)*
X208040000Y-92980000D03*
D27*
G04 #@! TO.P,U4,3*
G04 #@! TO.N,AGND*
X205740000Y-96280000D03*
G04 #@! TO.P,U4,4*
G04 #@! TO.N,+5V*
X206240000Y-96280000D03*
G04 #@! TO.P,U4,5*
X206740000Y-96280000D03*
G04 #@! TO.P,U4,2*
G04 #@! TO.N,Net-(C20-Pad1)*
X205240000Y-96280000D03*
G04 #@! TO.P,U4,1*
G04 #@! TO.N,Net-(C21-Pad1)*
X204740000Y-96280000D03*
D28*
G04 #@! TO.P,U4,EP*
G04 #@! TO.N,GND*
X205740000Y-93980000D03*
G04 #@! TD*
D25*
G04 #@! TO.P,U5,1*
G04 #@! TO.N,/PIX_CLK*
X178305000Y-103825000D03*
G04 #@! TO.P,U5,2*
G04 #@! TO.N,GND*
X178305000Y-104775000D03*
G04 #@! TO.P,U5,3*
G04 #@! TO.N,/PIX_LAMP*
X178305000Y-105725000D03*
G04 #@! TO.P,U5,4*
G04 #@! TO.N,Net-(R3-Pad1)*
X181105000Y-105725000D03*
G04 #@! TO.P,U5,5*
G04 #@! TO.N,/PIX_VCC*
X181105000Y-104775000D03*
G04 #@! TO.P,U5,6*
G04 #@! TO.N,Net-(R1-Pad1)*
X181105000Y-103825000D03*
G04 #@! TD*
D29*
G04 #@! TO.P,U1,1*
G04 #@! TO.N,Net-(U1-Pad1)*
X179915000Y-86405000D03*
G04 #@! TO.P,U1,2*
G04 #@! TO.N,Net-(U1-Pad2)*
X179415000Y-86405000D03*
G04 #@! TO.P,U1,3*
G04 #@! TO.N,/CRST_3V3*
X178915000Y-86405000D03*
G04 #@! TO.P,U1,4*
G04 #@! TO.N,GND*
X178415000Y-86405000D03*
G04 #@! TO.P,U1,5*
G04 #@! TO.N,+1V8*
X177915000Y-86405000D03*
G04 #@! TO.P,U1,6*
G04 #@! TO.N,+3V3*
X177415000Y-86405000D03*
G04 #@! TO.P,U1,7*
G04 #@! TO.N,+1V8*
X176915000Y-86405000D03*
G04 #@! TO.P,U1,8*
G04 #@! TO.N,/DREQ*
X176415000Y-86405000D03*
G04 #@! TO.P,U1,9*
G04 #@! TO.N,/GPIO2*
X175915000Y-86405000D03*
G04 #@! TO.P,U1,10*
G04 #@! TO.N,/GPIO3*
X175415000Y-86405000D03*
G04 #@! TO.P,U1,11*
G04 #@! TO.N,/GPIO6*
X174915000Y-86405000D03*
G04 #@! TO.P,U1,12*
G04 #@! TO.N,/GPIO7*
X174415000Y-86405000D03*
D30*
G04 #@! TO.P,U1,13*
G04 #@! TO.N,/XDCS_3V3*
X172765000Y-88055000D03*
G04 #@! TO.P,U1,14*
G04 #@! TO.N,+3V3*
X172765000Y-88555000D03*
G04 #@! TO.P,U1,15*
G04 #@! TO.N,Net-(U1-Pad15)*
X172765000Y-89055000D03*
G04 #@! TO.P,U1,16*
G04 #@! TO.N,GND*
X172765000Y-89555000D03*
G04 #@! TO.P,U1,17*
G04 #@! TO.N,Net-(C13-Pad1)*
X172765000Y-90055000D03*
G04 #@! TO.P,U1,18*
G04 #@! TO.N,Net-(C12-Pad1)*
X172765000Y-90555000D03*
G04 #@! TO.P,U1,19*
G04 #@! TO.N,+3V3*
X172765000Y-91055000D03*
G04 #@! TO.P,U1,20*
G04 #@! TO.N,GND*
X172765000Y-91555000D03*
G04 #@! TO.P,U1,21*
X172765000Y-92055000D03*
G04 #@! TO.P,U1,22*
X172765000Y-92555000D03*
G04 #@! TO.P,U1,23*
G04 #@! TO.N,/CCS_3V3*
X172765000Y-93055000D03*
G04 #@! TO.P,U1,24*
G04 #@! TO.N,+1V8*
X172765000Y-93555000D03*
D29*
G04 #@! TO.P,U1,25*
G04 #@! TO.N,/GPIO5*
X174415000Y-95205000D03*
G04 #@! TO.P,U1,26*
G04 #@! TO.N,Net-(R6-Pad2)*
X174915000Y-95205000D03*
G04 #@! TO.P,U1,27*
G04 #@! TO.N,Net-(U1-Pad27)*
X175415000Y-95205000D03*
G04 #@! TO.P,U1,28*
G04 #@! TO.N,/SCLK_3V3*
X175915000Y-95205000D03*
G04 #@! TO.P,U1,29*
G04 #@! TO.N,/CMOSI_3V3*
X176415000Y-95205000D03*
D30*
G04 #@! TO.P,U1,41*
G04 #@! TO.N,AGND*
X181565000Y-91555000D03*
D29*
G04 #@! TO.P,U1,31*
G04 #@! TO.N,+1V8*
X177415000Y-95205000D03*
G04 #@! TO.P,U1,32*
G04 #@! TO.N,+3V3*
X177915000Y-95205000D03*
G04 #@! TO.P,U1,30*
G04 #@! TO.N,/MISO*
X176915000Y-95205000D03*
G04 #@! TO.P,U1,33*
G04 #@! TO.N,/GPIO0*
X178415000Y-95205000D03*
G04 #@! TO.P,U1,34*
G04 #@! TO.N,/GPIO1*
X178915000Y-95205000D03*
G04 #@! TO.P,U1,35*
G04 #@! TO.N,GND*
X179415000Y-95205000D03*
G04 #@! TO.P,U1,36*
G04 #@! TO.N,/GPIO4*
X179915000Y-95205000D03*
D30*
G04 #@! TO.P,U1,37*
G04 #@! TO.N,AGND*
X181565000Y-93555000D03*
G04 #@! TO.P,U1,38*
G04 #@! TO.N,AVDD*
X181565000Y-93055000D03*
G04 #@! TO.P,U1,39*
G04 #@! TO.N,/RIGHT*
X181565000Y-92555000D03*
G04 #@! TO.P,U1,40*
G04 #@! TO.N,AGND*
X181565000Y-92055000D03*
G04 #@! TO.P,U1,42*
G04 #@! TO.N,/GBUF*
X181565000Y-91055000D03*
G04 #@! TO.P,U1,43*
G04 #@! TO.N,AVDD*
X181565000Y-90555000D03*
G04 #@! TO.P,U1,44*
G04 #@! TO.N,Net-(C15-Pad2)*
X181565000Y-90055000D03*
G04 #@! TO.P,U1,45*
G04 #@! TO.N,AVDD*
X181565000Y-89555000D03*
G04 #@! TO.P,U1,46*
G04 #@! TO.N,/LEFT*
X181565000Y-89055000D03*
G04 #@! TO.P,U1,47*
G04 #@! TO.N,AGND*
X181565000Y-88555000D03*
G04 #@! TO.P,U1,48*
G04 #@! TO.N,Net-(U1-Pad48)*
X181565000Y-88055000D03*
G04 #@! TD*
D24*
G04 #@! TO.P,C28,1*
G04 #@! TO.N,GND*
X157165000Y-109855000D03*
G04 #@! TO.P,C28,2*
G04 #@! TO.N,+5V*
X159065000Y-109855000D03*
G04 #@! TD*
D22*
G04 #@! TO.P,C29,2*
G04 #@! TO.N,+5V*
X208700000Y-99060000D03*
G04 #@! TO.P,C29,1*
G04 #@! TO.N,GND*
X210400000Y-99060000D03*
G04 #@! TD*
G04 #@! TO.P,C30,1*
G04 #@! TO.N,GND*
X210400000Y-88900000D03*
G04 #@! TO.P,C30,2*
G04 #@! TO.N,+5V*
X208700000Y-88900000D03*
G04 #@! TD*
D24*
G04 #@! TO.P,L1,1*
G04 #@! TO.N,AVDD*
X189545000Y-101600000D03*
G04 #@! TO.P,L1,2*
G04 #@! TO.N,+3V3*
X187645000Y-101600000D03*
G04 #@! TD*
G04 #@! TO.P,L2,2*
G04 #@! TO.N,GND*
X197800000Y-102870000D03*
G04 #@! TO.P,L2,1*
G04 #@! TO.N,AGND*
X195900000Y-102870000D03*
G04 #@! TD*
D19*
G04 #@! TO.P,J6,1*
G04 #@! TO.N,GND*
X217805000Y-101600000D03*
D20*
G04 #@! TO.P,J6,2*
X215265000Y-101600000D03*
G04 #@! TD*
D22*
G04 #@! TO.P,L3,1*
G04 #@! TO.N,Net-(L3-Pad1)*
X211240000Y-95250000D03*
G04 #@! TO.P,L3,2*
G04 #@! TO.N,/OUT_L+*
X212940000Y-95250000D03*
G04 #@! TD*
G04 #@! TO.P,L4,2*
G04 #@! TO.N,/OUT_L-*
X212940000Y-97155000D03*
G04 #@! TO.P,L4,1*
G04 #@! TO.N,Net-(L4-Pad1)*
X211240000Y-97155000D03*
G04 #@! TD*
G04 #@! TO.P,L5,1*
G04 #@! TO.N,Net-(L5-Pad1)*
X211240000Y-90805000D03*
G04 #@! TO.P,L5,2*
G04 #@! TO.N,/OUT_R-*
X212940000Y-90805000D03*
G04 #@! TD*
G04 #@! TO.P,L6,2*
G04 #@! TO.N,/OUT_R+*
X212940000Y-92710000D03*
G04 #@! TO.P,L6,1*
G04 #@! TO.N,Net-(L6-Pad1)*
X211240000Y-92710000D03*
G04 #@! TD*
D31*
G04 #@! TO.N,/MISO*
X159385000Y-97155000D03*
X175895000Y-90805000D03*
G04 #@! TO.N,/DREQ*
X174625000Y-88265000D03*
D32*
G04 #@! TO.N,+5V*
X207010000Y-88900000D03*
X158750000Y-106680000D03*
X161925000Y-110490000D03*
X169545000Y-109220000D03*
X168275000Y-109220000D03*
X165735000Y-110490000D03*
X170815000Y-109220000D03*
X194945000Y-79375000D03*
X184785000Y-80645000D03*
X207010000Y-99060000D03*
X203835000Y-106045000D03*
X168910000Y-107950000D03*
G04 #@! TO.N,GND*
X154940000Y-109855000D03*
X153670000Y-109855000D03*
X179070000Y-83820000D03*
X167005000Y-83820000D03*
X173355000Y-100965000D03*
X182880000Y-80645000D03*
X182880000Y-82550000D03*
X182880000Y-78105000D03*
X182880000Y-76200000D03*
X175895000Y-76200000D03*
X166370000Y-76200000D03*
X166370000Y-78105000D03*
X170815000Y-93345000D03*
X160020000Y-105410000D03*
X167005000Y-100965000D03*
X160020000Y-100965000D03*
X163830000Y-100965000D03*
X177800000Y-102235000D03*
X167005000Y-86995000D03*
X170815000Y-100330000D03*
D31*
X179705000Y-106680000D03*
D32*
X200025000Y-101600000D03*
X200025000Y-102870000D03*
X200025000Y-104140000D03*
X191770000Y-80645000D03*
X212090000Y-99060000D03*
X180975000Y-96520000D03*
X167640000Y-95885000D03*
X212090000Y-88900000D03*
D31*
G04 #@! TO.N,/PIX_CLK*
X179705000Y-103505000D03*
G04 #@! TO.N,/CMOSI_3V3*
X161544000Y-97536000D03*
X175895000Y-92075000D03*
G04 #@! TO.N,/SCLK_3V3*
X176530000Y-97155000D03*
X160655000Y-99695000D03*
G04 #@! TO.N,/XDCS_3V3*
X171450000Y-86995000D03*
G04 #@! TO.N,/CCS_3V3*
X174625000Y-92075000D03*
G04 #@! TO.N,/SDA*
X198755000Y-94615000D03*
G04 #@! TO.N,/SCL*
X198755000Y-93345000D03*
G04 #@! TO.N,/KCHG*
X186055000Y-82550000D03*
G04 #@! TO.N,/PIX_LAMP*
X176530000Y-106045000D03*
G04 #@! TO.N,/CRST_3V3*
X180340000Y-84455000D03*
G04 #@! TO.N,/PIX_SHDN*
X174625000Y-103505000D03*
D32*
G04 #@! TO.N,+3V3*
X162560000Y-105410000D03*
X170180000Y-92075000D03*
X162560000Y-101600000D03*
X163830000Y-98425000D03*
X170180000Y-86995000D03*
X185420000Y-100330000D03*
X185420000Y-101600000D03*
X185420000Y-102870000D03*
X175895000Y-89535000D03*
G04 #@! TO.N,+1V8*
X165100000Y-105410000D03*
X177800000Y-97155000D03*
X165100000Y-101600000D03*
X178435000Y-82550000D03*
X175895000Y-81915000D03*
X171450000Y-95250000D03*
G04 #@! TO.N,AVDD*
X184150000Y-88900000D03*
X191770000Y-101600000D03*
X191770000Y-100330000D03*
X191770000Y-102870000D03*
X183515000Y-93980000D03*
X204470000Y-88900000D03*
X185420000Y-90805000D03*
G04 #@! TO.N,AGND*
X193675000Y-101600000D03*
X193675000Y-102870000D03*
X193675000Y-104140000D03*
X188595000Y-95885000D03*
X197485000Y-91440000D03*
X197485000Y-96520000D03*
X183515000Y-95250000D03*
X183515000Y-86995000D03*
X189865000Y-88900000D03*
X180086000Y-91821000D03*
X197485000Y-92710000D03*
X187960000Y-83820000D03*
X201930000Y-86995000D03*
X194945000Y-92075000D03*
X194945000Y-86995000D03*
X194945000Y-85090000D03*
X187960000Y-85725000D03*
X197485000Y-86995000D03*
X204470000Y-99060000D03*
X201930000Y-99060000D03*
X197485000Y-99060000D03*
X194945000Y-96520000D03*
X194945000Y-99060000D03*
X188595000Y-97155000D03*
X208280000Y-90805000D03*
X208280000Y-97155000D03*
X204470000Y-86995000D03*
X194310000Y-90170000D03*
D31*
G04 #@! TO.N,Net-(C15-Pad2)*
X182245000Y-85725000D03*
X179070000Y-89535000D03*
G04 #@! TO.N,Net-(C23-Pad1)*
X197485000Y-90170000D03*
X194945000Y-93345000D03*
G04 #@! TO.N,Net-(R3-Pad1)*
X181610000Y-107315000D03*
X188595000Y-106045000D03*
G04 #@! TO.N,Net-(R6-Pad2)*
X168910000Y-98425000D03*
X175260000Y-93345000D03*
G04 #@! TO.N,Net-(U2-Pad4)*
X194945000Y-81280000D03*
X200660000Y-93980000D03*
G04 #@! TD*
D33*
G04 #@! TO.N,Net-(J2-Pad5)*
X187690000Y-109220000D02*
X187690000Y-107680000D01*
X187325000Y-107315000D02*
X187325000Y-106260000D01*
X187690000Y-107680000D02*
X187325000Y-107315000D01*
G04 #@! TO.N,/MISO*
X159385000Y-97155000D02*
X158115000Y-95885000D01*
X158115000Y-95885000D02*
X158115000Y-92710000D01*
X158115000Y-92710000D02*
X156845000Y-91440000D01*
X176915000Y-91825000D02*
X176915000Y-95205000D01*
X175895000Y-90805000D02*
X176915000Y-91825000D01*
G04 #@! TO.N,/DREQ*
X176415000Y-87745000D02*
X176415000Y-86405000D01*
X174625000Y-88265000D02*
X175895000Y-88265000D01*
X175895000Y-88265000D02*
X176415000Y-87745000D01*
D34*
G04 #@! TO.N,+5V*
X206502000Y-90170000D02*
X206240000Y-90432000D01*
X206240000Y-90432000D02*
X206240000Y-91680000D01*
X206740000Y-91680000D02*
X206740000Y-90408000D01*
X206740000Y-90408000D02*
X206502000Y-90170000D01*
X206502000Y-90170000D02*
X206502000Y-89408000D01*
X206502000Y-89408000D02*
X207010000Y-88900000D01*
X207010000Y-88900000D02*
X208700000Y-88900000D01*
X192970000Y-79995000D02*
X194325000Y-79995000D01*
X194325000Y-79995000D02*
X194945000Y-79375000D01*
X186475000Y-80645000D02*
X184785000Y-80645000D01*
X207010000Y-99060000D02*
X207010000Y-99060000D01*
X206502000Y-97917000D02*
X206502000Y-98552000D01*
X206502000Y-98552000D02*
X207010000Y-99060000D01*
X206240000Y-97655000D02*
X206240000Y-96280000D01*
X206502000Y-97917000D02*
X206240000Y-97655000D01*
X206740000Y-97679000D02*
X206502000Y-97917000D01*
X206740000Y-96280000D02*
X206740000Y-97679000D01*
X207010000Y-99060000D02*
X208700000Y-99060000D01*
X203835000Y-104355000D02*
X203835000Y-106045000D01*
G04 #@! TO.N,GND*
X172765000Y-91555000D02*
X171450000Y-91555000D01*
X171470000Y-92055000D02*
X171450000Y-92075000D01*
X171450000Y-92555000D02*
X171450000Y-92075000D01*
X171450000Y-92075000D02*
X171450000Y-91555000D01*
X172765000Y-92055000D02*
X171470000Y-92055000D01*
X172765000Y-92555000D02*
X171450000Y-92555000D01*
X178415000Y-84475000D02*
X179070000Y-83820000D01*
X178415000Y-86405000D02*
X178415000Y-84475000D01*
X173355000Y-99375000D02*
X173355000Y-100965000D01*
X177800000Y-100545000D02*
X177800000Y-102235000D01*
X170815000Y-98640000D02*
X170815000Y-100330000D01*
D33*
X179070000Y-104775000D02*
X178305000Y-104775000D01*
X179705000Y-105410000D02*
X179070000Y-104775000D01*
X179705000Y-106680000D02*
X179705000Y-105410000D01*
D34*
X185000000Y-106895000D02*
X185000000Y-106045000D01*
X185690000Y-109220000D02*
X185690000Y-107585000D01*
X185690000Y-107585000D02*
X185000000Y-106895000D01*
X183515000Y-101815000D02*
X181610000Y-101815000D01*
X181610000Y-101815000D02*
X179705000Y-101815000D01*
X179705000Y-101815000D02*
X178855000Y-101815000D01*
X178435000Y-102235000D02*
X177800000Y-102235000D01*
X178855000Y-101815000D02*
X178435000Y-102235000D01*
X175895000Y-102450000D02*
X176950000Y-102450000D01*
X177165000Y-102235000D02*
X177800000Y-102235000D01*
X176950000Y-102450000D02*
X177165000Y-102235000D01*
X190570000Y-81295000D02*
X191120000Y-81295000D01*
X191120000Y-81295000D02*
X191770000Y-80645000D01*
X210400000Y-99060000D02*
X212090000Y-99060000D01*
X179415000Y-96230000D02*
X179415000Y-95205000D01*
X180975000Y-96520000D02*
X179705000Y-96520000D01*
X179705000Y-96520000D02*
X179415000Y-96230000D01*
X205740000Y-93980000D02*
X208040000Y-93980000D01*
X210400000Y-88900000D02*
X212090000Y-88900000D01*
D33*
G04 #@! TO.N,/A_SHDN*
X190500000Y-77470000D02*
X190500000Y-78740000D01*
X189230000Y-80010000D02*
X189230000Y-80645000D01*
X188175000Y-80645000D02*
X189230000Y-80645000D01*
X190500000Y-78740000D02*
X189230000Y-80010000D01*
X189230000Y-80645000D02*
X190570000Y-80645000D01*
G04 #@! TO.N,/PIX_CLK*
X179705000Y-103505000D02*
X179385000Y-103825000D01*
X179385000Y-103825000D02*
X178305000Y-103825000D01*
G04 #@! TO.N,/CMOSI_3V3*
X176415000Y-93230000D02*
X176415000Y-95205000D01*
X175895000Y-92075000D02*
X175895000Y-92710000D01*
X175895000Y-92710000D02*
X176415000Y-93230000D01*
G04 #@! TO.N,/SCLK_3V3*
X175915000Y-95205000D02*
X175915000Y-96540000D01*
X175915000Y-96540000D02*
X176530000Y-97155000D01*
G04 #@! TO.N,/XDCS_3V3*
X171875000Y-88055000D02*
X172765000Y-88055000D01*
X171450000Y-86995000D02*
X171450000Y-87630000D01*
X171450000Y-87630000D02*
X171875000Y-88055000D01*
G04 #@! TO.N,/CCS_3V3*
X174625000Y-92075000D02*
X174625000Y-92130000D01*
X174625000Y-92130000D02*
X173700000Y-93055000D01*
X173700000Y-93055000D02*
X172765000Y-93055000D01*
G04 #@! TO.N,/SDA*
X199390000Y-95250000D02*
X198755000Y-94615000D01*
X201295000Y-95250000D02*
X199390000Y-95250000D01*
X203440000Y-94480000D02*
X202065000Y-94480000D01*
X202065000Y-94480000D02*
X201295000Y-95250000D01*
G04 #@! TO.N,/SCL*
X199390000Y-92710000D02*
X198755000Y-93345000D01*
X201295000Y-92710000D02*
X199390000Y-92710000D01*
X203440000Y-93480000D02*
X202065000Y-93480000D01*
X202065000Y-93480000D02*
X201295000Y-92710000D01*
G04 #@! TO.N,/PIX_LAMP*
X176530000Y-106045000D02*
X177160000Y-106045000D01*
X177160000Y-106045000D02*
X177480000Y-105725000D01*
X177480000Y-105725000D02*
X178305000Y-105725000D01*
G04 #@! TO.N,/CRST_3V3*
X178915000Y-86405000D02*
X178915000Y-85245000D01*
X178915000Y-85245000D02*
X179705000Y-84455000D01*
X179705000Y-84455000D02*
X180340000Y-84455000D01*
X180340000Y-84455000D02*
X181395000Y-84455000D01*
G04 #@! TO.N,/PIX_SHDN*
X175031400Y-103911400D02*
X175031400Y-106121200D01*
X174625000Y-103505000D02*
X175031400Y-103911400D01*
X173990000Y-102870000D02*
X174625000Y-103505000D01*
X172300000Y-102870000D02*
X173990000Y-102870000D01*
D34*
G04 #@! TO.N,+3V3*
X180240000Y-78955000D02*
X180340000Y-79055000D01*
X177800000Y-78955000D02*
X180240000Y-78955000D01*
X169760000Y-92495000D02*
X168275000Y-92495000D01*
X171200000Y-91055000D02*
X172765000Y-91055000D01*
X170180000Y-92075000D02*
X169760000Y-92495000D01*
X170180000Y-92075000D02*
X171200000Y-91055000D01*
X177800000Y-80645000D02*
X177800000Y-78955000D01*
X177415000Y-86405000D02*
X177415000Y-81030000D01*
X177415000Y-81030000D02*
X177800000Y-80645000D01*
X165520000Y-98425000D02*
X163830000Y-98425000D01*
X169965000Y-87210000D02*
X168275000Y-87210000D01*
X170180000Y-86995000D02*
X169965000Y-87210000D01*
X171740000Y-88555000D02*
X172765000Y-88555000D01*
X170180000Y-86995000D02*
X171740000Y-88555000D01*
X175895000Y-89535000D02*
X177415000Y-89535000D01*
X177415000Y-86405000D02*
X177415000Y-89535000D01*
X177915000Y-90035000D02*
X177415000Y-89535000D01*
X177915000Y-95205000D02*
X177915000Y-90035000D01*
D33*
G04 #@! TO.N,/ALRM_SW*
X203835000Y-102505000D02*
X208915000Y-102505000D01*
X203835000Y-102655000D02*
X203835000Y-102505000D01*
D35*
G04 #@! TO.N,/PIX_VCC*
X195580000Y-111760000D02*
X198120000Y-109220000D01*
X198120000Y-109220000D02*
X200565000Y-109220000D01*
X182880000Y-111760000D02*
X195580000Y-111760000D01*
X172720000Y-112319000D02*
X175336000Y-112319000D01*
X175895000Y-111760000D02*
X182880000Y-111760000D01*
X175336000Y-112319000D02*
X175895000Y-111760000D01*
D36*
X181690000Y-111760000D02*
X182880000Y-111760000D01*
D35*
X181690000Y-109220000D02*
X181690000Y-111760000D01*
X172720000Y-112319000D02*
X172720000Y-106121200D01*
D33*
X181105000Y-104775000D02*
X182880000Y-104775000D01*
X183300000Y-106045000D02*
X183300000Y-105195000D01*
X183300000Y-105195000D02*
X182880000Y-104775000D01*
X183300000Y-107610000D02*
X181690000Y-109220000D01*
X183300000Y-106045000D02*
X183300000Y-107610000D01*
D34*
G04 #@! TO.N,+1V8*
X177415000Y-95205000D02*
X177415000Y-96135000D01*
X177800000Y-96520000D02*
X177800000Y-97155000D01*
X177415000Y-96135000D02*
X177800000Y-96520000D01*
X177800000Y-97155000D02*
X177800000Y-98210000D01*
X170815000Y-96940000D02*
X171870000Y-96940000D01*
X172405000Y-97475000D02*
X173355000Y-97475000D01*
X171870000Y-96940000D02*
X172405000Y-97475000D01*
X177915000Y-83070000D02*
X177915000Y-86405000D01*
X178435000Y-82550000D02*
X177915000Y-83070000D01*
X178855000Y-82130000D02*
X178435000Y-82550000D01*
X178855000Y-81280000D02*
X178855000Y-82130000D01*
X175895000Y-81915000D02*
X176915000Y-82935000D01*
X176915000Y-82935000D02*
X176915000Y-86405000D01*
X175895000Y-81915000D02*
X175895000Y-80225000D01*
X170815000Y-95885000D02*
X170815000Y-96940000D01*
X171450000Y-95250000D02*
X170815000Y-95885000D01*
X171450000Y-95250000D02*
X171030000Y-95670000D01*
X171450000Y-95250000D02*
X172510000Y-94190000D01*
X172765000Y-93935000D02*
X172510000Y-94190000D01*
X172765000Y-93555000D02*
X172765000Y-93935000D01*
X177800000Y-98845000D02*
X177800000Y-98210000D01*
G04 #@! TO.N,AVDD*
X183495000Y-89555000D02*
X181565000Y-89555000D01*
X184150000Y-88900000D02*
X185205000Y-88900000D01*
X184150000Y-88900000D02*
X183495000Y-89555000D01*
X185840000Y-88900000D02*
X185205000Y-88900000D01*
X182590000Y-93055000D02*
X181565000Y-93055000D01*
X183515000Y-93980000D02*
X182590000Y-93055000D01*
X183515000Y-93980000D02*
X185205000Y-93980000D01*
X205740000Y-90170000D02*
X205740000Y-91680000D01*
X204470000Y-88900000D02*
X205740000Y-90170000D01*
X185420000Y-90805000D02*
X185840000Y-90805000D01*
X184535000Y-90555000D02*
X181565000Y-90555000D01*
X185420000Y-90805000D02*
X184785000Y-90805000D01*
X184785000Y-90805000D02*
X184535000Y-90555000D01*
X187110000Y-90805000D02*
X185840000Y-90805000D01*
X185105000Y-94080000D02*
X185205000Y-93980000D01*
X185105000Y-96520000D02*
X185105000Y-94080000D01*
X202780000Y-88900000D02*
X204470000Y-88900000D01*
G04 #@! TO.N,AGND*
X199075000Y-91440000D02*
X197485000Y-91440000D01*
X197485000Y-96520000D02*
X199075000Y-96520000D01*
X183515000Y-87630000D02*
X183515000Y-86995000D01*
X181565000Y-88555000D02*
X182590000Y-88555000D01*
X182590000Y-88555000D02*
X183515000Y-87630000D01*
X188810000Y-90805000D02*
X188810000Y-88900000D01*
X189865000Y-88900000D02*
X188810000Y-88900000D01*
X188810000Y-88900000D02*
X187540000Y-88900000D01*
X180574000Y-92055000D02*
X181565000Y-92055000D01*
X180340000Y-91821000D02*
X180574000Y-92055000D01*
X180606000Y-91555000D02*
X180340000Y-91821000D01*
X181565000Y-91555000D02*
X180606000Y-91555000D01*
X187005000Y-94080000D02*
X186905000Y-93980000D01*
X187005000Y-96520000D02*
X187005000Y-94080000D01*
X180086000Y-91821000D02*
X180340000Y-91821000D01*
X194945000Y-91440000D02*
X194730000Y-91655000D01*
X205740000Y-97790000D02*
X205740000Y-96280000D01*
X204470000Y-99060000D02*
X205740000Y-97790000D01*
D33*
G04 #@! TO.N,Net-(C12-Pad1)*
X166790000Y-91020000D02*
X165735000Y-91020000D01*
X172765000Y-90555000D02*
X167255000Y-90555000D01*
X167255000Y-90555000D02*
X166790000Y-91020000D01*
X165735000Y-91020000D02*
X165735000Y-93130000D01*
X161925000Y-93130000D02*
X162775000Y-93130000D01*
X164885000Y-91020000D02*
X165735000Y-91020000D01*
X162775000Y-93130000D02*
X164885000Y-91020000D01*
G04 #@! TO.N,Net-(C13-Pad1)*
X172765000Y-90055000D02*
X167525000Y-90055000D01*
X166790000Y-89320000D02*
X165735000Y-89320000D01*
X167525000Y-90055000D02*
X166790000Y-89320000D01*
X165735000Y-87210000D02*
X165735000Y-89320000D01*
X161925000Y-87630000D02*
X163195000Y-87630000D01*
X164885000Y-89320000D02*
X165735000Y-89320000D01*
X163195000Y-87630000D02*
X164885000Y-89320000D01*
G04 #@! TO.N,Net-(C15-Pad2)*
X184470000Y-86040000D02*
X185420000Y-86040000D01*
X184155000Y-85725000D02*
X184470000Y-86040000D01*
X182245000Y-85725000D02*
X184155000Y-85725000D01*
X179705000Y-89535000D02*
X180225000Y-90055000D01*
X180225000Y-90055000D02*
X181565000Y-90055000D01*
X179070000Y-89535000D02*
X179705000Y-89535000D01*
G04 #@! TO.N,Net-(C17-Pad2)*
X191135000Y-89955000D02*
X193040000Y-89955000D01*
G04 #@! TO.N,Net-(C18-Pad2)*
X191135000Y-83605000D02*
X193040000Y-83605000D01*
G04 #@! TO.N,Net-(C19-Pad2)*
X193040000Y-98005000D02*
X191135000Y-98005000D01*
G04 #@! TO.N,Net-(C20-Pad1)*
X205240000Y-97274000D02*
X205240000Y-96280000D01*
X204724000Y-97790000D02*
X205240000Y-97274000D01*
X197485000Y-97790000D02*
X204724000Y-97790000D01*
X193355000Y-87630000D02*
X194310000Y-87630000D01*
X195580000Y-88900000D02*
X195580000Y-90805000D01*
X196215000Y-91440000D02*
X196215000Y-96520000D01*
X194310000Y-87630000D02*
X195580000Y-88900000D01*
X195580000Y-90805000D02*
X196215000Y-91440000D01*
X196215000Y-96520000D02*
X197485000Y-97790000D01*
G04 #@! TO.N,Net-(C21-Pad1)*
X201610000Y-96520000D02*
X203200000Y-96520000D01*
X204740000Y-96280000D02*
X204075000Y-96280000D01*
X204075000Y-96280000D02*
X203835000Y-96520000D01*
X203835000Y-96520000D02*
X203200000Y-96520000D01*
G04 #@! TO.N,Net-(C22-Pad1)*
X200975000Y-91440000D02*
X203200000Y-91440000D01*
X204740000Y-91680000D02*
X204075000Y-91680000D01*
X203835000Y-91440000D02*
X203200000Y-91440000D01*
X204075000Y-91680000D02*
X203835000Y-91440000D01*
G04 #@! TO.N,Net-(C23-Pad1)*
X204724000Y-90170000D02*
X201930000Y-90170000D01*
X205240000Y-91680000D02*
X205240000Y-90686000D01*
X205240000Y-90686000D02*
X204724000Y-90170000D01*
X201930000Y-90170000D02*
X197485000Y-90170000D01*
X194945000Y-93345000D02*
X194310000Y-93980000D01*
X194310000Y-93980000D02*
X193355000Y-93980000D01*
G04 #@! TO.N,Net-(J1-Pad2)*
X199605000Y-106045000D02*
X201295000Y-106045000D01*
X202565000Y-107315000D02*
X202565000Y-109220000D01*
X201295000Y-106045000D02*
X202565000Y-107315000D01*
G04 #@! TO.N,/OUT_L-*
X215900000Y-96980000D02*
X214805000Y-96980000D01*
X214630000Y-97155000D02*
X212940000Y-97155000D01*
X214805000Y-96980000D02*
X214630000Y-97155000D01*
G04 #@! TO.N,/OUT_L+*
X215900000Y-94980000D02*
X214900000Y-94980000D01*
X214630000Y-95250000D02*
X212940000Y-95250000D01*
X214900000Y-94980000D02*
X214630000Y-95250000D01*
G04 #@! TO.N,/OUT_R+*
X215900000Y-92980000D02*
X214900000Y-92980000D01*
X214630000Y-92710000D02*
X212940000Y-92710000D01*
X214900000Y-92980000D02*
X214630000Y-92710000D01*
G04 #@! TO.N,/OUT_R-*
X215900000Y-90980000D02*
X214805000Y-90980000D01*
X214630000Y-90805000D02*
X212940000Y-90805000D01*
X214805000Y-90980000D02*
X214630000Y-90805000D01*
G04 #@! TO.N,Net-(R1-Pad1)*
X184470000Y-103825000D02*
X181105000Y-103825000D01*
X185205000Y-104560000D02*
X184470000Y-103825000D01*
X187325000Y-104560000D02*
X185205000Y-104560000D01*
G04 #@! TO.N,Net-(R3-Pad1)*
X181105000Y-106810000D02*
X181610000Y-107315000D01*
X181105000Y-105725000D02*
X181105000Y-106810000D01*
X188595000Y-106045000D02*
X197905000Y-106045000D01*
G04 #@! TO.N,Net-(R6-Pad2)*
X167855000Y-98425000D02*
X168910000Y-98425000D01*
X167220000Y-98425000D02*
X167855000Y-98425000D01*
X174915000Y-95205000D02*
X174915000Y-94325000D01*
X175260000Y-93980000D02*
X175260000Y-93345000D01*
X174915000Y-94325000D02*
X175260000Y-93980000D01*
G04 #@! TO.N,/GPIO1*
X178915000Y-95205000D02*
X178915000Y-96365000D01*
X178915000Y-96365000D02*
X179705000Y-97155000D01*
X180340000Y-97155000D02*
X181610000Y-98425000D01*
X179705000Y-97155000D02*
X180340000Y-97155000D01*
X181610000Y-98425000D02*
X181610000Y-99695000D01*
X181610000Y-99695000D02*
X181610000Y-100115000D01*
G04 #@! TO.N,/GPIO3*
X172085000Y-80645000D02*
X172085000Y-78320000D01*
X175415000Y-83975000D02*
X175415000Y-86405000D01*
X172085000Y-80645000D02*
X175415000Y-83975000D01*
G04 #@! TO.N,/GPIO5*
X174415000Y-95205000D02*
X174415000Y-96310000D01*
X174415000Y-96310000D02*
X175895000Y-97790000D01*
X175895000Y-97790000D02*
X175895000Y-99060000D01*
X175895000Y-99060000D02*
X175895000Y-100750000D01*
G04 #@! TO.N,/GPIO7*
X168275000Y-80645000D02*
X168275000Y-78320000D01*
X174415000Y-86405000D02*
X174415000Y-85515000D01*
X174415000Y-85515000D02*
X171450000Y-82550000D01*
X171450000Y-82550000D02*
X169545000Y-82550000D01*
X168275000Y-81280000D02*
X168275000Y-80645000D01*
X169545000Y-82550000D02*
X168275000Y-81280000D01*
G04 #@! TO.N,/GPIO0*
X178415000Y-95205000D02*
X178415000Y-96500000D01*
X179705000Y-97790000D02*
X179705000Y-98425000D01*
X178415000Y-96500000D02*
X179705000Y-97790000D01*
X179705000Y-98425000D02*
X179705000Y-100115000D01*
G04 #@! TO.N,/GPIO2*
X173990000Y-80645000D02*
X173990000Y-78320000D01*
X175915000Y-83205000D02*
X175915000Y-86405000D01*
X173990000Y-80645000D02*
X173990000Y-81280000D01*
X173990000Y-81280000D02*
X175915000Y-83205000D01*
G04 #@! TO.N,/GPIO4*
X183515000Y-98425000D02*
X183515000Y-100115000D01*
X183515000Y-97155000D02*
X183515000Y-98425000D01*
X181610000Y-95250000D02*
X183515000Y-97155000D01*
X179915000Y-95205000D02*
X179960000Y-95250000D01*
X179960000Y-95250000D02*
X181610000Y-95250000D01*
G04 #@! TO.N,/GPIO6*
X170180000Y-80645000D02*
X170180000Y-78320000D01*
X171450000Y-81915000D02*
X170180000Y-80645000D01*
X172085000Y-81915000D02*
X171450000Y-81915000D01*
X174915000Y-86405000D02*
X174915000Y-84745000D01*
X174915000Y-84745000D02*
X172085000Y-81915000D01*
G04 #@! TO.N,Net-(U2-Pad4)*
X192985000Y-81280000D02*
X192970000Y-81295000D01*
X194945000Y-81280000D02*
X192985000Y-81280000D01*
X203440000Y-93980000D02*
X200660000Y-93980000D01*
G04 #@! TO.N,/RIGHT*
X189230000Y-93980000D02*
X191455000Y-93980000D01*
X187805000Y-92555000D02*
X188595000Y-93345000D01*
X181565000Y-92555000D02*
X187805000Y-92555000D01*
X188595000Y-93345000D02*
X189230000Y-93980000D01*
X191455000Y-93980000D02*
X191455000Y-94930000D01*
X191135000Y-95250000D02*
X191135000Y-96305000D01*
X191455000Y-94930000D02*
X191135000Y-95250000D01*
G04 #@! TO.N,/GBUF*
X190285000Y-91655000D02*
X189865000Y-92075000D01*
X191135000Y-91655000D02*
X190285000Y-91655000D01*
X189865000Y-92075000D02*
X184785000Y-92075000D01*
X184785000Y-92075000D02*
X183765000Y-91055000D01*
X183765000Y-91055000D02*
X181565000Y-91055000D01*
G04 #@! TO.N,/LEFT*
X181565000Y-89055000D02*
X182725000Y-89055000D01*
X182725000Y-89055000D02*
X184150000Y-87630000D01*
X184150000Y-87630000D02*
X187325000Y-87630000D01*
X187325000Y-87630000D02*
X189230000Y-87630000D01*
X189230000Y-87630000D02*
X191455000Y-87630000D01*
X191135000Y-85305000D02*
X191135000Y-85725000D01*
X191455000Y-87630000D02*
X191455000Y-86680000D01*
X191135000Y-86360000D02*
X191135000Y-85305000D01*
X191455000Y-86680000D02*
X191135000Y-86360000D01*
G04 #@! TO.N,Net-(L3-Pad1)*
X208040000Y-94480000D02*
X209415000Y-94480000D01*
X210185000Y-95250000D02*
X211240000Y-95250000D01*
X209415000Y-94480000D02*
X210185000Y-95250000D01*
G04 #@! TO.N,Net-(L4-Pad1)*
X208040000Y-94980000D02*
X209280000Y-94980000D01*
X209280000Y-94980000D02*
X209550000Y-95250000D01*
X209550000Y-95250000D02*
X209550000Y-96520000D01*
X210185000Y-97155000D02*
X211240000Y-97155000D01*
X209550000Y-96520000D02*
X210185000Y-97155000D01*
G04 #@! TO.N,Net-(L5-Pad1)*
X208040000Y-92980000D02*
X209280000Y-92980000D01*
X209280000Y-92980000D02*
X209550000Y-92710000D01*
X209550000Y-92710000D02*
X209550000Y-91440000D01*
X210185000Y-90805000D02*
X211240000Y-90805000D01*
X209550000Y-91440000D02*
X210185000Y-90805000D01*
G04 #@! TO.N,Net-(L6-Pad1)*
X208040000Y-93480000D02*
X209415000Y-93480000D01*
X210185000Y-92710000D02*
X211240000Y-92710000D01*
X209415000Y-93480000D02*
X210185000Y-92710000D01*
G04 #@! TD*
G04 #@! TO.N,GND*
G36*
X169443400Y-84497084D02*
X169443400Y-86516614D01*
X169356089Y-86727400D01*
X169137566Y-86727400D01*
X169137566Y-86660000D01*
X169120898Y-86576207D01*
X169291794Y-86405311D01*
X169384600Y-86181257D01*
X169384600Y-85687800D01*
X169232200Y-85535400D01*
X168300400Y-85535400D01*
X168300400Y-85555400D01*
X168249600Y-85555400D01*
X168249600Y-85535400D01*
X167317800Y-85535400D01*
X167165400Y-85687800D01*
X167165400Y-86181257D01*
X167258206Y-86405311D01*
X167429102Y-86576207D01*
X167412434Y-86660000D01*
X167412434Y-87760000D01*
X167440033Y-87898748D01*
X167518627Y-88016373D01*
X167636252Y-88094967D01*
X167775000Y-88122566D01*
X168775000Y-88122566D01*
X168913748Y-88094967D01*
X169031373Y-88016373D01*
X169109967Y-87898748D01*
X169137566Y-87760000D01*
X169137566Y-87692600D01*
X169466983Y-87692600D01*
X169473158Y-87701842D01*
X169506119Y-87723866D01*
X169545000Y-87731600D01*
X169701614Y-87731600D01*
X170008219Y-87858600D01*
X170351781Y-87858600D01*
X170358372Y-87855870D01*
X171365140Y-88862639D01*
X171392065Y-88902935D01*
X171551699Y-89009599D01*
X171611417Y-89021478D01*
X171548206Y-89084689D01*
X171455400Y-89308743D01*
X171455400Y-89377200D01*
X171607800Y-89529600D01*
X171999816Y-89529600D01*
X172065000Y-89542566D01*
X172810400Y-89542566D01*
X172810400Y-89567434D01*
X172065000Y-89567434D01*
X171999816Y-89580400D01*
X171607800Y-89580400D01*
X171590400Y-89597800D01*
X167714379Y-89597800D01*
X167145132Y-89028554D01*
X167119623Y-88990377D01*
X166968391Y-88889327D01*
X166835030Y-88862800D01*
X166790000Y-88853843D01*
X166744970Y-88862800D01*
X166597566Y-88862800D01*
X166597566Y-88770000D01*
X166569967Y-88631252D01*
X166491373Y-88513627D01*
X166373748Y-88435033D01*
X166235000Y-88407434D01*
X166192200Y-88407434D01*
X166192200Y-88122566D01*
X166235000Y-88122566D01*
X166373748Y-88094967D01*
X166491373Y-88016373D01*
X166569967Y-87898748D01*
X166597566Y-87760000D01*
X166597566Y-86660000D01*
X166580898Y-86576207D01*
X166751794Y-86405311D01*
X166844600Y-86181257D01*
X166844600Y-85687800D01*
X166692200Y-85535400D01*
X165760400Y-85535400D01*
X165760400Y-85555400D01*
X165709600Y-85555400D01*
X165709600Y-85535400D01*
X164777800Y-85535400D01*
X164625400Y-85687800D01*
X164625400Y-86181257D01*
X164718206Y-86405311D01*
X164889102Y-86576207D01*
X164872434Y-86660000D01*
X164872434Y-87760000D01*
X164900033Y-87898748D01*
X164978627Y-88016373D01*
X165096252Y-88094967D01*
X165235000Y-88122566D01*
X165277800Y-88122566D01*
X165277801Y-88407434D01*
X165235000Y-88407434D01*
X165096252Y-88435033D01*
X164978627Y-88513627D01*
X164900033Y-88631252D01*
X164890542Y-88678964D01*
X163550132Y-87338554D01*
X163524623Y-87300377D01*
X163373391Y-87199327D01*
X163240030Y-87172800D01*
X163195000Y-87163843D01*
X163149970Y-87172800D01*
X162887566Y-87172800D01*
X162887566Y-85880000D01*
X162859967Y-85741252D01*
X162781373Y-85623627D01*
X162663748Y-85545033D01*
X162525000Y-85517434D01*
X161325000Y-85517434D01*
X161186252Y-85545033D01*
X161068627Y-85623627D01*
X160990033Y-85741252D01*
X160962434Y-85880000D01*
X160962434Y-89380000D01*
X160990033Y-89518748D01*
X161068627Y-89636373D01*
X161186252Y-89714967D01*
X161325000Y-89742566D01*
X162525000Y-89742566D01*
X162663748Y-89714967D01*
X162781373Y-89636373D01*
X162859967Y-89518748D01*
X162887566Y-89380000D01*
X162887566Y-88087200D01*
X163005622Y-88087200D01*
X164529869Y-89611448D01*
X164555377Y-89649623D01*
X164593551Y-89675130D01*
X164706609Y-89750673D01*
X164872434Y-89783657D01*
X164872434Y-89870000D01*
X164900033Y-90008748D01*
X164978627Y-90126373D01*
X165043920Y-90170000D01*
X164978627Y-90213627D01*
X164900033Y-90331252D01*
X164872434Y-90470000D01*
X164872434Y-90556343D01*
X164839970Y-90562800D01*
X164706609Y-90589327D01*
X164555377Y-90690377D01*
X164529868Y-90728554D01*
X162887566Y-92370856D01*
X162887566Y-91380000D01*
X162859967Y-91241252D01*
X162781373Y-91123627D01*
X162663748Y-91045033D01*
X162525000Y-91017434D01*
X161325000Y-91017434D01*
X161186252Y-91045033D01*
X161068627Y-91123627D01*
X160990033Y-91241252D01*
X160962434Y-91380000D01*
X160962434Y-94880000D01*
X160990033Y-95018748D01*
X161068627Y-95136373D01*
X161186252Y-95214967D01*
X161325000Y-95242566D01*
X162525000Y-95242566D01*
X162663748Y-95214967D01*
X162781373Y-95136373D01*
X162859967Y-95018748D01*
X162862144Y-95007800D01*
X164625400Y-95007800D01*
X164625400Y-95501257D01*
X164718206Y-95725311D01*
X164889689Y-95896794D01*
X165113743Y-95989600D01*
X165557200Y-95989600D01*
X165709600Y-95837200D01*
X165709600Y-94855400D01*
X165760400Y-94855400D01*
X165760400Y-95837200D01*
X165912800Y-95989600D01*
X166356257Y-95989600D01*
X166580311Y-95896794D01*
X166751794Y-95725311D01*
X166844600Y-95501257D01*
X166844600Y-95007800D01*
X166692200Y-94855400D01*
X165760400Y-94855400D01*
X165709600Y-94855400D01*
X164777800Y-94855400D01*
X164625400Y-95007800D01*
X162862144Y-95007800D01*
X162887566Y-94880000D01*
X162887566Y-93573766D01*
X162953391Y-93560673D01*
X163104623Y-93459623D01*
X163130132Y-93421446D01*
X164890542Y-91661036D01*
X164900033Y-91708748D01*
X164978627Y-91826373D01*
X165096252Y-91904967D01*
X165235000Y-91932566D01*
X165277800Y-91932566D01*
X165277801Y-92217434D01*
X165235000Y-92217434D01*
X165096252Y-92245033D01*
X164978627Y-92323627D01*
X164900033Y-92441252D01*
X164872434Y-92580000D01*
X164872434Y-93680000D01*
X164889102Y-93763793D01*
X164718206Y-93934689D01*
X164625400Y-94158743D01*
X164625400Y-94652200D01*
X164777800Y-94804600D01*
X165709600Y-94804600D01*
X165709600Y-94784600D01*
X165760400Y-94784600D01*
X165760400Y-94804600D01*
X166692200Y-94804600D01*
X166844600Y-94652200D01*
X166844600Y-94372800D01*
X167165400Y-94372800D01*
X167165400Y-94866257D01*
X167258206Y-95090311D01*
X167429689Y-95261794D01*
X167653743Y-95354600D01*
X168097200Y-95354600D01*
X168249600Y-95202200D01*
X168249600Y-94220400D01*
X168300400Y-94220400D01*
X168300400Y-95202200D01*
X168452800Y-95354600D01*
X168896257Y-95354600D01*
X169120311Y-95261794D01*
X169291794Y-95090311D01*
X169384600Y-94866257D01*
X169384600Y-94372800D01*
X169232200Y-94220400D01*
X168300400Y-94220400D01*
X168249600Y-94220400D01*
X167317800Y-94220400D01*
X167165400Y-94372800D01*
X166844600Y-94372800D01*
X166844600Y-94158743D01*
X166751794Y-93934689D01*
X166580898Y-93763793D01*
X166597566Y-93680000D01*
X166597566Y-92580000D01*
X166569967Y-92441252D01*
X166491373Y-92323627D01*
X166373748Y-92245033D01*
X166235000Y-92217434D01*
X166192200Y-92217434D01*
X166192200Y-91932566D01*
X166235000Y-91932566D01*
X166373748Y-91904967D01*
X166491373Y-91826373D01*
X166569967Y-91708748D01*
X166597566Y-91570000D01*
X166597566Y-91477200D01*
X166744970Y-91477200D01*
X166790000Y-91486157D01*
X166835030Y-91477200D01*
X166968391Y-91450673D01*
X167119623Y-91349623D01*
X167145132Y-91311446D01*
X167444379Y-91012200D01*
X170560301Y-91012200D01*
X170358372Y-91214130D01*
X170351781Y-91211400D01*
X170008219Y-91211400D01*
X169690810Y-91342875D01*
X169447875Y-91585810D01*
X169316400Y-91903219D01*
X169316400Y-92012400D01*
X169137566Y-92012400D01*
X169137566Y-91945000D01*
X169109967Y-91806252D01*
X169031373Y-91688627D01*
X168913748Y-91610033D01*
X168775000Y-91582434D01*
X167775000Y-91582434D01*
X167636252Y-91610033D01*
X167518627Y-91688627D01*
X167440033Y-91806252D01*
X167412434Y-91945000D01*
X167412434Y-93045000D01*
X167429102Y-93128793D01*
X167258206Y-93299689D01*
X167165400Y-93523743D01*
X167165400Y-94017200D01*
X167317800Y-94169600D01*
X168249600Y-94169600D01*
X168249600Y-94149600D01*
X168300400Y-94149600D01*
X168300400Y-94169600D01*
X169232200Y-94169600D01*
X169384600Y-94017200D01*
X169384600Y-93523743D01*
X169291794Y-93299689D01*
X169120898Y-93128793D01*
X169137566Y-93045000D01*
X169137566Y-92977600D01*
X169712472Y-92977600D01*
X169760000Y-92987054D01*
X169807528Y-92977600D01*
X169807529Y-92977600D01*
X169948301Y-92949599D01*
X169981392Y-92927488D01*
X170008219Y-92938600D01*
X170351781Y-92938600D01*
X170669190Y-92807125D01*
X170912125Y-92564190D01*
X171043600Y-92246781D01*
X171043600Y-91903219D01*
X171040870Y-91896628D01*
X171399899Y-91537600D01*
X171595295Y-91537600D01*
X171548206Y-91584689D01*
X171509100Y-91679100D01*
X171455400Y-91732800D01*
X171455400Y-91801257D01*
X171456950Y-91805000D01*
X171455400Y-91808743D01*
X171455400Y-91877200D01*
X171509100Y-91930900D01*
X171548206Y-92025311D01*
X171577895Y-92055000D01*
X171548206Y-92084689D01*
X171509100Y-92179100D01*
X171455400Y-92232800D01*
X171455400Y-92301257D01*
X171456950Y-92305000D01*
X171455400Y-92308743D01*
X171455400Y-92377200D01*
X171509100Y-92430900D01*
X171548206Y-92525311D01*
X171605548Y-92582653D01*
X171455400Y-92732800D01*
X171455400Y-92801257D01*
X171548206Y-93025311D01*
X171702434Y-93179539D01*
X171702434Y-93180000D01*
X171727298Y-93305000D01*
X171702434Y-93430000D01*
X171702434Y-93680000D01*
X171730033Y-93818748D01*
X171769891Y-93878400D01*
X171450000Y-93878400D01*
X171411119Y-93886134D01*
X171378158Y-93908158D01*
X168232916Y-97053400D01*
X162139030Y-97053400D01*
X161975638Y-96890008D01*
X161695571Y-96774000D01*
X161392429Y-96774000D01*
X161112362Y-96890008D01*
X160948970Y-97053400D01*
X160697084Y-97053400D01*
X158851600Y-95207916D01*
X158851600Y-85132084D01*
X159144941Y-84838743D01*
X164625400Y-84838743D01*
X164625400Y-85332200D01*
X164777800Y-85484600D01*
X165709600Y-85484600D01*
X165709600Y-84502800D01*
X165760400Y-84502800D01*
X165760400Y-85484600D01*
X166692200Y-85484600D01*
X166844600Y-85332200D01*
X166844600Y-84838743D01*
X167165400Y-84838743D01*
X167165400Y-85332200D01*
X167317800Y-85484600D01*
X168249600Y-85484600D01*
X168249600Y-84502800D01*
X168300400Y-84502800D01*
X168300400Y-85484600D01*
X169232200Y-85484600D01*
X169384600Y-85332200D01*
X169384600Y-84838743D01*
X169291794Y-84614689D01*
X169120311Y-84443206D01*
X168896257Y-84350400D01*
X168452800Y-84350400D01*
X168300400Y-84502800D01*
X168249600Y-84502800D01*
X168097200Y-84350400D01*
X167653743Y-84350400D01*
X167429689Y-84443206D01*
X167258206Y-84614689D01*
X167165400Y-84838743D01*
X166844600Y-84838743D01*
X166751794Y-84614689D01*
X166580311Y-84443206D01*
X166356257Y-84350400D01*
X165912800Y-84350400D01*
X165760400Y-84502800D01*
X165709600Y-84502800D01*
X165557200Y-84350400D01*
X165113743Y-84350400D01*
X164889689Y-84443206D01*
X164718206Y-84614689D01*
X164625400Y-84838743D01*
X159144941Y-84838743D01*
X160697084Y-83286600D01*
X168232916Y-83286600D01*
X169443400Y-84497084D01*
X169443400Y-84497084D01*
G37*
X169443400Y-84497084D02*
X169443400Y-86516614D01*
X169356089Y-86727400D01*
X169137566Y-86727400D01*
X169137566Y-86660000D01*
X169120898Y-86576207D01*
X169291794Y-86405311D01*
X169384600Y-86181257D01*
X169384600Y-85687800D01*
X169232200Y-85535400D01*
X168300400Y-85535400D01*
X168300400Y-85555400D01*
X168249600Y-85555400D01*
X168249600Y-85535400D01*
X167317800Y-85535400D01*
X167165400Y-85687800D01*
X167165400Y-86181257D01*
X167258206Y-86405311D01*
X167429102Y-86576207D01*
X167412434Y-86660000D01*
X167412434Y-87760000D01*
X167440033Y-87898748D01*
X167518627Y-88016373D01*
X167636252Y-88094967D01*
X167775000Y-88122566D01*
X168775000Y-88122566D01*
X168913748Y-88094967D01*
X169031373Y-88016373D01*
X169109967Y-87898748D01*
X169137566Y-87760000D01*
X169137566Y-87692600D01*
X169466983Y-87692600D01*
X169473158Y-87701842D01*
X169506119Y-87723866D01*
X169545000Y-87731600D01*
X169701614Y-87731600D01*
X170008219Y-87858600D01*
X170351781Y-87858600D01*
X170358372Y-87855870D01*
X171365140Y-88862639D01*
X171392065Y-88902935D01*
X171551699Y-89009599D01*
X171611417Y-89021478D01*
X171548206Y-89084689D01*
X171455400Y-89308743D01*
X171455400Y-89377200D01*
X171607800Y-89529600D01*
X171999816Y-89529600D01*
X172065000Y-89542566D01*
X172810400Y-89542566D01*
X172810400Y-89567434D01*
X172065000Y-89567434D01*
X171999816Y-89580400D01*
X171607800Y-89580400D01*
X171590400Y-89597800D01*
X167714379Y-89597800D01*
X167145132Y-89028554D01*
X167119623Y-88990377D01*
X166968391Y-88889327D01*
X166835030Y-88862800D01*
X166790000Y-88853843D01*
X166744970Y-88862800D01*
X166597566Y-88862800D01*
X166597566Y-88770000D01*
X166569967Y-88631252D01*
X166491373Y-88513627D01*
X166373748Y-88435033D01*
X166235000Y-88407434D01*
X166192200Y-88407434D01*
X166192200Y-88122566D01*
X166235000Y-88122566D01*
X166373748Y-88094967D01*
X166491373Y-88016373D01*
X166569967Y-87898748D01*
X166597566Y-87760000D01*
X166597566Y-86660000D01*
X166580898Y-86576207D01*
X166751794Y-86405311D01*
X166844600Y-86181257D01*
X166844600Y-85687800D01*
X166692200Y-85535400D01*
X165760400Y-85535400D01*
X165760400Y-85555400D01*
X165709600Y-85555400D01*
X165709600Y-85535400D01*
X164777800Y-85535400D01*
X164625400Y-85687800D01*
X164625400Y-86181257D01*
X164718206Y-86405311D01*
X164889102Y-86576207D01*
X164872434Y-86660000D01*
X164872434Y-87760000D01*
X164900033Y-87898748D01*
X164978627Y-88016373D01*
X165096252Y-88094967D01*
X165235000Y-88122566D01*
X165277800Y-88122566D01*
X165277801Y-88407434D01*
X165235000Y-88407434D01*
X165096252Y-88435033D01*
X164978627Y-88513627D01*
X164900033Y-88631252D01*
X164890542Y-88678964D01*
X163550132Y-87338554D01*
X163524623Y-87300377D01*
X163373391Y-87199327D01*
X163240030Y-87172800D01*
X163195000Y-87163843D01*
X163149970Y-87172800D01*
X162887566Y-87172800D01*
X162887566Y-85880000D01*
X162859967Y-85741252D01*
X162781373Y-85623627D01*
X162663748Y-85545033D01*
X162525000Y-85517434D01*
X161325000Y-85517434D01*
X161186252Y-85545033D01*
X161068627Y-85623627D01*
X160990033Y-85741252D01*
X160962434Y-85880000D01*
X160962434Y-89380000D01*
X160990033Y-89518748D01*
X161068627Y-89636373D01*
X161186252Y-89714967D01*
X161325000Y-89742566D01*
X162525000Y-89742566D01*
X162663748Y-89714967D01*
X162781373Y-89636373D01*
X162859967Y-89518748D01*
X162887566Y-89380000D01*
X162887566Y-88087200D01*
X163005622Y-88087200D01*
X164529869Y-89611448D01*
X164555377Y-89649623D01*
X164593551Y-89675130D01*
X164706609Y-89750673D01*
X164872434Y-89783657D01*
X164872434Y-89870000D01*
X164900033Y-90008748D01*
X164978627Y-90126373D01*
X165043920Y-90170000D01*
X164978627Y-90213627D01*
X164900033Y-90331252D01*
X164872434Y-90470000D01*
X164872434Y-90556343D01*
X164839970Y-90562800D01*
X164706609Y-90589327D01*
X164555377Y-90690377D01*
X164529868Y-90728554D01*
X162887566Y-92370856D01*
X162887566Y-91380000D01*
X162859967Y-91241252D01*
X162781373Y-91123627D01*
X162663748Y-91045033D01*
X162525000Y-91017434D01*
X161325000Y-91017434D01*
X161186252Y-91045033D01*
X161068627Y-91123627D01*
X160990033Y-91241252D01*
X160962434Y-91380000D01*
X160962434Y-94880000D01*
X160990033Y-95018748D01*
X161068627Y-95136373D01*
X161186252Y-95214967D01*
X161325000Y-95242566D01*
X162525000Y-95242566D01*
X162663748Y-95214967D01*
X162781373Y-95136373D01*
X162859967Y-95018748D01*
X162862144Y-95007800D01*
X164625400Y-95007800D01*
X164625400Y-95501257D01*
X164718206Y-95725311D01*
X164889689Y-95896794D01*
X165113743Y-95989600D01*
X165557200Y-95989600D01*
X165709600Y-95837200D01*
X165709600Y-94855400D01*
X165760400Y-94855400D01*
X165760400Y-95837200D01*
X165912800Y-95989600D01*
X166356257Y-95989600D01*
X166580311Y-95896794D01*
X166751794Y-95725311D01*
X166844600Y-95501257D01*
X166844600Y-95007800D01*
X166692200Y-94855400D01*
X165760400Y-94855400D01*
X165709600Y-94855400D01*
X164777800Y-94855400D01*
X164625400Y-95007800D01*
X162862144Y-95007800D01*
X162887566Y-94880000D01*
X162887566Y-93573766D01*
X162953391Y-93560673D01*
X163104623Y-93459623D01*
X163130132Y-93421446D01*
X164890542Y-91661036D01*
X164900033Y-91708748D01*
X164978627Y-91826373D01*
X165096252Y-91904967D01*
X165235000Y-91932566D01*
X165277800Y-91932566D01*
X165277801Y-92217434D01*
X165235000Y-92217434D01*
X165096252Y-92245033D01*
X164978627Y-92323627D01*
X164900033Y-92441252D01*
X164872434Y-92580000D01*
X164872434Y-93680000D01*
X164889102Y-93763793D01*
X164718206Y-93934689D01*
X164625400Y-94158743D01*
X164625400Y-94652200D01*
X164777800Y-94804600D01*
X165709600Y-94804600D01*
X165709600Y-94784600D01*
X165760400Y-94784600D01*
X165760400Y-94804600D01*
X166692200Y-94804600D01*
X166844600Y-94652200D01*
X166844600Y-94372800D01*
X167165400Y-94372800D01*
X167165400Y-94866257D01*
X167258206Y-95090311D01*
X167429689Y-95261794D01*
X167653743Y-95354600D01*
X168097200Y-95354600D01*
X168249600Y-95202200D01*
X168249600Y-94220400D01*
X168300400Y-94220400D01*
X168300400Y-95202200D01*
X168452800Y-95354600D01*
X168896257Y-95354600D01*
X169120311Y-95261794D01*
X169291794Y-95090311D01*
X169384600Y-94866257D01*
X169384600Y-94372800D01*
X169232200Y-94220400D01*
X168300400Y-94220400D01*
X168249600Y-94220400D01*
X167317800Y-94220400D01*
X167165400Y-94372800D01*
X166844600Y-94372800D01*
X166844600Y-94158743D01*
X166751794Y-93934689D01*
X166580898Y-93763793D01*
X166597566Y-93680000D01*
X166597566Y-92580000D01*
X166569967Y-92441252D01*
X166491373Y-92323627D01*
X166373748Y-92245033D01*
X166235000Y-92217434D01*
X166192200Y-92217434D01*
X166192200Y-91932566D01*
X166235000Y-91932566D01*
X166373748Y-91904967D01*
X166491373Y-91826373D01*
X166569967Y-91708748D01*
X166597566Y-91570000D01*
X166597566Y-91477200D01*
X166744970Y-91477200D01*
X166790000Y-91486157D01*
X166835030Y-91477200D01*
X166968391Y-91450673D01*
X167119623Y-91349623D01*
X167145132Y-91311446D01*
X167444379Y-91012200D01*
X170560301Y-91012200D01*
X170358372Y-91214130D01*
X170351781Y-91211400D01*
X170008219Y-91211400D01*
X169690810Y-91342875D01*
X169447875Y-91585810D01*
X169316400Y-91903219D01*
X169316400Y-92012400D01*
X169137566Y-92012400D01*
X169137566Y-91945000D01*
X169109967Y-91806252D01*
X169031373Y-91688627D01*
X168913748Y-91610033D01*
X168775000Y-91582434D01*
X167775000Y-91582434D01*
X167636252Y-91610033D01*
X167518627Y-91688627D01*
X167440033Y-91806252D01*
X167412434Y-91945000D01*
X167412434Y-93045000D01*
X167429102Y-93128793D01*
X167258206Y-93299689D01*
X167165400Y-93523743D01*
X167165400Y-94017200D01*
X167317800Y-94169600D01*
X168249600Y-94169600D01*
X168249600Y-94149600D01*
X168300400Y-94149600D01*
X168300400Y-94169600D01*
X169232200Y-94169600D01*
X169384600Y-94017200D01*
X169384600Y-93523743D01*
X169291794Y-93299689D01*
X169120898Y-93128793D01*
X169137566Y-93045000D01*
X169137566Y-92977600D01*
X169712472Y-92977600D01*
X169760000Y-92987054D01*
X169807528Y-92977600D01*
X169807529Y-92977600D01*
X169948301Y-92949599D01*
X169981392Y-92927488D01*
X170008219Y-92938600D01*
X170351781Y-92938600D01*
X170669190Y-92807125D01*
X170912125Y-92564190D01*
X171043600Y-92246781D01*
X171043600Y-91903219D01*
X171040870Y-91896628D01*
X171399899Y-91537600D01*
X171595295Y-91537600D01*
X171548206Y-91584689D01*
X171509100Y-91679100D01*
X171455400Y-91732800D01*
X171455400Y-91801257D01*
X171456950Y-91805000D01*
X171455400Y-91808743D01*
X171455400Y-91877200D01*
X171509100Y-91930900D01*
X171548206Y-92025311D01*
X171577895Y-92055000D01*
X171548206Y-92084689D01*
X171509100Y-92179100D01*
X171455400Y-92232800D01*
X171455400Y-92301257D01*
X171456950Y-92305000D01*
X171455400Y-92308743D01*
X171455400Y-92377200D01*
X171509100Y-92430900D01*
X171548206Y-92525311D01*
X171605548Y-92582653D01*
X171455400Y-92732800D01*
X171455400Y-92801257D01*
X171548206Y-93025311D01*
X171702434Y-93179539D01*
X171702434Y-93180000D01*
X171727298Y-93305000D01*
X171702434Y-93430000D01*
X171702434Y-93680000D01*
X171730033Y-93818748D01*
X171769891Y-93878400D01*
X171450000Y-93878400D01*
X171411119Y-93886134D01*
X171378158Y-93908158D01*
X168232916Y-97053400D01*
X162139030Y-97053400D01*
X161975638Y-96890008D01*
X161695571Y-96774000D01*
X161392429Y-96774000D01*
X161112362Y-96890008D01*
X160948970Y-97053400D01*
X160697084Y-97053400D01*
X158851600Y-95207916D01*
X158851600Y-85132084D01*
X159144941Y-84838743D01*
X164625400Y-84838743D01*
X164625400Y-85332200D01*
X164777800Y-85484600D01*
X165709600Y-85484600D01*
X165709600Y-84502800D01*
X165760400Y-84502800D01*
X165760400Y-85484600D01*
X166692200Y-85484600D01*
X166844600Y-85332200D01*
X166844600Y-84838743D01*
X167165400Y-84838743D01*
X167165400Y-85332200D01*
X167317800Y-85484600D01*
X168249600Y-85484600D01*
X168249600Y-84502800D01*
X168300400Y-84502800D01*
X168300400Y-85484600D01*
X169232200Y-85484600D01*
X169384600Y-85332200D01*
X169384600Y-84838743D01*
X169291794Y-84614689D01*
X169120311Y-84443206D01*
X168896257Y-84350400D01*
X168452800Y-84350400D01*
X168300400Y-84502800D01*
X168249600Y-84502800D01*
X168097200Y-84350400D01*
X167653743Y-84350400D01*
X167429689Y-84443206D01*
X167258206Y-84614689D01*
X167165400Y-84838743D01*
X166844600Y-84838743D01*
X166751794Y-84614689D01*
X166580311Y-84443206D01*
X166356257Y-84350400D01*
X165912800Y-84350400D01*
X165760400Y-84502800D01*
X165709600Y-84502800D01*
X165557200Y-84350400D01*
X165113743Y-84350400D01*
X164889689Y-84443206D01*
X164718206Y-84614689D01*
X164625400Y-84838743D01*
X159144941Y-84838743D01*
X160697084Y-83286600D01*
X168232916Y-83286600D01*
X169443400Y-84497084D01*
G36*
X172790400Y-92100400D02*
X172739600Y-92100400D01*
X172739600Y-92009600D01*
X172790400Y-92009600D01*
X172790400Y-92100400D01*
X172790400Y-92100400D01*
G37*
X172790400Y-92100400D02*
X172739600Y-92100400D01*
X172739600Y-92009600D01*
X172790400Y-92009600D01*
X172790400Y-92100400D01*
D34*
G04 #@! TO.N,+5V*
G36*
X171323000Y-101754340D02*
X171276309Y-101735000D01*
X170885750Y-101735000D01*
X170727000Y-101893750D01*
X170727000Y-102743000D01*
X170747000Y-102743000D01*
X170747000Y-102997000D01*
X170727000Y-102997000D01*
X170727000Y-103846250D01*
X170885750Y-104005000D01*
X171276309Y-104005000D01*
X171323000Y-103985660D01*
X171323000Y-104442533D01*
X171144509Y-104368600D01*
X170872150Y-104368600D01*
X170713400Y-104527350D01*
X170713400Y-105740200D01*
X170809600Y-105740200D01*
X170809600Y-106502200D01*
X170713400Y-106502200D01*
X170713400Y-107715050D01*
X170872150Y-107873800D01*
X171144509Y-107873800D01*
X171323000Y-107799867D01*
X171323000Y-109728000D01*
X168910000Y-109728000D01*
X168861399Y-109737667D01*
X168820197Y-109765197D01*
X167587394Y-110998000D01*
X160220026Y-110998000D01*
X160253327Y-110964699D01*
X160350000Y-110731310D01*
X160350000Y-110140750D01*
X160191250Y-109982000D01*
X159192000Y-109982000D01*
X159192000Y-110002000D01*
X158938000Y-110002000D01*
X158938000Y-109982000D01*
X158918000Y-109982000D01*
X158918000Y-109728000D01*
X158938000Y-109728000D01*
X158938000Y-108628750D01*
X159192000Y-108628750D01*
X159192000Y-109728000D01*
X160191250Y-109728000D01*
X160350000Y-109569250D01*
X160350000Y-109185750D01*
X161195000Y-109185750D01*
X161195000Y-109351309D01*
X161291673Y-109584698D01*
X161470301Y-109763327D01*
X161703690Y-109860000D01*
X162144250Y-109860000D01*
X162303000Y-109701250D01*
X162303000Y-109027000D01*
X162557000Y-109027000D01*
X162557000Y-109701250D01*
X162715750Y-109860000D01*
X163156310Y-109860000D01*
X163389699Y-109763327D01*
X163568327Y-109584698D01*
X163665000Y-109351309D01*
X163665000Y-109185750D01*
X163995000Y-109185750D01*
X163995000Y-109351309D01*
X164091673Y-109584698D01*
X164270301Y-109763327D01*
X164503690Y-109860000D01*
X164944250Y-109860000D01*
X165103000Y-109701250D01*
X165103000Y-109027000D01*
X165357000Y-109027000D01*
X165357000Y-109701250D01*
X165515750Y-109860000D01*
X165956310Y-109860000D01*
X166189699Y-109763327D01*
X166368327Y-109584698D01*
X166465000Y-109351309D01*
X166465000Y-109185750D01*
X166306250Y-109027000D01*
X165357000Y-109027000D01*
X165103000Y-109027000D01*
X164153750Y-109027000D01*
X163995000Y-109185750D01*
X163665000Y-109185750D01*
X163506250Y-109027000D01*
X162557000Y-109027000D01*
X162303000Y-109027000D01*
X161353750Y-109027000D01*
X161195000Y-109185750D01*
X160350000Y-109185750D01*
X160350000Y-108978690D01*
X160253327Y-108745301D01*
X160074698Y-108566673D01*
X159841309Y-108470000D01*
X159350750Y-108470000D01*
X159192000Y-108628750D01*
X158938000Y-108628750D01*
X158779250Y-108470000D01*
X158288691Y-108470000D01*
X158209801Y-108502677D01*
X158204803Y-108495197D01*
X158163601Y-108467667D01*
X158115000Y-108458000D01*
X153162000Y-108458000D01*
X153162000Y-107764273D01*
X153579938Y-107764273D01*
X153663552Y-107995008D01*
X154215611Y-108140380D01*
X154781278Y-108063423D01*
X154946448Y-107995008D01*
X155030062Y-107764273D01*
X154305000Y-107039210D01*
X153579938Y-107764273D01*
X153162000Y-107764273D01*
X153162000Y-107383781D01*
X153220727Y-107405062D01*
X153945790Y-106680000D01*
X153931647Y-106665858D01*
X154290858Y-106306648D01*
X154305000Y-106320790D01*
X154319143Y-106306648D01*
X154678353Y-106665858D01*
X154664210Y-106680000D01*
X155389273Y-107405062D01*
X155410000Y-107397551D01*
X155410000Y-107606309D01*
X155506673Y-107839698D01*
X155685301Y-108018327D01*
X155918690Y-108115000D01*
X156432250Y-108115000D01*
X156591000Y-107956250D01*
X156591000Y-106934000D01*
X157099000Y-106934000D01*
X157099000Y-107956250D01*
X157257750Y-108115000D01*
X157771310Y-108115000D01*
X158004699Y-108018327D01*
X158183327Y-107839698D01*
X158280000Y-107606309D01*
X158280000Y-107092750D01*
X158121250Y-106934000D01*
X157099000Y-106934000D01*
X156591000Y-106934000D01*
X156571000Y-106934000D01*
X156571000Y-106426000D01*
X156591000Y-106426000D01*
X156591000Y-106406000D01*
X157099000Y-106406000D01*
X157099000Y-106426000D01*
X158121250Y-106426000D01*
X158280000Y-106267250D01*
X158280000Y-106172000D01*
X159309238Y-106172000D01*
X159430094Y-106292856D01*
X159486600Y-106316262D01*
X159486600Y-107315000D01*
X159527203Y-107519123D01*
X159642829Y-107692171D01*
X160531829Y-108581171D01*
X160704877Y-108696797D01*
X160909000Y-108737400D01*
X161318150Y-108737400D01*
X161353750Y-108773000D01*
X161615217Y-108773000D01*
X161621878Y-108777451D01*
X161830000Y-108818849D01*
X163030000Y-108818849D01*
X163238122Y-108777451D01*
X163244783Y-108773000D01*
X163506250Y-108773000D01*
X163541850Y-108737400D01*
X164118150Y-108737400D01*
X164153750Y-108773000D01*
X164229974Y-108773000D01*
X164270301Y-108813327D01*
X164503690Y-108910000D01*
X164817250Y-108910000D01*
X164954250Y-108773000D01*
X165103000Y-108773000D01*
X165103000Y-108098750D01*
X165357000Y-108098750D01*
X165357000Y-108773000D01*
X165505750Y-108773000D01*
X165642750Y-108910000D01*
X165956310Y-108910000D01*
X166189699Y-108813327D01*
X166230026Y-108773000D01*
X166306250Y-108773000D01*
X166465000Y-108614250D01*
X166465000Y-108448691D01*
X166455187Y-108425000D01*
X166465000Y-108401309D01*
X166465000Y-108271250D01*
X166306250Y-108112500D01*
X166265526Y-108112500D01*
X166189699Y-108036673D01*
X165956310Y-107940000D01*
X165515750Y-107940000D01*
X165357000Y-108098750D01*
X165103000Y-108098750D01*
X164974667Y-107970417D01*
X164975422Y-107868849D01*
X165830000Y-107868849D01*
X165932804Y-107848400D01*
X166370000Y-107848400D01*
X166574123Y-107807797D01*
X166747171Y-107692171D01*
X166862797Y-107519123D01*
X166903400Y-107315000D01*
X166903400Y-106660950D01*
X169164000Y-106660950D01*
X169164000Y-107365110D01*
X169260673Y-107598499D01*
X169439302Y-107777127D01*
X169672691Y-107873800D01*
X169945050Y-107873800D01*
X170103800Y-107715050D01*
X170103800Y-106502200D01*
X169322750Y-106502200D01*
X169164000Y-106660950D01*
X166903400Y-106660950D01*
X166903400Y-105308400D01*
X167640000Y-105308400D01*
X167844123Y-105267797D01*
X168017171Y-105152171D01*
X168132797Y-104979123D01*
X168153053Y-104877290D01*
X169164000Y-104877290D01*
X169164000Y-105581450D01*
X169322750Y-105740200D01*
X170103800Y-105740200D01*
X170103800Y-104527350D01*
X169945050Y-104368600D01*
X169672691Y-104368600D01*
X169439302Y-104465273D01*
X169260673Y-104643901D01*
X169164000Y-104877290D01*
X168153053Y-104877290D01*
X168173400Y-104775000D01*
X168173400Y-104758390D01*
X168178122Y-104757451D01*
X168354559Y-104639559D01*
X168472451Y-104463122D01*
X168513849Y-104255000D01*
X168513849Y-103155750D01*
X169415000Y-103155750D01*
X169415000Y-103496310D01*
X169511673Y-103729699D01*
X169690302Y-103908327D01*
X169923691Y-104005000D01*
X170314250Y-104005000D01*
X170473000Y-103846250D01*
X170473000Y-102997000D01*
X169573750Y-102997000D01*
X169415000Y-103155750D01*
X168513849Y-103155750D01*
X168513849Y-102755000D01*
X168472451Y-102546878D01*
X168354559Y-102370441D01*
X168178122Y-102252549D01*
X168173400Y-102251610D01*
X168173400Y-102243690D01*
X169415000Y-102243690D01*
X169415000Y-102584250D01*
X169573750Y-102743000D01*
X170473000Y-102743000D01*
X170473000Y-101893750D01*
X170314250Y-101735000D01*
X169923691Y-101735000D01*
X169690302Y-101831673D01*
X169511673Y-102010301D01*
X169415000Y-102243690D01*
X168173400Y-102243690D01*
X168173400Y-101727000D01*
X171323000Y-101727000D01*
X171323000Y-101754340D01*
X171323000Y-101754340D01*
G37*
X171323000Y-101754340D02*
X171276309Y-101735000D01*
X170885750Y-101735000D01*
X170727000Y-101893750D01*
X170727000Y-102743000D01*
X170747000Y-102743000D01*
X170747000Y-102997000D01*
X170727000Y-102997000D01*
X170727000Y-103846250D01*
X170885750Y-104005000D01*
X171276309Y-104005000D01*
X171323000Y-103985660D01*
X171323000Y-104442533D01*
X171144509Y-104368600D01*
X170872150Y-104368600D01*
X170713400Y-104527350D01*
X170713400Y-105740200D01*
X170809600Y-105740200D01*
X170809600Y-106502200D01*
X170713400Y-106502200D01*
X170713400Y-107715050D01*
X170872150Y-107873800D01*
X171144509Y-107873800D01*
X171323000Y-107799867D01*
X171323000Y-109728000D01*
X168910000Y-109728000D01*
X168861399Y-109737667D01*
X168820197Y-109765197D01*
X167587394Y-110998000D01*
X160220026Y-110998000D01*
X160253327Y-110964699D01*
X160350000Y-110731310D01*
X160350000Y-110140750D01*
X160191250Y-109982000D01*
X159192000Y-109982000D01*
X159192000Y-110002000D01*
X158938000Y-110002000D01*
X158938000Y-109982000D01*
X158918000Y-109982000D01*
X158918000Y-109728000D01*
X158938000Y-109728000D01*
X158938000Y-108628750D01*
X159192000Y-108628750D01*
X159192000Y-109728000D01*
X160191250Y-109728000D01*
X160350000Y-109569250D01*
X160350000Y-109185750D01*
X161195000Y-109185750D01*
X161195000Y-109351309D01*
X161291673Y-109584698D01*
X161470301Y-109763327D01*
X161703690Y-109860000D01*
X162144250Y-109860000D01*
X162303000Y-109701250D01*
X162303000Y-109027000D01*
X162557000Y-109027000D01*
X162557000Y-109701250D01*
X162715750Y-109860000D01*
X163156310Y-109860000D01*
X163389699Y-109763327D01*
X163568327Y-109584698D01*
X163665000Y-109351309D01*
X163665000Y-109185750D01*
X163995000Y-109185750D01*
X163995000Y-109351309D01*
X164091673Y-109584698D01*
X164270301Y-109763327D01*
X164503690Y-109860000D01*
X164944250Y-109860000D01*
X165103000Y-109701250D01*
X165103000Y-109027000D01*
X165357000Y-109027000D01*
X165357000Y-109701250D01*
X165515750Y-109860000D01*
X165956310Y-109860000D01*
X166189699Y-109763327D01*
X166368327Y-109584698D01*
X166465000Y-109351309D01*
X166465000Y-109185750D01*
X166306250Y-109027000D01*
X165357000Y-109027000D01*
X165103000Y-109027000D01*
X164153750Y-109027000D01*
X163995000Y-109185750D01*
X163665000Y-109185750D01*
X163506250Y-109027000D01*
X162557000Y-109027000D01*
X162303000Y-109027000D01*
X161353750Y-109027000D01*
X161195000Y-109185750D01*
X160350000Y-109185750D01*
X160350000Y-108978690D01*
X160253327Y-108745301D01*
X160074698Y-108566673D01*
X159841309Y-108470000D01*
X159350750Y-108470000D01*
X159192000Y-108628750D01*
X158938000Y-108628750D01*
X158779250Y-108470000D01*
X158288691Y-108470000D01*
X158209801Y-108502677D01*
X158204803Y-108495197D01*
X158163601Y-108467667D01*
X158115000Y-108458000D01*
X153162000Y-108458000D01*
X153162000Y-107764273D01*
X153579938Y-107764273D01*
X153663552Y-107995008D01*
X154215611Y-108140380D01*
X154781278Y-108063423D01*
X154946448Y-107995008D01*
X155030062Y-107764273D01*
X154305000Y-107039210D01*
X153579938Y-107764273D01*
X153162000Y-107764273D01*
X153162000Y-107383781D01*
X153220727Y-107405062D01*
X153945790Y-106680000D01*
X153931647Y-106665858D01*
X154290858Y-106306648D01*
X154305000Y-106320790D01*
X154319143Y-106306648D01*
X154678353Y-106665858D01*
X154664210Y-106680000D01*
X155389273Y-107405062D01*
X155410000Y-107397551D01*
X155410000Y-107606309D01*
X155506673Y-107839698D01*
X155685301Y-108018327D01*
X155918690Y-108115000D01*
X156432250Y-108115000D01*
X156591000Y-107956250D01*
X156591000Y-106934000D01*
X157099000Y-106934000D01*
X157099000Y-107956250D01*
X157257750Y-108115000D01*
X157771310Y-108115000D01*
X158004699Y-108018327D01*
X158183327Y-107839698D01*
X158280000Y-107606309D01*
X158280000Y-107092750D01*
X158121250Y-106934000D01*
X157099000Y-106934000D01*
X156591000Y-106934000D01*
X156571000Y-106934000D01*
X156571000Y-106426000D01*
X156591000Y-106426000D01*
X156591000Y-106406000D01*
X157099000Y-106406000D01*
X157099000Y-106426000D01*
X158121250Y-106426000D01*
X158280000Y-106267250D01*
X158280000Y-106172000D01*
X159309238Y-106172000D01*
X159430094Y-106292856D01*
X159486600Y-106316262D01*
X159486600Y-107315000D01*
X159527203Y-107519123D01*
X159642829Y-107692171D01*
X160531829Y-108581171D01*
X160704877Y-108696797D01*
X160909000Y-108737400D01*
X161318150Y-108737400D01*
X161353750Y-108773000D01*
X161615217Y-108773000D01*
X161621878Y-108777451D01*
X161830000Y-108818849D01*
X163030000Y-108818849D01*
X163238122Y-108777451D01*
X163244783Y-108773000D01*
X163506250Y-108773000D01*
X163541850Y-108737400D01*
X164118150Y-108737400D01*
X164153750Y-108773000D01*
X164229974Y-108773000D01*
X164270301Y-108813327D01*
X164503690Y-108910000D01*
X164817250Y-108910000D01*
X164954250Y-108773000D01*
X165103000Y-108773000D01*
X165103000Y-108098750D01*
X165357000Y-108098750D01*
X165357000Y-108773000D01*
X165505750Y-108773000D01*
X165642750Y-108910000D01*
X165956310Y-108910000D01*
X166189699Y-108813327D01*
X166230026Y-108773000D01*
X166306250Y-108773000D01*
X166465000Y-108614250D01*
X166465000Y-108448691D01*
X166455187Y-108425000D01*
X166465000Y-108401309D01*
X166465000Y-108271250D01*
X166306250Y-108112500D01*
X166265526Y-108112500D01*
X166189699Y-108036673D01*
X165956310Y-107940000D01*
X165515750Y-107940000D01*
X165357000Y-108098750D01*
X165103000Y-108098750D01*
X164974667Y-107970417D01*
X164975422Y-107868849D01*
X165830000Y-107868849D01*
X165932804Y-107848400D01*
X166370000Y-107848400D01*
X166574123Y-107807797D01*
X166747171Y-107692171D01*
X166862797Y-107519123D01*
X166903400Y-107315000D01*
X166903400Y-106660950D01*
X169164000Y-106660950D01*
X169164000Y-107365110D01*
X169260673Y-107598499D01*
X169439302Y-107777127D01*
X169672691Y-107873800D01*
X169945050Y-107873800D01*
X170103800Y-107715050D01*
X170103800Y-106502200D01*
X169322750Y-106502200D01*
X169164000Y-106660950D01*
X166903400Y-106660950D01*
X166903400Y-105308400D01*
X167640000Y-105308400D01*
X167844123Y-105267797D01*
X168017171Y-105152171D01*
X168132797Y-104979123D01*
X168153053Y-104877290D01*
X169164000Y-104877290D01*
X169164000Y-105581450D01*
X169322750Y-105740200D01*
X170103800Y-105740200D01*
X170103800Y-104527350D01*
X169945050Y-104368600D01*
X169672691Y-104368600D01*
X169439302Y-104465273D01*
X169260673Y-104643901D01*
X169164000Y-104877290D01*
X168153053Y-104877290D01*
X168173400Y-104775000D01*
X168173400Y-104758390D01*
X168178122Y-104757451D01*
X168354559Y-104639559D01*
X168472451Y-104463122D01*
X168513849Y-104255000D01*
X168513849Y-103155750D01*
X169415000Y-103155750D01*
X169415000Y-103496310D01*
X169511673Y-103729699D01*
X169690302Y-103908327D01*
X169923691Y-104005000D01*
X170314250Y-104005000D01*
X170473000Y-103846250D01*
X170473000Y-102997000D01*
X169573750Y-102997000D01*
X169415000Y-103155750D01*
X168513849Y-103155750D01*
X168513849Y-102755000D01*
X168472451Y-102546878D01*
X168354559Y-102370441D01*
X168178122Y-102252549D01*
X168173400Y-102251610D01*
X168173400Y-102243690D01*
X169415000Y-102243690D01*
X169415000Y-102584250D01*
X169573750Y-102743000D01*
X170473000Y-102743000D01*
X170473000Y-101893750D01*
X170314250Y-101735000D01*
X169923691Y-101735000D01*
X169690302Y-101831673D01*
X169511673Y-102010301D01*
X169415000Y-102243690D01*
X168173400Y-102243690D01*
X168173400Y-101727000D01*
X171323000Y-101727000D01*
X171323000Y-101754340D01*
G04 #@! TO.N,GND*
G36*
X159867600Y-99851624D02*
X159987475Y-100141026D01*
X160208974Y-100362525D01*
X160498376Y-100482400D01*
X160811624Y-100482400D01*
X161101026Y-100362525D01*
X161322525Y-100141026D01*
X161442400Y-99851624D01*
X161442400Y-99822000D01*
X167513000Y-99822000D01*
X167513000Y-102212750D01*
X167447000Y-102278750D01*
X167447000Y-103378000D01*
X167467000Y-103378000D01*
X167467000Y-103632000D01*
X167447000Y-103632000D01*
X167447000Y-103652000D01*
X167193000Y-103652000D01*
X167193000Y-103632000D01*
X167173000Y-103632000D01*
X167173000Y-103378000D01*
X167193000Y-103378000D01*
X167193000Y-102278750D01*
X167034250Y-102120000D01*
X166751000Y-102120000D01*
X166751000Y-100965000D01*
X166721998Y-100819198D01*
X166639408Y-100695592D01*
X166515802Y-100613002D01*
X166370000Y-100584000D01*
X164465000Y-100584000D01*
X164319198Y-100613002D01*
X164195592Y-100695592D01*
X164113002Y-100819198D01*
X164084000Y-100965000D01*
X164084000Y-107315000D01*
X164113002Y-107460802D01*
X164195592Y-107584408D01*
X164243273Y-107616267D01*
X164241536Y-107625000D01*
X164241536Y-108077000D01*
X160961606Y-108077000D01*
X160147000Y-107262394D01*
X160147000Y-106045000D01*
X160137333Y-105996399D01*
X160109803Y-105955197D01*
X159474803Y-105320197D01*
X159433601Y-105292667D01*
X159385000Y-105283000D01*
X157548780Y-105283000D01*
X157570062Y-105224273D01*
X156845000Y-104499210D01*
X156119938Y-105224273D01*
X156141220Y-105283000D01*
X155008780Y-105283000D01*
X155030062Y-105224273D01*
X154305000Y-104499210D01*
X153579938Y-105224273D01*
X153601220Y-105283000D01*
X153162000Y-105283000D01*
X153162000Y-104843780D01*
X153220727Y-104865062D01*
X153945790Y-104140000D01*
X154664210Y-104140000D01*
X155389273Y-104865062D01*
X155575000Y-104797758D01*
X155760727Y-104865062D01*
X156485790Y-104140000D01*
X157204210Y-104140000D01*
X157929273Y-104865062D01*
X158160008Y-104781448D01*
X158305380Y-104229389D01*
X158245705Y-103790750D01*
X159055000Y-103790750D01*
X159055000Y-104381310D01*
X159151673Y-104614699D01*
X159330302Y-104793327D01*
X159563691Y-104890000D01*
X160054250Y-104890000D01*
X160213000Y-104731250D01*
X160213000Y-103632000D01*
X159213750Y-103632000D01*
X159055000Y-103790750D01*
X158245705Y-103790750D01*
X158228423Y-103663722D01*
X158160008Y-103498552D01*
X157929273Y-103414938D01*
X157204210Y-104140000D01*
X156485790Y-104140000D01*
X155760727Y-103414938D01*
X155575000Y-103482242D01*
X155389273Y-103414938D01*
X154664210Y-104140000D01*
X153945790Y-104140000D01*
X153220727Y-103414938D01*
X153162000Y-103436220D01*
X153162000Y-102997000D01*
X153601220Y-102997000D01*
X153579938Y-103055727D01*
X154305000Y-103780790D01*
X155030062Y-103055727D01*
X155008780Y-102997000D01*
X156141220Y-102997000D01*
X156119938Y-103055727D01*
X156845000Y-103780790D01*
X157570062Y-103055727D01*
X157542027Y-102978362D01*
X157569803Y-102959803D01*
X157900916Y-102628690D01*
X159055000Y-102628690D01*
X159055000Y-103219250D01*
X159213750Y-103378000D01*
X160213000Y-103378000D01*
X160213000Y-102278750D01*
X160467000Y-102278750D01*
X160467000Y-103378000D01*
X160487000Y-103378000D01*
X160487000Y-103632000D01*
X160467000Y-103632000D01*
X160467000Y-104731250D01*
X160625750Y-104890000D01*
X160909000Y-104890000D01*
X160909000Y-107315000D01*
X160938002Y-107460802D01*
X161020592Y-107584408D01*
X161144198Y-107666998D01*
X161211045Y-107680295D01*
X161353750Y-107823000D01*
X162303000Y-107823000D01*
X162303000Y-107803000D01*
X162557000Y-107803000D01*
X162557000Y-107823000D01*
X163506250Y-107823000D01*
X163665000Y-107664250D01*
X163665000Y-107498691D01*
X163576000Y-107283826D01*
X163576000Y-100965000D01*
X163546998Y-100819198D01*
X163464408Y-100695592D01*
X163340802Y-100613002D01*
X163195000Y-100584000D01*
X161290000Y-100584000D01*
X161144198Y-100613002D01*
X161020592Y-100695592D01*
X160938002Y-100819198D01*
X160909000Y-100965000D01*
X160909000Y-102120000D01*
X160625750Y-102120000D01*
X160467000Y-102278750D01*
X160213000Y-102278750D01*
X160054250Y-102120000D01*
X159563691Y-102120000D01*
X159330302Y-102216673D01*
X159151673Y-102395301D01*
X159055000Y-102628690D01*
X157900916Y-102628690D01*
X158204803Y-102324803D01*
X158232333Y-102283601D01*
X158242000Y-102235000D01*
X158242000Y-99822000D01*
X159867600Y-99822000D01*
X159867600Y-99851624D01*
X159867600Y-99851624D01*
G37*
X159867600Y-99851624D02*
X159987475Y-100141026D01*
X160208974Y-100362525D01*
X160498376Y-100482400D01*
X160811624Y-100482400D01*
X161101026Y-100362525D01*
X161322525Y-100141026D01*
X161442400Y-99851624D01*
X161442400Y-99822000D01*
X167513000Y-99822000D01*
X167513000Y-102212750D01*
X167447000Y-102278750D01*
X167447000Y-103378000D01*
X167467000Y-103378000D01*
X167467000Y-103632000D01*
X167447000Y-103632000D01*
X167447000Y-103652000D01*
X167193000Y-103652000D01*
X167193000Y-103632000D01*
X167173000Y-103632000D01*
X167173000Y-103378000D01*
X167193000Y-103378000D01*
X167193000Y-102278750D01*
X167034250Y-102120000D01*
X166751000Y-102120000D01*
X166751000Y-100965000D01*
X166721998Y-100819198D01*
X166639408Y-100695592D01*
X166515802Y-100613002D01*
X166370000Y-100584000D01*
X164465000Y-100584000D01*
X164319198Y-100613002D01*
X164195592Y-100695592D01*
X164113002Y-100819198D01*
X164084000Y-100965000D01*
X164084000Y-107315000D01*
X164113002Y-107460802D01*
X164195592Y-107584408D01*
X164243273Y-107616267D01*
X164241536Y-107625000D01*
X164241536Y-108077000D01*
X160961606Y-108077000D01*
X160147000Y-107262394D01*
X160147000Y-106045000D01*
X160137333Y-105996399D01*
X160109803Y-105955197D01*
X159474803Y-105320197D01*
X159433601Y-105292667D01*
X159385000Y-105283000D01*
X157548780Y-105283000D01*
X157570062Y-105224273D01*
X156845000Y-104499210D01*
X156119938Y-105224273D01*
X156141220Y-105283000D01*
X155008780Y-105283000D01*
X155030062Y-105224273D01*
X154305000Y-104499210D01*
X153579938Y-105224273D01*
X153601220Y-105283000D01*
X153162000Y-105283000D01*
X153162000Y-104843780D01*
X153220727Y-104865062D01*
X153945790Y-104140000D01*
X154664210Y-104140000D01*
X155389273Y-104865062D01*
X155575000Y-104797758D01*
X155760727Y-104865062D01*
X156485790Y-104140000D01*
X157204210Y-104140000D01*
X157929273Y-104865062D01*
X158160008Y-104781448D01*
X158305380Y-104229389D01*
X158245705Y-103790750D01*
X159055000Y-103790750D01*
X159055000Y-104381310D01*
X159151673Y-104614699D01*
X159330302Y-104793327D01*
X159563691Y-104890000D01*
X160054250Y-104890000D01*
X160213000Y-104731250D01*
X160213000Y-103632000D01*
X159213750Y-103632000D01*
X159055000Y-103790750D01*
X158245705Y-103790750D01*
X158228423Y-103663722D01*
X158160008Y-103498552D01*
X157929273Y-103414938D01*
X157204210Y-104140000D01*
X156485790Y-104140000D01*
X155760727Y-103414938D01*
X155575000Y-103482242D01*
X155389273Y-103414938D01*
X154664210Y-104140000D01*
X153945790Y-104140000D01*
X153220727Y-103414938D01*
X153162000Y-103436220D01*
X153162000Y-102997000D01*
X153601220Y-102997000D01*
X153579938Y-103055727D01*
X154305000Y-103780790D01*
X155030062Y-103055727D01*
X155008780Y-102997000D01*
X156141220Y-102997000D01*
X156119938Y-103055727D01*
X156845000Y-103780790D01*
X157570062Y-103055727D01*
X157542027Y-102978362D01*
X157569803Y-102959803D01*
X157900916Y-102628690D01*
X159055000Y-102628690D01*
X159055000Y-103219250D01*
X159213750Y-103378000D01*
X160213000Y-103378000D01*
X160213000Y-102278750D01*
X160467000Y-102278750D01*
X160467000Y-103378000D01*
X160487000Y-103378000D01*
X160487000Y-103632000D01*
X160467000Y-103632000D01*
X160467000Y-104731250D01*
X160625750Y-104890000D01*
X160909000Y-104890000D01*
X160909000Y-107315000D01*
X160938002Y-107460802D01*
X161020592Y-107584408D01*
X161144198Y-107666998D01*
X161211045Y-107680295D01*
X161353750Y-107823000D01*
X162303000Y-107823000D01*
X162303000Y-107803000D01*
X162557000Y-107803000D01*
X162557000Y-107823000D01*
X163506250Y-107823000D01*
X163665000Y-107664250D01*
X163665000Y-107498691D01*
X163576000Y-107283826D01*
X163576000Y-100965000D01*
X163546998Y-100819198D01*
X163464408Y-100695592D01*
X163340802Y-100613002D01*
X163195000Y-100584000D01*
X161290000Y-100584000D01*
X161144198Y-100613002D01*
X161020592Y-100695592D01*
X160938002Y-100819198D01*
X160909000Y-100965000D01*
X160909000Y-102120000D01*
X160625750Y-102120000D01*
X160467000Y-102278750D01*
X160213000Y-102278750D01*
X160054250Y-102120000D01*
X159563691Y-102120000D01*
X159330302Y-102216673D01*
X159151673Y-102395301D01*
X159055000Y-102628690D01*
X157900916Y-102628690D01*
X158204803Y-102324803D01*
X158232333Y-102283601D01*
X158242000Y-102235000D01*
X158242000Y-99822000D01*
X159867600Y-99822000D01*
X159867600Y-99851624D01*
G04 #@! TO.N,+3V3*
G36*
X162941000Y-101141833D02*
X163068000Y-101448439D01*
X163068000Y-102141411D01*
X163016309Y-102120000D01*
X162525750Y-102120000D01*
X162367000Y-102278750D01*
X162367000Y-103378000D01*
X162387000Y-103378000D01*
X162387000Y-103632000D01*
X162367000Y-103632000D01*
X162367000Y-104731250D01*
X162525750Y-104890000D01*
X163016309Y-104890000D01*
X163068000Y-104868589D01*
X163068000Y-106040000D01*
X162715750Y-106040000D01*
X162557000Y-106198750D01*
X162557000Y-106873000D01*
X162577000Y-106873000D01*
X162577000Y-107127000D01*
X162557000Y-107127000D01*
X162557000Y-107147000D01*
X162303000Y-107147000D01*
X162303000Y-107127000D01*
X162283000Y-107127000D01*
X162283000Y-106873000D01*
X162303000Y-106873000D01*
X162303000Y-106198750D01*
X162144250Y-106040000D01*
X161703690Y-106040000D01*
X161470301Y-106136673D01*
X161417000Y-106189974D01*
X161417000Y-104870660D01*
X161463691Y-104890000D01*
X161954250Y-104890000D01*
X162113000Y-104731250D01*
X162113000Y-103632000D01*
X162093000Y-103632000D01*
X162093000Y-103378000D01*
X162113000Y-103378000D01*
X162113000Y-102278750D01*
X161954250Y-102120000D01*
X161463691Y-102120000D01*
X161417000Y-102139340D01*
X161417000Y-101092000D01*
X162941000Y-101092000D01*
X162941000Y-101141833D01*
X162941000Y-101141833D01*
G37*
X162941000Y-101141833D02*
X163068000Y-101448439D01*
X163068000Y-102141411D01*
X163016309Y-102120000D01*
X162525750Y-102120000D01*
X162367000Y-102278750D01*
X162367000Y-103378000D01*
X162387000Y-103378000D01*
X162387000Y-103632000D01*
X162367000Y-103632000D01*
X162367000Y-104731250D01*
X162525750Y-104890000D01*
X163016309Y-104890000D01*
X163068000Y-104868589D01*
X163068000Y-106040000D01*
X162715750Y-106040000D01*
X162557000Y-106198750D01*
X162557000Y-106873000D01*
X162577000Y-106873000D01*
X162577000Y-107127000D01*
X162557000Y-107127000D01*
X162557000Y-107147000D01*
X162303000Y-107147000D01*
X162303000Y-107127000D01*
X162283000Y-107127000D01*
X162283000Y-106873000D01*
X162303000Y-106873000D01*
X162303000Y-106198750D01*
X162144250Y-106040000D01*
X161703690Y-106040000D01*
X161470301Y-106136673D01*
X161417000Y-106189974D01*
X161417000Y-104870660D01*
X161463691Y-104890000D01*
X161954250Y-104890000D01*
X162113000Y-104731250D01*
X162113000Y-103632000D01*
X162093000Y-103632000D01*
X162093000Y-103378000D01*
X162113000Y-103378000D01*
X162113000Y-102278750D01*
X161954250Y-102120000D01*
X161463691Y-102120000D01*
X161417000Y-102139340D01*
X161417000Y-101092000D01*
X162941000Y-101092000D01*
X162941000Y-101141833D01*
G04 #@! TO.N,+1V8*
G36*
X166116000Y-101141833D02*
X166243000Y-101448439D01*
X166243000Y-102139340D01*
X166196309Y-102120000D01*
X165705750Y-102120000D01*
X165547000Y-102278750D01*
X165547000Y-103378000D01*
X165567000Y-103378000D01*
X165567000Y-103632000D01*
X165547000Y-103632000D01*
X165547000Y-104731250D01*
X165705750Y-104890000D01*
X166196309Y-104890000D01*
X166243000Y-104870660D01*
X166243000Y-106189974D01*
X166189699Y-106136673D01*
X165956310Y-106040000D01*
X165515750Y-106040000D01*
X165357000Y-106198750D01*
X165357000Y-106873000D01*
X165377000Y-106873000D01*
X165377000Y-107127000D01*
X165357000Y-107127000D01*
X165357000Y-107147000D01*
X165103000Y-107147000D01*
X165103000Y-107127000D01*
X165083000Y-107127000D01*
X165083000Y-106873000D01*
X165103000Y-106873000D01*
X165103000Y-106198750D01*
X164944250Y-106040000D01*
X164592000Y-106040000D01*
X164592000Y-104868589D01*
X164643691Y-104890000D01*
X165134250Y-104890000D01*
X165293000Y-104731250D01*
X165293000Y-103632000D01*
X165273000Y-103632000D01*
X165273000Y-103378000D01*
X165293000Y-103378000D01*
X165293000Y-102278750D01*
X165134250Y-102120000D01*
X164643691Y-102120000D01*
X164592000Y-102141411D01*
X164592000Y-101448439D01*
X164719000Y-101141833D01*
X164719000Y-101092000D01*
X166116000Y-101092000D01*
X166116000Y-101141833D01*
X166116000Y-101141833D01*
G37*
X166116000Y-101141833D02*
X166243000Y-101448439D01*
X166243000Y-102139340D01*
X166196309Y-102120000D01*
X165705750Y-102120000D01*
X165547000Y-102278750D01*
X165547000Y-103378000D01*
X165567000Y-103378000D01*
X165567000Y-103632000D01*
X165547000Y-103632000D01*
X165547000Y-104731250D01*
X165705750Y-104890000D01*
X166196309Y-104890000D01*
X166243000Y-104870660D01*
X166243000Y-106189974D01*
X166189699Y-106136673D01*
X165956310Y-106040000D01*
X165515750Y-106040000D01*
X165357000Y-106198750D01*
X165357000Y-106873000D01*
X165377000Y-106873000D01*
X165377000Y-107127000D01*
X165357000Y-107127000D01*
X165357000Y-107147000D01*
X165103000Y-107147000D01*
X165103000Y-107127000D01*
X165083000Y-107127000D01*
X165083000Y-106873000D01*
X165103000Y-106873000D01*
X165103000Y-106198750D01*
X164944250Y-106040000D01*
X164592000Y-106040000D01*
X164592000Y-104868589D01*
X164643691Y-104890000D01*
X165134250Y-104890000D01*
X165293000Y-104731250D01*
X165293000Y-103632000D01*
X165273000Y-103632000D01*
X165273000Y-103378000D01*
X165293000Y-103378000D01*
X165293000Y-102278750D01*
X165134250Y-102120000D01*
X164643691Y-102120000D01*
X164592000Y-102141411D01*
X164592000Y-101448439D01*
X164719000Y-101141833D01*
X164719000Y-101092000D01*
X166116000Y-101092000D01*
X166116000Y-101141833D01*
G04 #@! TO.N,GND*
G36*
X155880000Y-109569250D02*
X156038750Y-109728000D01*
X157038000Y-109728000D01*
X157038000Y-109708000D01*
X157292000Y-109708000D01*
X157292000Y-109728000D01*
X157312000Y-109728000D01*
X157312000Y-109982000D01*
X157292000Y-109982000D01*
X157292000Y-110002000D01*
X157038000Y-110002000D01*
X157038000Y-109982000D01*
X156038750Y-109982000D01*
X155880000Y-110140750D01*
X155880000Y-110731310D01*
X155976673Y-110964699D01*
X156009974Y-110998000D01*
X153162000Y-110998000D01*
X153162000Y-109118400D01*
X155880000Y-109118400D01*
X155880000Y-109569250D01*
X155880000Y-109569250D01*
G37*
X155880000Y-109569250D02*
X156038750Y-109728000D01*
X157038000Y-109728000D01*
X157038000Y-109708000D01*
X157292000Y-109708000D01*
X157292000Y-109728000D01*
X157312000Y-109728000D01*
X157312000Y-109982000D01*
X157292000Y-109982000D01*
X157292000Y-110002000D01*
X157038000Y-110002000D01*
X157038000Y-109982000D01*
X156038750Y-109982000D01*
X155880000Y-110140750D01*
X155880000Y-110731310D01*
X155976673Y-110964699D01*
X156009974Y-110998000D01*
X153162000Y-110998000D01*
X153162000Y-109118400D01*
X155880000Y-109118400D01*
X155880000Y-109569250D01*
G36*
X167236673Y-75710302D02*
X167140000Y-75943691D01*
X167140000Y-76334250D01*
X167298750Y-76493000D01*
X168148000Y-76493000D01*
X168148000Y-76473000D01*
X168402000Y-76473000D01*
X168402000Y-76493000D01*
X170053000Y-76493000D01*
X170053000Y-76473000D01*
X170307000Y-76473000D01*
X170307000Y-76493000D01*
X171958000Y-76493000D01*
X171958000Y-76473000D01*
X172212000Y-76473000D01*
X172212000Y-76493000D01*
X173863000Y-76493000D01*
X173863000Y-76473000D01*
X174117000Y-76473000D01*
X174117000Y-76493000D01*
X174966250Y-76493000D01*
X175125000Y-76334250D01*
X175125000Y-75943691D01*
X175028327Y-75710302D01*
X175010025Y-75692000D01*
X184023000Y-75692000D01*
X184023000Y-79934238D01*
X183902144Y-80055094D01*
X183743600Y-80437853D01*
X183743600Y-80852147D01*
X183902144Y-81234906D01*
X184023000Y-81355762D01*
X184023000Y-83434975D01*
X184004698Y-83416673D01*
X183771309Y-83320000D01*
X183380750Y-83320000D01*
X183222000Y-83478750D01*
X183222000Y-84328000D01*
X183242000Y-84328000D01*
X183242000Y-84582000D01*
X183222000Y-84582000D01*
X183222000Y-84602000D01*
X182968000Y-84602000D01*
X182968000Y-84582000D01*
X182948000Y-84582000D01*
X182948000Y-84328000D01*
X182968000Y-84328000D01*
X182968000Y-83478750D01*
X182809250Y-83320000D01*
X182418691Y-83320000D01*
X182185302Y-83416673D01*
X182150039Y-83451936D01*
X181945000Y-83411151D01*
X180845000Y-83411151D01*
X180636878Y-83452549D01*
X180536924Y-83519336D01*
X180526938Y-83515200D01*
X180153062Y-83515200D01*
X179807646Y-83658276D01*
X179646781Y-83819141D01*
X179642463Y-83820000D01*
X179642459Y-83820000D01*
X179479376Y-83852439D01*
X179457235Y-83856843D01*
X179300210Y-83961764D01*
X179300208Y-83961766D01*
X179247191Y-83997191D01*
X179211765Y-84050209D01*
X178933975Y-84328000D01*
X178575400Y-84328000D01*
X178575400Y-83591400D01*
X178642147Y-83591400D01*
X179024906Y-83432856D01*
X179317856Y-83139906D01*
X179476400Y-82757147D01*
X179476400Y-82388698D01*
X179477083Y-82387676D01*
X179493272Y-82306291D01*
X179610039Y-82283064D01*
X179645302Y-82318327D01*
X179878691Y-82415000D01*
X180269250Y-82415000D01*
X180428000Y-82256250D01*
X180428000Y-81407000D01*
X180682000Y-81407000D01*
X180682000Y-82256250D01*
X180840750Y-82415000D01*
X181231309Y-82415000D01*
X181464698Y-82318327D01*
X181643327Y-82139699D01*
X181740000Y-81906310D01*
X181740000Y-81565750D01*
X181581250Y-81407000D01*
X180682000Y-81407000D01*
X180428000Y-81407000D01*
X180408000Y-81407000D01*
X180408000Y-81153000D01*
X180428000Y-81153000D01*
X180428000Y-81133000D01*
X180682000Y-81133000D01*
X180682000Y-81153000D01*
X181581250Y-81153000D01*
X181740000Y-80994250D01*
X181740000Y-80653690D01*
X181643327Y-80420301D01*
X181464698Y-80241673D01*
X181330251Y-80185983D01*
X181474559Y-80089559D01*
X181592451Y-79913122D01*
X181633849Y-79705000D01*
X181633849Y-78405000D01*
X181593064Y-78199961D01*
X181628327Y-78164698D01*
X181725000Y-77931309D01*
X181725000Y-77440750D01*
X181566250Y-77282000D01*
X180467000Y-77282000D01*
X180467000Y-77302000D01*
X180213000Y-77302000D01*
X180213000Y-77282000D01*
X179113750Y-77282000D01*
X178955000Y-77440750D01*
X178955000Y-77931309D01*
X179051673Y-78164698D01*
X179086936Y-78199961D01*
X179068111Y-78294600D01*
X178821889Y-78294600D01*
X178803064Y-78199961D01*
X178838327Y-78164698D01*
X178935000Y-77931309D01*
X178935000Y-77540750D01*
X178776250Y-77382000D01*
X177927000Y-77382000D01*
X177927000Y-77402000D01*
X177673000Y-77402000D01*
X177673000Y-77382000D01*
X176823750Y-77382000D01*
X176761888Y-77443862D01*
X176754699Y-77436673D01*
X176521310Y-77340000D01*
X176180750Y-77340000D01*
X176022000Y-77498750D01*
X176022000Y-78398000D01*
X176042000Y-78398000D01*
X176042000Y-78652000D01*
X176022000Y-78652000D01*
X176022000Y-78672000D01*
X175768000Y-78672000D01*
X175768000Y-78652000D01*
X175748000Y-78652000D01*
X175748000Y-78398000D01*
X175768000Y-78398000D01*
X175768000Y-77498750D01*
X175609250Y-77340000D01*
X175268690Y-77340000D01*
X175073395Y-77420894D01*
X175125000Y-77296309D01*
X175125000Y-76905750D01*
X174966250Y-76747000D01*
X174117000Y-76747000D01*
X174117000Y-76767000D01*
X173863000Y-76767000D01*
X173863000Y-76747000D01*
X172212000Y-76747000D01*
X172212000Y-76767000D01*
X171958000Y-76767000D01*
X171958000Y-76747000D01*
X170307000Y-76747000D01*
X170307000Y-76767000D01*
X170053000Y-76767000D01*
X170053000Y-76747000D01*
X168402000Y-76747000D01*
X168402000Y-76767000D01*
X168148000Y-76767000D01*
X168148000Y-76747000D01*
X167298750Y-76747000D01*
X167140000Y-76905750D01*
X167140000Y-77296309D01*
X167236673Y-77529698D01*
X167271936Y-77564961D01*
X167231151Y-77770000D01*
X167231151Y-78870000D01*
X167272549Y-79078122D01*
X167386058Y-79248000D01*
X165227000Y-79248000D01*
X165227000Y-76578691D01*
X176665000Y-76578691D01*
X176665000Y-76969250D01*
X176823750Y-77128000D01*
X177673000Y-77128000D01*
X177673000Y-76228750D01*
X177927000Y-76228750D01*
X177927000Y-77128000D01*
X178776250Y-77128000D01*
X178935000Y-76969250D01*
X178935000Y-76578691D01*
X178852158Y-76378691D01*
X178955000Y-76378691D01*
X178955000Y-76869250D01*
X179113750Y-77028000D01*
X180213000Y-77028000D01*
X180213000Y-76028750D01*
X180467000Y-76028750D01*
X180467000Y-77028000D01*
X181566250Y-77028000D01*
X181725000Y-76869250D01*
X181725000Y-76378691D01*
X181628327Y-76145302D01*
X181449699Y-75966673D01*
X181216310Y-75870000D01*
X180625750Y-75870000D01*
X180467000Y-76028750D01*
X180213000Y-76028750D01*
X180054250Y-75870000D01*
X179463690Y-75870000D01*
X179230301Y-75966673D01*
X179051673Y-76145302D01*
X178955000Y-76378691D01*
X178852158Y-76378691D01*
X178838327Y-76345302D01*
X178659699Y-76166673D01*
X178426310Y-76070000D01*
X178085750Y-76070000D01*
X177927000Y-76228750D01*
X177673000Y-76228750D01*
X177514250Y-76070000D01*
X177173690Y-76070000D01*
X176940301Y-76166673D01*
X176761673Y-76345302D01*
X176665000Y-76578691D01*
X165227000Y-76578691D01*
X165227000Y-75692000D01*
X167254975Y-75692000D01*
X167236673Y-75710302D01*
X167236673Y-75710302D01*
G37*
X167236673Y-75710302D02*
X167140000Y-75943691D01*
X167140000Y-76334250D01*
X167298750Y-76493000D01*
X168148000Y-76493000D01*
X168148000Y-76473000D01*
X168402000Y-76473000D01*
X168402000Y-76493000D01*
X170053000Y-76493000D01*
X170053000Y-76473000D01*
X170307000Y-76473000D01*
X170307000Y-76493000D01*
X171958000Y-76493000D01*
X171958000Y-76473000D01*
X172212000Y-76473000D01*
X172212000Y-76493000D01*
X173863000Y-76493000D01*
X173863000Y-76473000D01*
X174117000Y-76473000D01*
X174117000Y-76493000D01*
X174966250Y-76493000D01*
X175125000Y-76334250D01*
X175125000Y-75943691D01*
X175028327Y-75710302D01*
X175010025Y-75692000D01*
X184023000Y-75692000D01*
X184023000Y-79934238D01*
X183902144Y-80055094D01*
X183743600Y-80437853D01*
X183743600Y-80852147D01*
X183902144Y-81234906D01*
X184023000Y-81355762D01*
X184023000Y-83434975D01*
X184004698Y-83416673D01*
X183771309Y-83320000D01*
X183380750Y-83320000D01*
X183222000Y-83478750D01*
X183222000Y-84328000D01*
X183242000Y-84328000D01*
X183242000Y-84582000D01*
X183222000Y-84582000D01*
X183222000Y-84602000D01*
X182968000Y-84602000D01*
X182968000Y-84582000D01*
X182948000Y-84582000D01*
X182948000Y-84328000D01*
X182968000Y-84328000D01*
X182968000Y-83478750D01*
X182809250Y-83320000D01*
X182418691Y-83320000D01*
X182185302Y-83416673D01*
X182150039Y-83451936D01*
X181945000Y-83411151D01*
X180845000Y-83411151D01*
X180636878Y-83452549D01*
X180536924Y-83519336D01*
X180526938Y-83515200D01*
X180153062Y-83515200D01*
X179807646Y-83658276D01*
X179646781Y-83819141D01*
X179642463Y-83820000D01*
X179642459Y-83820000D01*
X179479376Y-83852439D01*
X179457235Y-83856843D01*
X179300210Y-83961764D01*
X179300208Y-83961766D01*
X179247191Y-83997191D01*
X179211765Y-84050209D01*
X178933975Y-84328000D01*
X178575400Y-84328000D01*
X178575400Y-83591400D01*
X178642147Y-83591400D01*
X179024906Y-83432856D01*
X179317856Y-83139906D01*
X179476400Y-82757147D01*
X179476400Y-82388698D01*
X179477083Y-82387676D01*
X179493272Y-82306291D01*
X179610039Y-82283064D01*
X179645302Y-82318327D01*
X179878691Y-82415000D01*
X180269250Y-82415000D01*
X180428000Y-82256250D01*
X180428000Y-81407000D01*
X180682000Y-81407000D01*
X180682000Y-82256250D01*
X180840750Y-82415000D01*
X181231309Y-82415000D01*
X181464698Y-82318327D01*
X181643327Y-82139699D01*
X181740000Y-81906310D01*
X181740000Y-81565750D01*
X181581250Y-81407000D01*
X180682000Y-81407000D01*
X180428000Y-81407000D01*
X180408000Y-81407000D01*
X180408000Y-81153000D01*
X180428000Y-81153000D01*
X180428000Y-81133000D01*
X180682000Y-81133000D01*
X180682000Y-81153000D01*
X181581250Y-81153000D01*
X181740000Y-80994250D01*
X181740000Y-80653690D01*
X181643327Y-80420301D01*
X181464698Y-80241673D01*
X181330251Y-80185983D01*
X181474559Y-80089559D01*
X181592451Y-79913122D01*
X181633849Y-79705000D01*
X181633849Y-78405000D01*
X181593064Y-78199961D01*
X181628327Y-78164698D01*
X181725000Y-77931309D01*
X181725000Y-77440750D01*
X181566250Y-77282000D01*
X180467000Y-77282000D01*
X180467000Y-77302000D01*
X180213000Y-77302000D01*
X180213000Y-77282000D01*
X179113750Y-77282000D01*
X178955000Y-77440750D01*
X178955000Y-77931309D01*
X179051673Y-78164698D01*
X179086936Y-78199961D01*
X179068111Y-78294600D01*
X178821889Y-78294600D01*
X178803064Y-78199961D01*
X178838327Y-78164698D01*
X178935000Y-77931309D01*
X178935000Y-77540750D01*
X178776250Y-77382000D01*
X177927000Y-77382000D01*
X177927000Y-77402000D01*
X177673000Y-77402000D01*
X177673000Y-77382000D01*
X176823750Y-77382000D01*
X176761888Y-77443862D01*
X176754699Y-77436673D01*
X176521310Y-77340000D01*
X176180750Y-77340000D01*
X176022000Y-77498750D01*
X176022000Y-78398000D01*
X176042000Y-78398000D01*
X176042000Y-78652000D01*
X176022000Y-78652000D01*
X176022000Y-78672000D01*
X175768000Y-78672000D01*
X175768000Y-78652000D01*
X175748000Y-78652000D01*
X175748000Y-78398000D01*
X175768000Y-78398000D01*
X175768000Y-77498750D01*
X175609250Y-77340000D01*
X175268690Y-77340000D01*
X175073395Y-77420894D01*
X175125000Y-77296309D01*
X175125000Y-76905750D01*
X174966250Y-76747000D01*
X174117000Y-76747000D01*
X174117000Y-76767000D01*
X173863000Y-76767000D01*
X173863000Y-76747000D01*
X172212000Y-76747000D01*
X172212000Y-76767000D01*
X171958000Y-76767000D01*
X171958000Y-76747000D01*
X170307000Y-76747000D01*
X170307000Y-76767000D01*
X170053000Y-76767000D01*
X170053000Y-76747000D01*
X168402000Y-76747000D01*
X168402000Y-76767000D01*
X168148000Y-76767000D01*
X168148000Y-76747000D01*
X167298750Y-76747000D01*
X167140000Y-76905750D01*
X167140000Y-77296309D01*
X167236673Y-77529698D01*
X167271936Y-77564961D01*
X167231151Y-77770000D01*
X167231151Y-78870000D01*
X167272549Y-79078122D01*
X167386058Y-79248000D01*
X165227000Y-79248000D01*
X165227000Y-76578691D01*
X176665000Y-76578691D01*
X176665000Y-76969250D01*
X176823750Y-77128000D01*
X177673000Y-77128000D01*
X177673000Y-76228750D01*
X177927000Y-76228750D01*
X177927000Y-77128000D01*
X178776250Y-77128000D01*
X178935000Y-76969250D01*
X178935000Y-76578691D01*
X178852158Y-76378691D01*
X178955000Y-76378691D01*
X178955000Y-76869250D01*
X179113750Y-77028000D01*
X180213000Y-77028000D01*
X180213000Y-76028750D01*
X180467000Y-76028750D01*
X180467000Y-77028000D01*
X181566250Y-77028000D01*
X181725000Y-76869250D01*
X181725000Y-76378691D01*
X181628327Y-76145302D01*
X181449699Y-75966673D01*
X181216310Y-75870000D01*
X180625750Y-75870000D01*
X180467000Y-76028750D01*
X180213000Y-76028750D01*
X180054250Y-75870000D01*
X179463690Y-75870000D01*
X179230301Y-75966673D01*
X179051673Y-76145302D01*
X178955000Y-76378691D01*
X178852158Y-76378691D01*
X178838327Y-76345302D01*
X178659699Y-76166673D01*
X178426310Y-76070000D01*
X178085750Y-76070000D01*
X177927000Y-76228750D01*
X177673000Y-76228750D01*
X177514250Y-76070000D01*
X177173690Y-76070000D01*
X176940301Y-76166673D01*
X176761673Y-76345302D01*
X176665000Y-76578691D01*
X165227000Y-76578691D01*
X165227000Y-75692000D01*
X167254975Y-75692000D01*
X167236673Y-75710302D01*
G04 #@! TO.N,+3V3*
G36*
X187833000Y-100312750D02*
X187772000Y-100373750D01*
X187772000Y-101473000D01*
X187792000Y-101473000D01*
X187792000Y-101727000D01*
X187772000Y-101727000D01*
X187772000Y-102826250D01*
X187833000Y-102887250D01*
X187833000Y-103378000D01*
X184935031Y-103378000D01*
X184927809Y-103367191D01*
X184912000Y-103356628D01*
X184912000Y-101885750D01*
X186360000Y-101885750D01*
X186360000Y-102476310D01*
X186456673Y-102709699D01*
X186635302Y-102888327D01*
X186868691Y-102985000D01*
X187359250Y-102985000D01*
X187518000Y-102826250D01*
X187518000Y-101727000D01*
X186518750Y-101727000D01*
X186360000Y-101885750D01*
X184912000Y-101885750D01*
X184912000Y-100723690D01*
X186360000Y-100723690D01*
X186360000Y-101314250D01*
X186518750Y-101473000D01*
X187518000Y-101473000D01*
X187518000Y-100373750D01*
X187359250Y-100215000D01*
X186868691Y-100215000D01*
X186635302Y-100311673D01*
X186456673Y-100490301D01*
X186360000Y-100723690D01*
X184912000Y-100723690D01*
X184912000Y-99822000D01*
X187833000Y-99822000D01*
X187833000Y-100312750D01*
X187833000Y-100312750D01*
G37*
X187833000Y-100312750D02*
X187772000Y-100373750D01*
X187772000Y-101473000D01*
X187792000Y-101473000D01*
X187792000Y-101727000D01*
X187772000Y-101727000D01*
X187772000Y-102826250D01*
X187833000Y-102887250D01*
X187833000Y-103378000D01*
X184935031Y-103378000D01*
X184927809Y-103367191D01*
X184912000Y-103356628D01*
X184912000Y-101885750D01*
X186360000Y-101885750D01*
X186360000Y-102476310D01*
X186456673Y-102709699D01*
X186635302Y-102888327D01*
X186868691Y-102985000D01*
X187359250Y-102985000D01*
X187518000Y-102826250D01*
X187518000Y-101727000D01*
X186518750Y-101727000D01*
X186360000Y-101885750D01*
X184912000Y-101885750D01*
X184912000Y-100723690D01*
X186360000Y-100723690D01*
X186360000Y-101314250D01*
X186518750Y-101473000D01*
X187518000Y-101473000D01*
X187518000Y-100373750D01*
X187359250Y-100215000D01*
X186868691Y-100215000D01*
X186635302Y-100311673D01*
X186456673Y-100490301D01*
X186360000Y-100723690D01*
X184912000Y-100723690D01*
X184912000Y-99822000D01*
X187833000Y-99822000D01*
X187833000Y-100312750D01*
G04 #@! TO.N,AVDD*
G36*
X192278000Y-103378000D02*
X189357000Y-103378000D01*
X189357000Y-102887250D01*
X189418000Y-102826250D01*
X189418000Y-101727000D01*
X189672000Y-101727000D01*
X189672000Y-102826250D01*
X189830750Y-102985000D01*
X190321309Y-102985000D01*
X190554698Y-102888327D01*
X190733327Y-102709699D01*
X190830000Y-102476310D01*
X190830000Y-101885750D01*
X190671250Y-101727000D01*
X189672000Y-101727000D01*
X189418000Y-101727000D01*
X189398000Y-101727000D01*
X189398000Y-101473000D01*
X189418000Y-101473000D01*
X189418000Y-100373750D01*
X189672000Y-100373750D01*
X189672000Y-101473000D01*
X190671250Y-101473000D01*
X190830000Y-101314250D01*
X190830000Y-100723690D01*
X190733327Y-100490301D01*
X190554698Y-100311673D01*
X190321309Y-100215000D01*
X189830750Y-100215000D01*
X189672000Y-100373750D01*
X189418000Y-100373750D01*
X189357000Y-100312750D01*
X189357000Y-99822000D01*
X192278000Y-99822000D01*
X192278000Y-103378000D01*
X192278000Y-103378000D01*
G37*
X192278000Y-103378000D02*
X189357000Y-103378000D01*
X189357000Y-102887250D01*
X189418000Y-102826250D01*
X189418000Y-101727000D01*
X189672000Y-101727000D01*
X189672000Y-102826250D01*
X189830750Y-102985000D01*
X190321309Y-102985000D01*
X190554698Y-102888327D01*
X190733327Y-102709699D01*
X190830000Y-102476310D01*
X190830000Y-101885750D01*
X190671250Y-101727000D01*
X189672000Y-101727000D01*
X189418000Y-101727000D01*
X189398000Y-101727000D01*
X189398000Y-101473000D01*
X189418000Y-101473000D01*
X189418000Y-100373750D01*
X189672000Y-100373750D01*
X189672000Y-101473000D01*
X190671250Y-101473000D01*
X190830000Y-101314250D01*
X190830000Y-100723690D01*
X190733327Y-100490301D01*
X190554698Y-100311673D01*
X190321309Y-100215000D01*
X189830750Y-100215000D01*
X189672000Y-100373750D01*
X189418000Y-100373750D01*
X189357000Y-100312750D01*
X189357000Y-99822000D01*
X192278000Y-99822000D01*
X192278000Y-103378000D01*
D33*
G04 #@! TO.N,GND*
G36*
X200558400Y-104673400D02*
X197586600Y-104673400D01*
X197586600Y-104138200D01*
X197647600Y-104077200D01*
X197647600Y-103022400D01*
X197952400Y-103022400D01*
X197952400Y-104077200D01*
X198104800Y-104229600D01*
X198571257Y-104229600D01*
X198795311Y-104136794D01*
X198966794Y-103965311D01*
X199059600Y-103741257D01*
X199059600Y-103174800D01*
X198907200Y-103022400D01*
X197952400Y-103022400D01*
X197647600Y-103022400D01*
X197627600Y-103022400D01*
X197627600Y-102717600D01*
X197647600Y-102717600D01*
X197647600Y-101662800D01*
X197952400Y-101662800D01*
X197952400Y-102717600D01*
X198907200Y-102717600D01*
X199059600Y-102565200D01*
X199059600Y-101998743D01*
X198966794Y-101774689D01*
X198795311Y-101603206D01*
X198571257Y-101510400D01*
X198104800Y-101510400D01*
X197952400Y-101662800D01*
X197647600Y-101662800D01*
X197586600Y-101601800D01*
X197586600Y-101066600D01*
X200558400Y-101066600D01*
X200558400Y-104673400D01*
X200558400Y-104673400D01*
G37*
X200558400Y-104673400D02*
X197586600Y-104673400D01*
X197586600Y-104138200D01*
X197647600Y-104077200D01*
X197647600Y-103022400D01*
X197952400Y-103022400D01*
X197952400Y-104077200D01*
X198104800Y-104229600D01*
X198571257Y-104229600D01*
X198795311Y-104136794D01*
X198966794Y-103965311D01*
X199059600Y-103741257D01*
X199059600Y-103174800D01*
X198907200Y-103022400D01*
X197952400Y-103022400D01*
X197647600Y-103022400D01*
X197627600Y-103022400D01*
X197627600Y-102717600D01*
X197647600Y-102717600D01*
X197647600Y-101662800D01*
X197952400Y-101662800D01*
X197952400Y-102717600D01*
X198907200Y-102717600D01*
X199059600Y-102565200D01*
X199059600Y-101998743D01*
X198966794Y-101774689D01*
X198795311Y-101603206D01*
X198571257Y-101510400D01*
X198104800Y-101510400D01*
X197952400Y-101662800D01*
X197647600Y-101662800D01*
X197586600Y-101601800D01*
X197586600Y-101066600D01*
X200558400Y-101066600D01*
X200558400Y-104673400D01*
D34*
G04 #@! TO.N,AGND*
G36*
X195732401Y-96472467D02*
X195722946Y-96520000D01*
X195749389Y-96652935D01*
X195760402Y-96708301D01*
X195867066Y-96867935D01*
X195907362Y-96894860D01*
X197110140Y-98097639D01*
X197137065Y-98137935D01*
X197296699Y-98244599D01*
X197437471Y-98272600D01*
X197484999Y-98282054D01*
X197532527Y-98272600D01*
X204676472Y-98272600D01*
X204724000Y-98282054D01*
X204771528Y-98272600D01*
X204771529Y-98272600D01*
X204912301Y-98244599D01*
X205071935Y-98137935D01*
X205098862Y-98097637D01*
X205547639Y-97648859D01*
X205587935Y-97621935D01*
X205612998Y-97584426D01*
X205612998Y-97665000D01*
X205613000Y-97665000D01*
X205613000Y-99568000D01*
X196215000Y-99568000D01*
X196166399Y-99577667D01*
X196125197Y-99605197D01*
X196097667Y-99646399D01*
X196088000Y-99695000D01*
X196088000Y-101582750D01*
X196027000Y-101643750D01*
X196027000Y-102743000D01*
X196047000Y-102743000D01*
X196047000Y-102997000D01*
X196027000Y-102997000D01*
X196027000Y-104096250D01*
X196088000Y-104157250D01*
X196088000Y-105283000D01*
X193167000Y-105283000D01*
X193167000Y-103155750D01*
X194615000Y-103155750D01*
X194615000Y-103746310D01*
X194711673Y-103979699D01*
X194890302Y-104158327D01*
X195123691Y-104255000D01*
X195614250Y-104255000D01*
X195773000Y-104096250D01*
X195773000Y-102997000D01*
X194773750Y-102997000D01*
X194615000Y-103155750D01*
X193167000Y-103155750D01*
X193167000Y-101993690D01*
X194615000Y-101993690D01*
X194615000Y-102584250D01*
X194773750Y-102743000D01*
X195773000Y-102743000D01*
X195773000Y-101643750D01*
X195614250Y-101485000D01*
X195123691Y-101485000D01*
X194890302Y-101581673D01*
X194711673Y-101760301D01*
X194615000Y-101993690D01*
X193167000Y-101993690D01*
X193167000Y-99060000D01*
X193157333Y-99011399D01*
X193129803Y-98970197D01*
X193089794Y-98943464D01*
X193540000Y-98943464D01*
X193688659Y-98913894D01*
X193814686Y-98829686D01*
X193898894Y-98703659D01*
X193928464Y-98555000D01*
X193928464Y-97455000D01*
X193913459Y-97379567D01*
X194078327Y-97214698D01*
X194175000Y-96981309D01*
X194175000Y-96590750D01*
X194016250Y-96432000D01*
X193167000Y-96432000D01*
X193167000Y-96452000D01*
X192913000Y-96452000D01*
X192913000Y-96432000D01*
X192893000Y-96432000D01*
X192893000Y-96178000D01*
X192913000Y-96178000D01*
X192913000Y-95278750D01*
X193167000Y-95278750D01*
X193167000Y-96178000D01*
X194016250Y-96178000D01*
X194175000Y-96019250D01*
X194175000Y-95628691D01*
X194078327Y-95395302D01*
X193899699Y-95216673D01*
X193666310Y-95120000D01*
X193325750Y-95120000D01*
X193167000Y-95278750D01*
X192913000Y-95278750D01*
X192754250Y-95120000D01*
X192413690Y-95120000D01*
X192180301Y-95216673D01*
X192001673Y-95395302D01*
X191944733Y-95532766D01*
X191909686Y-95480314D01*
X191783659Y-95396106D01*
X191690019Y-95377480D01*
X191762639Y-95304860D01*
X191802935Y-95277935D01*
X191909490Y-95118464D01*
X192105000Y-95118464D01*
X192253659Y-95088894D01*
X192379686Y-95004686D01*
X192405000Y-94966801D01*
X192430314Y-95004686D01*
X192556341Y-95088894D01*
X192705000Y-95118464D01*
X194005000Y-95118464D01*
X194153659Y-95088894D01*
X194279686Y-95004686D01*
X194363894Y-94878659D01*
X194393464Y-94730000D01*
X194393464Y-94455452D01*
X194498301Y-94434599D01*
X194657935Y-94327935D01*
X194684861Y-94287637D01*
X194840099Y-94132400D01*
X195101624Y-94132400D01*
X195391026Y-94012525D01*
X195612525Y-93791026D01*
X195732400Y-93501624D01*
X195732401Y-96472467D01*
X195732401Y-96472467D01*
G37*
X195732401Y-96472467D02*
X195722946Y-96520000D01*
X195749389Y-96652935D01*
X195760402Y-96708301D01*
X195867066Y-96867935D01*
X195907362Y-96894860D01*
X197110140Y-98097639D01*
X197137065Y-98137935D01*
X197296699Y-98244599D01*
X197437471Y-98272600D01*
X197484999Y-98282054D01*
X197532527Y-98272600D01*
X204676472Y-98272600D01*
X204724000Y-98282054D01*
X204771528Y-98272600D01*
X204771529Y-98272600D01*
X204912301Y-98244599D01*
X205071935Y-98137935D01*
X205098862Y-98097637D01*
X205547639Y-97648859D01*
X205587935Y-97621935D01*
X205612998Y-97584426D01*
X205612998Y-97665000D01*
X205613000Y-97665000D01*
X205613000Y-99568000D01*
X196215000Y-99568000D01*
X196166399Y-99577667D01*
X196125197Y-99605197D01*
X196097667Y-99646399D01*
X196088000Y-99695000D01*
X196088000Y-101582750D01*
X196027000Y-101643750D01*
X196027000Y-102743000D01*
X196047000Y-102743000D01*
X196047000Y-102997000D01*
X196027000Y-102997000D01*
X196027000Y-104096250D01*
X196088000Y-104157250D01*
X196088000Y-105283000D01*
X193167000Y-105283000D01*
X193167000Y-103155750D01*
X194615000Y-103155750D01*
X194615000Y-103746310D01*
X194711673Y-103979699D01*
X194890302Y-104158327D01*
X195123691Y-104255000D01*
X195614250Y-104255000D01*
X195773000Y-104096250D01*
X195773000Y-102997000D01*
X194773750Y-102997000D01*
X194615000Y-103155750D01*
X193167000Y-103155750D01*
X193167000Y-101993690D01*
X194615000Y-101993690D01*
X194615000Y-102584250D01*
X194773750Y-102743000D01*
X195773000Y-102743000D01*
X195773000Y-101643750D01*
X195614250Y-101485000D01*
X195123691Y-101485000D01*
X194890302Y-101581673D01*
X194711673Y-101760301D01*
X194615000Y-101993690D01*
X193167000Y-101993690D01*
X193167000Y-99060000D01*
X193157333Y-99011399D01*
X193129803Y-98970197D01*
X193089794Y-98943464D01*
X193540000Y-98943464D01*
X193688659Y-98913894D01*
X193814686Y-98829686D01*
X193898894Y-98703659D01*
X193928464Y-98555000D01*
X193928464Y-97455000D01*
X193913459Y-97379567D01*
X194078327Y-97214698D01*
X194175000Y-96981309D01*
X194175000Y-96590750D01*
X194016250Y-96432000D01*
X193167000Y-96432000D01*
X193167000Y-96452000D01*
X192913000Y-96452000D01*
X192913000Y-96432000D01*
X192893000Y-96432000D01*
X192893000Y-96178000D01*
X192913000Y-96178000D01*
X192913000Y-95278750D01*
X193167000Y-95278750D01*
X193167000Y-96178000D01*
X194016250Y-96178000D01*
X194175000Y-96019250D01*
X194175000Y-95628691D01*
X194078327Y-95395302D01*
X193899699Y-95216673D01*
X193666310Y-95120000D01*
X193325750Y-95120000D01*
X193167000Y-95278750D01*
X192913000Y-95278750D01*
X192754250Y-95120000D01*
X192413690Y-95120000D01*
X192180301Y-95216673D01*
X192001673Y-95395302D01*
X191944733Y-95532766D01*
X191909686Y-95480314D01*
X191783659Y-95396106D01*
X191690019Y-95377480D01*
X191762639Y-95304860D01*
X191802935Y-95277935D01*
X191909490Y-95118464D01*
X192105000Y-95118464D01*
X192253659Y-95088894D01*
X192379686Y-95004686D01*
X192405000Y-94966801D01*
X192430314Y-95004686D01*
X192556341Y-95088894D01*
X192705000Y-95118464D01*
X194005000Y-95118464D01*
X194153659Y-95088894D01*
X194279686Y-95004686D01*
X194363894Y-94878659D01*
X194393464Y-94730000D01*
X194393464Y-94455452D01*
X194498301Y-94434599D01*
X194657935Y-94327935D01*
X194684861Y-94287637D01*
X194840099Y-94132400D01*
X195101624Y-94132400D01*
X195391026Y-94012525D01*
X195612525Y-93791026D01*
X195732400Y-93501624D01*
X195732401Y-96472467D01*
G36*
X188252488Y-93684987D02*
X188214000Y-93777905D01*
X188214000Y-94182095D01*
X188368676Y-94555518D01*
X188654482Y-94841324D01*
X189027905Y-94996000D01*
X189432095Y-94996000D01*
X189805518Y-94841324D01*
X190091324Y-94555518D01*
X190129812Y-94462600D01*
X190416536Y-94462600D01*
X190416536Y-94730000D01*
X190446106Y-94878659D01*
X190530314Y-95004686D01*
X190656341Y-95088894D01*
X190674282Y-95092463D01*
X190668805Y-95120000D01*
X190642946Y-95250000D01*
X190652400Y-95297528D01*
X190652400Y-95366536D01*
X190635000Y-95366536D01*
X190486341Y-95396106D01*
X190360314Y-95480314D01*
X190276106Y-95606341D01*
X190246536Y-95755000D01*
X190246536Y-96855000D01*
X190276106Y-97003659D01*
X190360314Y-97129686D01*
X190398199Y-97155000D01*
X190360314Y-97180314D01*
X190276106Y-97306341D01*
X190246536Y-97455000D01*
X190246536Y-98555000D01*
X190276106Y-98703659D01*
X190360314Y-98829686D01*
X190486341Y-98913894D01*
X190582394Y-98933000D01*
X189282606Y-98933000D01*
X188086316Y-97736710D01*
X188193327Y-97629699D01*
X188290000Y-97396310D01*
X188290000Y-96805750D01*
X188131250Y-96647000D01*
X187132000Y-96647000D01*
X187132000Y-96667000D01*
X186878000Y-96667000D01*
X186878000Y-96647000D01*
X186858000Y-96647000D01*
X186858000Y-96393000D01*
X186878000Y-96393000D01*
X186878000Y-95293750D01*
X187132000Y-95293750D01*
X187132000Y-96393000D01*
X188131250Y-96393000D01*
X188290000Y-96234250D01*
X188290000Y-95643690D01*
X188193327Y-95410301D01*
X188014698Y-95231673D01*
X187781309Y-95135000D01*
X187290750Y-95135000D01*
X187132000Y-95293750D01*
X186878000Y-95293750D01*
X186719250Y-95135000D01*
X186228691Y-95135000D01*
X185995302Y-95231673D01*
X185830433Y-95396541D01*
X185755000Y-95381536D01*
X185613000Y-95381536D01*
X185613000Y-94868464D01*
X185755000Y-94868464D01*
X185830433Y-94853459D01*
X185995302Y-95018327D01*
X186228691Y-95115000D01*
X186619250Y-95115000D01*
X186778000Y-94956250D01*
X186778000Y-94107000D01*
X187032000Y-94107000D01*
X187032000Y-94956250D01*
X187190750Y-95115000D01*
X187581309Y-95115000D01*
X187814698Y-95018327D01*
X187993327Y-94839699D01*
X188090000Y-94606310D01*
X188090000Y-94265750D01*
X187931250Y-94107000D01*
X187032000Y-94107000D01*
X186778000Y-94107000D01*
X186758000Y-94107000D01*
X186758000Y-93853000D01*
X186778000Y-93853000D01*
X186778000Y-93833000D01*
X187032000Y-93833000D01*
X187032000Y-93853000D01*
X187931250Y-93853000D01*
X188090000Y-93694250D01*
X188090000Y-93522500D01*
X188252488Y-93684987D01*
X188252488Y-93684987D01*
G37*
X188252488Y-93684987D02*
X188214000Y-93777905D01*
X188214000Y-94182095D01*
X188368676Y-94555518D01*
X188654482Y-94841324D01*
X189027905Y-94996000D01*
X189432095Y-94996000D01*
X189805518Y-94841324D01*
X190091324Y-94555518D01*
X190129812Y-94462600D01*
X190416536Y-94462600D01*
X190416536Y-94730000D01*
X190446106Y-94878659D01*
X190530314Y-95004686D01*
X190656341Y-95088894D01*
X190674282Y-95092463D01*
X190668805Y-95120000D01*
X190642946Y-95250000D01*
X190652400Y-95297528D01*
X190652400Y-95366536D01*
X190635000Y-95366536D01*
X190486341Y-95396106D01*
X190360314Y-95480314D01*
X190276106Y-95606341D01*
X190246536Y-95755000D01*
X190246536Y-96855000D01*
X190276106Y-97003659D01*
X190360314Y-97129686D01*
X190398199Y-97155000D01*
X190360314Y-97180314D01*
X190276106Y-97306341D01*
X190246536Y-97455000D01*
X190246536Y-98555000D01*
X190276106Y-98703659D01*
X190360314Y-98829686D01*
X190486341Y-98913894D01*
X190582394Y-98933000D01*
X189282606Y-98933000D01*
X188086316Y-97736710D01*
X188193327Y-97629699D01*
X188290000Y-97396310D01*
X188290000Y-96805750D01*
X188131250Y-96647000D01*
X187132000Y-96647000D01*
X187132000Y-96667000D01*
X186878000Y-96667000D01*
X186878000Y-96647000D01*
X186858000Y-96647000D01*
X186858000Y-96393000D01*
X186878000Y-96393000D01*
X186878000Y-95293750D01*
X187132000Y-95293750D01*
X187132000Y-96393000D01*
X188131250Y-96393000D01*
X188290000Y-96234250D01*
X188290000Y-95643690D01*
X188193327Y-95410301D01*
X188014698Y-95231673D01*
X187781309Y-95135000D01*
X187290750Y-95135000D01*
X187132000Y-95293750D01*
X186878000Y-95293750D01*
X186719250Y-95135000D01*
X186228691Y-95135000D01*
X185995302Y-95231673D01*
X185830433Y-95396541D01*
X185755000Y-95381536D01*
X185613000Y-95381536D01*
X185613000Y-94868464D01*
X185755000Y-94868464D01*
X185830433Y-94853459D01*
X185995302Y-95018327D01*
X186228691Y-95115000D01*
X186619250Y-95115000D01*
X186778000Y-94956250D01*
X186778000Y-94107000D01*
X187032000Y-94107000D01*
X187032000Y-94956250D01*
X187190750Y-95115000D01*
X187581309Y-95115000D01*
X187814698Y-95018327D01*
X187993327Y-94839699D01*
X188090000Y-94606310D01*
X188090000Y-94265750D01*
X187931250Y-94107000D01*
X187032000Y-94107000D01*
X186778000Y-94107000D01*
X186758000Y-94107000D01*
X186758000Y-93853000D01*
X186778000Y-93853000D01*
X186778000Y-93833000D01*
X187032000Y-93833000D01*
X187032000Y-93853000D01*
X187931250Y-93853000D01*
X188090000Y-93694250D01*
X188090000Y-93522500D01*
X188252488Y-93684987D01*
G36*
X196088000Y-86360000D02*
X196097667Y-86408601D01*
X196125197Y-86449803D01*
X196166399Y-86477333D01*
X196215000Y-86487000D01*
X205613000Y-86487000D01*
X205613000Y-89324580D01*
X205359000Y-89070580D01*
X205359000Y-88723167D01*
X205223658Y-88396422D01*
X204973578Y-88146342D01*
X204646833Y-88011000D01*
X204293167Y-88011000D01*
X203966422Y-88146342D01*
X203720764Y-88392000D01*
X203716873Y-88392000D01*
X203688894Y-88251341D01*
X203604686Y-88125314D01*
X203478659Y-88041106D01*
X203330000Y-88011536D01*
X202230000Y-88011536D01*
X202154567Y-88026541D01*
X201989698Y-87861673D01*
X201756309Y-87765000D01*
X201365750Y-87765000D01*
X201207000Y-87923750D01*
X201207000Y-88773000D01*
X201227000Y-88773000D01*
X201227000Y-89027000D01*
X201207000Y-89027000D01*
X201207000Y-89047000D01*
X200953000Y-89047000D01*
X200953000Y-89027000D01*
X200053750Y-89027000D01*
X199895000Y-89185750D01*
X199895000Y-89526310D01*
X199961726Y-89687400D01*
X198115951Y-89687400D01*
X197931026Y-89502475D01*
X197641624Y-89382600D01*
X197328376Y-89382600D01*
X197038974Y-89502475D01*
X196817475Y-89723974D01*
X196697600Y-90013376D01*
X196697600Y-90326624D01*
X196817475Y-90616026D01*
X197038974Y-90837525D01*
X197328376Y-90957400D01*
X197641624Y-90957400D01*
X197790000Y-90895940D01*
X197790000Y-91154250D01*
X197948750Y-91313000D01*
X198948000Y-91313000D01*
X198948000Y-91293000D01*
X199202000Y-91293000D01*
X199202000Y-91313000D01*
X199222000Y-91313000D01*
X199222000Y-91567000D01*
X199202000Y-91567000D01*
X199202000Y-91587000D01*
X198948000Y-91587000D01*
X198948000Y-91567000D01*
X197948750Y-91567000D01*
X197790000Y-91725750D01*
X197790000Y-92316310D01*
X197886673Y-92549699D01*
X198065302Y-92728327D01*
X198201646Y-92784803D01*
X198087475Y-92898974D01*
X197967600Y-93188376D01*
X197967600Y-93501624D01*
X198087475Y-93791026D01*
X198276449Y-93980000D01*
X198087475Y-94168974D01*
X197967600Y-94458376D01*
X197967600Y-94771624D01*
X198087475Y-95061026D01*
X198201646Y-95175197D01*
X198065302Y-95231673D01*
X197886673Y-95410301D01*
X197790000Y-95643690D01*
X197790000Y-96234250D01*
X197948750Y-96393000D01*
X198948000Y-96393000D01*
X198948000Y-96373000D01*
X199202000Y-96373000D01*
X199202000Y-96393000D01*
X199222000Y-96393000D01*
X199222000Y-96647000D01*
X199202000Y-96647000D01*
X199202000Y-96667000D01*
X198948000Y-96667000D01*
X198948000Y-96647000D01*
X197948750Y-96647000D01*
X197790000Y-96805750D01*
X197790000Y-97307400D01*
X197684899Y-97307400D01*
X196697600Y-96320102D01*
X196697600Y-91487529D01*
X196707054Y-91440000D01*
X196669599Y-91251699D01*
X196589858Y-91132358D01*
X196562935Y-91092065D01*
X196522642Y-91065142D01*
X196062600Y-90605102D01*
X196062600Y-88947527D01*
X196072054Y-88899999D01*
X196053418Y-88806310D01*
X196034599Y-88711699D01*
X195927935Y-88552065D01*
X195887640Y-88525141D01*
X195636189Y-88273690D01*
X199895000Y-88273690D01*
X199895000Y-88614250D01*
X200053750Y-88773000D01*
X200953000Y-88773000D01*
X200953000Y-87923750D01*
X200794250Y-87765000D01*
X200403691Y-87765000D01*
X200170302Y-87861673D01*
X199991673Y-88040301D01*
X199895000Y-88273690D01*
X195636189Y-88273690D01*
X194684862Y-87322364D01*
X194657935Y-87282065D01*
X194498301Y-87175401D01*
X194393464Y-87154548D01*
X194393464Y-86880000D01*
X194363894Y-86731341D01*
X194279686Y-86605314D01*
X194153659Y-86521106D01*
X194005000Y-86491536D01*
X192705000Y-86491536D01*
X192556341Y-86521106D01*
X192430314Y-86605314D01*
X192405000Y-86643199D01*
X192379686Y-86605314D01*
X192253659Y-86521106D01*
X192105000Y-86491536D01*
X191909490Y-86491536D01*
X191802935Y-86332065D01*
X191762639Y-86305140D01*
X191690019Y-86232520D01*
X191783659Y-86213894D01*
X191909686Y-86129686D01*
X191944733Y-86077234D01*
X192001673Y-86214698D01*
X192180301Y-86393327D01*
X192413690Y-86490000D01*
X192754250Y-86490000D01*
X192913000Y-86331250D01*
X192913000Y-85432000D01*
X193167000Y-85432000D01*
X193167000Y-86331250D01*
X193325750Y-86490000D01*
X193666310Y-86490000D01*
X193899699Y-86393327D01*
X194078327Y-86214698D01*
X194175000Y-85981309D01*
X194175000Y-85590750D01*
X194016250Y-85432000D01*
X193167000Y-85432000D01*
X192913000Y-85432000D01*
X192893000Y-85432000D01*
X192893000Y-85178000D01*
X192913000Y-85178000D01*
X192913000Y-85158000D01*
X193167000Y-85158000D01*
X193167000Y-85178000D01*
X194016250Y-85178000D01*
X194175000Y-85019250D01*
X194175000Y-84628691D01*
X194078327Y-84395302D01*
X193913459Y-84230433D01*
X193928464Y-84155000D01*
X193928464Y-83312000D01*
X196088000Y-83312000D01*
X196088000Y-86360000D01*
X196088000Y-86360000D01*
G37*
X196088000Y-86360000D02*
X196097667Y-86408601D01*
X196125197Y-86449803D01*
X196166399Y-86477333D01*
X196215000Y-86487000D01*
X205613000Y-86487000D01*
X205613000Y-89324580D01*
X205359000Y-89070580D01*
X205359000Y-88723167D01*
X205223658Y-88396422D01*
X204973578Y-88146342D01*
X204646833Y-88011000D01*
X204293167Y-88011000D01*
X203966422Y-88146342D01*
X203720764Y-88392000D01*
X203716873Y-88392000D01*
X203688894Y-88251341D01*
X203604686Y-88125314D01*
X203478659Y-88041106D01*
X203330000Y-88011536D01*
X202230000Y-88011536D01*
X202154567Y-88026541D01*
X201989698Y-87861673D01*
X201756309Y-87765000D01*
X201365750Y-87765000D01*
X201207000Y-87923750D01*
X201207000Y-88773000D01*
X201227000Y-88773000D01*
X201227000Y-89027000D01*
X201207000Y-89027000D01*
X201207000Y-89047000D01*
X200953000Y-89047000D01*
X200953000Y-89027000D01*
X200053750Y-89027000D01*
X199895000Y-89185750D01*
X199895000Y-89526310D01*
X199961726Y-89687400D01*
X198115951Y-89687400D01*
X197931026Y-89502475D01*
X197641624Y-89382600D01*
X197328376Y-89382600D01*
X197038974Y-89502475D01*
X196817475Y-89723974D01*
X196697600Y-90013376D01*
X196697600Y-90326624D01*
X196817475Y-90616026D01*
X197038974Y-90837525D01*
X197328376Y-90957400D01*
X197641624Y-90957400D01*
X197790000Y-90895940D01*
X197790000Y-91154250D01*
X197948750Y-91313000D01*
X198948000Y-91313000D01*
X198948000Y-91293000D01*
X199202000Y-91293000D01*
X199202000Y-91313000D01*
X199222000Y-91313000D01*
X199222000Y-91567000D01*
X199202000Y-91567000D01*
X199202000Y-91587000D01*
X198948000Y-91587000D01*
X198948000Y-91567000D01*
X197948750Y-91567000D01*
X197790000Y-91725750D01*
X197790000Y-92316310D01*
X197886673Y-92549699D01*
X198065302Y-92728327D01*
X198201646Y-92784803D01*
X198087475Y-92898974D01*
X197967600Y-93188376D01*
X197967600Y-93501624D01*
X198087475Y-93791026D01*
X198276449Y-93980000D01*
X198087475Y-94168974D01*
X197967600Y-94458376D01*
X197967600Y-94771624D01*
X198087475Y-95061026D01*
X198201646Y-95175197D01*
X198065302Y-95231673D01*
X197886673Y-95410301D01*
X197790000Y-95643690D01*
X197790000Y-96234250D01*
X197948750Y-96393000D01*
X198948000Y-96393000D01*
X198948000Y-96373000D01*
X199202000Y-96373000D01*
X199202000Y-96393000D01*
X199222000Y-96393000D01*
X199222000Y-96647000D01*
X199202000Y-96647000D01*
X199202000Y-96667000D01*
X198948000Y-96667000D01*
X198948000Y-96647000D01*
X197948750Y-96647000D01*
X197790000Y-96805750D01*
X197790000Y-97307400D01*
X197684899Y-97307400D01*
X196697600Y-96320102D01*
X196697600Y-91487529D01*
X196707054Y-91440000D01*
X196669599Y-91251699D01*
X196589858Y-91132358D01*
X196562935Y-91092065D01*
X196522642Y-91065142D01*
X196062600Y-90605102D01*
X196062600Y-88947527D01*
X196072054Y-88899999D01*
X196053418Y-88806310D01*
X196034599Y-88711699D01*
X195927935Y-88552065D01*
X195887640Y-88525141D01*
X195636189Y-88273690D01*
X199895000Y-88273690D01*
X199895000Y-88614250D01*
X200053750Y-88773000D01*
X200953000Y-88773000D01*
X200953000Y-87923750D01*
X200794250Y-87765000D01*
X200403691Y-87765000D01*
X200170302Y-87861673D01*
X199991673Y-88040301D01*
X199895000Y-88273690D01*
X195636189Y-88273690D01*
X194684862Y-87322364D01*
X194657935Y-87282065D01*
X194498301Y-87175401D01*
X194393464Y-87154548D01*
X194393464Y-86880000D01*
X194363894Y-86731341D01*
X194279686Y-86605314D01*
X194153659Y-86521106D01*
X194005000Y-86491536D01*
X192705000Y-86491536D01*
X192556341Y-86521106D01*
X192430314Y-86605314D01*
X192405000Y-86643199D01*
X192379686Y-86605314D01*
X192253659Y-86521106D01*
X192105000Y-86491536D01*
X191909490Y-86491536D01*
X191802935Y-86332065D01*
X191762639Y-86305140D01*
X191690019Y-86232520D01*
X191783659Y-86213894D01*
X191909686Y-86129686D01*
X191944733Y-86077234D01*
X192001673Y-86214698D01*
X192180301Y-86393327D01*
X192413690Y-86490000D01*
X192754250Y-86490000D01*
X192913000Y-86331250D01*
X192913000Y-85432000D01*
X193167000Y-85432000D01*
X193167000Y-86331250D01*
X193325750Y-86490000D01*
X193666310Y-86490000D01*
X193899699Y-86393327D01*
X194078327Y-86214698D01*
X194175000Y-85981309D01*
X194175000Y-85590750D01*
X194016250Y-85432000D01*
X193167000Y-85432000D01*
X192913000Y-85432000D01*
X192893000Y-85432000D01*
X192893000Y-85178000D01*
X192913000Y-85178000D01*
X192913000Y-85158000D01*
X193167000Y-85158000D01*
X193167000Y-85178000D01*
X194016250Y-85178000D01*
X194175000Y-85019250D01*
X194175000Y-84628691D01*
X194078327Y-84395302D01*
X193913459Y-84230433D01*
X193928464Y-84155000D01*
X193928464Y-83312000D01*
X196088000Y-83312000D01*
X196088000Y-86360000D01*
G36*
X181712000Y-93617500D02*
X181692000Y-93617500D01*
X181692000Y-94156250D01*
X181850750Y-94315000D01*
X182391309Y-94315000D01*
X182624698Y-94218327D01*
X182643630Y-94199395D01*
X182761342Y-94483578D01*
X183011422Y-94733658D01*
X183338167Y-94869000D01*
X183691833Y-94869000D01*
X184018578Y-94733658D01*
X184264236Y-94488000D01*
X184268127Y-94488000D01*
X184296106Y-94628659D01*
X184380314Y-94754686D01*
X184506341Y-94838894D01*
X184597001Y-94856927D01*
X184597000Y-95381536D01*
X184455000Y-95381536D01*
X184306341Y-95411106D01*
X184180314Y-95495314D01*
X184096106Y-95621341D01*
X184066536Y-95770000D01*
X184066536Y-96891930D01*
X181384428Y-94209822D01*
X181438000Y-94156250D01*
X181438000Y-93617500D01*
X181418000Y-93617500D01*
X181418000Y-93568464D01*
X181712000Y-93568464D01*
X181712000Y-93617500D01*
X181712000Y-93617500D01*
G37*
X181712000Y-93617500D02*
X181692000Y-93617500D01*
X181692000Y-94156250D01*
X181850750Y-94315000D01*
X182391309Y-94315000D01*
X182624698Y-94218327D01*
X182643630Y-94199395D01*
X182761342Y-94483578D01*
X183011422Y-94733658D01*
X183338167Y-94869000D01*
X183691833Y-94869000D01*
X184018578Y-94733658D01*
X184264236Y-94488000D01*
X184268127Y-94488000D01*
X184296106Y-94628659D01*
X184380314Y-94754686D01*
X184506341Y-94838894D01*
X184597001Y-94856927D01*
X184597000Y-95381536D01*
X184455000Y-95381536D01*
X184306341Y-95411106D01*
X184180314Y-95495314D01*
X184096106Y-95621341D01*
X184066536Y-95770000D01*
X184066536Y-96891930D01*
X181384428Y-94209822D01*
X181438000Y-94156250D01*
X181438000Y-93617500D01*
X181418000Y-93617500D01*
X181418000Y-93568464D01*
X181712000Y-93568464D01*
X181712000Y-93617500D01*
G36*
X190416536Y-88380000D02*
X190446106Y-88528659D01*
X190530314Y-88654686D01*
X190656341Y-88738894D01*
X190805000Y-88768464D01*
X192105000Y-88768464D01*
X192253659Y-88738894D01*
X192379686Y-88654686D01*
X192405000Y-88616801D01*
X192430314Y-88654686D01*
X192556341Y-88738894D01*
X192705000Y-88768464D01*
X194005000Y-88768464D01*
X194153659Y-88738894D01*
X194279686Y-88654686D01*
X194363894Y-88528659D01*
X194390816Y-88393314D01*
X195097400Y-89099899D01*
X195097401Y-90757468D01*
X195087946Y-90805000D01*
X195116380Y-90947946D01*
X195125402Y-90993301D01*
X195232066Y-91152935D01*
X195272361Y-91179859D01*
X195732400Y-91639900D01*
X195732400Y-93188376D01*
X195612525Y-92898974D01*
X195391026Y-92677475D01*
X195101624Y-92557600D01*
X194788376Y-92557600D01*
X194498974Y-92677475D01*
X194277475Y-92898974D01*
X194259676Y-92941944D01*
X194153659Y-92871106D01*
X194005000Y-92841536D01*
X192705000Y-92841536D01*
X192556341Y-92871106D01*
X192430314Y-92955314D01*
X192405000Y-92993199D01*
X192379686Y-92955314D01*
X192253659Y-92871106D01*
X192105000Y-92841536D01*
X190805000Y-92841536D01*
X190656341Y-92871106D01*
X190530314Y-92955314D01*
X190446106Y-93081341D01*
X190416536Y-93230000D01*
X190416536Y-93497400D01*
X190129812Y-93497400D01*
X190091324Y-93404482D01*
X189805518Y-93118676D01*
X189432095Y-92964000D01*
X189027905Y-92964000D01*
X188934987Y-93002488D01*
X188490099Y-92557600D01*
X189817472Y-92557600D01*
X189865000Y-92567054D01*
X189912528Y-92557600D01*
X189912529Y-92557600D01*
X190053301Y-92529599D01*
X190212935Y-92422935D01*
X190239861Y-92382637D01*
X190274900Y-92347598D01*
X190276106Y-92353659D01*
X190360314Y-92479686D01*
X190486341Y-92563894D01*
X190635000Y-92593464D01*
X191635000Y-92593464D01*
X191783659Y-92563894D01*
X191909686Y-92479686D01*
X191944733Y-92427234D01*
X192001673Y-92564698D01*
X192180301Y-92743327D01*
X192413690Y-92840000D01*
X192754250Y-92840000D01*
X192913000Y-92681250D01*
X192913000Y-91782000D01*
X193167000Y-91782000D01*
X193167000Y-92681250D01*
X193325750Y-92840000D01*
X193666310Y-92840000D01*
X193899699Y-92743327D01*
X194078327Y-92564698D01*
X194175000Y-92331309D01*
X194175000Y-91940750D01*
X194016250Y-91782000D01*
X193167000Y-91782000D01*
X192913000Y-91782000D01*
X192893000Y-91782000D01*
X192893000Y-91528000D01*
X192913000Y-91528000D01*
X192913000Y-91508000D01*
X193167000Y-91508000D01*
X193167000Y-91528000D01*
X194016250Y-91528000D01*
X194175000Y-91369250D01*
X194175000Y-90978691D01*
X194078327Y-90745302D01*
X193913459Y-90580433D01*
X193928464Y-90505000D01*
X193928464Y-89405000D01*
X193898894Y-89256341D01*
X193814686Y-89130314D01*
X193688659Y-89046106D01*
X193540000Y-89016536D01*
X192540000Y-89016536D01*
X192391341Y-89046106D01*
X192265314Y-89130314D01*
X192181106Y-89256341D01*
X192151536Y-89405000D01*
X192151536Y-89472400D01*
X192023464Y-89472400D01*
X192023464Y-89405000D01*
X191993894Y-89256341D01*
X191909686Y-89130314D01*
X191783659Y-89046106D01*
X191635000Y-89016536D01*
X190635000Y-89016536D01*
X190486341Y-89046106D01*
X190360314Y-89130314D01*
X190276106Y-89256341D01*
X190246536Y-89405000D01*
X190246536Y-90505000D01*
X190276106Y-90653659D01*
X190360314Y-90779686D01*
X190398199Y-90805000D01*
X190360314Y-90830314D01*
X190276106Y-90956341D01*
X190246536Y-91105000D01*
X190246536Y-91170597D01*
X190237471Y-91172400D01*
X190096699Y-91200401D01*
X189995000Y-91268354D01*
X189995000Y-91090750D01*
X189836250Y-90932000D01*
X188937000Y-90932000D01*
X188937000Y-90952000D01*
X188683000Y-90952000D01*
X188683000Y-90932000D01*
X188663000Y-90932000D01*
X188663000Y-90678000D01*
X188683000Y-90678000D01*
X188683000Y-89828750D01*
X188937000Y-89828750D01*
X188937000Y-90678000D01*
X189836250Y-90678000D01*
X189995000Y-90519250D01*
X189995000Y-90178690D01*
X189898327Y-89945301D01*
X189719698Y-89766673D01*
X189486309Y-89670000D01*
X189095750Y-89670000D01*
X188937000Y-89828750D01*
X188683000Y-89828750D01*
X188621138Y-89766888D01*
X188628327Y-89759699D01*
X188725000Y-89526310D01*
X188725000Y-89185750D01*
X188566250Y-89027000D01*
X187667000Y-89027000D01*
X187667000Y-89047000D01*
X187413000Y-89047000D01*
X187413000Y-89027000D01*
X187393000Y-89027000D01*
X187393000Y-88773000D01*
X187413000Y-88773000D01*
X187413000Y-88753000D01*
X187667000Y-88753000D01*
X187667000Y-88773000D01*
X188566250Y-88773000D01*
X188725000Y-88614250D01*
X188725000Y-88520533D01*
X189027905Y-88646000D01*
X189432095Y-88646000D01*
X189805518Y-88491324D01*
X190091324Y-88205518D01*
X190129812Y-88112600D01*
X190416536Y-88112600D01*
X190416536Y-88380000D01*
X190416536Y-88380000D01*
G37*
X190416536Y-88380000D02*
X190446106Y-88528659D01*
X190530314Y-88654686D01*
X190656341Y-88738894D01*
X190805000Y-88768464D01*
X192105000Y-88768464D01*
X192253659Y-88738894D01*
X192379686Y-88654686D01*
X192405000Y-88616801D01*
X192430314Y-88654686D01*
X192556341Y-88738894D01*
X192705000Y-88768464D01*
X194005000Y-88768464D01*
X194153659Y-88738894D01*
X194279686Y-88654686D01*
X194363894Y-88528659D01*
X194390816Y-88393314D01*
X195097400Y-89099899D01*
X195097401Y-90757468D01*
X195087946Y-90805000D01*
X195116380Y-90947946D01*
X195125402Y-90993301D01*
X195232066Y-91152935D01*
X195272361Y-91179859D01*
X195732400Y-91639900D01*
X195732400Y-93188376D01*
X195612525Y-92898974D01*
X195391026Y-92677475D01*
X195101624Y-92557600D01*
X194788376Y-92557600D01*
X194498974Y-92677475D01*
X194277475Y-92898974D01*
X194259676Y-92941944D01*
X194153659Y-92871106D01*
X194005000Y-92841536D01*
X192705000Y-92841536D01*
X192556341Y-92871106D01*
X192430314Y-92955314D01*
X192405000Y-92993199D01*
X192379686Y-92955314D01*
X192253659Y-92871106D01*
X192105000Y-92841536D01*
X190805000Y-92841536D01*
X190656341Y-92871106D01*
X190530314Y-92955314D01*
X190446106Y-93081341D01*
X190416536Y-93230000D01*
X190416536Y-93497400D01*
X190129812Y-93497400D01*
X190091324Y-93404482D01*
X189805518Y-93118676D01*
X189432095Y-92964000D01*
X189027905Y-92964000D01*
X188934987Y-93002488D01*
X188490099Y-92557600D01*
X189817472Y-92557600D01*
X189865000Y-92567054D01*
X189912528Y-92557600D01*
X189912529Y-92557600D01*
X190053301Y-92529599D01*
X190212935Y-92422935D01*
X190239861Y-92382637D01*
X190274900Y-92347598D01*
X190276106Y-92353659D01*
X190360314Y-92479686D01*
X190486341Y-92563894D01*
X190635000Y-92593464D01*
X191635000Y-92593464D01*
X191783659Y-92563894D01*
X191909686Y-92479686D01*
X191944733Y-92427234D01*
X192001673Y-92564698D01*
X192180301Y-92743327D01*
X192413690Y-92840000D01*
X192754250Y-92840000D01*
X192913000Y-92681250D01*
X192913000Y-91782000D01*
X193167000Y-91782000D01*
X193167000Y-92681250D01*
X193325750Y-92840000D01*
X193666310Y-92840000D01*
X193899699Y-92743327D01*
X194078327Y-92564698D01*
X194175000Y-92331309D01*
X194175000Y-91940750D01*
X194016250Y-91782000D01*
X193167000Y-91782000D01*
X192913000Y-91782000D01*
X192893000Y-91782000D01*
X192893000Y-91528000D01*
X192913000Y-91528000D01*
X192913000Y-91508000D01*
X193167000Y-91508000D01*
X193167000Y-91528000D01*
X194016250Y-91528000D01*
X194175000Y-91369250D01*
X194175000Y-90978691D01*
X194078327Y-90745302D01*
X193913459Y-90580433D01*
X193928464Y-90505000D01*
X193928464Y-89405000D01*
X193898894Y-89256341D01*
X193814686Y-89130314D01*
X193688659Y-89046106D01*
X193540000Y-89016536D01*
X192540000Y-89016536D01*
X192391341Y-89046106D01*
X192265314Y-89130314D01*
X192181106Y-89256341D01*
X192151536Y-89405000D01*
X192151536Y-89472400D01*
X192023464Y-89472400D01*
X192023464Y-89405000D01*
X191993894Y-89256341D01*
X191909686Y-89130314D01*
X191783659Y-89046106D01*
X191635000Y-89016536D01*
X190635000Y-89016536D01*
X190486341Y-89046106D01*
X190360314Y-89130314D01*
X190276106Y-89256341D01*
X190246536Y-89405000D01*
X190246536Y-90505000D01*
X190276106Y-90653659D01*
X190360314Y-90779686D01*
X190398199Y-90805000D01*
X190360314Y-90830314D01*
X190276106Y-90956341D01*
X190246536Y-91105000D01*
X190246536Y-91170597D01*
X190237471Y-91172400D01*
X190096699Y-91200401D01*
X189995000Y-91268354D01*
X189995000Y-91090750D01*
X189836250Y-90932000D01*
X188937000Y-90932000D01*
X188937000Y-90952000D01*
X188683000Y-90952000D01*
X188683000Y-90932000D01*
X188663000Y-90932000D01*
X188663000Y-90678000D01*
X188683000Y-90678000D01*
X188683000Y-89828750D01*
X188937000Y-89828750D01*
X188937000Y-90678000D01*
X189836250Y-90678000D01*
X189995000Y-90519250D01*
X189995000Y-90178690D01*
X189898327Y-89945301D01*
X189719698Y-89766673D01*
X189486309Y-89670000D01*
X189095750Y-89670000D01*
X188937000Y-89828750D01*
X188683000Y-89828750D01*
X188621138Y-89766888D01*
X188628327Y-89759699D01*
X188725000Y-89526310D01*
X188725000Y-89185750D01*
X188566250Y-89027000D01*
X187667000Y-89027000D01*
X187667000Y-89047000D01*
X187413000Y-89047000D01*
X187413000Y-89027000D01*
X187393000Y-89027000D01*
X187393000Y-88773000D01*
X187413000Y-88773000D01*
X187413000Y-88753000D01*
X187667000Y-88753000D01*
X187667000Y-88773000D01*
X188566250Y-88773000D01*
X188725000Y-88614250D01*
X188725000Y-88520533D01*
X189027905Y-88646000D01*
X189432095Y-88646000D01*
X189805518Y-88491324D01*
X190091324Y-88205518D01*
X190129812Y-88112600D01*
X190416536Y-88112600D01*
X190416536Y-88380000D01*
G36*
X179850140Y-90362639D02*
X179877065Y-90402935D01*
X180036699Y-90509599D01*
X180177471Y-90537600D01*
X180224999Y-90547054D01*
X180272527Y-90537600D01*
X180476536Y-90537600D01*
X180476536Y-90680000D01*
X180501400Y-90804999D01*
X180478910Y-90918065D01*
X180326673Y-91070301D01*
X180230000Y-91303690D01*
X180230000Y-91333750D01*
X180388750Y-91492500D01*
X180404474Y-91492500D01*
X180326673Y-91570301D01*
X180249403Y-91756847D01*
X180230000Y-91776250D01*
X180230000Y-91833750D01*
X180249403Y-91853153D01*
X180326673Y-92039699D01*
X180404474Y-92117500D01*
X180388750Y-92117500D01*
X180230000Y-92276250D01*
X180230000Y-92306310D01*
X180326673Y-92539699D01*
X180478910Y-92691935D01*
X180501400Y-92805000D01*
X180478910Y-92918065D01*
X180326673Y-93070301D01*
X180302724Y-93128118D01*
X179832000Y-92657394D01*
X179832000Y-90344499D01*
X179850140Y-90362639D01*
X179850140Y-90362639D01*
G37*
X179850140Y-90362639D02*
X179877065Y-90402935D01*
X180036699Y-90509599D01*
X180177471Y-90537600D01*
X180224999Y-90547054D01*
X180272527Y-90537600D01*
X180476536Y-90537600D01*
X180476536Y-90680000D01*
X180501400Y-90804999D01*
X180478910Y-90918065D01*
X180326673Y-91070301D01*
X180230000Y-91303690D01*
X180230000Y-91333750D01*
X180388750Y-91492500D01*
X180404474Y-91492500D01*
X180326673Y-91570301D01*
X180249403Y-91756847D01*
X180230000Y-91776250D01*
X180230000Y-91833750D01*
X180249403Y-91853153D01*
X180326673Y-92039699D01*
X180404474Y-92117500D01*
X180388750Y-92117500D01*
X180230000Y-92276250D01*
X180230000Y-92306310D01*
X180326673Y-92539699D01*
X180478910Y-92691935D01*
X180501400Y-92805000D01*
X180478910Y-92918065D01*
X180326673Y-93070301D01*
X180302724Y-93128118D01*
X179832000Y-92657394D01*
X179832000Y-90344499D01*
X179850140Y-90362639D01*
G36*
X190246536Y-84155000D02*
X190276106Y-84303659D01*
X190360314Y-84429686D01*
X190398199Y-84455000D01*
X190360314Y-84480314D01*
X190276106Y-84606341D01*
X190246536Y-84755000D01*
X190246536Y-85855000D01*
X190276106Y-86003659D01*
X190360314Y-86129686D01*
X190486341Y-86213894D01*
X190635000Y-86243464D01*
X190652400Y-86243464D01*
X190652400Y-86312472D01*
X190642946Y-86360000D01*
X190652400Y-86407528D01*
X190674282Y-86517537D01*
X190656341Y-86521106D01*
X190530314Y-86605314D01*
X190446106Y-86731341D01*
X190416536Y-86880000D01*
X190416536Y-87147400D01*
X190129812Y-87147400D01*
X190091324Y-87054482D01*
X189805518Y-86768676D01*
X189432095Y-86614000D01*
X189027905Y-86614000D01*
X188654482Y-86768676D01*
X188368676Y-87054482D01*
X188330188Y-87147400D01*
X184197527Y-87147400D01*
X184149999Y-87137946D01*
X184102471Y-87147400D01*
X183961699Y-87175401D01*
X183802065Y-87282065D01*
X183775140Y-87322361D01*
X182868898Y-88228604D01*
X182803327Y-88070301D01*
X182651090Y-87918065D01*
X182623894Y-87781341D01*
X182539686Y-87655314D01*
X182413659Y-87571106D01*
X182265000Y-87541536D01*
X180865000Y-87541536D01*
X180716341Y-87571106D01*
X180590314Y-87655314D01*
X180506106Y-87781341D01*
X180478910Y-87918065D01*
X180326673Y-88070301D01*
X180230000Y-88303690D01*
X180230000Y-88333750D01*
X180388750Y-88492500D01*
X180646907Y-88492500D01*
X180716341Y-88538894D01*
X180797312Y-88555000D01*
X180716341Y-88571106D01*
X180646907Y-88617500D01*
X180388750Y-88617500D01*
X180230000Y-88776250D01*
X180230000Y-88806310D01*
X180326673Y-89039699D01*
X180478910Y-89191935D01*
X180501400Y-89305000D01*
X180476536Y-89430000D01*
X180476536Y-89572400D01*
X180424899Y-89572400D01*
X180079862Y-89227363D01*
X180052935Y-89187065D01*
X179893301Y-89080401D01*
X179832000Y-89068208D01*
X179832000Y-87493464D01*
X180040000Y-87493464D01*
X180188659Y-87463894D01*
X180314686Y-87379686D01*
X180398894Y-87253659D01*
X180428464Y-87105000D01*
X180428464Y-85852000D01*
X181457600Y-85852000D01*
X181457600Y-85881624D01*
X181577475Y-86171026D01*
X181798974Y-86392525D01*
X182088376Y-86512400D01*
X182401624Y-86512400D01*
X182691026Y-86392525D01*
X182875951Y-86207600D01*
X183955102Y-86207600D01*
X184095140Y-86347639D01*
X184122065Y-86387935D01*
X184281536Y-86494490D01*
X184281536Y-86690000D01*
X184311106Y-86838659D01*
X184395314Y-86964686D01*
X184521341Y-87048894D01*
X184670000Y-87078464D01*
X186170000Y-87078464D01*
X186318659Y-87048894D01*
X186444686Y-86964686D01*
X186528894Y-86838659D01*
X186558464Y-86690000D01*
X186558464Y-85390000D01*
X186543459Y-85314567D01*
X186708327Y-85149698D01*
X186805000Y-84916309D01*
X186805000Y-84425750D01*
X186646250Y-84267000D01*
X185547000Y-84267000D01*
X185547000Y-84287000D01*
X185293000Y-84287000D01*
X185293000Y-84267000D01*
X185273000Y-84267000D01*
X185273000Y-84013000D01*
X185293000Y-84013000D01*
X185293000Y-83993000D01*
X185547000Y-83993000D01*
X185547000Y-84013000D01*
X186646250Y-84013000D01*
X186805000Y-83854250D01*
X186805000Y-83363691D01*
X186783589Y-83312000D01*
X190246536Y-83312000D01*
X190246536Y-84155000D01*
X190246536Y-84155000D01*
G37*
X190246536Y-84155000D02*
X190276106Y-84303659D01*
X190360314Y-84429686D01*
X190398199Y-84455000D01*
X190360314Y-84480314D01*
X190276106Y-84606341D01*
X190246536Y-84755000D01*
X190246536Y-85855000D01*
X190276106Y-86003659D01*
X190360314Y-86129686D01*
X190486341Y-86213894D01*
X190635000Y-86243464D01*
X190652400Y-86243464D01*
X190652400Y-86312472D01*
X190642946Y-86360000D01*
X190652400Y-86407528D01*
X190674282Y-86517537D01*
X190656341Y-86521106D01*
X190530314Y-86605314D01*
X190446106Y-86731341D01*
X190416536Y-86880000D01*
X190416536Y-87147400D01*
X190129812Y-87147400D01*
X190091324Y-87054482D01*
X189805518Y-86768676D01*
X189432095Y-86614000D01*
X189027905Y-86614000D01*
X188654482Y-86768676D01*
X188368676Y-87054482D01*
X188330188Y-87147400D01*
X184197527Y-87147400D01*
X184149999Y-87137946D01*
X184102471Y-87147400D01*
X183961699Y-87175401D01*
X183802065Y-87282065D01*
X183775140Y-87322361D01*
X182868898Y-88228604D01*
X182803327Y-88070301D01*
X182651090Y-87918065D01*
X182623894Y-87781341D01*
X182539686Y-87655314D01*
X182413659Y-87571106D01*
X182265000Y-87541536D01*
X180865000Y-87541536D01*
X180716341Y-87571106D01*
X180590314Y-87655314D01*
X180506106Y-87781341D01*
X180478910Y-87918065D01*
X180326673Y-88070301D01*
X180230000Y-88303690D01*
X180230000Y-88333750D01*
X180388750Y-88492500D01*
X180646907Y-88492500D01*
X180716341Y-88538894D01*
X180797312Y-88555000D01*
X180716341Y-88571106D01*
X180646907Y-88617500D01*
X180388750Y-88617500D01*
X180230000Y-88776250D01*
X180230000Y-88806310D01*
X180326673Y-89039699D01*
X180478910Y-89191935D01*
X180501400Y-89305000D01*
X180476536Y-89430000D01*
X180476536Y-89572400D01*
X180424899Y-89572400D01*
X180079862Y-89227363D01*
X180052935Y-89187065D01*
X179893301Y-89080401D01*
X179832000Y-89068208D01*
X179832000Y-87493464D01*
X180040000Y-87493464D01*
X180188659Y-87463894D01*
X180314686Y-87379686D01*
X180398894Y-87253659D01*
X180428464Y-87105000D01*
X180428464Y-85852000D01*
X181457600Y-85852000D01*
X181457600Y-85881624D01*
X181577475Y-86171026D01*
X181798974Y-86392525D01*
X182088376Y-86512400D01*
X182401624Y-86512400D01*
X182691026Y-86392525D01*
X182875951Y-86207600D01*
X183955102Y-86207600D01*
X184095140Y-86347639D01*
X184122065Y-86387935D01*
X184281536Y-86494490D01*
X184281536Y-86690000D01*
X184311106Y-86838659D01*
X184395314Y-86964686D01*
X184521341Y-87048894D01*
X184670000Y-87078464D01*
X186170000Y-87078464D01*
X186318659Y-87048894D01*
X186444686Y-86964686D01*
X186528894Y-86838659D01*
X186558464Y-86690000D01*
X186558464Y-85390000D01*
X186543459Y-85314567D01*
X186708327Y-85149698D01*
X186805000Y-84916309D01*
X186805000Y-84425750D01*
X186646250Y-84267000D01*
X185547000Y-84267000D01*
X185547000Y-84287000D01*
X185293000Y-84287000D01*
X185293000Y-84267000D01*
X185273000Y-84267000D01*
X185273000Y-84013000D01*
X185293000Y-84013000D01*
X185293000Y-83993000D01*
X185547000Y-83993000D01*
X185547000Y-84013000D01*
X186646250Y-84013000D01*
X186805000Y-83854250D01*
X186805000Y-83363691D01*
X186783589Y-83312000D01*
X190246536Y-83312000D01*
X190246536Y-84155000D01*
G04 #@! TD*
D37*
X159385000Y-97155000D03*
X175895000Y-90805000D03*
X174625000Y-88265000D03*
X207010000Y-88900000D03*
X158750000Y-106680000D03*
X161925000Y-110490000D03*
X169545000Y-109220000D03*
X168275000Y-109220000D03*
X165735000Y-110490000D03*
X170815000Y-109220000D03*
X194945000Y-79375000D03*
X184785000Y-80645000D03*
X207010000Y-99060000D03*
X203835000Y-106045000D03*
X168910000Y-107950000D03*
X154940000Y-109855000D03*
X153670000Y-109855000D03*
X179070000Y-83820000D03*
X167005000Y-83820000D03*
X173355000Y-100965000D03*
X182880000Y-80645000D03*
X182880000Y-82550000D03*
X182880000Y-78105000D03*
X182880000Y-76200000D03*
X175895000Y-76200000D03*
X166370000Y-76200000D03*
X166370000Y-78105000D03*
X170815000Y-93345000D03*
X160020000Y-105410000D03*
X167005000Y-100965000D03*
X160020000Y-100965000D03*
X163830000Y-100965000D03*
X177800000Y-102235000D03*
X167005000Y-86995000D03*
X170815000Y-100330000D03*
X179705000Y-106680000D03*
X200025000Y-101600000D03*
X200025000Y-102870000D03*
X200025000Y-104140000D03*
X191770000Y-80645000D03*
X212090000Y-99060000D03*
X180975000Y-96520000D03*
X167640000Y-95885000D03*
X212090000Y-88900000D03*
X179705000Y-103505000D03*
X161544000Y-97536000D03*
X175895000Y-92075000D03*
X176530000Y-97155000D03*
X160655000Y-99695000D03*
X171450000Y-86995000D03*
X174625000Y-92075000D03*
X198755000Y-94615000D03*
X198755000Y-93345000D03*
X186055000Y-82550000D03*
X176530000Y-106045000D03*
X180340000Y-84455000D03*
X174625000Y-103505000D03*
X162560000Y-105410000D03*
X170180000Y-92075000D03*
X162560000Y-101600000D03*
X163830000Y-98425000D03*
X170180000Y-86995000D03*
X185420000Y-100330000D03*
X185420000Y-101600000D03*
X185420000Y-102870000D03*
X175895000Y-89535000D03*
X165100000Y-105410000D03*
X177800000Y-97155000D03*
X165100000Y-101600000D03*
X178435000Y-82550000D03*
X175895000Y-81915000D03*
X171450000Y-95250000D03*
X184150000Y-88900000D03*
X191770000Y-101600000D03*
X191770000Y-100330000D03*
X191770000Y-102870000D03*
X183515000Y-93980000D03*
X204470000Y-88900000D03*
X185420000Y-90805000D03*
X193675000Y-101600000D03*
X193675000Y-102870000D03*
X193675000Y-104140000D03*
X188595000Y-95885000D03*
X197485000Y-91440000D03*
X197485000Y-96520000D03*
X183515000Y-95250000D03*
X183515000Y-86995000D03*
X189865000Y-88900000D03*
X180086000Y-91821000D03*
X197485000Y-92710000D03*
X187960000Y-83820000D03*
X201930000Y-86995000D03*
X194945000Y-92075000D03*
X194945000Y-86995000D03*
X194945000Y-85090000D03*
X187960000Y-85725000D03*
X197485000Y-86995000D03*
X204470000Y-99060000D03*
X201930000Y-99060000D03*
X197485000Y-99060000D03*
X194945000Y-96520000D03*
X194945000Y-99060000D03*
X188595000Y-97155000D03*
X208280000Y-90805000D03*
X208280000Y-97155000D03*
X204470000Y-86995000D03*
X194310000Y-90170000D03*
X182245000Y-85725000D03*
X179070000Y-89535000D03*
X197485000Y-90170000D03*
X194945000Y-93345000D03*
X181610000Y-107315000D03*
X188595000Y-106045000D03*
X168910000Y-98425000D03*
X175260000Y-93345000D03*
X194945000Y-81280000D03*
X200660000Y-93980000D03*
X208915000Y-104505000D03*
X208915000Y-102505000D03*
X200565000Y-109220000D03*
X202565000Y-109220000D03*
X204565000Y-109220000D03*
X179690000Y-109220000D03*
X181690000Y-109220000D03*
X183690000Y-109220000D03*
X185690000Y-109220000D03*
X187690000Y-109220000D03*
X189690000Y-109220000D03*
X191690000Y-109220000D03*
X193690000Y-109220000D03*
X215900000Y-96980000D03*
X215900000Y-94980000D03*
X215900000Y-92980000D03*
X215900000Y-90980000D03*
X185420000Y-77470000D03*
X187960000Y-77470000D03*
X190500000Y-77470000D03*
X193040000Y-77470000D03*
X156845000Y-106680000D03*
X154305000Y-106680000D03*
X156845000Y-104140000D03*
X154305000Y-104140000D03*
X156845000Y-101600000D03*
X154305000Y-101600000D03*
X156845000Y-99060000D03*
X154305000Y-99060000D03*
X156845000Y-96520000D03*
X154305000Y-96520000D03*
X156845000Y-93980000D03*
X154305000Y-93980000D03*
X156845000Y-91440000D03*
X154305000Y-91440000D03*
X156845000Y-88900000D03*
X154305000Y-88900000D03*
X205740000Y-93980000D03*
X217805000Y-101600000D03*
X215265000Y-101600000D03*
M02*
