G04 #@! TF.GenerationSoftware,KiCad,Pcbnew,5.0.0-fee4fd1~65~ubuntu17.10.1*
G04 #@! TF.CreationDate,2018-10-29T15:23:50-04:00*
G04 #@! TF.ProjectId,daughterboard,6461756768746572626F6172642E6B69,rev?*
G04 #@! TF.SameCoordinates,Original*
G04 #@! TF.FileFunction,Soldermask,Bot*
G04 #@! TF.FilePolarity,Negative*
%FSLAX46Y46*%
G04 Gerber Fmt 4.6, Leading zero omitted, Abs format (unit mm)*
G04 Created by KiCad (PCBNEW 5.0.0-fee4fd1~65~ubuntu17.10.1) date Mon Oct 29 15:23:50 2018*
%MOMM*%
%LPD*%
G01*
G04 APERTURE LIST*
%ADD10C,1.603200*%
%ADD11R,1.603200X1.603200*%
%ADD12R,1.803200X1.803200*%
%ADD13C,1.803200*%
%ADD14R,2.603200X2.603200*%
%ADD15R,1.303200X1.203200*%
G04 APERTURE END LIST*
D10*
G04 #@! TO.C,J7*
X208915000Y-104505000D03*
D11*
X208915000Y-102505000D03*
G04 #@! TD*
G04 #@! TO.C,J1*
X200565000Y-109220000D03*
D10*
X202565000Y-109220000D03*
X204565000Y-109220000D03*
G04 #@! TD*
D11*
G04 #@! TO.C,J2*
X179690000Y-109220000D03*
D10*
X181690000Y-109220000D03*
X183690000Y-109220000D03*
X185690000Y-109220000D03*
X187690000Y-109220000D03*
X189690000Y-109220000D03*
X191690000Y-109220000D03*
X193690000Y-109220000D03*
G04 #@! TD*
D11*
G04 #@! TO.C,J3*
X215900000Y-96980000D03*
D10*
X215900000Y-94980000D03*
X215900000Y-92980000D03*
X215900000Y-90980000D03*
G04 #@! TD*
D12*
G04 #@! TO.C,J5*
X185420000Y-77470000D03*
D13*
X187960000Y-77470000D03*
X190500000Y-77470000D03*
X193040000Y-77470000D03*
G04 #@! TD*
D12*
G04 #@! TO.C,J4*
X156845000Y-106680000D03*
D13*
X154305000Y-106680000D03*
X156845000Y-104140000D03*
X154305000Y-104140000D03*
X156845000Y-101600000D03*
X154305000Y-101600000D03*
X156845000Y-99060000D03*
X154305000Y-99060000D03*
X156845000Y-96520000D03*
X154305000Y-96520000D03*
X156845000Y-93980000D03*
X154305000Y-93980000D03*
X156845000Y-91440000D03*
X154305000Y-91440000D03*
X156845000Y-88900000D03*
X154305000Y-88900000D03*
G04 #@! TD*
D14*
G04 #@! TO.C,U4*
X205740000Y-93980000D03*
G04 #@! TD*
D12*
G04 #@! TO.C,J6*
X217805000Y-101600000D03*
D13*
X215265000Y-101600000D03*
G04 #@! TD*
D15*
G04 #@! TO.C,C31*
X213575000Y-97155000D03*
X211875000Y-97155000D03*
G04 #@! TD*
G04 #@! TO.C,C32*
X211875000Y-90805000D03*
X213575000Y-90805000D03*
G04 #@! TD*
G04 #@! TO.C,C33*
X211875000Y-95250000D03*
X213575000Y-95250000D03*
G04 #@! TD*
G04 #@! TO.C,C34*
X213575000Y-92710000D03*
X211875000Y-92710000D03*
G04 #@! TD*
M02*
