G04 #@! TF.GenerationSoftware,KiCad,Pcbnew,5.0.0-fee4fd1~65~ubuntu17.10.1*
G04 #@! TF.CreationDate,2018-10-29T14:10:20-04:00*
G04 #@! TF.ProjectId,daughterboard,6461756768746572626F6172642E6B69,rev?*
G04 #@! TF.SameCoordinates,Original*
G04 #@! TF.FileFunction,Copper,L3,Inr,Plane*
G04 #@! TF.FilePolarity,Positive*
%FSLAX46Y46*%
G04 Gerber Fmt 4.6, Leading zero omitted, Abs format (unit mm)*
G04 Created by KiCad (PCBNEW 5.0.0-fee4fd1~65~ubuntu17.10.1) date Mon Oct 29 14:10:20 2018*
%MOMM*%
%LPD*%
G01*
G04 APERTURE LIST*
G04 #@! TA.AperFunction,ViaPad*
%ADD10C,1.400000*%
G04 #@! TD*
G04 #@! TA.AperFunction,ViaPad*
%ADD11R,1.400000X1.400000*%
G04 #@! TD*
G04 #@! TA.AperFunction,ViaPad*
%ADD12R,1.600000X1.600000*%
G04 #@! TD*
G04 #@! TA.AperFunction,ViaPad*
%ADD13C,1.600000*%
G04 #@! TD*
G04 #@! TA.AperFunction,ViaPad*
%ADD14R,2.400000X2.400000*%
G04 #@! TD*
G04 #@! TA.AperFunction,ViaPad*
%ADD15C,0.812800*%
G04 #@! TD*
G04 #@! TA.AperFunction,ViaPad*
%ADD16C,1.016000*%
G04 #@! TD*
G04 #@! TA.AperFunction,Conductor*
%ADD17C,0.254000*%
G04 #@! TD*
G04 #@! TA.AperFunction,Conductor*
%ADD18C,0.203200*%
G04 #@! TD*
%ADD19C,0.350000*%
G04 APERTURE END LIST*
D10*
G04 #@! TO.N,GND*
G04 #@! TO.C,J7*
X208915000Y-104505000D03*
D11*
G04 #@! TO.N,/ALRM_SW*
X208915000Y-102505000D03*
G04 #@! TD*
G04 #@! TO.N,/PIX_VCC*
G04 #@! TO.C,J1*
X200565000Y-109220000D03*
D10*
G04 #@! TO.N,Net-(J1-Pad2)*
X202565000Y-109220000D03*
G04 #@! TO.N,GND*
X204565000Y-109220000D03*
G04 #@! TD*
D11*
G04 #@! TO.N,+5V*
G04 #@! TO.C,J2*
X179690000Y-109220000D03*
D10*
G04 #@! TO.N,/PIX_VCC*
X181690000Y-109220000D03*
G04 #@! TO.N,GND*
X183690000Y-109220000D03*
X185690000Y-109220000D03*
G04 #@! TO.N,Net-(J2-Pad5)*
X187690000Y-109220000D03*
G04 #@! TO.N,/KCHG*
X189690000Y-109220000D03*
G04 #@! TO.N,/SCL*
X191690000Y-109220000D03*
G04 #@! TO.N,/SDA*
X193690000Y-109220000D03*
G04 #@! TD*
D11*
G04 #@! TO.N,/OUT_L-*
G04 #@! TO.C,J3*
X215900000Y-96980000D03*
D10*
G04 #@! TO.N,/OUT_L+*
X215900000Y-94980000D03*
G04 #@! TO.N,/OUT_R+*
X215900000Y-92980000D03*
G04 #@! TO.N,/OUT_R-*
X215900000Y-90980000D03*
G04 #@! TD*
D12*
G04 #@! TO.N,/SDA*
G04 #@! TO.C,J5*
X185420000Y-77470000D03*
D13*
G04 #@! TO.N,/SCL*
X187960000Y-77470000D03*
G04 #@! TO.N,/A_SHDN*
X190500000Y-77470000D03*
G04 #@! TO.N,/KCHG*
X193040000Y-77470000D03*
G04 #@! TD*
D12*
G04 #@! TO.N,+5V*
G04 #@! TO.C,J4*
X156845000Y-106680000D03*
D13*
X154305000Y-106680000D03*
G04 #@! TO.N,GND*
X156845000Y-104140000D03*
X154305000Y-104140000D03*
G04 #@! TO.N,/PIX_CLK*
X156845000Y-101600000D03*
G04 #@! TO.N,/PIX_LAMP*
X154305000Y-101600000D03*
G04 #@! TO.N,/CCS_3V3*
X156845000Y-99060000D03*
G04 #@! TO.N,/PIX_SHDN*
X154305000Y-99060000D03*
G04 #@! TO.N,/CRST_3V3*
X156845000Y-96520000D03*
G04 #@! TO.N,/DREQ*
X154305000Y-96520000D03*
G04 #@! TO.N,/CMOSI_3V3*
X156845000Y-93980000D03*
G04 #@! TO.N,/SCLK_3V3*
X154305000Y-93980000D03*
G04 #@! TO.N,/MISO*
X156845000Y-91440000D03*
G04 #@! TO.N,/XDCS_3V3*
X154305000Y-91440000D03*
G04 #@! TO.N,+3V3*
X156845000Y-88900000D03*
G04 #@! TO.N,/ALRM_SW*
X154305000Y-88900000D03*
G04 #@! TD*
D14*
G04 #@! TO.N,GND*
G04 #@! TO.C,U4*
X205740000Y-93980000D03*
G04 #@! TD*
D12*
G04 #@! TO.N,GND*
G04 #@! TO.C,J6*
X217805000Y-101600000D03*
D13*
X215265000Y-101600000D03*
G04 #@! TD*
D15*
G04 #@! TO.N,/MISO*
X159385000Y-97155000D03*
X175895000Y-90805000D03*
G04 #@! TO.N,/DREQ*
X174625000Y-88265000D03*
D16*
G04 #@! TO.N,+5V*
X207010000Y-88900000D03*
X158750000Y-106680000D03*
X161925000Y-110490000D03*
X169545000Y-109220000D03*
X168275000Y-109220000D03*
X165735000Y-110490000D03*
X170815000Y-109220000D03*
X194945000Y-79375000D03*
X184785000Y-80645000D03*
X207010000Y-99060000D03*
X203835000Y-106045000D03*
X168910000Y-107950000D03*
G04 #@! TO.N,GND*
X154940000Y-109855000D03*
X153670000Y-109855000D03*
X179070000Y-83820000D03*
X167005000Y-83820000D03*
X173355000Y-100965000D03*
X182880000Y-80645000D03*
X182880000Y-82550000D03*
X182880000Y-78105000D03*
X182880000Y-76200000D03*
X175895000Y-76200000D03*
X166370000Y-76200000D03*
X166370000Y-78105000D03*
X170815000Y-93345000D03*
X160020000Y-105410000D03*
X167005000Y-100965000D03*
X160020000Y-100965000D03*
X163830000Y-100965000D03*
X177800000Y-102235000D03*
X167005000Y-86995000D03*
X170815000Y-100330000D03*
D15*
X179705000Y-106680000D03*
D16*
X200025000Y-101600000D03*
X200025000Y-102870000D03*
X200025000Y-104140000D03*
X191770000Y-80645000D03*
X212090000Y-99060000D03*
X180975000Y-96520000D03*
X167640000Y-95885000D03*
X212090000Y-88900000D03*
D15*
G04 #@! TO.N,/PIX_CLK*
X179705000Y-103505000D03*
G04 #@! TO.N,/CMOSI_3V3*
X161544000Y-97536000D03*
X175895000Y-92075000D03*
G04 #@! TO.N,/SCLK_3V3*
X176530000Y-97155000D03*
X160655000Y-99695000D03*
G04 #@! TO.N,/XDCS_3V3*
X171450000Y-86995000D03*
G04 #@! TO.N,/CCS_3V3*
X174625000Y-92075000D03*
G04 #@! TO.N,/SDA*
X198755000Y-94615000D03*
G04 #@! TO.N,/SCL*
X198755000Y-93345000D03*
G04 #@! TO.N,/KCHG*
X186055000Y-82550000D03*
G04 #@! TO.N,/PIX_LAMP*
X176530000Y-106045000D03*
G04 #@! TO.N,/CRST_3V3*
X180340000Y-84455000D03*
G04 #@! TO.N,/PIX_SHDN*
X174625000Y-103505000D03*
D16*
G04 #@! TO.N,+3V3*
X162560000Y-105410000D03*
X170180000Y-92075000D03*
X162560000Y-101600000D03*
X163830000Y-98425000D03*
X170180000Y-86995000D03*
X185420000Y-100330000D03*
X185420000Y-101600000D03*
X185420000Y-102870000D03*
X175895000Y-89535000D03*
G04 #@! TO.N,+1V8*
X165100000Y-105410000D03*
X177800000Y-97155000D03*
X165100000Y-101600000D03*
X178435000Y-82550000D03*
X175895000Y-81915000D03*
X171450000Y-95250000D03*
G04 #@! TO.N,AVDD*
X184150000Y-88900000D03*
X191770000Y-101600000D03*
X191770000Y-100330000D03*
X191770000Y-102870000D03*
X183515000Y-93980000D03*
X204470000Y-88900000D03*
X185420000Y-90805000D03*
G04 #@! TO.N,AGND*
X193675000Y-101600000D03*
X193675000Y-102870000D03*
X193675000Y-104140000D03*
X188595000Y-95885000D03*
X197485000Y-91440000D03*
X197485000Y-96520000D03*
X183515000Y-95250000D03*
X183515000Y-86995000D03*
X189865000Y-88900000D03*
X180086000Y-91821000D03*
X197485000Y-92710000D03*
X194945000Y-89535000D03*
X187960000Y-83820000D03*
X201930000Y-86995000D03*
X194945000Y-92075000D03*
X194945000Y-86995000D03*
X194945000Y-85090000D03*
X187960000Y-85725000D03*
X197485000Y-86995000D03*
X204470000Y-99060000D03*
X201930000Y-99060000D03*
X197485000Y-99060000D03*
X194945000Y-96520000D03*
X194945000Y-99060000D03*
X188595000Y-97155000D03*
X208280000Y-90805000D03*
X208280000Y-97155000D03*
X204470000Y-86995000D03*
D15*
G04 #@! TO.N,Net-(C15-Pad2)*
X182245000Y-85725000D03*
X179070000Y-89535000D03*
G04 #@! TO.N,Net-(C23-Pad1)*
X197485000Y-90170000D03*
X194945000Y-93345000D03*
G04 #@! TO.N,Net-(R3-Pad1)*
X181610000Y-107315000D03*
X188595000Y-106045000D03*
G04 #@! TO.N,Net-(R6-Pad2)*
X168910000Y-98425000D03*
X175260000Y-93345000D03*
G04 #@! TO.N,Net-(U2-Pad4)*
X194945000Y-81280000D03*
X200660000Y-93980000D03*
G04 #@! TD*
D17*
G04 #@! TO.N,+5V*
X154305000Y-106680000D02*
X155575000Y-105410000D01*
X193040000Y-79375000D02*
X194945000Y-79375000D01*
X186055000Y-79375000D02*
X193040000Y-79375000D01*
X184785000Y-80645000D02*
X186055000Y-79375000D01*
X193675000Y-81280000D02*
X193675000Y-79375000D01*
X193675000Y-81915000D02*
X193675000Y-81280000D01*
X197485000Y-85725000D02*
X193675000Y-81915000D01*
X205740000Y-85725000D02*
X197485000Y-85725000D01*
X207010000Y-88900000D02*
X207010000Y-86995000D01*
X207010000Y-86995000D02*
X205740000Y-85725000D01*
D18*
G04 #@! TO.N,/CMOSI_3V3*
X160528000Y-93980000D02*
X156845000Y-93980000D01*
X161544000Y-97536000D02*
X161544000Y-94996000D01*
X161544000Y-94996000D02*
X160528000Y-93980000D01*
G04 #@! TO.N,/SCLK_3V3*
X160655000Y-99695000D02*
X159385000Y-99695000D01*
X159385000Y-99695000D02*
X158750000Y-100330000D01*
X158750000Y-100330000D02*
X156210000Y-100330000D01*
X156210000Y-100330000D02*
X155575000Y-99695000D01*
X155575000Y-95250000D02*
X154305000Y-93980000D01*
X155575000Y-99695000D02*
X155575000Y-95250000D01*
G04 #@! TD*
G04 #@! TO.N,AVDD*
G36*
X185479482Y-83411324D02*
X185852905Y-83566000D01*
X186257095Y-83566000D01*
X186630518Y-83411324D01*
X186755242Y-83286600D01*
X186971260Y-83286600D01*
X186842400Y-83597696D01*
X186842400Y-84042304D01*
X187012545Y-84453070D01*
X187326930Y-84767455D01*
X187339110Y-84772500D01*
X187326930Y-84777545D01*
X187012545Y-85091930D01*
X186842400Y-85502696D01*
X186842400Y-85947304D01*
X187012545Y-86358070D01*
X187326930Y-86672455D01*
X187737696Y-86842600D01*
X188182304Y-86842600D01*
X188593070Y-86672455D01*
X188907455Y-86358070D01*
X189077600Y-85947304D01*
X189077600Y-85502696D01*
X188907455Y-85091930D01*
X188593070Y-84777545D01*
X188580890Y-84772500D01*
X188593070Y-84767455D01*
X188907455Y-84453070D01*
X189077600Y-84042304D01*
X189077600Y-83597696D01*
X188948740Y-83286600D01*
X194004891Y-83286600D01*
X194700065Y-83981774D01*
X194311930Y-84142545D01*
X193997545Y-84456930D01*
X193827400Y-84867696D01*
X193827400Y-85312304D01*
X193997545Y-85723070D01*
X194311930Y-86037455D01*
X194324110Y-86042500D01*
X194311930Y-86047545D01*
X193997545Y-86361930D01*
X193827400Y-86772696D01*
X193827400Y-87217304D01*
X193997545Y-87628070D01*
X194311930Y-87942455D01*
X194722696Y-88112600D01*
X195167304Y-88112600D01*
X195578070Y-87942455D01*
X195892455Y-87628070D01*
X196062600Y-87217304D01*
X196062600Y-86772696D01*
X195892455Y-86361930D01*
X195578070Y-86047545D01*
X195565890Y-86042500D01*
X195578070Y-86037455D01*
X195892455Y-85723070D01*
X196053226Y-85334935D01*
X196113400Y-85395109D01*
X196113400Y-86360000D01*
X196121134Y-86398881D01*
X196143158Y-86431842D01*
X196176119Y-86453866D01*
X196215000Y-86461600D01*
X196496260Y-86461600D01*
X196367400Y-86772696D01*
X196367400Y-87217304D01*
X196537545Y-87628070D01*
X196851930Y-87942455D01*
X197262696Y-88112600D01*
X197707304Y-88112600D01*
X198118070Y-87942455D01*
X198432455Y-87628070D01*
X198602600Y-87217304D01*
X198602600Y-86772696D01*
X198473740Y-86461600D01*
X200941260Y-86461600D01*
X200812400Y-86772696D01*
X200812400Y-87217304D01*
X200982545Y-87628070D01*
X201296930Y-87942455D01*
X201707696Y-88112600D01*
X202152304Y-88112600D01*
X202563070Y-87942455D01*
X202877455Y-87628070D01*
X203047600Y-87217304D01*
X203047600Y-86772696D01*
X202918740Y-86461600D01*
X203481260Y-86461600D01*
X203352400Y-86772696D01*
X203352400Y-87217304D01*
X203522545Y-87628070D01*
X203836930Y-87942455D01*
X204247696Y-88112600D01*
X204692304Y-88112600D01*
X205003400Y-87983740D01*
X205003400Y-92158458D01*
X204540000Y-92158458D01*
X204302146Y-92205770D01*
X204100503Y-92340503D01*
X203965770Y-92542146D01*
X203918458Y-92780000D01*
X203918458Y-95180000D01*
X203965770Y-95417854D01*
X204100503Y-95619497D01*
X204302146Y-95754230D01*
X204540000Y-95801542D01*
X205003400Y-95801542D01*
X205003400Y-98071260D01*
X204692304Y-97942400D01*
X204247696Y-97942400D01*
X203836930Y-98112545D01*
X203522545Y-98426930D01*
X203352400Y-98837696D01*
X203352400Y-99282304D01*
X203481260Y-99593400D01*
X202918740Y-99593400D01*
X203047600Y-99282304D01*
X203047600Y-98837696D01*
X202877455Y-98426930D01*
X202563070Y-98112545D01*
X202152304Y-97942400D01*
X201707696Y-97942400D01*
X201296930Y-98112545D01*
X200982545Y-98426930D01*
X200812400Y-98837696D01*
X200812400Y-99282304D01*
X200941260Y-99593400D01*
X198473740Y-99593400D01*
X198602600Y-99282304D01*
X198602600Y-98837696D01*
X198432455Y-98426930D01*
X198118070Y-98112545D01*
X197707304Y-97942400D01*
X197262696Y-97942400D01*
X196851930Y-98112545D01*
X196537545Y-98426930D01*
X196367400Y-98837696D01*
X196367400Y-99282304D01*
X196496260Y-99593400D01*
X196215000Y-99593400D01*
X196176119Y-99601134D01*
X196143158Y-99623158D01*
X196121134Y-99656119D01*
X196113400Y-99695000D01*
X196113400Y-105308400D01*
X189331600Y-105308400D01*
X189331600Y-101377696D01*
X192557400Y-101377696D01*
X192557400Y-101822304D01*
X192727545Y-102233070D01*
X192729475Y-102235000D01*
X192727545Y-102236930D01*
X192557400Y-102647696D01*
X192557400Y-103092304D01*
X192727545Y-103503070D01*
X192729475Y-103505000D01*
X192727545Y-103506930D01*
X192557400Y-103917696D01*
X192557400Y-104362304D01*
X192727545Y-104773070D01*
X193041930Y-105087455D01*
X193452696Y-105257600D01*
X193897304Y-105257600D01*
X194308070Y-105087455D01*
X194622455Y-104773070D01*
X194792600Y-104362304D01*
X194792600Y-103917696D01*
X194622455Y-103506930D01*
X194620525Y-103505000D01*
X194622455Y-103503070D01*
X194792600Y-103092304D01*
X194792600Y-102647696D01*
X194622455Y-102236930D01*
X194620525Y-102235000D01*
X194622455Y-102233070D01*
X194792600Y-101822304D01*
X194792600Y-101377696D01*
X194622455Y-100966930D01*
X194308070Y-100652545D01*
X193897304Y-100482400D01*
X193452696Y-100482400D01*
X193041930Y-100652545D01*
X192727545Y-100966930D01*
X192557400Y-101377696D01*
X189331600Y-101377696D01*
X189331600Y-99060000D01*
X189323866Y-99021119D01*
X189301842Y-98988158D01*
X189151380Y-98837696D01*
X193827400Y-98837696D01*
X193827400Y-99282304D01*
X193997545Y-99693070D01*
X194311930Y-100007455D01*
X194722696Y-100177600D01*
X195167304Y-100177600D01*
X195578070Y-100007455D01*
X195892455Y-99693070D01*
X196062600Y-99282304D01*
X196062600Y-98837696D01*
X195892455Y-98426930D01*
X195578070Y-98112545D01*
X195167304Y-97942400D01*
X194722696Y-97942400D01*
X194311930Y-98112545D01*
X193997545Y-98426930D01*
X193827400Y-98837696D01*
X189151380Y-98837696D01*
X188586284Y-98272600D01*
X188817304Y-98272600D01*
X189228070Y-98102455D01*
X189542455Y-97788070D01*
X189712600Y-97377304D01*
X189712600Y-96932696D01*
X189542455Y-96521930D01*
X189540525Y-96520000D01*
X189542455Y-96518070D01*
X189633736Y-96297696D01*
X193827400Y-96297696D01*
X193827400Y-96742304D01*
X193997545Y-97153070D01*
X194311930Y-97467455D01*
X194722696Y-97637600D01*
X195167304Y-97637600D01*
X195578070Y-97467455D01*
X195892455Y-97153070D01*
X196062600Y-96742304D01*
X196062600Y-96297696D01*
X196367400Y-96297696D01*
X196367400Y-96742304D01*
X196537545Y-97153070D01*
X196851930Y-97467455D01*
X197262696Y-97637600D01*
X197707304Y-97637600D01*
X198118070Y-97467455D01*
X198432455Y-97153070D01*
X198602600Y-96742304D01*
X198602600Y-96297696D01*
X198432455Y-95886930D01*
X198118070Y-95572545D01*
X197707304Y-95402400D01*
X197262696Y-95402400D01*
X196851930Y-95572545D01*
X196537545Y-95886930D01*
X196367400Y-96297696D01*
X196062600Y-96297696D01*
X195892455Y-95886930D01*
X195578070Y-95572545D01*
X195167304Y-95402400D01*
X194722696Y-95402400D01*
X194311930Y-95572545D01*
X193997545Y-95886930D01*
X193827400Y-96297696D01*
X189633736Y-96297696D01*
X189712600Y-96107304D01*
X189712600Y-95662696D01*
X189542455Y-95251930D01*
X189228070Y-94937545D01*
X188817304Y-94767400D01*
X188372696Y-94767400D01*
X187961930Y-94937545D01*
X187647545Y-95251930D01*
X187477400Y-95662696D01*
X187477400Y-96107304D01*
X187647545Y-96518070D01*
X187649475Y-96520000D01*
X187647545Y-96521930D01*
X187477400Y-96932696D01*
X187477400Y-97163716D01*
X186126842Y-95813158D01*
X186093881Y-95791134D01*
X186055000Y-95783400D01*
X184503740Y-95783400D01*
X184632600Y-95472304D01*
X184632600Y-95027696D01*
X184462455Y-94616930D01*
X184148070Y-94302545D01*
X183737304Y-94132400D01*
X183292696Y-94132400D01*
X182881930Y-94302545D01*
X182567545Y-94616930D01*
X182397400Y-95027696D01*
X182397400Y-95258716D01*
X180077284Y-92938600D01*
X180308304Y-92938600D01*
X180719070Y-92768455D01*
X181033455Y-92454070D01*
X181203600Y-92043304D01*
X181203600Y-91852696D01*
X193827400Y-91852696D01*
X193827400Y-92297304D01*
X193997545Y-92708070D01*
X194076436Y-92786961D01*
X193929000Y-93142905D01*
X193929000Y-93547095D01*
X194083676Y-93920518D01*
X194369482Y-94206324D01*
X194742905Y-94361000D01*
X195147095Y-94361000D01*
X195520518Y-94206324D01*
X195806324Y-93920518D01*
X195961000Y-93547095D01*
X195961000Y-93142905D01*
X195813564Y-92786961D01*
X195892455Y-92708070D01*
X196062600Y-92297304D01*
X196062600Y-91852696D01*
X195892455Y-91441930D01*
X195668221Y-91217696D01*
X196367400Y-91217696D01*
X196367400Y-91662304D01*
X196537545Y-92073070D01*
X196539475Y-92075000D01*
X196537545Y-92076930D01*
X196367400Y-92487696D01*
X196367400Y-92932304D01*
X196537545Y-93343070D01*
X196851930Y-93657455D01*
X197262696Y-93827600D01*
X197707304Y-93827600D01*
X197833531Y-93775315D01*
X197893676Y-93920518D01*
X197953158Y-93980000D01*
X197893676Y-94039482D01*
X197739000Y-94412905D01*
X197739000Y-94817095D01*
X197893676Y-95190518D01*
X198179482Y-95476324D01*
X198552905Y-95631000D01*
X198957095Y-95631000D01*
X199330518Y-95476324D01*
X199616324Y-95190518D01*
X199771000Y-94817095D01*
X199771000Y-94488702D01*
X199798676Y-94555518D01*
X200084482Y-94841324D01*
X200457905Y-94996000D01*
X200862095Y-94996000D01*
X201235518Y-94841324D01*
X201521324Y-94555518D01*
X201676000Y-94182095D01*
X201676000Y-93777905D01*
X201521324Y-93404482D01*
X201235518Y-93118676D01*
X200862095Y-92964000D01*
X200457905Y-92964000D01*
X200084482Y-93118676D01*
X199798676Y-93404482D01*
X199771000Y-93471298D01*
X199771000Y-93142905D01*
X199616324Y-92769482D01*
X199330518Y-92483676D01*
X198957095Y-92329000D01*
X198552905Y-92329000D01*
X198539215Y-92334671D01*
X198432455Y-92076930D01*
X198430525Y-92075000D01*
X198432455Y-92073070D01*
X198602600Y-91662304D01*
X198602600Y-91217696D01*
X198432455Y-90806930D01*
X198353564Y-90728039D01*
X198501000Y-90372095D01*
X198501000Y-89967905D01*
X198346324Y-89594482D01*
X198060518Y-89308676D01*
X197687095Y-89154000D01*
X197282905Y-89154000D01*
X196909482Y-89308676D01*
X196623676Y-89594482D01*
X196469000Y-89967905D01*
X196469000Y-90372095D01*
X196616436Y-90728039D01*
X196537545Y-90806930D01*
X196367400Y-91217696D01*
X195668221Y-91217696D01*
X195578070Y-91127545D01*
X195167304Y-90957400D01*
X194722696Y-90957400D01*
X194311930Y-91127545D01*
X193997545Y-91441930D01*
X193827400Y-91852696D01*
X181203600Y-91852696D01*
X181203600Y-91598696D01*
X181033455Y-91187930D01*
X180719070Y-90873545D01*
X180308304Y-90703400D01*
X179863696Y-90703400D01*
X179806600Y-90727050D01*
X179806600Y-90235242D01*
X179931324Y-90110518D01*
X180086000Y-89737095D01*
X180086000Y-89332905D01*
X179931324Y-88959482D01*
X179806600Y-88834758D01*
X179806600Y-88677696D01*
X188747400Y-88677696D01*
X188747400Y-89122304D01*
X188917545Y-89533070D01*
X189231930Y-89847455D01*
X189642696Y-90017600D01*
X190087304Y-90017600D01*
X190498070Y-89847455D01*
X190812455Y-89533070D01*
X190903736Y-89312696D01*
X193827400Y-89312696D01*
X193827400Y-89757304D01*
X193997545Y-90168070D01*
X194311930Y-90482455D01*
X194722696Y-90652600D01*
X195167304Y-90652600D01*
X195578070Y-90482455D01*
X195892455Y-90168070D01*
X196062600Y-89757304D01*
X196062600Y-89312696D01*
X195892455Y-88901930D01*
X195578070Y-88587545D01*
X195167304Y-88417400D01*
X194722696Y-88417400D01*
X194311930Y-88587545D01*
X193997545Y-88901930D01*
X193827400Y-89312696D01*
X190903736Y-89312696D01*
X190982600Y-89122304D01*
X190982600Y-88677696D01*
X190812455Y-88266930D01*
X190498070Y-87952545D01*
X190087304Y-87782400D01*
X189642696Y-87782400D01*
X189231930Y-87952545D01*
X188917545Y-88266930D01*
X188747400Y-88677696D01*
X179806600Y-88677696D01*
X179806600Y-85826600D01*
X181229000Y-85826600D01*
X181229000Y-85927095D01*
X181383676Y-86300518D01*
X181669482Y-86586324D01*
X182042905Y-86741000D01*
X182410529Y-86741000D01*
X182397400Y-86772696D01*
X182397400Y-87217304D01*
X182567545Y-87628070D01*
X182881930Y-87942455D01*
X183292696Y-88112600D01*
X183737304Y-88112600D01*
X184148070Y-87942455D01*
X184462455Y-87628070D01*
X184632600Y-87217304D01*
X184632600Y-86772696D01*
X184462455Y-86361930D01*
X184148070Y-86047545D01*
X183737304Y-85877400D01*
X183292696Y-85877400D01*
X183261000Y-85890529D01*
X183261000Y-85826600D01*
X184785000Y-85826600D01*
X184823881Y-85818866D01*
X184856842Y-85796842D01*
X184878866Y-85763881D01*
X184886600Y-85725000D01*
X184886600Y-83286600D01*
X185354758Y-83286600D01*
X185479482Y-83411324D01*
X185479482Y-83411324D01*
G37*
X185479482Y-83411324D02*
X185852905Y-83566000D01*
X186257095Y-83566000D01*
X186630518Y-83411324D01*
X186755242Y-83286600D01*
X186971260Y-83286600D01*
X186842400Y-83597696D01*
X186842400Y-84042304D01*
X187012545Y-84453070D01*
X187326930Y-84767455D01*
X187339110Y-84772500D01*
X187326930Y-84777545D01*
X187012545Y-85091930D01*
X186842400Y-85502696D01*
X186842400Y-85947304D01*
X187012545Y-86358070D01*
X187326930Y-86672455D01*
X187737696Y-86842600D01*
X188182304Y-86842600D01*
X188593070Y-86672455D01*
X188907455Y-86358070D01*
X189077600Y-85947304D01*
X189077600Y-85502696D01*
X188907455Y-85091930D01*
X188593070Y-84777545D01*
X188580890Y-84772500D01*
X188593070Y-84767455D01*
X188907455Y-84453070D01*
X189077600Y-84042304D01*
X189077600Y-83597696D01*
X188948740Y-83286600D01*
X194004891Y-83286600D01*
X194700065Y-83981774D01*
X194311930Y-84142545D01*
X193997545Y-84456930D01*
X193827400Y-84867696D01*
X193827400Y-85312304D01*
X193997545Y-85723070D01*
X194311930Y-86037455D01*
X194324110Y-86042500D01*
X194311930Y-86047545D01*
X193997545Y-86361930D01*
X193827400Y-86772696D01*
X193827400Y-87217304D01*
X193997545Y-87628070D01*
X194311930Y-87942455D01*
X194722696Y-88112600D01*
X195167304Y-88112600D01*
X195578070Y-87942455D01*
X195892455Y-87628070D01*
X196062600Y-87217304D01*
X196062600Y-86772696D01*
X195892455Y-86361930D01*
X195578070Y-86047545D01*
X195565890Y-86042500D01*
X195578070Y-86037455D01*
X195892455Y-85723070D01*
X196053226Y-85334935D01*
X196113400Y-85395109D01*
X196113400Y-86360000D01*
X196121134Y-86398881D01*
X196143158Y-86431842D01*
X196176119Y-86453866D01*
X196215000Y-86461600D01*
X196496260Y-86461600D01*
X196367400Y-86772696D01*
X196367400Y-87217304D01*
X196537545Y-87628070D01*
X196851930Y-87942455D01*
X197262696Y-88112600D01*
X197707304Y-88112600D01*
X198118070Y-87942455D01*
X198432455Y-87628070D01*
X198602600Y-87217304D01*
X198602600Y-86772696D01*
X198473740Y-86461600D01*
X200941260Y-86461600D01*
X200812400Y-86772696D01*
X200812400Y-87217304D01*
X200982545Y-87628070D01*
X201296930Y-87942455D01*
X201707696Y-88112600D01*
X202152304Y-88112600D01*
X202563070Y-87942455D01*
X202877455Y-87628070D01*
X203047600Y-87217304D01*
X203047600Y-86772696D01*
X202918740Y-86461600D01*
X203481260Y-86461600D01*
X203352400Y-86772696D01*
X203352400Y-87217304D01*
X203522545Y-87628070D01*
X203836930Y-87942455D01*
X204247696Y-88112600D01*
X204692304Y-88112600D01*
X205003400Y-87983740D01*
X205003400Y-92158458D01*
X204540000Y-92158458D01*
X204302146Y-92205770D01*
X204100503Y-92340503D01*
X203965770Y-92542146D01*
X203918458Y-92780000D01*
X203918458Y-95180000D01*
X203965770Y-95417854D01*
X204100503Y-95619497D01*
X204302146Y-95754230D01*
X204540000Y-95801542D01*
X205003400Y-95801542D01*
X205003400Y-98071260D01*
X204692304Y-97942400D01*
X204247696Y-97942400D01*
X203836930Y-98112545D01*
X203522545Y-98426930D01*
X203352400Y-98837696D01*
X203352400Y-99282304D01*
X203481260Y-99593400D01*
X202918740Y-99593400D01*
X203047600Y-99282304D01*
X203047600Y-98837696D01*
X202877455Y-98426930D01*
X202563070Y-98112545D01*
X202152304Y-97942400D01*
X201707696Y-97942400D01*
X201296930Y-98112545D01*
X200982545Y-98426930D01*
X200812400Y-98837696D01*
X200812400Y-99282304D01*
X200941260Y-99593400D01*
X198473740Y-99593400D01*
X198602600Y-99282304D01*
X198602600Y-98837696D01*
X198432455Y-98426930D01*
X198118070Y-98112545D01*
X197707304Y-97942400D01*
X197262696Y-97942400D01*
X196851930Y-98112545D01*
X196537545Y-98426930D01*
X196367400Y-98837696D01*
X196367400Y-99282304D01*
X196496260Y-99593400D01*
X196215000Y-99593400D01*
X196176119Y-99601134D01*
X196143158Y-99623158D01*
X196121134Y-99656119D01*
X196113400Y-99695000D01*
X196113400Y-105308400D01*
X189331600Y-105308400D01*
X189331600Y-101377696D01*
X192557400Y-101377696D01*
X192557400Y-101822304D01*
X192727545Y-102233070D01*
X192729475Y-102235000D01*
X192727545Y-102236930D01*
X192557400Y-102647696D01*
X192557400Y-103092304D01*
X192727545Y-103503070D01*
X192729475Y-103505000D01*
X192727545Y-103506930D01*
X192557400Y-103917696D01*
X192557400Y-104362304D01*
X192727545Y-104773070D01*
X193041930Y-105087455D01*
X193452696Y-105257600D01*
X193897304Y-105257600D01*
X194308070Y-105087455D01*
X194622455Y-104773070D01*
X194792600Y-104362304D01*
X194792600Y-103917696D01*
X194622455Y-103506930D01*
X194620525Y-103505000D01*
X194622455Y-103503070D01*
X194792600Y-103092304D01*
X194792600Y-102647696D01*
X194622455Y-102236930D01*
X194620525Y-102235000D01*
X194622455Y-102233070D01*
X194792600Y-101822304D01*
X194792600Y-101377696D01*
X194622455Y-100966930D01*
X194308070Y-100652545D01*
X193897304Y-100482400D01*
X193452696Y-100482400D01*
X193041930Y-100652545D01*
X192727545Y-100966930D01*
X192557400Y-101377696D01*
X189331600Y-101377696D01*
X189331600Y-99060000D01*
X189323866Y-99021119D01*
X189301842Y-98988158D01*
X189151380Y-98837696D01*
X193827400Y-98837696D01*
X193827400Y-99282304D01*
X193997545Y-99693070D01*
X194311930Y-100007455D01*
X194722696Y-100177600D01*
X195167304Y-100177600D01*
X195578070Y-100007455D01*
X195892455Y-99693070D01*
X196062600Y-99282304D01*
X196062600Y-98837696D01*
X195892455Y-98426930D01*
X195578070Y-98112545D01*
X195167304Y-97942400D01*
X194722696Y-97942400D01*
X194311930Y-98112545D01*
X193997545Y-98426930D01*
X193827400Y-98837696D01*
X189151380Y-98837696D01*
X188586284Y-98272600D01*
X188817304Y-98272600D01*
X189228070Y-98102455D01*
X189542455Y-97788070D01*
X189712600Y-97377304D01*
X189712600Y-96932696D01*
X189542455Y-96521930D01*
X189540525Y-96520000D01*
X189542455Y-96518070D01*
X189633736Y-96297696D01*
X193827400Y-96297696D01*
X193827400Y-96742304D01*
X193997545Y-97153070D01*
X194311930Y-97467455D01*
X194722696Y-97637600D01*
X195167304Y-97637600D01*
X195578070Y-97467455D01*
X195892455Y-97153070D01*
X196062600Y-96742304D01*
X196062600Y-96297696D01*
X196367400Y-96297696D01*
X196367400Y-96742304D01*
X196537545Y-97153070D01*
X196851930Y-97467455D01*
X197262696Y-97637600D01*
X197707304Y-97637600D01*
X198118070Y-97467455D01*
X198432455Y-97153070D01*
X198602600Y-96742304D01*
X198602600Y-96297696D01*
X198432455Y-95886930D01*
X198118070Y-95572545D01*
X197707304Y-95402400D01*
X197262696Y-95402400D01*
X196851930Y-95572545D01*
X196537545Y-95886930D01*
X196367400Y-96297696D01*
X196062600Y-96297696D01*
X195892455Y-95886930D01*
X195578070Y-95572545D01*
X195167304Y-95402400D01*
X194722696Y-95402400D01*
X194311930Y-95572545D01*
X193997545Y-95886930D01*
X193827400Y-96297696D01*
X189633736Y-96297696D01*
X189712600Y-96107304D01*
X189712600Y-95662696D01*
X189542455Y-95251930D01*
X189228070Y-94937545D01*
X188817304Y-94767400D01*
X188372696Y-94767400D01*
X187961930Y-94937545D01*
X187647545Y-95251930D01*
X187477400Y-95662696D01*
X187477400Y-96107304D01*
X187647545Y-96518070D01*
X187649475Y-96520000D01*
X187647545Y-96521930D01*
X187477400Y-96932696D01*
X187477400Y-97163716D01*
X186126842Y-95813158D01*
X186093881Y-95791134D01*
X186055000Y-95783400D01*
X184503740Y-95783400D01*
X184632600Y-95472304D01*
X184632600Y-95027696D01*
X184462455Y-94616930D01*
X184148070Y-94302545D01*
X183737304Y-94132400D01*
X183292696Y-94132400D01*
X182881930Y-94302545D01*
X182567545Y-94616930D01*
X182397400Y-95027696D01*
X182397400Y-95258716D01*
X180077284Y-92938600D01*
X180308304Y-92938600D01*
X180719070Y-92768455D01*
X181033455Y-92454070D01*
X181203600Y-92043304D01*
X181203600Y-91852696D01*
X193827400Y-91852696D01*
X193827400Y-92297304D01*
X193997545Y-92708070D01*
X194076436Y-92786961D01*
X193929000Y-93142905D01*
X193929000Y-93547095D01*
X194083676Y-93920518D01*
X194369482Y-94206324D01*
X194742905Y-94361000D01*
X195147095Y-94361000D01*
X195520518Y-94206324D01*
X195806324Y-93920518D01*
X195961000Y-93547095D01*
X195961000Y-93142905D01*
X195813564Y-92786961D01*
X195892455Y-92708070D01*
X196062600Y-92297304D01*
X196062600Y-91852696D01*
X195892455Y-91441930D01*
X195668221Y-91217696D01*
X196367400Y-91217696D01*
X196367400Y-91662304D01*
X196537545Y-92073070D01*
X196539475Y-92075000D01*
X196537545Y-92076930D01*
X196367400Y-92487696D01*
X196367400Y-92932304D01*
X196537545Y-93343070D01*
X196851930Y-93657455D01*
X197262696Y-93827600D01*
X197707304Y-93827600D01*
X197833531Y-93775315D01*
X197893676Y-93920518D01*
X197953158Y-93980000D01*
X197893676Y-94039482D01*
X197739000Y-94412905D01*
X197739000Y-94817095D01*
X197893676Y-95190518D01*
X198179482Y-95476324D01*
X198552905Y-95631000D01*
X198957095Y-95631000D01*
X199330518Y-95476324D01*
X199616324Y-95190518D01*
X199771000Y-94817095D01*
X199771000Y-94488702D01*
X199798676Y-94555518D01*
X200084482Y-94841324D01*
X200457905Y-94996000D01*
X200862095Y-94996000D01*
X201235518Y-94841324D01*
X201521324Y-94555518D01*
X201676000Y-94182095D01*
X201676000Y-93777905D01*
X201521324Y-93404482D01*
X201235518Y-93118676D01*
X200862095Y-92964000D01*
X200457905Y-92964000D01*
X200084482Y-93118676D01*
X199798676Y-93404482D01*
X199771000Y-93471298D01*
X199771000Y-93142905D01*
X199616324Y-92769482D01*
X199330518Y-92483676D01*
X198957095Y-92329000D01*
X198552905Y-92329000D01*
X198539215Y-92334671D01*
X198432455Y-92076930D01*
X198430525Y-92075000D01*
X198432455Y-92073070D01*
X198602600Y-91662304D01*
X198602600Y-91217696D01*
X198432455Y-90806930D01*
X198353564Y-90728039D01*
X198501000Y-90372095D01*
X198501000Y-89967905D01*
X198346324Y-89594482D01*
X198060518Y-89308676D01*
X197687095Y-89154000D01*
X197282905Y-89154000D01*
X196909482Y-89308676D01*
X196623676Y-89594482D01*
X196469000Y-89967905D01*
X196469000Y-90372095D01*
X196616436Y-90728039D01*
X196537545Y-90806930D01*
X196367400Y-91217696D01*
X195668221Y-91217696D01*
X195578070Y-91127545D01*
X195167304Y-90957400D01*
X194722696Y-90957400D01*
X194311930Y-91127545D01*
X193997545Y-91441930D01*
X193827400Y-91852696D01*
X181203600Y-91852696D01*
X181203600Y-91598696D01*
X181033455Y-91187930D01*
X180719070Y-90873545D01*
X180308304Y-90703400D01*
X179863696Y-90703400D01*
X179806600Y-90727050D01*
X179806600Y-90235242D01*
X179931324Y-90110518D01*
X180086000Y-89737095D01*
X180086000Y-89332905D01*
X179931324Y-88959482D01*
X179806600Y-88834758D01*
X179806600Y-88677696D01*
X188747400Y-88677696D01*
X188747400Y-89122304D01*
X188917545Y-89533070D01*
X189231930Y-89847455D01*
X189642696Y-90017600D01*
X190087304Y-90017600D01*
X190498070Y-89847455D01*
X190812455Y-89533070D01*
X190903736Y-89312696D01*
X193827400Y-89312696D01*
X193827400Y-89757304D01*
X193997545Y-90168070D01*
X194311930Y-90482455D01*
X194722696Y-90652600D01*
X195167304Y-90652600D01*
X195578070Y-90482455D01*
X195892455Y-90168070D01*
X196062600Y-89757304D01*
X196062600Y-89312696D01*
X195892455Y-88901930D01*
X195578070Y-88587545D01*
X195167304Y-88417400D01*
X194722696Y-88417400D01*
X194311930Y-88587545D01*
X193997545Y-88901930D01*
X193827400Y-89312696D01*
X190903736Y-89312696D01*
X190982600Y-89122304D01*
X190982600Y-88677696D01*
X190812455Y-88266930D01*
X190498070Y-87952545D01*
X190087304Y-87782400D01*
X189642696Y-87782400D01*
X189231930Y-87952545D01*
X188917545Y-88266930D01*
X188747400Y-88677696D01*
X179806600Y-88677696D01*
X179806600Y-85826600D01*
X181229000Y-85826600D01*
X181229000Y-85927095D01*
X181383676Y-86300518D01*
X181669482Y-86586324D01*
X182042905Y-86741000D01*
X182410529Y-86741000D01*
X182397400Y-86772696D01*
X182397400Y-87217304D01*
X182567545Y-87628070D01*
X182881930Y-87942455D01*
X183292696Y-88112600D01*
X183737304Y-88112600D01*
X184148070Y-87942455D01*
X184462455Y-87628070D01*
X184632600Y-87217304D01*
X184632600Y-86772696D01*
X184462455Y-86361930D01*
X184148070Y-86047545D01*
X183737304Y-85877400D01*
X183292696Y-85877400D01*
X183261000Y-85890529D01*
X183261000Y-85826600D01*
X184785000Y-85826600D01*
X184823881Y-85818866D01*
X184856842Y-85796842D01*
X184878866Y-85763881D01*
X184886600Y-85725000D01*
X184886600Y-83286600D01*
X185354758Y-83286600D01*
X185479482Y-83411324D01*
D17*
G04 #@! TO.N,+3V3*
G36*
X165227000Y-75972643D02*
X165227000Y-76427357D01*
X165401011Y-76847458D01*
X165706053Y-77152500D01*
X165401011Y-77457542D01*
X165227000Y-77877643D01*
X165227000Y-78332357D01*
X165401011Y-78752458D01*
X165722542Y-79073989D01*
X166142643Y-79248000D01*
X166597357Y-79248000D01*
X167017458Y-79073989D01*
X167338989Y-78752458D01*
X167513000Y-78332357D01*
X167513000Y-77877643D01*
X167338989Y-77457542D01*
X167033947Y-77152500D01*
X167338989Y-76847458D01*
X167513000Y-76427357D01*
X167513000Y-75972643D01*
X167396754Y-75692000D01*
X173228000Y-75692000D01*
X173228000Y-86360000D01*
X173237667Y-86408601D01*
X173265197Y-86449803D01*
X173306399Y-86477333D01*
X173355000Y-86487000D01*
X176403000Y-86487000D01*
X176403000Y-89888217D01*
X176102147Y-89763600D01*
X175687853Y-89763600D01*
X175305094Y-89922144D01*
X175012144Y-90215094D01*
X174853600Y-90597853D01*
X174853600Y-91012147D01*
X174868770Y-91048770D01*
X174832147Y-91033600D01*
X174417853Y-91033600D01*
X174035094Y-91192144D01*
X173742144Y-91485094D01*
X173583600Y-91867853D01*
X173583600Y-92282147D01*
X173742144Y-92664906D01*
X174035094Y-92957856D01*
X174255365Y-93049095D01*
X174218600Y-93137853D01*
X174218600Y-93552147D01*
X174343217Y-93853000D01*
X171841754Y-93853000D01*
X171958000Y-93572357D01*
X171958000Y-93117643D01*
X171783989Y-92697542D01*
X171462458Y-92376011D01*
X171042357Y-92202000D01*
X170587643Y-92202000D01*
X170167542Y-92376011D01*
X169846011Y-92697542D01*
X169672000Y-93117643D01*
X169672000Y-93572357D01*
X169788246Y-93853000D01*
X169545000Y-93853000D01*
X169496399Y-93862667D01*
X169455197Y-93890197D01*
X169427667Y-93931399D01*
X169418000Y-93980000D01*
X169418000Y-97508217D01*
X169117147Y-97383600D01*
X168702853Y-97383600D01*
X168320094Y-97542144D01*
X168027144Y-97835094D01*
X167868600Y-98217853D01*
X167868600Y-98632147D01*
X168027144Y-99014906D01*
X168320094Y-99307856D01*
X168702853Y-99466400D01*
X169117147Y-99466400D01*
X169418000Y-99341783D01*
X169418000Y-99568000D01*
X163195000Y-99568000D01*
X163146399Y-99577667D01*
X163105197Y-99605197D01*
X163077667Y-99646399D01*
X163068000Y-99695000D01*
X163068000Y-100110553D01*
X162861011Y-100317542D01*
X162687000Y-100737643D01*
X162687000Y-101192357D01*
X162861011Y-101612458D01*
X163068000Y-101819447D01*
X163068000Y-106680000D01*
X163077667Y-106728601D01*
X163105197Y-106769803D01*
X163146399Y-106797333D01*
X163195000Y-106807000D01*
X166370000Y-106807000D01*
X166418601Y-106797333D01*
X166459803Y-106769803D01*
X168962606Y-104267000D01*
X173914238Y-104267000D01*
X174035094Y-104387856D01*
X174417853Y-104546400D01*
X174832147Y-104546400D01*
X175214906Y-104387856D01*
X175335762Y-104267000D01*
X178994238Y-104267000D01*
X179115094Y-104387856D01*
X179497853Y-104546400D01*
X179912147Y-104546400D01*
X180294906Y-104387856D01*
X180587856Y-104094906D01*
X180746400Y-103712147D01*
X180746400Y-103297853D01*
X180587856Y-102915094D01*
X180294906Y-102622144D01*
X179912147Y-102463600D01*
X179832000Y-102463600D01*
X179832000Y-97917000D01*
X186002394Y-97917000D01*
X187833000Y-99747606D01*
X187833000Y-105283000D01*
X177240762Y-105283000D01*
X177119906Y-105162144D01*
X176737147Y-105003600D01*
X176322853Y-105003600D01*
X175940094Y-105162144D01*
X175819238Y-105283000D01*
X169545000Y-105283000D01*
X169496399Y-105292667D01*
X169455197Y-105320197D01*
X166952394Y-107823000D01*
X161417000Y-107823000D01*
X161417000Y-100405762D01*
X161537856Y-100284906D01*
X161696400Y-99902147D01*
X161696400Y-99487853D01*
X161537856Y-99105094D01*
X161244906Y-98812144D01*
X160862147Y-98653600D01*
X160447853Y-98653600D01*
X160065094Y-98812144D01*
X159918838Y-98958400D01*
X159457540Y-98958400D01*
X159385000Y-98943971D01*
X159312459Y-98958400D01*
X159312456Y-98958400D01*
X159097593Y-99001139D01*
X158915441Y-99122849D01*
X158915439Y-99122851D01*
X158853942Y-99163942D01*
X158812850Y-99225440D01*
X158470291Y-99568000D01*
X158242000Y-99568000D01*
X158242000Y-99437179D01*
X158280000Y-99345439D01*
X158280000Y-98774561D01*
X158242000Y-98682821D01*
X158242000Y-96947853D01*
X158343600Y-96947853D01*
X158343600Y-97362147D01*
X158502144Y-97744906D01*
X158795094Y-98037856D01*
X159177853Y-98196400D01*
X159592147Y-98196400D01*
X159974906Y-98037856D01*
X160267856Y-97744906D01*
X160426400Y-97362147D01*
X160426400Y-96947853D01*
X160267856Y-96565094D01*
X159974906Y-96272144D01*
X159592147Y-96113600D01*
X159177853Y-96113600D01*
X158795094Y-96272144D01*
X158502144Y-96565094D01*
X158343600Y-96947853D01*
X158242000Y-96947853D01*
X158242000Y-96897179D01*
X158280000Y-96805439D01*
X158280000Y-96234561D01*
X158242000Y-96142821D01*
X158242000Y-94716600D01*
X160222891Y-94716600D01*
X160807401Y-95301111D01*
X160807400Y-96799838D01*
X160661144Y-96946094D01*
X160502600Y-97328853D01*
X160502600Y-97743147D01*
X160661144Y-98125906D01*
X160954094Y-98418856D01*
X161336853Y-98577400D01*
X161751147Y-98577400D01*
X162133906Y-98418856D01*
X162426856Y-98125906D01*
X162585400Y-97743147D01*
X162585400Y-97328853D01*
X162426856Y-96946094D01*
X162280600Y-96799838D01*
X162280600Y-95657643D01*
X166497000Y-95657643D01*
X166497000Y-96112357D01*
X166671011Y-96532458D01*
X166992542Y-96853989D01*
X167412643Y-97028000D01*
X167867357Y-97028000D01*
X168287458Y-96853989D01*
X168608989Y-96532458D01*
X168783000Y-96112357D01*
X168783000Y-95657643D01*
X168608989Y-95237542D01*
X168287458Y-94916011D01*
X167867357Y-94742000D01*
X167412643Y-94742000D01*
X166992542Y-94916011D01*
X166671011Y-95237542D01*
X166497000Y-95657643D01*
X162280600Y-95657643D01*
X162280600Y-95068540D01*
X162295029Y-94996000D01*
X162280600Y-94923459D01*
X162280600Y-94923456D01*
X162237861Y-94708593D01*
X162167000Y-94602542D01*
X162116151Y-94526441D01*
X162116149Y-94526439D01*
X162075058Y-94464942D01*
X162013560Y-94423850D01*
X161100151Y-93510442D01*
X161059058Y-93448942D01*
X160815407Y-93286139D01*
X160600544Y-93243400D01*
X160600540Y-93243400D01*
X160528000Y-93228971D01*
X160455460Y-93243400D01*
X158242000Y-93243400D01*
X158242000Y-91817179D01*
X158280000Y-91725439D01*
X158280000Y-91154561D01*
X158242000Y-91062821D01*
X158242000Y-90170000D01*
X158232333Y-90121399D01*
X158204803Y-90080197D01*
X158163601Y-90052667D01*
X158115000Y-90043000D01*
X157632399Y-90043000D01*
X157673139Y-89907745D01*
X156845000Y-89079605D01*
X156016861Y-89907745D01*
X156057601Y-90043000D01*
X155191396Y-90043000D01*
X155521534Y-89712862D01*
X155568525Y-89599417D01*
X155591136Y-89654005D01*
X155837255Y-89728139D01*
X156665395Y-88900000D01*
X157024605Y-88900000D01*
X157852745Y-89728139D01*
X158098864Y-89654005D01*
X158291965Y-89116777D01*
X158264778Y-88546546D01*
X158098864Y-88145995D01*
X157852745Y-88071861D01*
X157024605Y-88900000D01*
X156665395Y-88900000D01*
X155837255Y-88071861D01*
X155591136Y-88145995D01*
X155570126Y-88204448D01*
X155521534Y-88087138D01*
X155326651Y-87892255D01*
X156016861Y-87892255D01*
X156845000Y-88720395D01*
X157673139Y-87892255D01*
X157599005Y-87646136D01*
X157061777Y-87453035D01*
X156491546Y-87480222D01*
X156090995Y-87646136D01*
X156016861Y-87892255D01*
X155326651Y-87892255D01*
X155117862Y-87683466D01*
X154590439Y-87465000D01*
X154019561Y-87465000D01*
X153492138Y-87683466D01*
X153162000Y-88013604D01*
X153162000Y-86767643D01*
X165862000Y-86767643D01*
X165862000Y-87222357D01*
X166036011Y-87642458D01*
X166357542Y-87963989D01*
X166777643Y-88138000D01*
X167232357Y-88138000D01*
X167425849Y-88057853D01*
X173583600Y-88057853D01*
X173583600Y-88472147D01*
X173742144Y-88854906D01*
X174035094Y-89147856D01*
X174417853Y-89306400D01*
X174832147Y-89306400D01*
X175214906Y-89147856D01*
X175507856Y-88854906D01*
X175666400Y-88472147D01*
X175666400Y-88057853D01*
X175507856Y-87675094D01*
X175214906Y-87382144D01*
X174832147Y-87223600D01*
X174417853Y-87223600D01*
X174035094Y-87382144D01*
X173742144Y-87675094D01*
X173583600Y-88057853D01*
X167425849Y-88057853D01*
X167652458Y-87963989D01*
X167973989Y-87642458D01*
X168148000Y-87222357D01*
X168148000Y-86787853D01*
X170408600Y-86787853D01*
X170408600Y-87202147D01*
X170567144Y-87584906D01*
X170860094Y-87877856D01*
X171242853Y-88036400D01*
X171657147Y-88036400D01*
X172039906Y-87877856D01*
X172332856Y-87584906D01*
X172491400Y-87202147D01*
X172491400Y-86787853D01*
X172332856Y-86405094D01*
X172039906Y-86112144D01*
X171657147Y-85953600D01*
X171242853Y-85953600D01*
X170860094Y-86112144D01*
X170567144Y-86405094D01*
X170408600Y-86787853D01*
X168148000Y-86787853D01*
X168148000Y-86767643D01*
X167973989Y-86347542D01*
X167652458Y-86026011D01*
X167232357Y-85852000D01*
X166777643Y-85852000D01*
X166357542Y-86026011D01*
X166036011Y-86347542D01*
X165862000Y-86767643D01*
X153162000Y-86767643D01*
X153162000Y-85852000D01*
X156845000Y-85852000D01*
X156893601Y-85842333D01*
X156934803Y-85814803D01*
X156962333Y-85773601D01*
X156972000Y-85725000D01*
X156972000Y-83592643D01*
X165862000Y-83592643D01*
X165862000Y-84047357D01*
X166036011Y-84467458D01*
X166357542Y-84788989D01*
X166777643Y-84963000D01*
X167232357Y-84963000D01*
X167652458Y-84788989D01*
X167973989Y-84467458D01*
X168148000Y-84047357D01*
X168148000Y-83592643D01*
X167973989Y-83172542D01*
X167652458Y-82851011D01*
X167232357Y-82677000D01*
X166777643Y-82677000D01*
X166357542Y-82851011D01*
X166036011Y-83172542D01*
X165862000Y-83592643D01*
X156972000Y-83592643D01*
X156972000Y-75692000D01*
X165343246Y-75692000D01*
X165227000Y-75972643D01*
X165227000Y-75972643D01*
G37*
X165227000Y-75972643D02*
X165227000Y-76427357D01*
X165401011Y-76847458D01*
X165706053Y-77152500D01*
X165401011Y-77457542D01*
X165227000Y-77877643D01*
X165227000Y-78332357D01*
X165401011Y-78752458D01*
X165722542Y-79073989D01*
X166142643Y-79248000D01*
X166597357Y-79248000D01*
X167017458Y-79073989D01*
X167338989Y-78752458D01*
X167513000Y-78332357D01*
X167513000Y-77877643D01*
X167338989Y-77457542D01*
X167033947Y-77152500D01*
X167338989Y-76847458D01*
X167513000Y-76427357D01*
X167513000Y-75972643D01*
X167396754Y-75692000D01*
X173228000Y-75692000D01*
X173228000Y-86360000D01*
X173237667Y-86408601D01*
X173265197Y-86449803D01*
X173306399Y-86477333D01*
X173355000Y-86487000D01*
X176403000Y-86487000D01*
X176403000Y-89888217D01*
X176102147Y-89763600D01*
X175687853Y-89763600D01*
X175305094Y-89922144D01*
X175012144Y-90215094D01*
X174853600Y-90597853D01*
X174853600Y-91012147D01*
X174868770Y-91048770D01*
X174832147Y-91033600D01*
X174417853Y-91033600D01*
X174035094Y-91192144D01*
X173742144Y-91485094D01*
X173583600Y-91867853D01*
X173583600Y-92282147D01*
X173742144Y-92664906D01*
X174035094Y-92957856D01*
X174255365Y-93049095D01*
X174218600Y-93137853D01*
X174218600Y-93552147D01*
X174343217Y-93853000D01*
X171841754Y-93853000D01*
X171958000Y-93572357D01*
X171958000Y-93117643D01*
X171783989Y-92697542D01*
X171462458Y-92376011D01*
X171042357Y-92202000D01*
X170587643Y-92202000D01*
X170167542Y-92376011D01*
X169846011Y-92697542D01*
X169672000Y-93117643D01*
X169672000Y-93572357D01*
X169788246Y-93853000D01*
X169545000Y-93853000D01*
X169496399Y-93862667D01*
X169455197Y-93890197D01*
X169427667Y-93931399D01*
X169418000Y-93980000D01*
X169418000Y-97508217D01*
X169117147Y-97383600D01*
X168702853Y-97383600D01*
X168320094Y-97542144D01*
X168027144Y-97835094D01*
X167868600Y-98217853D01*
X167868600Y-98632147D01*
X168027144Y-99014906D01*
X168320094Y-99307856D01*
X168702853Y-99466400D01*
X169117147Y-99466400D01*
X169418000Y-99341783D01*
X169418000Y-99568000D01*
X163195000Y-99568000D01*
X163146399Y-99577667D01*
X163105197Y-99605197D01*
X163077667Y-99646399D01*
X163068000Y-99695000D01*
X163068000Y-100110553D01*
X162861011Y-100317542D01*
X162687000Y-100737643D01*
X162687000Y-101192357D01*
X162861011Y-101612458D01*
X163068000Y-101819447D01*
X163068000Y-106680000D01*
X163077667Y-106728601D01*
X163105197Y-106769803D01*
X163146399Y-106797333D01*
X163195000Y-106807000D01*
X166370000Y-106807000D01*
X166418601Y-106797333D01*
X166459803Y-106769803D01*
X168962606Y-104267000D01*
X173914238Y-104267000D01*
X174035094Y-104387856D01*
X174417853Y-104546400D01*
X174832147Y-104546400D01*
X175214906Y-104387856D01*
X175335762Y-104267000D01*
X178994238Y-104267000D01*
X179115094Y-104387856D01*
X179497853Y-104546400D01*
X179912147Y-104546400D01*
X180294906Y-104387856D01*
X180587856Y-104094906D01*
X180746400Y-103712147D01*
X180746400Y-103297853D01*
X180587856Y-102915094D01*
X180294906Y-102622144D01*
X179912147Y-102463600D01*
X179832000Y-102463600D01*
X179832000Y-97917000D01*
X186002394Y-97917000D01*
X187833000Y-99747606D01*
X187833000Y-105283000D01*
X177240762Y-105283000D01*
X177119906Y-105162144D01*
X176737147Y-105003600D01*
X176322853Y-105003600D01*
X175940094Y-105162144D01*
X175819238Y-105283000D01*
X169545000Y-105283000D01*
X169496399Y-105292667D01*
X169455197Y-105320197D01*
X166952394Y-107823000D01*
X161417000Y-107823000D01*
X161417000Y-100405762D01*
X161537856Y-100284906D01*
X161696400Y-99902147D01*
X161696400Y-99487853D01*
X161537856Y-99105094D01*
X161244906Y-98812144D01*
X160862147Y-98653600D01*
X160447853Y-98653600D01*
X160065094Y-98812144D01*
X159918838Y-98958400D01*
X159457540Y-98958400D01*
X159385000Y-98943971D01*
X159312459Y-98958400D01*
X159312456Y-98958400D01*
X159097593Y-99001139D01*
X158915441Y-99122849D01*
X158915439Y-99122851D01*
X158853942Y-99163942D01*
X158812850Y-99225440D01*
X158470291Y-99568000D01*
X158242000Y-99568000D01*
X158242000Y-99437179D01*
X158280000Y-99345439D01*
X158280000Y-98774561D01*
X158242000Y-98682821D01*
X158242000Y-96947853D01*
X158343600Y-96947853D01*
X158343600Y-97362147D01*
X158502144Y-97744906D01*
X158795094Y-98037856D01*
X159177853Y-98196400D01*
X159592147Y-98196400D01*
X159974906Y-98037856D01*
X160267856Y-97744906D01*
X160426400Y-97362147D01*
X160426400Y-96947853D01*
X160267856Y-96565094D01*
X159974906Y-96272144D01*
X159592147Y-96113600D01*
X159177853Y-96113600D01*
X158795094Y-96272144D01*
X158502144Y-96565094D01*
X158343600Y-96947853D01*
X158242000Y-96947853D01*
X158242000Y-96897179D01*
X158280000Y-96805439D01*
X158280000Y-96234561D01*
X158242000Y-96142821D01*
X158242000Y-94716600D01*
X160222891Y-94716600D01*
X160807401Y-95301111D01*
X160807400Y-96799838D01*
X160661144Y-96946094D01*
X160502600Y-97328853D01*
X160502600Y-97743147D01*
X160661144Y-98125906D01*
X160954094Y-98418856D01*
X161336853Y-98577400D01*
X161751147Y-98577400D01*
X162133906Y-98418856D01*
X162426856Y-98125906D01*
X162585400Y-97743147D01*
X162585400Y-97328853D01*
X162426856Y-96946094D01*
X162280600Y-96799838D01*
X162280600Y-95657643D01*
X166497000Y-95657643D01*
X166497000Y-96112357D01*
X166671011Y-96532458D01*
X166992542Y-96853989D01*
X167412643Y-97028000D01*
X167867357Y-97028000D01*
X168287458Y-96853989D01*
X168608989Y-96532458D01*
X168783000Y-96112357D01*
X168783000Y-95657643D01*
X168608989Y-95237542D01*
X168287458Y-94916011D01*
X167867357Y-94742000D01*
X167412643Y-94742000D01*
X166992542Y-94916011D01*
X166671011Y-95237542D01*
X166497000Y-95657643D01*
X162280600Y-95657643D01*
X162280600Y-95068540D01*
X162295029Y-94996000D01*
X162280600Y-94923459D01*
X162280600Y-94923456D01*
X162237861Y-94708593D01*
X162167000Y-94602542D01*
X162116151Y-94526441D01*
X162116149Y-94526439D01*
X162075058Y-94464942D01*
X162013560Y-94423850D01*
X161100151Y-93510442D01*
X161059058Y-93448942D01*
X160815407Y-93286139D01*
X160600544Y-93243400D01*
X160600540Y-93243400D01*
X160528000Y-93228971D01*
X160455460Y-93243400D01*
X158242000Y-93243400D01*
X158242000Y-91817179D01*
X158280000Y-91725439D01*
X158280000Y-91154561D01*
X158242000Y-91062821D01*
X158242000Y-90170000D01*
X158232333Y-90121399D01*
X158204803Y-90080197D01*
X158163601Y-90052667D01*
X158115000Y-90043000D01*
X157632399Y-90043000D01*
X157673139Y-89907745D01*
X156845000Y-89079605D01*
X156016861Y-89907745D01*
X156057601Y-90043000D01*
X155191396Y-90043000D01*
X155521534Y-89712862D01*
X155568525Y-89599417D01*
X155591136Y-89654005D01*
X155837255Y-89728139D01*
X156665395Y-88900000D01*
X157024605Y-88900000D01*
X157852745Y-89728139D01*
X158098864Y-89654005D01*
X158291965Y-89116777D01*
X158264778Y-88546546D01*
X158098864Y-88145995D01*
X157852745Y-88071861D01*
X157024605Y-88900000D01*
X156665395Y-88900000D01*
X155837255Y-88071861D01*
X155591136Y-88145995D01*
X155570126Y-88204448D01*
X155521534Y-88087138D01*
X155326651Y-87892255D01*
X156016861Y-87892255D01*
X156845000Y-88720395D01*
X157673139Y-87892255D01*
X157599005Y-87646136D01*
X157061777Y-87453035D01*
X156491546Y-87480222D01*
X156090995Y-87646136D01*
X156016861Y-87892255D01*
X155326651Y-87892255D01*
X155117862Y-87683466D01*
X154590439Y-87465000D01*
X154019561Y-87465000D01*
X153492138Y-87683466D01*
X153162000Y-88013604D01*
X153162000Y-86767643D01*
X165862000Y-86767643D01*
X165862000Y-87222357D01*
X166036011Y-87642458D01*
X166357542Y-87963989D01*
X166777643Y-88138000D01*
X167232357Y-88138000D01*
X167425849Y-88057853D01*
X173583600Y-88057853D01*
X173583600Y-88472147D01*
X173742144Y-88854906D01*
X174035094Y-89147856D01*
X174417853Y-89306400D01*
X174832147Y-89306400D01*
X175214906Y-89147856D01*
X175507856Y-88854906D01*
X175666400Y-88472147D01*
X175666400Y-88057853D01*
X175507856Y-87675094D01*
X175214906Y-87382144D01*
X174832147Y-87223600D01*
X174417853Y-87223600D01*
X174035094Y-87382144D01*
X173742144Y-87675094D01*
X173583600Y-88057853D01*
X167425849Y-88057853D01*
X167652458Y-87963989D01*
X167973989Y-87642458D01*
X168148000Y-87222357D01*
X168148000Y-86787853D01*
X170408600Y-86787853D01*
X170408600Y-87202147D01*
X170567144Y-87584906D01*
X170860094Y-87877856D01*
X171242853Y-88036400D01*
X171657147Y-88036400D01*
X172039906Y-87877856D01*
X172332856Y-87584906D01*
X172491400Y-87202147D01*
X172491400Y-86787853D01*
X172332856Y-86405094D01*
X172039906Y-86112144D01*
X171657147Y-85953600D01*
X171242853Y-85953600D01*
X170860094Y-86112144D01*
X170567144Y-86405094D01*
X170408600Y-86787853D01*
X168148000Y-86787853D01*
X168148000Y-86767643D01*
X167973989Y-86347542D01*
X167652458Y-86026011D01*
X167232357Y-85852000D01*
X166777643Y-85852000D01*
X166357542Y-86026011D01*
X166036011Y-86347542D01*
X165862000Y-86767643D01*
X153162000Y-86767643D01*
X153162000Y-85852000D01*
X156845000Y-85852000D01*
X156893601Y-85842333D01*
X156934803Y-85814803D01*
X156962333Y-85773601D01*
X156972000Y-85725000D01*
X156972000Y-83592643D01*
X165862000Y-83592643D01*
X165862000Y-84047357D01*
X166036011Y-84467458D01*
X166357542Y-84788989D01*
X166777643Y-84963000D01*
X167232357Y-84963000D01*
X167652458Y-84788989D01*
X167973989Y-84467458D01*
X168148000Y-84047357D01*
X168148000Y-83592643D01*
X167973989Y-83172542D01*
X167652458Y-82851011D01*
X167232357Y-82677000D01*
X166777643Y-82677000D01*
X166357542Y-82851011D01*
X166036011Y-83172542D01*
X165862000Y-83592643D01*
X156972000Y-83592643D01*
X156972000Y-75692000D01*
X165343246Y-75692000D01*
X165227000Y-75972643D01*
G04 #@! TO.N,+1V8*
G36*
X180848000Y-83538217D02*
X180547147Y-83413600D01*
X180138838Y-83413600D01*
X180038989Y-83172542D01*
X179717458Y-82851011D01*
X179297357Y-82677000D01*
X178842643Y-82677000D01*
X178422542Y-82851011D01*
X178101011Y-83172542D01*
X177927000Y-83592643D01*
X177927000Y-84047357D01*
X178101011Y-84467458D01*
X178308000Y-84674447D01*
X178308000Y-88824238D01*
X178187144Y-88945094D01*
X178028600Y-89327853D01*
X178028600Y-89742147D01*
X178187144Y-90124906D01*
X178308000Y-90245762D01*
X178308000Y-101208246D01*
X178027357Y-101092000D01*
X177572643Y-101092000D01*
X177152542Y-101266011D01*
X176831011Y-101587542D01*
X176657000Y-102007643D01*
X176657000Y-102462357D01*
X176773246Y-102743000D01*
X175335762Y-102743000D01*
X175214906Y-102622144D01*
X174832147Y-102463600D01*
X174417853Y-102463600D01*
X174035094Y-102622144D01*
X173914238Y-102743000D01*
X168910000Y-102743000D01*
X168861399Y-102752667D01*
X168820197Y-102780197D01*
X165682394Y-105918000D01*
X164592000Y-105918000D01*
X164592000Y-101819447D01*
X164798989Y-101612458D01*
X164973000Y-101192357D01*
X164973000Y-100737643D01*
X164856754Y-100457000D01*
X165978246Y-100457000D01*
X165862000Y-100737643D01*
X165862000Y-101192357D01*
X166036011Y-101612458D01*
X166357542Y-101933989D01*
X166777643Y-102108000D01*
X167232357Y-102108000D01*
X167652458Y-101933989D01*
X167973989Y-101612458D01*
X168148000Y-101192357D01*
X168148000Y-100737643D01*
X168031754Y-100457000D01*
X169672000Y-100457000D01*
X169672000Y-100557357D01*
X169846011Y-100977458D01*
X170167542Y-101298989D01*
X170587643Y-101473000D01*
X171042357Y-101473000D01*
X171462458Y-101298989D01*
X171783989Y-100977458D01*
X171883323Y-100737643D01*
X172212000Y-100737643D01*
X172212000Y-101192357D01*
X172386011Y-101612458D01*
X172707542Y-101933989D01*
X173127643Y-102108000D01*
X173582357Y-102108000D01*
X174002458Y-101933989D01*
X174323989Y-101612458D01*
X174498000Y-101192357D01*
X174498000Y-100737643D01*
X174323989Y-100317542D01*
X174002458Y-99996011D01*
X173582357Y-99822000D01*
X173127643Y-99822000D01*
X172707542Y-99996011D01*
X172386011Y-100317542D01*
X172212000Y-100737643D01*
X171883323Y-100737643D01*
X171958000Y-100557357D01*
X171958000Y-100102643D01*
X171783989Y-99682542D01*
X171462458Y-99361011D01*
X171042357Y-99187000D01*
X170587643Y-99187000D01*
X170307000Y-99303246D01*
X170307000Y-96947853D01*
X175488600Y-96947853D01*
X175488600Y-97362147D01*
X175647144Y-97744906D01*
X175940094Y-98037856D01*
X176322853Y-98196400D01*
X176737147Y-98196400D01*
X177119906Y-98037856D01*
X177412856Y-97744906D01*
X177571400Y-97362147D01*
X177571400Y-96947853D01*
X177412856Y-96565094D01*
X177119906Y-96272144D01*
X176737147Y-96113600D01*
X176322853Y-96113600D01*
X175940094Y-96272144D01*
X175647144Y-96565094D01*
X175488600Y-96947853D01*
X170307000Y-96947853D01*
X170307000Y-94742000D01*
X177165000Y-94742000D01*
X177213601Y-94732333D01*
X177254803Y-94704803D01*
X177282333Y-94663601D01*
X177292000Y-94615000D01*
X177292000Y-85725000D01*
X177282333Y-85676399D01*
X177254803Y-85635197D01*
X177213601Y-85607667D01*
X177165000Y-85598000D01*
X174117000Y-85598000D01*
X174117000Y-80772000D01*
X180848000Y-80772000D01*
X180848000Y-83538217D01*
X180848000Y-83538217D01*
G37*
X180848000Y-83538217D02*
X180547147Y-83413600D01*
X180138838Y-83413600D01*
X180038989Y-83172542D01*
X179717458Y-82851011D01*
X179297357Y-82677000D01*
X178842643Y-82677000D01*
X178422542Y-82851011D01*
X178101011Y-83172542D01*
X177927000Y-83592643D01*
X177927000Y-84047357D01*
X178101011Y-84467458D01*
X178308000Y-84674447D01*
X178308000Y-88824238D01*
X178187144Y-88945094D01*
X178028600Y-89327853D01*
X178028600Y-89742147D01*
X178187144Y-90124906D01*
X178308000Y-90245762D01*
X178308000Y-101208246D01*
X178027357Y-101092000D01*
X177572643Y-101092000D01*
X177152542Y-101266011D01*
X176831011Y-101587542D01*
X176657000Y-102007643D01*
X176657000Y-102462357D01*
X176773246Y-102743000D01*
X175335762Y-102743000D01*
X175214906Y-102622144D01*
X174832147Y-102463600D01*
X174417853Y-102463600D01*
X174035094Y-102622144D01*
X173914238Y-102743000D01*
X168910000Y-102743000D01*
X168861399Y-102752667D01*
X168820197Y-102780197D01*
X165682394Y-105918000D01*
X164592000Y-105918000D01*
X164592000Y-101819447D01*
X164798989Y-101612458D01*
X164973000Y-101192357D01*
X164973000Y-100737643D01*
X164856754Y-100457000D01*
X165978246Y-100457000D01*
X165862000Y-100737643D01*
X165862000Y-101192357D01*
X166036011Y-101612458D01*
X166357542Y-101933989D01*
X166777643Y-102108000D01*
X167232357Y-102108000D01*
X167652458Y-101933989D01*
X167973989Y-101612458D01*
X168148000Y-101192357D01*
X168148000Y-100737643D01*
X168031754Y-100457000D01*
X169672000Y-100457000D01*
X169672000Y-100557357D01*
X169846011Y-100977458D01*
X170167542Y-101298989D01*
X170587643Y-101473000D01*
X171042357Y-101473000D01*
X171462458Y-101298989D01*
X171783989Y-100977458D01*
X171883323Y-100737643D01*
X172212000Y-100737643D01*
X172212000Y-101192357D01*
X172386011Y-101612458D01*
X172707542Y-101933989D01*
X173127643Y-102108000D01*
X173582357Y-102108000D01*
X174002458Y-101933989D01*
X174323989Y-101612458D01*
X174498000Y-101192357D01*
X174498000Y-100737643D01*
X174323989Y-100317542D01*
X174002458Y-99996011D01*
X173582357Y-99822000D01*
X173127643Y-99822000D01*
X172707542Y-99996011D01*
X172386011Y-100317542D01*
X172212000Y-100737643D01*
X171883323Y-100737643D01*
X171958000Y-100557357D01*
X171958000Y-100102643D01*
X171783989Y-99682542D01*
X171462458Y-99361011D01*
X171042357Y-99187000D01*
X170587643Y-99187000D01*
X170307000Y-99303246D01*
X170307000Y-96947853D01*
X175488600Y-96947853D01*
X175488600Y-97362147D01*
X175647144Y-97744906D01*
X175940094Y-98037856D01*
X176322853Y-98196400D01*
X176737147Y-98196400D01*
X177119906Y-98037856D01*
X177412856Y-97744906D01*
X177571400Y-97362147D01*
X177571400Y-96947853D01*
X177412856Y-96565094D01*
X177119906Y-96272144D01*
X176737147Y-96113600D01*
X176322853Y-96113600D01*
X175940094Y-96272144D01*
X175647144Y-96565094D01*
X175488600Y-96947853D01*
X170307000Y-96947853D01*
X170307000Y-94742000D01*
X177165000Y-94742000D01*
X177213601Y-94732333D01*
X177254803Y-94704803D01*
X177282333Y-94663601D01*
X177292000Y-94615000D01*
X177292000Y-85725000D01*
X177282333Y-85676399D01*
X177254803Y-85635197D01*
X177213601Y-85607667D01*
X177165000Y-85598000D01*
X174117000Y-85598000D01*
X174117000Y-80772000D01*
X180848000Y-80772000D01*
X180848000Y-83538217D01*
G04 #@! TO.N,+5V*
G36*
X218948000Y-100265477D02*
X218852765Y-100201843D01*
X218605000Y-100152560D01*
X217005000Y-100152560D01*
X216757235Y-100201843D01*
X216547191Y-100342191D01*
X216406843Y-100552235D01*
X216380262Y-100685866D01*
X216077862Y-100383466D01*
X215550439Y-100165000D01*
X214979561Y-100165000D01*
X214452138Y-100383466D01*
X214048466Y-100787138D01*
X213830000Y-101314561D01*
X213830000Y-101885439D01*
X214048466Y-102412862D01*
X214452138Y-102816534D01*
X214979561Y-103035000D01*
X215550439Y-103035000D01*
X216077862Y-102816534D01*
X216380262Y-102514134D01*
X216406843Y-102647765D01*
X216547191Y-102857809D01*
X216757235Y-102998157D01*
X217005000Y-103047440D01*
X218605000Y-103047440D01*
X218852765Y-102998157D01*
X218948000Y-102934523D01*
X218948000Y-103378000D01*
X210820000Y-103378000D01*
X210771399Y-103387667D01*
X210730197Y-103415197D01*
X210702667Y-103456399D01*
X210693000Y-103505000D01*
X210693000Y-112268000D01*
X176530000Y-112268000D01*
X176481399Y-112277667D01*
X176440197Y-112305197D01*
X176412667Y-112346399D01*
X176403000Y-112395000D01*
X176403000Y-113538000D01*
X153162000Y-113538000D01*
X153162000Y-110881754D01*
X153442643Y-110998000D01*
X153897357Y-110998000D01*
X154305000Y-110829149D01*
X154712643Y-110998000D01*
X155167357Y-110998000D01*
X155587458Y-110823989D01*
X155908989Y-110502458D01*
X156083000Y-110082357D01*
X156083000Y-109627643D01*
X156032511Y-109505750D01*
X178355000Y-109505750D01*
X178355000Y-110046310D01*
X178451673Y-110279699D01*
X178630302Y-110458327D01*
X178863691Y-110555000D01*
X179404250Y-110555000D01*
X179563000Y-110396250D01*
X179563000Y-109347000D01*
X178513750Y-109347000D01*
X178355000Y-109505750D01*
X156032511Y-109505750D01*
X155908989Y-109207542D01*
X155587458Y-108886011D01*
X155167357Y-108712000D01*
X154712643Y-108712000D01*
X154305000Y-108880851D01*
X153897357Y-108712000D01*
X153442643Y-108712000D01*
X153162000Y-108828246D01*
X153162000Y-107764273D01*
X153579938Y-107764273D01*
X153663552Y-107995008D01*
X154215611Y-108140380D01*
X154781278Y-108063423D01*
X154946448Y-107995008D01*
X155030062Y-107764273D01*
X154305000Y-107039210D01*
X153579938Y-107764273D01*
X153162000Y-107764273D01*
X153162000Y-107383781D01*
X153220727Y-107405062D01*
X153945790Y-106680000D01*
X153220727Y-105954938D01*
X153162000Y-105976219D01*
X153162000Y-105026396D01*
X153492138Y-105356534D01*
X153643845Y-105419373D01*
X153579938Y-105595727D01*
X154305000Y-106320790D01*
X155030062Y-105595727D01*
X154966155Y-105419373D01*
X155117862Y-105356534D01*
X155521534Y-104952862D01*
X155575000Y-104823784D01*
X155628466Y-104952862D01*
X155920604Y-105245000D01*
X155918690Y-105245000D01*
X155685301Y-105341673D01*
X155506673Y-105520302D01*
X155410000Y-105753691D01*
X155410000Y-105962449D01*
X155389273Y-105954938D01*
X154664210Y-106680000D01*
X155389273Y-107405062D01*
X155410000Y-107397551D01*
X155410000Y-107606309D01*
X155506673Y-107839698D01*
X155685301Y-108018327D01*
X155918690Y-108115000D01*
X156432250Y-108115000D01*
X156591000Y-107956250D01*
X156591000Y-106934000D01*
X157099000Y-106934000D01*
X157099000Y-107956250D01*
X157257750Y-108115000D01*
X157771310Y-108115000D01*
X158004699Y-108018327D01*
X158183327Y-107839698D01*
X158280000Y-107606309D01*
X158280000Y-107092750D01*
X158121250Y-106934000D01*
X157099000Y-106934000D01*
X156591000Y-106934000D01*
X156571000Y-106934000D01*
X156571000Y-106426000D01*
X156591000Y-106426000D01*
X156591000Y-106406000D01*
X157099000Y-106406000D01*
X157099000Y-106426000D01*
X158121250Y-106426000D01*
X158280000Y-106267250D01*
X158280000Y-105753691D01*
X158183327Y-105520302D01*
X158004699Y-105341673D01*
X157771310Y-105245000D01*
X157769396Y-105245000D01*
X158061534Y-104952862D01*
X158280000Y-104425439D01*
X158280000Y-103854561D01*
X158061534Y-103327138D01*
X157731396Y-102997000D01*
X159893000Y-102997000D01*
X159893000Y-104267000D01*
X159792643Y-104267000D01*
X159372542Y-104441011D01*
X159051011Y-104762542D01*
X158877000Y-105182643D01*
X158877000Y-105637357D01*
X159051011Y-106057458D01*
X159372542Y-106378989D01*
X159792643Y-106553000D01*
X159893000Y-106553000D01*
X159893000Y-109220000D01*
X159902667Y-109268601D01*
X159930197Y-109309803D01*
X159971399Y-109337333D01*
X160020000Y-109347000D01*
X167005000Y-109347000D01*
X167053601Y-109337333D01*
X167094803Y-109309803D01*
X168010916Y-108393690D01*
X178355000Y-108393690D01*
X178355000Y-108934250D01*
X178513750Y-109093000D01*
X179563000Y-109093000D01*
X179563000Y-108043750D01*
X179404250Y-107885000D01*
X178863691Y-107885000D01*
X178630302Y-107981673D01*
X178451673Y-108160301D01*
X178355000Y-108393690D01*
X168010916Y-108393690D01*
X169597606Y-106807000D01*
X175819238Y-106807000D01*
X175940094Y-106927856D01*
X176322853Y-107086400D01*
X176737147Y-107086400D01*
X177119906Y-106927856D01*
X177240762Y-106807000D01*
X178663600Y-106807000D01*
X178663600Y-106887147D01*
X178822144Y-107269906D01*
X179115094Y-107562856D01*
X179497853Y-107721400D01*
X179912147Y-107721400D01*
X180294906Y-107562856D01*
X180568600Y-107289162D01*
X180568600Y-107522147D01*
X180727144Y-107904906D01*
X180922132Y-108099894D01*
X180895025Y-108127000D01*
X180749698Y-107981673D01*
X180516309Y-107885000D01*
X179975750Y-107885000D01*
X179817000Y-108043750D01*
X179817000Y-109093000D01*
X179837000Y-109093000D01*
X179837000Y-109347000D01*
X179817000Y-109347000D01*
X179817000Y-110396250D01*
X179975750Y-110555000D01*
X180516309Y-110555000D01*
X180749698Y-110458327D01*
X180895025Y-110313000D01*
X180933783Y-110351758D01*
X181424452Y-110555000D01*
X181955548Y-110555000D01*
X182446217Y-110351758D01*
X182690000Y-110107975D01*
X182933783Y-110351758D01*
X183424452Y-110555000D01*
X183955548Y-110555000D01*
X184446217Y-110351758D01*
X184690000Y-110107975D01*
X184933783Y-110351758D01*
X185424452Y-110555000D01*
X185955548Y-110555000D01*
X186446217Y-110351758D01*
X186690000Y-110107975D01*
X186933783Y-110351758D01*
X187424452Y-110555000D01*
X187955548Y-110555000D01*
X188446217Y-110351758D01*
X188690000Y-110107975D01*
X188933783Y-110351758D01*
X189424452Y-110555000D01*
X189955548Y-110555000D01*
X190446217Y-110351758D01*
X190690000Y-110107975D01*
X190933783Y-110351758D01*
X191424452Y-110555000D01*
X191955548Y-110555000D01*
X192446217Y-110351758D01*
X192690000Y-110107975D01*
X192933783Y-110351758D01*
X193424452Y-110555000D01*
X193955548Y-110555000D01*
X194446217Y-110351758D01*
X194821758Y-109976217D01*
X195025000Y-109485548D01*
X195025000Y-108954452D01*
X194845044Y-108520000D01*
X199217560Y-108520000D01*
X199217560Y-109920000D01*
X199266843Y-110167765D01*
X199407191Y-110377809D01*
X199617235Y-110518157D01*
X199865000Y-110567440D01*
X201265000Y-110567440D01*
X201512765Y-110518157D01*
X201722809Y-110377809D01*
X201767680Y-110310655D01*
X201808783Y-110351758D01*
X202299452Y-110555000D01*
X202830548Y-110555000D01*
X203321217Y-110351758D01*
X203565000Y-110107975D01*
X203808783Y-110351758D01*
X204299452Y-110555000D01*
X204830548Y-110555000D01*
X205321217Y-110351758D01*
X205696758Y-109976217D01*
X205900000Y-109485548D01*
X205900000Y-108954452D01*
X205696758Y-108463783D01*
X205321217Y-108088242D01*
X204830548Y-107885000D01*
X204299452Y-107885000D01*
X203808783Y-108088242D01*
X203565000Y-108332025D01*
X203321217Y-108088242D01*
X202830548Y-107885000D01*
X202299452Y-107885000D01*
X201808783Y-108088242D01*
X201767680Y-108129345D01*
X201722809Y-108062191D01*
X201512765Y-107921843D01*
X201265000Y-107872560D01*
X199865000Y-107872560D01*
X199617235Y-107921843D01*
X199407191Y-108062191D01*
X199266843Y-108272235D01*
X199217560Y-108520000D01*
X194845044Y-108520000D01*
X194821758Y-108463783D01*
X194446217Y-108088242D01*
X193955548Y-107885000D01*
X193424452Y-107885000D01*
X192933783Y-108088242D01*
X192690000Y-108332025D01*
X192446217Y-108088242D01*
X191955548Y-107885000D01*
X191424452Y-107885000D01*
X190933783Y-108088242D01*
X190690000Y-108332025D01*
X190446217Y-108088242D01*
X189955548Y-107885000D01*
X189424452Y-107885000D01*
X188933783Y-108088242D01*
X188690000Y-108332025D01*
X188446217Y-108088242D01*
X187955548Y-107885000D01*
X187424452Y-107885000D01*
X186933783Y-108088242D01*
X186690000Y-108332025D01*
X186446217Y-108088242D01*
X185955548Y-107885000D01*
X185424452Y-107885000D01*
X184933783Y-108088242D01*
X184690000Y-108332025D01*
X184446217Y-108088242D01*
X183955548Y-107885000D01*
X183424452Y-107885000D01*
X182933783Y-108088242D01*
X182690000Y-108332025D01*
X182446217Y-108088242D01*
X182349558Y-108048204D01*
X182492856Y-107904906D01*
X182651400Y-107522147D01*
X182651400Y-107107853D01*
X182526783Y-106807000D01*
X187884238Y-106807000D01*
X188005094Y-106927856D01*
X188387853Y-107086400D01*
X188802147Y-107086400D01*
X189184906Y-106927856D01*
X189305762Y-106807000D01*
X197485000Y-106807000D01*
X197533601Y-106797333D01*
X197574803Y-106769803D01*
X197602333Y-106728601D01*
X197612000Y-106680000D01*
X197612000Y-101092000D01*
X198998246Y-101092000D01*
X198882000Y-101372643D01*
X198882000Y-101827357D01*
X199050851Y-102235000D01*
X198882000Y-102642643D01*
X198882000Y-103097357D01*
X199050851Y-103505000D01*
X198882000Y-103912643D01*
X198882000Y-104367357D01*
X199056011Y-104787458D01*
X199377542Y-105108989D01*
X199797643Y-105283000D01*
X200252357Y-105283000D01*
X200672458Y-105108989D01*
X200993989Y-104787458D01*
X201168000Y-104367357D01*
X201168000Y-103912643D01*
X200999149Y-103505000D01*
X201168000Y-103097357D01*
X201168000Y-102642643D01*
X200999149Y-102235000D01*
X201168000Y-101827357D01*
X201168000Y-101805000D01*
X207567560Y-101805000D01*
X207567560Y-103205000D01*
X207616843Y-103452765D01*
X207757191Y-103662809D01*
X207824345Y-103707680D01*
X207783242Y-103748783D01*
X207580000Y-104239452D01*
X207580000Y-104770548D01*
X207783242Y-105261217D01*
X208158783Y-105636758D01*
X208649452Y-105840000D01*
X209180548Y-105840000D01*
X209671217Y-105636758D01*
X210046758Y-105261217D01*
X210250000Y-104770548D01*
X210250000Y-104239452D01*
X210046758Y-103748783D01*
X210005655Y-103707680D01*
X210072809Y-103662809D01*
X210213157Y-103452765D01*
X210262440Y-103205000D01*
X210262440Y-101805000D01*
X210213157Y-101557235D01*
X210072809Y-101347191D01*
X209862765Y-101206843D01*
X209615000Y-101157560D01*
X208215000Y-101157560D01*
X207967235Y-101206843D01*
X207757191Y-101347191D01*
X207616843Y-101557235D01*
X207567560Y-101805000D01*
X201168000Y-101805000D01*
X201168000Y-101372643D01*
X201051754Y-101092000D01*
X206375000Y-101092000D01*
X206423601Y-101082333D01*
X206464803Y-101054803D01*
X206492333Y-101013601D01*
X206502000Y-100965000D01*
X206502000Y-98832643D01*
X210947000Y-98832643D01*
X210947000Y-99287357D01*
X211121011Y-99707458D01*
X211442542Y-100028989D01*
X211862643Y-100203000D01*
X212317357Y-100203000D01*
X212737458Y-100028989D01*
X213058989Y-99707458D01*
X213233000Y-99287357D01*
X213233000Y-98832643D01*
X213058989Y-98412542D01*
X212737458Y-98091011D01*
X212317357Y-97917000D01*
X211862643Y-97917000D01*
X211442542Y-98091011D01*
X211121011Y-98412542D01*
X210947000Y-98832643D01*
X206502000Y-98832643D01*
X206502000Y-96927643D01*
X207137000Y-96927643D01*
X207137000Y-97382357D01*
X207311011Y-97802458D01*
X207632542Y-98123989D01*
X208052643Y-98298000D01*
X208507357Y-98298000D01*
X208927458Y-98123989D01*
X209248989Y-97802458D01*
X209423000Y-97382357D01*
X209423000Y-96927643D01*
X209248989Y-96507542D01*
X209021447Y-96280000D01*
X214552560Y-96280000D01*
X214552560Y-97680000D01*
X214601843Y-97927765D01*
X214742191Y-98137809D01*
X214952235Y-98278157D01*
X215200000Y-98327440D01*
X216600000Y-98327440D01*
X216847765Y-98278157D01*
X217057809Y-98137809D01*
X217198157Y-97927765D01*
X217247440Y-97680000D01*
X217247440Y-96280000D01*
X217198157Y-96032235D01*
X217057809Y-95822191D01*
X216990655Y-95777320D01*
X217031758Y-95736217D01*
X217235000Y-95245548D01*
X217235000Y-94714452D01*
X217031758Y-94223783D01*
X216787975Y-93980000D01*
X217031758Y-93736217D01*
X217235000Y-93245548D01*
X217235000Y-92714452D01*
X217031758Y-92223783D01*
X216787975Y-91980000D01*
X217031758Y-91736217D01*
X217235000Y-91245548D01*
X217235000Y-90714452D01*
X217031758Y-90223783D01*
X216656217Y-89848242D01*
X216165548Y-89645000D01*
X215634452Y-89645000D01*
X215143783Y-89848242D01*
X214768242Y-90223783D01*
X214565000Y-90714452D01*
X214565000Y-91245548D01*
X214768242Y-91736217D01*
X215012025Y-91980000D01*
X214768242Y-92223783D01*
X214565000Y-92714452D01*
X214565000Y-93245548D01*
X214768242Y-93736217D01*
X215012025Y-93980000D01*
X214768242Y-94223783D01*
X214565000Y-94714452D01*
X214565000Y-95245548D01*
X214768242Y-95736217D01*
X214809345Y-95777320D01*
X214742191Y-95822191D01*
X214601843Y-96032235D01*
X214552560Y-96280000D01*
X209021447Y-96280000D01*
X208927458Y-96186011D01*
X208507357Y-96012000D01*
X208052643Y-96012000D01*
X207632542Y-96186011D01*
X207311011Y-96507542D01*
X207137000Y-96927643D01*
X206502000Y-96927643D01*
X206502000Y-95827440D01*
X206940000Y-95827440D01*
X207187765Y-95778157D01*
X207397809Y-95637809D01*
X207538157Y-95427765D01*
X207587440Y-95180000D01*
X207587440Y-92780000D01*
X207538157Y-92532235D01*
X207397809Y-92322191D01*
X207187765Y-92181843D01*
X206940000Y-92132560D01*
X206502000Y-92132560D01*
X206502000Y-90577643D01*
X207137000Y-90577643D01*
X207137000Y-91032357D01*
X207311011Y-91452458D01*
X207632542Y-91773989D01*
X208052643Y-91948000D01*
X208507357Y-91948000D01*
X208927458Y-91773989D01*
X209248989Y-91452458D01*
X209423000Y-91032357D01*
X209423000Y-90577643D01*
X209248989Y-90157542D01*
X208927458Y-89836011D01*
X208507357Y-89662000D01*
X208052643Y-89662000D01*
X207632542Y-89836011D01*
X207311011Y-90157542D01*
X207137000Y-90577643D01*
X206502000Y-90577643D01*
X206502000Y-88672643D01*
X210947000Y-88672643D01*
X210947000Y-89127357D01*
X211121011Y-89547458D01*
X211442542Y-89868989D01*
X211862643Y-90043000D01*
X212317357Y-90043000D01*
X212737458Y-89868989D01*
X213058989Y-89547458D01*
X213233000Y-89127357D01*
X213233000Y-88672643D01*
X213058989Y-88252542D01*
X212737458Y-87931011D01*
X212317357Y-87757000D01*
X211862643Y-87757000D01*
X211442542Y-87931011D01*
X211121011Y-88252542D01*
X210947000Y-88672643D01*
X206502000Y-88672643D01*
X206502000Y-86487000D01*
X218948000Y-86487000D01*
X218948000Y-100265477D01*
X218948000Y-100265477D01*
G37*
X218948000Y-100265477D02*
X218852765Y-100201843D01*
X218605000Y-100152560D01*
X217005000Y-100152560D01*
X216757235Y-100201843D01*
X216547191Y-100342191D01*
X216406843Y-100552235D01*
X216380262Y-100685866D01*
X216077862Y-100383466D01*
X215550439Y-100165000D01*
X214979561Y-100165000D01*
X214452138Y-100383466D01*
X214048466Y-100787138D01*
X213830000Y-101314561D01*
X213830000Y-101885439D01*
X214048466Y-102412862D01*
X214452138Y-102816534D01*
X214979561Y-103035000D01*
X215550439Y-103035000D01*
X216077862Y-102816534D01*
X216380262Y-102514134D01*
X216406843Y-102647765D01*
X216547191Y-102857809D01*
X216757235Y-102998157D01*
X217005000Y-103047440D01*
X218605000Y-103047440D01*
X218852765Y-102998157D01*
X218948000Y-102934523D01*
X218948000Y-103378000D01*
X210820000Y-103378000D01*
X210771399Y-103387667D01*
X210730197Y-103415197D01*
X210702667Y-103456399D01*
X210693000Y-103505000D01*
X210693000Y-112268000D01*
X176530000Y-112268000D01*
X176481399Y-112277667D01*
X176440197Y-112305197D01*
X176412667Y-112346399D01*
X176403000Y-112395000D01*
X176403000Y-113538000D01*
X153162000Y-113538000D01*
X153162000Y-110881754D01*
X153442643Y-110998000D01*
X153897357Y-110998000D01*
X154305000Y-110829149D01*
X154712643Y-110998000D01*
X155167357Y-110998000D01*
X155587458Y-110823989D01*
X155908989Y-110502458D01*
X156083000Y-110082357D01*
X156083000Y-109627643D01*
X156032511Y-109505750D01*
X178355000Y-109505750D01*
X178355000Y-110046310D01*
X178451673Y-110279699D01*
X178630302Y-110458327D01*
X178863691Y-110555000D01*
X179404250Y-110555000D01*
X179563000Y-110396250D01*
X179563000Y-109347000D01*
X178513750Y-109347000D01*
X178355000Y-109505750D01*
X156032511Y-109505750D01*
X155908989Y-109207542D01*
X155587458Y-108886011D01*
X155167357Y-108712000D01*
X154712643Y-108712000D01*
X154305000Y-108880851D01*
X153897357Y-108712000D01*
X153442643Y-108712000D01*
X153162000Y-108828246D01*
X153162000Y-107764273D01*
X153579938Y-107764273D01*
X153663552Y-107995008D01*
X154215611Y-108140380D01*
X154781278Y-108063423D01*
X154946448Y-107995008D01*
X155030062Y-107764273D01*
X154305000Y-107039210D01*
X153579938Y-107764273D01*
X153162000Y-107764273D01*
X153162000Y-107383781D01*
X153220727Y-107405062D01*
X153945790Y-106680000D01*
X153220727Y-105954938D01*
X153162000Y-105976219D01*
X153162000Y-105026396D01*
X153492138Y-105356534D01*
X153643845Y-105419373D01*
X153579938Y-105595727D01*
X154305000Y-106320790D01*
X155030062Y-105595727D01*
X154966155Y-105419373D01*
X155117862Y-105356534D01*
X155521534Y-104952862D01*
X155575000Y-104823784D01*
X155628466Y-104952862D01*
X155920604Y-105245000D01*
X155918690Y-105245000D01*
X155685301Y-105341673D01*
X155506673Y-105520302D01*
X155410000Y-105753691D01*
X155410000Y-105962449D01*
X155389273Y-105954938D01*
X154664210Y-106680000D01*
X155389273Y-107405062D01*
X155410000Y-107397551D01*
X155410000Y-107606309D01*
X155506673Y-107839698D01*
X155685301Y-108018327D01*
X155918690Y-108115000D01*
X156432250Y-108115000D01*
X156591000Y-107956250D01*
X156591000Y-106934000D01*
X157099000Y-106934000D01*
X157099000Y-107956250D01*
X157257750Y-108115000D01*
X157771310Y-108115000D01*
X158004699Y-108018327D01*
X158183327Y-107839698D01*
X158280000Y-107606309D01*
X158280000Y-107092750D01*
X158121250Y-106934000D01*
X157099000Y-106934000D01*
X156591000Y-106934000D01*
X156571000Y-106934000D01*
X156571000Y-106426000D01*
X156591000Y-106426000D01*
X156591000Y-106406000D01*
X157099000Y-106406000D01*
X157099000Y-106426000D01*
X158121250Y-106426000D01*
X158280000Y-106267250D01*
X158280000Y-105753691D01*
X158183327Y-105520302D01*
X158004699Y-105341673D01*
X157771310Y-105245000D01*
X157769396Y-105245000D01*
X158061534Y-104952862D01*
X158280000Y-104425439D01*
X158280000Y-103854561D01*
X158061534Y-103327138D01*
X157731396Y-102997000D01*
X159893000Y-102997000D01*
X159893000Y-104267000D01*
X159792643Y-104267000D01*
X159372542Y-104441011D01*
X159051011Y-104762542D01*
X158877000Y-105182643D01*
X158877000Y-105637357D01*
X159051011Y-106057458D01*
X159372542Y-106378989D01*
X159792643Y-106553000D01*
X159893000Y-106553000D01*
X159893000Y-109220000D01*
X159902667Y-109268601D01*
X159930197Y-109309803D01*
X159971399Y-109337333D01*
X160020000Y-109347000D01*
X167005000Y-109347000D01*
X167053601Y-109337333D01*
X167094803Y-109309803D01*
X168010916Y-108393690D01*
X178355000Y-108393690D01*
X178355000Y-108934250D01*
X178513750Y-109093000D01*
X179563000Y-109093000D01*
X179563000Y-108043750D01*
X179404250Y-107885000D01*
X178863691Y-107885000D01*
X178630302Y-107981673D01*
X178451673Y-108160301D01*
X178355000Y-108393690D01*
X168010916Y-108393690D01*
X169597606Y-106807000D01*
X175819238Y-106807000D01*
X175940094Y-106927856D01*
X176322853Y-107086400D01*
X176737147Y-107086400D01*
X177119906Y-106927856D01*
X177240762Y-106807000D01*
X178663600Y-106807000D01*
X178663600Y-106887147D01*
X178822144Y-107269906D01*
X179115094Y-107562856D01*
X179497853Y-107721400D01*
X179912147Y-107721400D01*
X180294906Y-107562856D01*
X180568600Y-107289162D01*
X180568600Y-107522147D01*
X180727144Y-107904906D01*
X180922132Y-108099894D01*
X180895025Y-108127000D01*
X180749698Y-107981673D01*
X180516309Y-107885000D01*
X179975750Y-107885000D01*
X179817000Y-108043750D01*
X179817000Y-109093000D01*
X179837000Y-109093000D01*
X179837000Y-109347000D01*
X179817000Y-109347000D01*
X179817000Y-110396250D01*
X179975750Y-110555000D01*
X180516309Y-110555000D01*
X180749698Y-110458327D01*
X180895025Y-110313000D01*
X180933783Y-110351758D01*
X181424452Y-110555000D01*
X181955548Y-110555000D01*
X182446217Y-110351758D01*
X182690000Y-110107975D01*
X182933783Y-110351758D01*
X183424452Y-110555000D01*
X183955548Y-110555000D01*
X184446217Y-110351758D01*
X184690000Y-110107975D01*
X184933783Y-110351758D01*
X185424452Y-110555000D01*
X185955548Y-110555000D01*
X186446217Y-110351758D01*
X186690000Y-110107975D01*
X186933783Y-110351758D01*
X187424452Y-110555000D01*
X187955548Y-110555000D01*
X188446217Y-110351758D01*
X188690000Y-110107975D01*
X188933783Y-110351758D01*
X189424452Y-110555000D01*
X189955548Y-110555000D01*
X190446217Y-110351758D01*
X190690000Y-110107975D01*
X190933783Y-110351758D01*
X191424452Y-110555000D01*
X191955548Y-110555000D01*
X192446217Y-110351758D01*
X192690000Y-110107975D01*
X192933783Y-110351758D01*
X193424452Y-110555000D01*
X193955548Y-110555000D01*
X194446217Y-110351758D01*
X194821758Y-109976217D01*
X195025000Y-109485548D01*
X195025000Y-108954452D01*
X194845044Y-108520000D01*
X199217560Y-108520000D01*
X199217560Y-109920000D01*
X199266843Y-110167765D01*
X199407191Y-110377809D01*
X199617235Y-110518157D01*
X199865000Y-110567440D01*
X201265000Y-110567440D01*
X201512765Y-110518157D01*
X201722809Y-110377809D01*
X201767680Y-110310655D01*
X201808783Y-110351758D01*
X202299452Y-110555000D01*
X202830548Y-110555000D01*
X203321217Y-110351758D01*
X203565000Y-110107975D01*
X203808783Y-110351758D01*
X204299452Y-110555000D01*
X204830548Y-110555000D01*
X205321217Y-110351758D01*
X205696758Y-109976217D01*
X205900000Y-109485548D01*
X205900000Y-108954452D01*
X205696758Y-108463783D01*
X205321217Y-108088242D01*
X204830548Y-107885000D01*
X204299452Y-107885000D01*
X203808783Y-108088242D01*
X203565000Y-108332025D01*
X203321217Y-108088242D01*
X202830548Y-107885000D01*
X202299452Y-107885000D01*
X201808783Y-108088242D01*
X201767680Y-108129345D01*
X201722809Y-108062191D01*
X201512765Y-107921843D01*
X201265000Y-107872560D01*
X199865000Y-107872560D01*
X199617235Y-107921843D01*
X199407191Y-108062191D01*
X199266843Y-108272235D01*
X199217560Y-108520000D01*
X194845044Y-108520000D01*
X194821758Y-108463783D01*
X194446217Y-108088242D01*
X193955548Y-107885000D01*
X193424452Y-107885000D01*
X192933783Y-108088242D01*
X192690000Y-108332025D01*
X192446217Y-108088242D01*
X191955548Y-107885000D01*
X191424452Y-107885000D01*
X190933783Y-108088242D01*
X190690000Y-108332025D01*
X190446217Y-108088242D01*
X189955548Y-107885000D01*
X189424452Y-107885000D01*
X188933783Y-108088242D01*
X188690000Y-108332025D01*
X188446217Y-108088242D01*
X187955548Y-107885000D01*
X187424452Y-107885000D01*
X186933783Y-108088242D01*
X186690000Y-108332025D01*
X186446217Y-108088242D01*
X185955548Y-107885000D01*
X185424452Y-107885000D01*
X184933783Y-108088242D01*
X184690000Y-108332025D01*
X184446217Y-108088242D01*
X183955548Y-107885000D01*
X183424452Y-107885000D01*
X182933783Y-108088242D01*
X182690000Y-108332025D01*
X182446217Y-108088242D01*
X182349558Y-108048204D01*
X182492856Y-107904906D01*
X182651400Y-107522147D01*
X182651400Y-107107853D01*
X182526783Y-106807000D01*
X187884238Y-106807000D01*
X188005094Y-106927856D01*
X188387853Y-107086400D01*
X188802147Y-107086400D01*
X189184906Y-106927856D01*
X189305762Y-106807000D01*
X197485000Y-106807000D01*
X197533601Y-106797333D01*
X197574803Y-106769803D01*
X197602333Y-106728601D01*
X197612000Y-106680000D01*
X197612000Y-101092000D01*
X198998246Y-101092000D01*
X198882000Y-101372643D01*
X198882000Y-101827357D01*
X199050851Y-102235000D01*
X198882000Y-102642643D01*
X198882000Y-103097357D01*
X199050851Y-103505000D01*
X198882000Y-103912643D01*
X198882000Y-104367357D01*
X199056011Y-104787458D01*
X199377542Y-105108989D01*
X199797643Y-105283000D01*
X200252357Y-105283000D01*
X200672458Y-105108989D01*
X200993989Y-104787458D01*
X201168000Y-104367357D01*
X201168000Y-103912643D01*
X200999149Y-103505000D01*
X201168000Y-103097357D01*
X201168000Y-102642643D01*
X200999149Y-102235000D01*
X201168000Y-101827357D01*
X201168000Y-101805000D01*
X207567560Y-101805000D01*
X207567560Y-103205000D01*
X207616843Y-103452765D01*
X207757191Y-103662809D01*
X207824345Y-103707680D01*
X207783242Y-103748783D01*
X207580000Y-104239452D01*
X207580000Y-104770548D01*
X207783242Y-105261217D01*
X208158783Y-105636758D01*
X208649452Y-105840000D01*
X209180548Y-105840000D01*
X209671217Y-105636758D01*
X210046758Y-105261217D01*
X210250000Y-104770548D01*
X210250000Y-104239452D01*
X210046758Y-103748783D01*
X210005655Y-103707680D01*
X210072809Y-103662809D01*
X210213157Y-103452765D01*
X210262440Y-103205000D01*
X210262440Y-101805000D01*
X210213157Y-101557235D01*
X210072809Y-101347191D01*
X209862765Y-101206843D01*
X209615000Y-101157560D01*
X208215000Y-101157560D01*
X207967235Y-101206843D01*
X207757191Y-101347191D01*
X207616843Y-101557235D01*
X207567560Y-101805000D01*
X201168000Y-101805000D01*
X201168000Y-101372643D01*
X201051754Y-101092000D01*
X206375000Y-101092000D01*
X206423601Y-101082333D01*
X206464803Y-101054803D01*
X206492333Y-101013601D01*
X206502000Y-100965000D01*
X206502000Y-98832643D01*
X210947000Y-98832643D01*
X210947000Y-99287357D01*
X211121011Y-99707458D01*
X211442542Y-100028989D01*
X211862643Y-100203000D01*
X212317357Y-100203000D01*
X212737458Y-100028989D01*
X213058989Y-99707458D01*
X213233000Y-99287357D01*
X213233000Y-98832643D01*
X213058989Y-98412542D01*
X212737458Y-98091011D01*
X212317357Y-97917000D01*
X211862643Y-97917000D01*
X211442542Y-98091011D01*
X211121011Y-98412542D01*
X210947000Y-98832643D01*
X206502000Y-98832643D01*
X206502000Y-96927643D01*
X207137000Y-96927643D01*
X207137000Y-97382357D01*
X207311011Y-97802458D01*
X207632542Y-98123989D01*
X208052643Y-98298000D01*
X208507357Y-98298000D01*
X208927458Y-98123989D01*
X209248989Y-97802458D01*
X209423000Y-97382357D01*
X209423000Y-96927643D01*
X209248989Y-96507542D01*
X209021447Y-96280000D01*
X214552560Y-96280000D01*
X214552560Y-97680000D01*
X214601843Y-97927765D01*
X214742191Y-98137809D01*
X214952235Y-98278157D01*
X215200000Y-98327440D01*
X216600000Y-98327440D01*
X216847765Y-98278157D01*
X217057809Y-98137809D01*
X217198157Y-97927765D01*
X217247440Y-97680000D01*
X217247440Y-96280000D01*
X217198157Y-96032235D01*
X217057809Y-95822191D01*
X216990655Y-95777320D01*
X217031758Y-95736217D01*
X217235000Y-95245548D01*
X217235000Y-94714452D01*
X217031758Y-94223783D01*
X216787975Y-93980000D01*
X217031758Y-93736217D01*
X217235000Y-93245548D01*
X217235000Y-92714452D01*
X217031758Y-92223783D01*
X216787975Y-91980000D01*
X217031758Y-91736217D01*
X217235000Y-91245548D01*
X217235000Y-90714452D01*
X217031758Y-90223783D01*
X216656217Y-89848242D01*
X216165548Y-89645000D01*
X215634452Y-89645000D01*
X215143783Y-89848242D01*
X214768242Y-90223783D01*
X214565000Y-90714452D01*
X214565000Y-91245548D01*
X214768242Y-91736217D01*
X215012025Y-91980000D01*
X214768242Y-92223783D01*
X214565000Y-92714452D01*
X214565000Y-93245548D01*
X214768242Y-93736217D01*
X215012025Y-93980000D01*
X214768242Y-94223783D01*
X214565000Y-94714452D01*
X214565000Y-95245548D01*
X214768242Y-95736217D01*
X214809345Y-95777320D01*
X214742191Y-95822191D01*
X214601843Y-96032235D01*
X214552560Y-96280000D01*
X209021447Y-96280000D01*
X208927458Y-96186011D01*
X208507357Y-96012000D01*
X208052643Y-96012000D01*
X207632542Y-96186011D01*
X207311011Y-96507542D01*
X207137000Y-96927643D01*
X206502000Y-96927643D01*
X206502000Y-95827440D01*
X206940000Y-95827440D01*
X207187765Y-95778157D01*
X207397809Y-95637809D01*
X207538157Y-95427765D01*
X207587440Y-95180000D01*
X207587440Y-92780000D01*
X207538157Y-92532235D01*
X207397809Y-92322191D01*
X207187765Y-92181843D01*
X206940000Y-92132560D01*
X206502000Y-92132560D01*
X206502000Y-90577643D01*
X207137000Y-90577643D01*
X207137000Y-91032357D01*
X207311011Y-91452458D01*
X207632542Y-91773989D01*
X208052643Y-91948000D01*
X208507357Y-91948000D01*
X208927458Y-91773989D01*
X209248989Y-91452458D01*
X209423000Y-91032357D01*
X209423000Y-90577643D01*
X209248989Y-90157542D01*
X208927458Y-89836011D01*
X208507357Y-89662000D01*
X208052643Y-89662000D01*
X207632542Y-89836011D01*
X207311011Y-90157542D01*
X207137000Y-90577643D01*
X206502000Y-90577643D01*
X206502000Y-88672643D01*
X210947000Y-88672643D01*
X210947000Y-89127357D01*
X211121011Y-89547458D01*
X211442542Y-89868989D01*
X211862643Y-90043000D01*
X212317357Y-90043000D01*
X212737458Y-89868989D01*
X213058989Y-89547458D01*
X213233000Y-89127357D01*
X213233000Y-88672643D01*
X213058989Y-88252542D01*
X212737458Y-87931011D01*
X212317357Y-87757000D01*
X211862643Y-87757000D01*
X211442542Y-87931011D01*
X211121011Y-88252542D01*
X210947000Y-88672643D01*
X206502000Y-88672643D01*
X206502000Y-86487000D01*
X218948000Y-86487000D01*
X218948000Y-100265477D01*
G04 #@! TD*
D19*
X159385000Y-97155000D03*
X175895000Y-90805000D03*
X174625000Y-88265000D03*
X207010000Y-88900000D03*
X158750000Y-106680000D03*
X161925000Y-110490000D03*
X169545000Y-109220000D03*
X168275000Y-109220000D03*
X165735000Y-110490000D03*
X170815000Y-109220000D03*
X194945000Y-79375000D03*
X184785000Y-80645000D03*
X207010000Y-99060000D03*
X203835000Y-106045000D03*
X168910000Y-107950000D03*
X154940000Y-109855000D03*
X153670000Y-109855000D03*
X179070000Y-83820000D03*
X167005000Y-83820000D03*
X173355000Y-100965000D03*
X182880000Y-80645000D03*
X182880000Y-82550000D03*
X182880000Y-78105000D03*
X182880000Y-76200000D03*
X175895000Y-76200000D03*
X166370000Y-76200000D03*
X166370000Y-78105000D03*
X170815000Y-93345000D03*
X160020000Y-105410000D03*
X167005000Y-100965000D03*
X160020000Y-100965000D03*
X163830000Y-100965000D03*
X177800000Y-102235000D03*
X167005000Y-86995000D03*
X170815000Y-100330000D03*
X179705000Y-106680000D03*
X200025000Y-101600000D03*
X200025000Y-102870000D03*
X200025000Y-104140000D03*
X191770000Y-80645000D03*
X212090000Y-99060000D03*
X180975000Y-96520000D03*
X167640000Y-95885000D03*
X212090000Y-88900000D03*
X179705000Y-103505000D03*
X161544000Y-97536000D03*
X175895000Y-92075000D03*
X176530000Y-97155000D03*
X160655000Y-99695000D03*
X171450000Y-86995000D03*
X174625000Y-92075000D03*
X198755000Y-94615000D03*
X198755000Y-93345000D03*
X186055000Y-82550000D03*
X176530000Y-106045000D03*
X180340000Y-84455000D03*
X174625000Y-103505000D03*
X162560000Y-105410000D03*
X170180000Y-92075000D03*
X162560000Y-101600000D03*
X163830000Y-98425000D03*
X170180000Y-86995000D03*
X185420000Y-100330000D03*
X185420000Y-101600000D03*
X185420000Y-102870000D03*
X175895000Y-89535000D03*
X165100000Y-105410000D03*
X177800000Y-97155000D03*
X165100000Y-101600000D03*
X178435000Y-82550000D03*
X175895000Y-81915000D03*
X171450000Y-95250000D03*
X184150000Y-88900000D03*
X191770000Y-101600000D03*
X191770000Y-100330000D03*
X191770000Y-102870000D03*
X183515000Y-93980000D03*
X204470000Y-88900000D03*
X185420000Y-90805000D03*
X193675000Y-101600000D03*
X193675000Y-102870000D03*
X193675000Y-104140000D03*
X188595000Y-95885000D03*
X197485000Y-91440000D03*
X197485000Y-96520000D03*
X183515000Y-95250000D03*
X183515000Y-86995000D03*
X189865000Y-88900000D03*
X180086000Y-91821000D03*
X197485000Y-92710000D03*
X194945000Y-89535000D03*
X187960000Y-83820000D03*
X201930000Y-86995000D03*
X194945000Y-92075000D03*
X194945000Y-86995000D03*
X194945000Y-85090000D03*
X187960000Y-85725000D03*
X197485000Y-86995000D03*
X204470000Y-99060000D03*
X201930000Y-99060000D03*
X197485000Y-99060000D03*
X194945000Y-96520000D03*
X194945000Y-99060000D03*
X188595000Y-97155000D03*
X208280000Y-90805000D03*
X208280000Y-97155000D03*
X204470000Y-86995000D03*
X182245000Y-85725000D03*
X179070000Y-89535000D03*
X197485000Y-90170000D03*
X194945000Y-93345000D03*
X181610000Y-107315000D03*
X188595000Y-106045000D03*
X168910000Y-98425000D03*
X175260000Y-93345000D03*
X194945000Y-81280000D03*
X200660000Y-93980000D03*
X208915000Y-104505000D03*
X208915000Y-102505000D03*
X200565000Y-109220000D03*
X202565000Y-109220000D03*
X204565000Y-109220000D03*
X179690000Y-109220000D03*
X181690000Y-109220000D03*
X183690000Y-109220000D03*
X185690000Y-109220000D03*
X187690000Y-109220000D03*
X189690000Y-109220000D03*
X191690000Y-109220000D03*
X193690000Y-109220000D03*
X215900000Y-96980000D03*
X215900000Y-94980000D03*
X215900000Y-92980000D03*
X215900000Y-90980000D03*
X185420000Y-77470000D03*
X187960000Y-77470000D03*
X190500000Y-77470000D03*
X193040000Y-77470000D03*
X156845000Y-106680000D03*
X154305000Y-106680000D03*
X156845000Y-104140000D03*
X154305000Y-104140000D03*
X156845000Y-101600000D03*
X154305000Y-101600000D03*
X156845000Y-99060000D03*
X154305000Y-99060000D03*
X156845000Y-96520000D03*
X154305000Y-96520000D03*
X156845000Y-93980000D03*
X154305000Y-93980000D03*
X156845000Y-91440000D03*
X154305000Y-91440000D03*
X156845000Y-88900000D03*
X154305000Y-88900000D03*
X205740000Y-93980000D03*
X217805000Y-101600000D03*
X215265000Y-101600000D03*
M02*
