G04 #@! TF.GenerationSoftware,KiCad,Pcbnew,5.0.0-fee4fd1~65~ubuntu17.10.1*
G04 #@! TF.CreationDate,2018-09-19T01:19:52-04:00*
G04 #@! TF.ProjectId,daughterboard,6461756768746572626F6172642E6B69,rev?*
G04 #@! TF.SameCoordinates,Original*
G04 #@! TF.FileFunction,Soldermask,Top*
G04 #@! TF.FilePolarity,Negative*
%FSLAX46Y46*%
G04 Gerber Fmt 4.6, Leading zero omitted, Abs format (unit mm)*
G04 Created by KiCad (PCBNEW 5.0.0-fee4fd1~65~ubuntu17.10.1) date Wed Sep 19 01:19:52 2018*
%MOMM*%
%LPD*%
G01*
G04 APERTURE LIST*
%ADD10R,0.960000X0.560000*%
%ADD11R,1.619200X2.635200*%
%ADD12R,4.000000X2.600000*%
%ADD13C,1.800000*%
%ADD14R,1.800000X1.800000*%
%ADD15C,1.670000*%
%ADD16R,1.600000X3.900000*%
%ADD17R,5.480000X2.940000*%
%ADD18R,13.100000X2.940000*%
%ADD19R,2.000000X2.000000*%
%ADD20C,2.000000*%
%ADD21R,1.400000X1.500000*%
%ADD22R,1.500000X1.400000*%
%ADD23R,1.900000X1.700000*%
%ADD24R,1.700000X1.900000*%
%ADD25R,1.360000X0.810000*%
%ADD26R,1.660000X0.390000*%
%ADD27R,0.390000X1.660000*%
%ADD28R,2.900000X2.900000*%
%ADD29R,0.410000X1.560000*%
%ADD30R,1.560000X0.410000*%
G04 APERTURE END LIST*
D10*
G04 #@! TO.C,U2*
X192970000Y-79995000D03*
X192970000Y-81295000D03*
X190570000Y-81295000D03*
X190570000Y-80645000D03*
X190570000Y-79995000D03*
G04 #@! TD*
D11*
G04 #@! TO.C,Q1*
X175031400Y-106121200D03*
X172720000Y-106121200D03*
X170408600Y-106121200D03*
D12*
X172720000Y-112319000D03*
G04 #@! TD*
D13*
G04 #@! TO.C,J7*
X208915000Y-104505000D03*
D14*
X208915000Y-102505000D03*
G04 #@! TD*
D15*
G04 #@! TO.C,TP1*
X179705000Y-98425000D03*
G04 #@! TD*
G04 #@! TO.C,TP2*
X181610000Y-98425000D03*
G04 #@! TD*
G04 #@! TO.C,TP3*
X173990000Y-80645000D03*
G04 #@! TD*
G04 #@! TO.C,TP4*
X172085000Y-80645000D03*
G04 #@! TD*
G04 #@! TO.C,TP5*
X183515000Y-98425000D03*
G04 #@! TD*
G04 #@! TO.C,TP6*
X175895000Y-99060000D03*
G04 #@! TD*
G04 #@! TO.C,TP7*
X170180000Y-80645000D03*
G04 #@! TD*
G04 #@! TO.C,TP8*
X168275000Y-80645000D03*
G04 #@! TD*
G04 #@! TO.C,TP9*
X189230000Y-87630000D03*
G04 #@! TD*
G04 #@! TO.C,TP10*
X189230000Y-93980000D03*
G04 #@! TD*
D16*
G04 #@! TO.C,Y1*
X161925000Y-93130000D03*
X161925000Y-87630000D03*
G04 #@! TD*
D17*
G04 #@! TO.C,H2*
X215265000Y-113030000D03*
G04 #@! TD*
D18*
G04 #@! TO.C,H1*
X160655000Y-113030000D03*
G04 #@! TD*
D14*
G04 #@! TO.C,J1*
X200565000Y-109220000D03*
D13*
X202565000Y-109220000D03*
X204565000Y-109220000D03*
G04 #@! TD*
D14*
G04 #@! TO.C,J2*
X179690000Y-109220000D03*
D13*
X181690000Y-109220000D03*
X183690000Y-109220000D03*
X185690000Y-109220000D03*
X187690000Y-109220000D03*
X189690000Y-109220000D03*
X191690000Y-109220000D03*
X193690000Y-109220000D03*
G04 #@! TD*
D14*
G04 #@! TO.C,J3*
X215900000Y-96980000D03*
D13*
X215900000Y-94980000D03*
X215900000Y-92980000D03*
X215900000Y-90980000D03*
G04 #@! TD*
D19*
G04 #@! TO.C,J5*
X185420000Y-77470000D03*
D20*
X187960000Y-77470000D03*
X190500000Y-77470000D03*
X193040000Y-77470000D03*
G04 #@! TD*
D19*
G04 #@! TO.C,J4*
X156845000Y-106680000D03*
D20*
X154305000Y-106680000D03*
X156845000Y-104140000D03*
X154305000Y-104140000D03*
X156845000Y-101600000D03*
X154305000Y-101600000D03*
X156845000Y-99060000D03*
X154305000Y-99060000D03*
X156845000Y-96520000D03*
X154305000Y-96520000D03*
X156845000Y-93980000D03*
X154305000Y-93980000D03*
X156845000Y-91440000D03*
X154305000Y-91440000D03*
X156845000Y-88900000D03*
X154305000Y-88900000D03*
G04 #@! TD*
D21*
G04 #@! TO.C,R1*
X187325000Y-104560000D03*
X187325000Y-106260000D03*
G04 #@! TD*
G04 #@! TO.C,C1*
X177800000Y-77255000D03*
X177800000Y-78955000D03*
G04 #@! TD*
G04 #@! TO.C,C2*
X175895000Y-80225000D03*
X175895000Y-78525000D03*
G04 #@! TD*
G04 #@! TO.C,C3*
X170815000Y-98640000D03*
X170815000Y-96940000D03*
G04 #@! TD*
G04 #@! TO.C,C4*
X177800000Y-100545000D03*
X177800000Y-98845000D03*
G04 #@! TD*
G04 #@! TO.C,C5*
X168275000Y-92495000D03*
X168275000Y-94195000D03*
G04 #@! TD*
D22*
G04 #@! TO.C,C6*
X178855000Y-81280000D03*
X180555000Y-81280000D03*
G04 #@! TD*
D21*
G04 #@! TO.C,C7*
X168275000Y-87210000D03*
X168275000Y-85510000D03*
G04 #@! TD*
D22*
G04 #@! TO.C,C8*
X186905000Y-93980000D03*
X185205000Y-93980000D03*
G04 #@! TD*
G04 #@! TO.C,C9*
X188810000Y-90805000D03*
X187110000Y-90805000D03*
G04 #@! TD*
G04 #@! TO.C,C10*
X185840000Y-88900000D03*
X187540000Y-88900000D03*
G04 #@! TD*
D23*
G04 #@! TO.C,C11*
X173355000Y-97475000D03*
X173355000Y-99375000D03*
G04 #@! TD*
D21*
G04 #@! TO.C,C12*
X165735000Y-93130000D03*
X165735000Y-94830000D03*
G04 #@! TD*
G04 #@! TO.C,C13*
X165735000Y-87210000D03*
X165735000Y-85510000D03*
G04 #@! TD*
D23*
G04 #@! TO.C,C14*
X180340000Y-77155000D03*
X180340000Y-79055000D03*
G04 #@! TD*
G04 #@! TO.C,C15*
X185420000Y-84140000D03*
X185420000Y-86040000D03*
G04 #@! TD*
D24*
G04 #@! TO.C,C16*
X185105000Y-96520000D03*
X187005000Y-96520000D03*
G04 #@! TD*
D21*
G04 #@! TO.C,C17*
X193040000Y-89955000D03*
X193040000Y-91655000D03*
G04 #@! TD*
G04 #@! TO.C,C18*
X193040000Y-85305000D03*
X193040000Y-83605000D03*
G04 #@! TD*
G04 #@! TO.C,C19*
X193040000Y-96305000D03*
X193040000Y-98005000D03*
G04 #@! TD*
D24*
G04 #@! TO.C,C20*
X193355000Y-87630000D03*
X191455000Y-87630000D03*
G04 #@! TD*
G04 #@! TO.C,C21*
X199075000Y-96520000D03*
X200975000Y-96520000D03*
G04 #@! TD*
G04 #@! TO.C,C22*
X200975000Y-91440000D03*
X199075000Y-91440000D03*
G04 #@! TD*
G04 #@! TO.C,C23*
X191455000Y-93980000D03*
X193355000Y-93980000D03*
G04 #@! TD*
G04 #@! TO.C,C24*
X165420000Y-103505000D03*
X167320000Y-103505000D03*
G04 #@! TD*
G04 #@! TO.C,C25*
X160340000Y-103505000D03*
X162240000Y-103505000D03*
G04 #@! TD*
D22*
G04 #@! TO.C,C26*
X202780000Y-88900000D03*
X201080000Y-88900000D03*
G04 #@! TD*
G04 #@! TO.C,C27*
X183300000Y-106045000D03*
X185000000Y-106045000D03*
G04 #@! TD*
G04 #@! TO.C,R2*
X170600000Y-102870000D03*
X172300000Y-102870000D03*
G04 #@! TD*
G04 #@! TO.C,R3*
X197905000Y-106045000D03*
X199605000Y-106045000D03*
G04 #@! TD*
G04 #@! TO.C,R4*
X183095000Y-84455000D03*
X181395000Y-84455000D03*
G04 #@! TD*
D21*
G04 #@! TO.C,R5*
X165735000Y-91020000D03*
X165735000Y-89320000D03*
G04 #@! TD*
D22*
G04 #@! TO.C,R6*
X165520000Y-98425000D03*
X167220000Y-98425000D03*
G04 #@! TD*
D21*
G04 #@! TO.C,R7*
X203835000Y-102655000D03*
X203835000Y-104355000D03*
G04 #@! TD*
G04 #@! TO.C,R8*
X191135000Y-91655000D03*
X191135000Y-89955000D03*
G04 #@! TD*
G04 #@! TO.C,R9*
X191135000Y-83605000D03*
X191135000Y-85305000D03*
G04 #@! TD*
G04 #@! TO.C,R10*
X191135000Y-96305000D03*
X191135000Y-98005000D03*
G04 #@! TD*
D22*
G04 #@! TO.C,R11*
X186475000Y-80645000D03*
X188175000Y-80645000D03*
G04 #@! TD*
D21*
G04 #@! TO.C,R12*
X181610000Y-100115000D03*
X181610000Y-101815000D03*
G04 #@! TD*
G04 #@! TO.C,R13*
X172085000Y-76620000D03*
X172085000Y-78320000D03*
G04 #@! TD*
G04 #@! TO.C,R14*
X175895000Y-100750000D03*
X175895000Y-102450000D03*
G04 #@! TD*
G04 #@! TO.C,R15*
X168275000Y-76620000D03*
X168275000Y-78320000D03*
G04 #@! TD*
G04 #@! TO.C,R16*
X179705000Y-101815000D03*
X179705000Y-100115000D03*
G04 #@! TD*
G04 #@! TO.C,R17*
X173990000Y-76620000D03*
X173990000Y-78320000D03*
G04 #@! TD*
G04 #@! TO.C,R18*
X183515000Y-101815000D03*
X183515000Y-100115000D03*
G04 #@! TD*
G04 #@! TO.C,R19*
X170180000Y-78320000D03*
X170180000Y-76620000D03*
G04 #@! TD*
D25*
G04 #@! TO.C,U3*
X165230000Y-107000000D03*
X165230000Y-107950000D03*
X165230000Y-108900000D03*
X162430000Y-108900000D03*
X162430000Y-107950000D03*
X162430000Y-107000000D03*
G04 #@! TD*
D26*
G04 #@! TO.C,U4*
X203440000Y-93980000D03*
X203440000Y-94480000D03*
X203440000Y-94980000D03*
X203440000Y-93480000D03*
X203440000Y-92980000D03*
D27*
X205740000Y-91680000D03*
X205240000Y-91680000D03*
X204740000Y-91680000D03*
X206240000Y-91680000D03*
X206740000Y-91680000D03*
D26*
X208040000Y-93980000D03*
X208040000Y-94480000D03*
X208040000Y-94980000D03*
X208040000Y-93480000D03*
X208040000Y-92980000D03*
D27*
X205740000Y-96280000D03*
X206240000Y-96280000D03*
X206740000Y-96280000D03*
X205240000Y-96280000D03*
X204740000Y-96280000D03*
D28*
X205740000Y-93980000D03*
G04 #@! TD*
D25*
G04 #@! TO.C,U5*
X178305000Y-103825000D03*
X178305000Y-104775000D03*
X178305000Y-105725000D03*
X181105000Y-105725000D03*
X181105000Y-104775000D03*
X181105000Y-103825000D03*
G04 #@! TD*
D29*
G04 #@! TO.C,U1*
X179915000Y-86405000D03*
X179415000Y-86405000D03*
X178915000Y-86405000D03*
X178415000Y-86405000D03*
X177915000Y-86405000D03*
X177415000Y-86405000D03*
X176915000Y-86405000D03*
X176415000Y-86405000D03*
X175915000Y-86405000D03*
X175415000Y-86405000D03*
X174915000Y-86405000D03*
X174415000Y-86405000D03*
D30*
X172765000Y-88055000D03*
X172765000Y-88555000D03*
X172765000Y-89055000D03*
X172765000Y-89555000D03*
X172765000Y-90055000D03*
X172765000Y-90555000D03*
X172765000Y-91055000D03*
X172765000Y-91555000D03*
X172765000Y-92055000D03*
X172765000Y-92555000D03*
X172765000Y-93055000D03*
X172765000Y-93555000D03*
D29*
X174415000Y-95205000D03*
X174915000Y-95205000D03*
X175415000Y-95205000D03*
X175915000Y-95205000D03*
X176415000Y-95205000D03*
D30*
X181565000Y-91555000D03*
D29*
X177415000Y-95205000D03*
X177915000Y-95205000D03*
X176915000Y-95205000D03*
X178415000Y-95205000D03*
X178915000Y-95205000D03*
X179415000Y-95205000D03*
X179915000Y-95205000D03*
D30*
X181565000Y-93555000D03*
X181565000Y-93055000D03*
X181565000Y-92555000D03*
X181565000Y-92055000D03*
X181565000Y-91055000D03*
X181565000Y-90555000D03*
X181565000Y-90055000D03*
X181565000Y-89555000D03*
X181565000Y-89055000D03*
X181565000Y-88555000D03*
X181565000Y-88055000D03*
G04 #@! TD*
D24*
G04 #@! TO.C,C28*
X157165000Y-109855000D03*
X159065000Y-109855000D03*
G04 #@! TD*
D22*
G04 #@! TO.C,C29*
X208700000Y-99060000D03*
X210400000Y-99060000D03*
G04 #@! TD*
G04 #@! TO.C,C30*
X210400000Y-88900000D03*
X208700000Y-88900000D03*
G04 #@! TD*
D24*
G04 #@! TO.C,L1*
X189545000Y-101600000D03*
X187645000Y-101600000D03*
G04 #@! TD*
G04 #@! TO.C,L2*
X197800000Y-102870000D03*
X195900000Y-102870000D03*
G04 #@! TD*
D19*
G04 #@! TO.C,J6*
X217805000Y-101600000D03*
D20*
X215265000Y-101600000D03*
G04 #@! TD*
D22*
G04 #@! TO.C,L3*
X211240000Y-95250000D03*
X212940000Y-95250000D03*
G04 #@! TD*
G04 #@! TO.C,L4*
X212940000Y-97155000D03*
X211240000Y-97155000D03*
G04 #@! TD*
G04 #@! TO.C,L5*
X211240000Y-90805000D03*
X212940000Y-90805000D03*
G04 #@! TD*
G04 #@! TO.C,L6*
X212940000Y-92710000D03*
X211240000Y-92710000D03*
G04 #@! TD*
M02*
