M48
INCH,TZ
T1C0.0160
T2C0.0200
T3C0.0315
T4C0.0394
%
G90
G05
T1
X62750Y-38250
X63250Y-39250
X63600Y-38400
X66500Y-38750
X67500Y-34250
X68750Y-34750
X68750Y-36250
X68750Y-40750
X69000Y-36750
X69250Y-35750
X69250Y-36250
X69500Y-38250
X69500Y-41750
X70500Y-35250
X70750Y-40750
X70750Y-42000
X71000Y-33250
X71500Y-42250
X71750Y-33750
X73250Y-32500
X74250Y-41750
X76750Y-32000
X76750Y-36750
X77750Y-35500
X78250Y-36750
X78250Y-37250
X79000Y-37000
T2
X60500Y-43250
X61000Y-43250
X62500Y-42000
X63000Y-39750
X63000Y-41500
X63750Y-43500
X64000Y-40000
X64000Y-41500
X64500Y-38750
X64500Y-39750
X65000Y-40000
X65000Y-41500
X65250Y-43500
X65500Y-30000
X65500Y-30750
X65750Y-33000
X65750Y-34250
X65750Y-39750
X66000Y-37750
X66250Y-43000
X66500Y-42500
X66750Y-43000
X67000Y-34250
X67000Y-36250
X67250Y-36750
X67250Y-39500
X67250Y-43000
X67500Y-37500
X68250Y-39750
X69250Y-30000
X69250Y-32250
X69250Y-35250
X70000Y-38250
X70000Y-40250
X70250Y-32500
X70500Y-33000
X70900Y-36150
X71250Y-38000
X72000Y-30000
X72000Y-30750
X72000Y-31750
X72000Y-32500
X72250Y-34250
X72250Y-37000
X72250Y-37500
X72500Y-35000
X72750Y-31750
X73000Y-35750
X73000Y-39500
X73000Y-40000
X73000Y-40500
X74000Y-33000
X74000Y-33750
X74250Y-37750
X74250Y-38250
X74750Y-35000
X75500Y-31750
X75500Y-39500
X75500Y-40000
X75500Y-40500
X76250Y-40000
X76250Y-40500
X76250Y-41000
X76750Y-31250
X76750Y-33500
X76750Y-34250
X76750Y-35250
X76750Y-36250
X76750Y-38000
X76750Y-39000
X77750Y-34250
X77750Y-36000
X77750Y-36500
X77750Y-38000
X77750Y-39000
X78750Y-40000
X78750Y-40500
X78750Y-41000
X79500Y-34250
X79500Y-39000
X80250Y-41750
X80500Y-34250
X80500Y-35000
X80500Y-39000
X81500Y-35000
X81500Y-39000
X82000Y-35750
X82000Y-38250
X83500Y-35000
X83500Y-39000
T3
X78963Y-43000
X79750Y-43000
X80537Y-43000
X85000Y-35819
X85000Y-36606
X85000Y-37394
X85000Y-38181
X70744Y-43000
X71531Y-43000
X72319Y-43000
X73106Y-43000
X73894Y-43000
X74681Y-43000
X75469Y-43000
X76256Y-43000
X82250Y-40356
X82250Y-41144
T4
X60750Y-35000
X60750Y-36000
X60750Y-37000
X60750Y-38000
X60750Y-39000
X60750Y-40000
X60750Y-41000
X60750Y-42000
X61750Y-35000
X61750Y-36000
X61750Y-37000
X61750Y-38000
X61750Y-39000
X61750Y-40000
X61750Y-41000
X61750Y-42000
X84750Y-40000
X85750Y-40000
X73000Y-30500
X74000Y-30500
X75000Y-30500
X76000Y-30500
X81000Y-37000
T0
M30
