G04 #@! TF.FileFunction,Soldermask,Top*
%FSLAX46Y46*%
G04 Gerber Fmt 4.6, Leading zero omitted, Abs format (unit mm)*
G04 Created by KiCad (PCBNEW (2016-05-03 BZR 6266)-product) date Fri Jul 22 02:33:22 2016*
%MOMM*%
%LPD*%
G01*
G04 APERTURE LIST*
%ADD10C,0.350000*%
%ADD11C,0.150000*%
%ADD12C,0.050000*%
%ADD13R,1.400000X1.900000*%
%ADD14C,5.480000*%
%ADD15R,1.400000X1.500000*%
%ADD16R,1.500000X1.400000*%
%ADD17R,1.900000X1.400000*%
%ADD18O,3.575000X1.670000*%
%ADD19R,1.900000X1.700000*%
%ADD20R,1.600000X1.050000*%
%ADD21R,1.700000X1.900000*%
%ADD22R,1.300000X1.200000*%
%ADD23R,1.000000X2.600000*%
%ADD24R,0.800000X3.400000*%
%ADD25O,1.670000X3.575000*%
%ADD26R,2.000000X2.200000*%
%ADD27R,2.600000X1.000000*%
%ADD28R,13.100000X2.940000*%
%ADD29R,5.900000X3.900000*%
%ADD30R,2.432000X2.584400*%
%ADD31R,2.800000X2.800000*%
%ADD32C,1.670000*%
%ADD33R,4.210000X2.940000*%
%ADD34R,2.100000X0.750000*%
G04 APERTURE END LIST*
D10*
D11*
X177800000Y-71755000D02*
G75*
G03X180340000Y-71755000I1270000J0D01*
G01*
X180340000Y-65405000D02*
X180340000Y-71755000D01*
X180340000Y-78105000D02*
X180340000Y-84455000D01*
X173355000Y-65405000D02*
X177800000Y-65405000D01*
X103505000Y-65405000D02*
X92075000Y-65405000D01*
X141605000Y-65405000D02*
X167005000Y-65405000D01*
X109855000Y-65405000D02*
X135255000Y-65405000D01*
X100330000Y-84455000D02*
X92075000Y-84455000D01*
X138430000Y-84455000D02*
X106680000Y-84455000D01*
X169545000Y-84455000D02*
X144780000Y-84455000D01*
X177800000Y-84455000D02*
X175895000Y-84455000D01*
X177800000Y-78105000D02*
X177800000Y-84455000D01*
X177800000Y-65405000D02*
X177800000Y-71755000D01*
X180340000Y-78105000D02*
G75*
G03X177800000Y-78105000I-1270000J0D01*
G01*
X151130000Y-107315000D02*
X142875000Y-107315000D01*
X155575000Y-51435000D02*
X155575000Y-53975000D01*
X153035000Y-51435000D02*
X153035000Y-53975000D01*
X135255000Y-62865000D02*
X123825000Y-62865000D01*
X153035000Y-62865000D02*
X141605000Y-62865000D01*
X153035000Y-60325000D02*
X153035000Y-62865000D01*
X155575000Y-62865000D02*
X155575000Y-60325000D01*
X167005000Y-62865000D02*
X155575000Y-62865000D01*
X184785000Y-62865000D02*
X173355000Y-62865000D01*
X123825000Y-53975000D02*
X123825000Y-51435000D01*
X121285000Y-53975000D02*
X121285000Y-51435000D01*
X123825000Y-60325000D02*
X123825000Y-62865000D01*
X121285000Y-62865000D02*
X121285000Y-60325000D01*
X109855000Y-62865000D02*
X121285000Y-62865000D01*
X92075000Y-62865000D02*
X103505000Y-62865000D01*
X123825000Y-60325000D02*
G75*
G03X121285000Y-60325000I-1270000J0D01*
G01*
X121285000Y-53975000D02*
G75*
G03X123825000Y-53975000I1270000J0D01*
G01*
X153035000Y-53975000D02*
G75*
G03X155575000Y-53975000I1270000J0D01*
G01*
X155575000Y-60325000D02*
G75*
G03X153035000Y-60325000I-1270000J0D01*
G01*
X173355000Y-62865000D02*
G75*
G03X173355000Y-65405000I0J-1270000D01*
G01*
X167005000Y-65405000D02*
G75*
G03X167005000Y-62865000I0J1270000D01*
G01*
X141605000Y-62865000D02*
G75*
G03X141605000Y-65405000I0J-1270000D01*
G01*
X135255000Y-65405000D02*
G75*
G03X135255000Y-62865000I0J1270000D01*
G01*
X109855000Y-62865000D02*
G75*
G03X109855000Y-65405000I0J-1270000D01*
G01*
X103505000Y-65405000D02*
G75*
G03X103505000Y-62865000I0J1270000D01*
G01*
X100330000Y-86995000D02*
G75*
G03X100330000Y-84455000I0J1270000D01*
G01*
X106680000Y-84455000D02*
G75*
G03X106680000Y-86995000I0J-1270000D01*
G01*
X138430000Y-86995000D02*
G75*
G03X138430000Y-84455000I0J1270000D01*
G01*
X144780000Y-84455000D02*
G75*
G03X144780000Y-86995000I0J-1270000D01*
G01*
X169545000Y-86995000D02*
G75*
G03X169545000Y-84455000I0J1270000D01*
G01*
X175895000Y-84455000D02*
G75*
G03X175895000Y-86995000I0J-1270000D01*
G01*
X175895000Y-86995000D02*
X191135000Y-86995000D01*
X144780000Y-86995000D02*
X169545000Y-86995000D01*
X106680000Y-86995000D02*
X138430000Y-86995000D01*
X92075000Y-86995000D02*
X100330000Y-86995000D01*
X100330000Y-107315000D02*
X92075000Y-107315000D01*
X114935000Y-107315000D02*
X106680000Y-107315000D01*
X125730000Y-107315000D02*
X117475000Y-107315000D01*
X140335000Y-107315000D02*
X132080000Y-107315000D01*
X165735000Y-107315000D02*
X157480000Y-107315000D01*
X100330000Y-104775000D02*
X92075000Y-104775000D01*
X125730000Y-104775000D02*
X106680000Y-104775000D01*
X151130000Y-104775000D02*
X132080000Y-104775000D01*
X176530000Y-104775000D02*
X157480000Y-104775000D01*
X176530000Y-107315000D02*
X168275000Y-107315000D01*
X182880000Y-107315000D02*
X191135000Y-107315000D01*
X191135000Y-104775000D02*
X182880000Y-104775000D01*
X182880000Y-104775000D02*
G75*
G03X182880000Y-107315000I0J-1270000D01*
G01*
X176530000Y-107315000D02*
G75*
G03X176530000Y-104775000I0J1270000D01*
G01*
X157480000Y-104775000D02*
G75*
G03X157480000Y-107315000I0J-1270000D01*
G01*
X151130000Y-107315000D02*
G75*
G03X151130000Y-104775000I0J1270000D01*
G01*
X132080000Y-104775000D02*
G75*
G03X132080000Y-107315000I0J-1270000D01*
G01*
X125730000Y-107315000D02*
G75*
G03X125730000Y-104775000I0J1270000D01*
G01*
X100330000Y-107315000D02*
G75*
G03X100330000Y-104775000I0J1270000D01*
G01*
X106680000Y-104775000D02*
G75*
G03X106680000Y-107315000I0J-1270000D01*
G01*
X140335000Y-123825000D02*
G75*
G03X142875000Y-123825000I1270000J0D01*
G01*
X165735000Y-123825000D02*
G75*
G03X168275000Y-123825000I1270000J0D01*
G01*
X168275000Y-130175000D02*
G75*
G03X165735000Y-130175000I-1270000J0D01*
G01*
X142875000Y-130175000D02*
G75*
G03X140335000Y-130175000I-1270000J0D01*
G01*
X117475000Y-130175000D02*
G75*
G03X114935000Y-130175000I-1270000J0D01*
G01*
X114935000Y-123825000D02*
G75*
G03X117475000Y-123825000I1270000J0D01*
G01*
X140335000Y-107315000D02*
X140335000Y-123825000D01*
X142875000Y-123825000D02*
X142875000Y-107315000D01*
X165735000Y-107315000D02*
X165735000Y-123825000D01*
X168275000Y-123825000D02*
X168275000Y-107315000D01*
X168275000Y-130175000D02*
X168275000Y-140335000D01*
X165735000Y-140335000D02*
X165735000Y-130175000D01*
X142875000Y-140335000D02*
X142875000Y-130175000D01*
X140335000Y-130175000D02*
X140335000Y-140335000D01*
X117475000Y-107315000D02*
X117475000Y-123825000D01*
X114935000Y-123825000D02*
X114935000Y-107315000D01*
X117475000Y-130175000D02*
X117475000Y-140335000D01*
X114935000Y-140335000D02*
X114935000Y-130175000D01*
X184785000Y-62865000D02*
X184785000Y-51435000D01*
X184785000Y-51435000D02*
X155575000Y-51435000D01*
X121285000Y-51435000D02*
X92075000Y-51435000D01*
X92075000Y-51435000D02*
X92075000Y-62865000D01*
X142875000Y-140335000D02*
X149225000Y-146685000D01*
X165735000Y-140335000D02*
X159385000Y-146685000D01*
X159385000Y-146685000D02*
X149225000Y-146685000D01*
X191135000Y-107315000D02*
X191135000Y-140335000D01*
X184785000Y-146685000D02*
X174625000Y-146685000D01*
X191135000Y-140335000D02*
X184785000Y-146685000D01*
X168275000Y-140335000D02*
X174625000Y-146685000D01*
X117475000Y-140335000D02*
X123825000Y-146685000D01*
X140335000Y-140335000D02*
X133985000Y-146685000D01*
X133985000Y-146685000D02*
X123825000Y-146685000D01*
X92075000Y-86995000D02*
X92075000Y-104775000D01*
X191135000Y-104775000D02*
X191135000Y-86995000D01*
X92075000Y-140335000D02*
X92075000Y-107315000D01*
X108585000Y-146685000D02*
X98425000Y-146685000D01*
X114935000Y-140335000D02*
X108585000Y-146685000D01*
X92075000Y-140335000D02*
X98425000Y-146685000D01*
X153035000Y-51435000D02*
X123825000Y-51435000D01*
X92075000Y-84455000D02*
X92075000Y-65405000D01*
X190500000Y-65405000D02*
X180340000Y-65405000D01*
X190500000Y-84455000D02*
X190500000Y-65405000D01*
X180340000Y-84455000D02*
X190500000Y-84455000D01*
D12*
G36*
X186256040Y-95359621D02*
X186252773Y-95422702D01*
X186240688Y-95477055D01*
X186235484Y-95490139D01*
X186197676Y-95550455D01*
X186139798Y-95610196D01*
X186062948Y-95668658D01*
X185974707Y-95721271D01*
X185974707Y-95337752D01*
X185948708Y-95323350D01*
X185914655Y-95312208D01*
X185862853Y-95305530D01*
X185796223Y-95303220D01*
X185717683Y-95305180D01*
X185630154Y-95311313D01*
X185536556Y-95321522D01*
X185439810Y-95335709D01*
X185406770Y-95341412D01*
X185362671Y-95349635D01*
X185335400Y-95356305D01*
X185320918Y-95363422D01*
X185315186Y-95372984D01*
X185314166Y-95386990D01*
X185314166Y-95387255D01*
X185312226Y-95405082D01*
X185305044Y-95423222D01*
X185290574Y-95443999D01*
X185266773Y-95469734D01*
X185231597Y-95502749D01*
X185183001Y-95545366D01*
X185150518Y-95573140D01*
X185108160Y-95609364D01*
X185072180Y-95640514D01*
X185045365Y-95664149D01*
X185030499Y-95677825D01*
X185028416Y-95680185D01*
X185034593Y-95681244D01*
X185054143Y-95678377D01*
X185088596Y-95671254D01*
X185139483Y-95659545D01*
X185208333Y-95642918D01*
X185261250Y-95629862D01*
X185388293Y-95596206D01*
X185508688Y-95560158D01*
X185620127Y-95522607D01*
X185720304Y-95484443D01*
X185806913Y-95446556D01*
X185877648Y-95409836D01*
X185930203Y-95375172D01*
X185938124Y-95368738D01*
X185974707Y-95337752D01*
X185974707Y-95721271D01*
X185968224Y-95725137D01*
X185856721Y-95778931D01*
X185729537Y-95829336D01*
X185679291Y-95846795D01*
X185639008Y-95860314D01*
X185605952Y-95871422D01*
X185585654Y-95878259D01*
X185582745Y-95879246D01*
X185580714Y-95890402D01*
X185589454Y-95917240D01*
X185606558Y-95954215D01*
X185626281Y-95996647D01*
X185637132Y-96031495D01*
X185641595Y-96069037D01*
X185642250Y-96101810D01*
X185636959Y-96165170D01*
X185619985Y-96225242D01*
X185589674Y-96285113D01*
X185544374Y-96347871D01*
X185482429Y-96416605D01*
X185463396Y-96435833D01*
X185353821Y-96532720D01*
X185335333Y-96545988D01*
X185335333Y-96083098D01*
X185325307Y-96065399D01*
X185297417Y-96049288D01*
X185254948Y-96035436D01*
X185201182Y-96024517D01*
X185139403Y-96017202D01*
X185072894Y-96014165D01*
X185007250Y-96015922D01*
X184852344Y-96033033D01*
X184694916Y-96063531D01*
X184667400Y-96070254D01*
X184633124Y-96080111D01*
X184605065Y-96092165D01*
X184577576Y-96109888D01*
X184545014Y-96136748D01*
X184515035Y-96163900D01*
X184432644Y-96239879D01*
X184450072Y-96273580D01*
X184464435Y-96317595D01*
X184466768Y-96365097D01*
X184457296Y-96407933D01*
X184445765Y-96428359D01*
X184420754Y-96449434D01*
X184386703Y-96465911D01*
X184379619Y-96468088D01*
X184317216Y-96485880D01*
X184270734Y-96501322D01*
X184235360Y-96516326D01*
X184206281Y-96532803D01*
X184192113Y-96542542D01*
X184168551Y-96561742D01*
X184155693Y-96576524D01*
X184155043Y-96581633D01*
X184172225Y-96590534D01*
X184203102Y-96599959D01*
X184240325Y-96608145D01*
X184276546Y-96613326D01*
X184290675Y-96614210D01*
X184321109Y-96612534D01*
X184363345Y-96607144D01*
X184408581Y-96599179D01*
X184411450Y-96598593D01*
X184512463Y-96572468D01*
X184624426Y-96534312D01*
X184742547Y-96486240D01*
X184862031Y-96430365D01*
X184978084Y-96368804D01*
X185085912Y-96303671D01*
X185098219Y-96295617D01*
X185151913Y-96258197D01*
X185203641Y-96218608D01*
X185250539Y-96179417D01*
X185289745Y-96143192D01*
X185318393Y-96112497D01*
X185333622Y-96089901D01*
X185335333Y-96083098D01*
X185335333Y-96545988D01*
X185227022Y-96623723D01*
X185086547Y-96707044D01*
X184935939Y-96780884D01*
X184778746Y-96843444D01*
X184618512Y-96892926D01*
X184514412Y-96917224D01*
X184433172Y-96930782D01*
X184350719Y-96939361D01*
X184271890Y-96942822D01*
X184201520Y-96941025D01*
X184144446Y-96933830D01*
X184123541Y-96928529D01*
X184065389Y-96906023D01*
X184010436Y-96874943D01*
X183967042Y-96843960D01*
X183918849Y-96807174D01*
X183878320Y-96828319D01*
X183826130Y-96844997D01*
X183774543Y-96842970D01*
X183727005Y-96824507D01*
X183686959Y-96791878D01*
X183657849Y-96747353D01*
X183643120Y-96693202D01*
X183642000Y-96672582D01*
X183644091Y-96634267D01*
X183649404Y-96600160D01*
X183652932Y-96587873D01*
X183667967Y-96561391D01*
X183697149Y-96522205D01*
X183738963Y-96471853D01*
X183791899Y-96411874D01*
X183854443Y-96343805D01*
X183925082Y-96269185D01*
X184002305Y-96189552D01*
X184084599Y-96106443D01*
X184170451Y-96021399D01*
X184258349Y-95935956D01*
X184346780Y-95851652D01*
X184434232Y-95770027D01*
X184519192Y-95692617D01*
X184600149Y-95620963D01*
X184623838Y-95600466D01*
X184658692Y-95570179D01*
X184686166Y-95545712D01*
X184703194Y-95529836D01*
X184707163Y-95525166D01*
X184696175Y-95528410D01*
X184668886Y-95537321D01*
X184629008Y-95550663D01*
X184580249Y-95567204D01*
X184561809Y-95573508D01*
X184449539Y-95614052D01*
X184358138Y-95651625D01*
X184287631Y-95686213D01*
X184238045Y-95717806D01*
X184228026Y-95726014D01*
X184184687Y-95751517D01*
X184137466Y-95758521D01*
X184090645Y-95748060D01*
X184048505Y-95721163D01*
X184015328Y-95678863D01*
X184012843Y-95674170D01*
X183994915Y-95617230D01*
X183996654Y-95559038D01*
X184017248Y-95503691D01*
X184055883Y-95455282D01*
X184056365Y-95454840D01*
X184086724Y-95432831D01*
X184134220Y-95405667D01*
X184195839Y-95374662D01*
X184268564Y-95341132D01*
X184349380Y-95306391D01*
X184435271Y-95271756D01*
X184523222Y-95238540D01*
X184610217Y-95208059D01*
X184658000Y-95192482D01*
X184779010Y-95156365D01*
X184906035Y-95122359D01*
X185036384Y-95090927D01*
X185167367Y-95062535D01*
X185296293Y-95037643D01*
X185420472Y-95016717D01*
X185537213Y-95000219D01*
X185643825Y-94988613D01*
X185737618Y-94982361D01*
X185815901Y-94981928D01*
X185860543Y-94985400D01*
X185960958Y-95006482D01*
X186049679Y-95041789D01*
X186124976Y-95090146D01*
X186185115Y-95150379D01*
X186228363Y-95221315D01*
X186236050Y-95239839D01*
X186250472Y-95295953D01*
X186256040Y-95359621D01*
X186256040Y-95359621D01*
X186256040Y-95359621D01*
G37*
X186256040Y-95359621D02*
X186252773Y-95422702D01*
X186240688Y-95477055D01*
X186235484Y-95490139D01*
X186197676Y-95550455D01*
X186139798Y-95610196D01*
X186062948Y-95668658D01*
X185974707Y-95721271D01*
X185974707Y-95337752D01*
X185948708Y-95323350D01*
X185914655Y-95312208D01*
X185862853Y-95305530D01*
X185796223Y-95303220D01*
X185717683Y-95305180D01*
X185630154Y-95311313D01*
X185536556Y-95321522D01*
X185439810Y-95335709D01*
X185406770Y-95341412D01*
X185362671Y-95349635D01*
X185335400Y-95356305D01*
X185320918Y-95363422D01*
X185315186Y-95372984D01*
X185314166Y-95386990D01*
X185314166Y-95387255D01*
X185312226Y-95405082D01*
X185305044Y-95423222D01*
X185290574Y-95443999D01*
X185266773Y-95469734D01*
X185231597Y-95502749D01*
X185183001Y-95545366D01*
X185150518Y-95573140D01*
X185108160Y-95609364D01*
X185072180Y-95640514D01*
X185045365Y-95664149D01*
X185030499Y-95677825D01*
X185028416Y-95680185D01*
X185034593Y-95681244D01*
X185054143Y-95678377D01*
X185088596Y-95671254D01*
X185139483Y-95659545D01*
X185208333Y-95642918D01*
X185261250Y-95629862D01*
X185388293Y-95596206D01*
X185508688Y-95560158D01*
X185620127Y-95522607D01*
X185720304Y-95484443D01*
X185806913Y-95446556D01*
X185877648Y-95409836D01*
X185930203Y-95375172D01*
X185938124Y-95368738D01*
X185974707Y-95337752D01*
X185974707Y-95721271D01*
X185968224Y-95725137D01*
X185856721Y-95778931D01*
X185729537Y-95829336D01*
X185679291Y-95846795D01*
X185639008Y-95860314D01*
X185605952Y-95871422D01*
X185585654Y-95878259D01*
X185582745Y-95879246D01*
X185580714Y-95890402D01*
X185589454Y-95917240D01*
X185606558Y-95954215D01*
X185626281Y-95996647D01*
X185637132Y-96031495D01*
X185641595Y-96069037D01*
X185642250Y-96101810D01*
X185636959Y-96165170D01*
X185619985Y-96225242D01*
X185589674Y-96285113D01*
X185544374Y-96347871D01*
X185482429Y-96416605D01*
X185463396Y-96435833D01*
X185353821Y-96532720D01*
X185335333Y-96545988D01*
X185335333Y-96083098D01*
X185325307Y-96065399D01*
X185297417Y-96049288D01*
X185254948Y-96035436D01*
X185201182Y-96024517D01*
X185139403Y-96017202D01*
X185072894Y-96014165D01*
X185007250Y-96015922D01*
X184852344Y-96033033D01*
X184694916Y-96063531D01*
X184667400Y-96070254D01*
X184633124Y-96080111D01*
X184605065Y-96092165D01*
X184577576Y-96109888D01*
X184545014Y-96136748D01*
X184515035Y-96163900D01*
X184432644Y-96239879D01*
X184450072Y-96273580D01*
X184464435Y-96317595D01*
X184466768Y-96365097D01*
X184457296Y-96407933D01*
X184445765Y-96428359D01*
X184420754Y-96449434D01*
X184386703Y-96465911D01*
X184379619Y-96468088D01*
X184317216Y-96485880D01*
X184270734Y-96501322D01*
X184235360Y-96516326D01*
X184206281Y-96532803D01*
X184192113Y-96542542D01*
X184168551Y-96561742D01*
X184155693Y-96576524D01*
X184155043Y-96581633D01*
X184172225Y-96590534D01*
X184203102Y-96599959D01*
X184240325Y-96608145D01*
X184276546Y-96613326D01*
X184290675Y-96614210D01*
X184321109Y-96612534D01*
X184363345Y-96607144D01*
X184408581Y-96599179D01*
X184411450Y-96598593D01*
X184512463Y-96572468D01*
X184624426Y-96534312D01*
X184742547Y-96486240D01*
X184862031Y-96430365D01*
X184978084Y-96368804D01*
X185085912Y-96303671D01*
X185098219Y-96295617D01*
X185151913Y-96258197D01*
X185203641Y-96218608D01*
X185250539Y-96179417D01*
X185289745Y-96143192D01*
X185318393Y-96112497D01*
X185333622Y-96089901D01*
X185335333Y-96083098D01*
X185335333Y-96545988D01*
X185227022Y-96623723D01*
X185086547Y-96707044D01*
X184935939Y-96780884D01*
X184778746Y-96843444D01*
X184618512Y-96892926D01*
X184514412Y-96917224D01*
X184433172Y-96930782D01*
X184350719Y-96939361D01*
X184271890Y-96942822D01*
X184201520Y-96941025D01*
X184144446Y-96933830D01*
X184123541Y-96928529D01*
X184065389Y-96906023D01*
X184010436Y-96874943D01*
X183967042Y-96843960D01*
X183918849Y-96807174D01*
X183878320Y-96828319D01*
X183826130Y-96844997D01*
X183774543Y-96842970D01*
X183727005Y-96824507D01*
X183686959Y-96791878D01*
X183657849Y-96747353D01*
X183643120Y-96693202D01*
X183642000Y-96672582D01*
X183644091Y-96634267D01*
X183649404Y-96600160D01*
X183652932Y-96587873D01*
X183667967Y-96561391D01*
X183697149Y-96522205D01*
X183738963Y-96471853D01*
X183791899Y-96411874D01*
X183854443Y-96343805D01*
X183925082Y-96269185D01*
X184002305Y-96189552D01*
X184084599Y-96106443D01*
X184170451Y-96021399D01*
X184258349Y-95935956D01*
X184346780Y-95851652D01*
X184434232Y-95770027D01*
X184519192Y-95692617D01*
X184600149Y-95620963D01*
X184623838Y-95600466D01*
X184658692Y-95570179D01*
X184686166Y-95545712D01*
X184703194Y-95529836D01*
X184707163Y-95525166D01*
X184696175Y-95528410D01*
X184668886Y-95537321D01*
X184629008Y-95550663D01*
X184580249Y-95567204D01*
X184561809Y-95573508D01*
X184449539Y-95614052D01*
X184358138Y-95651625D01*
X184287631Y-95686213D01*
X184238045Y-95717806D01*
X184228026Y-95726014D01*
X184184687Y-95751517D01*
X184137466Y-95758521D01*
X184090645Y-95748060D01*
X184048505Y-95721163D01*
X184015328Y-95678863D01*
X184012843Y-95674170D01*
X183994915Y-95617230D01*
X183996654Y-95559038D01*
X184017248Y-95503691D01*
X184055883Y-95455282D01*
X184056365Y-95454840D01*
X184086724Y-95432831D01*
X184134220Y-95405667D01*
X184195839Y-95374662D01*
X184268564Y-95341132D01*
X184349380Y-95306391D01*
X184435271Y-95271756D01*
X184523222Y-95238540D01*
X184610217Y-95208059D01*
X184658000Y-95192482D01*
X184779010Y-95156365D01*
X184906035Y-95122359D01*
X185036384Y-95090927D01*
X185167367Y-95062535D01*
X185296293Y-95037643D01*
X185420472Y-95016717D01*
X185537213Y-95000219D01*
X185643825Y-94988613D01*
X185737618Y-94982361D01*
X185815901Y-94981928D01*
X185860543Y-94985400D01*
X185960958Y-95006482D01*
X186049679Y-95041789D01*
X186124976Y-95090146D01*
X186185115Y-95150379D01*
X186228363Y-95221315D01*
X186236050Y-95239839D01*
X186250472Y-95295953D01*
X186256040Y-95359621D01*
X186256040Y-95359621D01*
G36*
X188679583Y-95003697D02*
X188673048Y-95051163D01*
X188655308Y-95097653D01*
X188627425Y-95137663D01*
X188611479Y-95152383D01*
X188599276Y-95160181D01*
X188583018Y-95166114D01*
X188559353Y-95170632D01*
X188524933Y-95174185D01*
X188476409Y-95177224D01*
X188410432Y-95180199D01*
X188402163Y-95180533D01*
X188336217Y-95183385D01*
X188255282Y-95187201D01*
X188165493Y-95191674D01*
X188072989Y-95196494D01*
X187983908Y-95201355D01*
X187954708Y-95203006D01*
X187881574Y-95207161D01*
X187815163Y-95210884D01*
X187758489Y-95214011D01*
X187714563Y-95216376D01*
X187686398Y-95217816D01*
X187677297Y-95218190D01*
X187664460Y-95224651D01*
X187639331Y-95242146D01*
X187605676Y-95267917D01*
X187571464Y-95295694D01*
X187540072Y-95322403D01*
X187499320Y-95357924D01*
X187451628Y-95400065D01*
X187399416Y-95446633D01*
X187345105Y-95495436D01*
X187291114Y-95544282D01*
X187239864Y-95590977D01*
X187193774Y-95633330D01*
X187155265Y-95669147D01*
X187126757Y-95696237D01*
X187110669Y-95712406D01*
X187108205Y-95715401D01*
X187115736Y-95718848D01*
X187141967Y-95720664D01*
X187184489Y-95720791D01*
X187240892Y-95719170D01*
X187248483Y-95718855D01*
X187321285Y-95716711D01*
X187377094Y-95717843D01*
X187419932Y-95722992D01*
X187453819Y-95732897D01*
X187482779Y-95748300D01*
X187506691Y-95766409D01*
X187540535Y-95804304D01*
X187564486Y-95849829D01*
X187576670Y-95897093D01*
X187575215Y-95940200D01*
X187568102Y-95959669D01*
X187560192Y-95972349D01*
X187549957Y-95982693D01*
X187535254Y-95990987D01*
X187513945Y-95997514D01*
X187483886Y-96002559D01*
X187442937Y-96006405D01*
X187388956Y-96009337D01*
X187319802Y-96011639D01*
X187233335Y-96013594D01*
X187150375Y-96015099D01*
X187065329Y-96016841D01*
X186986153Y-96019007D01*
X186915569Y-96021481D01*
X186856300Y-96024147D01*
X186811068Y-96026888D01*
X186782596Y-96029587D01*
X186774567Y-96031184D01*
X186757933Y-96042132D01*
X186728809Y-96066215D01*
X186689384Y-96101321D01*
X186641847Y-96145334D01*
X186588387Y-96196141D01*
X186531193Y-96251628D01*
X186472455Y-96309681D01*
X186414362Y-96368185D01*
X186359102Y-96425028D01*
X186308864Y-96478095D01*
X186285347Y-96503612D01*
X186200557Y-96599306D01*
X186130934Y-96683843D01*
X186074994Y-96759134D01*
X186031252Y-96827090D01*
X186023538Y-96840499D01*
X185989882Y-96890198D01*
X185955008Y-96919805D01*
X185916566Y-96930366D01*
X185872207Y-96922924D01*
X185853992Y-96915890D01*
X185800287Y-96883002D01*
X185759183Y-96835127D01*
X185745905Y-96811858D01*
X185732283Y-96772776D01*
X185730845Y-96730114D01*
X185742325Y-96681837D01*
X185767457Y-96625905D01*
X185806977Y-96560280D01*
X185861618Y-96482926D01*
X185867193Y-96475466D01*
X185897562Y-96435336D01*
X185924495Y-96400850D01*
X185951139Y-96368328D01*
X185980644Y-96334093D01*
X186016159Y-96294464D01*
X186060832Y-96245765D01*
X186100000Y-96203487D01*
X186172784Y-96125099D01*
X186134958Y-96112095D01*
X186096478Y-96095551D01*
X186072903Y-96074727D01*
X186058068Y-96043344D01*
X186054075Y-96029732D01*
X186047727Y-95980810D01*
X186052425Y-95930115D01*
X186066471Y-95883199D01*
X186088167Y-95845616D01*
X186115814Y-95822918D01*
X186117533Y-95822188D01*
X186136640Y-95817049D01*
X186172798Y-95809566D01*
X186222105Y-95800401D01*
X186280659Y-95790215D01*
X186344559Y-95779669D01*
X186409904Y-95769425D01*
X186472791Y-95760144D01*
X186526981Y-95752786D01*
X186543211Y-95750225D01*
X186558550Y-95745960D01*
X186575113Y-95738439D01*
X186595015Y-95726112D01*
X186620372Y-95707427D01*
X186653297Y-95680833D01*
X186695907Y-95644777D01*
X186750316Y-95597710D01*
X186813105Y-95542917D01*
X186874973Y-95488870D01*
X186933938Y-95437421D01*
X186987462Y-95390780D01*
X187033006Y-95351157D01*
X187068034Y-95320762D01*
X187090006Y-95301804D01*
X187091799Y-95300270D01*
X187114580Y-95279287D01*
X187126737Y-95264902D01*
X187126422Y-95260583D01*
X187112608Y-95261655D01*
X187081211Y-95264640D01*
X187035692Y-95269192D01*
X186979515Y-95274964D01*
X186916141Y-95281610D01*
X186911490Y-95282102D01*
X186829615Y-95291518D01*
X186764733Y-95300561D01*
X186718085Y-95309028D01*
X186690910Y-95316715D01*
X186686284Y-95319144D01*
X186662476Y-95327944D01*
X186626289Y-95333329D01*
X186586314Y-95334783D01*
X186551139Y-95331793D01*
X186537015Y-95328092D01*
X186514671Y-95309060D01*
X186498914Y-95275002D01*
X186490369Y-95231203D01*
X186489662Y-95182949D01*
X186497419Y-95135522D01*
X186510219Y-95101566D01*
X186529274Y-95071492D01*
X186550524Y-95047963D01*
X186556074Y-95043722D01*
X186578621Y-95035168D01*
X186620467Y-95025719D01*
X186679771Y-95015547D01*
X186754691Y-95004825D01*
X186843385Y-94993725D01*
X186944014Y-94982420D01*
X187054735Y-94971082D01*
X187173707Y-94959883D01*
X187299089Y-94948996D01*
X187429041Y-94938594D01*
X187561720Y-94928848D01*
X187695285Y-94919931D01*
X187827896Y-94912016D01*
X187957711Y-94905274D01*
X188082889Y-94899879D01*
X188098444Y-94899296D01*
X188224144Y-94895153D01*
X188330320Y-94892789D01*
X188418545Y-94892286D01*
X188490395Y-94893724D01*
X188547443Y-94897183D01*
X188591264Y-94902746D01*
X188623431Y-94910491D01*
X188645518Y-94920501D01*
X188654796Y-94927833D01*
X188673853Y-94960753D01*
X188679583Y-95003697D01*
X188679583Y-95003697D01*
X188679583Y-95003697D01*
G37*
X188679583Y-95003697D02*
X188673048Y-95051163D01*
X188655308Y-95097653D01*
X188627425Y-95137663D01*
X188611479Y-95152383D01*
X188599276Y-95160181D01*
X188583018Y-95166114D01*
X188559353Y-95170632D01*
X188524933Y-95174185D01*
X188476409Y-95177224D01*
X188410432Y-95180199D01*
X188402163Y-95180533D01*
X188336217Y-95183385D01*
X188255282Y-95187201D01*
X188165493Y-95191674D01*
X188072989Y-95196494D01*
X187983908Y-95201355D01*
X187954708Y-95203006D01*
X187881574Y-95207161D01*
X187815163Y-95210884D01*
X187758489Y-95214011D01*
X187714563Y-95216376D01*
X187686398Y-95217816D01*
X187677297Y-95218190D01*
X187664460Y-95224651D01*
X187639331Y-95242146D01*
X187605676Y-95267917D01*
X187571464Y-95295694D01*
X187540072Y-95322403D01*
X187499320Y-95357924D01*
X187451628Y-95400065D01*
X187399416Y-95446633D01*
X187345105Y-95495436D01*
X187291114Y-95544282D01*
X187239864Y-95590977D01*
X187193774Y-95633330D01*
X187155265Y-95669147D01*
X187126757Y-95696237D01*
X187110669Y-95712406D01*
X187108205Y-95715401D01*
X187115736Y-95718848D01*
X187141967Y-95720664D01*
X187184489Y-95720791D01*
X187240892Y-95719170D01*
X187248483Y-95718855D01*
X187321285Y-95716711D01*
X187377094Y-95717843D01*
X187419932Y-95722992D01*
X187453819Y-95732897D01*
X187482779Y-95748300D01*
X187506691Y-95766409D01*
X187540535Y-95804304D01*
X187564486Y-95849829D01*
X187576670Y-95897093D01*
X187575215Y-95940200D01*
X187568102Y-95959669D01*
X187560192Y-95972349D01*
X187549957Y-95982693D01*
X187535254Y-95990987D01*
X187513945Y-95997514D01*
X187483886Y-96002559D01*
X187442937Y-96006405D01*
X187388956Y-96009337D01*
X187319802Y-96011639D01*
X187233335Y-96013594D01*
X187150375Y-96015099D01*
X187065329Y-96016841D01*
X186986153Y-96019007D01*
X186915569Y-96021481D01*
X186856300Y-96024147D01*
X186811068Y-96026888D01*
X186782596Y-96029587D01*
X186774567Y-96031184D01*
X186757933Y-96042132D01*
X186728809Y-96066215D01*
X186689384Y-96101321D01*
X186641847Y-96145334D01*
X186588387Y-96196141D01*
X186531193Y-96251628D01*
X186472455Y-96309681D01*
X186414362Y-96368185D01*
X186359102Y-96425028D01*
X186308864Y-96478095D01*
X186285347Y-96503612D01*
X186200557Y-96599306D01*
X186130934Y-96683843D01*
X186074994Y-96759134D01*
X186031252Y-96827090D01*
X186023538Y-96840499D01*
X185989882Y-96890198D01*
X185955008Y-96919805D01*
X185916566Y-96930366D01*
X185872207Y-96922924D01*
X185853992Y-96915890D01*
X185800287Y-96883002D01*
X185759183Y-96835127D01*
X185745905Y-96811858D01*
X185732283Y-96772776D01*
X185730845Y-96730114D01*
X185742325Y-96681837D01*
X185767457Y-96625905D01*
X185806977Y-96560280D01*
X185861618Y-96482926D01*
X185867193Y-96475466D01*
X185897562Y-96435336D01*
X185924495Y-96400850D01*
X185951139Y-96368328D01*
X185980644Y-96334093D01*
X186016159Y-96294464D01*
X186060832Y-96245765D01*
X186100000Y-96203487D01*
X186172784Y-96125099D01*
X186134958Y-96112095D01*
X186096478Y-96095551D01*
X186072903Y-96074727D01*
X186058068Y-96043344D01*
X186054075Y-96029732D01*
X186047727Y-95980810D01*
X186052425Y-95930115D01*
X186066471Y-95883199D01*
X186088167Y-95845616D01*
X186115814Y-95822918D01*
X186117533Y-95822188D01*
X186136640Y-95817049D01*
X186172798Y-95809566D01*
X186222105Y-95800401D01*
X186280659Y-95790215D01*
X186344559Y-95779669D01*
X186409904Y-95769425D01*
X186472791Y-95760144D01*
X186526981Y-95752786D01*
X186543211Y-95750225D01*
X186558550Y-95745960D01*
X186575113Y-95738439D01*
X186595015Y-95726112D01*
X186620372Y-95707427D01*
X186653297Y-95680833D01*
X186695907Y-95644777D01*
X186750316Y-95597710D01*
X186813105Y-95542917D01*
X186874973Y-95488870D01*
X186933938Y-95437421D01*
X186987462Y-95390780D01*
X187033006Y-95351157D01*
X187068034Y-95320762D01*
X187090006Y-95301804D01*
X187091799Y-95300270D01*
X187114580Y-95279287D01*
X187126737Y-95264902D01*
X187126422Y-95260583D01*
X187112608Y-95261655D01*
X187081211Y-95264640D01*
X187035692Y-95269192D01*
X186979515Y-95274964D01*
X186916141Y-95281610D01*
X186911490Y-95282102D01*
X186829615Y-95291518D01*
X186764733Y-95300561D01*
X186718085Y-95309028D01*
X186690910Y-95316715D01*
X186686284Y-95319144D01*
X186662476Y-95327944D01*
X186626289Y-95333329D01*
X186586314Y-95334783D01*
X186551139Y-95331793D01*
X186537015Y-95328092D01*
X186514671Y-95309060D01*
X186498914Y-95275002D01*
X186490369Y-95231203D01*
X186489662Y-95182949D01*
X186497419Y-95135522D01*
X186510219Y-95101566D01*
X186529274Y-95071492D01*
X186550524Y-95047963D01*
X186556074Y-95043722D01*
X186578621Y-95035168D01*
X186620467Y-95025719D01*
X186679771Y-95015547D01*
X186754691Y-95004825D01*
X186843385Y-94993725D01*
X186944014Y-94982420D01*
X187054735Y-94971082D01*
X187173707Y-94959883D01*
X187299089Y-94948996D01*
X187429041Y-94938594D01*
X187561720Y-94928848D01*
X187695285Y-94919931D01*
X187827896Y-94912016D01*
X187957711Y-94905274D01*
X188082889Y-94899879D01*
X188098444Y-94899296D01*
X188224144Y-94895153D01*
X188330320Y-94892789D01*
X188418545Y-94892286D01*
X188490395Y-94893724D01*
X188547443Y-94897183D01*
X188591264Y-94902746D01*
X188623431Y-94910491D01*
X188645518Y-94920501D01*
X188654796Y-94927833D01*
X188673853Y-94960753D01*
X188679583Y-95003697D01*
X188679583Y-95003697D01*
D13*
X177470000Y-54700000D03*
X177470000Y-59600000D03*
X180670000Y-59600000D03*
X180670000Y-54700000D03*
D14*
X170180000Y-57150000D03*
D15*
X182880000Y-56300000D03*
X182880000Y-58000000D03*
X157480000Y-56300000D03*
X157480000Y-58000000D03*
D13*
X159690000Y-54700000D03*
X159690000Y-59600000D03*
X162890000Y-59600000D03*
X162890000Y-54700000D03*
X113970000Y-54700000D03*
X113970000Y-59600000D03*
X117170000Y-59600000D03*
X117170000Y-54700000D03*
D14*
X106680000Y-57150000D03*
D15*
X119380000Y-56300000D03*
X119380000Y-58000000D03*
X93980000Y-56300000D03*
X93980000Y-58000000D03*
D13*
X96190000Y-54700000D03*
X96190000Y-59600000D03*
X99390000Y-59600000D03*
X99390000Y-54700000D03*
D15*
X158115000Y-126150000D03*
X158115000Y-127850000D03*
D16*
X147535000Y-123190000D03*
X145835000Y-123190000D03*
X145835000Y-130810000D03*
X147535000Y-130810000D03*
D15*
X150495000Y-143090000D03*
X150495000Y-141390000D03*
D16*
X162775000Y-138430000D03*
X161075000Y-138430000D03*
X161075000Y-115570000D03*
X162775000Y-115570000D03*
D15*
X150495000Y-112610000D03*
X150495000Y-110910000D03*
D17*
X149135000Y-117780000D03*
X144235000Y-117780000D03*
X144235000Y-120980000D03*
X149135000Y-120980000D03*
X159475000Y-120980000D03*
X164375000Y-120980000D03*
X164375000Y-117780000D03*
X159475000Y-117780000D03*
D14*
X154305000Y-119380000D03*
D13*
X155905000Y-114210000D03*
X155905000Y-109310000D03*
X152705000Y-109310000D03*
X152705000Y-114210000D03*
X152705000Y-124550000D03*
X152705000Y-129450000D03*
X155905000Y-129450000D03*
X155905000Y-124550000D03*
D14*
X154305000Y-134620000D03*
D17*
X144235000Y-136220000D03*
X149135000Y-136220000D03*
X149135000Y-133020000D03*
X144235000Y-133020000D03*
D13*
X155905000Y-144690000D03*
X155905000Y-139790000D03*
X152705000Y-139790000D03*
X152705000Y-144690000D03*
D17*
X164375000Y-133020000D03*
X159475000Y-133020000D03*
X159475000Y-136220000D03*
X164375000Y-136220000D03*
X189775000Y-133020000D03*
X184875000Y-133020000D03*
X184875000Y-136220000D03*
X189775000Y-136220000D03*
D13*
X181305000Y-144690000D03*
X181305000Y-139790000D03*
X178105000Y-139790000D03*
X178105000Y-144690000D03*
D17*
X169635000Y-136220000D03*
X174535000Y-136220000D03*
X174535000Y-133020000D03*
X169635000Y-133020000D03*
D14*
X179705000Y-134620000D03*
D13*
X178105000Y-124550000D03*
X178105000Y-129450000D03*
X181305000Y-129450000D03*
X181305000Y-124550000D03*
X181305000Y-114210000D03*
X181305000Y-109310000D03*
X178105000Y-109310000D03*
X178105000Y-114210000D03*
D14*
X179705000Y-119380000D03*
D17*
X184875000Y-120980000D03*
X189775000Y-120980000D03*
X189775000Y-117780000D03*
X184875000Y-117780000D03*
X174535000Y-117780000D03*
X169635000Y-117780000D03*
X169635000Y-120980000D03*
X174535000Y-120980000D03*
D15*
X175895000Y-112610000D03*
X175895000Y-110910000D03*
D16*
X186475000Y-115570000D03*
X188175000Y-115570000D03*
X188175000Y-138430000D03*
X186475000Y-138430000D03*
D15*
X175895000Y-143090000D03*
X175895000Y-141390000D03*
D16*
X171235000Y-130810000D03*
X172935000Y-130810000D03*
X172935000Y-123190000D03*
X171235000Y-123190000D03*
D15*
X183515000Y-126150000D03*
X183515000Y-127850000D03*
X132715000Y-126150000D03*
X132715000Y-127850000D03*
D16*
X122135000Y-123190000D03*
X120435000Y-123190000D03*
X120435000Y-130810000D03*
X122135000Y-130810000D03*
D15*
X125095000Y-143090000D03*
X125095000Y-141390000D03*
D16*
X137375000Y-138430000D03*
X135675000Y-138430000D03*
X135675000Y-115570000D03*
X137375000Y-115570000D03*
D15*
X125095000Y-112610000D03*
X125095000Y-110910000D03*
D17*
X123735000Y-117780000D03*
X118835000Y-117780000D03*
X118835000Y-120980000D03*
X123735000Y-120980000D03*
X134075000Y-120980000D03*
X138975000Y-120980000D03*
X138975000Y-117780000D03*
X134075000Y-117780000D03*
D14*
X128905000Y-119380000D03*
D13*
X130505000Y-114210000D03*
X130505000Y-109310000D03*
X127305000Y-109310000D03*
X127305000Y-114210000D03*
X127305000Y-124550000D03*
X127305000Y-129450000D03*
X130505000Y-129450000D03*
X130505000Y-124550000D03*
D14*
X128905000Y-134620000D03*
D17*
X118835000Y-136220000D03*
X123735000Y-136220000D03*
X123735000Y-133020000D03*
X118835000Y-133020000D03*
D13*
X130505000Y-144690000D03*
X130505000Y-139790000D03*
X127305000Y-139790000D03*
X127305000Y-144690000D03*
D17*
X138975000Y-133020000D03*
X134075000Y-133020000D03*
X134075000Y-136220000D03*
X138975000Y-136220000D03*
D18*
X95885000Y-100965000D03*
X95885000Y-98425000D03*
X95885000Y-95885000D03*
X95885000Y-90805000D03*
X95885000Y-93345000D03*
D19*
X111760000Y-88585000D03*
X111760000Y-90485000D03*
D15*
X109220000Y-88685000D03*
X109220000Y-90385000D03*
D20*
X98930000Y-91125000D03*
X98930000Y-92075000D03*
X98930000Y-93025000D03*
X101730000Y-93025000D03*
X101730000Y-91125000D03*
D21*
X98745000Y-95250000D03*
X100645000Y-95250000D03*
X98745000Y-88900000D03*
X100645000Y-88900000D03*
D22*
X100060000Y-103235000D03*
X100060000Y-101235000D03*
X98060000Y-102235000D03*
X100060000Y-99425000D03*
X100060000Y-97425000D03*
X98060000Y-98425000D03*
D15*
X103505000Y-103085000D03*
X103505000Y-101385000D03*
X105410000Y-88685000D03*
X105410000Y-90385000D03*
X105410000Y-103085000D03*
X105410000Y-101385000D03*
D16*
X111545000Y-101600000D03*
X113245000Y-101600000D03*
D10*
G36*
X106958654Y-101598604D02*
X107948604Y-100608654D01*
X109009264Y-101669314D01*
X108019314Y-102659264D01*
X106958654Y-101598604D01*
X106958654Y-101598604D01*
G37*
G36*
X108160736Y-102800686D02*
X109150686Y-101810736D01*
X110211346Y-102871396D01*
X109221396Y-103861346D01*
X108160736Y-102800686D01*
X108160736Y-102800686D01*
G37*
D15*
X113665000Y-98005000D03*
X113665000Y-96305000D03*
X107315000Y-90385000D03*
X107315000Y-88685000D03*
X103505000Y-90385000D03*
X103505000Y-88685000D03*
D23*
X109855000Y-93185000D03*
X109855000Y-98585000D03*
X111125000Y-93185000D03*
X108585000Y-93185000D03*
X107315000Y-93185000D03*
X111125000Y-98585000D03*
X108585000Y-98585000D03*
X107315000Y-98585000D03*
X106045000Y-93185000D03*
X104775000Y-93185000D03*
X103505000Y-93185000D03*
X106045000Y-98585000D03*
X104775000Y-98585000D03*
X103505000Y-98585000D03*
D17*
X113575000Y-133020000D03*
X108675000Y-133020000D03*
X108675000Y-136220000D03*
X113575000Y-136220000D03*
D13*
X105105000Y-144690000D03*
X105105000Y-139790000D03*
X101905000Y-139790000D03*
X101905000Y-144690000D03*
D17*
X93435000Y-136220000D03*
X98335000Y-136220000D03*
X98335000Y-133020000D03*
X93435000Y-133020000D03*
D14*
X103505000Y-134620000D03*
D13*
X101905000Y-124550000D03*
X101905000Y-129450000D03*
X105105000Y-129450000D03*
X105105000Y-124550000D03*
X105105000Y-114210000D03*
X105105000Y-109310000D03*
X101905000Y-109310000D03*
X101905000Y-114210000D03*
D14*
X103505000Y-119380000D03*
D17*
X108675000Y-120980000D03*
X113575000Y-120980000D03*
X113575000Y-117780000D03*
X108675000Y-117780000D03*
X98335000Y-117780000D03*
X93435000Y-117780000D03*
X93435000Y-120980000D03*
X98335000Y-120980000D03*
D15*
X99695000Y-112610000D03*
X99695000Y-110910000D03*
D16*
X110275000Y-115570000D03*
X111975000Y-115570000D03*
X111975000Y-138430000D03*
X110275000Y-138430000D03*
D15*
X99695000Y-143090000D03*
X99695000Y-141390000D03*
D16*
X95035000Y-130810000D03*
X96735000Y-130810000D03*
X96735000Y-123190000D03*
X95035000Y-123190000D03*
D15*
X107315000Y-126150000D03*
X107315000Y-127850000D03*
D13*
X127940000Y-54700000D03*
X127940000Y-59600000D03*
X131140000Y-59600000D03*
X131140000Y-54700000D03*
D15*
X125730000Y-56300000D03*
X125730000Y-58000000D03*
X151130000Y-56300000D03*
X151130000Y-58000000D03*
D14*
X138430000Y-57150000D03*
D13*
X145720000Y-54700000D03*
X145720000Y-59600000D03*
X148920000Y-59600000D03*
X148920000Y-54700000D03*
D24*
X107720000Y-82618000D03*
X107020000Y-82618000D03*
X106320000Y-82618000D03*
X105620000Y-82618000D03*
X104920000Y-82618000D03*
X104220000Y-82618000D03*
X103520000Y-82618000D03*
X102820000Y-82618000D03*
X102120000Y-82618000D03*
X101420000Y-82618000D03*
X100720000Y-82618000D03*
X100020000Y-82618000D03*
X99320000Y-82618000D03*
X98620000Y-82618000D03*
X97920000Y-82618000D03*
X117520000Y-82618000D03*
X116820000Y-82618000D03*
X116120000Y-82618000D03*
X115420000Y-82618000D03*
X114720000Y-82618000D03*
X114020000Y-82618000D03*
X113320000Y-82618000D03*
X112620000Y-82618000D03*
X111920000Y-82618000D03*
X111220000Y-82618000D03*
X110520000Y-82618000D03*
X109820000Y-82618000D03*
X109120000Y-82618000D03*
X108420000Y-82618000D03*
X118220000Y-82618000D03*
X118920000Y-82618000D03*
X119620000Y-82618000D03*
X97220000Y-82618000D03*
D25*
X156210000Y-81915000D03*
X153670000Y-81915000D03*
X151130000Y-81915000D03*
X148590000Y-81915000D03*
X146050000Y-81915000D03*
X143510000Y-81915000D03*
D26*
X116710000Y-67310000D03*
X119510000Y-67310000D03*
D21*
X96200000Y-67310000D03*
X94300000Y-67310000D03*
D16*
X100115000Y-67310000D03*
X101815000Y-67310000D03*
D15*
X132080000Y-66460000D03*
X132080000Y-68160000D03*
X132080000Y-70270000D03*
X132080000Y-71970000D03*
X134620000Y-66460000D03*
X134620000Y-68160000D03*
X134620000Y-70270000D03*
X134620000Y-71970000D03*
X137160000Y-66460000D03*
X137160000Y-68160000D03*
X137160000Y-70270000D03*
X137160000Y-71970000D03*
D27*
X160815000Y-74295000D03*
X155415000Y-74295000D03*
X160815000Y-75565000D03*
X160815000Y-73025000D03*
X160815000Y-71755000D03*
X155415000Y-75565000D03*
X155415000Y-73025000D03*
X155415000Y-71755000D03*
D28*
X170815000Y-82550000D03*
X129540000Y-82550000D03*
D19*
X125095000Y-71435000D03*
X125095000Y-69535000D03*
D21*
X105730000Y-67310000D03*
X107630000Y-67310000D03*
D15*
X127635000Y-69635000D03*
X127635000Y-71335000D03*
D16*
X111545000Y-67310000D03*
X113245000Y-67310000D03*
X145630000Y-68580000D03*
X143930000Y-68580000D03*
D28*
X144780000Y-73025000D03*
D29*
X168910000Y-77530000D03*
X168910000Y-72330000D03*
D30*
X169926000Y-67310000D03*
X165354000Y-67310000D03*
D31*
X157840000Y-67310000D03*
X152040000Y-67310000D03*
D32*
X129540000Y-66675000D03*
X126365000Y-66675000D03*
D33*
X93980000Y-82550000D03*
D16*
X128485000Y-78105000D03*
X126785000Y-78105000D03*
D34*
X184320000Y-69596000D03*
X186520000Y-69596000D03*
X186520000Y-68946000D03*
X184320000Y-68946000D03*
X184320000Y-70246000D03*
X186520000Y-70246000D03*
D16*
X182665000Y-66675000D03*
X184365000Y-66675000D03*
D15*
X181610000Y-74715000D03*
X181610000Y-76415000D03*
X183515000Y-76415000D03*
X183515000Y-74715000D03*
M02*
