M48
INCH,TZ
T1C0.018
T2C0.020
T3C0.024
T4C0.089
%
G90
G05
T1
X36750Y-50750
X36750Y-54500
X38000Y-53000
X38500Y-23500
X38500Y-47000
X38505Y-22495
X39000Y-38750
X39500Y-42750
X40250Y-55750
X40500Y-37500
X40750Y-49500
X40750Y-50500
X40750Y-56750
X41750Y-37500
X42000Y-40750
X42000Y-45250
X42250Y-31250
X43500Y-31000
X43500Y-31500
X43500Y-53500
X44000Y-29000
X44000Y-28000
X44250Y-28500
X44500Y-47000
X44750Y-50750
X44750Y-50000
X45750Y-22500
X46250Y-22500
X46750Y-50750
X46750Y-54500
X48000Y-53000
X48250Y-31500
X48250Y-37750
X48500Y-47000
X49500Y-42750
X50250Y-55750
X50750Y-49500
X50750Y-50500
X50750Y-56750
X51000Y-23500
X51005Y-22495
X52000Y-27250
X52000Y-45250
X53000Y-27250
X53500Y-53500
X54000Y-27250
X54500Y-47000
X54750Y-50750
X54750Y-50000
X55750Y-27000
X55750Y-37750
X56750Y-50750
X56750Y-54500
X57500Y-31250
X58000Y-53000
X58250Y-22500
X58500Y-31250
X58500Y-47000
X58750Y-22500
X59500Y-31250
X59500Y-42750
X60250Y-55750
X60500Y-31250
X60750Y-49500
X60750Y-50500
X60750Y-56750
X62000Y-45250
X62000Y-29250
X63250Y-37750
X63500Y-23500
X63500Y-53500
X63505Y-22495
X64500Y-47000
X64750Y-50750
X64750Y-50000
X66750Y-50750
X66750Y-54500
X68000Y-53000
X68500Y-47000
X69500Y-42750
X70250Y-55750
X70750Y-22500
X70750Y-49500
X70750Y-50500
X70750Y-56750
X71250Y-22500
X72000Y-45250
X73000Y-31750
X73500Y-53500
X73750Y-31750
X74500Y-31750
X74500Y-47000
X74750Y-50750
X74750Y-50000
T2
X40100Y-46625
X40100Y-47375
X40100Y-52625
X40100Y-53375
X40750Y-46250
X40750Y-47750
X40750Y-52250
X40750Y-53750
X41250Y-22500
X41400Y-46625
X41400Y-47375
X41400Y-52625
X41400Y-53375
X41625Y-21850
X41625Y-23150
X42375Y-21850
X42375Y-23150
X42750Y-22500
X50100Y-46625
X50100Y-47375
X50100Y-52625
X50100Y-53375
X50750Y-46250
X50750Y-47750
X50750Y-52250
X50750Y-53750
X51400Y-46625
X51400Y-47375
X51400Y-52625
X51400Y-53375
X53750Y-22500
X54125Y-21850
X54125Y-23150
X54875Y-21850
X54875Y-23150
X55250Y-22500
X60100Y-46625
X60100Y-47375
X60100Y-52625
X60100Y-53375
X60750Y-46250
X60750Y-47750
X60750Y-52250
X60750Y-53750
X61400Y-46625
X61400Y-47375
X61400Y-52625
X61400Y-53375
X66250Y-22500
X66625Y-21850
X66625Y-23150
X67375Y-21850
X67375Y-23150
X67750Y-22500
X70100Y-46625
X70100Y-47375
X70100Y-52625
X70100Y-53375
X70750Y-46250
X70750Y-47750
X70750Y-52250
X70750Y-53750
X71400Y-46625
X71400Y-47375
X71400Y-52625
X71400Y-53375
T3
X36750Y-36500
X36750Y-37000
X36750Y-44500
X36750Y-45000
X36750Y-45500
X37000Y-55250
X37250Y-44500
X37500Y-35000
X37500Y-55750
X38000Y-27250
X38000Y-35000
X38000Y-56250
X38250Y-45000
X38250Y-45500
X38500Y-30500
X38500Y-31250
X38500Y-56750
X38750Y-26500
X38750Y-27250
X38750Y-45000
X38750Y-45500
X38750Y-54500
X38750Y-55000
X39000Y-49000
X39000Y-49500
X39000Y-50500
X39000Y-51000
X39000Y-57250
X39250Y-45000
X39250Y-45500
X39250Y-54500
X39250Y-55000
X39500Y-27250
X39500Y-29750
X39500Y-31500
X39500Y-37000
X39500Y-48500
X39500Y-49000
X39500Y-49500
X39500Y-50500
X39500Y-51000
X39500Y-51500
X39750Y-22500
X40000Y-39000
X40000Y-35500
X40000Y-40250
X40500Y-22500
X40750Y-26500
X40750Y-27000
X40750Y-28000
X40989Y-21489
X41000Y-21000
X41500Y-21000
X41750Y-27250
X41750Y-30500
X41783Y-29533
X42000Y-48500
X42000Y-49000
X42250Y-42750
X42250Y-43250
X42250Y-54500
X42250Y-55000
X42500Y-24000
X42500Y-27250
X42500Y-30500
X42500Y-49000
X42500Y-57250
X42750Y-42750
X42750Y-43250
X42750Y-54500
X42750Y-55000
X43000Y-23500
X43000Y-24000
X43000Y-56750
X43250Y-26500
X43250Y-27210
X43250Y-37500
X43500Y-22500
X43500Y-56250
X43750Y-38000
X44000Y-55750
X44250Y-22500
X44250Y-44500
X44500Y-27250
X44500Y-55250
X44750Y-29500
X44750Y-44500
X44750Y-45000
X44750Y-45500
X45250Y-26500
X45250Y-27250
X46000Y-30750
X46000Y-31500
X46750Y-44500
X46750Y-45000
X46750Y-45500
X47000Y-55250
X47050Y-27350
X47250Y-44500
X47500Y-30750
X47500Y-31500
X47500Y-55750
X47850Y-26550
X47850Y-27350
X48000Y-56250
X48250Y-45000
X48250Y-45500
X48500Y-56750
X48750Y-45000
X48750Y-45500
X48750Y-54500
X48750Y-55000
X49000Y-30250
X49000Y-49000
X49000Y-49500
X49000Y-50500
X49000Y-51000
X49000Y-57250
X49250Y-26750
X49250Y-45000
X49250Y-45500
X49250Y-54500
X49250Y-55000
X49500Y-48500
X49500Y-49000
X49500Y-49500
X49500Y-50500
X49500Y-51000
X49500Y-51500
X50250Y-26750
X51250Y-30750
X52000Y-48500
X52000Y-49000
X52250Y-22500
X52250Y-42750
X52250Y-43250
X52250Y-54500
X52250Y-55000
X52500Y-49000
X52500Y-57250
X52750Y-42750
X52750Y-43250
X52750Y-54500
X52750Y-55000
X53000Y-22500
X53000Y-56750
X53489Y-21489
X53500Y-21000
X53500Y-29250
X53500Y-56250
X54000Y-21000
X54000Y-55750
X54250Y-31500
X54250Y-44500
X54500Y-55250
X54750Y-26500
X54750Y-30250
X54750Y-44500
X54750Y-45000
X54750Y-45500
X55000Y-24000
X55000Y-31500
X55500Y-23500
X55500Y-24000
X55750Y-31500
X56000Y-22500
X56250Y-31000
X56750Y-22500
X56750Y-44500
X56750Y-45000
X56750Y-45500
X57000Y-55250
X57250Y-44500
X57500Y-55750
X58000Y-26250
X58000Y-27000
X58000Y-56250
X58250Y-45000
X58250Y-45500
X58500Y-56750
X58750Y-27000
X58750Y-26250
X58750Y-45000
X58750Y-45500
X58750Y-54500
X58750Y-55000
X59000Y-49000
X59000Y-49500
X59000Y-50500
X59000Y-51000
X59000Y-57250
X59250Y-45000
X59250Y-45500
X59250Y-54500
X59250Y-55000
X59500Y-48500
X59500Y-49000
X59500Y-49500
X59500Y-50500
X59500Y-51000
X59500Y-51500
X60250Y-29790
X62000Y-48500
X62000Y-49000
X62250Y-28250
X62250Y-30750
X62250Y-31500
X62250Y-42750
X62250Y-43250
X62250Y-54500
X62250Y-55000
X62500Y-49000
X62500Y-57250
X62750Y-42750
X62750Y-43250
X62750Y-54500
X62750Y-55000
X63000Y-26250
X63000Y-27000
X63000Y-27750
X63000Y-30750
X63000Y-31500
X63000Y-56750
X63500Y-56250
X63750Y-26250
X63750Y-27000
X63750Y-27750
X64000Y-55750
X64250Y-29000
X64250Y-44500
X64500Y-27750
X64500Y-55250
X64750Y-22500
X64750Y-44500
X64750Y-45000
X64750Y-45500
X65000Y-29000
X65000Y-29750
X65000Y-30500
X65000Y-31250
X65500Y-22500
X65989Y-21489
X66000Y-21000
X66500Y-21000
X66750Y-44500
X66750Y-45000
X66750Y-45500
X67000Y-55250
X67250Y-44500
X67500Y-24000
X67500Y-55750
X68000Y-23500
X68000Y-24000
X68000Y-26500
X68000Y-27250
X68000Y-28000
X68000Y-28750
X68000Y-29750
X68000Y-30500
X68000Y-31250
X68000Y-56250
X68250Y-45000
X68250Y-45500
X68500Y-22500
X68500Y-56750
X68750Y-45000
X68750Y-45500
X68750Y-54500
X68750Y-55000
X69000Y-49000
X69000Y-49500
X69000Y-50500
X69000Y-51000
X69000Y-57250
X69250Y-22500
X69250Y-45000
X69250Y-45500
X69250Y-54500
X69250Y-55000
X69500Y-48500
X69500Y-49000
X69500Y-49500
X69500Y-50500
X69500Y-51000
X69500Y-51500
X71500Y-27000
X71500Y-31750
X71750Y-28250
X72000Y-48500
X72000Y-49000
X72250Y-31750
X72250Y-42750
X72250Y-43250
X72250Y-54500
X72250Y-55000
X72500Y-49000
X72500Y-57250
X72750Y-42750
X72750Y-43250
X72750Y-54500
X72750Y-55000
X73000Y-56750
X73250Y-26250
X73500Y-56250
X74000Y-55750
X74250Y-44500
X74500Y-55250
X74750Y-44500
X74750Y-45000
X74750Y-45500
T4
X40750Y-47000
X40750Y-53000
X42000Y-22500
X50750Y-47000
X50750Y-53000
X54500Y-22500
X60750Y-47000
X60750Y-53000
X67000Y-22500
X70750Y-47000
X70750Y-53000
T0
M30
