M48
INCH,TZ
T1C0.030
%
G90
G05
T1
X40250Y-33400
X40250Y-34100
X40250Y-41400
X40250Y-42100
X40750Y-33400
X40750Y-34100
X40750Y-41400
X40750Y-42100
X41250Y-33400
X41250Y-34100
X41250Y-41400
X41250Y-42100
X41500Y-24900
X41500Y-25600
X42000Y-24900
X42000Y-25600
X42500Y-24900
X42500Y-25600
X45400Y-49500
X45400Y-50000
X45400Y-50500
X46100Y-49500
X46100Y-50000
X46100Y-50500
X47900Y-22000
X47900Y-22500
X47900Y-23000
X48600Y-22000
X48600Y-22500
X48600Y-23000
X50250Y-41400
X50250Y-42100
X50750Y-41400
X50750Y-42100
X51250Y-41400
X51250Y-42100
X54000Y-24900
X54000Y-25600
X54500Y-24900
X54500Y-25600
X55000Y-24900
X55000Y-25600
X55250Y-33400
X55250Y-34100
X55400Y-49500
X55400Y-50000
X55400Y-50500
X55750Y-33400
X55750Y-34100
X56100Y-49500
X56100Y-50000
X56100Y-50500
X56250Y-33400
X56250Y-34100
X60250Y-41400
X60250Y-42100
X60400Y-22000
X60400Y-22500
X60400Y-23000
X60750Y-41400
X60750Y-42100
X61100Y-22000
X61100Y-22500
X61100Y-23000
X61250Y-41400
X61250Y-42100
X65400Y-49500
X65400Y-50000
X65400Y-50500
X66100Y-49500
X66100Y-50000
X66100Y-50500
X66500Y-24900
X66500Y-25600
X67000Y-24900
X67000Y-25600
X67500Y-24900
X67500Y-25600
X67500Y-33400
X67500Y-34100
X68000Y-33400
X68000Y-34100
X68500Y-33400
X68500Y-34100
X70150Y-29000
X70150Y-29500
X70150Y-30000
X70250Y-41400
X70250Y-42100
X70750Y-41400
X70750Y-42100
X70850Y-29000
X70850Y-29500
X70850Y-30000
X71250Y-41400
X71250Y-42100
T0
M30
