G04 #@! TF.FileFunction,Soldermask,Bot*
%FSLAX46Y46*%
G04 Gerber Fmt 4.6, Leading zero omitted, Abs format (unit mm)*
G04 Created by KiCad (PCBNEW (2016-05-03 BZR 6266)-product) date Thu Jul 21 04:02:18 2016*
%MOMM*%
%LPD*%
G01*
G04 APERTURE LIST*
%ADD10C,0.350000*%
%ADD11C,0.150000*%
%ADD12C,0.050000*%
%ADD13R,2.940000X4.210000*%
%ADD14C,5.480000*%
%ADD15O,1.670000X3.575000*%
%ADD16R,2.200000X2.000000*%
%ADD17O,3.575000X1.670000*%
%ADD18R,4.210000X2.940000*%
%ADD19O,1.416000X2.940000*%
G04 APERTURE END LIST*
D10*
D11*
X151130000Y-107315000D02*
X142875000Y-107315000D01*
X155575000Y-51435000D02*
X155575000Y-53975000D01*
X153035000Y-51435000D02*
X153035000Y-53975000D01*
X135255000Y-62865000D02*
X123825000Y-62865000D01*
X153035000Y-62865000D02*
X141605000Y-62865000D01*
X153035000Y-60325000D02*
X153035000Y-62865000D01*
X155575000Y-62865000D02*
X155575000Y-60325000D01*
X167005000Y-62865000D02*
X155575000Y-62865000D01*
X184785000Y-62865000D02*
X173355000Y-62865000D01*
X123825000Y-53975000D02*
X123825000Y-51435000D01*
X121285000Y-53975000D02*
X121285000Y-51435000D01*
X123825000Y-60325000D02*
X123825000Y-62865000D01*
X121285000Y-62865000D02*
X121285000Y-60325000D01*
X109855000Y-62865000D02*
X121285000Y-62865000D01*
X92075000Y-62865000D02*
X103505000Y-62865000D01*
X173355000Y-65405000D02*
X177800000Y-65405000D01*
X167005000Y-65405000D02*
X141605000Y-65405000D01*
X109855000Y-65405000D02*
X135255000Y-65405000D01*
X92075000Y-65405000D02*
X103505000Y-65405000D01*
X123825000Y-60325000D02*
G75*
G03X121285000Y-60325000I-1270000J0D01*
G01*
X121285000Y-53975000D02*
G75*
G03X123825000Y-53975000I1270000J0D01*
G01*
X153035000Y-53975000D02*
G75*
G03X155575000Y-53975000I1270000J0D01*
G01*
X155575000Y-60325000D02*
G75*
G03X153035000Y-60325000I-1270000J0D01*
G01*
X173355000Y-62865000D02*
G75*
G03X173355000Y-65405000I0J-1270000D01*
G01*
X167005000Y-65405000D02*
G75*
G03X167005000Y-62865000I0J1270000D01*
G01*
X141605000Y-62865000D02*
G75*
G03X141605000Y-65405000I0J-1270000D01*
G01*
X135255000Y-65405000D02*
G75*
G03X135255000Y-62865000I0J1270000D01*
G01*
X109855000Y-62865000D02*
G75*
G03X109855000Y-65405000I0J-1270000D01*
G01*
X103505000Y-65405000D02*
G75*
G03X103505000Y-62865000I0J1270000D01*
G01*
X180340000Y-78105000D02*
G75*
G03X177800000Y-78105000I-1270000J0D01*
G01*
X177800000Y-71755000D02*
G75*
G03X180340000Y-71755000I1270000J0D01*
G01*
X177800000Y-65405000D02*
X177800000Y-71755000D01*
X180340000Y-71755000D02*
X180340000Y-65405000D01*
X180340000Y-78105000D02*
X180340000Y-84455000D01*
X177800000Y-84455000D02*
X177800000Y-78105000D01*
X100330000Y-86995000D02*
G75*
G03X100330000Y-84455000I0J1270000D01*
G01*
X106680000Y-84455000D02*
G75*
G03X106680000Y-86995000I0J-1270000D01*
G01*
X138430000Y-86995000D02*
G75*
G03X138430000Y-84455000I0J1270000D01*
G01*
X144780000Y-84455000D02*
G75*
G03X144780000Y-86995000I0J-1270000D01*
G01*
X169545000Y-86995000D02*
G75*
G03X169545000Y-84455000I0J1270000D01*
G01*
X175895000Y-84455000D02*
G75*
G03X175895000Y-86995000I0J-1270000D01*
G01*
X175895000Y-84455000D02*
X177800000Y-84455000D01*
X144780000Y-84455000D02*
X169545000Y-84455000D01*
X106680000Y-84455000D02*
X138430000Y-84455000D01*
X92075000Y-84455000D02*
X100330000Y-84455000D01*
X175895000Y-86995000D02*
X191135000Y-86995000D01*
X144780000Y-86995000D02*
X169545000Y-86995000D01*
X106680000Y-86995000D02*
X138430000Y-86995000D01*
X92075000Y-86995000D02*
X100330000Y-86995000D01*
X100330000Y-107315000D02*
X92075000Y-107315000D01*
X114935000Y-107315000D02*
X106680000Y-107315000D01*
X125730000Y-107315000D02*
X117475000Y-107315000D01*
X140335000Y-107315000D02*
X132080000Y-107315000D01*
X165735000Y-107315000D02*
X157480000Y-107315000D01*
X100330000Y-104775000D02*
X92075000Y-104775000D01*
X125730000Y-104775000D02*
X106680000Y-104775000D01*
X151130000Y-104775000D02*
X132080000Y-104775000D01*
X176530000Y-104775000D02*
X157480000Y-104775000D01*
X176530000Y-107315000D02*
X168275000Y-107315000D01*
X182880000Y-107315000D02*
X191135000Y-107315000D01*
X191135000Y-104775000D02*
X182880000Y-104775000D01*
X182880000Y-104775000D02*
G75*
G03X182880000Y-107315000I0J-1270000D01*
G01*
X176530000Y-107315000D02*
G75*
G03X176530000Y-104775000I0J1270000D01*
G01*
X157480000Y-104775000D02*
G75*
G03X157480000Y-107315000I0J-1270000D01*
G01*
X151130000Y-107315000D02*
G75*
G03X151130000Y-104775000I0J1270000D01*
G01*
X132080000Y-104775000D02*
G75*
G03X132080000Y-107315000I0J-1270000D01*
G01*
X125730000Y-107315000D02*
G75*
G03X125730000Y-104775000I0J1270000D01*
G01*
X100330000Y-107315000D02*
G75*
G03X100330000Y-104775000I0J1270000D01*
G01*
X106680000Y-104775000D02*
G75*
G03X106680000Y-107315000I0J-1270000D01*
G01*
X140335000Y-123825000D02*
G75*
G03X142875000Y-123825000I1270000J0D01*
G01*
X165735000Y-123825000D02*
G75*
G03X168275000Y-123825000I1270000J0D01*
G01*
X168275000Y-130175000D02*
G75*
G03X165735000Y-130175000I-1270000J0D01*
G01*
X142875000Y-130175000D02*
G75*
G03X140335000Y-130175000I-1270000J0D01*
G01*
X117475000Y-130175000D02*
G75*
G03X114935000Y-130175000I-1270000J0D01*
G01*
X114935000Y-123825000D02*
G75*
G03X117475000Y-123825000I1270000J0D01*
G01*
X140335000Y-107315000D02*
X140335000Y-123825000D01*
X142875000Y-123825000D02*
X142875000Y-107315000D01*
X165735000Y-107315000D02*
X165735000Y-123825000D01*
X168275000Y-123825000D02*
X168275000Y-107315000D01*
X168275000Y-130175000D02*
X168275000Y-140335000D01*
X165735000Y-140335000D02*
X165735000Y-130175000D01*
X142875000Y-140335000D02*
X142875000Y-130175000D01*
X140335000Y-130175000D02*
X140335000Y-140335000D01*
X117475000Y-107315000D02*
X117475000Y-123825000D01*
X114935000Y-123825000D02*
X114935000Y-107315000D01*
X117475000Y-130175000D02*
X117475000Y-140335000D01*
X114935000Y-140335000D02*
X114935000Y-130175000D01*
X184785000Y-62865000D02*
X184785000Y-51435000D01*
X184785000Y-51435000D02*
X155575000Y-51435000D01*
X121285000Y-51435000D02*
X92075000Y-51435000D01*
X92075000Y-51435000D02*
X92075000Y-62865000D01*
X142875000Y-140335000D02*
X149225000Y-146685000D01*
X165735000Y-140335000D02*
X159385000Y-146685000D01*
X159385000Y-146685000D02*
X149225000Y-146685000D01*
X191135000Y-107315000D02*
X191135000Y-140335000D01*
X184785000Y-146685000D02*
X174625000Y-146685000D01*
X191135000Y-140335000D02*
X184785000Y-146685000D01*
X168275000Y-140335000D02*
X174625000Y-146685000D01*
X117475000Y-140335000D02*
X123825000Y-146685000D01*
X140335000Y-140335000D02*
X133985000Y-146685000D01*
X133985000Y-146685000D02*
X123825000Y-146685000D01*
X92075000Y-86995000D02*
X92075000Y-104775000D01*
X191135000Y-104775000D02*
X191135000Y-86995000D01*
X92075000Y-140335000D02*
X92075000Y-107315000D01*
X108585000Y-146685000D02*
X98425000Y-146685000D01*
X114935000Y-140335000D02*
X108585000Y-146685000D01*
X92075000Y-140335000D02*
X98425000Y-146685000D01*
X92075000Y-84455000D02*
X92075000Y-65405000D01*
X190500000Y-65405000D02*
X180340000Y-65405000D01*
X190500000Y-84455000D02*
X190500000Y-65405000D01*
X180340000Y-84455000D02*
X190500000Y-84455000D01*
X153035000Y-51435000D02*
X123825000Y-51435000D01*
D12*
G36*
X93454621Y-75131040D02*
X93517702Y-75127773D01*
X93572055Y-75115688D01*
X93585139Y-75110484D01*
X93645455Y-75072676D01*
X93705196Y-75014798D01*
X93763658Y-74937948D01*
X93816271Y-74849707D01*
X93432752Y-74849707D01*
X93418350Y-74823708D01*
X93407208Y-74789655D01*
X93400530Y-74737853D01*
X93398220Y-74671223D01*
X93400180Y-74592683D01*
X93406313Y-74505154D01*
X93416522Y-74411556D01*
X93430709Y-74314810D01*
X93436412Y-74281770D01*
X93444635Y-74237671D01*
X93451305Y-74210400D01*
X93458422Y-74195918D01*
X93467984Y-74190186D01*
X93481990Y-74189166D01*
X93482255Y-74189166D01*
X93500082Y-74187226D01*
X93518222Y-74180044D01*
X93538999Y-74165574D01*
X93564734Y-74141773D01*
X93597749Y-74106597D01*
X93640366Y-74058001D01*
X93668140Y-74025518D01*
X93704364Y-73983160D01*
X93735514Y-73947180D01*
X93759149Y-73920365D01*
X93772825Y-73905499D01*
X93775185Y-73903416D01*
X93776244Y-73909593D01*
X93773377Y-73929143D01*
X93766254Y-73963596D01*
X93754545Y-74014483D01*
X93737918Y-74083333D01*
X93724862Y-74136250D01*
X93691206Y-74263293D01*
X93655158Y-74383688D01*
X93617607Y-74495127D01*
X93579443Y-74595304D01*
X93541556Y-74681913D01*
X93504836Y-74752648D01*
X93470172Y-74805203D01*
X93463738Y-74813124D01*
X93432752Y-74849707D01*
X93816271Y-74849707D01*
X93820137Y-74843224D01*
X93873931Y-74731721D01*
X93924336Y-74604537D01*
X93941795Y-74554291D01*
X93955314Y-74514008D01*
X93966422Y-74480952D01*
X93973259Y-74460654D01*
X93974246Y-74457745D01*
X93985402Y-74455714D01*
X94012240Y-74464454D01*
X94049215Y-74481558D01*
X94091647Y-74501281D01*
X94126495Y-74512132D01*
X94164037Y-74516595D01*
X94196810Y-74517250D01*
X94260170Y-74511959D01*
X94320242Y-74494985D01*
X94380113Y-74464674D01*
X94442871Y-74419374D01*
X94511605Y-74357429D01*
X94530833Y-74338396D01*
X94627720Y-74228821D01*
X94640988Y-74210333D01*
X94178098Y-74210333D01*
X94160399Y-74200307D01*
X94144288Y-74172417D01*
X94130436Y-74129948D01*
X94119517Y-74076182D01*
X94112202Y-74014403D01*
X94109165Y-73947894D01*
X94110922Y-73882250D01*
X94128033Y-73727344D01*
X94158531Y-73569916D01*
X94165254Y-73542400D01*
X94175111Y-73508124D01*
X94187165Y-73480065D01*
X94204888Y-73452576D01*
X94231748Y-73420014D01*
X94258900Y-73390035D01*
X94334879Y-73307644D01*
X94368580Y-73325072D01*
X94412595Y-73339435D01*
X94460097Y-73341768D01*
X94502933Y-73332296D01*
X94523359Y-73320765D01*
X94544434Y-73295754D01*
X94560911Y-73261703D01*
X94563088Y-73254619D01*
X94580880Y-73192216D01*
X94596322Y-73145734D01*
X94611326Y-73110360D01*
X94627803Y-73081281D01*
X94637542Y-73067113D01*
X94656742Y-73043551D01*
X94671524Y-73030693D01*
X94676633Y-73030043D01*
X94685534Y-73047225D01*
X94694959Y-73078102D01*
X94703145Y-73115325D01*
X94708326Y-73151546D01*
X94709210Y-73165675D01*
X94707534Y-73196109D01*
X94702144Y-73238345D01*
X94694179Y-73283581D01*
X94693593Y-73286450D01*
X94667468Y-73387463D01*
X94629312Y-73499426D01*
X94581240Y-73617547D01*
X94525365Y-73737031D01*
X94463804Y-73853084D01*
X94398671Y-73960912D01*
X94390617Y-73973219D01*
X94353197Y-74026913D01*
X94313608Y-74078641D01*
X94274417Y-74125539D01*
X94238192Y-74164745D01*
X94207497Y-74193393D01*
X94184901Y-74208622D01*
X94178098Y-74210333D01*
X94640988Y-74210333D01*
X94718723Y-74102022D01*
X94802044Y-73961547D01*
X94875884Y-73810939D01*
X94938444Y-73653746D01*
X94987926Y-73493512D01*
X95012224Y-73389412D01*
X95025782Y-73308172D01*
X95034361Y-73225719D01*
X95037822Y-73146890D01*
X95036025Y-73076520D01*
X95028830Y-73019446D01*
X95023529Y-72998541D01*
X95001023Y-72940389D01*
X94969943Y-72885436D01*
X94938960Y-72842042D01*
X94902174Y-72793849D01*
X94923319Y-72753320D01*
X94939997Y-72701130D01*
X94937970Y-72649543D01*
X94919507Y-72602005D01*
X94886878Y-72561959D01*
X94842353Y-72532849D01*
X94788202Y-72518120D01*
X94767582Y-72517000D01*
X94729267Y-72519091D01*
X94695160Y-72524404D01*
X94682873Y-72527932D01*
X94656391Y-72542967D01*
X94617205Y-72572149D01*
X94566853Y-72613963D01*
X94506874Y-72666899D01*
X94438805Y-72729443D01*
X94364185Y-72800082D01*
X94284552Y-72877305D01*
X94201443Y-72959599D01*
X94116399Y-73045451D01*
X94030956Y-73133349D01*
X93946652Y-73221780D01*
X93865027Y-73309232D01*
X93787617Y-73394192D01*
X93715963Y-73475149D01*
X93695466Y-73498838D01*
X93665179Y-73533692D01*
X93640712Y-73561166D01*
X93624836Y-73578194D01*
X93620166Y-73582163D01*
X93623410Y-73571175D01*
X93632321Y-73543886D01*
X93645663Y-73504008D01*
X93662204Y-73455249D01*
X93668508Y-73436809D01*
X93709052Y-73324539D01*
X93746625Y-73233138D01*
X93781213Y-73162631D01*
X93812806Y-73113045D01*
X93821014Y-73103026D01*
X93846517Y-73059687D01*
X93853521Y-73012466D01*
X93843060Y-72965645D01*
X93816163Y-72923505D01*
X93773863Y-72890328D01*
X93769170Y-72887843D01*
X93712230Y-72869915D01*
X93654038Y-72871654D01*
X93598691Y-72892248D01*
X93550282Y-72930883D01*
X93549840Y-72931365D01*
X93527831Y-72961724D01*
X93500667Y-73009220D01*
X93469662Y-73070839D01*
X93436132Y-73143564D01*
X93401391Y-73224380D01*
X93366756Y-73310271D01*
X93333540Y-73398222D01*
X93303059Y-73485217D01*
X93287482Y-73533000D01*
X93251365Y-73654010D01*
X93217359Y-73781035D01*
X93185927Y-73911384D01*
X93157535Y-74042367D01*
X93132643Y-74171293D01*
X93111717Y-74295472D01*
X93095219Y-74412213D01*
X93083613Y-74518825D01*
X93077361Y-74612618D01*
X93076928Y-74690901D01*
X93080400Y-74735543D01*
X93101482Y-74835958D01*
X93136789Y-74924679D01*
X93185146Y-74999976D01*
X93245379Y-75060115D01*
X93316315Y-75103363D01*
X93334839Y-75111050D01*
X93390953Y-75125472D01*
X93454621Y-75131040D01*
X93454621Y-75131040D01*
X93454621Y-75131040D01*
G37*
X93454621Y-75131040D02*
X93517702Y-75127773D01*
X93572055Y-75115688D01*
X93585139Y-75110484D01*
X93645455Y-75072676D01*
X93705196Y-75014798D01*
X93763658Y-74937948D01*
X93816271Y-74849707D01*
X93432752Y-74849707D01*
X93418350Y-74823708D01*
X93407208Y-74789655D01*
X93400530Y-74737853D01*
X93398220Y-74671223D01*
X93400180Y-74592683D01*
X93406313Y-74505154D01*
X93416522Y-74411556D01*
X93430709Y-74314810D01*
X93436412Y-74281770D01*
X93444635Y-74237671D01*
X93451305Y-74210400D01*
X93458422Y-74195918D01*
X93467984Y-74190186D01*
X93481990Y-74189166D01*
X93482255Y-74189166D01*
X93500082Y-74187226D01*
X93518222Y-74180044D01*
X93538999Y-74165574D01*
X93564734Y-74141773D01*
X93597749Y-74106597D01*
X93640366Y-74058001D01*
X93668140Y-74025518D01*
X93704364Y-73983160D01*
X93735514Y-73947180D01*
X93759149Y-73920365D01*
X93772825Y-73905499D01*
X93775185Y-73903416D01*
X93776244Y-73909593D01*
X93773377Y-73929143D01*
X93766254Y-73963596D01*
X93754545Y-74014483D01*
X93737918Y-74083333D01*
X93724862Y-74136250D01*
X93691206Y-74263293D01*
X93655158Y-74383688D01*
X93617607Y-74495127D01*
X93579443Y-74595304D01*
X93541556Y-74681913D01*
X93504836Y-74752648D01*
X93470172Y-74805203D01*
X93463738Y-74813124D01*
X93432752Y-74849707D01*
X93816271Y-74849707D01*
X93820137Y-74843224D01*
X93873931Y-74731721D01*
X93924336Y-74604537D01*
X93941795Y-74554291D01*
X93955314Y-74514008D01*
X93966422Y-74480952D01*
X93973259Y-74460654D01*
X93974246Y-74457745D01*
X93985402Y-74455714D01*
X94012240Y-74464454D01*
X94049215Y-74481558D01*
X94091647Y-74501281D01*
X94126495Y-74512132D01*
X94164037Y-74516595D01*
X94196810Y-74517250D01*
X94260170Y-74511959D01*
X94320242Y-74494985D01*
X94380113Y-74464674D01*
X94442871Y-74419374D01*
X94511605Y-74357429D01*
X94530833Y-74338396D01*
X94627720Y-74228821D01*
X94640988Y-74210333D01*
X94178098Y-74210333D01*
X94160399Y-74200307D01*
X94144288Y-74172417D01*
X94130436Y-74129948D01*
X94119517Y-74076182D01*
X94112202Y-74014403D01*
X94109165Y-73947894D01*
X94110922Y-73882250D01*
X94128033Y-73727344D01*
X94158531Y-73569916D01*
X94165254Y-73542400D01*
X94175111Y-73508124D01*
X94187165Y-73480065D01*
X94204888Y-73452576D01*
X94231748Y-73420014D01*
X94258900Y-73390035D01*
X94334879Y-73307644D01*
X94368580Y-73325072D01*
X94412595Y-73339435D01*
X94460097Y-73341768D01*
X94502933Y-73332296D01*
X94523359Y-73320765D01*
X94544434Y-73295754D01*
X94560911Y-73261703D01*
X94563088Y-73254619D01*
X94580880Y-73192216D01*
X94596322Y-73145734D01*
X94611326Y-73110360D01*
X94627803Y-73081281D01*
X94637542Y-73067113D01*
X94656742Y-73043551D01*
X94671524Y-73030693D01*
X94676633Y-73030043D01*
X94685534Y-73047225D01*
X94694959Y-73078102D01*
X94703145Y-73115325D01*
X94708326Y-73151546D01*
X94709210Y-73165675D01*
X94707534Y-73196109D01*
X94702144Y-73238345D01*
X94694179Y-73283581D01*
X94693593Y-73286450D01*
X94667468Y-73387463D01*
X94629312Y-73499426D01*
X94581240Y-73617547D01*
X94525365Y-73737031D01*
X94463804Y-73853084D01*
X94398671Y-73960912D01*
X94390617Y-73973219D01*
X94353197Y-74026913D01*
X94313608Y-74078641D01*
X94274417Y-74125539D01*
X94238192Y-74164745D01*
X94207497Y-74193393D01*
X94184901Y-74208622D01*
X94178098Y-74210333D01*
X94640988Y-74210333D01*
X94718723Y-74102022D01*
X94802044Y-73961547D01*
X94875884Y-73810939D01*
X94938444Y-73653746D01*
X94987926Y-73493512D01*
X95012224Y-73389412D01*
X95025782Y-73308172D01*
X95034361Y-73225719D01*
X95037822Y-73146890D01*
X95036025Y-73076520D01*
X95028830Y-73019446D01*
X95023529Y-72998541D01*
X95001023Y-72940389D01*
X94969943Y-72885436D01*
X94938960Y-72842042D01*
X94902174Y-72793849D01*
X94923319Y-72753320D01*
X94939997Y-72701130D01*
X94937970Y-72649543D01*
X94919507Y-72602005D01*
X94886878Y-72561959D01*
X94842353Y-72532849D01*
X94788202Y-72518120D01*
X94767582Y-72517000D01*
X94729267Y-72519091D01*
X94695160Y-72524404D01*
X94682873Y-72527932D01*
X94656391Y-72542967D01*
X94617205Y-72572149D01*
X94566853Y-72613963D01*
X94506874Y-72666899D01*
X94438805Y-72729443D01*
X94364185Y-72800082D01*
X94284552Y-72877305D01*
X94201443Y-72959599D01*
X94116399Y-73045451D01*
X94030956Y-73133349D01*
X93946652Y-73221780D01*
X93865027Y-73309232D01*
X93787617Y-73394192D01*
X93715963Y-73475149D01*
X93695466Y-73498838D01*
X93665179Y-73533692D01*
X93640712Y-73561166D01*
X93624836Y-73578194D01*
X93620166Y-73582163D01*
X93623410Y-73571175D01*
X93632321Y-73543886D01*
X93645663Y-73504008D01*
X93662204Y-73455249D01*
X93668508Y-73436809D01*
X93709052Y-73324539D01*
X93746625Y-73233138D01*
X93781213Y-73162631D01*
X93812806Y-73113045D01*
X93821014Y-73103026D01*
X93846517Y-73059687D01*
X93853521Y-73012466D01*
X93843060Y-72965645D01*
X93816163Y-72923505D01*
X93773863Y-72890328D01*
X93769170Y-72887843D01*
X93712230Y-72869915D01*
X93654038Y-72871654D01*
X93598691Y-72892248D01*
X93550282Y-72930883D01*
X93549840Y-72931365D01*
X93527831Y-72961724D01*
X93500667Y-73009220D01*
X93469662Y-73070839D01*
X93436132Y-73143564D01*
X93401391Y-73224380D01*
X93366756Y-73310271D01*
X93333540Y-73398222D01*
X93303059Y-73485217D01*
X93287482Y-73533000D01*
X93251365Y-73654010D01*
X93217359Y-73781035D01*
X93185927Y-73911384D01*
X93157535Y-74042367D01*
X93132643Y-74171293D01*
X93111717Y-74295472D01*
X93095219Y-74412213D01*
X93083613Y-74518825D01*
X93077361Y-74612618D01*
X93076928Y-74690901D01*
X93080400Y-74735543D01*
X93101482Y-74835958D01*
X93136789Y-74924679D01*
X93185146Y-74999976D01*
X93245379Y-75060115D01*
X93316315Y-75103363D01*
X93334839Y-75111050D01*
X93390953Y-75125472D01*
X93454621Y-75131040D01*
X93454621Y-75131040D01*
G36*
X93098697Y-77554583D02*
X93146163Y-77548048D01*
X93192653Y-77530308D01*
X93232663Y-77502425D01*
X93247383Y-77486479D01*
X93255181Y-77474276D01*
X93261114Y-77458018D01*
X93265632Y-77434353D01*
X93269185Y-77399933D01*
X93272224Y-77351409D01*
X93275199Y-77285432D01*
X93275533Y-77277163D01*
X93278385Y-77211217D01*
X93282201Y-77130282D01*
X93286674Y-77040493D01*
X93291494Y-76947989D01*
X93296355Y-76858908D01*
X93298006Y-76829708D01*
X93302161Y-76756574D01*
X93305884Y-76690163D01*
X93309011Y-76633489D01*
X93311376Y-76589563D01*
X93312816Y-76561398D01*
X93313190Y-76552297D01*
X93319651Y-76539460D01*
X93337146Y-76514331D01*
X93362917Y-76480676D01*
X93390694Y-76446464D01*
X93417403Y-76415072D01*
X93452924Y-76374320D01*
X93495065Y-76326628D01*
X93541633Y-76274416D01*
X93590436Y-76220105D01*
X93639282Y-76166114D01*
X93685977Y-76114864D01*
X93728330Y-76068774D01*
X93764147Y-76030265D01*
X93791237Y-76001757D01*
X93807406Y-75985669D01*
X93810401Y-75983205D01*
X93813848Y-75990736D01*
X93815664Y-76016967D01*
X93815791Y-76059489D01*
X93814170Y-76115892D01*
X93813855Y-76123483D01*
X93811711Y-76196285D01*
X93812843Y-76252094D01*
X93817992Y-76294932D01*
X93827897Y-76328819D01*
X93843300Y-76357779D01*
X93861409Y-76381691D01*
X93899304Y-76415535D01*
X93944829Y-76439486D01*
X93992093Y-76451670D01*
X94035200Y-76450215D01*
X94054669Y-76443102D01*
X94067349Y-76435192D01*
X94077693Y-76424957D01*
X94085987Y-76410254D01*
X94092514Y-76388945D01*
X94097559Y-76358886D01*
X94101405Y-76317937D01*
X94104337Y-76263956D01*
X94106639Y-76194802D01*
X94108594Y-76108335D01*
X94110099Y-76025375D01*
X94111841Y-75940329D01*
X94114007Y-75861153D01*
X94116481Y-75790569D01*
X94119147Y-75731300D01*
X94121888Y-75686068D01*
X94124587Y-75657596D01*
X94126184Y-75649567D01*
X94137132Y-75632933D01*
X94161215Y-75603809D01*
X94196321Y-75564384D01*
X94240334Y-75516847D01*
X94291141Y-75463387D01*
X94346628Y-75406193D01*
X94404681Y-75347455D01*
X94463185Y-75289362D01*
X94520028Y-75234102D01*
X94573095Y-75183864D01*
X94598612Y-75160347D01*
X94694306Y-75075557D01*
X94778843Y-75005934D01*
X94854134Y-74949994D01*
X94922090Y-74906252D01*
X94935499Y-74898538D01*
X94985198Y-74864882D01*
X95014805Y-74830008D01*
X95025366Y-74791566D01*
X95017924Y-74747207D01*
X95010890Y-74728992D01*
X94978002Y-74675287D01*
X94930127Y-74634183D01*
X94906858Y-74620905D01*
X94867776Y-74607283D01*
X94825114Y-74605845D01*
X94776837Y-74617325D01*
X94720905Y-74642457D01*
X94655280Y-74681977D01*
X94577926Y-74736618D01*
X94570466Y-74742193D01*
X94530336Y-74772562D01*
X94495850Y-74799495D01*
X94463328Y-74826139D01*
X94429093Y-74855644D01*
X94389464Y-74891159D01*
X94340765Y-74935832D01*
X94298487Y-74975000D01*
X94220099Y-75047784D01*
X94207095Y-75009958D01*
X94190551Y-74971478D01*
X94169727Y-74947903D01*
X94138344Y-74933068D01*
X94124732Y-74929075D01*
X94075810Y-74922727D01*
X94025115Y-74927425D01*
X93978199Y-74941471D01*
X93940616Y-74963167D01*
X93917918Y-74990814D01*
X93917188Y-74992533D01*
X93912049Y-75011640D01*
X93904566Y-75047798D01*
X93895401Y-75097105D01*
X93885215Y-75155659D01*
X93874669Y-75219559D01*
X93864425Y-75284904D01*
X93855144Y-75347791D01*
X93847786Y-75401981D01*
X93845225Y-75418211D01*
X93840960Y-75433550D01*
X93833439Y-75450113D01*
X93821112Y-75470015D01*
X93802427Y-75495372D01*
X93775833Y-75528297D01*
X93739777Y-75570907D01*
X93692710Y-75625316D01*
X93637917Y-75688105D01*
X93583870Y-75749973D01*
X93532421Y-75808938D01*
X93485780Y-75862462D01*
X93446157Y-75908006D01*
X93415762Y-75943034D01*
X93396804Y-75965006D01*
X93395270Y-75966799D01*
X93374287Y-75989580D01*
X93359902Y-76001737D01*
X93355583Y-76001422D01*
X93356655Y-75987608D01*
X93359640Y-75956211D01*
X93364192Y-75910692D01*
X93369964Y-75854515D01*
X93376610Y-75791141D01*
X93377102Y-75786490D01*
X93386518Y-75704615D01*
X93395561Y-75639733D01*
X93404028Y-75593085D01*
X93411715Y-75565910D01*
X93414144Y-75561284D01*
X93422944Y-75537476D01*
X93428329Y-75501289D01*
X93429783Y-75461314D01*
X93426793Y-75426139D01*
X93423092Y-75412015D01*
X93404060Y-75389671D01*
X93370002Y-75373914D01*
X93326203Y-75365369D01*
X93277949Y-75364662D01*
X93230522Y-75372419D01*
X93196566Y-75385219D01*
X93166492Y-75404274D01*
X93142963Y-75425524D01*
X93138722Y-75431074D01*
X93130168Y-75453621D01*
X93120719Y-75495467D01*
X93110547Y-75554771D01*
X93099825Y-75629691D01*
X93088725Y-75718385D01*
X93077420Y-75819014D01*
X93066082Y-75929735D01*
X93054883Y-76048707D01*
X93043996Y-76174089D01*
X93033594Y-76304041D01*
X93023848Y-76436720D01*
X93014931Y-76570285D01*
X93007016Y-76702896D01*
X93000274Y-76832711D01*
X92994879Y-76957889D01*
X92994296Y-76973444D01*
X92990153Y-77099144D01*
X92987789Y-77205320D01*
X92987286Y-77293545D01*
X92988724Y-77365395D01*
X92992183Y-77422443D01*
X92997746Y-77466264D01*
X93005491Y-77498431D01*
X93015501Y-77520518D01*
X93022833Y-77529796D01*
X93055753Y-77548853D01*
X93098697Y-77554583D01*
X93098697Y-77554583D01*
X93098697Y-77554583D01*
G37*
X93098697Y-77554583D02*
X93146163Y-77548048D01*
X93192653Y-77530308D01*
X93232663Y-77502425D01*
X93247383Y-77486479D01*
X93255181Y-77474276D01*
X93261114Y-77458018D01*
X93265632Y-77434353D01*
X93269185Y-77399933D01*
X93272224Y-77351409D01*
X93275199Y-77285432D01*
X93275533Y-77277163D01*
X93278385Y-77211217D01*
X93282201Y-77130282D01*
X93286674Y-77040493D01*
X93291494Y-76947989D01*
X93296355Y-76858908D01*
X93298006Y-76829708D01*
X93302161Y-76756574D01*
X93305884Y-76690163D01*
X93309011Y-76633489D01*
X93311376Y-76589563D01*
X93312816Y-76561398D01*
X93313190Y-76552297D01*
X93319651Y-76539460D01*
X93337146Y-76514331D01*
X93362917Y-76480676D01*
X93390694Y-76446464D01*
X93417403Y-76415072D01*
X93452924Y-76374320D01*
X93495065Y-76326628D01*
X93541633Y-76274416D01*
X93590436Y-76220105D01*
X93639282Y-76166114D01*
X93685977Y-76114864D01*
X93728330Y-76068774D01*
X93764147Y-76030265D01*
X93791237Y-76001757D01*
X93807406Y-75985669D01*
X93810401Y-75983205D01*
X93813848Y-75990736D01*
X93815664Y-76016967D01*
X93815791Y-76059489D01*
X93814170Y-76115892D01*
X93813855Y-76123483D01*
X93811711Y-76196285D01*
X93812843Y-76252094D01*
X93817992Y-76294932D01*
X93827897Y-76328819D01*
X93843300Y-76357779D01*
X93861409Y-76381691D01*
X93899304Y-76415535D01*
X93944829Y-76439486D01*
X93992093Y-76451670D01*
X94035200Y-76450215D01*
X94054669Y-76443102D01*
X94067349Y-76435192D01*
X94077693Y-76424957D01*
X94085987Y-76410254D01*
X94092514Y-76388945D01*
X94097559Y-76358886D01*
X94101405Y-76317937D01*
X94104337Y-76263956D01*
X94106639Y-76194802D01*
X94108594Y-76108335D01*
X94110099Y-76025375D01*
X94111841Y-75940329D01*
X94114007Y-75861153D01*
X94116481Y-75790569D01*
X94119147Y-75731300D01*
X94121888Y-75686068D01*
X94124587Y-75657596D01*
X94126184Y-75649567D01*
X94137132Y-75632933D01*
X94161215Y-75603809D01*
X94196321Y-75564384D01*
X94240334Y-75516847D01*
X94291141Y-75463387D01*
X94346628Y-75406193D01*
X94404681Y-75347455D01*
X94463185Y-75289362D01*
X94520028Y-75234102D01*
X94573095Y-75183864D01*
X94598612Y-75160347D01*
X94694306Y-75075557D01*
X94778843Y-75005934D01*
X94854134Y-74949994D01*
X94922090Y-74906252D01*
X94935499Y-74898538D01*
X94985198Y-74864882D01*
X95014805Y-74830008D01*
X95025366Y-74791566D01*
X95017924Y-74747207D01*
X95010890Y-74728992D01*
X94978002Y-74675287D01*
X94930127Y-74634183D01*
X94906858Y-74620905D01*
X94867776Y-74607283D01*
X94825114Y-74605845D01*
X94776837Y-74617325D01*
X94720905Y-74642457D01*
X94655280Y-74681977D01*
X94577926Y-74736618D01*
X94570466Y-74742193D01*
X94530336Y-74772562D01*
X94495850Y-74799495D01*
X94463328Y-74826139D01*
X94429093Y-74855644D01*
X94389464Y-74891159D01*
X94340765Y-74935832D01*
X94298487Y-74975000D01*
X94220099Y-75047784D01*
X94207095Y-75009958D01*
X94190551Y-74971478D01*
X94169727Y-74947903D01*
X94138344Y-74933068D01*
X94124732Y-74929075D01*
X94075810Y-74922727D01*
X94025115Y-74927425D01*
X93978199Y-74941471D01*
X93940616Y-74963167D01*
X93917918Y-74990814D01*
X93917188Y-74992533D01*
X93912049Y-75011640D01*
X93904566Y-75047798D01*
X93895401Y-75097105D01*
X93885215Y-75155659D01*
X93874669Y-75219559D01*
X93864425Y-75284904D01*
X93855144Y-75347791D01*
X93847786Y-75401981D01*
X93845225Y-75418211D01*
X93840960Y-75433550D01*
X93833439Y-75450113D01*
X93821112Y-75470015D01*
X93802427Y-75495372D01*
X93775833Y-75528297D01*
X93739777Y-75570907D01*
X93692710Y-75625316D01*
X93637917Y-75688105D01*
X93583870Y-75749973D01*
X93532421Y-75808938D01*
X93485780Y-75862462D01*
X93446157Y-75908006D01*
X93415762Y-75943034D01*
X93396804Y-75965006D01*
X93395270Y-75966799D01*
X93374287Y-75989580D01*
X93359902Y-76001737D01*
X93355583Y-76001422D01*
X93356655Y-75987608D01*
X93359640Y-75956211D01*
X93364192Y-75910692D01*
X93369964Y-75854515D01*
X93376610Y-75791141D01*
X93377102Y-75786490D01*
X93386518Y-75704615D01*
X93395561Y-75639733D01*
X93404028Y-75593085D01*
X93411715Y-75565910D01*
X93414144Y-75561284D01*
X93422944Y-75537476D01*
X93428329Y-75501289D01*
X93429783Y-75461314D01*
X93426793Y-75426139D01*
X93423092Y-75412015D01*
X93404060Y-75389671D01*
X93370002Y-75373914D01*
X93326203Y-75365369D01*
X93277949Y-75364662D01*
X93230522Y-75372419D01*
X93196566Y-75385219D01*
X93166492Y-75404274D01*
X93142963Y-75425524D01*
X93138722Y-75431074D01*
X93130168Y-75453621D01*
X93120719Y-75495467D01*
X93110547Y-75554771D01*
X93099825Y-75629691D01*
X93088725Y-75718385D01*
X93077420Y-75819014D01*
X93066082Y-75929735D01*
X93054883Y-76048707D01*
X93043996Y-76174089D01*
X93033594Y-76304041D01*
X93023848Y-76436720D01*
X93014931Y-76570285D01*
X93007016Y-76702896D01*
X93000274Y-76832711D01*
X92994879Y-76957889D01*
X92994296Y-76973444D01*
X92990153Y-77099144D01*
X92987789Y-77205320D01*
X92987286Y-77293545D01*
X92988724Y-77365395D01*
X92992183Y-77422443D01*
X92997746Y-77466264D01*
X93005491Y-77498431D01*
X93015501Y-77520518D01*
X93022833Y-77529796D01*
X93055753Y-77548853D01*
X93098697Y-77554583D01*
X93098697Y-77554583D01*
D13*
X175260000Y-54610000D03*
X165100000Y-54610000D03*
X175260000Y-59690000D03*
X165100000Y-59690000D03*
D14*
X170180000Y-57150000D03*
D15*
X157480000Y-57150000D03*
X160020000Y-57150000D03*
D13*
X111760000Y-54610000D03*
X101600000Y-54610000D03*
X111760000Y-59690000D03*
X101600000Y-59690000D03*
D14*
X106680000Y-57150000D03*
D15*
X93980000Y-57150000D03*
X96520000Y-57150000D03*
D16*
X147320000Y-125600000D03*
X147320000Y-128400000D03*
X161290000Y-125600000D03*
X161290000Y-128400000D03*
D17*
X162560000Y-110490000D03*
X146050000Y-110490000D03*
D18*
X161290000Y-132080000D03*
X161290000Y-121920000D03*
X147320000Y-132080000D03*
X147320000Y-121920000D03*
D14*
X154305000Y-119380000D03*
X154305000Y-134620000D03*
X179705000Y-134620000D03*
X179705000Y-119380000D03*
D18*
X172720000Y-121920000D03*
X172720000Y-132080000D03*
X186690000Y-121920000D03*
X186690000Y-132080000D03*
D17*
X171450000Y-110490000D03*
X187960000Y-110490000D03*
D16*
X186690000Y-125600000D03*
X186690000Y-128400000D03*
X172720000Y-125600000D03*
X172720000Y-128400000D03*
X121920000Y-125600000D03*
X121920000Y-128400000D03*
X135890000Y-125600000D03*
X135890000Y-128400000D03*
D17*
X137160000Y-110490000D03*
X120650000Y-110490000D03*
D18*
X135890000Y-132080000D03*
X135890000Y-121920000D03*
X121920000Y-132080000D03*
X121920000Y-121920000D03*
D14*
X128905000Y-119380000D03*
X128905000Y-134620000D03*
X103505000Y-134620000D03*
X103505000Y-119380000D03*
D18*
X96520000Y-121920000D03*
X96520000Y-132080000D03*
X110490000Y-121920000D03*
X110490000Y-132080000D03*
D17*
X95250000Y-110490000D03*
X111760000Y-110490000D03*
D16*
X110490000Y-125600000D03*
X110490000Y-128400000D03*
X96520000Y-125600000D03*
X96520000Y-128400000D03*
D18*
X185420000Y-73025000D03*
D19*
X181610000Y-82550000D03*
X183515000Y-82550000D03*
X185420000Y-82550000D03*
X189230000Y-82550000D03*
X187325000Y-82550000D03*
D15*
X128270000Y-57150000D03*
X125730000Y-57150000D03*
D14*
X138430000Y-57150000D03*
D13*
X133350000Y-59690000D03*
X143510000Y-59690000D03*
X133350000Y-54610000D03*
X143510000Y-54610000D03*
M02*
