G04 #@! TF.GenerationSoftware,KiCad,Pcbnew,5.0.0-fee4fd1~65~ubuntu17.10.1*
G04 #@! TF.CreationDate,2018-10-29T14:39:41-04:00*
G04 #@! TF.ProjectId,rgb-lamp,7267622D6C616D702E6B696361645F70,rev?*
G04 #@! TF.SameCoordinates,Original*
G04 #@! TF.FileFunction,Legend,Top*
G04 #@! TF.FilePolarity,Positive*
%FSLAX46Y46*%
G04 Gerber Fmt 4.6, Leading zero omitted, Abs format (unit mm)*
G04 Created by KiCad (PCBNEW 5.0.0-fee4fd1~65~ubuntu17.10.1) date Mon Oct 29 14:39:41 2018*
%MOMM*%
%LPD*%
G01*
G04 APERTURE LIST*
%ADD10C,0.180000*%
%ADD11C,0.300000*%
G04 APERTURE END LIST*
D10*
G04 #@! TO.C,U1*
X116880000Y-80680000D02*
X118080000Y-80680000D01*
X118080000Y-80680000D02*
X118080000Y-78780000D01*
D11*
X116280000Y-78480000D02*
G75*
G03X116280000Y-78480000I-100000J0D01*
G01*
D10*
X116880000Y-83580000D02*
X116880000Y-83780000D01*
X116880000Y-83780000D02*
X121880000Y-83780000D01*
X121880000Y-83780000D02*
X121880000Y-83580000D01*
X116880000Y-80380000D02*
X116880000Y-82180000D01*
X121880000Y-78780000D02*
X116880000Y-78780000D01*
X116880000Y-78780000D02*
X116880000Y-78980000D01*
X121880000Y-78780000D02*
X121880000Y-78980000D01*
X121880000Y-82280000D02*
X121880000Y-80380000D01*
G04 #@! TO.C,U2*
X116880000Y-89570000D02*
X118080000Y-89570000D01*
X118080000Y-89570000D02*
X118080000Y-87670000D01*
D11*
X116280000Y-87370000D02*
G75*
G03X116280000Y-87370000I-100000J0D01*
G01*
D10*
X116880000Y-92470000D02*
X116880000Y-92670000D01*
X116880000Y-92670000D02*
X121880000Y-92670000D01*
X121880000Y-92670000D02*
X121880000Y-92470000D01*
X116880000Y-89270000D02*
X116880000Y-91070000D01*
X121880000Y-87670000D02*
X116880000Y-87670000D01*
X116880000Y-87670000D02*
X116880000Y-87870000D01*
X121880000Y-87670000D02*
X121880000Y-87870000D01*
X121880000Y-91170000D02*
X121880000Y-89270000D01*
G04 #@! TO.C,U3*
X121880000Y-99660000D02*
X120680000Y-99660000D01*
X120680000Y-99660000D02*
X120680000Y-101560000D01*
D11*
X122680000Y-101860000D02*
G75*
G03X122680000Y-101860000I-100000J0D01*
G01*
D10*
X121880000Y-96760000D02*
X121880000Y-96560000D01*
X121880000Y-96560000D02*
X116880000Y-96560000D01*
X116880000Y-96560000D02*
X116880000Y-96760000D01*
X121880000Y-99960000D02*
X121880000Y-98160000D01*
X116880000Y-101560000D02*
X121880000Y-101560000D01*
X121880000Y-101560000D02*
X121880000Y-101360000D01*
X116880000Y-101560000D02*
X116880000Y-101360000D01*
X116880000Y-98060000D02*
X116880000Y-99960000D01*
G04 #@! TO.C,C1*
X119507000Y-84836000D02*
X123063000Y-84836000D01*
X123063000Y-84836000D02*
X123063000Y-86614000D01*
X123063000Y-86614000D02*
X119507000Y-86614000D01*
X119507000Y-86614000D02*
X119507000Y-84836000D01*
G04 #@! TO.C,C2*
X123063000Y-95504000D02*
X119507000Y-95504000D01*
X119507000Y-95504000D02*
X119507000Y-93726000D01*
X119507000Y-93726000D02*
X123063000Y-93726000D01*
X123063000Y-93726000D02*
X123063000Y-95504000D01*
G04 #@! TO.C,C3*
X115697000Y-93726000D02*
X119253000Y-93726000D01*
X119253000Y-93726000D02*
X119253000Y-95504000D01*
X119253000Y-95504000D02*
X115697000Y-95504000D01*
X115697000Y-95504000D02*
X115697000Y-93726000D01*
G04 #@! TO.C,U1*
X122275095Y-80867380D02*
X122275095Y-81676904D01*
X122322714Y-81772142D01*
X122370333Y-81819761D01*
X122465571Y-81867380D01*
X122656047Y-81867380D01*
X122751285Y-81819761D01*
X122798904Y-81772142D01*
X122846523Y-81676904D01*
X122846523Y-80867380D01*
X123846523Y-81867380D02*
X123275095Y-81867380D01*
X123560809Y-81867380D02*
X123560809Y-80867380D01*
X123465571Y-81010238D01*
X123370333Y-81105476D01*
X123275095Y-81153095D01*
G04 #@! TO.C,U2*
X122275095Y-89757380D02*
X122275095Y-90566904D01*
X122322714Y-90662142D01*
X122370333Y-90709761D01*
X122465571Y-90757380D01*
X122656047Y-90757380D01*
X122751285Y-90709761D01*
X122798904Y-90662142D01*
X122846523Y-90566904D01*
X122846523Y-89757380D01*
X123275095Y-89852619D02*
X123322714Y-89805000D01*
X123417952Y-89757380D01*
X123656047Y-89757380D01*
X123751285Y-89805000D01*
X123798904Y-89852619D01*
X123846523Y-89947857D01*
X123846523Y-90043095D01*
X123798904Y-90185952D01*
X123227476Y-90757380D01*
X123846523Y-90757380D01*
G04 #@! TO.C,U3*
X122275095Y-98647380D02*
X122275095Y-99456904D01*
X122322714Y-99552142D01*
X122370333Y-99599761D01*
X122465571Y-99647380D01*
X122656047Y-99647380D01*
X122751285Y-99599761D01*
X122798904Y-99552142D01*
X122846523Y-99456904D01*
X122846523Y-98647380D01*
X123227476Y-98647380D02*
X123846523Y-98647380D01*
X123513190Y-99028333D01*
X123656047Y-99028333D01*
X123751285Y-99075952D01*
X123798904Y-99123571D01*
X123846523Y-99218809D01*
X123846523Y-99456904D01*
X123798904Y-99552142D01*
X123751285Y-99599761D01*
X123656047Y-99647380D01*
X123370333Y-99647380D01*
X123275095Y-99599761D01*
X123227476Y-99552142D01*
G04 #@! TO.C,C1*
X118274523Y-86217142D02*
X118226904Y-86264761D01*
X118084047Y-86312380D01*
X117988809Y-86312380D01*
X117845952Y-86264761D01*
X117750714Y-86169523D01*
X117703095Y-86074285D01*
X117655476Y-85883809D01*
X117655476Y-85740952D01*
X117703095Y-85550476D01*
X117750714Y-85455238D01*
X117845952Y-85360000D01*
X117988809Y-85312380D01*
X118084047Y-85312380D01*
X118226904Y-85360000D01*
X118274523Y-85407619D01*
X119226904Y-86312380D02*
X118655476Y-86312380D01*
X118941190Y-86312380D02*
X118941190Y-85312380D01*
X118845952Y-85455238D01*
X118750714Y-85550476D01*
X118655476Y-85598095D01*
G04 #@! TO.C,C2*
X124317142Y-94704476D02*
X124364761Y-94752095D01*
X124412380Y-94894952D01*
X124412380Y-94990190D01*
X124364761Y-95133047D01*
X124269523Y-95228285D01*
X124174285Y-95275904D01*
X123983809Y-95323523D01*
X123840952Y-95323523D01*
X123650476Y-95275904D01*
X123555238Y-95228285D01*
X123460000Y-95133047D01*
X123412380Y-94990190D01*
X123412380Y-94894952D01*
X123460000Y-94752095D01*
X123507619Y-94704476D01*
X123507619Y-94323523D02*
X123460000Y-94275904D01*
X123412380Y-94180666D01*
X123412380Y-93942571D01*
X123460000Y-93847333D01*
X123507619Y-93799714D01*
X123602857Y-93752095D01*
X123698095Y-93752095D01*
X123840952Y-93799714D01*
X124412380Y-94371142D01*
X124412380Y-93752095D01*
G04 #@! TO.C,C3*
X115173142Y-94704476D02*
X115220761Y-94752095D01*
X115268380Y-94894952D01*
X115268380Y-94990190D01*
X115220761Y-95133047D01*
X115125523Y-95228285D01*
X115030285Y-95275904D01*
X114839809Y-95323523D01*
X114696952Y-95323523D01*
X114506476Y-95275904D01*
X114411238Y-95228285D01*
X114316000Y-95133047D01*
X114268380Y-94990190D01*
X114268380Y-94894952D01*
X114316000Y-94752095D01*
X114363619Y-94704476D01*
X114268380Y-94371142D02*
X114268380Y-93752095D01*
X114649333Y-94085428D01*
X114649333Y-93942571D01*
X114696952Y-93847333D01*
X114744571Y-93799714D01*
X114839809Y-93752095D01*
X115077904Y-93752095D01*
X115173142Y-93799714D01*
X115220761Y-93847333D01*
X115268380Y-93942571D01*
X115268380Y-94228285D01*
X115220761Y-94323523D01*
X115173142Y-94371142D01*
G04 #@! TD*
M02*
