G04 #@! TF.GenerationSoftware,KiCad,Pcbnew,5.0.0-fee4fd1~65~ubuntu17.10.1*
G04 #@! TF.CreationDate,2018-10-29T14:39:41-04:00*
G04 #@! TF.ProjectId,rgb-lamp,7267622D6C616D702E6B696361645F70,rev?*
G04 #@! TF.SameCoordinates,Original*
G04 #@! TF.FileFunction,Copper,L2,Bot,Signal*
G04 #@! TF.FilePolarity,Positive*
%FSLAX46Y46*%
G04 Gerber Fmt 4.6, Leading zero omitted, Abs format (unit mm)*
G04 Created by KiCad (PCBNEW 5.0.0-fee4fd1~65~ubuntu17.10.1) date Mon Oct 29 14:39:41 2018*
%MOMM*%
%LPD*%
G01*
G04 APERTURE LIST*
G04 #@! TA.AperFunction,SMDPad,CuDef*
%ADD10O,1.905000X3.810000*%
G04 #@! TD*
G04 #@! TA.AperFunction,ComponentPad*
%ADD11C,5.969000*%
G04 #@! TD*
G04 #@! TA.AperFunction,ViaPad*
%ADD12C,0.965200*%
G04 #@! TD*
G04 #@! TA.AperFunction,ViaPad*
%ADD13C,1.270000*%
G04 #@! TD*
G04 #@! TA.AperFunction,Conductor*
%ADD14C,0.254000*%
G04 #@! TD*
G04 #@! TA.AperFunction,Conductor*
%ADD15C,0.406400*%
G04 #@! TD*
%ADD16C,0.350000*%
G04 APERTURE END LIST*
D10*
G04 #@! TO.P,J1,1*
G04 #@! TO.N,GND*
X123190000Y-90170000D03*
G04 #@! TO.P,J1,2*
G04 #@! TO.N,Net-(J1-Pad2)*
X119380000Y-90170000D03*
G04 #@! TO.P,J1,3*
G04 #@! TO.N,+5V*
X115570000Y-90170000D03*
G04 #@! TD*
D11*
G04 #@! TO.P,H1,P*
G04 #@! TO.N,GND*
X119380000Y-106680000D03*
G04 #@! TD*
G04 #@! TO.P,H2,P*
G04 #@! TO.N,GND*
X119380000Y-73660000D03*
G04 #@! TD*
D12*
G04 #@! TO.N,Net-(J1-Pad2)*
X118745000Y-86995000D03*
D13*
G04 #@! TO.N,+5V*
X121830000Y-93255000D03*
X115570098Y-93345000D03*
X118745000Y-84455000D03*
G04 #@! TO.N,GND*
X119380000Y-93345000D03*
X114935000Y-86995000D03*
X114935000Y-79375000D03*
X114935000Y-85090000D03*
X114935000Y-83185000D03*
X114935000Y-81280000D03*
X124460000Y-106045000D03*
X124460000Y-104140000D03*
X124460000Y-102235000D03*
X124460000Y-100330000D03*
X124460000Y-98425000D03*
X114300000Y-106045000D03*
X114300000Y-104140000D03*
X114300000Y-102235000D03*
X114300000Y-100330000D03*
X114300000Y-98425000D03*
X118745000Y-79375000D03*
X120015000Y-79375000D03*
X118745000Y-81280000D03*
X120015000Y-81280000D03*
X118745000Y-100965000D03*
X118745000Y-99060000D03*
X118745000Y-97155000D03*
X120015000Y-97155000D03*
X120015000Y-100965000D03*
X120015000Y-99060000D03*
X124460000Y-85090000D03*
X124460000Y-79375000D03*
X124460000Y-81280000D03*
X124460000Y-83185000D03*
X124460000Y-86995000D03*
G04 #@! TD*
D14*
G04 #@! TO.N,Net-(J1-Pad2)*
X119380000Y-90170000D02*
X119380000Y-87630000D01*
X119380000Y-87630000D02*
X118745000Y-86995000D01*
D15*
G04 #@! TO.N,+5V*
X121830000Y-93255000D02*
X120470000Y-94615000D01*
X116840098Y-94615000D02*
X115570098Y-93345000D01*
X120470000Y-94615000D02*
X116840098Y-94615000D01*
X115570000Y-93344902D02*
X115570098Y-93345000D01*
X115570000Y-90170000D02*
X115570000Y-93344902D01*
X115570000Y-89217500D02*
X115570000Y-90170000D01*
X116840000Y-87947500D02*
X115570000Y-89217500D01*
X116840000Y-85725000D02*
X116840000Y-87947500D01*
X118110000Y-84455000D02*
X116840000Y-85725000D01*
X118745000Y-84455000D02*
X118110000Y-84455000D01*
G04 #@! TO.N,GND*
X121431862Y-86995000D02*
X121326176Y-87100686D01*
X114935000Y-85090000D02*
X114935000Y-86995000D01*
X114935000Y-81280000D02*
X114935000Y-79375000D01*
X114935000Y-81280000D02*
X114935000Y-83185000D01*
X124460000Y-104140000D02*
X124460000Y-106045000D01*
X124460000Y-100330000D02*
X124460000Y-102235000D01*
X114300000Y-102235000D02*
X114300000Y-104140000D01*
X114300000Y-98425000D02*
X114300000Y-100330000D01*
X120015000Y-79375000D02*
X118745000Y-79375000D01*
X119380000Y-79375000D02*
X118745000Y-79375000D01*
X124460000Y-81280000D02*
X120015000Y-81280000D01*
X118745000Y-97155000D02*
X118745000Y-99060000D01*
X120015000Y-99060000D02*
X120015000Y-97155000D01*
X120015000Y-99060000D02*
X120015000Y-100965000D01*
X123190000Y-97155000D02*
X124460000Y-98425000D01*
X123190000Y-90170000D02*
X123190000Y-97155000D01*
X124460000Y-85090000D02*
X124460000Y-83185000D01*
X124460000Y-81280000D02*
X124460000Y-79375000D01*
X123190000Y-90170000D02*
X123190000Y-88265000D01*
X123190000Y-88265000D02*
X124460000Y-86995000D01*
G04 #@! TD*
D14*
G04 #@! TO.N,GND*
G36*
X117267919Y-70829499D02*
X119380000Y-72941580D01*
X121492081Y-70829499D01*
X121300529Y-70612000D01*
X124968000Y-70612000D01*
X124968000Y-109728000D01*
X121300529Y-109728000D01*
X121492081Y-109510501D01*
X119380000Y-107398420D01*
X117267919Y-109510501D01*
X117459471Y-109728000D01*
X113792000Y-109728000D01*
X113792000Y-106320655D01*
X115707126Y-106320655D01*
X115849192Y-107753557D01*
X116124222Y-108417539D01*
X116549499Y-108792081D01*
X118661580Y-106680000D01*
X120098420Y-106680000D01*
X122210501Y-108792081D01*
X122635778Y-108417539D01*
X123052874Y-107039345D01*
X122910808Y-105606443D01*
X122635778Y-104942461D01*
X122210501Y-104567919D01*
X120098420Y-106680000D01*
X118661580Y-106680000D01*
X116549499Y-104567919D01*
X116124222Y-104942461D01*
X115707126Y-106320655D01*
X113792000Y-106320655D01*
X113792000Y-103849499D01*
X117267919Y-103849499D01*
X119380000Y-105961580D01*
X121492081Y-103849499D01*
X121117539Y-103424222D01*
X119739345Y-103007126D01*
X118306443Y-103149192D01*
X117642461Y-103424222D01*
X117267919Y-103849499D01*
X113792000Y-103849499D01*
X113792000Y-91278849D01*
X113982500Y-91278849D01*
X114074609Y-91741910D01*
X114425477Y-92267023D01*
X114681173Y-92437874D01*
X114493444Y-92625603D01*
X114300098Y-93092381D01*
X114300098Y-93597619D01*
X114493444Y-94064397D01*
X114850701Y-94421654D01*
X115317479Y-94615000D01*
X115654704Y-94615000D01*
X116189028Y-95149324D01*
X116235790Y-95219308D01*
X116305774Y-95266070D01*
X116305775Y-95266071D01*
X116419343Y-95341955D01*
X116513049Y-95404567D01*
X116757544Y-95453200D01*
X116757548Y-95453200D01*
X116840097Y-95469620D01*
X116922646Y-95453200D01*
X120387451Y-95453200D01*
X120470000Y-95469620D01*
X120552549Y-95453200D01*
X120552554Y-95453200D01*
X120797049Y-95404567D01*
X121074308Y-95219308D01*
X121121072Y-95149321D01*
X121745394Y-94525000D01*
X122082619Y-94525000D01*
X122549397Y-94331654D01*
X122906654Y-93974397D01*
X123100000Y-93507619D01*
X123100000Y-93002381D01*
X122936373Y-92607352D01*
X123063000Y-92545594D01*
X123063000Y-90297000D01*
X123317000Y-90297000D01*
X123317000Y-92545594D01*
X123562980Y-92665563D01*
X123680177Y-92637760D01*
X124222729Y-92334835D01*
X124608058Y-91847343D01*
X124777500Y-91249500D01*
X124777500Y-90297000D01*
X123317000Y-90297000D01*
X123063000Y-90297000D01*
X121602500Y-90297000D01*
X121602500Y-91249500D01*
X121771942Y-91847343D01*
X121880750Y-91985000D01*
X121577381Y-91985000D01*
X121110603Y-92178346D01*
X120753346Y-92535603D01*
X120560000Y-93002381D01*
X120560000Y-93339606D01*
X120122807Y-93776800D01*
X117187292Y-93776800D01*
X116840098Y-93429606D01*
X116840098Y-93092381D01*
X116646752Y-92625603D01*
X116458944Y-92437795D01*
X116714523Y-92267023D01*
X117065391Y-91741911D01*
X117157500Y-91278850D01*
X117157500Y-89061150D01*
X117116726Y-88856167D01*
X117374324Y-88598570D01*
X117444308Y-88551808D01*
X117629567Y-88274549D01*
X117678200Y-88030054D01*
X117678200Y-88030050D01*
X117694620Y-87947501D01*
X117678200Y-87864952D01*
X117678200Y-87339946D01*
X117797545Y-87628070D01*
X118111930Y-87942455D01*
X118308785Y-88023995D01*
X118235478Y-88072977D01*
X117884610Y-88598089D01*
X117792501Y-89061150D01*
X117792500Y-91278849D01*
X117884609Y-91741910D01*
X118235477Y-92267023D01*
X118760589Y-92617891D01*
X119380000Y-92741100D01*
X119999410Y-92617891D01*
X120524523Y-92267023D01*
X120875391Y-91741911D01*
X120967500Y-91278850D01*
X120967500Y-89090500D01*
X121602500Y-89090500D01*
X121602500Y-90043000D01*
X123063000Y-90043000D01*
X123063000Y-87794406D01*
X123317000Y-87794406D01*
X123317000Y-90043000D01*
X124777500Y-90043000D01*
X124777500Y-89090500D01*
X124608058Y-88492657D01*
X124222729Y-88005165D01*
X123680177Y-87702240D01*
X123562980Y-87674437D01*
X123317000Y-87794406D01*
X123063000Y-87794406D01*
X122817020Y-87674437D01*
X122699823Y-87702240D01*
X122157271Y-88005165D01*
X121771942Y-88492657D01*
X121602500Y-89090500D01*
X120967500Y-89090500D01*
X120967500Y-89061150D01*
X120875391Y-88598089D01*
X120524523Y-88072977D01*
X120142000Y-87817384D01*
X120142000Y-87705047D01*
X120156928Y-87630000D01*
X120099878Y-87343192D01*
X120097788Y-87332683D01*
X119929371Y-87080629D01*
X119865749Y-87038118D01*
X119862600Y-87034969D01*
X119862600Y-86772696D01*
X119692455Y-86361930D01*
X119378070Y-86047545D01*
X118967304Y-85877400D01*
X118522696Y-85877400D01*
X118111930Y-86047545D01*
X117797545Y-86361930D01*
X117678200Y-86650054D01*
X117678200Y-86072193D01*
X118162171Y-85588222D01*
X118492381Y-85725000D01*
X118997619Y-85725000D01*
X119464397Y-85531654D01*
X119821654Y-85174397D01*
X120015000Y-84707619D01*
X120015000Y-84202381D01*
X119821654Y-83735603D01*
X119464397Y-83378346D01*
X118997619Y-83185000D01*
X118492381Y-83185000D01*
X118025603Y-83378346D01*
X117668346Y-83735603D01*
X117664677Y-83744461D01*
X117575677Y-83803929D01*
X117575676Y-83803930D01*
X117505692Y-83850692D01*
X117458930Y-83920676D01*
X116305679Y-85073928D01*
X116235692Y-85120692D01*
X116050433Y-85397952D01*
X116001800Y-85642447D01*
X116001800Y-85642451D01*
X115985380Y-85725000D01*
X116001800Y-85807549D01*
X116001801Y-87600305D01*
X115931332Y-87670774D01*
X115570000Y-87598900D01*
X114950590Y-87722109D01*
X114425478Y-88072977D01*
X114074610Y-88598089D01*
X113982501Y-89061150D01*
X113982500Y-91278849D01*
X113792000Y-91278849D01*
X113792000Y-76490501D01*
X117267919Y-76490501D01*
X117642461Y-76915778D01*
X119020655Y-77332874D01*
X120453557Y-77190808D01*
X121117539Y-76915778D01*
X121492081Y-76490501D01*
X119380000Y-74378420D01*
X117267919Y-76490501D01*
X113792000Y-76490501D01*
X113792000Y-73300655D01*
X115707126Y-73300655D01*
X115849192Y-74733557D01*
X116124222Y-75397539D01*
X116549499Y-75772081D01*
X118661580Y-73660000D01*
X120098420Y-73660000D01*
X122210501Y-75772081D01*
X122635778Y-75397539D01*
X123052874Y-74019345D01*
X122910808Y-72586443D01*
X122635778Y-71922461D01*
X122210501Y-71547919D01*
X120098420Y-73660000D01*
X118661580Y-73660000D01*
X116549499Y-71547919D01*
X116124222Y-71922461D01*
X115707126Y-73300655D01*
X113792000Y-73300655D01*
X113792000Y-70612000D01*
X117459471Y-70612000D01*
X117267919Y-70829499D01*
X117267919Y-70829499D01*
G37*
X117267919Y-70829499D02*
X119380000Y-72941580D01*
X121492081Y-70829499D01*
X121300529Y-70612000D01*
X124968000Y-70612000D01*
X124968000Y-109728000D01*
X121300529Y-109728000D01*
X121492081Y-109510501D01*
X119380000Y-107398420D01*
X117267919Y-109510501D01*
X117459471Y-109728000D01*
X113792000Y-109728000D01*
X113792000Y-106320655D01*
X115707126Y-106320655D01*
X115849192Y-107753557D01*
X116124222Y-108417539D01*
X116549499Y-108792081D01*
X118661580Y-106680000D01*
X120098420Y-106680000D01*
X122210501Y-108792081D01*
X122635778Y-108417539D01*
X123052874Y-107039345D01*
X122910808Y-105606443D01*
X122635778Y-104942461D01*
X122210501Y-104567919D01*
X120098420Y-106680000D01*
X118661580Y-106680000D01*
X116549499Y-104567919D01*
X116124222Y-104942461D01*
X115707126Y-106320655D01*
X113792000Y-106320655D01*
X113792000Y-103849499D01*
X117267919Y-103849499D01*
X119380000Y-105961580D01*
X121492081Y-103849499D01*
X121117539Y-103424222D01*
X119739345Y-103007126D01*
X118306443Y-103149192D01*
X117642461Y-103424222D01*
X117267919Y-103849499D01*
X113792000Y-103849499D01*
X113792000Y-91278849D01*
X113982500Y-91278849D01*
X114074609Y-91741910D01*
X114425477Y-92267023D01*
X114681173Y-92437874D01*
X114493444Y-92625603D01*
X114300098Y-93092381D01*
X114300098Y-93597619D01*
X114493444Y-94064397D01*
X114850701Y-94421654D01*
X115317479Y-94615000D01*
X115654704Y-94615000D01*
X116189028Y-95149324D01*
X116235790Y-95219308D01*
X116305774Y-95266070D01*
X116305775Y-95266071D01*
X116419343Y-95341955D01*
X116513049Y-95404567D01*
X116757544Y-95453200D01*
X116757548Y-95453200D01*
X116840097Y-95469620D01*
X116922646Y-95453200D01*
X120387451Y-95453200D01*
X120470000Y-95469620D01*
X120552549Y-95453200D01*
X120552554Y-95453200D01*
X120797049Y-95404567D01*
X121074308Y-95219308D01*
X121121072Y-95149321D01*
X121745394Y-94525000D01*
X122082619Y-94525000D01*
X122549397Y-94331654D01*
X122906654Y-93974397D01*
X123100000Y-93507619D01*
X123100000Y-93002381D01*
X122936373Y-92607352D01*
X123063000Y-92545594D01*
X123063000Y-90297000D01*
X123317000Y-90297000D01*
X123317000Y-92545594D01*
X123562980Y-92665563D01*
X123680177Y-92637760D01*
X124222729Y-92334835D01*
X124608058Y-91847343D01*
X124777500Y-91249500D01*
X124777500Y-90297000D01*
X123317000Y-90297000D01*
X123063000Y-90297000D01*
X121602500Y-90297000D01*
X121602500Y-91249500D01*
X121771942Y-91847343D01*
X121880750Y-91985000D01*
X121577381Y-91985000D01*
X121110603Y-92178346D01*
X120753346Y-92535603D01*
X120560000Y-93002381D01*
X120560000Y-93339606D01*
X120122807Y-93776800D01*
X117187292Y-93776800D01*
X116840098Y-93429606D01*
X116840098Y-93092381D01*
X116646752Y-92625603D01*
X116458944Y-92437795D01*
X116714523Y-92267023D01*
X117065391Y-91741911D01*
X117157500Y-91278850D01*
X117157500Y-89061150D01*
X117116726Y-88856167D01*
X117374324Y-88598570D01*
X117444308Y-88551808D01*
X117629567Y-88274549D01*
X117678200Y-88030054D01*
X117678200Y-88030050D01*
X117694620Y-87947501D01*
X117678200Y-87864952D01*
X117678200Y-87339946D01*
X117797545Y-87628070D01*
X118111930Y-87942455D01*
X118308785Y-88023995D01*
X118235478Y-88072977D01*
X117884610Y-88598089D01*
X117792501Y-89061150D01*
X117792500Y-91278849D01*
X117884609Y-91741910D01*
X118235477Y-92267023D01*
X118760589Y-92617891D01*
X119380000Y-92741100D01*
X119999410Y-92617891D01*
X120524523Y-92267023D01*
X120875391Y-91741911D01*
X120967500Y-91278850D01*
X120967500Y-89090500D01*
X121602500Y-89090500D01*
X121602500Y-90043000D01*
X123063000Y-90043000D01*
X123063000Y-87794406D01*
X123317000Y-87794406D01*
X123317000Y-90043000D01*
X124777500Y-90043000D01*
X124777500Y-89090500D01*
X124608058Y-88492657D01*
X124222729Y-88005165D01*
X123680177Y-87702240D01*
X123562980Y-87674437D01*
X123317000Y-87794406D01*
X123063000Y-87794406D01*
X122817020Y-87674437D01*
X122699823Y-87702240D01*
X122157271Y-88005165D01*
X121771942Y-88492657D01*
X121602500Y-89090500D01*
X120967500Y-89090500D01*
X120967500Y-89061150D01*
X120875391Y-88598089D01*
X120524523Y-88072977D01*
X120142000Y-87817384D01*
X120142000Y-87705047D01*
X120156928Y-87630000D01*
X120099878Y-87343192D01*
X120097788Y-87332683D01*
X119929371Y-87080629D01*
X119865749Y-87038118D01*
X119862600Y-87034969D01*
X119862600Y-86772696D01*
X119692455Y-86361930D01*
X119378070Y-86047545D01*
X118967304Y-85877400D01*
X118522696Y-85877400D01*
X118111930Y-86047545D01*
X117797545Y-86361930D01*
X117678200Y-86650054D01*
X117678200Y-86072193D01*
X118162171Y-85588222D01*
X118492381Y-85725000D01*
X118997619Y-85725000D01*
X119464397Y-85531654D01*
X119821654Y-85174397D01*
X120015000Y-84707619D01*
X120015000Y-84202381D01*
X119821654Y-83735603D01*
X119464397Y-83378346D01*
X118997619Y-83185000D01*
X118492381Y-83185000D01*
X118025603Y-83378346D01*
X117668346Y-83735603D01*
X117664677Y-83744461D01*
X117575677Y-83803929D01*
X117575676Y-83803930D01*
X117505692Y-83850692D01*
X117458930Y-83920676D01*
X116305679Y-85073928D01*
X116235692Y-85120692D01*
X116050433Y-85397952D01*
X116001800Y-85642447D01*
X116001800Y-85642451D01*
X115985380Y-85725000D01*
X116001800Y-85807549D01*
X116001801Y-87600305D01*
X115931332Y-87670774D01*
X115570000Y-87598900D01*
X114950590Y-87722109D01*
X114425478Y-88072977D01*
X114074610Y-88598089D01*
X113982501Y-89061150D01*
X113982500Y-91278849D01*
X113792000Y-91278849D01*
X113792000Y-76490501D01*
X117267919Y-76490501D01*
X117642461Y-76915778D01*
X119020655Y-77332874D01*
X120453557Y-77190808D01*
X121117539Y-76915778D01*
X121492081Y-76490501D01*
X119380000Y-74378420D01*
X117267919Y-76490501D01*
X113792000Y-76490501D01*
X113792000Y-73300655D01*
X115707126Y-73300655D01*
X115849192Y-74733557D01*
X116124222Y-75397539D01*
X116549499Y-75772081D01*
X118661580Y-73660000D01*
X120098420Y-73660000D01*
X122210501Y-75772081D01*
X122635778Y-75397539D01*
X123052874Y-74019345D01*
X122910808Y-72586443D01*
X122635778Y-71922461D01*
X122210501Y-71547919D01*
X120098420Y-73660000D01*
X118661580Y-73660000D01*
X116549499Y-71547919D01*
X116124222Y-71922461D01*
X115707126Y-73300655D01*
X113792000Y-73300655D01*
X113792000Y-70612000D01*
X117459471Y-70612000D01*
X117267919Y-70829499D01*
G04 #@! TD*
D16*
X118745000Y-86995000D03*
X121830000Y-93255000D03*
X115570098Y-93345000D03*
X118745000Y-84455000D03*
X119380000Y-93345000D03*
X114935000Y-86995000D03*
X114935000Y-79375000D03*
X114935000Y-85090000D03*
X114935000Y-83185000D03*
X114935000Y-81280000D03*
X124460000Y-106045000D03*
X124460000Y-104140000D03*
X124460000Y-102235000D03*
X124460000Y-100330000D03*
X124460000Y-98425000D03*
X114300000Y-106045000D03*
X114300000Y-104140000D03*
X114300000Y-102235000D03*
X114300000Y-100330000D03*
X114300000Y-98425000D03*
X118745000Y-79375000D03*
X120015000Y-79375000D03*
X118745000Y-81280000D03*
X120015000Y-81280000D03*
X118745000Y-100965000D03*
X118745000Y-99060000D03*
X118745000Y-97155000D03*
X120015000Y-97155000D03*
X120015000Y-100965000D03*
X120015000Y-99060000D03*
X124460000Y-85090000D03*
X124460000Y-79375000D03*
X124460000Y-81280000D03*
X124460000Y-83185000D03*
X124460000Y-86995000D03*
X119380000Y-106680000D03*
X119380000Y-73660000D03*
M02*
