G04 #@! TF.GenerationSoftware,KiCad,Pcbnew,5.0.0-fee4fd1~65~ubuntu17.10.1*
G04 #@! TF.CreationDate,2018-08-22T05:19:30-04:00*
G04 #@! TF.ProjectId,rgb-lamp,7267622D6C616D702E6B696361645F70,rev?*
G04 #@! TF.SameCoordinates,Original*
G04 #@! TF.FileFunction,Copper,L2,Bot,Signal*
G04 #@! TF.FilePolarity,Positive*
%FSLAX46Y46*%
G04 Gerber Fmt 4.6, Leading zero omitted, Abs format (unit mm)*
G04 Created by KiCad (PCBNEW 5.0.0-fee4fd1~65~ubuntu17.10.1) date Wed Aug 22 05:19:30 2018*
%MOMM*%
%LPD*%
G01*
G04 APERTURE LIST*
G04 #@! TA.AperFunction,SMDPad,CuDef*
%ADD10O,1.905000X3.810000*%
G04 #@! TD*
G04 #@! TA.AperFunction,ComponentPad*
%ADD11C,6.096000*%
G04 #@! TD*
G04 #@! TA.AperFunction,ViaPad*
%ADD12C,0.965200*%
G04 #@! TD*
G04 #@! TA.AperFunction,ViaPad*
%ADD13C,1.270000*%
G04 #@! TD*
G04 #@! TA.AperFunction,Conductor*
%ADD14C,0.406400*%
G04 #@! TD*
G04 #@! TA.AperFunction,Conductor*
%ADD15C,0.254000*%
G04 #@! TD*
%ADD16C,0.350000*%
G04 APERTURE END LIST*
D10*
G04 #@! TO.P,J1,1*
G04 #@! TO.N,GND*
X123190000Y-90170000D03*
G04 #@! TO.P,J1,2*
G04 #@! TO.N,Net-(J1-Pad2)*
X119380000Y-90170000D03*
G04 #@! TO.P,J1,3*
G04 #@! TO.N,+5V*
X115570000Y-90170000D03*
G04 #@! TD*
D11*
G04 #@! TO.P,H1,P*
G04 #@! TO.N,GND*
X119380000Y-106680000D03*
G04 #@! TD*
G04 #@! TO.P,H2,P*
G04 #@! TO.N,GND*
X119380000Y-73660000D03*
G04 #@! TD*
D12*
G04 #@! TO.N,Net-(J1-Pad2)*
X118745000Y-86994980D03*
D13*
G04 #@! TO.N,+5V*
X119529464Y-84550526D03*
X121830000Y-93255000D03*
X115570098Y-93345000D03*
G04 #@! TO.N,GND*
X119380000Y-93345000D03*
X114935000Y-86995000D03*
X114935000Y-79375000D03*
X114935000Y-85090000D03*
X114935000Y-83185000D03*
X114935000Y-81280000D03*
X124460000Y-106045000D03*
X124460000Y-104140000D03*
X124460000Y-102235000D03*
X124460000Y-100330000D03*
X124460000Y-98425000D03*
X114300000Y-106045000D03*
X114300000Y-104140000D03*
X114300000Y-102235000D03*
X114300000Y-100330000D03*
X114300000Y-98425000D03*
X118745000Y-79375000D03*
X120015000Y-79375000D03*
X122555000Y-86995000D03*
X118745000Y-81280000D03*
X120015000Y-81280000D03*
X118745000Y-100965000D03*
X118745000Y-99060000D03*
X118745000Y-97155000D03*
X120015000Y-97155000D03*
X120015000Y-100965000D03*
X120015000Y-99060000D03*
X124460000Y-85090000D03*
X124460000Y-79375000D03*
X124460000Y-81280000D03*
X124460000Y-83185000D03*
X124460000Y-86995000D03*
G04 #@! TD*
D14*
G04 #@! TO.N,GND*
X121431862Y-86995000D02*
X121326176Y-87100686D01*
D15*
G04 #@! TO.N,Net-(J1-Pad2)*
X119227599Y-87477579D02*
X118745000Y-86994980D01*
X119380000Y-87629980D02*
X119227599Y-87477579D01*
X119380000Y-90170000D02*
X119380000Y-87629980D01*
D14*
G04 #@! TO.N,+5V*
X121830000Y-93255000D02*
X120470000Y-94615000D01*
X116840098Y-94615000D02*
X115570098Y-93345000D01*
X120470000Y-94615000D02*
X116840098Y-94615000D01*
X115570000Y-90170000D02*
X115570000Y-89217500D01*
X115570000Y-89217500D02*
X116840000Y-87947500D01*
X116840000Y-87947500D02*
X116840000Y-85725000D01*
X116840000Y-85725000D02*
X118014474Y-84550526D01*
X118014474Y-84550526D02*
X119529464Y-84550526D01*
X119284474Y-84550526D02*
X119529464Y-84550526D01*
X115570000Y-93344902D02*
X115570098Y-93345000D01*
X115570000Y-90170000D02*
X115570000Y-93344902D01*
G04 #@! TO.N,GND*
X114935000Y-85090000D02*
X114935000Y-86995000D01*
X114935000Y-81280000D02*
X114935000Y-79375000D01*
X114935000Y-81280000D02*
X114935000Y-83185000D01*
X124460000Y-104140000D02*
X124460000Y-106045000D01*
X124460000Y-100330000D02*
X124460000Y-102235000D01*
X114300000Y-102235000D02*
X114300000Y-104140000D01*
X114300000Y-98425000D02*
X114300000Y-100330000D01*
X120015000Y-79375000D02*
X118745000Y-79375000D01*
X119380000Y-79375000D02*
X118745000Y-79375000D01*
X124460000Y-81280000D02*
X120015000Y-81280000D01*
X118745000Y-97155000D02*
X118745000Y-99060000D01*
X120015000Y-99060000D02*
X120015000Y-97155000D01*
X120015000Y-99060000D02*
X120015000Y-100965000D01*
X123190000Y-97155000D02*
X124460000Y-98425000D01*
X123190000Y-90170000D02*
X123190000Y-97155000D01*
X124460000Y-85090000D02*
X124460000Y-83185000D01*
X124460000Y-81280000D02*
X124460000Y-79375000D01*
X123190000Y-90170000D02*
X123190000Y-88265000D01*
X123190000Y-88265000D02*
X124460000Y-86995000D01*
G04 #@! TD*
D15*
G04 #@! TO.N,GND*
G36*
X117221666Y-70783246D02*
X119380000Y-72941580D01*
X121538334Y-70783246D01*
X121340683Y-70560000D01*
X125020000Y-70560000D01*
X125020000Y-109780000D01*
X121340683Y-109780000D01*
X121538334Y-109556754D01*
X119380000Y-107398420D01*
X117221666Y-109556754D01*
X117419317Y-109780000D01*
X113740000Y-109780000D01*
X113740000Y-106305399D01*
X115643577Y-106305399D01*
X115784642Y-107763781D01*
X116071349Y-108455953D01*
X116503246Y-108838334D01*
X118661580Y-106680000D01*
X120098420Y-106680000D01*
X122256754Y-108838334D01*
X122688651Y-108455953D01*
X123116423Y-107054601D01*
X122975358Y-105596219D01*
X122688651Y-104904047D01*
X122256754Y-104521666D01*
X120098420Y-106680000D01*
X118661580Y-106680000D01*
X116503246Y-104521666D01*
X116071349Y-104904047D01*
X115643577Y-106305399D01*
X113740000Y-106305399D01*
X113740000Y-103803246D01*
X117221666Y-103803246D01*
X119380000Y-105961580D01*
X121538334Y-103803246D01*
X121155953Y-103371349D01*
X119754601Y-102943577D01*
X118296219Y-103084642D01*
X117604047Y-103371349D01*
X117221666Y-103803246D01*
X113740000Y-103803246D01*
X113740000Y-89167738D01*
X113982500Y-89167738D01*
X113982500Y-91172262D01*
X114103341Y-91779772D01*
X114447468Y-92294794D01*
X114673334Y-92445713D01*
X114494072Y-92624663D01*
X114300319Y-93091273D01*
X114299878Y-93596510D01*
X114492816Y-94063458D01*
X114849761Y-94421026D01*
X115316371Y-94614779D01*
X115654778Y-94615074D01*
X116247401Y-95207697D01*
X116519332Y-95389396D01*
X116840098Y-95453200D01*
X120470000Y-95453200D01*
X120790766Y-95389396D01*
X121062697Y-95207697D01*
X121745467Y-94524927D01*
X122081510Y-94525220D01*
X122548458Y-94332282D01*
X122906026Y-93975337D01*
X123099779Y-93508727D01*
X123100220Y-93003490D01*
X122936512Y-92607285D01*
X123063000Y-92545594D01*
X123063000Y-90297000D01*
X123317000Y-90297000D01*
X123317000Y-92545594D01*
X123562980Y-92665563D01*
X123680177Y-92637760D01*
X124222729Y-92334835D01*
X124608058Y-91847343D01*
X124777500Y-91249500D01*
X124777500Y-90297000D01*
X123317000Y-90297000D01*
X123063000Y-90297000D01*
X121602500Y-90297000D01*
X121602500Y-91249500D01*
X121771942Y-91847343D01*
X121880785Y-91985044D01*
X121578490Y-91984780D01*
X121111542Y-92177718D01*
X120753974Y-92534663D01*
X120560221Y-93001273D01*
X120559926Y-93339680D01*
X120122806Y-93776800D01*
X117187292Y-93776800D01*
X116840025Y-93429533D01*
X116840318Y-93093490D01*
X116647380Y-92626542D01*
X116466786Y-92445633D01*
X116692532Y-92294794D01*
X117036659Y-91779772D01*
X117157500Y-91172262D01*
X117157500Y-89167738D01*
X117099042Y-88873852D01*
X117432697Y-88540197D01*
X117614396Y-88268266D01*
X117678200Y-87947500D01*
X117678200Y-87339722D01*
X117796992Y-87627222D01*
X118111104Y-87941883D01*
X118296739Y-88018966D01*
X118257468Y-88045206D01*
X117913341Y-88560228D01*
X117792500Y-89167738D01*
X117792500Y-91172262D01*
X117913341Y-91779772D01*
X118257468Y-92294794D01*
X118772490Y-92638921D01*
X119380000Y-92759762D01*
X119987510Y-92638921D01*
X120502532Y-92294794D01*
X120846659Y-91779772D01*
X120967500Y-91172262D01*
X120967500Y-89167738D01*
X120952137Y-89090500D01*
X121602500Y-89090500D01*
X121602500Y-90043000D01*
X123063000Y-90043000D01*
X123063000Y-87794406D01*
X123317000Y-87794406D01*
X123317000Y-90043000D01*
X124777500Y-90043000D01*
X124777500Y-89090500D01*
X124608058Y-88492657D01*
X124222729Y-88005165D01*
X123680177Y-87702240D01*
X123562980Y-87674437D01*
X123317000Y-87794406D01*
X123063000Y-87794406D01*
X122817020Y-87674437D01*
X122699823Y-87702240D01*
X122157271Y-88005165D01*
X121771942Y-88492657D01*
X121602500Y-89090500D01*
X120952137Y-89090500D01*
X120846659Y-88560228D01*
X120502532Y-88045206D01*
X120142000Y-87804306D01*
X120142000Y-87629980D01*
X120122868Y-87533795D01*
X120083997Y-87338376D01*
X119925178Y-87100686D01*
X120487976Y-87100686D01*
X120551780Y-87421452D01*
X120733479Y-87693383D01*
X121005410Y-87875082D01*
X121326176Y-87938886D01*
X121646942Y-87875082D01*
X121918873Y-87693383D01*
X122024559Y-87587697D01*
X122206258Y-87315765D01*
X122270062Y-86995000D01*
X122206258Y-86674234D01*
X122024559Y-86402303D01*
X121752628Y-86220604D01*
X121431862Y-86156800D01*
X121111097Y-86220604D01*
X120839165Y-86402303D01*
X120733479Y-86507989D01*
X120551780Y-86779920D01*
X120487976Y-87100686D01*
X119925178Y-87100686D01*
X119918816Y-87091165D01*
X119862566Y-87034915D01*
X119862793Y-86773651D01*
X119693008Y-86362738D01*
X119378896Y-86048077D01*
X118968280Y-85877574D01*
X118523671Y-85877187D01*
X118112758Y-86046972D01*
X117798097Y-86361084D01*
X117678200Y-86649827D01*
X117678200Y-86072194D01*
X118361668Y-85388726D01*
X118571715Y-85388726D01*
X118809127Y-85626552D01*
X119275737Y-85820305D01*
X119780974Y-85820746D01*
X120247922Y-85627808D01*
X120605490Y-85270863D01*
X120799243Y-84804253D01*
X120799684Y-84299016D01*
X120606746Y-83832068D01*
X120249801Y-83474500D01*
X119783191Y-83280747D01*
X119277954Y-83280306D01*
X118811006Y-83473244D01*
X118571507Y-83712326D01*
X118014474Y-83712326D01*
X117693708Y-83776130D01*
X117421777Y-83957829D01*
X116247303Y-85132303D01*
X116065604Y-85404234D01*
X116065604Y-85404235D01*
X116001800Y-85725000D01*
X116001800Y-87600306D01*
X115946898Y-87655208D01*
X115570000Y-87580238D01*
X114962490Y-87701079D01*
X114447468Y-88045206D01*
X114103341Y-88560228D01*
X113982500Y-89167738D01*
X113740000Y-89167738D01*
X113740000Y-76536754D01*
X117221666Y-76536754D01*
X117604047Y-76968651D01*
X119005399Y-77396423D01*
X120463781Y-77255358D01*
X121155953Y-76968651D01*
X121538334Y-76536754D01*
X119380000Y-74378420D01*
X117221666Y-76536754D01*
X113740000Y-76536754D01*
X113740000Y-73285399D01*
X115643577Y-73285399D01*
X115784642Y-74743781D01*
X116071349Y-75435953D01*
X116503246Y-75818334D01*
X118661580Y-73660000D01*
X120098420Y-73660000D01*
X122256754Y-75818334D01*
X122688651Y-75435953D01*
X123116423Y-74034601D01*
X122975358Y-72576219D01*
X122688651Y-71884047D01*
X122256754Y-71501666D01*
X120098420Y-73660000D01*
X118661580Y-73660000D01*
X116503246Y-71501666D01*
X116071349Y-71884047D01*
X115643577Y-73285399D01*
X113740000Y-73285399D01*
X113740000Y-70560000D01*
X117419317Y-70560000D01*
X117221666Y-70783246D01*
X117221666Y-70783246D01*
G37*
X117221666Y-70783246D02*
X119380000Y-72941580D01*
X121538334Y-70783246D01*
X121340683Y-70560000D01*
X125020000Y-70560000D01*
X125020000Y-109780000D01*
X121340683Y-109780000D01*
X121538334Y-109556754D01*
X119380000Y-107398420D01*
X117221666Y-109556754D01*
X117419317Y-109780000D01*
X113740000Y-109780000D01*
X113740000Y-106305399D01*
X115643577Y-106305399D01*
X115784642Y-107763781D01*
X116071349Y-108455953D01*
X116503246Y-108838334D01*
X118661580Y-106680000D01*
X120098420Y-106680000D01*
X122256754Y-108838334D01*
X122688651Y-108455953D01*
X123116423Y-107054601D01*
X122975358Y-105596219D01*
X122688651Y-104904047D01*
X122256754Y-104521666D01*
X120098420Y-106680000D01*
X118661580Y-106680000D01*
X116503246Y-104521666D01*
X116071349Y-104904047D01*
X115643577Y-106305399D01*
X113740000Y-106305399D01*
X113740000Y-103803246D01*
X117221666Y-103803246D01*
X119380000Y-105961580D01*
X121538334Y-103803246D01*
X121155953Y-103371349D01*
X119754601Y-102943577D01*
X118296219Y-103084642D01*
X117604047Y-103371349D01*
X117221666Y-103803246D01*
X113740000Y-103803246D01*
X113740000Y-89167738D01*
X113982500Y-89167738D01*
X113982500Y-91172262D01*
X114103341Y-91779772D01*
X114447468Y-92294794D01*
X114673334Y-92445713D01*
X114494072Y-92624663D01*
X114300319Y-93091273D01*
X114299878Y-93596510D01*
X114492816Y-94063458D01*
X114849761Y-94421026D01*
X115316371Y-94614779D01*
X115654778Y-94615074D01*
X116247401Y-95207697D01*
X116519332Y-95389396D01*
X116840098Y-95453200D01*
X120470000Y-95453200D01*
X120790766Y-95389396D01*
X121062697Y-95207697D01*
X121745467Y-94524927D01*
X122081510Y-94525220D01*
X122548458Y-94332282D01*
X122906026Y-93975337D01*
X123099779Y-93508727D01*
X123100220Y-93003490D01*
X122936512Y-92607285D01*
X123063000Y-92545594D01*
X123063000Y-90297000D01*
X123317000Y-90297000D01*
X123317000Y-92545594D01*
X123562980Y-92665563D01*
X123680177Y-92637760D01*
X124222729Y-92334835D01*
X124608058Y-91847343D01*
X124777500Y-91249500D01*
X124777500Y-90297000D01*
X123317000Y-90297000D01*
X123063000Y-90297000D01*
X121602500Y-90297000D01*
X121602500Y-91249500D01*
X121771942Y-91847343D01*
X121880785Y-91985044D01*
X121578490Y-91984780D01*
X121111542Y-92177718D01*
X120753974Y-92534663D01*
X120560221Y-93001273D01*
X120559926Y-93339680D01*
X120122806Y-93776800D01*
X117187292Y-93776800D01*
X116840025Y-93429533D01*
X116840318Y-93093490D01*
X116647380Y-92626542D01*
X116466786Y-92445633D01*
X116692532Y-92294794D01*
X117036659Y-91779772D01*
X117157500Y-91172262D01*
X117157500Y-89167738D01*
X117099042Y-88873852D01*
X117432697Y-88540197D01*
X117614396Y-88268266D01*
X117678200Y-87947500D01*
X117678200Y-87339722D01*
X117796992Y-87627222D01*
X118111104Y-87941883D01*
X118296739Y-88018966D01*
X118257468Y-88045206D01*
X117913341Y-88560228D01*
X117792500Y-89167738D01*
X117792500Y-91172262D01*
X117913341Y-91779772D01*
X118257468Y-92294794D01*
X118772490Y-92638921D01*
X119380000Y-92759762D01*
X119987510Y-92638921D01*
X120502532Y-92294794D01*
X120846659Y-91779772D01*
X120967500Y-91172262D01*
X120967500Y-89167738D01*
X120952137Y-89090500D01*
X121602500Y-89090500D01*
X121602500Y-90043000D01*
X123063000Y-90043000D01*
X123063000Y-87794406D01*
X123317000Y-87794406D01*
X123317000Y-90043000D01*
X124777500Y-90043000D01*
X124777500Y-89090500D01*
X124608058Y-88492657D01*
X124222729Y-88005165D01*
X123680177Y-87702240D01*
X123562980Y-87674437D01*
X123317000Y-87794406D01*
X123063000Y-87794406D01*
X122817020Y-87674437D01*
X122699823Y-87702240D01*
X122157271Y-88005165D01*
X121771942Y-88492657D01*
X121602500Y-89090500D01*
X120952137Y-89090500D01*
X120846659Y-88560228D01*
X120502532Y-88045206D01*
X120142000Y-87804306D01*
X120142000Y-87629980D01*
X120122868Y-87533795D01*
X120083997Y-87338376D01*
X119925178Y-87100686D01*
X120487976Y-87100686D01*
X120551780Y-87421452D01*
X120733479Y-87693383D01*
X121005410Y-87875082D01*
X121326176Y-87938886D01*
X121646942Y-87875082D01*
X121918873Y-87693383D01*
X122024559Y-87587697D01*
X122206258Y-87315765D01*
X122270062Y-86995000D01*
X122206258Y-86674234D01*
X122024559Y-86402303D01*
X121752628Y-86220604D01*
X121431862Y-86156800D01*
X121111097Y-86220604D01*
X120839165Y-86402303D01*
X120733479Y-86507989D01*
X120551780Y-86779920D01*
X120487976Y-87100686D01*
X119925178Y-87100686D01*
X119918816Y-87091165D01*
X119862566Y-87034915D01*
X119862793Y-86773651D01*
X119693008Y-86362738D01*
X119378896Y-86048077D01*
X118968280Y-85877574D01*
X118523671Y-85877187D01*
X118112758Y-86046972D01*
X117798097Y-86361084D01*
X117678200Y-86649827D01*
X117678200Y-86072194D01*
X118361668Y-85388726D01*
X118571715Y-85388726D01*
X118809127Y-85626552D01*
X119275737Y-85820305D01*
X119780974Y-85820746D01*
X120247922Y-85627808D01*
X120605490Y-85270863D01*
X120799243Y-84804253D01*
X120799684Y-84299016D01*
X120606746Y-83832068D01*
X120249801Y-83474500D01*
X119783191Y-83280747D01*
X119277954Y-83280306D01*
X118811006Y-83473244D01*
X118571507Y-83712326D01*
X118014474Y-83712326D01*
X117693708Y-83776130D01*
X117421777Y-83957829D01*
X116247303Y-85132303D01*
X116065604Y-85404234D01*
X116065604Y-85404235D01*
X116001800Y-85725000D01*
X116001800Y-87600306D01*
X115946898Y-87655208D01*
X115570000Y-87580238D01*
X114962490Y-87701079D01*
X114447468Y-88045206D01*
X114103341Y-88560228D01*
X113982500Y-89167738D01*
X113740000Y-89167738D01*
X113740000Y-76536754D01*
X117221666Y-76536754D01*
X117604047Y-76968651D01*
X119005399Y-77396423D01*
X120463781Y-77255358D01*
X121155953Y-76968651D01*
X121538334Y-76536754D01*
X119380000Y-74378420D01*
X117221666Y-76536754D01*
X113740000Y-76536754D01*
X113740000Y-73285399D01*
X115643577Y-73285399D01*
X115784642Y-74743781D01*
X116071349Y-75435953D01*
X116503246Y-75818334D01*
X118661580Y-73660000D01*
X120098420Y-73660000D01*
X122256754Y-75818334D01*
X122688651Y-75435953D01*
X123116423Y-74034601D01*
X122975358Y-72576219D01*
X122688651Y-71884047D01*
X122256754Y-71501666D01*
X120098420Y-73660000D01*
X118661580Y-73660000D01*
X116503246Y-71501666D01*
X116071349Y-71884047D01*
X115643577Y-73285399D01*
X113740000Y-73285399D01*
X113740000Y-70560000D01*
X117419317Y-70560000D01*
X117221666Y-70783246D01*
G04 #@! TD*
D16*
X118745000Y-86994980D03*
X119529464Y-84550526D03*
X121830000Y-93255000D03*
X115570098Y-93345000D03*
X119380000Y-93345000D03*
X114935000Y-86995000D03*
X114935000Y-79375000D03*
X114935000Y-85090000D03*
X114935000Y-83185000D03*
X114935000Y-81280000D03*
X124460000Y-106045000D03*
X124460000Y-104140000D03*
X124460000Y-102235000D03*
X124460000Y-100330000D03*
X124460000Y-98425000D03*
X114300000Y-106045000D03*
X114300000Y-104140000D03*
X114300000Y-102235000D03*
X114300000Y-100330000D03*
X114300000Y-98425000D03*
X118745000Y-79375000D03*
X120015000Y-79375000D03*
X122555000Y-86995000D03*
X118745000Y-81280000D03*
X120015000Y-81280000D03*
X118745000Y-100965000D03*
X118745000Y-99060000D03*
X118745000Y-97155000D03*
X120015000Y-97155000D03*
X120015000Y-100965000D03*
X120015000Y-99060000D03*
X124460000Y-85090000D03*
X124460000Y-79375000D03*
X124460000Y-81280000D03*
X124460000Y-83185000D03*
X124460000Y-86995000D03*
X119380000Y-106680000D03*
X119380000Y-73660000D03*
M02*
