M48
INCH,TZ
T1C0.0180
T2C0.0240
T3C0.1550
%
G90
G05
T1
X46750Y-34250
T2
X45000Y-38750
X45000Y-39500
X45000Y-40250
X45000Y-41000
X45000Y-41750
X45250Y-31250
X45250Y-32000
X45250Y-32750
X45250Y-33500
X45250Y-34250
X45500Y-36750
X46750Y-31250
X46750Y-32000
X46750Y-33250
X46750Y-38250
X46750Y-39000
X46750Y-39750
X47000Y-36750
X47250Y-31250
X47250Y-32000
X47250Y-38250
X47250Y-39000
X47250Y-39750
X47965Y-36715
X49000Y-31250
X49000Y-32000
X49000Y-32750
X49000Y-33500
X49000Y-34250
X49000Y-38750
X49000Y-39500
X49000Y-40250
X49000Y-41000
X49000Y-41750
T3
X47000Y-42000
X47000Y-29000
T0
M30
