G04 #@! TF.GenerationSoftware,KiCad,Pcbnew,5.0.0-fee4fd1~65~ubuntu17.10.1*
G04 #@! TF.CreationDate,2018-08-22T05:19:30-04:00*
G04 #@! TF.ProjectId,rgb-lamp,7267622D6C616D702E6B696361645F70,rev?*
G04 #@! TF.SameCoordinates,Original*
G04 #@! TF.FileFunction,Legend,Top*
G04 #@! TF.FilePolarity,Positive*
%FSLAX46Y46*%
G04 Gerber Fmt 4.6, Leading zero omitted, Abs format (unit mm)*
G04 Created by KiCad (PCBNEW 5.0.0-fee4fd1~65~ubuntu17.10.1) date Wed Aug 22 05:19:30 2018*
%MOMM*%
%LPD*%
G01*
G04 APERTURE LIST*
%ADD10C,0.180000*%
%ADD11C,0.300000*%
G04 APERTURE END LIST*
D10*
G04 #@! TO.C,U1*
X116880000Y-80680000D02*
X118080000Y-80680000D01*
X118080000Y-80680000D02*
X118080000Y-78780000D01*
D11*
X116280000Y-78480000D02*
G75*
G03X116280000Y-78480000I-100000J0D01*
G01*
D10*
X116880000Y-83580000D02*
X116880000Y-83780000D01*
X116880000Y-83780000D02*
X121880000Y-83780000D01*
X121880000Y-83780000D02*
X121880000Y-83580000D01*
X116880000Y-80380000D02*
X116880000Y-82180000D01*
X121880000Y-78780000D02*
X116880000Y-78780000D01*
X116880000Y-78780000D02*
X116880000Y-78980000D01*
X121880000Y-78780000D02*
X121880000Y-78980000D01*
X121880000Y-82280000D02*
X121880000Y-80380000D01*
G04 #@! TO.C,U2*
X116880000Y-89570000D02*
X118080000Y-89570000D01*
X118080000Y-89570000D02*
X118080000Y-87670000D01*
D11*
X116280000Y-87370000D02*
G75*
G03X116280000Y-87370000I-100000J0D01*
G01*
D10*
X116880000Y-92470000D02*
X116880000Y-92670000D01*
X116880000Y-92670000D02*
X121880000Y-92670000D01*
X121880000Y-92670000D02*
X121880000Y-92470000D01*
X116880000Y-89270000D02*
X116880000Y-91070000D01*
X121880000Y-87670000D02*
X116880000Y-87670000D01*
X116880000Y-87670000D02*
X116880000Y-87870000D01*
X121880000Y-87670000D02*
X121880000Y-87870000D01*
X121880000Y-91170000D02*
X121880000Y-89270000D01*
G04 #@! TO.C,U3*
X121880000Y-99660000D02*
X120680000Y-99660000D01*
X120680000Y-99660000D02*
X120680000Y-101560000D01*
D11*
X122680000Y-101860000D02*
G75*
G03X122680000Y-101860000I-100000J0D01*
G01*
D10*
X121880000Y-96760000D02*
X121880000Y-96560000D01*
X121880000Y-96560000D02*
X116880000Y-96560000D01*
X116880000Y-96560000D02*
X116880000Y-96760000D01*
X121880000Y-99960000D02*
X121880000Y-98160000D01*
X116880000Y-101560000D02*
X121880000Y-101560000D01*
X121880000Y-101560000D02*
X121880000Y-101360000D01*
X116880000Y-101560000D02*
X116880000Y-101360000D01*
X116880000Y-98060000D02*
X116880000Y-99960000D01*
G04 #@! TO.C,C1*
X119507000Y-84836000D02*
X123063000Y-84836000D01*
X123063000Y-84836000D02*
X123063000Y-86614000D01*
X123063000Y-86614000D02*
X119507000Y-86614000D01*
X119507000Y-86614000D02*
X119507000Y-84836000D01*
G04 #@! TO.C,C2*
X123063000Y-95504000D02*
X119507000Y-95504000D01*
X119507000Y-95504000D02*
X119507000Y-93726000D01*
X119507000Y-93726000D02*
X123063000Y-93726000D01*
X123063000Y-93726000D02*
X123063000Y-95504000D01*
G04 #@! TO.C,C3*
X115697000Y-93726000D02*
X119253000Y-93726000D01*
X119253000Y-93726000D02*
X119253000Y-95504000D01*
X119253000Y-95504000D02*
X115697000Y-95504000D01*
X115697000Y-95504000D02*
X115697000Y-93726000D01*
G04 #@! TO.C,R1*
X119253000Y-86614000D02*
X115697000Y-86614000D01*
X115697000Y-86614000D02*
X115697000Y-84836000D01*
X115697000Y-84836000D02*
X119253000Y-84836000D01*
X119253000Y-84836000D02*
X119253000Y-86614000D01*
G04 #@! TO.C,U1*
X121005095Y-77565380D02*
X121005095Y-78374904D01*
X121052714Y-78470142D01*
X121100333Y-78517761D01*
X121195571Y-78565380D01*
X121386047Y-78565380D01*
X121481285Y-78517761D01*
X121528904Y-78470142D01*
X121576523Y-78374904D01*
X121576523Y-77565380D01*
X122576523Y-78565380D02*
X122005095Y-78565380D01*
X122290809Y-78565380D02*
X122290809Y-77565380D01*
X122195571Y-77708238D01*
X122100333Y-77803476D01*
X122005095Y-77851095D01*
G04 #@! TO.C,U2*
X122783095Y-92297380D02*
X122783095Y-93106904D01*
X122830714Y-93202142D01*
X122878333Y-93249761D01*
X122973571Y-93297380D01*
X123164047Y-93297380D01*
X123259285Y-93249761D01*
X123306904Y-93202142D01*
X123354523Y-93106904D01*
X123354523Y-92297380D01*
X123783095Y-92392619D02*
X123830714Y-92345000D01*
X123925952Y-92297380D01*
X124164047Y-92297380D01*
X124259285Y-92345000D01*
X124306904Y-92392619D01*
X124354523Y-92487857D01*
X124354523Y-92583095D01*
X124306904Y-92725952D01*
X123735476Y-93297380D01*
X124354523Y-93297380D01*
G04 #@! TO.C,U3*
X117195095Y-101822380D02*
X117195095Y-102631904D01*
X117242714Y-102727142D01*
X117290333Y-102774761D01*
X117385571Y-102822380D01*
X117576047Y-102822380D01*
X117671285Y-102774761D01*
X117718904Y-102727142D01*
X117766523Y-102631904D01*
X117766523Y-101822380D01*
X118147476Y-101822380D02*
X118766523Y-101822380D01*
X118433190Y-102203333D01*
X118576047Y-102203333D01*
X118671285Y-102250952D01*
X118718904Y-102298571D01*
X118766523Y-102393809D01*
X118766523Y-102631904D01*
X118718904Y-102727142D01*
X118671285Y-102774761D01*
X118576047Y-102822380D01*
X118290333Y-102822380D01*
X118195095Y-102774761D01*
X118147476Y-102727142D01*
G04 #@! TO.C,C1*
X124317142Y-85814476D02*
X124364761Y-85862095D01*
X124412380Y-86004952D01*
X124412380Y-86100190D01*
X124364761Y-86243047D01*
X124269523Y-86338285D01*
X124174285Y-86385904D01*
X123983809Y-86433523D01*
X123840952Y-86433523D01*
X123650476Y-86385904D01*
X123555238Y-86338285D01*
X123460000Y-86243047D01*
X123412380Y-86100190D01*
X123412380Y-86004952D01*
X123460000Y-85862095D01*
X123507619Y-85814476D01*
X124412380Y-84862095D02*
X124412380Y-85433523D01*
X124412380Y-85147809D02*
X123412380Y-85147809D01*
X123555238Y-85243047D01*
X123650476Y-85338285D01*
X123698095Y-85433523D01*
G04 #@! TO.C,C2*
X124317142Y-94704476D02*
X124364761Y-94752095D01*
X124412380Y-94894952D01*
X124412380Y-94990190D01*
X124364761Y-95133047D01*
X124269523Y-95228285D01*
X124174285Y-95275904D01*
X123983809Y-95323523D01*
X123840952Y-95323523D01*
X123650476Y-95275904D01*
X123555238Y-95228285D01*
X123460000Y-95133047D01*
X123412380Y-94990190D01*
X123412380Y-94894952D01*
X123460000Y-94752095D01*
X123507619Y-94704476D01*
X123507619Y-94323523D02*
X123460000Y-94275904D01*
X123412380Y-94180666D01*
X123412380Y-93942571D01*
X123460000Y-93847333D01*
X123507619Y-93799714D01*
X123602857Y-93752095D01*
X123698095Y-93752095D01*
X123840952Y-93799714D01*
X124412380Y-94371142D01*
X124412380Y-93752095D01*
G04 #@! TO.C,C3*
X115173142Y-94704476D02*
X115220761Y-94752095D01*
X115268380Y-94894952D01*
X115268380Y-94990190D01*
X115220761Y-95133047D01*
X115125523Y-95228285D01*
X115030285Y-95275904D01*
X114839809Y-95323523D01*
X114696952Y-95323523D01*
X114506476Y-95275904D01*
X114411238Y-95228285D01*
X114316000Y-95133047D01*
X114268380Y-94990190D01*
X114268380Y-94894952D01*
X114316000Y-94752095D01*
X114363619Y-94704476D01*
X114268380Y-94371142D02*
X114268380Y-93752095D01*
X114649333Y-94085428D01*
X114649333Y-93942571D01*
X114696952Y-93847333D01*
X114744571Y-93799714D01*
X114839809Y-93752095D01*
X115077904Y-93752095D01*
X115173142Y-93799714D01*
X115220761Y-93847333D01*
X115268380Y-93942571D01*
X115268380Y-94228285D01*
X115220761Y-94323523D01*
X115173142Y-94371142D01*
G04 #@! TO.C,R1*
X115268380Y-86068476D02*
X114792190Y-86401809D01*
X115268380Y-86639904D02*
X114268380Y-86639904D01*
X114268380Y-86258952D01*
X114316000Y-86163714D01*
X114363619Y-86116095D01*
X114458857Y-86068476D01*
X114601714Y-86068476D01*
X114696952Y-86116095D01*
X114744571Y-86163714D01*
X114792190Y-86258952D01*
X114792190Y-86639904D01*
X115268380Y-85116095D02*
X115268380Y-85687523D01*
X115268380Y-85401809D02*
X114268380Y-85401809D01*
X114411238Y-85497047D01*
X114506476Y-85592285D01*
X114554095Y-85687523D01*
G04 #@! TD*
M02*
