G04 #@! TF.GenerationSoftware,KiCad,Pcbnew,5.0.0-fee4fd1~65~ubuntu17.10.1*
G04 #@! TF.CreationDate,2018-09-18T23:28:09-04:00*
G04 #@! TF.ProjectId,rgb-lamp,7267622D6C616D702E6B696361645F70,rev?*
G04 #@! TF.SameCoordinates,Original*
G04 #@! TF.FileFunction,Copper,L1,Top,Signal*
G04 #@! TF.FilePolarity,Positive*
%FSLAX46Y46*%
G04 Gerber Fmt 4.6, Leading zero omitted, Abs format (unit mm)*
G04 Created by KiCad (PCBNEW 5.0.0-fee4fd1~65~ubuntu17.10.1) date Tue Sep 18 23:28:09 2018*
%MOMM*%
%LPD*%
G01*
G04 APERTURE LIST*
G04 #@! TA.AperFunction,SMDPad,CuDef*
%ADD10R,1.500000X1.000000*%
G04 #@! TD*
G04 #@! TA.AperFunction,ComponentPad*
%ADD11C,6.096000*%
G04 #@! TD*
G04 #@! TA.AperFunction,SMDPad,CuDef*
%ADD12R,1.100000X1.000000*%
G04 #@! TD*
G04 #@! TA.AperFunction,ViaPad*
%ADD13C,0.965200*%
G04 #@! TD*
G04 #@! TA.AperFunction,ViaPad*
%ADD14C,1.270000*%
G04 #@! TD*
G04 #@! TA.AperFunction,Conductor*
%ADD15C,0.406400*%
G04 #@! TD*
G04 #@! TA.AperFunction,Conductor*
%ADD16C,0.254000*%
G04 #@! TD*
%ADD17C,0.350000*%
G04 APERTURE END LIST*
D10*
G04 #@! TO.P,U1,2*
G04 #@! TO.N,Net-(U1-Pad2)*
X121830000Y-79680000D03*
G04 #@! TO.P,U1,3*
G04 #@! TO.N,GND*
X116930000Y-79680000D03*
G04 #@! TO.P,U1,4*
G04 #@! TO.N,Net-(J1-Pad2)*
X116930000Y-82880000D03*
G04 #@! TO.P,U1,1*
G04 #@! TO.N,+5V*
X121830000Y-82880000D03*
G04 #@! TD*
G04 #@! TO.P,U2,2*
G04 #@! TO.N,Net-(U2-Pad2)*
X121830000Y-88570000D03*
G04 #@! TO.P,U2,3*
G04 #@! TO.N,GND*
X116930000Y-88570000D03*
G04 #@! TO.P,U2,4*
G04 #@! TO.N,Net-(U1-Pad2)*
X116930000Y-91770000D03*
G04 #@! TO.P,U2,1*
G04 #@! TO.N,+5V*
X121830000Y-91770000D03*
G04 #@! TD*
G04 #@! TO.P,U3,2*
G04 #@! TO.N,Net-(U3-Pad2)*
X116930000Y-100660000D03*
G04 #@! TO.P,U3,3*
G04 #@! TO.N,GND*
X121830000Y-100660000D03*
G04 #@! TO.P,U3,4*
G04 #@! TO.N,Net-(U2-Pad2)*
X121830000Y-97460000D03*
G04 #@! TO.P,U3,1*
G04 #@! TO.N,+5V*
X116930000Y-97460000D03*
G04 #@! TD*
D11*
G04 #@! TO.P,H1,P*
G04 #@! TO.N,GND*
X119380000Y-106680000D03*
G04 #@! TD*
G04 #@! TO.P,H2,P*
G04 #@! TO.N,GND*
X119380000Y-73660000D03*
G04 #@! TD*
D12*
G04 #@! TO.P,C1,1*
G04 #@! TO.N,+5V*
X120435000Y-85725000D03*
G04 #@! TO.P,C1,2*
G04 #@! TO.N,GND*
X122135000Y-85725000D03*
G04 #@! TD*
G04 #@! TO.P,C2,1*
G04 #@! TO.N,+5V*
X122135000Y-94615000D03*
G04 #@! TO.P,C2,2*
G04 #@! TO.N,GND*
X120435000Y-94615000D03*
G04 #@! TD*
G04 #@! TO.P,C3,1*
G04 #@! TO.N,+5V*
X116625000Y-94615000D03*
G04 #@! TO.P,C3,2*
G04 #@! TO.N,GND*
X118325000Y-94615000D03*
G04 #@! TD*
D13*
G04 #@! TO.N,Net-(J1-Pad2)*
X118745000Y-86995000D03*
D14*
G04 #@! TO.N,+5V*
X121830000Y-93255000D03*
X115570098Y-93345000D03*
X118745000Y-84455000D03*
G04 #@! TO.N,GND*
X119380000Y-93345000D03*
X114935000Y-86995000D03*
X114935000Y-79375000D03*
X114935000Y-85090000D03*
X114935000Y-83185000D03*
X114935000Y-81280000D03*
X124460000Y-106045000D03*
X124460000Y-104140000D03*
X124460000Y-102235000D03*
X124460000Y-100330000D03*
X124460000Y-98425000D03*
X114300000Y-106045000D03*
X114300000Y-104140000D03*
X114300000Y-102235000D03*
X114300000Y-100330000D03*
X114300000Y-98425000D03*
X118745000Y-79375000D03*
X120015000Y-79375000D03*
X118745000Y-81280000D03*
X120015000Y-81280000D03*
X118745000Y-100965000D03*
X118745000Y-99060000D03*
X118745000Y-97155000D03*
X120015000Y-97155000D03*
X120015000Y-100965000D03*
X120015000Y-99060000D03*
X124460000Y-85090000D03*
X124460000Y-79375000D03*
X124460000Y-81280000D03*
X124460000Y-83185000D03*
X124460000Y-86995000D03*
G04 #@! TD*
D15*
G04 #@! TO.N,*
X117621862Y-93345000D02*
X117516176Y-93239314D01*
D16*
G04 #@! TO.N,Net-(J1-Pad2)*
X116930000Y-85180000D02*
X118745000Y-86995000D01*
X116930000Y-82880000D02*
X116930000Y-85180000D01*
G04 #@! TO.N,Net-(U1-Pad2)*
X121830000Y-79680000D02*
X121830000Y-78650000D01*
X121830000Y-78650000D02*
X121031001Y-77851001D01*
X121031001Y-77851001D02*
X114553999Y-77851001D01*
X114553999Y-77851001D02*
X113665000Y-78740000D01*
X113665000Y-78740000D02*
X113665000Y-89535000D01*
X115900000Y-91770000D02*
X116930000Y-91770000D01*
X113665000Y-89535000D02*
X115900000Y-91770000D01*
G04 #@! TO.N,Net-(U2-Pad2)*
X121830000Y-88570000D02*
X123495000Y-88570000D01*
X123495000Y-88570000D02*
X124460000Y-89535000D01*
X124460000Y-89535000D02*
X124460000Y-96520000D01*
X124460000Y-96520000D02*
X123520000Y-97460000D01*
X123520000Y-97460000D02*
X121830000Y-97460000D01*
D15*
G04 #@! TO.N,+5V*
X115942073Y-94615000D02*
X116625000Y-94615000D01*
X115570098Y-93345000D02*
X115570098Y-94243025D01*
X115570098Y-94243025D02*
X115942073Y-94615000D01*
X116625000Y-94400000D02*
X116625000Y-94615000D01*
X116930000Y-95975000D02*
X116625000Y-95670000D01*
X116625000Y-95670000D02*
X116625000Y-94615000D01*
X116930000Y-97460000D02*
X116930000Y-95975000D01*
X121830000Y-93255000D02*
X122135000Y-93560000D01*
X122135000Y-93560000D02*
X122135000Y-94615000D01*
X121830000Y-91770000D02*
X121830000Y-93255000D01*
X118745000Y-84455000D02*
X120435000Y-84455000D01*
X120435000Y-85725000D02*
X120435000Y-84455000D01*
X120955000Y-82880000D02*
X121830000Y-82880000D01*
X120435000Y-84455000D02*
X120435000Y-83400000D01*
X120435000Y-83400000D02*
X120955000Y-82880000D01*
G04 #@! TO.N,GND*
X114935000Y-83185000D02*
X114935000Y-85090000D01*
X118745000Y-81280000D02*
X114935000Y-81280000D01*
X124460000Y-102235000D02*
X124460000Y-104140000D01*
X124460000Y-98425000D02*
X124460000Y-100330000D01*
X118745000Y-99060000D02*
X116205000Y-99060000D01*
X116205000Y-99060000D02*
X115570000Y-98425000D01*
X115570000Y-98425000D02*
X114300000Y-98425000D01*
X120015000Y-99060000D02*
X122555000Y-99060000D01*
X122555000Y-99060000D02*
X123190000Y-98425000D01*
X123190000Y-98425000D02*
X124460000Y-98425000D01*
X114300000Y-104140000D02*
X114300000Y-106045000D01*
X114300000Y-100330000D02*
X114300000Y-102235000D01*
X119380000Y-96520000D02*
X119380000Y-93345000D01*
X120015000Y-97155000D02*
X119380000Y-96520000D01*
X118745000Y-81280000D02*
X118745000Y-79375000D01*
X120015000Y-81280000D02*
X120015000Y-79375000D01*
X124460000Y-86995000D02*
X122555000Y-86995000D01*
X118745000Y-99060000D02*
X118745000Y-100965000D01*
X120015000Y-97155000D02*
X118745000Y-97155000D01*
X124460000Y-98425000D02*
X124460000Y-99060000D01*
X124460000Y-99060000D02*
X120015000Y-99060000D01*
X124460000Y-86995000D02*
X124460000Y-85090000D01*
X124460000Y-83185000D02*
X124460000Y-81280000D01*
G04 #@! TD*
D16*
G04 #@! TO.N,GND*
G36*
X117221666Y-70783246D02*
X119380000Y-72941580D01*
X121538334Y-70783246D01*
X121340683Y-70560000D01*
X125020001Y-70560000D01*
X125020001Y-89001537D01*
X125009371Y-88985629D01*
X124945749Y-88943118D01*
X124086883Y-88084253D01*
X124044371Y-88020629D01*
X123792317Y-87852212D01*
X123570048Y-87808000D01*
X123570043Y-87808000D01*
X123495000Y-87793073D01*
X123419957Y-87808000D01*
X123168645Y-87808000D01*
X123037809Y-87612191D01*
X122827765Y-87471843D01*
X122580000Y-87422560D01*
X121080000Y-87422560D01*
X120832235Y-87471843D01*
X120622191Y-87612191D01*
X120481843Y-87822235D01*
X120432560Y-88070000D01*
X120432560Y-89070000D01*
X120481843Y-89317765D01*
X120622191Y-89527809D01*
X120832235Y-89668157D01*
X121080000Y-89717440D01*
X122580000Y-89717440D01*
X122827765Y-89668157D01*
X123037809Y-89527809D01*
X123168645Y-89332000D01*
X123179370Y-89332000D01*
X123698000Y-89850631D01*
X123698001Y-96204368D01*
X123204370Y-96698000D01*
X123168645Y-96698000D01*
X123037809Y-96502191D01*
X122827765Y-96361843D01*
X122580000Y-96312560D01*
X121080000Y-96312560D01*
X120832235Y-96361843D01*
X120622191Y-96502191D01*
X120481843Y-96712235D01*
X120432560Y-96960000D01*
X120432560Y-97960000D01*
X120481843Y-98207765D01*
X120622191Y-98417809D01*
X120832235Y-98558157D01*
X121080000Y-98607440D01*
X122580000Y-98607440D01*
X122827765Y-98558157D01*
X123037809Y-98417809D01*
X123168645Y-98222000D01*
X123444957Y-98222000D01*
X123520000Y-98236927D01*
X123595043Y-98222000D01*
X123595048Y-98222000D01*
X123817317Y-98177788D01*
X124069371Y-98009371D01*
X124111883Y-97945747D01*
X124945749Y-97111882D01*
X125009371Y-97069371D01*
X125020000Y-97053463D01*
X125020000Y-109780000D01*
X121340683Y-109780000D01*
X121538334Y-109556754D01*
X119380000Y-107398420D01*
X117221666Y-109556754D01*
X117419317Y-109780000D01*
X113740000Y-109780000D01*
X113740000Y-106305399D01*
X115643577Y-106305399D01*
X115784642Y-107763781D01*
X116071349Y-108455953D01*
X116503246Y-108838334D01*
X118661580Y-106680000D01*
X120098420Y-106680000D01*
X122256754Y-108838334D01*
X122688651Y-108455953D01*
X123116423Y-107054601D01*
X122975358Y-105596219D01*
X122688651Y-104904047D01*
X122256754Y-104521666D01*
X120098420Y-106680000D01*
X118661580Y-106680000D01*
X116503246Y-104521666D01*
X116071349Y-104904047D01*
X115643577Y-106305399D01*
X113740000Y-106305399D01*
X113740000Y-103803246D01*
X117221666Y-103803246D01*
X119380000Y-105961580D01*
X121538334Y-103803246D01*
X121155953Y-103371349D01*
X119754601Y-102943577D01*
X118296219Y-103084642D01*
X117604047Y-103371349D01*
X117221666Y-103803246D01*
X113740000Y-103803246D01*
X113740000Y-100160000D01*
X115532560Y-100160000D01*
X115532560Y-101160000D01*
X115581843Y-101407765D01*
X115722191Y-101617809D01*
X115932235Y-101758157D01*
X116180000Y-101807440D01*
X117680000Y-101807440D01*
X117927765Y-101758157D01*
X118137809Y-101617809D01*
X118278157Y-101407765D01*
X118327440Y-101160000D01*
X118327440Y-100945750D01*
X120445000Y-100945750D01*
X120445000Y-101286310D01*
X120541673Y-101519699D01*
X120720302Y-101698327D01*
X120953691Y-101795000D01*
X121544250Y-101795000D01*
X121703000Y-101636250D01*
X121703000Y-100787000D01*
X121957000Y-100787000D01*
X121957000Y-101636250D01*
X122115750Y-101795000D01*
X122706309Y-101795000D01*
X122939698Y-101698327D01*
X123118327Y-101519699D01*
X123215000Y-101286310D01*
X123215000Y-100945750D01*
X123056250Y-100787000D01*
X121957000Y-100787000D01*
X121703000Y-100787000D01*
X120603750Y-100787000D01*
X120445000Y-100945750D01*
X118327440Y-100945750D01*
X118327440Y-100160000D01*
X118302316Y-100033690D01*
X120445000Y-100033690D01*
X120445000Y-100374250D01*
X120603750Y-100533000D01*
X121703000Y-100533000D01*
X121703000Y-99683750D01*
X121957000Y-99683750D01*
X121957000Y-100533000D01*
X123056250Y-100533000D01*
X123215000Y-100374250D01*
X123215000Y-100033690D01*
X123118327Y-99800301D01*
X122939698Y-99621673D01*
X122706309Y-99525000D01*
X122115750Y-99525000D01*
X121957000Y-99683750D01*
X121703000Y-99683750D01*
X121544250Y-99525000D01*
X120953691Y-99525000D01*
X120720302Y-99621673D01*
X120541673Y-99800301D01*
X120445000Y-100033690D01*
X118302316Y-100033690D01*
X118278157Y-99912235D01*
X118137809Y-99702191D01*
X117927765Y-99561843D01*
X117680000Y-99512560D01*
X116180000Y-99512560D01*
X115932235Y-99561843D01*
X115722191Y-99702191D01*
X115581843Y-99912235D01*
X115532560Y-100160000D01*
X113740000Y-100160000D01*
X113740000Y-90687630D01*
X115183051Y-92130682D01*
X114850701Y-92268346D01*
X114493444Y-92625603D01*
X114300098Y-93092381D01*
X114300098Y-93597619D01*
X114493444Y-94064397D01*
X114726256Y-94297209D01*
X114780532Y-94570074D01*
X114919027Y-94777347D01*
X114919029Y-94777349D01*
X114965791Y-94847333D01*
X115035775Y-94894095D01*
X115291001Y-95149321D01*
X115337765Y-95219308D01*
X115465252Y-95304492D01*
X115476843Y-95362765D01*
X115617191Y-95572809D01*
X115771565Y-95675959D01*
X115786800Y-95752549D01*
X115786800Y-95752553D01*
X115835433Y-95997048D01*
X116020692Y-96274308D01*
X116090679Y-96321072D01*
X116091801Y-96322194D01*
X116091801Y-96330104D01*
X115932235Y-96361843D01*
X115722191Y-96502191D01*
X115581843Y-96712235D01*
X115532560Y-96960000D01*
X115532560Y-97960000D01*
X115581843Y-98207765D01*
X115722191Y-98417809D01*
X115932235Y-98558157D01*
X116180000Y-98607440D01*
X117680000Y-98607440D01*
X117927765Y-98558157D01*
X118137809Y-98417809D01*
X118278157Y-98207765D01*
X118327440Y-97960000D01*
X118327440Y-96960000D01*
X118278157Y-96712235D01*
X118137809Y-96502191D01*
X117927765Y-96361843D01*
X117768200Y-96330104D01*
X117768200Y-96057548D01*
X117784620Y-95974999D01*
X117768200Y-95892450D01*
X117768200Y-95892446D01*
X117739866Y-95750000D01*
X118039250Y-95750000D01*
X118198000Y-95591250D01*
X118198000Y-94742000D01*
X118452000Y-94742000D01*
X118452000Y-95591250D01*
X118610750Y-95750000D01*
X119001309Y-95750000D01*
X119234698Y-95653327D01*
X119380000Y-95508026D01*
X119525302Y-95653327D01*
X119758691Y-95750000D01*
X120149250Y-95750000D01*
X120308000Y-95591250D01*
X120308000Y-94742000D01*
X119408750Y-94742000D01*
X119380000Y-94770750D01*
X119351250Y-94742000D01*
X118452000Y-94742000D01*
X118198000Y-94742000D01*
X118178000Y-94742000D01*
X118178000Y-94488000D01*
X118198000Y-94488000D01*
X118198000Y-94468000D01*
X118452000Y-94468000D01*
X118452000Y-94488000D01*
X119351250Y-94488000D01*
X119380000Y-94459250D01*
X119408750Y-94488000D01*
X120308000Y-94488000D01*
X120308000Y-93638750D01*
X120149250Y-93480000D01*
X119758691Y-93480000D01*
X119525302Y-93576673D01*
X119380000Y-93721974D01*
X119234698Y-93576673D01*
X119001309Y-93480000D01*
X118610750Y-93480000D01*
X118452002Y-93638748D01*
X118452002Y-93480000D01*
X118449629Y-93480000D01*
X118476482Y-93345000D01*
X118411429Y-93017951D01*
X118272933Y-92810678D01*
X118158740Y-92696485D01*
X118278157Y-92517765D01*
X118327440Y-92270000D01*
X118327440Y-91270000D01*
X120432560Y-91270000D01*
X120432560Y-92270000D01*
X120481843Y-92517765D01*
X120622191Y-92727809D01*
X120662559Y-92754782D01*
X120560000Y-93002381D01*
X120560000Y-93507619D01*
X120598993Y-93601757D01*
X120562000Y-93638750D01*
X120562000Y-94488000D01*
X120582000Y-94488000D01*
X120582000Y-94742000D01*
X120562000Y-94742000D01*
X120562000Y-95591250D01*
X120720750Y-95750000D01*
X121111309Y-95750000D01*
X121284816Y-95678131D01*
X121337235Y-95713157D01*
X121585000Y-95762440D01*
X122685000Y-95762440D01*
X122932765Y-95713157D01*
X123142809Y-95572809D01*
X123283157Y-95362765D01*
X123332440Y-95115000D01*
X123332440Y-94115000D01*
X123283157Y-93867235D01*
X123142809Y-93657191D01*
X123060755Y-93602364D01*
X123100000Y-93507619D01*
X123100000Y-93002381D01*
X122997441Y-92754782D01*
X123037809Y-92727809D01*
X123178157Y-92517765D01*
X123227440Y-92270000D01*
X123227440Y-91270000D01*
X123178157Y-91022235D01*
X123037809Y-90812191D01*
X122827765Y-90671843D01*
X122580000Y-90622560D01*
X121080000Y-90622560D01*
X120832235Y-90671843D01*
X120622191Y-90812191D01*
X120481843Y-91022235D01*
X120432560Y-91270000D01*
X118327440Y-91270000D01*
X118278157Y-91022235D01*
X118137809Y-90812191D01*
X117927765Y-90671843D01*
X117680000Y-90622560D01*
X116180000Y-90622560D01*
X115932235Y-90671843D01*
X115900607Y-90692976D01*
X114427000Y-89219370D01*
X114427000Y-88855750D01*
X115545000Y-88855750D01*
X115545000Y-89196310D01*
X115641673Y-89429699D01*
X115820302Y-89608327D01*
X116053691Y-89705000D01*
X116644250Y-89705000D01*
X116803000Y-89546250D01*
X116803000Y-88697000D01*
X117057000Y-88697000D01*
X117057000Y-89546250D01*
X117215750Y-89705000D01*
X117806309Y-89705000D01*
X118039698Y-89608327D01*
X118218327Y-89429699D01*
X118315000Y-89196310D01*
X118315000Y-88855750D01*
X118156250Y-88697000D01*
X117057000Y-88697000D01*
X116803000Y-88697000D01*
X115703750Y-88697000D01*
X115545000Y-88855750D01*
X114427000Y-88855750D01*
X114427000Y-87943690D01*
X115545000Y-87943690D01*
X115545000Y-88284250D01*
X115703750Y-88443000D01*
X116803000Y-88443000D01*
X116803000Y-87593750D01*
X116644250Y-87435000D01*
X116053691Y-87435000D01*
X115820302Y-87531673D01*
X115641673Y-87710301D01*
X115545000Y-87943690D01*
X114427000Y-87943690D01*
X114427000Y-82380000D01*
X115532560Y-82380000D01*
X115532560Y-83380000D01*
X115581843Y-83627765D01*
X115722191Y-83837809D01*
X115932235Y-83978157D01*
X116168000Y-84025053D01*
X116168001Y-85104952D01*
X116153073Y-85180000D01*
X116212213Y-85477317D01*
X116292851Y-85598000D01*
X116380630Y-85729371D01*
X116444251Y-85771881D01*
X117627400Y-86955031D01*
X117627400Y-87217304D01*
X117717573Y-87435000D01*
X117215750Y-87435000D01*
X117057000Y-87593750D01*
X117057000Y-88443000D01*
X118156250Y-88443000D01*
X118315000Y-88284250D01*
X118315000Y-88026569D01*
X118522696Y-88112600D01*
X118967304Y-88112600D01*
X119378070Y-87942455D01*
X119692455Y-87628070D01*
X119862600Y-87217304D01*
X119862600Y-86867984D01*
X119885000Y-86872440D01*
X120985000Y-86872440D01*
X121232765Y-86823157D01*
X121285184Y-86788131D01*
X121458691Y-86860000D01*
X121849250Y-86860000D01*
X122008000Y-86701250D01*
X122008000Y-85852000D01*
X122262000Y-85852000D01*
X122262000Y-86701250D01*
X122420750Y-86860000D01*
X122811309Y-86860000D01*
X123044698Y-86763327D01*
X123223327Y-86584699D01*
X123320000Y-86351310D01*
X123320000Y-86010750D01*
X123161250Y-85852000D01*
X122262000Y-85852000D01*
X122008000Y-85852000D01*
X121988000Y-85852000D01*
X121988000Y-85598000D01*
X122008000Y-85598000D01*
X122008000Y-84748750D01*
X122262000Y-84748750D01*
X122262000Y-85598000D01*
X123161250Y-85598000D01*
X123320000Y-85439250D01*
X123320000Y-85098690D01*
X123223327Y-84865301D01*
X123044698Y-84686673D01*
X122811309Y-84590000D01*
X122420750Y-84590000D01*
X122262000Y-84748750D01*
X122008000Y-84748750D01*
X121849250Y-84590000D01*
X121458691Y-84590000D01*
X121285184Y-84661869D01*
X121273200Y-84653861D01*
X121273200Y-84537553D01*
X121289621Y-84455000D01*
X121273200Y-84372446D01*
X121273200Y-84027440D01*
X122580000Y-84027440D01*
X122827765Y-83978157D01*
X123037809Y-83837809D01*
X123178157Y-83627765D01*
X123227440Y-83380000D01*
X123227440Y-82380000D01*
X123178157Y-82132235D01*
X123037809Y-81922191D01*
X122827765Y-81781843D01*
X122580000Y-81732560D01*
X121080000Y-81732560D01*
X120832235Y-81781843D01*
X120622191Y-81922191D01*
X120481843Y-82132235D01*
X120469037Y-82196616D01*
X120350692Y-82275692D01*
X120303928Y-82345679D01*
X119900677Y-82748930D01*
X119830693Y-82795692D01*
X119783931Y-82865676D01*
X119783929Y-82865678D01*
X119645434Y-83072951D01*
X119580380Y-83400000D01*
X119596801Y-83482553D01*
X119596801Y-83510750D01*
X119464397Y-83378346D01*
X118997619Y-83185000D01*
X118492381Y-83185000D01*
X118327440Y-83253321D01*
X118327440Y-82380000D01*
X118278157Y-82132235D01*
X118137809Y-81922191D01*
X117927765Y-81781843D01*
X117680000Y-81732560D01*
X116180000Y-81732560D01*
X115932235Y-81781843D01*
X115722191Y-81922191D01*
X115581843Y-82132235D01*
X115532560Y-82380000D01*
X114427000Y-82380000D01*
X114427000Y-79965750D01*
X115545000Y-79965750D01*
X115545000Y-80306310D01*
X115641673Y-80539699D01*
X115820302Y-80718327D01*
X116053691Y-80815000D01*
X116644250Y-80815000D01*
X116803000Y-80656250D01*
X116803000Y-79807000D01*
X117057000Y-79807000D01*
X117057000Y-80656250D01*
X117215750Y-80815000D01*
X117806309Y-80815000D01*
X118039698Y-80718327D01*
X118218327Y-80539699D01*
X118315000Y-80306310D01*
X118315000Y-79965750D01*
X118156250Y-79807000D01*
X117057000Y-79807000D01*
X116803000Y-79807000D01*
X115703750Y-79807000D01*
X115545000Y-79965750D01*
X114427000Y-79965750D01*
X114427000Y-79055630D01*
X114869630Y-78613001D01*
X115889522Y-78613001D01*
X115820302Y-78641673D01*
X115641673Y-78820301D01*
X115545000Y-79053690D01*
X115545000Y-79394250D01*
X115703750Y-79553000D01*
X116803000Y-79553000D01*
X116803000Y-79533000D01*
X117057000Y-79533000D01*
X117057000Y-79553000D01*
X118156250Y-79553000D01*
X118315000Y-79394250D01*
X118315000Y-79053690D01*
X118218327Y-78820301D01*
X118039698Y-78641673D01*
X117970478Y-78613001D01*
X120715371Y-78613001D01*
X120743502Y-78641133D01*
X120622191Y-78722191D01*
X120481843Y-78932235D01*
X120432560Y-79180000D01*
X120432560Y-80180000D01*
X120481843Y-80427765D01*
X120622191Y-80637809D01*
X120832235Y-80778157D01*
X121080000Y-80827440D01*
X122580000Y-80827440D01*
X122827765Y-80778157D01*
X123037809Y-80637809D01*
X123178157Y-80427765D01*
X123227440Y-80180000D01*
X123227440Y-79180000D01*
X123178157Y-78932235D01*
X123037809Y-78722191D01*
X122827765Y-78581843D01*
X122583715Y-78533299D01*
X122547788Y-78352683D01*
X122537142Y-78336749D01*
X122421882Y-78164251D01*
X122379371Y-78100629D01*
X122315749Y-78058118D01*
X121622884Y-77365254D01*
X121580372Y-77301630D01*
X121328318Y-77133213D01*
X121106049Y-77089001D01*
X121106044Y-77089001D01*
X121031001Y-77074074D01*
X120955958Y-77089001D01*
X120865402Y-77089001D01*
X121155953Y-76968651D01*
X121538334Y-76536754D01*
X119380000Y-74378420D01*
X117221666Y-76536754D01*
X117604047Y-76968651D01*
X117998305Y-77089001D01*
X114629041Y-77089001D01*
X114553998Y-77074074D01*
X114478955Y-77089001D01*
X114478951Y-77089001D01*
X114256682Y-77133213D01*
X114256681Y-77133214D01*
X114256680Y-77133214D01*
X114073879Y-77255358D01*
X114004628Y-77301630D01*
X113962117Y-77365252D01*
X113740000Y-77587369D01*
X113740000Y-73285399D01*
X115643577Y-73285399D01*
X115784642Y-74743781D01*
X116071349Y-75435953D01*
X116503246Y-75818334D01*
X118661580Y-73660000D01*
X120098420Y-73660000D01*
X122256754Y-75818334D01*
X122688651Y-75435953D01*
X123116423Y-74034601D01*
X122975358Y-72576219D01*
X122688651Y-71884047D01*
X122256754Y-71501666D01*
X120098420Y-73660000D01*
X118661580Y-73660000D01*
X116503246Y-71501666D01*
X116071349Y-71884047D01*
X115643577Y-73285399D01*
X113740000Y-73285399D01*
X113740000Y-70560000D01*
X117419317Y-70560000D01*
X117221666Y-70783246D01*
X117221666Y-70783246D01*
G37*
X117221666Y-70783246D02*
X119380000Y-72941580D01*
X121538334Y-70783246D01*
X121340683Y-70560000D01*
X125020001Y-70560000D01*
X125020001Y-89001537D01*
X125009371Y-88985629D01*
X124945749Y-88943118D01*
X124086883Y-88084253D01*
X124044371Y-88020629D01*
X123792317Y-87852212D01*
X123570048Y-87808000D01*
X123570043Y-87808000D01*
X123495000Y-87793073D01*
X123419957Y-87808000D01*
X123168645Y-87808000D01*
X123037809Y-87612191D01*
X122827765Y-87471843D01*
X122580000Y-87422560D01*
X121080000Y-87422560D01*
X120832235Y-87471843D01*
X120622191Y-87612191D01*
X120481843Y-87822235D01*
X120432560Y-88070000D01*
X120432560Y-89070000D01*
X120481843Y-89317765D01*
X120622191Y-89527809D01*
X120832235Y-89668157D01*
X121080000Y-89717440D01*
X122580000Y-89717440D01*
X122827765Y-89668157D01*
X123037809Y-89527809D01*
X123168645Y-89332000D01*
X123179370Y-89332000D01*
X123698000Y-89850631D01*
X123698001Y-96204368D01*
X123204370Y-96698000D01*
X123168645Y-96698000D01*
X123037809Y-96502191D01*
X122827765Y-96361843D01*
X122580000Y-96312560D01*
X121080000Y-96312560D01*
X120832235Y-96361843D01*
X120622191Y-96502191D01*
X120481843Y-96712235D01*
X120432560Y-96960000D01*
X120432560Y-97960000D01*
X120481843Y-98207765D01*
X120622191Y-98417809D01*
X120832235Y-98558157D01*
X121080000Y-98607440D01*
X122580000Y-98607440D01*
X122827765Y-98558157D01*
X123037809Y-98417809D01*
X123168645Y-98222000D01*
X123444957Y-98222000D01*
X123520000Y-98236927D01*
X123595043Y-98222000D01*
X123595048Y-98222000D01*
X123817317Y-98177788D01*
X124069371Y-98009371D01*
X124111883Y-97945747D01*
X124945749Y-97111882D01*
X125009371Y-97069371D01*
X125020000Y-97053463D01*
X125020000Y-109780000D01*
X121340683Y-109780000D01*
X121538334Y-109556754D01*
X119380000Y-107398420D01*
X117221666Y-109556754D01*
X117419317Y-109780000D01*
X113740000Y-109780000D01*
X113740000Y-106305399D01*
X115643577Y-106305399D01*
X115784642Y-107763781D01*
X116071349Y-108455953D01*
X116503246Y-108838334D01*
X118661580Y-106680000D01*
X120098420Y-106680000D01*
X122256754Y-108838334D01*
X122688651Y-108455953D01*
X123116423Y-107054601D01*
X122975358Y-105596219D01*
X122688651Y-104904047D01*
X122256754Y-104521666D01*
X120098420Y-106680000D01*
X118661580Y-106680000D01*
X116503246Y-104521666D01*
X116071349Y-104904047D01*
X115643577Y-106305399D01*
X113740000Y-106305399D01*
X113740000Y-103803246D01*
X117221666Y-103803246D01*
X119380000Y-105961580D01*
X121538334Y-103803246D01*
X121155953Y-103371349D01*
X119754601Y-102943577D01*
X118296219Y-103084642D01*
X117604047Y-103371349D01*
X117221666Y-103803246D01*
X113740000Y-103803246D01*
X113740000Y-100160000D01*
X115532560Y-100160000D01*
X115532560Y-101160000D01*
X115581843Y-101407765D01*
X115722191Y-101617809D01*
X115932235Y-101758157D01*
X116180000Y-101807440D01*
X117680000Y-101807440D01*
X117927765Y-101758157D01*
X118137809Y-101617809D01*
X118278157Y-101407765D01*
X118327440Y-101160000D01*
X118327440Y-100945750D01*
X120445000Y-100945750D01*
X120445000Y-101286310D01*
X120541673Y-101519699D01*
X120720302Y-101698327D01*
X120953691Y-101795000D01*
X121544250Y-101795000D01*
X121703000Y-101636250D01*
X121703000Y-100787000D01*
X121957000Y-100787000D01*
X121957000Y-101636250D01*
X122115750Y-101795000D01*
X122706309Y-101795000D01*
X122939698Y-101698327D01*
X123118327Y-101519699D01*
X123215000Y-101286310D01*
X123215000Y-100945750D01*
X123056250Y-100787000D01*
X121957000Y-100787000D01*
X121703000Y-100787000D01*
X120603750Y-100787000D01*
X120445000Y-100945750D01*
X118327440Y-100945750D01*
X118327440Y-100160000D01*
X118302316Y-100033690D01*
X120445000Y-100033690D01*
X120445000Y-100374250D01*
X120603750Y-100533000D01*
X121703000Y-100533000D01*
X121703000Y-99683750D01*
X121957000Y-99683750D01*
X121957000Y-100533000D01*
X123056250Y-100533000D01*
X123215000Y-100374250D01*
X123215000Y-100033690D01*
X123118327Y-99800301D01*
X122939698Y-99621673D01*
X122706309Y-99525000D01*
X122115750Y-99525000D01*
X121957000Y-99683750D01*
X121703000Y-99683750D01*
X121544250Y-99525000D01*
X120953691Y-99525000D01*
X120720302Y-99621673D01*
X120541673Y-99800301D01*
X120445000Y-100033690D01*
X118302316Y-100033690D01*
X118278157Y-99912235D01*
X118137809Y-99702191D01*
X117927765Y-99561843D01*
X117680000Y-99512560D01*
X116180000Y-99512560D01*
X115932235Y-99561843D01*
X115722191Y-99702191D01*
X115581843Y-99912235D01*
X115532560Y-100160000D01*
X113740000Y-100160000D01*
X113740000Y-90687630D01*
X115183051Y-92130682D01*
X114850701Y-92268346D01*
X114493444Y-92625603D01*
X114300098Y-93092381D01*
X114300098Y-93597619D01*
X114493444Y-94064397D01*
X114726256Y-94297209D01*
X114780532Y-94570074D01*
X114919027Y-94777347D01*
X114919029Y-94777349D01*
X114965791Y-94847333D01*
X115035775Y-94894095D01*
X115291001Y-95149321D01*
X115337765Y-95219308D01*
X115465252Y-95304492D01*
X115476843Y-95362765D01*
X115617191Y-95572809D01*
X115771565Y-95675959D01*
X115786800Y-95752549D01*
X115786800Y-95752553D01*
X115835433Y-95997048D01*
X116020692Y-96274308D01*
X116090679Y-96321072D01*
X116091801Y-96322194D01*
X116091801Y-96330104D01*
X115932235Y-96361843D01*
X115722191Y-96502191D01*
X115581843Y-96712235D01*
X115532560Y-96960000D01*
X115532560Y-97960000D01*
X115581843Y-98207765D01*
X115722191Y-98417809D01*
X115932235Y-98558157D01*
X116180000Y-98607440D01*
X117680000Y-98607440D01*
X117927765Y-98558157D01*
X118137809Y-98417809D01*
X118278157Y-98207765D01*
X118327440Y-97960000D01*
X118327440Y-96960000D01*
X118278157Y-96712235D01*
X118137809Y-96502191D01*
X117927765Y-96361843D01*
X117768200Y-96330104D01*
X117768200Y-96057548D01*
X117784620Y-95974999D01*
X117768200Y-95892450D01*
X117768200Y-95892446D01*
X117739866Y-95750000D01*
X118039250Y-95750000D01*
X118198000Y-95591250D01*
X118198000Y-94742000D01*
X118452000Y-94742000D01*
X118452000Y-95591250D01*
X118610750Y-95750000D01*
X119001309Y-95750000D01*
X119234698Y-95653327D01*
X119380000Y-95508026D01*
X119525302Y-95653327D01*
X119758691Y-95750000D01*
X120149250Y-95750000D01*
X120308000Y-95591250D01*
X120308000Y-94742000D01*
X119408750Y-94742000D01*
X119380000Y-94770750D01*
X119351250Y-94742000D01*
X118452000Y-94742000D01*
X118198000Y-94742000D01*
X118178000Y-94742000D01*
X118178000Y-94488000D01*
X118198000Y-94488000D01*
X118198000Y-94468000D01*
X118452000Y-94468000D01*
X118452000Y-94488000D01*
X119351250Y-94488000D01*
X119380000Y-94459250D01*
X119408750Y-94488000D01*
X120308000Y-94488000D01*
X120308000Y-93638750D01*
X120149250Y-93480000D01*
X119758691Y-93480000D01*
X119525302Y-93576673D01*
X119380000Y-93721974D01*
X119234698Y-93576673D01*
X119001309Y-93480000D01*
X118610750Y-93480000D01*
X118452002Y-93638748D01*
X118452002Y-93480000D01*
X118449629Y-93480000D01*
X118476482Y-93345000D01*
X118411429Y-93017951D01*
X118272933Y-92810678D01*
X118158740Y-92696485D01*
X118278157Y-92517765D01*
X118327440Y-92270000D01*
X118327440Y-91270000D01*
X120432560Y-91270000D01*
X120432560Y-92270000D01*
X120481843Y-92517765D01*
X120622191Y-92727809D01*
X120662559Y-92754782D01*
X120560000Y-93002381D01*
X120560000Y-93507619D01*
X120598993Y-93601757D01*
X120562000Y-93638750D01*
X120562000Y-94488000D01*
X120582000Y-94488000D01*
X120582000Y-94742000D01*
X120562000Y-94742000D01*
X120562000Y-95591250D01*
X120720750Y-95750000D01*
X121111309Y-95750000D01*
X121284816Y-95678131D01*
X121337235Y-95713157D01*
X121585000Y-95762440D01*
X122685000Y-95762440D01*
X122932765Y-95713157D01*
X123142809Y-95572809D01*
X123283157Y-95362765D01*
X123332440Y-95115000D01*
X123332440Y-94115000D01*
X123283157Y-93867235D01*
X123142809Y-93657191D01*
X123060755Y-93602364D01*
X123100000Y-93507619D01*
X123100000Y-93002381D01*
X122997441Y-92754782D01*
X123037809Y-92727809D01*
X123178157Y-92517765D01*
X123227440Y-92270000D01*
X123227440Y-91270000D01*
X123178157Y-91022235D01*
X123037809Y-90812191D01*
X122827765Y-90671843D01*
X122580000Y-90622560D01*
X121080000Y-90622560D01*
X120832235Y-90671843D01*
X120622191Y-90812191D01*
X120481843Y-91022235D01*
X120432560Y-91270000D01*
X118327440Y-91270000D01*
X118278157Y-91022235D01*
X118137809Y-90812191D01*
X117927765Y-90671843D01*
X117680000Y-90622560D01*
X116180000Y-90622560D01*
X115932235Y-90671843D01*
X115900607Y-90692976D01*
X114427000Y-89219370D01*
X114427000Y-88855750D01*
X115545000Y-88855750D01*
X115545000Y-89196310D01*
X115641673Y-89429699D01*
X115820302Y-89608327D01*
X116053691Y-89705000D01*
X116644250Y-89705000D01*
X116803000Y-89546250D01*
X116803000Y-88697000D01*
X117057000Y-88697000D01*
X117057000Y-89546250D01*
X117215750Y-89705000D01*
X117806309Y-89705000D01*
X118039698Y-89608327D01*
X118218327Y-89429699D01*
X118315000Y-89196310D01*
X118315000Y-88855750D01*
X118156250Y-88697000D01*
X117057000Y-88697000D01*
X116803000Y-88697000D01*
X115703750Y-88697000D01*
X115545000Y-88855750D01*
X114427000Y-88855750D01*
X114427000Y-87943690D01*
X115545000Y-87943690D01*
X115545000Y-88284250D01*
X115703750Y-88443000D01*
X116803000Y-88443000D01*
X116803000Y-87593750D01*
X116644250Y-87435000D01*
X116053691Y-87435000D01*
X115820302Y-87531673D01*
X115641673Y-87710301D01*
X115545000Y-87943690D01*
X114427000Y-87943690D01*
X114427000Y-82380000D01*
X115532560Y-82380000D01*
X115532560Y-83380000D01*
X115581843Y-83627765D01*
X115722191Y-83837809D01*
X115932235Y-83978157D01*
X116168000Y-84025053D01*
X116168001Y-85104952D01*
X116153073Y-85180000D01*
X116212213Y-85477317D01*
X116292851Y-85598000D01*
X116380630Y-85729371D01*
X116444251Y-85771881D01*
X117627400Y-86955031D01*
X117627400Y-87217304D01*
X117717573Y-87435000D01*
X117215750Y-87435000D01*
X117057000Y-87593750D01*
X117057000Y-88443000D01*
X118156250Y-88443000D01*
X118315000Y-88284250D01*
X118315000Y-88026569D01*
X118522696Y-88112600D01*
X118967304Y-88112600D01*
X119378070Y-87942455D01*
X119692455Y-87628070D01*
X119862600Y-87217304D01*
X119862600Y-86867984D01*
X119885000Y-86872440D01*
X120985000Y-86872440D01*
X121232765Y-86823157D01*
X121285184Y-86788131D01*
X121458691Y-86860000D01*
X121849250Y-86860000D01*
X122008000Y-86701250D01*
X122008000Y-85852000D01*
X122262000Y-85852000D01*
X122262000Y-86701250D01*
X122420750Y-86860000D01*
X122811309Y-86860000D01*
X123044698Y-86763327D01*
X123223327Y-86584699D01*
X123320000Y-86351310D01*
X123320000Y-86010750D01*
X123161250Y-85852000D01*
X122262000Y-85852000D01*
X122008000Y-85852000D01*
X121988000Y-85852000D01*
X121988000Y-85598000D01*
X122008000Y-85598000D01*
X122008000Y-84748750D01*
X122262000Y-84748750D01*
X122262000Y-85598000D01*
X123161250Y-85598000D01*
X123320000Y-85439250D01*
X123320000Y-85098690D01*
X123223327Y-84865301D01*
X123044698Y-84686673D01*
X122811309Y-84590000D01*
X122420750Y-84590000D01*
X122262000Y-84748750D01*
X122008000Y-84748750D01*
X121849250Y-84590000D01*
X121458691Y-84590000D01*
X121285184Y-84661869D01*
X121273200Y-84653861D01*
X121273200Y-84537553D01*
X121289621Y-84455000D01*
X121273200Y-84372446D01*
X121273200Y-84027440D01*
X122580000Y-84027440D01*
X122827765Y-83978157D01*
X123037809Y-83837809D01*
X123178157Y-83627765D01*
X123227440Y-83380000D01*
X123227440Y-82380000D01*
X123178157Y-82132235D01*
X123037809Y-81922191D01*
X122827765Y-81781843D01*
X122580000Y-81732560D01*
X121080000Y-81732560D01*
X120832235Y-81781843D01*
X120622191Y-81922191D01*
X120481843Y-82132235D01*
X120469037Y-82196616D01*
X120350692Y-82275692D01*
X120303928Y-82345679D01*
X119900677Y-82748930D01*
X119830693Y-82795692D01*
X119783931Y-82865676D01*
X119783929Y-82865678D01*
X119645434Y-83072951D01*
X119580380Y-83400000D01*
X119596801Y-83482553D01*
X119596801Y-83510750D01*
X119464397Y-83378346D01*
X118997619Y-83185000D01*
X118492381Y-83185000D01*
X118327440Y-83253321D01*
X118327440Y-82380000D01*
X118278157Y-82132235D01*
X118137809Y-81922191D01*
X117927765Y-81781843D01*
X117680000Y-81732560D01*
X116180000Y-81732560D01*
X115932235Y-81781843D01*
X115722191Y-81922191D01*
X115581843Y-82132235D01*
X115532560Y-82380000D01*
X114427000Y-82380000D01*
X114427000Y-79965750D01*
X115545000Y-79965750D01*
X115545000Y-80306310D01*
X115641673Y-80539699D01*
X115820302Y-80718327D01*
X116053691Y-80815000D01*
X116644250Y-80815000D01*
X116803000Y-80656250D01*
X116803000Y-79807000D01*
X117057000Y-79807000D01*
X117057000Y-80656250D01*
X117215750Y-80815000D01*
X117806309Y-80815000D01*
X118039698Y-80718327D01*
X118218327Y-80539699D01*
X118315000Y-80306310D01*
X118315000Y-79965750D01*
X118156250Y-79807000D01*
X117057000Y-79807000D01*
X116803000Y-79807000D01*
X115703750Y-79807000D01*
X115545000Y-79965750D01*
X114427000Y-79965750D01*
X114427000Y-79055630D01*
X114869630Y-78613001D01*
X115889522Y-78613001D01*
X115820302Y-78641673D01*
X115641673Y-78820301D01*
X115545000Y-79053690D01*
X115545000Y-79394250D01*
X115703750Y-79553000D01*
X116803000Y-79553000D01*
X116803000Y-79533000D01*
X117057000Y-79533000D01*
X117057000Y-79553000D01*
X118156250Y-79553000D01*
X118315000Y-79394250D01*
X118315000Y-79053690D01*
X118218327Y-78820301D01*
X118039698Y-78641673D01*
X117970478Y-78613001D01*
X120715371Y-78613001D01*
X120743502Y-78641133D01*
X120622191Y-78722191D01*
X120481843Y-78932235D01*
X120432560Y-79180000D01*
X120432560Y-80180000D01*
X120481843Y-80427765D01*
X120622191Y-80637809D01*
X120832235Y-80778157D01*
X121080000Y-80827440D01*
X122580000Y-80827440D01*
X122827765Y-80778157D01*
X123037809Y-80637809D01*
X123178157Y-80427765D01*
X123227440Y-80180000D01*
X123227440Y-79180000D01*
X123178157Y-78932235D01*
X123037809Y-78722191D01*
X122827765Y-78581843D01*
X122583715Y-78533299D01*
X122547788Y-78352683D01*
X122537142Y-78336749D01*
X122421882Y-78164251D01*
X122379371Y-78100629D01*
X122315749Y-78058118D01*
X121622884Y-77365254D01*
X121580372Y-77301630D01*
X121328318Y-77133213D01*
X121106049Y-77089001D01*
X121106044Y-77089001D01*
X121031001Y-77074074D01*
X120955958Y-77089001D01*
X120865402Y-77089001D01*
X121155953Y-76968651D01*
X121538334Y-76536754D01*
X119380000Y-74378420D01*
X117221666Y-76536754D01*
X117604047Y-76968651D01*
X117998305Y-77089001D01*
X114629041Y-77089001D01*
X114553998Y-77074074D01*
X114478955Y-77089001D01*
X114478951Y-77089001D01*
X114256682Y-77133213D01*
X114256681Y-77133214D01*
X114256680Y-77133214D01*
X114073879Y-77255358D01*
X114004628Y-77301630D01*
X113962117Y-77365252D01*
X113740000Y-77587369D01*
X113740000Y-73285399D01*
X115643577Y-73285399D01*
X115784642Y-74743781D01*
X116071349Y-75435953D01*
X116503246Y-75818334D01*
X118661580Y-73660000D01*
X120098420Y-73660000D01*
X122256754Y-75818334D01*
X122688651Y-75435953D01*
X123116423Y-74034601D01*
X122975358Y-72576219D01*
X122688651Y-71884047D01*
X122256754Y-71501666D01*
X120098420Y-73660000D01*
X118661580Y-73660000D01*
X116503246Y-71501666D01*
X116071349Y-71884047D01*
X115643577Y-73285399D01*
X113740000Y-73285399D01*
X113740000Y-70560000D01*
X117419317Y-70560000D01*
X117221666Y-70783246D01*
G04 #@! TD*
D17*
X118745000Y-86995000D03*
X121830000Y-93255000D03*
X115570098Y-93345000D03*
X118745000Y-84455000D03*
X119380000Y-93345000D03*
X114935000Y-86995000D03*
X114935000Y-79375000D03*
X114935000Y-85090000D03*
X114935000Y-83185000D03*
X114935000Y-81280000D03*
X124460000Y-106045000D03*
X124460000Y-104140000D03*
X124460000Y-102235000D03*
X124460000Y-100330000D03*
X124460000Y-98425000D03*
X114300000Y-106045000D03*
X114300000Y-104140000D03*
X114300000Y-102235000D03*
X114300000Y-100330000D03*
X114300000Y-98425000D03*
X118745000Y-79375000D03*
X120015000Y-79375000D03*
X118745000Y-81280000D03*
X120015000Y-81280000D03*
X118745000Y-100965000D03*
X118745000Y-99060000D03*
X118745000Y-97155000D03*
X120015000Y-97155000D03*
X120015000Y-100965000D03*
X120015000Y-99060000D03*
X124460000Y-85090000D03*
X124460000Y-79375000D03*
X124460000Y-81280000D03*
X124460000Y-83185000D03*
X124460000Y-86995000D03*
X119380000Y-106680000D03*
X119380000Y-73660000D03*
M02*
